<?xml version="1.0" encoding="UTF-8" standalone="no"?>
<svg xmlns:rdf="http://www.w3.org/1999/02/22-rdf-syntax-ns#" xmlns="http://www.w3.org/2000/svg" height="48" width="48" version="1.1" xmlns:cc="http://creativecommons.org/ns#" xmlns:xlink="http://www.w3.org/1999/xlink" xmlns:dc="http://purl.org/dc/elements/1.1/">
 <defs>
  <radialGradient id="a" gradientUnits="userSpaceOnUse" cy="41.5" cx="5" gradientTransform="matrix(.40120 0 0 1.2 -6.006 -91.8)" r="5">
   <stop offset="0"/>
   <stop stop-opacity="0" offset="1"/>
  </radialGradient>
  <linearGradient id="c" y2="35" gradientUnits="userSpaceOnUse" x2="17.554" gradientTransform="matrix(1.7441 0 0 1.0909 -16.93 -2.1818)" y1="46" x1="17.554">
   <stop stop-opacity="0" offset="0"/>
   <stop offset=".5"/>
   <stop stop-opacity="0" offset="1"/>
  </linearGradient>
  <radialGradient id="b" gradientUnits="userSpaceOnUse" cy="41.5" cx="5" gradientTransform="matrix(.40120 0 0 1.2 41.994 -91.8)" r="5">
   <stop offset="0"/>
   <stop stop-opacity="0" offset="1"/>
  </radialGradient>
  <linearGradient id="f" y2="37.277" gradientUnits="userSpaceOnUse" x2="24.997" gradientTransform="matrix(1.2822 0 0 1.5573 -6.0702 -15.291)" y1="15.378" x1="24.823">
   <stop stop-color="#6ca71c" offset="0"/>
   <stop stop-color="#538607" offset=".23942"/>
   <stop stop-color="#6ca71c" offset=".27582"/>
   <stop stop-color="#538607" offset="1"/>
  </linearGradient>
  <linearGradient id="e" y2="45.042" gradientUnits="userSpaceOnUse" x2="15.464" y1="7.9757" x1="15.464">
   <stop stop-color="#538607" offset="0"/>
   <stop stop-color="#416905" offset=".23942"/>
   <stop stop-color="#538607" offset=".27582"/>
   <stop stop-color="#416905" offset="1"/>
  </linearGradient>
  <linearGradient id="g" y2="45.934" gradientUnits="userSpaceOnUse" x2="43.007" gradientTransform="matrix(1.2822 0 0 1.1747 -6.0702 -5.3032)" y1="30.555" x1="23.452">
   <stop stop-color="#fff" stop-opacity="0" offset="0"/>
   <stop stop-color="#fff" stop-opacity="0" offset="1"/>
  </linearGradient>
  <linearGradient id="h" y2="43" gradientUnits="userSpaceOnUse" x2="24" gradientTransform="matrix(1.0541 0 0 .70270 -1.2973 13.635)" y1="5.5641" x1="24">
   <stop stop-color="#fff" offset="0"/>
   <stop stop-color="#fff" stop-opacity=".23529" offset=".036262"/>
   <stop stop-color="#fff" stop-opacity=".15686" offset=".95056"/>
   <stop stop-color="#fff" stop-opacity=".39216" offset="1"/>
  </linearGradient>
  <linearGradient id="d" y2="43" gradientUnits="userSpaceOnUse" x2="24" gradientTransform="matrix(1.0541 0 0 .21622 -1.2973 8.3108)" y1="7.3473" x1="24">
   <stop stop-color="#fff" offset="0"/>
   <stop stop-color="#fff" stop-opacity=".23529" offset=".083894"/>
   <stop stop-color="#fff" stop-opacity=".15686" offset=".95056"/>
   <stop stop-color="#fff" stop-opacity=".39216" offset="1"/>
  </linearGradient>
 </defs>
 <rect opacity=".4" transform="scale(-1)" height="12" width="2" y="-48" x="-4" fill="url(#a)"/>
 <rect opacity=".4" height="12" width="40.115" y="36" x="4" fill="url(#c)"/>
 <rect opacity=".4" transform="scale(1,-1)" height="12" width="2" y="-48" x="44" fill="url(#b)"/>
 <path d="m9.0107 8.5h29.498c1.722 0 2.4969-0.28655 2.9916 1l3.001 8v25.674c0 1.5533 0.10293 1.316-1.6191 1.316h-37.765c-1.722 0-1.6191 0.23733-1.6191-1.316l-0.0006-25.674 3.0017-8c0.48083-1.2606 0.78873-1 2.5107-1z" display="block" stroke="url(#e)" stroke-linecap="round" stroke-width=".99420" fill="url(#f)"/>
 <path opacity=".50549" d="m9.9482 9.5129h27.653c1.6143 0 2.6134 0.55654 3.2895 2.086l2.3289 6.4197v23.145c0 1.4607-0.81876 2.1961-2.4331 2.1961h-33.733c-1.6143 0-2.2728-0.80883-2.2728-2.2695v-23.071l2.2538-6.5574c0.4511-1.186 1.2999-1.9491 2.9142-1.9491z" display="block" stroke="url(#g)" stroke-width=".74212" fill="none"/>
 <path opacity=".3" stroke-linejoin="round" d="m43.5 43.5h-39v-26h39z" stroke="url(#h)" stroke-linecap="round" fill="none"/>
 <path opacity=".2" stroke-linejoin="round" d="m4.5 17.5 3.2771-8h32.446l3.277 8" stroke="url(#d)" stroke-linecap="round" fill="none"/>
 <g opacity=".05" stroke-linejoin="round" transform="translate(-.20339 1.0001)" stroke="#000" stroke-width="2" fill="#fff">
  <path d="m18.776 31.935q-0.44495 0-0.74158 0.31311-0.29114 0.31311-0.33508 0.98328h2.1368q-0.0055-0.28015-0.07141-0.51636-0.066-0.236-0.198-0.406-0.132-0.176-0.329-0.275-0.198-0.099-0.462-0.099zm0.21423 5.1746q-0.65918 0-1.214-0.19226-0.55481-0.19226-0.95581-0.57678-0.401-0.39001-0.62622-0.97778-0.21973-0.59326-0.21973-1.3898 0-0.8075 0.20325-1.4117 0.20325-0.60425 0.5658-1.0052 0.36804-0.40649 0.87891-0.60974 0.51636-0.20325 1.1426-0.20325 0.60974 0 1.0986 0.18677 0.49438 0.18127 0.83496 0.53833 0.34607 0.35706 0.52734 0.87891 0.18677 0.51636 0.18677 1.1865v0.81299h-3.7463q0.01099 0.35156 0.10986 0.63721 0.10437 0.28015 0.28564 0.4779 0.18677 0.19226 0.44495 0.29663 0.26367 0.10437 0.59876 0.10437 0.28015 0 0.52734-0.02747 0.25268-0.03296 0.48889-0.09338t0.46692-0.14832q0.23071-0.09338 0.47241-0.21423v1.2964q-0.21973 0.11536-0.44495 0.19775-0.21973 0.0769-0.46692 0.13184-0.24719 0.05493-0.53284 0.0769-0.28564 0.02747-0.62622 0.02747z"/>
  <path d="m24.099 33.863-1.9775-3.0048h1.9006l1.0217 1.8457 1.0382-1.8457h1.9006l-2.005 3.0048 2.092 3.137h-1.901l-1.126-1.989-1.126 1.989h-1.901l2.082-3.137z"/>
  <path d="m31.509 35.775q0.24719 0 0.46692-0.05493 0.22522-0.05493 0.45593-0.13733v1.2469q-0.23621 0.12085-0.58777 0.19775-0.34607 0.0824-0.75806 0.0824-0.401 0-0.74707-0.09338t-0.59875-0.3241q-0.25269-0.23621-0.401-0.62622-0.14282-0.39551-0.14282-0.98877v-2.9608h-0.802v-0.70862l0.92285-0.5603 0.4834-1.2964h1.0712v1.3074h1.4941v1.2579h-1.4941v2.9608q0 0.35706 0.17578 0.52734 0.17578 0.17029 0.46142 0.17029z"/>
 </g>
 <g opacity=".15" transform="translate(-.20339 1.0001)">
  <path d="m18.776 31.935q-0.44495 0-0.74158 0.31311-0.29114 0.31311-0.33508 0.98328h2.1368q-0.0055-0.28015-0.07141-0.51636-0.066-0.236-0.198-0.406-0.132-0.176-0.329-0.275-0.198-0.099-0.462-0.099zm0.21423 5.1746q-0.65918 0-1.214-0.19226-0.55481-0.19226-0.95581-0.57678-0.401-0.39001-0.62622-0.97778-0.21973-0.59326-0.21973-1.3898 0-0.8075 0.20325-1.4117 0.20325-0.60425 0.5658-1.0052 0.36804-0.40649 0.87891-0.60974 0.51636-0.20325 1.1426-0.20325 0.60974 0 1.0986 0.18677 0.49438 0.18127 0.83496 0.53833 0.34607 0.35706 0.52734 0.87891 0.18677 0.51636 0.18677 1.1865v0.81299h-3.7463q0.01099 0.35156 0.10986 0.63721 0.10437 0.28015 0.28564 0.4779 0.18677 0.19226 0.44495 0.29663 0.26367 0.10437 0.59876 0.10437 0.28015 0 0.52734-0.02747 0.25268-0.03296 0.48889-0.09338t0.46692-0.14832q0.23071-0.09338 0.47241-0.21423v1.2964q-0.21973 0.11536-0.44495 0.19775-0.21973 0.0769-0.46692 0.13184-0.24719 0.05493-0.53284 0.0769-0.28564 0.02747-0.62622 0.02747z"/>
  <path d="m24.099 33.863-1.9775-3.0048h1.9006l1.0217 1.8457 1.0382-1.8457h1.9006l-2.005 3.0048 2.092 3.137h-1.901l-1.126-1.989-1.126 1.989h-1.901l2.082-3.137z"/>
  <path d="m31.509 35.775q0.24719 0 0.46692-0.05493 0.22522-0.05493 0.45593-0.13733v1.2469q-0.23621 0.12085-0.58777 0.19775-0.34607 0.0824-0.75806 0.0824-0.401 0-0.74707-0.09338t-0.59875-0.3241q-0.25269-0.23621-0.401-0.62622-0.14282-0.39551-0.14282-0.98877v-2.9608h-0.802v-0.70862l0.92285-0.5603 0.4834-1.2964h1.0712v1.3074h1.4941v1.2579h-1.4941v2.9608q0 0.35706 0.17578 0.52734 0.17578 0.17029 0.46142 0.17029z"/>
 </g>
 <g fill="#fff" transform="translate(-.20339)">
  <path d="m18.776 31.935q-0.44495 0-0.74158 0.31311-0.29114 0.31311-0.33508 0.98328h2.1368q-0.0055-0.28015-0.07141-0.51636-0.066-0.236-0.198-0.406-0.132-0.176-0.329-0.275-0.198-0.099-0.462-0.099zm0.21423 5.1746q-0.65918 0-1.214-0.19226-0.55481-0.19226-0.95581-0.57678-0.401-0.39001-0.62622-0.97778-0.21973-0.59326-0.21973-1.3898 0-0.8075 0.20325-1.4117 0.20325-0.60425 0.5658-1.0052 0.36804-0.40649 0.87891-0.60974 0.51636-0.20325 1.1426-0.20325 0.60974 0 1.0986 0.18677 0.49438 0.18127 0.83496 0.53833 0.34607 0.35706 0.52734 0.87891 0.18677 0.51636 0.18677 1.1865v0.81299h-3.7463q0.01099 0.35156 0.10986 0.63721 0.10437 0.28015 0.28564 0.4779 0.18677 0.19226 0.44495 0.29663 0.26367 0.10437 0.59876 0.10437 0.28015 0 0.52734-0.02747 0.25268-0.03296 0.48889-0.09338t0.46692-0.14832q0.23071-0.09338 0.47241-0.21423v1.2964q-0.21973 0.11536-0.44495 0.19775-0.21973 0.0769-0.46692 0.13184-0.24719 0.05493-0.53284 0.0769-0.28564 0.02747-0.62622 0.02747z"/>
  <path d="m24.099 33.863-1.9775-3.0048h1.9006l1.0217 1.8457 1.0382-1.8457h1.9006l-2.005 3.0048 2.092 3.137h-1.901l-1.126-1.989-1.126 1.989h-1.901l2.082-3.137z"/>
  <path d="m31.509 35.775q0.24719 0 0.46692-0.05493 0.22522-0.05493 0.45593-0.13733v1.2469q-0.23621 0.12085-0.58777 0.19775-0.34607 0.0824-0.75806 0.0824-0.401 0-0.74707-0.09338t-0.59875-0.3241q-0.25269-0.23621-0.401-0.62622-0.14282-0.39551-0.14282-0.98877v-2.9608h-0.802v-0.70862l0.92285-0.5603 0.4834-1.2964h1.0712v1.3074h1.4941v1.2579h-1.4941v2.9608q0 0.35706 0.17578 0.52734 0.17578 0.17029 0.46142 0.17029z"/>
 </g>
</svg>
