<?xml version="1.0" encoding="UTF-8" standalone="no"?>
<svg xmlns:rdf="http://www.w3.org/1999/02/22-rdf-syntax-ns#" xmlns="http://www.w3.org/2000/svg" height="48" width="48" version="1.1" xmlns:cc="http://creativecommons.org/ns#" xmlns:xlink="http://www.w3.org/1999/xlink" xmlns:dc="http://purl.org/dc/elements/1.1/">
 <defs>
  <radialGradient id="a" cx="5" gradientUnits="userSpaceOnUse" cy="41.5" r="5" gradientTransform="matrix(.40120 0 0 1.2 -6.006 -91.8)">
   <stop offset="0"/>
   <stop stop-opacity="0" offset="1"/>
  </radialGradient>
  <linearGradient id="c" x1="17.554" gradientUnits="userSpaceOnUse" y1="46" gradientTransform="matrix(1.7441 0 0 1.0909 -16.93 -2.1818)" x2="17.554" y2="35">
   <stop stop-opacity="0" offset="0"/>
   <stop offset=".5"/>
   <stop stop-opacity="0" offset="1"/>
  </linearGradient>
  <radialGradient id="b" cx="5" gradientUnits="userSpaceOnUse" cy="41.5" r="5" gradientTransform="matrix(.40120 0 0 1.2 41.994 -91.8)">
   <stop offset="0"/>
   <stop stop-opacity="0" offset="1"/>
  </radialGradient>
  <linearGradient id="f" x1="24.823" gradientUnits="userSpaceOnUse" y1="15.378" gradientTransform="matrix(1.2822 0 0 1.5573 -6.0702 -15.291)" x2="24.997" y2="37.277">
   <stop stop-color="#f5643e" offset="0"/>
   <stop stop-color="#cd3803" offset=".23942"/>
   <stop stop-color="#f5643e" offset=".27582"/>
   <stop stop-color="#cd3803" offset="1"/>
  </linearGradient>
  <linearGradient id="e" x1="15.464" gradientUnits="userSpaceOnUse" y1="7.9757" x2="15.464" y2="45.042">
   <stop stop-color="#cd3803" offset="0"/>
   <stop stop-color="#9e2b02" offset=".23942"/>
   <stop stop-color="#cd3803" offset=".27582"/>
   <stop stop-color="#9e2b02" offset="1"/>
  </linearGradient>
  <linearGradient id="g" x1="23.452" gradientUnits="userSpaceOnUse" y1="30.555" gradientTransform="matrix(1.2822 0 0 1.1747 -6.0702 -5.3032)" x2="43.007" y2="45.934">
   <stop stop-color="#fff" stop-opacity="0" offset="0"/>
   <stop stop-color="#fff" stop-opacity="0" offset="1"/>
  </linearGradient>
  <linearGradient id="h" x1="24" gradientUnits="userSpaceOnUse" y1="5.5641" gradientTransform="matrix(1.0541 0 0 .70270 -1.2973 13.635)" x2="24" y2="43">
   <stop stop-color="#fff" offset="0"/>
   <stop stop-color="#fff" stop-opacity=".23529" offset=".036262"/>
   <stop stop-color="#fff" stop-opacity=".15686" offset=".95056"/>
   <stop stop-color="#fff" stop-opacity=".39216" offset="1"/>
  </linearGradient>
  <linearGradient id="d" x1="24" gradientUnits="userSpaceOnUse" y1="7.3473" gradientTransform="matrix(1.0541 0 0 .21622 -1.2973 8.3108)" x2="24" y2="43">
   <stop stop-color="#fff" offset="0"/>
   <stop stop-color="#fff" stop-opacity=".23529" offset=".083894"/>
   <stop stop-color="#fff" stop-opacity=".15686" offset=".95056"/>
   <stop stop-color="#fff" stop-opacity=".39216" offset="1"/>
  </linearGradient>
 </defs>
 <rect opacity=".4" transform="scale(-1)" height="12" width="2" y="-48" x="-4" fill="url(#a)"/>
 <rect opacity=".4" height="12" width="40.115" y="36" x="4" fill="url(#c)"/>
 <rect opacity=".4" transform="scale(1,-1)" height="12" width="2" y="-48" x="44" fill="url(#b)"/>
 <path d="m9.0107 8.5h29.498c1.722 0 2.4969-0.28655 2.9916 1l3.001 8v25.674c0 1.5533 0.10293 1.316-1.6191 1.316h-37.765c-1.722 0-1.6191 0.23733-1.6191-1.316l-0.0006-25.674 3.0017-8c0.48083-1.2606 0.78873-1 2.5107-1z" display="block" stroke="url(#e)" stroke-linecap="round" stroke-width=".99420" fill="url(#f)"/>
 <path opacity=".50549" d="m9.9482 9.5129h27.653c1.6143 0 2.6134 0.55654 3.2895 2.086l2.3289 6.4197v23.145c0 1.4607-0.81876 2.1961-2.4331 2.1961h-33.733c-1.6143 0-2.2728-0.80883-2.2728-2.2695v-23.071l2.2538-6.5574c0.4511-1.186 1.2999-1.9491 2.9142-1.9491z" display="block" stroke="url(#g)" stroke-width=".74212" fill="none"/>
 <path opacity=".3" stroke-linejoin="round" d="m43.5 43.5h-39v-26h39z" stroke="url(#h)" stroke-linecap="round" fill="none"/>
 <path opacity=".2" stroke-linejoin="round" d="m4.5 17.5 3.2771-8h32.446l3.277 8" stroke="url(#d)" stroke-linecap="round" fill="none"/>
 <g transform="translate(-16 5.1079)">
  <g opacity=".05" stroke-linejoin="round" transform="translate(16,-4)" stroke="#000" stroke-width="2" fill="#fff">
   <path d="m18.405 36.89-2.1698-6.1414h1.7523l1.0162 3.4991q0.09338 0.31311 0.1593 0.65369 0.07141 0.33508 0.08789 0.60425h0.03296q0.01648-0.29114 0.0824-0.61523 0.07141-0.32959 0.1648-0.6427l1.0107-3.4991h1.7578l-2.1698 6.1414h-1.7249z"/>
   <path d="m24.986 37q-0.47241 0-0.86243-0.20325-0.39001-0.20325-0.67017-0.59876-0.28015-0.401-0.43945-0.99426-0.15381-0.59326-0.15381-1.3733 0-0.79102 0.15381-1.3843 0.1593-0.59876 0.44495-0.99976 0.29114-0.40649 0.69214-0.60974t0.8844-0.20325q0.29663 0 0.54382 0.07141 0.24719 0.06592 0.44495 0.19226 0.19775 0.12085 0.35156 0.28564 0.1593 0.1593 0.28015 0.35156h0.05493q-0.03296-0.21423-0.06042-0.43396-0.02747-0.18677-0.04944-0.39551-0.01648-0.21423-0.01648-0.39551v-1.9666h1.6754v8.5474h-1.2799l-0.3241-0.79651h-0.07141q-0.11536 0.18677-0.26367 0.35706-0.14832 0.1648-0.34607 0.28564-0.19226 0.12085-0.43945 0.19226-0.242 0.072-0.55 0.072zm0.60974-1.3348q0.29663 0 0.50537-0.09888 0.20874-0.10437 0.33508-0.30762 0.13184-0.20874 0.19226-0.51636 0.06592-0.30762 0.07141-0.7196v-0.18127q0-0.44495-0.05493-0.79102t-0.18127-0.57678q-0.12634-0.23621-0.34058-0.35706-0.21423-0.12085-0.53833-0.12085-0.52734 0-0.77454 0.4779-0.24719 0.47241-0.24719 1.3788 0 0.90637 0.24719 1.3623 0.25268 0.45044 0.78552 0.45044z"/>
   <path d="m29.941 29.161q0-0.23621 0.07141-0.39002 0.07141-0.1593 0.19226-0.25268 0.12634-0.09888 0.29114-0.13733 0.17029-0.03845 0.35706-0.03845t0.35156 0.03845q0.1648 0.03845 0.28564 0.13733 0.12634 0.09338 0.19775 0.25268 0.0769 0.15381 0.0769 0.39002 0 0.23071-0.0769 0.39002-0.07141 0.1593-0.19775 0.25818-0.12085 0.09338-0.28564 0.13733-0.1648 0.03845-0.35156 0.03845-0.18677 0-0.35706-0.03845-0.1648-0.04395-0.29114-0.13733-0.12085-0.09888-0.19226-0.25818t-0.07141-0.39002zm1.7468 7.7289h-1.6754v-6.1414h1.6754v6.1414z"/>
  </g>
  <g opacity=".15" transform="translate(16,-5)">
   <path d="m18.405 37.89-2.1698-6.1414h1.7523l1.0162 3.4991q0.09338 0.31311 0.1593 0.65369 0.07141 0.33508 0.08789 0.60425h0.03296q0.01648-0.29114 0.0824-0.61523 0.07141-0.32959 0.1648-0.6427l1.0107-3.4991h1.7578l-2.1698 6.1414h-1.7249z"/>
   <path d="m24.986 38q-0.47241 0-0.86243-0.20325-0.39001-0.20325-0.67017-0.59876-0.28015-0.401-0.43945-0.99426-0.15381-0.59326-0.15381-1.3733 0-0.79102 0.15381-1.3843 0.1593-0.59876 0.44495-0.99976 0.29114-0.40649 0.69214-0.60974t0.8844-0.20325q0.29663 0 0.54382 0.07141 0.24719 0.06592 0.44495 0.19226 0.19775 0.12085 0.35156 0.28564 0.1593 0.1593 0.28015 0.35156h0.05493q-0.03296-0.21423-0.06042-0.43396-0.02747-0.18677-0.04944-0.39551-0.01648-0.21423-0.01648-0.39551v-1.9666h1.6754v8.5474h-1.2799l-0.3241-0.79651h-0.07141q-0.11536 0.18677-0.26367 0.35706-0.14832 0.1648-0.34607 0.28564-0.19226 0.12085-0.43945 0.19226-0.242 0.072-0.55 0.072zm0.60974-1.3348q0.29663 0 0.50537-0.09888 0.20874-0.10437 0.33508-0.30762 0.13184-0.20874 0.19226-0.51636 0.06592-0.30762 0.07141-0.7196v-0.18127q0-0.44495-0.05493-0.79102t-0.18127-0.57678q-0.12634-0.23621-0.34058-0.35706-0.21423-0.12085-0.53833-0.12085-0.52734 0-0.77454 0.4779-0.24719 0.47241-0.24719 1.3788 0 0.90637 0.24719 1.3623 0.25268 0.45044 0.78552 0.45044z"/>
   <path d="m29.941 30.161q0-0.23621 0.07141-0.39002 0.07141-0.1593 0.19226-0.25268 0.12634-0.09888 0.29114-0.13733 0.17029-0.03845 0.35706-0.03845t0.35156 0.03845q0.1648 0.03845 0.28564 0.13733 0.12634 0.09338 0.19775 0.25268 0.0769 0.15381 0.0769 0.39002 0 0.23071-0.0769 0.39002-0.07141 0.1593-0.19775 0.25818-0.12085 0.09338-0.28564 0.13733-0.1648 0.03845-0.35156 0.03845-0.18677 0-0.35706-0.03845-0.1648-0.04395-0.29114-0.13733-0.12085-0.09888-0.19226-0.25818t-0.07141-0.39002zm1.7468 7.7289h-1.6754v-6.1414h1.6754v6.1414z"/>
  </g>
  <g fill="#fff" transform="translate(16,-5)">
   <path d="m18.405 36.89-2.1698-6.1414h1.7523l1.0162 3.4991q0.09338 0.31311 0.1593 0.65369 0.07141 0.33508 0.08789 0.60425h0.03296q0.01648-0.29114 0.0824-0.61523 0.07141-0.32959 0.1648-0.6427l1.0107-3.4991h1.7578l-2.1698 6.1414h-1.7249z"/>
   <path d="m24.986 37q-0.47241 0-0.86243-0.20325-0.39001-0.20325-0.67017-0.59876-0.28015-0.401-0.43945-0.99426-0.15381-0.59326-0.15381-1.3733 0-0.79102 0.15381-1.3843 0.1593-0.59876 0.44495-0.99976 0.29114-0.40649 0.69214-0.60974t0.8844-0.20325q0.29663 0 0.54382 0.07141 0.24719 0.06592 0.44495 0.19226 0.19775 0.12085 0.35156 0.28564 0.1593 0.1593 0.28015 0.35156h0.05493q-0.03296-0.21423-0.06042-0.43396-0.02747-0.18677-0.04944-0.39551-0.01648-0.21423-0.01648-0.39551v-1.9666h1.6754v8.5474h-1.2799l-0.3241-0.79651h-0.07141q-0.11536 0.18677-0.26367 0.35706-0.14832 0.1648-0.34607 0.28564-0.19226 0.12085-0.43945 0.19226-0.242 0.072-0.55 0.072zm0.60974-1.3348q0.29663 0 0.50537-0.09888 0.20874-0.10437 0.33508-0.30762 0.13184-0.20874 0.19226-0.51636 0.06592-0.30762 0.07141-0.7196v-0.18127q0-0.44495-0.05493-0.79102t-0.18127-0.57678q-0.12634-0.23621-0.34058-0.35706-0.21423-0.12085-0.53833-0.12085-0.52734 0-0.77454 0.4779-0.24719 0.47241-0.24719 1.3788 0 0.90637 0.24719 1.3623 0.25268 0.45044 0.78552 0.45044z"/>
   <path d="m29.941 29.161q0-0.23621 0.07141-0.39002 0.07141-0.1593 0.19226-0.25268 0.12634-0.09888 0.29114-0.13733 0.17029-0.03845 0.35706-0.03845t0.35156 0.03845q0.1648 0.03845 0.28564 0.13733 0.12634 0.09338 0.19775 0.25268 0.0769 0.15381 0.0769 0.39002 0 0.23071-0.0769 0.39002-0.07141 0.1593-0.19775 0.25818-0.12085 0.09338-0.28564 0.13733-0.1648 0.03845-0.35156 0.03845-0.18677 0-0.35706-0.03845-0.1648-0.04395-0.29114-0.13733-0.12085-0.09888-0.19226-0.25818t-0.07141-0.39002zm1.7468 7.7289h-1.6754v-6.1414h1.6754v6.1414z"/>
  </g>
 </g>
</svg>
