<?xml version="1.0" encoding="UTF-8" standalone="no"?>
<svg xmlns:rdf="http://www.w3.org/1999/02/22-rdf-syntax-ns#" xmlns="http://www.w3.org/2000/svg" height="48" width="48" version="1.1" xmlns:cc="http://creativecommons.org/ns#" xmlns:xlink="http://www.w3.org/1999/xlink" xmlns:dc="http://purl.org/dc/elements/1.1/">
 <defs>
  <radialGradient id="a" gradientUnits="userSpaceOnUse" cy="41.5" cx="5" gradientTransform="matrix(.40120 0 0 1.2 -6.006 -91.8)" r="5">
   <stop offset="0"/>
   <stop stop-opacity="0" offset="1"/>
  </radialGradient>
  <linearGradient id="c" y2="35" gradientUnits="userSpaceOnUse" x2="17.554" gradientTransform="matrix(1.7441 0 0 1.0909 -16.93 -2.1818)" y1="46" x1="17.554">
   <stop stop-opacity="0" offset="0"/>
   <stop offset=".5"/>
   <stop stop-opacity="0" offset="1"/>
  </linearGradient>
  <radialGradient id="b" gradientUnits="userSpaceOnUse" cy="41.5" cx="5" gradientTransform="matrix(.40120 0 0 1.2 41.994 -91.8)" r="5">
   <stop offset="0"/>
   <stop stop-opacity="0" offset="1"/>
  </radialGradient>
  <linearGradient id="f" y2="37.277" gradientUnits="userSpaceOnUse" x2="24.997" gradientTransform="matrix(1.2822 0 0 1.5573 -6.0702 -15.291)" y1="15.378" x1="24.823">
   <stop stop-color="#ff8639" offset="0"/>
   <stop stop-color="#cb5314" offset=".23942"/>
   <stop stop-color="#ff8639" offset=".27582"/>
   <stop stop-color="#cb5314" offset="1"/>
  </linearGradient>
  <linearGradient id="e" y2="45.042" gradientUnits="userSpaceOnUse" x2="15.464" y1="7.9757" x1="15.464">
   <stop stop-color="#cb5314" offset="0"/>
   <stop stop-color="#9e410f" offset=".23942"/>
   <stop stop-color="#cb5314" offset=".27582"/>
   <stop stop-color="#9e410f" offset="1"/>
  </linearGradient>
  <linearGradient id="g" y2="45.934" gradientUnits="userSpaceOnUse" x2="43.007" gradientTransform="matrix(1.2822 0 0 1.1747 -6.0702 -5.3032)" y1="30.555" x1="23.452">
   <stop stop-color="#fff" stop-opacity="0" offset="0"/>
   <stop stop-color="#fff" stop-opacity="0" offset="1"/>
  </linearGradient>
  <linearGradient id="h" y2="43" gradientUnits="userSpaceOnUse" x2="24" gradientTransform="matrix(1.0541 0 0 .70270 -1.2973 13.635)" y1="5.5641" x1="24">
   <stop stop-color="#fff" offset="0"/>
   <stop stop-color="#fff" stop-opacity=".23529" offset=".036262"/>
   <stop stop-color="#fff" stop-opacity=".15686" offset=".95056"/>
   <stop stop-color="#fff" stop-opacity=".39216" offset="1"/>
  </linearGradient>
  <linearGradient id="d" y2="43" gradientUnits="userSpaceOnUse" x2="24" gradientTransform="matrix(1.0541 0 0 .21622 -1.2973 8.3108)" y1="7.3473" x1="24">
   <stop stop-color="#fff" offset="0"/>
   <stop stop-color="#fff" stop-opacity=".23529" offset=".083894"/>
   <stop stop-color="#fff" stop-opacity=".15686" offset=".95056"/>
   <stop stop-color="#fff" stop-opacity=".39216" offset="1"/>
  </linearGradient>
 </defs>
 <rect opacity=".4" transform="scale(-1)" height="12" width="2" y="-48" x="-4" fill="url(#a)"/>
 <rect opacity=".4" height="12" width="40.115" y="36" x="4" fill="url(#c)"/>
 <rect opacity=".4" transform="scale(1,-1)" height="12" width="2" y="-48" x="44" fill="url(#b)"/>
 <path d="m9.0107 8.5h29.498c1.722 0 2.4969-0.28655 2.9916 1l3.001 8v25.674c0 1.5533 0.10293 1.316-1.6191 1.316h-37.765c-1.722 0-1.6191 0.23733-1.6191-1.316l-0.0006-25.674 3.0017-8c0.48083-1.2606 0.78873-1 2.5107-1z" display="block" stroke="url(#e)" stroke-linecap="round" stroke-width=".99420" fill="url(#f)"/>
 <path opacity=".50549" d="m9.9482 9.5129h27.653c1.6143 0 2.6134 0.55654 3.2895 2.086l2.3289 6.4197v23.145c0 1.4607-0.81876 2.1961-2.4331 2.1961h-33.733c-1.6143 0-2.2728-0.80883-2.2728-2.2695v-23.071l2.2538-6.5574c0.4511-1.186 1.2999-1.9491 2.9142-1.9491z" display="block" stroke="url(#g)" stroke-width=".74212" fill="none"/>
 <path opacity=".3" stroke-linejoin="round" d="m43.5 43.5h-39v-26h39z" stroke="url(#h)" stroke-linecap="round" fill="none"/>
 <path opacity=".2" stroke-linejoin="round" d="m4.5 17.5 3.2771-8h32.446l3.277 8" stroke="url(#d)" stroke-linecap="round" fill="none"/>
 <g opacity=".05" stroke-linejoin="round" transform="translate(0 1.0001)" stroke="#000" stroke-width="2">
  <path d="m16.782 33.918q0 0.91736 0.25818 1.3843 0.25818 0.46143 0.84045 0.46143 0.57678 0 0.83496-0.46692t0.25818-1.3788q0-0.91736-0.25818-1.3678-0.25818-0.45593-0.84595-0.45593-0.57678 0-0.83496 0.45593-0.25269 0.45044-0.25269 1.3678zm3.9001 0q0 0.76904-0.19775 1.3623-0.19226 0.59326-0.5603 0.99976-0.36255 0.40649-0.88989 0.62073-0.52185 0.20874-1.1755 0.20874-0.60974 0-1.1206-0.20874-0.51086-0.21423-0.8844-0.62073-0.36804-0.4065-0.57678-0.99976t-0.20874-1.3623q0-0.76355 0.19226-1.3568 0.19775-0.59326 0.5603-0.99426 0.36804-0.40649 0.88989-0.61524 0.52185-0.20874 1.181-0.20874 0.60974 0 1.1206 0.20874t0.87891 0.61524q0.37354 0.401 0.58228 0.99426t0.20874 1.3568z"/>
  <path d="m23.423 37-2.1698-6.1414h1.7523l1.0162 3.4991q0.09338 0.31311 0.1593 0.65369 0.07141 0.33508 0.08789 0.60425h0.03296q0.01648-0.29114 0.0824-0.61524 0.07141-0.32959 0.16479-0.6427l1.0107-3.4991h1.7578l-2.168 6.141h-1.725z"/>
  <path d="m31.762 37-0.3241-0.83496h-0.04944q-0.18128 0.24719-0.36255 0.42847-0.18128 0.17578-0.39551 0.29114-0.215 0.115-0.484 0.17-0.26367 0.05493-0.61524 0.05493-0.37354 0-0.69214-0.11536-0.3186-0.12085-0.55481-0.35706-0.23071-0.2417-0.36255-0.60425-0.13184-0.36804-0.13184-0.86792 0-0.97778 0.62622-1.4392 0.62622-0.46692 1.8732-0.51636l0.97778-0.03296v-0.46143q0-0.37903-0.21973-0.5603t-0.61524-0.18127-0.77454 0.11536q-0.37354 0.11536-0.75256 0.30762l-0.54382-1.1096q0.46143-0.25818 1.0217-0.40649 0.5603-0.14832 1.1755-0.14832 1.1481 0 1.7578 0.53833 0.61524 0.53833 0.61524 1.637v4.0924h-1.17zm-0.49438-2.8455-0.55481 0.02197q-0.33508 0.01099-0.5658 0.08789-0.23071 0.07691-0.37354 0.20874-0.13733 0.12634-0.20325 0.30762-0.06042 0.17578-0.06042 0.39551 0 0.38452 0.18677 0.54932 0.18677 0.1593 0.48889 0.1593 0.23071 0 0.42847-0.0769 0.19775-0.0824 0.34058-0.23621 0.14832-0.1593 0.23071-0.38452 0.0824-0.23071 0.0824-0.52734v-0.50537z"/>
 </g>
 <g opacity=".15" transform="translate(0 1.0001)">
  <path d="m16.782 33.918q0 0.91736 0.25818 1.3843 0.25818 0.46143 0.84045 0.46143 0.57678 0 0.83496-0.46692t0.25818-1.3788q0-0.91736-0.25818-1.3678-0.25818-0.45593-0.84595-0.45593-0.57678 0-0.83496 0.45593-0.25269 0.45044-0.25269 1.3678zm3.9001 0q0 0.76904-0.19775 1.3623-0.19226 0.59326-0.5603 0.99976-0.36255 0.40649-0.88989 0.62073-0.52185 0.20874-1.1755 0.20874-0.60974 0-1.1206-0.20874-0.51086-0.21423-0.8844-0.62073-0.36804-0.4065-0.57678-0.99976t-0.20874-1.3623q0-0.76355 0.19226-1.3568 0.19775-0.59326 0.5603-0.99426 0.36804-0.40649 0.88989-0.61524 0.52185-0.20874 1.181-0.20874 0.60974 0 1.1206 0.20874t0.87891 0.61524q0.37354 0.401 0.58228 0.99426t0.20874 1.3568z"/>
  <path d="m23.423 37-2.1698-6.1414h1.7523l1.0162 3.4991q0.09338 0.31311 0.1593 0.65369 0.07141 0.33508 0.08789 0.60425h0.03296q0.01648-0.29114 0.0824-0.61524 0.07141-0.32959 0.16479-0.6427l1.0107-3.4991h1.7578l-2.168 6.141h-1.725z"/>
  <path d="m31.762 37-0.3241-0.83496h-0.04944q-0.18128 0.24719-0.36255 0.42847-0.18128 0.17578-0.39551 0.29114-0.215 0.115-0.484 0.17-0.26367 0.05493-0.61524 0.05493-0.37354 0-0.69214-0.11536-0.3186-0.12085-0.55481-0.35706-0.23071-0.2417-0.36255-0.60425-0.13184-0.36804-0.13184-0.86792 0-0.97778 0.62622-1.4392 0.62622-0.46692 1.8732-0.51636l0.97778-0.03296v-0.46143q0-0.37903-0.21973-0.5603t-0.61524-0.18127-0.77454 0.11536q-0.37354 0.11536-0.75256 0.30762l-0.54382-1.1096q0.46143-0.25818 1.0217-0.40649 0.5603-0.14832 1.1755-0.14832 1.1481 0 1.7578 0.53833 0.61524 0.53833 0.61524 1.637v4.0924h-1.17zm-0.49438-2.8455-0.55481 0.02197q-0.33508 0.01099-0.5658 0.08789-0.23071 0.07691-0.37354 0.20874-0.13733 0.12634-0.20325 0.30762-0.06042 0.17578-0.06042 0.39551 0 0.38452 0.18677 0.54932 0.18677 0.1593 0.48889 0.1593 0.23071 0 0.42847-0.0769 0.19775-0.0824 0.34058-0.23621 0.14832-0.1593 0.23071-0.38452 0.0824-0.23071 0.0824-0.52734v-0.50537z"/>
 </g>
 <g fill="#fff">
  <path d="m16.782 33.918q0 0.91736 0.25818 1.3843 0.25818 0.46143 0.84045 0.46143 0.57678 0 0.83496-0.46692t0.25818-1.3788q0-0.91736-0.25818-1.3678-0.25818-0.45593-0.84595-0.45593-0.57678 0-0.83496 0.45593-0.25269 0.45044-0.25269 1.3678zm3.9001 0q0 0.76904-0.19775 1.3623-0.19226 0.59326-0.5603 0.99976-0.36255 0.40649-0.88989 0.62073-0.52185 0.20874-1.1755 0.20874-0.60974 0-1.1206-0.20874-0.51086-0.21423-0.8844-0.62073-0.36804-0.4065-0.57678-0.99976t-0.20874-1.3623q0-0.76355 0.19226-1.3568 0.19775-0.59326 0.5603-0.99426 0.36804-0.40649 0.88989-0.61524 0.52185-0.20874 1.181-0.20874 0.60974 0 1.1206 0.20874t0.87891 0.61524q0.37354 0.401 0.58228 0.99426t0.20874 1.3568z"/>
  <path d="m23.423 37-2.1698-6.1414h1.7523l1.0162 3.4991q0.09338 0.31311 0.1593 0.65369 0.07141 0.33508 0.08789 0.60425h0.03296q0.01648-0.29114 0.0824-0.61524 0.07141-0.32959 0.16479-0.6427l1.0107-3.4991h1.7578l-2.168 6.141h-1.725z"/>
  <path d="m31.762 37-0.3241-0.83496h-0.04944q-0.18128 0.24719-0.36255 0.42847-0.18128 0.17578-0.39551 0.29114-0.215 0.115-0.484 0.17-0.26367 0.05493-0.61524 0.05493-0.37354 0-0.69214-0.11536-0.3186-0.12085-0.55481-0.35706-0.23071-0.2417-0.36255-0.60425-0.13184-0.36804-0.13184-0.86792 0-0.97778 0.62622-1.4392 0.62622-0.46692 1.8732-0.51636l0.97778-0.03296v-0.46143q0-0.37903-0.21973-0.5603t-0.61524-0.18127-0.77454 0.11536q-0.37354 0.11536-0.75256 0.30762l-0.54382-1.1096q0.46143-0.25818 1.0217-0.40649 0.5603-0.14832 1.1755-0.14832 1.1481 0 1.7578 0.53833 0.61524 0.53833 0.61524 1.637v4.0924h-1.17zm-0.49438-2.8455-0.55481 0.02197q-0.33508 0.01099-0.5658 0.08789-0.23071 0.07691-0.37354 0.20874-0.13733 0.12634-0.20325 0.30762-0.06042 0.17578-0.06042 0.39551 0 0.38452 0.18677 0.54932 0.18677 0.1593 0.48889 0.1593 0.23071 0 0.42847-0.0769 0.19775-0.0824 0.34058-0.23621 0.14832-0.1593 0.23071-0.38452 0.0824-0.23071 0.0824-0.52734v-0.50537z"/>
 </g>
</svg>
