<?xml version="1.0" encoding="UTF-8" standalone="no"?>
<svg xmlns:rdf="http://www.w3.org/1999/02/22-rdf-syntax-ns#" xmlns="http://www.w3.org/2000/svg" height="24" width="24" version="1.1" enable-background="new" xmlns:cc="http://creativecommons.org/ns#" xmlns:dc="http://purl.org/dc/elements/1.1/" viewBox="0 0 24 24">
 <g transform="translate(0 -1028.4)">
  <circle stroke-linejoin="round" cx="12" stroke-linecap="round" stroke="#d33636" cy="1040.4" r="6" stroke-width="2" fill="none"/>
  <path d="m6 1031.4a3 3 0 0 0 -3 3 3 3 0 0 0 0.88867 2.1289c0.88843-1.8521 2.3882-3.3516 4.2402-4.2402a3 3 0 0 0 -2.1289 -0.9z" fill="#d33636"/>
  <path d="m18 1031.4a3 3 0 0 0 -2.1289 0.8887c1.852 0.8886 3.3518 2.3881 4.2402 4.2402a3 3 0 0 0 0.889 -2.1 3 3 0 0 0 -3 -3z" fill="#d33636"/>
  <path d="m12.003 1040.4-2.253-2.3" stroke="#d33636" stroke-linecap="round" stroke-width="1.5" fill="none"/>
  <path d="m13.25 1039.1-1.2462 1.2476" stroke="#d33636" stroke-linecap="round" stroke-width="1.5" fill="none"/>
  <path d="m6.2969 17.607a1.5 1.5 0 0 0 -0.2969 0.893 1.5 1.5 0 0 0 1.5 1.5 1.5 1.5 0 0 0 1.2617 -0.689 8 8 0 0 1 -2.4648 -1.704z" transform="translate(0 1028.4)" fill="#d33636"/>
  <path d="m17.701 17.604a8 8 0 0 1 -2.465 1.701 1.5 1.5 0 0 0 1.264 0.695 1.5 1.5 0 0 0 1.5 -1.5 1.5 1.5 0 0 0 -0.299 -0.896z" transform="translate(0 1028.4)" fill="#d33636"/>
 </g>
</svg>
