<?xml version="1.0" encoding="UTF-8" standalone="no"?>
<svg xmlns:rdf="http://www.w3.org/1999/02/22-rdf-syntax-ns#" xmlns="http://www.w3.org/2000/svg" height="24" width="24" version="1.1" xmlns:cc="http://creativecommons.org/ns#" xmlns:dc="http://purl.org/dc/elements/1.1/" viewBox="0 0 24 24">
 <g transform="translate(0 -1028.4)" fill="#fff">
  <path opacity=".4" d="m12 4c-1.662 0-3 1.338-3 3v1 1 1 1 1c0 1.662 1.338 3 3 3v-1a1.0001 1.0001 0 0 1 1 -1h1.818c0.111-0.314 0.182-0.647 0.182-1v-1-1-1-1-1c0-1.662-1.338-3-3-3zm-4.5078 5.9941a0.50005 0.50005 0 0 0 -0.4922 0.5059v1.467 0.033a0.50005 0.50005 0 0 0 0.0039 0.068c0.0249 1.759 0.9703 3.379 2.4961 4.26 0.4725 0.273 0.981 0.451 1.5 0.557v1.111h-3c-0.554 0-1 0.446-1 1s0.446 1 1 1h4v-3.998c-0.69 0-1.381-0.178-2-0.535-1.2383-0.715-2-2.033-2-3.463v-1.5a0.50005 0.50005 0 0 0 -0.5078 -0.5059zm8.9998 0a0.50005 0.50005 0 0 0 -0.492 0.5059v1.5c0 0.343-0.047 0.677-0.131 1h0.131a1.0001 1.0001 0 0 1 0.5 0.137 1.0001 1.0001 0 0 1 0.383 -0.131c0.062-0.303 0.106-0.61 0.111-0.926a0.50005 0.50005 0 0 0 0.006 -0.08v-1.5a0.50005 0.50005 0 0 0 -0.508 -0.5059zm-1.861 5.0059c-0.195 0.171-0.401 0.33-0.631 0.463v1.098c0.169-0.072 0.339-0.14 0.5-0.233 0.175-0.101 0.341-0.214 0.5-0.334v-0.994h-0.369zm-0.631 2.996v1.004h1v-1.004h-1z" transform="translate(0 1028.4)"/>
  <path style="image-rendering:optimizeQuality;shape-rendering:geometricPrecision" d="m13 1042.4v6h3v-6h-3zm4 0v6h3v-6h-3z" fill-rule="evenodd" clip-rule="evenodd"/>
 </g>
</svg>
