<?xml version="1.0" encoding="UTF-8" standalone="no"?>
<svg xmlns:rdf="http://www.w3.org/1999/02/22-rdf-syntax-ns#" xmlns="http://www.w3.org/2000/svg" height="24" width="24" version="1.1" xmlns:cc="http://creativecommons.org/ns#" xmlns:dc="http://purl.org/dc/elements/1.1/" viewBox="0 0 24 24">
 <g transform="translate(0 -1028.4)">
  <path d="m12 1032.4c-1.662 0-3 1.338-3 3v1 1 1 1 1c0 1.662 1.338 3 3 3s3-1.338 3-3v-1-1-1-1-1c0-1.662-1.338-3-3-3zm-4.5078 5.9941a0.50005 0.50005 0 0 0 -0.4922 0.5v1.4668 0.033c0 0.0006-3e-7 0 0 0a0.50005 0.50005 0 0 0 0.00391 0.068c0.0249 1.7582 0.97029 3.3788 2.4961 4.2597 0.4725 0.2728 0.98068 0.4506 1.5 0.5567v1.1113h-3c-0.554 0-1 0.446-1 1s0.446 1 1 1h8c0.554 0 1-0.446 1-1s-0.446-1-1-1h-3v-1.1113c0.51932-0.1061 1.0275-0.2839 1.5-0.5567 1.5224-0.8789 2.4651-2.4944 2.4941-4.248a0.50005 0.50005 0 0 0 0.0059 -0.08v-1.5a0.50005 0.50005 0 0 0 -0.508 -0.5 0.50005 0.50005 0 0 0 -0.492 0.5v1.5c0 1.4298-0.7617 2.7478-2 3.4628-1.2383 0.7149-2.7617 0.7149-4 0-1.2383-0.715-2-2.033-2-3.4628v-1.5a0.50005 0.50005 0 0 0 -0.50781 -0.5059z" fill="#fff"/>
  <path style="color:#000000;image-rendering:optimizeQuality;shape-rendering:geometricPrecision" d="m20 1034.4a2 2 0 0 1 -4 0 2 2 0 1 1 4 0z" clip-rule="evenodd" fill="#d33636"/>
 </g>
</svg>
