<?xml version="1.0" encoding="UTF-8" standalone="no"?>
<svg xmlns:rdf="http://www.w3.org/1999/02/22-rdf-syntax-ns#" xmlns="http://www.w3.org/2000/svg" height="24" width="24" version="1.1" xmlns:cc="http://creativecommons.org/ns#" xmlns:dc="http://purl.org/dc/elements/1.1/" viewBox="0 0 24 24">
 <g transform="translate(0 -1028.4)">
  <path d="m20 1040.4a8 8 0 0 0 -8 -8 8 8 0 0 0 -8 8 8 8 0 0 0 8 8 8 8 0 0 0 8 -8zm-2.0215 0.5293c-0.25041 2.8248-2.4545 5.0762-5.2578 5.416a0.50051 0.50051 0 0 1 -0.68367 -0.6366l0.99612-2.4884a0.50005 0.50005 0 0 1 0.96681 0.1778 0.50005 0.50005 0 0 1 -0.03907 0.1933l-0.65234 1.6308c1.9945-0.5388 3.4843-2.2643 3.6719-4.3808 0.21258-2.3974-1.3068-4.6002-3.6231-5.2539a0.50025 0.50025 0 1 1 0.27154 -0.9629c2.7728 0.7825 4.602 3.4348 4.3476 6.3047l0.000483 0.0008zm-5.9707-6.0097a0.50005 0.50005 0 0 1 -0.09767 0.3007l-0.9433 2.3594a0.50051 0.50051 0 1 1 -0.92971 -0.3711l0.65231-1.6328c-1.9812 0.535-3.4669 2.2442-3.6679 4.3476-0.22912 2.397 1.2766 4.6107 3.5898 5.2793a0.5001 0.5001 0 1 1 -0.27734 0.961c-2.7691-0.8004-4.5829-3.4646-4.3086-6.334 0.26772-2.8017 2.4573-5.0221 5.2324-5.3691a0.50005 0.50005 0 0 1 0.70118 0.2421 0.50005 0.50005 0 0 1 0.0028 0.013 0.50005 0.50005 0 0 1 0.04457 0.2072z" fill="#fff"/>
 </g>
</svg>
