<?xml version="1.0" encoding="UTF-8" standalone="no"?>
<!-- Created with Inkscape (http://www.inkscape.org/) -->

<svg
   xmlns:dc="http://purl.org/dc/elements/1.1/"
   xmlns:cc="http://creativecommons.org/ns#"
   xmlns:rdf="http://www.w3.org/1999/02/22-rdf-syntax-ns#"
   xmlns:svg="http://www.w3.org/2000/svg"
   xmlns="http://www.w3.org/2000/svg"
   xmlns:sodipodi="http://sodipodi.sourceforge.net/DTD/sodipodi-0.dtd"
   xmlns:inkscape="http://www.inkscape.org/namespaces/inkscape"
   width="24"
   height="24"
   viewBox="0 0 24 24"
   id="svg2"
   version="1.1"
   inkscape:version="0.91 r"
   sodipodi:docname="btsync-gui-9.svg">
  <defs
     id="defs4" />
  <sodipodi:namedview
     id="base"
     pagecolor="#8c8c8c"
     bordercolor="#666666"
     borderopacity="1.0"
     inkscape:pageopacity="0"
     inkscape:pageshadow="2"
     inkscape:zoom="15.839192"
     inkscape:cx="11.493089"
     inkscape:cy="11.49323"
     inkscape:document-units="px"
     inkscape:current-layer="layer1"
     showgrid="true"
     units="px"
     showguides="true"
     inkscape:guide-bbox="true"
     inkscape:snap-object-midpoints="true"
     inkscape:snap-smooth-nodes="true"
     inkscape:object-nodes="true"
     inkscape:snap-intersection-paths="true"
     inkscape:snap-grids="false"
     inkscape:window-width="1280"
     inkscape:window-height="745"
     inkscape:window-x="0"
     inkscape:window-y="30"
     inkscape:window-maximized="1">
    <inkscape:grid
       type="xygrid"
       id="grid11195" />
    <sodipodi:guide
       position="4,13"
       orientation="1,0"
       id="guide11197" />
    <sodipodi:guide
       position="20,11"
       orientation="1,0"
       id="guide11199" />
    <sodipodi:guide
       position="11,20"
       orientation="0,1"
       id="guide11201" />
    <sodipodi:guide
       position="9,4"
       orientation="0,1"
       id="guide11203" />
  </sodipodi:namedview>
  <metadata
     id="metadata7">
    <rdf:RDF>
      <cc:Work
         rdf:about="">
        <dc:format>image/svg+xml</dc:format>
        <dc:type
           rdf:resource="http://purl.org/dc/dcmitype/StillImage" />
        <dc:title></dc:title>
      </cc:Work>
    </rdf:RDF>
  </metadata>
  <g
     inkscape:label="Ebene 1"
     inkscape:groupmode="layer"
     id="layer1"
     transform="translate(0,-1028.3622)">
    <path
       style="opacity:1;fill:#ffffff;fill-opacity:1;stroke:none;stroke-width:2;stroke-linecap:round;stroke-linejoin:round;stroke-miterlimit:4;stroke-dasharray:none;stroke-opacity:1"
       d="m 4.0000021,1040.3622 a 8,8 0 0 0 7.9999979,8 8,8 0 0 0 7.999998,-8 8,8 0 0 0 -7.999998,-8 8,8 0 0 0 -7.9999979,8 z m 2.0214415,-0.5294 c 0.2503786,-2.8248 2.4545742,-5.0761 5.2578574,-5.4159 a 0.50051295,0.50051295 0 0 1 0.683723,0.6366 l -0.996176,2.4884 a 0.50004997,0.50004997 0 0 1 -0.9668622,-0.1778 0.50004997,0.50004997 0 0 1 0.039012,-0.1934 l 0.652384,-1.6308 c -1.9945786,0.5387 -3.4842854,2.2643 -3.6718794,4.3808 -0.2125907,2.3974 1.3066641,4.6003 3.6230904,5.2539 a 0.50024686,0.50024686 0 1 1 -0.271612,0.9629 c -2.7727328,-0.7826 -4.6019632,-3.4348 -4.3475831,-6.3047 l -4.915e-4,-8e-4 z m 5.9707454,6.0098 a 0.50005,0.50005 0 0 1 0.09698,-0.3008 l 0.943337,-2.3594 a 0.5005436,0.5005436 0 0 1 0.929735,0.3711 l -0.652384,1.6328 c 1.981303,-0.5351 3.466984,-2.2442 3.667907,-4.3476 0.229179,-2.397 -1.276584,-4.6107 -3.58979,-5.2793 a 0.50014049,0.50014049 0 0 1 0.277455,-0.961 c 2.769082,0.8004 4.582893,3.4646 4.308517,6.334 -0.267704,2.8017 -2.457237,5.0221 -5.23246,5.3692 a 0.50005,0.50005 0 0 1 -0.701064,-0.2422 0.50005,0.50005 0 0 1 0.0029,-0.016 0.50005,0.50005 0 0 1 -0.04357,-0.2074 z"
       id="path11205"
       inkscape:connector-curvature="0" />
  </g>
</svg>
