<?xml version="1.0" encoding="UTF-8" standalone="no"?>
<!-- Created with Inkscape (http://www.inkscape.org/) -->

<svg
   xmlns:dc="http://purl.org/dc/elements/1.1/"
   xmlns:cc="http://creativecommons.org/ns#"
   xmlns:rdf="http://www.w3.org/1999/02/22-rdf-syntax-ns#"
   xmlns:svg="http://www.w3.org/2000/svg"
   xmlns="http://www.w3.org/2000/svg"
   xmlns:sodipodi="http://sodipodi.sourceforge.net/DTD/sodipodi-0.dtd"
   xmlns:inkscape="http://www.inkscape.org/namespaces/inkscape"
   width="24"
   height="24"
   viewBox="0 0 24 24"
   id="svg2"
   version="1.1"
   inkscape:version="0.91 r"
   sodipodi:docname="btsync-gui-8.svg">
  <defs
     id="defs4" />
  <sodipodi:namedview
     id="base"
     pagecolor="#8c8c8c"
     bordercolor="#666666"
     borderopacity="1.0"
     inkscape:pageopacity="0"
     inkscape:pageshadow="2"
     inkscape:zoom="15.839192"
     inkscape:cx="11.493089"
     inkscape:cy="11.49323"
     inkscape:document-units="px"
     inkscape:current-layer="layer1"
     showgrid="true"
     units="px"
     showguides="true"
     inkscape:guide-bbox="true"
     inkscape:snap-object-midpoints="true"
     inkscape:snap-smooth-nodes="true"
     inkscape:object-nodes="true"
     inkscape:snap-intersection-paths="true"
     inkscape:snap-grids="false"
     inkscape:window-width="1280"
     inkscape:window-height="745"
     inkscape:window-x="0"
     inkscape:window-y="30"
     inkscape:window-maximized="1">
    <inkscape:grid
       type="xygrid"
       id="grid11195" />
    <sodipodi:guide
       position="4,13"
       orientation="1,0"
       id="guide11197" />
    <sodipodi:guide
       position="20,11"
       orientation="1,0"
       id="guide11199" />
    <sodipodi:guide
       position="11,20"
       orientation="0,1"
       id="guide11201" />
    <sodipodi:guide
       position="9,4"
       orientation="0,1"
       id="guide11203" />
  </sodipodi:namedview>
  <metadata
     id="metadata7">
    <rdf:RDF>
      <cc:Work
         rdf:about="">
        <dc:format>image/svg+xml</dc:format>
        <dc:type
           rdf:resource="http://purl.org/dc/dcmitype/StillImage" />
        <dc:title></dc:title>
      </cc:Work>
    </rdf:RDF>
  </metadata>
  <g
     inkscape:label="Ebene 1"
     inkscape:groupmode="layer"
     id="layer1"
     transform="translate(0,-1028.3622)">
    <path
       style="opacity:1;fill:#ffffff;fill-opacity:1;stroke:none;stroke-width:2;stroke-linecap:round;stroke-linejoin:round;stroke-miterlimit:4;stroke-dasharray:none;stroke-opacity:1"
       d="m 5.0717992,1044.3622 a 8,8 0 0 0 10.9281988,2.9282 8,8 0 0 0 2.928203,-10.9282 8,8 0 0 0 -10.9281989,-2.9282 8,8 0 0 0 -2.9282029,10.9282 z m 1.4859166,-1.4692 c -1.1955439,-2.5715 -0.4123156,-5.6233 1.8455081,-7.3192 a 0.50051295,0.50051295 0 0 1 0.9103929,0.2094 l 0.3814834,2.6531 a 0.50004997,0.50004997 0 0 1 -0.9261997,0.3295 0.50004997,0.50004997 0 0 1 -0.062917,-0.187 l -0.2504152,-1.7385 c -1.4580158,1.4638 -1.8853206,3.7031 -0.9895547,5.6298 1.0145884,2.1825 3.4317285,3.3306 5.7646585,2.7385 a 0.50024686,0.50024686 0 1 1 0.246226,0.9697 c -2.792566,0.7086 -5.7028506,-0.6737 -6.917503,-3.2863 l -7.985e-4,-4e-4 z m 8.1757362,2.2193 a 0.50005,0.50005 0 0 1 -0.06642,-0.309 l -0.362765,-2.515 a 0.5005436,0.5005436 0 0 1 0.990716,-0.1435 l 0.251454,1.7403 c 1.448287,-1.4541 1.880354,-3.6771 1.002693,-5.5991 -1.000053,-2.1905 -3.410909,-3.3547 -5.748492,-2.7771 a 0.50014049,0.50014049 0 0 1 -0.24023,-0.971 c 2.798281,-0.6914 5.701211,0.709 6.898259,3.3311 1.169014,2.5602 0.383029,5.5779 -1.84684,7.2661 a 0.50005,0.50005 0 0 1 -0.728228,0.1408 0.50005,0.50005 0 0 1 -0.0053,-0.015 0.50005,0.50005 0 0 1 -0.141476,-0.1579 z"
       id="path11205"
       inkscape:connector-curvature="0" />
  </g>
</svg>
