<?xml version="1.0" encoding="UTF-8" standalone="no"?>
<svg xmlns:rdf="http://www.w3.org/1999/02/22-rdf-syntax-ns#" xmlns="http://www.w3.org/2000/svg" height="24" width="24" version="1.1" xmlns:cc="http://creativecommons.org/ns#" xmlns:dc="http://purl.org/dc/elements/1.1/" viewBox="0 0 24 24">
 <g transform="translate(0 -1028.4)">
  <path d="m16 1033.4a8 8 0 0 0 -10.928 3 8 8 0 0 0 2.928 10.9 8 8 0 0 0 10.928 -2.9 8 8 0 0 0 -2.928 -11zm-0.55236 2.0153c2.3212 1.6293 3.1689 4.6638 2.0615 7.2614a0.50051 0.50051 0 0 1 -0.89321 0.2737l-1.6569-2.1068a0.50005 0.50005 0 0 1 0.63732 -0.7484 0.50005 0.50005 0 0 1 0.14792 0.1305l1.0862 1.3804c0.53056-1.9967-0.21888-4.1497-1.958-5.3704-1.9699-1.3828-4.6373-1.1684-6.3615 0.5107a0.50022 0.50022 0 1 1 -0.69815 -0.7166c2.0641-2.01 5.2756-2.2681 7.6338-0.6128h0.000976zm-8.19 2.1659a0.50005 0.50005 0 0 1 0.21166 0.235l1.5716 1.9966a0.50051 0.50051 0 0 1 -0.78622 0.6196l-1.0879-1.3813c-0.52732 1.9832 0.2101 4.1245 1.9312 5.3503 1.9613 1.3969 4.6313 1.1998 6.3669-0.4692a0.50008 0.50008 0 0 1 0.69352 0.7206c-2.0777 1.998-5.2919 2.2366-7.6397 0.5644-2.2925-1.6327-3.1206-4.6391-2.0336-7.216a0.50005 0.50005 0 0 1 0.56033 -0.4861 0.50005 0.50005 0 0 1 0.010411 0 0.50005 0.50005 0 0 1 0.20175 0.065z" fill="#fff"/>
 </g>
</svg>
