<?xml version="1.0" encoding="UTF-8" standalone="no"?>
<svg xmlns:rdf="http://www.w3.org/1999/02/22-rdf-syntax-ns#" xmlns="http://www.w3.org/2000/svg" height="24" width="24" version="1.1" xmlns:cc="http://creativecommons.org/ns#" xmlns:dc="http://purl.org/dc/elements/1.1/" viewBox="0 0 24 24">
 <g transform="translate(0 -1028.4)">
  <path d="m12 1048.4a8 8 0 0 0 8 -8 8 8 0 0 0 -8 -8 8 8 0 0 0 -8 8 8 8 0 0 0 8 8zm-0.52937-2.0214c-2.8248-0.2504-5.0761-2.4546-5.4159-5.2579a0.50051 0.50051 0 0 1 0.63659 -0.6837l2.4884 0.9962a0.50005 0.50005 0 0 1 -0.17782 0.9668 0.50005 0.50005 0 0 1 -0.19341 -0.039l-1.6308-0.6524c0.5387 1.9946 2.2643 3.4843 4.3808 3.6719 2.3974 0.2126 4.6002-1.3067 5.2539-3.6231a0.50025 0.50025 0 1 1 0.96284 0.2716c-0.78254 2.7728-3.4348 4.602-6.3047 4.3476l-0.000776 0.0005zm6.0098-5.9708a0.50005 0.50005 0 0 1 -0.30083 -0.097l-2.3594-0.9433a0.50054 0.50054 0 0 1 0.37113 -0.9297l1.6328 0.6523c-0.53506-1.9812-2.2442-3.4669-4.3476-3.6679-2.397-0.2291-4.6107 1.2766-5.2793 3.5898a0.50012 0.50012 0 1 1 -0.961 -0.2774c0.80037-2.7691 3.4646-4.5829 6.334-4.3085 2.8017 0.2677 5.0221 2.4572 5.3691 5.2324a0.50005 0.50005 0 0 1 -0.24212 0.7011 0.50005 0.50005 0 0 1 -0.0137 0 0.50005 0.50005 0 0 1 -0.20723 0.044z" fill="#fff"/>
 </g>
</svg>
