<?xml version="1.0" encoding="UTF-8" standalone="no"?>
<!-- Created with Inkscape (http://www.inkscape.org/) -->

<svg
   xmlns:dc="http://purl.org/dc/elements/1.1/"
   xmlns:cc="http://creativecommons.org/ns#"
   xmlns:rdf="http://www.w3.org/1999/02/22-rdf-syntax-ns#"
   xmlns:svg="http://www.w3.org/2000/svg"
   xmlns="http://www.w3.org/2000/svg"
   xmlns:sodipodi="http://sodipodi.sourceforge.net/DTD/sodipodi-0.dtd"
   xmlns:inkscape="http://www.inkscape.org/namespaces/inkscape"
   width="24"
   height="24"
   viewBox="0 0 24 24"
   id="svg2"
   version="1.1"
   inkscape:version="0.91 r"
   sodipodi:docname="btsync-gui-4.svg">
  <defs
     id="defs4" />
  <sodipodi:namedview
     id="base"
     pagecolor="#8c8c8c"
     bordercolor="#666666"
     borderopacity="1.0"
     inkscape:pageopacity="0"
     inkscape:pageshadow="2"
     inkscape:zoom="15.839192"
     inkscape:cx="11.493089"
     inkscape:cy="11.49323"
     inkscape:document-units="px"
     inkscape:current-layer="layer1"
     showgrid="true"
     units="px"
     showguides="true"
     inkscape:guide-bbox="true"
     inkscape:snap-object-midpoints="true"
     inkscape:snap-smooth-nodes="true"
     inkscape:object-nodes="true"
     inkscape:snap-intersection-paths="true"
     inkscape:snap-grids="false"
     inkscape:window-width="1280"
     inkscape:window-height="745"
     inkscape:window-x="0"
     inkscape:window-y="30"
     inkscape:window-maximized="1">
    <inkscape:grid
       type="xygrid"
       id="grid11195" />
    <sodipodi:guide
       position="4,13"
       orientation="1,0"
       id="guide11197" />
    <sodipodi:guide
       position="20,11"
       orientation="1,0"
       id="guide11199" />
    <sodipodi:guide
       position="11,20"
       orientation="0,1"
       id="guide11201" />
    <sodipodi:guide
       position="9,4"
       orientation="0,1"
       id="guide11203" />
  </sodipodi:namedview>
  <metadata
     id="metadata7">
    <rdf:RDF>
      <cc:Work
         rdf:about="">
        <dc:format>image/svg+xml</dc:format>
        <dc:type
           rdf:resource="http://purl.org/dc/dcmitype/StillImage" />
        <dc:title></dc:title>
      </cc:Work>
    </rdf:RDF>
  </metadata>
  <g
     inkscape:label="Ebene 1"
     inkscape:groupmode="layer"
     id="layer1"
     transform="translate(0,-1028.3622)">
    <path
       style="opacity:1;fill:#ffffff;fill-opacity:1;stroke:none;stroke-width:2;stroke-linecap:round;stroke-linejoin:round;stroke-miterlimit:4;stroke-dasharray:none;stroke-opacity:1"
       d="m 18.928202,1044.3622 a 8,8 0 0 0 -2.928204,-10.9282 8,8 0 0 0 -10.9282,2.9282 8,8 0 0 0 2.9282038,10.9282 8,8 0 0 0 10.9282002,-2.9282 z m -2.015293,-0.5523 c -1.629259,2.3211 -4.663783,3.1688 -7.2613911,2.0614 a 0.50051295,0.50051295 0 0 1 -0.273779,-0.8931 l 2.1068651,-1.657 a 0.50004997,0.50004997 0 0 1 0.74838,0.6374 0.50004997,0.50004997 0 0 1 -0.130485,0.1479 l -1.38034,1.0861 c 1.99666,0.5307 4.14961,-0.2188 5.370361,-1.9579 1.382805,-1.9699 1.168406,-4.6373 -0.510742,-6.3616 a 0.50024686,0.50024686 0 1 1 0.716609,-0.6981 c 2.010049,2.0641 2.26808,5.2757 0.612813,7.6339 l 1.9e-5,9e-4 z m -2.165957,-8.19 a 0.50005,0.50005 0 0 1 -0.234935,0.2116 l -1.996625,1.5717 a 0.5005187,0.5005187 0 1 1 -0.619603,-0.7863 l 1.381315,-1.0879 c -1.983264,-0.5272 -4.1245099,0.2101 -5.3502955,1.9312 -1.39692,1.9613 -1.1997846,4.6313 0.4692206,6.3669 a 0.50010905,0.50010905 0 0 1 -0.72068,0.6936 c -1.9979374,-2.0777 -2.2366004,-5.2919 -0.5643637,-7.6397 1.6327031,-2.2925 4.6391276,-3.1206 7.2159566,-2.0336 a 0.50005,0.50005 0 0 1 0.486192,0.5603 0.50005,0.50005 0 0 1 -0.0041,0.013 0.50005,0.50005 0 0 1 -0.065,0.2018 z"
       id="path11205"
       inkscape:connector-curvature="0" />
  </g>
</svg>
