<?xml version="1.0" encoding="UTF-8" standalone="no"?>
<!-- Created with Inkscape (http://www.inkscape.org/) -->

<svg
   xmlns:dc="http://purl.org/dc/elements/1.1/"
   xmlns:cc="http://creativecommons.org/ns#"
   xmlns:rdf="http://www.w3.org/1999/02/22-rdf-syntax-ns#"
   xmlns:svg="http://www.w3.org/2000/svg"
   xmlns="http://www.w3.org/2000/svg"
   xmlns:sodipodi="http://sodipodi.sourceforge.net/DTD/sodipodi-0.dtd"
   xmlns:inkscape="http://www.inkscape.org/namespaces/inkscape"
   width="24"
   height="24"
   viewBox="0 0 24 24"
   id="svg2"
   version="1.1"
   inkscape:version="0.91 r"
   sodipodi:docname="btsync-gui-2.svg">
  <defs
     id="defs4" />
  <sodipodi:namedview
     id="base"
     pagecolor="#8c8c8c"
     bordercolor="#666666"
     borderopacity="1.0"
     inkscape:pageopacity="0"
     inkscape:pageshadow="2"
     inkscape:zoom="15.839192"
     inkscape:cx="11.493089"
     inkscape:cy="11.49323"
     inkscape:document-units="px"
     inkscape:current-layer="layer1"
     showgrid="true"
     units="px"
     showguides="true"
     inkscape:guide-bbox="true"
     inkscape:snap-object-midpoints="true"
     inkscape:snap-smooth-nodes="true"
     inkscape:object-nodes="true"
     inkscape:snap-intersection-paths="true"
     inkscape:snap-grids="false"
     inkscape:window-width="1280"
     inkscape:window-height="745"
     inkscape:window-x="0"
     inkscape:window-y="30"
     inkscape:window-maximized="1">
    <inkscape:grid
       type="xygrid"
       id="grid11195" />
    <sodipodi:guide
       position="4,13"
       orientation="1,0"
       id="guide11197" />
    <sodipodi:guide
       position="20,11"
       orientation="1,0"
       id="guide11199" />
    <sodipodi:guide
       position="11,20"
       orientation="0,1"
       id="guide11201" />
    <sodipodi:guide
       position="9,4"
       orientation="0,1"
       id="guide11203" />
  </sodipodi:namedview>
  <metadata
     id="metadata7">
    <rdf:RDF>
      <cc:Work
         rdf:about="">
        <dc:format>image/svg+xml</dc:format>
        <dc:type
           rdf:resource="http://purl.org/dc/dcmitype/StillImage" />
        <dc:title></dc:title>
      </cc:Work>
    </rdf:RDF>
  </metadata>
  <g
     inkscape:label="Ebene 1"
     inkscape:groupmode="layer"
     id="layer1"
     transform="translate(0,-1028.3622)">
    <path
       style="opacity:1;fill:#ffffff;fill-opacity:1;stroke:none;stroke-width:2;stroke-linecap:round;stroke-linejoin:round;stroke-miterlimit:4;stroke-dasharray:none;stroke-opacity:1"
       d="M 18.928202,1036.3622 A 8,8 0 0 0 8,1033.434 8,8 0 0 0 5.0717984,1044.3622 8,8 0 0 0 16,1047.2904 a 8,8 0 0 0 2.928202,-10.9282 z m -1.486006,1.4691 c 1.195569,2.5716 0.412428,5.6234 -1.845388,7.3193 a 0.50051295,0.50051295 0 0 1 -0.910394,-0.2095 l -0.38149,-2.653 a 0.50004997,0.50004997 0 0 1 0.926137,-0.3295 0.50004997,0.50004997 0 0 1 0.06285,0.187 l 0.250471,1.7385 c 1.45783,-1.4639 1.885294,-3.7031 0.989524,-5.6299 -1.014595,-2.1825 -3.431791,-3.3305 -5.764605,-2.7384 a 0.50023069,0.50023069 0 1 1 -0.246312,-0.9697 c 2.792564,-0.7087 5.702877,0.6736 6.917506,3.2862 l 8.46e-4,5e-4 z m -8.1756649,-2.2192 a 0.50005,0.50005 0 0 1 0.0658,0.3093 l 0.3627448,2.5149 a 0.50051289,0.50051289 0 0 1 -0.9906869,0.1435 l -0.2514862,-1.7402 c -1.4482752,1.4539 -1.8802953,3.677 -1.0026846,5.5991 1.0000681,2.1904 3.4109242,3.3547 5.7485202,2.7771 a 0.50008038,0.50008038 0 0 1 0.24031,0.9709 c -2.798337,0.6914 -5.701209,-0.709 -6.8983636,-3.3311 -1.1689947,-2.5602 -0.3829657,-5.5779 1.8468489,-7.266 a 0.50005,0.50005 0 0 1 0.7283071,-0.1409 0.50005,0.50005 0 0 1 0.00902,0.01 0.50005,0.50005 0 0 1 0.1422248,0.1572 z"
       id="path11205"
       inkscape:connector-curvature="0" />
  </g>
</svg>
