<?xml version="1.0" encoding="UTF-8" standalone="no"?>
<svg xmlns:rdf="http://www.w3.org/1999/02/22-rdf-syntax-ns#" xmlns="http://www.w3.org/2000/svg" height="24" width="24" version="1.1" xmlns:cc="http://creativecommons.org/ns#" xmlns:dc="http://purl.org/dc/elements/1.1/" viewBox="0 0 24 24">
 <g transform="translate(0 -1028.4)">
  <path d="m18.928 1036.4a8 8 0 0 0 -10.928 -3 8 8 0 0 0 -2.9282 11 8 8 0 0 0 10.928 2.9 8 8 0 0 0 2.9282 -10.928zm-1.486 1.4691c1.1956 2.5716 0.41243 5.6234-1.8454 7.3193a0.50051 0.50051 0 0 1 -0.91039 -0.2095l-0.38149-2.653a0.50005 0.50005 0 0 1 0.92614 -0.3295 0.50005 0.50005 0 0 1 0.06285 0.187l0.25047 1.7385c1.4578-1.4639 1.8853-3.7031 0.98952-5.6299-1.0146-2.1825-3.4318-3.3305-5.7646-2.7384a0.50023 0.50023 0 1 1 -0.24631 -0.9697c2.7926-0.7087 5.7029 0.6736 6.9175 3.2862l0.000846 0.0005zm-8.1757-2.2192a0.50005 0.50005 0 0 1 0.0658 0.3093l0.36274 2.5149a0.50051 0.50051 0 0 1 -0.99069 0.1435l-0.25149-1.7402c-1.4483 1.4539-1.8803 3.677-1.0027 5.5991 1.0001 2.1904 3.4109 3.3547 5.7485 2.7771a0.50008 0.50008 0 0 1 0.24031 0.9709c-2.7983 0.6914-5.7012-0.709-6.8984-3.3311-1.169-2.5602-0.38297-5.5779 1.8468-7.266a0.50005 0.50005 0 0 1 0.72831 -0.1409 0.50005 0.50005 0 0 1 0.00902 0.01 0.50005 0.50005 0 0 1 0.14222 0.1572z" fill="#fff"/>
 </g>
</svg>
