<?xml version="1.0" encoding="UTF-8" standalone="no"?>
<!-- Created with Inkscape (http://www.inkscape.org/) -->

<svg
   xmlns:dc="http://purl.org/dc/elements/1.1/"
   xmlns:cc="http://creativecommons.org/ns#"
   xmlns:rdf="http://www.w3.org/1999/02/22-rdf-syntax-ns#"
   xmlns:svg="http://www.w3.org/2000/svg"
   xmlns="http://www.w3.org/2000/svg"
   xmlns:sodipodi="http://sodipodi.sourceforge.net/DTD/sodipodi-0.dtd"
   xmlns:inkscape="http://www.inkscape.org/namespaces/inkscape"
   width="24"
   height="24"
   viewBox="0 0 24 24"
   id="svg2"
   version="1.1"
   inkscape:version="0.91 r"
   sodipodi:docname="btsync-gui-11.svg">
  <defs
     id="defs4" />
  <sodipodi:namedview
     id="base"
     pagecolor="#8c8c8c"
     bordercolor="#666666"
     borderopacity="1.0"
     inkscape:pageopacity="0"
     inkscape:pageshadow="2"
     inkscape:zoom="15.839192"
     inkscape:cx="11.493089"
     inkscape:cy="11.49323"
     inkscape:document-units="px"
     inkscape:current-layer="layer1"
     showgrid="true"
     units="px"
     showguides="true"
     inkscape:guide-bbox="true"
     inkscape:snap-object-midpoints="true"
     inkscape:snap-smooth-nodes="true"
     inkscape:object-nodes="true"
     inkscape:snap-intersection-paths="true"
     inkscape:snap-grids="false"
     inkscape:window-width="1280"
     inkscape:window-height="745"
     inkscape:window-x="0"
     inkscape:window-y="30"
     inkscape:window-maximized="1">
    <inkscape:grid
       type="xygrid"
       id="grid11195" />
    <sodipodi:guide
       position="4,13"
       orientation="1,0"
       id="guide11197" />
    <sodipodi:guide
       position="20,11"
       orientation="1,0"
       id="guide11199" />
    <sodipodi:guide
       position="11,20"
       orientation="0,1"
       id="guide11201" />
    <sodipodi:guide
       position="9,4"
       orientation="0,1"
       id="guide11203" />
  </sodipodi:namedview>
  <metadata
     id="metadata7">
    <rdf:RDF>
      <cc:Work
         rdf:about="">
        <dc:format>image/svg+xml</dc:format>
        <dc:type
           rdf:resource="http://purl.org/dc/dcmitype/StillImage" />
        <dc:title></dc:title>
      </cc:Work>
    </rdf:RDF>
  </metadata>
  <g
     inkscape:label="Ebene 1"
     inkscape:groupmode="layer"
     id="layer1"
     transform="translate(0,-1028.3622)">
    <path
       style="opacity:1;fill:#ffffff;fill-opacity:1;stroke:none;stroke-width:2;stroke-linecap:round;stroke-linejoin:round;stroke-miterlimit:4;stroke-dasharray:none;stroke-opacity:1"
       d="m 8.0000017,1033.434 a 8,8 0 0 0 -2.9282032,10.9282 8,8 0 0 0 10.9282005,2.9282 8,8 0 0 0 2.928203,-10.9282 8,8 0 0 0 -10.9282003,-2.9282 z m 1.469218,1.4859 c 2.5715083,-1.1955 5.6232963,-0.4123 7.3191963,1.8455 a 0.50051295,0.50051295 0 0 1 -0.209413,0.9104 l -2.653141,0.3815 a 0.50004997,0.50004997 0 0 1 -0.329457,-0.9262 0.50004997,0.50004997 0 0 1 0.187003,-0.063 l 1.738495,-0.2504 c -1.463797,-1.458 -3.703084,-1.8853 -5.629801,-0.9896 -2.1824977,1.0146 -3.3306402,3.4318 -2.7384876,5.7647 a 0.50024686,0.50024686 0 1 1 -0.969657,0.2461 c -0.7086238,-2.7925 0.6736397,-5.7028 3.2862279,-6.9174 l 4.278e-4,-8e-4 z m -2.2193106,8.1758 a 0.50005,0.50005 0 0 1 0.3090351,-0.067 l 2.5149528,-0.3627 a 0.5005504,0.5005504 0 0 1 0.143461,0.9907 l -1.7402121,0.2514 c 1.4540326,1.4484 3.6770061,1.8804 5.5990961,1.0027 2.190416,-1 3.354654,-3.4109 2.777112,-5.7485 a 0.50014049,0.50014049 0 0 1 0.970967,-0.2402 c 0.691377,2.7983 -0.708996,5.7012 -3.331165,6.8983 -2.5602,1.169 -5.5778614,0.383 -7.2660771,-1.8469 a 0.50005,0.50005 0 0 1 -0.1407723,-0.7282 0.50005,0.50005 0 0 1 0.015103,-0.01 0.50005,0.50005 0 0 1 0.1578291,-0.1414 z"
       id="path11205"
       inkscape:connector-curvature="0" />
  </g>
</svg>
