<?xml version="1.0" encoding="UTF-8" standalone="no"?>
<svg xmlns:rdf="http://www.w3.org/1999/02/22-rdf-syntax-ns#" xmlns="http://www.w3.org/2000/svg" height="24" width="24" version="1.1" xmlns:cc="http://creativecommons.org/ns#" xmlns:dc="http://purl.org/dc/elements/1.1/" viewBox="0 0 24 24">
 <g transform="translate(0 -1028.4)">
  <path d="m4 1040.4a8 8 0 0 0 8 8 8 8 0 0 0 8 -8 8 8 0 0 0 -8 -8 8 8 0 0 0 -8 8zm2.0214-0.5294c0.25038-2.8248 2.4546-5.0761 5.2579-5.4159a0.50051 0.50051 0 0 1 0.68372 0.6366l-0.99618 2.4884a0.50005 0.50005 0 0 1 -0.96686 -0.1778 0.50005 0.50005 0 0 1 0.039012 -0.1934l0.65238-1.6308c-1.9946 0.5387-3.4843 2.2643-3.6719 4.3808-0.21259 2.3974 1.3067 4.6003 3.6231 5.2539a0.50025 0.50025 0 1 1 -0.27161 0.9629c-2.7727-0.7826-4.602-3.4348-4.3476-6.3047l-0.0004915-0.0008zm5.9707 6.0098a0.50005 0.50005 0 0 1 0.09698 -0.3008l0.94334-2.3594a0.50054 0.50054 0 0 1 0.92974 0.3711l-0.65238 1.6328c1.9813-0.5351 3.467-2.2442 3.6679-4.3476 0.22918-2.397-1.2766-4.6107-3.5898-5.2793a0.50014 0.50014 0 0 1 0.27746 -0.961c2.7691 0.8004 4.5829 3.4646 4.3085 6.334-0.2677 2.8017-2.4572 5.0221-5.2325 5.3692a0.50005 0.50005 0 0 1 -0.70106 -0.2422 0.50005 0.50005 0 0 1 0.0029 -0.016 0.50005 0.50005 0 0 1 -0.04357 -0.2074z" fill="#fff"/>
 </g>
</svg>
