<?xml version="1.0" encoding="UTF-8" standalone="no"?>
<svg xmlns:rdf="http://www.w3.org/1999/02/22-rdf-syntax-ns#" xmlns="http://www.w3.org/2000/svg" height="24" width="24" version="1.1" xmlns:cc="http://creativecommons.org/ns#" xmlns:dc="http://purl.org/dc/elements/1.1/" viewBox="0 0 24 24">
 <g transform="translate(0 -1028.4)">
  <path d="m8 1033.4a8 8 0 0 0 -2.9282 10.928 8 8 0 0 0 10.928 2.9282 8 8 0 0 0 2.9282 -10.928 8 8 0 0 0 -10.928 -2.9282zm1.4692 1.4859c2.5715-1.1955 5.6233-0.4123 7.3192 1.8455a0.50051 0.50051 0 0 1 -0.20941 0.9104l-2.6531 0.3815a0.50005 0.50005 0 0 1 -0.32946 -0.9262 0.50005 0.50005 0 0 1 0.187 -0.063l1.7385-0.2504c-1.4638-1.458-3.7031-1.8853-5.6298-0.9896-2.1825 1.0146-3.3306 3.4318-2.7385 5.7647a0.50025 0.50025 0 1 1 -0.96966 0.2461c-0.70862-2.7925 0.67364-5.7028 3.2862-6.9174l0.0004278-0.0008zm-2.2193 8.1758a0.50005 0.50005 0 0 1 0.30904 -0.067l2.515-0.3627a0.50055 0.50055 0 0 1 0.14346 0.9907l-1.7402 0.2514c1.454 1.4484 3.677 1.8804 5.5991 1.0027 2.1904-1 3.3547-3.4109 2.7771-5.7485a0.50014 0.50014 0 0 1 0.97097 -0.2402c0.69138 2.7983-0.709 5.7012-3.3312 6.8983-2.5602 1.169-5.5779 0.383-7.2661-1.8469a0.50005 0.50005 0 0 1 -0.14077 -0.7282 0.50005 0.50005 0 0 1 0.015103 -0.01 0.50005 0.50005 0 0 1 0.15783 -0.1414z" fill="#fff"/>
 </g>
</svg>
