<?xml version="1.0" encoding="UTF-8" standalone="no"?>
<svg xmlns:rdf="http://www.w3.org/1999/02/22-rdf-syntax-ns#" xmlns="http://www.w3.org/2000/svg" height="24" width="24" version="1.1" xmlns:cc="http://creativecommons.org/ns#" xmlns:dc="http://purl.org/dc/elements/1.1/" viewBox="0 0 24 24">
 <g transform="translate(0 -1028.4)">
  <path d="m16 1047.3a8 8 0 0 0 2.928 -10.9 8 8 0 0 0 -10.928 -3 8 8 0 0 0 -2.9282 11 8 8 0 0 0 10.928 2.9282zm-1.4691-1.4859c-2.5715 1.1955-5.6234 0.4123-7.3192-1.8455a0.50051 0.50051 0 0 1 0.20945 -0.9104l2.6531-0.3815a0.50005 0.50005 0 0 1 0.32942 0.9262 0.50005 0.50005 0 0 1 -0.18695 0.063l-1.7385 0.2504c1.4638 1.458 3.7031 1.8853 5.6298 0.9896 2.1825-1.0146 3.3305-3.4318 2.7385-5.7647a0.50025 0.50025 0 1 1 0.96965 -0.2462c0.7087 2.7926-0.67364 5.7029-3.2862 6.9175l-0.000434 0.0008zm2.2192-8.1758a0.50005 0.50005 0 0 1 -0.30926 0.066l-2.515 0.3628a0.50054 0.50054 0 0 1 -0.14344 -0.9907l1.7402-0.2515c-1.454-1.4482-3.677-1.8803-5.5991-1.0027-2.1904 1.0001-3.3547 3.4109-2.7771 5.7485a0.50012 0.50012 0 1 1 -0.97093 0.2403c-0.69141-2.7983 0.709-5.7012 3.3311-6.8983 2.5602-1.169 5.5779-0.383 7.266 1.8468a0.50005 0.50005 0 0 1 0.1409 0.7283 0.50005 0.50005 0 0 1 -0.01005 0.01 0.50005 0.50005 0 0 1 -0.15719 0.1422z" fill="#fff"/>
 </g>
</svg>
