<?xml version="1.0" encoding="UTF-8" standalone="no"?>
<svg xmlns:rdf="http://www.w3.org/1999/02/22-rdf-syntax-ns#" xmlns="http://www.w3.org/2000/svg" height="24" width="24" version="1.1" xmlns:cc="http://creativecommons.org/ns#" xmlns:dc="http://purl.org/dc/elements/1.1/" viewBox="0 0 24 24">
 <g transform="translate(0 -1028.4)">
  <path d="m5.0718 1036.4a8 8 0 0 0 2.9282 10.9 8 8 0 0 0 10.928 -2.9 8 8 0 0 0 -2.928 -11 8 8 0 0 0 -10.928 3zm2.0153 0.5522c1.6292-2.3211 4.6638-3.1687 7.2614-2.0613a0.50051 0.50051 0 0 1 0.27382 0.8931l-2.1069 1.657a0.50005 0.50005 0 0 1 -0.74843 -0.6374 0.50005 0.50005 0 0 1 0.13048 -0.148l1.3804-1.0861c-1.9967-0.5308-4.1496 0.2188-5.3703 1.9579-1.3828 1.9699-1.1685 4.6373 0.51074 6.3616a0.50025 0.50025 0 1 1 -0.71667 0.698c-2.01-2.0641-2.268-5.2756-0.61277-7.6338l-0.0000257-0.0009zm2.1659 8.1901a0.50005 0.50005 0 0 1 0.23439 -0.2121l1.9967-1.5716a0.50054 0.50054 0 0 1 0.61962 0.7863l-1.3814 1.0878c1.9834 0.5273 4.1246-0.21 5.3503-1.9312 1.397-1.9612 1.1998-4.6312-0.4692-6.3669a0.50014 0.50014 0 0 1 0.72078 -0.6935c1.9979 2.0777 2.2366 5.2919 0.56428 7.6397-1.6327 2.2925-4.6391 3.1206-7.216 2.0336a0.50005 0.50005 0 0 1 -0.48604 -0.5603 0.50005 0.50005 0 0 1 0.010511 -0.012 0.50005 0.50005 0 0 1 0.065967 -0.2014z" fill="#fff"/>
 </g>
</svg>
