<?xml version="1.0" encoding="UTF-8" standalone="no"?>
<!-- Created with Inkscape (http://www.inkscape.org/) -->

<svg
   xmlns:dc="http://purl.org/dc/elements/1.1/"
   xmlns:cc="http://creativecommons.org/ns#"
   xmlns:rdf="http://www.w3.org/1999/02/22-rdf-syntax-ns#"
   xmlns:svg="http://www.w3.org/2000/svg"
   xmlns="http://www.w3.org/2000/svg"
   xmlns:sodipodi="http://sodipodi.sourceforge.net/DTD/sodipodi-0.dtd"
   xmlns:inkscape="http://www.inkscape.org/namespaces/inkscape"
   width="24"
   height="24"
   viewBox="0 0 24 24"
   id="svg2"
   version="1.1"
   inkscape:version="0.91 r"
   sodipodi:docname="btsync-gui-disconnected.svg">
  <defs
     id="defs4" />
  <sodipodi:namedview
     id="base"
     pagecolor="#8c8c8c"
     bordercolor="#666666"
     borderopacity="1.0"
     inkscape:pageopacity="0"
     inkscape:pageshadow="2"
     inkscape:zoom="15.839192"
     inkscape:cx="-3.6591993"
     inkscape:cy="6.4424675"
     inkscape:document-units="px"
     inkscape:current-layer="layer1"
     showgrid="true"
     units="px"
     showguides="true"
     inkscape:guide-bbox="true"
     inkscape:snap-object-midpoints="true"
     inkscape:snap-smooth-nodes="true"
     inkscape:object-nodes="true"
     inkscape:snap-intersection-paths="true"
     inkscape:snap-grids="false"
     inkscape:window-width="1280"
     inkscape:window-height="745"
     inkscape:window-x="0"
     inkscape:window-y="30"
     inkscape:window-maximized="1">
    <inkscape:grid
       type="xygrid"
       id="grid11195" />
    <sodipodi:guide
       position="4,13"
       orientation="1,0"
       id="guide11197" />
    <sodipodi:guide
       position="20,11"
       orientation="1,0"
       id="guide11199" />
    <sodipodi:guide
       position="11,20"
       orientation="0,1"
       id="guide11201" />
    <sodipodi:guide
       position="9,4"
       orientation="0,1"
       id="guide11203" />
  </sodipodi:namedview>
  <metadata
     id="metadata7">
    <rdf:RDF>
      <cc:Work
         rdf:about="">
        <dc:format>image/svg+xml</dc:format>
        <dc:type
           rdf:resource="http://purl.org/dc/dcmitype/StillImage" />
        <dc:title></dc:title>
      </cc:Work>
    </rdf:RDF>
  </metadata>
  <g
     inkscape:label="Ebene 1"
     inkscape:groupmode="layer"
     id="layer1"
     transform="translate(0,-1028.3622)">
    <path
       style="opacity:0.4;fill:#ffffff;fill-opacity:1;stroke:none;stroke-width:2;stroke-linecap:round;stroke-linejoin:round;stroke-miterlimit:4;stroke-dasharray:none;stroke-opacity:1"
       d="M 12 4 A 8 8 0 0 0 4 12 A 8 8 0 0 0 12 20 A 8 8 0 0 0 20 12 A 8 8 0 0 0 12 4 z M 12.529297 6.0214844 C 15.354162 6.2718909 17.605514 8.4759948 17.945312 11.279297 A 0.50051295 0.50051295 0 0 1 17.308594 11.962891 L 14.820312 10.966797 A 0.50004997 0.50004997 0 0 1 14.998047 10 A 0.50004997 0.50004997 0 0 1 15.191406 10.039062 L 16.822266 10.691406 C 16.28343 8.6969926 14.557876 7.2071298 12.441406 7.0195312 C 10.044001 6.8069312 7.8412025 8.3262782 7.1875 10.642578 A 0.50021759 0.50021759 0 1 1 6.2246094 10.371094 C 7.0071517 7.5982936 9.6593805 5.7690375 12.529297 6.0234375 L 12.529297 6.0214844 z M 6.5195312 11.992188 A 0.50005 0.50005 0 0 1 6.8203125 12.089844 L 9.1796875 13.033203 A 0.50051289 0.50051289 0 0 1 8.8085938 13.962891 L 7.1757812 13.310547 C 7.7107025 15.291704 9.4200176 16.777472 11.523438 16.978516 C 13.9204 17.207616 16.134133 15.701872 16.802734 13.388672 A 0.50008038 0.50008038 0 0 1 17.763672 13.666016 C 16.963297 16.435116 14.299061 18.248909 11.429688 17.974609 C 8.627986 17.706876 6.4076248 15.517333 6.0605469 12.742188 A 0.50005 0.50005 0 0 1 6.3027344 12.041016 A 0.50005 0.50005 0 0 1 6.3125 12.037109 A 0.50005 0.50005 0 0 1 6.5195312 11.992188 z "
       transform="translate(0,1028.3622)"
       id="path11205" />
  </g>
</svg>
