<?xml version="1.0" encoding="UTF-8" standalone="no"?>
<!-- Created with Inkscape (http://www.inkscape.org/) -->

<svg
   xmlns:dc="http://purl.org/dc/elements/1.1/"
   xmlns:cc="http://creativecommons.org/ns#"
   xmlns:rdf="http://www.w3.org/1999/02/22-rdf-syntax-ns#"
   xmlns:svg="http://www.w3.org/2000/svg"
   xmlns="http://www.w3.org/2000/svg"
   xmlns:sodipodi="http://sodipodi.sourceforge.net/DTD/sodipodi-0.dtd"
   xmlns:inkscape="http://www.inkscape.org/namespaces/inkscape"
   width="24"
   height="24"
   viewBox="0 0 24 24"
   id="svg2"
   version="1.1"
   inkscape:version="0.91 r"
   sodipodi:docname="btsync-gui-7.svg">
  <defs
     id="defs4" />
  <sodipodi:namedview
     id="base"
     pagecolor="#8c8c8c"
     bordercolor="#666666"
     borderopacity="1.0"
     inkscape:pageopacity="0"
     inkscape:pageshadow="2"
     inkscape:zoom="15.839192"
     inkscape:cx="11.493089"
     inkscape:cy="11.49323"
     inkscape:document-units="px"
     inkscape:current-layer="layer1"
     showgrid="true"
     units="px"
     showguides="true"
     inkscape:guide-bbox="true"
     inkscape:snap-object-midpoints="true"
     inkscape:snap-smooth-nodes="true"
     inkscape:object-nodes="true"
     inkscape:snap-intersection-paths="true"
     inkscape:snap-grids="false"
     inkscape:window-width="1280"
     inkscape:window-height="745"
     inkscape:window-x="0"
     inkscape:window-y="30"
     inkscape:window-maximized="1">
    <inkscape:grid
       type="xygrid"
       id="grid11195" />
    <sodipodi:guide
       position="4,13"
       orientation="1,0"
       id="guide11197" />
    <sodipodi:guide
       position="20,11"
       orientation="1,0"
       id="guide11199" />
    <sodipodi:guide
       position="11,20"
       orientation="0,1"
       id="guide11201" />
    <sodipodi:guide
       position="9,4"
       orientation="0,1"
       id="guide11203" />
  </sodipodi:namedview>
  <metadata
     id="metadata7">
    <rdf:RDF>
      <cc:Work
         rdf:about="">
        <dc:format>image/svg+xml</dc:format>
        <dc:type
           rdf:resource="http://purl.org/dc/dcmitype/StillImage" />
        <dc:title></dc:title>
      </cc:Work>
    </rdf:RDF>
  </metadata>
  <g
     inkscape:label="Ebene 1"
     inkscape:groupmode="layer"
     id="layer1"
     transform="translate(0,-1028.3622)">
    <path
       style="opacity:1;fill:#ffffff;fill-opacity:1;stroke:none;stroke-width:2;stroke-linecap:round;stroke-linejoin:round;stroke-miterlimit:4;stroke-dasharray:none;stroke-opacity:1"
       d="m 8.0000009,1047.2904 a 8,8 0 0 0 10.9282001,-2.9282 8,8 0 0 0 -2.928202,-10.9282 8,8 0 0 0 -10.9281998,2.9282 8,8 0 0 0 2.9282017,10.9282 z m 0.5522547,-2.0153 c -2.3211143,-1.6292 -3.1687472,-4.6638 -2.061362,-7.2614 a 0.50051295,0.50051295 0 0 1 0.8931526,-0.2738 l 1.6569184,2.1069 a 0.50004997,0.50004997 0 0 1 -0.6373944,0.7484 0.50004997,0.50004997 0 0 1 -0.1479946,-0.1305 l -1.0860711,-1.3803 c -0.5307764,1.9967 0.2187919,4.1496 1.9579048,5.3703 1.9699057,1.3828 4.6372527,1.1685 6.3616017,-0.5107 a 0.50024686,0.50024686 0 1 1 0.698046,0.7166 c -2.064103,2.01 -5.275654,2.268 -7.6338439,0.6128 l -9.22e-4,0 z m 8.1900444,-2.1659 a 0.50005,0.50005 0 0 1 -0.212023,-0.2344 l -1.57168,-1.9967 a 0.5005436,0.5005436 0 0 1 0.786254,-0.6196 l 1.087905,1.3814 c 0.527222,-1.9834 -0.210092,-4.1246 -1.931187,-5.3503 -1.96132,-1.397 -4.631283,-1.1998 -6.3668931,0.4692 a 0.50011677,0.50011677 0 0 1 -0.6935484,-0.7208 c 2.0776884,-1.9979 5.2918895,-2.2366 7.6396245,-0.5643 2.292501,1.6327 3.12067,4.6391 2.033613,7.216 a 0.50005,0.50005 0 0 1 -0.560235,0.4861 0.50005,0.50005 0 0 1 -0.01186,-0.01 0.50005,0.50005 0 0 1 -0.201468,-0.066 z"
       id="path11205"
       inkscape:connector-curvature="0" />
  </g>
</svg>
