<?xml version="1.0" encoding="UTF-8" standalone="no"?>
<svg xmlns:rdf="http://www.w3.org/1999/02/22-rdf-syntax-ns#" xmlns="http://www.w3.org/2000/svg" height="24" width="24" version="1.1" xmlns:cc="http://creativecommons.org/ns#" xmlns:dc="http://purl.org/dc/elements/1.1/" viewBox="0 0 24 24">
 <g transform="translate(0 -1028.4)">
  <path d="m5.0718 1044.4a8 8 0 0 0 10.928 2.9282 8 8 0 0 0 2.9282 -10.928 8 8 0 0 0 -10.928 -2.9282 8 8 0 0 0 -2.9282 10.928zm1.4859-1.4692c-1.1955-2.5715-0.41232-5.6233 1.8455-7.3192a0.50051 0.50051 0 0 1 0.91039 0.2094l0.38148 2.6531a0.50005 0.50005 0 0 1 -0.9262 0.3295 0.50005 0.50005 0 0 1 -0.062917 -0.187l-0.25042-1.7385c-1.458 1.4638-1.8853 3.7031-0.98955 5.6298 1.0146 2.1825 3.4317 3.3306 5.7647 2.7385a0.50025 0.50025 0 1 1 0.24623 0.9697c-2.7926 0.7086-5.7029-0.6737-6.9175-3.2863l-0.0007985-0.0004zm8.1757 2.2193a0.50005 0.50005 0 0 1 -0.06642 -0.309l-0.36276-2.515a0.50054 0.50054 0 0 1 0.99072 -0.1435l0.25145 1.7403c1.4483-1.4541 1.8804-3.6771 1.0027-5.5991-1.0001-2.1905-3.4109-3.3547-5.7485-2.7771a0.50014 0.50014 0 0 1 -0.24023 -0.971c2.7983-0.6914 5.7012 0.709 6.8983 3.3311 1.169 2.5602 0.38303 5.5779-1.8468 7.2661a0.50005 0.50005 0 0 1 -0.72823 0.1408 0.50005 0.50005 0 0 1 -0.0053 -0.015 0.50005 0.50005 0 0 1 -0.14148 -0.1579z" fill="#fff"/>
 </g>
</svg>
