<?xml version="1.0" encoding="UTF-8" standalone="no"?>
<!-- Created with Inkscape (http://www.inkscape.org/) -->

<svg
   xmlns:dc="http://purl.org/dc/elements/1.1/"
   xmlns:cc="http://creativecommons.org/ns#"
   xmlns:rdf="http://www.w3.org/1999/02/22-rdf-syntax-ns#"
   xmlns:svg="http://www.w3.org/2000/svg"
   xmlns="http://www.w3.org/2000/svg"
   xmlns:sodipodi="http://sodipodi.sourceforge.net/DTD/sodipodi-0.dtd"
   xmlns:inkscape="http://www.inkscape.org/namespaces/inkscape"
   width="24"
   height="24"
   viewBox="0 0 24 24"
   id="svg2"
   version="1.1"
   inkscape:version="0.91 r"
   sodipodi:docname="btsync-gui-1.svg">
  <defs
     id="defs4" />
  <sodipodi:namedview
     id="base"
     pagecolor="#8c8c8c"
     bordercolor="#666666"
     borderopacity="1.0"
     inkscape:pageopacity="0"
     inkscape:pageshadow="2"
     inkscape:zoom="15.839192"
     inkscape:cx="11.493089"
     inkscape:cy="11.49323"
     inkscape:document-units="px"
     inkscape:current-layer="layer1"
     showgrid="true"
     units="px"
     showguides="true"
     inkscape:guide-bbox="true"
     inkscape:snap-object-midpoints="true"
     inkscape:snap-smooth-nodes="true"
     inkscape:object-nodes="true"
     inkscape:snap-intersection-paths="true"
     inkscape:snap-grids="false"
     inkscape:window-width="1280"
     inkscape:window-height="745"
     inkscape:window-x="0"
     inkscape:window-y="30"
     inkscape:window-maximized="1">
    <inkscape:grid
       type="xygrid"
       id="grid11195" />
    <sodipodi:guide
       position="4,13"
       orientation="1,0"
       id="guide11197" />
    <sodipodi:guide
       position="20,11"
       orientation="1,0"
       id="guide11199" />
    <sodipodi:guide
       position="11,20"
       orientation="0,1"
       id="guide11201" />
    <sodipodi:guide
       position="9,4"
       orientation="0,1"
       id="guide11203" />
  </sodipodi:namedview>
  <metadata
     id="metadata7">
    <rdf:RDF>
      <cc:Work
         rdf:about="">
        <dc:format>image/svg+xml</dc:format>
        <dc:type
           rdf:resource="http://purl.org/dc/dcmitype/StillImage" />
        <dc:title></dc:title>
      </cc:Work>
    </rdf:RDF>
  </metadata>
  <g
     inkscape:label="Ebene 1"
     inkscape:groupmode="layer"
     id="layer1"
     transform="translate(0,-1028.3622)">
    <path
       style="opacity:1;fill:#ffffff;fill-opacity:1;stroke:none;stroke-width:2;stroke-linecap:round;stroke-linejoin:round;stroke-miterlimit:4;stroke-dasharray:none;stroke-opacity:1"
       d="M 16,1033.434 A 8,8 0 0 0 5.0717968,1036.3622 8,8 0 0 0 8,1047.2904 8,8 0 0 0 18.928203,1044.3622 8,8 0 0 0 16,1033.434 Z m -0.552358,2.0153 c 2.321202,1.6293 3.168878,4.6638 2.061501,7.2614 a 0.50051295,0.50051295 0 0 1 -0.893211,0.2737 l -1.656869,-2.1068 a 0.50004997,0.50004997 0 0 1 0.637322,-0.7484 0.50004997,0.50004997 0 0 1 0.147923,0.1305 l 1.086194,1.3804 c 0.530561,-1.9967 -0.218881,-4.1497 -1.957999,-5.3704 -1.969913,-1.3828 -4.637266,-1.1684 -6.3615393,0.5107 a 0.50021759,0.50021759 0 1 1 -0.6981457,-0.7166 c 2.0641017,-2.01 5.275627,-2.2681 7.633848,-0.6128 l 9.76e-4,-0 z m -8.1899612,2.1659 a 0.50005,0.50005 0 0 1 0.2116562,0.235 l 1.5715992,1.9966 a 0.50051289,0.50051289 0 0 1 -0.7862205,0.6196 l -1.0878852,-1.3813 c -0.5273231,1.9832 0.2101032,4.1245 1.9311967,5.3503 1.9612798,1.3969 4.6313008,1.1998 6.3669268,-0.4692 a 0.50008038,0.50008038 0 0 1 0.693524,0.7206 c -2.077695,1.998 -5.291887,2.2366 -7.6396872,0.5644 -2.2924786,-1.6327 -3.1205963,-4.6391 -2.0336021,-7.216 a 0.50005,0.50005 0 0 1 0.5603266,-0.4861 0.50005,0.50005 0 0 1 0.010411,0 0.50005,0.50005 0 0 1 0.2017548,0.065 z"
       id="path11205"
       inkscape:connector-curvature="0" />
  </g>
</svg>
