<?xml version="1.0" encoding="UTF-8" standalone="no"?>
<svg xmlns:rdf="http://www.w3.org/1999/02/22-rdf-syntax-ns#" xmlns="http://www.w3.org/2000/svg" height="24" width="24" version="1.1" xmlns:cc="http://creativecommons.org/ns#" xmlns:dc="http://purl.org/dc/elements/1.1/" viewBox="0 0 24 24">
 <g transform="translate(0 -1028.4)">
  <path d="m8 1047.3a8 8 0 0 0 10.928 -2.9282 8 8 0 0 0 -2.9282 -10.928 8 8 0 0 0 -10.928 2.9282 8 8 0 0 0 2.9282 10.928zm0.55225-2.0153c-2.3211-1.6292-3.1687-4.6638-2.0614-7.2614a0.50051 0.50051 0 0 1 0.89315 -0.2738l1.6569 2.1069a0.50005 0.50005 0 0 1 -0.63739 0.7484 0.50005 0.50005 0 0 1 -0.14799 -0.1305l-1.0861-1.3803c-0.53078 1.9967 0.21879 4.1496 1.9579 5.3703 1.9699 1.3828 4.6373 1.1685 6.3616-0.5107a0.50025 0.50025 0 1 1 0.69805 0.7166c-2.0641 2.01-5.2757 2.268-7.6338 0.6128h-0.000922zm8.19-2.1659a0.50005 0.50005 0 0 1 -0.21202 -0.2344l-1.5717-1.9967a0.50054 0.50054 0 0 1 0.78625 -0.6196l1.0879 1.3814c0.52722-1.9834-0.21009-4.1246-1.9312-5.3503-1.9613-1.397-4.6313-1.1998-6.3669 0.4692a0.50012 0.50012 0 0 1 -0.69355 -0.7208c2.0777-1.9979 5.2919-2.2366 7.6396-0.5643 2.2925 1.6327 3.1207 4.6391 2.0336 7.216a0.50005 0.50005 0 0 1 -0.56024 0.4861 0.50005 0.50005 0 0 1 -0.01186 -0.01 0.50005 0.50005 0 0 1 -0.20147 -0.066z" fill="#fff"/>
 </g>
</svg>
