<?xml version="1.0" encoding="UTF-8" standalone="no"?>
<svg xmlns:rdf="http://www.w3.org/1999/02/22-rdf-syntax-ns#" xmlns="http://www.w3.org/2000/svg" height="24" width="24" version="1.1" xmlns:cc="http://creativecommons.org/ns#" xmlns:dc="http://purl.org/dc/elements/1.1/" viewBox="0 0 24 24">
 <g transform="translate(0 -1028.4)">
  <path d="m12 4a8 8 0 0 0 -8 8 8 8 0 0 0 8 8 8 8 0 0 0 8 -8 8 8 0 0 0 -8 -8zm0.529 2.0215c2.825 0.2504 5.077 2.4545 5.416 5.2575a0.50051 0.50051 0 0 1 -0.636 0.684l-2.489-0.996a0.50005 0.50005 0 0 1 0.178 -0.967 0.50005 0.50005 0 0 1 0.193 0.039l1.631 0.652c-0.539-1.994-2.264-3.4839-4.381-3.6715-2.397-0.2126-4.5998 1.3068-5.2535 3.6235a0.50022 0.50022 0 1 1 -0.9629 -0.272c0.7826-2.7727 3.4348-4.602 6.3044-4.3476v-0.0019zm-6.0095 5.9705a0.50005 0.50005 0 0 1 0.3008 0.098l2.3594 0.943a0.50051 0.50051 0 0 1 -0.3711 0.93l-1.6328-0.652c0.5349 1.981 2.2442 3.466 4.3472 3.668 2.397 0.229 4.611-1.277 5.28-3.59a0.50008 0.50008 0 0 1 0.961 0.277c-0.801 2.769-3.465 4.583-6.334 4.309-2.802-0.268-5.0224-2.458-5.3695-5.233a0.50005 0.50005 0 0 1 0.2422 -0.701 0.50005 0.50005 0 0 1 0.0098 -0.004 0.50005 0.50005 0 0 1 0.207 -0.045z" transform="translate(0 1028.4)" fill="#fff"/>
 </g>
</svg>
