<?xml version="1.0" encoding="UTF-8" standalone="no"?>
<svg xmlns:rdf="http://www.w3.org/1999/02/22-rdf-syntax-ns#" xmlns="http://www.w3.org/2000/svg" height="24" width="24" version="1.1" xmlns:cc="http://creativecommons.org/ns#" xmlns:dc="http://purl.org/dc/elements/1.1/" viewBox="0 0 24 24">
 <g transform="translate(0 -1028.4)">
  <path d="m18.928 1044.4a8 8 0 0 0 -2.9282 -10.928 8 8 0 0 0 -10.928 2.9282 8 8 0 0 0 2.9282 10.928 8 8 0 0 0 10.928 -2.9282zm-2.0153-0.5523c-1.6293 2.3211-4.6638 3.1688-7.2614 2.0614a0.50051 0.50051 0 0 1 -0.27378 -0.8931l2.1069-1.657a0.50005 0.50005 0 0 1 0.74838 0.6374 0.50005 0.50005 0 0 1 -0.13048 0.1479l-1.3803 1.0861c1.9967 0.5307 4.1496-0.2188 5.3704-1.9579 1.3828-1.9699 1.1684-4.6373-0.51074-6.3616a0.50025 0.50025 0 1 1 0.71661 -0.6981c2.01 2.0641 2.2681 5.2757 0.61281 7.6339l0.000019 0.0009zm-2.166-8.19a0.50005 0.50005 0 0 1 -0.23494 0.2116l-1.9966 1.5717a0.50052 0.50052 0 1 1 -0.6196 -0.7863l1.3813-1.0879c-1.9833-0.5272-4.1245 0.2101-5.3503 1.9312-1.3969 1.9613-1.1998 4.6313 0.46922 6.3669a0.50011 0.50011 0 0 1 -0.72068 0.6936c-1.9979-2.0777-2.2366-5.2919-0.56436-7.6397 1.6327-2.2925 4.6391-3.1206 7.216-2.0336a0.50005 0.50005 0 0 1 0.48619 0.5603 0.50005 0.50005 0 0 1 -0.0041 0.013 0.50005 0.50005 0 0 1 -0.065 0.2018z" fill="#fff"/>
 </g>
</svg>
