<?xml version="1.0" encoding="UTF-8" standalone="no"?>
<svg xmlns:rdf="http://www.w3.org/1999/02/22-rdf-syntax-ns#" xmlns="http://www.w3.org/2000/svg" height="24" width="24" version="1.1" xmlns:cc="http://creativecommons.org/ns#" xmlns:dc="http://purl.org/dc/elements/1.1/" viewBox="0 0 24 24">
 <g transform="translate(0 -1028.4)">
  <g opacity=".4" fill-rule="evenodd" transform="matrix(.21187 0 0 .21615 -51.981 959.6)" clip-rule="evenodd" fill="#fff">
   <path d="m291.05 360.39c10.25 0 16.334 7.976 16.334 7.976l-8.334 7.024c-3.744-6.241-4.996-8.992-11.226-9.746v17.739c1.413 0.473 2.98 0.757 4.729 0.757 12.159 0 23.497-15.748 23.497-15.748s-10.5-14.251-26.5-13.753c-0.583 0.021-1.16 0.051-1.727 0.097v5.846c1.046-0.11 2.112-0.192 3.227-0.192z"/>
   <path d="m287.83 341.25v8.736c0.575-0.045 1.148-0.083 1.727-0.099 22.25-0.752 36.751 18.248 36.751 18.248s-16.655 20.25-34.001 20.25c-1.592 0-3.079-0.145-4.477-0.396v5.404c1.195 0.151 2.435 0.242 3.726 0.242 16.146 0 27.819-8.248 39.125-18.002 1.874 1.5 9.548 5.151 11.124 6.749-10.749 9.003-35.8 16.25-49.996 16.25-1.375 0-2.689-0.082-3.979-0.205v7.593h61.36v-64.771h-61.36v0.001z"/>
   <path d="m276.67 370.73s4.881-5.839 11.132-5.089c0.007 0 0.015 0.003 0.022 0.003v-5.062c-11.907 1.287-19.077 9.232-19.077 9.232s4.146 15.522 19.077 18.182v-4.612c-8.422-2.827-11.154-12.654-11.154-12.654z"/>
   <path d="m261.31 369.14s8.849-13.061 26.521-14.405v-4.744c-19.573 1.575-36.521 18.149-36.521 18.149s9.6 27.753 36.521 30.293v-5.034c-19.756-2.488-26.521-24.259-26.521-24.259z"/>
  </g>
 </g>
</svg>
