<?xml version="1.0" encoding="UTF-8" standalone="no"?>
<svg xmlns:rdf="http://www.w3.org/1999/02/22-rdf-syntax-ns#" xmlns="http://www.w3.org/2000/svg" height="24" width="24" version="1.1" xmlns:cc="http://creativecommons.org/ns#" xmlns:dc="http://purl.org/dc/elements/1.1/" viewBox="0 0 24 24">
 <g transform="translate(0 -1028.4)">
  <path d="m11.992 1032.9a0.50005 0.50005 0 0 0 -0.3457 0.1465l-3.3535 3.3535h-0.5-0.20703-0.08594-0.5-1c-1.108 0-2 0.892-2 2v2 6c0 1.108 0.892 2 2 2h4 8c1.108 0 2-0.892 2-2v-8c0-1.108-0.892-2-2-2h-0.5-1.293-0.5l-3.3535-3.3535a0.50005 0.50005 0 0 0 -0.36133 -0.1465zm-4.992 5.5a1 1 0 0 1 1 1 1 1 0 0 1 -1 1 1 1 0 0 1 -1 -1 1 1 0 0 1 1 -1zm4 0h5 1c0.554 0 1 0.446 1 1s-0.446 1-1 1h-4-1-1c-0.554 0-1-0.446-1-1s0.446-1 1-1zm-4 3a1 1 0 0 1 1 1 1 1 0 0 1 -1 1 1 1 0 0 1 -1 -1 1 1 0 0 1 1 -1zm4 0h1 1 4c0.554 0 1 0.446 1 1s-0.446 1-1 1h-4-1-1c-0.554 0-1-0.446-1-1s0.446-1 1-1zm-4 3a1 1 0 0 1 1 1 1 1 0 0 1 -1 1 1 1 0 0 1 -1 -1 1 1 0 0 1 1 -1zm4 0h1 1 4c0.554 0 1 0.446 1 1s-0.446 1-1 1h-4-1-1c-0.554 0-1-0.446-1-1s0.446-1 1-1z" fill="#fff"/>
 </g>
</svg>
