<?xml version="1.0" encoding="UTF-8" standalone="no"?>
<svg xmlns:rdf="http://www.w3.org/1999/02/22-rdf-syntax-ns#" xmlns="http://www.w3.org/2000/svg" enable-background="new 0 0 24 24" xml:space="preserve" height="24px" viewBox="0 0 24 24" width="24px" version="1.1" y="0px" x="0px" xmlns:cc="http://creativecommons.org/ns#" xmlns:dc="http://purl.org/dc/elements/1.1/"><g transform="matrix(.83643 0 0 .83643 1.9628 2.2765)"><path d="m20.635 3.0254l-0.621 0.7539a3 3 0 0 1 0.474 0.5508l0.512-0.9785-0.365-0.3262zm-14.635 4.4746l-4 3.5 4.375-0.625 1.625 9.625 3.393-2.301 9.607 2.801-3-7.5-2-1.4-5.252 4.492-3.248-8.092-1.5-0.5zm10.207 0.9004l-1.189 1.4434 1.982 1.1562 1.047-2.002a3 3 0 0 1 -0.047 0.002 3 3 0 0 1 -1.793 -0.5996zm-3.207 1.6286l-3 0.971 1 3 4-3-2-0.971z" transform="matrix(1.1956 0 0 1.1956 -2.3467 -2.7217)" fill="#fff"/><path style="color:#000000;enable-background:accumulate;image-rendering:optimizeQuality;shape-rendering:geometricPrecision" d="m21.564 4.4517a2.3911 2.3911 0 0 1 -4.7822 0 2.3911 2.3911 0 1 1 4.7822 0z" clip-rule="evenodd" fill="#009dff"/></g></svg>
