<?xml version="1.0" encoding="UTF-8" standalone="no"?>
<svg xmlns:rdf="http://www.w3.org/1999/02/22-rdf-syntax-ns#" xmlns="http://www.w3.org/2000/svg" enable-background="new 0 0 24 24" xml:space="preserve" height="24px" viewBox="0 0 24 24" width="24px" version="1.1" y="0px" x="0px" xmlns:cc="http://creativecommons.org/ns#" xmlns:dc="http://purl.org/dc/elements/1.1/"><g fill="#fff" transform="matrix(.83643 0 0 .83643 1.9628 2.2765)"><path opacity=".4" d="m22.76 1.286-4.782 9.143-2.371-1.3829 6.717-8.1497z"/><path opacity=".4" d="m6 7.5l-4 3.5 4.375-0.625 1.625 9.625 3.393-2.301 0.607 0.178v-2.856l-1.252 1.071-3.248-8.092-1.5-0.5zm10 4.1l-1.637 1.4h3.637l-2-1.4z" transform="matrix(1.1956 0 0 1.1956 -2.3467 -2.7217)"/><path opacity=".4" d="m13 10.029l-3 0.971 1 3 1-0.75v-0.25h0.334l2.666-2-2-0.971z" transform="matrix(1.1956 0 0 1.1956 -2.3467 -2.7217)"/></g><path style="image-rendering:optimizeQuality;shape-rendering:geometricPrecision" d="m13 14v6h3v-6h-3zm4 0v6h3v-6h-3z" fill-rule="evenodd" clip-rule="evenodd" fill="#fff"/></svg>
