<?xml version="1.0" encoding="UTF-8" standalone="no"?>
<!-- Created with Inkscape (http://www.inkscape.org/) -->

<svg
   xmlns:dc="http://purl.org/dc/elements/1.1/"
   xmlns:cc="http://creativecommons.org/ns#"
   xmlns:rdf="http://www.w3.org/1999/02/22-rdf-syntax-ns#"
   xmlns:svg="http://www.w3.org/2000/svg"
   xmlns="http://www.w3.org/2000/svg"
   xmlns:sodipodi="http://sodipodi.sourceforge.net/DTD/sodipodi-0.dtd"
   xmlns:inkscape="http://www.inkscape.org/namespaces/inkscape"
   width="24"
   height="24"
   viewBox="0 0 24.000001 24.000001"
   id="svg11288"
   version="1.1"
   inkscape:version="0.91 r"
   sodipodi:docname="cut2.svg"
   inkscape:export-filename="/home/rafael/cut2.png"
   inkscape:export-xdpi="90"
   inkscape:export-ydpi="90">
  <defs
     id="defs11290" />
  <sodipodi:namedview
     id="base"
     pagecolor="#a0a0a0"
     bordercolor="#666666"
     borderopacity="1.0"
     inkscape:pageopacity="0"
     inkscape:pageshadow="2"
     inkscape:zoom="31.678384"
     inkscape:cx="11.640668"
     inkscape:cy="10.774531"
     inkscape:document-units="px"
     inkscape:current-layer="layer1"
     showgrid="true"
     units="px"
     showguides="true"
     inkscape:guide-bbox="true"
     inkscape:snap-grids="true"
     inkscape:window-width="833"
     inkscape:window-height="432"
     inkscape:window-x="354"
     inkscape:window-y="177"
     inkscape:window-maximized="0">
    <inkscape:grid
       type="xygrid"
       id="grid11836" />
    <sodipodi:guide
       position="4.0000002,20.000001"
       orientation="0,1"
       id="guide11871" />
    <sodipodi:guide
       position="4.0000002,4.0000002"
       orientation="0,1"
       id="guide11873" />
    <sodipodi:guide
       position="4.0000002,24.000001"
       orientation="1,0"
       id="guide11875" />
    <sodipodi:guide
       position="20.000001,20.000001"
       orientation="1,0"
       id="guide11877" />
  </sodipodi:namedview>
  <metadata
     id="metadata11293">
    <rdf:RDF>
      <cc:Work
         rdf:about="">
        <dc:format>image/svg+xml</dc:format>
        <dc:type
           rdf:resource="http://purl.org/dc/dcmitype/StillImage" />
        <dc:title></dc:title>
      </cc:Work>
    </rdf:RDF>
  </metadata>
  <g
     inkscape:label="Ebene 1"
     inkscape:groupmode="layer"
     id="layer1"
     transform="translate(0,-1028.3622)">
    <path
       style="opacity:1;fill:#ffffff;fill-opacity:1;stroke:none;stroke-width:1.5;stroke-miterlimit:4;stroke-dasharray:none;stroke-opacity:1"
       d="M 8 4 A 3.5 3.5 0 0 0 4.5 7.5 A 3.5 3.5 0 0 0 8 11 A 3.5 3.5 0 0 0 11.5 7.5 A 3.5 3.5 0 0 0 8 4 z M 8 6 A 1.4999999 1.4999999 0 0 1 9.5 7.5 A 1.4999999 1.4999999 0 0 1 8 9 A 1.4999999 1.4999999 0 0 1 6.5 7.5 A 1.4999999 1.4999999 0 0 1 8 6 z "
       transform="translate(0,1028.3622)"
       id="path11879" />
    <path
       id="path11884"
       d="m 16,1032.3622 a 3.5,3.5 0 0 0 -3.5,3.5 3.5,3.5 0 0 0 3.5,3.5 3.5,3.5 0 0 0 3.5,-3.5 3.5,3.5 0 0 0 -3.5,-3.5 z m 0,2 a 1.4999999,1.4999999 0 0 1 1.5,1.5 1.4999999,1.4999999 0 0 1 -1.5,1.5 1.4999999,1.4999999 0 0 1 -1.5,-1.5 1.4999999,1.4999999 0 0 1 1.5,-1.5 z"
       style="opacity:1;fill:#ffffff;fill-opacity:1;stroke:none;stroke-width:1.5;stroke-miterlimit:4;stroke-dasharray:none;stroke-opacity:1"
       inkscape:connector-curvature="0" />
    <path
       style="fill:#ffffff;fill-opacity:1;fill-rule:evenodd;stroke:none;stroke-width:1px;stroke-linecap:butt;stroke-linejoin:miter;stroke-opacity:1"
       d="M 14.09375 8.6835938 C 14.09375 8.6835938 13.62145 8.9618899 12.90625 9.4101562 C 13.365939 9.7108148 13.751516 9.9482644 14.261719 10.302734 C 14.444282 10.429563 14.628161 10.565591 14.8125 10.695312 L 15.376953 10.095703 L 14.09375 8.6835938 z M 9.0605469 12.023438 C 7.4873062 13.192973 6.0101272 14.458949 5.4394531 15.462891 C 3.9975072 17.99959 6.1132813 19.9375 6.1132812 19.9375 L 11.3125 14.414062 L 9.0605469 12.023438 z "
       transform="translate(0,1028.3622)"
       id="path11890" />
    <path
       style="fill:#ffffff;fill-opacity:1;fill-rule:evenodd;stroke:none;stroke-width:1px;stroke-linecap:butt;stroke-linejoin:miter;stroke-opacity:1"
       d="M 9.90625 8.6835938 L 8.6210938 10.095703 L 17.884766 19.9375 C 17.884766 19.9375 20.00054 17.99959 18.558594 15.462891 C 17.116648 12.926191 9.90625 8.6835938 9.90625 8.6835938 z M 12 10.599609 A 0.99999994 0.99999994 0 0 1 13 11.599609 A 0.99999994 0.99999994 0 0 1 12 12.599609 A 0.99999994 0.99999994 0 0 1 11 11.599609 A 0.99999994 0.99999994 0 0 1 12 10.599609 z "
       transform="translate(0,1028.3622)"
       id="path11886" />
  </g>
</svg>
