<?xml version="1.0" encoding="UTF-8" standalone="no"?>
<svg xmlns:rdf="http://www.w3.org/1999/02/22-rdf-syntax-ns#" xmlns="http://www.w3.org/2000/svg" height="24" width="24" version="1.1" xmlns:cc="http://creativecommons.org/ns#" xmlns:dc="http://purl.org/dc/elements/1.1/" viewBox="0 0 24 24">
 <g transform="translate(0 -1028.4)" fill="#fff">
  <path d="m14.5 1032.4a5.5 5.5 0 0 0 -5.5 5.5 5.5 5.5 0 0 0 5.5 5.5 5.5 5.5 0 0 0 5.5 -5.5 5.5 5.5 0 0 0 -5.5 -5.5zm0.32227 2.4727a2.5 2 45 0 1 1.8555 0.8496 2.5 2 45 0 1 0.35352 3.1816 2.5 2 45 0 1 -3.1816 -0.3535 2.5 2 45 0 1 -0.35352 -3.1816 2.5 2 45 0 1 1.3262 -0.4961z"/>
  <path d="m8.2656 11.32l-3.9726 3.973a1.0001 1.0001 0 0 0 -0.293 0.707v3a1.0001 1.0001 0 0 0 1 1h3a1.0001 1.0001 0 0 0 1 -1v-2h2a1.0001 1.0001 0 0 0 1 -1v-0.504c-0.773-0.324-1.47-0.794-2.0586-1.375l-3.4102 3.41a0.75063 0.75063 0 0 1 -1.0624 -1.06l3.5292-3.53c-0.3141-0.499-0.5627-1.043-0.7324-1.621z" fill-rule="evenodd" transform="translate(0 1028.4)"/>
 </g>
</svg>
