<?xml version="1.0" encoding="UTF-8" standalone="no"?>
<svg xmlns:rdf="http://www.w3.org/1999/02/22-rdf-syntax-ns#" xmlns="http://www.w3.org/2000/svg" height="24" width="24" version="1.1" xmlns:cc="http://creativecommons.org/ns#" xmlns:dc="http://purl.org/dc/elements/1.1/" viewBox="0 0 24 24">
 <g transform="translate(0 -1028.4)">
  <path d="m12 4c-4 6-6 6.686-6 10s2.6863 6 6 6c3.314 0 6-2.686 6-6s-2-4-6-10zm0 5a4 4.5 0 0 1 3.025 1.566 3.2368 3.5 0 0 0 -1.761 -0.566 3.2368 3.5 0 0 0 -0.166 0.006 3 3.5 0 0 0 -0.098 -0.006 3 3.5 0 0 0 -3 3.5 3 3.5 0 0 0 3 3.5 3 3.5 0 0 0 0.156 -0.006 3.2368 3.5 0 0 0 0.108 0.006 3.2368 3.5 0 0 0 1.757 -0.562 4 4.5 0 0 1 -3.021 1.562 4 4.5 0 0 1 -4 -4.5 4 4.5 0 0 1 4 -4.5z" transform="translate(0 1028.4)" fill="#fff"/>
 </g>
</svg>
