<?xml version="1.0" encoding="UTF-8" standalone="no"?>
<!-- Created with Inkscape (http://www.inkscape.org/) -->

<svg
   xmlns:dc="http://purl.org/dc/elements/1.1/"
   xmlns:cc="http://creativecommons.org/ns#"
   xmlns:rdf="http://www.w3.org/1999/02/22-rdf-syntax-ns#"
   xmlns:svg="http://www.w3.org/2000/svg"
   xmlns="http://www.w3.org/2000/svg"
   xmlns:sodipodi="http://sodipodi.sourceforge.net/DTD/sodipodi-0.dtd"
   xmlns:inkscape="http://www.inkscape.org/namespaces/inkscape"
   width="24"
   height="24"
   viewBox="0 0 24 24"
   id="svg2"
   version="1.1"
   inkscape:version="0.91 r"
   sodipodi:docname="deluge.svg">
  <defs
     id="defs4">
    <linearGradient
       id="linearGradient4989">
      <stop
         id="stop4991"
         offset="0.0000000"
         style="stop-color:#d3e9ff;stop-opacity:1.0000000;" />
      <stop
         id="stop4993"
         offset="0.15517241"
         style="stop-color:#d3e9ff;stop-opacity:1.0000000;" />
      <stop
         id="stop4995"
         offset="0.75000000"
         style="stop-color:#4074ae;stop-opacity:1.0000000;" />
      <stop
         id="stop4997"
         offset="1.0000000"
         style="stop-color:#36486c;stop-opacity:1.0000000;" />
    </linearGradient>
    <linearGradient
       id="linearGradient1312">
      <stop
         id="stop1314"
         offset="0"
         style="stop-color:#ffffff;stop-opacity:1;" />
      <stop
         id="stop1316"
         offset="1"
         style="stop-color:#ffffff;stop-opacity:0;" />
    </linearGradient>
  </defs>
  <sodipodi:namedview
     id="base"
     pagecolor="#8a8a8a"
     bordercolor="#666666"
     borderopacity="1.0"
     inkscape:pageopacity="0"
     inkscape:pageshadow="2"
     inkscape:zoom="11.2"
     inkscape:cx="21.998631"
     inkscape:cy="6.5292192"
     inkscape:document-units="px"
     inkscape:current-layer="layer1"
     showgrid="true"
     units="px"
     showguides="true"
     inkscape:guide-bbox="true"
     inkscape:snap-grids="true"
     inkscape:snap-midpoints="false"
     inkscape:snap-smooth-nodes="false"
     inkscape:object-nodes="false"
     inkscape:snap-intersection-paths="false"
     inkscape:object-paths="false"
     inkscape:window-width="1280"
     inkscape:window-height="745"
     inkscape:window-x="0"
     inkscape:window-y="30"
     inkscape:window-maximized="1"
     inkscape:snap-others="false"
     inkscape:snap-nodes="false">
    <inkscape:grid
       type="xygrid"
       id="grid11195" />
    <sodipodi:guide
       position="4,14"
       orientation="1,0"
       id="guide11197" />
    <sodipodi:guide
       position="20,10"
       orientation="1,0"
       id="guide11199" />
    <sodipodi:guide
       position="12,4"
       orientation="0,1"
       id="guide11201" />
    <sodipodi:guide
       position="11,20"
       orientation="0,1"
       id="guide11203" />
  </sodipodi:namedview>
  <metadata
     id="metadata7">
    <rdf:RDF>
      <cc:Work
         rdf:about="">
        <dc:format>image/svg+xml</dc:format>
        <dc:type
           rdf:resource="http://purl.org/dc/dcmitype/StillImage" />
        <dc:title></dc:title>
      </cc:Work>
    </rdf:RDF>
  </metadata>
  <g
     inkscape:label="Ebene 1"
     inkscape:groupmode="layer"
     id="layer1"
     transform="translate(0,-1028.3622)">
    <path
       style="opacity:1;fill:#ffffff;fill-opacity:1;stroke:none;stroke-width:2;stroke-linecap:round;stroke-linejoin:round;stroke-miterlimit:4;stroke-dasharray:none;stroke-opacity:1"
       d="M 12 4 C 8 10 6 10.6863 6 14 C 6 17.3137 8.6862915 20 12 20 C 15.313708 20 18 17.3137 18 14 C 18 10.6863 16 10 12 4 z M 12 9 A 4 4.5 0 0 1 15.025391 10.566406 A 3.2367544 3.5 0 0 0 13.263672 10 A 3.2367544 3.5 0 0 0 13.097656 10.005859 A 3 3.5 0 0 0 13 10 A 3 3.5 0 0 0 10 13.5 A 3 3.5 0 0 0 13 17 A 3 3.5 0 0 0 13.15625 16.994141 A 3.2367544 3.5 0 0 0 13.263672 17 A 3.2367544 3.5 0 0 0 15.021484 16.4375 A 4 4.5 0 0 1 12 18 A 4 4.5 0 0 1 8 13.5 A 4 4.5 0 0 1 12 9 z "
       transform="translate(0,1028.3622)"
       id="path11212" />
  </g>
</svg>
