<?xml version="1.0" encoding="UTF-8" standalone="no"?>
<svg xmlns:rdf="http://www.w3.org/1999/02/22-rdf-syntax-ns#" xmlns="http://www.w3.org/2000/svg" height="24" width="24" version="1.1" xmlns:cc="http://creativecommons.org/ns#" xmlns:dc="http://purl.org/dc/elements/1.1/" viewBox="0 0 24.000001 24.000001">
 <g fill="#d33636" transform="translate(0 -1028.4)">
  <path d="m8.6992 3.6992l-6 3.6016 3.3008 2.1992-3.3008 2.201 6 3.6 3.3008-2.201 3.301 2.201 6-3.602-3.303-2.199 3.303-2.1992-6-3.6016-3.301 2.1992-3.3008-2.1992zm3.3008 2.5801l5.367 3.2207-5.367 3.221-5.3672-3.221 5.3672-3.2207z" fill-rule="evenodd" transform="translate(0 1028.4)"/>
  <path d="m12 14.318l-3.2988 2.2-2.7012-1.62v0.155 1.513 0.155l6 3.599 6-3.599v-0.155-1.513-0.155l-2.701 1.62-3.299-2.2z" transform="translate(0 1028.4)"/>
 </g>
</svg>
