<?xml version="1.0" encoding="UTF-8" standalone="no"?>
<svg xmlns:rdf="http://www.w3.org/1999/02/22-rdf-syntax-ns#" xmlns="http://www.w3.org/2000/svg" height="24" width="24" version="1.1" xmlns:cc="http://creativecommons.org/ns#" xmlns:dc="http://purl.org/dc/elements/1.1/" viewBox="0 0 24.000001 24.000001">
 <g fill="#fff" transform="translate(0 -1028.4)">
  <path d="m8.6992 3.6992l-6 3.6016 3.3008 2.1992-3.3008 2.201 6 3.6 3.3008-2.201 0.006 0.004a1.0001 1.0001 0 0 1 0.045 -0.415l-0.051 0.032-5.3672-3.221 5.3672-3.2207 5.367 3.2207-4.166 2.5h2.799l-0.014 0.014a1.0001 1.0001 0 0 1 0.071 0 1.0001 1.0001 0 0 1 0.099 0.011 1.0001 1.0001 0 0 1 0.098 0.022 1.0001 1.0001 0 0 1 0.279 0.121 1.0001 1.0001 0 0 1 0.612 -0.106c0.773 0.113 1.481 0.43 2.078 0.885l2.078-1.248-3.303-2.199 3.303-2.1992-6-3.6016-3.301 2.1992-3.3008-2.1992z" fill-rule="evenodd" transform="translate(0 1028.4)"/>
  <path d="m12 14.318l-3.2988 2.2-2.7012-1.62v0.155 1.513 0.155l6 3.599 1.246-0.748c-0.766-0.804-1.246-1.88-1.246-3.072 0-0.68 0.198-1.294 0.49-1.855l-0.49-0.327z" transform="translate(0 1028.4)"/>
  <path style="color-rendering:auto;text-decoration-color:#000000;color:#000000;isolation:auto;mix-blend-mode:normal;shape-rendering:auto;solid-color:#000000;block-progression:tb;text-decoration-line:none;image-rendering:auto;white-space:normal;text-indent:0;text-transform:none;text-decoration-style:solid" d="m20 1044.9c0-1.7531-1.3122-3.2029-3.0001-3.4493v1.5195c0.866 0.2202 1.5 0.9903 1.5 1.9298 0 0.5573-0.2274 1.0514-0.5898 1.4102l-0.9102-0.9102v3.0001h3.0001l-1.043-1.043c0.6376-0.6309 1.043-1.4932 1.043-2.457zm-4-3.5001h-3l1.043 1.043c-0.6376 0.6308-1.043 1.4932-1.043 2.4569 0 1.7531 1.3121 3.2029 3 3.4493v-1.5195c-0.8662-0.2201-1.5-0.9901-1.5-1.9298 0-0.5575 0.2274-1.0515 0.5898-1.4102l0.9102 0.9102v-1.4298-1.5195-0.051z"/>
 </g>
</svg>
