<?xml version="1.0" encoding="UTF-8" standalone="no"?>
<svg xmlns:rdf="http://www.w3.org/1999/02/22-rdf-syntax-ns#" xmlns="http://www.w3.org/2000/svg" height="24" width="24" version="1.1" xmlns:cc="http://creativecommons.org/ns#" xmlns:dc="http://purl.org/dc/elements/1.1/" viewBox="0 0 24.000001 24.000001">
 <g transform="translate(0 -1028.4)" fill="#fff">
  <path d="m8.7 1032.1-6 3.6 3.6 2.4 6-3.6z" fill-rule="evenodd"/>
  <path d="m15.3 1032.1 6 3.6-3.6 2.4-6-3.6z" fill-rule="evenodd"/>
  <path d="m15.3 1043.7 6-3.6-3.6-2.4-6 3.6z" fill-rule="evenodd"/>
  <path d="m6.2996 1037.7-3.5996 2.4004 6 3.5996 3.5996-2.4004-6-3.5996z" fill-rule="evenodd"/>
  <path d="m12 14.473l-3.2988 2.199-2.7012-1.619v1.668l6 3.599 6-3.599v-1.668l-2.701 1.619-3.299-2.199z" transform="translate(0 1028.4)"/>
  <path d="m12 1042.7-3.2988 2.2-2.7012-1.6v1.668l6 3.5996 6-3.5996v-1.668l-2.7012 1.6191-3.299-2.2z"/>
 </g>
</svg>
