<?xml version="1.0" encoding="UTF-8" standalone="no"?>
<svg xmlns:rdf="http://www.w3.org/1999/02/22-rdf-syntax-ns#" xmlns="http://www.w3.org/2000/svg" height="24" width="24" version="1.1" xmlns:cc="http://creativecommons.org/ns#" xmlns:dc="http://purl.org/dc/elements/1.1/" viewBox="0 0 24.000001 24.000001">
 <g fill="#fff" transform="translate(0 -1028.4)">
  <path d="m8.6992 3.6992l-6 3.6016 3.3008 2.1992-3.3008 2.201 6 3.6 3.3008-2.201 0.969 0.646c0.822-1.058 2.097-1.746 3.531-1.746 0.874 0 1.639 0.325 2.324 0.762l0.469-0.469a1.0001 1.0001 0 0 1 1.244 -0.135l0.764-0.459-3.303-2.199 3.303-2.1992-6-3.6016-3.301 2.1992-3.3008-2.1992zm3.3008 2.5801l5.367 3.2207-5.367 3.221-5.3672-3.221 5.3672-3.2207z" fill-rule="evenodd" transform="translate(0 1028.4)"/>
  <path d="m12 14.318l-3.2988 2.2-2.7012-1.62v0.155 1.513 0.155l6 3.599 0.045-0.025a1.0001 1.0001 0 0 1 0 -0.002 1.0001 1.0001 0 0 1 -0.045 -0.293v-3l0.016 0.012a1.0001 1.0001 0 0 1 0 -0.073 1.0001 1.0001 0 0 1 0.009 -0.097 1.0001 1.0001 0 0 1 0.139 -0.373 1.0001 1.0001 0 0 1 0.004 0 1.0001 1.0001 0 0 1 -0.107 -0.612c0.064-0.438 0.205-0.851 0.386-1.24l-0.447-0.299z" transform="translate(0 1028.4)"/>
  <path style="color-rendering:auto;text-decoration-color:#000000;color:#000000;isolation:auto;mix-blend-mode:normal;shape-rendering:auto;solid-color:#000000;block-progression:tb;text-decoration-line:none;image-rendering:auto;white-space:normal;text-indent:0;text-transform:none;text-decoration-style:solid" d="m16.5 1041.4c-1.7531 0-3.2029 1.3122-3.4493 3.0001h1.5195c0.22022-0.866 0.99026-1.5 1.9297-1.5 0.55739 0 1.0515 0.2274 1.4102 0.5898l-0.91015 0.9102h3.0001v-3.0001l-1.043 1.043c-0.63087-0.6376-1.4933-1.043-2.457-1.043zm-3.5001 4v3l1.043-1.043c0.63087 0.6376 1.4933 1.043 2.457 1.043 1.7531 0 3.2029-1.3121 3.4493-3h-1.5195c-0.22005 0.8662-0.9901 1.5-1.9297 1.5-0.55749 0-1.0515-0.2274-1.4102-0.5898l0.91015-0.9102h-1.4297-1.5195-0.05078z"/>
 </g>
</svg>
