<?xml version="1.0" encoding="UTF-8" standalone="no"?>
<svg xmlns:rdf="http://www.w3.org/1999/02/22-rdf-syntax-ns#" xmlns="http://www.w3.org/2000/svg" height="24" width="24" version="1.1" xmlns:cc="http://creativecommons.org/ns#" xmlns:dc="http://purl.org/dc/elements/1.1/" viewBox="0 0 24 24">
 <g transform="translate(0 -1028.4)" fill="#fff">
  <path d="m15 1041.9c-0.006-1.3807 1.1086-2.5048 2.4893-2.5107 1.3807-0.01 2.5048 1.1086 2.5107 2.4893 0.0061 1.3807-1.1086 2.5048-2.4893 2.5107-1.3807 0.01-2.5048-1.1086-2.5107-2.4893z"/>
  <path d="m12.993 1044.6c0.95406-0.5563 2.1784-0.2338 2.7347 0.7203 0.55628 0.954 0.23381 2.1784-0.72026 2.7347-0.95406 0.5563-2.1784 0.2338-2.7347-0.7203-0.55628-0.954-0.23381-2.1784 0.72026-2.7347z"/>
  <path d="m9.2443 1044.6c0.71908 0.4111 0.96877 1.3272 0.55769 2.0463-0.41107 0.7191-1.3272 0.9688-2.0463 0.5577-0.71908-0.4111-0.96877-1.3272-0.55769-2.0463 0.41107-0.7191 1.3272-0.9688 2.0463-0.5577z"/>
  <path d="m8 1041.4c0.00472 1.1045-0.88688 2.0038-1.9914 2.0085-1.1046 0-2.0038-0.8869-2.0085-1.9915-0.00472-1.1045 0.88688-2.0038 1.9914-2.0085 1.1046 0 2.0038 0.8869 2.0085 1.9915z"/>
  <path d="m9.759 1038c-1.1926 0.6953-2.723 0.2922-3.4184-0.9004-0.69534-1.1925-0.29226-2.723 0.90032-3.4184 1.1926-0.6953 2.723-0.2922 3.4184 0.9004 0.69534 1.1925 0.29226 2.723-0.90032 3.4184z"/>
  <path d="m13.511 1038c-1.4382-0.8221-1.9375-2.6545-1.1154-4.0926 0.82215-1.4382 2.6545-1.9376 4.0926-1.1154 1.4382 0.8221 1.9375 2.6545 1.1154 4.0926-0.82215 1.4382-2.6545 1.9376-4.0926 1.1154z"/>
 </g>
</svg>
