<?xml version="1.0" encoding="UTF-8" standalone="no"?>
<!-- Created with Inkscape (http://www.inkscape.org/) -->

<svg
   xmlns:dc="http://purl.org/dc/elements/1.1/"
   xmlns:cc="http://creativecommons.org/ns#"
   xmlns:rdf="http://www.w3.org/1999/02/22-rdf-syntax-ns#"
   xmlns:svg="http://www.w3.org/2000/svg"
   xmlns="http://www.w3.org/2000/svg"
   xmlns:sodipodi="http://sodipodi.sourceforge.net/DTD/sodipodi-0.dtd"
   xmlns:inkscape="http://www.inkscape.org/namespaces/inkscape"
   width="24"
   height="24"
   viewBox="0 0 24 24"
   id="svg11214"
   version="1.1"
   inkscape:version="0.91 r"
   sodipodi:docname="gnome-encfs-manager-panel3.svg">
  <defs
     id="defs11216" />
  <sodipodi:namedview
     id="base"
     pagecolor="#787878"
     bordercolor="#666666"
     borderopacity="1.0"
     inkscape:pageopacity="0"
     inkscape:pageshadow="2"
     inkscape:zoom="22.4"
     inkscape:cx="9.0875432"
     inkscape:cy="14.710591"
     inkscape:document-units="px"
     inkscape:current-layer="layer1"
     showgrid="true"
     units="px"
     showguides="true"
     inkscape:guide-bbox="true"
     inkscape:window-width="1280"
     inkscape:window-height="745"
     inkscape:window-x="0"
     inkscape:window-y="30"
     inkscape:window-maximized="1">
    <inkscape:grid
       type="xygrid"
       id="grid11762" />
    <sodipodi:guide
       position="4,12"
       orientation="1,0"
       id="guide11764" />
    <sodipodi:guide
       position="20,13"
       orientation="1,0"
       id="guide11766" />
    <sodipodi:guide
       position="11,20"
       orientation="0,1"
       id="guide11768" />
    <sodipodi:guide
       position="13,4"
       orientation="0,1"
       id="guide11770" />
  </sodipodi:namedview>
  <metadata
     id="metadata11219">
    <rdf:RDF>
      <cc:Work
         rdf:about="">
        <dc:format>image/svg+xml</dc:format>
        <dc:type
           rdf:resource="http://purl.org/dc/dcmitype/StillImage" />
        <dc:title></dc:title>
      </cc:Work>
    </rdf:RDF>
  </metadata>
  <g
     inkscape:label="Ebene 1"
     inkscape:groupmode="layer"
     id="layer1"
     transform="translate(0,-1028.3622)"
     style="opacity:0.99">
    <path
       style="opacity:1;fill:#ffffff;fill-opacity:1;stroke:none;stroke-width:2;stroke-linecap:round;stroke-linejoin:round;stroke-miterlimit:4;stroke-dasharray:none;stroke-opacity:1"
       d="M 6 4 C 5.446 4 5 4.446 5 5 C 4.446 5 4 5.446 4 6 L 4 7 C 3.446 7 3 7.446 3 8 L 3 9 L 3 10 L 3 18 C 3 19.108 3.892 20 5 20 L 19 20 C 20.108 20 21 19.108 21 18 L 21 10 L 21 9 L 21 8 C 21 7.446 20.554 7 20 7 L 20 6 C 20 5.446 19.554 5 19 5 L 15 5 L 14 5 L 13 5 C 13 4.446 12.554 4 12 4 L 6 4 z M 6 5 L 12 5 L 12 6 L 13 6 L 15 6 L 19 6 L 19 7 L 5 7 L 5 6 L 6 6 L 6 5 z M 15 10 C 16.6575 10 18 11.3425 18 13 C 18 14.6575 16.6575 16 15 16 C 13.695 16 12.588281 15.165 12.175781 14 L 12 14 L 12 14.5 C 12 14.777 11.777 15 11.5 15 C 11.222999 15 11 14.777 11 14.5 L 11 14 L 10 14 L 10 14.5 C 10 14.777 9.7769998 15 9.5 15 C 9.2229998 15 9 14.777 9 14.5 L 9 14 L 8 14 L 8 14.5 C 8 14.777 7.7769999 15 7.5 15 C 7.2229999 15 6.9999997 14.777 7 14.5 L 7 14 C 6.4459998 14 6 13.554 6 13 C 6 12.446 6.446 12 7 12 L 12 12 L 12.175781 12 C 12.588281 10.835 13.695 10 15 10 z M 15 12 C 14.447499 12 14 12.4475 14 13 C 14 13.5525 14.447499 14 15 14 C 15.5525 14 16 13.5525 16 13 C 16 12.4475 15.5525 12 15 12 z "
       transform="translate(0,1028.3622)"
       id="rect11198" />
  </g>
</svg>
