<?xml version="1.0" encoding="UTF-8" standalone="no"?>
<svg xmlns:rdf="http://www.w3.org/1999/02/22-rdf-syntax-ns#" xmlns="http://www.w3.org/2000/svg" height="24" width="24" version="1.1" xmlns:cc="http://creativecommons.org/ns#" xmlns:dc="http://purl.org/dc/elements/1.1/" viewBox="0 0 24 24">
 <g transform="translate(0 -1028.4)">
  <path d="m6 4c-1.108 0-2 0.892-2 2v12c0 1.108 0.892 2 2 2h12c1.108 0 2-0.892 2-2v-12c0-1.108-0.892-2-2-2h-12zm3 2h1v1h3v2h-3v1h1c0.75 0 1.44 0.317 1.873 0.805 0.433 0.487 0.627 1.098 0.627 1.695s-0.194 1.21-0.627 1.697c-0.433 0.488-1.123 0.803-1.873 0.803h-1v1h-1v-1h-3v-2h3v-1h-1c-0.75 0-1.4398-0.315-1.873-0.803-0.4333-0.487-0.627-1.1-0.627-1.697 0-0.5972 0.1937-1.2079 0.627-1.6953 0.4332-0.4874 1.123-0.8047 1.873-0.8047h1v-1zm-1 3c-0.25 0-0.3102 0.0597-0.377 0.1348-0.0667 0.0751-0.123 0.2125-0.123 0.3652 0 0.1528 0.0563 0.2921 0.123 0.3672 0.0668 0.0748 0.127 0.1328 0.377 0.1328h1v-1h-1zm2 3v1h1c0.25 0 0.31-0.058 0.377-0.133s0.123-0.214 0.123-0.367-0.056-0.29-0.123-0.365-0.127-0.135-0.377-0.135h-1zm3 4h2 3v1 1h-5v-2z" transform="translate(0 1028.4)" fill="#fff"/>
 </g>
</svg>
