<?xml version="1.0" encoding="UTF-8" standalone="no"?>
<svg xmlns:rdf="http://www.w3.org/1999/02/22-rdf-syntax-ns#" xmlns="http://www.w3.org/2000/svg" height="24" width="24" version="1.1" xmlns:cc="http://creativecommons.org/ns#" xmlns:dc="http://purl.org/dc/elements/1.1/" viewBox="0 0 24 24">
 <g transform="translate(0 -1028.4)">
  <path style="color-rendering:auto;text-decoration-color:#000000;color:#000000;isolation:auto;mix-blend-mode:normal;shape-rendering:auto;solid-color:#000000;block-progression:tb;text-decoration-line:none;text-decoration-style:solid;image-rendering:auto;white-space:normal;text-indent:0;text-transform:none" d="m15.973 1032.3a1.0001 1.0001 0 0 0 -0.01367 0 1.0001 1.0001 0 0 0 -0.11914 0.012h-7.6914a1.0001 1.0001 0 0 0 -0.13672 -0.012 1.0001 1.0001 0 0 0 -0.49219 0.1269 1.0001 1.0001 0 0 0 -0.074219 0.045 1.0001 1.0001 0 0 0 -0.39258 0.4785l-3.8457 6.7324a1.0001 1.0001 0 0 0 -0.13672 1 1.0001 1.0001 0 0 0 0.042969 0.092 1.0001 1.0001 0 0 0 0.017578 0.033l3.9258 6.8711a1.0001 1.0001 0 0 0 0.79297 0.6211 1.0001 1.0001 0 0 0 0.097656 0.01 1.0001 1.0001 0 0 0 0.052734 0h8a1.0008 1.0008 0 0 0 0.01172 0 1.0001 1.0001 0 0 0 0.02344 0 1.0001 1.0001 0 0 0 0.07617 0 1.0001 1.0001 0 0 0 0.83398 -0.6328l3.9023-6.8261a1.0008 1.0008 0 0 0 0.06445 -0.1192 1.0008 1.0008 0 0 0 0.0039 -0.01 1.0001 1.0001 0 0 0 0.0332 -0.086 1.0001 1.0001 0 0 0 -0.15625 -0.9531 1.0001 1.0001 0 0 0 -0.002 0l-3.8477-6.7324a1.0001 1.0001 0 0 0 -0.40234 -0.4844 1.0001 1.0001 0 0 0 -0.01172 -0.01 1.0001 1.0001 0 0 0 -0.07422 -0.041 1.0001 1.0001 0 0 0 -0.48242 -0.1152zm-7.3906 2.0156h6.8379l0.42383 0.7422-3.8438 3.8437-3.8438-3.8437 0.42578-0.7422zm-1.4531 2.543 3.457 3.457-3.457 3.457-1.9766-3.457 1.9766-3.457zm9.7422 0 1.9766 3.457-1.9766 3.457-3.457-3.457 3.457-3.457zm-4.872 5l3.8438 3.8437-0.42383 0.7422h-6.8398l-0.424-0.8 3.8438-3.8z" fill-rule="evenodd" fill="#fff"/>
 </g>
</svg>
