<?xml version="1.0" encoding="UTF-8" standalone="no"?>
<svg xmlns:rdf="http://www.w3.org/1999/02/22-rdf-syntax-ns#" xmlns="http://www.w3.org/2000/svg" height="24" width="24" version="1.1" xmlns:cc="http://creativecommons.org/ns#" xmlns:dc="http://purl.org/dc/elements/1.1/" viewBox="0 0 24 24">
 <g transform="translate(0 -1028.4)" stroke="#fff" stroke-linecap="round" fill="none">
  <path d="m9 1042c2 1.523 4 1.5074 6 0" stroke-width="1.5"/>
  <path stroke-linejoin="round" d="m12 5a7 6.5 0 0 0 -7 6.5 7 6.5 0 0 0 7 6.5 7 6.5 0 0 0 2.006 -0.277c1.232 0.854 2.528 1.541 3.994 1.277-0.658-0.696-1.286-1.418-1.217-2.76a7 6.5 0 0 0 2.217 -4.74 7 6.5 0 0 0 -7 -6.5z" transform="translate(0 1028.4)" stroke-width="2"/>
 </g>
</svg>
