<?xml version="1.0" encoding="UTF-8" standalone="no"?>
<svg xmlns:rdf="http://www.w3.org/1999/02/22-rdf-syntax-ns#" xmlns="http://www.w3.org/2000/svg" height="24" width="24" version="1.1" xmlns:cc="http://creativecommons.org/ns#" xmlns:dc="http://purl.org/dc/elements/1.1/" viewBox="0 0 24 24">
 <g transform="translate(0 -1028.4)">
  <path d="m9 1042c2 1.523 4 1.5074 6 0" stroke="#fff" stroke-linecap="round" stroke-width="1.5" fill="none"/>
  <path style="color-rendering:auto;text-decoration-color:#000000;color:#000000;isolation:auto;mix-blend-mode:normal;shape-rendering:auto;solid-color:#000000;block-progression:tb;text-decoration-line:none;text-decoration-style:solid;image-rendering:auto;white-space:normal;text-indent:0;text-transform:none" d="m12 4c-4.3678 0-8 3.3281-8 7.5 0 4.172 3.6322 7.5 8 7.5a1.0001 1.0001 0 0 0 0.002 0c0.612 0 1.213-0.118 1.809-0.25 1.228 0.809 2.663 1.541 4.367 1.234a1.0001 1.0001 0 0 0 0.549 -1.672c-0.583-0.616-0.889-0.999-0.907-1.82 1.331-1.367 2.178-3.109 2.18-4.992 0-1.011-0.216-1.971-0.602-2.8477a3 3 0 0 1 -1.398 0.3477 3 3 0 0 1 -0.703 -0.0879c0.449 0.7739 0.703 1.6569 0.703 2.5879-0.001 1.5-0.667 2.938-1.873 3.986a1.0001 1.0001 0 0 0 -0.342 0.703c-0.032 0.628 0.162 1.106 0.344 1.584-0.5-0.203-1.006-0.494-1.553-0.873a1.0001 1.0001 0 0 0 -0.84 -0.14c-0.562 0.157-1.147 0.238-1.736 0.24-3.3642 0-6-2.492-6-5.5 0-3.0078 2.6358-5.5 6-5.5 1.147 0 2.205 0.2958 3.107 0.7969a3 3 0 0 1 -0.107 -0.7969 3 3 0 0 1 0.309 -1.3164c-1.014-0.4345-2.132-0.6836-3.309-0.6836z" transform="translate(0 1028.4)" fill="#fff"/>
  <path opacity="0.99" style="color:#000000" d="m20 1034.4a2 2 0 0 1 -4 0 2 2 0 1 1 4 0z" fill="#009dff"/>
 </g>
</svg>
