<?xml version="1.0" encoding="UTF-8" standalone="no"?>
<svg xmlns:rdf="http://www.w3.org/1999/02/22-rdf-syntax-ns#" xmlns="http://www.w3.org/2000/svg" height="24" width="24" version="1.1" xmlns:cc="http://creativecommons.org/ns#" xmlns:dc="http://purl.org/dc/elements/1.1/" viewBox="0 0 24 24">
 <g transform="translate(0 -1028.4)">
  <path d="m12 4a8 8 0 0 0 -8 8 8 8 0 0 0 8 8 8 8 0 0 0 8 -8 8 8 0 0 0 -0.717 -3.291 3 3 0 0 1 -1.283 0.291 3 3 0 0 1 -3 -3 3 3 0 0 1 0.291 -1.2812 8 8 0 0 0 -3.291 -0.7188zm0 2a1 1 0 0 1 1 1 1 1 0 0 1 -0.016 0.1699 3 3 0 0 1 2.016 2.8301v3a1 1 0 0 0 1 1v1h-1-6-1v-1a1 1 0 0 0 1 -1v-3a3 3 0 0 1 2.014 -2.8301 1 1 0 0 1 -0.014 -0.1699 1 1 0 0 1 1 -1zm-1.729 10h3.459a2 2 0 0 1 -1.73 1 2 2 0 0 1 -1.729 -1z" transform="translate(0 1028.4)" fill="#fff"/>
  <path style="color:#000000;image-rendering:optimizeQuality;shape-rendering:geometricPrecision" d="m20 1034.4a2 2 0 0 1 -3.9999 0 2 2 0 1 1 3.9999 0z" fill="#009dff"/>
 </g>
</svg>
