<?xml version="1.0" encoding="UTF-8" standalone="no"?>
<svg xmlns:rdf="http://www.w3.org/1999/02/22-rdf-syntax-ns#" xmlns="http://www.w3.org/2000/svg" height="24" width="24" version="1.1" xmlns:cc="http://creativecommons.org/ns#" xmlns:dc="http://purl.org/dc/elements/1.1/" viewBox="0 0 24 24">
 <g opacity=".98" transform="translate(0 -1028.4)" fill="#fff">
  <path opacity=".4" style="color-rendering:auto;text-decoration-color:#000000;color:#000000;isolation:auto;mix-blend-mode:normal;shape-rendering:auto;solid-color:#000000;block-progression:tb;text-decoration-line:none;text-decoration-style:solid;image-rendering:auto;white-space:normal;text-indent:0;text-transform:none" d="m8 5a1.0001 1.0001 0 0 0 -0.707 0.293l-2 2a1.0001 1.0001 0 0 0 -0.293 0.707v0.0254c0.5615 0.12 1 0.6344 1 1.2246v0.5c0 0.59-0.4385 1.105-1 1.225v1.05c0.5615 0.12 1 0.635 1 1.225v0.5c0 0.59-0.4385 1.105-1 1.225v1.05c0.5615 0.12 1 0.635 1 1.225v0.5c0 0.582-0.4278 1.088-0.9785 1.217 0.1068 0.577 0.627 1.033 1.2285 1.033h12.5c0.675 0 1.25-0.575 1.25-1.25v-12.5c0-0.5892-0.44-1.0958-1-1.2168v-0.0332h-0.025c-0.12 0.5615-0.635 1-1.225 1h-0.5c-0.59 0-1.105-0.4385-1.225-1h-1-0.05c-0.12 0.5615-0.635 1-1.225 1h-0.5c-0.59 0-1.105-0.4385-1.225-1h-1.05c-0.12 0.5615-0.635 1-1.225 1h-0.5c-0.5902 0-1.1046-0.4385-1.2246-1h-0.0254zm0.25 7h9.5c0.675 0 1.25 0.575 1.25 1.25v1.5c0 0.284-0.116 0.537-0.283 0.75 0.167 0.213 0.283 0.467 0.283 0.75v1.5c0 0.675-0.575 1.25-1.25 1.25h-9.5c-0.6752 0-1.25-0.575-1.25-1.25v-1.5c0-0.283 0.1162-0.537 0.2832-0.75-0.1676-0.213-0.2832-0.466-0.2832-0.75v-1.5c0-0.675 0.5748-1.25 1.25-1.25z" transform="translate(0 1028.4)"/>
  <rect opacity="1" rx=".25" ry=".25" height="2" width="10" y="1044.4" x="8"/>
  <rect opacity="1" rx=".25" ry=".25" height="2" width="1" y="1031.4" x="17"/>
  <rect opacity="1" rx=".25" ry=".25" height="2" width="1" y="1031.4" x="13"/>
  <rect opacity="1" rx=".25" ry=".25" height="2" width="1" y="1031.4" x="9"/>
  <g style="" transform="matrix(0 1 -1 0 1036.4 1028.4)">
   <rect opacity="1" rx=".25" ry=".25" height="2" width="1" y="1031.4" x="17"/>
   <rect opacity="1" rx=".25" ry=".25" height="2" width="1" y="1031.4" x="13"/>
   <rect opacity="1" rx=".25" ry=".25" height="2" width="1" y="1031.4" x="9"/>
  </g>
  <rect opacity="1" rx=".25" ry=".25" height="2" width="10" y="1041.4" x="8"/>
 </g>
</svg>
