<?xml version="1.0" encoding="UTF-8" standalone="no"?>
<svg xmlns:rdf="http://www.w3.org/1999/02/22-rdf-syntax-ns#" xmlns="http://www.w3.org/2000/svg" height="24" width="24" version="1.1" xmlns:cc="http://creativecommons.org/ns#" xmlns:dc="http://purl.org/dc/elements/1.1/" viewBox="0 0 24 24">
 <g transform="translate(0 -1028.4)" fill="#fff">
  <path d="m12 1032.4a8 8 0 0 0 -8 8 8 8 0 0 0 8 8 8 8 0 0 0 0.9375 -0.064c-2.389-1.8-3.938-4.7-3.938-7.9 0-3.2377 1.5505-6.1111 3.9414-7.9395a8 8 0 0 0 -0.941 -0.1z"/>
  <path opacity=".4" d="m14.289 1032.7c-2.572 1.6-4.289 4.4-4.289 7.7 0 3.2462 1.7173 6.0772 4.2891 7.6602a8 8 0 0 0 5.711 -7.7 8 8 0 0 0 -5.7109 -7.6621z"/>
 </g>
</svg>
