<?xml version="1.0" encoding="UTF-8" standalone="no"?>
<svg xmlns:rdf="http://www.w3.org/1999/02/22-rdf-syntax-ns#" xmlns="http://www.w3.org/2000/svg" height="24" width="24" version="1.1" xmlns:cc="http://creativecommons.org/ns#" xmlns:dc="http://purl.org/dc/elements/1.1/" viewBox="0 0 24 24">
 <g transform="translate(0 -1028.4)" fill="#fff">
  <path d="m4 19c0 0.554 0.446 1 1 1h14c0.554 0 1-0.446 1-1h-16z" transform="translate(0 1028.4)"/>
  <path d="m5 4c-0.554 0-1 0.446-1 1v2 1 8h10v-5.5c0-0.277 0.223-0.5 0.5-0.5h5.5v-2-1-2c0-0.554-0.446-1-1-1h-14zm10 7v3.895 0.138c1.855-0.708 3.325-2.179 4.033-4.033h-4.033zm5 0.242c-0.809 2.205-2.557 3.951-4.764 4.758h4.764v-4.355-0.403z" transform="translate(0 1028.4)"/>
  <rect height="1" width="16" y="1045.4" x="4"/>
 </g>
</svg>
