<?xml version="1.0" encoding="UTF-8" standalone="no"?>
<svg xmlns:rdf="http://www.w3.org/1999/02/22-rdf-syntax-ns#" xmlns="http://www.w3.org/2000/svg" height="24" width="24" version="1.1" xmlns:cc="http://creativecommons.org/ns#" xmlns:dc="http://purl.org/dc/elements/1.1/" viewBox="0 0 24 24">
 <g transform="translate(0 -1028.4)">
  <path style="color-rendering:auto;text-decoration-color:#000000;color:#000000;isolation:auto;mix-blend-mode:normal;shape-rendering:auto;solid-color:#000000;block-progression:tb;text-decoration-line:none;text-decoration-style:solid;image-rendering:auto;white-space:normal;text-indent:0;text-transform:none" d="m12 4c-4.4064 0-8 3.5936-8 8 0 4.406 3.5936 8 8 8 4.406 0 8-3.594 8-8 0-0.821-0.126-1.613-0.357-2.3594a4 4 0 0 1 -1.643 0.3594 4 4 0 0 1 -0.354 -0.0176c0.224 0.6306 0.354 1.3076 0.354 2.0176 0 3.326-2.674 6-6 6-3.3256 0-6-2.674-6-6 0-3.3255 2.6744-6 6-6 0.71 0 1.387 0.1275 2.018 0.3516a4 4 0 0 1 -0.018 -0.3516 4 4 0 0 1 0.357 -1.6445c-0.745-0.231-1.537-0.3555-2.357-0.3555z" transform="translate(0 1028.4)" fill="#fff"/>
  <path stroke-linejoin="round" d="m12 1037.4v3h3" stroke="#fff" stroke-linecap="round" stroke-width="2" fill="none"/>
  <path opacity="0.99" style="color:#000000" d="m20 1034.4a2 2 0 0 1 -4 0 2 2 0 1 1 4 0z" fill="#009dff"/>
 </g>
</svg>
