<?xml version="1.0" encoding="UTF-8" standalone="no"?>
<svg xmlns:rdf="http://www.w3.org/1999/02/22-rdf-syntax-ns#" xmlns="http://www.w3.org/2000/svg" height="24" width="24" version="1.1" xmlns:cc="http://creativecommons.org/ns#" xmlns:dc="http://purl.org/dc/elements/1.1/" viewBox="0 0 24 24">
 <g transform="translate(0 -1028.4)">
  <path d="m6 4c-1.108 0-2 0.892-2 2v4.518h2.4863l1.834 4.103 3.1857-8.6913 2.006 4.8413 2.09-4.8667 2.914 7.6137h1.484v-7.518c0-1.108-0.892-2-2-2h-12zm9.523 5.8926l-2.035 4.7404-1.896-4.578-3.135 8.55-2.9433-6.587h-1.5137v5.982c0 1.108 0.892 2 2 2h12c1.108 0 2-0.892 2-2v-2.982h-2.516l-1.961-5.1254z" transform="translate(0 1028.4)" fill="#fff"/>
 </g>
</svg>
