<?xml version="1.0" encoding="UTF-8" standalone="no"?>
<svg xmlns:rdf="http://www.w3.org/1999/02/22-rdf-syntax-ns#" xmlns="http://www.w3.org/2000/svg" height="24" width="24" version="1.1" xmlns:cc="http://creativecommons.org/ns#" xmlns:dc="http://purl.org/dc/elements/1.1/" viewBox="0 0 24 24">
 <g fill="#fff" transform="translate(0 -1028.4)">
  <path style="color:#bebebe" d="m21.933 1038.9-0.96593 0.2588-0.90587-3.3807s-0.12941-0.483-0.61237-0.3536l-1.449 0.4 3.1058 11.591 1.4489-0.3882c0.48296-0.1295 0.35355-0.6124 0.35355-0.6124l-0.90587-3.3808 0.96593-0.2588z"/>
  <path style="color:#bebebe" d="m7 9v9s0 1 1 1h7.969c0.031 0 1.031 0 1.031-1v-8-1h-9.0312-0.9688zm3 2h1v6h-1v-6zm3 0h1v6h-1v-6z" transform="translate(0 1028.4)"/>
  <path d="m12.335 1033.4c-0.2614 0.1083-0.76728 0.2572-0.9442 0.4908 1.0428 0.2625 1.9682 1.007 2.7207 2.4551 0.47275 0 1.9062 0.01 1.9062 0.01s-0.25464-1.6354-0.76562-2.2344c-0.31216-0.3659-0.79732-0.536-1.2743-0.6769-0.46126-0.1363-0.97768-0.089-1.6429-0.045zm-1.6044 1.3854c-0.20964-0.018-0.44405-0.01-0.68555 0.01-0.36393 0.1474-0.72943 0.2922-1.0449 0.5195-0.38242 0.2756-1 1-1 1s3.2027 0.014 4.9375 0.027c-0.68069-1.1093-1.3328-1.4763-2.207-1.5527z" fill-rule="evenodd"/>
 </g>
</svg>
