<?xml version="1.0" encoding="UTF-8" standalone="no"?>
<svg xmlns:rdf="http://www.w3.org/1999/02/22-rdf-syntax-ns#" xmlns="http://www.w3.org/2000/svg" height="24" width="24" version="1.1" xmlns:cc="http://creativecommons.org/ns#" xmlns:dc="http://purl.org/dc/elements/1.1/" viewBox="0 0 24 24">
 <g transform="translate(0 -1028.4)" fill="#fff">
  <circle cx="6" cy="1034.4" r="2"/>
  <circle cy="1034.4" cx="12" r="2"/>
  <circle cx="18" cy="1034.4" r="2"/>
  <path style="color-rendering:auto;text-decoration-color:#000000;color:#000000;isolation:auto;mix-blend-mode:normal;shape-rendering:auto;solid-color:#000000;block-progression:tb;text-decoration-line:none;text-decoration-style:solid;image-rendering:auto;white-space:normal;text-indent:0;text-transform:none" d="m5 6c0 0.5642 0.4359 1 1 1s1-0.4358 1-1h-2zm12 0c0 0.5642 0.436 1 1 1s1-0.4358 1-1h-2zm-12 2.8125v1.1875a1.0001 1.0001 0 0 0 1 1h5v1.143c0.322-0.085 0.653-0.143 1-0.143s0.678 0.058 1 0.143v-1.143h5a1.0001 1.0001 0 0 0 1 -1v-1.1875c-0.315 0.1135-0.648 0.1875-1 0.1875s-0.685-0.074-1-0.1875v0.1875 1h-4v-1-0.1875c-0.315 0.1135-0.648 0.1875-1 0.1875s-0.685-0.074-1-0.1875v0.1875 1h-4v-1-0.1875c-0.3148 0.1135-0.6482 0.1875-1 0.1875s-0.6852-0.074-1-0.1875z" fill-rule="evenodd" transform="translate(0 1028.4)"/>
  <circle cx="12" cy="1043.4" r="2"/>
  <path style="color-rendering:auto;text-decoration-color:#000000;color:#000000;isolation:auto;mix-blend-mode:normal;shape-rendering:auto;solid-color:#000000;block-progression:tb;text-decoration-line:none;text-decoration-style:solid;image-rendering:auto;white-space:normal;text-indent:0;text-transform:none" d="m8.0293 12c-0.6365 0.839-1.0293 1.872-1.0293 3 0 2.75 2.2504 5 5 5 2.75 0 5-2.25 5-5 0-1.128-0.393-2.161-1.029-3h-1.971v0.771c0.611 0.548 1 1.336 1 2.229 0 1.669-1.331 3-3 3s-3-1.331-3-3c0-0.893 0.3895-1.681 1-2.229v-0.771h-1.9707z" transform="translate(0 1028.4)"/>
 </g>
</svg>
