<?xml version="1.0" encoding="UTF-8" standalone="no"?>
<svg xmlns:rdf="http://www.w3.org/1999/02/22-rdf-syntax-ns#" xmlns="http://www.w3.org/2000/svg" height="24" width="24" version="1.1" xmlns:cc="http://creativecommons.org/ns#" xmlns:dc="http://purl.org/dc/elements/1.1/" viewBox="0 0 24 24">
 <g transform="translate(0 -1028.4)" fill="#fff">
  <path style="color-rendering:auto;text-decoration-color:#000000;color:#000000;isolation:auto;mix-blend-mode:normal;shape-rendering:auto;solid-color:#000000;block-progression:tb;text-decoration-line:none;image-rendering:auto;white-space:normal;text-indent:0;text-transform:none;text-decoration-style:solid" d="m8 5a1.0001 1.0001 0 0 0 -0.707 0.293l-2 2a1.0001 1.0001 0 0 0 -0.293 0.707v0.0254c0.5615 0.12 1 0.6344 1 1.2246v0.5c0 0.59-0.4385 1.105-1 1.225v1.05c0.5615 0.12 1 0.635 1 1.225v0.5c0 0.59-0.4385 1.105-1 1.225v1.05c0.5615 0.12 1 0.635 1 1.225v0.5c0 0.582-0.4278 1.088-0.9785 1.217 0.1068 0.577 0.627 1.033 1.2285 1.033h12.5c0.675 0 1.25-0.575 1.25-1.25v-12.5c0-0.5892-0.44-1.0958-1-1.2168v-0.0332h-0.025c-0.12 0.5615-0.635 1-1.225 1h-0.5c-0.59 0-1.105-0.4385-1.225-1h-1.05c-0.12 0.5615-0.635 1-1.225 1h-0.5c-0.59 0-1.105-0.4385-1.225-1h-1.05c-0.12 0.5615-0.635 1-1.225 1h-0.5c-0.5902 0-1.1046-0.4385-1.2246-1h-0.0254zm0.25 2h9.5c0.675 0 1.25 0.5748 1.25 1.25v9.5c0 0.338-0.143 0.649-0.371 0.877-0.228 0.229-0.541 0.373-0.879 0.373h-9.5c-0.3382 0-0.6507-0.144-0.8789-0.373-0.1137-0.114-0.2071-0.248-0.2715-0.397v-0.001c-0.032-0.074-0.0572-0.151-0.0742-0.231v-0.002c-0.017-0.08-0.0254-0.162-0.0254-0.246v-9.5c0-0.6752 0.5748-1.25 1.25-1.25z" transform="translate(0 1028.4)"/>
  <rect rx=".25" ry=".25" height="2" width="1" y="1031.4" x="17"/>
  <rect rx=".25" ry=".25" height="2" width="1" y="1031.4" x="13"/>
  <rect rx=".25" ry=".25" height="2" width="1" y="1031.4" x="9"/>
  <g transform="matrix(0 1 -1 0 1036.4 1028.4)">
   <rect rx=".25" ry=".25" height="2" width="1" y="1031.4" x="17"/>
   <rect rx=".25" ry=".25" height="2" width="1" y="1031.4" x="13"/>
   <rect rx=".25" ry=".25" height="2" width="1" y="1031.4" x="9"/>
  </g>
 </g>
 <circle cx="15" cy="15" r="2" fill="#fff"/>
</svg>
