<?xml version="1.0" encoding="UTF-8" standalone="no"?>
<svg xmlns:rdf="http://www.w3.org/1999/02/22-rdf-syntax-ns#" style="image-rendering:optimizeQuality;text-rendering:geometricPrecision;shape-rendering:geometricPrecision" xmlns="http://www.w3.org/2000/svg" fill-rule="evenodd" xml:space="preserve" height="24" width="24" version="1.1" clip-rule="evenodd" xmlns:cc="http://creativecommons.org/ns#" xmlns:dc="http://purl.org/dc/elements/1.1/" viewBox="0 0 1771.6469 1771.6467"><defs><style type="text/css"><![CDATA[
    .fil2 {fill:#11A861}
    .fil0 {fill:#3777E3}
    .fil1 {fill:#FFCF63}
   ]]></style></defs><g fill="#fff"><path d="m9.5762 4 4.8457 8.5332c0.624-0.331 1.325-0.533 2.078-0.533 0.87425 0 1.6405 0.3236 2.3262 0.75977l0.4668-0.4668c0.09043-0.08969 0.19716-0.16129 0.31445-0.21094l-4.607-8.082zm-0.1953 11.064-2.8047 4.936h3.4238 1 1v-3c-0.000398-0.1933 0.05523-0.38258 0.16016-0.54492-0.09461-0.1847-0.12942-0.39425-0.09961-0.59961 0.0396-0.27186 0.10337-0.53673 0.18945-0.79102h-0.73242-1.5176z" fill-rule="evenodd" transform="scale(73.819)"/><path d="m643.17 332.76-421.71 744.94 200.4 360.9 424.89-747.56-203.58-358.28z" fill-rule="evenodd"/><g transform="translate(147.64 .000017127)"><path style="color-rendering:auto;text-decoration-color:#000000;color:#000000;isolation:auto;mix-blend-mode:normal;shape-rendering:auto;solid-color:#000000;block-progression:tb;text-decoration-line:none;text-decoration-style:solid;image-rendering:auto;white-space:normal;text-indent:0;text-transform:none" d="m14.5 13c-1.7552 0-3.2032 1.3107-3.4492 3h1.1094c0.22806-1.0855 1.1834-1.8926 2.3398-1.8926 1.1565 0 2.1118 0.80705 2.3398 1.8926h1.1094c-0.246-1.689-1.694-3-3.449-3zm-3.4492 4c0.24606 1.6893 1.694 3 3.4492 3s3.2032-1.3107 3.4492-3h-1.1094c-0.228 1.086-1.184 1.893-2.34 1.893s-2.112-0.807-2.34-1.893h-1.1094z" fill-rule="nonzero" transform="scale(73.819)" clip-rule="nonzero"/><path d="m812 1254.9h221.46l-221.46 221.46z" fill-rule="evenodd"/><path d="m1107.3 1181.1h221.46v-221.46z" fill-rule="evenodd"/></g><path style="color-rendering:auto;text-decoration-color:#000000;color:#000000;isolation:auto;mix-blend-mode:normal;shape-rendering:auto;solid-color:#000000;block-progression:tb;text-decoration-line:none;text-decoration-style:solid;image-rendering:auto;white-space:normal;text-indent:0;text-transform:none" d="m1218 959.64c-129.41 0-236.43 96.86-254.62 221.46h112.17c16.256-63.926 73.1-110.73 142.45-110.73 41.146 0 77.62 16.788 104.1 43.542l-67.186 67.186h221.46v-221.46l-76.99 76.991c-46.57-47.066-110.23-76.991-181.37-76.991zm-258.37 295.27v221.46l76.991-76.991c46.57 47.066 110.23 76.991 181.37 76.991 129.41 0 236.43-96.86 254.62-221.46h-112.17c-16.244 63.943-73.088 110.73-142.45 110.73-41.153 0-77.621-16.789-104.1-43.541l67.186-67.186h-105.54-112.17-3.7486z" fill-rule="nonzero" clip-rule="nonzero"/></g></svg>
