<?xml version="1.0" encoding="UTF-8" standalone="no"?>
<svg xmlns:rdf="http://www.w3.org/1999/02/22-rdf-syntax-ns#" xmlns="http://www.w3.org/2000/svg" height="24" width="24" version="1.1" xmlns:cc="http://creativecommons.org/ns#" xmlns:dc="http://purl.org/dc/elements/1.1/" viewBox="0 0 24 24">
 <g transform="translate(0 -1028.4)">
  <path style="color-rendering:auto;text-decoration-color:#000000;color:#000000;isolation:auto;mix-blend-mode:normal;shape-rendering:auto;solid-color:#000000;block-progression:tb;text-decoration-line:none;text-decoration-style:solid;image-rendering:auto;white-space:normal;text-indent:0;text-transform:none" d="m12 4c-4.4124 0-8 3.5877-8 8 0 4.412 3.5876 8 8 8 4.412 0 8-3.588 8-8 0-1.173-0.26-2.2864-0.715-3.291a3 3 0 0 1 -0.974 0.2715c0.437 0.9145 0.689 1.9365 0.689 3.0195 0 3.872-3.128 7-7 7-3.8719 0-7-3.128-7-7 0-3.8719 3.1281-7 7-7 1.083 0 2.103 0.2504 3.018 0.6875a3 3 0 0 1 0.275 -0.9707c-1.006-0.4565-2.118-0.7168-3.293-0.7168z" transform="translate(0 1028.4)" fill="#fff"/>
  <path d="m12 6l2.887 5 1.447-2.5059a3 3 0 0 1 -1.193 -1.5976 6 6 0 0 0 -3.141 -0.8965zm-1.094 0.1055a6 6 0 0 0 -4.1013 2.9023l5.7733-0.0058-1.672-2.8965zm6.285 2.9023l-2.888 5.0042 3.338 0.009a6 6 0 0 0 0.359 -2.021 6 6 0 0 0 -0.809 -2.9922zm-7.5035 0.9962l-3.3398 0.004a6 6 0 0 0 -0.3477 1.992 6 6 0 0 0 0.8086 2.992l2.8789-4.988zm0.0059 1.994l-0.002 0.002 1.1546 2 2.304 0.008v-0.002l-2.304-0.01-1.1526-1.998zm-0.5801 1.004l-1.6699 2.891a6 6 0 0 0 4.5566 2.107l-2.8867-4.998zm2.3107 2l1.67 2.894a6 6 0 0 0 4.084 -2.876l-5.754-0.018z" transform="translate(0 1028.4)" fill="#fff"/>
  <path opacity=".4" d="m13.154 1038.4h-2.3105l-1.1523 1.9961 1.1543 2 2.3047 0.01 1.1582-2.0078-1.1543-2z" fill="#fff"/>
  <path style="color:#000000;image-rendering:optimizeQuality;shape-rendering:geometricPrecision" d="m20 1034.4a2 2 0 0 1 -4 0 2 2 0 1 1 4 0z" clip-rule="evenodd" fill="#f57900"/>
 </g>
</svg>
