<?xml version="1.0" encoding="UTF-8" standalone="no"?>
<svg xmlns:rdf="http://www.w3.org/1999/02/22-rdf-syntax-ns#" xmlns="http://www.w3.org/2000/svg" height="24" width="24" version="1.1" xmlns:cc="http://creativecommons.org/ns#" xmlns:dc="http://purl.org/dc/elements/1.1/" viewBox="0 0 24 24">
 <g transform="translate(0 -1028.4)" fill="#fff">
  <path opacity=".4" style="color-rendering:auto;text-decoration-color:#000000;color:#000000;isolation:auto;mix-blend-mode:normal;shape-rendering:auto;solid-color:#000000;block-progression:tb;text-decoration-line:none;text-decoration-style:solid;image-rendering:auto;white-space:normal;text-indent:0;text-transform:none" d="m12 4c-4.4124 0-8 3.5877-8 8 0 4.412 3.5876 8 8 8v-1c-3.8719 0-7-3.128-7-7 0-3.8719 3.1281-7 7-7 3.872 0 7 3.1281 7 7 0 0.341-0.031 0.672-0.078 1h1.01c0.041-0.329 0.068-0.66 0.068-1 0-4.4123-3.588-8-8-8zm6.318 11c-0.097 0.204-0.202 0.403-0.318 0.596v1.679c0.381-0.432 0.719-0.902 1-1.41v-0.865h-0.682zm-3.318 3.318c-0.322 0.153-0.654 0.286-1 0.389v0.293h1v-0.682z" transform="translate(0 1028.4)"/>
  <path opacity=".4" d="m12 6l2.887 5 1.67-2.8926a6 6 0 0 0 -4.557 -2.1074zm-1.094 0.1055a6 6 0 0 0 -4.1013 2.9023l5.7733-0.0058-1.672-2.8965zm6.285 2.9023l-2.304 3.9922h1.113a1.0001 1.0001 0 0 1 0.5 0.137 1.0001 1.0001 0 0 1 0.5 -0.137h0.906a6 6 0 0 0 0.094 -1 6 6 0 0 0 -0.809 -2.9922zm-7.5035 0.9962l-3.3398 0.004a6 6 0 0 0 -0.3477 1.992 6 6 0 0 0 0.8086 2.992l2.8789-4.988zm0.0059 1.994l-0.002 0.002 1.1546 2 1.154 0.004v-0.002l-1.154-0.006-1.1526-1.998zm-0.5801 1.004l-1.6699 2.891a6 6 0 0 0 4.5566 2.107l-2.8867-4.998zm2.3107 2l0.576 0.998v-0.996l-0.576-0.002zm2.576 0.008v2.636a6 6 0 0 0 1 -0.464v-2.168l-1-0.004z" transform="translate(0 1028.4)"/>
  <path opacity=".4" d="m10.844 10l-1.1526 1.996 1.1546 2 1.154 0.006v-0.002a1.0001 1.0001 0 0 1 1 -1h0.73l0.579-1.002-1.155-1.998h-2.31z" transform="translate(0 1028.4)"/>
  <path style="image-rendering:optimizeQuality;shape-rendering:geometricPrecision" d="m13 1042.4v6h3v-6h-3zm4 0v6h3v-6h-3z" fill-rule="evenodd" clip-rule="evenodd"/>
 </g>
</svg>
