<?xml version="1.0" encoding="UTF-8" standalone="no"?>
<svg xmlns:rdf="http://www.w3.org/1999/02/22-rdf-syntax-ns#" xmlns="http://www.w3.org/2000/svg" height="24" width="24" version="1.1" xmlns:cc="http://creativecommons.org/ns#" xmlns:dc="http://purl.org/dc/elements/1.1/" viewBox="0 0 24 24">
<g transform="translate(0 -1028.4)">
<path d="m15.428 1032.4a4.5 4.5 0 0 0 -4.5 4.5 4.5 4.5 0 0 0 0.45312 1.9531l-0.881 0.8-2.1211 2.2-4.3789 4.3v2.1211h1 1.123 1.877v-1.877l0.12305-0.123h1.877v-1.877l0.12305-0.123h1.877v-1.166-0.707l1.5117-1.5117a4.5 4.5 0 0 0 1.916 0.4336 4.5 4.5 0 0 0 4.5 -4.5 4.5 4.5 0 0 0 -4.5 -4.5zm0.572 2a2 2 0 0 1 2 2 2 2 0 0 1 -2 2 2 2 0 0 1 -2 -2 2 2 0 0 1 2 -2zm-12 1v2.123l3.6719 3.67 2.1211-2.1211-3.6719-3.6719h-2.1211zm9.332 7.2109-0.33203 0.3301v1.459 1h-1.123l3 3h2.123v-2.1211l-3.668-3.668z" fill="#fff"/>
</g>
</svg>
