<?xml version="1.0" encoding="UTF-8" standalone="no"?>
<svg xmlns:rdf="http://www.w3.org/1999/02/22-rdf-syntax-ns#" xmlns="http://www.w3.org/2000/svg" height="24" width="24" version="1.1" xmlns:cc="http://creativecommons.org/ns#" xmlns:xlink="http://www.w3.org/1999/xlink" viewBox="0 0 24 24" xmlns:dc="http://purl.org/dc/elements/1.1/">
 <defs>
  <linearGradient id="a" y2="22.574" gradientUnits="userSpaceOnUse" x2="191.5" gradientTransform="matrix(.20308 0 0 .20697 1.6394 1030.6)" y1="80.915" x1="125.27">
   <stop stop-color="#226e23" offset="0"/>
   <stop stop-color="#63ab3a" offset="1"/>
  </linearGradient>
 </defs>
 <g transform="translate(0 -1028.4)">
  <path d="m37.895 1032.5c-2.2881 0-4.1491 1.8831-4.1491 4.2149 0 0.6418 0.14636 1.2522 0.39768 1.7968l-1.5775 1.6076-4.971-5.066h-1.5642v1.6211l4.9577 5.0526-4.9577 5.0525v1.5941h1.5907l1.8691-1.9048h1.8691v-2.5128h1.8161l4.3347 4.4176h1.5907v-1.5941l-4.9577-5.0525 1.4582-1.4861c0.65531 0.4428 1.4481 0.7025 2.2933 0.7025 2.2881 0 4.1359-1.8966 4.1359-4.2285 0-2.3318-1.8477-4.2149-4.1359-4.2149z" fill="url(#a)"/>
  <path d="m15.428 4.0449a4.5 4.5 0 0 0 -4.5 4.5 4.5 4.5 0 0 0 4.5 4.5001 4.5 4.5 0 0 0 4.5 -4.5001 4.5 4.5 0 0 0 -4.5 -4.5zm0.572 1.9551a2 2 0 0 1 2 2 2 2 0 0 1 -2 2 2 2 0 0 1 -2 -2 2 2 0 0 1 2 -2z" transform="translate(0 1028.4)" fill="#fff"/>
  <path style="color-rendering:auto;text-decoration-color:#000000;color:#000000;isolation:auto;mix-blend-mode:normal;shape-rendering:auto;solid-color:#000000;block-progression:tb;text-decoration-line:none;text-decoration-style:solid;image-rendering:auto;white-space:normal;text-indent:0;text-transform:none" d="m12.207 9.6719l-8.207 8.2071v2.121h2.123l8.205-8.205a3.5 3.5 0 0 1 -2.121 -2.1231z" fill-rule="evenodd" transform="translate(0 1028.4)" fill="#fff"/>
  <path style="color-rendering:auto;text-decoration-color:#000000;color:#000000;isolation:auto;mix-blend-mode:normal;shape-rendering:auto;solid-color:#000000;block-progression:tb;text-decoration-line:none;text-decoration-style:solid;image-rendering:auto;white-space:normal;text-indent:0;text-transform:none" d="m4 7v2.123l10.877 10.877h2.123v-2.121l-10.879-10.879h-2.121z" fill-rule="evenodd" transform="translate(0 1028.4)" fill="#fff"/>
  <rect height="2" width="3" y="1044.4" x="7" fill="#fff"/>
  <rect height="2" width="3" y="1046.4" x="5" fill="#fff"/>
 </g>
</svg>
