<?xml version="1.0" encoding="UTF-8" standalone="no"?>
<svg xmlns:rdf="http://www.w3.org/1999/02/22-rdf-syntax-ns#" xmlns="http://www.w3.org/2000/svg" height="24" width="24" version="1.1" xmlns:cc="http://creativecommons.org/ns#" xmlns:dc="http://purl.org/dc/elements/1.1/" viewBox="0 0 24 24">
 <g transform="translate(0 -1028.4)" fill="#fff">
  <path opacity="0.96" style="color:#000000;text-indent:0;block-progression:tb;text-transform:none" d="m48.957 1032.4c-2.1946 0-3.9785 0.7501-3.9785 1.6738 0 0.3465 0.24538 0.6686 0.67383 0.9356-0.02812 0.033-0.03697 0.052-0.06445 0.086-0.29695-0.1226-0.62979-0.1738-0.95703-0.1738-1.389 0-2.631 1.2-2.631 2.8 0 1.4359 0.96575 2.5293 2.1523 2.7617 0.12645 0.9444 0.4315 1.804 0.86133 2.5449-0.0011-0.3403 0.02929-0.684 0.13086-1.0332 0.60973-2.0919 2.8301-3.022 4.9336-2.6387l1.5625-5.3632 0.29883-1.0196c-0.7259-0.3527-1.7876-0.5781-2.9824-0.5781zm-4.3262 4.2168c0.0091 0 0.01252-0.0001 0.02148 0-0.27582 0.6443-0.4468 1.3728-0.52148 2.1309-0.43263-0.1885-0.69531-0.6217-0.69531-1.0215 0-0.5398 0.46176-1.1094 1.1953-1.1094zm1.5 9.1211c-0.0074 0.018-0.01223 0.034-0.02148 0.053-0.01156 0.023-0.01369 0.045-0.02148 0.066-0.7018 0.2699-1.1309 0.6363-1.1309 1.043 0 0.827 1.7934 1.5 4 1.5s3.9785-0.673 3.9785-1.5c0-0.2104-0.14826-0.4073-0.35938-0.5898-0.12876 0.106-0.26072 0.2057-0.40234 0.2949-0.97559 0.7524-2.375 0.9973-3.6914 0.6133-0.5242-0.153-0.9974-0.4056-1.4121-0.7188-0.34572-0.2203-0.66605-0.4695-0.93945-0.7617z"/>
  <path d="m12 1032.4a4 1.5 0 0 0 -4 1.5 4 1.5 0 0 0 0.77148 0.8809 5 6 0 0 0 -0.16602 0.1757c-0.4143-0.3-0.8711-0.4-1.3555-0.4-1.786 0-3.25 1.464-3.25 3.25 0 1.7607 1.4244 3.2014 3.1758 3.2422a5 6 0 0 0 0.76758 1.8281h-0.00586c0.010493 0.013 0.016974 0.024 0.027344 0.037a5 6 0 0 0 0.052734 0.074c-0.00601-0.356 0.020469-0.7159 0.12695-1.082 0.60973-2.0919 2.8301-3.022 4.9336-2.6387l1.5625-5.3632 0.32227-1.1036a4 1.5 0 0 0 -2.963 -0.4zm-4.75 3.75c0.16519 0 0.32177 0.029 0.47266 0.07a5 6 0 0 0 -0.76758 3.1797 5 6 0 0 0 0.00781 0.2207c-0.8352-0.3-1.4629-1-1.4629-1.8 0-0.9754 0.77462-1.75 1.75-1.75zm1.9121 9.627c-0.11856 0.3999-0.41312 0.7991-0.91406 1.2753h0.00781a4 1 0 0 0 -0.2558 0.3 4 1 0 0 0 4 1 4 1 0 0 0 4 -1 4 1 0 0 0 -1.0469 -0.6719c-1.0531 0.5759-2.3716 0.7302-3.6094 0.3692-0.84591-0.2468-1.6022-0.7144-2.1816-1.3203z"/>
  <path d="m16.641 1032.5-0.55971 1.9201-2 6.8607a2.9991 2.4999 16.284 0 0 -0.91872 -0.4206 2.9991 2.4999 16.284 0 0 -3.5788 1.5603 2.9991 2.4999 16.284 0 0 2.1795 3.2398 2.9991 2.4999 16.284 0 0 3.5788 -1.5602l2.1098-7.2375c0.98799 1.2984 2.1796 2.0546 3.5481 2.1172-1.3986-0.7832-2.3723-2.6677-2.4396-5.9199l-1.9194-0.5599z"/>
 </g>
</svg>
