<?xml version="1.0" encoding="UTF-8" standalone="no"?>
<!-- Created with Inkscape (http://www.inkscape.org/) -->

<svg
   xmlns:dc="http://purl.org/dc/elements/1.1/"
   xmlns:cc="http://creativecommons.org/ns#"
   xmlns:rdf="http://www.w3.org/1999/02/22-rdf-syntax-ns#"
   xmlns:svg="http://www.w3.org/2000/svg"
   xmlns="http://www.w3.org/2000/svg"
   xmlns:sodipodi="http://sodipodi.sourceforge.net/DTD/sodipodi-0.dtd"
   xmlns:inkscape="http://www.inkscape.org/namespaces/inkscape"
   width="24"
   height="24"
   viewBox="0 0 24 24"
   id="svg2"
   version="1.1"
   inkscape:version="0.91 r"
   sodipodi:docname="process-syncing-up.svg">
  <defs
     id="defs4" />
  <sodipodi:namedview
     id="base"
     pagecolor="#989898"
     bordercolor="#666666"
     borderopacity="1.0"
     inkscape:pageopacity="0"
     inkscape:pageshadow="2"
     inkscape:zoom="15.839192"
     inkscape:cx="27.906971"
     inkscape:cy="17.714757"
     inkscape:document-units="px"
     inkscape:current-layer="layer1"
     showgrid="true"
     units="px"
     showguides="true"
     inkscape:guide-bbox="true"
     inkscape:window-width="1280"
     inkscape:window-height="745"
     inkscape:window-x="0"
     inkscape:window-y="30"
     inkscape:window-maximized="1"
     inkscape:snap-grids="true"
     inkscape:snap-center="true"
     inkscape:snap-object-midpoints="true">
    <inkscape:grid
       type="xygrid"
       id="grid11195" />
    <sodipodi:guide
       position="4,20"
       orientation="1,0"
       id="guide11197" />
    <sodipodi:guide
       position="20,4"
       orientation="1,0"
       id="guide11199" />
    <sodipodi:guide
       position="20,20"
       orientation="0,1"
       id="guide11201" />
  </sodipodi:namedview>
  <metadata
     id="metadata7">
    <rdf:RDF>
      <cc:Work
         rdf:about="">
        <dc:format>image/svg+xml</dc:format>
        <dc:type
           rdf:resource="http://purl.org/dc/dcmitype/StillImage" />
        <dc:title />
      </cc:Work>
    </rdf:RDF>
  </metadata>
  <g
     inkscape:label="Ebene 1"
     inkscape:groupmode="layer"
     id="layer1"
     transform="translate(0,-1028.3622)">
    <path
       style="opacity:1;fill:#ffffff;fill-opacity:1;stroke:none;stroke-width:1;stroke-linecap:round;stroke-linejoin:round;stroke-miterlimit:4;stroke-dasharray:none;stroke-opacity:0.70196078"
       d="M 5 5 C 4.446 5 4 5.446 4 6 L 4 8.2832031 C 4.2965194 8.1077031 4.6360307 8 5 8 L 6 8 L 7 8 L 8.5859375 8 L 10.292969 6.2929688 A 1.0001 1.0001 0 0 1 11 6 L 12 6 C 12 5.446 11.554 5 11 5 L 5 5 z M 11 7 L 9 9 L 7 9 L 6 9 L 5 9 C 4.446 9 4 9.446 4 10 L 4 11 L 4 12 L 4 14 L 4 15 L 4 18 C 4 19.108 4.892 20 6 20 L 18 20 C 19.108 20 20 19.108 20 18 L 20 15 L 20 14 L 20 8 C 20 7.446 19.554 7 19 7 L 11 7 z M 12 10 L 15 14 L 13 14 L 13 18 L 11 18 L 11 14 L 9 14 L 12 10 z "
       transform="translate(0,1028.3622)"
       id="rect11216" />
  </g>
</svg>
