<?xml version="1.0" encoding="UTF-8" standalone="no"?>
<svg xmlns:rdf="http://www.w3.org/1999/02/22-rdf-syntax-ns#" xmlns="http://www.w3.org/2000/svg" height="24" width="24" version="1.1" xmlns:cc="http://creativecommons.org/ns#" xmlns:dc="http://purl.org/dc/elements/1.1/" viewBox="0 0 24 24">
 <g transform="translate(0 -1028.4)">
  <path stroke-linejoin="round" d="m12 5c-1.108 0-2 0.892-2 2v6.77a3 3 0 0 0 -1 2.23 3 3 0 0 0 3 3 3 3 0 0 0 3 -3 3 3 0 0 0 -1 -2.232v-6.768c0-1.108-0.892-2-2-2z" transform="translate(0 1028.4)" stroke="#d33636" stroke-linecap="round" stroke-width="2" fill="none"/>
  <rect rx="1" ry="1" height="2" width="4" y="1038.4" x="14" fill="#d33636"/>
  <rect rx="1" ry="1" height="2" width="4" y="1035.4" x="14" fill="#d33636"/>
 </g>
</svg>
