<?xml version="1.0" encoding="UTF-8" standalone="no"?>
<svg xmlns:rdf="http://www.w3.org/1999/02/22-rdf-syntax-ns#" xmlns="http://www.w3.org/2000/svg" height="24" width="24" version="1.1" xmlns:cc="http://creativecommons.org/ns#" xmlns:dc="http://purl.org/dc/elements/1.1/" viewBox="0 0 24 24">
 <g transform="translate(0 -1028.4)">
  <path d="m12 4a8 8 0 0 0 -8 8 8 8 0 0 0 5 7.41v-4.598c-0.3148 0.114-0.6482 0.188-1 0.188-1.645 0-3-1.355-3-3s1.355-3 3-3c0.3518 0 0.6852 0.072 1 0.1855v-0.1855h2v3 7.93a8 8 0 0 0 1 0.07 8 8 0 0 0 8 -8 8 8 0 0 0 -5 -7.4121v4.5976c0.315-0.1135 0.648-0.1855 1-0.1855 1.645 0 3 1.355 3 3s-1.355 3-3 3c-0.352 0-0.685-0.074-1-0.188v0.188h-2v-3-7.9277a8 8 0 0 0 -1 -0.0723zm-4 7c-0.5641 0-1 0.436-1 1s0.4359 1 1 1 1-0.436 1-1-0.4359-1-1-1zm8 0c-0.564 0-1 0.436-1 1s0.436 1 1 1 1-0.436 1-1-0.436-1-1-1z" transform="translate(0 1028.4)" fill="#fff"/>
 </g>
</svg>
