<?xml version="1.0" encoding="UTF-8" standalone="no"?>
<svg xmlns:rdf="http://www.w3.org/1999/02/22-rdf-syntax-ns#" xmlns="http://www.w3.org/2000/svg" height="24" width="24" version="1.1" xmlns:cc="http://creativecommons.org/ns#" xmlns:dc="http://purl.org/dc/elements/1.1/" viewBox="0 0 24 24">
 <g transform="translate(0 -1028.4)">
  <path d="m10.473 3.002a0.75008 0.75008 0 0 0 -0.463 0.1699l-5.0002 4a0.75038 0.75038 0 0 0 -0.1797 0.2109c-0.501 0.3628-0.8301 0.9487-0.8301 1.6172v9c0 1.108 0.892 2 2 2h12c1.108 0 2-0.892 2-2v-9c0-1.108-0.892-2-2-2h-10.373l3.32-2.6562a0.75008 0.75008 0 0 0 -0.474 -1.3418zm-3.473 5.998h10c0.554 0 1 0.446 1 1v2c0 0.554-0.446 1-1 1h-1v-1.5c0-0.277-0.223-0.5-0.5-0.5s-0.5 0.223-0.5 0.5v1.5h-8c-0.554 0-1-0.446-1-1v-2c0-0.554 0.446-1 1-1zm1 5a2 2 0 0 1 2 2 2 2 0 0 1 -2 2 2 2 0 0 1 -2 -2 2 2 0 0 1 2 -2z" transform="translate(0 1028.4)" fill="#fff"/>
 </g>
</svg>
