<?xml version="1.0" encoding="UTF-8" standalone="no"?>
<svg xmlns:rdf="http://www.w3.org/1999/02/22-rdf-syntax-ns#" xmlns="http://www.w3.org/2000/svg" height="24" width="24" version="1.1" xmlns:cc="http://creativecommons.org/ns#" xmlns:dc="http://purl.org/dc/elements/1.1/" viewBox="0 0 24 24">
 <g transform="translate(0 -1028.4)" fill="#fff">
  <path opacity=".4" d="m10.473 3.002a0.75008 0.75008 0 0 0 -0.463 0.1699l-5.0002 4a0.75038 0.75038 0 0 0 -0.1797 0.2109c-0.501 0.3628-0.8301 0.9487-0.8301 1.6172v0.8887c0.3908-0.764 0.898-1.4835 1.5215-2.1309 0.355-0.3764 0.8424-0.6029 1.3594-0.6269a1.0001 1.0001 0 0 0 0.0019 0c0.8639-0.0395 1.6128 0.4979 1.918 1.1855 0.1271 0.2865 0.137 0.6195 0.1152 0.9473 0.0577-0.007 0.0957-0.0703 0.1543-0.0703h0.002c0.8648-0.0351 1.6127 0.5093 1.9137 1.1996 0.13 0.297 0.144 0.642 0.114 0.982 0.313-0.112 0.55-0.375 0.9-0.375 0.352 0 0.591 0.265 0.906 0.379-0.028-0.306-0.035-0.617 0.069-0.893 0.256-0.6787 0.928-1.2417 1.754-1.2907a1.0001 1.0001 0 0 1 0.007 0h0.196c0.059 0.002 0.098 0.0603 0.156 0.0703-0.02-0.2943-0.03-0.595 0.072-0.8594 0.262-0.6766 0.936-1.2323 1.762-1.2753a1.0001 1.0001 0 0 1 0.004 0h0.195c0.516 0.025 1.003 0.2509 1.358 0.6269 0.623 0.6474 1.13 1.3669 1.521 2.1309v-0.8887c0-1.108-0.892-2-2-2h-10.373l3.32-2.6562a0.75008 0.75008 0 0 0 -0.474 -1.3418zm1.527 9.998c-0.564 0-1 0.436-1 1s0.436 1 1 1 1-0.436 1-1-0.436-1-1-1zm-0.916 3.617c0.016 0.111 0.138 0.2 0.133 0.309-0.024 0.541-0.268 1.005-0.61 1.345-0.341 0.341-0.8054 0.58-1.3472 0.602-0.1176 0.005-0.2142-0.124-0.334-0.144 0.0129 0.103 0.1265 0.187 0.1211 0.289-0.0198 0.37-0.1465 0.7-0.3321 0.982h6.5702c-0.185-0.282-0.312-0.612-0.332-0.982-0.005-0.102 0.108-0.186 0.121-0.289-0.12 0.019-0.216 0.144-0.334 0.144-0.542-0.022-1.006-0.261-1.347-0.602-0.342-0.34-0.586-0.804-0.61-1.345-0.005-0.109 0.117-0.198 0.133-0.309-0.318 0.116-0.56 0.383-0.916 0.383s-0.598-0.267-0.916-0.383zm-7.0703 1.514c0.0482 0.738 0.4888 1.362 1.1211 1.666-0.4403-0.522-0.8184-1.079-1.1211-1.666zm15.972 0c-0.302 0.587-0.681 1.144-1.121 1.666 0.632-0.304 1.073-0.928 1.121-1.666zm-3.707 0.068c-0.003 0.01-0.01 0.012-0.013 0.012-0.007 0.007-0.009 0.013-0.016 0.023l0.029-0.029v-0.006zm-8.5583 0.006v0.006l0.0293 0.027c-0.0069-0.007-0.0088-0.013-0.0156-0.023-0.0037-0.01-0.0101-0.01-0.0137-0.01z" transform="translate(0 1028.4)"/>
  <path d="m6.9277 8.1289a1.0001 1.0001 0 0 0 -0.6816 0.3145c-3.0012 3.1076-2.9838 8.0676 0.0391 11.155a1.0001 1.0001 0 1 0 1.4277 -1.399c-2.2804-2.328-2.2934-6.022-0.0293-8.367a1.0001 1.0001 0 0 0 -0.7559 -1.7031zm10.047 0a1.0001 1.0001 0 0 0 -0.659 1.7031c2.265 2.345 2.252 6.039-0.029 8.367a1.0001 1.0001 0 1 0 1.428 1.399c3.023-3.087 3.04-8.047 0.039-11.155a1.0001 1.0001 0 0 0 -0.682 -0.3141 1.0001 1.0001 0 0 0 -0.097 0zm-7.8637 2.0641a1.0001 1.0001 0 0 0 -0.6836 0.309c-1.9074 1.948-1.8931 5.096 0.0313 7.027a1.0001 1.0001 0 1 0 1.416 -1.41c-1.1675-1.171-1.1748-3.035-0.0176-4.217a1.0001 1.0001 0 0 0 -0.7461 -1.709zm5.6757 0a1.0001 1.0001 0 0 0 -0.644 1.709c1.157 1.182 1.149 3.046-0.018 4.217a1.0001 1.0001 0 1 0 1.416 1.41c1.924-1.931 1.939-5.079 0.031-7.027a1.0001 1.0001 0 0 0 -0.683 -0.309 1.0001 1.0001 0 0 0 -0.102 0zm-2.787 1.807a2 2 0 0 0 -2 2 2 2 0 0 0 2 2 2 2 0 0 0 2 -2 2 2 0 0 0 -2 -2z" transform="translate(0 1028.4)"/>
 </g>
</svg>
