<?xml version="1.0" encoding="UTF-8" standalone="no"?>
<!-- Created with Inkscape (http://www.inkscape.org/) -->

<svg
   xmlns:dc="http://purl.org/dc/elements/1.1/"
   xmlns:cc="http://creativecommons.org/ns#"
   xmlns:rdf="http://www.w3.org/1999/02/22-rdf-syntax-ns#"
   xmlns:svg="http://www.w3.org/2000/svg"
   xmlns="http://www.w3.org/2000/svg"
   xmlns:sodipodi="http://sodipodi.sourceforge.net/DTD/sodipodi-0.dtd"
   xmlns:inkscape="http://www.inkscape.org/namespaces/inkscape"
   width="24"
   height="24"
   viewBox="0 0 6.3499999 6.3500002"
   id="svg2"
   version="1.1"
   inkscape:version="0.91+devel r"
   sodipodi:docname="redshift-status-on.svg"
   inkscape:export-filename="/home/francisco/.local/share/sni-qt/icons/edb2de513ea9f0779804343d19513ffa.png"
   inkscape:export-xdpi="96"
   inkscape:export-ydpi="96">
  <defs
     id="defs4" />
  <sodipodi:namedview
     id="base"
     pagecolor="#000000"
     bordercolor="#666666"
     borderopacity="1"
     inkscape:pageopacity="0"
     inkscape:pageshadow="2"
     inkscape:zoom="16"
     inkscape:cx="-3.4244867"
     inkscape:cy="11.218852"
     inkscape:document-units="mm"
     inkscape:current-layer="layer1"
     showgrid="false"
     units="px"
     inkscape:window-width="1920"
     inkscape:window-height="1025"
     inkscape:window-x="0"
     inkscape:window-y="30"
     inkscape:window-maximized="1"
     showguides="false" />
  <metadata
     id="metadata7">
    <rdf:RDF>
      <cc:Work
         rdf:about="">
        <dc:format>image/svg+xml</dc:format>
        <dc:type
           rdf:resource="http://purl.org/dc/dcmitype/StillImage" />
        <dc:title />
      </cc:Work>
    </rdf:RDF>
  </metadata>
  <g
     inkscape:label="Calque 1"
     inkscape:groupmode="layer"
     id="layer1"
     transform="translate(0,-290.64998)">
    <path
       style="color:#000000;font-style:normal;font-variant:normal;font-weight:normal;font-stretch:normal;font-size:medium;line-height:normal;font-family:sans-serif;text-indent:0;text-align:start;text-decoration:none;text-decoration-line:none;text-decoration-style:solid;text-decoration-color:#000000;letter-spacing:normal;word-spacing:normal;text-transform:none;direction:ltr;block-progression:tb;writing-mode:lr-tb;baseline-shift:baseline;text-anchor:start;white-space:normal;shape-padding:0;clip-rule:nonzero;display:inline;overflow:visible;visibility:visible;opacity:1;isolation:auto;mix-blend-mode:normal;color-interpolation:sRGB;color-interpolation-filters:linearRGB;solid-color:#000000;solid-opacity:1;fill:#ffffff;fill-opacity:1;fill-rule:evenodd;stroke:none;stroke-width:0.5291667;stroke-linecap:round;stroke-linejoin:miter;stroke-miterlimit:4;stroke-dasharray:none;stroke-dashoffset:0;stroke-opacity:1;color-rendering:auto;image-rendering:auto;shape-rendering:auto;text-rendering:auto;enable-background:accumulate"
       d="m 2.8867188,295.54688 a 0.26499792,0.26499792 0 0 0 0.027344,0.52929 l 0.5214844,0 a 0.264645,0.264645 0 0 0 0,-0.52929 l -0.5214844,0 a 0.26460981,0.26460981 0 0 0 -0.027344,0 z"
       id="path4229"
       inkscape:connector-curvature="0" />
    <path
       style="color:#000000;font-style:normal;font-variant:normal;font-weight:normal;font-stretch:normal;font-size:medium;line-height:normal;font-family:sans-serif;text-indent:0;text-align:start;text-decoration:none;text-decoration-line:none;text-decoration-style:solid;text-decoration-color:#000000;letter-spacing:normal;word-spacing:normal;text-transform:none;direction:ltr;block-progression:tb;writing-mode:lr-tb;baseline-shift:baseline;text-anchor:start;white-space:normal;shape-padding:0;clip-rule:nonzero;display:inline;overflow:visible;visibility:visible;opacity:1;isolation:auto;mix-blend-mode:normal;color-interpolation:sRGB;color-interpolation-filters:linearRGB;solid-color:#000000;solid-opacity:1;fill:#ffffff;fill-opacity:1;fill-rule:nonzero;stroke:none;stroke-width:0.5291667;stroke-linecap:butt;stroke-linejoin:miter;stroke-miterlimit:4;stroke-dasharray:none;stroke-dashoffset:0;stroke-opacity:1;color-rendering:auto;image-rendering:auto;shape-rendering:auto;text-rendering:auto;enable-background:accumulate"
       d="m 3.175,291.57423 c -0.9045842,0 -1.6407264,0.74698 -1.6407267,1.65778 0,0.2277 0.046381,0.44657 0.1291913,0.64492 0.082815,0.19836 0.2033029,0.37707 0.3513995,0.5271 -0.026722,-0.0271 0.00446,0.009 0.027389,0.0682 0.022926,0.0589 0.04906,0.14036 0.078031,0.22479 0.028971,0.0844 0.059499,0.17198 0.1033529,0.25786 0.043854,0.0859 0.091669,0.18851 0.2402954,0.25218 0.2809777,0.12037 0.5510402,0.0605 0.7110676,0.0605 0.1600277,0 0.4280231,0.0599 0.7090008,-0.0605 0.2097638,-0.1143 0.2709736,-0.31501 0.3457152,-0.51004 0.028971,-0.0844 0.055106,-0.16586 0.078031,-0.22479 0.022926,-0.0589 0.054108,-0.0952 0.027389,-0.0682 0.1480966,-0.15003 0.2685847,-0.32874 0.3513998,-0.5271 0.08281,-0.19835 0.1291911,-0.41722 0.129191,-0.64492 0,-0.9108 -0.7361417,-1.65778 -1.6407268,-1.65778 z m -0.5038452,1.59939 c 0.1493573,-0.003 0.2715149,0.11831 0.2697509,0.26768 0,0.0845 0.043621,0.16089 0.1167889,0.20309 0.073168,0.0422 0.161443,0.0422 0.2346111,0 0.073167,-0.0422 0.1173054,-0.11859 0.1173054,-0.20309 0.00765,-0.34504 0.5215112,-0.34504 0.5291667,0 0,0.27269 -0.1446977,0.52563 -0.3808553,0.66198 -0.038332,0.0221 -0.078518,0.0393 -0.1193726,0.0543 l 0,0.58054 -0.5270997,0 0,-0.58054 c -0.040855,-0.0149 -0.08104,-0.0321 -0.1193726,-0.0543 -0.2361573,-0.13635 -0.3808553,-0.38929 -0.3808553,-0.66198 -0.00172,-0.14553 0.1144178,-0.26512 0.2599325,-0.26768 z"
       id="path4231"
       inkscape:connector-curvature="0"
       sodipodi:nodetypes="sssccccssccccsssccsccccccccccc" />
  </g>
</svg>
