<?xml version="1.0" encoding="UTF-8" standalone="no"?>
<!-- Created with Inkscape (http://www.inkscape.org/) -->

<svg
   xmlns:dc="http://purl.org/dc/elements/1.1/"
   xmlns:cc="http://creativecommons.org/ns#"
   xmlns:rdf="http://www.w3.org/1999/02/22-rdf-syntax-ns#"
   xmlns:svg="http://www.w3.org/2000/svg"
   xmlns="http://www.w3.org/2000/svg"
   xmlns:sodipodi="http://sodipodi.sourceforge.net/DTD/sodipodi-0.dtd"
   xmlns:inkscape="http://www.inkscape.org/namespaces/inkscape"
   width="24"
   height="24"
   viewBox="0 0 6.3499999 6.3500002"
   id="svg2"
   version="1.1"
   inkscape:version="0.91+devel r"
   sodipodi:docname="redshift-status-off.svg"
   inkscape:export-filename="/home/francisco/.local/share/sni-qt/icons/edb2de513ea9f0779804343d19513ffa.png"
   inkscape:export-xdpi="96"
   inkscape:export-ydpi="96">
  <defs
     id="defs4" />
  <sodipodi:namedview
     id="base"
     pagecolor="#000000"
     bordercolor="#666666"
     borderopacity="1"
     inkscape:pageopacity="0"
     inkscape:pageshadow="2"
     inkscape:zoom="8"
     inkscape:cx="-38.983742"
     inkscape:cy="-0.91792336"
     inkscape:document-units="mm"
     inkscape:current-layer="layer1"
     showgrid="false"
     units="px"
     inkscape:window-width="1920"
     inkscape:window-height="1025"
     inkscape:window-x="0"
     inkscape:window-y="30"
     inkscape:window-maximized="1"
     showguides="true"
     inkscape:guide-bbox="true" />
  <metadata
     id="metadata7">
    <rdf:RDF>
      <cc:Work
         rdf:about="">
        <dc:format>image/svg+xml</dc:format>
        <dc:type
           rdf:resource="http://purl.org/dc/dcmitype/StillImage" />
        <dc:title />
      </cc:Work>
    </rdf:RDF>
  </metadata>
  <g
     inkscape:label="Calque 1"
     inkscape:groupmode="layer"
     id="layer1"
     transform="translate(0,-290.64998)">
    <path
       style="color:#000000;font-style:normal;font-variant:normal;font-weight:normal;font-stretch:normal;font-size:medium;line-height:normal;font-family:sans-serif;text-indent:0;text-align:start;text-decoration:none;text-decoration-line:none;text-decoration-style:solid;text-decoration-color:#000000;letter-spacing:normal;word-spacing:normal;text-transform:none;direction:ltr;block-progression:tb;writing-mode:lr-tb;baseline-shift:baseline;text-anchor:start;white-space:normal;shape-padding:0;clip-rule:nonzero;display:inline;overflow:visible;visibility:visible;opacity:1;isolation:auto;mix-blend-mode:normal;color-interpolation:sRGB;color-interpolation-filters:linearRGB;solid-color:#000000;solid-opacity:1;fill:#ffffff;fill-opacity:1;fill-rule:evenodd;stroke:none;stroke-width:0.5291667;stroke-linecap:round;stroke-linejoin:miter;stroke-miterlimit:4;stroke-dasharray:none;stroke-dashoffset:0;stroke-opacity:1;color-rendering:auto;image-rendering:auto;shape-rendering:auto;text-rendering:auto;enable-background:accumulate"
       d="m 2.8886719,295.54688 a 0.26494933,0.26494933 0 0 0 0.025391,0.52929 l 0.5214844,0 a 0.264645,0.264645 0 0 0 0,-0.52929 l -0.5214844,0 a 0.26460981,0.26460981 0 0 0 -0.025391,0 z"
       id="path3334"
       inkscape:connector-curvature="0" />
    <path
       style="color:#000000;font-style:normal;font-variant:normal;font-weight:normal;font-stretch:normal;font-size:medium;line-height:normal;font-family:sans-serif;text-indent:0;text-align:start;text-decoration:none;text-decoration-line:none;text-decoration-style:solid;text-decoration-color:#000000;letter-spacing:normal;word-spacing:normal;text-transform:none;direction:ltr;block-progression:tb;writing-mode:lr-tb;baseline-shift:baseline;text-anchor:start;white-space:normal;shape-padding:0;clip-rule:nonzero;display:inline;overflow:visible;visibility:visible;opacity:1;isolation:auto;mix-blend-mode:normal;color-interpolation:sRGB;color-interpolation-filters:linearRGB;solid-color:#000000;solid-opacity:1;fill:#ffffff;fill-opacity:1;fill-rule:nonzero;stroke:none;stroke-width:0.5291667;stroke-linecap:butt;stroke-linejoin:miter;stroke-miterlimit:4;stroke-dasharray:none;stroke-dashoffset:0;stroke-opacity:1;color-rendering:auto;image-rendering:auto;shape-rendering:auto;text-rendering:auto;enable-background:accumulate"
       d="m 3.1757812,291.57422 c -0.9045843,0 -1.6406249,0.7474 -1.640625,1.6582 10e-8,0.2277 0.046096,0.44618 0.1289063,0.64453 0.082815,0.19836 0.2015127,0.37732 0.3496094,0.52735 -0.026722,-0.0271 0.00637,0.009 0.029297,0.0684 0.022925,0.0589 0.049154,0.14018 0.078125,0.22461 0.028971,0.0844 0.059662,0.17193 0.1035156,0.25781 0.043854,0.0859 0.091608,0.18828 0.2402344,0.25195 0.2809777,0.12037 0.55091,0.0606 0.7109374,0.0606 0.1600276,0 0.4280067,0.0598 0.7089844,-0.0606 0.1486064,-0.0637 0.1963818,-0.16607 0.2402344,-0.25195 0.043853,-0.0859 0.076498,-0.17339 0.1054688,-0.25781 0.028971,-0.0844 0.053247,-0.16568 0.076172,-0.22461 0.022925,-0.0589 0.056017,-0.0954 0.029297,-0.0684 0.1480967,-0.15003 0.2687474,-0.32899 0.3515625,-0.52735 0.08281,-0.19835 0.1269531,-0.41683 0.1269531,-0.64453 0,-0.9108 -0.7340875,-1.6582 -1.6386719,-1.6582 z m 0,0.5293 c 0.6148679,0 1.109375,0.5004 1.109375,1.1289 0,0.15712 -0.02953,0.30434 -0.085937,0.43946 -0.056403,0.13509 -0.1393951,0.25722 -0.2402344,0.35937 -0.088953,0.0901 -0.112702,0.16817 -0.1445313,0.25 -0.031829,0.0818 -0.059305,0.16653 -0.085937,0.24414 -0.026632,0.0776 -0.05329,0.14847 -0.074219,0.18945 -0.020928,0.041 -0.044834,0.0343 0.021484,0.006 -0.048173,0.0206 -0.2801643,0.0176 -0.5,0.0176 -0.2198355,0 -0.4537805,0.003 -0.5019531,-0.0176 0.066339,0.0284 0.042412,0.0351 0.021484,-0.006 -0.020927,-0.041 -0.047586,-0.11184 -0.074219,-0.18945 -0.026632,-0.0776 -0.054108,-0.16231 -0.085938,-0.24414 -0.031829,-0.0818 -0.055575,-0.15988 -0.1445312,-0.25 -0.1008392,-0.10215 -0.1818779,-0.22428 -0.2382812,-0.35937 -0.056408,-0.13512 -0.087891,-0.28234 -0.087891,-0.43946 0,-0.6285 0.4964603,-1.1289 1.1113281,-1.1289 z"
       id="path4154"
       inkscape:connector-curvature="0" />
    <path
       style="color:#000000;font-style:normal;font-variant:normal;font-weight:normal;font-stretch:normal;font-size:medium;line-height:normal;font-family:sans-serif;text-indent:0;text-align:start;text-decoration:none;text-decoration-line:none;text-decoration-style:solid;text-decoration-color:#000000;letter-spacing:normal;word-spacing:normal;text-transform:none;direction:ltr;block-progression:tb;writing-mode:lr-tb;baseline-shift:baseline;text-anchor:start;white-space:normal;shape-padding:0;clip-rule:nonzero;display:inline;overflow:visible;visibility:visible;opacity:1;isolation:auto;mix-blend-mode:normal;color-interpolation:sRGB;color-interpolation-filters:linearRGB;solid-color:#000000;solid-opacity:1;fill:#ffffff;fill-opacity:1;fill-rule:evenodd;stroke:none;stroke-width:0.5291667;stroke-linecap:butt;stroke-linejoin:miter;stroke-miterlimit:4;stroke-dasharray:none;stroke-dashoffset:0;stroke-opacity:1;color-rendering:auto;image-rendering:auto;shape-rendering:auto;text-rendering:auto;enable-background:accumulate"
       d="m 2.9101562,293.93359 0,1.14258 0.5292969,0 0,-1.14258 -0.5292969,0 z"
       id="path4157"
       inkscape:connector-curvature="0" />
    <path
       style="color:#000000;font-style:normal;font-variant:normal;font-weight:normal;font-stretch:normal;font-size:medium;line-height:normal;font-family:sans-serif;text-indent:0;text-align:start;text-decoration:none;text-decoration-line:none;text-decoration-style:solid;text-decoration-color:#000000;letter-spacing:normal;word-spacing:normal;text-transform:none;direction:ltr;block-progression:tb;writing-mode:lr-tb;baseline-shift:baseline;text-anchor:start;white-space:normal;shape-padding:0;clip-rule:nonzero;display:inline;overflow:visible;visibility:visible;opacity:1;isolation:auto;mix-blend-mode:normal;color-interpolation:sRGB;color-interpolation-filters:linearRGB;solid-color:#000000;solid-opacity:1;fill:#ffffff;fill-opacity:1;fill-rule:nonzero;stroke:none;stroke-width:0.52916664;stroke-linecap:round;stroke-linejoin:miter;stroke-miterlimit:4;stroke-dasharray:none;stroke-dashoffset:0;stroke-opacity:1;color-rendering:auto;image-rendering:auto;shape-rendering:auto;text-rendering:auto;enable-background:accumulate"
       d="m 2.671875,293.17383 a 0.26460978,0.26460978 0 0 0 -0.2617188,0.26758 c 0,0.27269 0.1466549,0.52576 0.3828126,0.66211 0.2361576,0.13634 0.5275141,0.13634 0.7636718,0 0.2361577,-0.13635 0.3828125,-0.38942 0.3828125,-0.66211 a 0.26464845,0.26464845 0 1 0 -0.5292969,0 c 1e-7,0.0845 -0.04402,0.16088 -0.1171874,0.20312 -0.073168,0.0422 -0.1631605,0.0422 -0.2363282,0 -0.073168,-0.0422 -0.1171875,-0.11864 -0.1171875,-0.20312 A 0.26460978,0.26460978 0 0 0 2.671875,293.17383 Z"
       id="path4195"
       inkscape:connector-curvature="0" />
  </g>
</svg>
