<?xml version="1.0" encoding="UTF-8" standalone="no"?>
<!-- Created with Inkscape (http://www.inkscape.org/) -->

<svg
   xmlns:dc="http://purl.org/dc/elements/1.1/"
   xmlns:cc="http://creativecommons.org/ns#"
   xmlns:rdf="http://www.w3.org/1999/02/22-rdf-syntax-ns#"
   xmlns:svg="http://www.w3.org/2000/svg"
   xmlns="http://www.w3.org/2000/svg"
   xmlns:sodipodi="http://sodipodi.sourceforge.net/DTD/sodipodi-0.dtd"
   xmlns:inkscape="http://www.inkscape.org/namespaces/inkscape"
   width="24"
   height="24"
   viewBox="0 0 6.3499999 6.3500002"
   id="svg2"
   version="1.1"
   inkscape:version="0.91+devel r"
   sodipodi:docname="redshift-status-off.svg"
   inkscape:export-filename="/home/francisco/.local/share/sni-qt/icons/edb2de513ea9f0779804343d19513ffa.png"
   inkscape:export-xdpi="96"
   inkscape:export-ydpi="96">
  <defs
     id="defs4" />
  <sodipodi:namedview
     id="base"
     pagecolor="#000000"
     bordercolor="#666666"
     borderopacity="1"
     inkscape:pageopacity="0"
     inkscape:pageshadow="2"
     inkscape:zoom="1"
     inkscape:cx="12"
     inkscape:cy="12"
     inkscape:document-units="mm"
     inkscape:current-layer="layer1"
     showgrid="false"
     units="px"
     inkscape:window-width="1920"
     inkscape:window-height="1025"
     inkscape:window-x="0"
     inkscape:window-y="30"
     inkscape:window-maximized="1"
     showguides="true"
     inkscape:guide-bbox="true" />
  <metadata
     id="metadata7">
    <rdf:RDF>
      <cc:Work
         rdf:about="">
        <dc:format>image/svg+xml</dc:format>
        <dc:type
           rdf:resource="http://purl.org/dc/dcmitype/StillImage" />
        <dc:title />
      </cc:Work>
    </rdf:RDF>
  </metadata>
  <g
     inkscape:label="Calque 1"
     inkscape:groupmode="layer"
     id="layer1"
     transform="translate(0,-290.64998)">
    <g
       id="g4187"
       transform="translate(5.283024,3.9996066e-5)">
      <path
         style="color:#000000;font-style:normal;font-variant:normal;font-weight:normal;font-stretch:normal;font-size:medium;line-height:normal;font-family:sans-serif;text-indent:0;text-align:start;text-decoration:none;text-decoration-line:none;text-decoration-style:solid;text-decoration-color:#000000;letter-spacing:normal;word-spacing:normal;text-transform:none;direction:ltr;block-progression:tb;writing-mode:lr-tb;baseline-shift:baseline;text-anchor:start;white-space:normal;shape-padding:0;clip-rule:nonzero;display:inline;overflow:visible;visibility:visible;opacity:1;isolation:auto;mix-blend-mode:normal;color-interpolation:sRGB;color-interpolation-filters:linearRGB;solid-color:#000000;solid-opacity:1;fill:#ffffff;fill-opacity:1;fill-rule:nonzero;stroke:none;stroke-width:0.52899998;stroke-linecap:butt;stroke-linejoin:round;stroke-miterlimit:4;stroke-dasharray:none;stroke-dashoffset:0;stroke-opacity:1;color-rendering:auto;image-rendering:auto;shape-rendering:auto;text-rendering:auto;enable-background:accumulate"
         d="m -2.1074219,291.57422 c -0.8735741,0 -1.5878929,0.71236 -1.5878906,1.58594 1.159e-4,0.57041 0.2834763,1.11458 0.7988281,1.39453 l -0.1367187,-0.23242 0,0.1582 c 7.4e-6,0.47089 0.4461159,0.79297 0.9257812,0.79297 0.4796123,0 0.9257739,-0.322 0.9257813,-0.79297 l 0,-0.1582 -0.1386719,0.23242 c 0.51580964,-0.27961 0.79824641,-0.82256 0.79882812,-1.39258 a 0.26452644,0.26452644 0 0 0 0,-0.002 c 2.25e-6,-0.87357 -0.71236302,-1.58594 -1.58593752,-1.58594 z m 0,0.52734 c 0.5876823,0 1.0585953,0.4709 1.0585938,1.0586 -4.079e-4,0.39972 -0.1867162,0.74715 -0.5234375,0.92968 a 0.26452644,0.26452644 0 0 0 -0.1386719,0.23243 l 0,0.1582 c -1.8e-6,0.11353 -0.1454764,0.26367 -0.3964844,0.26367 -0.2509548,0 -0.3984357,-0.15006 -0.3984375,-0.26367 l 0,-0.1582 a 0.26452644,0.26452644 0 0 0 -0.1367187,-0.23243 c -0.3367078,-0.1829 -0.5233564,-0.53044 -0.5234375,-0.92968 -1.6e-6,-0.58769 0.4709119,-1.0586 1.0585937,-1.0586 z"
         id="path4181"
         inkscape:connector-curvature="0" />
      <path
         sodipodi:nodetypes="cccccccccccscc"
         inkscape:connector-curvature="0"
         id="path4183"
         d="m -2.6110658,293.01448 c -0.1461235,0.002 -0.2631908,0.12156 -0.2614829,0.26769 0,0.27269 0.1467646,0.52562 0.3829225,0.66197 0.037706,0.0218 0.076717,0.0389 0.1167886,0.0537 l 0,1.07757 0.5296834,0 0,-1.07757 c 0.039955,-0.0148 0.079187,-0.032 0.116789,-0.0537 0.2361575,-0.13635 0.3829221,-0.38928 0.3829221,-0.66197 -0.00765,-0.34504 -0.5215112,-0.34504 -0.5291666,0 2e-7,0.0845 -0.044138,0.16085 -0.1173054,0.20309 -0.073168,0.0422 -0.1629937,0.0422 -0.2361613,0 -0.073168,-0.0422 -0.1173056,-0.11861 -0.1173056,-0.20309 0.00175,-0.14855 -0.1191329,-0.26942 -0.2676838,-0.26769 z"
         style="color:#000000;font-style:normal;font-variant:normal;font-weight:normal;font-stretch:normal;font-size:medium;line-height:normal;font-family:sans-serif;text-indent:0;text-align:start;text-decoration:none;text-decoration-line:none;text-decoration-style:solid;text-decoration-color:#000000;letter-spacing:normal;word-spacing:normal;text-transform:none;direction:ltr;block-progression:tb;writing-mode:lr-tb;baseline-shift:baseline;text-anchor:start;white-space:normal;shape-padding:0;clip-rule:nonzero;display:inline;overflow:visible;visibility:visible;opacity:1;isolation:auto;mix-blend-mode:normal;color-interpolation:sRGB;color-interpolation-filters:linearRGB;solid-color:#000000;solid-opacity:1;fill:#ffffff;fill-opacity:1;fill-rule:evenodd;stroke:none;stroke-width:0.5291667;stroke-linecap:butt;stroke-linejoin:miter;stroke-miterlimit:4;stroke-dasharray:none;stroke-dashoffset:0;stroke-opacity:1;color-rendering:auto;image-rendering:auto;shape-rendering:auto;text-rendering:auto;enable-background:accumulate" />
      <path
         style="opacity:1;fill:#ffffff;fill-opacity:1;stroke:none;stroke-width:0.52899998;stroke-linecap:butt;stroke-linejoin:miter;stroke-miterlimit:4;stroke-dasharray:none;stroke-opacity:1"
         d="m -2.6371716,295.5452 a 0.52916663,0.52916669 0 0 0 0,0.002 0.52916663,0.52916669 0 0 0 0.529166,0.52916 0.52916663,0.52916669 0 0 0 0.529167,-0.52916 0.52916663,0.52916669 0 0 0 0,-0.002 l -1.058333,0 z"
         id="path4185"
         inkscape:connector-curvature="0" />
    </g>
  </g>
</svg>
