<?xml version="1.0" encoding="UTF-8" standalone="no"?>
<!-- Created with Inkscape (http://www.inkscape.org/) -->

<svg
   xmlns:dc="http://purl.org/dc/elements/1.1/"
   xmlns:cc="http://creativecommons.org/ns#"
   xmlns:rdf="http://www.w3.org/1999/02/22-rdf-syntax-ns#"
   xmlns:svg="http://www.w3.org/2000/svg"
   xmlns="http://www.w3.org/2000/svg"
   xmlns:sodipodi="http://sodipodi.sourceforge.net/DTD/sodipodi-0.dtd"
   xmlns:inkscape="http://www.inkscape.org/namespaces/inkscape"
   width="24"
   height="24"
   viewBox="0 0 6.3499999 6.3500002"
   id="svg2"
   version="1.1"
   inkscape:version="0.91+devel r"
   sodipodi:docname="redshift-status-on.svg"
   inkscape:export-filename="/home/francisco/.local/share/sni-qt/icons/edb2de513ea9f0779804343d19513ffa.png"
   inkscape:export-xdpi="96"
   inkscape:export-ydpi="96">
  <defs
     id="defs4" />
  <sodipodi:namedview
     id="base"
     pagecolor="#000000"
     bordercolor="#666666"
     borderopacity="1"
     inkscape:pageopacity="0"
     inkscape:pageshadow="2"
     inkscape:zoom="1"
     inkscape:cx="12"
     inkscape:cy="12"
     inkscape:document-units="mm"
     inkscape:current-layer="layer1"
     showgrid="false"
     units="px"
     inkscape:window-width="1920"
     inkscape:window-height="1025"
     inkscape:window-x="0"
     inkscape:window-y="30"
     inkscape:window-maximized="1"
     showguides="false" />
  <metadata
     id="metadata7">
    <rdf:RDF>
      <cc:Work
         rdf:about="">
        <dc:format>image/svg+xml</dc:format>
        <dc:type
           rdf:resource="http://purl.org/dc/dcmitype/StillImage" />
        <dc:title />
      </cc:Work>
    </rdf:RDF>
  </metadata>
  <g
     inkscape:label="Calque 1"
     inkscape:groupmode="layer"
     id="layer1"
     transform="translate(0,-290.64998)">
    <g
       id="g4176"
       transform="translate(5.8536479,-0.67818956)">
      <path
         sodipodi:nodetypes="sccccsccccsccsccccccsccccc"
         inkscape:connector-curvature="0"
         id="path4181"
         transform="matrix(0.26458333,0,0,0.26458333,0,290.64998)"
         d="m -10.128906,6.0546875 c -3.301698,0 -5.992196,2.7002712 -5.992188,6.0019535 3.97e-4,1.950762 0.884287,3.811576 2.494141,4.933593 l 0,0 0,0.04883 c 2.8e-5,1.779742 1.685138,2.996094 3.498047,2.996094 1.8127077,0 3.5077843,-1.216012 3.5078122,-2.996094 l 0,-0.05469 0,0 c 1.6104016,-1.120337 2.4921515,-2.978469 2.4941407,-4.927734 8.7e-6,-3.3016445 -2.7002543,-6.0019535 -6.0019529,-6.0019535 z M -12.025391,11.5 c 0.561453,-0.0065 1.018333,0.45027 1.011719,1.011719 0,0.319294 0.166819,0.608082 0.44336,0.767578 0.276537,0.159496 0.6160372,0.159496 0.8925776,0 0.2765382,-0.159647 0.4433602,-0.448208 0.4433594,-0.767578 0.028934,-1.304088 1.9710866,-1.304088 2,0 0,1.030639 -0.5547018,1.986614 -1.4472656,2.501953 -0.1421178,0.08202 -0.2903953,0.147188 -0.4414063,0.203125 l 0,2.539062 c -0.252529,0.164218 -0.5836194,0.28711 -1.0058591,0.28711 -0.420032,0 -0.745509,-0.122308 -0.996094,-0.285157 l 0,-2.541015 c -0.151452,-0.05594 -0.298895,-0.120731 -0.441406,-0.203125 -0.892566,-0.515339 -1.447266,-1.471314 -1.447266,-2.501953 -0.0065,-0.552303 0.436004,-1.00416 0.988281,-1.011719 z"
         style="color:#000000;font-style:normal;font-variant:normal;font-weight:normal;font-stretch:normal;font-size:medium;line-height:normal;font-family:sans-serif;text-indent:0;text-align:start;text-decoration:none;text-decoration-line:none;text-decoration-style:solid;text-decoration-color:#000000;letter-spacing:normal;word-spacing:normal;text-transform:none;direction:ltr;block-progression:tb;writing-mode:lr-tb;baseline-shift:baseline;text-anchor:start;white-space:normal;shape-padding:0;clip-rule:nonzero;display:inline;overflow:visible;visibility:visible;opacity:1;isolation:auto;mix-blend-mode:normal;color-interpolation:sRGB;color-interpolation-filters:linearRGB;solid-color:#000000;solid-opacity:1;fill:#ffffff;fill-opacity:1;fill-rule:nonzero;stroke:none;stroke-width:1.99936998;stroke-linecap:butt;stroke-linejoin:round;stroke-miterlimit:4;stroke-dasharray:none;stroke-dashoffset:0;stroke-opacity:1;color-rendering:auto;image-rendering:auto;shape-rendering:auto;text-rendering:auto;enable-background:accumulate" />
      <path
         style="opacity:1;fill:#ffffff;fill-opacity:1;stroke:none;stroke-width:0.52899998;stroke-linecap:butt;stroke-linejoin:miter;stroke-miterlimit:4;stroke-dasharray:none;stroke-opacity:1"
         d="m -3.2080539,296.22323 a 0.52916663,0.52916669 0 0 0 0,0.002 0.52916663,0.52916669 0 0 0 0.529166,0.52916 0.52916663,0.52916669 0 0 0 0.529167,-0.52916 0.52916663,0.52916669 0 0 0 0,-0.002 l -1.058333,0 z"
         id="path4185"
         inkscape:connector-curvature="0" />
    </g>
  </g>
</svg>
