<?xml version="1.0" encoding="UTF-8" standalone="no"?>
<svg xmlns:rdf="http://www.w3.org/1999/02/22-rdf-syntax-ns#" xmlns="http://www.w3.org/2000/svg" height="24" width="24" version="1.1" xmlns:cc="http://creativecommons.org/ns#" xmlns:dc="http://purl.org/dc/elements/1.1/" viewBox="0 0 24 24">
 <g transform="translate(0 -1028.4)">
  <path style="color-rendering:auto;text-decoration-color:#000000;color:#000000;isolation:auto;mix-blend-mode:normal;shape-rendering:auto;solid-color:#000000;block-progression:tb;text-decoration-line:none;text-decoration-style:solid;image-rendering:auto;white-space:normal;text-indent:0;text-transform:none" d="m15.49 8c-0.118 0.6951-0.307 1.368-0.576 2h3.086v5h-8v-0.168c-0.6224 0.254-1.2793 0.436-1.9609 0.545 0.1806 0.915 0.9992 1.623 1.9609 1.623h8c1.091 0 2-0.909 2-2v-5c0-1.0907-0.909-2-2-2h-2.51zm-5.092 1.8477l-0.15 0.1523h0.018c0.046-0.0487 0.087-0.1023 0.132-0.1523zm-0.398 0.3983l-0.084 0.086c0.0275-0.025 0.0569-0.047 0.084-0.072v-0.014z" transform="translate(0 1028.4)" fill="#fff"/>
  <path d="m12.5 1046.4c-0.277 0-0.5 0.223-0.5 0.5v0.5h-1.5c-0.277 0-0.5 0.223-0.5 0.5s0.223 0.5 0.5 0.5h2 3 2c0.277 0 0.5-0.223 0.5-0.5s-0.223-0.5-0.5-0.5h-1.5v-0.5c0-0.277-0.223-0.5-0.5-0.5h-3z" fill="#fff"/>
  <path d="m13.456 1033.2a0.50005 0.50005 0 0 0 -0.35547 0.1465l-7.9531 7.9531a0.50005 0.50005 0 0 0 0.27148 0.8477c0.33717 0.056 0.73435 0.173 1.207 0.1738 4.1405 0 7.4988-3.3558 7.5-7.4961-0.002-0.4734-0.12296-0.8668-0.17969-1.2031a0.50005 0.50005 0 0 0 -0.49023 -0.418z" fill="#fff"/>
  <path stroke-linejoin="round" fill="none" stroke="#fff" stroke-linecap="round" stroke-width="1.5" d="m7.474 1036.7a2 2 0 0 1 0.94786 -0.9121"/>
  <path stroke-linejoin="round" fill="none" stroke="#fff" stroke-linecap="round" stroke-width="1.5" d="m4.8654 1038.1a4 4 0 0 1 1.0536 -3.7801 4 4 0 0 1 3.7782 -1.0603"/>
  <rect rx=".5" ry=".5" height="1" width="9" y="1047.4" x="9" fill="none"/>
 </g>
</svg>
