<?xml version="1.0" encoding="UTF-8" standalone="no"?>
<svg xmlns:rdf="http://www.w3.org/1999/02/22-rdf-syntax-ns#" xmlns="http://www.w3.org/2000/svg" height="24" width="24" version="1.1" xmlns:cc="http://creativecommons.org/ns#" xmlns:dc="http://purl.org/dc/elements/1.1/" viewBox="0 0 24 24">
 <g transform="translate(0 -1028.4)">
  <path d="m6 4c-1.1046 0-2 0.8954-2 2 0 4 1 7 4.0215 9.975 2.9305 2.885 5.9785 4.025 9.9785 4.025 1.105 0 2-0.895 2-2v-2.746c0.13-0.519-0.171-1.048-0.684-1.201l-3-1c-0.094-0.034-0.193-0.054-0.293-0.059v0.002c-0.303-0.011-0.596 0.116-0.794 0.346-0.75 0.897-1.499 1.794-2.249 2.691-1.979-1.033-3.8372-3.161-5.0132-5.021 0 0 1.0716-0.9 1.9277-1.6175a4 4 0 0 1 -1.8945 -3.3945 4 4 0 0 1 0.541 -2h-2.541z" transform="translate(0 1028.4)" fill="#fff"/>
  <path opacity="0.99" style="color:#000000" d="m14.015 1034.4a2 2 0 0 1 -4 0 2 2 0 1 1 4 0z" fill="#009dff"/>
 </g>
</svg>
