<?xml version="1.0" encoding="UTF-8" standalone="no"?>
<svg xmlns:rdf="http://www.w3.org/1999/02/22-rdf-syntax-ns#" xmlns="http://www.w3.org/2000/svg" height="24" width="24" version="1.1" xmlns:cc="http://creativecommons.org/ns#" xmlns:dc="http://purl.org/dc/elements/1.1/" viewBox="0 0 24 24">
 <g transform="translate(0 -1028.4)">
  <path d="m8.959 3.9883c-0.0406 0.0014-0.081 0.0053-0.1211 0.0117h-2.8379c-1.1046 0-2 0.8954-2 2 0 4 1 7 4.0215 9.975 2.9305 2.885 5.9785 4.025 9.9785 4.025 1.1046 0 2-0.89543 2-2v-2.7461c0.12994-0.51876-0.17123-1.048-0.68359-1.2012l-3-1c-0.09417-0.03409-0.19293-0.05384-0.29297-0.05859v0.002c-0.30374-0.01155-0.59625 0.11566-0.79492 0.3457-0.74965 0.89685-1.4988 1.7942-2.248 2.6914-1.9798-1.0332-3.8377-3.1616-5.0137-5.0215 0 0 1.7359-1.4698 2.6895-2.2578 0.30395-0.26459 0.41944-0.68574 0.29297-1.0684l-1-3c-0.1356-0.4284-0.5407-0.7137-0.99-0.6971z" transform="translate(0 1028.4)" fill="#fff"/>
 </g>
</svg>
