<?xml version="1.0" encoding="UTF-8" standalone="no"?>
<svg xmlns:rdf="http://www.w3.org/1999/02/22-rdf-syntax-ns#" xmlns="http://www.w3.org/2000/svg" height="24" width="24" version="1.1" xmlns:cc="http://creativecommons.org/ns#" xmlns:dc="http://purl.org/dc/elements/1.1/" viewBox="0 0 24 24">
<g transform="translate(0 -1028.4)" fill="#fff">
<path d="m14.5 1035.4c-2.2208 0-4.1069 1.6268-4.4414 3.8223-0.55606-0.5269-1.2926-0.8211-2.0586-0.8223-1.6569 0-3 1.3431-3 3 0.00109 0.3436 0.061206 0.6845 0.17773 1.0078-0.0591-0.01-0.1184-0.01-0.17773-0.01-1.1046 0-2 0.8954-2 2s0.89543 2 2 2h1.0449c0.37118-0.1026 0.64896-0.2035 0.9668-0.4785 0.33976-0.2941 3.4977-5.5059 6.377-5.5059 1.5268 0.0006 3.0074 0.749 3.5254 2.8008 0.04577 0.1923 0.1078 0.5655 0.08594 0.6836 0 0.8284-0.67157 1.5-1.5 1.5s-1.5-0.6716-1.5-1.5c-0.000084-0.8201 0.65849-1.4883 1.4785-1.5-0.46843-0.2977-1.0396-0.4729-1.4746-0.4766-1.181-0.01-1.917 1.0235-2.0215 1.9473-0.1034 0.9143 0.1956 1.9765 2.0098 2.5293h4.5078c1.3807 0 2.5-1.1193 2.5-2.5-0.00046-1.2903-0.98284-2.3683-2.2676-2.4883 0.17512-0.4848 0.26564-0.9962 0.26758-1.5117 0-2.4853-2.0147-4.5-4.5-4.5z"/>
<path d="m8 1033.4a3 3 0 0 0 -3 3v0.2715a2 2 0 0 0 -1 -0.2715 2 2 0 0 0 -2 2h-0.5a0.5 0.5 0 0 0 -0.5 0.5 0.5 0.5 0 0 0 0.5 0.5h0.77148 2.2891c0.69631-1.1875 1.9728-2 3.4395-2h0.00195c0.53313 0.0008 1.0499 0.1179 1.5332 0.3203 0.32866-0.7459 0.80826-1.4056 1.3984-1.9375a3 3 0 0 0 -2.934 -2.4z"/>
</g>
</svg>
