<?xml version="1.0" encoding="UTF-8" standalone="no"?>
<svg xmlns:rdf="http://www.w3.org/1999/02/22-rdf-syntax-ns#" xmlns="http://www.w3.org/2000/svg" height="24" width="24" version="1.1" xmlns:cc="http://creativecommons.org/ns#" xmlns:dc="http://purl.org/dc/elements/1.1/" viewBox="0 0 24 24">
 <g transform="translate(0 -1028.4)" fill="#fff">
  <path opacity=".4" style="color:#000000" d="m8.6882 1040.8c-1.3375-0.9052-2.3715-1.9096-2.6488-2.5733-0.12822-0.3069-0.16295-1.1514-0.070885-1.7235 0.18128-1.1266 0.89015-2.2585 1.8404-2.9388 0.093891-0.067 0.17776-0.1222 0.18638-0.1222s0.025723 0.394 0.038008 0.8756c0.05255 2.0595 0.30013 3.6716 0.92364 6.0138 0.11062 0.4155 0.19677 0.7596 0.19146 0.7645-0.00534 0-0.2124-0.1284-0.46019-0.2961z"/>
  <path style="color:#000000" d="m9.7668 1037.4c0.010784-0.1755 0.027805-0.4913 0.037913-0.7021 0.050158-1.0462 0.24042-2.4833 0.43258-3.2675 0.20186-0.8235 0.35198-1.1365 0.67866-1.4145 1.0219-0.8701 2.4395-1.3073 5.2475-1.5758 0.94553-0.09 3.5472-0.1086 3.8446 0 0.05649 0.02-0.14143-0.1166-0.50835 0.067-1.815 0.9054-3.7048 2.0906-5.6121 3.52-1.484 1.1121-2.7201 2.1947-3.7774 3.3083l-0.36298 0.3822 0.019556-0.3192z"/>
  <path style="color:#000000" d="m19.759 1037.9c-0.25294-0.082-1.2551-0.3129-1.8007-0.4158-1.321-0.249-2.5945-0.3633-4.3842-0.3937l-1.2679-0.022 0.39522-0.35c0.97501-0.8638 2.0797-1.575 2.8147-1.812 0.36119-0.1166 0.46028-0.1281 0.76089-0.087 0.58188 0.078 1.2114 0.2938 1.6956 0.5801 0.86968 0.5139 1.6043 1.3945 1.9844 2.3782 0.07811 0.2021 0.06839 0.2082-0.19814 0.1223z"/>
  <path style="color:#000000" d="m18.226 1045c-0.02468-0.097-0.14034-0.4451-0.25704-0.7752-0.62736-1.7741-1.4415-3.3887-2.6614-5.2781-0.24543-0.3801-0.42846-0.6953-0.40674-0.7003 0.05932-0.014 1.0156 0.2728 1.49 0.4463 0.53116 0.1943 1.4813 0.6591 1.784 0.8727 0.42984 0.3034 0.58369 0.4657 0.72247 0.7617 0.30295 0.646 0.44098 1.2566 0.44004 1.9468-0.0011 0.8282-0.23466 1.6599-0.66752 2.3777-0.14438 0.2393-0.35014 0.5234-0.37909 0.5234-0.01092 0-0.0401-0.079-0.06478-0.175z"/>
  <path style="color:#000000" d="m12.317 1048.2c0.14976-0.2184 0.66559-1.121 0.94928-1.6611 0.63406-1.2072 1.2307-2.7278 1.7393-4.433 0.12309-0.4128 0.23595-0.7878 0.25081-0.8337 0.02433-0.076 0.042-0.052 0.17709 0.2335 0.6769 1.4289 1.0734 2.8585 1.0125 3.6504-0.01788 0.2322-0.0431 0.3116-0.20106 0.6335-0.31982 0.6516-0.83252 1.271-1.3823 1.6702-0.30412 0.2208-0.83499 0.4913-1.2351 0.6296-0.37253 0.1288-0.98228 0.2522-1.2453 0.2522h-0.1625l0.09722-0.1416z"/>
  <path style="color:#000000" d="m8.5389 1047.1c-0.59728-0.1079-1.3296-0.4249-1.8612-0.8063-0.28953-0.2077-0.78346-0.6556-0.75536-0.6852 0.00994-0.012 0.12998-0.036 0.26676-0.055 1.7268-0.2588 3.2447-0.6629 4.9536-1.3191 0.58444-0.2245 1.8187-0.7457 2.0547-0.8678 0.05446-0.029 0.10688-0.043 0.11648-0.034 0.03097 0.032-0.67948 1.4259-0.92769 1.8216-0.46924 0.7478-0.94654 1.324-1.325 1.5996-0.35653 0.2598-1.0002 0.4028-1.7891 0.398-0.25676 0-0.58672-0.024-0.73325-0.051z"/>
  <path opacity=".4" style="color:#000000" d="m6.8712 1043.7c-0.43974-0.049-0.57335-0.094-0.88811-0.305-1.1278-0.7543-1.8177-1.9409-1.9639-3.3779-0.038547-0.379-0.015529-1.003 0.038217-1.0363 0.016489-0.012 0.11615 0.061 0.22147 0.1605 0.28919 0.2706 0.90314 0.772 1.4253 1.1639 1.1791 0.8853 2.5633 1.7149 4.2015 2.518 0.38514 0.1887 0.6905 0.3437 0.67858 0.3441-0.01191 0.0005-0.2145 0.054-0.45017 0.1189-1.1744 0.3234-2.5273 0.495-3.2629 0.4138z"/>
 </g>
</svg>
