<?xml version="1.0" encoding="UTF-8" standalone="no"?>
<svg xmlns:rdf="http://www.w3.org/1999/02/22-rdf-syntax-ns#" xmlns="http://www.w3.org/2000/svg" height="24" width="24" version="1.1" xmlns:cc="http://creativecommons.org/ns#" xmlns:xlink="http://www.w3.org/1999/xlink" viewBox="0 0 6.3499999 6.3500002" xmlns:dc="http://purl.org/dc/elements/1.1/">
 <g transform="translate(0 -290.65)" fill="#fff">
  <path opacity=".4" d="m11.5 5a5.5 5.5 0 0 0 -5.5 5.5 5.5 5.5 0 0 0 0.2148 1.512 3 3 0 0 0 -0.2148 -0.012 3 3 0 0 0 -3 3 3 3 0 0 0 3 3h6.004v-4.002a1.0001 1.0001 0 0 1 0.996 -0.996h2.996a1.0001 1.0001 0 0 1 0.502 0.133 1.0001 1.0001 0 0 1 0.502 -0.133h2.998a1.0001 1.0001 0 0 1 0.996 0.887 4 4 0 0 0 -3.994 -3.889 4 4 0 0 0 -0.027 0 5.5 5.5 0 0 0 -5.473 -5zm2.504 10.002v2.998h0.996v-2.998h-0.996zm3.992 0v2.867a4 4 0 0 0 1.006 -0.41v-2.457h-1.006z" transform="matrix(.26458 0 0 .26458 -2.5233e-7 290.65)"/>
  <path style="image-rendering:optimizeQuality;shape-rendering:geometricPrecision" d="m3.4396 294.35v1.5875h0.79376v-1.5875h-0.79376zm1.0583 0v1.5875h0.79376v-1.5875h-0.79376z" clip-rule="evenodd"/>
 </g>
</svg>
