<?xml version="1.0" encoding="UTF-8" standalone="no"?>
<svg xmlns:rdf="http://www.w3.org/1999/02/22-rdf-syntax-ns#" xmlns="http://www.w3.org/2000/svg" height="24" width="24" version="1.1" xmlns:cc="http://creativecommons.org/ns#" xmlns:dc="http://purl.org/dc/elements/1.1/" viewBox="0 0 24 24">
 <g transform="translate(0 -1028.4)">
  <path style="color-rendering:auto;text-decoration-color:#000000;color:#000000;isolation:auto;mix-blend-mode:normal;shape-rendering:auto;solid-color:#000000;block-progression:tb;text-decoration-line:none;text-decoration-style:solid;image-rendering:auto;white-space:normal;text-indent:0;text-transform:none" d="m11 1031.4v1.0703c-3.2659 0.4116-5.921 2.8035-6.7324 5.9297h2.082c0.81914-2.3342 3.028-4 5.6504-4s4.8312 1.6658 5.6504 4h2.082c-0.812-3.2-3.467-5.6-6.733-6v-1.0703h-2zm1 4c-2.7496 0-5 2.2504-5 5 0 0.3424 0.03516 0.6765 0.10156 1h2.0801 0.81836 4.8184c-0.40954 1.1671-1.5033 2-2.8184 2-0.89227 0-1.6768-0.3889-2.2207-1h-2.3535c0.77607 1.7604 2.5356 3 4.5742 3 2.7496 0 5-2.2504 5-5 0-0.3424-0.03516-0.6765-0.10156-1h-2.0801-0.81836-4.8184c0.40905-1.1681 1.5027-2 2.8184-2 0.89272 0 1.6769 0.3889 2.2207 1h2.3535c-0.77607-1.7604-2.5356-3-4.5742-3zm-7.7305 7c0.81173 3.1257 3.4653 5.5179 6.7305 5.9297v1.0703h2v-1.0703c3.2652-0.4118 5.9187-2.804 6.7305-5.9297h-2.0801c-0.81964 2.3337-3.0286 4-5.6504 4s-4.8307-1.6663-5.6504-4h-2.0801z" fill="#fff"/>
 </g>
</svg>
