<?xml version="1.0" encoding="UTF-8" standalone="no"?>
<svg xmlns:rdf="http://www.w3.org/1999/02/22-rdf-syntax-ns#" xmlns="http://www.w3.org/2000/svg" height="24" width="24" version="1.1" xmlns:cc="http://creativecommons.org/ns#" xmlns:dc="http://purl.org/dc/elements/1.1/" viewBox="0 0 24 24">
 <g opacity=".99" transform="translate(0 -1028.4)">
  <path opacity="1" d="m6 4c-0.554 0-1 0.446-1 1-0.554 0-1 0.446-1 1v1c-0.554 0-1 0.446-1 1v1 1 8c0 1.108 0.892 2 2 2h14c1.108 0 2-0.892 2-2v-8-1-1c0-0.554-0.446-1-1-1v-1c0-0.554-0.446-1-1-1h-4-1-1c0-0.554-0.446-1-1-1h-6zm0 1h6v1h1 2 4v1h-14v-1h1v-1zm6 3.9395l2 1.9995v-0.939h1v1.939l1.531 1.532-1.062 1.06-0.469-0.469v2.938h-2v-3h-2v3h-2v-2.938l-0.4688 0.469-1.0624-1.06 4.5312-4.5315z" transform="translate(0 1028.4)" fill="#fff"/>
 </g>
</svg>
