<?xml version="1.0" encoding="UTF-8" standalone="no"?>
<svg xmlns:rdf="http://www.w3.org/1999/02/22-rdf-syntax-ns#" xmlns="http://www.w3.org/2000/svg" height="24" width="24" version="1.1" xmlns:cc="http://creativecommons.org/ns#" xmlns:dc="http://purl.org/dc/elements/1.1/" viewBox="0 0 24 24">
 <g transform="translate(0 -1028.4)">
  <path fill="#fff" d="m18.121 4.0078c-0.133-0.0118-0.267-0.0108-0.402 0.0059h-11.709c-1.1618-0.038-2.1336 1.0819-1.9983 2.2226 0.0068 3.9857-0.0122 7.9717 0.0117 11.957 0.0799 1.104 1.1788 1.927 2.2578 1.793 3.9708-0.01 7.9418 0.015 11.912-0.009 1.104-0.08 1.927-1.179 1.793-2.258-0.006-3.971 0.013-7.9422-0.011-11.912-0.07-0.9664-0.92-1.7162-1.854-1.7992zm-1.547 2.9981c1.13 0.0246 1.823 1.3845 1.18 2.3105-1.803 2.3176-3.624 4.6226-5.434 6.9356-0.428 0.72-1.458 0.992-2.154 0.492-0.9073-0.74-1.7913-1.51-2.6894-2.262-0.5886-0.554-1.4832-0.994-1.4746-1.921-0.0653-1.108 1.2952-1.91 2.2343-1.317 0.8779 0.669 1.6942 1.419 2.5467 2.121 1.37-1.746 2.738-3.492 4.108-5.238 0.406-0.5584 0.907-1.1961 1.683-1.1211z" transform="translate(0 1028.4)"/>
 </g>
</svg>
