<?xml version="1.0" encoding="UTF-8" standalone="no"?>
<svg xmlns:rdf="http://www.w3.org/1999/02/22-rdf-syntax-ns#" xmlns="http://www.w3.org/2000/svg" height="24" width="24" version="1.1" xmlns:cc="http://creativecommons.org/ns#" xmlns:xlink="http://www.w3.org/1999/xlink" xmlns:dc="http://purl.org/dc/elements/1.1/">
 <path d="m6 4c-0.554 0-1 0.446-1 1s0.446 1 1 1h5v2h2v-2h5c0.554 0 1-0.446 1-1s-0.446-1-1-1h-12zm7 4v1h3c0.56716 2.394 1.1939 4.9052 1.7188 7h-11.438c0.637-2.309 1.117-4.704 1.719-7h3v-1h-4c-0.4592-0.0002-0.8595 0.3123-0.9707 0.7578l-2 8c-0.0196 0.079-0.0295 0.16-0.0293 0.242v1 1c0 0.554 0.446 1 1 1h1 12 1c0.554 0 1-0.446 1-1v-1-1c0.000154-0.08162-0.0097-0.16296-0.0293-0.24219l-2-8c-0.112-0.4457-0.512-0.7582-0.971-0.758h-4zm-2 1v1 1h-2l3 4 3-4h-2v-1-1h-2z" fill="#fff"/>
</svg>
