<?xml version="1.0" encoding="UTF-8" standalone="no"?>
<svg xmlns:rdf="http://www.w3.org/1999/02/22-rdf-syntax-ns#" xmlns="http://www.w3.org/2000/svg" height="24" width="24" version="1.1" xmlns:cc="http://creativecommons.org/ns#" xmlns:dc="http://purl.org/dc/elements/1.1/" viewBox="0 0 24 24">
 <g transform="translate(0 -1028.4)">
  <path style="color-rendering:auto;text-decoration-color:#000000;color:#000000;isolation:auto;mix-blend-mode:normal;shape-rendering:auto;solid-color:#000000;block-progression:tb;text-decoration-line:none;text-decoration-style:solid;image-rendering:auto;white-space:normal;text-indent:0;text-transform:none" d="m8.0117 3.9844a1.0001 1.0001 0 0 0 -0.4922 0.1269 1.0001 1.0001 0 0 0 -0.0742 0.0449 1.0001 1.0001 0 0 0 -0.3926 0.4786l-3.8457 6.7322a1.0001 1.0001 0 0 0 -0.1367 1 1.0001 1.0001 0 0 0 0.043 0.092 1.0001 1.0001 0 0 0 0.0176 0.033l3.9257 6.871a1.0001 1.0001 0 0 0 0.793 0.621 1.0001 1.0001 0 0 0 0.0977 0.01 1.0001 1.0001 0 0 0 0.0527 0h8a1.0008 1.0008 0 0 0 0.012 0 1.0001 1.0001 0 0 0 0.023 0 1.0001 1.0001 0 0 0 0.076 0 1.0001 1.0001 0 0 0 0.834 -0.633l3.903-6.826a1.0008 1.0008 0 0 0 0.064 -0.119 1.0008 1.0008 0 0 0 0.004 -0.01 1.0001 1.0001 0 0 0 0.033 -0.086 1.0001 1.0001 0 0 0 -0.156 -0.953 1.0001 1.0001 0 0 0 -0.002 0l-1.518-2.6541a3 3 0 0 1 -1.273 0.2871 3 3 0 0 1 -0.959 -0.1602l1.807 3.1602-1.977 3.457-3.457-3.457 3.295-3.2949a3 3 0 0 1 -1.414 -1.4141l-3.295 3.295-3.8438-3.8438 0.4258-0.7422h6.418a3 3 0 0 1 0.771 -2.0039h-7.6226a1.0001 1.0001 0 0 0 -0.1367 -0.0117zm-0.8828 4.5586l3.4571 3.457-3.4571 3.457-1.9766-3.457 1.9766-3.457zm4.8711 4.871l3.844 3.844-0.424 0.742h-6.8399l-0.4239-0.742 3.8438-3.844z" fill-rule="evenodd" transform="translate(0 1028.4)" fill="#fff"/>
  <path opacity="0.99" style="color:#000000" d="m20 1034.4a2 2 0 0 1 -4 0 2 2 0 1 1 4 0z" fill="#009dff"/>
 </g>
</svg>
