<?xml version="1.0" encoding="UTF-8" standalone="no"?>
<svg xmlns:rdf="http://www.w3.org/1999/02/22-rdf-syntax-ns#" xmlns="http://www.w3.org/2000/svg" height="24" width="24" version="1.1" xmlns:cc="http://creativecommons.org/ns#" xmlns:dc="http://purl.org/dc/elements/1.1/" viewBox="0 0 24 24">
 <g transform="translate(0 -1028.4)">
  <path d="m10 4c-3.324 0-6 2.676-6 6v2c0 2.229 1.2055 4.16 3 5.195v2.303a0.50005 0.50005 0 0 0 0.8535 0.356l1.8672-1.868c0.0932 0.005 0.185 0.014 0.2793 0.014h4c3.324 0 6-2.676 6-6v-2c0-3.324-2.676-6-6-6h-4zm3.047 2c0.159 0 0.317 0.0142 0.474 0.0352 0.629 0.083 1.24 0.3153 1.774 0.6894 1.069 0.7483 1.705 1.9709 1.705 3.2754a0.50005 0.50005 0 1 1 -1 0c0-0.9793-0.477-1.8953-1.279-2.457-0.803-0.5617-1.826-0.6964-2.746-0.3614a0.50021 0.50021 0 1 1 -0.344 -0.9394c0.46-0.1672 0.939-0.2479 1.416-0.2422zm-4.0118 1.8457c0.2949 0.018 0.5663 0.1654 0.7402 0.4004 0.0772 0.1044 0.1353 0.2267 0.168 0.3613l0.2366 0.9707c0.13 0.5389-0.1982 1.0789-0.7366 1.2089l-0.752 0.182c0.8691 1.411 2.0106 2.486 3.3476 3.312l0.174-0.724c0.13-0.539 0.67-0.867 1.209-0.737l0.971 0.237c0.538 0.13 0.866 0.67 0.736 1.209l-0.236 0.97c-0.131 0.539-0.669 0.865-1.207 0.735-0.432-0.105-0.828-0.207-1.254-0.364-2.39-0.851-4.2934-2.8-5.059-5.08-0.1166-0.372-0.2429-0.7133-0.3437-1.2125-0.1306-0.5384 0.196-1.0765 0.7344-1.2071l0.9726-0.2344c0.101-0.024 0.2005-0.0333 0.2989-0.0273zm4.1078 0.1563v0.0039c0.355 0.026 0.703 0.147 1.003 0.3574 0.535 0.374 0.854 0.9847 0.854 1.6367a0.50005 0.50005 0 1 1 -1 0c0-0.3268-0.158-0.631-0.426-0.8184-0.267-0.1871-0.609-0.2329-0.916-0.1211a0.50005 0.50005 0 1 1 -0.342 -0.9394c0.154-0.056 0.311-0.0921 0.469-0.1094 0.119-0.013 0.239-0.0147 0.358-0.0097z" transform="translate(0 1028.4)" fill="#fff"/>
 </g>
</svg>
