<?xml version="1.0" encoding="UTF-8" standalone="no"?>
<svg xmlns:rdf="http://www.w3.org/1999/02/22-rdf-syntax-ns#" xmlns="http://www.w3.org/2000/svg" height="24" width="24" version="1.1" xmlns:cc="http://creativecommons.org/ns#" xmlns:dc="http://purl.org/dc/elements/1.1/" viewBox="0 0 24 24">
 <g transform="translate(0 -1028.4)">
  <path d="m10.75 1033.1-3.75 11.3" stroke="#fff" stroke-linecap="round" stroke-width="1.5" fill="none"/>
  <path d="m13.25 1033.1 3.75 11.25" stroke="#fff" stroke-linecap="round" stroke-width="1.5" fill="none"/>
  <path d="m11 1033.4h2" stroke="#fff" stroke-linecap="round" stroke-width="2" fill="none"/>
  <path d="m17 1044.4c-1.9709 2.7089-7.9696 2.6959-10 0" stroke="#fff" stroke-linecap="round" stroke-width="2" fill="none"/>
  <path style="color-rendering:auto;text-decoration-color:#000000;color:#000000;isolation:auto;mix-blend-mode:normal;shape-rendering:auto;solid-color:#000000;block-progression:tb;text-decoration-line:none;text-decoration-style:solid;image-rendering:auto;white-space:normal;text-indent:0;text-transform:none" d="m9.0528 1036.4-1.0508 4.3s0.998 1.6758 3.998 1.6758c2 0 3.998-1.6758 3.998-1.6758l-1.0508-4.3242s-0.94723 1-2.9472 1-2.9472-1-2.9472-1z" fill="#fff"/>
  <path stroke-linejoin="round" d="m7 1042.4h-1l-1 5h14l-1-5h-1v2.5l-2 1.5h-6l-2-1.5z" fill-rule="evenodd" stroke="#fff" stroke-width="2" fill="#fff"/>
 </g>
</svg>
