<?xml version="1.0" encoding="UTF-8" standalone="no"?>
<svg xmlns:rdf="http://www.w3.org/1999/02/22-rdf-syntax-ns#" xmlns="http://www.w3.org/2000/svg" height="24" width="24" version="1.1" xmlns:cc="http://creativecommons.org/ns#" xmlns:dc="http://purl.org/dc/elements/1.1/" viewBox="0 0 24 24">
 <g transform="translate(0 -1028.4)">
  <path d="m12 4a8 8 0 0 0 -8 8 8 8 0 0 0 8 8 8 8 0 0 0 8 -8 8 8 0 0 0 -8 -8zm-4.2715 4h0.5567c0.7335 0 1.381 0.3471 1.7988 0.752 0.418 0.4049 0.676 0.8476 0.908 1.2226 0.232 0.3754 0.439 0.6824 0.602 0.8394 0.162 0.158 0.211 0.186 0.406 0.186 0.293 0 0.381-0.092 0.684-0.523 0.302-0.432 0.606-1.1215 1.234-1.729 0.418-0.4036 1.065-0.748 1.797-0.748h0.556a1.0001 1.0001 0 1 1 0 2h-0.556c-0.195 0-0.244 0.031-0.406 0.188-0.244 0.235-0.549 0.813-0.987 1.437-0.087 0.124-0.198 0.252-0.312 0.379 0.286 0.332 0.512 0.672 0.697 0.971 0.232 0.375 0.439 0.682 0.602 0.839 0.162 0.158 0.211 0.186 0.406 0.186h0.556a1.0001 1.0001 0 1 1 0 2h-0.556c-0.734 0-1.381-0.345-1.799-0.75s-0.676-0.848-0.908-1.223-0.439-0.682-0.602-0.839c-0.162-0.158-0.211-0.188-0.406-0.188s-0.244 0.03-0.406 0.188c-0.163 0.157-0.37 0.464-0.602 0.839s-0.49 0.818-0.908 1.223c-0.4178 0.405-1.0653 0.75-1.7988 0.75h-0.5567a1.0001 1.0001 0 1 1 0 -2h0.5567c0.1951 0 0.2436-0.028 0.4062-0.186 0.1626-0.157 0.3694-0.464 0.6016-0.839 0.1858-0.3 0.4115-0.642 0.6992-0.975-0.2873-0.333-0.5135-0.673-0.6992-0.973-0.2322-0.375-0.439-0.682-0.6016-0.839-0.1626-0.158-0.2111-0.188-0.4062-0.188h-0.5567a1.0001 1.0001 0 1 1 0 -2z" transform="translate(0 1028.4)" fill="#fff"/>
 </g>
</svg>
