<?xml version="1.0" encoding="UTF-8" standalone="no"?>
<svg xmlns:rdf="http://www.w3.org/1999/02/22-rdf-syntax-ns#" xmlns="http://www.w3.org/2000/svg" height="24" width="24" version="1.1" xmlns:cc="http://creativecommons.org/ns#" xmlns:dc="http://purl.org/dc/elements/1.1/" viewBox="0 0 24 24">
 <g transform="translate(0 -1028.4)" fill="#fff">
  <path d="m4 1038.4v8 1c0 0.554 0.446 1 1 1h1 12 1c0.554 0 1-0.446 1-1v-1-8h-4-2-4-2-4z"/>
  <path d="m7 6l-3 3h3 2.4375 2.1675c-0.685-0.282-1.368-0.62-2.0464-1.0742a1.0001 1.0001 0 0 1 -0.0898 -0.0567 1.0001 1.0001 0 0 1 -0.0606 -0.0449 1.0001 1.0001 0 0 1 -0.2012 -0.2168 1.0001 1.0001 0 0 1 -0.0527 -0.0859 1.0001 1.0001 0 0 1 -0.043 -0.0899 1.0001 1.0001 0 0 1 -0.0293 -0.0781 1.0001 1.0001 0 0 1 -0.0078 -0.0254 1.0001 1.0001 0 0 1 -0.0137 -0.0488 1.0001 1.0001 0 0 1 -0.0117 -0.0469 1.0001 1.0001 0 0 1 -0.0078 -0.0644 1.0001 1.0001 0 0 1 -0.0039 -0.0352 1.0001 1.0001 0 0 1 -0.0059 -0.0898v-1.043h-1.0312-1z" fill-rule="evenodd" transform="translate(0 1028.4)"/>
  <path d="m20 1037.4c-3.3374 0.062-6.7087 0.2673-9.9684-1.9572v-3c2.4084 1.695 4.728 2.1924 6.9684 1.9572z" fill-rule="evenodd"/>
 </g>
</svg>
