<?xml version="1.0" encoding="UTF-8" standalone="no"?>
<svg xmlns:rdf="http://www.w3.org/1999/02/22-rdf-syntax-ns#" xmlns="http://www.w3.org/2000/svg" height="64px" width="64px" version="1.1" xmlns:cc="http://creativecommons.org/ns#" xmlns:xlink="http://www.w3.org/1999/xlink" xmlns:dc="http://purl.org/dc/elements/1.1/">
 <defs>
  <radialGradient id="d" gradientUnits="userSpaceOnUse" cy="43.5" cx="4.993" gradientTransform="matrix(2.0038 0 0 1.4 27.988 -17.4)" r="2.5">
   <stop stop-color="#181818" offset="0"/>
   <stop stop-color="#181818" stop-opacity="0" offset="1"/>
  </radialGradient>
  <radialGradient id="c" gradientUnits="userSpaceOnUse" cy="43.5" cx="4.993" gradientTransform="matrix(2.0038 0 0 1.4 -20.012 -104.4)" r="2.5">
   <stop stop-color="#181818" offset="0"/>
   <stop stop-color="#181818" stop-opacity="0" offset="1"/>
  </radialGradient>
  <linearGradient id="l" y2="39.999" gradientUnits="userSpaceOnUse" x2="25.058" y1="47.028" x1="25.058">
   <stop stop-color="#181818" stop-opacity="0" offset="0"/>
   <stop stop-color="#181818" offset=".5"/>
   <stop stop-color="#181818" stop-opacity="0" offset="1"/>
  </linearGradient>
  <linearGradient id="f" y2="4.8826" gradientUnits="userSpaceOnUse" y1="3.1234" gradientTransform="matrix(1.3485 0 0 2.0418 1.2848 -5.5183)" x2="24.64" x1="24.627">
   <stop stop-color="#eee" offset="0"/>
   <stop stop-color="#d9d9da" offset="1"/>
  </linearGradient>
  <linearGradient id="e" y2=".065302" gradientUnits="userSpaceOnUse" y1=".065302" gradientTransform="matrix(.96201 0 0 .99188 2.535 -.22364)" x2="54.887" x1="5.2123">
   <stop stop-color="#e58a00" offset="0"/>
   <stop stop-color="#c37500" offset="1"/>
  </linearGradient>
  <linearGradient id="h" y2="3" gradientUnits="userSpaceOnUse" x2="10.654" gradientTransform="matrix(1.4 0 0 1.25 -.60001 -.12504)" y1="1" x1="10.654">
   <stop stop-color="#eee" offset="0"/>
   <stop stop-color="#d9d9da" offset="1"/>
  </linearGradient>
  <linearGradient id="g" y2="3.899" gradientUnits="userSpaceOnUse" x2="24" gradientTransform="matrix(1.4 0 0 .12821 2.2004 -.076924)" y1="44" x1="24">
   <stop stop-color="#272727" offset="0"/>
   <stop stop-color="#454545" offset="1"/>
  </linearGradient>
  <radialGradient id="a" gradientUnits="userSpaceOnUse" cy="8.5565" cx="32.5" gradientTransform="matrix(0 2.8186 -3.3583 0 61.236 -87.537)" r="23.5">
   <stop stop-color="#f90" offset="0"/>
   <stop stop-color="#e58a00" offset="1"/>
  </radialGradient>
  <linearGradient id="i" y2="60.876" gradientUnits="userSpaceOnUse" x2="32.256" gradientTransform="matrix(.94825 0 0 .98895 2.1559 -.36586)" y1="4.6832" x1="32.256">
   <stop stop-color="#e58a00" offset="0"/>
   <stop stop-color="#c37500" offset="1"/>
  </linearGradient>
  <radialGradient id="b" gradientUnits="userSpaceOnUse" cy="8.4498" cx="7.4957" gradientTransform="matrix(2.72e-8 3.2958 -3.4612 -6.072e-8 65.046 -19.382)" r="20">
   <stop stop-color="#5f5f5f" offset="0"/>
   <stop stop-color="#4f4f4f" offset=".26238"/>
   <stop stop-color="#3b3b3b" offset=".70495"/>
   <stop stop-color="#2b2b2b" offset="1"/>
  </radialGradient>
  <linearGradient id="j" y2="3.899" gradientUnits="userSpaceOnUse" x2="24" gradientTransform="matrix(1.4 0 0 1.4103 2.2 -1.8462)" y1="44" x1="24">
   <stop stop-color="#272727" offset="0"/>
   <stop stop-color="#454545" offset="1"/>
  </linearGradient>
  <linearGradient id="k" y2="43" gradientUnits="userSpaceOnUse" x2="24" gradientTransform="matrix(1.2162 0 0 1.4324 2.8108 -2.3784)" y1="5" x1="24">
   <stop stop-color="#fff" offset="0"/>
   <stop stop-color="#fff" stop-opacity=".23529" offset=".027065"/>
   <stop stop-color="#fff" stop-opacity=".15686" offset=".97377"/>
   <stop stop-color="#fff" stop-opacity=".39216" offset="1"/>
  </linearGradient>
 </defs>
 <g transform="matrix(1.35 0 0 .55556 -0.4 35.889)">
  <g opacity=".4" transform="matrix(1.0526 0 0 1.2857 -1.2632 -13.429)">
   <rect height="7" width="5" y="40" x="38" fill="url(#d)"/>
   <rect transform="scale(-1)" height="7" width="5" y="-47" x="-10" fill="url(#c)"/>
   <rect height="7" width="28" y="40" x="10" fill="url(#l)"/>
  </g>
 </g>
 <path stroke-linejoin="round" d="m54.491 4.1158c-0.396-1.3159-0.149-2.3521-0.368-3.6071h-40.614l0.23971 3.9826" stroke="url(#e)" stroke-miterlimit="0" stroke-width="1.0174" fill="url(#f)"/>
 <path stroke-linejoin="round" style="color:#000000" d="m15.5 5.5h-5.6c-0.79919 0-1.4-0.05292-1.4-0.12195v-3.4955c0-1.1099 0.78264-1.3825 1.8073-1.3825h5.1927" stroke="url(#g)" stroke-linecap="round" fill="url(#h)"/>
 <rect stroke-linejoin="round" rx="1" ry="1" height="54.981" width="45.981" stroke="url(#i)" stroke-linecap="round" stroke-miterlimit="0" y="4.5095" x="9.5095" stroke-width="1.019" fill="url(#a)"/>
 <path stroke-linejoin="round" style="color:#000000" d="m15.5 4.5v55h-5.6c-0.7992 0-1.4-0.582-1.4-1.341v-53.659z" stroke="url(#j)" stroke-linecap="round" fill="url(#b)"/>
 <rect opacity=".5" stroke-linejoin="round" height="53" width="45" stroke="url(#k)" stroke-linecap="round" y="5.5" x="9.5" fill="none"/>
 <path opacity=".2" d="m35.899 17.083c-3.3222 0.1958-6.8399 1.6275-7.6228 5.7326-0.12859 0.52009 0.26279 0.71606 0.52292 0.783l3.6477 0.45598c0.3915-0.06718 0.58608-0.39151 0.65034-0.71868 0.32724-1.4318 1.4988-2.1476 2.802-2.2791h0.26146c0.78022 0 1.6275 0.32701 2.0847 0.97576 0.51883 0.78299 0.45581 1.826 0.45581 2.7377v0.52013c-0.84723 0.06708-1.8246 0.13159-2.802 0.26286-1.4974 0.19293-2.9964 0.45592-4.2337 1.0403-2.4105 0.97879-4.0396 3.0621-4.0396 6.1241 0 3.8451 2.4761 5.7971 5.6024 5.7971 1.0431 0 1.8904-0.1286 2.6707-0.32438 1.2388-0.3915 2.2807-1.1075 3.5179-2.4107 0.71731 0.97869 0.9116 1.4345 2.1504 2.4748 0.3259 0.13154 0.65157 0.13147 0.91162-0.06436 0.78155-0.65154 2.1491-1.8232 2.8677-2.4748 0.32447-0.2629 0.25877-0.6514 0.06446-0.97874-0.71731-0.91166-1.4331-1.6945-1.4331-3.4508v-5.8639c-0.00001-2.4777 0.19417-4.7566-1.6291-6.4485-1.4974-1.3703-3.8436-1.8905-5.6671-1.8905h-0.78282zm2.8022 11.205v0.78282c0 1.499 0.063 2.6706-0.71728 3.9711-0.45592 0.91167-1.2375 1.4988-2.0847 1.6946-0.13002 0-0.32433 0.06708-0.52013 0.06708-1.4331 0-2.2819-1.1073-2.2819-2.7377 0-2.0834 1.2389-3.062 2.802-3.5179 0.84724-0.1958 1.8246-0.26007 2.802-0.26007zm11.767 12.732c-0.72308 0.0049-1.5244 0.09625-2.2805 0.32176-0.56635 0.17898-1.0626 0.42501-1.5226 0.74385-0.35365 0.24912-0.28233 0.56487 0.07126 0.53131 0.38872-0.07263 0.88515-0.10622 1.4513-0.17897 1.2389-0.10336 2.6903-0.13991 3.0441 0.31879 0.4936 0.60098-0.5662 3.2212-1.0277 4.3538-0.13978 0.35508 0.17762 0.49773 0.49636 0.24888 1.593-1.345 2.265-3.786 2.3-5.061v-0.21235c0-0.28545-0.0701-0.49501-0.13982-0.6014-0.19938-0.2429-1.1873-0.4728-2.3925-0.46421zm-32.144 0.6769c-0.31446-0.0097-0.46541 0.342-0.14857 0.60106 4.565 4.1414 10.582 6.6191 17.307 6.6191 4.1763 0 8.9889-1.169 12.705-3.3976 0.49637-0.28537 0.98998-0.60398 1.4499-0.95637 0.63758-0.4587 0.07126-1.169-0.56626-0.88663-0.28224 0.10639-0.60116 0.24901-0.88366 0.35531-4.0716 1.5938-8.3514 2.3378-12.317 2.3378-6.3002 0-12.386-1.7366-17.307-4.6029-0.08624-0.04618-0.16757-0.06757-0.24014-0.06971z"/>
 <path d="m35.899 16.083c-3.3222 0.1958-6.8399 1.6275-7.6228 5.7326-0.12859 0.52009 0.26279 0.71606 0.52292 0.783l3.6477 0.45598c0.3915-0.06718 0.58608-0.39151 0.65034-0.71868 0.32724-1.4318 1.4988-2.1476 2.802-2.2791h0.26146c0.78022 0 1.6275 0.32701 2.0847 0.97576 0.51883 0.78299 0.45581 1.826 0.45581 2.7377v0.52013c-0.84723 0.06708-1.8246 0.13159-2.802 0.26286-1.4974 0.19293-2.9964 0.45592-4.2337 1.0403-2.4105 0.97879-4.0396 3.0621-4.0396 6.1241 0 3.8451 2.4761 5.7971 5.6024 5.7971 1.0431 0 1.8904-0.1286 2.6707-0.32438 1.2388-0.3915 2.2807-1.1075 3.5179-2.4107 0.71731 0.97869 0.9116 1.4345 2.1504 2.4748 0.3259 0.13154 0.65157 0.13147 0.91162-0.06436 0.78155-0.65154 2.1491-1.8232 2.8677-2.4748 0.32447-0.2629 0.25877-0.6514 0.06446-0.97874-0.71731-0.91166-1.4331-1.6945-1.4331-3.4508v-5.8639c-0.00001-2.4777 0.19417-4.7566-1.6291-6.4485-1.4974-1.3703-3.8436-1.8905-5.6671-1.8905h-0.78282zm2.8022 11.205v0.78282c0 1.499 0.063 2.6706-0.71728 3.9711-0.45592 0.91167-1.2375 1.4988-2.0847 1.6946-0.13002 0-0.32433 0.06708-0.52013 0.06708-1.4331 0-2.2819-1.1073-2.2819-2.7377 0-2.0834 1.2389-3.062 2.802-3.5179 0.84724-0.1958 1.8246-0.26007 2.802-0.26007zm11.767 12.732c-0.72308 0.0049-1.5244 0.09625-2.2805 0.32176-0.56635 0.17898-1.0626 0.42501-1.5226 0.74385-0.35365 0.24912-0.28233 0.56487 0.07126 0.53131 0.38872-0.07263 0.88515-0.10622 1.4513-0.17897 1.2389-0.10336 2.6903-0.13991 3.0441 0.31879 0.4936 0.60098-0.5662 3.2212-1.0277 4.3538-0.13978 0.35508 0.17762 0.49773 0.49636 0.24888 1.593-1.345 2.265-3.786 2.3-5.061v-0.21235c0-0.28545-0.0701-0.49501-0.13982-0.6014-0.19938-0.2429-1.1873-0.4728-2.3925-0.46421zm-32.144 0.6769c-0.31446-0.0097-0.46541 0.342-0.14857 0.60106 4.565 4.1414 10.582 6.6191 17.307 6.6191 4.1763 0 8.9889-1.169 12.705-3.3976 0.49637-0.28537 0.98998-0.60398 1.4499-0.95637 0.63758-0.4587 0.07126-1.169-0.56626-0.88663-0.28224 0.10639-0.60116 0.24901-0.88366 0.35531-4.0716 1.5938-8.3514 2.3378-12.317 2.3378-6.3002 0-12.386-1.7366-17.307-4.6029-0.08624-0.04618-0.16757-0.06757-0.24014-0.06971z" fill="#fff"/>
</svg>
