<?xml version="1.0" encoding="UTF-8" standalone="no"?>
<svg xmlns:rdf="http://www.w3.org/1999/02/22-rdf-syntax-ns#" xmlns="http://www.w3.org/2000/svg" height="64" width="64" version="1.1" xmlns:cc="http://creativecommons.org/ns#" xmlns:xlink="http://www.w3.org/1999/xlink" xmlns:dc="http://purl.org/dc/elements/1.1/">
 <defs>
  <linearGradient id="g" y2="2.9062" gradientUnits="userSpaceOnUse" x2="-51.786" gradientTransform="matrix(1.0844 0 0 1.1997 79.551 -4.1629)" y1="50.786" x1="-51.786">
   <stop stop-opacity=".31783" offset="0"/>
   <stop stop-opacity=".24031" offset="1"/>
  </linearGradient>
  <linearGradient id="f" y2="42.1" gradientUnits="userSpaceOnUse" x2="24" gradientTransform="matrix(1.2162 0 0 1.5405 2.8108 -6.973)" y1="5.8641" x1="24">
   <stop stop-color="#fff" offset="0"/>
   <stop stop-color="#fff" stop-opacity=".23529" offset=".012144"/>
   <stop stop-color="#fff" stop-opacity=".15686" offset=".98781"/>
   <stop stop-color="#fff" stop-opacity=".39216" offset="1"/>
  </linearGradient>
  <linearGradient id="e" y2="47.013" gradientUnits="userSpaceOnUse" x2="25.132" gradientTransform="matrix(1.3143 0 0 1.2602 .45721 -2.1793)" y1=".98521" x1="25.132">
   <stop stop-color="#f4f4f4" offset="0"/>
   <stop stop-color="#dbdbdb" offset="1"/>
  </linearGradient>
  <radialGradient id="c" xlink:href="#a" gradientUnits="userSpaceOnUse" cy="486.65" cx="605.71" gradientTransform="matrix(.031326 0 0 .020588 35.221 49.451)" r="117.14"/>
  <linearGradient id="a">
   <stop offset="0"/>
   <stop stop-opacity="0" offset="1"/>
  </linearGradient>
  <radialGradient id="b" xlink:href="#a" gradientUnits="userSpaceOnUse" cy="486.65" cx="605.71" gradientTransform="matrix(-.031326 0 0 .020588 28.779 49.451)" r="117.14"/>
  <linearGradient id="d" y2="609.51" gradientUnits="userSpaceOnUse" x2="302.86" gradientTransform="matrix(.091538 0 0 .020588 -1.0846 49.451)" y1="366.65" x1="302.86">
   <stop stop-opacity="0" offset="0"/>
   <stop offset=".5"/>
   <stop stop-opacity="0" offset="1"/>
  </linearGradient>
 </defs>
 <rect opacity=".3" height="5" width="44.2" y="57" x="9.9" fill="url(#d)"/>
 <path opacity=".3" d="m9.9 57v4.9997c-1.6132 0.01-3.9-1.1202-3.9-2.5002s1.8002-2.4995 3.9-2.4995z" fill="url(#b)"/>
 <path opacity=".3" d="m54.1 57v4.9997c1.613 0.01 3.9-1.12 3.9-2.5s-1.8002-2.4995-3.9-2.4995z" fill="url(#c)"/>
 <path d="m9 0.99988c10.541 0 46 0.004 46 0.004v57.996h-46v-58z" fill="url(#e)"/>
 <path d="m54.5 58.5h-45v-57h45z" stroke="url(#f)" stroke-linecap="round" fill="none"/>
 <path stroke-linejoin="round" d="m8.5 0.4999c10.77 0 47 0.004 47 0.004l0.000049 58.996h-47v-59z" stroke="url(#g)" stroke-width=".99992" fill="none"/>
 <path opacity=".4" style="image-rendering:optimizeQuality;shape-rendering:geometricPrecision" d="m26.334 16.275l-11.334 19.633 5.668 9.819h22.666l5.666-9.819-11.332-19.633h-11.334zm5.666 9.817l5.668 9.816h-11.334l5.666-9.816z" fill-rule="evenodd" clip-rule="evenodd" fill="#fff"/>
 <g fill-rule="evenodd" clip-rule="evenodd" transform="translate(1.017 .53006)">
  <polygon style="image-rendering:optimizeQuality;shape-rendering:geometricPrecision" transform="matrix(.00025534 0 0 .00025534 13.983 14.744)" class="fil0" points="1.3316e5 76894 1.1096e5 1.1534e5 22194 1.1534e5 44385 76894" fill="#3777e3"/>
  <polygon style="image-rendering:optimizeQuality;shape-rendering:geometricPrecision" transform="matrix(.00025534 0 0 .00025534 13.983 14.744)" class="fil1" points="88772 0 44385 0 88772 76894 1.3316e5 76894" fill="#ffcf63"/>
  <polygon style="image-rendering:optimizeQuality;shape-rendering:geometricPrecision" transform="matrix(.00025534 0 0 .00025534 13.983 14.744)" class="fil2" points="66578 38447 44385 0 0 76894 22194 1.1534e5" fill="#11a861"/>
  <polygon style="image-rendering:optimizeQuality;shape-rendering:geometricPrecision" transform="matrix(.00025534 0 0 .00025534 13.983 14.744)" class="fil0" points="1.3316e5 76894 1.1096e5 1.1534e5 22194 1.1534e5 44385 76894" fill="#3777e3"/>
  <polygon style="image-rendering:optimizeQuality;shape-rendering:geometricPrecision" transform="matrix(.00025534 0 0 .00025534 13.983 14.744)" class="fil1" points="88772 0 44385 0 88772 76894 1.3316e5 76894" fill="#ffcf63"/>
  <polygon style="image-rendering:optimizeQuality;shape-rendering:geometricPrecision" transform="matrix(.00025534 0 0 .00025534 13.983 14.744)" class="fil2" points="66578 38447 44385 0 0 76894 22194 1.1534e5" fill="#11a861"/>
 </g>
</svg>
