<?xml version="1.0" encoding="UTF-8" standalone="no"?>
<svg xmlns:rdf="http://www.w3.org/1999/02/22-rdf-syntax-ns#" xmlns="http://www.w3.org/2000/svg" height="64" width="64" version="1.1" xmlns:cc="http://creativecommons.org/ns#" xmlns:xlink="http://www.w3.org/1999/xlink" xmlns:dc="http://purl.org/dc/elements/1.1/">
 <defs>
  <linearGradient id="a">
   <stop offset="0"/>
   <stop stop-opacity="0" offset="1"/>
  </linearGradient>
  <linearGradient id="f" y2="2.9062" gradientUnits="userSpaceOnUse" x2="-51.786" gradientTransform="matrix(1.0844 0 0 1.1997 79.551 -4.1629)" y1="50.786" x1="-51.786">
   <stop stop-color="#1a6f44" offset="0"/>
   <stop stop-color="#1f8753" offset="1"/>
  </linearGradient>
  <radialGradient id="c" xlink:href="#a" gradientUnits="userSpaceOnUse" cy="486.65" cx="605.71" gradientTransform="matrix(.031326 0 0 .020588 35.221 49.451)" r="117.14"/>
  <radialGradient id="b" xlink:href="#a" gradientUnits="userSpaceOnUse" cy="486.65" cx="605.71" gradientTransform="matrix(-.031326 0 0 .020588 28.779 49.451)" r="117.14"/>
  <linearGradient id="e" y2="609.51" gradientUnits="userSpaceOnUse" x2="302.86" gradientTransform="matrix(.091538 0 0 .020588 -1.0846 49.451)" y1="366.65" x1="302.86">
   <stop stop-opacity="0" offset="0"/>
   <stop offset=".5"/>
   <stop stop-opacity="0" offset="1"/>
  </linearGradient>
  <radialGradient id="d" gradientUnits="userSpaceOnUse" cy="5.1519" cx="29.872" gradientTransform="matrix(3.4881e-8 4.5652 -4.3478 0 52.399 -147.37)" r="23">
   <stop stop-color="#4ad58e" offset="0"/>
   <stop stop-color="#2dc477" offset=".26238"/>
   <stop stop-color="#26a464" offset=".70495"/>
   <stop stop-color="#1d7d4c" offset="1"/>
  </radialGradient>
  <linearGradient id="g" y2="59" gradientUnits="userSpaceOnUse" x2="30" y1=".35593" x1="30">
   <stop stop-color="#fff" offset="0"/>
   <stop stop-color="#fff" stop-opacity=".23529" offset=".036262"/>
   <stop stop-color="#fff" stop-opacity=".15686" offset=".95056"/>
   <stop stop-color="#fff" stop-opacity=".39216" offset="1"/>
  </linearGradient>
  <clipPath id="h" clipPathUnits="userSpaceOnUse">
   <rect height="24" width="34" y="12" x="7" fill="#fff"/>
  </clipPath>
 </defs>
 <rect opacity=".3" height="5" width="44.2" y="57" x="9.9" fill="url(#e)"/>
 <path opacity=".3" d="m9.9 57v4.9997c-1.6132 0.01-3.9-1.1202-3.9-2.5002s1.8002-2.4995 3.9-2.4995z" fill="url(#b)"/>
 <path opacity=".3" d="m54.1 57v4.9997c1.613 0.01 3.9-1.12 3.9-2.5s-1.8002-2.4995-3.9-2.4995z" fill="url(#c)"/>
 <path d="m9 0.99988c10.541 0 46 0.004 46 0.004v57.996h-46v-58z" fill="url(#d)"/>
 <path d="m54.5 58.5h-45v-57h45z" stroke="url(#g)" stroke-linecap="round" fill="none"/>
 <path stroke-linejoin="round" d="m8.5 0.4999c10.77 0 47 0.004 47 0.004l0.000049 58.996h-47v-59z" stroke="url(#f)" stroke-width=".99992" fill="none"/>
 <path d="m6 35 11-11 7 7 20-20" clip-path="url(#h)" transform="matrix(1.3529 0 0 1.3529 -.47059 -2.3245)" stroke="#fff" stroke-width="2.2174" fill="none"/>
</svg>
