<?xml version="1.0" encoding="UTF-8" standalone="no"?>
<svg xmlns:rdf="http://www.w3.org/1999/02/22-rdf-syntax-ns#" xmlns="http://www.w3.org/2000/svg" height="64" width="64" version="1.1" xmlns:cc="http://creativecommons.org/ns#" xmlns:xlink="http://www.w3.org/1999/xlink" xmlns:dc="http://purl.org/dc/elements/1.1/">
 <defs>
  <radialGradient id="b" gradientUnits="userSpaceOnUse" cy="41.5" cx="5" gradientTransform="matrix(.53494 0 0 1.6 -7.8516 -121.4)" r="5">
   <stop offset="0"/>
   <stop stop-opacity="0" offset="1"/>
  </radialGradient>
  <linearGradient id="c" y2="35" gradientUnits="userSpaceOnUse" x2="17.554" gradientTransform="matrix(2.3255 0 0 1.4545 -22.729 -3.9092)" y1="46" x1="17.554">
   <stop stop-opacity="0" offset="0"/>
   <stop offset=".5"/>
   <stop stop-opacity="0" offset="1"/>
  </linearGradient>
  <radialGradient id="a" gradientUnits="userSpaceOnUse" cy="41.5" cx="5" gradientTransform="matrix(.53494 0 0 1.6 55.836 -121.4)" r="5">
   <stop offset="0"/>
   <stop stop-opacity="0" offset="1"/>
  </radialGradient>
  <linearGradient id="f" y2="37.277" gradientUnits="userSpaceOnUse" x2="24.997" gradientTransform="matrix(1.72 0 0 2.0749 -8.3274 -20.165)" y1="15.378" x1="24.823">
   <stop stop-color="#198ef0" offset="0"/>
   <stop stop-color="#0275c6" offset=".23942"/>
   <stop stop-color="#198ef0" offset=".27582"/>
   <stop stop-color="#0266ad" offset="1"/>
  </linearGradient>
  <linearGradient id="e" y2="45.042" gradientUnits="userSpaceOnUse" x2="15.464" gradientTransform="matrix(1.3414 0 0 1.3324 -.18472 .20813)" y1="7.9757" x1="15.464">
   <stop stop-color="#0275c6" offset="0"/>
   <stop stop-color="#014ea3" offset=".23942"/>
   <stop stop-color="#0270be" offset=".27582"/>
   <stop stop-color="#013f83" offset="1"/>
  </linearGradient>
  <linearGradient id="g" y2="45.934" gradientUnits="userSpaceOnUse" x2="43.007" gradientTransform="matrix(1.7096 0 0 1.5663 -8.2501 -6.9145)" y1="30.555" x1="23.452">
   <stop stop-color="#fff" stop-opacity="0" offset="0"/>
   <stop stop-color="#fff" stop-opacity="0" offset="1"/>
  </linearGradient>
  <linearGradient id="h" y2="43" gradientUnits="userSpaceOnUse" x2="24" gradientTransform="matrix(1.4324 0 0 .94595 -2.3784 18.297)" y1="5.5641" x1="24">
   <stop stop-color="#fff" offset="0"/>
   <stop stop-color="#fff" stop-opacity=".23529" offset=".036262"/>
   <stop stop-color="#fff" stop-opacity=".15686" offset=".95056"/>
   <stop stop-color="#fff" stop-opacity=".39216" offset="1"/>
  </linearGradient>
  <linearGradient id="d" y2="43" gradientUnits="userSpaceOnUse" x2="24" gradientTransform="matrix(1.4324 0 0 .29730 -2.3784 10.865)" y1="7.3473" x1="24">
   <stop stop-color="#fff" offset="0"/>
   <stop stop-color="#fff" stop-opacity=".23529" offset=".083894"/>
   <stop stop-color="#fff" stop-opacity=".15686" offset=".95056"/>
   <stop stop-color="#fff" stop-opacity=".39216" offset="1"/>
  </linearGradient>
 </defs>
 <rect opacity=".4" transform="scale(-1)" height="16" width="2.6667" y="-63" x="-5.1769" fill="url(#b)"/>
 <rect opacity=".4" height="16" width="53.487" y="47" x="5.1769" fill="url(#c)"/>
 <rect opacity=".4" transform="scale(1,-1)" height="16" width="2.6667" y="-63" x="58.51" fill="url(#a)"/>
 <path d="m11.902 11.533h39.569c2.3099 0 3.3494-0.38179 4.0129 1.3324l4.0266 10.659v34.207c0 2.0696 0.13807 1.7534-2.1718 1.7534h-50.659c-2.3099 0-2.1718 0.31621-2.1718-1.7534v-34.207l4.0266-10.659c0.64499-1.6795 1.058-1.3324 3.3679-1.3324z" display="block" stroke="url(#e)" stroke-linecap="round" stroke-width=".99420" fill="url(#f)"/>
 <path opacity=".50549" d="m13.108 12.84h36.871c2.1524 0 3.4845 0.74205 4.386 2.7814l3.1053 8.5596v30.859c0 1.9476-1.0917 2.9281-3.2441 2.9281h-44.978c-2.1524 0-3.0304-1.0784-3.0304-3.026v-30.762l3.0051-8.7432c0.60102-1.5805 1.7328-2.5979 3.8852-2.5979z" display="block" stroke="url(#g)" stroke-width=".74212" fill="none"/>
 <path opacity=".3" stroke-linejoin="round" d="m58.5 58.5h-53v-35h53z" stroke="url(#h)" stroke-linecap="round" fill="none"/>
 <path opacity=".2" stroke-linejoin="round" d="m5.5 23.5 4.4535-11h44.093l4.4535 11" stroke="url(#d)" stroke-linecap="round" fill="none"/>
 <g transform="translate(.000022294)">
  <g opacity=".05" stroke-linejoin="round" stroke="#000" stroke-width="2">
   <path d="m19.058 49.866-2.652-7.5061h2.1417l1.2421 4.2767q0.11414 0.38269 0.1947 0.79895 0.08728 0.40955 0.10742 0.73852h0.04028q0.02014-0.35584 0.10071-0.75195 0.08728-0.40283 0.20142-0.78552l1.2354-4.2767h2.1484l-2.652 7.5061h-2.1082z"/>
   <path d="m28.894 42.219q0.57739 0 1.0541 0.24841 0.47668 0.24841 0.81909 0.73852t0.5304 1.2152q0.1947 0.7251 0.1947 1.6785 0 0.9668-0.1947 1.6986-0.18799 0.7251-0.53711 1.2152-0.34912 0.49011-0.83923 0.73852-0.49 0.248-1.081 0.248-0.376 0-0.671-0.081-0.289-0.08-0.517-0.214-0.228-0.135-0.403-0.303-0.168-0.174-0.309-0.362h-0.14099l-0.34241 0.82581h-1.5643v-10.447h2.0477v2.4304q0 0.22156-0.01343 0.4834-0.01343 0.25513-0.02686 0.47668-0.02014 0.26184-0.04028 0.52368h0.08057q0.14099-0.23498 0.32227-0.4364 0.18127-0.20142 0.41626-0.34912 0.2417-0.15442 0.54382-0.2417t0.67139-0.08728zm-0.69153 1.6382q-0.34241 0-0.58411 0.12756-0.23499 0.12085-0.38269 0.36926t-0.21484 0.6311q-0.06714 0.37598-0.08057 0.87952v0.22156q0 0.54382 0.06043 0.9668 0.06714 0.42297 0.21484 0.71167 0.14771 0.28198 0.3894 0.42969 0.24841 0.1477 0.61096 0.1477 0.61096 0 0.89294-0.57739 0.2887-0.58411 0.2887-1.6919t-0.2887-1.6583q-0.28198-0.55725-0.90637-0.55725z"/>
   <path d="m34.95 46.099q0 1.1212 0.31555 1.6919 0.31555 0.56396 1.0272 0.56396 0.70496 0 1.0205-0.57068 0.31555-0.57068 0.31555-1.6852 0-1.1212-0.31555-1.6718-0.31555-0.55725-1.0339-0.55725-0.70496 0-1.0205 0.55725-0.30884 0.55054-0.30884 1.6718zm4.7668 0q0 0.93994-0.2417 1.665-0.23498 0.7251-0.68481 1.2219-0.44312 0.49683-1.0876 0.75867-0.638 0.255-1.437 0.255-0.74524 0-1.3696-0.25513-0.62439-0.26184-1.0809-0.75867-0.44983-0.49683-0.70496-1.2219-0.25513-0.7251-0.25513-1.665 0-0.93323 0.23498-1.6583 0.2417-0.7251 0.68482-1.2152 0.44983-0.49683 1.0876-0.75195 0.63782-0.25513 1.4435-0.25513 0.74524 0 1.3696 0.25513 0.62439 0.25513 1.0742 0.75195 0.45654 0.49011 0.71167 1.2152 0.25513 0.7251 0.25513 1.6583z"/>
   <path d="m42.758 46.032-2.417-3.6725h2.323l1.2488 2.2559 1.2689-2.2559h2.323l-2.4506 3.6725 2.558 3.8336h-2.323l-1.3763-2.4304-1.3763 2.4304h-2.323l2.5446-3.8336z"/>
  </g>
  <g opacity=".15">
   <path d="m19.058 49.866-2.652-7.5061h2.1417l1.2421 4.2767q0.11414 0.38269 0.1947 0.79895 0.08728 0.40955 0.10742 0.73852h0.04028q0.02014-0.35584 0.10071-0.75195 0.08728-0.40283 0.20142-0.78552l1.2354-4.2767h2.1484l-2.652 7.5061h-2.1082z"/>
   <path d="m28.894 42.219q0.57739 0 1.0541 0.24841 0.47668 0.24841 0.81909 0.73852t0.5304 1.2152q0.1947 0.7251 0.1947 1.6785 0 0.9668-0.1947 1.6986-0.18799 0.7251-0.53711 1.2152-0.34912 0.49011-0.83923 0.73852-0.49 0.248-1.081 0.248-0.376 0-0.671-0.081-0.289-0.08-0.517-0.214-0.228-0.135-0.403-0.303-0.168-0.174-0.309-0.362h-0.14099l-0.34241 0.82581h-1.5643v-10.447h2.0477v2.4304q0 0.22156-0.01343 0.4834-0.01343 0.25513-0.02686 0.47668-0.02014 0.26184-0.04028 0.52368h0.08057q0.14099-0.23498 0.32227-0.4364 0.18127-0.20142 0.41626-0.34912 0.2417-0.15442 0.54382-0.2417t0.67139-0.08728zm-0.69153 1.6382q-0.34241 0-0.58411 0.12756-0.23499 0.12085-0.38269 0.36926t-0.21484 0.6311q-0.06714 0.37598-0.08057 0.87952v0.22156q0 0.54382 0.06043 0.9668 0.06714 0.42297 0.21484 0.71167 0.14771 0.28198 0.3894 0.42969 0.24841 0.1477 0.61096 0.1477 0.61096 0 0.89294-0.57739 0.2887-0.58411 0.2887-1.6919t-0.2887-1.6583q-0.28198-0.55725-0.90637-0.55725z"/>
   <path d="m34.95 46.099q0 1.1212 0.31555 1.6919 0.31555 0.56396 1.0272 0.56396 0.70496 0 1.0205-0.57068 0.31555-0.57068 0.31555-1.6852 0-1.1212-0.31555-1.6718-0.31555-0.55725-1.0339-0.55725-0.70496 0-1.0205 0.55725-0.30884 0.55054-0.30884 1.6718zm4.7668 0q0 0.93994-0.2417 1.665-0.23498 0.7251-0.68481 1.2219-0.44312 0.49683-1.0876 0.75867-0.638 0.255-1.437 0.255-0.74524 0-1.3696-0.25513-0.62439-0.26184-1.0809-0.75867-0.44983-0.49683-0.70496-1.2219-0.25513-0.7251-0.25513-1.665 0-0.93323 0.23498-1.6583 0.2417-0.7251 0.68482-1.2152 0.44983-0.49683 1.0876-0.75195 0.63782-0.25513 1.4435-0.25513 0.74524 0 1.3696 0.25513 0.62439 0.25513 1.0742 0.75195 0.45654 0.49011 0.71167 1.2152 0.25513 0.7251 0.25513 1.6583z"/>
   <path d="m42.758 46.032-2.417-3.6725h2.323l1.2488 2.2559 1.2689-2.2559h2.323l-2.4506 3.6725 2.558 3.8336h-2.323l-1.3763-2.4304-1.3763 2.4304h-2.323l2.5446-3.8336z"/>
  </g>
  <g fill="#fff">
   <path d="m19.058 48.866-2.652-7.5061h2.1417l1.2421 4.2767q0.11414 0.38269 0.1947 0.79895 0.08728 0.40955 0.10742 0.73852h0.04028q0.02014-0.35584 0.10071-0.75195 0.08728-0.40283 0.20142-0.78552l1.2354-4.2767h2.1484l-2.652 7.5061h-2.1082z"/>
   <path d="m28.894 41.219q0.57739 0 1.0541 0.24841 0.47668 0.24841 0.81909 0.73852t0.5304 1.2152q0.1947 0.7251 0.1947 1.6785 0 0.9668-0.1947 1.6986-0.18799 0.7251-0.53711 1.2152-0.34912 0.49011-0.83923 0.73852-0.49 0.248-1.081 0.248-0.376 0-0.671-0.081-0.289-0.08-0.517-0.214-0.228-0.135-0.403-0.303-0.168-0.174-0.309-0.362h-0.14099l-0.34241 0.82581h-1.5643v-10.447h2.0477v2.4304q0 0.22156-0.01343 0.4834-0.01343 0.25513-0.02686 0.47668-0.02014 0.26184-0.04028 0.52368h0.08057q0.14099-0.23498 0.32227-0.4364 0.18127-0.20142 0.41626-0.34912 0.2417-0.15442 0.54382-0.2417t0.67139-0.08728zm-0.69153 1.6382q-0.34241 0-0.58411 0.12756-0.23499 0.12085-0.38269 0.36926t-0.21484 0.6311q-0.06714 0.37598-0.08057 0.87952v0.22156q0 0.54382 0.06043 0.9668 0.06714 0.42297 0.21484 0.71167 0.14771 0.28198 0.3894 0.42969 0.24841 0.1477 0.61096 0.1477 0.61096 0 0.89294-0.57739 0.2887-0.58411 0.2887-1.6919t-0.2887-1.6583q-0.28198-0.55725-0.90637-0.55725z"/>
   <path d="m34.95 45.099q0 1.1212 0.31555 1.6919 0.31555 0.56396 1.0272 0.56396 0.70496 0 1.0205-0.57068 0.31555-0.57068 0.31555-1.6852 0-1.1212-0.31555-1.6718-0.31555-0.55725-1.0339-0.55725-0.70496 0-1.0205 0.55725-0.30884 0.55054-0.30884 1.6718zm4.7668 0q0 0.93994-0.2417 1.665-0.23498 0.7251-0.68481 1.2219-0.44312 0.49683-1.0876 0.75867-0.638 0.255-1.437 0.255-0.74524 0-1.3696-0.25513-0.62439-0.26184-1.0809-0.75867-0.44983-0.49683-0.70496-1.2219-0.25513-0.7251-0.25513-1.665 0-0.93323 0.23498-1.6583 0.2417-0.7251 0.68482-1.2152 0.44983-0.49683 1.0876-0.75195 0.63782-0.25513 1.4435-0.25513 0.74524 0 1.3696 0.25513 0.62439 0.25513 1.0742 0.75195 0.45654 0.49011 0.71167 1.2152 0.25513 0.7251 0.25513 1.6583z"/>
   <path d="m42.758 45.032-2.417-3.6725h2.323l1.2488 2.2559 1.2689-2.2559h2.323l-2.4506 3.6725 2.558 3.8336h-2.323l-1.3763-2.4304-1.3763 2.4304h-2.323l2.5446-3.8336z"/>
  </g>
 </g>
</svg>
