<?xml version="1.0" encoding="UTF-8" standalone="no"?>
<svg xmlns:rdf="http://www.w3.org/1999/02/22-rdf-syntax-ns#" xmlns="http://www.w3.org/2000/svg" height="64" width="64" version="1.1" xmlns:cc="http://creativecommons.org/ns#" xmlns:xlink="http://www.w3.org/1999/xlink" xmlns:dc="http://purl.org/dc/elements/1.1/">
 <defs>
  <radialGradient id="b" gradientUnits="userSpaceOnUse" cy="41.5" cx="5" gradientTransform="matrix(.53494 0 0 1.6 -7.8516 -121.4)" r="5">
   <stop offset="0"/>
   <stop stop-opacity="0" offset="1"/>
  </radialGradient>
  <linearGradient id="c" y2="35" gradientUnits="userSpaceOnUse" x2="17.554" gradientTransform="matrix(2.3255 0 0 1.4545 -22.729 -3.9092)" y1="46" x1="17.554">
   <stop stop-opacity="0" offset="0"/>
   <stop offset=".5"/>
   <stop stop-opacity="0" offset="1"/>
  </linearGradient>
  <radialGradient id="a" gradientUnits="userSpaceOnUse" cy="41.5" cx="5" gradientTransform="matrix(.53494 0 0 1.6 55.836 -121.4)" r="5">
   <stop offset="0"/>
   <stop stop-opacity="0" offset="1"/>
  </radialGradient>
  <linearGradient id="f" y2="37.277" gradientUnits="userSpaceOnUse" x2="24.997" gradientTransform="matrix(1.72 0 0 2.0749 -8.3274 -20.165)" y1="15.378" x1="24.823">
   <stop stop-color="#9b63fe" offset="0"/>
   <stop stop-color="#6c2ed3" offset=".23942"/>
   <stop stop-color="#9b63fe" offset=".27582"/>
   <stop stop-color="#6c2ed3" offset="1"/>
  </linearGradient>
  <linearGradient id="e" y2="45.042" gradientUnits="userSpaceOnUse" x2="15.464" gradientTransform="matrix(1.3414 0 0 1.3324 -.18472 .20813)" y1="7.9757" x1="15.464">
   <stop stop-color="#6c2ed3" offset="0"/>
   <stop stop-color="#5122a1" offset=".23942"/>
   <stop stop-color="#6c2ed3" offset=".27582"/>
   <stop stop-color="#5122a1" offset="1"/>
  </linearGradient>
  <linearGradient id="g" y2="45.934" gradientUnits="userSpaceOnUse" x2="43.007" gradientTransform="matrix(1.7096 0 0 1.5663 -8.2501 -6.9145)" y1="30.555" x1="23.452">
   <stop stop-color="#fff" stop-opacity="0" offset="0"/>
   <stop stop-color="#fff" stop-opacity="0" offset="1"/>
  </linearGradient>
  <linearGradient id="h" y2="43" gradientUnits="userSpaceOnUse" x2="24" gradientTransform="matrix(1.4324 0 0 .94595 -2.3784 18.297)" y1="5.5641" x1="24">
   <stop stop-color="#fff" offset="0"/>
   <stop stop-color="#fff" stop-opacity=".23529" offset=".036262"/>
   <stop stop-color="#fff" stop-opacity=".15686" offset=".95056"/>
   <stop stop-color="#fff" stop-opacity=".39216" offset="1"/>
  </linearGradient>
  <linearGradient id="d" y2="43" gradientUnits="userSpaceOnUse" x2="24" gradientTransform="matrix(1.4324 0 0 .29730 -2.3784 10.865)" y1="7.3473" x1="24">
   <stop stop-color="#fff" offset="0"/>
   <stop stop-color="#fff" stop-opacity=".23529" offset=".083894"/>
   <stop stop-color="#fff" stop-opacity=".15686" offset=".95056"/>
   <stop stop-color="#fff" stop-opacity=".39216" offset="1"/>
  </linearGradient>
 </defs>
 <rect opacity=".4" transform="scale(-1)" height="16" width="2.6667" y="-63" x="-5.1769" fill="url(#b)"/>
 <rect opacity=".4" height="16" width="53.487" y="47" x="5.1769" fill="url(#c)"/>
 <rect opacity=".4" transform="scale(1,-1)" height="16" width="2.6667" y="-63" x="58.51" fill="url(#a)"/>
 <path d="m11.902 11.533h39.569c2.3099 0 3.3494-0.38179 4.0129 1.3324l4.0266 10.659v34.207c0 2.0696 0.13807 1.7534-2.1718 1.7534h-50.659c-2.3099 0-2.1718 0.31621-2.1718-1.7534v-34.207l4.0266-10.659c0.64499-1.6795 1.058-1.3324 3.3679-1.3324z" display="block" stroke="url(#e)" stroke-linecap="round" stroke-width=".99420" fill="url(#f)"/>
 <path opacity=".50549" d="m13.108 12.84h36.871c2.1524 0 3.4845 0.74205 4.386 2.7814l3.1053 8.5596v30.859c0 1.9476-1.0917 2.9281-3.2441 2.9281h-44.978c-2.1524 0-3.0304-1.0784-3.0304-3.026v-30.762l3.0051-8.7432c0.60102-1.5805 1.7328-2.5979 3.8852-2.5979z" display="block" stroke="url(#g)" stroke-width=".74212" fill="none"/>
 <path opacity=".3" stroke-linejoin="round" d="m58.5 58.5h-53v-35h53z" stroke="url(#h)" stroke-linecap="round" fill="none"/>
 <path opacity=".2" stroke-linejoin="round" d="m5.5 23.5 4.4535-11h44.093l4.4535 11" stroke="url(#d)" stroke-linecap="round" fill="none"/>
 <g opacity=".05" stroke-linejoin="round" transform="translate(0 .99972)" stroke="#000" stroke-width="2">
  <path d="m26.93 49h-2.0477v-4.3842q0-0.81238-0.25513-1.2152-0.24841-0.40955-0.7721-0.40955-0.39612 0-0.66467 0.16113-0.26856 0.16113-0.42969 0.47668t-0.22827 0.77881-0.06714 1.0608v3.5315h-2.0477v-10.447h2.0477v2.1283q0 0.28198-0.01343 0.59753-0.01343 0.30884-0.03357 0.57068-0.02685 0.30884-0.047 0.60425h0.10742q0.32898-0.58411 0.83923-0.83923 0.51025-0.26184 1.1548-0.26184 0.55725 0 1.0071 0.16113 0.45654 0.15442 0.77881 0.49011t0.49683 0.85938q0.17456 0.51697 0.17456 1.2421v4.8944z"/>
  <path d="m31.247 49.134q-0.57739 0-1.0541-0.24841-0.47668-0.24841-0.81909-0.73181-0.34241-0.49011-0.53711-1.2152-0.18799-0.7251-0.18799-1.6785 0-0.9668 0.18799-1.6919 0.1947-0.73181 0.54382-1.2219 0.35584-0.49683 0.84595-0.74524t1.0809-0.24841q0.36255 0 0.66467 0.08728 0.30212 0.08057 0.54382 0.23498 0.2417 0.1477 0.42969 0.34912 0.1947 0.1947 0.34241 0.42969h0.06714q-0.04028-0.26184-0.07385-0.5304-0.03357-0.22827-0.06042-0.4834-0.02014-0.26184-0.02014-0.4834v-2.4036h2.0477v10.447h-1.5643l-0.39612-0.97351h-0.08728q-0.14099 0.22827-0.32227 0.4364-0.18127 0.20142-0.42297 0.34912-0.23499 0.1477-0.53711 0.23498-0.29541 0.08728-0.67139 0.08728zm0.74524-1.6315q0.36255 0 0.61768-0.12085 0.25513-0.12756 0.40955-0.37598 0.16113-0.25513 0.23498-0.6311 0.08057-0.37598 0.08728-0.87952v-0.22156q0-0.54382-0.06714-0.9668-0.06714-0.42297-0.22156-0.70496-0.15442-0.2887-0.41626-0.4364t-0.65796-0.1477q-0.64453 0-0.94666 0.58411-0.30212 0.57739-0.30212 1.6852t0.30212 1.665q0.30884 0.55054 0.96008 0.55054z"/>
  <path d="m39.599 49.134q-0.57739 0-1.0541-0.24841-0.47668-0.24841-0.81909-0.73181-0.34241-0.49011-0.53711-1.2152-0.18799-0.7251-0.18799-1.6785 0-0.9668 0.18799-1.6919 0.1947-0.73181 0.54382-1.2219 0.35584-0.49683 0.84595-0.74524t1.0809-0.24841q0.36255 0 0.66467 0.08728 0.30212 0.08057 0.54382 0.23498 0.2417 0.1477 0.42969 0.34912 0.1947 0.1947 0.34241 0.42969h0.06714q-0.04028-0.26184-0.07385-0.5304-0.03357-0.22827-0.06043-0.4834-0.02014-0.26184-0.02014-0.4834v-2.4036h2.0477v10.447h-1.5643l-0.39612-0.97351h-0.08728q-0.14099 0.22827-0.32227 0.4364-0.18127 0.20142-0.42297 0.34912-0.23499 0.1477-0.53711 0.23498-0.29541 0.08728-0.67139 0.08728zm0.74524-1.6315q0.36255 0 0.61768-0.12085 0.25513-0.12756 0.40954-0.37598 0.16113-0.25513 0.23499-0.6311 0.08057-0.37598 0.08728-0.87952v-0.22156q0-0.54382-0.06714-0.9668-0.06714-0.42297-0.22156-0.70496-0.15442-0.2887-0.41626-0.4364t-0.65796-0.1477q-0.64453 0-0.94666 0.58411-0.30212 0.57739-0.30212 1.6852t0.30212 1.665q0.30884 0.55054 0.96008 0.55054z"/>
 </g>
 <g opacity=".15" transform="translate(0 .99972)">
  <path d="m26.93 49h-2.0477v-4.3842q0-0.81238-0.25513-1.2152-0.24841-0.40955-0.7721-0.40955-0.39612 0-0.66467 0.16113-0.26856 0.16113-0.42969 0.47668t-0.22827 0.77881-0.06714 1.0608v3.5315h-2.0477v-10.447h2.0477v2.1283q0 0.28198-0.01343 0.59753-0.01343 0.30884-0.03357 0.57068-0.02685 0.30884-0.047 0.60425h0.10742q0.32898-0.58411 0.83923-0.83923 0.51025-0.26184 1.1548-0.26184 0.55725 0 1.0071 0.16113 0.45654 0.15442 0.77881 0.49011t0.49683 0.85938q0.17456 0.51697 0.17456 1.2421v4.8944z"/>
  <path d="m31.247 49.134q-0.57739 0-1.0541-0.24841-0.47668-0.24841-0.81909-0.73181-0.34241-0.49011-0.53711-1.2152-0.18799-0.7251-0.18799-1.6785 0-0.9668 0.18799-1.6919 0.1947-0.73181 0.54382-1.2219 0.35584-0.49683 0.84595-0.74524t1.0809-0.24841q0.36255 0 0.66467 0.08728 0.30212 0.08057 0.54382 0.23498 0.2417 0.1477 0.42969 0.34912 0.1947 0.1947 0.34241 0.42969h0.06714q-0.04028-0.26184-0.07385-0.5304-0.03357-0.22827-0.06042-0.4834-0.02014-0.26184-0.02014-0.4834v-2.4036h2.0477v10.447h-1.5643l-0.39612-0.97351h-0.08728q-0.14099 0.22827-0.32227 0.4364-0.18127 0.20142-0.42297 0.34912-0.23499 0.1477-0.53711 0.23498-0.29541 0.08728-0.67139 0.08728zm0.74524-1.6315q0.36255 0 0.61768-0.12085 0.25513-0.12756 0.40955-0.37598 0.16113-0.25513 0.23498-0.6311 0.08057-0.37598 0.08728-0.87952v-0.22156q0-0.54382-0.06714-0.9668-0.06714-0.42297-0.22156-0.70496-0.15442-0.2887-0.41626-0.4364t-0.65796-0.1477q-0.64453 0-0.94666 0.58411-0.30212 0.57739-0.30212 1.6852t0.30212 1.665q0.30884 0.55054 0.96008 0.55054z"/>
  <path d="m39.599 49.134q-0.57739 0-1.0541-0.24841-0.47668-0.24841-0.81909-0.73181-0.34241-0.49011-0.53711-1.2152-0.18799-0.7251-0.18799-1.6785 0-0.9668 0.18799-1.6919 0.1947-0.73181 0.54382-1.2219 0.35584-0.49683 0.84595-0.74524t1.0809-0.24841q0.36255 0 0.66467 0.08728 0.30212 0.08057 0.54382 0.23498 0.2417 0.1477 0.42969 0.34912 0.1947 0.1947 0.34241 0.42969h0.06714q-0.04028-0.26184-0.07385-0.5304-0.03357-0.22827-0.06043-0.4834-0.02014-0.26184-0.02014-0.4834v-2.4036h2.0477v10.447h-1.5643l-0.39612-0.97351h-0.08728q-0.14099 0.22827-0.32227 0.4364-0.18127 0.20142-0.42297 0.34912-0.23499 0.1477-0.53711 0.23498-0.29541 0.08728-0.67139 0.08728zm0.74524-1.6315q0.36255 0 0.61768-0.12085 0.25513-0.12756 0.40954-0.37598 0.16113-0.25513 0.23499-0.6311 0.08057-0.37598 0.08728-0.87952v-0.22156q0-0.54382-0.06714-0.9668-0.06714-0.42297-0.22156-0.70496-0.15442-0.2887-0.41626-0.4364t-0.65796-0.1477q-0.64453 0-0.94666 0.58411-0.30212 0.57739-0.30212 1.6852t0.30212 1.665q0.30884 0.55054 0.96008 0.55054z"/>
 </g>
 <g fill="#fff">
  <path d="m26.93 49h-2.0477v-4.3842q0-0.81238-0.25513-1.2152-0.24841-0.40955-0.7721-0.40955-0.39612 0-0.66467 0.16113-0.26856 0.16113-0.42969 0.47668t-0.22827 0.77881-0.06714 1.0608v3.5315h-2.0477v-10.447h2.0477v2.1283q0 0.28198-0.01343 0.59753-0.01343 0.30884-0.03357 0.57068-0.02685 0.30884-0.047 0.60425h0.10742q0.32898-0.58411 0.83923-0.83923 0.51025-0.26184 1.1548-0.26184 0.55725 0 1.0071 0.16113 0.45654 0.15442 0.77881 0.49011t0.49683 0.85938q0.17456 0.51697 0.17456 1.2421v4.8944z"/>
  <path d="m31.247 49.134q-0.57739 0-1.0541-0.24841-0.47668-0.24841-0.81909-0.73181-0.34241-0.49011-0.53711-1.2152-0.18799-0.7251-0.18799-1.6785 0-0.9668 0.18799-1.6919 0.1947-0.73181 0.54382-1.2219 0.35584-0.49683 0.84595-0.74524t1.0809-0.24841q0.36255 0 0.66467 0.08728 0.30212 0.08057 0.54382 0.23498 0.2417 0.1477 0.42969 0.34912 0.1947 0.1947 0.34241 0.42969h0.06714q-0.04028-0.26184-0.07385-0.5304-0.03357-0.22827-0.06042-0.4834-0.02014-0.26184-0.02014-0.4834v-2.4036h2.0477v10.447h-1.5643l-0.39612-0.97351h-0.08728q-0.14099 0.22827-0.32227 0.4364-0.18127 0.20142-0.42297 0.34912-0.23499 0.1477-0.53711 0.23498-0.29541 0.08728-0.67139 0.08728zm0.74524-1.6315q0.36255 0 0.61768-0.12085 0.25513-0.12756 0.40955-0.37598 0.16113-0.25513 0.23498-0.6311 0.08057-0.37598 0.08728-0.87952v-0.22156q0-0.54382-0.06714-0.9668-0.06714-0.42297-0.22156-0.70496-0.15442-0.2887-0.41626-0.4364t-0.65796-0.1477q-0.64453 0-0.94666 0.58411-0.30212 0.57739-0.30212 1.6852t0.30212 1.665q0.30884 0.55054 0.96008 0.55054z"/>
  <path d="m39.599 49.134q-0.57739 0-1.0541-0.24841-0.47668-0.24841-0.81909-0.73181-0.34241-0.49011-0.53711-1.2152-0.18799-0.7251-0.18799-1.6785 0-0.9668 0.18799-1.6919 0.1947-0.73181 0.54382-1.2219 0.35584-0.49683 0.84595-0.74524t1.0809-0.24841q0.36255 0 0.66467 0.08728 0.30212 0.08057 0.54382 0.23498 0.2417 0.1477 0.42969 0.34912 0.1947 0.1947 0.34241 0.42969h0.06714q-0.04028-0.26184-0.07385-0.5304-0.03357-0.22827-0.06043-0.4834-0.02014-0.26184-0.02014-0.4834v-2.4036h2.0477v10.447h-1.5643l-0.39612-0.97351h-0.08728q-0.14099 0.22827-0.32227 0.4364-0.18127 0.20142-0.42297 0.34912-0.23499 0.1477-0.53711 0.23498-0.29541 0.08728-0.67139 0.08728zm0.74524-1.6315q0.36255 0 0.61768-0.12085 0.25513-0.12756 0.40954-0.37598 0.16113-0.25513 0.23499-0.6311 0.08057-0.37598 0.08728-0.87952v-0.22156q0-0.54382-0.06714-0.9668-0.06714-0.42297-0.22156-0.70496-0.15442-0.2887-0.41626-0.4364t-0.65796-0.1477q-0.64453 0-0.94666 0.58411-0.30212 0.57739-0.30212 1.6852t0.30212 1.665q0.30884 0.55054 0.96008 0.55054z"/>
 </g>
</svg>
