<?xml version="1.0" encoding="UTF-8" standalone="no"?>
<svg xmlns:rdf="http://www.w3.org/1999/02/22-rdf-syntax-ns#" xmlns="http://www.w3.org/2000/svg" height="64" width="64" version="1.1" xmlns:cc="http://creativecommons.org/ns#" xmlns:xlink="http://www.w3.org/1999/xlink" xmlns:dc="http://purl.org/dc/elements/1.1/">
 <defs>
  <radialGradient id="b" cx="5" gradientUnits="userSpaceOnUse" cy="41.5" r="5" gradientTransform="matrix(.53494 0 0 1.6 -7.8516 -121.4)">
   <stop offset="0"/>
   <stop stop-opacity="0" offset="1"/>
  </radialGradient>
  <linearGradient id="c" x1="17.554" gradientUnits="userSpaceOnUse" y1="46" gradientTransform="matrix(2.3255 0 0 1.4545 -22.729 -3.9092)" x2="17.554" y2="35">
   <stop stop-opacity="0" offset="0"/>
   <stop offset=".5"/>
   <stop stop-opacity="0" offset="1"/>
  </linearGradient>
  <radialGradient id="a" cx="5" gradientUnits="userSpaceOnUse" cy="41.5" r="5" gradientTransform="matrix(.53494 0 0 1.6 55.836 -121.4)">
   <stop offset="0"/>
   <stop stop-opacity="0" offset="1"/>
  </radialGradient>
  <linearGradient id="f" x1="24.823" gradientUnits="userSpaceOnUse" y1="15.378" gradientTransform="matrix(1.72 0 0 2.0749 -8.3274 -20.165)" x2="24.997" y2="37.277">
   <stop stop-color="#6ca71c" offset="0"/>
   <stop stop-color="#538607" offset=".23942"/>
   <stop stop-color="#6ca71c" offset=".27582"/>
   <stop stop-color="#538607" offset="1"/>
  </linearGradient>
  <linearGradient id="e" x1="15.464" gradientUnits="userSpaceOnUse" y1="7.9757" gradientTransform="matrix(1.3414 0 0 1.3324 -.18472 .20813)" x2="15.464" y2="45.042">
   <stop stop-color="#538607" offset="0"/>
   <stop stop-color="#416905" offset=".23942"/>
   <stop stop-color="#538607" offset=".27582"/>
   <stop stop-color="#416905" offset="1"/>
  </linearGradient>
  <linearGradient id="g" x1="23.452" gradientUnits="userSpaceOnUse" y1="30.555" gradientTransform="matrix(1.7096 0 0 1.5663 -8.2501 -6.9145)" x2="43.007" y2="45.934">
   <stop stop-color="#fff" stop-opacity="0" offset="0"/>
   <stop stop-color="#fff" stop-opacity="0" offset="1"/>
  </linearGradient>
  <linearGradient id="h" x1="24" gradientUnits="userSpaceOnUse" y1="5.5641" gradientTransform="matrix(1.4324 0 0 .94595 -2.3784 18.297)" x2="24" y2="43">
   <stop stop-color="#fff" offset="0"/>
   <stop stop-color="#fff" stop-opacity=".23529" offset=".036262"/>
   <stop stop-color="#fff" stop-opacity=".15686" offset=".95056"/>
   <stop stop-color="#fff" stop-opacity=".39216" offset="1"/>
  </linearGradient>
  <linearGradient id="d" x1="24" gradientUnits="userSpaceOnUse" y1="7.3473" gradientTransform="matrix(1.4324 0 0 .29730 -2.3784 10.865)" x2="24" y2="43">
   <stop stop-color="#fff" offset="0"/>
   <stop stop-color="#fff" stop-opacity=".23529" offset=".083894"/>
   <stop stop-color="#fff" stop-opacity=".15686" offset=".95056"/>
   <stop stop-color="#fff" stop-opacity=".39216" offset="1"/>
  </linearGradient>
 </defs>
 <rect opacity=".4" transform="scale(-1)" height="16" width="2.6667" y="-63" x="-5.1769" fill="url(#b)"/>
 <rect opacity=".4" height="16" width="53.487" y="47" x="5.1769" fill="url(#c)"/>
 <rect opacity=".4" transform="scale(1,-1)" height="16" width="2.6667" y="-63" x="58.51" fill="url(#a)"/>
 <path d="m11.902 11.533h39.569c2.3099 0 3.3494-0.38179 4.0129 1.3324l4.0266 10.659v34.207c0 2.0696 0.13807 1.7534-2.1718 1.7534h-50.659c-2.3099 0-2.1718 0.31621-2.1718-1.7534v-34.207l4.0266-10.659c0.64499-1.6795 1.058-1.3324 3.3679-1.3324z" display="block" stroke="url(#e)" stroke-linecap="round" stroke-width=".99420" fill="url(#f)"/>
 <path opacity=".50549" d="m13.108 12.84h36.871c2.1524 0 3.4845 0.74205 4.386 2.7814l3.1053 8.5596v30.859c0 1.9476-1.0917 2.9281-3.2441 2.9281h-44.978c-2.1524 0-3.0304-1.0784-3.0304-3.026v-30.762l3.0051-8.7432c0.60102-1.5805 1.7328-2.5979 3.8852-2.5979z" display="block" stroke="url(#g)" stroke-width=".74212" fill="none"/>
 <path opacity=".3" stroke-linejoin="round" d="m58.5 58.5h-53v-35h53z" stroke="url(#h)" stroke-linecap="round" fill="none"/>
 <path opacity=".2" stroke-linejoin="round" d="m5.5 23.5 4.4535-11h44.093l4.4535 11" stroke="url(#d)" stroke-linecap="round" fill="none"/>
 <g stroke-linejoin="round" opacity=".05" transform="translate(0 .99972)" stroke="#000" stroke-width="2">
  <path d="m25.376 42.81q-0.54382 0-0.90637 0.38269-0.35584 0.38269-0.40955 1.2018h2.6117q-0.0067-0.34241-0.08728-0.6311-0.08057-0.2887-0.2417-0.49683-0.16113-0.21484-0.40283-0.33569t-0.56396-0.12085zm0.26184 6.3245q-0.80566 0-1.4838-0.23498-0.6781-0.23498-1.1682-0.70496-0.49011-0.47668-0.76538-1.1951-0.26855-0.7251-0.26855-1.6986 0-0.98694 0.24841-1.7255 0.24841-0.73852 0.69153-1.2286 0.44983-0.49683 1.0742-0.74524 0.6311-0.24841 1.3965-0.24841 0.74524 0 1.3428 0.22827 0.60425 0.22156 1.0205 0.65796 0.42297 0.4364 0.64453 1.0742 0.22827 0.6311 0.22827 1.4502v0.99365h-4.5789q0.01343 0.42969 0.13428 0.77881 0.12756 0.34241 0.34912 0.58411 0.22827 0.23499 0.54382 0.36255 0.32227 0.12756 0.73181 0.12756 0.34241 0 0.64453-0.03357 0.30884-0.04028 0.59753-0.11414 0.2887-0.07385 0.57068-0.18127 0.28198-0.11414 0.57739-0.26184v1.5845q-0.26856 0.14099-0.54382 0.2417-0.26855 0.09399-0.57068 0.16113-0.30212 0.06714-0.65124 0.09399-0.34912 0.03357-0.76538 0.03357z"/>
  <path d="m31.882 45.166-2.417-3.6725h2.323l1.2488 2.2559 1.2689-2.2559h2.323l-2.4506 3.6725 2.558 3.834h-2.323l-1.377-2.43-1.376 2.43h-2.323l2.5446-3.8336z"/>
  <path d="m40.939 47.503q0.30212 0 0.57068-0.06714 0.27527-0.06714 0.55725-0.16785v1.524q-0.2887 0.1477-0.71838 0.2417-0.42297 0.10071-0.92651 0.10071-0.49011 0-0.91309-0.11414-0.42297-0.11414-0.73181-0.39612-0.30884-0.2887-0.49011-0.76538-0.17456-0.4834-0.17456-1.2085v-3.6188h-0.98022v-0.86609l1.1279-0.68481 0.59082-1.5845h1.3092v1.5979h1.8262v1.5375h-1.8262v3.6188q0 0.4364 0.21484 0.64453t0.56396 0.20813z"/>
 </g>
 <g opacity=".15">
  <path d="m25.376 43.81q-0.54382 0-0.90637 0.38269-0.35584 0.38269-0.40955 1.2018h2.6117q-0.0067-0.34241-0.08728-0.6311-0.08057-0.2887-0.2417-0.49683-0.16113-0.21484-0.40283-0.33569t-0.56396-0.12085zm0.26184 6.3245q-0.80566 0-1.4838-0.23498-0.6781-0.23499-1.1682-0.70496-0.49011-0.47668-0.76538-1.1951-0.26855-0.7251-0.26855-1.6986 0-0.98694 0.24841-1.7255 0.24841-0.73853 0.69153-1.2286 0.44983-0.49683 1.0742-0.74524 0.6311-0.24841 1.3965-0.24841 0.74524 0 1.3428 0.22827 0.60425 0.22156 1.0205 0.65796 0.42297 0.4364 0.64453 1.0742 0.22827 0.6311 0.22827 1.4502v0.99365h-4.5789q0.01343 0.42969 0.13428 0.77881 0.12756 0.34241 0.34912 0.58411 0.22827 0.23498 0.54382 0.36255 0.32227 0.12756 0.73181 0.12756 0.34241 0 0.64453-0.03357 0.30884-0.04028 0.59753-0.11414 0.2887-0.07385 0.57068-0.18127 0.28198-0.11414 0.57739-0.26184v1.5845q-0.26856 0.14099-0.54382 0.2417-0.26855 0.09399-0.57068 0.16113-0.30212 0.06714-0.65124 0.09399-0.34912 0.03357-0.76538 0.03357z"/>
  <path d="m31.882 46.166-2.417-3.6725h2.323l1.2488 2.2559 1.2689-2.2559h2.323l-2.4506 3.6725 2.558 3.8336h-2.323l-1.3763-2.4304-1.3763 2.4304h-2.323l2.5446-3.8336z"/>
  <path d="m40.939 48.503q0.30212 0 0.57068-0.06714 0.27527-0.06714 0.55725-0.16785v1.524q-0.2887 0.1477-0.71838 0.2417-0.42297 0.10071-0.92651 0.10071-0.49011 0-0.91309-0.11414-0.42297-0.11414-0.73181-0.39612-0.30884-0.2887-0.49011-0.76538-0.17456-0.4834-0.17456-1.2085v-3.6188h-0.98022v-0.86609l1.1279-0.68482 0.59082-1.5845h1.3092v1.5979h1.8262v1.5375h-1.8262v3.6188q0 0.4364 0.21484 0.64453t0.56396 0.20813z"/>
 </g>
 <g fill="#fff">
  <path d="m25.376 42.81q-0.54382 0-0.90637 0.38269-0.35584 0.38269-0.40955 1.2018h2.6117q-0.0067-0.34241-0.08728-0.6311-0.08057-0.2887-0.2417-0.49683-0.16113-0.21484-0.40283-0.33569t-0.56396-0.12085zm0.26184 6.3245q-0.80566 0-1.4838-0.23498-0.6781-0.23498-1.1682-0.70496-0.49011-0.47668-0.76538-1.1951-0.26855-0.7251-0.26855-1.6986 0-0.98694 0.24841-1.7255 0.24841-0.73852 0.69153-1.2286 0.44983-0.49683 1.0742-0.74524 0.6311-0.24841 1.3965-0.24841 0.74524 0 1.3428 0.22827 0.60425 0.22156 1.0205 0.65796 0.42297 0.4364 0.64453 1.0742 0.22827 0.6311 0.22827 1.4502v0.99365h-4.5789q0.01343 0.42969 0.13428 0.77881 0.12756 0.34241 0.34912 0.58411 0.22827 0.23499 0.54382 0.36255 0.32227 0.12756 0.73181 0.12756 0.34241 0 0.64453-0.03357 0.30884-0.04028 0.59753-0.11414 0.2887-0.07385 0.57068-0.18127 0.28198-0.11414 0.57739-0.26184v1.5845q-0.26856 0.14099-0.54382 0.2417-0.26855 0.09399-0.57068 0.16113-0.30212 0.06714-0.65124 0.09399-0.34912 0.03357-0.76538 0.03357z"/>
  <path d="m31.882 45.166-2.417-3.6725h2.323l1.2488 2.2559 1.2689-2.2559h2.323l-2.4506 3.6725 2.558 3.834h-2.323l-1.377-2.43-1.376 2.43h-2.323l2.5446-3.8336z"/>
  <path d="m40.939 47.503q0.30212 0 0.57068-0.06714 0.27527-0.06714 0.55725-0.16785v1.524q-0.2887 0.1477-0.71838 0.2417-0.42297 0.10071-0.92651 0.10071-0.49011 0-0.91309-0.11414-0.42297-0.11414-0.73181-0.39612-0.30884-0.2887-0.49011-0.76538-0.17456-0.4834-0.17456-1.2085v-3.6188h-0.98022v-0.86609l1.1279-0.68481 0.59082-1.5845h1.3092v1.5979h1.8262v1.5375h-1.8262v3.6188q0 0.4364 0.21484 0.64453t0.56396 0.20813z"/>
 </g>
</svg>
