<?xml version="1.0" encoding="UTF-8" standalone="no"?>
<svg xmlns:rdf="http://www.w3.org/1999/02/22-rdf-syntax-ns#" xmlns="http://www.w3.org/2000/svg" height="64" width="64" version="1.1" xmlns:cc="http://creativecommons.org/ns#" xmlns:xlink="http://www.w3.org/1999/xlink" xmlns:dc="http://purl.org/dc/elements/1.1/">
 <defs>
  <radialGradient id="b" gradientUnits="userSpaceOnUse" cy="41.5" cx="5" gradientTransform="matrix(.53494 0 0 1.6 -7.8516 -121.4)" r="5">
   <stop offset="0"/>
   <stop stop-opacity="0" offset="1"/>
  </radialGradient>
  <linearGradient id="c" y2="35" gradientUnits="userSpaceOnUse" x2="17.554" gradientTransform="matrix(2.3255 0 0 1.4545 -22.729 -3.9092)" y1="46" x1="17.554">
   <stop stop-opacity="0" offset="0"/>
   <stop offset=".5"/>
   <stop stop-opacity="0" offset="1"/>
  </linearGradient>
  <radialGradient id="a" gradientUnits="userSpaceOnUse" cy="41.5" cx="5" gradientTransform="matrix(.53494 0 0 1.6 55.836 -121.4)" r="5">
   <stop offset="0"/>
   <stop stop-opacity="0" offset="1"/>
  </radialGradient>
  <linearGradient id="f" y2="37.277" gradientUnits="userSpaceOnUse" x2="24.997" gradientTransform="matrix(1.72 0 0 2.0749 -8.3274 -20.165)" y1="15.378" x1="24.823">
   <stop stop-color="#ed931b" offset="0"/>
   <stop stop-color="#cc710b" offset=".23942"/>
   <stop stop-color="#ed931b" offset=".27582"/>
   <stop stop-color="#cc710b" offset="1"/>
  </linearGradient>
  <linearGradient id="e" y2="45.042" gradientUnits="userSpaceOnUse" x2="15.464" gradientTransform="matrix(1.3414 0 0 1.3324 -.18472 .20813)" y1="7.9757" x1="15.464">
   <stop stop-color="#cc710b" offset="0"/>
   <stop stop-color="#9b5609" offset=".23942"/>
   <stop stop-color="#cc710b" offset=".27582"/>
   <stop stop-color="#9b5609" offset="1"/>
  </linearGradient>
  <linearGradient id="g" y2="45.934" gradientUnits="userSpaceOnUse" x2="43.007" gradientTransform="matrix(1.7096 0 0 1.5663 -8.2501 -6.9145)" y1="30.555" x1="23.452">
   <stop stop-color="#fff" stop-opacity="0" offset="0"/>
   <stop stop-color="#fff" stop-opacity="0" offset="1"/>
  </linearGradient>
  <linearGradient id="h" y2="43" gradientUnits="userSpaceOnUse" x2="24" gradientTransform="matrix(1.4324 0 0 .94595 -2.3784 18.297)" y1="5.5641" x1="24">
   <stop stop-color="#fff" offset="0"/>
   <stop stop-color="#fff" stop-opacity=".23529" offset=".036262"/>
   <stop stop-color="#fff" stop-opacity=".15686" offset=".95056"/>
   <stop stop-color="#fff" stop-opacity=".39216" offset="1"/>
  </linearGradient>
  <linearGradient id="d" y2="43" gradientUnits="userSpaceOnUse" x2="24" gradientTransform="matrix(1.4324 0 0 .29730 -2.3784 10.865)" y1="7.3473" x1="24">
   <stop stop-color="#fff" offset="0"/>
   <stop stop-color="#fff" stop-opacity=".23529" offset=".083894"/>
   <stop stop-color="#fff" stop-opacity=".15686" offset=".95056"/>
   <stop stop-color="#fff" stop-opacity=".39216" offset="1"/>
  </linearGradient>
 </defs>
 <rect opacity=".4" transform="scale(-1)" height="16" width="2.6667" y="-63" x="-5.1769" fill="url(#b)"/>
 <rect opacity=".4" height="16" width="53.487" y="47" x="5.1769" fill="url(#c)"/>
 <rect opacity=".4" transform="scale(1,-1)" height="16" width="2.6667" y="-63" x="58.51" fill="url(#a)"/>
 <path d="m11.902 11.533h39.569c2.3099 0 3.3494-0.38179 4.0129 1.3324l4.0266 10.659v34.207c0 2.0696 0.13807 1.7534-2.1718 1.7534h-50.659c-2.3099 0-2.1718 0.31621-2.1718-1.7534v-34.207l4.0266-10.659c0.64499-1.6795 1.058-1.3324 3.3679-1.3324z" display="block" stroke="url(#e)" stroke-linecap="round" stroke-width=".99420" fill="url(#f)"/>
 <path opacity=".50549" d="m13.108 12.84h36.871c2.1524 0 3.4845 0.74205 4.386 2.7814l3.1053 8.5596v30.859c0 1.9476-1.0917 2.9281-3.2441 2.9281h-44.978c-2.1524 0-3.0304-1.0784-3.0304-3.026v-30.762l3.0051-8.7432c0.60102-1.5805 1.7328-2.5979 3.8852-2.5979z" display="block" stroke="url(#g)" stroke-width=".74212" fill="none"/>
 <path opacity=".3" stroke-linejoin="round" d="m58.5 58.5h-53v-35h53z" stroke="url(#h)" stroke-linecap="round" fill="none"/>
 <path opacity=".2" stroke-linejoin="round" d="m5.5 23.5 4.4535-11h44.093l4.4535 11" stroke="url(#d)" stroke-linecap="round" fill="none"/>
 <g stroke-linejoin="round" opacity=".05" transform="translate(0 .99972)" stroke="#000" stroke-width="2">
  <path d="m23.731 45.234q0 1.1212 0.31555 1.6919 0.31555 0.56396 1.0272 0.56396 0.70496 0 1.0205-0.57068 0.31555-0.57068 0.31555-1.6852 0-1.1212-0.31555-1.6718-0.31555-0.55725-1.0339-0.55725-0.70496 0-1.0205 0.55725-0.30884 0.55054-0.30884 1.6718zm4.7668 0q0 0.93994-0.2417 1.665-0.23498 0.7251-0.68482 1.2219-0.44312 0.49683-1.0876 0.75867-0.63782 0.25513-1.4368 0.25513-0.74524 0-1.3696-0.25513-0.62439-0.26184-1.0809-0.75867-0.44983-0.49683-0.70496-1.2219-0.25513-0.7251-0.25513-1.665 0-0.93323 0.23498-1.6583 0.2417-0.7251 0.68482-1.2152 0.44983-0.49683 1.0876-0.75195 0.63782-0.25513 1.4435-0.25513 0.74524 0 1.3696 0.25513 0.62439 0.25513 1.0742 0.75195 0.45654 0.49011 0.71167 1.2152 0.25513 0.7251 0.25513 1.6583z"/>
  <path d="m31.848 49-2.652-7.5061h2.1417l1.2421 4.2767q0.11414 0.38269 0.1947 0.79895 0.08728 0.40955 0.10742 0.73852h0.04028q0.02014-0.35583 0.10071-0.75195 0.08728-0.40283 0.20142-0.78552l1.2354-4.2767h2.1484l-2.652 7.507h-2.108z"/>
  <path d="m41.717 43.031h-1.524v5.9686h-2.0477v-5.9686h-1.1279v-0.98694l1.1279-0.55054v-0.55054q0-0.71838 0.17456-1.1884 0.17456-0.47668 0.49683-0.75867 0.32227-0.28198 0.77881-0.39612 0.45654-0.12085 1.0272-0.12085 0.61768 0 1.0406 0.10071 0.42297 0.09399 0.71838 0.21484l-0.4834 1.5039q-0.20813-0.07385-0.4364-0.13428t-0.53711-0.06043q-0.40283 0-0.57068 0.26184-0.16113 0.25513-0.16113 0.65796v0.46997h1.524v1.5375z"/>
 </g>
 <g opacity=".15">
  <path d="m23.731 46.233q0 1.1212 0.31555 1.6919 0.31555 0.56396 1.0272 0.56396 0.70496 0 1.0205-0.57068 0.31555-0.57068 0.31555-1.6852 0-1.1212-0.31555-1.6718-0.31555-0.55725-1.0339-0.55725-0.70496 0-1.0205 0.55725-0.30884 0.55054-0.30884 1.6718zm4.7668 0q0 0.93994-0.2417 1.665-0.23498 0.7251-0.68482 1.2219-0.44312 0.49683-1.0876 0.75867-0.63782 0.25513-1.4368 0.25513-0.74524 0-1.3696-0.25513-0.62439-0.26184-1.0809-0.75867-0.44983-0.49683-0.70496-1.2219-0.25513-0.7251-0.25513-1.665 0-0.93323 0.23498-1.6583 0.2417-0.7251 0.68482-1.2152 0.44983-0.49683 1.0876-0.75195 0.63782-0.25513 1.4435-0.25513 0.74524 0 1.3696 0.25513 0.62439 0.25513 1.0742 0.75195 0.45654 0.49011 0.71167 1.2152 0.25513 0.7251 0.25513 1.6583z"/>
  <path d="m31.848 50-2.652-7.5061h2.1417l1.2421 4.2767q0.11414 0.38269 0.1947 0.79895 0.08728 0.40955 0.10742 0.73852h0.04028q0.02014-0.35584 0.10071-0.75195 0.08728-0.40283 0.20142-0.78552l1.2354-4.2767h2.1484l-2.652 7.5061h-2.1082z"/>
  <path d="m41.717 44.031h-1.524v5.9686h-2.0477v-5.9686h-1.1279v-0.98694l1.1279-0.55054v-0.55054q0-0.71838 0.17456-1.1884 0.17456-0.47668 0.49683-0.75867 0.32227-0.28198 0.77881-0.39612 0.45654-0.12085 1.0272-0.12085 0.61768 0 1.0406 0.10071 0.42297 0.09399 0.71838 0.21484l-0.4834 1.5039q-0.20813-0.07385-0.4364-0.13428-0.22827-0.06042-0.53711-0.06042-0.40283 0-0.57068 0.26184-0.16113 0.25513-0.16113 0.65796v0.46997h1.524v1.5375z"/>
 </g>
 <g fill="#fff">
  <path d="m23.731 45.234q0 1.1212 0.31555 1.6919 0.31555 0.56396 1.0272 0.56396 0.70496 0 1.0205-0.57068 0.31555-0.57068 0.31555-1.6852 0-1.1212-0.31555-1.6718-0.31555-0.55725-1.0339-0.55725-0.70496 0-1.0205 0.55725-0.30884 0.55054-0.30884 1.6718zm4.7668 0q0 0.93994-0.2417 1.665-0.23498 0.7251-0.68482 1.2219-0.44312 0.49683-1.0876 0.75867-0.63782 0.25513-1.4368 0.25513-0.74524 0-1.3696-0.25513-0.62439-0.26184-1.0809-0.75867-0.44983-0.49683-0.70496-1.2219-0.25513-0.7251-0.25513-1.665 0-0.93323 0.23498-1.6583 0.2417-0.7251 0.68482-1.2152 0.44983-0.49683 1.0876-0.75195 0.63782-0.25513 1.4435-0.25513 0.74524 0 1.3696 0.25513 0.62439 0.25513 1.0742 0.75195 0.45654 0.49011 0.71167 1.2152 0.25513 0.7251 0.25513 1.6583z"/>
  <path d="m31.848 49-2.652-7.5061h2.1417l1.2421 4.2767q0.11414 0.38269 0.1947 0.79895 0.08728 0.40955 0.10742 0.73852h0.04028q0.02014-0.35583 0.10071-0.75195 0.08728-0.40283 0.20142-0.78552l1.2354-4.2767h2.1484l-2.652 7.507h-2.108z"/>
  <path d="m41.717 43.031h-1.524v5.9686h-2.0477v-5.9686h-1.1279v-0.98694l1.1279-0.55054v-0.55054q0-0.71838 0.17456-1.1884 0.17456-0.47668 0.49683-0.75867 0.32227-0.28198 0.77881-0.39612 0.45654-0.12085 1.0272-0.12085 0.61768 0 1.0406 0.10071 0.42297 0.09399 0.71838 0.21484l-0.4834 1.5039q-0.20813-0.07385-0.4364-0.13428t-0.53711-0.06043q-0.40283 0-0.57068 0.26184-0.16113 0.25513-0.16113 0.65796v0.46997h1.524v1.5375z"/>
 </g>
</svg>
