<?xml version="1.0" encoding="UTF-8" standalone="no"?>
<svg xmlns:rdf="http://www.w3.org/1999/02/22-rdf-syntax-ns#" xmlns="http://www.w3.org/2000/svg" height="24" width="24" version="1.1" xmlns:cc="http://creativecommons.org/ns#" xmlns:xlink="http://www.w3.org/1999/xlink" xmlns:dc="http://purl.org/dc/elements/1.1/">
 <defs>
  <radialGradient id="b" gradientUnits="userSpaceOnUse" cy="43.5" cx="4.993" gradientTransform="matrix(2.0038 0 0 1.4 27.988 -17.4)" r="2.5">
   <stop stop-color="#181818" offset="0"/>
   <stop stop-color="#181818" stop-opacity="0" offset="1"/>
  </radialGradient>
  <radialGradient id="a" gradientUnits="userSpaceOnUse" cy="43.5" cx="4.993" gradientTransform="matrix(2.0038 0 0 1.4 -20.012 -104.4)" r="2.5">
   <stop stop-color="#181818" offset="0"/>
   <stop stop-color="#181818" stop-opacity="0" offset="1"/>
  </radialGradient>
  <linearGradient id="h" y2="39.999" gradientUnits="userSpaceOnUse" x2="25.058" y1="47.028" x1="25.058">
   <stop stop-color="#181818" stop-opacity="0" offset="0"/>
   <stop stop-color="#181818" offset=".5"/>
   <stop stop-color="#181818" stop-opacity="0" offset="1"/>
  </linearGradient>
  <linearGradient id="f" y2="4.497" gradientUnits="userSpaceOnUse" x2="24.64" gradientTransform="matrix(.52589 0 0 1.0165 -.25845 5.508)" y1="3.3805" x1="24.64">
   <stop stop-color="#eee" offset="0"/>
   <stop stop-color="#d9d9da" offset="1"/>
  </linearGradient>
  <linearGradient id="e" y2=".065302" gradientUnits="userSpaceOnUse" x2="54.887" gradientTransform="matrix(.37517 0 0 .49377 .22912 8.1438)" y1=".065302" x1="10.199">
   <stop stop-color="#e58a00" offset="0"/>
   <stop stop-color="#c37500" offset="1"/>
  </linearGradient>
  <linearGradient id="i" y2="3" gradientUnits="userSpaceOnUse" x2="10.654" gradientTransform="matrix(0.4 0 0 0.5 .90002 8.2497)" y1="1" x1="10.654">
   <stop stop-color="#eee" offset="0"/>
   <stop stop-color="#d9d9da" offset="1"/>
  </linearGradient>
  <linearGradient id="g" y2="3.899" gradientUnits="userSpaceOnUse" x2="24" gradientTransform="matrix(0.4 0 0 .051282 1.7001 8.2689)" y1="44" x1="24">
   <stop stop-color="#272727" offset="0"/>
   <stop stop-color="#454545" offset="1"/>
  </linearGradient>
  <radialGradient id="c" gradientUnits="userSpaceOnUse" cy="6.6476" cx="24.502" gradientTransform="matrix(0 1.2712 -1.4973 0 22.453 -20.791)" r="17.498">
   <stop stop-color="#f90" offset="0"/>
   <stop stop-color="#e58a00" offset="1"/>
  </radialGradient>
  <linearGradient id="j" y2="61.482" gradientUnits="userSpaceOnUse" x2="32.901" gradientTransform="matrix(.32957 0 0 .34141 1.9537 8.8264)" y1="4.6482" x1="32.901">
   <stop stop-color="#e58a00" offset="0"/>
   <stop stop-color="#c37500" offset="1"/>
  </linearGradient>
  <radialGradient id="d" gradientUnits="userSpaceOnUse" cy="8.4498" cx="7.4957" gradientTransform="matrix(0 1.1385 -.98890 -2.0976e-8 19.656 2.2494)" r="20">
   <stop stop-color="#5f5f5f" offset="0"/>
   <stop stop-color="#4f4f4f" offset=".26238"/>
   <stop stop-color="#3b3b3b" offset=".70495"/>
   <stop stop-color="#2b2b2b" offset="1"/>
  </radialGradient>
  <linearGradient id="k" y2="3.899" gradientUnits="userSpaceOnUse" x2="24" gradientTransform="matrix(0.4 0 0 .48718 1.7 8.3074)" y1="44" x1="24">
   <stop stop-color="#272727" offset="0"/>
   <stop stop-color="#454545" offset="1"/>
  </linearGradient>
  <linearGradient id="l" y2="43.758" gradientUnits="userSpaceOnUse" x2="24.107" gradientTransform="matrix(.40541 0 0 .45946 2.2703 8.9727)" y1="4.4311" x1="24">
   <stop stop-color="#fff" offset="0"/>
   <stop stop-color="#fff" stop-opacity=".23529" offset=".061697"/>
   <stop stop-color="#fff" stop-opacity=".15686" offset=".93280"/>
   <stop stop-color="#fff" stop-opacity=".39216" offset="1"/>
  </linearGradient>
 </defs>
 <g transform="translate(0,-8)">
  <g transform="matrix(0.5 0 0 .33333 -2e-7 15.333)">
   <g opacity=".4" transform="matrix(1.0526 0 0 1.2857 -1.2632 -13.429)">
    <rect height="7" width="5" y="40" x="38" fill="url(#b)"/>
    <rect transform="scale(-1)" height="7" width="5" y="-47" x="-10" fill="url(#a)"/>
    <rect height="7" width="28" y="40" x="10" fill="url(#h)"/>
   </g>
  </g>
  <path stroke-linejoin="round" d="m20.491 10.304c-0.154-0.655-0.058-1.1709-0.143-1.7956h-15.839l0.093482 1.9826" stroke="url(#e)" stroke-miterlimit="0" stroke-width="1.0174" fill="url(#f)"/>
  <path stroke-linejoin="round" style="color:#000000" d="m5.5001 10.5h-1.6c-0.22834 0-0.4-0.02116-0.4-0.04878v-1.3982c0-0.44396 0.22361-0.553 0.51636-0.553h1.4836" stroke="url(#g)" stroke-linecap="round" fill="url(#i)"/>
  <rect stroke-linejoin="round" height="18.981" width="15.981" stroke="url(#j)" stroke-linecap="round" stroke-miterlimit="0" y="10.51" x="4.5095" stroke-width="1.019" fill="url(#c)"/>
  <path stroke-linejoin="round" style="color:#000000" d="m5.5 10.5v19h-1.6c-0.22834 0-0.4-0.2011-0.4-0.46341v-18.537z" stroke="url(#k)" stroke-linecap="round" fill="url(#d)"/>
  <rect opacity=".5" stroke-linejoin="round" height="17" width="15" stroke="url(#l)" stroke-linecap="round" y="11.5" x="4.5" fill="none"/>
 </g>
 <path opacity=".2" d="m13.027 7.996c-1.2033 0.070888-2.4781 0.59119-2.7617 2.0781-0.04659 0.18838 0.09523 0.257 0.18945 0.28125l1.3223 0.16602c0.14181-0.0243 0.2111-0.14126 0.23438-0.25976 0.11854-0.51861 0.5436-0.77856 1.0156-0.82617h0.09375c0.2826 0 0.59026 0.11853 0.75586 0.35352 0.18792 0.28362 0.16406 0.66197 0.16406 0.99219v0.1875c-0.30688 0.0243-0.65966 0.04816-1.0137 0.0957-0.5424 0.06983-1.085 0.16529-1.5332 0.37695-0.8731 0.35453-1.4629 1.1097-1.4629 2.2188 0 1.3927 0.89495 2.0977 2.0273 2.0977 0.37783 0 0.68611-0.04628 0.96875-0.11719 0.44872-0.14181 0.8253-0.40102 1.2734-0.87305 0.25982 0.3545 0.33058 0.52164 0.7793 0.89844 0.11805 0.04765 0.23588 0.0456 0.33008-0.02539 0.28309-0.236 0.7768-0.66045 1.0371-0.89648 0.11752-0.09519 0.09575-0.23495 0.02539-0.35352-0.25983-0.33022-0.51953-0.61583-0.51953-1.252v-2.123c0-0.89744 0.07059-1.7231-0.58984-2.3359-0.542-0.4959-1.394-0.6831-2.054-0.6831h-0.28125zm1.0137 4.0586v0.28516c0 0.54295 0.02287 0.96646-0.25977 1.4375-0.16513 0.33023-0.44702 0.54237-0.75391 0.61328-0.04712 0-0.11658 0.02344-0.1875 0.02344-0.51909 0-0.82812-0.40167-0.82812-0.99219 0-0.75464 0.44944-1.1083 1.0156-1.2734 0.30688-0.07089 0.65966-0.09375 1.0137-0.09375zm4.0898 4.1914c-0.24791 0.002-0.52204 0.03401-0.78125 0.11133-0.19418 0.0614-0.36375 0.1446-0.52148 0.25391-0.12125 0.0854-0.09786 0.19509 0.02344 0.18359 0.13328-0.0249 0.30393-0.0375 0.49805-0.0625 0.42477-0.0354 0.92364-0.04792 1.0449 0.10938 0.16924 0.20605-0.1953 1.1039-0.35352 1.4922-0.0479 0.12174 0.06064 0.17129 0.16992 0.08594 0.546-0.461 0.777-1.299 0.789-1.737v-0.07227c0-0.0979-0.02493-0.1686-0.04883-0.20508-0.0684-0.0833-0.40517-0.1631-0.81836-0.16016h-0.002zm-11.02 0.232c-0.10781-0.003-0.15945 0.11821-0.050781 0.20703 1.5651 1.4199 3.6278 2.2676 5.9336 2.2676 1.4319 0 3.0813-0.39996 4.3555-1.1641 0.17018-0.0978 0.34035-0.2073 0.49805-0.32812 0.2186-0.15727 0.02334-0.40152-0.19531-0.30469-0.0968 0.0365-0.20588 0.08663-0.30274 0.12305-1.396 0.54645-2.8631 0.80078-4.2227 0.80078-2.16 0-4.2467-0.5954-5.9336-1.5781-0.0296-0.0158-0.057231-0.02274-0.082031-0.02344z"/>
 <path d="m13.027 6.9961c-1.203 0.0709-2.478 0.5912-2.761 2.0781-0.047 0.1884 0.095 0.257 0.189 0.2813l1.322 0.166c0.142-0.0243 0.211-0.1413 0.235-0.2598 0.118-0.5186 0.543-0.7785 1.015-0.8262h0.094c0.283 0 0.59 0.1186 0.756 0.3536 0.188 0.2836 0.164 0.6619 0.164 0.9921v0.1876c-0.307 0.0242-0.66 0.0482-1.014 0.0952-0.542 0.07-1.085 0.166-1.533 0.377-0.873 0.355-1.463 1.11-1.463 2.219 0 1.393 0.895 2.098 2.028 2.098 0.377 0 0.686-0.046 0.968-0.117 0.449-0.142 0.826-0.401 1.274-0.873 0.26 0.354 0.33 0.521 0.779 0.898 0.118 0.048 0.236 0.046 0.33-0.025 0.283-0.236 0.777-0.661 1.037-0.897 0.118-0.095 0.096-0.235 0.026-0.353-0.26-0.331-0.52-0.616-0.52-1.252v-2.123c0-0.8978 0.071-1.7235-0.59-2.3363-0.542-0.4963-1.394-0.6836-2.054-0.6836h-0.282zm1.014 4.0589v0.285c0 0.543 0.023 0.966-0.26 1.437-0.165 0.331-0.447 0.543-0.754 0.614-0.047 0-0.116 0.023-0.187 0.023-0.519 0-0.828-0.402-0.828-0.992 0-0.755 0.449-1.108 1.015-1.274 0.307-0.07 0.66-0.093 1.014-0.093zm4.09 4.191c-0.248 0.002-0.522 0.034-0.781 0.111-0.195 0.062-0.364 0.145-0.522 0.254-0.121 0.086-0.098 0.195 0.024 0.184 0.133-0.025 0.303-0.038 0.498-0.063 0.424-0.035 0.923-0.048 1.045 0.11 0.169 0.206-0.196 1.104-0.354 1.492-0.048 0.122 0.061 0.171 0.17 0.086 0.546-0.461 0.777-1.299 0.789-1.736v-0.073c0-0.098-0.025-0.168-0.049-0.205-0.068-0.083-0.405-0.163-0.818-0.16h-0.002zm-11.02 0.233c-0.1078-0.003-0.1594 0.118-0.0508 0.207 1.5652 1.419 3.6275 2.267 5.9335 2.267 1.432 0 3.081-0.4 4.356-1.164 0.17-0.098 0.34-0.207 0.498-0.328 0.218-0.157 0.023-0.402-0.196-0.305-0.096 0.037-0.206 0.087-0.302 0.123-1.396 0.547-2.864 0.801-4.223 0.801-2.16 0-4.2467-0.595-5.9336-1.578-0.0296-0.016-0.0573-0.023-0.0821-0.023z" fill="#fff"/>
</svg>
