<?xml version="1.0" encoding="UTF-8" standalone="no"?>
<svg xmlns:rdf="http://www.w3.org/1999/02/22-rdf-syntax-ns#" xmlns="http://www.w3.org/2000/svg" height="24" width="24" version="1.1" xmlns:cc="http://creativecommons.org/ns#" xmlns:xlink="http://www.w3.org/1999/xlink" xmlns:dc="http://purl.org/dc/elements/1.1/">
 <defs>
  <linearGradient id="a">
   <stop offset="0"/>
   <stop stop-opacity="0" offset="1"/>
  </linearGradient>
  <linearGradient id="g" y2="43" gradientUnits="userSpaceOnUse" x2="24" gradientTransform="matrix(.40541 0 0 .51351 2.2697 -.32432)" y1="4.225" x1="24">
   <stop stop-color="#fff" offset="0"/>
   <stop stop-color="#fff" stop-opacity=".23529" offset=".073933"/>
   <stop stop-color="#fff" stop-opacity=".15686" offset=".95056"/>
   <stop stop-color="#fff" stop-opacity=".39216" offset="1"/>
  </linearGradient>
  <linearGradient id="f" y2="53.002" gradientUnits="userSpaceOnUse" x2="-35.108" gradientTransform="matrix(.39221 0 0 .42703 29.199 -.15967)" y1="4.4008" x1="-35.108">
   <stop stop-color="#b52825" offset="0"/>
   <stop stop-color="#9d2320" offset="1"/>
  </linearGradient>
  <radialGradient id="d" xlink:href="#a" gradientUnits="userSpaceOnUse" cy="486.65" cx="605.71" gradientTransform="matrix(.012049 0 0 .0082353 13.239 18.981)" r="117.14"/>
  <radialGradient id="c" xlink:href="#a" gradientUnits="userSpaceOnUse" cy="486.65" cx="605.71" gradientTransform="matrix(-.012049 0 0 .0082353 10.761 18.981)" r="117.14"/>
  <linearGradient id="e" y2="609.51" gradientUnits="userSpaceOnUse" x2="302.86" gradientTransform="matrix(.035207 0 0 .0082353 -.72485 18.981)" y1="366.65" x1="302.86">
   <stop stop-opacity="0" offset="0"/>
   <stop offset=".5"/>
   <stop stop-opacity="0" offset="1"/>
  </linearGradient>
  <radialGradient id="b" gradientUnits="userSpaceOnUse" cy="-5.6935" cx="1.4811" gradientTransform="matrix(.043975 3.8764 -3.3111 .037562 -7.4841 -7.9908)" r="9">
   <stop stop-color="#eca2a0" offset="0"/>
   <stop stop-color="#dc5a57" offset=".26238"/>
   <stop stop-color="#d02e2a" offset=".70495"/>
   <stop stop-color="#9d2320" offset="1"/>
  </radialGradient>
  <linearGradient id="h" y2="15" gradientUnits="userSpaceOnUse" x2="21" gradientTransform="matrix(.5 0 0 .5 -.5 0.5)" y1="29" x1="21">
   <stop stop-color="#f8dbd9" offset="0"/>
   <stop stop-color="#fff" offset="1"/>
  </linearGradient>
 </defs>
 <rect opacity=".15" height="2" width="17" y="22" x="3.5" fill="url(#e)"/>
 <path opacity=".15" d="m3.5 22v1.9999c-0.6205 0.004-1.5-0.448-1.5-1s0.6924-1 1.5-1z" fill="url(#c)"/>
 <path opacity=".15" d="m20.5 22v1.9999c0.62047 0.0038 1.5-0.44808 1.5-1.0001 0-0.552-0.6924-0.99982-1.5-0.99982z" fill="url(#d)"/>
 <path stroke-linejoin="round" d="m3.5 1.5c3.8956 0 17 0.00136 17 0.00136l0.000021 20.999h-17v-21z" stroke="url(#f)" stroke-width=".99992" fill="url(#b)"/>
 <path d="m19.5 21.5h-15v-19h15z" stroke="url(#g)" stroke-linecap="round" fill="none"/>
 <rect opacity=".4" style="color:#000000" fill-opacity="0" rx="1" ry="1" height="20" width="16" y="2" x="4"/>
 <circle cy="11.5" cx="10.5" r="3.5" fill="url(#h)"/>
 <rect fill-opacity=".76375" height="6" width="6" y="12" x="11" fill="#b5120c"/>
</svg>
