<?xml version="1.0" encoding="UTF-8" standalone="no"?>
<svg xmlns:rdf="http://www.w3.org/1999/02/22-rdf-syntax-ns#" xmlns="http://www.w3.org/2000/svg" height="24" width="24" version="1.1" xmlns:cc="http://creativecommons.org/ns#" xmlns:xlink="http://www.w3.org/1999/xlink" xmlns:dc="http://purl.org/dc/elements/1.1/">
 <defs>
  <linearGradient id="a">
   <stop offset="0"/>
   <stop stop-opacity="0" offset="1"/>
  </linearGradient>
  <linearGradient id="f" y2="43" gradientUnits="userSpaceOnUse" x2="24" gradientTransform="matrix(.40541 0 0 .51351 2.2697 -.32432)" y1="5.5641" x1="24">
   <stop stop-color="#fff" offset="0"/>
   <stop stop-color="#fff" stop-opacity=".23529" offset=".036262"/>
   <stop stop-color="#fff" stop-opacity=".15686" offset=".95056"/>
   <stop stop-color="#fff" stop-opacity=".39216" offset="1"/>
  </linearGradient>
  <linearGradient id="e" y2="47.013" gradientUnits="userSpaceOnUse" x2="25.132" gradientTransform="matrix(.48572 0 0 .45630 .34283 .34886)" y1=".98521" x1="25.132">
   <stop stop-color="#f4f4f4" offset="0"/>
   <stop stop-color="#dbdbdb" offset="1"/>
  </linearGradient>
  <radialGradient id="c" xlink:href="#a" gradientUnits="userSpaceOnUse" cy="486.65" cx="605.71" gradientTransform="matrix(.012049 0 0 .0082353 13.239 18.981)" r="117.14"/>
  <radialGradient id="b" xlink:href="#a" gradientUnits="userSpaceOnUse" cy="486.65" cx="605.71" gradientTransform="matrix(-.012049 0 0 .0082353 10.761 18.981)" r="117.14"/>
  <linearGradient id="d" y2="609.51" gradientUnits="userSpaceOnUse" x2="302.86" gradientTransform="matrix(.035207 0 0 .0082353 -.72485 18.981)" y1="366.65" x1="302.86">
   <stop stop-opacity="0" offset="0"/>
   <stop offset=".5"/>
   <stop stop-opacity="0" offset="1"/>
  </linearGradient>
 </defs>
 <rect opacity=".15" height="2" width="17" y="22" x="3.5" fill="url(#d)"/>
 <path opacity=".15" d="m3.5 22v1.9999c-0.6205 0.004-1.5-0.448-1.5-1s0.6924-1 1.5-1z" fill="url(#b)"/>
 <path opacity=".15" d="m20.5 22v1.9999c0.62047 0.0038 1.5-0.44808 1.5-1.0001 0-0.552-0.6924-0.99982-1.5-0.99982z" fill="url(#c)"/>
 <path d="m3.5 1.5c3.8956 0 17 0.00136 17 0.00136l0.000021 20.999h-17v-21z" fill="url(#e)"/>
 <path d="m19.5 21.5h-15v-19h15z" stroke="url(#f)" stroke-linecap="round" fill="none"/>
 <path opacity=".3" stroke-linejoin="round" d="m3.5 1.5c3.8956 0 17 0.00136 17 0.00136l0.000021 20.999h-17v-21z" stroke="#000" stroke-width=".99992" fill="none"/>
 <g opacity=".4" fill-rule="evenodd" transform="translate(0 1)" clip-rule="evenodd" fill="#fff">
  <polygon style="image-rendering:optimizeQuality;shape-rendering:geometricPrecision" transform="matrix(.000090120 0 0 .000090120 6 6.6055)" class="fil0" points="1.3316e5 76894 1.1096e5 1.1534e5 22194 1.1534e5 44385 76894"/>
  <polygon style="image-rendering:optimizeQuality;shape-rendering:geometricPrecision" transform="matrix(.000090120 0 0 .000090120 6 6.6055)" class="fil1" points="88772 0 44385 0 88772 76894 1.3316e5 76894"/>
  <polygon style="image-rendering:optimizeQuality;shape-rendering:geometricPrecision" transform="matrix(.000090120 0 0 .000090120 6 6.6055)" class="fil2" points="66578 38447 44385 0 0 76894 22194 1.1534e5"/>
 </g>
 <g clip-rule="evenodd" fill-rule="evenodd">
  <polygon style="image-rendering:optimizeQuality;shape-rendering:geometricPrecision" transform="matrix(.000090120 0 0 .000090120 6 6.6055)" class="fil0" points="44385 76894 1.3316e5 76894 1.1096e5 1.1534e5 22194 1.1534e5" fill="#3777e3"/>
  <polygon style="image-rendering:optimizeQuality;shape-rendering:geometricPrecision" transform="matrix(.000090120 0 0 .000090120 6 6.6055)" class="fil1" points="1.3316e5 76894 88772 0 44385 0 88772 76894" fill="#ffcf63"/>
  <polygon style="image-rendering:optimizeQuality;shape-rendering:geometricPrecision" transform="matrix(.000090120 0 0 .000090120 6 6.6055)" class="fil2" points="22194 1.1534e5 66578 38447 44385 0 0 76894" fill="#11a861"/>
 </g>
</svg>
