<?xml version="1.0" encoding="UTF-8" standalone="no"?>
<!-- Created with Inkscape (http://www.inkscape.org/) -->

<svg
   xmlns:dc="http://purl.org/dc/elements/1.1/"
   xmlns:cc="http://creativecommons.org/ns#"
   xmlns:rdf="http://www.w3.org/1999/02/22-rdf-syntax-ns#"
   xmlns:svg="http://www.w3.org/2000/svg"
   xmlns="http://www.w3.org/2000/svg"
   xmlns:sodipodi="http://sodipodi.sourceforge.net/DTD/sodipodi-0.dtd"
   xmlns:inkscape="http://www.inkscape.org/namespaces/inkscape"
   version="1.0"
   width="22"
   height="22"
   id="svg3291"
   inkscape:version="0.91 r13725"
   sodipodi:docname="simplescreenrecorder.svg">
  <sodipodi:namedview
     pagecolor="#ffffff"
     bordercolor="#666666"
     borderopacity="1"
     objecttolerance="10"
     gridtolerance="10"
     guidetolerance="10"
     inkscape:pageopacity="0"
     inkscape:pageshadow="2"
     inkscape:window-width="1366"
     inkscape:window-height="745"
     id="namedview43"
     showgrid="true"
     inkscape:zoom="22.627417"
     inkscape:cx="2.8926913"
     inkscape:cy="5.7506067"
     inkscape:window-x="1672"
     inkscape:window-y="274"
     inkscape:window-maximized="1"
     inkscape:current-layer="svg3291">
    <inkscape:grid
       type="xygrid"
       id="grid3025"
       empspacing="5"
       visible="true"
       enabled="true"
       snapvisiblegridlinesonly="true" />
  </sodipodi:namedview>
  <metadata
     id="metadata44">
    <rdf:RDF>
      <cc:Work
         rdf:about="">
        <dc:format>image/svg+xml</dc:format>
        <dc:type
           rdf:resource="http://purl.org/dc/dcmitype/StillImage" />
        <dc:title />
      </cc:Work>
    </rdf:RDF>
  </metadata>
  <defs
     id="defs3293" />
  <path
     style="fill:#f9f9f9;fill-opacity:1;fill-rule:nonzero;stroke:none;stroke-width:0.99827474;marker:none;visibility:visible;display:inline;overflow:visible;enable-background:new"
     d="M 3.3478262,3.0000002 C 3.150849,3.0000002 3,3.176302 3,3.3809526 L 3,14.809524 c 0,0.20465 0.150849,0.380952 0.3478262,0.380952 l 5.2173913,0 c 0,0 0.1581028,1.634423 0,1.904763 C 8.2921488,17.562158 7.4565219,17.476191 7.4565219,17.476191 7.0928251,17.524351 7.0898164,19 7.4565219,19 l 7.0869561,0 c 0.366706,0 0.363773,-1.476265 0,-1.523809 0,0 -0.805629,0.06323 -1.108696,-0.380952 -0.170998,-0.250618 0,-1.904763 0,-1.904763 l 5.217392,0 C 18.849151,15.190476 19,15.014174 19,14.809524 L 19,3.3809526 C 19,3.176302 18.849151,3.0000002 18.652174,3.0000002 l -15.3043479,0 z m 0.695652,1.1428571 13.9130438,0 0,9.9047617 -13.9130438,0 0,-9.9047617 z"
     id="rect1789"
     inkscape:connector-curvature="0" />
</svg>
