<?xml version="1.0" encoding="UTF-8" standalone="no"?>
<svg
   xmlns:dc="http://purl.org/dc/elements/1.1/"
   xmlns:cc="http://creativecommons.org/ns#"
   xmlns:rdf="http://www.w3.org/1999/02/22-rdf-syntax-ns#"
   xmlns:svg="http://www.w3.org/2000/svg"
   xmlns="http://www.w3.org/2000/svg"
   xmlns:xlink="http://www.w3.org/1999/xlink"
   id="svg7107"
   height="22"
   width="22"
   version="1.1">
  <defs
     id="defs7109">
    <linearGradient
       id="linearGradient3924-64">
      <stop
         offset="0"
         style="stop-color:#ffffff;stop-opacity:1"
         id="stop3926-3-6" />
      <stop
         offset="0.06316455"
         style="stop-color:#ffffff;stop-opacity:0.23529412"
         id="stop3928-0" />
      <stop
         offset="0.95056331"
         style="stop-color:#ffffff;stop-opacity:0.15686275"
         id="stop3930-3-59" />
      <stop
         offset="1"
         style="stop-color:#ffffff;stop-opacity:0.39215687"
         id="stop3932-0" />
    </linearGradient>
    <linearGradient
       id="linearGradient2867-449-88-871-390-598-476-591-434-148-57-177-8-3-3-6-4-8-8-8">
      <stop
         offset="0"
         style="stop-color:#ffcd7d;stop-opacity:1"
         id="stop3750-1-0-7-6-6-1-3-9" />
      <stop
         offset="0.26238"
         style="stop-color:#fc8f36;stop-opacity:1"
         id="stop3752-3-7-4-0-32-8-923-0" />
      <stop
         offset="0.704952"
         style="stop-color:#e23a0e;stop-opacity:1"
         id="stop3754-1-8-5-2-7-6-7-1" />
      <stop
         offset="1"
         style="stop-color:#ac441f;stop-opacity:1"
         id="stop3756-1-6-2-6-6-1-96-6" />
    </linearGradient>
    <radialGradient
       gradientTransform="matrix(2.003784,0,0,1.4,27.98813,-17.4)"
       gradientUnits="userSpaceOnUse"
       xlink:href="#linearGradient3688-166-749-9"
       id="radialGradient3082-6"
       fy="43.5"
       fx="4.9929786"
       r="2.5"
       cy="43.5"
       cx="4.9929786" />
    <linearGradient
       id="linearGradient3688-166-749-9">
      <stop
         offset="0"
         style="stop-color:#181818;stop-opacity:1"
         id="stop2883-2" />
      <stop
         offset="1"
         style="stop-color:#181818;stop-opacity:0"
         id="stop2885-2" />
    </linearGradient>
    <radialGradient
       gradientTransform="matrix(2.003784,0,0,1.4,-20.01187,-104.4)"
       gradientUnits="userSpaceOnUse"
       xlink:href="#linearGradient3688-464-309-7-6"
       id="radialGradient3084-4"
       fy="43.5"
       fx="4.9929786"
       r="2.5"
       cy="43.5"
       cx="4.9929786" />
    <linearGradient
       id="linearGradient3688-464-309-7-6">
      <stop
         offset="0"
         style="stop-color:#181818;stop-opacity:1"
         id="stop2889-75" />
      <stop
         offset="1"
         style="stop-color:#181818;stop-opacity:0"
         id="stop2891-4-9" />
    </linearGradient>
    <linearGradient
       gradientUnits="userSpaceOnUse"
       xlink:href="#linearGradient3702-501-757-1"
       id="linearGradient3086-8"
       y2="39.999443"
       x2="25.058096"
       y1="47.027729"
       x1="25.058096" />
    <linearGradient
       id="linearGradient3702-501-757-1">
      <stop
         offset="0"
         style="stop-color:#181818;stop-opacity:0"
         id="stop2895-2" />
      <stop
         offset="0.5"
         style="stop-color:#181818;stop-opacity:1"
         id="stop2897-89" />
      <stop
         offset="1"
         style="stop-color:#181818;stop-opacity:0"
         id="stop2899-36" />
    </linearGradient>
    <linearGradient
       gradientTransform="matrix(0.45945947,0,0,0.45945947,-0.02577919,-0.02827736)"
       gradientUnits="userSpaceOnUse"
       xlink:href="#linearGradient3924-64"
       id="linearGradient3110"
       y2="43"
       x2="23.99999"
       y1="4.999989"
       x1="23.99999" />
    <radialGradient
       gradientTransform="matrix(0,4.6270127,-5.6804933,0,67.966161,-39.745092)"
       gradientUnits="userSpaceOnUse"
       xlink:href="#linearGradient2867-449-88-871-390-598-476-591-434-148-57-177-8-3-3-6-4-8-8-8"
       id="radialGradient3118"
       fy="9.9571075"
       fx="6.2001843"
       r="12.671875"
       cy="9.9571075"
       cx="6.7304144" />
  </defs>
  <metadata
     id="metadata7112">
    <rdf:RDF>
      <cc:Work
         rdf:about="">
        <dc:format>image/svg+xml</dc:format>
        <dc:type
           rdf:resource="http://purl.org/dc/dcmitype/StillImage" />
        <dc:title></dc:title>
      </cc:Work>
    </rdf:RDF>
  </metadata>
  <rect
     style="color:#000000;display:inline;overflow:visible;visibility:visible;fill:url(#radialGradient3118);fill-opacity:1;fill-rule:nonzero;stroke:none;stroke-width:0.99999994;marker:none;enable-background:accumulate"
     id="rect5505-21-8"
     y="1.4999981"
     x="1.5"
     ry="1"
     rx="1"
     height="19.000002"
     width="19.000002" />
  <rect
     style="opacity:0.5;fill:none;stroke:url(#linearGradient3110);stroke-width:0.99999988;stroke-linecap:round;stroke-linejoin:round;stroke-miterlimit:4;stroke-dasharray:none;stroke-dashoffset:0;stroke-opacity:1"
     id="rect6741-9"
     y="2.4987459"
     x="2.5012512"
     height="17"
     width="17" />
  <rect
     style="color:#000000;display:inline;overflow:visible;visibility:visible;opacity:0.4;fill:none;stroke:#640000;stroke-width:1;stroke-linecap:round;stroke-linejoin:round;stroke-miterlimit:4;stroke-dasharray:none;stroke-dashoffset:0;stroke-opacity:1;marker:none;enable-background:accumulate"
     id="rect5505-21-8-1"
     y="1.4999981"
     x="1.5"
     ry="1"
     rx="1"
     height="19.000002"
     width="19.000002" />
  <path
     id="path4383"
     d="M 3.9108819,13.199593 C 3.6439855,12.889527 3.4822831,12.486429 3.4822831,12.045277 c 0,-0.441149 0.1617024,-0.84425 0.4285988,-1.154216 z m 0.7602723,0.51799 C 4.5055136,13.659892 4.3510971,13.578573 4.2118886,13.47722 l 0,-2.863885 c 0.1392085,-0.101357 0.293625,-0.182721 0.4592656,-0.240364 z m 0.903172,0.0983 -0.3214863,0 c -0.077873,0 -0.1544158,-0.0055 -0.2295824,-0.01536 l 0,-3.510449 c 0.075168,-0.0097 0.1517108,-0.01531 0.2295824,-0.01531 0.1097713,0 0.2171803,0.01009 0.3214863,0.02928 z m 0.9490005,0 -0.6123048,0 0,-3.41397 c 0.1078515,0.04327 0.210534,0.09664 0.3066697,0.159242 0.0634,-0.267487 0.1678556,-0.518975 0.3056351,-0.7481637 z m 0.94905,0 -0.6122564,0 0,-4.4486687 C 7.0385106,9.1765683 7.2446625,9.0124053 7.4723767,8.8812228 Z m 0.9796657,0 -0.6122545,0 0,-5.1099512 C 8.0339288,8.6311124 8.2389,8.5782945 8.4520424,8.5511221 Z m 0.9796677,0 -0.6122534,0 0,-5.2856832 c 0.2109252,0.00241 0.4159464,0.029437 0.6122534,0.078514 z m 0.9796659,0 -0.612254,0 0,-5.0858311 c 0.08461,0.03505 0.167166,0.074083 0.247059,0.1173514 0.10647,-0.1744519 0.228942,-0.3380746 0.365245,-0.4890463 l -5e-5,5.457526 z m 0.949147,0 -0.612352,0 0,-5.7806357 c 0.187497,-0.1561405 0.392763,-0.2916555 0.612255,-0.4030999 l 0,6.1837356 z m 5.487604,0 -5.130576,0 0,-6.3388914 c 0.196012,-0.071524 0.400835,-0.1247844 0.612254,-0.1578141 0.165444,-0.025794 0.335022,-0.039576 0.507654,-0.039576 1.717345,0 3.125118,1.3245837 3.257877,3.0078155 0.229928,-0.102929 0.484517,-0.160668 0.752691,-0.160668 1.018702,0 1.844544,0.82579 1.844544,1.844544 5e-5,1.018751 -0.825741,1.84459 -1.844444,1.84459 z"
     style="fill:#ae2109;fill-opacity:0.16862745" />
  <path
     id="path3105"
     d="M 3.9108819,13.900022 C 3.6439855,13.589956 3.4822831,13.186856 3.4822831,12.745706 c 0,-0.441151 0.1617024,-0.844251 0.4285988,-1.154217 z m 0.7602723,0.517989 C 4.5055136,14.36032 4.3510971,14.279001 4.2118886,14.177649 l 0,-2.863886 c 0.1392085,-0.101357 0.293625,-0.182722 0.4592656,-0.240364 z m 0.903172,0.0983 -0.3214863,0 c -0.077873,0 -0.1544158,-0.0055 -0.2295824,-0.01536 l 0,-3.51045 c 0.075168,-0.0097 0.1517108,-0.0153 0.2295824,-0.0153 0.1097713,0 0.2171803,0.01009 0.3214863,0.02928 z m 0.9490005,0 -0.6123048,0 0,-3.413971 c 0.1078515,0.04327 0.210534,0.09664 0.3066697,0.159242 0.0634,-0.267485 0.1678556,-0.518974 0.3056351,-0.748164 z m 0.94905,0 -0.6122564,0 0,-4.448671 C 7.0385106,9.8769933 7.2446625,9.7128303 7.4723767,9.5816463 Z m 0.9796657,0 -0.6122545,0 0,-5.1099537 C 8.0339288,9.3315373 8.2389,9.2787193 8.4520424,9.2515473 Z m 0.9796677,0 -0.6122534,0 0,-5.2856847 c 0.2109252,0.0024 0.4159464,0.02944 0.6122534,0.07852 z m 0.9796659,0 -0.612254,0 0,-5.0858327 c 0.08461,0.03505 0.167166,0.07408 0.247059,0.117352 0.10647,-0.174452 0.228942,-0.338074 0.365245,-0.489046 l -5e-5,5.4575257 z m 0.949147,0 -0.612352,0 0,-5.7806373 c 0.187497,-0.1561358 0.392763,-0.2916511 0.612255,-0.4030955 l 0,6.1837368 z m 5.487604,0 -5.130576,0 0,-6.3388927 c 0.196012,-0.071524 0.400835,-0.1247842 0.612254,-0.1578138 0.165444,-0.025795 0.335022,-0.039576 0.507654,-0.039576 1.717345,0 3.125118,1.3245838 3.257877,3.0078165 0.229928,-0.10293 0.484517,-0.160669 0.752691,-0.160669 1.018702,0 1.844544,0.825791 1.844544,1.844542 5e-5,1.018751 -0.825741,1.844593 -1.844444,1.844593 z"
     style="fill:#ae2109;fill-opacity:0.62745098" />
  <path
     style="fill:#f4f4f4;fill-opacity:0.944"
     d="M 3.9108819,13.549807 C 3.6439855,13.239741 3.4822831,12.836641 3.4822831,12.395492 c 0,-0.441151 0.1617024,-0.84425 0.4285988,-1.154217 z m 0.7602723,0.51799 C 4.5055136,14.010104 4.3510971,13.928787 4.2118886,13.827434 l 0,-2.863884 c 0.1392085,-0.101357 0.293625,-0.182722 0.4592656,-0.240363 z m 0.903172,0.0983 -0.3214863,0 c -0.077873,0 -0.1544158,-0.0055 -0.2295824,-0.01536 l 0,-3.51045 c 0.075168,-0.0097 0.1517108,-0.0153 0.2295824,-0.0153 0.1097713,0 0.2171803,0.01009 0.3214863,0.02928 z m 0.9490005,0 -0.6123048,0 0,-3.41397 c 0.1078515,0.04327 0.210534,0.09663 0.3066697,0.159242 0.0634,-0.267486 0.1678556,-0.518976 0.3056351,-0.748164 z m 0.94905,0 -0.6122564,0 0,-4.4486697 c 0.1783903,-0.190646 0.3845422,-0.354811 0.6122564,-0.485995 z m 0.9796657,0 -0.6122545,0 0,-5.1099507 C 8.0339288,8.9813252 8.2389,8.9285089 8.4520424,8.9013357 Z m 0.9796677,0 -0.6122534,0 0,-5.2856832 c 0.2109252,0.00242 0.4159464,0.029442 0.6122534,0.078509 z m 0.9796659,0 -0.612254,0 0,-5.0858307 c 0.08461,0.03505 0.167166,0.07408 0.247059,0.117351 0.10647,-0.174453 0.228942,-0.3380745 0.365245,-0.4890461 l -5e-5,5.4575238 z m 0.949147,0 -0.612352,0 0,-5.7806359 c 0.187497,-0.1561414 0.392763,-0.2916564 0.612255,-0.4031008 l 0,6.1837357 z m 5.487604,0 -5.130576,0 0,-6.3388915 c 0.196012,-0.071525 0.400835,-0.1247843 0.612254,-0.157814 0.165444,-0.025794 0.335022,-0.039576 0.507654,-0.039576 1.717345,0 3.125118,1.3245828 3.257877,3.0078155 0.229928,-0.102929 0.484517,-0.160668 0.752691,-0.160668 1.018702,0 1.844544,0.825791 1.844544,1.844541 5e-5,1.018754 -0.825741,1.844592 -1.844444,1.844592 z"
     id="soundcloud-square-icon" />
</svg>
