<?xml version="1.0" encoding="UTF-8" standalone="no"?>
<!-- Created with Inkscape (http://www.inkscape.org/) -->

<svg
   xmlns:osb="http://www.openswatchbook.org/uri/2009/osb"
   xmlns:dc="http://purl.org/dc/elements/1.1/"
   xmlns:cc="http://creativecommons.org/ns#"
   xmlns:rdf="http://www.w3.org/1999/02/22-rdf-syntax-ns#"
   xmlns:svg="http://www.w3.org/2000/svg"
   xmlns="http://www.w3.org/2000/svg"
   xmlns:xlink="http://www.w3.org/1999/xlink"
   xmlns:sodipodi="http://sodipodi.sourceforge.net/DTD/sodipodi-0.dtd"
   xmlns:inkscape="http://www.inkscape.org/namespaces/inkscape"
   sodipodi:docname="folder-games.svg"
   inkscape:version="0.48.4 r9939"
   id="svg27224"
   height="128"
   width="128"
   version="1.1">
  <sodipodi:namedview
     pagecolor="#ffffff"
     bordercolor="#666666"
     borderopacity="1"
     objecttolerance="10"
     gridtolerance="10"
     guidetolerance="10"
     inkscape:pageopacity="0"
     inkscape:pageshadow="2"
     inkscape:window-width="1920"
     inkscape:window-height="1025"
     id="namedview64"
     showgrid="true"
     inkscape:zoom="4"
     inkscape:cx="40.021581"
     inkscape:cy="29.415125"
     inkscape:window-x="0"
     inkscape:window-y="30"
     inkscape:window-maximized="1"
     inkscape:current-layer="layer1"
     inkscape:object-paths="true"
     inkscape:snap-intersection-paths="true"
     inkscape:snap-nodes="false"
     inkscape:snap-grids="true"
     showguides="true"
     inkscape:guide-bbox="true"
     inkscape:snap-global="false">
    <inkscape:grid
       type="xygrid"
       id="grid4397" />
  </sodipodi:namedview>
  <defs
     id="defs27226">
    <linearGradient
       id="linearGradient4574"
       osb:paint="solid">
      <stop
         style="stop-color:#fffeff;stop-opacity:1;"
         offset="0"
         id="stop4576" />
    </linearGradient>
    <linearGradient
       x1="97.538795"
       y1="16.962049"
       x2="97.538795"
       y2="44.260689"
       id="linearGradient22260"
       xlink:href="#linearGradient8272"
       gradientUnits="userSpaceOnUse"
       gradientTransform="matrix(2.6658408,0,0,2.7170994,-143.33284,-69.198823)" />
    <linearGradient
       id="linearGradient8272">
      <stop
         id="stop8274"
         style="stop-color:#ffffff;stop-opacity:1"
         offset="0" />
      <stop
         id="stop8276"
         style="stop-color:#ffffff;stop-opacity:0.23529412"
         offset="0.0221225" />
      <stop
         id="stop8278"
         style="stop-color:#ffffff;stop-opacity:0.15686275"
         offset="0.97909725" />
      <stop
         id="stop8280"
         style="stop-color:#ffffff;stop-opacity:0.39215687"
         offset="1" />
    </linearGradient>
    <linearGradient
       x1="22.934725"
       y1="49.629246"
       x2="22.934725"
       y2="36.599415"
       id="linearGradient22256"
       xlink:href="#linearGradient6129-963-697-142-998-580-273"
       gradientUnits="userSpaceOnUse"
       gradientTransform="matrix(3.036796,0,0,2.6909701,-8.8831134,-65.364613)" />
    <linearGradient
       id="linearGradient6129-963-697-142-998-580-273">
      <stop
         id="stop2661"
         style="stop-color:#0a0a0a;stop-opacity:0.498"
         offset="0" />
      <stop
         id="stop2663"
         style="stop-color:#0a0a0a;stop-opacity:0"
         offset="1" />
    </linearGradient>
    <linearGradient
       x1="-91"
       y1="43.999817"
       x2="-91"
       y2="119.05979"
       id="linearGradient22252"
       xlink:href="#linearGradient4632-0-6-4"
       gradientUnits="userSpaceOnUse"
       gradientTransform="matrix(1,0,0,1.0266674,147,-70.186593)" />
    <linearGradient
       id="linearGradient4632-0-6-4">
      <stop
         id="stop4634-4-4-7"
         style="stop-color:#b4cee1;stop-opacity:1"
         offset="0" />
      <stop
         id="stop4636-3-1-5"
         style="stop-color:#5d9fcd;stop-opacity:1"
         offset="1" />
    </linearGradient>
    <linearGradient
       x1="302.85715"
       y1="366.64789"
       x2="302.85715"
       y2="609.50507"
       id="linearGradient22244"
       xlink:href="#linearGradient5048-585"
       gradientUnits="userSpaceOnUse"
       gradientTransform="matrix(0.2134205,0,0,0.06641689,-13.147881,75.518568)" />
    <linearGradient
       id="linearGradient5048-585">
      <stop
         id="stop2667"
         style="stop-color:#000000;stop-opacity:0"
         offset="0" />
      <stop
         id="stop2669"
         style="stop-color:#000000;stop-opacity:1"
         offset="0.5" />
      <stop
         id="stop2671"
         style="stop-color:#000000;stop-opacity:0"
         offset="1" />
    </linearGradient>
    <radialGradient
       cx="605.71429"
       cy="486.64789"
       r="117.14286"
       fx="605.71429"
       fy="486.64789"
       id="radialGradient22246"
       xlink:href="#linearGradient5060-179"
       gradientUnits="userSpaceOnUse"
       gradientTransform="matrix(0.08277507,0,0,0.06641689,65.628912,75.518568)" />
    <linearGradient
       id="linearGradient5060-179">
      <stop
         id="stop2675"
         style="stop-color:#000000;stop-opacity:1"
         offset="0" />
      <stop
         id="stop2677"
         style="stop-color:#000000;stop-opacity:0"
         offset="1" />
    </linearGradient>
    <radialGradient
       cx="605.71429"
       cy="486.64789"
       r="117.14286"
       fx="605.71429"
       fy="486.64789"
       id="radialGradient22248"
       xlink:href="#linearGradient5060-820"
       gradientUnits="userSpaceOnUse"
       gradientTransform="matrix(-0.08277505,0,0,0.06641689,62.347829,75.518568)" />
    <linearGradient
       id="linearGradient5060-820">
      <stop
         id="stop2681"
         style="stop-color:#000000;stop-opacity:1"
         offset="0" />
      <stop
         id="stop2683"
         style="stop-color:#000000;stop-opacity:0"
         offset="1" />
    </linearGradient>
    <linearGradient
       x1="97.538795"
       y1="8.8103228"
       x2="97.538795"
       y2="44.260689"
       id="linearGradient22234"
       xlink:href="#linearGradient9235"
       gradientUnits="userSpaceOnUse"
       gradientTransform="matrix(2.6658408,0,0,2.6469079,-143.33284,-66.049513)" />
    <linearGradient
       id="linearGradient9235">
      <stop
         id="stop9237"
         style="stop-color:#ffffff;stop-opacity:1"
         offset="0" />
      <stop
         id="stop9239"
         style="stop-color:#ffffff;stop-opacity:0.23529412"
         offset="0.1088333" />
      <stop
         id="stop9241"
         style="stop-color:#ffffff;stop-opacity:0.15686275"
         offset="0.97909725" />
      <stop
         id="stop9243"
         style="stop-color:#ffffff;stop-opacity:0.39215687"
         offset="1" />
    </linearGradient>
    <linearGradient
       x1="-51.786404"
       y1="53.514328"
       x2="-51.786404"
       y2="3.6336823"
       id="linearGradient22230"
       xlink:href="#linearGradient3104-8-8-97-4-6-11-5-5-1-0"
       gradientUnits="userSpaceOnUse"
       gradientTransform="matrix(2.1683519,0,0,2.2464645,141.9485,-68.590473)" />
    <linearGradient
       id="linearGradient3104-8-8-97-4-6-11-5-5-1-0">
      <stop
         id="stop3106-5-4-3-5-0-2-1-0-1-2"
         style="stop-color:#000000;stop-opacity:0.32173914"
         offset="0" />
      <stop
         id="stop3108-4-3-7-8-2-0-7-9-4-9"
         style="stop-color:#000000;stop-opacity:0.27826086"
         offset="1" />
    </linearGradient>
    <linearGradient
       id="linearGradient6404-7-5">
      <stop
         id="stop6406-1-8"
         style="stop-color:#f9f9f9;stop-opacity:1"
         offset="0" />
      <stop
         id="stop6408-9-6"
         style="stop-color:#c9c9c9;stop-opacity:1"
         offset="1" />
    </linearGradient>
    <linearGradient
       x1="62.988873"
       y1="14.090554"
       x2="62.988873"
       y2="16.997795"
       id="linearGradient27222"
       xlink:href="#linearGradient6404-7-5"
       gradientUnits="userSpaceOnUse"
       gradientTransform="matrix(2.7209303,0,0,2.6722576,-117.22021,-66.213873)" />
  </defs>
  <metadata
     id="metadata27229">
    <rdf:RDF>
      <cc:Work
         rdf:about="">
        <dc:format>image/svg+xml</dc:format>
        <dc:type
           rdf:resource="http://purl.org/dc/dcmitype/StillImage" />
        <dc:title />
      </cc:Work>
    </rdf:RDF>
  </metadata>
  <g
     transform="translate(0,64)"
     id="layer1">
    <path
       d="m 12.999997,-42.968593 c -1.108,0 -2,0.892 -2,2 l 0,5.96875 -3.0000004,0 c -1.108,0 -2,0.892 -2,2 l 0,11 c 0,1.108 0.892,2 2,2 l 112.0000034,0 c 1.108,0 2,-0.892 2,-2 l 0,-11 c 0,-1.108 -0.892,-2 -2,-2 l -63.000002,0 0,-5.96875 c 0,-1.108 -0.892,-2 -2,-2 l -42.000001,0 z"
       inkscape:connector-curvature="0"
       id="use12083"
       style="color:#000000;fill:url(#linearGradient27222);fill-opacity:1;fill-rule:nonzero;stroke:none;stroke-width:1.00000012;marker:none;visibility:visible;display:inline;overflow:visible;enable-background:accumulate" />
    <path
       d="m 13.662787,-43.499683 c -1.87818,0.0205 -3.16279,0.9143 -3.16279,2.67225 l 0,5.32743 c -0.9606004,0 -1.4771004,-0.003 -2.1044004,0 -1.67856,0.008 -2.87762,0.94491 -2.87762,2.83298 0.0936,27.4976499 -0.018,28.9219399 -0.018,31.2565499 3.90581,0 117.0000034,-9.8866399 117.0000034,-14.1422999 l 0,-17.14209 c 0,-1.75796 -1.15786,-2.82564 -3.03605,-2.80514 l -61.963952,0 0,-5.19887 c 0,-1.75795 -1.18743,-2.80081 -2.94827,-2.80081 l -40.888941,0 z"
       inkscape:connector-curvature="0"
       id="use12085"
       style="opacity:0.8;color:#000000;fill:none;stroke:url(#linearGradient22230);stroke-width:1;stroke-linecap:butt;stroke-linejoin:miter;stroke-miterlimit:4;stroke-opacity:1;stroke-dasharray:none;stroke-dashoffset:0;marker:none;visibility:visible;display:inline;overflow:visible;enable-background:accumulate" />
    <path
       d="m 13.499997,-42.499843 c -1.108,0 -2,0.892 -2,2 l 0,6 -3.0000004,0 c -1.108,0 -2,0.892 -2,2 l 0,11 c 0,1.108 0.892,2 2,2 l 111.0000034,0 c 1.108,0 2,-0.892 2,-2 l 0,-11 c 0,-1.108 -0.892,-2 -2,-2 l -63.000002,0 0,-6 c 0,-1.108 -0.892,-2 -2,-2 l -41.000001,0 z"
       inkscape:connector-curvature="0"
       id="use12087"
       style="color:#000000;fill:none;stroke:url(#linearGradient22234);stroke-width:0.99999982;stroke-linecap:round;stroke-linejoin:round;stroke-miterlimit:4;stroke-opacity:1;stroke-dasharray:none;stroke-dashoffset:0;marker:none;visibility:visible;display:inline;overflow:visible;enable-background:accumulate" />
    <g
       transform="matrix(1.0027339,0,0,0.9919518,-0.16331336,-57.066403)"
       id="use12089">
      <rect
         width="103.05159"
         height="16.129816"
         x="12.462574"
         y="99.870178"
         id="rect22238"
         style="opacity:0.3;fill:url(#linearGradient22244);fill-opacity:1;fill-rule:nonzero;stroke:none;stroke-width:1;marker:none;visibility:visible;display:inline;overflow:visible" />
      <path
         d="m 115.51417,99.870734 c 0,0 0,16.128926 0,16.128926 4.26271,0.0304 10.30516,-3.61367 10.30516,-8.0655 0,-4.45183 -4.75687,-8.063426 -10.30516,-8.063426 z"
         inkscape:connector-curvature="0"
         id="path22240"
         style="opacity:0.3;fill:url(#radialGradient22246);fill-opacity:1;fill-rule:nonzero;stroke:none;stroke-width:1;marker:none;visibility:visible;display:inline;overflow:visible" />
      <path
         d="m 12.462574,99.870734 c 0,0 0,16.128926 0,16.128926 -4.2627113,0.0304 -10.3051588,-3.61367 -10.3051588,-8.0655 0,-4.45183 4.7568636,-8.063426 10.3051588,-8.063426 z"
         inkscape:connector-curvature="0"
         id="path22242"
         style="opacity:0.3;fill:url(#radialGradient22248);fill-opacity:1;fill-rule:nonzero;stroke:none;stroke-width:1;marker:none;visibility:visible;display:inline;overflow:visible" />
    </g>
    <path
       d="m 6.2499966,-24.500053 115.4999934,0.001 c 1.66861,0 2.75001,1.18375 2.75001,2.65543 l -2.71648,71.78068 c 0.0386,1.86211 -0.55015,2.60044 -2.48884,2.56139 L 9.3616366,52.451747 c -1.66859,0 -3.35116,-1.09895 -3.35116,-2.57064 l -2.51048,-71.72469 c 0,-1.47169 1.0814,-2.65647 2.75,-2.65647 z"
       inkscape:connector-curvature="0"
       id="use12091"
       style="fill:url(#linearGradient22252);fill-opacity:1;fill-rule:nonzero;stroke:none;stroke-width:0.99999982;marker:none;visibility:visible;display:inline;overflow:visible;enable-background:accumulate" />
    <path
       d="m 6.2499966,-23.499853 c -2.84882,0.29656 -1.40933,3.76689 -1.63989,5.72017 0.78584,22.5479499 1.57466,45.09583 2.35864,67.64381 1.18868,2.48974 4.4300904,1.28205 6.6383204,1.57433 35.235141,0.0205 70.470291,0.0412 105.705433,0.0617 2.566,-0.16531 1.15721,-3.81803 1.65357,-5.65555 0.85465,-22.56949 2.54292,-67.57135 2.54292,-67.57135 0,-1.16209 -0.77992,-1.7731 -2.20738,-1.7731 -37.089312,0 -77.962302,0 -115.0516134,0 z"
       inkscape:connector-curvature="0"
       id="use12095"
       style="opacity:0.5;fill:none;stroke:url(#linearGradient22260);stroke-width:0.99999988;stroke-linecap:round;stroke-linejoin:round;stroke-miterlimit:4;stroke-opacity:1;stroke-dasharray:none;stroke-dashoffset:0;marker:none;visibility:visible;display:inline;overflow:visible;enable-background:accumulate" />
    <path
       d="m 6.2499966,-24.500053 115.4999934,0.001 c 1.66861,0 2.75001,1.18375 2.75001,2.65543 l -2.71648,71.78068 c 0.0386,1.86211 -0.55015,2.60044 -2.48884,2.56139 L 9.3616366,52.451747 c -1.66859,0 -3.35116,-1.09895 -3.35116,-2.57064 l -2.51048,-71.72469 c 0,-1.47169 1.0814,-2.65647 2.75,-2.65647 z"
       inkscape:connector-curvature="0"
       id="path3369-7-2"
       style="opacity:0.3;fill:none;stroke:#000000;stroke-width:0.99999982;stroke-linecap:round;stroke-linejoin:round;stroke-miterlimit:4;stroke-opacity:1;stroke-dasharray:none;stroke-dashoffset:0;marker:none;visibility:visible;display:inline;overflow:visible;enable-background:accumulate" />
    <path
       inkscape:connector-curvature="0"
       id="path4215"
       d="m 49.686388,-0.29169436 c -0.74205,0.001557 -1.107207,0.0896823 -1.8594,0.34773219 -0.623475,0.21389085 -1.52874,0.61605324 -2.009115,0.89830831 -1.302759,0.76546536 -3.832965,3.35328876 -4.96485,5.07592486 -2.322918,3.5352963 -4.121802,8.272205 -5.051772,13.291099 -0.396594,2.14035 -0.400023,6.977911 -0.0045,8.258642 0.653571,2.118103 1.627569,3.279873 3.477321,4.153468 2.009745,0.949154 4.264812,0.733214 6.925671,-0.661657 2.067102,-1.083613 3.54402,-2.255322 6.239862,-4.950355 3.981897,-3.980702 4.10778,-4.021518 12.112668,-4.01824 8.391672,0.0034 7.973793,-0.160666 13.073769,5.196666 3.621888,3.804659 7.386993,5.590039 10.52856,4.99865 1.830726,-0.344625 3.756096,-1.746249 4.49154,-3.269649 0.703548,-1.457338 0.823014,-2.281042 0.811377,-5.534738 -0.0095,-2.66309 -0.06183,-3.247407 -0.434664,-5.022799 C 91.962547,13.422913 90.258433,9.1513565 87.932437,5.7211757 86.941357,4.2596061 84.312862,1.6284413 83.165614,0.95434614 82.685239,0.67209107 81.779965,0.26992868 81.15649,0.05603783 c -1.002924,-0.3440664 -1.32201,-0.38283615 -2.757708,-0.3235842 -1.939833,0.0800586 -3.396276,0.52362612 -6.42339,1.96082347 -3.153141,1.4970322 -4.051044,1.7378885 -6.833907,1.8255943 -3.398031,0.107097 -4.401,-0.113594 -7.993008,-1.7724685 -3.304026,-1.52587531 -4.6323,-1.93404961 -6.568272,-2.01394927 -0.358929,-0.0148212 -0.646128,-0.0246708 -0.893484,-0.0241479 z M 78.55783,4.2867801 c 1.320255,0 2.390652,1.0704018 2.390652,2.3906592 0,1.3202575 -1.070397,2.3906592 -2.390652,2.3906592 -1.320264,0 -2.390661,-1.0704017 -2.390661,-2.3906592 0,-1.3202574 1.070397,-2.3906592 2.390661,-2.3906592 z M 50.116228,5.2478734 c 0.897849,-0.036781 1.804509,0.4271575 2.091222,1.4971805 l 0,3.7139731 3.713976,0 c 2.164023,0.579849 2.303829,3.53616 0,4.15347 l -3.689829,0 0,3.631869 c -0.615339,2.296481 -3.747744,2.117086 -4.14864,0 l -0.05796,-3.602892 -3.627045,0 c -1.998648,-0.64232 -2.042325,-3.572266 0,-4.153469 l 3.684996,0 0,-3.7429511 C 48.330241,5.8221586 49.21837,5.2846542 50.116219,5.2478734 z M 73.201786,9.613845 c 1.320255,0 2.390661,1.070402 2.390661,2.390659 0,1.320258 -1.070406,2.39066 -2.390661,2.39066 -1.320255,0 -2.390661,-1.070402 -2.390661,-2.39066 0,-1.320257 1.070406,-2.390659 2.390661,-2.390659 z m 10.765206,0 c 1.320264,0 2.390661,1.070402 2.390661,2.390659 0,1.320258 -1.070397,2.39066 -2.390661,2.39066 -1.320255,0 -2.390652,-1.070402 -2.390652,-2.39066 0,-1.320257 1.070397,-2.390659 2.390652,-2.390659 z m -5.409162,5.409169 c 1.320255,0 2.390652,1.070401 2.390652,2.390659 0,1.320257 -1.070397,2.390659 -2.390652,2.390659 -1.320264,0 -2.390661,-1.070402 -2.390661,-2.390659 0,-1.320258 1.070397,-2.390659 2.390661,-2.390659 z"
       style="fill:#ffffff;fill-opacity:1;stroke:#000000;stroke-width:0.01545476000000000;stroke-miterlimit:4;stroke-opacity:1;stroke-dasharray:none;opacity:0.3" />
    <path
       style="fill:#175785;fill-opacity:0.55294118;stroke:#000000;stroke-width:0.01545476;stroke-miterlimit:4;stroke-opacity:1;stroke-dasharray:none"
       d="m 49.686388,-1.2916944 c -0.74205,0.00156 -1.107207,0.089682 -1.8594,0.34773223 -0.623475,0.21389085 -1.52874,0.61605324 -2.009115,0.89830831 -1.302759,0.76546536 -3.832965,3.35328876 -4.96485,5.07592486 -2.322918,3.5352963 -4.121802,8.272205 -5.051772,13.291099 -0.396594,2.14035 -0.400023,6.977911 -0.0045,8.258642 0.653571,2.118103 1.627569,3.279873 3.477321,4.153468 2.009745,0.949154 4.264812,0.733214 6.925671,-0.661657 2.067102,-1.083613 3.54402,-2.255322 6.239862,-4.950355 3.981897,-3.980702 4.10778,-4.021518 12.112668,-4.01824 8.391672,0.0034 7.973793,-0.160666 13.073769,5.196666 3.621888,3.804659 7.386993,5.590039 10.52856,4.99865 1.830726,-0.344625 3.756096,-1.746249 4.49154,-3.269649 0.703548,-1.457338 0.823014,-2.281042 0.811377,-5.534738 -0.0095,-2.66309 -0.06183,-3.247407 -0.434664,-5.022799 C 91.962547,12.422913 90.258433,8.1513565 87.932437,4.7211757 86.941357,3.2596061 84.312862,0.6284413 83.165614,-0.04565386 82.685239,-0.32790893 81.779965,-0.73007132 81.15649,-0.94396217 80.153566,-1.2880286 79.83448,-1.3267983 78.398782,-1.2675464 c -1.939833,0.080059 -3.396276,0.52362615 -6.42339,1.9608235 -3.153141,1.4970322 -4.051044,1.7378885 -6.833907,1.8255943 -3.398031,0.107097 -4.401,-0.113594 -7.993008,-1.7724685 -3.304026,-1.52587531 -4.6323,-1.9340496 -6.568272,-2.0139493 -0.358929,-0.014821 -0.646128,-0.024671 -0.893484,-0.024148 z M 78.55783,3.2867801 c 1.320255,0 2.390652,1.0704018 2.390652,2.3906592 0,1.3202575 -1.070397,2.3906592 -2.390652,2.3906592 -1.320264,0 -2.390661,-1.0704017 -2.390661,-2.3906592 0,-1.3202574 1.070397,-2.3906592 2.390661,-2.3906592 z M 50.116228,4.2478734 c 0.897849,-0.036781 1.804509,0.4271575 2.091222,1.4971805 l 0,3.7139731 3.713976,0 c 2.164023,0.579849 2.303829,3.53616 0,4.15347 l -3.689829,0 0,3.631869 c -0.615339,2.296481 -3.747744,2.117086 -4.14864,0 l -0.05796,-3.602892 -3.627045,0 c -1.998648,-0.64232 -2.042325,-3.572266 0,-4.153469 l 3.684996,0 0,-3.7429511 C 48.330241,4.8221586 49.21837,4.2846542 50.116219,4.2478734 z M 73.201786,8.613845 c 1.320255,0 2.390661,1.070402 2.390661,2.390659 0,1.320258 -1.070406,2.39066 -2.390661,2.39066 -1.320255,0 -2.390661,-1.070402 -2.390661,-2.39066 0,-1.320257 1.070406,-2.390659 2.390661,-2.390659 z m 10.765206,0 c 1.320264,0 2.390661,1.070402 2.390661,2.390659 0,1.320258 -1.070397,2.39066 -2.390661,2.39066 -1.320255,0 -2.390652,-1.070402 -2.390652,-2.39066 0,-1.320257 1.070397,-2.390659 2.390652,-2.390659 z m -5.409162,5.409169 c 1.320255,0 2.390652,1.070401 2.390652,2.390659 0,1.320257 -1.070397,2.390659 -2.390652,2.390659 -1.320264,0 -2.390661,-1.070402 -2.390661,-2.390659 0,-1.320258 1.070397,-2.390659 2.390661,-2.390659 z"
       id="path3039"
       inkscape:connector-curvature="0" />
    <path
       d="m 5.7727166,-25.000063 116.4545434,0.001 c 1.6824,0 2.77274,1.19912 2.77274,2.68993 l -2.73893,72.7129 c 0.0389,1.88629 -0.5547,2.63421 -2.50941,2.59465 L 8.9100766,52.951017 c -1.68238,0 -3.37885,-1.11323 -3.37885,-2.60404 l -2.53123,-72.65607 c 0,-1.4908 1.09034,-2.69097 2.77272,-2.69097 z"
       inkscape:connector-curvature="0"
       id="use12093"
       style="opacity:0.4;fill:url(#linearGradient22256);fill-opacity:1;stroke:none" />
  </g>
</svg>
