<?xml version="1.0" encoding="UTF-8" standalone="no"?>
<!-- Created with Inkscape (http://www.inkscape.org/) -->

<svg
   xmlns:osb="http://www.openswatchbook.org/uri/2009/osb"
   xmlns:dc="http://purl.org/dc/elements/1.1/"
   xmlns:cc="http://creativecommons.org/ns#"
   xmlns:rdf="http://www.w3.org/1999/02/22-rdf-syntax-ns#"
   xmlns:svg="http://www.w3.org/2000/svg"
   xmlns="http://www.w3.org/2000/svg"
   xmlns:xlink="http://www.w3.org/1999/xlink"
   xmlns:sodipodi="http://sodipodi.sourceforge.net/DTD/sodipodi-0.dtd"
   xmlns:inkscape="http://www.inkscape.org/namespaces/inkscape"
   sodipodi:docname="folder-mega_alt.svg"
   inkscape:version="0.48.4 r9939"
   id="svg27224"
   height="128"
   width="128"
   version="1.1">
  <sodipodi:namedview
     pagecolor="#ffffff"
     bordercolor="#666666"
     borderopacity="1"
     objecttolerance="10"
     gridtolerance="10"
     guidetolerance="10"
     inkscape:pageopacity="0"
     inkscape:pageshadow="2"
     inkscape:window-width="1920"
     inkscape:window-height="1025"
     id="namedview64"
     showgrid="false"
     inkscape:zoom="2.8284271"
     inkscape:cx="41.0588"
     inkscape:cy="30.463717"
     inkscape:window-x="0"
     inkscape:window-y="30"
     inkscape:window-maximized="1"
     inkscape:current-layer="layer1"
     inkscape:object-paths="true"
     inkscape:snap-intersection-paths="true"
     inkscape:snap-nodes="true"
     inkscape:snap-grids="false"
     showguides="true"
     inkscape:guide-bbox="true"
     inkscape:snap-global="false"
     inkscape:snap-bbox="true"
     inkscape:bbox-paths="false"
     inkscape:snap-bbox-edge-midpoints="false"
     inkscape:object-nodes="true">
    <inkscape:grid
       type="xygrid"
       id="grid4397" />
  </sodipodi:namedview>
  <defs
     id="defs27226">
    <linearGradient
       id="linearGradient4574"
       osb:paint="solid">
      <stop
         style="stop-color:#fffeff;stop-opacity:1;"
         offset="0"
         id="stop4576" />
    </linearGradient>
    <linearGradient
       x1="97.538795"
       y1="16.962049"
       x2="97.538795"
       y2="44.260689"
       id="linearGradient22260"
       xlink:href="#linearGradient8272"
       gradientUnits="userSpaceOnUse"
       gradientTransform="matrix(2.6658408,0,0,2.7170994,-143.33284,-69.198823)" />
    <linearGradient
       id="linearGradient8272">
      <stop
         id="stop8274"
         style="stop-color:#ffffff;stop-opacity:1"
         offset="0" />
      <stop
         id="stop8276"
         style="stop-color:#ffffff;stop-opacity:0.23529412"
         offset="0.0221225" />
      <stop
         id="stop8278"
         style="stop-color:#ffffff;stop-opacity:0.15686275"
         offset="0.97909725" />
      <stop
         id="stop8280"
         style="stop-color:#ffffff;stop-opacity:0.39215687"
         offset="1" />
    </linearGradient>
    <linearGradient
       x1="-91"
       y1="43.999817"
       x2="-91"
       y2="119.05979"
       id="linearGradient22252"
       xlink:href="#linearGradient4632-0-6-4"
       gradientUnits="userSpaceOnUse"
       gradientTransform="matrix(1,0,0,1.0266674,147,-70.186593)" />
    <linearGradient
       id="linearGradient4632-0-6-4">
      <stop
         id="stop4634-4-4-7"
         style="stop-color:#b4cee1;stop-opacity:1"
         offset="0" />
      <stop
         id="stop4636-3-1-5"
         style="stop-color:#5d9fcd;stop-opacity:1"
         offset="1" />
    </linearGradient>
    <linearGradient
       x1="302.85715"
       y1="366.64789"
       x2="302.85715"
       y2="609.50507"
       id="linearGradient22244"
       xlink:href="#linearGradient5048-585"
       gradientUnits="userSpaceOnUse"
       gradientTransform="matrix(0.2134205,0,0,0.06641689,-13.147881,75.518568)" />
    <linearGradient
       id="linearGradient5048-585">
      <stop
         id="stop2667"
         style="stop-color:#000000;stop-opacity:0"
         offset="0" />
      <stop
         id="stop2669"
         style="stop-color:#000000;stop-opacity:1"
         offset="0.5" />
      <stop
         id="stop2671"
         style="stop-color:#000000;stop-opacity:0"
         offset="1" />
    </linearGradient>
    <radialGradient
       cx="605.71429"
       cy="486.64789"
       r="117.14286"
       fx="605.71429"
       fy="486.64789"
       id="radialGradient22246"
       xlink:href="#linearGradient5060-179"
       gradientUnits="userSpaceOnUse"
       gradientTransform="matrix(0.08277507,0,0,0.06641689,65.628912,75.518568)" />
    <linearGradient
       id="linearGradient5060-179">
      <stop
         id="stop2675"
         style="stop-color:#000000;stop-opacity:1"
         offset="0" />
      <stop
         id="stop2677"
         style="stop-color:#000000;stop-opacity:0"
         offset="1" />
    </linearGradient>
    <radialGradient
       cx="605.71429"
       cy="486.64789"
       r="117.14286"
       fx="605.71429"
       fy="486.64789"
       id="radialGradient22248"
       xlink:href="#linearGradient5060-820"
       gradientUnits="userSpaceOnUse"
       gradientTransform="matrix(-0.08277505,0,0,0.06641689,62.347829,75.518568)" />
    <linearGradient
       id="linearGradient5060-820">
      <stop
         id="stop2681"
         style="stop-color:#000000;stop-opacity:1"
         offset="0" />
      <stop
         id="stop2683"
         style="stop-color:#000000;stop-opacity:0"
         offset="1" />
    </linearGradient>
    <linearGradient
       x1="97.538795"
       y1="8.8103228"
       x2="97.538795"
       y2="44.260689"
       id="linearGradient22234"
       xlink:href="#linearGradient9235"
       gradientUnits="userSpaceOnUse"
       gradientTransform="matrix(2.6658408,0,0,2.6469079,-143.33284,-66.049513)" />
    <linearGradient
       id="linearGradient9235">
      <stop
         id="stop9237"
         style="stop-color:#ffffff;stop-opacity:1"
         offset="0" />
      <stop
         id="stop9239"
         style="stop-color:#ffffff;stop-opacity:0.23529412"
         offset="0.1088333" />
      <stop
         id="stop9241"
         style="stop-color:#ffffff;stop-opacity:0.15686275"
         offset="0.97909725" />
      <stop
         id="stop9243"
         style="stop-color:#ffffff;stop-opacity:0.39215687"
         offset="1" />
    </linearGradient>
    <linearGradient
       x1="-51.786404"
       y1="53.514328"
       x2="-51.786404"
       y2="3.6336823"
       id="linearGradient22230"
       xlink:href="#linearGradient3104-8-8-97-4-6-11-5-5-1-0"
       gradientUnits="userSpaceOnUse"
       gradientTransform="matrix(2.1683519,0,0,2.2464645,141.9485,-68.590473)" />
    <linearGradient
       id="linearGradient3104-8-8-97-4-6-11-5-5-1-0">
      <stop
         id="stop3106-5-4-3-5-0-2-1-0-1-2"
         style="stop-color:#000000;stop-opacity:0.32173914"
         offset="0" />
      <stop
         id="stop3108-4-3-7-8-2-0-7-9-4-9"
         style="stop-color:#000000;stop-opacity:0.27826086"
         offset="1" />
    </linearGradient>
    <linearGradient
       id="linearGradient6404-7-5">
      <stop
         id="stop6406-1-8"
         style="stop-color:#f9f9f9;stop-opacity:1"
         offset="0" />
      <stop
         id="stop6408-9-6"
         style="stop-color:#c9c9c9;stop-opacity:1"
         offset="1" />
    </linearGradient>
    <linearGradient
       x1="62.988873"
       y1="14.090554"
       x2="62.988873"
       y2="16.997795"
       id="linearGradient27222"
       xlink:href="#linearGradient6404-7-5"
       gradientUnits="userSpaceOnUse"
       gradientTransform="matrix(2.7209303,0,0,2.6722576,-117.22021,-66.213873)" />
    <linearGradient
       id="linearGradient6129-963-697-142-998-580-273-7">
      <stop
         id="stop2661-4"
         style="stop-color:#0a0a0a;stop-opacity:0.498"
         offset="0" />
      <stop
         id="stop2663-1"
         style="stop-color:#0a0a0a;stop-opacity:0"
         offset="1" />
    </linearGradient>
    <linearGradient
       y2="36.599415"
       x2="22.934725"
       y1="49.629246"
       x1="22.934725"
       gradientTransform="matrix(3.036796,0,0,2.6909701,-8.8831134,-65.364613)"
       gradientUnits="userSpaceOnUse"
       id="linearGradient3989"
       xlink:href="#linearGradient6129-963-697-142-998-580-273-7"
       inkscape:collect="always" />
  </defs>
  <metadata
     id="metadata27229">
    <rdf:RDF>
      <cc:Work
         rdf:about="">
        <dc:format>image/svg+xml</dc:format>
        <dc:type
           rdf:resource="http://purl.org/dc/dcmitype/StillImage" />
        <dc:title />
      </cc:Work>
    </rdf:RDF>
  </metadata>
  <g
     transform="translate(0,64)"
     id="layer1">
    <path
       d="m 12.999997,-42.968593 c -1.108,0 -2,0.892 -2,2 l 0,5.96875 -3.0000004,0 c -1.108,0 -2,0.892 -2,2 l 0,11 c 0,1.108 0.892,2 2,2 l 112.0000034,0 c 1.108,0 2,-0.892 2,-2 l 0,-11 c 0,-1.108 -0.892,-2 -2,-2 l -63.000002,0 0,-5.96875 c 0,-1.108 -0.892,-2 -2,-2 l -42.000001,0 z"
       inkscape:connector-curvature="0"
       id="use12083"
       style="color:#000000;fill:url(#linearGradient27222);fill-opacity:1;fill-rule:nonzero;stroke:none;stroke-width:1.00000012;marker:none;visibility:visible;display:inline;overflow:visible;enable-background:accumulate" />
    <path
       d="m 13.662787,-43.499683 c -1.87818,0.0205 -3.16279,0.9143 -3.16279,2.67225 l 0,5.32743 c -0.9606004,0 -1.4771004,-0.003 -2.1044004,0 -1.67856,0.008 -2.87762,0.94491 -2.87762,2.83298 0.0936,27.4976499 -0.018,28.9219399 -0.018,31.2565499 3.90581,0 117.0000034,-9.8866399 117.0000034,-14.1422999 l 0,-17.14209 c 0,-1.75796 -1.15786,-2.82564 -3.03605,-2.80514 l -61.963952,0 0,-5.19887 c 0,-1.75795 -1.18743,-2.80081 -2.94827,-2.80081 l -40.888941,0 z"
       inkscape:connector-curvature="0"
       id="use12085"
       style="opacity:0.8;color:#000000;fill:none;stroke:url(#linearGradient22230);stroke-width:1;stroke-linecap:butt;stroke-linejoin:miter;stroke-miterlimit:4;stroke-opacity:1;stroke-dasharray:none;stroke-dashoffset:0;marker:none;visibility:visible;display:inline;overflow:visible;enable-background:accumulate" />
    <path
       d="m 13.499997,-42.499843 c -1.108,0 -2,0.892 -2,2 l 0,6 -3.0000004,0 c -1.108,0 -2,0.892 -2,2 l 0,11 c 0,1.108 0.892,2 2,2 l 111.0000034,0 c 1.108,0 2,-0.892 2,-2 l 0,-11 c 0,-1.108 -0.892,-2 -2,-2 l -63.000002,0 0,-6 c 0,-1.108 -0.892,-2 -2,-2 l -41.000001,0 z"
       inkscape:connector-curvature="0"
       id="use12087"
       style="color:#000000;fill:none;stroke:url(#linearGradient22234);stroke-width:0.99999982;stroke-linecap:round;stroke-linejoin:round;stroke-miterlimit:4;stroke-opacity:1;stroke-dasharray:none;stroke-dashoffset:0;marker:none;visibility:visible;display:inline;overflow:visible;enable-background:accumulate" />
    <g
       transform="matrix(1.0027339,0,0,0.9919518,-0.16331336,-57.066403)"
       id="use12089">
      <rect
         width="103.05159"
         height="16.129816"
         x="12.462574"
         y="99.870178"
         id="rect22238"
         style="opacity:0.3;fill:url(#linearGradient22244);fill-opacity:1;fill-rule:nonzero;stroke:none;stroke-width:1;marker:none;visibility:visible;display:inline;overflow:visible" />
      <path
         d="m 115.51417,99.870734 c 0,0 0,16.128926 0,16.128926 4.26271,0.0304 10.30516,-3.61367 10.30516,-8.0655 0,-4.45183 -4.75687,-8.063426 -10.30516,-8.063426 z"
         inkscape:connector-curvature="0"
         id="path22240"
         style="opacity:0.3;fill:url(#radialGradient22246);fill-opacity:1;fill-rule:nonzero;stroke:none;stroke-width:1;marker:none;visibility:visible;display:inline;overflow:visible" />
      <path
         d="m 12.462574,99.870734 c 0,0 0,16.128926 0,16.128926 -4.2627113,0.0304 -10.3051588,-3.61367 -10.3051588,-8.0655 0,-4.45183 4.7568636,-8.063426 10.3051588,-8.063426 z"
         inkscape:connector-curvature="0"
         id="path22242"
         style="opacity:0.3;fill:url(#radialGradient22248);fill-opacity:1;fill-rule:nonzero;stroke:none;stroke-width:1;marker:none;visibility:visible;display:inline;overflow:visible" />
    </g>
    <path
       d="m 6.2499966,-24.500053 115.4999934,0.001 c 1.66861,0 2.75001,1.18375 2.75001,2.65543 l -2.71648,71.78068 c 0.0386,1.86211 -0.55015,2.60044 -2.48884,2.56139 L 9.3616366,52.451747 c -1.66859,0 -3.35116,-1.09895 -3.35116,-2.57064 l -2.51048,-71.72469 c 0,-1.47169 1.0814,-2.65647 2.75,-2.65647 z"
       inkscape:connector-curvature="0"
       id="use12091"
       style="fill:url(#linearGradient22252);fill-opacity:1;fill-rule:nonzero;stroke:none;stroke-width:0.99999982;marker:none;visibility:visible;display:inline;overflow:visible;enable-background:accumulate" />
    <path
       d="m 6.2499966,-23.499853 c -2.84882,0.29656 -1.40933,3.76689 -1.63989,5.72017 0.78584,22.5479499 1.57466,45.09583 2.35864,67.64381 1.18868,2.48974 4.4300904,1.28205 6.6383204,1.57433 35.235141,0.0205 70.470291,0.0412 105.705433,0.0617 2.566,-0.16531 1.15721,-3.81803 1.65357,-5.65555 0.85465,-22.56949 2.54292,-67.57135 2.54292,-67.57135 0,-1.16209 -0.77992,-1.7731 -2.20738,-1.7731 -37.089312,0 -77.962302,0 -115.0516134,0 z"
       inkscape:connector-curvature="0"
       id="use12095"
       style="opacity:0.5;fill:none;stroke:url(#linearGradient22260);stroke-width:0.99999988;stroke-linecap:round;stroke-linejoin:round;stroke-miterlimit:4;stroke-opacity:1;stroke-dasharray:none;stroke-dashoffset:0;marker:none;visibility:visible;display:inline;overflow:visible;enable-background:accumulate" />
    <path
       d="m 6.2499966,-24.500053 115.4999934,0.001 c 1.66861,0 2.75001,1.18375 2.75001,2.65543 l -2.71648,71.78068 c 0.0386,1.86211 -0.55015,2.60044 -2.48884,2.56139 L 9.3616366,52.451747 c -1.66859,0 -3.35116,-1.09895 -3.35116,-2.57064 l -2.51048,-71.72469 c 0,-1.47169 1.0814,-2.65647 2.75,-2.65647 z"
       inkscape:connector-curvature="0"
       id="path3369-7-2"
       style="opacity:0.3;fill:none;stroke:#000000;stroke-width:0.99999982;stroke-linecap:round;stroke-linejoin:round;stroke-miterlimit:4;stroke-opacity:1;stroke-dasharray:none;stroke-dashoffset:0;marker:none;visibility:visible;display:inline;overflow:visible;enable-background:accumulate" />
    <path
       d="m 5.7727166,-25.000063 116.4545434,0.001 c 1.6824,0 2.77274,1.19912 2.77274,2.68993 l -2.73893,72.7129 c 0.0389,1.88629 -0.5547,2.63421 -2.50941,2.59465 L 8.9100766,52.951017 c -1.68238,0 -3.37885,-1.11323 -3.37885,-2.60404 l -2.53123,-72.65607 c 0,-1.4908 1.09034,-2.69097 2.77272,-2.69097 z"
       inkscape:connector-curvature="0"
       id="use12093"
       style="opacity:0.4;fill:url(#linearGradient3989);fill-opacity:1;stroke:none" />
    <path
       style="fill:#ffffff;fill-opacity:1;stroke:none;opacity:0.3"
       d="M 68.816439,-5.9360715 C 64.644448,-5.8101548 60.197249,-3.8278294 56.381897,0.56422003 50.072373,0.17331399 47.35203,3.3150143 46.960118,8.9634728 31.241811,12.432586 33.846661,32.94006 46.229755,35.475897 l 38.709598,0 C 98.013749,31.089473 98.431855,12.149048 83.551643,8.8173981 83.297953,0.23448728 76.984842,-5.7244087 69.638103,-5.9360715 c -0.275498,-0.00792 -0.543533,-0.00835 -0.821664,0 z M 65.85844,7.3931771 c 3.255954,0 6.191826,1.4279922 8.198398,3.6883679 l 1.716377,-1.7163691 0,6.4637721 -6.427255,-0.03651 1.734628,-1.734628 c -1.237265,-1.512577 -3.113303,-2.483257 -5.222148,-2.483257 -3.622987,0 -6.557457,2.844989 -6.719398,6.427254 l -4.181368,0 C 55.123886,12.114737 59.931011,7.3931814 65.85844,7.3931814 z m 6.609847,11.1198809 4.181368,0 c -0.166224,5.887065 -4.973338,10.60862 -10.900766,10.60862 -3.255966,0 -6.191827,-1.42799 -8.198409,-3.688366 l -1.716366,1.716369 0,-6.463773 6.427255,0.03651 -1.734628,1.734629 c 1.237265,1.512576 3.113303,2.483257 5.222148,2.483257 3.622976,0 6.557445,-2.844989 6.719398,-6.427254 z"
       id="path4807"
       inkscape:connector-curvature="0" />
    <path
       inkscape:connector-curvature="0"
       id="path4812"
       d="m 68.816439,-6.9360715 c -4.171991,0.1259167 -8.61919,2.1082421 -12.434542,6.50029153 C 50.072373,-0.82668601 47.35203,2.3150143 46.960118,7.9634728 31.241811,11.432586 33.846661,31.94006 46.229755,34.475897 l 38.709598,0 C 98.013749,30.089473 98.431855,11.149048 83.551643,7.8173981 83.297953,-0.76551272 76.984842,-6.7244087 69.638103,-6.9360715 c -0.275498,-0.00792 -0.543533,-0.00835 -0.821664,0 z M 65.85844,6.3931771 c 3.255954,0 6.191826,1.4279922 8.198398,3.6883679 l 1.716377,-1.7163691 0,6.4637721 -6.427255,-0.03651 1.734628,-1.734628 c -1.237265,-1.512577 -3.113303,-2.483257 -5.222148,-2.483257 -3.622987,0 -6.557457,2.844989 -6.719398,6.427254 l -4.181368,0 C 55.123886,11.114737 59.931011,6.3931814 65.85844,6.3931814 z m 6.609847,11.1198809 4.181368,0 c -0.166224,5.887065 -4.973338,10.60862 -10.900766,10.60862 -3.255966,0 -6.191827,-1.42799 -8.198409,-3.688366 l -1.716366,1.716369 0,-6.463773 6.427255,0.03651 -1.734628,1.734629 c 1.237265,1.512576 3.113303,2.483257 5.222148,2.483257 3.622976,0 6.557445,-2.844989 6.719398,-6.427254 z"
       style="fill:#175785;fill-opacity:0.55294118;stroke:none" />
  </g>
</svg>
