<?xml version="1.0" encoding="UTF-8" standalone="no"?>
<!-- Created with Inkscape (http://www.inkscape.org/) -->

<svg
   xmlns:dc="http://purl.org/dc/elements/1.1/"
   xmlns:cc="http://creativecommons.org/ns#"
   xmlns:rdf="http://www.w3.org/1999/02/22-rdf-syntax-ns#"
   xmlns:svg="http://www.w3.org/2000/svg"
   xmlns="http://www.w3.org/2000/svg"
   xmlns:xlink="http://www.w3.org/1999/xlink"
   xmlns:sodipodi="http://sodipodi.sourceforge.net/DTD/sodipodi-0.dtd"
   xmlns:inkscape="http://www.inkscape.org/namespaces/inkscape"
   sodipodi:docname="folder-evernote.svg"
   inkscape:version="0.48.4 r9939"
   id="svg27224"
   height="128"
   width="128"
   version="1.1">
  <sodipodi:namedview
     pagecolor="#ffffff"
     bordercolor="#666666"
     borderopacity="1"
     objecttolerance="10"
     gridtolerance="10"
     guidetolerance="10"
     inkscape:pageopacity="0"
     inkscape:pageshadow="2"
     inkscape:window-width="1920"
     inkscape:window-height="1025"
     id="namedview64"
     showgrid="true"
     inkscape:zoom="2.8284271"
     inkscape:cx="-82.985547"
     inkscape:cy="88.067885"
     inkscape:window-x="0"
     inkscape:window-y="30"
     inkscape:window-maximized="1"
     inkscape:current-layer="layer1"
     inkscape:object-paths="true"
     inkscape:snap-intersection-paths="true"
     inkscape:snap-nodes="false"
     inkscape:snap-grids="true">
    <inkscape:grid
       type="xygrid"
       id="grid4397" />
  </sodipodi:namedview>
  <defs
     id="defs27226">
    <linearGradient
       x1="97.538795"
       y1="16.962049"
       x2="97.538795"
       y2="44.260689"
       id="linearGradient22260"
       xlink:href="#linearGradient8272"
       gradientUnits="userSpaceOnUse"
       gradientTransform="matrix(2.6658408,0,0,2.7170994,-143.33284,-69.198823)" />
    <linearGradient
       id="linearGradient8272">
      <stop
         id="stop8274"
         style="stop-color:#ffffff;stop-opacity:1"
         offset="0" />
      <stop
         id="stop8276"
         style="stop-color:#ffffff;stop-opacity:0.23529412"
         offset="0.0221225" />
      <stop
         id="stop8278"
         style="stop-color:#ffffff;stop-opacity:0.15686275"
         offset="0.97909725" />
      <stop
         id="stop8280"
         style="stop-color:#ffffff;stop-opacity:0.39215687"
         offset="1" />
    </linearGradient>
    <linearGradient
       x1="22.934725"
       y1="49.629246"
       x2="22.934725"
       y2="36.599415"
       id="linearGradient22256"
       xlink:href="#linearGradient6129-963-697-142-998-580-273"
       gradientUnits="userSpaceOnUse"
       gradientTransform="matrix(3.036796,0,0,2.6909701,-8.8831134,-65.364613)" />
    <linearGradient
       id="linearGradient6129-963-697-142-998-580-273">
      <stop
         id="stop2661"
         style="stop-color:#0a0a0a;stop-opacity:0.498"
         offset="0" />
      <stop
         id="stop2663"
         style="stop-color:#0a0a0a;stop-opacity:0"
         offset="1" />
    </linearGradient>
    <linearGradient
       x1="-91"
       y1="43.999817"
       x2="-91"
       y2="119.05979"
       id="linearGradient22252"
       xlink:href="#linearGradient4632-0-6-4"
       gradientUnits="userSpaceOnUse"
       gradientTransform="matrix(1,0,0,1.0266674,147,-70.186593)" />
    <linearGradient
       id="linearGradient4632-0-6-4">
      <stop
         id="stop4634-4-4-7"
         style="stop-color:#b4cee1;stop-opacity:1"
         offset="0" />
      <stop
         id="stop4636-3-1-5"
         style="stop-color:#5d9fcd;stop-opacity:1"
         offset="1" />
    </linearGradient>
    <linearGradient
       x1="302.85715"
       y1="366.64789"
       x2="302.85715"
       y2="609.50507"
       id="linearGradient22244"
       xlink:href="#linearGradient5048-585"
       gradientUnits="userSpaceOnUse"
       gradientTransform="matrix(0.2134205,0,0,0.06641689,-13.147881,75.518568)" />
    <linearGradient
       id="linearGradient5048-585">
      <stop
         id="stop2667"
         style="stop-color:#000000;stop-opacity:0"
         offset="0" />
      <stop
         id="stop2669"
         style="stop-color:#000000;stop-opacity:1"
         offset="0.5" />
      <stop
         id="stop2671"
         style="stop-color:#000000;stop-opacity:0"
         offset="1" />
    </linearGradient>
    <radialGradient
       cx="605.71429"
       cy="486.64789"
       r="117.14286"
       fx="605.71429"
       fy="486.64789"
       id="radialGradient22246"
       xlink:href="#linearGradient5060-179"
       gradientUnits="userSpaceOnUse"
       gradientTransform="matrix(0.08277507,0,0,0.06641689,65.628912,75.518568)" />
    <linearGradient
       id="linearGradient5060-179">
      <stop
         id="stop2675"
         style="stop-color:#000000;stop-opacity:1"
         offset="0" />
      <stop
         id="stop2677"
         style="stop-color:#000000;stop-opacity:0"
         offset="1" />
    </linearGradient>
    <radialGradient
       cx="605.71429"
       cy="486.64789"
       r="117.14286"
       fx="605.71429"
       fy="486.64789"
       id="radialGradient22248"
       xlink:href="#linearGradient5060-820"
       gradientUnits="userSpaceOnUse"
       gradientTransform="matrix(-0.08277505,0,0,0.06641689,62.347829,75.518568)" />
    <linearGradient
       id="linearGradient5060-820">
      <stop
         id="stop2681"
         style="stop-color:#000000;stop-opacity:1"
         offset="0" />
      <stop
         id="stop2683"
         style="stop-color:#000000;stop-opacity:0"
         offset="1" />
    </linearGradient>
    <linearGradient
       x1="97.538795"
       y1="8.8103228"
       x2="97.538795"
       y2="44.260689"
       id="linearGradient22234"
       xlink:href="#linearGradient9235"
       gradientUnits="userSpaceOnUse"
       gradientTransform="matrix(2.6658408,0,0,2.6469079,-143.33284,-66.049513)" />
    <linearGradient
       id="linearGradient9235">
      <stop
         id="stop9237"
         style="stop-color:#ffffff;stop-opacity:1"
         offset="0" />
      <stop
         id="stop9239"
         style="stop-color:#ffffff;stop-opacity:0.23529412"
         offset="0.1088333" />
      <stop
         id="stop9241"
         style="stop-color:#ffffff;stop-opacity:0.15686275"
         offset="0.97909725" />
      <stop
         id="stop9243"
         style="stop-color:#ffffff;stop-opacity:0.39215687"
         offset="1" />
    </linearGradient>
    <linearGradient
       x1="-51.786404"
       y1="53.514328"
       x2="-51.786404"
       y2="3.6336823"
       id="linearGradient22230"
       xlink:href="#linearGradient3104-8-8-97-4-6-11-5-5-1-0"
       gradientUnits="userSpaceOnUse"
       gradientTransform="matrix(2.1683519,0,0,2.2464645,141.9485,-68.590473)" />
    <linearGradient
       id="linearGradient3104-8-8-97-4-6-11-5-5-1-0">
      <stop
         id="stop3106-5-4-3-5-0-2-1-0-1-2"
         style="stop-color:#000000;stop-opacity:0.32173914"
         offset="0" />
      <stop
         id="stop3108-4-3-7-8-2-0-7-9-4-9"
         style="stop-color:#000000;stop-opacity:0.27826086"
         offset="1" />
    </linearGradient>
    <linearGradient
       id="linearGradient6404-7-5">
      <stop
         id="stop6406-1-8"
         style="stop-color:#f9f9f9;stop-opacity:1"
         offset="0" />
      <stop
         id="stop6408-9-6"
         style="stop-color:#c9c9c9;stop-opacity:1"
         offset="1" />
    </linearGradient>
    <linearGradient
       x1="62.988873"
       y1="14.090554"
       x2="62.988873"
       y2="16.997795"
       id="linearGradient27222"
       xlink:href="#linearGradient6404-7-5"
       gradientUnits="userSpaceOnUse"
       gradientTransform="matrix(2.7209303,0,0,2.6722576,-117.22021,-66.213873)" />
  </defs>
  <metadata
     id="metadata27229">
    <rdf:RDF>
      <cc:Work
         rdf:about="">
        <dc:format>image/svg+xml</dc:format>
        <dc:type
           rdf:resource="http://purl.org/dc/dcmitype/StillImage" />
        <dc:title></dc:title>
      </cc:Work>
    </rdf:RDF>
  </metadata>
  <g
     transform="translate(0,64)"
     id="layer1">
    <path
       d="m 12.999997,-42.968593 c -1.108,0 -2,0.892 -2,2 l 0,5.96875 -3.0000004,0 c -1.108,0 -2,0.892 -2,2 l 0,11 c 0,1.108 0.892,2 2,2 l 112.0000034,0 c 1.108,0 2,-0.892 2,-2 l 0,-11 c 0,-1.108 -0.892,-2 -2,-2 l -63.000002,0 0,-5.96875 c 0,-1.108 -0.892,-2 -2,-2 l -42.000001,0 z"
       inkscape:connector-curvature="0"
       id="use12083"
       style="color:#000000;fill:url(#linearGradient27222);fill-opacity:1;fill-rule:nonzero;stroke:none;stroke-width:1.00000012;marker:none;visibility:visible;display:inline;overflow:visible;enable-background:accumulate" />
    <path
       d="m 13.662787,-43.499683 c -1.87818,0.0205 -3.16279,0.9143 -3.16279,2.67225 l 0,5.32743 c -0.9606004,0 -1.4771004,-0.003 -2.1044004,0 -1.67856,0.008 -2.87762,0.94491 -2.87762,2.83298 0.0936,27.4976499 -0.018,28.9219399 -0.018,31.2565499 3.90581,0 117.0000034,-9.8866399 117.0000034,-14.1422999 l 0,-17.14209 c 0,-1.75796 -1.15786,-2.82564 -3.03605,-2.80514 l -61.963952,0 0,-5.19887 c 0,-1.75795 -1.18743,-2.80081 -2.94827,-2.80081 l -40.888941,0 z"
       inkscape:connector-curvature="0"
       id="use12085"
       style="opacity:0.8;color:#000000;fill:none;stroke:url(#linearGradient22230);stroke-width:1;stroke-linecap:butt;stroke-linejoin:miter;stroke-miterlimit:4;stroke-opacity:1;stroke-dasharray:none;stroke-dashoffset:0;marker:none;visibility:visible;display:inline;overflow:visible;enable-background:accumulate" />
    <path
       d="m 13.499997,-42.499843 c -1.108,0 -2,0.892 -2,2 l 0,6 -3.0000004,0 c -1.108,0 -2,0.892 -2,2 l 0,11 c 0,1.108 0.892,2 2,2 l 111.0000034,0 c 1.108,0 2,-0.892 2,-2 l 0,-11 c 0,-1.108 -0.892,-2 -2,-2 l -63.000002,0 0,-6 c 0,-1.108 -0.892,-2 -2,-2 l -41.000001,0 z"
       inkscape:connector-curvature="0"
       id="use12087"
       style="color:#000000;fill:none;stroke:url(#linearGradient22234);stroke-width:0.99999982;stroke-linecap:round;stroke-linejoin:round;stroke-miterlimit:4;stroke-opacity:1;stroke-dasharray:none;stroke-dashoffset:0;marker:none;visibility:visible;display:inline;overflow:visible;enable-background:accumulate" />
    <g
       transform="matrix(1.0027339,0,0,0.9919518,-0.16331336,-57.066403)"
       id="use12089">
      <rect
         width="103.05159"
         height="16.129816"
         x="12.462574"
         y="99.870178"
         id="rect22238"
         style="opacity:0.3;fill:url(#linearGradient22244);fill-opacity:1;fill-rule:nonzero;stroke:none;stroke-width:1;marker:none;visibility:visible;display:inline;overflow:visible" />
      <path
         d="m 115.51417,99.870734 c 0,0 0,16.128926 0,16.128926 4.26271,0.0304 10.30516,-3.61367 10.30516,-8.0655 0,-4.45183 -4.75687,-8.063426 -10.30516,-8.063426 z"
         inkscape:connector-curvature="0"
         id="path22240"
         style="opacity:0.3;fill:url(#radialGradient22246);fill-opacity:1;fill-rule:nonzero;stroke:none;stroke-width:1;marker:none;visibility:visible;display:inline;overflow:visible" />
      <path
         d="m 12.462574,99.870734 c 0,0 0,16.128926 0,16.128926 -4.2627113,0.0304 -10.3051588,-3.61367 -10.3051588,-8.0655 0,-4.45183 4.7568636,-8.063426 10.3051588,-8.063426 z"
         inkscape:connector-curvature="0"
         id="path22242"
         style="opacity:0.3;fill:url(#radialGradient22248);fill-opacity:1;fill-rule:nonzero;stroke:none;stroke-width:1;marker:none;visibility:visible;display:inline;overflow:visible" />
    </g>
    <path
       d="m 6.2499966,-24.500053 115.4999934,0.001 c 1.66861,0 2.75001,1.18375 2.75001,2.65543 l -2.71648,71.78068 c 0.0386,1.86211 -0.55015,2.60044 -2.48884,2.56139 L 9.3616366,52.451747 c -1.66859,0 -3.35116,-1.09895 -3.35116,-2.57064 l -2.51048,-71.72469 c 0,-1.47169 1.0814,-2.65647 2.75,-2.65647 z"
       inkscape:connector-curvature="0"
       id="use12091"
       style="fill:url(#linearGradient22252);fill-opacity:1;fill-rule:nonzero;stroke:none;stroke-width:0.99999982;marker:none;visibility:visible;display:inline;overflow:visible;enable-background:accumulate" />
    <path
       d="m 6.2499966,-23.499853 c -2.84882,0.29656 -1.40933,3.76689 -1.63989,5.72017 0.78584,22.5479499 1.57466,45.09583 2.35864,67.64381 1.18868,2.48974 4.4300904,1.28205 6.6383204,1.57433 35.235141,0.0205 70.470291,0.0412 105.705433,0.0617 2.566,-0.16531 1.15721,-3.81803 1.65357,-5.65555 0.85465,-22.56949 2.54292,-67.57135 2.54292,-67.57135 0,-1.16209 -0.77992,-1.7731 -2.20738,-1.7731 -37.089312,0 -77.962302,0 -115.0516134,0 z"
       inkscape:connector-curvature="0"
       id="use12095"
       style="opacity:0.5;fill:none;stroke:url(#linearGradient22260);stroke-width:0.99999988;stroke-linecap:round;stroke-linejoin:round;stroke-miterlimit:4;stroke-opacity:1;stroke-dasharray:none;stroke-dashoffset:0;marker:none;visibility:visible;display:inline;overflow:visible;enable-background:accumulate" />
    <path
       d="m 6.2499966,-24.500053 115.4999934,0.001 c 1.66861,0 2.75001,1.18375 2.75001,2.65543 l -2.71648,71.78068 c 0.0386,1.86211 -0.55015,2.60044 -2.48884,2.56139 L 9.3616366,52.451747 c -1.66859,0 -3.35116,-1.09895 -3.35116,-2.57064 l -2.51048,-71.72469 c 0,-1.47169 1.0814,-2.65647 2.75,-2.65647 z"
       inkscape:connector-curvature="0"
       id="path3369-7-2"
       style="opacity:0.3;fill:none;stroke:#000000;stroke-width:0.99999982;stroke-linecap:round;stroke-linejoin:round;stroke-miterlimit:4;stroke-opacity:1;stroke-dasharray:none;stroke-dashoffset:0;marker:none;visibility:visible;display:inline;overflow:visible;enable-background:accumulate" />
    <path
       style="opacity:0.3;fill:#ffffff;fill-opacity:1"
       inkscape:connector-curvature="0"
       d="m 47.555113,0.84668937 c 0,0 0,0 0.0029,0 h 4.496153 c 0.257649,0 0.464836,-0.2098316 0.465336,-0.46549767 0,-0.001683 -0.05454,-3.8551788 -0.05454,-4.9268003 v -0.012713 c 0,-0.8801254 0.184724,-1.6474453 0.50645,-2.2904836 l 0.153759,-0.2887755 c -0.01713,0.00285 -0.03444,0.011304 -0.05156,0.028496 l -8.736127,8.6631566 c -0.01713,0.014045 -0.0278,0.032283 -0.0327,0.051037 0.180674,-0.089431 0.427752,-0.211647 0.462681,-0.2270075 0.760801,-0.3432774 1.683279,-0.53139206 2.787604,-0.53139206 z m 34.98591,-0.94329829 C 82.183868,-2.0084661 81.047172,-2.9506881 80.019486,-3.3211342 78.910697,-3.7218885 76.662415,-4.1370102 73.837563,-4.4699674 71.564924,-4.7376036 68.893755,-4.716303 67.280248,-4.6664252 67.086606,-5.9927991 66.15627,-7.2045565 65.115289,-7.6240569 c -2.773568,-1.1163815 -7.058822,-0.8466799 -8.159098,-0.5383307 -0.874254,0.2443494 -1.842001,0.7451082 -2.380572,1.5168027 -0.361204,0.5154545 -0.594902,1.1758355 -0.59672,2.0984059 0,0.5221433 0.01453,1.7521528 0.0278,2.8449971 0.01318,1.09622986 0.02761,2.07668439 0.02761,2.0833736 -4.13e-4,0.9759957 -0.791507,1.7703215 -1.771797,1.7715599 h -4.496904 c -0.959233,0 -1.692119,0.1611913 -2.251996,0.4155372 -0.560715,0.2545865 -0.957839,0.5977847 -1.259576,1.0038245 -0.600596,0.8062951 -0.704892,1.8012871 -0.70241,2.8166702 0,0 0.0087,0.8297528 0.208763,2.4357415 0.166227,1.242639 1.513822,9.923467 2.79379,12.563586 0.496302,1.027194 0.826858,1.455034 1.801869,1.907815 2.172394,0.930082 7.13446,1.964792 9.460113,2.261084 2.32146,0.297035 3.778477,0.921412 4.646786,-0.899199 0.0029,-0.0045 0.173912,-0.452943 0.409177,-1.110765 0.753856,-2.284372 0.858728,-4.311262 0.858728,-5.778025 0,-0.149135 0.218836,-0.155991 0.218836,0 0,1.035538 -0.197769,4.69996 2.570346,5.68306 1.092762,0.387543 3.359708,0.733052 5.663073,1.002997 2.08272,0.239314 3.594155,1.058905 3.594155,6.402237 0,3.250873 -0.682854,3.696633 -4.252393,3.696633 -2.893553,0 -3.996388,0.07489 -3.996388,-2.223926 0,-1.857936 1.837538,-1.663216 3.199427,-1.663216 0.608274,0 0.166803,-0.452448 0.166803,-1.598723 0,-1.140244 0.713155,-1.799383 0.03868,-1.816064 -4.709284,-0.129566 -7.480217,-0.0054 -7.480217,5.884221 0,5.346712 2.046138,6.339555 8.729884,6.339555 5.240437,0 7.087719,-0.171599 9.251524,-6.885485 0.42833,-1.325387 1.463788,-5.370167 2.090474,-12.161431 C 83.921352,16.134875 83.151634,3.1744952 82.541051,-0.09660892 z M 73.405924,14.228714 c -0.647415,-0.02265 -1.270137,0.01824 -1.850831,0.111565 0.163426,-1.319857 0.708192,-2.939386 2.638057,-2.871588 2.136313,0.07349 2.435653,2.092622 2.443253,3.460289 -0.900766,-0.401665 -2.015913,-0.657575 -3.230479,-0.700266 z"
       id="path236" />
    <path
       id="path4442"
       d="m 47.555113,-0.25331063 c 0,0 0,0 0.0029,0 h 4.496153 c 0.257649,0 0.464836,-0.2098316 0.465336,-0.46549767 0,-0.001683 -0.05454,-3.8551788 -0.05454,-4.9268003 v -0.012713 c 0,-0.8801254 0.184724,-1.6474453 0.50645,-2.2904836 l 0.153759,-0.2887755 c -0.01713,0.00285 -0.03444,0.011304 -0.05156,0.028496 l -8.736127,8.66315655 c -0.01713,0.0140448 -0.0278,0.0322828 -0.0327,0.0510367 0.180674,-0.0894311 0.427752,-0.21164693 0.462681,-0.22700744 0.760801,-0.34327744 1.683279,-0.53139207 2.787604,-0.53139207 z m 34.98591,-0.94329827 c -0.357155,-1.9118572 -1.493851,-2.8540792 -2.521537,-3.2245253 -1.108789,-0.4007543 -3.357071,-0.815876 -6.181923,-1.1488332 -2.272639,-0.2676362 -4.943808,-0.2463356 -6.557315,-0.1964578 -0.193642,-1.3263739 -1.123978,-2.5381313 -2.164959,-2.9576317 -2.773568,-1.1163815 -7.058822,-0.8466799 -8.159098,-0.5383307 -0.874254,0.2443494 -1.842001,0.7451082 -2.380572,1.5168027 -0.361204,0.5154545 -0.594902,1.1758355 -0.59672,2.0984059 0,0.5221433 0.01453,1.7521528 0.0278,2.8449971 0.01318,1.0962299 0.02761,2.07668439 0.02761,2.0833736 -4.13e-4,0.97599568 -0.791507,1.7703215 -1.771797,1.7715599 h -4.496904 c -0.959233,0 -1.692119,0.1611913 -2.251996,0.4155372 -0.560715,0.2545865 -0.957839,0.5977847 -1.259576,1.0038245 -0.600596,0.8062951 -0.704892,1.8012871 -0.70241,2.8166702 0,0 0.0087,0.8297528 0.208763,2.4357415 0.166227,1.2426392 1.513822,9.923467 2.79379,12.563586 0.496302,1.027194 0.826858,1.455034 1.801869,1.907815 2.172394,0.930082 7.13446,1.964792 9.460113,2.261084 2.32146,0.297035 3.778477,0.921412 4.646786,-0.899199 0.0029,-0.0045 0.173912,-0.452943 0.409177,-1.110765 0.753856,-2.284372 0.858728,-4.311262 0.858728,-5.778025 0,-0.149135 0.218836,-0.155991 0.218836,0 0,1.035538 -0.197769,4.69996 2.570346,5.68306 1.092762,0.387543 3.359708,0.733052 5.663073,1.002997 2.08272,0.239314 3.594155,1.058905 3.594155,6.402237 0,3.250873 -0.682854,3.696633 -4.252393,3.696633 -2.893553,0 -3.996388,0.07489 -3.996388,-2.223926 0,-1.857936 1.837538,-1.663216 3.199427,-1.663216 0.608274,0 0.166803,-0.452448 0.166803,-1.598723 0,-1.140244 0.713155,-1.799383 0.03868,-1.816064 -4.709284,-0.129566 -7.480217,-0.0054 -7.480217,5.884221 0,5.346712 2.046138,6.339555 8.729884,6.339555 5.240437,0 7.087719,-0.171599 9.251524,-6.885485 0.42833,-1.325387 1.463788,-5.370167 2.090474,-12.161431 C 83.921352,15.034875 83.151634,2.0744952 82.541051,-1.1966089 z M 73.405924,13.128714 c -0.647415,-0.02265 -1.270137,0.01824 -1.850831,0.111565 0.163426,-1.319857 0.708192,-2.939386 2.638057,-2.871588 2.136313,0.07349 2.435653,2.092622 2.443253,3.460289 -0.900766,-0.401665 -2.015913,-0.657575 -3.230479,-0.700266 z"
       inkscape:connector-curvature="0"
       style="fill:#175785;fill-opacity:0.55294118" />
    <path
       d="m 5.7727166,-25.000063 116.4545434,0.001 c 1.6824,0 2.77274,1.19912 2.77274,2.68993 l -2.73893,72.7129 c 0.0389,1.88629 -0.5547,2.63421 -2.50941,2.59465 L 8.9100766,52.951017 c -1.68238,0 -3.37885,-1.11323 -3.37885,-2.60404 l -2.53123,-72.65607 c 0,-1.4908 1.09034,-2.69097 2.77272,-2.69097 z"
       inkscape:connector-curvature="0"
       id="use12093"
       style="opacity:0.4;fill:url(#linearGradient22256);fill-opacity:1;stroke:none" />
  </g>
</svg>
