<?xml version="1.0" encoding="UTF-8" standalone="no"?>
<svg xmlns:rdf="http://www.w3.org/1999/02/22-rdf-syntax-ns#" xmlns="http://www.w3.org/2000/svg" height="128" width="128" version="1.1" xmlns:cc="http://creativecommons.org/ns#" xmlns:xlink="http://www.w3.org/1999/xlink" xmlns:dc="http://purl.org/dc/elements/1.1/">
<defs>
<linearGradient id="c" y2="44.261" gradientUnits="userSpaceOnUse" x2="97.539" gradientTransform="matrix(2.6658 0 0 2.7171 -143.33 -69.199)" y1="16.962" x1="97.539">
<stop stop-color="#fff" offset="0"/>
<stop stop-color="#fff" stop-opacity=".23529" offset=".022122"/>
<stop stop-color="#fff" stop-opacity=".15686" offset=".97910"/>
<stop stop-color="#fff" stop-opacity=".39216" offset="1"/>
</linearGradient>
<linearGradient id="d" y2="36.599" gradientUnits="userSpaceOnUse" x2="22.935" gradientTransform="matrix(3.0368 0 0 2.691 -8.8831 -65.365)" y1="49.629" x1="22.935">
<stop stop-color="#0a0a0a" stop-opacity=".498" offset="0"/>
<stop stop-color="#0a0a0a" stop-opacity="0" offset="1"/>
</linearGradient>
<linearGradient id="e" y2="119.06" gradientUnits="userSpaceOnUse" x2="-91" gradientTransform="matrix(1 0 0 1.0267 147 -70.187)" y1="44" x1="-91">
<stop stop-color="#b4cee1" offset="0"/>
<stop stop-color="#5d9fcd" offset="1"/>
</linearGradient>
<linearGradient id="f" y2="609.51" gradientUnits="userSpaceOnUse" x2="302.86" gradientTransform="matrix(.21342 0 0 .066417 -13.148 75.519)" y1="366.65" x1="302.86">
<stop stop-opacity="0" offset="0"/>
<stop offset=".5"/>
<stop stop-opacity="0" offset="1"/>
</linearGradient>
<radialGradient id="b" gradientUnits="userSpaceOnUse" cy="486.65" cx="605.71" gradientTransform="matrix(.082775 0 0 .066417 65.629 75.519)" r="117.14">
<stop offset="0"/>
<stop stop-opacity="0" offset="1"/>
</radialGradient>
<radialGradient id="a" gradientUnits="userSpaceOnUse" cy="486.65" cx="605.71" gradientTransform="matrix(-.082775 0 0 .066417 62.348 75.519)" r="117.14">
<stop offset="0"/>
<stop stop-opacity="0" offset="1"/>
</radialGradient>
<linearGradient id="g" y2="44.261" gradientUnits="userSpaceOnUse" x2="97.539" gradientTransform="matrix(2.6658 0 0 2.6469 -143.33 -66.05)" y1="8.8103" x1="97.539">
<stop stop-color="#fff" offset="0"/>
<stop stop-color="#fff" stop-opacity=".23529" offset=".10883"/>
<stop stop-color="#fff" stop-opacity=".15686" offset=".97910"/>
<stop stop-color="#fff" stop-opacity=".39216" offset="1"/>
</linearGradient>
<linearGradient id="h" y2="3.6337" gradientUnits="userSpaceOnUse" x2="-51.786" gradientTransform="matrix(2.1684 0 0 2.2465 141.95 -68.59)" y1="53.514" x1="-51.786">
<stop stop-opacity=".32174" offset="0"/>
<stop stop-opacity=".27826" offset="1"/>
</linearGradient>
<linearGradient id="i" y2="16.998" gradientUnits="userSpaceOnUse" x2="62.989" gradientTransform="matrix(2.7209 0 0 2.6723 -117.22 -66.214)" y1="14.091" x1="62.989">
<stop stop-color="#f9f9f9" offset="0"/>
<stop stop-color="#c9c9c9" offset="1"/>
</linearGradient>
</defs>
<g transform="translate(0,64)">
<g>
<path style="color:#000000" d="m13-42.969c-1.108 0-2 0.892-2 2v5.9688h-3c-1.108 0-2 0.892-2 2v11c0 1.108 0.892 2 2 2h112c1.108 0 2-0.892 2-2v-11c0-1.108-0.892-2-2-2h-63v-5.9688c0-1.108-0.892-2-2-2h-42z" fill="url(#i)"/>
<path opacity=".8" style="color:#000000" d="m13.663-43.5c-1.8782 0.0205-3.1628 0.9143-3.1628 2.6722v5.3274c-0.9606 0-1.4771-0.003-2.1044 0-1.6786 0.008-2.8776 0.94491-2.8776 2.833 0.0936 27.498-0.018 28.922-0.018 31.257 3.9058 0 117-9.8866 117-14.142v-17.142c0-1.758-1.1579-2.8256-3.036-2.8051h-61.964v-5.1989c0-1.758-1.1874-2.8008-2.9483-2.8008h-40.889z" stroke="url(#h)" fill="none"/>
<path stroke-linejoin="round" style="color:#000000" d="m13.5-42.5c-1.108 0-2 0.892-2 2v6h-3c-1.108 0-2 0.892-2 2v11c0 1.108 0.892 2 2 2h111c1.108 0 2-0.892 2-2v-11c0-1.108-0.892-2-2-2h-63v-6c0-1.108-0.892-2-2-2h-41z" stroke="url(#g)" stroke-linecap="round" fill="none"/>
</g>
<g transform="matrix(1.0027 0 0 .99195 -.16331 -57.066)">
<rect opacity=".3" height="16.13" width="103.05" y="99.87" x="12.463" fill="url(#f)"/>
<path opacity=".3" d="m115.51 99.871v16.129c4.2627 0.0304 10.305-3.6137 10.305-8.0655s-4.7569-8.0634-10.305-8.0634z" fill="url(#b)"/>
<path opacity=".3" d="m12.463 99.871v16.129c-4.2627 0.0304-10.305-3.6137-10.305-8.0655s4.7569-8.0634 10.305-8.0634z" fill="url(#a)"/>
</g>
<path d="m6.25-24.5 115.5 0.001c1.6686 0 2.75 1.1838 2.75 2.6554l-2.7165 71.781c0.0386 1.8621-0.55015 2.6004-2.4888 2.5614l-109.93-0.046c-1.6686 0-3.3512-1.099-3.3512-2.5706l-2.5105-71.725c0-1.4717 1.0814-2.6565 2.75-2.6565z" fill="url(#e)"/>
<path opacity=".4" d="m5.7727-25 116.45 0.001c1.6824 0 2.7727 1.1991 2.7727 2.6899l-2.7389 72.713c0.0389 1.8863-0.5547 2.6342-2.5094 2.5946l-110.83-0.048c-1.6824 0-3.3788-1.1132-3.3788-2.604l-2.5312-72.656c0-1.4908 1.0903-2.691 2.7727-2.691z" fill="url(#d)"/>
<path opacity=".5" stroke-linejoin="round" d="m6.25-23.5c-2.8488 0.29656-1.4093 3.7669-1.6399 5.7202 0.78584 22.548 1.5747 45.096 2.3586 67.644 1.1887 2.4897 4.4301 1.282 6.6383 1.5743 35.235 0.0205 70.47 0.0412 105.71 0.0617 2.566-0.16531 1.1572-3.818 1.6536-5.6556 0.85465-22.569 2.5429-67.571 2.5429-67.571 0-1.1621-0.77992-1.7731-2.2074-1.7731h-115.05z" stroke="url(#c)" stroke-linecap="round" fill="none"/>
<path opacity=".3" stroke-linejoin="round" d="m6.25-24.5 115.5 0.001c1.6686 0 2.75 1.1838 2.75 2.6554l-2.7165 71.781c0.0386 1.8621-0.55015 2.6004-2.4888 2.5614l-109.93-0.046c-1.6686 0-3.3512-1.099-3.3512-2.5706l-2.5105-71.725c0-1.4717 1.0814-2.6565 2.75-2.6565z" stroke="#000" stroke-linecap="round" fill="none"/>
</g>
<path opacity=".3" style="image-rendering:optimizeQuality;shape-rendering:geometricPrecision" d="m57.73 55 17.039 30h16.328l-17.098-30h-16.27zm-3.1797 2.5625l-16.55 29.235 8.145 14.663 16.632-29.269-8.226-14.629zm3.45 31.438-8 14h33l7.6719-14h-32.672z" fill-rule="evenodd" clip-rule="evenodd" fill="#fff"/>
<path style="image-rendering:optimizeQuality;shape-rendering:geometricPrecision" d="m57.73 54 17.039 30h16.328l-17.098-30h-16.27zm-3.1797 2.5625l-16.55 29.235 8.145 14.663 16.632-29.269-8.226-14.629zm3.45 31.438l-8 14h33l7.6719-14h-32.672z" fill-rule="evenodd" fill-opacity=".55294" clip-rule="evenodd" fill="#175785"/>
</svg>
