<?xml version="1.0" encoding="UTF-8" standalone="no"?>
<svg xmlns:rdf="http://www.w3.org/1999/02/22-rdf-syntax-ns#" xmlns="http://www.w3.org/2000/svg" height="48" width="48" version="1.1" xmlns:cc="http://creativecommons.org/ns#" xmlns:xlink="http://www.w3.org/1999/xlink" xmlns:dc="http://purl.org/dc/elements/1.1/">
 <defs>
  <linearGradient id="c" y2="40.496" gradientUnits="userSpaceOnUse" x2="71.204" gradientTransform="matrix(1.617 0 0 1.617 -92.707 -21.06)" y1="15.369" x1="71.204">
   <stop stop-color="#fff" offset="0"/>
   <stop stop-color="#fff" stop-opacity=".23529" offset=".42448"/>
   <stop stop-color="#fff" stop-opacity=".15686" offset=".82090"/>
   <stop stop-color="#fff" stop-opacity=".39216" offset="1"/>
  </linearGradient>
  <radialGradient id="b" gradientUnits="userSpaceOnUse" cy="3.99" cx="23.896" gradientTransform="matrix(0 2.8885 -3.8128 0 39.213 -65.95)" r="20.397">
   <stop stop-color="#b1e198" offset="0"/>
   <stop stop-color="#71c586" offset=".26238"/>
   <stop stop-color="#04a171" offset=".66094"/>
   <stop stop-color="#108562" offset="1"/>
  </radialGradient>
  <radialGradient id="a" gradientUnits="userSpaceOnUse" cy="186.17" cx="99.157" gradientTransform="matrix(.27083 0 0 .087623 -2.8551 25.187)" r="62.769">
   <stop stop-color="#3d3d3d" offset="0"/>
   <stop stop-color="#686868" stop-opacity=".49804" offset=".5"/>
   <stop stop-color="#686868" stop-opacity="0" offset="1"/>
  </radialGradient>
  <linearGradient id="d" y2="26.21" gradientUnits="userSpaceOnUse" x2="103.56" y1="26.21" x1="-26.882">
   <stop offset="0"/>
   <stop stop-opacity="0" offset="1"/>
  </linearGradient>
  <linearGradient id="e" y2="85.819" gradientUnits="userSpaceOnUse" x2="-204.68" y1="-33.398" x1="-204.68">
   <stop stop-color="#fff" offset="0"/>
   <stop stop-color="#cee7dd" offset="1"/>
  </linearGradient>
 </defs>
 <path fill="url(#a)" d="m41 41.5a17 5.5 0 0 1 -34 0 17 5.5 0 1 1 34 0z"/>
 <g>
  <path style="color:#000000" d="m24 3.5c-11.311 0-20.5 9.189-20.5 20.5s9.189 20.5 20.5 20.5 20.5-9.189 20.5-20.5-9.189-20.5-20.5-20.5z" fill="url(#b)"/>
  <path opacity=".8" stroke-linejoin="round" style="color:#000000" d="m43.5 24c0 10.77-8.73 19.5-19.5 19.5s-19.5-8.73-19.5-19.5 8.73-19.5 19.5-19.5 19.5 8.73 19.5 19.5z" stroke="url(#c)" stroke-linecap="round" fill="none"/>
  <path opacity=".7" style="color:#000000" d="m24 3.5c-11.311 0-20.5 9.189-20.5 20.5s9.189 20.5 20.5 20.5 20.5-9.189 20.5-20.5-9.189-20.5-20.5-20.5z" stroke="#006344" fill="none"/>
 </g>
 <g>
  <g opacity=".05" transform="matrix(.21809 0 0 .21809 66.131 19.285)" stroke="#000" stroke-width="9.1706">
   <path opacity="1" style="color-rendering:auto;text-decoration-color:#000000;color:#000000;isolation:auto;mix-blend-mode:normal;shape-rendering:auto;solid-color:#000000;block-progression:tb;text-decoration-line:none;text-decoration-style:solid;image-rendering:auto;white-space:normal;text-indent:0;text-transform:none" d="m-218.58-33.356c-1.6301 0.12036-3.2378 0.53749-4.7198 1.2807-3.9551 1.9835-6.3657 5.9433-7.523 10.577-1.1574 4.6338-1.2321 10.142-0.46571 16.354 0.31064 2.5176 0.79751 5.1797 1.3882 7.9082-4.014 0.83898-7.8335 1.7856-11.177 2.9734-5.1496 1.8293-9.4505 4.0421-12.691 6.7976-3.2402 2.7555-5.5011 6.2572-5.7139 10.255-0.20275 3.8078 1.5027 7.3791 4.1914 10.353 2.6887 2.974 6.398 5.54 10.926 7.8365a3.4395 3.4395 0 1 0 3.1077 -6.1349c-4.0155-2.0364-7.0704-4.2481-8.9381-6.314s-2.5021-3.797-2.4181-5.3736c0.0882-1.6563 0.99987-3.4224 3.3048-5.3826 2.3049-1.9601 5.9167-3.9131 10.532-5.5527 3.0591-1.0867 6.6815-1.9772 10.523-2.7674 1.381 4.8893 3.1814 10.011 5.3378 15.252-5.5419 10.236-9.4695 20.122-11.491 28.767-1.4245 6.0932-1.9466 11.574-1.2897 16.3 0.65698 4.7257 2.6412 8.9206 6.3677 11.302 3.536 2.2601 7.9144 2.4339 12.288 1.3165 4.3733-1.1173 8.9575-3.4891 13.739-6.8424a3.44 3.44 0 1 0 -3.9496 -5.6333c-4.3166 3.0276-8.2996 4.9972-11.491 5.8125-3.1909 0.81525-5.3696 0.52224-6.8872-0.4478-1.5966-1.0205-2.7674-2.9787-3.251-6.4573s-0.1301-8.2557 1.1643-13.792c1.5263-6.5286 4.4744-14.152 8.4187-22.157 0.82326 1.7286 1.6697 3.4636 2.5704 5.2034 8.0503 15.551 17.646 28.476 26.94 36.988 4.6467 4.2561 9.2108 7.4226 13.676 9.2157 4.465 1.7931 9.0854 2.2071 13.04 0.2239 3.8036-1.9075 6.1838-5.6576 7.3798-10.049 1.196-4.3911 1.3707-9.5971 0.76126-15.467-1.2189-11.74-5.6469-26.163-12.932-41.063a3.4395 3.4395 0 1 0 -6.1796 3.0182c6.9954 14.306 11.17 28.159 12.27 38.753 0.54996 5.2968 0.31122 9.7691-0.55527 12.95-0.86649 3.1813-2.1892 4.894-3.8242 5.7139-1.7007 0.85293-4.0698 0.87969-7.3977-0.45676-3.3278-1.3365-7.3575-4.0412-11.589-7.9171-8.4632-7.7518-17.744-20.129-25.48-35.072-1.7075-3.2983-3.238-6.5773-4.6482-9.8158 1.7495-3.0804 3.6258-6.1948 5.6781-9.3053 2.056-3.1161 4.1812-6.0712 6.3319-8.9023 0.58315-0.0082 1.1221-0.06074 1.7106-0.06269 3.0586-0.01013 6.2024 0.07668 9.4038 0.24182 17.029 0.87837 32.295 4.1866 42.935 8.6426 5.32 2.228 9.4699 4.7604 12.055 7.2006 2.5849 2.4402 3.4917 4.5296 3.3943 6.3588-0.0842 1.581-0.91365 3.2526-3.0003 5.1228-2.0866 1.8703-5.3667 3.7603-9.5919 5.3736a3.4395 3.4395 0 1 0 2.454 6.4215c4.7632-1.8187 8.7366-3.987 11.732-6.6722 2.9958-2.6852 5.072-6.0645 5.2751-9.8785 0.23478-4.4094-2.0578-8.4415-5.5438-11.732-3.486-3.2908-8.2804-6.1007-14.115-8.544-11.669-4.8867-27.551-8.2493-45.246-9.162-2.017-0.10404-3.976-0.1127-5.9558-0.15225 4.2962-5.0244 8.6343-9.424 12.807-12.995 8.0955-6.9282 15.689-10.639 20.267-10.81 1.6943-0.06331 2.9267 0.26789 3.9227 0.90456 1.4959 0.95616 2.6148 2.711 3.1615 5.8214 0.54663 3.1104 0.38089 7.4004-0.61796 12.404a3.4397 3.4397 0 0 0 6.7439 1.3434c1.1124-5.5727 1.4083-10.585 0.64483-14.93-0.76349-4.3445-2.7299-8.2002-6.2244-10.434-2.3308-1.4898-5.0865-2.0837-7.8813-1.9793-7.5416 0.2818-15.787 5.0056-24.495 12.458-5.7214 4.8965-11.575 11.154-17.24 18.306-5.7699 0.19353-11.353 0.59354-16.47 1.3434-0.57282-2.6064-1.0454-5.1267-1.3344-7.4693-0.69631-5.6434-0.53949-10.431 0.31346-13.846 0.85294-3.415 2.2315-5.2464 3.9317-6.099 0.63873-0.32032 1.303-0.50238 2.1405-0.56423 3.1015-0.22895 8.3226 1.8722 14.124 6.6095a3.4403 3.4403 0 1 0 4.3526 -5.3288c-6.4986-5.307-12.811-8.5962-18.978-8.141zm6.6274 40.571c-1.1292 1.592-2.2771 3.1254-3.3764 4.7915-1.1069 1.6776-2.1634 3.3593-3.1883 5.0333-1.109-3.0126-2.0873-5.9681-2.9107-8.8127 3.0215-0.4263 6.1742-0.78055 9.4755-1.012zm19.39 12.503a7.495 7.377 0 0 0 -7.7111 7.3708 7.495 7.377 0 0 0 14.983 0 7.495 7.377 0 0 0 -7.2723 -7.3708z" stroke="#000" stroke-linecap="round" stroke-width="9.1706"/>
  </g>
  <g opacity=".15" transform="matrix(.21809 0 0 .21809 66.131 19.284)">
   <path opacity="1" style="color-rendering:auto;text-decoration-color:#000000;color:#000000;isolation:auto;mix-blend-mode:normal;shape-rendering:auto;solid-color:#000000;block-progression:tb;text-decoration-line:none;text-decoration-style:solid;image-rendering:auto;white-space:normal;text-indent:0;text-transform:none" d="m-218.58-33.356c-1.6301 0.12036-3.2378 0.53749-4.7198 1.2807-3.9551 1.9835-6.3657 5.9433-7.523 10.577-1.1574 4.6338-1.2321 10.142-0.46571 16.354 0.31064 2.5176 0.79751 5.1797 1.3882 7.9082-4.014 0.83898-7.8335 1.7856-11.177 2.9734-5.1496 1.8293-9.4505 4.0421-12.691 6.7976-3.2402 2.7555-5.5011 6.2572-5.7139 10.255-0.20275 3.8078 1.5027 7.3791 4.1914 10.353 2.6887 2.974 6.398 5.54 10.926 7.8365a3.4395 3.4395 0 1 0 3.1077 -6.1349c-4.0155-2.0364-7.0704-4.2481-8.9381-6.314s-2.5021-3.797-2.4181-5.3736c0.0882-1.6563 0.99987-3.4224 3.3048-5.3826 2.3049-1.9601 5.9167-3.9131 10.532-5.5527 3.0591-1.0867 6.6815-1.9772 10.523-2.7674 1.381 4.8893 3.1814 10.011 5.3378 15.252-5.5419 10.236-9.4695 20.122-11.491 28.767-1.4245 6.0932-1.9466 11.574-1.2897 16.3 0.65698 4.7257 2.6412 8.9206 6.3677 11.302 3.536 2.2601 7.9144 2.4339 12.288 1.3165 4.3733-1.1173 8.9575-3.4891 13.739-6.8424a3.44 3.44 0 1 0 -3.9496 -5.6333c-4.3166 3.0276-8.2996 4.9972-11.491 5.8125-3.1909 0.81525-5.3696 0.52224-6.8872-0.4478-1.5966-1.0205-2.7674-2.9787-3.251-6.4573s-0.1301-8.2557 1.1643-13.792c1.5263-6.5286 4.4744-14.152 8.4187-22.157 0.82326 1.7286 1.6697 3.4636 2.5704 5.2034 8.0503 15.551 17.646 28.476 26.94 36.988 4.6467 4.2561 9.2108 7.4226 13.676 9.2157 4.465 1.7931 9.0854 2.2071 13.04 0.2239 3.8036-1.9075 6.1838-5.6576 7.3798-10.049 1.196-4.3911 1.3707-9.5971 0.76126-15.467-1.2189-11.74-5.6469-26.163-12.932-41.063a3.4395 3.4395 0 1 0 -6.1796 3.0182c6.9954 14.306 11.17 28.159 12.27 38.753 0.54996 5.2968 0.31122 9.7691-0.55527 12.95-0.86649 3.1813-2.1892 4.894-3.8242 5.7139-1.7007 0.85293-4.0698 0.87969-7.3977-0.45676-3.3278-1.3365-7.3575-4.0412-11.589-7.9171-8.4632-7.7518-17.744-20.129-25.48-35.072-1.7075-3.2983-3.238-6.5773-4.6482-9.8158 1.7495-3.0804 3.6258-6.1948 5.6781-9.3053 2.056-3.1161 4.1812-6.0712 6.3319-8.9023 0.58315-0.0082 1.1221-0.06074 1.7106-0.06269 3.0586-0.01013 6.2024 0.07668 9.4038 0.24182 17.029 0.87837 32.295 4.1866 42.935 8.6426 5.32 2.228 9.4699 4.7604 12.055 7.2006 2.5849 2.4402 3.4917 4.5296 3.3943 6.3588-0.0842 1.581-0.91365 3.2526-3.0003 5.1228-2.0866 1.8703-5.3667 3.7603-9.5919 5.3736a3.4395 3.4395 0 1 0 2.454 6.4215c4.7632-1.8187 8.7366-3.987 11.732-6.6722 2.9958-2.6852 5.072-6.0645 5.2751-9.8785 0.23478-4.4094-2.0578-8.4415-5.5438-11.732-3.486-3.2908-8.2804-6.1007-14.115-8.544-11.669-4.8867-27.551-8.2493-45.246-9.162-2.017-0.10404-3.976-0.1127-5.9558-0.15225 4.2962-5.0244 8.6343-9.424 12.807-12.995 8.0955-6.9282 15.689-10.639 20.267-10.81 1.6943-0.06331 2.9267 0.26789 3.9227 0.90456 1.4959 0.95616 2.6148 2.711 3.1615 5.8214 0.54663 3.1104 0.38089 7.4004-0.61796 12.404a3.4397 3.4397 0 0 0 6.7439 1.3434c1.1124-5.5727 1.4083-10.585 0.64483-14.93-0.76349-4.3445-2.7299-8.2002-6.2244-10.434-2.3308-1.4898-5.0865-2.0837-7.8813-1.9793-7.5416 0.2818-15.787 5.0056-24.495 12.458-5.7214 4.8965-11.575 11.154-17.24 18.306-5.7699 0.19353-11.353 0.59354-16.47 1.3434-0.57282-2.6064-1.0454-5.1267-1.3344-7.4693-0.69631-5.6434-0.53949-10.431 0.31346-13.846 0.85294-3.415 2.2315-5.2464 3.9317-6.099 0.63873-0.32032 1.303-0.50238 2.1405-0.56423 3.1015-0.22895 8.3226 1.8722 14.124 6.6095a3.4403 3.4403 0 1 0 4.3526 -5.3288c-6.4986-5.307-12.811-8.5962-18.978-8.141zm6.6274 40.571c-1.1292 1.592-2.2771 3.1254-3.3764 4.7915-1.1069 1.6776-2.1634 3.3593-3.1883 5.0333-1.109-3.0126-2.0873-5.9681-2.9107-8.8127 3.0215-0.4263 6.1742-0.78055 9.4755-1.012zm19.39 12.503a7.495 7.377 0 0 0 -7.7111 7.3708 7.495 7.377 0 0 0 14.983 0 7.495 7.377 0 0 0 -7.2723 -7.3708z"/>
  </g>
  <g fill="url(#d)" transform="matrix(.21809 0 0 .21809 66.131 18.284)">
   <path style="color-rendering:auto;text-decoration-color:#000000;color:#000000;isolation:auto;mix-blend-mode:normal;shape-rendering:auto;solid-color:#000000;block-progression:tb;text-decoration-line:none;text-decoration-style:solid;image-rendering:auto;white-space:normal;text-indent:0;text-transform:none" d="m-218.58-33.356c-1.6301 0.12036-3.2378 0.53749-4.7198 1.2807-3.9551 1.9835-6.3657 5.9433-7.523 10.577-1.1574 4.6338-1.2321 10.142-0.46571 16.354 0.31064 2.5176 0.79751 5.1797 1.3882 7.9082-4.014 0.83898-7.8335 1.7856-11.177 2.9734-5.1496 1.8293-9.4505 4.0421-12.691 6.7976-3.2402 2.7555-5.5011 6.2572-5.7139 10.255-0.20275 3.8078 1.5027 7.3791 4.1914 10.353 2.6887 2.974 6.398 5.54 10.926 7.8365a3.4395 3.4395 0 1 0 3.1077 -6.1349c-4.0155-2.0364-7.0704-4.2481-8.9381-6.314s-2.5021-3.797-2.4181-5.3736c0.0882-1.6563 0.99987-3.4224 3.3048-5.3826 2.3049-1.9601 5.9167-3.9131 10.532-5.5527 3.0591-1.0867 6.6815-1.9772 10.523-2.7674 1.381 4.8893 3.1814 10.011 5.3378 15.252-5.5419 10.236-9.4695 20.122-11.491 28.767-1.4245 6.0932-1.9466 11.574-1.2897 16.3 0.65698 4.7257 2.6412 8.9206 6.3677 11.302 3.536 2.2601 7.9144 2.4339 12.288 1.3165 4.3733-1.1173 8.9575-3.4891 13.739-6.8424a3.44 3.44 0 1 0 -3.9496 -5.6333c-4.3166 3.0276-8.2996 4.9972-11.491 5.8125-3.1909 0.81525-5.3696 0.52224-6.8872-0.4478-1.5966-1.0205-2.7674-2.9787-3.251-6.4573s-0.1301-8.2557 1.1643-13.792c1.5263-6.5286 4.4744-14.152 8.4187-22.157 0.82326 1.7286 1.6697 3.4636 2.5704 5.2034 8.0503 15.551 17.646 28.476 26.94 36.988 4.6467 4.2561 9.2108 7.4226 13.676 9.2157 4.465 1.7931 9.0854 2.2071 13.04 0.2239 3.8036-1.9075 6.1838-5.6576 7.3798-10.049 1.196-4.3911 1.3707-9.5971 0.76126-15.467-1.2189-11.74-5.6469-26.163-12.932-41.063a3.4395 3.4395 0 1 0 -6.1796 3.0182c6.9954 14.306 11.17 28.159 12.27 38.753 0.54996 5.2968 0.31122 9.7691-0.55527 12.95-0.86649 3.1813-2.1892 4.894-3.8242 5.7139-1.7007 0.85293-4.0698 0.87969-7.3977-0.45676-3.3278-1.3365-7.3575-4.0412-11.589-7.9171-8.4632-7.7518-17.744-20.129-25.48-35.072-1.7075-3.2983-3.238-6.5773-4.6482-9.8158 1.7495-3.0804 3.6258-6.1948 5.6781-9.3053 2.056-3.1161 4.1812-6.0712 6.3319-8.9023 0.58315-0.0082 1.1221-0.06074 1.7106-0.06269 3.0586-0.01013 6.2024 0.07668 9.4038 0.24182 17.029 0.87837 32.295 4.1866 42.935 8.6426 5.32 2.228 9.4699 4.7604 12.055 7.2006 2.5849 2.4402 3.4917 4.5296 3.3943 6.3588-0.0842 1.581-0.91365 3.2526-3.0003 5.1228-2.0866 1.8703-5.3667 3.7603-9.5919 5.3736a3.4395 3.4395 0 1 0 2.454 6.4215c4.7632-1.8187 8.7366-3.987 11.732-6.6722 2.9958-2.6852 5.072-6.0645 5.2751-9.8785 0.23478-4.4094-2.0578-8.4415-5.5438-11.732-3.486-3.2908-8.2804-6.1007-14.115-8.544-11.669-4.8867-27.551-8.2493-45.246-9.162-2.017-0.10404-3.976-0.1127-5.9558-0.15225 4.2962-5.0244 8.6343-9.424 12.807-12.995 8.0955-6.9282 15.689-10.639 20.267-10.81 1.6943-0.06331 2.9267 0.26789 3.9227 0.90456 1.4959 0.95616 2.6148 2.711 3.1615 5.8214 0.54663 3.1104 0.38089 7.4004-0.61796 12.404a3.4397 3.4397 0 0 0 6.7439 1.3434c1.1124-5.5727 1.4083-10.585 0.64483-14.93-0.76349-4.3445-2.7299-8.2002-6.2244-10.434-2.3308-1.4898-5.0865-2.0837-7.8813-1.9793-7.5416 0.2818-15.787 5.0056-24.495 12.458-5.7214 4.8965-11.575 11.154-17.24 18.306-5.7699 0.19353-11.353 0.59354-16.47 1.3434-0.57282-2.6064-1.0454-5.1267-1.3344-7.4693-0.69631-5.6434-0.53949-10.431 0.31346-13.846 0.85294-3.415 2.2315-5.2464 3.9317-6.099 0.63873-0.32032 1.303-0.50238 2.1405-0.56423 3.1015-0.22895 8.3226 1.8722 14.124 6.6095a3.4403 3.4403 0 1 0 4.3526 -5.3288c-6.4986-5.307-12.811-8.5962-18.978-8.141zm6.6274 40.571c-1.1292 1.592-2.2771 3.1254-3.3764 4.7915-1.1069 1.6776-2.1634 3.3593-3.1883 5.0333-1.109-3.0126-2.0873-5.9681-2.9107-8.8127 3.0215-0.4263 6.1742-0.78055 9.4755-1.012zm19.39 12.503a7.495 7.377 0 0 0 -7.7111 7.3708 7.495 7.377 0 0 0 14.983 0 7.495 7.377 0 0 0 -7.2723 -7.3708z" fill="url(#e)"/>
  </g>
 </g>
</svg>
