<?xml version="1.0" encoding="UTF-8" standalone="no"?>
<!-- Created with Inkscape (http://www.inkscape.org/) -->

<svg
   xmlns:dc="http://purl.org/dc/elements/1.1/"
   xmlns:cc="http://creativecommons.org/ns#"
   xmlns:rdf="http://www.w3.org/1999/02/22-rdf-syntax-ns#"
   xmlns:svg="http://www.w3.org/2000/svg"
   xmlns="http://www.w3.org/2000/svg"
   xmlns:xlink="http://www.w3.org/1999/xlink"
   xmlns:sodipodi="http://sodipodi.sourceforge.net/DTD/sodipodi-0.dtd"
   xmlns:inkscape="http://www.inkscape.org/namespaces/inkscape"
   version="1.1"
   width="48"
   height="48"
   id="svg4951"
   inkscape:version="0.91 r"
   sodipodi:docname="atom.svg">
  <sodipodi:namedview
     pagecolor="#ffffff"
     bordercolor="#666666"
     borderopacity="1"
     objecttolerance="10"
     gridtolerance="10"
     guidetolerance="10"
     inkscape:pageopacity="0"
     inkscape:pageshadow="2"
     inkscape:window-width="1280"
     inkscape:window-height="745"
     id="namedview154"
     showgrid="true"
     inkscape:zoom="9.8333333"
     inkscape:cx="26.43116"
     inkscape:cy="26.733012"
     inkscape:window-x="0"
     inkscape:window-y="30"
     inkscape:window-maximized="1"
     inkscape:current-layer="layer1">
    <inkscape:grid
       type="xygrid"
       id="grid11326" />
  </sodipodi:namedview>
  <defs
     id="defs4953">
    <linearGradient
       inkscape:collect="always"
       id="linearGradient11364">
      <stop
         style="stop-color:#ffffff;stop-opacity:1"
         offset="0"
         id="stop11366" />
      <stop
         style="stop-color:#cee7dd;stop-opacity:1"
         offset="1"
         id="stop11368" />
    </linearGradient>
    <linearGradient
       id="linearGradient11346"
       inkscape:collect="always">
      <stop
         id="stop11356"
         offset="0"
         style="stop-color:#000000;stop-opacity:1;" />
      <stop
         id="stop11358"
         offset="1"
         style="stop-color:#000000;stop-opacity:0;" />
    </linearGradient>
    <linearGradient
       x1="71.204407"
       y1="15.369057"
       x2="71.204407"
       y2="40.495617"
       id="linearGradient3177"
       xlink:href="#linearGradient4806-2"
       gradientUnits="userSpaceOnUse"
       gradientTransform="matrix(1.6169806,0,0,1.6169806,-92.707374,-21.060237)" />
    <linearGradient
       id="linearGradient4806-2">
      <stop
         id="stop4808-4"
         style="stop-color:#ffffff;stop-opacity:1"
         offset="0" />
      <stop
         id="stop4810-0"
         style="stop-color:#ffffff;stop-opacity:0.23529412"
         offset="0.42447853" />
      <stop
         id="stop4812-8"
         style="stop-color:#ffffff;stop-opacity:0.15686275"
         offset="0.82089913" />
      <stop
         id="stop4814-0"
         style="stop-color:#ffffff;stop-opacity:0.39215687"
         offset="1" />
    </linearGradient>
    <radialGradient
       cx="23.896"
       cy="3.99"
       r="20.396999"
       fx="23.896"
       fy="3.99"
       id="radialGradient4201"
       xlink:href="#radialGradient3093-0-3-6-6"
       gradientUnits="userSpaceOnUse"
       gradientTransform="matrix(0,2.8885219,-3.8127977,0,39.21344,-65.949504)" />
    <radialGradient
       cx="23.896"
       cy="3.99"
       r="20.396999"
       id="radialGradient3093-0-3-6-6"
       gradientUnits="userSpaceOnUse"
       gradientTransform="matrix(0,1.2316483,-1.625754,0,18.486966,-28.721977)">
      <stop
         id="stop3244-9-33-7-0-9"
         style="stop-color:#b1e198;stop-opacity:1"
         offset="0" />
      <stop
         id="stop3246-3-5-0-8-5"
         style="stop-color:#71c586;stop-opacity:1"
         offset="0.26238" />
      <stop
         id="stop3248-1-7-8-8-1"
         style="stop-color:#04a171;stop-opacity:1"
         offset="0.66093999" />
      <stop
         id="stop3250-9-3-0-5-1"
         style="stop-color:#108562;stop-opacity:1"
         offset="1" />
    </radialGradient>
    <linearGradient
       id="linearGradient3820-7-2-1">
      <stop
         id="stop3822-2-6-3"
         style="stop-color:#3d3d3d;stop-opacity:1"
         offset="0" />
      <stop
         id="stop3864-8-7-7"
         style="stop-color:#686868;stop-opacity:0.49803922"
         offset="0.5" />
      <stop
         id="stop3824-1-2-5"
         style="stop-color:#686868;stop-opacity:0"
         offset="1" />
    </linearGradient>
    <radialGradient
       cx="99.157013"
       cy="186.17059"
       r="62.769119"
       fx="99.157013"
       fy="186.17059"
       id="radialGradient4949"
       xlink:href="#linearGradient3820-7-2-1"
       gradientUnits="userSpaceOnUse"
       gradientTransform="matrix(0.27083381,0,0,0.08762273,-2.85507,25.187228)" />
    <linearGradient
       inkscape:collect="always"
       xlink:href="#linearGradient11346"
       id="linearGradient11352"
       x1="-26.882007"
       y1="26.21048"
       x2="103.56441"
       y2="26.21048"
       gradientUnits="userSpaceOnUse" />
    <linearGradient
       inkscape:collect="always"
       xlink:href="#linearGradient11364"
       id="linearGradient11362"
       gradientUnits="userSpaceOnUse"
       x1="38.341202"
       y1="-37.983437"
       x2="38.341202"
       y2="94.989677" />
  </defs>
  <metadata
     id="metadata4956">
    <rdf:RDF>
      <cc:Work
         rdf:about="">
        <dc:format>image/svg+xml</dc:format>
        <dc:type
           rdf:resource="http://purl.org/dc/dcmitype/StillImage" />
        <dc:title></dc:title>
      </cc:Work>
    </rdf:RDF>
  </metadata>
  <g
     id="layer1">
    <path
       d="m 41,41.5 a 17,5.4999999 0 0 1 -34,0 17,5.4999999 0 1 1 34,0 z"
       inkscape:connector-curvature="0"
       id="path3818-0-5"
       style="fill:url(#radialGradient4949);fill-opacity:1;stroke:none" />
    <path
       d="M 24,3.5000009 C 12.68881,3.5000009 3.5,12.688807 3.5,24 3.5,35.311193 12.68881,44.500003 24,44.5 35.31119,44.5 44.50001,35.311193 44.5,24 44.5,12.688807 35.31119,3.5000009 24,3.5000009 z"
       inkscape:connector-curvature="0"
       id="path2555-7-2"
       style="color:#000000;fill:url(#radialGradient4201);fill-opacity:1;fill-rule:nonzero;stroke:none;stroke-width:0.99999994;marker:none;visibility:visible;display:inline;overflow:visible;enable-background:accumulate" />
    <path
       d="M 43.5,24.000001 C 43.5,34.76955 34.76954,43.5 23.99999,43.5 13.23045,43.5 4.5,34.76955 4.5,24.000001 4.5,13.23045 13.23045,4.5000019 23.99999,4.5000019 34.76954,4.5000019 43.5,13.23045 43.5,24.000001 z"
       inkscape:connector-curvature="0"
       id="path4176"
       style="opacity:0.8;color:#000000;fill:none;stroke:url(#linearGradient3177);stroke-width:1;stroke-linecap:round;stroke-linejoin:round;stroke-miterlimit:4;stroke-opacity:1;stroke-dasharray:none;stroke-dashoffset:0;marker:none;visibility:visible;display:inline;overflow:visible;enable-background:accumulate" />
    <path
       d="M 24,3.4999999 C 12.68881,3.4999999 3.5,12.688806 3.5,23.999999 3.5,35.31119 12.68881,44.5 24,44.5 35.31119,44.5 44.50001,35.31119 44.5,23.999999 44.5,12.688806 35.31119,3.4999999 24,3.4999999 z"
       inkscape:connector-curvature="0"
       id="path3871"
       style="opacity:0.7;color:#000000;fill:none;stroke:#006344;stroke-width:1;stroke-opacity:1;marker:none;visibility:visible;display:inline;overflow:visible;enable-background:accumulate" />
    <g
       transform="matrix(0.2180892,0,0,0.2180892,15.638198,19.283777)"
       id="g11338"
       style="fill:#000000;fill-opacity:1;opacity:0.15">
      <path
         inkscape:connector-curvature="0"
         id="path11340"
         d="m 13.701163,-33.352419 c -1.711536,0.128372 -3.429829,0.575035 -5.0015365,1.375857 -3.3145009,1.688826 -5.5987854,4.745387 -6.9311969,8.211869 -1.33241137,3.466478 -1.8623216,7.445787 -1.85178161,11.872161 0.0103229,4.3235357 0.59051848,9.1398897 1.61814301,14.2517887 -3.5291462,0.7896396 -6.892652,1.6783304 -9.890581,2.760365 -5.068374,1.8293106 -9.335847,4.0448481 -12.61634,6.8792763 -3.280479,2.834429 -5.669491,6.537797 -5.892815,10.79917 -0.212745,4.059361 1.583302,7.839474 4.309282,10.903008 2.725994,3.063535 6.423032,5.644228 10.885704,7.94362 a 4.4308713,4.4308713 0 1 0 4.0583391,-7.874394 c -3.7981081,-1.956969 -6.6449731,-4.074705 -8.3243581,-5.962041 -1.67938,-1.88734 -2.149875,-3.312928 -2.085416,-4.542921 0.06773,-1.292466 0.757404,-2.762328 2.838243,-4.560226 2.080831,-1.797899 5.4654384,-3.674066 9.8386655,-5.252482 2.627368,-0.948288 5.69766355,-1.745566 8.9646968,-2.466153 1.2708108,4.423649 2.8695396,9.020219 4.7592458,13.71529 -5.2686785,9.960338 -9.02096332,19.582467 -10.9722303,28.062262 -1.3958152,6.065885 -1.9144057,11.55939 -1.2547106,16.380471 0.6596819,4.821082 2.671761,9.265089 6.6196802,11.828899 3.7456258,2.432433 8.3697706,2.594569 12.7980536,1.445077 4.428293,-1.149484 8.957485,-3.549301 13.65472,-6.896582 A 4.4308713,4.4308713 0 1 0 24.08498,68.313797 C 19.986059,71.234716 16.223052,73.094212 13.337731,73.84318 10.452397,74.592144 8.7412193,74.289647 7.600672,73.548968 6.4018513,72.770449 5.3699425,71.180006 4.9268421,67.941708 4.4837239,64.703414 4.8100871,60.112649 6.0431017,54.754263 7.3717606,48.980188 9.801975,42.286338 13.086787,35.224036 c 0.502637,1.036193 0.966923,2.066157 1.497002,3.106493 7.829776,15.366803 17.155408,28.145965 26.271055,36.628911 4.557824,4.24147 9.052996,7.428787 13.559533,9.267557 4.506539,1.838764 9.373519,2.319005 13.568187,0.181713 4.034713,-2.055785 6.480684,-6.050782 7.684024,-10.539572 1.20334,-4.488786 1.367785,-9.710161 0.770133,-15.558419 -1.195302,-11.696517 -5.521,-25.944801 -12.607683,-40.669945 a 4.4314611,4.4314611 0 1 0 -7.986886,3.84201 c 6.721122,13.96556 10.730269,27.485406 11.776978,37.727865 0.523354,5.12123 0.28026,9.415502 -0.510538,12.365396 -0.790797,2.949895 -1.926057,4.317462 -3.149757,4.940965 -1.273245,0.648752 -3.167563,0.74231 -6.195677,-0.493231 C 54.735043,74.788239 50.921074,72.216402 46.894764,68.469553 38.842141,60.975856 29.917027,48.894654 22.484142,34.3068 20.917365,31.231818 19.527686,28.183665 18.22678,25.160385 c 1.610057,-2.858614 3.327597,-5.743107 5.200561,-8.627218 1.86944,-2.878688 3.794375,-5.634597 5.74571,-8.26379 0.372765,-0.00436 0.714724,-0.042 1.090301,-0.043263 2.93251,-0.00987 5.948285,0.072375 9.025266,0.2336342 16.350558,0.8568981 31.012102,4.0977338 41.128566,8.4022408 5.058232,2.152245 8.959959,4.59135 11.318359,6.853315 2.358401,2.261981 3.034235,4.032008 2.959388,5.460156 -0.06467,1.233999 -0.678079,2.610799 -2.552687,4.31794 -1.874608,1.707142 -4.934748,3.512196 -8.930083,5.06211 a 4.431165,4.431165 0 1 0 3.201677,8.263786 c 4.695282,-1.821442 8.651016,-4.007535 11.690443,-6.775441 3.039439,-2.767901 5.229769,-6.344019 5.442849,-10.409774 0.24633,-4.700224 -2.16506,-8.945637 -5.676483,-12.313476 C 94.359232,13.952766 89.613624,11.14729 83.887109,8.7106921 72.434081,3.8374956 56.969512,0.51878146 39.747237,-0.38380316 c -1.188808,-0.0623005 -2.337504,-0.0549688 -3.513191,-0.0951832 3.644031,-4.19069334 7.297879,-7.93008564 10.816475,-10.98953964 7.730639,-6.721864 14.986491,-10.200356 18.907198,-10.349202 1.450033,-0.05505 2.376845,0.224481 3.123799,0.709561 1.122757,0.729128 2.08946,2.140689 2.587301,5.018846 0.497841,2.878148 0.352598,6.9868032 -0.597069,11.8202407 a 4.4309734,4.4309734 0 1 0 8.696445,1.704678 c 1.091664,-5.5561471 1.400561,-10.5941337 0.631683,-15.0392257 -0.76888,-4.445097 -2.787575,-8.533311 -6.489886,-10.93762 -2.469758,-1.603881 -5.39944,-2.238412 -8.289746,-2.128683 -7.798202,0.296054 -15.860163,5.107889 -24.376009,12.512499 C 35.75981,-13.388674 30.172103,-7.3301252 24.759929,-0.43571882 19.72562,-0.23747046 14.843474,0.12157147 10.300464,0.75841899 9.3280872,-3.9583435 8.7861702,-8.2847184 8.7775041,-11.918489 c -0.0087,-3.666463 0.4864883,-6.649311 1.2633629,-8.67049 0.776881,-2.021167 1.677148,-2.974989 2.682487,-3.48723 0.478766,-0.243949 0.969821,-0.390737 1.644106,-0.44131 2.475196,-0.185645 7.343049,1.677009 12.841319,6.238941 a 4.4308713,4.4308713 0 1 0 5.65918,-6.818708 c -6.393831,-5.304981 -12.681082,-8.741567 -19.166796,-8.255133 z m 4.257368,42.2361724 c -0.649736,0.9581067 -1.325372,1.8457656 -1.964276,2.8295906 -0.638221,0.982775 -1.232677,1.960088 -1.843124,2.942084 C 13.54912,12.892392 12.974591,11.14636 12.47241,9.4462096 14.231907,9.2125842 16.110975,9.0576167 17.958531,8.8837534 Z m 20.98396,10.9549256 a 7.2467141,7.2467141 0 0 0 -7.459041,7.242713 7.2470385,7.2470385 0 0 0 14.494077,0 7.2467141,7.2467141 0 0 0 -7.035036,-7.242713 z"
         style="color:#000000;font-style:normal;font-variant:normal;font-weight:normal;font-stretch:normal;font-size:medium;line-height:normal;font-family:sans-serif;text-indent:0;text-align:start;text-decoration:none;text-decoration-line:none;text-decoration-style:solid;text-decoration-color:#000000;letter-spacing:normal;word-spacing:normal;text-transform:none;direction:ltr;block-progression:tb;writing-mode:lr-tb;baseline-shift:baseline;text-anchor:start;white-space:normal;clip-rule:nonzero;display:inline;overflow:visible;visibility:visible;opacity:1;isolation:auto;mix-blend-mode:normal;color-interpolation:sRGB;color-interpolation-filters:linearRGB;solid-color:#000000;solid-opacity:1;fill:#000000;fill-opacity:1;fill-rule:nonzero;stroke:none;stroke-width:9.17055988;stroke-linecap:round;stroke-linejoin:miter;stroke-miterlimit:4;stroke-dasharray:none;stroke-dashoffset:0;stroke-opacity:1;color-rendering:auto;image-rendering:auto;shape-rendering:auto;text-rendering:auto;enable-background:accumulate" />
    </g>
    <g
       transform="matrix(0.2180892,0,0,0.2180892,15.638198,19.284453)"
       id="g11342"
       style="opacity:0.05;fill:#000000;fill-opacity:1;stroke:#000000;stroke-width:9.17055988;stroke-miterlimit:4;stroke-dasharray:none;stroke-opacity:1">
      <path
         inkscape:connector-curvature="0"
         id="path11344"
         d="m 13.701163,-33.352419 c -1.711536,0.128372 -3.429829,0.575035 -5.0015365,1.375857 -3.3145009,1.688826 -5.5987854,4.745387 -6.9311969,8.211869 -1.33241137,3.466478 -1.8623216,7.445787 -1.85178161,11.872161 0.0103229,4.3235357 0.59051848,9.1398897 1.61814301,14.2517887 -3.5291462,0.7896396 -6.892652,1.6783304 -9.890581,2.760365 -5.068374,1.8293106 -9.335847,4.0448481 -12.61634,6.8792763 -3.280479,2.834429 -5.669491,6.537797 -5.892815,10.79917 -0.212745,4.059361 1.583302,7.839474 4.309282,10.903008 2.725994,3.063535 6.423032,5.644228 10.885704,7.94362 a 4.4308713,4.4308713 0 1 0 4.0583391,-7.874394 c -3.7981081,-1.956969 -6.6449731,-4.074705 -8.3243581,-5.962041 -1.67938,-1.88734 -2.149875,-3.312928 -2.085416,-4.542921 0.06773,-1.292466 0.757404,-2.762328 2.838243,-4.560226 2.080831,-1.797899 5.4654384,-3.674066 9.8386655,-5.252482 2.627368,-0.948288 5.69766355,-1.745566 8.9646968,-2.466153 1.2708108,4.423649 2.8695396,9.020219 4.7592458,13.71529 -5.2686785,9.960338 -9.02096332,19.582467 -10.9722303,28.062262 -1.3958152,6.065885 -1.9144057,11.55939 -1.2547106,16.380471 0.6596819,4.821082 2.671761,9.265089 6.6196802,11.828899 3.7456258,2.432433 8.3697706,2.594569 12.7980536,1.445077 4.428293,-1.149484 8.957485,-3.549301 13.65472,-6.896582 A 4.4308713,4.4308713 0 1 0 24.08498,68.313797 C 19.986059,71.234716 16.223052,73.094212 13.337731,73.84318 10.452397,74.592144 8.7412193,74.289647 7.600672,73.548968 6.4018513,72.770449 5.3699425,71.180006 4.9268421,67.941708 4.4837239,64.703414 4.8100871,60.112649 6.0431017,54.754263 7.3717606,48.980188 9.801975,42.286338 13.086787,35.224036 c 0.502637,1.036193 0.966923,2.066157 1.497002,3.106493 7.829776,15.366803 17.155408,28.145965 26.271055,36.628911 4.557824,4.24147 9.052996,7.428787 13.559533,9.267557 4.506539,1.838764 9.373519,2.319005 13.568187,0.181713 4.034713,-2.055785 6.480684,-6.050782 7.684024,-10.539572 1.20334,-4.488786 1.367785,-9.710161 0.770133,-15.558419 -1.195302,-11.696517 -5.521,-25.944801 -12.607683,-40.669945 a 4.4314611,4.4314611 0 1 0 -7.986886,3.84201 c 6.721122,13.96556 10.730269,27.485406 11.776978,37.727865 0.523354,5.12123 0.28026,9.415502 -0.510538,12.365396 -0.790797,2.949895 -1.926057,4.317462 -3.149757,4.940965 -1.273245,0.648752 -3.167563,0.74231 -6.195677,-0.493231 C 54.735043,74.788239 50.921074,72.216402 46.894764,68.469553 38.842141,60.975856 29.917027,48.894654 22.484142,34.3068 20.917365,31.231818 19.527686,28.183665 18.22678,25.160385 c 1.610057,-2.858614 3.327597,-5.743107 5.200561,-8.627218 1.86944,-2.878688 3.794375,-5.634597 5.74571,-8.26379 0.372765,-0.00436 0.714724,-0.042 1.090301,-0.043263 2.93251,-0.00987 5.948285,0.072375 9.025266,0.2336342 16.350558,0.8568981 31.012102,4.0977338 41.128566,8.4022408 5.058232,2.152245 8.959959,4.59135 11.318359,6.853315 2.358401,2.261981 3.034235,4.032008 2.959388,5.460156 -0.06467,1.233999 -0.678079,2.610799 -2.552687,4.31794 -1.874608,1.707142 -4.934748,3.512196 -8.930083,5.06211 a 4.431165,4.431165 0 1 0 3.201677,8.263786 c 4.695282,-1.821442 8.651016,-4.007535 11.690443,-6.775441 3.039439,-2.767901 5.229769,-6.344019 5.442849,-10.409774 0.24633,-4.700224 -2.16506,-8.945637 -5.676483,-12.313476 C 94.359232,13.952766 89.613624,11.14729 83.887109,8.7106921 72.434081,3.8374956 56.969512,0.51878146 39.747237,-0.38380316 c -1.188808,-0.0623005 -2.337504,-0.0549688 -3.513191,-0.0951832 3.644031,-4.19069334 7.297879,-7.93008564 10.816475,-10.98953964 7.730639,-6.721864 14.986491,-10.200356 18.907198,-10.349202 1.450033,-0.05505 2.376845,0.224481 3.123799,0.709561 1.122757,0.729128 2.08946,2.140689 2.587301,5.018846 0.497841,2.878148 0.352598,6.9868032 -0.597069,11.8202407 a 4.4309734,4.4309734 0 1 0 8.696445,1.704678 c 1.091664,-5.5561471 1.400561,-10.5941337 0.631683,-15.0392257 -0.76888,-4.445097 -2.787575,-8.533311 -6.489886,-10.93762 -2.469758,-1.603881 -5.39944,-2.238412 -8.289746,-2.128683 -7.798202,0.296054 -15.860163,5.107889 -24.376009,12.512499 C 35.75981,-13.388674 30.172103,-7.3301252 24.759929,-0.43571882 19.72562,-0.23747046 14.843474,0.12157147 10.300464,0.75841899 9.3280872,-3.9583435 8.7861702,-8.2847184 8.7775041,-11.918489 c -0.0087,-3.666463 0.4864883,-6.649311 1.2633629,-8.67049 0.776881,-2.021167 1.677148,-2.974989 2.682487,-3.48723 0.478766,-0.243949 0.969821,-0.390737 1.644106,-0.44131 2.475196,-0.185645 7.343049,1.677009 12.841319,6.238941 a 4.4308713,4.4308713 0 1 0 5.65918,-6.818708 c -6.393831,-5.304981 -12.681082,-8.741567 -19.166796,-8.255133 z m 4.257368,42.2361724 c -0.649736,0.9581067 -1.325372,1.8457656 -1.964276,2.8295906 -0.638221,0.982775 -1.232677,1.960088 -1.843124,2.942084 C 13.54912,12.892392 12.974591,11.14636 12.47241,9.4462096 14.231907,9.2125842 16.110975,9.0576167 17.958531,8.8837534 Z m 20.98396,10.9549256 a 7.2467141,7.2467141 0 0 0 -7.459041,7.242713 7.2470385,7.2470385 0 0 0 14.494077,0 7.2467141,7.2467141 0 0 0 -7.035036,-7.242713 z"
         style="color:#000000;font-style:normal;font-variant:normal;font-weight:normal;font-stretch:normal;font-size:medium;line-height:normal;font-family:sans-serif;text-indent:0;text-align:start;text-decoration:none;text-decoration-line:none;text-decoration-style:solid;text-decoration-color:#000000;letter-spacing:normal;word-spacing:normal;text-transform:none;direction:ltr;block-progression:tb;writing-mode:lr-tb;baseline-shift:baseline;text-anchor:start;white-space:normal;clip-rule:nonzero;display:inline;overflow:visible;visibility:visible;opacity:1;isolation:auto;mix-blend-mode:normal;color-interpolation:sRGB;color-interpolation-filters:linearRGB;solid-color:#000000;solid-opacity:1;fill:#000000;fill-opacity:1;fill-rule:nonzero;stroke:#000000;stroke-width:9.17055988;stroke-linecap:round;stroke-linejoin:miter;stroke-miterlimit:4;stroke-dasharray:none;stroke-dashoffset:0;stroke-opacity:1;color-rendering:auto;image-rendering:auto;shape-rendering:auto;text-rendering:auto;enable-background:accumulate" />
    </g>
    <g
       id="g11241"
       transform="matrix(0.2180892,0,0,0.2180892,15.638198,18.283777)"
       style="fill-opacity:1;fill:url(#linearGradient11352)">
      <path
         style="color:#000000;font-style:normal;font-variant:normal;font-weight:normal;font-stretch:normal;font-size:medium;line-height:normal;font-family:sans-serif;text-indent:0;text-align:start;text-decoration:none;text-decoration-line:none;text-decoration-style:solid;text-decoration-color:#000000;letter-spacing:normal;word-spacing:normal;text-transform:none;direction:ltr;block-progression:tb;writing-mode:lr-tb;baseline-shift:baseline;text-anchor:start;white-space:normal;clip-rule:nonzero;display:inline;overflow:visible;visibility:visible;opacity:1;isolation:auto;mix-blend-mode:normal;color-interpolation:sRGB;color-interpolation-filters:linearRGB;solid-color:#000000;solid-opacity:1;fill:url(#linearGradient11362);fill-opacity:1;fill-rule:nonzero;stroke:none;stroke-width:9.17055988;stroke-linecap:round;stroke-linejoin:miter;stroke-miterlimit:4;stroke-dasharray:none;stroke-dashoffset:0;stroke-opacity:1;color-rendering:auto;image-rendering:auto;shape-rendering:auto;text-rendering:auto;enable-background:accumulate"
         d="m 13.701163,-33.352419 c -1.711536,0.128372 -3.429829,0.575035 -5.0015365,1.375857 -3.3145009,1.688826 -5.5987854,4.745387 -6.9311969,8.211869 -1.33241137,3.466478 -1.8623216,7.445787 -1.85178161,11.872161 0.0103229,4.3235357 0.59051848,9.1398897 1.61814301,14.2517887 -3.5291462,0.7896396 -6.892652,1.6783304 -9.890581,2.760365 -5.068374,1.8293106 -9.335847,4.0448481 -12.61634,6.8792763 -3.280479,2.834429 -5.669491,6.537797 -5.892815,10.79917 -0.212745,4.059361 1.583302,7.839474 4.309282,10.903008 2.725994,3.063535 6.423032,5.644228 10.885704,7.94362 a 4.4308713,4.4308713 0 1 0 4.0583391,-7.874394 c -3.7981081,-1.956969 -6.6449731,-4.074705 -8.3243581,-5.962041 -1.67938,-1.88734 -2.149875,-3.312928 -2.085416,-4.542921 0.06773,-1.292466 0.757404,-2.762328 2.838243,-4.560226 2.080831,-1.797899 5.4654384,-3.674066 9.8386655,-5.252482 2.627368,-0.948288 5.69766355,-1.745566 8.9646968,-2.466153 1.2708108,4.423649 2.8695396,9.020219 4.7592458,13.71529 -5.2686785,9.960338 -9.02096332,19.582467 -10.9722303,28.062262 -1.3958152,6.065885 -1.9144057,11.55939 -1.2547106,16.380471 0.6596819,4.821082 2.671761,9.265089 6.6196802,11.828899 3.7456258,2.432433 8.3697706,2.594569 12.7980536,1.445077 4.428293,-1.149484 8.957485,-3.549301 13.65472,-6.896582 A 4.4308713,4.4308713 0 1 0 24.08498,68.313797 C 19.986059,71.234716 16.223052,73.094212 13.337731,73.84318 10.452397,74.592144 8.7412193,74.289647 7.600672,73.548968 6.4018513,72.770449 5.3699425,71.180006 4.9268421,67.941708 4.4837239,64.703414 4.8100871,60.112649 6.0431017,54.754263 7.3717606,48.980188 9.801975,42.286338 13.086787,35.224036 c 0.502637,1.036193 0.966923,2.066157 1.497002,3.106493 7.829776,15.366803 17.155408,28.145965 26.271055,36.628911 4.557824,4.24147 9.052996,7.428787 13.559533,9.267557 4.506539,1.838764 9.373519,2.319005 13.568187,0.181713 4.034713,-2.055785 6.480684,-6.050782 7.684024,-10.539572 1.20334,-4.488786 1.367785,-9.710161 0.770133,-15.558419 -1.195302,-11.696517 -5.521,-25.944801 -12.607683,-40.669945 a 4.4314611,4.4314611 0 1 0 -7.986886,3.84201 c 6.721122,13.96556 10.730269,27.485406 11.776978,37.727865 0.523354,5.12123 0.28026,9.415502 -0.510538,12.365396 -0.790797,2.949895 -1.926057,4.317462 -3.149757,4.940965 -1.273245,0.648752 -3.167563,0.74231 -6.195677,-0.493231 C 54.735043,74.788239 50.921074,72.216402 46.894764,68.469553 38.842141,60.975856 29.917027,48.894654 22.484142,34.3068 20.917365,31.231818 19.527686,28.183665 18.22678,25.160385 c 1.610057,-2.858614 3.327597,-5.743107 5.200561,-8.627218 1.86944,-2.878688 3.794375,-5.634597 5.74571,-8.26379 0.372765,-0.00436 0.714724,-0.042 1.090301,-0.043263 2.93251,-0.00987 5.948285,0.072375 9.025266,0.2336342 16.350558,0.8568981 31.012102,4.0977338 41.128566,8.4022408 5.058232,2.152245 8.959959,4.59135 11.318359,6.853315 2.358401,2.261981 3.034235,4.032008 2.959388,5.460156 -0.06467,1.233999 -0.678079,2.610799 -2.552687,4.31794 -1.874608,1.707142 -4.934748,3.512196 -8.930083,5.06211 a 4.431165,4.431165 0 1 0 3.201677,8.263786 c 4.695282,-1.821442 8.651016,-4.007535 11.690443,-6.775441 3.039439,-2.767901 5.229769,-6.344019 5.442849,-10.409774 0.24633,-4.700224 -2.16506,-8.945637 -5.676483,-12.313476 C 94.359232,13.952766 89.613624,11.14729 83.887109,8.7106921 72.434081,3.8374956 56.969512,0.51878146 39.747237,-0.38380316 c -1.188808,-0.0623005 -2.337504,-0.0549688 -3.513191,-0.0951832 3.644031,-4.19069334 7.297879,-7.93008564 10.816475,-10.98953964 7.730639,-6.721864 14.986491,-10.200356 18.907198,-10.349202 1.450033,-0.05505 2.376845,0.224481 3.123799,0.709561 1.122757,0.729128 2.08946,2.140689 2.587301,5.018846 0.497841,2.878148 0.352598,6.9868032 -0.597069,11.8202407 a 4.4309734,4.4309734 0 1 0 8.696445,1.704678 c 1.091664,-5.5561471 1.400561,-10.5941337 0.631683,-15.0392257 -0.76888,-4.445097 -2.787575,-8.533311 -6.489886,-10.93762 -2.469758,-1.603881 -5.39944,-2.238412 -8.289746,-2.128683 -7.798202,0.296054 -15.860163,5.107889 -24.376009,12.512499 C 35.75981,-13.388674 30.172103,-7.3301252 24.759929,-0.43571882 19.72562,-0.23747046 14.843474,0.12157147 10.300464,0.75841899 9.3280872,-3.9583435 8.7861702,-8.2847184 8.7775041,-11.918489 c -0.0087,-3.666463 0.4864883,-6.649311 1.2633629,-8.67049 0.776881,-2.021167 1.677148,-2.974989 2.682487,-3.48723 0.478766,-0.243949 0.969821,-0.390737 1.644106,-0.44131 2.475196,-0.185645 7.343049,1.677009 12.841319,6.238941 a 4.4308713,4.4308713 0 1 0 5.65918,-6.818708 c -6.393831,-5.304981 -12.681082,-8.741567 -19.166796,-8.255133 z m 4.257368,42.2361724 c -0.649736,0.9581067 -1.325372,1.8457656 -1.964276,2.8295906 -0.638221,0.982775 -1.232677,1.960088 -1.843124,2.942084 C 13.54912,12.892392 12.974591,11.14636 12.47241,9.4462096 14.231907,9.2125842 16.110975,9.0576167 17.958531,8.8837534 Z m 20.98396,10.9549256 a 7.2467141,7.2467141 0 0 0 -7.459041,7.242713 7.2470385,7.2470385 0 0 0 14.494077,0 7.2467141,7.2467141 0 0 0 -7.035036,-7.242713 z"
         id="path4"
         inkscape:connector-curvature="0" />
    </g>
  </g>
</svg>
