<?xml version="1.0" encoding="UTF-8" standalone="no"?>
<svg xmlns:rdf="http://www.w3.org/1999/02/22-rdf-syntax-ns#" xmlns="http://www.w3.org/2000/svg" height="48" width="48" version="1.1" xmlns:cc="http://creativecommons.org/ns#" xmlns:xlink="http://www.w3.org/1999/xlink" xmlns:dc="http://purl.org/dc/elements/1.1/">
 <defs>
  <radialGradient id="e" gradientUnits="userSpaceOnUse" cy="186.17" cx="99.157" gradientTransform="matrix(.27083 0 0 .087623 -2.8551 25.187)" r="62.769">
   <stop stop-color="#3d3d3d" offset="0"/>
   <stop stop-color="#686868" stop-opacity=".49804" offset=".5"/>
   <stop stop-color="#686868" stop-opacity="0" offset="1"/>
  </radialGradient>
  <linearGradient id="d" y2="8" gradientUnits="userSpaceOnUse" x2="25.005" y1="38" x1="25.005">
   <stop stop-color="#fff5ef" offset="0"/>
   <stop stop-color="#fef8dd" offset="1"/>
  </linearGradient>
  <linearGradient id="c" y2="40.496" gradientUnits="userSpaceOnUse" x2="71.204" gradientTransform="matrix(1.617,0,0,1.617,-92.707,-21.06)" y1="15.369" x1="71.204">
   <stop stop-color="#fff" offset="0"/>
   <stop stop-color="#fff" stop-opacity=".23529" offset=".42448"/>
   <stop stop-color="#fff" stop-opacity=".15686" offset=".8209"/>
   <stop stop-color="#fff" stop-opacity=".39216" offset="1"/>
  </linearGradient>
  <radialGradient id="b" gradientUnits="userSpaceOnUse" cy="23" cx="12.896" gradientTransform="matrix(1.6098e-7 6.0976 -7.3171 1.9317e-7 193.29 -95.633)" r="20.5">
   <stop stop-color="#ffcd7d" offset="0"/>
   <stop stop-color="#fc8f36" offset=".26238"/>
   <stop stop-color="#e23a0e" offset=".70495"/>
   <stop stop-color="#ac441f" offset="1"/>
  </radialGradient>
 </defs>
 <path d="m41 41.5a17 5.5 0 0 1 -34 0 17 5.5 0 1 1 34 0z" fill="url(#e)"/>
 <path style="color:#000000" d="m24 3.5c-11.311 0-20.5 9.189-20.5 20.5s9.189 20.5 20.5 20.5 20.5-9.189 20.5-20.5-9.189-20.5-20.5-20.5z" fill="url(#b)"/>
 <path opacity=".8" stroke-linejoin="round" style="color:#000000" d="m43.5 24c0 10.77-8.73 19.5-19.5 19.5s-19.5-8.73-19.5-19.5 8.73-19.5 19.5-19.5 19.5 8.73 19.5 19.5z" stroke="url(#c)" stroke-linecap="round" fill="none"/>
 <path opacity=".4" style="color:#000000" d="m24 3.5c-11.311 0-20.5 9.189-20.5 20.5s9.189 20.5 20.5 20.5 20.5-9.189 20.5-20.5-9.189-20.5-20.5-20.5z" stroke="#640000" fill="none"/>
 <path opacity=".15" style="color-rendering:auto;text-decoration-color:#000000;color:#000000;isolation:auto;mix-blend-mode:normal;shape-rendering:auto;solid-color:#000000;block-progression:tb;text-decoration-line:none;text-decoration-style:solid;image-rendering:auto;white-space:normal;text-indent:0;text-transform:none" d="m23.182 10.314a1.0001 1.0001 0 0 0 -1.0137 0.75781l-0.70703 2.8262c-0.11842-0.0281-0.24329-0.05555-0.35938-0.08399a1.0001 1.0001 0 0 0 -0.0059 -0.002 1.0001 1.0001 0 0 0 -0.12891 -0.04297l-3.1777-0.79297a1.0001 1.0001 0 0 0 -1.2129 0.72852l-0.61328 2.4609a1.0001 1.0001 0 0 0 0.74609 1.2168s0.42485 0.0977 0.8418 0.19727c0.20848 0.04978 0.41567 0.09975 0.55859 0.13672 0.06312 0.01633 0.1075 0.03036 0.13086 0.03711a1.0001 1.0001 0 0 0 0.125 0.04102c0.27892 0.06963 0.28587 0.1244 0.29492 0.13867 0.0067 0.01058 0.01217 0.06997 0.01563 0.12891l-1.041 4.1738a1.0001 1.0001 0 0 0 -0.002 0.0078 1.0001 1.0001 0 0 0 -0.002 0.0078l-1.4551 5.8398a1.0001 1.0001 0 0 0 -0.02734 -0.002c-0.02844-0.0062-0.06695-0.01677-0.12695-0.03125-0.14566-0.03514-0.35417-0.08691-0.5625-0.14062-0.41666-0.10743-0.83789-0.2207-0.83789-0.2207a1.0001 1.0001 0 0 0 -1.1738 0.56836l-1.1445 2.6387a1.0001 1.0001 0 0 0 0.67578 1.3691l2.9961 0.74609c0.22594 0.05662 0.45059 0.11728 0.67578 0.17578l-0.714 2.865a1.0001 1.0001 0 0 0 0.72852 1.2129l2.3008 0.57422a1.0001 1.0001 0 0 0 1.0859 -0.4375 1.0001 1.0001 0 0 0 0.75391 0.89648l2.3047 0.57422a1.0001 1.0001 0 0 0 1.2129 -0.72852l0.74023-2.9688c1.6579 0.25059 3.2204 0.34281 4.6074-0.08398 1.6544-0.50909 3.0065-1.7893 3.707-3.791 0.55701-1.5904 0.57998-3.0178 0.06445-4.1953-0.29237-0.6678-0.76091-1.2016-1.3027-1.668 0.95939-0.68005 1.7547-1.6051 2.0332-3.0352a1.0001 1.0001 0 0 0 0.07227 -0.24609c0.000655-0.0044 0.0033-0.0073 0.0039-0.01172l-0.002 0.002c0.24965-1.6687-0.31884-3.1446-1.3398-4.1738-0.82026-0.82689-1.914-1.3841-3.0918-1.8574l0.73828-2.959a1.0001 1.0001 0 0 0 -0.72852 -1.2129l-2.305-0.573a1.0001 1.0001 0 0 0 -1.083 0.435 1.0001 1.0001 0 0 0 -0.756 -0.894l-2.303-0.574a1.0001 1.0001 0 0 0 -0.19726 -0.0293zm0.68359 2.2109 0.36328 0.0918-0.68359 2.7383a1.0001 1.0001 0 0 0 0.74805 1.2188c0.61784 0.14102 1.2331 0.2819 1.8262 0.42969a1.0001 1.0001 0 0 0 1.2129 -0.72852l0.67578-2.7168 0.36328 0.08984-0.70117 2.8164a1.0001 1.0001 0 0 0 0.64453 1.1875c1.3802 0.47544 2.5081 1.0652 3.1738 1.7363 0.66573 0.67111 0.95163 1.3429 0.7832 2.4688a1.0001 1.0001 0 0 0 0 0.002c-0.25648 1.7342-0.97074 2.2764-2.1777 2.5547a1.0001 1.0001 0 0 0 -0.23828 1.8633c0.90961 0.47358 1.479 1.0064 1.7559 1.6387 0.27681 0.63227 0.3241 1.4593-0.12109 2.7305a1.0001 1.0001 0 0 0 0 0.002c-0.54321 1.5522-1.29 2.1975-2.4062 2.541-1.1162 0.34347-2.6962 0.27474-4.5918-0.08398a1.0001 1.0001 0 0 0 -1.1562 0.74023l-0.712 2.852-0.363-0.09 0.699-2.8a1.0001 1.0001 0 0 0 -0.731 -1.213c-0.5912-0.14682-1.1935-0.30216-1.8145-0.4707a1.0001 1.0001 0 0 0 -1.2324 0.72461l-0.70312 2.8164-0.36133-0.08984 0.71289-2.8594a1.0001 1.0001 0 0 0 -0.72266 -1.209c-0.53103-0.136-1.0804-0.28343-1.6484-0.42578l-1.8555-0.46289 0.33398-0.76953c0.01076 0.0028 0.01072 0.0031 0.02149 0.0059 0.21327 0.05499 0.42557 0.11028 0.5918 0.15039 0.08312 0.02005 0.15229 0.03509 0.21875 0.04883 0.03323 0.0069 0.05804 0.0132 0.12109 0.02148 0.03153 0.0041 0.05373 0.01481 0.19336 0.0078 0.03491-0.0017 0.148-0.01749 0.14844-0.01758 0.000436-0.000088 0.32984-0.13071 0.33008-0.13086 0.000008-0.000005 0.01547-0.01371 0.01758-0.01563 0.2683-0.0494 0.57888 0.0064 0.77148-0.13281 0.38814-0.2806 0.56622-0.62434 0.66797-0.87695a1.0001 1.0001 0 0 0 0.04297 -0.13086l1.3496-5.4043a1.0001 1.0001 0 0 0 0.31641 -1.2773l0.91992-3.6895a1.0001 1.0001 0 0 0 0.0293 -0.18359c0.02209-0.38319-0.02853-0.88419-0.33008-1.3594-0.19522-0.30763-0.60819-0.46244-0.9707-0.6543-0.04219-0.05681-0.08775-0.11706-0.08789-0.11719-0.000343-0.000321-0.09806-0.07965-0.13086-0.10156-0.13122-0.08764-0.16132-0.08996-0.19531-0.10352-0.06798-0.02712-0.09622-0.03449-0.13086-0.04492-0.06928-0.02086-0.13891-0.03888-0.22266-0.06055-0.13012-0.03366-0.29845-0.07362-0.46289-0.11328l0.12695-0.50781 1.2637 0.31445 0.20508-0.9375a1.0001 1.0001 0 0 0 0.73633 1.1855c0.48991 0.1218 0.98784 0.23714 1.4902 0.35156a1.0001 1.0001 0 0 0 1.1934 -0.73438l0.70117-2.8145zm-6.25 4.4238a1.0001 1.0001 0 0 0 0.0039 0.01563c-0.000189-0.000618-0.0039-0.0098-0.0039-0.0098 0.000001 0.000002-0.000013-0.0057 0-0.0059zm6.3223 0.37109a1.0001 1.0001 0 0 0 -1.0137 0.75781l-1.1465 4.6016a1.0001 1.0001 0 0 0 0.72852 1.2109c0.5748 0.14326 1.9896 0.59554 3.4297 0.64844 0.72004 0.02645 1.4767-0.0354 2.1875-0.38086 0.71084-0.34546 1.3289-1.0466 1.5547-1.9512 0.22982-0.92218 0.02514-1.8431-0.44141-2.4941-0.46654-0.65102-1.1139-1.0625-1.7676-1.3711-1.3074-0.61715-2.7844-0.85569-3.332-0.99219a1.0001 1.0001 0 0 0 -0.19922 -0.0293zm0.67578 2.25c0.67448 0.15667 1.3646 0.27924 2.002 0.58008 0.47164 0.22264 0.82681 0.49034 0.99609 0.72656 0.16929 0.23622 0.23546 0.41029 0.12695 0.8457-0.09908 0.39693-0.22578 0.5082-0.49023 0.63672-0.26446 0.12852-0.71392 0.20097-1.2402 0.18164-0.71018-0.02608-1.3715-0.23025-2.0371-0.39844l0.64258-2.5723zm-2.5 4.6738a1.0001 1.0001 0 0 0 -0.91602 0.75781l-1.2656 5.0723a1.0001 1.0001 0 0 0 0.73047 1.2129c0.71264 0.17696 2.3853 0.69637 4.0527 0.7832 0.83373 0.04342 1.691-0.0088 2.4902-0.35742 0.79924-0.34858 1.5128-1.0897 1.7598-2.082 0.25224-1.0114-0.01497-2.0135-0.55859-2.709-0.54363-0.6955-1.2851-1.1445-2.0469-1.4902-1.5236-0.6915-3.2614-0.98654-3.9492-1.1582a1.0001 1.0001 0 0 0 -0.29688 -0.0293zm0.77539 2.2461c0.85033 0.19562 1.7755 0.36929 2.6445 0.76367 0.59266 0.26898 1.0618 0.59771 1.2969 0.89844 0.23506 0.30073 0.3152 0.51343 0.19531 0.99414a1.0001 1.0001 0 0 0 0 0.002c-0.10911 0.43847-0.26591 0.57641-0.61914 0.73047s-0.93089 0.22747-1.5859 0.19336c-0.96001-0.04999-1.8554-0.3181-2.6934-0.5332l0.76172-3.0488z" fill="#ae2109"/>
 <path opacity=".3" d="m33.26 22.006c0.41808-2.7946-1.7097-4.2969-4.6192-5.2991l0.94379-3.7857-2.3043-0.57428-0.91885 3.6859c-0.606-0.151-1.229-0.293-1.847-0.435l0.92541-3.7102-2.303-0.57428-0.94444 3.7843c-0.50143-0.1142-0.99367-0.22709-1.4715-0.34588l0.0026-0.01181-3.1779-0.79349-0.613 2.4612s1.7097 0.39182 1.6736 0.41611c0.93329 0.23299 1.102 0.85059 1.0737 1.3402l-1.0751 4.3127c0.06432 0.01641 0.14767 0.04003 0.23956 0.07679-0.07679-0.01903-0.15883-0.04003-0.24349-0.06038l-1.5069 6.0414c-0.1142 0.28353-0.40364 0.70883-1.056 0.54737 0.02297 0.03347-1.6749-0.41808-1.6749-0.41808l-1.144 2.6378 2.9987 0.74755c0.55787 0.1398 1.1046 0.28616 1.6428 0.42398l-0.95363 3.829 2.3017 0.57428 0.94444-3.7883c0.62876 0.17064 1.2391 0.32816 1.8364 0.47649l-0.94116 3.7706 2.3043 0.57428 0.95363-3.8218c3.9294 0.74361 6.8841 0.44367 8.1279-3.1103 1.0022-2.8616-0.04988-4.5122-2.1173-5.5886 1.5056-0.34719 2.6397-1.3376 2.9423-3.3833zm-5.265 7.3829c-0.71211 2.8616-5.5302 1.3146-7.0922 0.92672l1.2654-5.0727c1.562 0.38985 6.5711 1.1617 5.8268 4.146zm0.71276-7.4243c-0.64976 2.603-4.6599 1.2805-5.9607 0.95626l1.1472-4.6008c1.3008 0.32422 5.4901 0.92935 4.8134 3.6445z" fill="#ae2109"/>
 <path d="m33.26 21.006c0.41808-2.7946-1.7097-4.2969-4.6192-5.2991l0.94379-3.7857-2.3043-0.57428-0.91885 3.6859c-0.606-0.152-1.229-0.294-1.847-0.435l0.92541-3.7102-2.303-0.57428-0.94444 3.7843c-0.50143-0.1142-0.99367-0.22709-1.4715-0.34588l0.0026-0.01181-3.1779-0.79349-0.613 2.4612s1.7097 0.39182 1.6736 0.41611c0.93329 0.23299 1.102 0.85059 1.0737 1.3402l-1.0751 4.3127c0.06432 0.01641 0.14767 0.04003 0.23956 0.07679-0.07679-0.01903-0.15883-0.04003-0.24349-0.06038l-1.5069 6.0414c-0.1142 0.28353-0.40364 0.70883-1.056 0.54737 0.02297 0.03347-1.6749-0.41808-1.6749-0.41808l-1.144 2.6378 2.9987 0.74755c0.55787 0.1398 1.1046 0.28616 1.6428 0.42398l-0.95363 3.829 2.3017 0.57428 0.94444-3.7883c0.62876 0.17064 1.2391 0.32816 1.8364 0.47649l-0.94116 3.7706 2.3043 0.57428 0.95363-3.8218c3.9294 0.74361 6.8841 0.44367 8.1279-3.1103 1.0022-2.8616-0.04988-4.5122-2.1173-5.5886 1.5056-0.34719 2.6397-1.3376 2.9423-3.3833zm-5.265 7.3829c-0.71211 2.8616-5.5302 1.3146-7.0922 0.92672l1.2654-5.0727c1.562 0.38985 6.5711 1.1617 5.8268 4.146zm0.71276-7.4243c-0.64976 2.603-4.6599 1.2805-5.9607 0.95626l1.1472-4.6008c1.3008 0.32422 5.4901 0.92935 4.8134 3.6445z" fill="url(#d)"/>
</svg>
