<?xml version="1.0" encoding="UTF-8" standalone="no"?>
<svg
   xmlns:dc="http://purl.org/dc/elements/1.1/"
   xmlns:cc="http://creativecommons.org/ns#"
   xmlns:rdf="http://www.w3.org/1999/02/22-rdf-syntax-ns#"
   xmlns:svg="http://www.w3.org/2000/svg"
   xmlns="http://www.w3.org/2000/svg"
   xmlns:xlink="http://www.w3.org/1999/xlink"
   xmlns:sodipodi="http://sodipodi.sourceforge.net/DTD/sodipodi-0.dtd"
   xmlns:inkscape="http://www.inkscape.org/namespaces/inkscape"
   height="48"
   width="48"
   id="svg3527"
   version="1.1"
   inkscape:version="0.91 r13725"
   sodipodi:docname="gnomeb.svg">
  <metadata
     id="metadata3585">
    <rdf:RDF>
      <cc:Work
         rdf:about="">
        <dc:format>image/svg+xml</dc:format>
        <dc:type
           rdf:resource="http://purl.org/dc/dcmitype/StillImage" />
        <dc:title></dc:title>
      </cc:Work>
    </rdf:RDF>
  </metadata>
  <sodipodi:namedview
     pagecolor="#ffffff"
     bordercolor="#666666"
     borderopacity="1"
     objecttolerance="10"
     gridtolerance="10"
     guidetolerance="10"
     inkscape:pageopacity="0"
     inkscape:pageshadow="2"
     inkscape:window-width="1309"
     inkscape:window-height="705"
     id="namedview3583"
     showgrid="false"
     inkscape:zoom="2"
     inkscape:cx="-4.1506851"
     inkscape:cy="-23.702917"
     inkscape:window-x="1323"
     inkscape:window-y="70"
     inkscape:window-maximized="0"
     inkscape:current-layer="svg3527" />
  <defs
     id="defs3529">
    <linearGradient
       id="f"
       y2="43"
       gradientUnits="userSpaceOnUse"
       x2="24"
       gradientTransform="translate(0 1)"
       y1="5"
       x1="24">
      <stop
         stop-color="#fff"
         offset="0"
         id="stop3532" />
      <stop
         stop-color="#fff"
         stop-opacity=".235"
         offset=".063"
         id="stop3534" />
      <stop
         stop-color="#fff"
         stop-opacity=".157"
         offset=".951"
         id="stop3536" />
      <stop
         stop-color="#fff"
         stop-opacity=".392"
         offset="1"
         id="stop3538" />
    </linearGradient>
    <radialGradient
       id="e"
       fx="7.32"
       gradientUnits="userSpaceOnUse"
       cy="9.957"
       cx="7.85"
       gradientTransform="matrix(0 5.9186 -11.66 0 140.93 -53.462)"
       r="12.672">
      <stop
         stop-color="#90dbec"
         offset="0"
         id="stop3541" />
      <stop
         stop-color="#42baea"
         offset=".262"
         id="stop3543" />
      <stop
         stop-color="#3689e6"
         offset=".705"
         id="stop3545" />
      <stop
         stop-color="#2b63a0"
         offset="1"
         id="stop3547" />
    </radialGradient>
    <radialGradient
       id="b"
       xlink:href="#a"
       gradientUnits="userSpaceOnUse"
       cy="43.5"
       cx="4.993"
       gradientTransform="matrix(2.0038 0 0 1.4 27.988 -17.4)"
       r="2.5" />
    <linearGradient
       id="a">
      <stop
         stop-color="#181818"
         offset="0"
         id="stop3551" />
      <stop
         stop-color="#181818"
         stop-opacity="0"
         offset="1"
         id="stop3553" />
    </linearGradient>
    <radialGradient
       id="c"
       xlink:href="#a"
       gradientUnits="userSpaceOnUse"
       cy="43.5"
       cx="4.993"
       gradientTransform="matrix(2.0038 0 0 1.4 -20.012 -104.4)"
       r="2.5" />
    <linearGradient
       id="d"
       y2="39.999"
       gradientUnits="userSpaceOnUse"
       x2="25.058"
       y1="47.028"
       x1="25.058">
      <stop
         stop-color="#181818"
         stop-opacity="0"
         offset="0"
         id="stop3557" />
      <stop
         stop-color="#181818"
         offset=".5"
         id="stop3559" />
      <stop
         stop-color="#181818"
         stop-opacity="0"
         offset="1"
         id="stop3561" />
    </linearGradient>
  </defs>
  <g
     opacity=".6"
     id="g3563">
    <path
       fill="url(#b)"
       d="M38 40h5v7h-5z"
       transform="matrix(1.1579 0 0 .64286 -3.79 16.036)"
       id="path3565" />
    <path
       transform="matrix(-1.1579 0 0 -.64286 -3.79 16.036)"
       fill="url(#c)"
       d="M-10-47h5v7h-5z"
       id="path3567" />
    <path
       fill="url(#d)"
       d="M10 40h28v7H10z"
       transform="matrix(1.1579 0 0 .64286 -3.79 16.036)"
       id="path3569" />
  </g>
  <rect
     rx="2"
     ry="2"
     height="39"
     width="39"
     y="5.5"
     x="4.5"
     id="rect3571"
     fill="url(#e)"
     color="#000" />
  <path
     inkscape:connector-curvature="0"
     style="opacity:0.05;fill-opacity:1;stroke:#000000;stroke-width:2.84008217;stroke-linecap:round;stroke-linejoin:round;stroke-miterlimit:4;stroke-dasharray:none;stroke-opacity:1"
     d="m 26.188662,20.614358 c 1.090106,-1.090107 1.232335,-2.796435 0.09481,-3.933952 -2.227673,-2.227677 -3.507369,-1.990683 -6.0194,-1.990683 3.791727,-1.658865 6.540751,-2.03809 9.289777,-0.758344 1.184928,0.52135 1.658919,0.99534 2.606852,1.943273 l 1.706275,1.706275 c 0.426581,0.426583 0.710934,0.995342 0.805755,1.564098 0.142175,0.900523 -0.09482,1.090107 0.521347,1.753687 0.189586,0.189586 0.473992,0.189586 0.663577,0 0.189588,-0.189585 0.473993,-0.189585 0.663578,0 l 1.658921,1.65892 c 0.379174,0.379172 0.379174,0.94793 0,1.327102 l -3.365196,3.365194 c -0.379172,0.379172 -0.947929,0.379172 -1.327101,0 l -1.564101,-1.611509 c -0.189586,-0.189584 -0.189586,-0.473992 0,-0.663577 0.189588,-0.189587 0.189588,-0.52135 0,-0.710935 -0.663579,-0.663577 -0.853163,-0.426582 -1.753686,-0.52135 -0.616168,-0.09482 -1.120874,-0.356984 -1.547456,-0.783565 M 26.188657,20.614358 28.75647,23.090101 26.188657,20.614358 11.495594,37.06111 c -0.568759,0.568757 -0.616168,1.516687 -0.04742,2.038091 l 0.663582,0.663578 c 0.568757,0.568761 1.46933,0.52135 2.03809,-0.04741 L 28.890331,23.22121"
     id="path15-0"
     sodipodi:nodetypes="csccssccsssssccsscccccccscc" />
  <rect
     opacity=".5"
     stroke-linejoin="round"
     rx="1"
     ry="1"
     height="37"
     width="37"
     stroke="url(#f)"
     stroke-linecap="round"
     y="6.5"
     x="5.5"
     fill="none"
     id="rect3573" />
  <rect
     opacity=".4"
     stroke-linejoin="round"
     style="isolation:auto;mix-blend-mode:normal"
     rx="2"
     ry="2"
     height="39"
     width="39"
     stroke="#004264"
     stroke-linecap="round"
     y="5.5"
     x="4.5"
     color="#000"
     fill="none"
     id="rect3575" />
  <path
     inkscape:connector-curvature="0"
     style="opacity:0.15;fill-opacity:1"
     d="m 26.125903,20.551601 c 1.090107,-1.090107 1.232336,-2.796436 0.09482,-3.933953 -2.227672,-2.227677 -3.507367,-1.990682 -6.0194,-1.990682 3.791728,-1.658864 6.54075,-2.038089 9.289776,-0.758344 1.18493,0.521349 1.658919,0.995339 2.606852,1.943274 l 1.706275,1.706275 c 0.426582,0.426583 0.710935,0.99534 0.805756,1.564096 0.142174,0.900523 -0.09482,1.090107 0.521347,1.753687 0.189586,0.189587 0.473992,0.189587 0.663577,0 0.189587,-0.189585 0.473994,-0.189585 0.663577,0 l 1.658922,1.65892 c 0.379173,0.379172 0.379173,0.947931 0,1.327102 L 34.75221,27.18717 c -0.379173,0.379173 -0.947929,0.379173 -1.327101,0 l -1.564102,-1.611507 c -0.189585,-0.189584 -0.189585,-0.473994 0,-0.663579 0.189589,-0.189587 0.189589,-0.521349 0,-0.710935 -0.663578,-0.663576 -0.853162,-0.426582 -1.753685,-0.521349 -0.616167,-0.09482 -1.120874,-0.356985 -1.547456,-0.783565 l -2.433957,-2.344634"
     id="path15-2"
     sodipodi:nodetypes="csccssccsssssccssccc" />
  <path
     inkscape:connector-curvature="0"
     style="opacity:1;fill:#ffffff;fill-opacity:1"
     d="m 26.078729,19.011063 c 1.090108,-1.090107 1.232336,-2.796435 0.09482,-3.933952 -2.227674,-2.227677 -3.507369,-1.990682 -6.019402,-1.990682 3.791728,-1.658865 6.540751,-2.03809 9.289778,-0.758344 1.184929,0.521349 1.658919,0.995339 2.606851,1.943274 l 1.706275,1.706273 c 0.426582,0.426584 0.710936,0.995342 0.805755,1.564098 0.142175,0.900523 -0.09482,1.090107 0.521347,1.753687 0.189587,0.189587 0.473993,0.189587 0.663578,0 0.189587,-0.189585 0.473993,-0.189585 0.663577,0 l 1.658922,1.65892 c 0.379173,0.379172 0.379173,0.947931 0,1.327102 l -3.365196,3.365194 c -0.379173,0.379172 -0.947929,0.379172 -1.327102,0 l -1.564101,-1.611507 c -0.189585,-0.189585 -0.189585,-0.473994 0,-0.663579 0.189589,-0.189587 0.189589,-0.521349 0,-0.710935 -0.663577,-0.663577 -0.853161,-0.426582 -1.753685,-0.52135 -0.616167,-0.09482 -1.120874,-0.290419 -1.547456,-0.717 l -2.456146,-2.344634"
     id="path15"
     sodipodi:nodetypes="csccssccsssssccssccc" />
  <path
     inkscape:connector-curvature="0"
     style="opacity:0.15;fill-opacity:1"
     d="M 26.125903,20.551601 11.432841,36.998352 c -0.568758,0.568758 -0.616167,1.516689 -0.04742,2.038092 l 0.663582,0.663578 c 0.568757,0.56876 1.46933,0.52135 2.038091,-0.0474 L 28.827572,23.158453 Z"
     id="path17-7"
     sodipodi:nodetypes="cccsccc" />
  <path
     inkscape:connector-curvature="0"
     style="opacity:1;fill:#ffffff;fill-opacity:1"
     d="M 26.078729,19.011063 11.385666,35.457815 c -0.568758,0.568758 -0.616167,1.516687 -0.04742,2.038092 l 0.663582,0.663578 c 0.568757,0.56876 1.46933,0.521349 2.038091,-0.0474 l 14.740479,-16.49417 z"
     id="path17"
     sodipodi:nodetypes="cccsccc" />
</svg>
