<?xml version="1.0" encoding="UTF-8" standalone="no"?>
<svg xmlns:rdf="http://www.w3.org/1999/02/22-rdf-syntax-ns#" xmlns="http://www.w3.org/2000/svg" height="48" width="48" version="1.1" xmlns:cc="http://creativecommons.org/ns#" xmlns:xlink="http://www.w3.org/1999/xlink" xmlns:dc="http://purl.org/dc/elements/1.1/">
 <defs>
  <radialGradient id="d" gradientUnits="userSpaceOnUse" cy="16.882" cx="156.01" gradientTransform="matrix(.72426 -.0036765 .0016296 .32103 42.982 19.216)" r="17">
   <stop stop-color="#b37851" offset="0"/>
   <stop stop-color="#462e1e" offset="1"/>
  </radialGradient>
  <radialGradient id="c" gradientUnits="userSpaceOnUse" cy="40.844" cx="156.84" gradientTransform="matrix(1 0 0 .33333 0 27.229)" r="10.969">
   <stop offset="0"/>
   <stop stop-opacity="0" offset="1"/>
  </radialGradient>
  <radialGradient id="b" gradientUnits="userSpaceOnUse" cy="27.696" cx="156" gradientTransform="matrix(.94444 2.1129e-8 -1.8643e-8 .83333 8.6667 6.9197)" r="18">
   <stop stop-color="#fff" offset="0"/>
   <stop stop-color="#ededed" offset=".5"/>
   <stop stop-color="#c8c8c8" offset="1"/>
  </radialGradient>
  <linearGradient id="f" y2="41.628" gradientUnits="userSpaceOnUse" x2="149.75" y1="26.628" x1="141.53">
   <stop stop-color="#fff" offset="0"/>
   <stop stop-color="#fff" stop-opacity="0" offset="1"/>
  </linearGradient>
  <linearGradient id="a" y2="4" xlink:href="#g" gradientUnits="userSpaceOnUse" x2="157" y1="17" x1="157"/>
  <linearGradient id="g">
   <stop stop-color="#5b371f" offset="0"/>
   <stop stop-color="#5b371f" stop-opacity="0" offset="1"/>
  </linearGradient>
  <linearGradient id="e" y2="22" gradientUnits="userSpaceOnUse" x2="156" y1="20" x1="156">
   <stop stop-color="#fff" offset="0"/>
   <stop stop-color="#fff" stop-opacity="0" offset="1"/>
  </linearGradient>
 </defs>
 <g transform="translate(-510.29 -494.08)">
  <g style="enable-background:new" transform="translate(375.31 490.08)">
   <path opacity="0.99" stroke-linejoin="round" style="color:#000000;enable-background:accumulate" d="m172.28 28.5-0.9375 2.9397h4.1562c0.6392 0 1.0105 0.47315 0.8125 1.2644l-0.625 2.592c-0.19801 0.79122-0.82955 1.2644-1.4688 1.2644h-4.4688l-0.90625 2.9397h4.625c2.3015 0 4.6362-1.8761 5.2188-4.204l0.625-2.592c0.58259-2.3279-0.79229-4.204-3.0938-4.204h-3.9375z" stroke="#969696" stroke-linecap="round" fill="#dcdcdc"/>
   <path opacity="0.99" stroke-linejoin="round" style="color:#000000;enable-background:accumulate" d="m227.37 19.938c0 1.1046-5.4285 2-12.125 2-6.6964 0-12.125-0.89543-12.125-2s5.4285-2 12.125-2 12.125 0.89543 12.125 2z" transform="matrix(1.13 0 0 1.1313 -86.575 1.2641)" stroke="#141414" stroke-linecap="round" stroke-width=".88445" fill="#52250c"/>
   <path opacity="0.99" stroke-linejoin="round" style="color:#000000;enable-background:accumulate" d="m156 18.5c-9.6713 0-17.5 2.2272-17.5 4.9576s7.8286 4.9576 17.5 4.9576 17.5-2.2272 17.5-4.9576c0-2.731-7.83-4.958-17.5-4.958z" stroke="#969696" stroke-linecap="round" fill="#dcdcdc"/>
   <path opacity="0.99" stroke-linejoin="round" style="color:#000000;enable-background:accumulate" d="m156 22.5c-9.1187 0-16.5 2.2272-16.5 4.9576s7.3813 4.9576 16.5 4.9576 16.5-2.2272 16.5-4.9576c0-2.731-7.38-4.958-16.5-4.958z" stroke="#bf8d6d" stroke-linecap="round" fill="url(#d)"/>
   <path opacity=".4" style="color:#000000;enable-background:accumulate" d="m167.81 40.844c0 2.0193-4.9109 3.6562-10.969 3.6562-6.0579 0-10.969-1.637-10.969-3.6562 0-2.0193 4.9109-3.6562 10.969-3.6562 6.0579 0 10.969 1.637 10.969 3.6562z" transform="matrix(1.3298 0 0 1.3675 -52.564 -8.8547)" fill="url(#c)"/>
   <path opacity="0.99" stroke-linejoin="round" style="color:#000000;enable-background:accumulate" d="m173.07 23.5c-0.27083 2.6995-7.7859 4.8859-17.066 4.8859-9.1148 0-16.547-2.1121-17.066-4.7443-0.18439 0.17681-0.33571 0.37047-0.43389 0.56648 0 10.856 5.8962 24.323 17.319 24.323 12.238 0 17.495-13.211 17.681-24.323 0.00002-0.24504-0.15871-0.48448-0.43389-0.7081z" stroke="#969696" stroke-linecap="round" fill="url(#b)"/>
   <path opacity="0.99" style="color:#000000;enable-background:accumulate" d="m141.03 26.381c1.3305 7.6056 5.1785 15.74 11.469 18.494-4.5027-3.9501-7.08-10.948-7.7683-17.28-1.3787-0.2593-2.637-0.85374-3.7004-1.214z" fill="url(#f)"/>
   <path opacity=".7" d="m157 16.456c0.46237 0.0078 0.92624-0.11709 1.3221-0.35606 0.3959-0.23898 0.72254-0.59123 0.93101-1.004 0.20848-0.41278 0.2981-0.88474 0.25545-1.3452-0.0426-0.46046-0.21743-0.90794-0.49817-1.2754-0.47648-0.62368-1.2136-0.98236-1.9273-1.309-0.71364-0.32669-1.4566-0.66165-1.9669-1.258-0.33977-0.39709-0.55711-0.8975-0.61538-1.4169-0.0583-0.51935 0.0428-1.0555 0.2861-1.518 0.24332-0.46251 0.62792-0.84947 1.0889-1.0956 0.46101-0.24616 0.99651-0.3505 1.5162-0.29542" stroke="url(#a)" stroke-linecap="round" stroke-width="1px" fill="none"/>
   <path opacity=".7" d="m165.03 16.456c0.46519 0.01452 0.9338-0.1056 1.3346-0.34211 0.40084-0.23651 0.73257-0.58861 0.9448-1.0028 0.21223-0.41421 0.30424-0.88914 0.26206-1.3526-0.0422-0.4635-0.21842-0.91402-0.50193-1.2831-0.48306-0.62888-1.2314-0.98584-1.9551-1.3099-0.72375-0.32406-1.4778-0.6565-1.9956-1.2571-0.34376-0.39879-0.56351-0.90299-0.62161-1.4263-0.0581-0.52328 0.0457-1.0634 0.29359-1.5279 0.24791-0.46448 0.63888-0.85134 1.106-1.0943 0.46708-0.24298 1.0083-0.34105 1.5309-0.27741" stroke="url(#a)" stroke-linecap="round" stroke-width="1px" fill="none"/>
   <path opacity=".7" d="m149 16.456c0.46297 0.0093 0.92785-0.11465 1.3248-0.3531s0.72468-0.59068 0.93395-1.0038c0.20927-0.41308 0.2994-0.88568 0.25684-1.3468-0.0426-0.46111-0.21764-0.90922-0.49897-1.277-0.47788-0.62478-1.2174-0.98309-1.9332-1.3092-0.71579-0.32613-1.4612-0.66056-1.973-1.2578-0.34062-0.39744-0.55847-0.89866-0.61671-1.4188-0.0582-0.52018 0.0434-1.0572 0.28769-1.5201 0.2443-0.46293 0.63024-0.84987 1.0925-1.0954 0.4623-0.24549 0.99902-0.3485 1.5194-0.2916" stroke="url(#a)" stroke-linecap="round" stroke-width="1px" fill="none"/>
   <path opacity="0.99" stroke-linejoin="round" style="color:#000000;enable-background:accumulate" d="m156 19.5c-9.6713 0-17.5 2.2272-17.5 4.9576s7.8286 4.9576 17.5 4.9576 17.5-2.2272 17.5-4.9576-7.8286-4.9576-17.5-4.9576z" stroke="url(#e)" stroke-linecap="round" fill="none"/>
   <path stroke-linejoin="round" style="color:#000000;enable-background:accumulate" d="m110.81 58.379c-8.45 7.298-34.192 11.072-57.508 8.429-12.58-1.425-22.473-4.533-26.984-8.475" transform="matrix(.39621 .0010993 -.00097238 .38350 128.81 3.4297)" stroke="#fff" stroke-linecap="round" stroke-width="2.5654" fill="none"/>
  </g>
 </g>
</svg>
