<?xml version="1.0" encoding="UTF-8" standalone="no"?>
<svg xmlns:rdf="http://www.w3.org/1999/02/22-rdf-syntax-ns#" xmlns="http://www.w3.org/2000/svg" height="48" width="48" version="1.1" xmlns:cc="http://creativecommons.org/ns#" xmlns:xlink="http://www.w3.org/1999/xlink" xmlns:dc="http://purl.org/dc/elements/1.1/">
 <defs>
  <linearGradient id="f" y2="43" gradientUnits="userSpaceOnUse" x2="24" gradientTransform="translate(.0000117 1)" y1="5" x1="24">
   <stop stop-color="#fff" offset="0"/>
   <stop stop-color="#fff" stop-opacity=".23529" offset=".063165"/>
   <stop stop-color="#fff" stop-opacity=".15686" offset=".95056"/>
   <stop stop-color="#fff" stop-opacity=".39216" offset="1"/>
  </linearGradient>
  <radialGradient id="a" gradientUnits="userSpaceOnUse" cy="8.4498" cx="7.4957" gradientTransform="matrix(0 2.0716 -2.4089 -5.6386e-8 44.354 -8.9606)" r="20">
   <stop stop-color="#f8de97" offset="0"/>
   <stop stop-color="#f6ce68" offset=".26238"/>
   <stop stop-color="#f4ba27" offset=".70495"/>
   <stop stop-color="#d89e0c" offset="1"/>
  </radialGradient>
  <radialGradient id="c" gradientUnits="userSpaceOnUse" cy="43.5" cx="4.993" gradientTransform="matrix(2.0038 0 0 1.4 27.988 -17.4)" r="2.5">
   <stop stop-color="#181818" offset="0"/>
   <stop stop-color="#181818" stop-opacity="0" offset="1"/>
  </radialGradient>
  <radialGradient id="b" gradientUnits="userSpaceOnUse" cy="43.5" cx="4.993" gradientTransform="matrix(2.0038 0 0 1.4 -20.012 -104.4)" r="2.5">
   <stop stop-color="#181818" offset="0"/>
   <stop stop-color="#181818" stop-opacity="0" offset="1"/>
  </radialGradient>
  <linearGradient id="d" y2="39.999" gradientUnits="userSpaceOnUse" x2="25.058" y1="47.028" x1="25.058">
   <stop stop-color="#181818" stop-opacity="0" offset="0"/>
   <stop stop-color="#181818" offset=".5"/>
   <stop stop-color="#181818" stop-opacity="0" offset="1"/>
  </linearGradient>
  <linearGradient id="e" y2="5.0205" gradientUnits="userSpaceOnUse" x2="-1.2857" gradientTransform="translate(41.286)" y1="44.977" x1="-1.2857">
   <stop stop-color="#b98809" offset="0"/>
   <stop stop-color="#dca10b" offset="1"/>
  </linearGradient>
 </defs>
 <g opacity=".4" transform="matrix(1.1579 0 0 .57143 -3.7895 19.143)">
  <rect height="7" width="5" y="40" x="38" fill="url(#c)"/>
  <rect transform="scale(-1)" height="7" width="5" y="-47" x="-10" fill="url(#b)"/>
  <rect height="7" width="28" y="40" x="10" fill="url(#d)"/>
 </g>
 <rect style="color:#000000" rx="1.5031" ry="1.5031" height="38" width="38" y="6" x="5" fill="url(#a)"/>
 <rect opacity=".5" stroke-linejoin="round" rx="1" ry="1" height="37" width="37" stroke="url(#f)" stroke-linecap="round" y="6.5" x="5.5" fill="none"/>
 <rect stroke-linejoin="round" style="color:#000000" rx="2" ry="2" height="39" width="39" stroke="url(#e)" stroke-linecap="round" y="5.5" x="4.5" fill="none"/>
 <path opacity=".15" style="color-rendering:auto;text-decoration-color:#000000;color:#000000;isolation:auto;mix-blend-mode:normal;shape-rendering:auto;solid-color:#000000;block-progression:tb;text-decoration-line:none;text-decoration-style:solid;image-rendering:auto;white-space:normal;text-indent:0;text-transform:none" d="m24 12c-5.511 0-10 4.489-10 10v0.002c0.004 3.563 1.952 6.784 5 8.564v7.434h2v2h6v-2h2v-7.426c3.051-1.782 4.999-5.008 5-8.574 0-5.511-4.489-10-10-10zm0 2c4.43 0 8 3.57 8 8-0.001 3.04-1.722 5.811-4.445 7.162l-0.555 0.276v2.562h-6v-2.57l-0.555-0.276c-2.721-1.35-4.441-4.118-4.445-7.156 0.001-4.429 3.571-7.998 8-7.998zm-3 20h6v2h-6v-2z"/>
 <path opacity=".05" style="color-rendering:auto;text-decoration-color:#000000;color:#000000;isolation:auto;mix-blend-mode:normal;shape-rendering:auto;solid-color:#000000;block-progression:tb;text-decoration-line:none;text-decoration-style:solid;image-rendering:auto;white-space:normal;text-indent:0;text-transform:none" d="m24 11c-6.054 0-11 4.946-11 11v0.002a1.0001 1.0001 0 0 0 0 0.002c0.0047 3.7123 1.9674 7.038 5 9.0449v6.951a1.0001 1.0001 0 0 0 1 1h1v1a1.0001 1.0001 0 0 0 1 1h6a1.0001 1.0001 0 0 0 1 -1v-1h1a1.0001 1.0001 0 0 0 1 -1v-6.9434c3.036-2.009 4.998-5.341 5-9.057 0-6.054-4.946-11-11-11zm0 4c3.8929 0 7 3.1071 7 7-0.0011 2.6629-1.5047 5.0819-3.8906 6.2656l-0.55469 0.27539a1.0001 1.0001 0 0 0 -0.554 0.897v1.562h-4v-1.57a1.0001 1.0001 0 0 0 -0.555 -0.897l-0.554-0.275c-2.384-1.183-3.888-3.601-3.891-6.262 0.002-3.891 3.108-6.996 7-6.996zm-6.3633 0.63672c0.000382-0.000382 0.0016 0.000382 0.002 0-0.81451 0.81433-1.4739 1.783-1.9297 2.8594-0.36378 0.85906-0.48656 1.8244-0.56641 2.7949 0.07987-0.97107 0.2024-1.9355 0.56641-2.7949 0.45559-1.0756 1.1139-2.0455 1.9277-2.8594zm15.363 6.363c-0.000333 0.81764-0.12035 1.6115-0.33594 2.373 0.21-0.763 0.336-1.558 0.336-2.373zm-18 0.002c0.0012 0.81466 0.12755 1.6078 0.33789 2.3711-0.216-0.76-0.337-1.555-0.338-2.371zm1.084 4.123c0.05744 0.10988 0.0885 0.23247 0.15039 0.33984-0.06341-0.10688-0.09152-0.23042-0.15039-0.33984zm15.828 0.01758c-0.05661 0.10492-0.08375 0.22359-0.14453 0.32617 0.05942-0.10316 0.08923-0.22069 0.14453-0.32617zm-12.248 3.6777c0.12039 0.06678 0.21181 0.16888 0.33594 0.23047v0.51562a1.0001 1.0001 0 0 0 -0.33594 -0.74609zm8.6641 0.01367a1.0001 1.0001 0 0 0 -0.328 0.698v-0.47461c0.12112-0.06009 0.21057-0.15958 0.32812-0.22461zm-8.328 2.165a1.0001 1.0001 0 0 0 1 1 1.0001 1.0001 0 0 0 -1 1v-2zm8 0v2a1.0001 1.0001 0 0 0 -1 -1 1.0001 1.0001 0 0 0 1 -1zm-8 4a1.0001 1.0001 0 0 0 1 1h6a1.0001 1.0001 0 0 0 1 -1v1h-1a1.0001 1.0001 0 0 0 -1 1v1h-4v-1a1.0001 1.0001 0 0 0 -1 -1h-1v-1z"/>
 <path style="color-rendering:auto;text-decoration-color:#000000;color:#000000;isolation:auto;mix-blend-mode:normal;shape-rendering:auto;solid-color:#000000;block-progression:tb;text-decoration-line:none;text-decoration-style:solid;image-rendering:auto;white-space:normal;text-indent:0;text-transform:none" d="m24 11c-5.511 0-10 4.489-10 10v0.002c0.004 3.563 1.952 6.784 5 8.564v7.434h2v2h6v-2h2v-7.426c3.051-1.782 4.999-5.008 5-8.574 0-5.511-4.489-10-10-10zm0 2c4.43 0 8 3.57 8 8-0.001 3.04-1.722 5.811-4.445 7.162l-0.555 0.276v2.562h-6v-2.57l-0.555-0.276c-2.721-1.35-4.441-4.118-4.445-7.156 0.001-4.429 3.571-7.998 8-7.998zm-3 20h6v2h-6v-2z" fill="#fff"/>
</svg>
