<?xml version="1.0" encoding="UTF-8" standalone="no"?>
<svg xmlns:rdf="http://www.w3.org/1999/02/22-rdf-syntax-ns#" xmlns="http://www.w3.org/2000/svg" height="48" width="48" version="1.1" xmlns:cc="http://creativecommons.org/ns#" xmlns:xlink="http://www.w3.org/1999/xlink" viewBox="0 0 48 48.000001" xmlns:dc="http://purl.org/dc/elements/1.1/">
 <defs>
  <linearGradient id="g" y2="5.1758" gradientUnits="userSpaceOnUse" x2="-95.838" gradientTransform="matrix(.80750 0 0 .83374 106.88 1004.3)" y1="54.2" x1="-95.838">
   <stop stop-opacity=".32174" offset="0"/>
   <stop stop-opacity=".27826" offset="1"/>
  </linearGradient>
  <linearGradient id="f" y2="43" gradientUnits="userSpaceOnUse" x2="24" gradientTransform="translate(4e-6,1005.3622)" y1="5" x1="24">
   <stop stop-color="#fff" offset="0"/>
   <stop stop-color="#fff" stop-opacity=".23529" offset=".063165"/>
   <stop stop-color="#fff" stop-opacity=".15686" offset=".95056"/>
   <stop stop-color="#fff" stop-opacity=".39216" offset="1"/>
  </linearGradient>
  <radialGradient id="b" gradientUnits="userSpaceOnUse" cy="4.3419" cx="32" gradientTransform="matrix(0 1.6258 -1.6258 0 31.059 958.23)" r="27.5">
   <stop stop-color="#fafafa" offset="0"/>
   <stop stop-color="#e1e1e1" offset="1"/>
  </radialGradient>
  <radialGradient id="d" xlink:href="#a" gradientUnits="userSpaceOnUse" cy="43.5" cx="4.993" gradientTransform="matrix(2.0038 0 0 1.4 27.988 -17.4)" r="2.5"/>
  <linearGradient id="a">
   <stop stop-color="#181818" offset="0"/>
   <stop stop-color="#181818" stop-opacity="0" offset="1"/>
  </linearGradient>
  <radialGradient id="c" xlink:href="#a" gradientUnits="userSpaceOnUse" cy="43.5" cx="4.993" gradientTransform="matrix(2.0038 0 0 1.4 -20.012 -104.4)" r="2.5"/>
  <linearGradient id="e" y2="39.999" gradientUnits="userSpaceOnUse" x2="25.058" y1="47.028" x1="25.058">
   <stop stop-color="#181818" stop-opacity="0" offset="0"/>
   <stop stop-color="#181818" offset=".5"/>
   <stop stop-color="#181818" stop-opacity="0" offset="1"/>
  </linearGradient>
 </defs>
 <g transform="translate(0 -1004.4)">
  <g opacity=".4" transform="matrix(1.1579 0 0 .64286 -3.7895 1020.4)">
   <rect height="7" width="5" y="40" x="38" fill="url(#d)"/>
   <rect transform="scale(-1)" height="7" width="5" y="-47" x="-10" fill="url(#c)"/>
   <rect height="7" width="28" y="40" x="10" fill="url(#e)"/>
  </g>
  <rect style="color:#000000" rx="1.5" ry="1.5" height="38" width="38" y="1010.4" x="5" fill="url(#b)"/>
  <rect stroke-linejoin="round" rx="1" ry="1" height="37" width="37" stroke="url(#f)" stroke-linecap="round" y="1010.9" x="5.5" fill="none"/>
  <rect opacity=".8" style="color:#000000" rx="2" ry="2" height="39" width="39" stroke="url(#g)" y="1009.9" x="4.5" fill="none"/>
  <path opacity=".05" stroke-linejoin="round" style="image-rendering:optimizeQuality;shape-rendering:geometricPrecision" d="m20 1019.6-8 13.859 4 6.9297h16l4-6.9297-8-13.859h-8zm4 6.9297 4 6.9297h-8l4-6.9297z" fill-rule="evenodd" stroke="#000" clip-rule="evenodd" stroke-width="2"/>
  <path opacity=".15" style="image-rendering:optimizeQuality;shape-rendering:geometricPrecision" d="m20 1019.6-8 13.859 4 6.9297h16l4-6.9297-8-13.859h-8zm4 6.9297 4 6.9297h-8l4-6.9297z" fill-rule="evenodd" clip-rule="evenodd"/>
  <polygon style="image-rendering:optimizeQuality;shape-rendering:geometricPrecision" fill-rule="evenodd" transform="matrix(.00018207 0 0 .00018207 12 1018.4)" class="fil0" points="22194 1.1534e5 44385 76894 1.3316e5 76894 1.1096e5 1.1534e5" clip-rule="evenodd" fill="#3777e3"/>
  <polygon style="image-rendering:optimizeQuality;shape-rendering:geometricPrecision" fill-rule="evenodd" transform="matrix(.00018207 0 0 .00018207 12 1018.4)" class="fil1" points="88772 76894 1.3316e5 76894 88772 0 44385 0" clip-rule="evenodd" fill="#ffcf63"/>
  <polygon style="image-rendering:optimizeQuality;shape-rendering:geometricPrecision" fill-rule="evenodd" transform="matrix(.00018207 0 0 .00018207 12 1018.4)" class="fil2" points="0 76894 22194 1.1534e5 66578 38447 44385 0" clip-rule="evenodd" fill="#11a861"/>
 </g>
</svg>
