<?xml version="1.0" encoding="UTF-8" standalone="no"?>
<svg xmlns:rdf="http://www.w3.org/1999/02/22-rdf-syntax-ns#" xmlns="http://www.w3.org/2000/svg" height="48" width="48" version="1.1" xmlns:cc="http://creativecommons.org/ns#" xmlns:xlink="http://www.w3.org/1999/xlink" xmlns:dc="http://purl.org/dc/elements/1.1/">
 <defs>
  <linearGradient id="g" y2="43" gradientUnits="userSpaceOnUse" x2="24" gradientTransform="translate(.0000117 1)" y1="5" x1="24">
   <stop stop-color="#fff" offset="0"/>
   <stop stop-color="#fff" stop-opacity=".23529" offset=".063165"/>
   <stop stop-color="#fff" stop-opacity=".15686" offset=".95056"/>
   <stop stop-color="#fff" stop-opacity=".39216" offset="1"/>
  </linearGradient>
  <radialGradient id="b" gradientUnits="userSpaceOnUse" cy="8.4498" cx="7.4957" gradientTransform="matrix(0 2.0716 -2.4089 -5.6386e-8 44.354 -8.9606)" r="20">
   <stop stop-color="#4ad58e" offset="0"/>
   <stop stop-color="#2dc477" offset=".26238"/>
   <stop stop-color="#26a464" offset=".70495"/>
   <stop stop-color="#1d7d4c" offset="1"/>
  </radialGradient>
  <radialGradient id="d" gradientUnits="userSpaceOnUse" cy="43.5" cx="4.993" gradientTransform="matrix(2.0038 0 0 1.4 27.988 -17.4)" r="2.5">
   <stop stop-color="#181818" offset="0"/>
   <stop stop-color="#181818" stop-opacity="0" offset="1"/>
  </radialGradient>
  <radialGradient id="c" gradientUnits="userSpaceOnUse" cy="43.5" cx="4.993" gradientTransform="matrix(2.0038 0 0 1.4 -20.012 -104.4)" r="2.5">
   <stop stop-color="#181818" offset="0"/>
   <stop stop-color="#181818" stop-opacity="0" offset="1"/>
  </radialGradient>
  <linearGradient id="e" y2="39.999" gradientUnits="userSpaceOnUse" x2="25.058" y1="47.028" x1="25.058">
   <stop stop-color="#181818" stop-opacity="0" offset="0"/>
   <stop stop-color="#181818" offset=".5"/>
   <stop stop-color="#181818" stop-opacity="0" offset="1"/>
  </linearGradient>
  <linearGradient id="f" y2="5.0205" gradientUnits="userSpaceOnUse" x2="-1.2857" gradientTransform="translate(41.286)" y1="44.977" x1="-1.2857">
   <stop stop-color="#1a6f44" offset="0"/>
   <stop stop-color="#1f8753" offset="1"/>
  </linearGradient>
  <clipPath id="a" clipPathUnits="userSpaceOnUse">
   <rect height="31" width="38" y="8.9807" x="5" fill="#fff"/>
  </clipPath>
 </defs>
 <g opacity=".4" transform="matrix(1.1579 0 0 .57143 -3.7895 19.143)">
  <rect height="7" width="5" y="40" x="38" fill="url(#d)"/>
  <rect transform="scale(-1)" height="7" width="5" y="-47" x="-10" fill="url(#c)"/>
  <rect height="7" width="28" y="40" x="10" fill="url(#e)"/>
 </g>
 <rect style="color:#000000" rx="1.5031" ry="1.5031" height="38" width="38" y="6" x="5" fill="url(#b)"/>
 <rect stroke-linejoin="round" style="color:#000000" rx="2" ry="2" height="39" width="39" stroke="url(#f)" stroke-linecap="round" y="5.5" x="4.5" fill="none"/>
 <path stroke-linejoin="round" opacity=".05" style="color-rendering:auto;text-decoration-color:#000000;color:#000000;isolation:auto;mix-blend-mode:normal;shape-rendering:auto;solid-color:#000000;block-progression:tb;text-decoration-line:none;text-decoration-style:solid;image-rendering:auto;white-space:normal;text-indent:0;text-transform:none" d="m43.293 10.293-19.293 19.293l-7-7-13.707 13.687 1.414 1.415 12.293-12.274 7 7 20.707-20.707-1.4141-1.4141z" clip-path="url(#a)" transform="translate(0 2.0197)" fill-rule="evenodd" stroke="#000" stroke-width="2"/>
 <path opacity=".15" d="m4 36.981 13-12.981 7 7 20-20" clip-path="url(#a)" transform="translate(0 2.0197)" stroke="#000" stroke-width="2" fill="none"/>
 <path d="m4 36.981 13-12.981 7 7 20-20" clip-path="url(#a)" transform="translate(0 1.0193)" stroke="#fff" stroke-width="2" fill="none"/>
 <rect opacity=".5" stroke-linejoin="round" rx="1" ry="1" height="37" width="37" stroke="url(#g)" stroke-linecap="round" y="6.5" x="5.5" fill="none"/>
</svg>
