<?xml version="1.0" encoding="UTF-8" standalone="no"?>
<svg xmlns:rdf="http://www.w3.org/1999/02/22-rdf-syntax-ns#" xmlns="http://www.w3.org/2000/svg" height="48" width="48" version="1.1" xmlns:cc="http://creativecommons.org/ns#" xmlns:xlink="http://www.w3.org/1999/xlink" viewBox="0 0 48 48.000001" xmlns:dc="http://purl.org/dc/elements/1.1/">
 <defs>
  <linearGradient id="g" y2="-242.15" gradientUnits="userSpaceOnUse" x2="48.97" gradientTransform="matrix(1.2936 0 0 -1.2936 -51.268 -190.13)" y1="-209.35" x1="48.97">
   <stop stop-color="#fff" offset="0"/>
   <stop stop-color="#fff" stop-opacity=".23529" offset=".42448"/>
   <stop stop-color="#fff" stop-opacity=".15686" offset=".8209"/>
   <stop stop-color="#fff" stop-opacity=".39216" offset="1"/>
  </linearGradient>
  <radialGradient id="c" gradientUnits="userSpaceOnUse" cy="4.3419" cx="32" gradientTransform="matrix(0 1.3006 -1.3006 0 94.036 165.84)" r="27.5">
   <stop stop-color="#fafafa" offset="0"/>
   <stop stop-color="#e1e1e1" offset="1"/>
  </radialGradient>
  <radialGradient id="d" xlink:href="#c" gradientUnits="userSpaceOnUse" cy="-208.52" cx="48.978" gradientTransform="matrix(1.9702 -.0082225 .0079585 1.907 -45.868 188.7)" r="17.2"/>
  <linearGradient id="f" y2="-244.12" gradientUnits="userSpaceOnUse" x2="47.467" gradientTransform="matrix(.646 0 0 .66699 138.71 200.99)" y1="-206.95" x1="47.37">
   <stop stop-opacity=".32174" offset="0"/>
   <stop stop-opacity=".27826" offset="1"/>
  </linearGradient>
  <radialGradient id="radialGradient12065" xlink:href="#c" gradientUnits="userSpaceOnUse" cy="-6.5901" cx="27.34" gradientTransform="matrix(3.9021 .0092878 -.0096565 4.0587 -79.814 92.576)" r="55.725"/>
  <radialGradient id="i" gradientUnits="userSpaceOnUse" cy="186.17" cx="99.157" gradientTransform="matrix(.21666 0 0 -.070098 27.486 -226.7)" r="62.769">
   <stop stop-color="#3d3d3d" offset="0"/>
   <stop stop-color="#686868" stop-opacity=".49804" offset=".5"/>
   <stop stop-color="#686868" stop-opacity="0" offset="1"/>
  </radialGradient>
  <radialGradient id="e" xlink:href="#c" gradientUnits="userSpaceOnUse" cy="-47.109" cx="27.391" gradientTransform="matrix(2.9895 .0078878 -.0073208 2.7757 -54.839 83.435)" r="55.725"/>
  <linearGradient id="h" y2="42.608" gradientUnits="userSpaceOnUse" x2="22.893" gradientTransform="matrix(.8 0 0 -.8 29.77 -206.55)" y1="5.5736" x1="22.893">
   <stop stop-color="#60d36b" offset="0"/>
   <stop stop-color="#27b43d" offset="1"/>
  </linearGradient>
 </defs>
 <g transform="translate(0 -1004.4)">
  <g transform="matrix(1.25 0 0 -1.25 -37.212 746.17)">
   <path fill="url(#i)" d="m62.57-239.75a13.6 4.4 0 1 0 -27.2 0 13.6 4.4 0 0 0 27.2 0z"/>
   <path d="m48.97-209.35a16.4 16.4 0 0 1 -16.4 -16.4 16.4 16.4 0 0 1 2.4438 -8.5875l-2.9984-8.3953 8.8672 2.7281a16.4 16.4 0 0 1 8.0875 -2.1453 16.4 16.4 0 0 1 16.4 16.4 16.4 16.4 0 0 1 -16.4 16.4z" fill="#b3b3b3"/>
   <path d="m48.97-209.35a16.4 16.4 0 0 1 -16.4 -16.4 16.4 16.4 0 0 1 2.4438 -8.5875l-2.9984-8.3953 8.8672 2.7281a16.4 16.4 0 0 1 8.0875 -2.1453 16.4 16.4 0 0 1 16.4 16.4 16.4 16.4 0 0 1 -16.4 16.4z" fill="url(#d)"/>
   <path opacity="0.637" d="m48.97-210.15c-8.6156 0-15.6-6.9844-15.6-15.6 0.002-3.0282 0.86816-5.9731 2.525-8.5078v0l-2.5906-7.2422 7.6641 2.3594v0c2.4303-1.4757 5.1583-2.2029 8.0016-2.2094 8.6156 0 15.6 6.9844 15.6 15.6s-6.9844 15.6-15.6 15.6z" stroke="url(#g)" stroke-linecap="round" stroke-width="0.8" fill="none"/>
   <path d="m48.97-212.15a13.6 13.6 0 0 1 -13.6 -13.6 13.6 13.6 0 0 1 2.7531 -8.1828l-1.6031-4.4844 4.7391 1.4656a13.6 13.6 0 0 1 7.7109 -2.3984 13.6 13.6 0 0 1 13.6 13.6 13.6 13.6 0 0 1 -13.6 13.6z" fill="url(#h)"/>
   <path opacity=".8" d="m48.97-209.35a16.4 16.4 0 0 1 -16.4 -16.4 16.4 16.4 0 0 1 2.4438 -8.5875l-2.9984-8.3953 8.8672 2.7281a16.4 16.4 0 0 1 8.0875 -2.1453 16.4 16.4 0 0 1 16.4 16.4 16.4 16.4 0 0 1 -16.4 16.4z" stroke="url(#f)" stroke-linecap="round" stroke-width="0.8" fill="none"/>
   <path opacity=".15" d="m24 7a17 17 0 0 0 -17 17 17 17 0 0 0 0.0215 0.408 17 17 0 0 1 16.978 -16.408 17 17 0 0 1 16.979 16.58 17 17 0 0 0 0.021 -0.58 17 17 0 0 0 -17 -17zm-13.797 27.896l-1.7655 4.938 0.4023-0.125 1.6012-4.48a17 17 0 0 1 -0.238 -0.333z" transform="matrix(.8 0 0 -.8 29.77 -206.55)"/>
   <path opacity=".05" d="m24 7a17 17 0 0 0 -17 17 17 17 0 0 0 0.043 0.816 17 17 0 0 1 16.957 -15.816 17 17 0 0 1 16.959 16.162 17 17 0 0 0 0.041 -1.162 17 17 0 0 0 -17 -17zm-14.035 28.562l-1.5273 4.272 0.8047-0.248 1.1988-3.357a17 17 0 0 1 -0.4762 -0.667z" transform="matrix(.8 0 0 -.8 29.77 -206.55)"/>
   <g opacity=".05" fill-rule="evenodd" transform="matrix(.15433 0 0 .15430 44.742 -219.29)" stroke="#000" stroke-width="10.368">
    <path d="m0 0c-1.812 4.367-3.2 4.515-5.999 4.648-0.96 0.046-2.001 0.09-3.14 0.09-3.606 0-7.344-1.062-9.597-3.367-2.742-2.805-9.598-9.375-9.598-22.865 0-13.492 9.826-26.529 11.195-28.36 1.373-1.828 19.164-29.919 46.844-41.388 21.606-8.949 28.02-8.153 32.949-7.074 7.172 1.566 16.178 6.847 18.463 13.248 2.285 6.404 2.285 11.892 1.6 13.033-0.686 1.144-2.514 1.828-5.256 3.203-2.742 1.371-16.225 8.004-18.738 8.918-2.514 0.914-4.838 0.635-6.772-2.039-2.668-3.693-5.234-7.488-7.359-9.738-1.668-1.766-4.352-2.012-6.66-1.032-3.036 1.293-11.578 4.27-22.053 13.61-8.15 7.265-13.654 16.242-15.254 18.988-1.6 2.742-0.141 4.379 1.092 5.871 1.406 1.703 2.703 2.926 4.074 4.525 1.371 1.602 2.137 2.456 3.051 4.288 0.914 1.828 0.299 3.714-0.387 5.087-0.687 1.374-6.177 14.862-8.455 20.354"/>
    <path d="m0 0c-1.812 4.367-3.2 4.515-5.999 4.648-0.96 0.046-2.001 0.09-3.14 0.09-3.606 0-7.344-1.062-9.597-3.367-2.742-2.805-9.598-9.375-9.598-22.865 0-13.492 9.826-26.529 11.195-28.36 1.373-1.828 19.164-29.919 46.844-41.388 21.606-8.949 28.02-8.153 32.949-7.074 7.172 1.566 16.178 6.847 18.463 13.248 2.285 6.404 2.285 11.892 1.6 13.033-0.686 1.144-2.514 1.828-5.256 3.203-2.742 1.371-16.225 8.004-18.738 8.918-2.514 0.914-4.838 0.635-6.772-2.039-2.668-3.693-5.234-7.488-7.359-9.738-1.668-1.766-4.352-2.012-6.66-1.032-3.036 1.293-11.578 4.27-22.053 13.61-8.15 7.265-13.654 16.242-15.254 18.988-1.6 2.742-0.141 4.379 1.092 5.871 1.406 1.703 2.703 2.926 4.074 4.525 1.371 1.602 2.137 2.456 3.051 4.288 0.914 1.828 0.299 3.714-0.387 5.087-0.687 1.374-6.177 14.862-8.455 20.354"/>
   </g>
   <g opacity=".15" fill-rule="evenodd" transform="matrix(.15433 0 0 .15430 44.742 -219.28)">
    <path d="m0 0c-1.812 4.367-3.2 4.515-5.999 4.648-0.96 0.046-2.001 0.09-3.14 0.09-3.606 0-7.344-1.062-9.597-3.367-2.742-2.805-9.598-9.375-9.598-22.865 0-13.492 9.826-26.529 11.195-28.36 1.373-1.828 19.164-29.919 46.844-41.388 21.606-8.949 28.02-8.153 32.949-7.074 7.172 1.566 16.178 6.847 18.463 13.248 2.285 6.404 2.285 11.892 1.6 13.033-0.686 1.144-2.514 1.828-5.256 3.203-2.742 1.371-16.225 8.004-18.738 8.918-2.514 0.914-4.838 0.635-6.772-2.039-2.668-3.693-5.234-7.488-7.359-9.738-1.668-1.766-4.352-2.012-6.66-1.032-3.036 1.293-11.578 4.27-22.053 13.61-8.15 7.265-13.654 16.242-15.254 18.988-1.6 2.742-0.141 4.379 1.092 5.871 1.406 1.703 2.703 2.926 4.074 4.525 1.371 1.602 2.137 2.456 3.051 4.288 0.914 1.828 0.299 3.714-0.387 5.087-0.687 1.374-6.177 14.862-8.455 20.354"/>
    <path d="m0 0c-1.812 4.367-3.2 4.515-5.999 4.648-0.96 0.046-2.001 0.09-3.14 0.09-3.606 0-7.344-1.062-9.597-3.367-2.742-2.805-9.598-9.375-9.598-22.865 0-13.492 9.826-26.529 11.195-28.36 1.373-1.828 19.164-29.919 46.844-41.388 21.606-8.949 28.02-8.153 32.949-7.074 7.172 1.566 16.178 6.847 18.463 13.248 2.285 6.404 2.285 11.892 1.6 13.033-0.686 1.144-2.514 1.828-5.256 3.203-2.742 1.371-16.225 8.004-18.738 8.918-2.514 0.914-4.838 0.635-6.772-2.039-2.668-3.693-5.234-7.488-7.359-9.738-1.668-1.766-4.352-2.012-6.66-1.032-3.036 1.293-11.578 4.27-22.053 13.61-8.15 7.265-13.654 16.242-15.254 18.988-1.6 2.742-0.141 4.379 1.092 5.871 1.406 1.703 2.703 2.926 4.074 4.525 1.371 1.602 2.137 2.456 3.051 4.288 0.914 1.828 0.299 3.714-0.387 5.087-0.687 1.374-6.177 14.862-8.455 20.354"/>
   </g>
   <g fill-rule="evenodd" transform="matrix(.15433 0 0 .15430 44.742 -218.48)" fill="url(#e)">
    <path d="m0 0c-1.812 4.367-3.2 4.515-5.999 4.648-0.96 0.046-2.001 0.09-3.14 0.09-3.606 0-7.344-1.062-9.597-3.367-2.742-2.805-9.598-9.375-9.598-22.865 0-13.492 9.826-26.529 11.195-28.36 1.373-1.828 19.164-29.919 46.844-41.388 21.606-8.949 28.02-8.153 32.949-7.074 7.172 1.566 16.178 6.847 18.463 13.248 2.285 6.404 2.285 11.892 1.6 13.033-0.686 1.144-2.514 1.828-5.256 3.203-2.742 1.371-16.225 8.004-18.738 8.918-2.514 0.914-4.838 0.635-6.772-2.039-2.668-3.693-5.234-7.488-7.359-9.738-1.668-1.766-4.352-2.012-6.66-1.032-3.036 1.293-11.578 4.27-22.053 13.61-8.15 7.265-13.654 16.242-15.254 18.988-1.6 2.742-0.141 4.379 1.092 5.871 1.406 1.703 2.703 2.926 4.074 4.525 1.371 1.602 2.137 2.456 3.051 4.288 0.914 1.828 0.299 3.714-0.387 5.087-0.687 1.374-6.177 14.862-8.455 20.354"/>
    <path d="m0 0c-1.812 4.367-3.2 4.515-5.999 4.648-0.96 0.046-2.001 0.09-3.14 0.09-3.606 0-7.344-1.062-9.597-3.367-2.742-2.805-9.598-9.375-9.598-22.865 0-13.492 9.826-26.529 11.195-28.36 1.373-1.828 19.164-29.919 46.844-41.388 21.606-8.949 28.02-8.153 32.949-7.074 7.172 1.566 16.178 6.847 18.463 13.248 2.285 6.404 2.285 11.892 1.6 13.033-0.686 1.144-2.514 1.828-5.256 3.203-2.742 1.371-16.225 8.004-18.738 8.918-2.514 0.914-4.838 0.635-6.772-2.039-2.668-3.693-5.234-7.488-7.359-9.738-1.668-1.766-4.352-2.012-6.66-1.032-3.036 1.293-11.578 4.27-22.053 13.61-8.15 7.265-13.654 16.242-15.254 18.988-1.6 2.742-0.141 4.379 1.092 5.871 1.406 1.703 2.703 2.926 4.074 4.525 1.371 1.602 2.137 2.456 3.051 4.288 0.914 1.828 0.299 3.714-0.387 5.087-0.687 1.374-6.177 14.862-8.455 20.354"/>
   </g>
  </g>
 </g>
</svg>
