<?xml version="1.0" encoding="UTF-8" standalone="no"?>
<svg xmlns:rdf="http://www.w3.org/1999/02/22-rdf-syntax-ns#" xmlns="http://www.w3.org/2000/svg" height="48" width="48" version="1.1" xmlns:cc="http://creativecommons.org/ns#" xmlns:xlink="http://www.w3.org/1999/xlink" xmlns:dc="http://purl.org/dc/elements/1.1/">
 <defs>
  <linearGradient id="f" y2="43" gradientUnits="userSpaceOnUse" x2="24" gradientTransform="translate(.0000117 1)" y1="5" x1="24">
   <stop stop-color="#fff" offset="0"/>
   <stop stop-color="#fff" stop-opacity=".23529" offset=".063165"/>
   <stop stop-color="#fff" stop-opacity=".15686" offset=".95056"/>
   <stop stop-color="#fff" stop-opacity=".39216" offset="1"/>
  </linearGradient>
  <radialGradient id="a" gradientUnits="userSpaceOnUse" cy="8.4498" cx="7.4957" gradientTransform="matrix(0 2.0716 -2.4089 -5.6386e-8 44.354 -8.9606)" r="20">
   <stop stop-color="#4ad58e" offset="0"/>
   <stop stop-color="#2dc477" offset=".26238"/>
   <stop stop-color="#26a464" offset=".70495"/>
   <stop stop-color="#1d7d4c" offset="1"/>
  </radialGradient>
  <radialGradient id="c" gradientUnits="userSpaceOnUse" cy="43.5" cx="4.993" gradientTransform="matrix(2.0038 0 0 1.4 27.988 -17.4)" r="2.5">
   <stop stop-color="#181818" offset="0"/>
   <stop stop-color="#181818" stop-opacity="0" offset="1"/>
  </radialGradient>
  <radialGradient id="b" gradientUnits="userSpaceOnUse" cy="43.5" cx="4.993" gradientTransform="matrix(2.0038 0 0 1.4 -20.012 -104.4)" r="2.5">
   <stop stop-color="#181818" offset="0"/>
   <stop stop-color="#181818" stop-opacity="0" offset="1"/>
  </radialGradient>
  <linearGradient id="d" y2="39.999" gradientUnits="userSpaceOnUse" x2="25.058" y1="47.028" x1="25.058">
   <stop stop-color="#181818" stop-opacity="0" offset="0"/>
   <stop stop-color="#181818" offset=".5"/>
   <stop stop-color="#181818" stop-opacity="0" offset="1"/>
  </linearGradient>
  <linearGradient id="e" y2="5.0205" gradientUnits="userSpaceOnUse" x2="-1.2857" gradientTransform="translate(41.286)" y1="44.977" x1="-1.2857">
   <stop stop-color="#1a6f44" offset="0"/>
   <stop stop-color="#1f8753" offset="1"/>
  </linearGradient>
 </defs>
 <g opacity=".4" transform="matrix(1.1579 0 0 .57143 -3.7895 19.143)">
  <rect height="7" width="5" y="40" x="38" fill="url(#c)"/>
  <rect transform="scale(-1)" height="7" width="5" y="-47" x="-10" fill="url(#b)"/>
  <rect height="7" width="28" y="40" x="10" fill="url(#d)"/>
 </g>
 <rect style="color:#000000" rx="1.5031" ry="1.5031" height="38" width="38" y="6" x="5" fill="url(#a)"/>
 <rect opacity=".5" stroke-linejoin="round" rx="1" ry="1" height="37" width="37" stroke="url(#f)" stroke-linecap="round" y="6.5" x="5.5" fill="none"/>
 <rect stroke-linejoin="round" style="color:#000000" rx="2" ry="2" height="39" width="39" stroke="url(#e)" stroke-linecap="round" y="5.5" x="4.5" fill="none"/>
 <path opacity=".15" style="color-rendering:auto;text-decoration-color:#000000;color:#000000;isolation:auto;mix-blend-mode:normal;shape-rendering:auto;solid-color:#000000;block-progression:tb;text-decoration-line:none;text-decoration-style:solid;image-rendering:auto;white-space:normal;text-indent:0;text-transform:none" d="m13 17v1 16h22v-17h-10-2-10zm2 2h8v3h-8v-3zm10 0h8v3h-8v-3zm-10 5h8v3h-8v-3zm10 0h8v3h-8v-3zm-10 5h8v3h-8v-3zm10 0h8v3h-8v-3z" fill-rule="evenodd"/>
 <path opacity=".05" style="color-rendering:auto;text-decoration-color:#000000;color:#000000;isolation:auto;mix-blend-mode:normal;shape-rendering:auto;solid-color:#000000;block-progression:tb;text-decoration-line:none;text-decoration-style:solid;image-rendering:auto;white-space:normal;text-indent:0;text-transform:none" d="m13 16a1.0001 1.0001 0 0 0 -1 1v1 16a1.0001 1.0001 0 0 0 1 1h22a1.0001 1.0001 0 0 0 1 -1v-17a1.0001 1.0001 0 0 0 -1 -1h-10-2-10zm1 2h1a1.0001 1.0001 0 0 0 -1 1v-1zm9 0h2a1.0001 1.0001 0 0 0 -1 1 1.0001 1.0001 0 0 0 -1 -1zm10 0h1v1a1.0001 1.0001 0 0 0 -1 -1zm-17 2h6v1h-6v-1zm10 0h6v1h-6v-1zm-12 2a1.0001 1.0001 0 0 0 1 1 1.0001 1.0001 0 0 0 -1 1v-2zm10 0a1.0001 1.0001 0 0 0 1 1 1.0001 1.0001 0 0 0 -1 1 1.0001 1.0001 0 0 0 -1 -1 1.0001 1.0001 0 0 0 1 -1zm10 0v2a1.0001 1.0001 0 0 0 -1 -1 1.0001 1.0001 0 0 0 1 -1zm-18 3h6v1h-6v-1zm10 0h6v1h-6v-1zm-12 2a1.0001 1.0001 0 0 0 1 1 1.0001 1.0001 0 0 0 -1 1v-2zm10 0a1.0001 1.0001 0 0 0 1 1 1.0001 1.0001 0 0 0 -1 1 1.0001 1.0001 0 0 0 -1 -1 1.0001 1.0001 0 0 0 1 -1zm10 0v2a1.0001 1.0001 0 0 0 -1 -1 1.0001 1.0001 0 0 0 1 -1zm-18 3h6v1h-6v-1zm10 0h6v1h-6v-1zm-12 2a1.0001 1.0001 0 0 0 1 1h-1v-1zm10 0a1.0001 1.0001 0 0 0 1 1h-2a1.0001 1.0001 0 0 0 1 -1zm10 0v1h-1a1.0001 1.0001 0 0 0 1 -1z" fill-rule="evenodd"/>
 <path style="color-rendering:auto;text-decoration-color:#000000;color:#000000;isolation:auto;mix-blend-mode:normal;shape-rendering:auto;solid-color:#000000;block-progression:tb;text-decoration-line:none;text-decoration-style:solid;image-rendering:auto;white-space:normal;text-indent:0;text-transform:none" d="m13 16v1 16h22v-17h-10-2-10zm2 2h8v3h-8v-3zm10 0h8v3h-8v-3zm-10 5h8v3h-8v-3zm10 0h8v3h-8v-3zm-10 5h8v3h-8v-3zm10 0h8v3h-8v-3z" fill-rule="evenodd" fill="#fff"/>
</svg>
