<?xml version="1.0" encoding="UTF-8" standalone="no"?>
<svg xmlns:rdf="http://www.w3.org/1999/02/22-rdf-syntax-ns#" xmlns="http://www.w3.org/2000/svg" height="48" width="48" version="1.1" xmlns:cc="http://creativecommons.org/ns#" xmlns:xlink="http://www.w3.org/1999/xlink" xmlns:dc="http://purl.org/dc/elements/1.1/">
 <defs>
  <radialGradient id="d" gradientUnits="userSpaceOnUse" cy="43.5" cx="4.993" gradientTransform="matrix(2.0038 0 0 1.4 27.988 -17.4)" r="2.5">
   <stop stop-color="#181818" offset="0"/>
   <stop stop-color="#181818" stop-opacity="0" offset="1"/>
  </radialGradient>
  <radialGradient id="c" gradientUnits="userSpaceOnUse" cy="43.5" cx="4.993" gradientTransform="matrix(2.0038 0 0 1.4 -20.012 -104.4)" r="2.5">
   <stop stop-color="#181818" offset="0"/>
   <stop stop-color="#181818" stop-opacity="0" offset="1"/>
  </radialGradient>
  <linearGradient id="e" y2="39.999" gradientUnits="userSpaceOnUse" x2="25.058" y1="47.028" x1="25.058">
   <stop stop-color="#181818" stop-opacity="0" offset="0"/>
   <stop stop-color="#181818" offset=".5"/>
   <stop stop-color="#181818" stop-opacity="0" offset="1"/>
  </linearGradient>
  <linearGradient id="g" y2="5.1758" gradientUnits="userSpaceOnUse" x2="-95.838" gradientTransform="matrix(.80750 0 0 .83374 106.88 -.069851)" y1="54.2" x1="-95.838">
   <stop stop-opacity=".32174" offset="0"/>
   <stop stop-opacity=".27826" offset="1"/>
  </linearGradient>
  <linearGradient id="f" y2="43" gradientUnits="userSpaceOnUse" x2="24" gradientTransform="translate(.000004 1)" y1="5" x1="24">
   <stop stop-color="#fff" offset="0"/>
   <stop stop-color="#fff" stop-opacity=".23529" offset=".063165"/>
   <stop stop-color="#fff" stop-opacity=".15686" offset=".95056"/>
   <stop stop-color="#fff" stop-opacity=".39216" offset="1"/>
  </linearGradient>
  <radialGradient id="b" gradientUnits="userSpaceOnUse" cy="4.3419" cx="32" gradientTransform="matrix(0 1.6258 -1.6258 0 31.059 -46.135)" r="27.5">
   <stop stop-color="#fafafa" offset="0"/>
   <stop stop-color="#e1e1e1" offset="1"/>
  </radialGradient>
  <linearGradient id="a" y2="37" xlink:href="#h" gradientUnits="userSpaceOnUse" x2="25" y1="13" x1="25"/>
  <linearGradient id="h">
   <stop stop-color="#008fef" offset="0"/>
   <stop stop-color="#007acc" offset="1"/>
  </linearGradient>
  <clipPath id="i" clipPathUnits="userSpaceOnUse">
   <path d="m31 13-11 10-6-5-2 1v12l2 1 6-5 11 10 5-2v-20zm-1 7c0.0016 3.3246 0 6.7021 0 10l-6-5zm-16 2 3 3-3 3z" fill-rule="evenodd" fill="url(#a)"/>
  </clipPath>
 </defs>
 <g opacity=".4" transform="matrix(1.1579 0 0 .64286 -3.7895 16.036)">
  <rect height="7" width="5" y="40" x="38" fill="url(#d)"/>
  <rect transform="scale(-1)" height="7" width="5" y="-47" x="-10" fill="url(#c)"/>
  <rect height="7" width="28" y="40" x="10" fill="url(#e)"/>
 </g>
 <rect style="color:#000000" rx="1.5" ry="1.5" height="38" width="38" y="6" x="5" fill="url(#b)"/>
 <rect stroke-linejoin="round" rx="1" ry="1" height="37" width="37" stroke="url(#f)" stroke-linecap="round" y="6.5" x="5.5" fill="none"/>
 <rect opacity=".8" style="color:#000000" rx="2" ry="2" height="39" width="39" stroke="url(#g)" y="5.5" x="4.5" fill="none"/>
 <g font-size="12.666px" font-family="Bitstream Vera Sans" fill="#000000">
  <text opacity=".8" xml:space="preserve" y="10.722242" x="930.43976"><tspan y="10.722242" x="930.43976"/></text>
  <text opacity=".8" xml:space="preserve" y="-30.019464" x="954.4007"><tspan y="-30.019464" x="954.4007"/></text>
  <text opacity=".8" xml:space="preserve" y="-60.097607" x="-516.15765"><tspan y="-60.097607" x="-516.15765"/></text>
  <text opacity=".8" xml:space="preserve" y="685.45587" x="-2339.8438"><tspan y="685.45587" x="-2339.8438"/></text>
  <text opacity=".8" xml:space="preserve" y="-445.41858" x="-401.66656"><tspan y="-445.41858" x="-401.66656"/></text>
  <text opacity=".8" xml:space="preserve" y="-858.88867" x="405.93558"><tspan y="-858.88867" x="405.93558"/></text>
  <text opacity=".8" xml:space="preserve" y="-899.63037" x="429.89651"><tspan y="-899.63037" x="429.89651"/></text>
  <text opacity=".8" xml:space="preserve" y="-906.84027" x="-1061.5667"><tspan y="-906.84027" x="-1061.5667"/></text>
  <text opacity=".8" xml:space="preserve" y="-1180.0745" x="398.9761"><tspan y="-1180.0745" x="398.9761"/></text>
  <text opacity=".8" xml:space="preserve" y="-553.38306" x="1885.0996"><tspan y="-553.38306" x="1885.0996"/></text>
  <text opacity=".8" xml:space="preserve" y="-594.12482" x="1909.0604"><tspan y="-594.12482" x="1909.0604"/></text>
  <text opacity=".8" xml:space="preserve" y="-601.33472" x="417.59726"><tspan y="-601.33472" x="417.59726"/></text>
  <text opacity=".8" xml:space="preserve" y="-874.56873" x="1878.1401"><tspan y="-874.56873" x="1878.1401"/></text>
  <text opacity=".8" xml:space="preserve" y="-649.42603" x="-520.21906"><tspan y="-649.42603" x="-520.21906"/></text>
  <text opacity=".8" xml:space="preserve" y="96.127502" x="-2343.9048"><tspan y="96.127502" x="-2343.9048"/></text>
  <text opacity=".8" xml:space="preserve" y="188.99963" x="-629.14929"><tspan y="188.99963" x="-629.14929"/></text>
  <text opacity=".8" xml:space="preserve" y="9.8174934" x="479.87503"><tspan y="9.8174934" x="479.87503"/></text>
  <text opacity=".8" xml:space="preserve" y="-30.924213" x="503.83597"><tspan y="-30.924213" x="503.83597"/></text>
  <text opacity=".8" xml:space="preserve" y="-38.134186" x="-987.62726"><tspan y="-38.134186" x="-987.62726"/></text>
  <text opacity=".8" xml:space="preserve" y="-311.36826" x="472.91556"><tspan y="-311.36826" x="472.91556"/></text>
  <text opacity=".8" xml:space="preserve" y="-40.848431" x="-554.81903"><tspan y="-40.848431" x="-554.81903"/></text>
  <text opacity=".8" xml:space="preserve" y="704.70508" x="-2378.5051"><tspan y="704.70508" x="-2378.5051"/></text>
  <text opacity=".8" xml:space="preserve" y="-902.37891" x="-403.72598"><tspan y="-902.37891" x="-403.72598"/></text>
  <text opacity=".8" xml:space="preserve" y="-1315.8491" x="403.87616"><tspan y="-1315.8491" x="403.87616"/></text>
  <text opacity=".8" xml:space="preserve" y="-1356.5908" x="427.83707"><tspan y="-1356.5908" x="427.83707"/></text>
  <text opacity=".8" xml:space="preserve" y="-1363.8008" x="-1063.6261"><tspan y="-1363.8008" x="-1063.6261"/></text>
  <text opacity=".8" xml:space="preserve" y="-1637.0349" x="396.91666"><tspan y="-1637.0349" x="396.91666"/></text>
  <text opacity=".8" xml:space="preserve" y="-1010.3436" x="1883.04"><tspan y="-1010.3436" x="1883.04"/></text>
  <text opacity=".8" xml:space="preserve" y="-1051.0852" x="1907.0009"><tspan y="-1051.0852" x="1907.0009"/></text>
  <text opacity=".8" xml:space="preserve" y="-1058.2952" x="415.53781"><tspan y="-1058.2952" x="415.53781"/></text>
  <text opacity=".8" xml:space="preserve" y="-1331.5293" x="1876.0806"><tspan y="-1331.5293" x="1876.0806"/></text>
  <text opacity=".8" xml:space="preserve" y="-1106.3865" x="-522.2785"><tspan y="-1106.3865" x="-522.2785"/></text>
  <text opacity=".8" xml:space="preserve" y="-360.83298" x="-2345.9644"><tspan y="-360.83298" x="-2345.9644"/></text>
  <text opacity=".8" xml:space="preserve" y="-267.96082" x="-631.20874"><tspan y="-267.96082" x="-631.20874"/></text>
  <text opacity=".8" xml:space="preserve" y="-27.046637" x="208.80579"><tspan y="-27.046637" x="208.80579"/></text>
  <text opacity=".8" xml:space="preserve" y="-67.788353" x="232.76672"><tspan y="-67.788353" x="232.76672"/></text>
  <text opacity=".8" xml:space="preserve" y="-261.81699" x="-1037.0499"><tspan y="-261.81699" x="-1037.0499"/></text>
  <text opacity=".8" xml:space="preserve" y="-675.28711" x="-229.44791"><tspan y="-675.28711" x="-229.44791"/></text>
  <text opacity=".8" xml:space="preserve" y="-716.02881" x="-205.48698"><tspan y="-716.02881" x="-205.48698"/></text>
  <text opacity=".8" xml:space="preserve" y="-723.23871" x="-1696.9501"><tspan y="-723.23871" x="-1696.9501"/></text>
  <text opacity=".8" xml:space="preserve" y="-996.47284" x="-236.40735"><tspan y="-996.47284" x="-236.40735"/></text>
  <text opacity=".8" xml:space="preserve" y="-369.78149" x="1249.7161"><tspan y="-369.78149" x="1249.7161"/></text>
  <text opacity=".8" xml:space="preserve" y="-410.52322" x="1273.6769"><tspan y="-410.52322" x="1273.6769"/></text>
  <text opacity=".8" xml:space="preserve" y="-417.73318" x="-217.78624"><tspan y="-417.73318" x="-217.78624"/></text>
  <text opacity=".8" xml:space="preserve" y="-690.96722" x="1242.7566"><tspan y="-690.96722" x="1242.7566"/></text>
  <text opacity=".8" xml:space="preserve" y="-465.82446" x="-1155.6025"><tspan y="-465.82446" x="-1155.6025"/></text>
  <text opacity=".8" xml:space="preserve" y="279.7291" x="-2979.2883"><tspan y="279.7291" x="-2979.2883"/></text>
 </g>
 <g transform="matrix(.90475 0 0 .90475 -663.53 -676.38)">
  <text opacity=".8" xml:space="preserve" font-size="14px" y="1159.4154" x="-664.2738" font-family="Bitstream Vera Sans" fill="#000000"><tspan y="1159.4154" x="-664.2738"/></text>
 </g>
 <g font-size="12.666px" font-family="Bitstream Vera Sans" fill="#000000">
  <text opacity=".8" xml:space="preserve" y="17.96023" x="930.43976"><tspan y="17.96023" x="930.43976"/></text>
  <text opacity=".8" xml:space="preserve" y="-22.781475" x="954.4007"><tspan y="-22.781475" x="954.4007"/></text>
  <text opacity=".8" xml:space="preserve" y="-52.859619" x="-516.15765"><tspan y="-52.859619" x="-516.15765"/></text>
  <text opacity=".8" xml:space="preserve" y="692.69385" x="-2339.8438"><tspan y="692.69385" x="-2339.8438"/></text>
  <text opacity=".8" xml:space="preserve" y="-438.18057" x="-401.66656"><tspan y="-438.18057" x="-401.66656"/></text>
  <text opacity=".8" xml:space="preserve" y="-851.65063" x="405.93558"><tspan y="-851.65063" x="405.93558"/></text>
  <text opacity=".8" xml:space="preserve" y="-892.3924" x="429.89651"><tspan y="-892.3924" x="429.89651"/></text>
  <text opacity=".8" xml:space="preserve" y="-899.60229" x="-1061.5667"><tspan y="-899.60229" x="-1061.5667"/></text>
  <text opacity=".8" xml:space="preserve" y="-1172.8364" x="398.9761"><tspan y="-1172.8364" x="398.9761"/></text>
  <text opacity=".8" xml:space="preserve" y="-546.14508" x="1885.0996"><tspan y="-546.14508" x="1885.0996"/></text>
  <text opacity=".8" xml:space="preserve" y="-586.88684" x="1909.0604"><tspan y="-586.88684" x="1909.0604"/></text>
  <text opacity=".8" xml:space="preserve" y="-594.09674" x="417.59726"><tspan y="-594.09674" x="417.59726"/></text>
  <text opacity=".8" xml:space="preserve" y="-867.33069" x="1878.1401"><tspan y="-867.33069" x="1878.1401"/></text>
  <text opacity=".8" xml:space="preserve" y="-642.18805" x="-520.21906"><tspan y="-642.18805" x="-520.21906"/></text>
  <text opacity=".8" xml:space="preserve" y="103.36549" x="-2343.9048"><tspan y="103.36549" x="-2343.9048"/></text>
  <text opacity=".8" xml:space="preserve" y="196.23763" x="-629.14929"><tspan y="196.23763" x="-629.14929"/></text>
  <text opacity=".8" xml:space="preserve" y="17.055481" x="479.87503"><tspan y="17.055481" x="479.87503"/></text>
  <text opacity=".8" xml:space="preserve" y="-23.686224" x="503.83597"><tspan y="-23.686224" x="503.83597"/></text>
  <text opacity=".8" xml:space="preserve" y="-30.896194" x="-987.62726"><tspan y="-30.896194" x="-987.62726"/></text>
  <text opacity=".8" xml:space="preserve" y="-304.13025" x="472.91556"><tspan y="-304.13025" x="472.91556"/></text>
  <text opacity=".8" xml:space="preserve" y="-33.610439" x="-554.81903"><tspan y="-33.610439" x="-554.81903"/></text>
  <text opacity=".8" xml:space="preserve" y="711.94312" x="-2378.5051"><tspan y="711.94312" x="-2378.5051"/></text>
  <text opacity=".8" xml:space="preserve" y="-895.14093" x="-403.72598"><tspan y="-895.14093" x="-403.72598"/></text>
  <text opacity=".8" xml:space="preserve" y="-1308.6111" x="403.87616"><tspan y="-1308.6111" x="403.87616"/></text>
  <text opacity=".8" xml:space="preserve" y="-1349.3529" x="427.83707"><tspan y="-1349.3529" x="427.83707"/></text>
  <text opacity=".8" xml:space="preserve" y="-1356.5627" x="-1063.6261"><tspan y="-1356.5627" x="-1063.6261"/></text>
  <text opacity=".8" xml:space="preserve" y="-1629.7969" x="396.91666"><tspan y="-1629.7969" x="396.91666"/></text>
  <text opacity=".8" xml:space="preserve" y="-1003.1056" x="1883.04"><tspan y="-1003.1056" x="1883.04"/></text>
  <text opacity=".8" xml:space="preserve" y="-1043.8473" x="1907.0009"><tspan y="-1043.8473" x="1907.0009"/></text>
  <text opacity=".8" xml:space="preserve" y="-1051.0571" x="415.53781"><tspan y="-1051.0571" x="415.53781"/></text>
  <text opacity=".8" xml:space="preserve" y="-1324.2913" x="1876.0806"><tspan y="-1324.2913" x="1876.0806"/></text>
  <text opacity=".8" xml:space="preserve" y="-1099.1484" x="-522.2785"><tspan y="-1099.1484" x="-522.2785"/></text>
  <text opacity=".8" xml:space="preserve" y="-353.59497" x="-2345.9644"><tspan y="-353.59497" x="-2345.9644"/></text>
  <text opacity=".8" xml:space="preserve" y="-260.72281" x="-631.20874"><tspan y="-260.72281" x="-631.20874"/></text>
  <text opacity=".8" xml:space="preserve" y="-19.808649" x="208.80579"><tspan y="-19.808649" x="208.80579"/></text>
  <text opacity=".8" xml:space="preserve" y="-60.550369" x="232.76672"><tspan y="-60.550369" x="232.76672"/></text>
  <text opacity=".8" xml:space="preserve" y="-254.57896" x="-1037.0499"><tspan y="-254.57896" x="-1037.0499"/></text>
  <text opacity=".8" xml:space="preserve" y="-668.04913" x="-229.44791"><tspan y="-668.04913" x="-229.44791"/></text>
  <text opacity=".8" xml:space="preserve" y="-708.79083" x="-205.48698"><tspan y="-708.79083" x="-205.48698"/></text>
  <text opacity=".8" xml:space="preserve" y="-716.00079" x="-1696.9501"><tspan y="-716.00079" x="-1696.9501"/></text>
  <text opacity=".8" xml:space="preserve" y="-989.2348" x="-236.40735"><tspan y="-989.2348" x="-236.40735"/></text>
  <text opacity=".8" xml:space="preserve" y="-362.54352" x="1249.7161"><tspan y="-362.54352" x="1249.7161"/></text>
  <text opacity=".8" xml:space="preserve" y="-403.28525" x="1273.6769"><tspan y="-403.28525" x="1273.6769"/></text>
  <text opacity=".8" xml:space="preserve" y="-410.49518" x="-217.78624"><tspan y="-410.49518" x="-217.78624"/></text>
  <text opacity=".8" xml:space="preserve" y="-683.72925" x="1242.7566"><tspan y="-683.72925" x="1242.7566"/></text>
  <text opacity=".8" xml:space="preserve" y="-458.58646" x="-1155.6025"><tspan y="-458.58646" x="-1155.6025"/></text>
  <text opacity=".8" xml:space="preserve" y="286.96707" x="-2979.2883"><tspan y="286.96707" x="-2979.2883"/></text>
 </g>
 <g transform="matrix(.90475 0 0 .90475 -663.53 -669.14)">
  <text opacity=".8" xml:space="preserve" font-size="14px" y="1159.4154" x="-664.2738" font-family="Bitstream Vera Sans" fill="#000000"><tspan y="1159.4154" x="-664.2738"/></text>
 </g>
 <g font-size="12.666px" fill="#000000">
  <text xml:space="preserve" y="-361.31583" x="489.11777" font-family="Droid Sans"><tspan y="-361.31583" x="489.11777"/><tspan y="-345.48276" x="489.11777"/></text>
  <g font-family="Bitstream Vera Sans">
   <text opacity=".8" xml:space="preserve" y="-843.36035" x="954.3017"><tspan y="-843.36035" x="954.3017"/></text>
   <text opacity=".8" xml:space="preserve" y="-97.806908" x="-869.38428"><tspan y="-97.806908" x="-869.38428"/></text>
   <text opacity=".8" xml:space="preserve" y="-1128.3562" x="1681.3812"><tspan y="-1128.3562" x="1681.3812"/></text>
   <text opacity=".8" xml:space="preserve" y="-1169.0979" x="1705.342"><tspan y="-1169.0979" x="1705.342"/></text>
   <text opacity=".8" xml:space="preserve" y="-1176.3079" x="213.87891"><tspan y="-1176.3079" x="213.87891"/></text>
   <text opacity=".8" xml:space="preserve" y="-1449.542" x="1674.4218"><tspan y="-1449.542" x="1674.4218"/></text>
  </g>
 </g>
 <g fill-rule="evenodd">
  <path opacity=".2" d="m31 14-11 10-6-5-2 1v12l2 1 6-5 11 10 5-2v-20zm-1 7c0.0016 3.3246 0 6.7021 0 10l-6-5zm-16 2 3 3-3 3z" fill="#fff"/>
  <path d="m31 13-11 10-6-5-2 1v12l2 1 6-5 11 10 5-2v-20zm-1 7c0.0016 3.3246 0 6.7021 0 10l-6-5zm-16 2 3 3-3 3z" fill="url(#a)"/>
  <path opacity=".3" d="m31 13-11 10-6-5-2 1v1l2-1 6 5 11-10 5 2v-1l-5-2zm-14.5 12.5-2.5 2.5v1l3-3-0.5-0.5zm8.0996 0l-0.6 0.5 6 5c0-0.32979-0.000027-0.66875 0-1l-5.4004-4.5z" fill="#002d4a"/>
  <path opacity=".15" stroke-linejoin="round" d="m31 13-11 10-6-5-2 1v1l2-1 6 5 11-10 5 2v-1l-5-2zm-14.5 12.5-2.5 2.5v1l3-3-0.5-0.5zm8.0996 0l-0.6 0.5 6 5c0-0.32979-0.000027-0.66875 0-1l-5.4004-4.5z" clip-path="url(#i)" stroke="#002d4a" stroke-width="2" fill="#002d4a"/>
 </g>
</svg>
