<?xml version="1.0" encoding="UTF-8" standalone="no"?>
<!-- Created with Inkscape (http://www.inkscape.org/) -->

<svg
   xmlns:dc="http://purl.org/dc/elements/1.1/"
   xmlns:cc="http://creativecommons.org/ns#"
   xmlns:rdf="http://www.w3.org/1999/02/22-rdf-syntax-ns#"
   xmlns:svg="http://www.w3.org/2000/svg"
   xmlns="http://www.w3.org/2000/svg"
   xmlns:xlink="http://www.w3.org/1999/xlink"
   xmlns:sodipodi="http://sodipodi.sourceforge.net/DTD/sodipodi-0.dtd"
   xmlns:inkscape="http://www.inkscape.org/namespaces/inkscape"
   version="1.1"
   width="48"
   height="48"
   id="svg20096"
   inkscape:version="0.91 r"
   sodipodi:docname="system-file-manager.svg">
  <sodipodi:namedview
     pagecolor="#ffffff"
     bordercolor="#666666"
     borderopacity="1"
     objecttolerance="10"
     gridtolerance="10"
     guidetolerance="10"
     inkscape:pageopacity="0"
     inkscape:pageshadow="2"
     inkscape:window-width="1280"
     inkscape:window-height="745"
     id="namedview59"
     showgrid="true"
     inkscape:zoom="13.906433"
     inkscape:cx="19.78507"
     inkscape:cy="14.185601"
     inkscape:window-x="0"
     inkscape:window-y="30"
     inkscape:window-maximized="1"
     inkscape:current-layer="svg20096">
    <inkscape:grid
       type="xygrid"
       id="grid11253" />
  </sodipodi:namedview>
  <defs
     id="defs20098">
    <linearGradient
       x1="42.470848"
       y1="11.952797"
       x2="42.470848"
       y2="35.581654"
       id="linearGradient3381-56-2-7-5-0-8-0-0"
       xlink:href="#linearGradient3454-2-8-6-1-1-8-0-6"
       gradientUnits="userSpaceOnUse"
       gradientTransform="matrix(0.89189031,0,0,1.0580283,3.1206609,5.3536023)" />
    <linearGradient
       id="linearGradient3454-2-8-6-1-1-8-0-6">
      <stop
         id="stop3456-4-7-9-4-0-3-6-2"
         style="stop-color:#ffffff;stop-opacity:1"
         offset="0" />
      <stop
         id="stop3458-39-0-8-61-3-8-9-0"
         style="stop-color:#ffffff;stop-opacity:0.23529412"
         offset="0.0097359" />
      <stop
         id="stop3460-7-5-4-1-6-6-6-2"
         style="stop-color:#ffffff;stop-opacity:0.15686275"
         offset="0.99001008" />
      <stop
         id="stop3462-0-5-6-6-2-1-6-0"
         style="stop-color:#ffffff;stop-opacity:0.39215687"
         offset="1" />
    </linearGradient>
    <linearGradient
       x1="22.934725"
       y1="49.629246"
       x2="22.809399"
       y2="36.657963"
       id="linearGradient3072-0-3-0-7-4-8-7"
       xlink:href="#linearGradient6129-963-697-142-998-580-273-0-8-4-9-0-0-0"
       gradientUnits="userSpaceOnUse"
       gradientTransform="matrix(1.1446925,0,0,0.9977536,-3.4660851,1.0988289)" />
    <linearGradient
       id="linearGradient6129-963-697-142-998-580-273-0-8-4-9-0-0-0">
      <stop
         id="stop2661-3-02-4-8-0-4-3"
         style="stop-color:#0a0a0a;stop-opacity:0.498"
         offset="0" />
      <stop
         id="stop2663-2-8-06-2-4-6-4"
         style="stop-color:#0a0a0a;stop-opacity:0"
         offset="1" />
    </linearGradient>
    <linearGradient
       x1="35.792694"
       y1="17.118193"
       x2="35.792694"
       y2="43.761127"
       id="linearGradient4638-4-6-8-9-9-5-8"
       xlink:href="#linearGradient4632-0-6-4"
       gradientUnits="userSpaceOnUse"
       gradientTransform="matrix(1,0,0,1.0357143,1.4880025e-5,-1.5891011)" />
    <linearGradient
       id="linearGradient4632-0-6-4">
      <stop
         id="stop4634-4-4-7"
         style="stop-color:#e9e9e9;stop-opacity:1"
         offset="0" />
      <stop
         id="stop4636-3-1-5"
         style="stop-color:#b4b4b4;stop-opacity:1"
         offset="1" />
    </linearGradient>
    <radialGradient
       cx="605.71429"
       cy="486.64789"
       r="117.14286"
       fx="605.71429"
       fy="486.64789"
       id="radialGradient3080-2-3-9-9-8-8-9"
       xlink:href="#linearGradient5060-820-9-0-7-1-7-7-1"
       gradientUnits="userSpaceOnUse"
       gradientTransform="matrix(-0.03079083,0,0,0.02470588,23.389815,31.941629)" />
    <linearGradient
       id="linearGradient5060-820-9-0-7-1-7-7-1">
      <stop
         id="stop2681-5-4-3-6-3-8-2"
         style="stop-color:#000000;stop-opacity:1"
         offset="0" />
      <stop
         id="stop2683-8-6-9-4-6-6-2"
         style="stop-color:#000000;stop-opacity:0"
         offset="1" />
    </linearGradient>
    <radialGradient
       cx="605.71429"
       cy="486.64789"
       r="117.14286"
       fx="605.71429"
       fy="486.64789"
       id="radialGradient3083-4-5-6-4-5-0-5"
       xlink:href="#linearGradient5060-179-2-0-3-6-2-2-8"
       gradientUnits="userSpaceOnUse"
       gradientTransform="matrix(0.03079083,0,0,0.02470588,24.610215,31.941629)" />
    <linearGradient
       id="linearGradient5060-179-2-0-3-6-2-2-8">
      <stop
         id="stop2675-9-9-4-1-4-4-9"
         style="stop-color:#000000;stop-opacity:1"
         offset="0" />
      <stop
         id="stop2677-1-7-2-6-1-8-3"
         style="stop-color:#000000;stop-opacity:0"
         offset="1" />
    </linearGradient>
    <linearGradient
       x1="302.85715"
       y1="366.64789"
       x2="302.85715"
       y2="609.50507"
       id="linearGradient3086-4-4-0-5-5-7-4"
       xlink:href="#linearGradient5048-585-4-0-56-2-5-2-1"
       gradientUnits="userSpaceOnUse"
       gradientTransform="matrix(0.07938856,0,0,0.02470588,-4.6932851,31.941629)" />
    <linearGradient
       id="linearGradient5048-585-4-0-56-2-5-2-1">
      <stop
         id="stop2667-5-0-7-4-7-7-2"
         style="stop-color:#000000;stop-opacity:0"
         offset="0" />
      <stop
         id="stop2669-4-1-8-0-6-9-3"
         style="stop-color:#000000;stop-opacity:1"
         offset="0.5" />
      <stop
         id="stop2671-2-6-3-2-0-6-0"
         style="stop-color:#000000;stop-opacity:0"
         offset="1" />
    </linearGradient>
    <linearGradient
       x1="21.37039"
       y1="4.2476678"
       x2="21.37039"
       y2="34.143417"
       id="linearGradient3381-5-5-29-4-6-5-0-4"
       xlink:href="#linearGradient4507-9-2-2-3-6-9-9"
       gradientUnits="userSpaceOnUse"
       gradientTransform="matrix(0.89189031,0,0,1.0580283,3.1207247,5.3535889)" />
    <linearGradient
       id="linearGradient4507-9-2-2-3-6-9-9">
      <stop
         id="stop4509-9-8-4-2-3-4-5"
         style="stop-color:#ffffff;stop-opacity:1"
         offset="0" />
      <stop
         id="stop4511-7-50-2-1-3-9-4"
         style="stop-color:#ffffff;stop-opacity:0.23529412"
         offset="0.07395859" />
      <stop
         id="stop4513-2-0-2-9-2-6-2"
         style="stop-color:#ffffff;stop-opacity:0.15686275"
         offset="0.99001008" />
      <stop
         id="stop4515-3-9-8-6-6-0-7"
         style="stop-color:#ffffff;stop-opacity:0.39215687"
         offset="1" />
    </linearGradient>
    <linearGradient
       x1="62.988873"
       y1="13"
       x2="62.988873"
       y2="16"
       id="linearGradient3089-5-2-9-8-6-8-0-7-1"
       xlink:href="#linearGradient4646-6-91-5-0-5-8-4"
       gradientUnits="userSpaceOnUse"
       gradientTransform="translate(-50.940885,-1.1095734e-5)" />
    <linearGradient
       id="linearGradient4646-6-91-5-0-5-8-4">
      <stop
         id="stop4648-2-4-6-6-8-7-1"
         style="stop-color:#f9f9f9;stop-opacity:1"
         offset="0" />
      <stop
         id="stop4650-3-8-5-3-4-5-7"
         style="stop-color:#d8d8d8;stop-opacity:1"
         offset="1" />
    </linearGradient>
    <linearGradient
       id="linearGradient3104-8-8-97-4-6-2-0-1-4-0-5-8">
      <stop
         id="stop3106-5-4-3-5-0-1-61-9-2-7-3-3"
         style="stop-color:#000000;stop-opacity:0.32173914"
         offset="0" />
      <stop
         id="stop3108-4-3-7-8-2-4-01-9-9-0-6-4"
         style="stop-color:#000000;stop-opacity:0.27826086"
         offset="1" />
    </linearGradient>
    <linearGradient
       x1="-51.786404"
       y1="53.514328"
       x2="-51.786404"
       y2="3.6336823"
       id="linearGradient20094"
       xlink:href="#linearGradient3104-8-8-97-4-6-2-0-1-4-0-5-8"
       gradientUnits="userSpaceOnUse"
       gradientTransform="matrix(0.80749834,0,0,0.83374395,106.87671,-0.0698511)" />
  </defs>
  <metadata
     id="metadata20101">
    <rdf:RDF>
      <cc:Work
         rdf:about="">
        <dc:format>image/svg+xml</dc:format>
        <dc:type
           rdf:resource="http://purl.org/dc/dcmitype/StillImage" />
        <dc:title />
      </cc:Work>
    </rdf:RDF>
  </metadata>
  <g
     id="layer1">
    <path
       d="m 5.5000147,8.4999887 c -0.554,0 -1,0.446 -1,1 l 0,2.0000003 -1,0 c -0.554,0 -1,0.446 -1,1 l 0,6 c 0,0.554 0.446,1 1,1 l 40.9999903,0 c 0.554,0 1,-0.446 1,-1 l 0,-6 c 0,-0.554 -0.446,-1 -1,-1 l -22.99999,0 0,-2.0000003 c 0,-0.554 -0.446,-1 -1,-1 l -15.0000003,0 z"
       inkscape:connector-curvature="0"
       id="rect4251-0-0-1-1-9-5-2-3"
       style="opacity:0.8;color:#000000;fill:none;stroke:url(#linearGradient20094);stroke-width:1;stroke-linecap:butt;stroke-linejoin:miter;stroke-miterlimit:4;stroke-opacity:1;stroke-dasharray:none;stroke-dashoffset:0;marker:none;visibility:visible;display:inline;overflow:visible;enable-background:accumulate" />
    <path
       d="m 5.5000147,8.9999887 c -0.277,0 -0.5,0.223 -0.5,0.5 l 0,2.5000003 -1.5,0 c -0.277,0 -0.5,0.223 -0.5,0.5 l 0,6 c 0,0.277 0.223,0.5 0.5,0.5 l 40.9999903,0 c 0.277,0 0.5,-0.223 0.5,-0.5 l 0,-6 c 0,-0.277 -0.223,-0.5 -0.5,-0.5 l -23.49999,0 0,-2.5000003 c 0,-0.277 -0.223,-0.5 -0.5,-0.5 l -15.0000003,0 z"
       inkscape:connector-curvature="0"
       id="rect4251-4-7-62-4-4-9-2"
       style="color:#000000;fill:url(#linearGradient3089-5-2-9-8-6-8-0-7-1);fill-opacity:1;fill-rule:nonzero;stroke:none;stroke-width:0.99992168;marker:none;visibility:visible;display:inline;overflow:visible;enable-background:accumulate" />
    <path
       d="m 5.5000147,9.4999887 0,3.0000003 -2,0 0,7 40.9999903,0 0,-7 -23.99999,0 0,-3.0000003 -15.0000003,0 z"
       inkscape:connector-curvature="0"
       id="rect4251-9-9-0-05-2-0-5-9"
       style="color:#000000;fill:none;stroke:url(#linearGradient3381-5-5-29-4-6-5-0-4);stroke-width:1;stroke-linecap:round;stroke-linejoin:round;stroke-miterlimit:4;stroke-opacity:1;stroke-dasharray:none;stroke-dashoffset:0;marker:none;visibility:visible;display:inline;overflow:visible;enable-background:accumulate" />
    <rect
       width="38.333332"
       height="6.0000005"
       x="4.8333788"
       y="41"
       id="rect4173-6-7-7-3-5-1-4"
       style="opacity:0.3;fill:url(#linearGradient3086-4-4-0-5-5-7-4);fill-opacity:1;fill-rule:nonzero;stroke:none;stroke-width:1;marker:none;visibility:visible;display:inline;overflow:visible" />
    <path
       d="m 43.166705,41.000199 c 0,0 0,5.99967 0,5.99967 1.5856,0.0113 3.8333,-1.34422 3.8333,-3.00022 0,-1.656 -1.7695,-2.99945 -3.8333,-2.99945 z"
       inkscape:connector-curvature="0"
       id="path5058-7-9-1-3-0-3-4"
       style="opacity:0.3;fill:url(#radialGradient3083-4-5-6-4-5-0-5);fill-opacity:1;fill-rule:nonzero;stroke:none;stroke-width:1;marker:none;visibility:visible;display:inline;overflow:visible" />
    <path
       d="m 4.8333147,41.000199 c 0,0 0,5.99967 0,5.99967 -1.5856,0.0113 -3.8333,-1.34422 -3.8333,-3.00022 0,-1.656 1.7695,-2.99945 3.8333,-2.99945 z"
       inkscape:connector-curvature="0"
       id="path5018-8-1-1-6-9-4-9"
       style="opacity:0.3;fill:url(#radialGradient3080-2-3-9-9-8-8-9);fill-opacity:1;fill-rule:nonzero;stroke:none;stroke-width:1;marker:none;visibility:visible;display:inline;overflow:visible" />
    <path
       d="m 2.1626147,15.500179 c -1.0723,0.12829 -0.4996,1.45416 -0.5851,2.19974 0.1245,0.48182 0.9275,26.17643 0.9275,26.17643 0,0.7414 0.3517,0.61579 1.2429,0.61579 13.1886003,0 27.7726003,0 40.9610903,0 0.9601,0.0231 0.7572,0.0121 0.7572,-0.62748 0,0 0.993,-27.35421 1.0285,-27.7811 0,-0.44949 0.09,-0.58338 -0.4732,-0.58338 -14.08399,0 -29.77479,0 -43.8588903,0 z"
       inkscape:connector-curvature="0"
       id="path3388-1-43-0-7-6-2-7"
       style="fill:url(#linearGradient4638-4-6-8-9-9-5-8);fill-opacity:1;stroke:none" />
    <path
       d="m 2.0582147,16.065139 43.8964903,4e-4 c 0.6342,0 1.0452,0.44461 1.0452,0.99737 l -1.0324,26.96037 c 0.015,0.6994 -0.2091,0.97671 -0.9459,0.96204 l -41.7807903,-0.0176 c -0.6341,0 -1.2736,-0.41276 -1.2736,-0.96551 l -0.9541,-26.93932 c 0,-0.55276 0.411,-0.99775 1.0451,-0.99775 z"
       inkscape:connector-curvature="0"
       id="path6127-7-1-6-4-8-5-0"
       style="opacity:0.4;fill:url(#linearGradient3072-0-3-0-7-4-8-7);fill-opacity:1;stroke:none" />
    <path
       d="m 2.5,17.5 c 0.016793,0.176427 0.022163,0.517935 0.03125,0.875 0.023112,0.08641 0.025524,0.05923 0.03125,0.09375 0.011058,0.06665 0.027034,0.138257 0.03125,0.1875 0.0064,0.07474 -0.00668,0.173042 0,0.28125 0.013352,0.216416 0.045306,0.510844 0.0625,0.875 0.034388,0.728313 0.078083,1.708883 0.125,2.90625 0.093834,2.394734 0.2030642,5.55569 0.3125,8.6875 C 3.3060459,37.481691 3.4883163,43.143759 3.5,43.5 c 0.1225025,0.0036 0.071108,0 0.25,0 l 40.71875,0 c 0.0124,-0.328836 0.253182,-6.426721 0.5,-12.90625 0.126691,-3.325928 0.245386,-6.68527 0.34375,-9.21875 0.04918,-1.26674 0.09434,-2.331501 0.125,-3.09375 0.01322,-0.328618 0.02246,-0.572975 0.03125,-0.78125 L 2.5,17.5 z"
       inkscape:connector-curvature="0"
       transform="matrix(1,0,0,1.0383977,1.4880025e-5,-1.6703711)"
       id="path4587-4-6-3-0-1-2-6"
       style="opacity:0.5;color:#000000;fill:none;stroke:url(#linearGradient3381-56-2-7-5-0-8-0-0);stroke-width:0.98133707;stroke-linecap:round;stroke-linejoin:miter;stroke-miterlimit:4;stroke-opacity:1;stroke-dasharray:none;stroke-dashoffset:0;marker:none;visibility:visible;display:inline;overflow:visible;enable-background:accumulate" />
    <path
       d="m 2.1626147,15.500179 c -1.0723,0.12829 -0.4996,1.45416 -0.5851,2.19974 0.1245,0.48182 0.9275,26.17643 0.9275,26.17643 0,0.7414 0.3517,0.61579 1.2429,0.61579 13.1886003,0 27.7726003,0 40.9610903,0 0.9601,0.0231 0.7572,0.0121 0.7572,-0.62748 0,0 0.993,-27.35421 1.0285,-27.7811 0,-0.44949 0.09,-0.58338 -0.4732,-0.58338 -14.08399,0 -29.77479,0 -43.8588903,0 z"
       inkscape:connector-curvature="0"
       id="path3388-1-43-0-7-6-2-7-0"
       style="opacity:0.3;fill:none;stroke:#000000;stroke-width:1;stroke-linecap:round;stroke-linejoin:round;stroke-miterlimit:4;stroke-opacity:1;stroke-dashoffset:0" />
  </g>
  <path
     sodipodi:nodetypes="cccccccccccccccccccccccccccccccccccccccccccccccccccccccccccccccccccccccccccccccccccccccccccccccccccccsscsaaaaacccccccssscccccscscsc"
     inkscape:connector-curvature="0"
     id="path11324"
     d="m 30,26 c -0.172839,0.0017 -0.345526,0.01078 -0.517578,0.02734 -0.09008,0.009 -0.179949,0.0201 -0.269531,0.0332 -0.111111,0.01318 -0.221832,0.02946 -0.332032,0.04883 -0.07388,0.01554 -0.147461,0.03247 -0.220703,0.05078 -0.131287,0.02882 -0.261569,0.06204 -0.390625,0.09961 -0.04903,0.01565 -0.09787,0.03192 -0.146484,0.04883 -0.138499,0.04514 -0.275308,0.0953 -0.410156,0.15039 -0.0511,0.02208 -0.101882,0.04487 -0.152344,0.06836 -0.137844,0.06063 -0.273357,0.126435 -0.40625,0.197265 -0.03009,0.01667 -0.06004,0.0336 -0.08984,0.05078 -0.147557,0.08242 -0.291566,0.171043 -0.431641,0.265625 -0.02027,0.0142 -0.04045,0.02852 -0.06055,0.04297 -0.145975,0.101098 -0.28739,0.208625 -0.423828,0.322266 -0.01176,0.01037 -0.02348,0.02079 -0.03516,0.03125 -0.144078,0.122949 -0.282253,0.252652 -0.414062,0.388672 -0.139611,0.143677 -0.271938,0.294256 -0.396485,0.451172 -0.123948,0.156867 -0.239978,0.31983 -0.347656,0.488281 -0.0493,0.07703 -0.09684,0.155178 -0.142575,0.234379 l -0.002,0 c -0.528905,0.911466 -0.808464,1.946171 -0.8105,3 0.0026,1.054007 0.282865,2.088724 0.8125,3 0.100249,0.173305 0.209109,0.341484 0.326172,0.503906 0.11132,0.154649 0.229944,0.303906 0.355469,0.447266 0.01166,0.01307 0.02338,0.02609 0.03516,0.03906 0.120374,0.135207 0.246805,0.264897 0.378906,0.388672 0.0149,0.01375 0.02988,0.02742 0.04492,0.04102 0.127328,0.116324 0.259612,0.227104 0.396484,0.332031 0.02716,0.02107 0.05451,0.0419 0.08203,0.0625 0.133447,0.09876 0.270934,0.19194 0.412109,0.279297 0.02656,0.01714 0.05325,0.03406 0.08008,0.05078 0.135667,0.08031 0.274447,0.155235 0.416016,0.22461 0.05108,0.02547 0.102514,0.05021 0.154297,0.07422 0.119394,0.05474 0.240552,0.105553 0.363281,0.152344 0.06724,0.02661 0.134963,0.05201 0.203125,0.07617 0.121178,0.04101 0.243636,0.07814 0.367187,0.111328 0.07191,0.02023 0.144185,0.03911 0.216797,0.05664 0.118402,0.02705 0.237597,0.0505 0.357422,0.07031 0.07982,0.01399 0.159914,0.02636 0.240235,0.03711 0.109068,0.01342 0.218484,0.02384 0.328124,0.03125 C 29.713238,37.990812 29.85656,37.997978 30,38 c 0.164966,-10e-4 0.32982,-0.0088 0.494141,-0.02344 0.11889,-0.01078 0.237433,-0.02511 0.355468,-0.04297 0.08097,-0.01072 0.16172,-0.02309 0.242188,-0.03711 0.108719,-0.02109 0.216834,-0.04519 0.324219,-0.07227 0.08905,-0.02076 0.177616,-0.04355 0.265625,-0.06836 0.100464,-0.03058 0.200108,-0.0638 0.298828,-0.09961 0.09394,-0.03219 0.187069,-0.0667 0.279297,-0.103516 0.08548,-0.03515 0.170139,-0.07227 0.253906,-0.111328 0.09558,-0.04309 0.190013,-0.08868 0.283203,-0.136718 0.08849,-0.04793 0.175754,-0.09807 0.261719,-0.150391 0.08793,-0.05117 0.174549,-0.104577 0.259765,-0.160156 0.08214,-0.05528 0.162889,-0.112594 0.242188,-0.171875 0.07823,-0.05673 0.155073,-0.115341 0.230469,-0.175782 0.08125,-0.06755 0.160708,-0.137237 0.238281,-0.208984 0.07189,-0.06405 0.142218,-0.129828 0.210937,-0.197266 0.06744,-0.06872 0.133213,-0.139052 0.197266,-0.210937 0.07175,-0.07757 0.141433,-0.157028 0.208984,-0.238281 0.06044,-0.0754 0.119052,-0.152242 0.175782,-0.230469 0.05928,-0.0793 0.11659,-0.160053 0.171875,-0.242188 0.05558,-0.08522 0.108982,-0.171833 0.160156,-0.259765 0.05232,-0.08597 0.102463,-0.173232 0.150391,-0.261719 0.04804,-0.09319 0.09363,-0.187624 0.136718,-0.283203 0.03906,-0.08377 0.07618,-0.168424 0.111328,-0.253906 0.03681,-0.09223 0.07133,-0.185356 0.103516,-0.279297 0.03581,-0.09872 0.06903,-0.198364 0.09961,-0.298828 0.02481,-0.08801 0.0476,-0.176574 0.06836,-0.265625 0.02708,-0.107385 0.05117,-0.2155 0.07227,-0.324219 0.01402,-0.08047 0.02639,-0.161214 0.03711,-0.242188 0.01786,-0.118035 0.03218,-0.236578 0.04297,-0.355468 C 35.991165,32.32982 35.998984,32.164966 36,32 c -10e-4,-0.164966 -0.0088,-0.32982 -0.02344,-0.494141 -0.01078,-0.11889 -0.02511,-0.237433 -0.04297,-0.355468 -0.01072,-0.08097 -0.02309,-0.16172 -0.03711,-0.242188 -0.02109,-0.108719 -0.04519,-0.216834 -0.07227,-0.324219 -0.02076,-0.08905 -0.04355,-0.177616 -0.06836,-0.265625 -0.03058,-0.100464 -0.0638,-0.200108 -0.09961,-0.298828 -0.03219,-0.09394 -0.0667,-0.187069 -0.103516,-0.279297 -0.03515,-0.08548 -0.07227,-0.170139 -0.111328,-0.253906 -0.04309,-0.09558 -0.08868,-0.190013 -0.136718,-0.283203 -0.04793,-0.08849 -0.09807,-0.175754 -0.150391,-0.261719 -0.05117,-0.08793 -0.104577,-0.174549 -0.160156,-0.259765 -0.05528,-0.08213 -0.112594,-0.162889 -0.171875,-0.242188 -0.05673,-0.07823 -0.115341,-0.155073 -0.175782,-0.230469 -0.06755,-0.08125 -0.137237,-0.160708 -0.208984,-0.238281 -0.06405,-0.07189 -0.129828,-0.142218 -0.197266,-0.210937 -0.06872,-0.06744 -0.139052,-0.133213 -0.210937,-0.197266 -0.07757,-0.07175 -0.157028,-0.141433 -0.238281,-0.208984 -0.0754,-0.06044 -0.152242,-0.119052 -0.230469,-0.175782 -0.0793,-0.05928 -0.160053,-0.11659 -0.242188,-0.171875 -0.08522,-0.05558 -0.171833,-0.108982 -0.259765,-0.160156 -0.08597,-0.05232 -0.173232,-0.102463 -0.261719,-0.150391 -0.09319,-0.04804 -0.187624,-0.09363 -0.283203,-0.136718 -0.08377,-0.03906 -0.168424,-0.07618 -0.253906,-0.111328 -0.09223,-0.03681 -0.185356,-0.07133 -0.279297,-0.103516 -0.09872,-0.03581 -0.198364,-0.06903 -0.298828,-0.09961 -0.08801,-0.02481 -0.176574,-0.0476 -0.265625,-0.06836 -0.107385,-0.02708 -0.2155,-0.05117 -0.324219,-0.07227 C 31.011317,26.08949 30.930573,26.07712 30.849599,26.0664 30.731564,26.04854 30.613021,26.03421 30.494131,26.02343 30.32982,26.008835 30.164966,26.001016 30,26 Z m -16,3 c -1.108,0 -2,0.892 -2,2 l 0,1 0,1 c 0,0.321958 1.128958,1.639203 2,2 0.30796,0.127561 0.69204,0.127561 1,0 0.871042,-0.360797 1.057191,-2 2,-2 0.942809,0 1.128958,1.639203 2,2 0.30796,0.127561 0.69204,0.127561 1,0 0.871042,-0.360797 1.568545,-2.40349 2,-2 l 0,2 1,0 0.685547,0 C 23.23733,34.063232 23.003156,33.038472 23,32 l -0.5,0 -1,0 -7,0 C 14.223,32 14,31.777 14,31.5 14,31.223 14.223,31 14.5,31 l 7,0 1,0 0.582031,0 c 0.09938,-0.692998 0.302158,-1.367166 0.601563,-2 L 18,29 Z m 16.761719,0 C 31.997727,28.999264 33,30.342626 33,32 c 0,1.657374 -1.002273,3.000736 -2.238281,3 -1.235245,-7.11e-4 -2.236328,-1.343648 -2.236328,-3 0,-1.656352 1.001083,-2.999289 2.236328,-3 z"
     style="opacity:0.3;fill:#ffffff;fill-opacity:1;stroke:none;stroke-width:2;stroke-linecap:round;stroke-linejoin:round;stroke-miterlimit:4;stroke-dasharray:none;stroke-opacity:1" />
  <path
     style="opacity:1;fill:#6c6c6c;fill-opacity:0.55294118;stroke:none;stroke-width:2;stroke-linecap:round;stroke-linejoin:round;stroke-miterlimit:4;stroke-dasharray:none;stroke-opacity:1"
     d="m 30,25 c -0.172839,0.0017 -0.345526,0.01078 -0.517578,0.02734 -0.09008,0.009 -0.179949,0.0201 -0.269531,0.0332 -0.111111,0.01318 -0.221832,0.02946 -0.332032,0.04883 -0.07388,0.01554 -0.147461,0.03247 -0.220703,0.05078 -0.131287,0.02882 -0.261569,0.06204 -0.390625,0.09961 -0.04903,0.01565 -0.09787,0.03192 -0.146484,0.04883 -0.138499,0.04514 -0.275308,0.0953 -0.410156,0.15039 -0.0511,0.02208 -0.101882,0.04487 -0.152344,0.06836 -0.137844,0.06063 -0.273357,0.126435 -0.40625,0.197265 -0.03009,0.01667 -0.06004,0.0336 -0.08984,0.05078 -0.147557,0.08242 -0.291566,0.171043 -0.431641,0.265625 -0.02027,0.0142 -0.04045,0.02852 -0.06055,0.04297 -0.145975,0.101098 -0.28739,0.208625 -0.423828,0.322266 -0.01176,0.01037 -0.02348,0.02079 -0.03516,0.03125 -0.144078,0.122949 -0.282253,0.252652 -0.414062,0.388672 -0.139611,0.143677 -0.271938,0.294256 -0.396485,0.451172 -0.123948,0.156867 -0.239978,0.31983 -0.347656,0.488281 -0.0493,0.07703 -0.09684,0.155178 -0.142575,0.234379 l -0.002,0 c -0.528905,0.911466 -0.808464,1.946171 -0.8105,3 0.0026,1.054007 0.282865,2.088724 0.8125,3 0.100249,0.173305 0.209109,0.341484 0.326172,0.503906 0.11132,0.154649 0.229944,0.303906 0.355469,0.447266 0.01166,0.01307 0.02338,0.02609 0.03516,0.03906 0.120374,0.135207 0.246805,0.264897 0.378906,0.388672 0.0149,0.01375 0.02988,0.02742 0.04492,0.04102 0.127328,0.116324 0.259612,0.227104 0.396484,0.332031 0.02716,0.02107 0.05451,0.0419 0.08203,0.0625 0.133447,0.09876 0.270934,0.19194 0.412109,0.279297 0.02656,0.01714 0.05325,0.03406 0.08008,0.05078 0.135667,0.08031 0.274447,0.155235 0.416016,0.22461 0.05108,0.02547 0.102514,0.05021 0.154297,0.07422 0.119394,0.05474 0.240552,0.105553 0.363281,0.152344 0.06724,0.02661 0.134963,0.05201 0.203125,0.07617 0.121178,0.04101 0.243636,0.07814 0.367187,0.111328 0.07191,0.02023 0.144185,0.03911 0.216797,0.05664 0.118402,0.02705 0.237597,0.0505 0.357422,0.07031 0.07982,0.01399 0.159914,0.02636 0.240235,0.03711 0.109068,0.01342 0.218484,0.02384 0.328124,0.03125 C 29.713238,36.990812 29.85656,36.997978 30,37 c 0.164966,-10e-4 0.32982,-0.0088 0.494141,-0.02344 0.11889,-0.01078 0.237433,-0.02511 0.355468,-0.04297 0.08097,-0.01072 0.16172,-0.02309 0.242188,-0.03711 0.108719,-0.02109 0.216834,-0.04519 0.324219,-0.07227 0.08905,-0.02076 0.177616,-0.04355 0.265625,-0.06836 0.100464,-0.03058 0.200108,-0.0638 0.298828,-0.09961 0.09394,-0.03219 0.187069,-0.0667 0.279297,-0.103516 0.08548,-0.03515 0.170139,-0.07227 0.253906,-0.111328 0.09558,-0.04309 0.190013,-0.08868 0.283203,-0.136718 0.08849,-0.04793 0.175754,-0.09807 0.261719,-0.150391 0.08793,-0.05117 0.174549,-0.104577 0.259765,-0.160156 0.08214,-0.05528 0.162889,-0.112594 0.242188,-0.171875 0.07823,-0.05673 0.155073,-0.115341 0.230469,-0.175782 0.08125,-0.06755 0.160708,-0.137237 0.238281,-0.208984 0.07189,-0.06405 0.142218,-0.129828 0.210937,-0.197266 0.06744,-0.06872 0.133213,-0.139052 0.197266,-0.210937 0.07175,-0.07757 0.141433,-0.157028 0.208984,-0.238281 0.06044,-0.0754 0.119052,-0.152242 0.175782,-0.230469 0.05928,-0.0793 0.11659,-0.160053 0.171875,-0.242188 0.05558,-0.08522 0.108982,-0.171833 0.160156,-0.259765 0.05232,-0.08597 0.102463,-0.173232 0.150391,-0.261719 0.04804,-0.09319 0.09363,-0.187624 0.136718,-0.283203 0.03906,-0.08377 0.07618,-0.168424 0.111328,-0.253906 0.03681,-0.09223 0.07133,-0.185356 0.103516,-0.279297 0.03581,-0.09872 0.06903,-0.198364 0.09961,-0.298828 0.02481,-0.08801 0.0476,-0.176574 0.06836,-0.265625 0.02708,-0.107385 0.05117,-0.2155 0.07227,-0.324219 0.01402,-0.08047 0.02639,-0.161214 0.03711,-0.242188 0.01786,-0.118035 0.03218,-0.236578 0.04297,-0.355468 C 35.991165,31.32982 35.998984,31.164966 36,31 c -10e-4,-0.164966 -0.0088,-0.32982 -0.02344,-0.494141 -0.01078,-0.11889 -0.02511,-0.237433 -0.04297,-0.355468 -0.01072,-0.08097 -0.02309,-0.16172 -0.03711,-0.242188 -0.02109,-0.108719 -0.04519,-0.216834 -0.07227,-0.324219 -0.02076,-0.08905 -0.04355,-0.177616 -0.06836,-0.265625 -0.03058,-0.100464 -0.0638,-0.200108 -0.09961,-0.298828 -0.03219,-0.09394 -0.0667,-0.187069 -0.103516,-0.279297 -0.03515,-0.08548 -0.07227,-0.170139 -0.111328,-0.253906 -0.04309,-0.09558 -0.08868,-0.190013 -0.136718,-0.283203 -0.04793,-0.08849 -0.09807,-0.175754 -0.150391,-0.261719 -0.05117,-0.08793 -0.104577,-0.174549 -0.160156,-0.259765 -0.05528,-0.08213 -0.112594,-0.162889 -0.171875,-0.242188 -0.05673,-0.07823 -0.115341,-0.155073 -0.175782,-0.230469 -0.06755,-0.08125 -0.137237,-0.160708 -0.208984,-0.238281 -0.06405,-0.07189 -0.129828,-0.142218 -0.197266,-0.210937 -0.06872,-0.06744 -0.139052,-0.133213 -0.210937,-0.197266 -0.07757,-0.07175 -0.157028,-0.141433 -0.238281,-0.208984 -0.0754,-0.06044 -0.152242,-0.119052 -0.230469,-0.175782 -0.0793,-0.05928 -0.160053,-0.11659 -0.242188,-0.171875 -0.08522,-0.05558 -0.171833,-0.108982 -0.259765,-0.160156 -0.08597,-0.05232 -0.173232,-0.102463 -0.261719,-0.150391 -0.09319,-0.04804 -0.187624,-0.09363 -0.283203,-0.136718 -0.08377,-0.03906 -0.168424,-0.07618 -0.253906,-0.111328 -0.09223,-0.03681 -0.185356,-0.07133 -0.279297,-0.103516 -0.09872,-0.03581 -0.198364,-0.06903 -0.298828,-0.09961 -0.08801,-0.02481 -0.176574,-0.0476 -0.265625,-0.06836 -0.107385,-0.02708 -0.2155,-0.05117 -0.324219,-0.07227 C 31.011317,25.08949 30.930573,25.07712 30.849599,25.0664 30.731564,25.04854 30.613021,25.03421 30.494131,25.02343 30.32982,25.008835 30.164966,25.001016 30,25 Z m -16,3 c -1.108,0 -2,0.892 -2,2 l 0,1 0,1 c 0,0.321958 1.128958,1.639203 2,2 0.30796,0.127561 0.69204,0.127561 1,0 0.871042,-0.360797 1.057191,-2 2,-2 0.942809,0 1.128958,1.639203 2,2 0.30796,0.127561 0.69204,0.127561 1,0 0.871042,-0.360797 1.568545,-2.40349 2,-2 l 0,2 1,0 0.685547,0 C 23.23733,33.063232 23.003156,32.038472 23,31 l -0.5,0 -1,0 -7,0 C 14.223,31 14,30.777 14,30.5 14,30.223 14.223,30 14.5,30 l 7,0 1,0 0.582031,0 c 0.09938,-0.692998 0.302158,-1.367166 0.601563,-2 L 18,28 Z m 16.761719,0 C 31.997727,27.999264 33,29.342626 33,31 c 0,1.657374 -1.002273,3.000736 -2.238281,3 -1.235245,-7.11e-4 -2.236328,-1.343648 -2.236328,-3 0,-1.656352 1.001083,-2.999289 2.236328,-3 z"
     id="path11273"
     inkscape:connector-curvature="0"
     sodipodi:nodetypes="cccccccccccccccccccccccccccccccccccccccccccccccccccccccccccccccccccccccccccccccccccccccccccccccccccccsscsaaaaacccccccssscccccscscsc" />
</svg>
