<?xml version="1.0" encoding="UTF-8" standalone="no"?>
<svg
   xmlns:dc="http://purl.org/dc/elements/1.1/"
   xmlns:cc="http://creativecommons.org/ns#"
   xmlns:rdf="http://www.w3.org/1999/02/22-rdf-syntax-ns#"
   xmlns:svg="http://www.w3.org/2000/svg"
   xmlns="http://www.w3.org/2000/svg"
   xmlns:xlink="http://www.w3.org/1999/xlink"
   version="1.1"
   id="svg4079"
   height="48"
   width="48">
  <defs
     id="defs4081">
    <linearGradient
       id="linearGradient4029-0">
      <stop
         id="stop4031-7"
         offset="0"
         style="stop-color:#87accd;stop-opacity:1;" />
      <stop
         style="stop-color:#6b96c1;stop-opacity:1;"
         offset="0.28728491"
         id="stop4062-3-8" />
      <stop
         style="stop-color:#477ba9;stop-opacity:1;"
         offset="0.59072286"
         id="stop4060-0-2" />
      <stop
         id="stop4033-0"
         offset="1"
         style="stop-color:#325978;stop-opacity:1;" />
    </linearGradient>
    <radialGradient
       xlink:href="#linearGradient4029-0"
       id="radialGradient4058-9-2-8-0-2-9"
       cx="47.917099"
       cy="37.30619"
       fx="47.917099"
       fy="37.30619"
       r="53.035713"
       gradientUnits="userSpaceOnUse"
       gradientTransform="matrix(-0.17705565,0.19383925,-0.19595647,-0.17898941,224.65166,346.40373)" />
    <radialGradient
       xlink:href="#linearGradient4516"
       id="radialGradient4640"
       cx="8.0625"
       cy="5"
       fx="8"
       fy="0.37499985"
       r="8"
       gradientUnits="userSpaceOnUse"
       gradientTransform="matrix(2.7499983,0,0,2.7499967,186.85715,333.21938)" />
    <linearGradient
       id="linearGradient4516">
      <stop
         style="stop-color:#ffffff;stop-opacity:1"
         offset="0"
         id="stop4518" />
      <stop
         style="stop-color:#ffffff;stop-opacity:0"
         offset="1"
         id="stop4520" />
    </linearGradient>
    <linearGradient
       xlink:href="#linearGradient4516"
       id="linearGradient4522"
       x1="-323.86255"
       y1="112.66688"
       x2="-309.86035"
       y2="112.66688"
       gradientUnits="userSpaceOnUse"
       gradientTransform="matrix(3.1533123,0,0,3.1533125,1354.3824,-564.13107)" />
    <radialGradient
       r="62.769001"
       gradientTransform="matrix(0.27083,0,0,0.087623,136.00205,357.40633)"
       cx="99.156998"
       cy="186.17"
       gradientUnits="userSpaceOnUse"
       id="a">
      <stop
         id="stop25-4"
         offset="0"
         stop-color="#3d3d3d" />
      <stop
         id="stop27"
         offset=".5"
         stop-opacity=".49804"
         stop-color="#686868" />
      <stop
         id="stop29"
         offset="1"
         stop-opacity="0"
         stop-color="#686868" />
    </radialGradient>
  </defs>
  <metadata
     id="metadata4084">
    <rdf:RDF>
      <cc:Work
         rdf:about="">
        <dc:format>image/svg+xml</dc:format>
        <dc:type
           rdf:resource="http://purl.org/dc/dcmitype/StillImage" />
        <dc:title></dc:title>
      </cc:Work>
    </rdf:RDF>
  </metadata>
  <g
     transform="translate(-138.85715,-331.21933)"
     id="layer1">
    <path
       id="path41"
       d="m 179.85715,373.71933 a 17,5.5 0 0 1 -34,0 17,5.5 0 1 1 34,0 z"
       style="fill:url(#a)" />
    <g
       transform="translate(-45.999907,-7.806218e-5)"
       id="g4244">
      <ellipse
         cy="355.21933"
         cx="208.85715"
         style="color:#000000;display:inline;overflow:visible;visibility:visible;fill:url(#radialGradient4058-9-2-8-0-2-9);fill-opacity:1;fill-rule:nonzero;stroke:none;stroke-width:1.00000036;stroke-miterlimit:4;stroke-dasharray:none;stroke-opacity:1;marker:none;enable-background:accumulate"
         id="path3094-9-1-9-7-8-0-2"
         rx="7"
         ry="6.9999962" />
      <path
         style="opacity:1;fill:#dc242a;fill-opacity:1;stroke:none;stroke-width:1;stroke-linecap:square;stroke-linejoin:miter;stroke-miterlimit:4;stroke-dasharray:none;stroke-opacity:1"
         d="m 201.7133,359.35523 a 8.2496435,8.2502097 0 0 1 3.01958,-11.27001 8.2496435,8.2502097 0 0 1 4.12344,-1.09697 l 0.002,-0.008 20.37843,-8.4e-4 a 21.999049,22.00056 0 0 0 -9.38054,-10.80227 21.999049,22.00056 0 0 0 -21.99795,-6.4e-4 21.999049,22.00056 0 0 0 -6.33337,5.52989 l 10.18851,17.64826 z"
         id="path4226-0" />
      <path
         style="opacity:0.2;fill:url(#radialGradient4640);fill-opacity:1;stroke:none;stroke-width:1;stroke-linecap:square;stroke-linejoin:miter;stroke-miterlimit:4;stroke-dasharray:none;stroke-opacity:0"
         d="m 208.85714,333.21938 a 21.999987,21.999974 0 0 0 -21.99999,21.99998 21.999987,21.999974 0 0 0 21.99999,21.99997 21.999987,21.999974 0 0 0 21.99998,-21.99997 21.999987,21.999974 0 0 0 -21.99998,-21.99998 z m 0,13.74999 a 8.249995,8.2499901 0 0 1 8.24999,8.24999 8.249995,8.2499901 0 0 1 -8.24999,8.24999 8.249995,8.2499901 0 0 1 -8.25,-8.24999 8.249995,8.2499901 0 0 1 8.25,-8.24999 z"
         id="path4607" />
      <g
         id="g4362"
         transform="matrix(2.7498812,0,0,2.7500699,-495.12088,-244.49538)">
        <path
           id="path4226"
           transform="translate(232.00327,210.07646)"
           d="m 24,5 a 3,3 0 0 1 3,3 3,3 0 0 1 -0.404297,1.4980469 l 0.002,0.00195 -3.705078,6.4179691 A 8,8 0 0 0 28,14.927734 8,8 0 0 0 32,8 8,8 0 0 0 31.410156,5 L 24,5 Z"
           style="opacity:1;fill:#eed025;fill-opacity:1;stroke:none;stroke-width:1;stroke-linecap:square;stroke-linejoin:miter;stroke-miterlimit:4;stroke-dasharray:none;stroke-opacity:1" />
      </g>
      <path
         style="opacity:1;fill:#32b53b;fill-opacity:1;stroke:none;stroke-width:1;stroke-linecap:square;stroke-linejoin:miter;stroke-miterlimit:4;stroke-dasharray:none;stroke-opacity:1"
         d="m 216.00263,359.35499 a 8.2503762,8.2509189 0 0 1 -11.27019,3.02004 8.2503762,8.2509189 0 0 1 -3.01192,-3.02302 l -0.008,0.002 -10.19083,-17.6506 a 22.002498,22.000957 88.986943 0 0 -4.66452,13.52665 22.002498,22.000957 88.986943 0 0 10.99939,19.05409 22.002498,22.000957 88.986943 0 0 7.9561,2.72058 l 10.18937,-17.6498 z"
         id="path4226-0-4" />
      <ellipse
         style="opacity:0.2;fill:none;fill-opacity:1;stroke:#000000;stroke-width:1;stroke-linecap:square;stroke-linejoin:miter;stroke-miterlimit:4;stroke-dasharray:none;stroke-opacity:1"
         id="path4360-6"
         cx="-412.05759"
         cy="3.2653303"
         transform="matrix(-0.50000118,-0.86602472,0.86602609,-0.49999882,0,0)"
         rx="21.498796"
         ry="21.498833" />
      <ellipse
         style="opacity:0.2;fill:none;fill-opacity:1;stroke:#000000;stroke-width:1;stroke-linecap:square;stroke-linejoin:miter;stroke-miterlimit:4;stroke-dasharray:none;stroke-opacity:1"
         id="path4360-6-4"
         cx="-412.05756"
         cy="3.2649209"
         transform="matrix(-0.50000205,-0.86602422,0.8660266,-0.49999793,0,0)"
         rx="9.0008125"
         ry="9.0008383" />
      <circle
         style="opacity:0.3;fill:none;fill-opacity:1;stroke:url(#linearGradient4522);stroke-width:0.99999994;stroke-linecap:square;stroke-linejoin:miter;stroke-miterlimit:4;stroke-dasharray:none;stroke-opacity:1"
         id="path4360-6-43"
         cx="355.21933"
         cy="-208.85715"
         transform="matrix(0,1,-1,0,0,0)"
         r="20.5" />
    </g>
  </g>
</svg>
