<?xml version="1.0" encoding="UTF-8" standalone="no"?>
<!-- Created with Inkscape (http://www.inkscape.org/) -->

<svg
   xmlns:dc="http://purl.org/dc/elements/1.1/"
   xmlns:cc="http://creativecommons.org/ns#"
   xmlns:rdf="http://www.w3.org/1999/02/22-rdf-syntax-ns#"
   xmlns:svg="http://www.w3.org/2000/svg"
   xmlns="http://www.w3.org/2000/svg"
   xmlns:xlink="http://www.w3.org/1999/xlink"
   xmlns:sodipodi="http://sodipodi.sourceforge.net/DTD/sodipodi-0.dtd"
   xmlns:inkscape="http://www.inkscape.org/namespaces/inkscape"
   version="1.1"
   width="48"
   height="48"
   id="svg3489"
   inkscape:version="0.91 r13725"
   sodipodi:docname="half-life2.svg">
  <sodipodi:namedview
     pagecolor="#ffffff"
     bordercolor="#666666"
     borderopacity="1"
     objecttolerance="10"
     gridtolerance="10"
     guidetolerance="10"
     inkscape:pageopacity="0"
     inkscape:pageshadow="2"
     inkscape:window-width="1366"
     inkscape:window-height="745"
     id="namedview154"
     showgrid="true"
     inkscape:zoom="11.313708"
     inkscape:cx="2.327508"
     inkscape:cy="25.694773"
     inkscape:window-x="1672"
     inkscape:window-y="274"
     inkscape:window-maximized="1"
     inkscape:current-layer="svg3489" />
  <defs
     id="defs3491">
    <linearGradient
       id="linearGradient4806">
      <stop
         id="stop4808"
         style="stop-color:#ffffff;stop-opacity:1"
         offset="0" />
      <stop
         id="stop4810"
         style="stop-color:#ffffff;stop-opacity:0.23529412"
         offset="0.42447853" />
      <stop
         id="stop4812"
         style="stop-color:#ffffff;stop-opacity:0.15686275"
         offset="0.82089913" />
      <stop
         id="stop4814"
         style="stop-color:#ffffff;stop-opacity:0.39215687"
         offset="1" />
    </linearGradient>
    <radialGradient
       cx="23.896"
       cy="3.99"
       r="20.396999"
       id="radialGradient3093-0-3-6"
       gradientUnits="userSpaceOnUse"
       gradientTransform="matrix(0,1.2316483,-1.625754,0,18.486966,-28.721977)">
      <stop
         id="stop3244-9-33-7-0"
         style="stop-color:#ff9c44;stop-opacity:1;"
         offset="0" />
      <stop
         id="stop3248-1-7-8-8"
         style="stop-color:#ff7e0c;stop-opacity:1;"
         offset="0.66093999" />
      <stop
         id="stop3250-9-3-0-5"
         style="stop-color:#cb5f00;stop-opacity:1;"
         offset="1" />
    </radialGradient>
    <linearGradient
       id="linearGradient3820-7-2">
      <stop
         id="stop3822-2-6"
         style="stop-color:#3d3d3d;stop-opacity:1"
         offset="0" />
      <stop
         id="stop3864-8-7"
         style="stop-color:#686868;stop-opacity:0.49803922"
         offset="0.5" />
      <stop
         id="stop3824-1-2"
         style="stop-color:#686868;stop-opacity:0"
         offset="1" />
    </linearGradient>
    <radialGradient
       cx="23.896"
       cy="3.99"
       r="20.396999"
       id="radialGradient3887"
       gradientUnits="userSpaceOnUse"
       gradientTransform="matrix(0,1.2316483,-1.625754,0,18.486966,-28.721977)">
      <stop
         id="stop3889"
         style="stop-color:#323232;stop-opacity:1;"
         offset="0" />
      <stop
         id="stop3891"
         style="stop-color:#191919;stop-opacity:1;"
         offset="0.84763265" />
      <stop
         id="stop3893"
         style="stop-color:#0c0c0c;stop-opacity:1;"
         offset="1" />
    </radialGradient>
    <radialGradient
       inkscape:collect="always"
       xlink:href="#radialGradient3093-0-3-6"
       id="radialGradient4013"
       gradientUnits="userSpaceOnUse"
       gradientTransform="matrix(0,3.0649701,-2.2650546,0,68.222661,-78.729711)"
       cx="27.852608"
       cy="15.611503"
       fx="27.852608"
       fy="15.611503"
       r="16.795624" />
    <radialGradient
       inkscape:collect="always"
       xlink:href="#radialGradient3887"
       id="radialGradient3189"
       gradientUnits="userSpaceOnUse"
       gradientTransform="matrix(0,1.6851964,-1.5547425,0,38.112589,-26.142804)"
       cx="26.562172"
       cy="4.0296049"
       fx="26.562172"
       fy="4.0296049"
       r="20.396999" />
    <linearGradient
       inkscape:collect="always"
       xlink:href="#linearGradient4806"
       id="linearGradient3192"
       gradientUnits="userSpaceOnUse"
       gradientTransform="matrix(2.3268746,0,0,2.3268746,-135.94475,-32.842783)"
       x1="71.204407"
       y1="15.369057"
       x2="71.204407"
       y2="40.495617" />
    <radialGradient
       inkscape:collect="always"
       xlink:href="#radialGradient3093-0-3-6"
       id="radialGradient3196"
       gradientUnits="userSpaceOnUse"
       gradientTransform="matrix(0,4.1566535,-5.4867089,0,53.892518,-97.439545)"
       cx="23.896"
       cy="3.99"
       fx="23.896"
       fy="3.99"
       r="20.396999" />
    <radialGradient
       inkscape:collect="always"
       xlink:href="#linearGradient3820-7-2"
       id="radialGradient3200"
       gradientUnits="userSpaceOnUse"
       gradientTransform="matrix(0.38235362,0,0,0.11948554,-5.913044,34.255311)"
       cx="99.157013"
       cy="186.17059"
       fx="99.157013"
       fy="186.17059"
       r="62.769119" />
    <radialGradient
       inkscape:collect="always"
       xlink:href="#radialGradient3887"
       id="radialGradient3976"
       cx="53.366482"
       cy="10.560436"
       fx="53.366482"
       fy="10.560436"
       r="2.6249995"
       gradientTransform="matrix(-2.3809143,-4.9848534e-7,8.2587426e-7,-3.9446212,180.42749,49.731908)"
       gradientUnits="userSpaceOnUse" />
  </defs>
  <metadata
     id="metadata3494">
    <rdf:RDF>
      <cc:Work
         rdf:about="">
        <dc:format>image/svg+xml</dc:format>
        <dc:type
           rdf:resource="http://purl.org/dc/dcmitype/StillImage" />
        <dc:title />
      </cc:Work>
    </rdf:RDF>
  </metadata>
  <g
     id="g3954">
    <g
       style="stroke-width:1.42857146;stroke-miterlimit:4;stroke-dasharray:none"
       transform="matrix(0.7,0,0,0.7,1.6,1.4437406)"
       id="g3978">
      <path
         inkscape:connector-curvature="0"
         style="fill:url(#radialGradient3200);fill-opacity:1;stroke:none"
         id="path3818-0"
         d="m 55.999998,56.499998 a 24,7.4999998 0 1 1 -47.999999,0 24,7.4999998 0 1 1 47.999999,0 z" />
      <path
         style="color:#000000;fill:url(#radialGradient3196);fill-opacity:1;fill-rule:nonzero;stroke:none;stroke-width:1.42857146;marker:none;visibility:visible;display:inline;overflow:visible;enable-background:accumulate"
         d="M 32,2.5 C 15.722918,2.5 2.5,15.722917 2.5,32 2.5,48.277083 15.722918,61.500005 32,61.5 48.27708,61.5 61.50001,48.277083 61.5,32 c 0,-9.906531 0,-11.158509 0,-17.5 0,-6.6211856 -5.378815,-12 -12,-12 -7.079938,0 -11.22904,0 -17.5,0 z"
         id="path2555-7"
         inkscape:connector-curvature="0"
         sodipodi:nodetypes="csscccc" />
      <path
         style="opacity:0.7;color:#000000;fill:none;stroke:#803300;stroke-width:1.42857146;stroke-linecap:round;stroke-linejoin:round;stroke-miterlimit:4;stroke-opacity:1;stroke-dasharray:none;stroke-dashoffset:0;marker:none;visibility:visible;display:inline;overflow:visible;enable-background:accumulate"
         d="M 32,2.5 C 15.722918,2.5 2.5,15.722917 2.5,32 2.5,48.277083 15.722918,61.500005 32,61.5 48.27708,61.5 61.50001,48.277083 61.5,32 c 0,-9.2196 0,-11.22242 0,-17.5 0,-6.6211856 -5.378815,-12 -12,-12 -7.887829,0 -11.133226,0 -17.5,0 z"
         id="path2555-7-1"
         inkscape:connector-curvature="0"
         sodipodi:nodetypes="csscccc" />
      <path
         style="opacity:0.3;color:#000000;fill:none;stroke:url(#linearGradient3192);stroke-width:1.42857146;stroke-linecap:round;stroke-linejoin:round;stroke-miterlimit:4;stroke-opacity:1;stroke-dasharray:none;stroke-dashoffset:0;marker:none;visibility:visible;display:inline;overflow:visible;enable-background:accumulate"
         d="M 32,3.9103745 C 16.661687,3.9103745 3.9241071,16.259884 3.9241071,32 3.9241071,47.316008 16.259901,60.06595 32,60.06595 c 15.293691,0 28.081734,-12.310051 28.081734,-28.050166 0,-7.150709 3.17e-4,-12.008626 3.17e-4,-17.515784 0,-5.6666312 -4.557162,-10.5738419 -10.582051,-10.5738419 -7.769089,0 -11.215632,-0.015784 -17.5,-0.015784 z"
         id="path3019"
         inkscape:connector-curvature="0"
         sodipodi:nodetypes="csscccc" />
      <path
         style="color:#000000;fill:url(#radialGradient3189);fill-opacity:1;fill-rule:nonzero;stroke:none;stroke-width:1.42857146;marker:none;visibility:visible;display:inline;overflow:visible;enable-background:accumulate"
         id="path3883"
         inkscape:connector-curvature="0"
         d="m 31.999999,11.257796 c -11.444828,0 -20.742201,9.29737 -20.742201,20.742203 0,11.444832 9.297373,20.742205 20.742201,20.742202 11.444828,0 20.742214,-9.29737 20.742203,-20.742202 0,-11.444833 -9.297375,-20.742203 -20.742203,-20.742203 z" />
      <g
         style="stroke-width:1.71726596;stroke-miterlimit:4;stroke-dasharray:none"
         id="g3184"
         transform="matrix(0.83188712,0,0,0.83188712,5.1046713,5.8130737)">
        <path
           style="fill:url(#radialGradient4013);fill-opacity:1;stroke:none"
           d="m 24.781986,21.513925 0,-5.362989 8.261902,0 9.348995,23.84356 3.768588,-1.376983 1.447551,5.40234 -9.419562,2.787091 -5.435461,-13.769837 -7.754593,12.537799 -6.884919,0 12.011904,-20.80523 -1.575817,-3.328223 z"
           id="path3956"
           inkscape:connector-curvature="0" />
        <path
           inkscape:connector-curvature="0"
           id="path2987"
           d="m 24.781986,21.513925 0,-5.362989 8.261902,0 9.348995,23.84356 3.768588,-1.376983 1.447551,5.40234 -9.419562,2.787091 -5.435461,-13.769837 -7.754593,12.537799 -6.884919,0 12.011904,-20.80523 -1.575817,-3.328223 z"
           style="opacity:0.5;fill:none;stroke:#000000;stroke-width:1.71726596;stroke-linecap:butt;stroke-linejoin:miter;stroke-miterlimit:4;stroke-opacity:1;stroke-dasharray:none" />
      </g>
      <path
         inkscape:connector-curvature="0"
         id="path3205"
         style="font-size:12px;font-style:normal;font-variant:normal;font-weight:bold;font-stretch:normal;line-height:125%;letter-spacing:0px;word-spacing:0px;fill:url(#radialGradient3976);fill-opacity:1;stroke:none;font-family:Bebas;-inkscape-font-specification:Sans Bold"
         d="m 50.767045,10.642045 c 0,-1.0113545 0.272727,-1.784081 0.818182,-2.3181814 0.471589,-0.4715804 1.090907,-0.7073756 1.857955,-0.7073863 0.704541,1.07e-5 1.303973,0.2642149 1.798295,0.7926136 0.499995,0.5284185 0.749994,1.1448951 0.75,1.8494321 -6e-6,0.72728 -0.161937,1.428984 -0.485795,2.105113 -0.176142,0.375006 -0.588073,1.019892 -1.235796,1.934659 -0.17614,0.250004 -0.437503,0.639208 -0.784091,1.167614 l -0.289772,0.434659 c -0.187503,0.284093 -0.329548,0.508525 -0.426137,0.673296 -0.04546,0.07955 -0.06818,0.127842 -0.06818,0.144886 l 3.161931,0.0085 0,1.576704 -5.122159,0 0,-1.474432 c 0,-0.03409 0.119318,-0.230111 0.357955,-0.588068 0.107953,-0.16477 0.230112,-0.346588 0.366477,-0.545454 l 0.417614,-0.605114 c 0.244316,-0.335224 0.627838,-0.872155 1.150568,-1.610795 0.494315,-0.693177 0.863633,-1.321017 1.107954,-1.883523 0.19886,-0.46022 0.298292,-0.889197 0.298296,-1.286932 -4e-6,-0.3238552 -0.09091,-0.5994231 -0.272727,-0.8267045 C 53.968746,9.2443273 53.713065,9.1250092 53.400568,9.125 c -0.448866,9.2e-6 -0.767048,0.2585317 -0.954545,0.7755682 -0.0625,0.1704628 -0.09375,0.3750078 -0.09375,0.6136368 l 0,0.40909 -1.585228,0 0,-0.28125" />
      <path
         inkscape:connector-curvature="0"
         id="path3202"
         style="font-size:12px;font-style:normal;font-variant:normal;font-weight:bold;font-stretch:normal;line-height:125%;letter-spacing:0px;word-spacing:0px;opacity:0.7;fill:none;stroke:#000000;stroke-width:1.42857146;stroke-miterlimit:4;stroke-opacity:1;stroke-dasharray:none;font-family:Bebas;-inkscape-font-specification:Sans Bold"
         d="m 50.767045,10.642045 c 0,-1.0113545 0.272727,-1.784081 0.818182,-2.3181814 0.471589,-0.4715804 1.090907,-0.7073756 1.857955,-0.7073863 0.704541,1.07e-5 1.303973,0.2642149 1.798295,0.7926136 0.499995,0.5284185 0.749994,1.1448951 0.75,1.8494321 -6e-6,0.72728 -0.161937,1.428984 -0.485795,2.105113 -0.176142,0.375006 -0.588073,1.019892 -1.235796,1.934659 -0.17614,0.250004 -0.437503,0.639208 -0.784091,1.167614 l -0.289772,0.434659 c -0.187503,0.284093 -0.329548,0.508525 -0.426137,0.673296 -0.04546,0.07955 -0.06818,0.127842 -0.06818,0.144886 l 3.161931,0.0085 0,1.576704 -5.122159,0 0,-1.474432 c 0,-0.03409 0.119318,-0.230111 0.357955,-0.588068 0.107953,-0.16477 0.230112,-0.346588 0.366477,-0.545454 l 0.417614,-0.605114 c 0.244316,-0.335224 0.627838,-0.872155 1.150568,-1.610795 0.494315,-0.693177 0.863633,-1.321017 1.107954,-1.883523 0.19886,-0.46022 0.298292,-0.889197 0.298296,-1.286932 -4e-6,-0.3238552 -0.09091,-0.5994231 -0.272727,-0.8267045 C 53.968746,9.2443273 53.713065,9.1250092 53.400568,9.125 c -0.448866,9.2e-6 -0.767048,0.2585317 -0.954545,0.7755682 -0.0625,0.1704628 -0.09375,0.3750078 -0.09375,0.6136368 l 0,0.40909 -1.585228,0 0,-0.28125" />
      <path
         d="m 31.999999,11.257796 c -11.444828,0 -20.742201,9.29737 -20.742201,20.742203 0,11.444832 9.297373,20.742205 20.742201,20.742202 11.444828,0 20.742214,-9.29737 20.742203,-20.742202 0,-11.444833 -9.297375,-20.742203 -20.742203,-20.742203 z"
         inkscape:connector-curvature="0"
         id="path4015"
         style="opacity:0.5;color:#000000;fill:none;stroke:#000000;stroke-width:1.42857146;stroke-miterlimit:4;stroke-opacity:1;stroke-dasharray:none;marker:none;visibility:visible;display:inline;overflow:visible;enable-background:accumulate" />
    </g>
  </g>
</svg>
