<?xml version="1.0" encoding="UTF-8" standalone="no"?>
<svg
   xmlns:dc="http://purl.org/dc/elements/1.1/"
   xmlns:cc="http://creativecommons.org/ns#"
   xmlns:rdf="http://www.w3.org/1999/02/22-rdf-syntax-ns#"
   xmlns:svg="http://www.w3.org/2000/svg"
   xmlns="http://www.w3.org/2000/svg"
   xmlns:xlink="http://www.w3.org/1999/xlink"
   xmlns:sodipodi="http://sodipodi.sourceforge.net/DTD/sodipodi-0.dtd"
   xmlns:inkscape="http://www.inkscape.org/namespaces/inkscape"
   id="svg4405"
   height="48"
   width="48"
   version="1.1"
   inkscape:version="0.91 r13725"
   sodipodi:docname="inkscape.svg">
  <sodipodi:namedview
     pagecolor="#ffffff"
     bordercolor="#666666"
     borderopacity="1"
     objecttolerance="10"
     gridtolerance="10"
     guidetolerance="10"
     inkscape:pageopacity="0"
     inkscape:pageshadow="2"
     inkscape:window-width="1600"
     inkscape:window-height="837"
     id="namedview10718"
     showgrid="true"
     inkscape:zoom="11.313708"
     inkscape:cx="3.8068395"
     inkscape:cy="17.808288"
     inkscape:window-x="0"
     inkscape:window-y="30"
     inkscape:window-maximized="1"
     inkscape:current-layer="svg4405"
     inkscape:object-nodes="true"
     inkscape:object-paths="true"
     inkscape:snap-smooth-nodes="true"
     inkscape:snap-bbox="true"
     inkscape:bbox-nodes="true">
    <inkscape:grid
       type="xygrid"
       id="grid11295" />
  </sodipodi:namedview>
  <defs
     id="defs4407">
    <linearGradient
       id="linearGradient4187">
      <stop
         offset="0"
         style="stop-color:#ffffff;stop-opacity:1"
         id="stop4189" />
      <stop
         offset="0.10556602"
         style="stop-color:#ffffff;stop-opacity:0.23529412"
         id="stop4191" />
      <stop
         offset="0.97696"
         style="stop-color:#ffffff;stop-opacity:0.15686275"
         id="stop4193" />
      <stop
         offset="1"
         style="stop-color:#ffffff;stop-opacity:0.39215687"
         id="stop4195" />
    </linearGradient>
    <linearGradient
       id="linearGradient4311">
      <stop
         offset="0"
         style="stop-color:#000000;stop-opacity:1"
         id="stop4313" />
      <stop
         offset="1"
         style="stop-color:#000000;stop-opacity:0"
         id="stop4315" />
    </linearGradient>
    <radialGradient
       gradientTransform="matrix(2.003784,0,0,1.4,27.98813,-17.4)"
       gradientUnits="userSpaceOnUse"
       xlink:href="#linearGradient3688-166-749-2-324"
       id="radialGradient3013-896"
       fy="43.5"
       fx="4.9929786"
       r="2.5"
       cy="43.5"
       cx="4.9929786" />
    <linearGradient
       id="linearGradient3688-166-749-2-324">
      <stop
         offset="0"
         style="stop-color:#181818;stop-opacity:1"
         id="stop3216" />
      <stop
         offset="1"
         style="stop-color:#181818;stop-opacity:0"
         id="stop3218" />
    </linearGradient>
    <radialGradient
       gradientTransform="matrix(2.003784,0,0,1.4,-20.01187,-104.4)"
       gradientUnits="userSpaceOnUse"
       xlink:href="#linearGradient3688-464-309-8-331"
       id="radialGradient3015-826"
       fy="43.5"
       fx="4.9929786"
       r="2.5"
       cy="43.5"
       cx="4.9929786" />
    <linearGradient
       id="linearGradient3688-464-309-8-331">
      <stop
         offset="0"
         style="stop-color:#181818;stop-opacity:1"
         id="stop3222" />
      <stop
         offset="1"
         style="stop-color:#181818;stop-opacity:0"
         id="stop3224" />
    </linearGradient>
    <linearGradient
       id="linearGradient3702-501-757-6-946">
      <stop
         offset="0"
         style="stop-color:#181818;stop-opacity:0"
         id="stop3228" />
      <stop
         offset="0.5"
         style="stop-color:#181818;stop-opacity:1"
         id="stop3230" />
      <stop
         offset="1"
         style="stop-color:#181818;stop-opacity:0"
         id="stop3232" />
    </linearGradient>
    <linearGradient
       gradientUnits="userSpaceOnUse"
       xlink:href="#linearGradient3702-501-757-6-946"
       id="linearGradient4395"
       y2="39.999443"
       x2="25.058096"
       y1="47.027729"
       x1="25.058096" />
    <linearGradient
       id="linearGradient2867-449-88-871-390-598-476-591-434-148-57-177-8-3-3-6-4-8-8-8-5">
      <stop
         offset="0"
         style="stop-color:#919caf;stop-opacity:1"
         id="stop3750-1-0-7-6-6-1-3-9-3" />
      <stop
         offset="0.26238"
         style="stop-color:#68758e;stop-opacity:1"
         id="stop3752-3-7-4-0-32-8-923-0-7" />
      <stop
         offset="0.704952"
         style="stop-color:#485a6c;stop-opacity:1"
         id="stop3754-1-8-5-2-7-6-7-1-9" />
      <stop
         offset="1"
         style="stop-color:#444c5c;stop-opacity:1"
         id="stop3756-1-6-2-6-6-1-96-6-0" />
    </linearGradient>
    <linearGradient
       gradientTransform="matrix(1.0521608,0,0,-1.0532519,-1.2521612,51.339874)"
       gradientUnits="userSpaceOnUse"
       xlink:href="#linearGradient4311"
       id="linearGradient3143"
       y2="25.361452"
       x2="30.212982"
       y1="21.416878"
       x1="30.212982" />
    <linearGradient
       gradientTransform="translate(1.17e-5,1.00001)"
       gradientUnits="userSpaceOnUse"
       xlink:href="#linearGradient4187"
       id="linearGradient3153"
       y2="41.890972"
       x2="23.99999"
       y1="3.99999"
       x1="23.999989" />
    <radialGradient
       gradientTransform="matrix(0,9.4975523,-11.65996,0,140.93055,-79.160972)"
       gradientUnits="userSpaceOnUse"
       xlink:href="#linearGradient2867-449-88-871-390-598-476-591-434-148-57-177-8-3-3-6-4-8-8-8-5"
       id="radialGradient4144"
       fy="9.9571075"
       fx="6.2001843"
       r="12.671875"
       cy="9.9571075"
       cx="6.7304144" />
    <linearGradient
       inkscape:collect="always"
       id="linearGradient8713">
      <stop
         style="stop-color:#dcdcdc;stop-opacity:1"
         offset="0"
         id="stop8715" />
      <stop
         style="stop-color:#be96be;stop-opacity:0;"
         offset="1"
         id="stop8717" />
    </linearGradient>
    <linearGradient
       x1="60"
       y1="20"
       x2="90"
       y2="50"
       id="IcecapTip-0"
       xlink:href="#WhiteTransparent-3"
       gradientUnits="userSpaceOnUse"
       gradientTransform="matrix(0.40525663,0,0,0.40525663,-55.023171,8.1964379)" />
    <linearGradient
       id="WhiteTransparent-3"
       gradientUnits="userSpaceOnUse">
      <stop
         id="stop7606-1"
         style="stop-color:#ffffff;stop-opacity:1"
         offset="0" />
      <stop
         id="stop7608-8"
         style="stop-color:#ffffff;stop-opacity:0"
         offset="1" />
    </linearGradient>
    <linearGradient
       gradientTransform="matrix(1.0743243,0,0,1.0772124,-64.757459,-6.6108816)"
       gradientUnits="userSpaceOnUse"
       xlink:href="#linearGradient3924"
       id="linearGradient3381-5-4"
       y2="43"
       x2="23.99999"
       y1="4.1296873"
       x1="23.825462" />
    <linearGradient
       id="linearGradient3924">
      <stop
         id="stop3926"
         style="stop-color:#ffffff;stop-opacity:1"
         offset="0" />
      <stop
         id="stop3928"
         style="stop-color:#ffffff;stop-opacity:0.23529412"
         offset="0.06316455" />
      <stop
         id="stop3930"
         style="stop-color:#ffffff;stop-opacity:0.15686275"
         offset="0.95056331" />
      <stop
         id="stop3932"
         style="stop-color:#ffffff;stop-opacity:0.39215687"
         offset="1" />
    </linearGradient>
    <linearGradient
       gradientTransform="matrix(1.1842126,0,0,0.53571428,-67.315803,16.563578)"
       x1="25.058096"
       y1="47.027729"
       x2="25.058096"
       y2="39.999443"
       id="linearGradient6394-1-2"
       xlink:href="#linearGradient3702-501-757-6-946"
       gradientUnits="userSpaceOnUse" />
    <radialGradient
       cx="4.9929786"
       cy="43.5"
       r="2.5"
       fx="4.9929786"
       fy="43.5"
       id="radialGradient3339-1-4-8-7"
       xlink:href="#linearGradient3688-166-749-2-324"
       gradientUnits="userSpaceOnUse"
       gradientTransform="matrix(2.3729063,0,0,0.74999998,43.617493,-72.492203)" />
    <linearGradient
       inkscape:collect="always"
       xlink:href="#WhiteTransparent-3"
       id="linearGradient10970"
       gradientUnits="userSpaceOnUse"
       gradientTransform="matrix(0.28425411,0,0,0.28425411,5.8099101,7.1347789)"
       x1="60"
       y1="20"
       x2="90"
       y2="50" />
    <linearGradient
       inkscape:collect="always"
       xlink:href="#linearGradient8713"
       id="linearGradient10968"
       gradientUnits="userSpaceOnUse"
       x1="-43.522785"
       y1="35.355442"
       x2="-30.598785"
       y2="12.637146"
       gradientTransform="matrix(0.70141755,0,0,0.70141755,44.40413,1.3856539)" />
    <linearGradient
       y2="43"
       x2="23.99999"
       y1="4.999989"
       x1="23.99999"
       gradientTransform="translate(-3.9897734e-5,1.0000109)"
       gradientUnits="userSpaceOnUse"
       id="linearGradient4618"
       xlink:href="#linearGradient3924"
       inkscape:collect="always" />
    <linearGradient
       y2="39.999443"
       x2="25.058096"
       y1="47.027729"
       x1="25.058096"
       gradientUnits="userSpaceOnUse"
       id="linearGradient4614"
       xlink:href="#linearGradient3702-501-757-6-946"
       inkscape:collect="always"
       gradientTransform="matrix(1.1578952,0,0,0.6428571,-3.5424299,16.023926)" />
    <radialGradient
       r="2.5"
       fy="43.5"
       fx="4.9929786"
       cy="43.5"
       cx="4.9929786"
       gradientTransform="matrix(2.3201719,0,0,0.89999994,-19.62922,-83.138206)"
       gradientUnits="userSpaceOnUse"
       id="radialGradient4612"
       xlink:href="#linearGradient3688-166-749-2-324"
       inkscape:collect="always" />
    <radialGradient
       r="2.5"
       fy="43.5"
       fx="4.9929786"
       cy="43.5"
       cx="4.9929786"
       gradientTransform="matrix(2.3201719,0,0,0.89999994,28.86489,4.8382089)"
       gradientUnits="userSpaceOnUse"
       id="radialGradient4610"
       xlink:href="#linearGradient3688-166-749-2-324"
       inkscape:collect="always" />
  </defs>
  <metadata
     id="metadata4410">
    <rdf:RDF>
      <cc:Work
         rdf:about="">
        <dc:format>image/svg+xml</dc:format>
        <dc:type
           rdf:resource="http://purl.org/dc/dcmitype/StillImage" />
        <dc:title />
      </cc:Work>
    </rdf:RDF>
  </metadata>
  <g
     inkscape:groupmode="layer"
     id="layer2"
     inkscape:label="shadow" />
  <g
     inkscape:groupmode="layer"
     id="layer1"
     inkscape:label="mountain"
     style="display:inline" />
  <rect
     width="5.7894759"
     height="4.4999995"
     x="40.457581"
     y="41.738205"
     id="rect4560"
     style="fill:url(#radialGradient4610);fill-opacity:1;stroke:none" />
  <rect
     width="5.7894759"
     height="4.4999995"
     x="-8.0365295"
     y="-46.238205"
     transform="scale(-1,-1)"
     id="rect4562"
     style="fill:url(#radialGradient4612);fill-opacity:1;stroke:none" />
  <rect
     width="32.421066"
     height="4.5"
     x="8.0365295"
     y="41.738205"
     id="rect4564"
     style="fill:url(#linearGradient4614);fill-opacity:1;stroke:none" />
  <rect
     style="color:#000000;display:inline;overflow:visible;visibility:visible;opacity:1;fill:#f8ca4f;fill-opacity:1;fill-rule:nonzero;stroke:#daa109;stroke-width:0.99999994;stroke-opacity:0.50196078;marker:none;enable-background:accumulate"
     id="rect4566-8"
     y="5.5"
     x="4.5000038"
     ry="2"
     rx="2"
     height="39"
     width="39" />
  <path
     sodipodi:nodetypes="ccccsccccccccccccccccccccccccccscccccccccccccccccccccccsccccccccccccccccccsccccccccccccc"
     style="opacity:0.07000002;fill:#000000;fill-opacity:1;stroke:#000000;stroke-opacity:1"
     id="path8571"
     d="m 20.77722,12.220666 -11.3004299,11.46293 -1.42976,1.26933 c 0,0 -0.0744,0.0613 -0.10562,0.1355 -0.043,0.11328 -0.0523,0.79531 0.0586,0.90625 l 0.86014,0.86014 c 0.10884,0.0968 0.1999,0.15251 0.29852,0.19275 l 5.6952499,1.89841 c 0.10534,0.0386 0.145,0.0994 0.14609,0.17592 l 0,0.78447 c 7.7e-4,0.0656 -0.0462,0.0947 -0.0859,0.0883 l -0.84375,0 c -0.0504,0.002 -0.0981,0.0402 -0.13749,0.0672 l -1.81306,1.81306 c -0.14337,0.11548 -0.0243,0.20437 0.0127,0.25413 0.2125,0.21401 0.56256,0.56248 0.74629,0.74518 0.0926,0.0953 0.16997,0.11614 0.25404,0.17359 l 4.76532,1.90613 c 0.0524,0.0236 0.12044,0.0468 0.19169,0.0407 l 0.80078,0 c 0.10748,-0.009 0.1415,0.034 0.19608,0.0867 l 0.81836,0.81836 c 0.0656,0.0581 0.0592,0.13522 0.006,0.18359 l -1.91134,1.91134 c -0.16662,0.16391 -0.128,0.737 -0.0531,0.9049 0.0512,0.0733 0.064,0.092 0.1312,0.0951 l 1.92187,0 c 0.35355,-0.0111 2.54701,2.9779 3,3 l 4,0 c 0.35355,0.0221 1,-1 1,-1 0.23202,-0.25412 0.23202,-0.73483 0,-1 0,0 -0.99206,-0.77726 -1,-1 -0.0117,-0.32763 0.80665,-0.88399 1,-1 l 2,-1 c 0.27344,-0.125 0.56448,-0.8196 1,-1 0.33357,-0.16772 0.88581,0.0821 1.12618,-0.12618 0.42525,-0.25143 0.89509,-0.72719 0.87382,-1.0715 l 0,-0.61719 c -0.007,-0.11511 -0.0454,-0.19857 -0.16813,-0.2692 l -1.69844,-0.84922 c -0.0547,-0.0273 -0.1139,-0.0667 -0.27796,-0.0667 l -0.67969,0 c -0.13555,0.0128 -0.17356,-0.0447 -0.17578,-0.13908 l 0,-0.75154 c 0,-0.125 0.0658,-0.13251 0.11657,-0.16766 l 1.76167,-0.88084 c 0,0 0.11624,-0.0609 0.30406,-0.0609 l 0.55806,0 c 0.24307,0.0166 0.47075,-0.0844 0.47075,-0.0844 l 4.5614,-1.82456 c 0.18306,-0.0628 0.26081,-0.16971 0.39079,-0.25429 l 0.8367,-0.83671 0.90353,-0.90353 c 0.0547,-0.0586 0.0574,-0.0965 0.0965,-0.26834 0.0387,-0.13258 0.0195,-0.51563 0,-0.65625 -0.0352,-0.14844 -0.0487,-0.22431 -0.14055,-0.32332 -1.1057,-1.19136 -8.47072,-9.12674 -12.63485,-13.60692 -0.16282,-0.16909 -0.33203,-0.27674 -0.47867,-0.36867 l -1.45313,-0.72657 c -0.19128,-0.11745 -0.38134,-0.12916 -0.58186,-0.1464 l -1.41406,0 c -0.28098,0.0123 -0.43887,0.12096 -0.66156,0.18234 l -1.3813,0.69065 c -0.20536,0.0943 -0.37275,0.24611 -0.4768,0.353 z M 35,34.994676 c 0.1315,0.52395 0.60417,0.89323 1,1 l 2,0 c 0.3125,-0.0391 0.98438,-0.51562 1,-1 -0.0156,-0.33594 -0.67968,-0.92969 -1,-1 -1.54679,-0.17125 -1.73483,-0.12153 -2,0 -0.36601,0.18269 -0.95312,0.53125 -1,1 z m -20.85156,3.00001 1.58228,0 c 0.18167,0.0133 0.30573,-0.0875 0.43708,-0.14857 0.25068,-0.14895 0.81193,-0.63749 0.8322,-0.85144 0.0276,-0.29169 -0.8789,-0.97265 -1,-0.99999 -0.3425,-0.14363 -0.70169,-0.19335 -1,0 -0.19531,0.0898 -0.7449,0.64334 -0.85818,0.85818 -0.0893,0.11462 -0.13532,0.24115 -0.14182,0.30351 l 0,0.68749 c -0.008,0.0937 0.0703,0.15863 0.14844,0.15082 z M 34,36.994676 c -0.0625,-0.0391 -1.48438,-0.5625 -1,1 0.14576,0.51604 1,1 1,1 0.17678,0.13258 0.71274,0.19887 1,0 0,0 0.26517,-0.73483 0,-1 0,0 -0.46029,-0.8529 -1,-1 z"
     inkscape:connector-curvature="0" />
  <path
     inkscape:connector-curvature="0"
     d="m 20.77722,12.220666 -11.3004299,11.46293 -1.42976,1.26933 c 0,0 -0.0744,0.0613 -0.10562,0.1355 -0.043,0.11328 -0.0523,0.79531 0.0586,0.90625 l 0.86014,0.86014 c 0.10884,0.0968 0.1999,0.15251 0.29852,0.19275 l 5.6952499,1.89841 c 0.10534,0.0386 0.145,0.0994 0.14609,0.17592 l 0,0.78447 c 7.7e-4,0.0656 -0.0462,0.0947 -0.0859,0.0883 l -0.84375,0 c -0.0504,0.002 -0.0981,0.0402 -0.13749,0.0672 l -1.81306,1.81306 c -0.14337,0.11548 -0.0243,0.20437 0.0127,0.25413 0.2125,0.21401 0.56256,0.56248 0.74629,0.74518 0.0926,0.0953 0.16997,0.11614 0.25404,0.17359 l 4.76532,1.90613 c 0.0524,0.0236 0.12044,0.0468 0.19169,0.0407 l 0.80078,0 c 0.10748,-0.009 0.1415,0.034 0.19608,0.0867 l 0.81836,0.81836 c 0.0656,0.0581 0.0592,0.13522 0.006,0.18359 l -1.91134,1.91134 c -0.16662,0.16391 -0.128,0.737 -0.0531,0.9049 0.0512,0.0733 0.064,0.092 0.1312,0.0951 l 1.92187,0 c 0.35355,-0.0111 2.54701,2.9779 3,3 l 4,0 c 0.35355,0.0221 1,-1 1,-1 0.23202,-0.25412 0.23202,-0.73483 0,-1 0,0 -0.99206,-0.77726 -1,-1 -0.0117,-0.32763 0.80665,-0.88399 1,-1 l 2,-1 c 0.27344,-0.125 0.56448,-0.8196 1,-1 0.33357,-0.16772 0.88581,0.0821 1.12618,-0.12618 0.42525,-0.25143 0.89509,-0.72719 0.87382,-1.0715 l 0,-0.61719 c -0.007,-0.11511 -0.0454,-0.19857 -0.16813,-0.2692 l -1.69844,-0.84922 c -0.0547,-0.0273 -0.1139,-0.0667 -0.27796,-0.0667 l -0.67969,0 c -0.13555,0.0128 -0.17356,-0.0447 -0.17578,-0.13908 l 0,-0.75154 c 0,-0.125 0.0658,-0.13251 0.11657,-0.16766 l 1.76167,-0.88084 c 0,0 0.11624,-0.0609 0.30406,-0.0609 l 0.55806,0 c 0.24307,0.0166 0.47075,-0.0844 0.47075,-0.0844 l 4.5614,-1.82456 c 0.18306,-0.0628 0.26081,-0.16971 0.39079,-0.25429 l 0.8367,-0.83671 0.90353,-0.90353 c 0.0547,-0.0586 0.0574,-0.0965 0.0965,-0.26834 0.0387,-0.13258 0.0195,-0.51563 0,-0.65625 -0.0352,-0.14844 -0.0487,-0.22431 -0.14055,-0.32332 -1.1057,-1.19136 -8.47072,-9.12674 -12.63485,-13.60692 -0.16282,-0.16909 -0.33203,-0.27674 -0.47867,-0.36867 l -1.45313,-0.72657 c -0.19128,-0.11745 -0.38134,-0.12916 -0.58186,-0.1464 l -1.41406,0 c -0.28098,0.0123 -0.43887,0.12096 -0.66156,0.18234 l -1.3813,0.69065 c -0.20536,0.0943 -0.37275,0.24611 -0.4768,0.353 z M 35,34.994676 c 0.1315,0.52395 0.60417,0.89323 1,1 l 2,0 c 0.3125,-0.0391 0.98438,-0.51562 1,-1 -0.0156,-0.33594 -0.67968,-0.92969 -1,-1 -1.54679,-0.17125 -1.73483,-0.12153 -2,0 -0.36601,0.18269 -0.95312,0.53125 -1,1 z m -20.85156,3.00001 1.58228,0 c 0.18167,0.0133 0.30573,-0.0875 0.43708,-0.14857 0.25068,-0.14895 0.81193,-0.63749 0.8322,-0.85144 0.0276,-0.29169 -0.8789,-0.97265 -1,-0.99999 -0.3425,-0.14363 -0.70169,-0.19335 -1,0 -0.19531,0.0898 -0.7449,0.64334 -0.85818,0.85818 -0.0893,0.11462 -0.13532,0.24115 -0.14182,0.30351 l 0,0.68749 c -0.008,0.0937 0.0703,0.15863 0.14844,0.15082 z M 34,36.994676 c -0.0625,-0.0391 -1.48438,-0.5625 -1,1 0.14576,0.51604 1,1 1,1 0.17678,0.13258 0.71274,0.19887 1,0 0,0 0.26517,-0.73483 0,-1 0,0 -0.46029,-0.8529 -1,-1 z"
     id="path8569"
     style="opacity:0.15;fill:#000000;fill-opacity:1"
     sodipodi:nodetypes="ccccsccccccccccccccccccccccccccscccccccccccccccccccccccsccccccccccccccccccsccccccccccccc" />
  <rect
     style="opacity:0.5;fill:none;stroke:url(#linearGradient4618);stroke-width:1;stroke-linecap:round;stroke-linejoin:round;stroke-miterlimit:4;stroke-dasharray:none;stroke-dashoffset:0;stroke-opacity:1"
     id="rect4568"
     y="6.5"
     x="5.5"
     ry="1"
     rx="1.0000001"
     height="37"
     width="37.000004" />
  <path
     inkscape:connector-curvature="0"
     d="M 21.18806,10.687956 9.4767901,22.683476 c -4.43437,4.43437 2.8709599,4.06484 5.5145299,5.74194 1.22229,0.79591 -3.92271,1.81922 -2.87097,2.87096 1.02331,1.05174 6.16831,2.01821 7.19163,3.04152 1.02331,1.05174 -2.07506,2.16033 -1.05174,3.21207 0.99489,1.05174 3.38262,0.0568 3.809,2.44459 0.31268,1.76237 4.37752,0.88119 6.19674,-0.62536 1.13702,-0.96646 -1.96135,-0.96646 -0.93804,-2.0182 2.55829,-2.58672 4.83232,-1.16545 5.77036,-3.55318 0.51166,-1.27914 -3.86585,-2.18876 -2.70041,-3.01309 2.78569,-1.96136 13.01884,-2.95625 8.30022,-7.67486 L 26.56046,10.687956 c -1.50655,-1.4212708 -3.97956,-1.4212708 -5.3724,0 z m 13.44521,23.10986 c 0,0.59693 4.63335,0.93804 4.37752,-0.14213 -0.36953,-1.81922 -3.86586,-1.6771 -4.37752,0.14213 z m -19.75566,3.15522 c 1.05174,0.90961 2.64357,-0.19898 3.15522,-1.47812 -1.02331,-1.336 -4.80389,0.0853 -3.15522,1.47812 z m 19.18716,-1.9045 c -1.30757,1.19387 0.2274,2.44458 1.50654,1.62025 0.34111,-0.22741 -0.0284,-1.336 -1.50654,-1.62025 z"
     id="path10922"
     style="display:inline;opacity:0.07000002;fill:none" />
  <path
     style="display:inline;opacity:0.15;fill:none"
     id="path10924"
     d="M 21.18806,10.687956 9.4767901,22.683476 c -4.43437,4.43437 2.8709599,4.06484 5.5145299,5.74194 1.22229,0.79591 -3.92271,1.81922 -2.87097,2.87096 1.02331,1.05174 6.16831,2.01821 7.19163,3.04152 1.02331,1.05174 -2.07506,2.16033 -1.05174,3.21207 0.99489,1.05174 3.38262,0.0568 3.809,2.44459 0.31268,1.76237 4.37752,0.88119 6.19674,-0.62536 1.13702,-0.96646 -1.96135,-0.96646 -0.93804,-2.0182 2.55829,-2.58672 4.83232,-1.16545 5.77036,-3.55318 0.51166,-1.27914 -3.86585,-2.18876 -2.70041,-3.01309 2.78569,-1.96136 13.01884,-2.95625 8.30022,-7.67486 L 26.56046,10.687956 c -1.50655,-1.4212708 -3.97956,-1.4212708 -5.3724,0 z m 13.44521,23.10986 c 0,0.59693 4.63335,0.93804 4.37752,-0.14213 -0.36953,-1.81922 -3.86586,-1.6771 -4.37752,0.14213 z m -19.75566,3.15522 c 1.05174,0.90961 2.64357,-0.19898 3.15522,-1.47812 -1.02331,-1.336 -4.80389,0.0853 -3.15522,1.47812 z m 19.18716,-1.9045 c -1.30757,1.19387 0.2274,2.44458 1.50654,1.62025 0.34111,-0.22741 -0.0284,-1.336 -1.50654,-1.62025 z"
     inkscape:connector-curvature="0" />
  <path
     sodipodi:nodetypes="ccccsccccccccccccccccccccccccccscccccccccccccccccccccccsccccccccccccccccccsccccccccccccc"
     style="fill:#333333;fill-opacity:1"
     id="path10936"
     d="m 20.77722,11.220546 -11.3004299,11.46293 -1.42976,1.26933 c 0,0 -0.0744,0.0613 -0.10562,0.1355 -0.043,0.11328 -0.0523,0.79531 0.0586,0.90625 l 0.86014,0.86014 c 0.10884,0.0968 0.1999,0.15251 0.29852,0.19275 l 5.6952499,1.89841 c 0.10534,0.0386 0.145,0.0994 0.14609,0.17592 l 0,0.78447 c 7.7e-4,0.0656 -0.0462,0.0947 -0.0859,0.0883 l -0.84375,0 c -0.0504,0.002 -0.0981,0.0402 -0.13749,0.0672 -0.60435,0.60436 -1.20871,1.20871 -1.81306,1.81306 -0.14337,0.11548 -0.0243,0.20437 0.0127,0.25413 0.2125,0.21401 0.56256,0.56248 0.74629,0.74518 0.0926,0.0953 0.16997,0.11614 0.25404,0.17359 l 4.76532,1.90613 c 0.0524,0.0236 0.12044,0.0468 0.19169,0.0407 l 0.80078,0 c 0.10748,-0.009 0.1415,0.034 0.19608,0.0867 l 0.81836,0.81836 c 0.0656,0.0581 0.0592,0.13522 0.006,0.18359 l -1.91134,1.91134 c -0.16662,0.16391 -0.128,0.737 -0.0531,0.9049 0.0512,0.0733 0.064,0.092 0.1312,0.0951 l 1.92187,0 c 0.35355,-0.0111 2.54701,2.9779 3,3 l 4,0 c 0.35355,0.0221 1,-1 1,-1 0.23202,-0.25412 0.23202,-0.73483 0,-1 0,0 -0.99206,-0.77726 -1,-1 -0.0117,-0.32763 0.80665,-0.88399 1,-1 l 2,-1 c 0.27344,-0.125 0.56448,-0.8196 1,-1 0.33357,-0.16772 0.88581,0.0821 1.12618,-0.12618 0.42525,-0.25143 0.89509,-0.72719 0.87382,-1.0715 l 0,-0.61719 c -0.007,-0.11511 -0.0454,-0.19857 -0.16813,-0.2692 l -1.69844,-0.84922 c -0.0547,-0.0273 -0.1139,-0.0667 -0.27796,-0.0667 l -0.67969,0 c -0.13555,0.0128 -0.17356,-0.0447 -0.17578,-0.13908 l 0,-0.75154 c 0,-0.125 0.0658,-0.13251 0.11657,-0.16766 l 1.76167,-0.88084 c 0,0 0.11624,-0.0609 0.30406,-0.0609 l 0.55806,0 c 0.24307,0.0166 0.47075,-0.0844 0.47075,-0.0844 l 4.5614,-1.82456 c 0.18306,-0.0628 0.26081,-0.16971 0.39079,-0.25429 l 0.8367,-0.83671 0.90353,-0.90353 c 0.0547,-0.0586 0.0574,-0.0965 0.0965,-0.26834 0.0387,-0.13258 0.0195,-0.51563 0,-0.65625 -0.0352,-0.14844 -0.0487,-0.22431 -0.14055,-0.32332 -1.1057,-1.19136 -8.47072,-9.12674 -12.63485,-13.60692 -0.16282,-0.16909 -0.33203,-0.27674 -0.47867,-0.36867 l -1.45313,-0.72657 c -0.19128,-0.11745 -0.38134,-0.12916 -0.58186,-0.1464004 l -1.41406,0 c -0.28098,0.0123 -0.43887,0.1209604 -0.66156,0.1823404 l -1.3813,0.69065 c -0.20536,0.0943 -0.37275,0.24611 -0.4768,0.353 z M 35,33.994556 c 0.1315,0.52395 0.60417,0.89323 1,1 l 2,0 c 0.3125,-0.0391 0.98438,-0.51562 1,-1 -0.0156,-0.33594 -0.67968,-0.92969 -1,-1 -1.54679,-0.17125 -1.73483,-0.12153 -2,0 -0.36601,0.18269 -0.95312,0.53125 -1,1 z m -20.85156,3.00001 1.58228,0 c 0.18167,0.0133 0.30573,-0.0875 0.43708,-0.14857 0.25068,-0.14895 0.81193,-0.63749 0.8322,-0.85144 0.0276,-0.29169 -0.8789,-0.97265 -1,-0.99999 l -1,0 c -0.19531,0.0898 -0.7449,0.64334 -0.85818,0.85818 -0.0893,0.11462 -0.13532,0.24115 -0.14182,0.30351 l 0,0.68749 c -0.008,0.0937 0.0703,0.15863 0.14844,0.15082 z M 34,35.994556 l -1,1 c 0.0442,0.50823 1,1 1,1 0.17678,0.13258 0.71274,0.19887 1,0 0,0 0.26517,-0.73483 0,-1 0,0 -0.62435,-0.9779 -1,-1 z"
     inkscape:connector-curvature="0" />
  <path
     style="fill:none"
     id="path10938"
     d="M 21.18806,10.687956 9.4767901,22.683476 c -4.43436,4.43437 2.8709699,4.06484 5.5145299,5.74194 1.22229,0.79591 -3.92271,1.81922 -2.87097,2.87096 1.02332,1.05174 6.16832,2.01821 7.19163,3.04152 1.02332,1.05174 -2.07505,2.16033 -1.05174,3.21207 0.99489,1.05174 3.38263,0.0568 3.80901,2.44459 0.31268,1.76237 4.37751,0.88119 6.19674,-0.62536 1.13701,-0.96646 -1.96136,-0.96646 -0.93804,-2.0182 2.55829,-2.58672 4.83232,-1.16545 5.77036,-3.55318 0.51165,-1.27914 -3.86586,-2.18876 -2.70042,-3.01309 2.78569,-1.96136 13.01884,-2.95625 8.30022,-7.67486 L 26.56046,10.687956 c -1.50654,-1.4212708 -3.97956,-1.4212708 -5.3724,0 z m 13.44522,23.10986 c 0,0.59693 4.63334,0.93804 4.37751,-0.14213 -0.36953,-1.81922 -3.86585,-1.6771 -4.37751,0.14213 z m -19.75566,3.15522 c 1.05174,0.90961 2.64356,-0.19898 3.15522,-1.47812 -1.02332,-1.33599 -4.8039,0.0853 -3.15522,1.47812 z m 19.18715,-1.9045 c -1.30757,1.19387 0.2274,2.44458 1.50655,1.62025 0.3411,-0.22741 -0.0284,-1.336 -1.50655,-1.62025 z"
     inkscape:connector-curvature="0" />
  <path
     sodipodi:nodetypes="ccccccccc"
     style="opacity:1;fill:url(#linearGradient10968);fill-opacity:1;stroke:none"
     id="path10940"
     d="m 9.9921901,24.175786 c -0.0156,0.11718 -0.0273,0.57422 0.008,0.65625 0.0214,0.12099 0.10965,0.20255 0.16804,0.21853 l 5.83196,1.94399 c 0.15234,0.0469 0.90234,0.14063 1,0 l 9,-15 c -1.34827,-1.37695 -2.76649,-1.2622 -4,0 l -11.89335,11.89335 c -0.085,0.0803 -0.1148399,0.20705 -0.1144699,0.28788 z"
     inkscape:connector-curvature="0" />
  <path
     sodipodi:nodetypes="cccccccccccccc"
     style="fill:url(#linearGradient10970)"
     id="path10942"
     d="m 31,16.994556 0,1 -1,0 -2,-2 0,3 -2,-2 -3,3 -1,-4 -2,3 -4,0 0,-1 7,-7 c 0.17969,-0.27344 1.75782,-0.21875 2,0 z"
     inkscape:connector-curvature="0" />
  <path
     style="opacity:1;fill:#f5f5f5;fill-opacity:1;fill-rule:evenodd;stroke:none"
     id="path10944"
     d="m 19.04297,36.943776 c 0.0352,0.0547 0.80078,0.0508 0.80078,0.0508 0.17578,0.008 0.56522,0.40897 0.56522,0.40897 l 2.25196,2.25196 c 0.32542,0.41078 0.48906,0.28898 0.97189,0.33907 l 2.36718,0 c 0.31116,0.0222 0.72466,-0.42115 0.91641,-0.72499 0.16281,-0.17255 -0.0107,-0.29725 -0.22091,-0.29344 -0.73262,-0.0163 -2.57659,0.004 -3.34787,0.0138 -0.26047,0.0189 -0.49884,-0.13302 -0.6242,-0.27196 l -2.21781,-2.21781 c 0,0 -0.39618,-0.45484 -0.63453,-0.45484 -0.32296,0 -0.85937,0.83985 -0.82812,0.89844 z"
     inkscape:connector-curvature="0"
     sodipodi:nodetypes="cccccccccccsc" />
  <path
     style="opacity:1;fill:#bfbfbf;fill-opacity:1;fill-rule:evenodd;stroke:none"
     id="path10946"
     d="m 34,28.994556 c 0.26346,-0.10826 0.59926,-0.82492 1.04688,-0.875 0.31844,-0.0356 0.69886,0.10445 1,-0.0391 0.43478,-0.20721 0.52991,-0.89523 0.98437,-0.96875 0.3262,-0.0528 0.88628,-0.0201 0.95313,-0.19531 0.0787,-0.20622 0.15264,-0.52069 0.0156,-0.73438 -0.17399,-0.27135 -0.58078,0.67587 -1.02343,0.71094 -0.32455,0.0257 -0.65891,-0.12394 -0.97657,-0.0156 -0.45492,0.15512 -0.58801,1.01446 -1.03125,1.00781 -0.65718,-0.01 -1.35641,-0.0434 -1.96875,0.10938 -0.3158,0.0788 -1.17439,0.79749 -1,1 0.16247,0.18866 1.38337,0.25339 2,0 z"
     inkscape:connector-curvature="0"
     sodipodi:nodetypes="ssssssssssss" />
  <path
     style="opacity:1;fill:#bfbfbf;fill-opacity:1;fill-rule:evenodd;stroke:none"
     id="path10948"
     d="m 18,28.994556 c -0.24306,0.011 0.60226,0.9779 1,1 0,0 2.85637,0.0884 3,0 0.22098,-0.11049 -0.52491,-0.98895 -1,-1 -0.91161,-0.0331 -1.96685,-0.0663 -3,0 z"
     inkscape:connector-curvature="0"
     sodipodi:nodetypes="ccccc" />
  <path
     style="opacity:1;fill:#bfbfbf;fill-opacity:1;fill-rule:evenodd;stroke:none"
     id="path10950"
     d="m 31,34.994556 c -0.13527,0.0541 -0.56282,0.0333 -0.81293,0.0153 -0.51661,0.18619 -0.91161,0.98926 -1.3355,0.98466 l -1.58617,0 c -0.31707,0.0236 -0.18607,-0.0996 -0.11908,-0.20527 0.24212,-0.36181 0.4856,-0.78369 0.96306,-0.79473 l 0.72656,0 c 0.37625,-0.004 0.93003,-1.04289 1.38301,-1.02365 0.24487,-0.0222 0.62729,-0.043 0.78105,0.0236 0.125,0.10156 0.14844,0.89062 0,1 z"
     inkscape:connector-curvature="0"
     sodipodi:nodetypes="cccccccccc" />
  <path
     style="display:inline;overflow:visible;visibility:visible;opacity:1;fill:#f5f5f5;fill-opacity:1;fill-rule:nonzero;stroke:none;stroke-width:2.04789329;marker:none;enable-background:accumulate"
     id="path10952"
     d="m 14.87446,29.994556 c -0.0994,-0.0166 -0.54829,-0.0312 -0.68501,0 -0.16601,0.0229 -0.24905,0.062 -0.32396,0.13451 l -0.69606,0.69606 c -0.19835,0.18808 0.004,0.17352 0.0754,0.16943 l 0.65739,0 c 0.2747,0.0135 0.97218,1.00184 1.20981,1 l 0.70832,0 c 0.43312,0.003 0.88432,0.88647 1.32031,1 0.30469,0.0781 1.57031,0.0937 1.85937,0 0.32032,-0.0391 -0.65625,-0.94531 -0.94531,-0.94531 -0.22656,-0.0625 -0.91406,-0.0547 -0.91406,-0.0547 -0.37422,-0.0167 -0.82448,-1.00059 -1.27344,-1 l -0.74414,0 c -0.0729,-0.001 -0.13132,-0.0186 -0.12305,-0.12721 0.0195,-0.14063 0.0352,-0.71023 0,-0.78445 -0.0217,-0.0496 -0.0485,-0.0711 -0.12554,-0.0883 z"
     inkscape:connector-curvature="0"
     sodipodi:nodetypes="ccccccccccccccccc" />
  <path
     sodipodi:nodetypes="sssss"
     inkscape:connector-curvature="0"
     d="m 15,35.994556 c -0.1535,-0.1793 -0.0884,-0.92671 0,-1 0.28434,-0.2357 0.83887,-0.11038 1,0 0.10033,0.0687 0.10245,0.92905 0,1.00001 -0.12667,0.0877 -0.9177,0.0961 -1,-10e-6 z"
     id="path10954"
     style="opacity:1;fill:#f5f5f5;fill-opacity:1;fill-rule:evenodd;stroke:none" />
  <path
     style="opacity:1;fill:#f5f5f5;fill-opacity:1;fill-rule:evenodd;stroke:none"
     id="path10956"
     d="m 33,36.994556 c 0.19532,0.17187 0.76563,0.17187 1,0 0.16407,-0.14062 0.22657,-0.65625 0,-1 -0.0781,-0.14062 -0.69531,-0.20312 -1,10e-6 -0.16406,0.17187 -0.11718,0.73436 0,0.99999 z"
     inkscape:connector-curvature="0"
     sodipodi:nodetypes="ccccc" />
  <path
     sodipodi:nodetypes="ccccc"
     inkscape:connector-curvature="0"
     d="m 36,32.994556 c 0.0937,-0.0859 0.69532,-0.20312 1,0 0.20993,0.14916 0.29688,0.67969 0,1 -0.15234,0.13672 -0.79687,0.14063 -0.94531,-0.039 -0.10937,-0.14844 -0.21875,-0.77345 -0.0547,-0.96095 z"
     id="path10958"
     style="opacity:1;fill:#f5f5f5;fill-opacity:1;fill-rule:evenodd;stroke:none" />
</svg>
