<?xml version="1.0" encoding="UTF-8" standalone="no"?>
<svg xmlns:rdf="http://www.w3.org/1999/02/22-rdf-syntax-ns#" xmlns="http://www.w3.org/2000/svg" height="48" width="48" version="1.1" xmlns:cc="http://creativecommons.org/ns#" xmlns:xlink="http://www.w3.org/1999/xlink" xmlns:dc="http://purl.org/dc/elements/1.1/">
 <defs>
  <radialGradient id="c" gradientUnits="userSpaceOnUse" cy="43.5" cx="4.993" gradientTransform="matrix(2.0038 0 0 1.4 27.988 -17.4)" r="2.5">
   <stop stop-color="#181818" offset="0"/>
   <stop stop-color="#181818" stop-opacity="0" offset="1"/>
  </radialGradient>
  <radialGradient id="b" gradientUnits="userSpaceOnUse" cy="43.5" cx="4.993" gradientTransform="matrix(2.0038 0 0 1.4 -20.012 -104.4)" r="2.5">
   <stop stop-color="#181818" offset="0"/>
   <stop stop-color="#181818" stop-opacity="0" offset="1"/>
  </radialGradient>
  <linearGradient id="d" y2="39.999" gradientUnits="userSpaceOnUse" x2="25.058" y1="47.028" x1="25.058">
   <stop stop-color="#181818" stop-opacity="0" offset="0"/>
   <stop stop-color="#181818" offset=".5"/>
   <stop stop-color="#181818" stop-opacity="0" offset="1"/>
  </linearGradient>
  <linearGradient id="f" y2="5.1758" gradientUnits="userSpaceOnUse" x2="-95.838" gradientTransform="matrix(.80750 0 0 .83374 106.88 -.069851)" y1="54.2" x1="-95.838">
   <stop stop-opacity=".32174" offset="0"/>
   <stop stop-opacity=".27826" offset="1"/>
  </linearGradient>
  <linearGradient id="e" y2="43" gradientUnits="userSpaceOnUse" x2="24" gradientTransform="translate(.000004 1)" y1="5" x1="24">
   <stop stop-color="#fff" offset="0"/>
   <stop stop-color="#fff" stop-opacity=".23529" offset=".063165"/>
   <stop stop-color="#fff" stop-opacity=".15686" offset=".95056"/>
   <stop stop-color="#fff" stop-opacity=".39216" offset="1"/>
  </linearGradient>
  <radialGradient id="a" gradientUnits="userSpaceOnUse" cy="4.3419" cx="32" gradientTransform="matrix(0 1.6258 -1.6258 0 31.059 -46.135)" r="27.5">
   <stop stop-color="#fafafa" offset="0"/>
   <stop stop-color="#e1e1e1" offset="1"/>
  </radialGradient>
 </defs>
 <g opacity=".4" transform="matrix(1.1579 0 0 .64286 -3.7895 16.036)">
  <rect height="7" width="5" y="40" x="38" fill="url(#c)"/>
  <rect transform="scale(-1)" height="7" width="5" y="-47" x="-10" fill="url(#b)"/>
  <rect height="7" width="28" y="40" x="10" fill="url(#d)"/>
 </g>
 <rect style="color:#000000" rx="1.5" ry="1.5" height="38" width="38" y="6" x="5" fill="url(#a)"/>
 <rect stroke-linejoin="round" rx="1" ry="1" height="37" width="37" stroke="url(#e)" stroke-linecap="round" y="6.5" x="5.5" fill="none"/>
 <rect opacity=".8" style="color:#000000" rx="2" ry="2" height="39" width="39" stroke="url(#f)" y="5.5" x="4.5" fill="none"/>
 <text opacity=".8" xml:space="preserve" font-size="12.666px" y="10.722242" x="930.43976" font-family="Bitstream Vera Sans" fill="#000000"><tspan y="10.722242" x="930.43976"/></text>
 <text opacity=".8" xml:space="preserve" font-size="12.666px" y="-30.019464" x="954.4007" font-family="Bitstream Vera Sans" fill="#000000"><tspan y="-30.019464" x="954.4007"/></text>
 <text opacity=".8" xml:space="preserve" font-size="12.666px" y="-60.097607" x="-516.15765" font-family="Bitstream Vera Sans" fill="#000000"><tspan y="-60.097607" x="-516.15765"/></text>
 <text opacity=".8" xml:space="preserve" font-size="12.666px" y="685.45587" x="-2339.8438" font-family="Bitstream Vera Sans" fill="#000000"><tspan y="685.45587" x="-2339.8438"/></text>
 <text opacity=".8" xml:space="preserve" font-size="12.666px" y="-445.41858" x="-401.66656" font-family="Bitstream Vera Sans" fill="#000000"><tspan y="-445.41858" x="-401.66656"/></text>
 <text opacity=".8" xml:space="preserve" font-size="12.666px" y="-858.88867" x="405.93558" font-family="Bitstream Vera Sans" fill="#000000"><tspan y="-858.88867" x="405.93558"/></text>
 <text opacity=".8" xml:space="preserve" font-size="12.666px" y="-899.63037" x="429.89651" font-family="Bitstream Vera Sans" fill="#000000"><tspan y="-899.63037" x="429.89651"/></text>
 <text opacity=".8" xml:space="preserve" font-size="12.666px" y="-906.84027" x="-1061.5667" font-family="Bitstream Vera Sans" fill="#000000"><tspan y="-906.84027" x="-1061.5667"/></text>
 <text opacity=".8" xml:space="preserve" font-size="12.666px" y="-1180.0745" x="398.9761" font-family="Bitstream Vera Sans" fill="#000000"><tspan y="-1180.0745" x="398.9761"/></text>
 <text opacity=".8" xml:space="preserve" font-size="12.666px" y="-553.38306" x="1885.0996" font-family="Bitstream Vera Sans" fill="#000000"><tspan y="-553.38306" x="1885.0996"/></text>
 <text opacity=".8" xml:space="preserve" font-size="12.666px" y="-594.12482" x="1909.0604" font-family="Bitstream Vera Sans" fill="#000000"><tspan y="-594.12482" x="1909.0604"/></text>
 <text opacity=".8" xml:space="preserve" font-size="12.666px" y="-601.33472" x="417.59726" font-family="Bitstream Vera Sans" fill="#000000"><tspan y="-601.33472" x="417.59726"/></text>
 <text opacity=".8" xml:space="preserve" font-size="12.666px" y="-874.56873" x="1878.1401" font-family="Bitstream Vera Sans" fill="#000000"><tspan y="-874.56873" x="1878.1401"/></text>
 <text opacity=".8" xml:space="preserve" font-size="12.666px" y="-649.42603" x="-520.21906" font-family="Bitstream Vera Sans" fill="#000000"><tspan y="-649.42603" x="-520.21906"/></text>
 <text opacity=".8" xml:space="preserve" font-size="12.666px" y="96.127502" x="-2343.9048" font-family="Bitstream Vera Sans" fill="#000000"><tspan y="96.127502" x="-2343.9048"/></text>
 <text opacity=".8" xml:space="preserve" font-size="12.666px" y="188.99963" x="-629.14929" font-family="Bitstream Vera Sans" fill="#000000"><tspan y="188.99963" x="-629.14929"/></text>
 <text opacity=".8" xml:space="preserve" font-size="12.666px" y="9.8174934" x="479.87503" font-family="Bitstream Vera Sans" fill="#000000"><tspan y="9.8174934" x="479.87503"/></text>
 <text opacity=".8" xml:space="preserve" font-size="12.666px" y="-30.924213" x="503.83597" font-family="Bitstream Vera Sans" fill="#000000"><tspan y="-30.924213" x="503.83597"/></text>
 <text opacity=".8" xml:space="preserve" font-size="12.666px" y="-38.134186" x="-987.62726" font-family="Bitstream Vera Sans" fill="#000000"><tspan y="-38.134186" x="-987.62726"/></text>
 <text opacity=".8" xml:space="preserve" font-size="12.666px" y="-311.36826" x="472.91556" font-family="Bitstream Vera Sans" fill="#000000"><tspan y="-311.36826" x="472.91556"/></text>
 <text opacity=".8" xml:space="preserve" font-size="12.666px" y="-40.848431" x="-554.81903" font-family="Bitstream Vera Sans" fill="#000000"><tspan y="-40.848431" x="-554.81903"/></text>
 <text opacity=".8" xml:space="preserve" font-size="12.666px" y="704.70508" x="-2378.5051" font-family="Bitstream Vera Sans" fill="#000000"><tspan y="704.70508" x="-2378.5051"/></text>
 <text opacity=".8" xml:space="preserve" font-size="12.666px" y="-902.37891" x="-403.72598" font-family="Bitstream Vera Sans" fill="#000000"><tspan y="-902.37891" x="-403.72598"/></text>
 <text opacity=".8" xml:space="preserve" font-size="12.666px" y="-1315.8491" x="403.87616" font-family="Bitstream Vera Sans" fill="#000000"><tspan y="-1315.8491" x="403.87616"/></text>
 <text opacity=".8" xml:space="preserve" font-size="12.666px" y="-1356.5908" x="427.83707" font-family="Bitstream Vera Sans" fill="#000000"><tspan y="-1356.5908" x="427.83707"/></text>
 <text opacity=".8" xml:space="preserve" font-size="12.666px" y="-1363.8008" x="-1063.6261" font-family="Bitstream Vera Sans" fill="#000000"><tspan y="-1363.8008" x="-1063.6261"/></text>
 <text opacity=".8" xml:space="preserve" font-size="12.666px" y="-1637.0349" x="396.91666" font-family="Bitstream Vera Sans" fill="#000000"><tspan y="-1637.0349" x="396.91666"/></text>
 <text opacity=".8" xml:space="preserve" font-size="12.666px" y="-1010.3436" x="1883.04" font-family="Bitstream Vera Sans" fill="#000000"><tspan y="-1010.3436" x="1883.04"/></text>
 <text opacity=".8" xml:space="preserve" font-size="12.666px" y="-1051.0852" x="1907.0009" font-family="Bitstream Vera Sans" fill="#000000"><tspan y="-1051.0852" x="1907.0009"/></text>
 <text opacity=".8" xml:space="preserve" font-size="12.666px" y="-1058.2952" x="415.53781" font-family="Bitstream Vera Sans" fill="#000000"><tspan y="-1058.2952" x="415.53781"/></text>
 <text opacity=".8" xml:space="preserve" font-size="12.666px" y="-1331.5293" x="1876.0806" font-family="Bitstream Vera Sans" fill="#000000"><tspan y="-1331.5293" x="1876.0806"/></text>
 <text opacity=".8" xml:space="preserve" font-size="12.666px" y="-1106.3865" x="-522.2785" font-family="Bitstream Vera Sans" fill="#000000"><tspan y="-1106.3865" x="-522.2785"/></text>
 <text opacity=".8" xml:space="preserve" font-size="12.666px" y="-360.83298" x="-2345.9644" font-family="Bitstream Vera Sans" fill="#000000"><tspan y="-360.83298" x="-2345.9644"/></text>
 <text opacity=".8" xml:space="preserve" font-size="12.666px" y="-267.96082" x="-631.20874" font-family="Bitstream Vera Sans" fill="#000000"><tspan y="-267.96082" x="-631.20874"/></text>
 <text opacity=".8" xml:space="preserve" font-size="12.666px" y="-27.046637" x="208.80579" font-family="Bitstream Vera Sans" fill="#000000"><tspan y="-27.046637" x="208.80579"/></text>
 <text opacity=".8" xml:space="preserve" font-size="12.666px" y="-67.788353" x="232.76672" font-family="Bitstream Vera Sans" fill="#000000"><tspan y="-67.788353" x="232.76672"/></text>
 <text opacity=".8" xml:space="preserve" font-size="12.666px" y="-261.81699" x="-1037.0499" font-family="Bitstream Vera Sans" fill="#000000"><tspan y="-261.81699" x="-1037.0499"/></text>
 <text opacity=".8" xml:space="preserve" font-size="12.666px" y="-675.28711" x="-229.44791" font-family="Bitstream Vera Sans" fill="#000000"><tspan y="-675.28711" x="-229.44791"/></text>
 <text opacity=".8" xml:space="preserve" font-size="12.666px" y="-716.02881" x="-205.48698" font-family="Bitstream Vera Sans" fill="#000000"><tspan y="-716.02881" x="-205.48698"/></text>
 <text opacity=".8" xml:space="preserve" font-size="12.666px" y="-723.23871" x="-1696.9501" font-family="Bitstream Vera Sans" fill="#000000"><tspan y="-723.23871" x="-1696.9501"/></text>
 <text opacity=".8" xml:space="preserve" font-size="12.666px" y="-996.47284" x="-236.40735" font-family="Bitstream Vera Sans" fill="#000000"><tspan y="-996.47284" x="-236.40735"/></text>
 <text opacity=".8" xml:space="preserve" font-size="12.666px" y="-369.78149" x="1249.7161" font-family="Bitstream Vera Sans" fill="#000000"><tspan y="-369.78149" x="1249.7161"/></text>
 <text opacity=".8" xml:space="preserve" font-size="12.666px" y="-410.52322" x="1273.6769" font-family="Bitstream Vera Sans" fill="#000000"><tspan y="-410.52322" x="1273.6769"/></text>
 <text opacity=".8" xml:space="preserve" font-size="12.666px" y="-417.73318" x="-217.78624" font-family="Bitstream Vera Sans" fill="#000000"><tspan y="-417.73318" x="-217.78624"/></text>
 <text opacity=".8" xml:space="preserve" font-size="12.666px" y="-690.96722" x="1242.7566" font-family="Bitstream Vera Sans" fill="#000000"><tspan y="-690.96722" x="1242.7566"/></text>
 <text opacity=".8" xml:space="preserve" font-size="12.666px" y="-465.82446" x="-1155.6025" font-family="Bitstream Vera Sans" fill="#000000"><tspan y="-465.82446" x="-1155.6025"/></text>
 <text opacity=".8" xml:space="preserve" font-size="12.666px" y="279.7291" x="-2979.2883" font-family="Bitstream Vera Sans" fill="#000000"><tspan y="279.7291" x="-2979.2883"/></text>
 <g transform="matrix(.90475 0 0 .90475 -663.53 -676.38)">
  <text opacity=".8" xml:space="preserve" font-size="14px" y="1159.4154" x="-664.2738" font-family="Bitstream Vera Sans" fill="#000000"><tspan y="1159.4154" x="-664.2738"/></text>
 </g>
 <text opacity=".8" xml:space="preserve" font-size="12.666px" y="17.96023" x="930.43976" font-family="Bitstream Vera Sans" fill="#000000"><tspan y="17.96023" x="930.43976"/></text>
 <text opacity=".8" xml:space="preserve" font-size="12.666px" y="-22.781475" x="954.4007" font-family="Bitstream Vera Sans" fill="#000000"><tspan y="-22.781475" x="954.4007"/></text>
 <text opacity=".8" xml:space="preserve" font-size="12.666px" y="-52.859619" x="-516.15765" font-family="Bitstream Vera Sans" fill="#000000"><tspan y="-52.859619" x="-516.15765"/></text>
 <text opacity=".8" xml:space="preserve" font-size="12.666px" y="692.69385" x="-2339.8438" font-family="Bitstream Vera Sans" fill="#000000"><tspan y="692.69385" x="-2339.8438"/></text>
 <text opacity=".8" xml:space="preserve" font-size="12.666px" y="-438.18057" x="-401.66656" font-family="Bitstream Vera Sans" fill="#000000"><tspan y="-438.18057" x="-401.66656"/></text>
 <text opacity=".8" xml:space="preserve" font-size="12.666px" y="-851.65063" x="405.93558" font-family="Bitstream Vera Sans" fill="#000000"><tspan y="-851.65063" x="405.93558"/></text>
 <text opacity=".8" xml:space="preserve" font-size="12.666px" y="-892.3924" x="429.89651" font-family="Bitstream Vera Sans" fill="#000000"><tspan y="-892.3924" x="429.89651"/></text>
 <text opacity=".8" xml:space="preserve" font-size="12.666px" y="-899.60229" x="-1061.5667" font-family="Bitstream Vera Sans" fill="#000000"><tspan y="-899.60229" x="-1061.5667"/></text>
 <text opacity=".8" xml:space="preserve" font-size="12.666px" y="-1172.8364" x="398.9761" font-family="Bitstream Vera Sans" fill="#000000"><tspan y="-1172.8364" x="398.9761"/></text>
 <text opacity=".8" xml:space="preserve" font-size="12.666px" y="-546.14508" x="1885.0996" font-family="Bitstream Vera Sans" fill="#000000"><tspan y="-546.14508" x="1885.0996"/></text>
 <text opacity=".8" xml:space="preserve" font-size="12.666px" y="-586.88684" x="1909.0604" font-family="Bitstream Vera Sans" fill="#000000"><tspan y="-586.88684" x="1909.0604"/></text>
 <text opacity=".8" xml:space="preserve" font-size="12.666px" y="-594.09674" x="417.59726" font-family="Bitstream Vera Sans" fill="#000000"><tspan y="-594.09674" x="417.59726"/></text>
 <text opacity=".8" xml:space="preserve" font-size="12.666px" y="-867.33069" x="1878.1401" font-family="Bitstream Vera Sans" fill="#000000"><tspan y="-867.33069" x="1878.1401"/></text>
 <text opacity=".8" xml:space="preserve" font-size="12.666px" y="-642.18805" x="-520.21906" font-family="Bitstream Vera Sans" fill="#000000"><tspan y="-642.18805" x="-520.21906"/></text>
 <text opacity=".8" xml:space="preserve" font-size="12.666px" y="103.36549" x="-2343.9048" font-family="Bitstream Vera Sans" fill="#000000"><tspan y="103.36549" x="-2343.9048"/></text>
 <text opacity=".8" xml:space="preserve" font-size="12.666px" y="196.23763" x="-629.14929" font-family="Bitstream Vera Sans" fill="#000000"><tspan y="196.23763" x="-629.14929"/></text>
 <text opacity=".8" xml:space="preserve" font-size="12.666px" y="17.055481" x="479.87503" font-family="Bitstream Vera Sans" fill="#000000"><tspan y="17.055481" x="479.87503"/></text>
 <text opacity=".8" xml:space="preserve" font-size="12.666px" y="-23.686224" x="503.83597" font-family="Bitstream Vera Sans" fill="#000000"><tspan y="-23.686224" x="503.83597"/></text>
 <text opacity=".8" xml:space="preserve" font-size="12.666px" y="-30.896194" x="-987.62726" font-family="Bitstream Vera Sans" fill="#000000"><tspan y="-30.896194" x="-987.62726"/></text>
 <text opacity=".8" xml:space="preserve" font-size="12.666px" y="-304.13025" x="472.91556" font-family="Bitstream Vera Sans" fill="#000000"><tspan y="-304.13025" x="472.91556"/></text>
 <text opacity=".8" xml:space="preserve" font-size="12.666px" y="-33.610439" x="-554.81903" font-family="Bitstream Vera Sans" fill="#000000"><tspan y="-33.610439" x="-554.81903"/></text>
 <text opacity=".8" xml:space="preserve" font-size="12.666px" y="711.94312" x="-2378.5051" font-family="Bitstream Vera Sans" fill="#000000"><tspan y="711.94312" x="-2378.5051"/></text>
 <text opacity=".8" xml:space="preserve" font-size="12.666px" y="-895.14093" x="-403.72598" font-family="Bitstream Vera Sans" fill="#000000"><tspan y="-895.14093" x="-403.72598"/></text>
 <text opacity=".8" xml:space="preserve" font-size="12.666px" y="-1308.6111" x="403.87616" font-family="Bitstream Vera Sans" fill="#000000"><tspan y="-1308.6111" x="403.87616"/></text>
 <text opacity=".8" xml:space="preserve" font-size="12.666px" y="-1349.3529" x="427.83707" font-family="Bitstream Vera Sans" fill="#000000"><tspan y="-1349.3529" x="427.83707"/></text>
 <text opacity=".8" xml:space="preserve" font-size="12.666px" y="-1356.5627" x="-1063.6261" font-family="Bitstream Vera Sans" fill="#000000"><tspan y="-1356.5627" x="-1063.6261"/></text>
 <text opacity=".8" xml:space="preserve" font-size="12.666px" y="-1629.7969" x="396.91666" font-family="Bitstream Vera Sans" fill="#000000"><tspan y="-1629.7969" x="396.91666"/></text>
 <text opacity=".8" xml:space="preserve" font-size="12.666px" y="-1003.1056" x="1883.04" font-family="Bitstream Vera Sans" fill="#000000"><tspan y="-1003.1056" x="1883.04"/></text>
 <text opacity=".8" xml:space="preserve" font-size="12.666px" y="-1043.8473" x="1907.0009" font-family="Bitstream Vera Sans" fill="#000000"><tspan y="-1043.8473" x="1907.0009"/></text>
 <text opacity=".8" xml:space="preserve" font-size="12.666px" y="-1051.0571" x="415.53781" font-family="Bitstream Vera Sans" fill="#000000"><tspan y="-1051.0571" x="415.53781"/></text>
 <text opacity=".8" xml:space="preserve" font-size="12.666px" y="-1324.2913" x="1876.0806" font-family="Bitstream Vera Sans" fill="#000000"><tspan y="-1324.2913" x="1876.0806"/></text>
 <text opacity=".8" xml:space="preserve" font-size="12.666px" y="-1099.1484" x="-522.2785" font-family="Bitstream Vera Sans" fill="#000000"><tspan y="-1099.1484" x="-522.2785"/></text>
 <text opacity=".8" xml:space="preserve" font-size="12.666px" y="-353.59497" x="-2345.9644" font-family="Bitstream Vera Sans" fill="#000000"><tspan y="-353.59497" x="-2345.9644"/></text>
 <text opacity=".8" xml:space="preserve" font-size="12.666px" y="-260.72281" x="-631.20874" font-family="Bitstream Vera Sans" fill="#000000"><tspan y="-260.72281" x="-631.20874"/></text>
 <text opacity=".8" xml:space="preserve" font-size="12.666px" y="-19.808649" x="208.80579" font-family="Bitstream Vera Sans" fill="#000000"><tspan y="-19.808649" x="208.80579"/></text>
 <text opacity=".8" xml:space="preserve" font-size="12.666px" y="-60.550369" x="232.76672" font-family="Bitstream Vera Sans" fill="#000000"><tspan y="-60.550369" x="232.76672"/></text>
 <text opacity=".8" xml:space="preserve" font-size="12.666px" y="-254.57896" x="-1037.0499" font-family="Bitstream Vera Sans" fill="#000000"><tspan y="-254.57896" x="-1037.0499"/></text>
 <text opacity=".8" xml:space="preserve" font-size="12.666px" y="-668.04913" x="-229.44791" font-family="Bitstream Vera Sans" fill="#000000"><tspan y="-668.04913" x="-229.44791"/></text>
 <text opacity=".8" xml:space="preserve" font-size="12.666px" y="-708.79083" x="-205.48698" font-family="Bitstream Vera Sans" fill="#000000"><tspan y="-708.79083" x="-205.48698"/></text>
 <text opacity=".8" xml:space="preserve" font-size="12.666px" y="-716.00079" x="-1696.9501" font-family="Bitstream Vera Sans" fill="#000000"><tspan y="-716.00079" x="-1696.9501"/></text>
 <text opacity=".8" xml:space="preserve" font-size="12.666px" y="-989.2348" x="-236.40735" font-family="Bitstream Vera Sans" fill="#000000"><tspan y="-989.2348" x="-236.40735"/></text>
 <text opacity=".8" xml:space="preserve" font-size="12.666px" y="-362.54352" x="1249.7161" font-family="Bitstream Vera Sans" fill="#000000"><tspan y="-362.54352" x="1249.7161"/></text>
 <text opacity=".8" xml:space="preserve" font-size="12.666px" y="-403.28525" x="1273.6769" font-family="Bitstream Vera Sans" fill="#000000"><tspan y="-403.28525" x="1273.6769"/></text>
 <text opacity=".8" xml:space="preserve" font-size="12.666px" y="-410.49518" x="-217.78624" font-family="Bitstream Vera Sans" fill="#000000"><tspan y="-410.49518" x="-217.78624"/></text>
 <text opacity=".8" xml:space="preserve" font-size="12.666px" y="-683.72925" x="1242.7566" font-family="Bitstream Vera Sans" fill="#000000"><tspan y="-683.72925" x="1242.7566"/></text>
 <text opacity=".8" xml:space="preserve" font-size="12.666px" y="-458.58646" x="-1155.6025" font-family="Bitstream Vera Sans" fill="#000000"><tspan y="-458.58646" x="-1155.6025"/></text>
 <text opacity=".8" xml:space="preserve" font-size="12.666px" y="286.96707" x="-2979.2883" font-family="Bitstream Vera Sans" fill="#000000"><tspan y="286.96707" x="-2979.2883"/></text>
 <g transform="matrix(.90475 0 0 .90475 -663.53 -669.14)">
  <text opacity=".8" xml:space="preserve" font-size="14px" y="1159.4154" x="-664.2738" font-family="Bitstream Vera Sans" fill="#000000"><tspan y="1159.4154" x="-664.2738"/></text>
 </g>
 <text xml:space="preserve" font-size="12.666px" y="-361.31583" x="489.11777" font-family="Droid Sans" fill="#000000"><tspan y="-361.31583" x="489.11777"/><tspan y="-345.48276" x="489.11777"/></text>
 <text opacity=".8" xml:space="preserve" font-size="12.666px" y="-843.36035" x="954.3017" font-family="Bitstream Vera Sans" fill="#000000"><tspan y="-843.36035" x="954.3017"/></text>
 <text opacity=".8" xml:space="preserve" font-size="12.666px" y="-97.806908" x="-869.38428" font-family="Bitstream Vera Sans" fill="#000000"><tspan y="-97.806908" x="-869.38428"/></text>
 <text opacity=".8" xml:space="preserve" font-size="12.666px" y="-1128.3562" x="1681.3812" font-family="Bitstream Vera Sans" fill="#000000"><tspan y="-1128.3562" x="1681.3812"/></text>
 <text opacity=".8" xml:space="preserve" font-size="12.666px" y="-1169.0979" x="1705.342" font-family="Bitstream Vera Sans" fill="#000000"><tspan y="-1169.0979" x="1705.342"/></text>
 <text opacity=".8" xml:space="preserve" font-size="12.666px" y="-1176.3079" x="213.87891" font-family="Bitstream Vera Sans" fill="#000000"><tspan y="-1176.3079" x="213.87891"/></text>
 <text opacity=".8" xml:space="preserve" font-size="12.666px" y="-1449.542" x="1674.4218" font-family="Bitstream Vera Sans" fill="#000000"><tspan y="-1449.542" x="1674.4218"/></text>
 <g opacity=".05" stroke-linejoin="round" transform="matrix(.062110 0 0 .062358 26.123 24.37)" stroke="#000" stroke-width="32.137">
  <path d="m17.469-230.45c2.6238 12.626 3.9993 25.752 1.123 38.502-3.4988 17.375-13.624 32.5-25.875 45.125-22.124 23-50 39.625-72.625 62.25-8.125 8.5-16.25 17.625-19.875 29-3.625 11.125-1.5 23.375 3.25 33.875 7 15 17.625 27.75 28.875 39.75 10.75 11.375 22.25 22.125 34 32.5-0.33203-0.71485-0.67273-1.4252-1.0215-2.1308-10.811-21.876-29.365-39.502-37.479-62.994-5.125-14.125-3.375-30.125 4.125-43.125 8.875-16 22.75-28.25 36.875-39.625 12.124-9.75 23.75-20.25 33.875-32.125 12.624-14.75 23.375-31.875 27-51.25 3.3775-17.25-0.50055-36.376-12.248-49.752z"/>
  <path d="m80.342-125.57c-28.75 8.25-57.125 19.625-81.375 37.5-15.376 11.5-29.624 27.5-31.75 47.375-2.125 19.875 8.25 38.625 20.625 53.375 6.0012 6.625 11.126 14.75 11.375 24 0.25125 12.375-6.7475 23.875-15.75 32 0.26593-0.0312 0.52152-0.0889 0.76953-0.16602 1.736-0.54003 3.0742-2.084 4.6055-2.959 13.499-8.625 26.499-19.5 33.125-34.375 4.375-10.125 3.3738-22.125-2.375-31.5-6.7512-11-15.624-20.75-20.873-32.75-2.8762-6.75-3.877-14.625-1.502-21.75 3.125-9.625 9.8762-17.5 17-24.375 19.626-18.625 43.376-31.875 66.125-46.375z"/>
  <path d="m113.73 46.991c-2.5127-0.0363-5.0276 0.11133-7.5117 0.43945-7.6275 1-16.001 2.625-21.25 9 0.78125-0.15625 1.5596-0.33276 2.3379-0.51952 5.4478-1.3074 10.847-3.1524 16.535-2.6055 13.626 0.75 27 10.75 29.5 24.5 2.375 11.875-3.3738 23.625-10.75 32.625-12.126 14.5-28.501 24.875-45 33.75-1.6262 0.99875-3 2.2495-4.25 3.627 21.75-5.5013 43.501-13.752 61.125-27.877 9.7488-8.125 18.375-18.875 20.25-31.75 1.7512-11.125-2.8725-22.625-11.125-30-8.125-7.4141-18.973-11.032-29.861-11.189z"/>
  <path d="m-93.158 51.93c-25.126-0.375-50.125 6-73.125 15.875-5.125 2.5-10.874 4.5-15 8.75-1.6245 1.75-1.625 4.75 0.25 6.25 3.75 3.375 8.7505 4.875 13.5 6.25 16.376 4.375 33.25 5.625 50 6.75 15.001 1 30 1.25 45.125 1.125 39-0.625 78.251-3.25 116.5-11.75 3.6262-0.875 7.6244-1.5 10.877-3.75 6.3738-4.125 13.373-7.375 20.248-10.625-31.126 5-62.376 9.25-93.875 11.25-31.875 2-64 3.25-96 1.125-9.1255-0.875-18.501-1.375-27-4.875-2-0.875-4.7505-2.625-3.75-5.25 1.875-3.375 5.625-5 8.875-6.75 13.75-6.5 28.75-10.125 43.375-14.375z"/>
  <path d="m-114.78 110.43c-7.7505 2.75-15.5 5.625-22 10.75-2.7505 2.125-5.5 5.5-4.75 9.25 1.125 4.375 5.375 7 9.125 9 9.2495 4.75 19.625 6.873 29.75 8.748 25.625 4.1262 51.751 4.2513 77.5 2.5 27.251-2.1237 54.374-6.623 80.752-14.373-7.5-3.375-14.628-7.25-20.625-12.875-21.875 3.875-43.878 7.5-66.002 8.625-24.25 1.625-48.5 0.25-72.5-2.25-4.625-0.625-9.2495-1.375-13.375-3.5-2.1245-1.25-4.25-3.25-4.125-5.875 0.2495-4.125 3.75-7 6.25-10z"/>
  <path d="m-102.41 166.68c-7 2-14.125 4.3743-19.875 8.998-2.8755 2.2513-5.125 6.127-3.75 9.752 1.75 4.6238 6.1255 7.3755 10.25 9.748 10.751 5.8763 22.875 8.6264 34.75 10.754 26.875 4.2475 54.499 3.6218 81.25-1.127 13.89-2.625 27.782-6.2087 40.918-11.5 0.93831-0.37795 1.8724-0.7645 2.8027-1.1602 0.93033-0.39565 1.8575-0.79897 2.7793-1.2129-9.6238-4.0025-18.999-8.5012-27.998-13.75-15.625 2.7488-31.378 5.6236-47.377 6.6211-21.125 1.6263-42.5-0.12304-63.625-2.748-5-1.125-11.25-1.627-14.625-6.002-1.75-3.625 2.25-6.2493 4.5-8.373z"/>
  <path d="m-154.33 203.65c-0.61153 0.00028-1.2227 0.01-1.832 0.0254-12.126 0.37625-24 3.5012-35.5 7.375-9.875 3.6262-20 7.6257-27.875 14.877-3.125 2.7488-6 7.9961-2.75 11.746 5 5.3763 12.75 6.7507 19.625 8.377 38.5 6.6238 77.499 10.374 116.5 11.752 51.75 1.4988 103.88-0.75391 154.75-10.754 17.5-3.6225 35.128-7.748 51.125-15.873 5-2.8762 11.126-6.0012 12.752-12 0.87375-5.7488-5.1275-8.75-9.375-11.125 2.6238 3 4.3756 7.3743 1.748 10.873-4.375 5.8763-11.876 8.1257-18.5 10.377-20.749 5.8738-42.251 8.2488-63.625 10.625-56.626 5.1238-113.62 6.3744-170.25 1.627-19-2.0025-38.375-4.1276-56.5-10.879-2.8755-1.25-7.25-2.4993-7.25-6.373 1.125-3.3738 4.3745-5.2488 7.25-6.875 13-6.6262 27.5-10.249 42-11.127-3.7188-2.1875-8.0123-2.6504-12.293-2.6484z"/>
  <path d="m155.34 234.81c-9.375 10-22.872 14.623-35.5 18.998-23.499 7.5-47.875 11.626-72.125 15-41.875 5.2525-84.125 6.875-126.25 5.625-25.625-0.99751-51.25-2.748-76.5-6.998 5.8755 3.9988 13.125 5.248 19.875 7.123 28.376 6.0013 57.5 7.1263 86.375 8 42.374 0.75 84.749-0.87374 126.5-7.5 19.751-3.4975 39.624-7.748 57.375-16.998 9.2512-4.8762 18.628-12.376 20.25-23.25z"/>
 </g>
 <g opacity=".1" transform="matrix(.062110 0 0 .062358 26.123 24.37)">
  <path d="m17.469-230.45c2.6238 12.626 3.9993 25.752 1.123 38.502-3.4988 17.375-13.624 32.5-25.875 45.125-22.124 23-50 39.625-72.625 62.25-8.125 8.5-16.25 17.625-19.875 29-3.625 11.125-1.5 23.375 3.25 33.875 7 15 17.625 27.75 28.875 39.75 10.75 11.375 22.25 22.125 34 32.5-0.33203-0.71485-0.67273-1.4252-1.0215-2.1308-10.811-21.876-29.365-39.502-37.479-62.994-5.125-14.125-3.375-30.125 4.125-43.125 8.875-16 22.75-28.25 36.875-39.625 12.124-9.75 23.75-20.25 33.875-32.125 12.624-14.75 23.375-31.875 27-51.25 3.3775-17.25-0.50055-36.376-12.248-49.752z"/>
  <path d="m80.342-125.57c-28.75 8.25-57.125 19.625-81.375 37.5-15.376 11.5-29.624 27.5-31.75 47.375-2.125 19.875 8.25 38.625 20.625 53.375 6.0012 6.625 11.126 14.75 11.375 24 0.25125 12.375-6.7475 23.875-15.75 32 0.26593-0.0312 0.52152-0.0889 0.76953-0.16602 1.736-0.54003 3.0742-2.084 4.6055-2.959 13.499-8.625 26.499-19.5 33.125-34.375 4.375-10.125 3.3738-22.125-2.375-31.5-6.7512-11-15.624-20.75-20.873-32.75-2.8762-6.75-3.877-14.625-1.502-21.75 3.125-9.625 9.8762-17.5 17-24.375 19.626-18.625 43.376-31.875 66.125-46.375z"/>
  <path d="m113.73 46.991c-2.5127-0.0363-5.0276 0.11133-7.5117 0.43945-7.6275 1-16.001 2.625-21.25 9 0.78125-0.15625 1.5596-0.33276 2.3379-0.51952 5.4478-1.3074 10.847-3.1524 16.535-2.6055 13.626 0.75 27 10.75 29.5 24.5 2.375 11.875-3.3738 23.625-10.75 32.625-12.126 14.5-28.501 24.875-45 33.75-1.6262 0.99875-3 2.2495-4.25 3.627 21.75-5.5013 43.501-13.752 61.125-27.877 9.7488-8.125 18.375-18.875 20.25-31.75 1.7512-11.125-2.8725-22.625-11.125-30-8.125-7.4141-18.973-11.032-29.861-11.189z"/>
  <path d="m-93.158 51.93c-25.126-0.375-50.125 6-73.125 15.875-5.125 2.5-10.874 4.5-15 8.75-1.6245 1.75-1.625 4.75 0.25 6.25 3.75 3.375 8.7505 4.875 13.5 6.25 16.376 4.375 33.25 5.625 50 6.75 15.001 1 30 1.25 45.125 1.125 39-0.625 78.251-3.25 116.5-11.75 3.6262-0.875 7.6244-1.5 10.877-3.75 6.3738-4.125 13.373-7.375 20.248-10.625-31.126 5-62.376 9.25-93.875 11.25-31.875 2-64 3.25-96 1.125-9.1255-0.875-18.501-1.375-27-4.875-2-0.875-4.7505-2.625-3.75-5.25 1.875-3.375 5.625-5 8.875-6.75 13.75-6.5 28.75-10.125 43.375-14.375z"/>
  <path d="m-114.78 110.43c-7.7505 2.75-15.5 5.625-22 10.75-2.7505 2.125-5.5 5.5-4.75 9.25 1.125 4.375 5.375 7 9.125 9 9.2495 4.75 19.625 6.873 29.75 8.748 25.625 4.1262 51.751 4.2513 77.5 2.5 27.251-2.1237 54.374-6.623 80.752-14.373-7.5-3.375-14.628-7.25-20.625-12.875-21.875 3.875-43.878 7.5-66.002 8.625-24.25 1.625-48.5 0.25-72.5-2.25-4.625-0.625-9.2495-1.375-13.375-3.5-2.1245-1.25-4.25-3.25-4.125-5.875 0.2495-4.125 3.75-7 6.25-10z"/>
  <path d="m-102.41 166.68c-7 2-14.125 4.3743-19.875 8.998-2.8755 2.2513-5.125 6.127-3.75 9.752 1.75 4.6238 6.1255 7.3755 10.25 9.748 10.751 5.8763 22.875 8.6264 34.75 10.754 26.875 4.2475 54.499 3.6218 81.25-1.127 13.89-2.625 27.782-6.2087 40.918-11.5 0.93831-0.37795 1.8724-0.7645 2.8027-1.1602 0.93033-0.39565 1.8575-0.79897 2.7793-1.2129-9.6238-4.0025-18.999-8.5012-27.998-13.75-15.625 2.7488-31.378 5.6236-47.377 6.6211-21.125 1.6263-42.5-0.12304-63.625-2.748-5-1.125-11.25-1.627-14.625-6.002-1.75-3.625 2.25-6.2493 4.5-8.373z"/>
  <path d="m-154.33 203.65c-0.61153 0.00028-1.2227 0.01-1.832 0.0254-12.126 0.37625-24 3.5012-35.5 7.375-9.875 3.6262-20 7.6257-27.875 14.877-3.125 2.7488-6 7.9961-2.75 11.746 5 5.3763 12.75 6.7507 19.625 8.377 38.5 6.6238 77.499 10.374 116.5 11.752 51.75 1.4988 103.88-0.75391 154.75-10.754 17.5-3.6225 35.128-7.748 51.125-15.873 5-2.8762 11.126-6.0012 12.752-12 0.87375-5.7488-5.1275-8.75-9.375-11.125 2.6238 3 4.3756 7.3743 1.748 10.873-4.375 5.8763-11.876 8.1257-18.5 10.377-20.749 5.8738-42.251 8.2488-63.625 10.625-56.626 5.1238-113.62 6.3744-170.25 1.627-19-2.0025-38.375-4.1276-56.5-10.879-2.8755-1.25-7.25-2.4993-7.25-6.373 1.125-3.3738 4.3745-5.2488 7.25-6.875 13-6.6262 27.5-10.249 42-11.127-3.7188-2.1875-8.0123-2.6504-12.293-2.6484z"/>
  <path d="m155.34 234.81c-9.375 10-22.872 14.623-35.5 18.998-23.499 7.5-47.875 11.626-72.125 15-41.875 5.2525-84.125 6.875-126.25 5.625-25.625-0.99751-51.25-2.748-76.5-6.998 5.8755 3.9988 13.125 5.248 19.875 7.123 28.376 6.0013 57.5 7.1263 86.375 8 42.374 0.75 84.749-0.87374 126.5-7.5 19.751-3.4975 39.624-7.748 57.375-16.998 9.2512-4.8762 18.628-12.376 20.25-23.25z"/>
 </g>
 <g transform="matrix(.062110 0 0 .062358 26.123 23.37)">
  <path d="m17.469-230.45c2.6238 12.626 3.9993 25.752 1.123 38.502-3.4988 17.375-13.624 32.5-25.875 45.125-22.124 23-50 39.625-72.625 62.25-8.125 8.5-16.25 17.625-19.875 29-3.625 11.125-1.5 23.375 3.25 33.875 7 15 17.625 27.75 28.875 39.75 10.75 11.375 22.25 22.125 34 32.5-0.33203-0.71485-0.67273-1.4252-1.0215-2.1308-10.811-21.876-29.365-39.502-37.479-62.994-5.125-14.125-3.375-30.125 4.125-43.125 8.875-16 22.75-28.25 36.875-39.625 12.124-9.75 23.75-20.25 33.875-32.125 12.624-14.75 23.375-31.875 27-51.25 3.3775-17.25-0.50055-36.376-12.248-49.752z" fill="#e76f00"/>
  <path d="m80.342-125.57c-28.75 8.25-57.125 19.625-81.375 37.5-15.376 11.5-29.624 27.5-31.75 47.375-2.125 19.875 8.25 38.625 20.625 53.375 6.0012 6.625 11.126 14.75 11.375 24 0.25125 12.375-6.7475 23.875-15.75 32 0.26593-0.0312 0.52152-0.0889 0.76953-0.16602 1.736-0.54003 3.0742-2.084 4.6055-2.959 13.499-8.625 26.499-19.5 33.125-34.375 4.375-10.125 3.3738-22.125-2.375-31.5-6.7512-11-15.624-20.75-20.873-32.75-2.8762-6.75-3.877-14.625-1.502-21.75 3.125-9.625 9.8762-17.5 17-24.375 19.626-18.625 43.376-31.875 66.125-46.375z" fill="#e76f00"/>
  <path d="m113.73 46.991c-2.5127-0.0363-5.0276 0.11133-7.5117 0.43945-7.6275 1-16.001 2.625-21.25 9 0.78125-0.15625 1.5596-0.33276 2.3379-0.51952 5.4478-1.3074 10.847-3.1524 16.535-2.6055 13.626 0.75 27 10.75 29.5 24.5 2.375 11.875-3.3738 23.625-10.75 32.625-12.126 14.5-28.501 24.875-45 33.75-1.6262 0.99875-3 2.2495-4.25 3.627 21.75-5.5013 43.501-13.752 61.125-27.877 9.7488-8.125 18.375-18.875 20.25-31.75 1.7512-11.125-2.8725-22.625-11.125-30-8.125-7.4141-18.973-11.032-29.861-11.189z" fill="#5382a1"/>
  <path d="m-93.158 51.93c-25.126-0.375-50.125 6-73.125 15.875-5.125 2.5-10.874 4.5-15 8.75-1.6245 1.75-1.625 4.75 0.25 6.25 3.75 3.375 8.7505 4.875 13.5 6.25 16.376 4.375 33.25 5.625 50 6.75 15.001 1 30 1.25 45.125 1.125 39-0.625 78.251-3.25 116.5-11.75 3.6262-0.875 7.6244-1.5 10.877-3.75 6.3738-4.125 13.373-7.375 20.248-10.625-31.126 5-62.376 9.25-93.875 11.25-31.875 2-64 3.25-96 1.125-9.1255-0.875-18.501-1.375-27-4.875-2-0.875-4.7505-2.625-3.75-5.25 1.875-3.375 5.625-5 8.875-6.75 13.75-6.5 28.75-10.125 43.375-14.375z" fill="#5382a1"/>
  <path d="m-114.78 110.43c-7.7505 2.75-15.5 5.625-22 10.75-2.7505 2.125-5.5 5.5-4.75 9.25 1.125 4.375 5.375 7 9.125 9 9.2495 4.75 19.625 6.873 29.75 8.748 25.625 4.1262 51.751 4.2513 77.5 2.5 27.251-2.1237 54.374-6.623 80.752-14.373-7.5-3.375-14.628-7.25-20.625-12.875-21.875 3.875-43.878 7.5-66.002 8.625-24.25 1.625-48.5 0.25-72.5-2.25-4.625-0.625-9.2495-1.375-13.375-3.5-2.1245-1.25-4.25-3.25-4.125-5.875 0.2495-4.125 3.75-7 6.25-10z" fill="#5382a1"/>
  <path d="m-102.41 166.68c-7 2-14.125 4.3743-19.875 8.998-2.8755 2.2513-5.125 6.127-3.75 9.752 1.75 4.6238 6.1255 7.3755 10.25 9.748 10.751 5.8763 22.875 8.6264 34.75 10.754 26.875 4.2475 54.499 3.6218 81.25-1.127 13.89-2.625 27.782-6.2087 40.918-11.5 0.93831-0.37795 1.8724-0.7645 2.8027-1.1602 0.93033-0.39565 1.8575-0.79897 2.7793-1.2129-9.6238-4.0025-18.999-8.5012-27.998-13.75-15.625 2.7488-31.378 5.6236-47.377 6.6211-21.125 1.6263-42.5-0.12304-63.625-2.748-5-1.125-11.25-1.627-14.625-6.002-1.75-3.625 2.25-6.2493 4.5-8.373z" fill="#5382a1"/>
  <path d="m-154.33 203.65c-0.61153 0.00028-1.2227 0.01-1.832 0.0254-12.126 0.37625-24 3.5012-35.5 7.375-9.875 3.6262-20 7.6257-27.875 14.877-3.125 2.7488-6 7.9961-2.75 11.746 5 5.3763 12.75 6.7507 19.625 8.377 38.5 6.6238 77.499 10.374 116.5 11.752 51.75 1.4988 103.88-0.75391 154.75-10.754 17.5-3.6225 35.128-7.748 51.125-15.873 5-2.8762 11.126-6.0012 12.752-12 0.87375-5.7488-5.1275-8.75-9.375-11.125 2.6238 3 4.3756 7.3743 1.748 10.873-4.375 5.8763-11.876 8.1257-18.5 10.377-20.749 5.8738-42.251 8.2488-63.625 10.625-56.626 5.1238-113.62 6.3744-170.25 1.627-19-2.0025-38.375-4.1276-56.5-10.879-2.8755-1.25-7.25-2.4993-7.25-6.373 1.125-3.3738 4.3745-5.2488 7.25-6.875 13-6.6262 27.5-10.249 42-11.127-3.7188-2.1875-8.0123-2.6504-12.293-2.6484z" fill="#5382a1"/>
  <path d="m155.34 234.81c-9.375 10-22.872 14.623-35.5 18.998-23.499 7.5-47.875 11.626-72.125 15-41.875 5.2525-84.125 6.875-126.25 5.625-25.625-0.99751-51.25-2.748-76.5-6.998 5.8755 3.9988 13.125 5.248 19.875 7.123 28.376 6.0013 57.5 7.1263 86.375 8 42.374 0.75 84.749-0.87374 126.5-7.5 19.751-3.4975 39.624-7.748 57.375-16.998 9.2512-4.8762 18.628-12.376 20.25-23.25z" fill="#5382a1"/>
 </g>
</svg>
