<?xml version="1.0" encoding="UTF-8" standalone="no"?>
<!-- Created with Inkscape (http://www.inkscape.org/) -->

<svg
   xmlns:dc="http://purl.org/dc/elements/1.1/"
   xmlns:cc="http://creativecommons.org/ns#"
   xmlns:rdf="http://www.w3.org/1999/02/22-rdf-syntax-ns#"
   xmlns:svg="http://www.w3.org/2000/svg"
   xmlns="http://www.w3.org/2000/svg"
   xmlns:xlink="http://www.w3.org/1999/xlink"
   xmlns:sodipodi="http://sodipodi.sourceforge.net/DTD/sodipodi-0.dtd"
   xmlns:inkscape="http://www.inkscape.org/namespaces/inkscape"
   version="1.1"
   width="48"
   height="48"
   id="svg3489"
   inkscape:version="0.91 r13725"
   sodipodi:docname="l4d.svg">
  <sodipodi:namedview
     pagecolor="#ffffff"
     bordercolor="#666666"
     borderopacity="1"
     objecttolerance="10"
     gridtolerance="10"
     guidetolerance="10"
     inkscape:pageopacity="0"
     inkscape:pageshadow="2"
     inkscape:window-width="1366"
     inkscape:window-height="745"
     id="namedview154"
     showgrid="true"
     inkscape:zoom="11.313708"
     inkscape:cx="4.5379"
     inkscape:cy="23.487576"
     inkscape:window-x="1672"
     inkscape:window-y="274"
     inkscape:window-maximized="1"
     inkscape:current-layer="svg3489" />
  <defs
     id="defs3491">
    <linearGradient
       id="linearGradient4806">
      <stop
         id="stop4808"
         style="stop-color:#ffffff;stop-opacity:1"
         offset="0" />
      <stop
         id="stop4810"
         style="stop-color:#ffffff;stop-opacity:0.23529412"
         offset="0.42447853" />
      <stop
         id="stop4812"
         style="stop-color:#ffffff;stop-opacity:0.15686275"
         offset="0.82089913" />
      <stop
         id="stop4814"
         style="stop-color:#ffffff;stop-opacity:0.39215687"
         offset="1" />
    </linearGradient>
    <radialGradient
       cx="23.896"
       cy="3.99"
       r="20.396999"
       id="radialGradient3093-0-3-6"
       gradientUnits="userSpaceOnUse"
       gradientTransform="matrix(0,1.2316483,-1.625754,0,18.486966,-28.721977)">
      <stop
         id="stop3244-9-33-7-0"
         style="stop-color:#815a5a;stop-opacity:1;"
         offset="0" />
      <stop
         id="stop3246-3-5-0-8"
         style="stop-color:#593e3e;stop-opacity:1;"
         offset="0.26238" />
      <stop
         id="stop3248-1-7-8-8"
         style="stop-color:#2f2121;stop-opacity:1;"
         offset="0.66093999" />
      <stop
         id="stop3250-9-3-0-5"
         style="stop-color:#150f0f;stop-opacity:1;"
         offset="1" />
    </radialGradient>
    <linearGradient
       id="linearGradient3820-7-2">
      <stop
         id="stop3822-2-6"
         style="stop-color:#3d3d3d;stop-opacity:1"
         offset="0" />
      <stop
         id="stop3864-8-7"
         style="stop-color:#686868;stop-opacity:0.49803922"
         offset="0.5" />
      <stop
         id="stop3824-1-2"
         style="stop-color:#686868;stop-opacity:0"
         offset="1" />
    </linearGradient>
    <linearGradient
       inkscape:collect="always"
       xlink:href="#linearGradient4806"
       id="linearGradient3154"
       gradientUnits="userSpaceOnUse"
       gradientTransform="matrix(2.3268746,0,0,2.3268746,-135.94475,-32.842783)"
       x1="71.204407"
       y1="15.369057"
       x2="71.204407"
       y2="40.495617" />
    <radialGradient
       inkscape:collect="always"
       xlink:href="#radialGradient3093-0-3-6"
       id="radialGradient3158"
       gradientUnits="userSpaceOnUse"
       gradientTransform="matrix(0,4.1566535,-5.4867089,0,53.892518,-97.439545)"
       cx="23.896"
       cy="3.99"
       fx="23.896"
       fy="3.99"
       r="20.396999" />
    <radialGradient
       inkscape:collect="always"
       xlink:href="#linearGradient3820-7-2"
       id="radialGradient3161"
       gradientUnits="userSpaceOnUse"
       gradientTransform="matrix(0.38235362,0,0,0.11948554,-5.913044,34.255311)"
       cx="99.157013"
       cy="186.17059"
       fx="99.157013"
       fy="186.17059"
       r="62.769119" />
    <clipPath
       clipPathUnits="userSpaceOnUse"
       id="clipPath3970">
      <path
         d="m 32,2.4999994 c -16.277082,0 -29.5,13.2229146 -29.5,29.4999976 0,16.277083 13.222918,29.500005 29.5,29.5 16.27708,0 29.50001,-13.222917 29.5,-29.5 C 61.5,15.722914 48.27708,2.4999994 32,2.4999994 z"
         id="path3972"
         style="color:#000000;fill:url(#radialGradient3974);fill-opacity:1;fill-rule:nonzero;stroke:none;stroke-width:0.99999994;marker:none;visibility:visible;display:inline;overflow:visible;enable-background:accumulate"
         inkscape:connector-curvature="0" />
    </clipPath>
    <radialGradient
       inkscape:collect="always"
       xlink:href="#radialGradient3093-0-3-6"
       id="radialGradient3974"
       gradientUnits="userSpaceOnUse"
       gradientTransform="matrix(0,4.1566535,-5.4867089,0,53.892518,-97.439545)"
       cx="23.896"
       cy="3.99"
       fx="23.896"
       fy="3.99"
       r="20.396999" />
  </defs>
  <metadata
     id="metadata3494">
    <rdf:RDF>
      <cc:Work
         rdf:about="">
        <dc:format>image/svg+xml</dc:format>
        <dc:type
           rdf:resource="http://purl.org/dc/dcmitype/StillImage" />
        <dc:title />
      </cc:Work>
    </rdf:RDF>
  </metadata>
  <g
     id="g3976"
     transform="matrix(0.7,0,0,0.7,1.6,1.466084)"
     style="stroke-width:1.42857146;stroke-miterlimit:4;stroke-dasharray:none">
    <path
       d="m 55.999998,56.499998 a 24,7.4999998 0 1 1 -47.999999,0 24,7.4999998 0 1 1 47.999999,0 z"
       id="path3818-0"
       style="fill:url(#radialGradient3161);fill-opacity:1;stroke:none"
       inkscape:connector-curvature="0" />
    <path
       d="m 32,2.4999994 c -16.277082,0 -29.5,13.2229146 -29.5,29.4999976 0,16.277083 13.222918,29.500005 29.5,29.5 16.27708,0 29.50001,-13.222917 29.5,-29.5 C 61.5,15.722914 48.27708,2.4999994 32,2.4999994 z"
       id="path2555-7"
       style="color:#000000;fill:url(#radialGradient3158);fill-opacity:1;fill-rule:nonzero;stroke:none;stroke-width:1.42857146;marker:none;visibility:visible;display:inline;overflow:visible;enable-background:accumulate"
       inkscape:connector-curvature="0" />
    <g
       clip-path="url(#clipPath3970)"
       id="g3955"
       style="stroke-width:1.42857146;stroke-miterlimit:4;stroke-dasharray:none">
      <path
         style="opacity:0.05;fill:#000000;fill-opacity:1;stroke:none"
         d="M 28,5.3125 C 22.832249,5.4294365 23.212348,11.847754 23.53125,15.53125 23.315249,17.175772 24.55524,21.406846 24,21.5 20.71581,18.232064 21.224197,10.605659 15.53125,10.21875 c -5.5514066,-0.218551 -5.069923,7.560821 -2.25,10.53125 2.654502,6.565566 8.499903,12.316031 6.90625,20 -2.639226,2.857851 0.919096,5.675895 -0.8125,9.34375 2.240245,4.106474 0.749677,9.163873 2.84375,13.34375 -0.294933,6.175252 8.110271,5.513046 12.34375,5.5625 3.627529,-0.855285 10.728486,-0.162632 8.15625,-5.6875 -1.697261,-5.44622 0.488032,-10.633589 2.53125,-15.53125 -0.383504,-2.93339 -0.13845,-5.383396 1.84375,-7.71875 1.864584,-2.624414 4.801991,-4.34702 6.40625,-7.15625 1.407642,-2.173073 1.019955,-5.684307 -0.375,-7.75 -2.579447,-2.798713 -7.349816,-0.08338 -6.8125,3.53125 -1.177275,0.753504 -4.601335,3.986071 -3.03125,0.59375 1.940535,-5.026181 3.454342,-10.147513 4.1875,-15.4375 C 47.056309,8.9369171 39.531129,9.3099108 39.0625,14.0625 38.373983,18.151265 35.79299,23.258856 34.96875,26.15625 32.807311,20.196511 32.978919,13.767899 31.875,7.6875 31.233121,6.1743272 29.710407,5.0085478 28,5.3125 z"
         id="path3940"
         inkscape:connector-curvature="0" />
      <g
         id="g3944"
         style="stroke-width:1.42857146;stroke-miterlimit:4;stroke-dasharray:none">
        <path
           sodipodi:nodetypes="cssssssssssssssssssscsssssssssssssssssssssssccsssssssssssssssssssssssssssssssssssscccccccccccccccccsssscc"
           inkscape:connector-curvature="0"
           id="path2987"
           d="m 41.062279,65.734104 c -0.417258,-2.701784 -0.982303,-5.632406 -0.87821,-8.468452 0.04363,-1.188668 0.305201,-2.367809 0.627292,-3.512839 0.358546,-1.274632 0.939453,-2.476318 1.442774,-3.701028 0.320405,-0.779628 1.003668,-2.070067 1.003668,-2.320983 0,-0.250918 0.05491,-1.841701 0,-2.76009 -0.03142,-0.525555 -0.286511,-1.050999 -0.188188,-1.568231 0.221892,-1.167279 1.127973,-2.091601 1.693691,-3.136464 0.396478,-0.73228 0.693642,-1.528281 1.191856,-2.195523 0.654608,-0.876695 1.500743,-1.596891 2.320984,-2.320983 0.536188,-0.473339 1.221686,-0.779955 1.693689,-1.317316 0.544324,-0.619696 0.759187,-1.473333 1.254586,-2.132796 0.310942,-0.413918 0.895868,-0.640317 1.066398,-1.129125 0.24195,-0.693534 0.01096,-1.488517 -0.188188,-2.195526 -0.06339,-0.225021 -0.301393,-0.393835 -0.313646,-0.627292 -0.01874,-0.356815 0.430173,-0.650436 0.376376,-1.003669 -0.07179,-0.47138 -0.467579,-0.886774 -0.87821,-1.129127 -0.346379,-0.204431 -0.795663,-0.257471 -1.191858,-0.188188 -0.470139,0.08221 -0.953283,0.319877 -1.254586,0.690022 -0.359087,0.441133 -0.417254,1.068478 -0.501834,1.630962 -0.06529,0.434223 0,1.317314 0,1.317314 0,0 -0.960118,0.713285 -1.442771,1.066397 -0.604232,0.44206 -1.184176,0.920677 -1.81915,1.317316 -0.602962,0.376642 -1.187768,0.849925 -1.881877,1.003668 -0.756458,0.167552 -1.759367,0.40829 -2.320984,-0.125458 -0.289568,-0.275199 -0.139982,-0.79264 -0.12546,-1.191856 0.03012,-0.827966 0.212497,-1.649522 0.439106,-2.446442 0.264443,-0.929969 0.715124,-1.796593 1.066398,-2.697359 0.211627,-0.542674 0.475908,-1.068499 0.627292,-1.630961 0.137588,-0.511201 0.144802,-1.049584 0.250918,-1.568232 0.06913,-0.337853 0.156937,-0.671869 0.250915,-1.003668 0.245096,-0.865322 0.57917,-1.70414 0.815482,-2.571901 0.197256,-0.724337 0.321913,-1.466688 0.501834,-2.195524 0.25405,-1.02913 0.819149,-2.013718 0.81548,-3.073735 -0.0016,-0.476813 -0.09397,-0.995853 -0.376376,-1.380044 -0.367581,-0.500073 -0.948962,-0.962524 -1.568232,-1.003668 -0.690713,-0.04589 -1.385824,0.395382 -1.881877,0.87821 -0.26804,0.260892 -0.372786,0.652589 -0.501834,1.003668 -0.423421,1.151925 -0.51148,2.404362 -0.87821,3.575569 -0.401489,1.282216 -0.935552,2.519569 -1.442773,3.763756 -0.318201,0.78053 -0.762502,1.513321 -1.003668,2.320983 -0.139665,0.467737 -0.131583,0.969442 -0.250918,1.442774 -0.08082,0.32058 -0.21206,0.62632 -0.313646,0.940939 -0.2154,0.66711 -0.381194,1.35093 -0.627292,2.007337 -0.200489,0.53476 -0.690024,1.568231 -0.690024,1.568231 l -0.439104,0.188188 c 0,0 -0.877763,-0.155194 -1.191855,-0.439105 -0.707623,-0.639626 -0.925972,-1.676432 -1.254586,-2.5719 -0.379131,-1.033128 -0.548906,-2.13147 -0.815482,-3.199193 -0.234636,-0.939795 -0.491219,-1.874794 -0.690022,-2.822817 -0.24835,-1.1843 -0.432979,-2.381213 -0.627292,-3.575569 -0.135811,-0.834772 -0.29966,-1.66691 -0.376376,-2.509171 -0.115759,-1.27092 -0.0021,-2.556276 -0.125458,-3.826486 -0.07572,-0.7801 -0.04941,-1.6086723 -0.376376,-2.3209829 -0.216672,-0.4720345 -0.532749,-0.9727681 -1.003667,-1.1918563 -0.473963,-0.2205042 -1.052239,-0.083735 -1.568234,0 -0.326343,0.052958 -0.681177,0.1091262 -0.940938,0.3136464 -0.309977,0.2440574 -0.421244,0.6672254 -0.627293,1.0036684 -0.127354,0.2079486 -0.311284,0.3922933 -0.376376,0.6272928 -0.267912,0.9672506 0,2.0073366 0,3.0110056 0,1.380044 -0.08992,2.76302 0,4.140132 0.08382,1.283684 0.338415,2.55049 0.501835,3.826485 0.06425,0.501643 0.06372,1.01532 0.188188,1.505503 0.127103,0.500548 0.408703,0.950421 0.564562,1.442773 0.318353,1.00567 0.58297,2.032633 0.752752,3.073735 0.121579,0.745512 0.803898,1.820681 0.188188,2.258254 -0.335727,0.238594 -0.798814,-0.2558 -1.129128,-0.501834 -0.927624,-0.690942 -1.544096,-1.724758 -2.258253,-2.63463 -0.730881,-0.93118 -1.435576,-1.886193 -2.070066,-2.885547 -0.551907,-0.869282 -1.021338,-1.788602 -1.505502,-2.697359 -0.694733,-1.303984 -1.35951,-2.624032 -2.007337,-3.951944 -0.47577,-0.975229 -0.583059,-2.211905 -1.380044,-2.948276 -0.524873,-0.484953 -1.293881,-0.712114 -2.007337,-0.752751 -0.516442,-0.02942 -1.119523,0.032 -1.505503,0.376376 -0.399918,0.356816 -0.468935,0.978143 -0.564563,1.505502 -0.130579,0.720098 -0.144865,1.478164 0,2.195525 0.170655,0.845072 0.601789,1.620978 1.003668,2.383712 0.324445,0.615771 0.815481,1.254586 1.129127,1.75642 0.313647,0.501834 0.929716,1.817202 1.317315,2.760088 0.193596,0.470947 0.270655,0.989093 0.501834,1.442773 0.265985,0.521985 0.687368,0.949651 1.003669,1.442774 0.511143,0.796887 0.953535,1.635921 1.442773,2.446441 0.431813,0.715385 1.317315,2.132797 1.317315,2.132797 l 0.439105,1.630959 0.250917,1.944608 0.627293,1.505504 0,3.450109 -0.188188,1.756419 1.254585,-0.940937 0.815481,0.878209 0.690022,1.944608 -0.188188,1.75642 -1.944608,-1.317316 -1.630961,0.501834 1.881879,3.450111 -1.317315,0.75275 0.313646,0.94094 -0.752751,0.690021 0.376375,1.568232 c 0,0 0.654545,0.914306 0.815481,1.442774 0.317696,1.043218 0.160605,2.175149 0.250917,3.261923 0.09736,1.171567 0.05122,2.3669 0.313647,3.512839 0.224534,0.980463 0.81548,2.446442 1.066397,2.822818 0.250917,0.376374 -0.194538,2.809982 0.752751,3.575567 5.260346,1.705438 9.309135,1.729481 16.184154,-0.06273 z"
           style="fill:#b9d2ad;fill-opacity:1;stroke:none" />
        <path
           sodipodi:nodetypes="ssssssssssssssssccsscccssscsssssssssssscssssssssssssssscsss"
           inkscape:connector-curvature="0"
           id="path2989"
           d="m 27.450026,25.712826 c 0.564564,0.940939 1.074838,2.725006 1.003668,4.26559 -0.02838,0.614319 -0.105725,1.597874 -0.564564,2.007337 -0.397747,0.354947 -1.037729,0.261117 -1.568232,0.313646 -0.374544,0.03709 -0.867615,-0.270684 -1.129126,0 -0.421575,0.436363 -0.217927,1.281219 0.06273,1.81915 0.290162,0.556151 1.239434,0.561057 1.505503,1.129128 0.346345,0.73946 -0.521394,1.732302 -0.12546,2.446441 0.417541,0.753115 1.649816,0.645223 2.258256,1.254586 0.945665,0.9471 1.693689,3.638297 1.944607,3.512839 0.250916,-0.12546 -0.495724,-7.274094 -0.439106,-10.914894 0.0046,-0.293447 -0.20428,-0.756402 0.06273,-0.878209 0.380473,-0.173572 0.735711,0.431681 1.003668,0.752749 0.389462,0.466658 0.563204,1.077964 0.81548,1.630962 0.272372,0.597054 0.261871,1.383611 0.752752,1.81915 0.406058,0.360279 1.317316,0.439103 1.568231,0.439103 0.250918,0 1.75642,0.627295 1.75642,0.627295 l -0.06273,4.14013 c 0,0 1.254586,0.752752 1.568232,0.815482 0.313646,0.06273 0.964097,0.346588 1.442774,0.250916 0.267341,-0.05343 0.690021,-0.439103 0.690021,-0.439103 l -0.12546,-2.63463 0.250918,-3.136465 c 0,0 6.94e-4,-1.88925 0.125458,-2.822818 0.113571,-0.849744 0.282479,-1.699609 0.564564,-2.509169 0.427732,-1.227555 1.243282,-2.293422 1.69369,-3.51284 1.049107,-2.840317 2.320983,-8.782099 2.320983,-8.782099 0,0 -1.550892,1.719799 -2.446441,2.446442 -0.445856,0.361765 -1.157365,0.442738 -1.442774,0.940939 -0.21852,0.381443 -0.250916,1.066398 -0.06273,1.317315 0.188188,0.250917 0.64063,1.017878 0.564562,1.568232 -0.04925,0.356357 -0.300581,0.72762 -0.627292,0.878209 -0.43841,0.202076 -0.965889,-0.200409 -1.442774,-0.125458 -0.425838,0.06693 -0.913601,0.172605 -1.191855,0.501834 -0.235721,0.278904 -0.250918,0.690022 -0.250918,1.066398 0,0.376376 0.12546,1.380044 0,1.75642 -0.125458,0.376375 -0.318673,1.217373 -0.501834,1.819149 -0.115521,0.379544 -0.319827,0.736443 -0.376376,1.129127 -0.08351,0.579865 0.0963,1.171534 0.06273,1.756419 -0.03999,0.696751 -0.313646,2.070066 -0.313646,2.070066 0,0 -0.805265,0.299175 -1.191856,0.188188 -0.612575,-0.175864 -0.960363,-0.838105 -1.442773,-1.254586 -0.437762,-0.377935 -0.961402,-0.673279 -1.317316,-1.129126 -0.402836,-0.515941 -0.692819,-1.128642 -0.87821,-1.756419 -0.268135,-0.907966 -0.168401,-1.887297 -0.313646,-2.822818 -0.08179,-0.526786 -0.261117,-1.03773 -0.313646,-1.568232 -0.07005,-0.707472 0.123349,-1.432646 0,-2.132796 -0.127391,-0.723091 -0.299237,-1.492645 -0.752752,-2.070066 -0.279404,-0.355741 -0.700637,-0.607792 -1.129128,-0.752751 -0.615293,-0.208155 -1.373289,0.183591 -1.944607,-0.125459 -0.183913,-0.09949 -0.332292,-0.297436 -0.376374,-0.501834 -0.121926,-0.565336 0.09086,-1.190744 0.376374,-1.69369 0.255579,-0.450216 0.977955,-0.57126 1.129128,-1.066398 0.250337,-0.819936 -0.105165,-1.78535 -0.564564,-2.509171 -0.383265,-0.603865 -1.174716,-0.825166 -1.69369,-1.317315 -0.301162,-0.285595 -0.815481,-0.940939 -0.815481,-0.940939 0,0 -0.01457,2.553164 0.06273,3.826486 0.09683,1.594985 0.174257,3.20344 0.501833,4.767425 0.296887,1.41746 0.523846,2.817683 1.317316,4.140132 z"
           style="opacity:0.1;fill:#000000;stroke:none" />
        <path
           id="path2991"
           d="m 13.744047,14.926821 0.07951,2.754085 c 0.162224,0.341906 0.338154,0.672494 0.513228,1.004771 0.324445,0.61577 0.821239,1.254708 1.134886,1.756542 0.06281,0.100489 0.141289,0.255821 0.224085,0.412029 0.01687,0.02786 0.02708,0.05219 0.04337,0.07951 0.0047,0.0091 0.0097,0.01243 0.01446,0.02169 0.07438,0.125326 0.150534,0.251227 0.209628,0.361428 0.239655,0.446912 0.434451,0.912642 0.614429,1.387885 0.0035,0.0092 0.0038,0.01972 0.0072,0.02891 0.06902,0.159503 0.142367,0.323818 0.2024,0.469857 0.07303,0.177656 0.126322,0.364276 0.180714,0.549371 0.162909,0.432574 0.33428,0.860847 0.542143,1.272228 0.0019,0.0028 0.0053,0.0044 0.0072,0.0072 0.244436,0.360361 0.538049,0.688364 0.773456,1.055372 0.284166,0.443023 0.548069,0.902036 0.8096,1.35897 0.664266,0.899887 1.32138,1.799221 1.742085,2.826371 0.02026,0.04946 0.03907,0.101887 0.05783,0.1518 0.03661,0.05868 0.1518,0.245771 0.1518,0.245771 l 0.440942,1.626428 0.245772,1.944485 0.628885,1.510771 0,0.621657 c 0.03015,0.124105 0.05481,0.248894 0.07229,0.375885 0.161302,1.172157 0.302711,2.431955 -0.08674,3.549228 -0.03894,0.111711 -0.0865,0.230199 -0.137343,0.346971 l -0.03614,0.310828 1.257771,-0.939713 0.816829,0.874656 0.686714,1.944485 -0.187943,1.756543 -1.944485,-1.3156 -1.633657,0.498771 1.886657,3.455256 -1.322828,0.751771 0.318057,0.939714 -0.751771,0.686714 0.310828,1.293914 c 0.39996,0.600917 0.728856,1.193898 0.9108,1.727628 0.114183,0.334952 0.150854,0.680938 0.1518,1.033685 0.0578,0.733997 0.0041,1.485125 0.06506,2.219171 0.09736,1.171567 0.05563,2.367145 0.318057,3.513084 0.224534,0.980463 0.811682,2.449995 1.062599,2.826371 0.250918,0.376373 -0.195518,2.805327 0.751772,3.570913 5.260346,1.705438 9.309746,1.73438 16.184765,-0.05783 -0.417258,-2.701784 -0.97875,-5.635836 -0.874657,-8.471882 0.04363,-1.188669 0.299566,-2.368054 0.621657,-3.513085 0.358546,-1.274631 0.942393,-2.476318 1.445714,-3.701027 0.320405,-0.779628 1.004771,-2.069455 1.004771,-2.320371 0,-0.250918 0.05491,-1.842924 0,-2.761313 -0.03142,-0.525555 -0.286265,-1.051367 -0.187943,-1.568599 0.221893,-1.167279 1.125767,-2.092337 1.691485,-3.137199 0.396477,-0.732281 0.6945,-1.523014 1.192714,-2.190256 0.654608,-0.876695 1.50013,-1.596279 2.320371,-2.320371 0.536188,-0.473338 1.219481,-0.785467 1.691485,-1.322828 0.544324,-0.619696 0.762372,-1.472965 1.257771,-2.132428 0.310941,-0.413918 0.899298,-0.638848 1.069828,-1.127657 0.115525,-0.331142 0.117454,-0.684132 0.07229,-1.040914 -0.116497,-0.143773 -0.241423,-0.271875 -0.383115,-0.383114 -0.256906,-0.201694 -0.693038,-0.257357 -0.975856,-0.09397 -0.36661,0.211791 -0.308735,0.798656 -0.534914,1.156571 -0.246757,0.390477 -0.731869,0.628277 -0.889114,1.0626 -0.07047,0.194632 0.13805,0.467418 0,0.621656 -0.35717,0.399054 -1.114819,-0.05128 -1.597514,0.180715 -0.829227,0.398545 -1.31287,1.289646 -1.951714,1.951713 -0.813592,0.843168 -1.644028,1.672027 -2.392656,2.573371 -0.540371,0.650606 -1.007713,1.358587 -1.510771,2.038456 -0.591001,0.798721 -1.502679,1.435973 -1.770999,2.392656 -0.264612,0.943457 0.27187,1.947719 0.267457,2.927571 -0.0054,1.188721 -0.07924,2.39273 -0.3542,3.549227 -0.190538,0.801409 -0.738732,1.496006 -0.889114,2.305913 -0.183545,0.988515 0.0511,2.010204 0,3.014314 -0.07402,1.454614 0.03682,2.97569 -0.440943,4.351598 -0.126471,0.364225 -0.262999,0.834366 -0.621657,0.975857 -0.880675,0.347427 -1.875268,-0.356296 -2.754084,-0.7084 -1.069128,-0.428355 -1.946919,-1.258833 -3.014313,-1.691485 -0.850885,-0.344894 -1.756843,-0.543905 -2.660114,-0.7084 -0.58475,-0.106488 -1.186098,-0.121958 -1.778228,-0.173486 -0.797585,-0.06941 -1.765586,0.317028 -2.392656,-0.180714 -0.388254,-0.30818 -0.564281,-0.93669 -0.440943,-1.416799 0.254987,-0.992562 1.648373,-1.276515 2.211942,-2.132428 0.555772,-0.844072 1.075167,-1.830227 1.069829,-2.840828 -0.0052,-0.982967 -0.836176,-1.792048 -1.069829,-2.746856 -0.254598,-1.040402 0.0124,-2.188616 -0.354199,-3.195027 -0.364924,-1.001796 -1.269061,-1.719463 -1.771,-2.660113 -0.436915,-0.818795 -0.881705,-1.663099 -1.062599,-2.573371 -0.155623,-0.7831 0.138527,-1.606352 0,-2.392656 -0.120105,-0.681736 -0.491814,-1.296657 -0.715629,-1.951714 -0.250961,-0.73451 -0.876167,-1.461318 -0.708399,-2.21917 0.113075,-0.510795 0.989045,-0.639683 1.069828,-1.156571 0.216542,-1.385538 -1.057915,-2.606229 -1.778228,-3.809456 -0.455668,-0.761157 -0.92992,-1.54821 -1.597514,-2.132428 -0.637621,-0.557988 -1.790721,-0.512326 -2.21917,-1.243314 -0.328966,-0.561256 0.188521,-1.329068 0,-1.951713 -0.308966,-1.020445 -1.070156,-1.856631 -1.771,-2.660113 -0.67475,-0.773569 -1.704714,-1.206438 -2.305913,-2.038457 -0.263796,-0.365076 -0.534914,-1.243314 -0.534914,-1.243314 z"
           style="opacity:0.1;fill:#000000;stroke:none"
           inkscape:connector-curvature="0" />
        <path
           sodipodi:nodetypes="ccccccccccccccscsssssc"
           inkscape:connector-curvature="0"
           id="path2996"
           d="m 22.367729,38.860613 0,0.339742 -0.187943,1.756542 1.257771,-0.939713 0.816829,0.874656 0.686714,1.944485 -0.187943,1.756543 -1.944485,-1.3156 -1.633657,0.498771 1.886657,3.455256 -1.322828,0.751771 0.318057,0.939714 -0.751771,0.686714 0.375885,1.5686 c 0,0 0.655892,0.917246 0.816828,1.445713 0.124094,0.407486 0.172918,0.831193 0.195172,1.257771 0.38589,-0.27311 0.786841,-0.598171 0.990314,-0.896342 0.712063,-1.043461 -0.03556,-3.487238 0.309848,-4.702368 0.243233,-0.855689 1.029575,-1.288661 1.178869,-2.165631 0.218866,-1.285642 0.660301,-1.945324 0.549739,-3.244769 -0.08513,-1.000489 -0.694945,-1.928806 -1.398422,-2.645288 -0.652103,-0.664159 -0.975118,-1.329453 -1.955634,-1.366567 z"
           style="fill:#aa0000;stroke:none" />
        <path
           id="path3003"
           d="m 22.808672,43.277268 -1.633657,0.498771 1.886657,3.455256 -0.0506,0.02891 0.845742,0 0.137343,-0.484314 0.665029,-0.665028 0.310828,-1.156571 -0.209629,-0.419257 -0.0072,0.05783 -1.944485,-1.3156 z m 0.166257,4.004627 -1.236085,0.701171 0.318057,0.939714 -0.751771,0.686714 0.346971,1.438485 0.520457,-0.766228 0.267457,-0.932485 0.621657,-0.665029 -0.08674,-1.402342 z"
           style="fill:#fff6d5;stroke:none"
           inkscape:connector-curvature="0" />
        <path
           transform="matrix(0.26544253,0,0,0.2580043,-0.95913715,6.3270676)"
           d="m 117.42373,13.016949 a 8.2711868,10.576271 0 0 1 -8.27119,10.576271 8.2711868,10.576271 0 0 1 -8.27118,-10.576271 8.2711868,10.576271 0 0 1 8.27118,-10.5762714 8.2711868,10.576271 0 0 1 8.27119,10.5762714 z"
           sodipodi:ry="10.576271"
           sodipodi:rx="8.2711868"
           sodipodi:cy="13.016949"
           sodipodi:cx="109.15254"
           id="path3012"
           style="opacity:0.3;fill:#fff6d5;fill-opacity:1;stroke:none"
           sodipodi:type="arc" />
        <path
           sodipodi:type="arc"
           style="opacity:0.3;fill:#fff6d5;fill-opacity:1;stroke:none"
           id="path3014"
           sodipodi:cx="109.15254"
           sodipodi:cy="13.016949"
           sodipodi:rx="8.2711868"
           sodipodi:ry="10.576271"
           d="m 117.42373,13.016949 a 8.2711868,10.576271 0 0 1 -8.27119,10.576271 8.2711868,10.576271 0 0 1 -8.27118,-10.576271 8.2711868,10.576271 0 0 1 8.27118,-10.5762714 8.2711868,10.576271 0 0 1 8.27119,10.5762714 z"
           transform="matrix(0.17615176,0.04865929,-0.06339572,0.20690756,25.796549,6.6365193)" />
        <path
           sodipodi:type="arc"
           style="opacity:0.3;fill:#fff6d5;fill-opacity:1;stroke:none"
           id="path3016"
           sodipodi:cx="109.15254"
           sodipodi:cy="13.016949"
           sodipodi:rx="8.2711868"
           sodipodi:ry="10.576271"
           d="m 117.42373,13.016949 a 8.2711868,10.576271 0 0 1 -8.27119,10.576271 8.2711868,10.576271 0 0 1 -8.27118,-10.576271 8.2711868,10.576271 0 0 1 8.27118,-10.5762714 8.2711868,10.576271 0 0 1 8.27119,10.5762714 z"
           transform="matrix(0.25503621,-0.0735953,0.07153301,0.24788957,-13.174799,19.384728)" />
        <path
           sodipodi:nodetypes="csssssc"
           inkscape:connector-curvature="0"
           id="path3018"
           d="m 51.726255,28.159268 c 0,0 -0.939337,-0.0041 -0.955834,-0.284184 -0.01869,-0.317452 -0.0315,-0.705275 0.125457,-1.003669 0.117221,-0.222837 0.313135,-0.515215 0.564564,-0.501834 0.310408,0.01652 0.54432,0.390455 0.627294,0.690022 0.05692,0.205501 -0.04069,0.431627 -0.12546,0.627293 -0.0715,0.165049 -0.236021,0.472372 -0.236021,0.472372 z"
           style="opacity:0.3;fill:#fff6d5;stroke:none" />
      </g>
    </g>
    <path
       d="m 32,2.499999 c -16.277082,0 -29.5,13.222915 -29.5,29.499998 0,16.277083 13.222918,29.500005 29.5,29.5 16.27708,0 29.50001,-13.222917 29.5,-29.5 C 61.5,15.722914 48.27708,2.499999 32,2.499999 z"
       id="path2555-7-1"
       style="opacity:0.7;color:#000000;fill:none;stroke:#000000;stroke-width:1.42857146;stroke-linecap:round;stroke-linejoin:round;stroke-miterlimit:4;stroke-opacity:1;stroke-dasharray:none;stroke-dashoffset:0;marker:none;visibility:visible;display:inline;overflow:visible;enable-background:accumulate"
       inkscape:connector-curvature="0" />
    <path
       d="m 60.053581,31.999999 c 0,15.377091 -12.313471,28.05357 -28.053591,28.05357 -15.29367,0 -28.1211838,-12.313455 -28.1211838,-28.05357 0,-15.171905 12.3810848,-28.0758942 28.1211838,-28.0758942 15.298178,0 28.053591,12.3357782 28.053591,28.0758942 z"
       id="path3019"
       style="opacity:0.3;color:#000000;fill:none;stroke:url(#linearGradient3154);stroke-width:1.42857146;stroke-linecap:round;stroke-linejoin:round;stroke-miterlimit:4;stroke-opacity:1;stroke-dasharray:none;stroke-dashoffset:0;marker:none;visibility:visible;display:inline;overflow:visible;enable-background:accumulate"
       inkscape:connector-curvature="0"
       sodipodi:nodetypes="sssss" />
  </g>
</svg>
