<?xml version="1.0" encoding="UTF-8" standalone="no"?>
<svg xmlns:rdf="http://www.w3.org/1999/02/22-rdf-syntax-ns#" xmlns="http://www.w3.org/2000/svg" height="48" width="48" version="1.1" xmlns:cc="http://creativecommons.org/ns#" xmlns:xlink="http://www.w3.org/1999/xlink" xmlns:dc="http://purl.org/dc/elements/1.1/">
 <defs>
  <radialGradient id="c" gradientUnits="userSpaceOnUse" cy="4.625" cx="62.625" gradientTransform="matrix(1 0 0 .34118 0 3.0471)" r="10.625">
   <stop offset="0"/>
   <stop stop-opacity="0" offset="1"/>
  </radialGradient>
  <radialGradient id="b" gradientUnits="userSpaceOnUse" cy="-8.7256" cx="61.24" gradientTransform="matrix(0 3.5234 -3.5234 0 -6.744 -205.8)" r="9.7553">
   <stop stop-color="#51cfee" offset="0"/>
   <stop stop-color="#49a3d2" offset=".26238"/>
   <stop stop-color="#3470b4" offset=".70495"/>
   <stop stop-color="#273567" offset="1"/>
  </radialGradient>
  <linearGradient id="g" y2="2.6887" gradientUnits="userSpaceOnUse" x2="20" gradientTransform="matrix(.98001 0 0 .97999 .089940 .87036)" y1="43" x1="20">
   <stop stop-color="#254b6d" offset="0"/>
   <stop stop-color="#415b73" offset=".5"/>
   <stop stop-color="#6195b5" offset="1"/>
  </linearGradient>
  <linearGradient id="f" y2="-1.4615" gradientUnits="userSpaceOnUse" x2="62.2" gradientTransform="matrix(2.0283 0 0 2.0283 -102.16 31.121)" y1="-12.489" x1="62.2">
   <stop stop-color="#fff" offset="0"/>
   <stop stop-color="#fff" stop-opacity="0" offset="1"/>
  </linearGradient>
  <linearGradient id="i" y2="47.533" gradientUnits="userSpaceOnUse" x2="157.8" y1="20.111" x1="157.8">
   <stop stop-color="#fff" offset="0"/>
   <stop stop-color="#fff" stop-opacity="0" offset="1"/>
  </linearGradient>
  <linearGradient id="j" y2="19.244" gradientUnits="userSpaceOnUse" x2="158.91" gradientTransform="matrix(1.1026 0 0 1.2268 117.22 299.07)" y1="48.432" x1="158.91">
   <stop stop-color="#8c8c8c" offset="0"/>
   <stop stop-color="#969696" offset=".031177"/>
   <stop stop-color="#a0a0a0" offset=".074123"/>
   <stop stop-color="#dcdcdc" offset=".15525"/>
   <stop stop-color="#e1e1e1" offset=".5"/>
   <stop stop-color="#e6e6e6" offset="1"/>
  </linearGradient>
  <linearGradient id="h" y2="12.644" gradientUnits="userSpaceOnUse" x2="153.68" gradientTransform="translate(133.43 310.08)" y1="48.531" x1="153.68">
   <stop stop-color="#646464" offset="0"/>
   <stop stop-color="#b4b4b4" offset="1"/>
  </linearGradient>
  <radialGradient id="e" xlink:href="#a" gradientUnits="userSpaceOnUse" cy="43.5" cx="4.993" gradientTransform="matrix(2.0038 0 0 1.4 27.988 -17.4)" r="2.5"/>
  <linearGradient id="a">
   <stop offset="0"/>
   <stop stop-opacity="0" offset="1"/>
  </linearGradient>
  <radialGradient id="d" xlink:href="#a" gradientUnits="userSpaceOnUse" cy="43.5" cx="4.993" gradientTransform="matrix(2.0038 0 0 1.4 -20.012 -104.4)" r="2.5"/>
  <linearGradient id="k" y2="39.999" gradientUnits="userSpaceOnUse" x2="25.058" y1="47.028" x1="25.058">
   <stop stop-opacity="0" offset="0"/>
   <stop offset=".5"/>
   <stop stop-opacity="0" offset="1"/>
  </linearGradient>
 </defs>
 <g transform="translate(-267.43 -314.08)">
  <g style="enable-background:new" transform="matrix(1.2 0 0 .44444 262.63 339.19)">
   <g opacity=".4" transform="matrix(1.0526 0 0 1.2857 -1.2632 -13.429)">
    <rect height="7" width="5" y="40" x="38" fill="url(#e)"/>
    <rect transform="scale(-1)" height="7" width="5" y="-47" x="-10" fill="url(#d)"/>
    <rect height="7" width="28" y="40" x="10" fill="url(#k)"/>
   </g>
  </g>
  <path stroke-linejoin="round" style="color:#000000" d="m269.93 322.58v31.208c0 2.6433 1.8969 4.7923 4.2724 4.7923h34.455c2.3755 0 4.2724-2.149 4.2724-4.7923v-31.208h-43z" stroke="url(#h)" stroke-linecap="round" fill="url(#j)"/>
  <path stroke-linejoin="round" style="color:#000000" d="m139.47 20.125v24.469c0 1.637 1.2787 2.9375 2.9062 2.9375h31.25c1.6276 0 2.9062-1.3005 2.9062-2.9375v-24.469h-37.062z" transform="matrix(1.106 0 0 1.2381 116.68 298.66)" stroke="url(#i)" stroke-linecap="round" stroke-width=".85457" fill="none"/>
  <g style="enable-background:new" transform="scale(1.0197 .98071)" fill="#3c3c3c">
   <path style="" d="m281.32 332.73c-0.24757 0.12778-0.47117 0.19167-0.6708 0.19166-0.31943 0.00001-0.66282-0.14373-1.0302-0.43123l-1.3176 1.2578 0.28749 0.28748 0.22759-0.19165c0.16769 0.15971 0.45118 0.23957 0.85047 0.23957h0.0599l0.024-0.012h0.024l0.012 1.4015h-0.024l-0.0958 0.024h-0.0479c-0.0479 0.024-0.16771 0.0359-0.35936 0.0359-0.008 0.008-0.0519 0.012-0.13176 0.012-0.30346 0.00001-0.51508-0.0399-0.63486-0.11978-0.20763-0.37532-0.37533-0.67878-0.5031-0.91037-0.11979-0.23956-0.2236-0.4392-0.31144-0.59892-0.32742-0.47914-0.59094-0.81054-0.79058-0.99422-0.30346-0.27949-0.6708-0.41924-1.102-0.41925-0.43922 0.00001-0.80656 0.1717-1.102 0.51508-0.30345 0.32742-0.45518 0.70674-0.45518 1.138 0 0.31144 0.0839 0.48314 0.25155 0.51507l-0.024-0.0239h0.0838c0.024-0.27151 0.20363-0.49112 0.53903-0.65882 0.016-0.016 0.0359-0.024 0.0599-0.024 0.0319 0.00001 0.0599-0.004 0.0839-0.012 0.0559-0.016 0.11179-0.0279 0.16769-0.0359 0.0639-0.016 0.1158-0.0399 0.15573-0.0719h0.0239v1.9645c-0.14374 0.016-0.25953 0.0319-0.34737 0.0479-0.0879 0.016-0.14774 0.028-0.17968 0.0359-0.35137 0.14375-0.52706 0.45918-0.52706 0.9463 0 0.2236 0.0719 0.41925 0.21562 0.58695 0.14374 0.1677 0.31942 0.25155 0.52705 0.25155v-0.0838-0.0479l-0.012-0.012c0-0.0639 0.016-0.12777 0.0479-0.19166 0.0399-0.0719 0.0878-0.1078 0.14374-0.10781h0.024c0.024 0.016 0.0439 0.028 0.0599 0.0359 0.016 0 0.0319 0.004 0.0479 0.012v1.6051c-0.79058 0.23957-1.3017 0.78259-1.5332 1.6291 0.0479-0.016 0.10382-0.0399 0.1677-0.0719 0.0719-0.0239 0.10781-0.0359 0.10781-0.0359 0.0319-0.016 0.0719-0.0399 0.11978-0.0719v0.012c0.3354-0.15972 0.68278-0.23958 1.0421-0.23958 0.48713 0 1.0102 0.17569 1.5692 0.52706l0.95828-1.2577-0.26353-0.26353-0.14374 0.19165c-0.23159-0.15971-0.46716-0.27949-0.70673-0.35935-0.23957-0.0878-0.49112-0.13176-0.75465-0.13176h-0.0719l-0.024 0.012h-0.012v-1.1499c0.19165-0.12777 0.4991-0.19166 0.92234-0.19166 0.31942 0 0.68676 0.0879 1.102 0.26353 0.0399 0.0878 0.0799 0.17569 0.11979 0.26353 0.0399 0.0799 0.0798 0.15572 0.11978 0.22759 0.15971 0.31144 0.2795 0.559 0.35936 0.74267 0.0878 0.17568 0.17169 0.32342 0.25155 0.4432h-0.012c0.44719 0.80655 0.86644 1.2098 1.2577 1.2098h0.0719v-6.6361c0.024-0.008 0.0519-0.016 0.0838-0.024 0.0399-0.016 0.0838-0.0399 0.13177-0.0719v0.012c0.2156-0.1118 0.41524-0.26352 0.59892-0.45519 0.11978-0.11978 0.20762-0.23557 0.26353-0.34737 0.0559-0.1118 0.0878-0.2236 0.0958-0.3354l-0.0719-0.0479m-4.3123 4.3123c-0.24756 0-0.57497 0.0559-0.98223 0.1677v-3.2102c0.18366 0.0878 0.40726 0.37134 0.67079 0.85047 0.12777 0.25555 0.30745 0.63886 0.53904 1.1499 0.13575 0.29547 0.24755 0.53903 0.33539 0.73069 0.0878 0.18367 0.15572 0.32342 0.20364 0.41924-0.25555-0.0719-0.51109-0.1078-0.76663-0.1078m1.9765-0.46716c-0.0719-0.15971-0.13177-0.29148-0.17968-0.3953-0.0479-0.10381-0.0839-0.18366-0.10781-0.23957 0.0958 0.0319 0.19964 0.0479 0.31144 0.0479h0.32342c0.0958 0 0.17968-0.004 0.25155-0.012 0.0799-0.008 0.14374-0.024 0.19166-0.0479l0.012 2.1442c-0.11979-0.17568-0.24756-0.38331-0.38332-0.62288-0.12777-0.24756-0.26752-0.53903-0.41924-0.87443"/>
   <path style="" d="m285.45 336.97c-0.0799-0.1118-0.1677-0.24356-0.26352-0.39529-0.0879-0.15971-0.18368-0.33141-0.28749-0.51508-0.1118-0.20762-0.19964-0.39529-0.26352-0.56299-0.0639-0.16769-0.1158-0.32342-0.15573-0.46716-0.79058 0.52706-1.5013 0.79058-2.1322 0.79058h-0.0479l-0.0359-0.012h-0.0359l-0.012-0.012h-0.0719l-0.10781-0.1078v0.16769c0.12777 0.27951 0.19165 0.47915 0.19166 0.59893v2.8988c-0.15972 0.11978-0.26753 0.21561-0.32342 0.28748-0.008 0.008-0.0319 0.0399-0.0719 0.0958-0.0319 0.0559-0.0759 0.12777-0.13176 0.21561v-0.012c-0.016 0.016-0.0319 0.0399-0.0479 0.0719-0.016 0.024-0.0319 0.0559-0.0479 0.0958 0.0958-0.016 0.19166-0.0279 0.28749-0.0359 0.0958-0.016 0.19165-0.024 0.28748-0.024 0.25554 0 0.559 0.0359 0.91037 0.10781 0.20762 0.0399 0.39129 0.0958 0.55101 0.1677 0.15971 0.0799 0.32342 0.1637 0.49112 0.25155l0.11978 0.0599 1.09-1.1978-0.29947-0.27551-0.28748 0.29947c-0.18367-0.0879-0.38331-0.16371-0.59892-0.2276-0.20763-0.0639-0.43523-0.11579-0.68278-0.15572v-0.89838c0.0878-0.0639 0.1677-0.11579 0.23957-0.15573 0.48712-0.28748 0.87044-0.51108 1.1499-0.67079 0.28748-0.1677 0.47913-0.2755 0.57497-0.32342l0.012-0.0599m-1.5931-0.2276c0.0559 0.11979 0.10381 0.21961 0.14374 0.29947 0.0479 0.0719 0.0878 0.13176 0.11979 0.17967l-0.64684 0.41925v-1.5332l0.0958-0.024c0.0399 0.1118 0.0838 0.2236 0.13176 0.33539 0.0479 0.11181 0.0998 0.21961 0.15572 0.32342"/>
   <path style="" d="m292.73 335.74c-0.0399 0.016-0.0679 0.0319-0.0838 0.0479-0.0319 0.008-0.0559 0.012-0.0719 0.012-0.016 0.00001-0.0319 0.004-0.0479 0.012v0.012h-0.012c-0.016 0.008-0.0319 0.012-0.0479 0.012-0.0719 0-0.11181-0.004-0.11979-0.012-0.25554-0.024-0.48314-0.24356-0.68277-0.65882l-1.3176 0.97026 0.17968 0.28748 0.14374-0.0599c0.12777 0.15173 0.24755 0.24357 0.35936 0.27551v2.8988c-0.00001 0.15172-0.0719 0.22759-0.21561 0.22759h-0.13177-0.024v-0.012c-0.0319-0.016-0.0679-0.0279-0.1078-0.0359-0.0399-0.016-0.0719-0.0319-0.0958-0.0479-0.26353-0.12777-0.3953-0.3314-0.39529-0.6109v-3.1264c-0.016-0.0639-0.028-0.10781-0.0359-0.13177-0.016-0.024-0.028-0.0479-0.0359-0.0719-0.00001-0.024-0.004-0.0439-0.012-0.0599-0.0879-0.2236-0.29547-0.41924-0.62288-0.58695l-1.2218 1.0541v0.0958c0.14374 0 0.28349 0.0479 0.41925 0.14374 0.13575 0.0879 0.20363 0.18767 0.20363 0.29946v2.6712c-0.0479 0.0319-0.0998 0.0559-0.15572 0.0719-0.008 0.008-0.02 0.016-0.0359 0.024l-0.024 0.024-0.0479 0.0479c-0.0479-0.0399-0.1078-0.0799-0.17967-0.11979-0.0719-0.0399-0.15173-0.0798-0.23957-0.11978-0.0399-0.016-0.0639-0.024-0.0719-0.024-0.008-0.008-0.0319-0.02-0.0719-0.0359-0.0878 0-0.15173-0.016-0.19165-0.0479v-2.9707c0-0.24755-0.0799-0.47115-0.23957-0.67079-0.15972-0.19964-0.35936-0.34338-0.59893-0.43123l-1.2098 1.2098 0.0958 0.0599h0.0359l0.024 0.012h0.0958l0.0359 0.012h0.024c0.16769 0 0.31144 0.11979 0.43122 0.35935v2.5874h-0.012l-0.012 0.024c-0.24755 0.18367-0.41126 0.41525-0.49111 0.69475 0.0399-0.016 0.0799-0.0279 0.11978-0.0359 0.0479-0.008 0.0878-0.012 0.11979-0.012l0.024-0.012h0.024c0.24755 0 0.48313 0.0559 0.70673 0.1677s0.45119 0.27151 0.68278 0.47914c0.11978-0.0878 0.22359-0.16371 0.31144-0.22759 0.0878-0.0639 0.14773-0.10781 0.17968-0.13177v0.012c0.0479-0.0319 0.0799-0.0519 0.0958-0.0599l0.024-0.012 0.024-0.024c0.008-0.008 0.0439-0.024 0.1078-0.0479 0.14374-0.0799 0.31544-0.18367 0.51508-0.31144 0.13575 0.21561 0.31543 0.39928 0.53903 0.55101 0.23158 0.15971 0.46716 0.24756 0.70673 0.26353 0.10381-0.0479 0.18766-0.0918 0.25155-0.13177 0.0719-0.0319 0.13176-0.0559 0.17968-0.0719 0.57496-0.26352 1.1499-0.39529 1.7249-0.39529h0.024c0.0239 0.008 0.1078 0.012 0.25155 0.012-0.0879-0.12777-0.13177-0.19565-0.13176-0.20363-0.0799-0.1118-0.11979-0.22759-0.11979-0.34738v-2.9108c0.31144-0.18366 0.48313-0.45518 0.51508-0.81454l-0.0599-0.0479"/>
   <path style="" d="m297.52 335.21-0.32342 0.024c-0.14375 0.23159-0.33141 0.34738-0.56299 0.34738-0.2236 0-0.46317-0.14773-0.71871-0.44321-0.28749 0.28749-0.4472 0.43922-0.47914 0.45519-0.34339 0.18367-0.69875 0.27551-1.0661 0.2755-0.0719 0.00001-0.1118-0.004-0.11978-0.012-0.2236 0.00001-0.36335-0.016-0.41925-0.0479-0.0878 0-0.17169-0.0359-0.25155-0.10781v0.10781c0 0.0319 0.008 0.0559 0.024 0.0719v0.012l0.0359 0.0839c0 0.0319 0.004 0.0519 0.012 0.0599v-0.012 0.024c0.008 0 0.012 0.004 0.012 0.012l0.012 2.0843-0.012 0.024c0 0.10381-0.0359 0.20363-0.10781 0.29946l0.012-0.0359-0.0838 0.0838 0.79058 0.0359-0.13176 0.13176c-0.0319 0.0399-0.0599 0.0719-0.0838 0.0958l-0.0479 0.0479c-0.27152 0.3354-0.48713 0.65084-0.64684 0.94631-0.15972 0.28748-0.27152 0.57097-0.3354 0.85047h0.34738c0.14374-0.35137 0.39928-0.52705 0.76662-0.52705 0.0878 0 0.15572 0.012 0.20363 0.0359 0.0719 0 0.13576 0.012 0.19166 0.0359 0.0559 0.0319 0.11579 0.0759 0.17968 0.13176l0.34738 0.34738c0.39129-0.41526 0.89039-0.62288 1.4973-0.62288h0.0719c0.024 0.008 0.0958 0.012 0.21561 0.012 0.0399 0.024 0.0918 0.0399 0.15572 0.0479h0.23957c0.016 0 0.0279 0.004 0.0359 0.012h-0.012c0.016 0.008 0.0679 0.012 0.15572 0.012l-0.0479-0.0958c-0.024-0.0399-0.0479-0.0799-0.0719-0.11979-0.024-0.0399-0.028-0.0519-0.012-0.0359l0.012 0.024c-0.008-0.0399-0.012-0.0599-0.012-0.0599-0.00001-0.008-0.004-0.016-0.012-0.024v0.012l-0.012-0.024v-0.0359c-0.008-0.008-0.012-0.02-0.012-0.0359v-2.0363c0 0.008 0.004-0.004 0.012-0.0359 0.008-0.0399 0.016-0.0719 0.024-0.0958v0.012c-0.00001-0.008-0.00001-0.016 0-0.0239 0.008-0.008 0.012-0.02 0.012-0.0359l0.012-0.024v-0.024l0.024-0.024v-0.024l0.012-0.012c0-0.024 0.004-0.0439 0.012-0.0599-0.00001-0.008-0.00001-0.024 0-0.0479 0.008-0.024 0.012-0.0399 0.012-0.0479l-1.126 0.024c0.67079-0.68676 1.11-1.3496 1.3176-1.9884l-0.0479-0.0599m-1.5093 4.4201h-0.0479c-0.0399 0.016-0.0719 0.0279-0.0958 0.0359h-0.024l-0.0479 0.024c-0.29547-0.36734-0.65083-0.55101-1.0661-0.55101-0.0399 0-0.0958 0.008-0.1677 0.0239-0.0719 0.008-0.15572 0.02-0.25155 0.0359 0.10381-0.10381 0.19165-0.19565 0.26353-0.27551 0.0719-0.0878 0.13575-0.15971 0.19165-0.21561l0.62289-0.62288h0.6109l0.024 0.024v1.5093l-0.012 0.012m-0.19166-2.5514c-0.18367 0.18368-0.3354 0.33141-0.45518 0.44321-0.1118 0.1118-0.19965 0.18766-0.26353 0.22759h-0.13176v-1.5093c0.0399 0 0.0838-0.012 0.13176-0.0359h0.0479c0.008-0.008 0.024-0.016 0.0479-0.024 0.29547 0.23159 0.55899 0.34738 0.79058 0.34738 0.15173 0 0.29547-0.0279 0.43123-0.0838-0.12778 0.13576-0.32742 0.34738-0.59893 0.63486"/>
  </g>
  <path style="enable-background:new" d="m272.99 336.58v1h37v-1z" stroke="#646464" stroke-width="1px" fill="#505050"/>
  <path style="enable-background:new" d="m272.93 339.58h37" stroke="#646464" stroke-linecap="square" stroke-width="1px" fill="none"/>
  <g style="enable-background:new" transform="matrix(.94345 0 0 1 144.67 310.08)" stroke="#787878" stroke-linecap="square" stroke-width="1.0295px" fill="none">
   <path d="m163.5 32.5h11.66"/>
   <path d="m163.5 34.5h11.66"/>
   <path d="m163.5 36.5h11.66"/>
   <path d="m163.5 38.5h11.66"/>
   <path d="m163.5 40.5h11.66"/>
   <path d="m163.5 42.5h11.66"/>
   <path d="m163.5 44.5h11.66"/>
   <path d="m163.5 46.5h11.66"/>
   <path d="m163.5 46.5h11.66"/>
  </g>
  <g style="enable-background:new" transform="matrix(.94345 0 0 1 118.67 310.08)" stroke="#787878" stroke-linecap="square" stroke-width="1.0295px" fill="none">
   <path d="m163.5 32.5h11.66"/>
   <path d="m163.5 34.5h11.66"/>
   <path d="m163.5 36.5h11.66"/>
   <path d="m163.5 38.5h11.66"/>
   <path d="m163.5 40.5h11.66"/>
   <path d="m163.5 42.5h11.66"/>
   <path d="m163.5 44.5h11.66"/>
   <path d="m163.5 46.5h11.66"/>
   <path d="m163.5 46.5h11.66"/>
  </g>
  <g style="enable-background:new" transform="matrix(.94345 0 0 1 131.67 310.08)" stroke="#787878" stroke-linecap="square" stroke-width="1.0295px" fill="none">
   <path d="m163.5 46.5h11.66"/>
   <path d="m163.5 46.5h11.66"/>
  </g>
  <path d="m285.71 342.33v2.0026c5.147 0.0959 9.306 4.2577 9.4006 9.4097h2.021c-0.0955-6.2668-5.1606-11.317-11.422-11.412zm0 4.618v1.8106c2.7167 0.0945 4.8983 2.2647 4.9929 4.9838h1.8106c-0.0953-3.7217-3.0853-6.6991-6.8035-6.7944zm1.1888 4.5722c-0.3186 0.00002-0.56578 0.1175-0.78645 0.33835-0.22095 0.21723-0.3292 0.44926-0.3292 0.76814 0 0.3139 0.10897 0.56085 0.3292 0.77729 0.21953 0.21582 0.46541 0.32006 0.78645 0.32006 0.31106 0 0.54282-0.10369 0.75899-0.32006 0.22134-0.22157 0.33834-0.4684 0.33835-0.77729-0.00001-0.31888-0.11745-0.55091-0.33835-0.76814-0.21731-0.22145-0.45043-0.33833-0.75899-0.33835z" stroke="#646464" stroke-width="0.5" fill="#646464"/>
  <g style="enable-background:new" transform="matrix(.39130 0 0 .39130 267.04 341.29)">
   <path opacity=".4" d="m73.25 4.625a10.625 3.625 0 1 1 -21.25 0 10.625 3.625 0 1 1 21.25 0z" fill-rule="evenodd" transform="matrix(2.1647 0 0 2.5637 -111.56 26.85)" fill="url(#c)"/>
   <path d="m43.5 23.999c0 10.77-8.731 19.501-19.5 19.501s-19.5-8.731-19.5-19.501c0-10.769 8.731-19.499 19.5-19.499s19.5 8.7299 19.5 19.499z" stroke="url(#g)" stroke-width="2.5556" fill="url(#b)"/>
   <path opacity=".4" d="m24.33 5.2182-2.3623 0.27046-2.5986 0.70995c0.22135-0.077615 0.4456-0.16234 0.67496-0.23665l-0.304-0.541-1.012 0.1691-0.507 0.4733-0.776 0.1014-0.709 0.3381-0.337 0.169-0.101 0.1352-0.507 0.1014-0.303 0.6424-0.405-0.8114-0.13499 0.33807 0.0675 0.91279-0.64121 0.54091-0.37122 0.98041h0.7762l0.30373-0.64234 0.10124-0.23665c0.34129-0.24178 0.66483-0.51103 1.0124-0.74376l0.80995 0.27046c0.52734 0.3589 1.0584 0.72347 1.5861 1.0818l0.777-0.7099-0.878-0.3719-0.405-0.8114-1.485-0.169-0.033-0.169 0.641 0.1352 0.371-0.3719 0.81-0.169c0.192-0.0934 0.38-0.1607 0.574-0.2367l-0.50622 0.4733 1.8224 1.2509v0.74376l-0.7087 0.70995 0.94494 1.8932 0.64121-0.37188 0.80995-1.2509c1.1387-0.35268 2.165-0.76307 3.2398-1.2509l-0.0675 0.4733 0.53996 0.37188 0.94494-0.64233-0.47247-0.54091-0.64121 0.37188-0.20249-0.067613c0.04651-0.02129 0.08828-0.045973 0.13499-0.067613l0.944-2.4341-2.058-0.8114zm-9.2469 3.6512 0.7762 0.54091h0.64121v-0.64233l-0.776-0.3381-0.641 0.4394zm17.92-0.4395-1.384 0.338-0.877 0.5747v0.50711l-1.3837 0.87898 0.26998 1.3185 0.80995-0.57472 0.50622 0.57472 0.57371 0.33807 0.37122-0.98041-0.20249-0.57472 0.20249-0.40569 0.80995-0.74375h0.37122l-0.37122 0.81137v0.74375c0.33384-0.09103 0.6708-0.12648 1.0124-0.16904l-0.94494 0.67614-0.0675 0.40568-1.0799 0.91279-1.1137-0.27046v-0.64234l-0.50622 0.33807 0.23624 0.57472h-0.80995l-0.43872 0.74376-0.53996 0.60853-0.97868 0.20284 0.57371 0.57472 0.13499 0.57472h-0.7087l-0.94494 0.50711v1.4875h0.43872l0.40497 0.43949 0.91119-0.43949 0.33748-0.91279 0.67496-0.40568 0.13499-0.33807 1.0799-0.27046 0.60746 0.67614 0.64121 0.33807-0.37123 0.74376 0.57372-0.16904 0.30373-0.74376-0.74245-0.84518h0.30373l0.74245 0.60853 0.13499 0.81137 0.64121 0.74376 0.16874-1.0818 0.33748-0.16904c0.35922 0.37357 0.64238 0.83043 0.94494 1.2509l1.1137 0.06762 0.64121 0.40569-0.30373 0.43949-0.64121 0.57472h-0.94494l-1.2487-0.40568-0.64121 0.06762-0.47247 0.54092-1.3499-1.3523-0.94494-0.27046-1.3837 0.16904-1.2149 0.33807c-0.69306 0.7871-1.4026 1.5829-2.0586 2.4003l-0.7762 1.8932 0.37123 0.40569-0.67496 0.98041 0.74245 1.7242c0.6178 0.70009 1.2392 1.3955 1.8561 2.096l0.91119-0.77756 0.37123 0.4733 0.97869-0.64234 0.33748 0.37188h0.97868l0.57371 0.64234-0.33748 1.1494 0.67496 0.77756-0.03375 1.3523 0.50622 0.98041-0.37122 0.84518c-0.03619 0.60617-0.0675 1.1855-0.0675 1.7918 0.29776 0.82134 0.59628 1.6407 0.87744 2.4679l0.20249 1.3185v0.67614h0.53996l0.7762-0.50711h0.94494l1.4174-1.5889-0.16874-0.54092 0.94494-0.84518-0.7087-0.77756 0.84369-0.67614 0.80995-0.50711 0.37122-0.40568-0.23623-0.91279c0-0.76848 0.000002-1.5303 0-2.2989l0.64121-1.4199 0.80994-0.87898 0.87744-2.1637v-0.57472c-0.43664 0.0551-0.85517 0.10478-1.2824 0.13523l0.87744-0.87899 1.2149-0.81137 0.64121-0.74376v-0.81137c-0.146-0.274-0.293-0.57-0.439-0.844l-0.57371 0.67614-0.43872-0.5071-0.64121-0.50711v-1.048l0.74245 0.84518 0.8437-0.10142c0.38062 0.34614 0.74609 0.65392 1.0799 1.048l0.53998-0.60854c0-0.65513-0.73657-3.8893-2.3286-6.6262-1.592-2.736-4.3872-5.2401-4.3872-5.2401l-0.20249 0.37188-0.74245 0.81137-0.94494-0.98041h0.94494l0.438-0.4738-1.755-0.3381-0.911-0.338zm-20.283 0.4394-0.337 0.879s-0.59084 0.097717-0.74245 0.13523c-1.9362 1.7873-5.8407 5.6642-6.7496 12.948 0.035987 0.16888 0.64121 1.1494 0.64121 1.1494l1.4849 0.87899 1.4849 0.40568 0.64121 0.77756 0.97869 0.74376 0.57371-0.10142 0.40497 0.20284v0.13523l-0.53996 1.5213-0.43872 0.64234 0.13499 0.30426-0.33748 1.2171 1.2487 2.2989 1.2824 1.1156 0.57371 0.81137-0.0675 1.6904 0.40497 0.9466-0.40497 1.8256s-0.05404-0.01501 0 0.16904c0.05452 0.18413 2.2559 1.4228 2.3961 1.3185 0.13968-0.1063 0.26998-0.20284 0.26998-0.20284l-0.13499-0.40568 0.57371-0.54091 0.20249-0.57472 0.91119-0.30426 0.7087-1.758-0.20249-0.4733 0.47247-0.74376 1.0799-0.23665 0.53996-1.2847-0.13499-1.5889 0.8437-1.1832 0.13499-1.2171c-1.1576-0.57505-2.2933-1.1659-3.4423-1.758l-0.57371-1.1156-1.0462-0.23665-0.57371-1.5213-1.3837 0.16904-1.2149-0.87898-1.2824 1.1156v0.16904c-0.385-0.11-0.84-0.127-1.1817-0.337l-0.26998-0.81137v-0.87898l-0.87744 0.10142c0.070612-0.55989 0.16513-1.1306 0.23623-1.6904h-0.50622l-0.50622 0.64234-0.47247 0.23665-0.7087-0.40568-0.067496-0.87898 0.13499-0.9466 1.0462-0.81137h0.84369l0.16874-0.4733 1.0462 0.23665 0.7762 0.98041 0.13499-1.6227 1.3499-1.1156 0.47247-1.1832 1.0124-0.40568 0.53996-0.81137 1.2824-0.23665 0.64121-0.9466h-1.9236l1.2149-0.57472h0.84369l1.0799-0.37188 0.20249 1.048 0.47247-0.74376-0.53997-0.37188 0.13499-0.43949-0.43872-0.40569-0.47247-0.13523 0.13499-0.50711-0.37123-0.70995-0.8437 0.33807 0.13499-0.64233-0.97869-0.57472-0.7762 1.3523 0.0675 0.4733-0.7762 0.33807-0.47247 1.048-0.23623-0.98041-1.3162-0.54091-0.23623-0.74376 1.7886-1.0142 0.7762-0.74376 0.0675-0.87898-0.43872-0.23665-0.57371-0.067613zm14.478 1.6227v0.54091l0.30373 0.33807v0.81137l-0.16874 1.0818 0.87744-0.16904 0.64121-0.64233-0.57371-0.54092c-0.18605-0.49631-0.3746-0.94387-0.60746-1.4199h-0.47247zm-0.74245 1.0818-0.53996 0.16904 0.13499 0.9804 0.7087-0.37188-0.30373-0.77756zm9.8881 8.8913 0.80995 0.9466 0.97869 2.096 0.60746 0.67614-0.30373 0.70995 0.53996 0.64234c-0.24779 0.01643-0.48776 0.03381-0.74245 0.03381-0.46267-0.97394-0.82884-1.9561-1.1812-2.975l-0.60746-0.67614-0.33748-1.2171 0.23624-0.23665z"/>
   <path opacity=".4" d="m41.739 23.999c0 9.7971-7.9424 17.739-17.738 17.739-9.7969 0-17.739-7.9422-17.739-17.739 0-9.7966 7.942-17.738 17.739-17.738 9.796 0 17.738 7.9414 17.738 17.738z" stroke="url(#f)" stroke-width="2.5556" fill="none"/>
  </g>
  <g style="enable-background:new" transform="matrix(.94345 0 0 1 131.67 310.08)" stroke="#787878" stroke-linecap="square" stroke-width="1.0295px" fill="none">
   <path d="m163.5 46.5h11.66"/>
   <path d="m163.5 46.5h11.66"/>
  </g>
 </g>
</svg>
