<?xml version="1.0" encoding="UTF-8" standalone="no"?>
<svg xmlns:rdf="http://www.w3.org/1999/02/22-rdf-syntax-ns#" xmlns="http://www.w3.org/2000/svg" height="48" width="48" version="1.1" xmlns:cc="http://creativecommons.org/ns#" xmlns:xlink="http://www.w3.org/1999/xlink" viewBox="0 0 48 48.000001" xmlns:dc="http://purl.org/dc/elements/1.1/">
 <defs>
  <radialGradient id="d" gradientUnits="userSpaceOnUse" cy="186.17" cx="99.157" gradientTransform="matrix(.21666 0 0 -.082844 27.486 -221.92)" r="62.769">
   <stop stop-color="#3d3d3d" offset="0"/>
   <stop stop-color="#686868" stop-opacity=".49804" offset=".5"/>
   <stop stop-color="#686868" stop-opacity="0" offset="1"/>
  </radialGradient>
  <linearGradient id="c" y2="-241.75" gradientUnits="userSpaceOnUse" x2="48.97" y1="-209.75" x1="48.97">
   <stop stop-color="#fff" offset="0"/>
   <stop stop-color="#fff" stop-opacity=".23529" offset=".50776"/>
   <stop stop-color="#fff" stop-opacity=".15686" offset=".83457"/>
   <stop stop-color="#fff" stop-opacity=".39216" offset="1"/>
  </linearGradient>
  <radialGradient id="b" gradientUnits="userSpaceOnUse" cy="-3.0867" cx="24.948" gradientTransform="matrix(0 2.439 -2.2439 0 17.074 -64.849)" r="20.5">
   <stop stop-color="#90dbec" offset="0"/>
   <stop stop-color="#42baea" offset=".26238"/>
   <stop stop-color="#3689e6" offset=".70495"/>
   <stop stop-color="#2b63a0" offset="1"/>
  </radialGradient>
 </defs>
 <g transform="translate(0 -1004.4)">
  <g transform="matrix(1.25 0 0 -1.25 -37.212 746.17)">
   <path fill="url(#d)" d="m62.57-237.35a13.6 5.2 0 1 0 -27.2 0 13.6 5.2 0 0 0 27.2 0z"/>
   <path d="m23.998 3.5c-11.347 0-20.498 8.521-20.498 19 0.0095 5.798 2.8745 11.28 7.797 14.883l0.201 0.15v6.612l6.295-3.541 0.199 0.058c1.946 0.554 3.97 0.836 6.006 0.838 11.347 0 20.502-8.521 20.502-19s-9.155-19-20.502-19z" transform="matrix(.8 0 0 -.8 29.77 -206.55)" fill="url(#b)"/>
   <path opacity=".5" d="m23.998 3.5c-11.347 0-20.498 8.521-20.498 19 0.0095 5.798 2.8745 11.28 7.797 14.883l0.201 0.15v6.612l6.295-3.541 0.199 0.058c1.946 0.554 3.97 0.836 6.006 0.838 11.347 0 20.502-8.521 20.502-19s-9.155-19-20.502-19z" transform="matrix(.8 0 0 -.8 29.77 -206.55)" stroke="#00537d" stroke-linecap="round" fill="none"/>
   <path opacity=".5" d="m48.968-210.15c-8.6765 0-15.598-6.4821-15.598-14.398v-0.002c0.0077-4.3754 2.1646-8.52 5.9094-11.261l0.0031-0.003 0.48594-0.36406v-4.3219l4.1375 2.3281 0.47656-0.14063 0.0063-0.002c1.4827-0.42172 3.0268-0.6365 4.5797-0.6375 8.6771 0 15.602 6.4831 15.602 14.4s-6.9244 14.4-15.602 14.4v0.002z" stroke="url(#c)" stroke-linecap="round" stroke-width="0.8" fill="none"/>
   <path opacity=".15" d="m50.708-230.91-4.3206 4.653-8.4304-4.653 9.2735 9.9405 4.426-4.653 8.325 4.653-9.2735-9.9405z"/>
   <path opacity=".05" style="color-rendering:auto;text-decoration-color:#000000;color:#000000;isolation:auto;mix-blend-mode:normal;shape-rendering:auto;solid-color:#000000;block-progression:tb;text-decoration-line:none;text-decoration-style:solid;image-rendering:auto;white-space:normal;text-indent:0;text-transform:none" d="m37.961-231.71a0.80008 0.80008 0 0 0 -0.58789 1.3457l9.2734 9.9395a0.80008 0.80008 0 0 0 1.1641 0.006l3.998-4.2031 7.7832 4.3496a0.80008 0.80008 0 0 0 0.97461 -1.2441l-9.2734-9.9394a0.80008 0.80008 0 0 0 -1.1699 0.002l-3.8965 4.1934-7.8828-4.3496a0.80008 0.80008 0 0 0 -0.38281 -0.0996zm12.748 1.9746 5.1992 5.5723-3.8613-2.1582a0.80008 0.80008 0 0 0 -0.96875 0.14649l-3.8418 4.0371-5.2656-5.6445 4.0312 2.2246a0.80008 0.80008 0 0 0 0.97266 -0.15625l3.7344-4.0215z"/>
   <path d="m50.708-230.11-4.3206 4.653-8.4304-4.653 9.2735 9.9405 4.426-4.653 8.325 4.653-9.2735-9.9405z" fill="#fff"/>
  </g>
 </g>
</svg>
