<?xml version="1.0" encoding="UTF-8" standalone="no"?>
<!-- Created with Inkscape (http://www.inkscape.org/) -->

<svg
   xmlns:dc="http://purl.org/dc/elements/1.1/"
   xmlns:cc="http://creativecommons.org/ns#"
   xmlns:rdf="http://www.w3.org/1999/02/22-rdf-syntax-ns#"
   xmlns:svg="http://www.w3.org/2000/svg"
   xmlns="http://www.w3.org/2000/svg"
   xmlns:xlink="http://www.w3.org/1999/xlink"
   xmlns:sodipodi="http://sodipodi.sourceforge.net/DTD/sodipodi-0.dtd"
   xmlns:inkscape="http://www.inkscape.org/namespaces/inkscape"
   version="1.1"
   width="48"
   height="48"
   id="svg4031"
   inkscape:version="0.91 r"
   sodipodi:docname="obs.svg">
  <sodipodi:namedview
     pagecolor="#ffffff"
     bordercolor="#666666"
     borderopacity="1"
     objecttolerance="10"
     gridtolerance="10"
     guidetolerance="10"
     inkscape:pageopacity="0"
     inkscape:pageshadow="2"
     inkscape:window-width="1920"
     inkscape:window-height="1025"
     id="namedview48"
     showgrid="false"
     inkscape:zoom="5.6568542"
     inkscape:cx="89.593573"
     inkscape:cy="31.022656"
     inkscape:window-x="0"
     inkscape:window-y="30"
     inkscape:window-maximized="1"
     inkscape:current-layer="svg4031" />
  <defs
     id="defs4033">
    <linearGradient
       id="linearGradient4168">
      <stop
         id="stop4170"
         style="stop-color:#f8b17e;stop-opacity:1"
         offset="0" />
      <stop
         id="stop4172"
         style="stop-color:#e35d4f;stop-opacity:1"
         offset="0.23208089" />
      <stop
         id="stop4174"
         style="stop-color:#c6262e;stop-opacity:1"
         offset="0.5908742" />
      <stop
         id="stop4176"
         style="stop-color:#690b54;stop-opacity:1"
         offset="1" />
    </linearGradient>
    <linearGradient
       id="linearGradient3957">
      <stop
         id="stop3959"
         style="stop-color:#ffffff;stop-opacity:1"
         offset="0" />
      <stop
         id="stop3961"
         style="stop-color:#c1c1c1;stop-opacity:1"
         offset="1" />
    </linearGradient>
    <linearGradient
       id="linearGradient4011">
      <stop
         id="stop4013"
         style="stop-color:#ffffff;stop-opacity:1"
         offset="0" />
      <stop
         id="stop4015"
         style="stop-color:#ffffff;stop-opacity:0.23529412"
         offset="0.507761" />
      <stop
         id="stop4017"
         style="stop-color:#ffffff;stop-opacity:0.15686275"
         offset="0.83456558" />
      <stop
         id="stop4019"
         style="stop-color:#ffffff;stop-opacity:0.39215687"
         offset="1" />
    </linearGradient>
    <linearGradient
       id="linearGradient2867-449-88-871-390-598-476-591-434-148-57-177-3-8">
      <stop
         id="stop3750-8-9"
         style="stop-color:#969696;stop-opacity:1"
         offset="0" />
      <stop
         id="stop3752-3-2"
         style="stop-color:#646464;stop-opacity:1"
         offset="0.26238" />
      <stop
         id="stop3754-7-2"
         style="stop-color:#323232;stop-opacity:1"
         offset="0.704952" />
      <stop
         id="stop3756-9-3"
         style="stop-color:#000000;stop-opacity:1"
         offset="1" />
    </linearGradient>
    <linearGradient
       id="linearGradient3820-7-2-1">
      <stop
         id="stop3822-2-6-3"
         style="stop-color:#3d3d3d;stop-opacity:1"
         offset="0" />
      <stop
         id="stop3864-8-7-7"
         style="stop-color:#686868;stop-opacity:0.49803922"
         offset="0.5" />
      <stop
         id="stop3824-1-2-5"
         style="stop-color:#686868;stop-opacity:0"
         offset="1" />
    </linearGradient>
    <linearGradient
       x1="71.204407"
       y1="6.2375584"
       x2="71.204407"
       y2="44.340794"
       id="linearGradient3012"
       xlink:href="#linearGradient4011"
       gradientUnits="userSpaceOnUse"
       gradientTransform="matrix(1.054054,0,0,1.054054,-51.611001,-2.7279009)" />
    <radialGradient
       cx="3.9722471"
       cy="8.4497671"
       r="19.99999"
       fx="3.9722471"
       fy="8.4497671"
       id="radialGradient3015"
       xlink:href="#linearGradient2867-449-88-871-390-598-476-591-434-148-57-177-3-8"
       gradientUnits="userSpaceOnUse"
       gradientTransform="matrix(0,2.4988347,-2.6434689,-6.8014435e-8,46.336814,-12.180468)" />
    <radialGradient
       cx="99.157013"
       cy="186.17059"
       r="62.769119"
       fx="99.157013"
       fy="186.17059"
       id="radialGradient3018"
       xlink:href="#linearGradient3820-7-2-1"
       gradientUnits="userSpaceOnUse"
       gradientTransform="matrix(0.27083381,0,0,0.08762273,-2.855072,25.187228)" />
    <linearGradient
       x1="27.92535"
       y1="15.149301"
       x2="33.447899"
       y2="22.986004"
       id="linearGradient3951"
       xlink:href="#linearGradient4168"
       gradientUnits="userSpaceOnUse" />
    <linearGradient
       x1="24"
       y1="22"
       x2="24"
       y2="26"
       id="linearGradient3963"
       xlink:href="#linearGradient3957"
       gradientUnits="userSpaceOnUse" />
    <linearGradient
       x1="21.013996"
       y1="25.433903"
       x2="22.805599"
       y2="27.343702"
       id="linearGradient3963-7"
       xlink:href="#linearGradient3957-2"
       gradientUnits="userSpaceOnUse" />
    <linearGradient
       id="linearGradient3957-2">
      <stop
         id="stop3959-62"
         style="stop-color:#ffffff;stop-opacity:1"
         offset="0" />
      <stop
         id="stop3961-5"
         style="stop-color:#c1c1c1;stop-opacity:1"
         offset="1" />
    </linearGradient>
    <linearGradient
       inkscape:collect="always"
       xlink:href="#linearGradient4011"
       id="linearGradient3801"
       x1="16.415949"
       y1="-2.6000259"
       x2="16.415949"
       y2="37.600647"
       gradientUnits="userSpaceOnUse" />
  </defs>
  <metadata
     id="metadata4036">
    <rdf:RDF>
      <cc:Work
         rdf:about="">
        <dc:format>image/svg+xml</dc:format>
        <dc:type
           rdf:resource="http://purl.org/dc/dcmitype/StillImage" />
        <dc:title></dc:title>
      </cc:Work>
    </rdf:RDF>
  </metadata>
  <g
     id="g4194">
    <g
       id="g3803">
      <path
         d="m 40.999999,41.499999 a 17,5.4999999 0 1 1 -33.999999,0 17,5.4999999 0 1 1 33.999999,0 z"
         id="path3818-0-5"
         style="fill:url(#radialGradient3018);fill-opacity:1;stroke:none" />
      <path
         d="M 24.000003,3.4999982 C 12.68881,3.4999982 3.4999996,12.688804 3.4999996,23.999998 3.4999996,35.311192 12.68881,44.500003 24.000003,44.5 35.311191,44.5 44.500011,35.311192 44.5,23.999998 44.5,12.688804 35.311191,3.4999982 24.000003,3.4999982 z"
         id="path2555"
         style="color:#000000;fill:url(#radialGradient3015);fill-opacity:1;fill-rule:nonzero;stroke:none;stroke-width:1;marker:none;visibility:visible;display:inline;overflow:visible;enable-background:accumulate" />
      <path
         d="m 24.000003,3.499998 c -11.311193,0 -20.5000034,9.188806 -20.5000034,20.5 0,11.311194 9.1888104,20.500005 20.5000034,20.500002 11.311188,0 20.500008,-9.188808 20.499997,-20.500002 0,-11.311194 -9.188809,-20.5 -20.499997,-20.5 z"
         id="path2555-6"
         style="opacity:0.7;color:#000000;fill:none;fill-opacity:0;fill-rule:nonzero;stroke:#000000;stroke-width:1;stroke-linecap:round;stroke-linejoin:round;stroke-miterlimit:4;stroke-opacity:1;stroke-dasharray:none;stroke-dashoffset:0;marker:none;visibility:visible;display:inline;overflow:visible;enable-background:accumulate" />
      <path
         sodipodi:type="arc"
         style="opacity:0.3;fill:none;stroke:url(#linearGradient3801);stroke-width:1;stroke-miterlimit:4;stroke-opacity:1;stroke-dasharray:none"
         id="path3025"
         sodipodi:cx="16.539108"
         sodipodi:cy="17.510515"
         sodipodi:rx="19.487383"
         sodipodi:ry="19.487383"
         d="m 36.026491,17.510515 a 19.487383,19.487383 0 1 1 -38.9747656,0 19.487383,19.487383 0 1 1 38.9747656,0 z"
         transform="translate(7.4608917,6.4894848)" />
    </g>
    <path
       sodipodi:nodetypes="ccssssssccssscccsssccsssssssc"
       inkscape:connector-curvature="0"
       id="path4138"
       d="M 22.665546,4.0177287 C 21.465783,4.0826476 20.74561,4.1616936 19.752945,4.5976379 15.561367,6.4388 12.953976,10.168459 12.711004,14.670198 c -0.09382,1.738519 0.178273,3.434639 0.763466,4.757554 0.329831,0.745625 0.347037,0.756947 1.138146,0.759808 4.018682,0.01452 7.819038,2.932826 8.819007,6.77196 0.334293,1.283466 0.328907,3.610554 -0.0109,4.766955 -0.990057,3.368618 -3.663124,5.878955 -7.016877,6.589447 -3.705063,0.784915 -7.3124409,-0.694025 -9.4673241,-3.773195 0.6380377,1.08815 1.1856854,1.820618 2.1292928,2.589094 1.1790553,0.960065 3.2369303,1.984798 4.7570333,2.368984 0.815472,0.206109 1.574227,0.254157 3.091455,0.195828 1.707711,-0.06565 2.213021,-0.152738 3.353341,-0.578864 2.055606,-0.768155 3.907265,-2.064789 5.100903,-3.571885 l 0.534999,-0.675472 -0.599751,-1.285149 c -0.749865,-1.607599 -0.938726,-2.434682 -0.943886,-4.132995 -0.01035,-3.414097 1.78649,-6.402435 4.799068,-7.981649 2.720824,-1.426277 5.647364,-1.440946 8.489495,-0.04255 3.963056,1.949898 5.940067,6.812692 4.594623,10.886678 0.658533,-1.134026 0.760466,-2.274241 0.796627,-3.309215 0.07628,-2.168406 -0.239532,-3.729093 -1.121176,-5.539816 -1.516558,-3.114717 -4.533753,-5.513179 -7.808278,-6.206934 -1.587219,-0.336276 -1.599959,-0.33354 -2.053052,0.45954 -0.582754,1.020028 -1.95076,2.418612 -3.093805,3.162999 -1.418549,0.923801 -2.8623,1.338138 -4.695151,1.347029 -3.105443,0.01506 -5.748725,-1.313586 -7.502006,-3.770585 C 13.195676,13.454128 15.338799,6.4655318 21.083267,4.3804024 21.658396,4.1716419 22.06196,4.0676512 22.665549,4.0177307 Z"
       style="fill:#f9f9f9" />
    <path
       style="fill-opacity:1;stroke:#ffffff;opacity:0.3;fill:none;stroke-opacity:1"
       d="M 22.665546,4.0177287 C 21.465783,4.0826476 20.74561,4.1616936 19.752945,4.5976379 15.561367,6.4388 12.953976,10.168459 12.711004,14.670198 c -0.09382,1.738519 0.178273,3.434639 0.763466,4.757554 0.329831,0.745625 0.347037,0.756947 1.138146,0.759808 4.018682,0.01452 7.819038,2.932826 8.819007,6.77196 0.334293,1.283466 0.328907,3.610554 -0.0109,4.766955 -0.990057,3.368618 -3.663124,5.878955 -7.016877,6.589447 -3.705063,0.784915 -7.3124409,-0.694025 -9.4673241,-3.773195 0.6380377,1.08815 1.1856854,1.820618 2.1292928,2.589094 1.1790553,0.960065 3.2369303,1.984798 4.7570333,2.368984 0.815472,0.206109 1.574227,0.254157 3.091455,0.195828 1.707711,-0.06565 2.213021,-0.152738 3.353341,-0.578864 2.055606,-0.768155 3.907265,-2.064789 5.100903,-3.571885 l 0.534999,-0.675472 -0.599751,-1.285149 c -0.749865,-1.607599 -0.938726,-2.434682 -0.943886,-4.132995 -0.01035,-3.414097 1.78649,-6.402435 4.799068,-7.981649 2.720824,-1.426277 5.647364,-1.440946 8.489495,-0.04255 3.963056,1.949898 5.940067,6.812692 4.594623,10.886678 0.658533,-1.134026 0.760466,-2.274241 0.796627,-3.309215 0.07628,-2.168406 -0.239532,-3.729093 -1.121176,-5.539816 -1.516558,-3.114717 -4.533753,-5.513179 -7.808278,-6.206934 -1.587219,-0.336276 -1.599959,-0.33354 -2.053052,0.45954 -0.582754,1.020028 -1.95076,2.418612 -3.093805,3.162999 -1.418549,0.923801 -2.8623,1.338138 -4.695151,1.347029 -3.105443,0.01506 -5.748725,-1.313586 -7.502006,-3.770585 C 13.195676,13.454128 15.338799,6.4655318 21.083267,4.3804024 21.658396,4.1716419 22.06196,4.0676512 22.665549,4.0177307 Z"
       id="path4192"
       inkscape:connector-curvature="0"
       sodipodi:nodetypes="ccssssssccssscccsssccsssssssc" />
  </g>
</svg>
