<!-- Created with Inkscape (http://www.inkscape.org/) -->
<svg id="svg4031" xmlns:rdf="http://www.w3.org/1999/02/22-rdf-syntax-ns#" xmlns="http://www.w3.org/2000/svg" height="48" width="48" version="1.1" xmlns:cc="http://creativecommons.org/ns#" xmlns:xlink="http://www.w3.org/1999/xlink" xmlns:dc="http://purl.org/dc/elements/1.1/">
<defs id="defs4033">
<linearGradient id="linearGradient3801" y2="37.601" gradientUnits="userSpaceOnUse" x2="16.416" y1="-2.6" x1="16.416">
<stop id="stop4013" stop-color="#FFF" offset="0"/>
<stop id="stop4015" stop-color="#FFF" stop-opacity="0.23529412" offset="0.50776"/>
<stop id="stop4017" stop-color="#FFF" stop-opacity="0.15686275" offset="0.83457"/>
<stop id="stop4019" stop-color="#FFF" stop-opacity="0.39215687" offset="1"/>
</linearGradient>
<radialGradient id="radialGradient3070" gradientUnits="userSpaceOnUse" cy="8.6279" cx="8.1538" gradientTransform="matrix(0.0082824,1.5440423,-1.1876819,0.00637085,33.773026,-6.5602951)" r="20">
<stop id="stop3780" stop-color="#409ee4" offset="0"/>
<stop id="stop3782" stop-color="#478def" offset="0.26238"/>
<stop id="stop3784" stop-color="#3e76e0" offset="0.70495"/>
<stop id="stop3786" stop-color="#3f70de" offset="1"/>
</radialGradient>
<radialGradient id="radialGradient3073" gradientUnits="userSpaceOnUse" cy="186.17" cx="99.157" gradientTransform="matrix(0.27083381,0,0,0.08762273,-2.855072,25.187228)" r="62.769">
<stop id="stop3822-2-6-3" stop-color="#3d3d3d" offset="0"/>
<stop id="stop3864-8-7-7" stop-color="#686868" stop-opacity="0.49803922" offset="0.5"/>
<stop id="stop3824-1-2-5" stop-color="#686868" stop-opacity="0" offset="1"/>
</radialGradient>
</defs>
<metadata id="metadata4036">
<rdf:RDF>
<cc:Work rdf:about="">
<dc:format>image/svg+xml</dc:format>
<dc:type rdf:resource="http://purl.org/dc/dcmitype/StillImage"/>
<dc:title/>
</cc:Work>
</rdf:RDF>
</metadata>
<path id="path3818-0-5" fill="url(#radialGradient3073)" d="m41,41.5a17,5.5,0,1,1,-34,0,17,5.5,0,1,1,34,0z"/>
<path id="path2555" style="enable-background:accumulate;color:#000000;" d="M24,3.5c-11.311,0-20.5,9.189-20.5,20.5s9.189,20.5,20.5,20.5,20.5-9.189,20.5-20.5-9.189-20.5-20.5-20.5z" fill-rule="nonzero" fill="url(#radialGradient3070)"/>
<path id="path2555-6" opacity="0.4" stroke-linejoin="round" style="enable-background:accumulate;color:#000000;" d="m24,3.5c-11.311,0-20.5,9.1888-20.5,20.5s9.1888,20.5,20.5,20.5,20.5-9.1888,20.5-20.5-9.1888-20.5-20.5-20.5z" stroke-dashoffset="0" stroke="#000" stroke-linecap="round" stroke-miterlimit="4" stroke-dasharray="none" stroke-width="1" fill="none"/>
<path id="path3025" opacity="0.4" d="m36.026,17.511a19.487,19.487,0,1,1,-38.975,0,19.487,19.487,0,1,1,38.975,0z" transform="translate(7.4608917,6.4894848)" stroke="url(#linearGradient3801)" stroke-miterlimit="4" stroke-dasharray="none" stroke-width="1" fill="none"/>
<path id="path3845" opacity="0.15" d="m20.281,16.406c-0.30973-0.0207-0.59452,0.04359-0.84375,0.1875-0.27142,0.15669-0.48209,0.42003-0.59375,0.65625s-0.15358,0.45085-0.21875,0.6875c-0.14133,0.51322-0.25675,1.1656-0.34375,1.9062-0.17232,1.467-0.25,3.3069-0.25,5.1562,0,1.8495,0.07769,3.6894,0.25,5.1562,0.087,0.74066,0.20242,1.393,0.34375,1.9062,0.06451,0.23426,0.10917,0.47673,0.21875,0.71875s0.31438,0.49492,0.59375,0.65625c0.27186,0.15691,0.57693,0.20294,0.84375,0.1875s0.50508-0.09232,0.75-0.15625c0.53561-0.1398,1.1411-0.39808,1.8125-0.6875,1.3597-0.5862,2.9615-1.4188,4.5625-2.3438,1.6028-0.92604,3.1897-1.9286,4.375-2.8125,0.58707-0.43774,1.0815-0.85724,1.4688-1.25,0.1747-0.17715,0.35193-0.34387,0.5-0.5625,0.148-0.218,0.25-0.498,0.25-0.812,0-0.62787-0.39098-1.0428-0.75-1.4062-0.38676-0.39157-0.88111-0.81274-1.4688-1.25-1.1888-0.88456-2.7752-1.8594-4.375-2.7812-1.6002-0.92195-3.2015-1.7589-4.5625-2.3438-0.68162-0.2929-1.2932-0.52137-1.8125-0.65625-0.21574-0.05606-0.45078-0.13626-0.75-0.15625z" fill-rule="evenodd" fill="#000"/>
<path id="path4996" opacity="0.15" d="m33.154,25c0,1.5369-11.979,8.4532-13.31,7.6848-1.331-0.76848-1.331-14.601,0-15.369,1.331-0.76848,13.31,6.1476,13.31,7.6848z" fill-rule="evenodd" fill="#00008c"/>
<path id="path4224" d="m33.154,24c0,1.5369-11.979,8.4532-13.31,7.6848-1.331-0.76848-1.331-14.601,0-15.369,1.331-0.76848,13.31,6.1476,13.31,7.6848z" fill-rule="evenodd" fill="#fafafa"/>
</svg>
