<?xml version="1.0" encoding="UTF-8" standalone="no"?>
<!-- Created with Inkscape (http://www.inkscape.org/) -->

<svg
   xmlns:dc="http://purl.org/dc/elements/1.1/"
   xmlns:cc="http://creativecommons.org/ns#"
   xmlns:rdf="http://www.w3.org/1999/02/22-rdf-syntax-ns#"
   xmlns:svg="http://www.w3.org/2000/svg"
   xmlns="http://www.w3.org/2000/svg"
   xmlns:xlink="http://www.w3.org/1999/xlink"
   xmlns:sodipodi="http://sodipodi.sourceforge.net/DTD/sodipodi-0.dtd"
   xmlns:inkscape="http://www.inkscape.org/namespaces/inkscape"
   version="1.1"
   width="48"
   height="48"
   id="svg3489"
   inkscape:version="0.91 r13725"
   sodipodi:docname="portal2.svg">
  <sodipodi:namedview
     pagecolor="#ffffff"
     bordercolor="#666666"
     borderopacity="1"
     objecttolerance="10"
     gridtolerance="10"
     guidetolerance="10"
     inkscape:pageopacity="0"
     inkscape:pageshadow="2"
     inkscape:window-width="1608"
     inkscape:window-height="1024"
     id="namedview154"
     showgrid="true"
     inkscape:zoom="1"
     inkscape:cx="-261.66405"
     inkscape:cy="24.779584"
     inkscape:window-x="26"
     inkscape:window-y="15"
     inkscape:window-maximized="0"
     inkscape:current-layer="svg3489"
     showborder="true"
     inkscape:showpageshadow="false" />
  <defs
     id="defs3491">
    <linearGradient
       inkscape:collect="always"
       id="linearGradient4285">
      <stop
         style="stop-color:#ffffff;stop-opacity:1;"
         offset="0"
         id="stop4287" />
      <stop
         style="stop-color:#ffffff;stop-opacity:0;"
         offset="1"
         id="stop4289" />
    </linearGradient>
    <linearGradient
       id="linearGradient3936">
      <stop
         id="stop3938"
         offset="0"
         style="stop-color:#b3c3ff;stop-opacity:1;" />
      <stop
         style="stop-color:#2c4dff;stop-opacity:1;"
         offset="0.58288509"
         id="stop3940" />
      <stop
         id="stop3942"
         offset="1"
         style="stop-color:#000000;stop-opacity:1;" />
    </linearGradient>
    <linearGradient
       id="linearGradient3924">
      <stop
         style="stop-color:#000000;stop-opacity:0;"
         offset="0"
         id="stop3926" />
      <stop
         id="stop3928"
         offset="0.79011071"
         style="stop-color:#000000;stop-opacity:0.03125;" />
      <stop
         style="stop-color:#000000;stop-opacity:0.21875;"
         offset="1"
         id="stop3930" />
    </linearGradient>
    <linearGradient
       id="linearGradient3912">
      <stop
         id="stop3914"
         offset="0"
         style="stop-color:#000000;stop-opacity:0;" />
      <stop
         style="stop-color:#000000;stop-opacity:0.0703125;"
         offset="0.79011071"
         id="stop3916" />
      <stop
         id="stop3918"
         offset="1"
         style="stop-color:#000000;stop-opacity:0.375;" />
    </linearGradient>
    <linearGradient
       id="linearGradient4806">
      <stop
         id="stop4808"
         style="stop-color:#ffffff;stop-opacity:1"
         offset="0" />
      <stop
         id="stop4810"
         style="stop-color:#ffffff;stop-opacity:0.23529412"
         offset="0.42447853" />
      <stop
         id="stop4812"
         style="stop-color:#ffffff;stop-opacity:0.15686275"
         offset="0.82089913" />
      <stop
         id="stop4814"
         style="stop-color:#ffffff;stop-opacity:0.39215687"
         offset="1" />
    </linearGradient>
    <radialGradient
       cx="23.896"
       cy="3.99"
       r="20.396999"
       id="radialGradient3093-0-3-6"
       gradientUnits="userSpaceOnUse"
       gradientTransform="matrix(0,1.2316483,-1.625754,0,18.486966,-28.721977)">
      <stop
         id="stop3244-9-33-7-0"
         style="stop-color:#ffffff;stop-opacity:1"
         offset="0" />
      <stop
         id="stop3246-3-5-0-8"
         style="stop-color:#dddddd;stop-opacity:1"
         offset="0.26238" />
      <stop
         id="stop3248-1-7-8-8"
         style="stop-color:#abacae;stop-opacity:1"
         offset="0.66093999" />
      <stop
         id="stop3250-9-3-0-5"
         style="stop-color:#89898b;stop-opacity:1"
         offset="1" />
    </radialGradient>
    <linearGradient
       id="linearGradient3820-7-2">
      <stop
         id="stop3822-2-6"
         style="stop-color:#3d3d3d;stop-opacity:1"
         offset="0" />
      <stop
         id="stop3864-8-7"
         style="stop-color:#686868;stop-opacity:0.49803922"
         offset="0.5" />
      <stop
         id="stop3824-1-2"
         style="stop-color:#686868;stop-opacity:0"
         offset="1" />
    </linearGradient>
    <radialGradient
       inkscape:collect="always"
       xlink:href="#linearGradient3820-7-2"
       id="radialGradient4222"
       gradientUnits="userSpaceOnUse"
       gradientTransform="matrix(0.38235362,0,0,0.11948554,-5.913044,34.255311)"
       cx="99.157013"
       cy="186.17059"
       fx="99.157013"
       fy="186.17059"
       r="62.769119" />
    <radialGradient
       inkscape:collect="always"
       xlink:href="#linearGradient3924"
       id="radialGradient4226"
       gradientUnits="userSpaceOnUse"
       cx="17.355932"
       cy="16.813559"
       fx="17.355932"
       fy="16.813559"
       r="20.025423" />
    <radialGradient
       inkscape:collect="always"
       xlink:href="#linearGradient3912"
       id="radialGradient4230"
       gradientUnits="userSpaceOnUse"
       cx="17.355932"
       cy="16.813559"
       fx="17.355932"
       fy="16.813559"
       r="20.025423" />
    <radialGradient
       inkscape:collect="always"
       xlink:href="#linearGradient3936"
       id="radialGradient4232"
       gradientUnits="userSpaceOnUse"
       cx="17.355932"
       cy="16.813559"
       fx="17.355932"
       fy="16.813559"
       r="20.025423" />
    <radialGradient
       inkscape:collect="always"
       xlink:href="#radialGradient3093-0-3-6"
       id="radialGradient4240"
       gradientUnits="userSpaceOnUse"
       gradientTransform="matrix(-3.3947559,0.04047016,-0.10173493,-8.5338224,-259.92832,64.227319)"
       cx="-59.309841"
       cy="7.116024"
       fx="-59.309841"
       fy="7.116024"
       r="1.9381833" />
    <radialGradient
       inkscape:collect="always"
       xlink:href="#radialGradient3093-0-3-6"
       id="radialGradient4242"
       gradientUnits="userSpaceOnUse"
       gradientTransform="matrix(-3.3947559,0.04047016,-0.10173493,-8.5338224,-196.10916,71.363094)"
       cx="-59.309841"
       cy="7.116024"
       fx="-59.309841"
       fy="7.116024"
       r="1.9381833" />
    <radialGradient
       inkscape:collect="always"
       xlink:href="#radialGradient3093-0-3-6"
       id="radialGradient4255"
       gradientUnits="userSpaceOnUse"
       gradientTransform="matrix(-1.2390238e-8,1.3449015,-1.8598533,-1.7134356e-8,28.472215,-5.021159)"
       cx="17.355932"
       cy="-1.8948883"
       fx="17.355932"
       fy="-1.8948883"
       r="20.025423" />
    <linearGradient
       inkscape:collect="always"
       xlink:href="#linearGradient4806"
       id="linearGradient4263"
       gradientUnits="userSpaceOnUse"
       gradientTransform="matrix(2.3265974,0,0,2.3265974,-135.92832,-33.634373)"
       x1="71.204407"
       y1="15.369057"
       x2="71.204407"
       y2="40.495617" />
    <radialGradient
       inkscape:collect="always"
       xlink:href="#radialGradient3093-0-3-6"
       id="radialGradient4270"
       gradientUnits="userSpaceOnUse"
       gradientTransform="matrix(0,4.1561583,-5.4860552,0,53.886335,-98.223439)"
       cx="23.896"
       cy="3.99"
       fx="23.896"
       fy="3.99"
       r="20.396999" />
    <radialGradient
       inkscape:collect="always"
       xlink:href="#radialGradient3093-0-3-6"
       id="radialGradient4278"
       gradientUnits="userSpaceOnUse"
       gradientTransform="matrix(-3.3943514,0.04046534,-0.10172281,-8.5328057,-195.99716,70.564042)"
       cx="-59.309841"
       cy="7.116024"
       fx="-59.309841"
       fy="7.116024"
       r="1.9381833" />
    <radialGradient
       inkscape:collect="always"
       xlink:href="#radialGradient3093-0-3-6"
       id="radialGradient4281"
       gradientUnits="userSpaceOnUse"
       gradientTransform="matrix(-3.3943514,0.04046534,-0.10172281,-8.5328057,-259.80919,63.429064)"
       cx="-59.309841"
       cy="7.116024"
       fx="-59.309841"
       fy="7.116024"
       r="1.9381833" />
    <linearGradient
       inkscape:collect="always"
       xlink:href="#linearGradient4285"
       id="linearGradient4291"
       x1="31.643396"
       y1="1.1250117"
       x2="31.6329"
       y2="5.8230772"
       gradientUnits="userSpaceOnUse" />
    <linearGradient
       inkscape:collect="always"
       xlink:href="#linearGradient4285"
       id="linearGradient4295"
       gradientUnits="userSpaceOnUse"
       x1="31.312641"
       y1="7.3449297"
       x2="31.312641"
       y2="-0.68541473"
       gradientTransform="matrix(1,0,0,-1,0,62.174327)" />
  </defs>
  <metadata
     id="metadata3494">
    <rdf:RDF>
      <cc:Work
         rdf:about="">
        <dc:format>image/svg+xml</dc:format>
        <dc:type
           rdf:resource="http://purl.org/dc/dcmitype/StillImage" />
        <dc:title />
      </cc:Work>
    </rdf:RDF>
  </metadata>
  <g
     id="g3947">
    <g
       style="stroke-width:1.4285742;stroke-miterlimit:4;stroke-dasharray:none"
       transform="matrix(0.69999862,0,0,0.69999862,1.6050487,1.481797)"
       id="g4297">
      <path
         inkscape:connector-curvature="0"
         style="fill:url(#radialGradient4222);fill-opacity:1;stroke:none"
         id="path3818-0"
         d="m 55.999998,56.499998 a 24,7.4999998 0 1 1 -47.999999,0 24,7.4999998 0 1 1 47.999999,0 z" />
      <path
         inkscape:connector-curvature="0"
         style="color:#000000;fill:url(#radialGradient4270);fill-opacity:1;fill-rule:nonzero;stroke:none;stroke-width:1.4285742;marker:none;visibility:visible;display:inline;overflow:visible;enable-background:accumulate"
         id="path2555-7"
         d="m 31.996425,1.7041986 c -16.275143,0 -29.4964854,13.2213394 -29.4964854,29.4964834 0,16.275143 13.2213424,29.49649 29.4964854,29.496485 16.275141,0 29.496495,-13.221342 29.496485,-29.496485 0,-16.275144 -13.221344,-29.4964834 -29.496485,-29.4964834 z" />
      <path
         transform="matrix(0.68844952,0,0,0.68844952,20.047746,19.625396)"
         d="M 36.881355,16.813559 A 19.525423,19.525423 0 0 1 17.355932,36.338982 19.525423,19.525423 0 0 1 -2.1694908,16.813559 19.525423,19.525423 0 0 1 17.355932,-2.7118645 19.525423,19.525423 0 0 1 36.881355,16.813559 Z"
         sodipodi:ry="19.525423"
         sodipodi:rx="19.525423"
         sodipodi:cy="16.813559"
         sodipodi:cx="17.355932"
         id="path3920"
         style="fill:url(#radialGradient4226);fill-opacity:1;stroke:none"
         sodipodi:type="arc" />
      <path
         inkscape:connector-curvature="0"
         style="fill:#333333;stroke:none"
         d="m 31.996425,1.7041992 c -0.951822,0 -1.883267,0.036578 -2.812165,0.1249851 l 0,7.8428155 0.593679,0 c 0.363707,-0.036936 0.723288,-0.071732 1.09362,-0.093739 0.368805,-0.018698 0.751415,-0.031246 1.124866,-0.031246 0.746902,0 1.491073,0.051114 2.218486,0.1249851 l 0.593679,0 0,-7.8428155 C 33.879692,1.7407767 32.948247,1.7041992 31.996425,1.7041992 z m -2.499702,51.3063868 0,7.561599 c 0.826527,0.06975 1.655315,0.124985 2.499702,0.124985 0.844387,0 1.673175,-0.05523 2.499702,-0.124985 l 0,-7.561599 -4.999404,0 z"
         id="rect3956" />
      <path
         inkscape:connector-curvature="0"
         style="opacity:0.5;color:#000000;fill:none;stroke:#000000;stroke-width:1.4285742;stroke-linecap:round;stroke-linejoin:round;stroke-miterlimit:4;stroke-opacity:1;stroke-dasharray:none;stroke-dashoffset:0;marker:none;visibility:visible;display:inline;overflow:visible;enable-background:accumulate"
         id="path2555-7-1"
         d="m 31.996425,1.7041982 c -16.275143,0 -29.4964854,13.2213398 -29.4964854,29.4964838 0,16.275143 13.2213424,29.49649 29.4964854,29.496485 16.275141,0 29.496495,-13.221342 29.496485,-29.496485 0,-16.275144 -13.221344,-29.4964838 -29.496485,-29.4964838 z" />
      <path
         inkscape:connector-curvature="0"
         style="fill:#333333;stroke:none"
         d="m 14.654741,7.3597753 c -0.507897,0.3699679 -0.985874,0.7552479 -1.468575,1.1561122 l 0,11.9985705 c 0.436764,-0.767 0.944404,-1.482532 1.468575,-2.18724 l 0,-10.9674427 z m 34.683368,0 0,10.9674427 c 0.524171,0.704708 1.031811,1.42024 1.468575,2.18724 l 0,-11.9985705 C 50.323983,8.1150232 49.846007,7.7297432 49.338109,7.3597753 z m -36.151943,34.5271357 0,11.998571 c 0.482701,0.400864 0.960678,0.786144 1.468575,1.156112 l 0,-10.967443 c -0.524171,-0.704708 -1.031811,-1.42024 -1.468575,-2.18724 z m 37.620518,0 c -0.436764,0.767 -0.944404,1.482532 -1.468575,2.18724 l 0,10.967443 c 0.507898,-0.369968 0.985873,-0.755248 1.468575,-1.156112 l 0,-11.998571 z"
         id="rect3964" />
      <path
         sodipodi:nodetypes="sssss"
         inkscape:connector-curvature="0"
         style="opacity:0.8;color:#000000;fill:none;stroke:url(#linearGradient4263);stroke-width:1.4285742;stroke-linecap:round;stroke-linejoin:round;stroke-miterlimit:4;stroke-opacity:1;stroke-dasharray:none;stroke-dashoffset:0;marker:none;visibility:visible;display:inline;overflow:visible;enable-background:accumulate"
         id="path3019"
         d="m 60.06688,31.200684 c 0,15.738239 -12.938464,28.138066 -28.074029,28.138066 -15.738224,0 -28.0912451,-12.868578 -28.0912451,-28.138066 0,-15.738241 12.5351571,-27.8492836 28.0948091,-27.8492836 15.738245,0 28.070465,12.3342576 28.070465,27.8492836 z" />
      <path
         inkscape:connector-curvature="0"
         style="fill:#1a1a1a;stroke:none"
         d="m 31.996425,9.5470147 c -0.437912,0 -0.880873,0.036836 -1.312344,0.062492 l 0,7.9990463 2.624688,0 0,-7.9990463 c -0.431471,-0.025652 -0.874432,-0.062492 -1.312344,-0.062492 z m -1.312344,35.0895693 0,8.155278 c 0.431471,0.02566 0.874432,0.06249 1.312344,0.06249 0.437912,0 0.880873,-0.03684 1.312344,-0.06249 l 0,-8.155278 -1.312344,0 -1.312344,0 z"
         id="rect3946" />
      <path
         sodipodi:type="arc"
         style="fill:url(#radialGradient4230);fill-opacity:1;stroke:#1a1a1a;stroke-width:1.28908861;stroke-miterlimit:4;stroke-opacity:0.78431373;stroke-dasharray:none"
         id="path3128"
         sodipodi:cx="17.355932"
         sodipodi:cy="16.813559"
         sodipodi:rx="19.525423"
         sodipodi:ry="19.525423"
         d="M 36.881355,16.813559 A 19.525423,19.525423 0 0 1 17.355932,36.338982 19.525423,19.525423 0 0 1 -2.1694908,16.813559 19.525423,19.525423 0 0 1 17.355932,-2.7118645 19.525423,19.525423 0 0 1 36.881355,16.813559 Z"
         transform="matrix(1.1082049,0,0,1.1082049,12.762501,12.567815)" />
      <path
         sodipodi:type="arc"
         style="fill:url(#radialGradient4232);fill-opacity:1;stroke:none"
         id="path3932"
         sodipodi:cx="17.355932"
         sodipodi:cy="16.813559"
         sodipodi:rx="19.525423"
         sodipodi:ry="19.525423"
         d="M 36.881355,16.813559 A 19.525423,19.525423 0 0 1 17.355932,36.338982 19.525423,19.525423 0 0 1 -2.1694908,16.813559 19.525423,19.525423 0 0 1 17.355932,-2.7118645 19.525423,19.525423 0 0 1 36.881355,16.813559 Z"
         transform="matrix(0.62074705,0,0,0.62074705,21.222785,20.763715)" />
      <path
         transform="matrix(0.62074705,0,0,0.62074705,21.222785,20.763715)"
         d="M 36.881355,16.813559 A 19.525423,19.525423 0 0 1 17.355932,36.338982 19.525423,19.525423 0 0 1 -2.1694908,16.813559 19.525423,19.525423 0 0 1 17.355932,-2.7118645 19.525423,19.525423 0 0 1 36.881355,16.813559 Z"
         sodipodi:ry="19.525423"
         sodipodi:rx="19.525423"
         sodipodi:cy="16.813559"
         sodipodi:cx="17.355932"
         id="path4052"
         style="opacity:0.7;fill:none;stroke:#000000;stroke-width:2.30137897;stroke-miterlimit:4;stroke-opacity:1;stroke-dasharray:none"
         sodipodi:type="arc" />
      <path
         inkscape:connector-curvature="0"
         id="path4054"
         d="m 31.996425,17.764785 c -5.772065,0 -10.687491,3.640803 -12.59225,8.748958 l 25.1845,0 c -1.90476,-5.108155 -6.820185,-8.748958 -12.59225,-8.748958 z m -10.40501,21.966133 c 2.465214,3.006905 6.213331,4.905666 10.40501,4.905666 4.191678,0 7.939796,-1.898761 10.40501,-4.905666 l -20.81002,0 z"
         style="opacity:0.7;fill:none;stroke:#000000;stroke-width:1.4285742;stroke-miterlimit:4;stroke-opacity:1;stroke-dasharray:none" />
      <path
         inkscape:connector-curvature="0"
         style="fill:url(#radialGradient4255);fill-opacity:1;stroke:none"
         d="m 31.996425,17.764785 c -5.772065,0 -10.687491,3.640803 -12.59225,8.748958 l 25.1845,0 c -1.90476,-5.108155 -6.820185,-8.748958 -12.59225,-8.748958 z m -10.40501,21.966133 c 2.465214,3.006905 6.213331,4.905666 10.40501,4.905666 4.191678,0 7.939796,-1.898761 10.40501,-4.905666 l -20.81002,0 z"
         id="path4043" />
      <path
         sodipodi:type="arc"
         style="fill:none;stroke:#4d4d4d;stroke-width:1.42874444;stroke-miterlimit:4;stroke-opacity:1;stroke-dasharray:none"
         id="path3944"
         sodipodi:cx="36.067795"
         sodipodi:cy="47.322033"
         sodipodi:rx="1.6271186"
         sodipodi:ry="1.6271186"
         d="m 37.694913,47.322033 a 1.6271186,1.6271186 0 0 1 -1.627118,1.627119 1.6271186,1.6271186 0 0 1 -1.627119,-1.627119 1.6271186,1.6271186 0 0 1 1.627119,-1.627119 1.6271186,1.6271186 0 0 1 1.627118,1.627119 z"
         transform="matrix(0.99988086,0,0,0.99988086,3.5252411,-0.38877178)" />
      <path
         sodipodi:type="arc"
         style="opacity:0.7;fill:none;stroke:#000000;stroke-width:2.07506037;stroke-miterlimit:4;stroke-opacity:1;stroke-dasharray:none"
         id="path4050"
         sodipodi:cx="17.355932"
         sodipodi:cy="16.813559"
         sodipodi:rx="19.525423"
         sodipodi:ry="19.525423"
         d="M 36.881355,16.813559 A 19.525423,19.525423 0 0 1 17.355932,36.338982 19.525423,19.525423 0 0 1 -2.1694908,16.813559 19.525423,19.525423 0 0 1 17.355932,-2.7118645 19.525423,19.525423 0 0 1 36.881355,16.813559 Z"
         transform="matrix(0.68844952,0,0,0.68844952,20.047746,19.625396)" />
      <rect
         transform="matrix(-0.993807,-0.11112001,-0.11112001,0.993807,0,0)"
         ry="1.438012"
         rx="1.438012"
         y="-2.3904455"
         x="-60.65773"
         height="20.132166"
         width="2.876024"
         id="rect4064"
         style="fill:url(#radialGradient4281);fill-opacity:1;stroke:#000000;stroke-width:1.4285742;stroke-miterlimit:4;stroke-opacity:0.78431373;stroke-dasharray:none" />
      <rect
         style="fill:url(#radialGradient4278);fill-opacity:1;stroke:#000000;stroke-width:1.4285742;stroke-miterlimit:4;stroke-opacity:0.78431373;stroke-dasharray:none"
         id="rect4077"
         width="2.876024"
         height="20.132166"
         x="3.1542859"
         y="4.7445331"
         rx="1.438012"
         ry="1.438012"
         transform="matrix(0.993807,-0.11112001,0.11112001,0.993807,0,0)" />
      <path
         style="fill:#000000;fill-opacity:1;stroke:#000000;stroke-width:1.4285742;stroke-miterlimit:4;stroke-opacity:0.58823529;stroke-dasharray:none"
         d="m 3.9308034,4.3342502 c 0,0 9.3412766,-3.72836936 27.9932996,-3.72836936 18.652022,0 27.993299,3.72836936 27.993299,3.72836936 0.796659,0 1.438013,0.6413534 1.438013,1.4380119 l 0,0.3834703 c 0,0.7966585 -0.641354,1.4380119 -1.438013,1.4380119 0,0 -10.934307,-3.7283693 -27.993299,-3.7283693 -17.058993,0 -27.9932996,3.7283693 -27.9932996,3.7283693 -0.7966586,0 -1.438012,-0.6413534 -1.438012,-1.4380119 l 0,-0.3834703 c 0,-0.7966585 0.6413534,-1.4380119 1.438012,-1.4380119 z"
         id="rect4062"
         inkscape:connector-curvature="0"
         sodipodi:nodetypes="szsssszssss" />
      <g
         id="g4086"
         transform="matrix(0.99988086,0,0,-0.99988086,2.3741991e-4,62.906535)"
         style="stroke-width:1.42874444;stroke-miterlimit:4;stroke-dasharray:none">
        <rect
           transform="matrix(-0.99380699,-0.11112001,-0.11112001,0.99380699,0,0)"
           ry="1.4381833"
           rx="1.4381833"
           y="-1.6000334"
           x="-60.753128"
           height="20.134565"
           width="2.8763666"
           id="rect4088"
           style="fill:url(#radialGradient4240);fill-opacity:1;stroke:#000000;stroke-width:1.42874444;stroke-miterlimit:4;stroke-opacity:0.78431373;stroke-dasharray:none" />
        <rect
           style="fill:url(#radialGradient4242);fill-opacity:1;stroke:#000000;stroke-width:1.42874444;stroke-miterlimit:4;stroke-opacity:0.78431373;stroke-dasharray:none"
           id="rect4090"
           width="2.8763666"
           height="20.134565"
           x="3.0660191"
           y="5.5357428"
           rx="1.4381833"
           ry="1.4381833"
           transform="matrix(0.99380699,-0.11112001,0.11112001,0.99380699,0,0)" />
        <path
           style="fill:#000000;fill-opacity:1;stroke:#000000;stroke-width:1.42874444;stroke-miterlimit:4;stroke-opacity:0.58823529;stroke-dasharray:none"
           d="m 3.9310343,5.1303644 c 0,0 9.3423897,-3.7288136 27.9966347,-3.7288136 18.654245,0 27.996635,3.7288136 27.996635,3.7288136 0.796754,0 1.438184,0.6414298 1.438184,1.4381833 l 0,0.3835159 c 0,0.7967535 -0.64143,1.4381833 -1.438184,1.4381833 0,0 -10.93561,-3.7288136 -27.996635,-3.7288136 -17.061025,0 -27.9966347,3.7288136 -27.9966347,3.7288136 -0.7967535,0 -1.4381833,-0.6414298 -1.4381833,-1.4381833 l 0,-0.3835159 c 0,-0.7967535 0.6414298,-1.4381833 1.4381833,-1.4381833 z"
           id="path4092"
           inkscape:connector-curvature="0"
           sodipodi:nodetypes="szsssszssss" />
      </g>
      <path
         sodipodi:nodetypes="szsssszssss"
         inkscape:connector-curvature="0"
         id="path4283"
         d="m 4.0620484,5.0260142 c 0,0 9.2100316,-3.7047152 27.8620546,-3.7047152 18.652022,0 27.823491,3.7047152 27.823491,3.7047152 0.550896,0 0.903552,0.3226707 0.903552,0.6875086 l 0,0.3834703 c 0,0.3136077 0.0144,0.8698991 -0.714464,0.8698991 0,0 -10.953587,-3.8169354 -28.012579,-3.8169354 -17.058993,0 -27.5261843,3.5162979 -27.5261843,3.5162979 C 3.8289725,7.0377853 3.2013432,6.9760664 3.2013432,6.1794079 l 0,-0.3834703 c 0,-0.6049007 0.2797741,-0.7699234 0.8607052,-0.7699234 z"
         style="opacity:0.3;fill:none;stroke:url(#linearGradient4291);stroke-width:1.4285742;stroke-miterlimit:4;stroke-opacity:1;stroke-dasharray:none" />
      <path
         style="opacity:0.3;fill:none;stroke:url(#linearGradient4295);stroke-width:1.4285742;stroke-miterlimit:4;stroke-opacity:1;stroke-dasharray:none"
         d="m 4.05376,57.068855 c 0,0 9.287068,3.671555 27.939091,3.671555 18.652022,0 27.775943,-3.671084 27.775943,-3.671084 0.220835,0.0134 0.798582,-0.06199 0.856926,-0.592318 l 0.04464,-0.405792 c 0.03429,-0.311726 -0.207626,-0.825908 -0.668632,-0.825908 0,0 -10.949888,3.712099 -28.00888,3.712099 C 14.933858,58.957407 4.3630825,55.396 4.3630825,55.396 3.6825289,55.074694 3.2082096,55.327967 3.2082096,56.040916 l 0,0.38347 c 0,0.258919 0.2646193,0.644469 0.8455504,0.644469 z"
         id="path4293"
         inkscape:connector-curvature="0"
         sodipodi:nodetypes="szsssszssss" />
    </g>
  </g>
</svg>
