<!-- Created with Inkscape (http://www.inkscape.org/) -->
<svg id="svg4031" xmlns:rdf="http://www.w3.org/1999/02/22-rdf-syntax-ns#" xmlns="http://www.w3.org/2000/svg" height="48" width="48" version="1.1" xmlns:cc="http://creativecommons.org/ns#" xmlns:xlink="http://www.w3.org/1999/xlink" xmlns:dc="http://purl.org/dc/elements/1.1/">
<defs id="defs4033">
<linearGradient id="linearGradient3074" y2="44.341" gradientUnits="userSpaceOnUse" x2="71.204" gradientTransform="matrix(1.054054,0,0,1.054054,-51.611001,-2.7279009)" y1="6.2376" x1="71.204">
<stop id="stop4013" stop-color="#FFF" offset="0"/>
<stop id="stop4015" stop-color="#FFF" stop-opacity="0.23529412" offset="0.50776"/>
<stop id="stop4017" stop-color="#FFF" stop-opacity="0.15686275" offset="0.83457"/>
<stop id="stop4019" stop-color="#FFF" stop-opacity="0.39215687" offset="1"/>
</linearGradient>
<radialGradient id="radialGradient3077" gradientUnits="userSpaceOnUse" cy="8.4498" cx="8.4998" gradientTransform="matrix(-0.02329746,1.621872,-1.3059683,-0.01875966,35.23327,-4.5679108)" r="20">
<stop id="stop4087" stop-color="#06abec" offset="0"/>
<stop id="stop4093" stop-color="#0da6f6" offset="0.14449"/>
<stop id="stop4091" stop-color="#1e9df5" offset="0.32573"/>
<stop id="stop4089" stop-color="#1953f1" offset="1"/>
</radialGradient>
<radialGradient id="radialGradient3080" gradientUnits="userSpaceOnUse" cy="186.17" cx="99.157" gradientTransform="matrix(0.27083381,0,0,0.08762273,-2.855072,25.187228)" r="62.769">
<stop id="stop3822-2-6-3" stop-color="#3d3d3d" offset="0"/>
<stop id="stop3864-8-7-7" stop-color="#686868" stop-opacity="0.49803922" offset="0.5"/>
<stop id="stop3824-1-2-5" stop-color="#686868" stop-opacity="0" offset="1"/>
</radialGradient>
</defs>
<metadata id="metadata4036">
<rdf:RDF>
<cc:Work rdf:about="">
<dc:format>image/svg+xml</dc:format>
<dc:type rdf:resource="http://purl.org/dc/dcmitype/StillImage"/>
<dc:title/>
</cc:Work>
</rdf:RDF>
</metadata>
<path id="path3818-0-5" fill="url(#radialGradient3080)" d="m41,41.5a17,5.5,0,1,1,-34,0,17,5.5,0,1,1,34,0z"/>
<path id="path2555" style="enable-background:accumulate;color:#000000;" d="M24,3.5c-11.311,0-20.5,9.189-20.5,20.5s9.189,20.5,20.5,20.5,20.5-9.189,20.5-20.5-9.189-20.5-20.5-20.5z" fill-rule="nonzero" fill="url(#radialGradient3077)"/>
<path id="path8655" opacity="0.5" stroke-linejoin="round" style="enable-background:accumulate;color:#000000;" d="m43.5,23.999c0,10.77-8.7311,19.501-19.5,19.501-10.77,0-19.5-8.7309-19.5-19.501,0-10.769,8.7306-19.499,19.5-19.499s19.5,8.73,19.5,19.499z" stroke-dashoffset="0" stroke="url(#linearGradient3074)" stroke-linecap="round" stroke-miterlimit="4" stroke-dasharray="none" stroke-width="1" fill="none"/>
<path id="path2555-6" opacity="0.50000000000000000" stroke-linejoin="round" style="enable-background:accumulate;color:#000000;" d="m24,3.5c-11.311,0-20.5,9.1888-20.5,20.5s9.1888,20.5,20.5,20.5,20.5-9.1888,20.5-20.5-9.1888-20.5-20.5-20.5z" stroke-dashoffset="0" stroke="#00537d" stroke-linecap="round" stroke-miterlimit="4" stroke-dasharray="none" stroke-width="1" fill="none"/>
<path id="path3803" opacity="0.15" d="m24.976,13.023,0,20.106,2.2299,0,0-2.3284c1.3013,0.77901,2.8847,1.2065,4.472,1.2073,2.0456-0.0019,4.0778-0.72495,5.5235-1.9654,1.4457-1.2405,2.2872-2.9831,2.2872-4.7365,0.000004-1.7534-0.84149-3.496-2.2872-4.7365s-3.4779-1.9636-5.5235-1.9654c-1.5873,0.000828-3.1707,0.42832-4.472,1.2073v-6.7882zm-4.472,4.4721,0,2.3284c-1.2997-0.78333-2.8832-1.2152-4.472-1.2197-2.0456,0.0019-4.0778,0.72495-5.5235,1.9654-1.4457,1.2405-2.2872,2.9831-2.2872,4.7365s0.84149,3.496,2.2872,4.7365,3.4778,1.9636,5.5235,1.9654c1.5858,0.0028,3.169-0.42032,4.472-1.195v6.7882h2.2299v-20.106zm-4.472,3.351c1.73,0.0017,3.4384,0.68877,4.472,1.7987v5.3344c-1.0336,1.1099-2.742,1.797-4.472,1.7987-1.4623-0.000864-2.9152-0.48336-3.9483-1.3112-1.0331-0.82789-1.6339-1.991-1.6325-3.1608,0.003-1.1678,0.60521-2.3276,1.638-3.1528,1.0328-0.8253,2.4831-1.306,3.9429-1.3069zm15.646,0c1.4597,0.000869,2.9101,0.48159,3.9428,1.3069,1.0328,0.8253,1.6353,1.9851,1.638,3.1528,0.0013,1.1698-0.59937,2.3329-1.6325,3.1608-1.0331,0.82789-2.486,1.3104-3.9483,1.3112-1.7301-0.0017-3.4385-0.68877-4.472-1.7987v-5.3344c1.0336-1.1099,2.742-1.797,4.472-1.7987z" stroke="#000" stroke-miterlimit="4" stroke-dasharray="none" stroke-width="1.99999976" fill="none"/>
<path id="path3033" opacity="0.15" d="m24.976,13.023,0,20.106,2.2299,0,0-2.3284c1.3013,0.77901,2.8847,1.2065,4.472,1.2073,2.0456-0.0019,4.0778-0.72495,5.5235-1.9654,1.4457-1.2405,2.2872-2.9831,2.2872-4.7365,0.000004-1.7534-0.84149-3.496-2.2872-4.7365s-3.4779-1.9636-5.5235-1.9654c-1.5873,0.000827-3.1707,0.42832-4.472,1.2073v-6.7882zm-4.472,4.4721,0,2.3284c-1.2997-0.78334-2.8832-1.2152-4.472-1.2196-2.0456,0.0019-4.0778,0.72495-5.5235,1.9654-1.4457,1.2405-2.2872,2.9831-2.2872,4.7365s0.84149,3.496,2.2872,4.7365,3.4778,1.9636,5.5235,1.9654c1.5858,0.0028,3.169-0.42033,4.472-1.195v6.7882h2.2299v-20.106zm-4.472,3.351c1.73,0.0017,3.4384,0.68877,4.472,1.7987v5.3344c-1.0336,1.1099-2.742,1.797-4.472,1.7987-1.4623-0.000865-2.9152-0.48336-3.9483-1.3112-1.0331-0.82789-1.6338-1.991-1.6325-3.1608,0.003-1.1678,0.60521-2.3276,1.638-3.1528,1.0328-0.8253,2.4831-1.306,3.9429-1.3069zm15.646,0c1.4597,0.000867,2.9101,0.48159,3.9428,1.3069,1.0328,0.8253,1.6353,1.9851,1.638,3.1528,0.0013,1.1698-0.59937,2.3329-1.6325,3.1608-1.0331,0.82789-2.486,1.3104-3.9483,1.3112-1.7301-0.0017-3.4385-0.68877-4.472-1.7987v-5.3344c1.0336-1.1099,2.742-1.797,4.472-1.7987z" fill="#000"/>
<path id="path3060" fill="#FFF" d="m24.976,12.023,0,20.106,2.2299,0,0-2.3284c1.3013,0.77901,2.8847,1.2065,4.472,1.2073,2.0456-0.0019,4.0778-0.72495,5.5235-1.9654,1.4457-1.2405,2.2872-2.9831,2.2872-4.7365,0.000004-1.7534-0.84149-3.496-2.2872-4.7365s-3.4779-1.9636-5.5235-1.9654c-1.5873,0.000828-3.1707,0.42832-4.472,1.2073v-6.7882zm-4.472,4.4721,0,2.3284c-1.2997-0.78333-2.8832-1.2152-4.472-1.2197-2.0456,0.0019-4.0778,0.72495-5.5235,1.9654-1.4457,1.2405-2.2872,2.9831-2.2872,4.7365s0.84149,3.496,2.2872,4.7365,3.4778,1.9636,5.5235,1.9654c1.5858,0.0028,3.169-0.42032,4.472-1.195v6.7882h2.2299v-20.106zm-4.472,3.351c1.73,0.0017,3.4384,0.68877,4.472,1.7987v5.3344c-1.0336,1.1099-2.742,1.797-4.472,1.7987-1.4623-0.000866-2.9152-0.48336-3.9483-1.3112-1.0331-0.82789-1.6338-1.991-1.6325-3.1608,0.003-1.1678,0.60521-2.3276,1.638-3.1528,1.0328-0.8253,2.4831-1.306,3.9429-1.3069zm15.646,0c1.4597,0.000867,2.9101,0.48159,3.9428,1.3069,1.0328,0.8253,1.6353,1.9851,1.638,3.1528,0.0013,1.1698-0.59937,2.3329-1.6325,3.1608-1.0331,0.82789-2.486,1.3104-3.9483,1.3112-1.7301-0.0017-3.4385-0.68877-4.472-1.7987v-5.3344c1.0336-1.1099,2.742-1.797,4.472-1.7987z"/>
</svg>
