<?xml version="1.0" encoding="UTF-8" standalone="no"?>
<!-- Created with Inkscape (http://www.inkscape.org/) -->

<svg
   xmlns:dc="http://purl.org/dc/elements/1.1/"
   xmlns:cc="http://creativecommons.org/ns#"
   xmlns:rdf="http://www.w3.org/1999/02/22-rdf-syntax-ns#"
   xmlns:svg="http://www.w3.org/2000/svg"
   xmlns="http://www.w3.org/2000/svg"
   xmlns:xlink="http://www.w3.org/1999/xlink"
   xmlns:sodipodi="http://sodipodi.sourceforge.net/DTD/sodipodi-0.dtd"
   xmlns:inkscape="http://www.inkscape.org/namespaces/inkscape"
   width="48px"
   height="48px"
   id="svg4951"
   version="1.1"
   inkscape:version="0.91 r13725"
   sodipodi:docname="steam.svg">
  <defs
     id="defs4953">
    <linearGradient
       id="linearGradient3979">
      <stop
         style="stop-color:#efefef;stop-opacity:1;"
         offset="0"
         id="stop3981" />
      <stop
         style="stop-color:#dee2eb;stop-opacity:1;"
         offset="1"
         id="stop3983" />
    </linearGradient>
    <linearGradient
       id="linearGradient4806-2">
      <stop
         id="stop4808-4"
         style="stop-color:#ffffff;stop-opacity:1"
         offset="0" />
      <stop
         id="stop4810-0"
         style="stop-color:#ffffff;stop-opacity:0.23529412"
         offset="0.42447853" />
      <stop
         id="stop4812-8"
         style="stop-color:#ffffff;stop-opacity:0.15686275"
         offset="0.82089913" />
      <stop
         id="stop4814-0"
         style="stop-color:#ffffff;stop-opacity:0.39215687"
         offset="1" />
    </linearGradient>
    <linearGradient
       id="linearGradient3820-7-2-1">
      <stop
         id="stop3822-2-6-3"
         style="stop-color:#3d3d3d;stop-opacity:1"
         offset="0" />
      <stop
         id="stop3864-8-7-7"
         style="stop-color:#686868;stop-opacity:0.49803922"
         offset="0.5" />
      <stop
         id="stop3824-1-2-5"
         style="stop-color:#686868;stop-opacity:0"
         offset="1" />
    </linearGradient>
    <linearGradient
       inkscape:collect="always"
       xlink:href="#linearGradient3979"
       id="linearGradient4024"
       gradientUnits="userSpaceOnUse"
       x1="22.125"
       y1="14.125"
       x2="22.0625"
       y2="34.625" />
    <linearGradient
       inkscape:collect="always"
       xlink:href="#linearGradient3979"
       id="linearGradient4026"
       gradientUnits="userSpaceOnUse"
       x1="22.125"
       y1="14.125"
       x2="22.0625"
       y2="34.625" />
    <linearGradient
       inkscape:collect="always"
       xlink:href="#linearGradient3979"
       id="linearGradient4028"
       gradientUnits="userSpaceOnUse"
       x1="22.125"
       y1="14.125"
       x2="22.0625"
       y2="34.625" />
    <linearGradient
       inkscape:collect="always"
       xlink:href="#linearGradient3979"
       id="linearGradient4030"
       gradientUnits="userSpaceOnUse"
       x1="22.125"
       y1="14.125"
       x2="22.0625"
       y2="34.625" />
    <linearGradient
       inkscape:collect="always"
       xlink:href="#linearGradient4806-2"
       id="linearGradient4038"
       gradientUnits="userSpaceOnUse"
       gradientTransform="matrix(1.6169806,0,0,1.6169806,-92.707374,-21.060237)"
       x1="71.204407"
       y1="15.369057"
       x2="71.204407"
       y2="40.495617" />
    <radialGradient
       inkscape:collect="always"
       xlink:href="#radialGradient3093-0-3-6"
       id="radialGradient4041"
       gradientUnits="userSpaceOnUse"
       gradientTransform="matrix(0,2.8885219,-3.8127977,0,39.21344,-65.949504)"
       cx="23.896"
       cy="3.99"
       fx="23.896"
       fy="3.99"
       r="20.396999" />
    <radialGradient
       inkscape:collect="always"
       xlink:href="#linearGradient3820-7-2-1"
       id="radialGradient4044"
       gradientUnits="userSpaceOnUse"
       gradientTransform="matrix(0.27083381,0,0,0.08762273,-2.85507,25.187228)"
       cx="99.157013"
       cy="186.17059"
       fx="99.157013"
       fy="186.17059"
       r="62.769119" />
    <radialGradient
       cx="23.896"
       cy="3.99"
       r="20.396999"
       id="radialGradient3093-0-3-6"
       gradientUnits="userSpaceOnUse"
       gradientTransform="matrix(0,1.2316483,-1.625754,0,18.486966,-28.721977)">
      <stop
         id="stop3244-9-33-7-0"
         style="stop-color:#05051e;stop-opacity:1;"
         offset="0" />
      <stop
         id="stop3246-3-5-0-8"
         style="stop-color:#112651;stop-opacity:1;"
         offset="0.26238" />
      <stop
         id="stop3248-1-7-8-8"
         style="stop-color:#0a90ef;stop-opacity:1;"
         offset="0.66093999" />
      <stop
         id="stop3250-9-3-0-5"
         style="stop-color:#1485ff;stop-opacity:1;"
         offset="1" />
    </radialGradient>
  </defs>
  <sodipodi:namedview
     id="base"
     pagecolor="#ffffff"
     bordercolor="#666666"
     borderopacity="1.0"
     inkscape:pageopacity="0.0"
     inkscape:pageshadow="2"
     inkscape:zoom="4"
     inkscape:cx="-23.071546"
     inkscape:cy="26.518746"
     inkscape:current-layer="layer1"
     showgrid="true"
     inkscape:grid-bbox="true"
     inkscape:document-units="px"
     inkscape:window-width="1366"
     inkscape:window-height="745"
     inkscape:window-x="1672"
     inkscape:window-y="274"
     inkscape:window-maximized="1" />
  <metadata
     id="metadata4956">
    <rdf:RDF>
      <cc:Work
         rdf:about="">
        <dc:format>image/svg+xml</dc:format>
        <dc:type
           rdf:resource="http://purl.org/dc/dcmitype/StillImage" />
        <dc:title />
      </cc:Work>
    </rdf:RDF>
  </metadata>
  <g
     id="layer1"
     inkscape:label="Layer 1"
     inkscape:groupmode="layer">
    <g
       id="g4087">
      <path
         d="m 41,41.5 a 17,5.4999999 0 0 1 -34,0 17,5.4999999 0 1 1 34,0 z"
         id="path3818-0-5"
         style="fill:url(#radialGradient4044);fill-opacity:1;stroke:none"
         inkscape:connector-curvature="0" />
      <path
         style="color:#000000;fill:url(#radialGradient4041);fill-opacity:1.0;fill-rule:nonzero;stroke:none;stroke-width:0.99999994000000003;marker:none;visibility:visible;display:inline;overflow:visible;enable-background:accumulate"
         id="path2555-7-2"
         inkscape:connector-curvature="0"
         d="M 24,3.5000009 C 12.68881,3.5000009 3.5,12.688807 3.5,24 3.5,35.311193 12.68881,44.500003 24,44.5 35.31119,44.5 44.50001,35.311193 44.5,24 44.5,12.688807 35.31119,3.5000009 24,3.5000009 z" />
      <path
         id="path4176"
         d="M 43.5,24.000001 C 43.5,34.76955 34.76954,43.5 23.99999,43.5 13.23045,43.5 4.5,34.76955 4.5,24.000001 4.5,13.23045 13.23045,4.5000019 23.99999,4.5000019 34.76954,4.5000019 43.5,13.23045 43.5,24.000001 z"
         style="opacity:0.3;color:#000000;fill:none;stroke:url(#linearGradient4038);stroke-width:1;stroke-linecap:round;stroke-linejoin:round;stroke-miterlimit:4;stroke-opacity:1;stroke-dasharray:none;stroke-dashoffset:0;marker:none;visibility:visible;display:inline;overflow:visible;enable-background:accumulate"
         inkscape:connector-curvature="0" />
      <path
         id="path3871"
         d="M 24,3.4999999 C 12.68881,3.4999999 3.5,12.688806 3.5,23.999999 3.5,35.31119 12.68881,44.5 24,44.5 35.31119,44.5 44.50001,35.31119 44.5,23.999999 44.5,12.688806 35.31119,3.4999999 24,3.4999999 z"
         style="opacity:0.69999999999999996;color:#000000;fill:none;stroke:#0b1728;stroke-width:1;stroke-opacity:1;marker:none;visibility:visible;display:inline;overflow:visible;enable-background:accumulate"
         inkscape:connector-curvature="0" />
      <g
         style="fill:url(#linearGradient4030);fill-opacity:1"
         id="g3944">
        <path
           inkscape:connector-curvature="0"
           style="fill:url(#linearGradient4024);fill-opacity:1;stroke:none"
           d="m 30.6875,13.5 c -2.752794,0 -5.14729,1.521242 -6.375,3.78125 0,0 -1.988811,3.995598 -3.5,5.59375 -0.686171,0.725657 -1.88939,1.474148 -2.65625,1.9375 L 21,26.5 c 0.138987,0.08213 0.254669,0.18199 0.375,0.28125 0.0289,0.02384 0.06596,0.03777 0.09375,0.0625 0.877734,0.60943 1.46875,1.631739 1.46875,2.78125 0,1.863961 -1.511039,3.375 -3.375,3.375 -1.002085,0 -1.881873,-0.462745 -2.5,-1.15625 L 14.78125,30.5 c 0.41772,2.26808 2.392344,4 4.78125,4 1.185861,0 2.248614,-0.452351 3.09375,-1.15625 L 22.6875,33.375 23,33.0625 c 0,0 2.350514,-2.907431 3.9375,-3.8125 1.472945,-0.84003 4.90625,-1.34375 4.90625,-1.34375 0.583614,-0.09298 1.127866,-0.245262 1.65625,-0.46875 l 0.25,-0.0625 -0.03125,-0.03125 c 2.489254,-1.148133 4.21875,-3.672578 4.21875,-6.59375 0,-4.004064 -3.245936,-7.25 -7.25,-7.25 z m 0,2.25 c 2.761424,0 5,2.238576 5,5 0,2.761424 -2.238576,5 -5,5 -2.761424,0 -5,-2.238576 -5,-5 0,-2.761424 2.238576,-5 5,-5 z"
           id="path3883" />
        <path
           d="m 37.375,23.375 a 7.25,7.25 0 1 1 -14.5,0 7.25,7.25 0 1 1 14.5,0 z"
           sodipodi:ry="7.25"
           sodipodi:rx="7.25"
           sodipodi:cy="23.375"
           sodipodi:cx="30.125"
           id="path3889"
           style="fill:url(#linearGradient4026);fill-opacity:1;stroke:none"
           sodipodi:type="arc"
           transform="matrix(0.56034482,0,0,0.56034482,13.807306,7.65194)" />
        <path
           style="color:#000000;fill:url(#linearGradient4028);fill-opacity:1;stroke:none;stroke-width:1;marker:none;visibility:visible;display:inline;overflow:visible;enable-background:accumulate"
           d="M 5.9375,18 C 5.3444691,19.839537 5.0160787,21.81074 5,23.84375 l 12.96875,7.96875 c 1.378913,0.814785 3.122413,0.389038 3.90625,-0.9375 0.783837,-1.326538 0.316413,-3.028965 -1.0625,-3.84375 L 6.46875,18.25 C 6.2963858,18.148152 6.1186063,18.064121 5.9375,18 z"
           id="path3931"
           inkscape:connector-curvature="0"
           sodipodi:nodetypes="cccsccc" />
      </g>
    </g>
  </g>
</svg>
