<?xml version="1.0" encoding="UTF-8" standalone="no"?>
<svg
   xmlns:dc="http://purl.org/dc/elements/1.1/"
   xmlns:cc="http://creativecommons.org/ns#"
   xmlns:rdf="http://www.w3.org/1999/02/22-rdf-syntax-ns#"
   xmlns:svg="http://www.w3.org/2000/svg"
   xmlns="http://www.w3.org/2000/svg"
   xmlns:xlink="http://www.w3.org/1999/xlink"
   version="1.1"
   id="svg3167"
   height="48px"
   width="48px">
  <defs
     id="defs3169">
    <linearGradient
       id="linearGradient4801">
      <stop
         style="stop-color:#c0c0c0;stop-opacity:1;"
         offset="0"
         id="stop4803" />
      <stop
         id="stop4805"
         offset="0.25"
         style="stop-color:#ffffff;stop-opacity:1;" />
      <stop
         id="stop4807"
         offset="0.49916923"
         style="stop-color:#d2d2d2;stop-opacity:1;" />
      <stop
         style="stop-color:#c8c8c8;stop-opacity:1;"
         offset="1"
         id="stop4809" />
    </linearGradient>
    <linearGradient
       id="linearGradient4526">
      <stop
         id="stop4528"
         offset="0"
         style="stop-color:#ffffff;stop-opacity:1;" />
      <stop
         id="stop4530"
         offset="1"
         style="stop-color:#ffffff;stop-opacity:0;" />
    </linearGradient>
    <linearGradient
       id="linearGradient4426">
      <stop
         id="stop4428"
         offset="0"
         style="stop-color:#cc4f00;stop-opacity:1" />
      <stop
         style="stop-color:#ff8636;stop-opacity:1;"
         offset="0.25"
         id="stop4436" />
      <stop
         style="stop-color:#ef6000;stop-opacity:1;"
         offset="0.49916923"
         id="stop4434" />
      <stop
         id="stop4430"
         offset="1"
         style="stop-color:#da5700;stop-opacity:1;" />
    </linearGradient>
    <linearGradient
       id="linearGradient4019">
      <stop
         id="stop4021"
         offset="0"
         style="stop-color:#cc5506;stop-opacity:1;" />
      <stop
         id="stop4023"
         offset="1"
         style="stop-color:#f98b41;stop-opacity:1;" />
    </linearGradient>
    <linearGradient
       id="linearGradient4005">
      <stop
         id="stop4007"
         offset="0"
         style="stop-color:#ffffff;stop-opacity:1;" />
      <stop
         id="stop4009"
         offset="1"
         style="stop-color:#ffffff;stop-opacity:0;" />
    </linearGradient>
    <linearGradient
       id="linearGradient5048">
      <stop
         offset="0"
         style="stop-color:#000000;stop-opacity:0"
         id="stop5050" />
      <stop
         offset="0.5"
         style="stop-color:#000000;stop-opacity:1"
         id="stop5056" />
      <stop
         offset="1"
         style="stop-color:#000000;stop-opacity:0"
         id="stop5052" />
    </linearGradient>
    <linearGradient
       id="linearGradient5060">
      <stop
         offset="0"
         style="stop-color:#000000;stop-opacity:1"
         id="stop5062" />
      <stop
         offset="1"
         style="stop-color:#000000;stop-opacity:0"
         id="stop5064" />
    </linearGradient>
    <linearGradient
       y2="609.50507"
       x2="302.85715"
       y1="366.64789"
       x1="302.85715"
       gradientTransform="matrix(2.774389,0,0,1.969706,-1892.179,-910.66032)"
       gradientUnits="userSpaceOnUse"
       id="linearGradient4847"
       xlink:href="#linearGradient5048" />
    <radialGradient
       r="117.14286"
       fy="486.64789"
       fx="605.71429"
       cy="486.64789"
       cx="605.71429"
       gradientTransform="matrix(2.774389,0,0,1.969706,-1891.633,-910.66032)"
       gradientUnits="userSpaceOnUse"
       id="radialGradient4849"
       xlink:href="#linearGradient5060" />
    <radialGradient
       r="117.14286"
       fy="486.64789"
       fx="605.71429"
       cy="486.64789"
       cx="605.71429"
       gradientTransform="matrix(-2.774389,0,0,1.969706,112.7623,-910.66032)"
       gradientUnits="userSpaceOnUse"
       id="radialGradient4851"
       xlink:href="#linearGradient5060" />
    <linearGradient
       gradientTransform="matrix(1,0,0,0.96484375,0,0.98939735)"
       y2="44.642857"
       x2="24.285713"
       y1="27.642859"
       x1="24.285713"
       gradientUnits="userSpaceOnUse"
       id="linearGradient4853"
       xlink:href="#linearGradient4019" />
    <linearGradient
       y2="36.142857"
       x2="24.285713"
       y1="47.332169"
       x1="24.285713"
       gradientUnits="userSpaceOnUse"
       id="linearGradient4855"
       xlink:href="#linearGradient4005" />
    <linearGradient
       gradientTransform="matrix(1,0,0,0.98581946,0,0.00738065)"
       y2="23.0625"
       x2="33.147778"
       y1="20.5625"
       x1="13.914721"
       gradientUnits="userSpaceOnUse"
       id="linearGradient4857"
       xlink:href="#linearGradient4426" />
    <linearGradient
       y2="34.6875"
       x2="24.40625"
       y1="44.4375"
       x1="24.40625"
       gradientTransform="translate(0,0.40019516)"
       gradientUnits="userSpaceOnUse"
       id="linearGradient4859"
       xlink:href="#linearGradient4526" />
    <linearGradient
       gradientTransform="matrix(0.98618993,0,0,1,0.36967533,0)"
       y2="23.0625"
       x2="33.147778"
       y1="20.5625"
       x1="13.914721"
       gradientUnits="userSpaceOnUse"
       id="linearGradient4861"
       xlink:href="#linearGradient4801" />
    <linearGradient
       gradientTransform="matrix(0.98618993,0,0,1,0.36967533,0)"
       y2="23.0625"
       x2="33.147778"
       y1="20.5625"
       x1="13.914721"
       gradientUnits="userSpaceOnUse"
       id="linearGradient4863"
       xlink:href="#linearGradient4801" />
  </defs>
  <metadata
     id="metadata3172">
    <rdf:RDF>
      <cc:Work
         rdf:about="">
        <dc:format>image/svg+xml</dc:format>
        <dc:type
           rdf:resource="http://purl.org/dc/dcmitype/StillImage" />
        <dc:title></dc:title>
      </cc:Work>
    </rdf:RDF>
  </metadata>
  <g
     id="layer1">
    <g
       transform="translate(-0.28571359,-0.04572413)"
       id="g4833">
      <g
         id="g8875"
         transform="matrix(0.02232353,0,0,0.01202587,44.141055,44.0596)">
        <rect
           style="opacity:0.40206185;fill:url(#linearGradient4847);fill-opacity:1;fill-rule:nonzero;stroke:none;stroke-width:1;marker:none;visibility:visible;display:inline;overflow:visible"
           id="rect8877"
           y="-188.47177"
           x="-1559.2523"
           height="478.35718"
           width="1339.6335" />
        <path
           style="opacity:0.40206185;fill:url(#radialGradient4849);fill-opacity:1;fill-rule:nonzero;stroke:none;stroke-width:1;marker:none;visibility:visible;display:inline;overflow:visible"
           id="path8879"
           d="m -219.61876,-188.4553 c 0,0 0,478.33079 0,478.33079 142.874166,0.90045 345.40022,-107.16966 345.40014,-239.19618 0,-132.026537 -159.436816,-239.13459 -345.40014,-239.13461 z" />
        <path
           style="opacity:0.40206185;fill:url(#radialGradient4851);fill-opacity:1;fill-rule:nonzero;stroke:none;stroke-width:1;marker:none;visibility:visible;display:inline;overflow:visible"
           id="path8881"
           d="m -1559.2523,-188.4553 c 0,0 0,478.33079 0,478.33079 -142.8742,0.90045 -345.4002,-107.16966 -345.4002,-239.19618 0,-132.026537 159.4368,-239.13459 345.4002,-239.13461 z" />
      </g>
      <path
         style="color:#000000;fill:#c85100;fill-opacity:1;stroke:#c85100;stroke-width:1;stroke-linecap:square;stroke-linejoin:round;stroke-miterlimit:4;stroke-opacity:1;stroke-dashoffset:0.44999995999999998;marker:none;visibility:visible;display:inline;overflow:visible;enable-background:accumulate"
         d="m 9.571605,29.143 29.71393,0 c 0.633241,0 1.143035,0.533311 1.143035,1.195764 l 4,13.135258 c 0,0.662452 -0.509794,1.195764 -1.143035,1.195764 l -37.999644,0 c -0.633241,0 -1.143034,-0.533312 -1.143034,-1.195764 L 8.428571,30.338764 c 0,-0.662453 0.509793,-1.195764 1.143034,-1.195764 z"
         id="rect3186-2" />
      <path
         style="color:#000000;fill:url(#linearGradient4853);fill-opacity:1;stroke:#c85100;stroke-width:0.99999994000000003;stroke-linecap:square;stroke-linejoin:round;stroke-miterlimit:4;stroke-opacity:1;stroke-dashoffset:0.44999995999999998;marker:none;visibility:visible;display:inline;overflow:visible;enable-background:accumulate"
         d="m 9.571605,28.142858 29.71393,0 c 0.633241,0 1.143035,0.530244 1.143035,1.188888 l 4,13.059724 c 0,0.658644 -0.509794,1.188888 -1.143035,1.188888 l -37.999644,0 c -0.633241,0 -1.143034,-0.530244 -1.143034,-1.188888 L 8.428571,29.331746 c 0,-0.658644 0.509793,-1.188888 1.143034,-1.188888 z"
         id="rect3186" />
      <path
         transform="matrix(1,0,0,0.95132743,0,1.4160675)"
         style="color:#000000;fill:none;stroke:url(#linearGradient4855);stroke-width:1.02526235999999993;stroke-linecap:square;stroke-linejoin:round;stroke-miterlimit:4;stroke-opacity:1;stroke-dasharray:none;stroke-dashoffset:0.44999995999999998;marker:none;visibility:visible;display:inline;overflow:visible;enable-background:accumulate"
         id="path4015"
         d="m 9.5625,29.09375 c -0.1091502,0 -0.1875,0.04455 -0.1875,0.28125 A 0.92866426,0.92866426 0 0 1 9.3125,29.65625 L 5.125,42.9375 c 0.022545,0.178121 0.086896,0.28125 0.15625,0.28125 l 38,0 c 0.0786,0 0.21875,-0.104142 0.21875,-0.3125 L 39.5625,29.625 A 0.92866426,0.92866426 0 0 1 39.5,29.375 c 0,-0.208358 -0.1096,-0.28125 -0.21875,-0.28125 l -29.71875,0 z" />
      <g
         id="g4819"
         transform="translate(-0.1205365,0)">
        <path
           id="path4421"
           d="M 26.4375,0.93158641 C 25.049067,0.34827984 23.915257,0.40173516 22.625,0.9902128 22.291366,1.1423809 22.032645,1.4902464 21.9375,1.8402954 19.059874,12.427451 12.25,32.355328 12.25,32.355328 c -0.419963,0.549582 -0.65625,1.118843 -0.65625,1.729479 0,3.067933 5.734247,5.540193 12.8125,5.540193 7.078253,0 12.8125,-2.47226 12.8125,-5.540193 0,-0.554986 -0.212985,-1.077228 -0.5625,-1.582912 -0.01275,-0.01845 -0.01807,-0.04026 -0.03125,-0.05863 0,0 -6.640927,-20.604873 -9.40625,-30.7788518 C 27.12571,1.3221209 26.768191,1.0705158 26.4375,0.93158641 z"
           style="color:#000000;fill:url(#linearGradient4857);fill-opacity:1;stroke:#c85100;stroke-width:1;stroke-opacity:1;marker:none;visibility:visible;display:inline;overflow:visible;enable-background:accumulate;stroke-miterlimit:4;stroke-dasharray:none" />
        <path
           id="path4421-4"
           d="M 26.4375,1.3376953 22.625,1.397165 21.9375,2.2594755 12.25,33.213452 c -0.419963,0.557488 -0.65625,1.134937 -0.65625,1.754357 0,3.112064 5.734247,5.619886 12.8125,5.619886 7.078253,0 12.8125,-2.507822 12.8125,-5.619886 0,-0.562969 -0.212985,-1.092724 -0.5625,-1.605682 -0.01275,-0.01872 -0.01807,-0.04084 -0.03125,-0.05947 L 27.21875,2.0810664 26.4375,1.3376953 z"
           style="color:#000000;fill:none;stroke:url(#linearGradient4859);stroke-width:1;stroke-opacity:1;marker:none;visibility:visible;display:inline;overflow:visible;enable-background:accumulate;stroke-miterlimit:4;stroke-dasharray:none" />
        <path
           id="path4421-2-8"
           d="m 15.872169,23.09375 c -1.27336,4.216103 -2.201176,7.155705 -2.493187,8.09375 1.665979,2.154974 6.031299,3.6875 11.161358,3.6875 4.924857,0 9.350599,-1.417835 11.154552,-3.4375 -0.135066,-0.458813 -1.436302,-4.240466 -2.602342,-8.28125 -2.162614,1.057009 -5.188064,1.71875 -8.55221,1.71875 -3.428215,0 -6.501075,-0.68375 -8.668171,-1.78125 z"
           style="color:#000000;fill:url(#linearGradient4861);fill-opacity:1;stroke:none;stroke-width:0.85805809;marker:none;visibility:visible;display:inline;overflow:visible;enable-background:accumulate" />
        <path
           id="path4421-2-8-4"
           d="m 21.109207,6.5625 c -0.762662,2.9660386 -1.93909,6.150587 -2.821896,9.34375 1.691954,0.611275 4.047115,0.96875 6.249118,0.96875 2.227691,0 4.647611,-0.374202 6.353164,-1 -0.852907,-3.207851 -2.048344,-6.3784253 -2.788851,-9.3125 -1.10821,0.210286 -2.317907,0.3125 -3.564313,0.3125 -1.20559,0 -2.35067,-0.1155042 -3.427222,-0.3125 z"
           style="color:#000000;fill:url(#linearGradient4863);fill-opacity:1;stroke:none;stroke-width:0.85805809;marker:none;visibility:visible;display:inline;overflow:visible;enable-background:accumulate" />
      </g>
    </g>
  </g>
</svg>
