<?xml version="1.0" encoding="UTF-8" standalone="no"?>
<svg
   xmlns:dc="http://purl.org/dc/elements/1.1/"
   xmlns:cc="http://creativecommons.org/ns#"
   xmlns:rdf="http://www.w3.org/1999/02/22-rdf-syntax-ns#"
   xmlns:svg="http://www.w3.org/2000/svg"
   xmlns="http://www.w3.org/2000/svg"
   xmlns:sodipodi="http://sodipodi.sourceforge.net/DTD/sodipodi-0.dtd"
   xmlns:inkscape="http://www.inkscape.org/namespaces/inkscape"
   viewBox="0 0 24 24"
   id="svg3033"
   version="1.1"
   inkscape:version="0.48.4 r9939"
   width="100%"
   height="100%"
   sodipodi:docname="dropboxstatus-busy.svg">
  <metadata
     id="metadata3045">
    <rdf:RDF>
      <cc:Work
         rdf:about="">
        <dc:format>image/svg+xml</dc:format>
        <dc:type
           rdf:resource="http://purl.org/dc/dcmitype/StillImage" />
      </cc:Work>
    </rdf:RDF>
  </metadata>
  <defs
     id="defs3043" />
  <sodipodi:namedview
     pagecolor="#ffffff"
     bordercolor="#666666"
     borderopacity="1"
     objecttolerance="10"
     gridtolerance="10"
     guidetolerance="10"
     inkscape:pageopacity="0"
     inkscape:pageshadow="2"
     inkscape:window-width="640"
     inkscape:window-height="480"
     id="namedview3041"
     showgrid="false"
     inkscape:zoom="9.8333333"
     inkscape:cx="12"
     inkscape:cy="12"
     inkscape:window-x="431"
     inkscape:window-y="147"
     inkscape:window-maximized="0"
     inkscape:current-layer="svg3033" />
  <g
     style="color:#000"
     id="g3035">
    <path
       style="fill:#ffffff"
       d="m7.5 4.5-4.5 3.5 4.5 3-4.5 4 9 6 9-6-4.5-4 4.5-3-4.5-3.5-4.5 3.5-4.5-3.5zm4.5 4.5c1.4826 0 2.4128 0.55829 3 1.25v-1.25h1v2 1h-1-2v-1h1.3125c-0.435-0.557-1.142-1-2.312-1-3 0-3 3-3 3h-1s0-4 4-4zm3 4h1s0 4-4 4c-1.4826 0-2.4128-0.55829-3-1.25v1.25h-1v-2-1h1 2v1h-1.3125c0.43535 0.55672 1.1425 1 2.3125 1 3 0 3-3 3-3z"
       id="path3039" />
  </g>
</svg>
