<?xml version="1.0" encoding="UTF-8" standalone="no"?>
<svg xmlns:rdf="http://www.w3.org/1999/02/22-rdf-syntax-ns#" xmlns="http://www.w3.org/2000/svg" height="16" width="16" version="1.1" xmlns:cc="http://creativecommons.org/ns#" xmlns:xlink="http://www.w3.org/1999/xlink" xmlns:dc="http://purl.org/dc/elements/1.1/">
 <defs>
  <linearGradient id="b" y2="44.341" gradientUnits="userSpaceOnUse" x2="71.204" gradientTransform="matrix(.35135 0 0 .35135 -17.204 -.90930)" y1="6.2376" x1="71.204">
   <stop stop-color="#fff" offset="0"/>
   <stop stop-color="#fff" stop-opacity=".23529" offset=".50776"/>
   <stop stop-color="#fff" stop-opacity=".15686" offset=".83457"/>
   <stop stop-color="#fff" stop-opacity=".39216" offset="1"/>
  </linearGradient>
  <radialGradient id="a" gradientUnits="userSpaceOnUse" cy="8.4498" cx="5.78" gradientTransform="matrix(0 .89893 -.95096 -1.6562e-8 16.035 -6.0147)" r="20">
   <stop stop-color="#b1e198" offset="0"/>
   <stop stop-color="#71c586" offset=".26238"/>
   <stop stop-color="#04a171" offset=".70495"/>
   <stop stop-color="#108562" offset="1"/>
  </radialGradient>
  <linearGradient id="c" y2="13.944" gradientUnits="userSpaceOnUse" x2="7.7676" y1="2.1514" x1="7.9447">
   <stop stop-color="#fff" offset="0"/>
   <stop stop-color="#cee7dd" offset="1"/>
  </linearGradient>
 </defs>
 <g>
  <path stroke-linejoin="round" style="color:#000000" d="m8 0.5c-4.1382 0-7.5 3.3618-7.5 7.5 0 4.138 3.3618 7.5 7.5 7.5 4.138 0 7.5-3.362 7.5-7.5 0-4.1382-3.362-7.5-7.5-7.5z" stroke-opacity=".70196" stroke="#006344" stroke-linecap="round" fill="url(#a)"/>
  <path opacity=".5" stroke-linejoin="round" style="color:#000000" d="m14.5 7.9998c0 3.5902-2.91 6.5002-6.4999 6.5002s-6.5001-2.91-6.5001-6.5002c0-3.5898 2.9102-6.4998 6.5001-6.4998s6.4999 2.91 6.4999 6.4998v0z" stroke="url(#b)" stroke-linecap="round" fill="none"/>
  <path opacity=".15" style="color-rendering:auto;text-decoration-color:#000000;color:#000000;isolation:auto;mix-blend-mode:normal;shape-rendering:auto;solid-color:#000000;block-progression:tb;text-decoration-line:none;text-decoration-style:solid;image-rendering:auto;white-space:normal;text-indent:0;text-transform:none" d="m5.7637 3.5539c-0.16613 0.012315-0.3341 0.056852-0.48828 0.13477-0.41175 0.20805-0.65197 0.6178-0.76172 1.0605-0.10975 0.44274-0.11392 0.94831-0.044922 1.5117 0.020107 0.16419 0.060768 0.34215 0.09375 0.51562-0.29147 0.067643-0.5684 0.14421-0.82031 0.23438-0.46611 0.16684-0.8615 0.37077-1.1719 0.63672-0.31037 0.26595-0.54626 0.62295-0.56836 1.041-0.02107 0.39828 0.15734 0.7664 0.41602 1.0547 0.25867 0.28828 0.60261 0.52433 1.0137 0.73437a0.50008 0.50008 0 1 0 0.45508 -0.89062c-0.3363-0.17184-0.58472-0.35581-0.72461-0.51172s-0.16614-0.2577-0.16211-0.33398c0.0042-0.080229 0.04603-0.18626 0.2207-0.33594 0.17467-0.14967 0.47129-0.31422 0.85938-0.45312 0.21298-0.076232 0.4582-0.14314 0.7207-0.20312 0.10702 0.35995 0.23276 0.72848 0.38477 1.1074-0.46827 0.88444-0.80995 1.7418-0.98633 2.502-0.12825 0.5527-0.17754 1.0562-0.11524 1.5078 0.06231 0.45157 0.25674 0.88502 0.64453 1.1348 0.36789 0.23692 0.81706 0.25 1.2344 0.14258 0.41731-0.10743 0.83591-0.32971 1.2676-0.63477a0.50005 0.50005 0 1 0 -0.5762 -0.816c-0.36414 0.25733-0.6951 0.41952-0.93945 0.48242-0.24436 0.0629-0.36919 0.0341-0.44336-0.01367-0.07784-0.05013-0.1598-0.16011-0.19726-0.43164s-0.010001-0.67224 0.099609-1.1445c0.10677-0.46013 0.29127-0.98785 0.54297-1.5488 0.016885 0.03344 0.029676 0.06613 0.046875 0.09961 0.71307 1.3879 1.5597 2.5422 2.3965 3.3145 0.4184 0.38613 0.83395 0.68005 1.2578 0.85156 0.42386 0.17151 0.89498 0.21973 1.3066 0.01172 0.39598-0.20009 0.63421-0.58865 0.74805-1.0098 0.11384-0.42112 0.12724-0.90014 0.07227-1.4336-0.11-1.068-0.505-2.3542-1.15-3.6843a0.5001 0.5001 0 0 0 -0.9009 0.4356c0.60373 1.2441 0.96179 2.4481 1.0547 3.3496 0.04645 0.45074 0.02556 0.82598-0.04102 1.0723-0.06658 0.24629-0.15462 0.33665-0.23438 0.37695-0.08302 0.04195-0.22266 0.05743-0.48047-0.04687-0.2579-0.104-0.5949-0.327-0.9532-0.658-0.7164-0.661-1.5197-1.737-2.1875-3.0371-0.1319-0.2568-0.2461-0.5109-0.3574-0.7637 0.1378-0.2406 0.2786-0.482 0.4375-0.7246 0.1596-0.2437 0.3239-0.4756 0.4902-0.6992 0.016076-0.0001095 0.030752-0.0019 0.046875-0.00195 0.26326-0.0008843 0.53368 0.00709 0.81055 0.021484 1.4699 0.076395 2.7888 0.36606 3.6895 0.74609 0.45031 0.19001 0.79391 0.40525 0.99414 0.5957s0.24102 0.31945 0.23633 0.4082c-0.004 0.076633-0.04285 0.17519-0.19922 0.31641s-0.42352 0.29942-0.77734 0.43555a0.50019 0.50019 0 1 0 0.35938 0.93359c0.43242-0.16636 0.80163-0.36667 1.0898-0.62695 0.28821-0.26029 0.50431-0.60699 0.52539-1.0059 0.025-0.4616-0.213-0.8714-0.544-1.1861s-0.769-0.5713-1.295-0.793c-1.051-0.4434-2.4577-0.7408-4.0252-0.8222-0.0329-0.0017-0.0648-0.0004-0.0977-0.002 0.2762-0.303 0.5507-0.5834 0.8165-0.8125 0.6905-0.5954 1.3374-0.8925 1.6504-0.9043 0.11574-0.00436 0.17817 0.017662 0.22656 0.048828 0.07285 0.046914 0.14769 0.14143 0.18945 0.38086s0.02951 0.59649-0.05469 1.0215a0.50005 0.50005 0 1 0 0.98047 0.19336c0.101-0.5072 0.132-0.9691 0.059-1.3868-0.073-0.4176-0.269-0.8165-0.632-1.0507-0.243-0.1563-0.528-0.2175-0.805-0.2071-0.7473 0.0282-1.4865 0.4745-2.2658 1.1465-0.4924 0.4246-0.9921 0.9604-1.4766 1.5684-0.4085 0.0162-0.8029 0.0471-1.1757 0.0957-0.0305-0.1571-0.0683-0.3209-0.086-0.4649-0.0589-0.4814-0.0426-0.8837 0.0235-1.1504 0.0661-0.26664 0.15729-0.36629 0.24023-0.4082 0.03132-0.015826 0.06357-0.025612 0.11328-0.029297 0.18089-0.013455 0.60643 0.13613 1.0937 0.53711a0.50005 0.50005 0 1 0 0.6348 -0.7714c-0.5886-0.4843-1.1729-0.8106-1.8027-0.7637zm0.18359 4.0137c-0.016851 0.025412-0.034016 0.048616-0.050782 0.074219-0.021345 0.032597-0.037585 0.065064-0.058593 0.097656-0.01753-0.053581-0.028493-0.10143-0.044922-0.1543 0.050838-0.00614 0.10253-0.012037 0.1543-0.017578zm2.1055 0.85938a0.65562 0.65018 0 0 0 -0.67383 0.65234 0.65625 0.65081 0 0 0 1.3125 0 0.65562 0.65018 0 0 0 -0.63867 -0.65234z"/>
  <path style="color-rendering:auto;text-decoration-color:#000000;color:#000000;isolation:auto;mix-blend-mode:normal;shape-rendering:auto;solid-color:#000000;block-progression:tb;text-decoration-line:none;text-decoration-style:solid;image-rendering:auto;white-space:normal;text-indent:0;text-transform:none" d="m5.7637 2.5537c-0.16613 0.012315-0.3341 0.056852-0.48828 0.13477-0.41175 0.20805-0.65197 0.6178-0.76172 1.0605-0.10975 0.44274-0.11392 0.94831-0.044922 1.5117 0.020107 0.16419 0.060768 0.34215 0.09375 0.51562-0.29147 0.067643-0.5684 0.14421-0.82031 0.23438-0.46611 0.16684-0.8615 0.37077-1.1719 0.63672-0.31037 0.26595-0.54626 0.62295-0.56836 1.041-0.02107 0.39828 0.15734 0.7664 0.41602 1.0547 0.25867 0.28829 0.60261 0.52433 1.0137 0.73438a0.50008 0.50008 0 1 0 0.45508 -0.89062c-0.3363-0.17184-0.58472-0.35581-0.72461-0.51172s-0.16614-0.2577-0.16211-0.33398c0.0042-0.080229 0.04603-0.18626 0.2207-0.33594 0.17467-0.14967 0.47129-0.31422 0.85938-0.45312 0.21298-0.076232 0.4582-0.14314 0.7207-0.20312 0.10702 0.35995 0.23276 0.72848 0.38477 1.1074-0.46827 0.88444-0.80995 1.7418-0.98633 2.502-0.12825 0.5527-0.17754 1.0562-0.11524 1.5078 0.06231 0.45157 0.25674 0.88502 0.64453 1.1348 0.36789 0.23692 0.81706 0.25 1.2344 0.14258 0.41731-0.10743 0.83591-0.32971 1.2676-0.63477a0.50005 0.50005 0 1 0 -0.5762 -0.817c-0.36414 0.25733-0.6951 0.41952-0.93945 0.48242-0.24436 0.0629-0.36919 0.0341-0.44336-0.01367-0.07784-0.05013-0.1598-0.16011-0.19726-0.43164s-0.010001-0.67224 0.099609-1.1445c0.10677-0.46013 0.29127-0.98785 0.54297-1.5488 0.016885 0.03344 0.029676 0.066134 0.046875 0.099609 0.71307 1.3879 1.5597 2.5422 2.3965 3.3145 0.4184 0.38613 0.83395 0.68005 1.2578 0.85156 0.42386 0.17151 0.89498 0.21973 1.3066 0.01172 0.39598-0.20009 0.63421-0.58865 0.74805-1.0098 0.11384-0.42112 0.12724-0.90014 0.07227-1.4336-0.11-1.0668-0.505-2.3534-1.15-3.6835a0.5001 0.5001 0 0 0 -0.9009 0.4355c0.60373 1.2441 0.96179 2.4481 1.0547 3.3496 0.04645 0.45074 0.02556 0.82598-0.04102 1.0723-0.06658 0.24629-0.15462 0.33665-0.23438 0.37695-0.08302 0.04195-0.22266 0.05743-0.48047-0.04687-0.2579-0.104-0.5949-0.328-0.9532-0.658-0.7164-0.661-1.5197-1.7376-2.1875-3.0373-0.1319-0.2568-0.2461-0.511-0.3574-0.7637 0.1378-0.2406 0.2786-0.482 0.4375-0.7246 0.1596-0.2437 0.3239-0.4756 0.4902-0.6992 0.016076-0.0001095 0.030752-0.0019 0.046875-0.00195 0.26326-0.0008843 0.53368 0.00709 0.81055 0.021484 1.4699 0.076395 2.7888 0.36606 3.6895 0.74609 0.45031 0.19001 0.79391 0.40525 0.99414 0.5957s0.24102 0.31945 0.23633 0.4082c-0.004 0.076633-0.04285 0.17519-0.19922 0.31641s-0.42352 0.29942-0.77734 0.43555a0.50019 0.50019 0 1 0 0.35938 0.93359c0.43242-0.16636 0.80163-0.36667 1.0898-0.62695 0.28821-0.26029 0.50431-0.60699 0.52539-1.0059 0.02436-0.46109-0.2141-0.87089-0.54492-1.1855-0.33-0.3147-0.768-0.5713-1.294-0.793-1.051-0.4434-2.4577-0.7408-4.0252-0.8222-0.0329-0.0017-0.0648-0.0004-0.0977-0.002 0.2762-0.303 0.5507-0.5834 0.8165-0.8125 0.6905-0.5954 1.3374-0.8925 1.6504-0.9043 0.11574-0.00436 0.17817 0.017662 0.22656 0.048828 0.07285 0.046914 0.14769 0.14143 0.18945 0.38086s0.02951 0.59649-0.05469 1.0215a0.50005 0.50005 0 1 0 0.98047 0.19336c0.101-0.5072 0.132-0.9692 0.059-1.3868s-0.269-0.8165-0.632-1.0508c-0.243-0.1562-0.528-0.2174-0.805-0.207-0.7473 0.0281-1.4865 0.4745-2.2658 1.1465-0.4924 0.4246-0.9921 0.9603-1.4766 1.5684-0.4085 0.0162-0.8029 0.0471-1.1757 0.0957-0.0305-0.1571-0.0683-0.3209-0.086-0.4649-0.0589-0.4814-0.0426-0.8837 0.0235-1.1504 0.0661-0.26664 0.15729-0.36629 0.24023-0.4082 0.03132-0.015826 0.06357-0.025612 0.11328-0.029297 0.18089-0.013455 0.60643 0.13613 1.0937 0.53711a0.50005 0.50005 0 1 0 0.6348 -0.7714c-0.5886-0.4843-1.1729-0.8106-1.8027-0.7637zm0.18359 4.0137c-0.016851 0.025412-0.034016 0.048616-0.050782 0.074219-0.021345 0.032597-0.037585 0.065064-0.058593 0.097656-0.01753-0.053581-0.028493-0.10143-0.044922-0.1543 0.050838-0.00614 0.10253-0.012037 0.1543-0.017578zm2.1055 0.85938a0.65562 0.65018 0 0 0 -0.67383 0.65234 0.65625 0.65081 0 0 0 1.3125 0 0.65562 0.65018 0 0 0 -0.63867 -0.65234z" fill="url(#c)"/>
 </g>
</svg>
