<?xml version="1.0" encoding="UTF-8" standalone="no"?>
<!-- Created with Inkscape (http://www.inkscape.org/) -->

<svg
   xmlns:dc="http://purl.org/dc/elements/1.1/"
   xmlns:cc="http://creativecommons.org/ns#"
   xmlns:rdf="http://www.w3.org/1999/02/22-rdf-syntax-ns#"
   xmlns:svg="http://www.w3.org/2000/svg"
   xmlns="http://www.w3.org/2000/svg"
   xmlns:xlink="http://www.w3.org/1999/xlink"
   xmlns:sodipodi="http://sodipodi.sourceforge.net/DTD/sodipodi-0.dtd"
   xmlns:inkscape="http://www.inkscape.org/namespaces/inkscape"
   version="1.1"
   width="16"
   height="16"
   id="svg3123"
   inkscape:version="0.91 r"
   sodipodi:docname="atom.svg">
  <sodipodi:namedview
     pagecolor="#ffffff"
     bordercolor="#666666"
     borderopacity="1"
     objecttolerance="10"
     gridtolerance="10"
     guidetolerance="10"
     inkscape:pageopacity="0"
     inkscape:pageshadow="2"
     inkscape:window-width="1280"
     inkscape:window-height="745"
     id="namedview30"
     showgrid="false"
     inkscape:zoom="29.5"
     inkscape:cx="-1.7027504"
     inkscape:cy="7.046861"
     inkscape:window-x="0"
     inkscape:window-y="30"
     inkscape:window-maximized="1"
     inkscape:current-layer="layer1" />
  <defs
     id="defs3125">
    <linearGradient
       id="linearGradient11236"
       inkscape:collect="always">
      <stop
         id="stop11246"
         offset="0"
         style="stop-color:#ffffff;stop-opacity:1" />
      <stop
         id="stop11248"
         offset="1"
         style="stop-color:#cee7dd;stop-opacity:1" />
    </linearGradient>
    <linearGradient
       x1="7.8555918"
       y1="15.85593"
       x2="7.8555918"
       y2="-0.12225635"
       id="linearGradient4037-4"
       xlink:href="#linearGradient3707-319-631-407-324-3-8-2"
       gradientUnits="userSpaceOnUse"
       gradientTransform="translate(0,1.155436)" />
    <linearGradient
       id="linearGradient3707-319-631-407-324-3-8-2">
      <stop
         id="stop3760-7-3-6"
         style="stop-color:#185f9a;stop-opacity:1"
         offset="0" />
      <stop
         id="stop3762-8-4-8"
         style="stop-color:#599ec9;stop-opacity:1"
         offset="1" />
    </linearGradient>
    <linearGradient
       x1="71.204407"
       y1="6.2375584"
       x2="71.204407"
       y2="44.340794"
       id="linearGradient3071"
       xlink:href="#linearGradient4011"
       gradientUnits="userSpaceOnUse"
       gradientTransform="matrix(0.35135136,0,0,0.35135136,-17.203671,-0.90930013)" />
    <linearGradient
       id="linearGradient4011">
      <stop
         id="stop4013"
         style="stop-color:#ffffff;stop-opacity:1"
         offset="0" />
      <stop
         id="stop4015"
         style="stop-color:#ffffff;stop-opacity:0.23529412"
         offset="0.507761" />
      <stop
         id="stop4017"
         style="stop-color:#ffffff;stop-opacity:0.15686275"
         offset="0.83456558" />
      <stop
         id="stop4019"
         style="stop-color:#ffffff;stop-opacity:0.39215687"
         offset="1" />
    </linearGradient>
    <linearGradient
       id="linearGradient2867-449-88-871-390-598-476-591-434-148-57-177-3-8">
      <stop
         id="stop3750-8-9"
         style="stop-color:#b1e198;stop-opacity:1"
         offset="0" />
      <stop
         id="stop3752-3-2"
         style="stop-color:#71c586;stop-opacity:1"
         offset="0.26238" />
      <stop
         id="stop3754-7-2"
         style="stop-color:#04a171;stop-opacity:1"
         offset="0.704952" />
      <stop
         id="stop3756-9-3"
         style="stop-color:#108562;stop-opacity:1"
         offset="1" />
    </linearGradient>
    <linearGradient
       id="linearGradient3707-319-631-407-324-3-8">
      <stop
         id="stop3760-7-3"
         style="stop-color:#006344;stop-opacity:0.69803923"
         offset="0" />
      <stop
         id="stop3762-8-4"
         style="stop-color:#108562;stop-opacity:0.69803923"
         offset="1" />
    </linearGradient>
    <radialGradient
       cx="5.7800279"
       cy="8.4497671"
       r="19.99999"
       fx="5.7800279"
       fy="8.4497671"
       id="radialGradient3119"
       xlink:href="#linearGradient2867-449-88-871-390-598-476-591-434-148-57-177-3-8"
       gradientUnits="userSpaceOnUse"
       gradientTransform="matrix(0,0.89892574,-0.95095622,-1.6561642e-8,16.035401,-6.0146846)" />
    <linearGradient
       x1="24"
       y1="44"
       x2="24"
       y2="3.8990016"
       id="linearGradient3121"
       xlink:href="#linearGradient3707-319-631-407-324-3-8"
       gradientUnits="userSpaceOnUse"
       gradientTransform="matrix(0.38465107,0,0,0.38465106,-1.231625,-1.2316257)" />
    <linearGradient
       inkscape:collect="always"
       xlink:href="#linearGradient11236"
       id="linearGradient11242"
       x1="7.9447451"
       y1="2.1513879"
       x2="7.7676187"
       y2="13.94449"
       gradientUnits="userSpaceOnUse" />
  </defs>
  <metadata
     id="metadata3128">
    <rdf:RDF>
      <cc:Work
         rdf:about="">
        <dc:format>image/svg+xml</dc:format>
        <dc:type
           rdf:resource="http://purl.org/dc/dcmitype/StillImage" />
        <dc:title />
      </cc:Work>
    </rdf:RDF>
  </metadata>
  <g
     id="layer1">
    <path
       d="m 8.000001,0.49999997 c -4.138241,0 -7.50000103,3.36175853 -7.50000103,7.49999993 C 0.49999997,12.138242 3.86176,15.500001 8.000001,15.5 12.13824,15.5 15.500004,12.138242 15.5,7.9999999 15.5,3.8617585 12.13824,0.49999997 8.000001,0.49999997 z"
       inkscape:connector-curvature="0"
       id="path2555-7"
       style="color:#000000;fill:url(#radialGradient3119);fill-opacity:1;fill-rule:nonzero;stroke:#006344;stroke-width:0.99999994;stroke-linecap:round;stroke-linejoin:round;stroke-miterlimit:4;stroke-opacity:0.7019608;stroke-dasharray:none;stroke-dashoffset:0;marker:none;visibility:visible;display:inline;overflow:visible;enable-background:accumulate;opacity:1" />
    <path
       d="M 14.5,7.999769 C 14.5,11.589737 11.589636,14.5 8.0000824,14.5 4.4101993,14.5 1.5,11.589703 1.5,7.999769 1.5,4.4099697 4.4101993,1.5000003 8.0000824,1.5000003 11.589636,1.5000003 14.5,4.4099697 14.5,7.999769 l 0,0 z"
       inkscape:connector-curvature="0"
       id="path8655-6"
       style="opacity:0.5;color:#000000;fill:none;stroke:url(#linearGradient3071);stroke-width:0.99999994;stroke-linecap:round;stroke-linejoin:round;stroke-miterlimit:4;stroke-opacity:1;stroke-dasharray:none;stroke-dashoffset:0;marker:none;visibility:visible;display:inline;overflow:visible;enable-background:accumulate" />
    <path
       inkscape:connector-curvature="0"
       id="path11252"
       d="m 5.7636604,3.5538912 c -0.166127,0.012315 -0.3341,0.056852 -0.488281,0.1347657 -0.411748,0.2080548 -0.651968,0.6178034 -0.761719,1.0605468 -0.109751,0.4427434 -0.113918,0.9483108 -0.044922,1.5117188 0.020107,0.1641949 0.060768,0.3421543 0.09375,0.515625 -0.291468,0.067643 -0.568399,0.1442054 -0.820313,0.234375 -0.466108,0.1668381 -0.861504,0.3707703 -1.171874,0.6367187 -0.310372,0.2659484 -0.546265,0.6229504 -0.56836,1.0410157 -0.02107,0.3982765 0.157345,0.7664025 0.416016,1.0546874 0.25867,0.2882847 0.602611,0.5243327 1.013672,0.7343747 a 0.50007721,0.50007721 0 1 0 0.455078,-0.8906247 c -0.3363,-0.1718409 -0.584715,-0.355808 -0.72461,-0.5117187 -0.139894,-0.1559107 -0.166144,-0.257697 -0.162109,-0.3339844 0.0042,-0.080229 0.04603,-0.1862643 0.220703,-0.3359375 0.174674,-0.1496731 0.471291,-0.314215 0.859375,-0.453125 0.212976,-0.076232 0.458199,-0.1431433 0.720703,-0.203125 0.107017,0.359947 0.232762,0.7284849 0.384766,1.1074219 -0.468271,0.8844418 -0.809951,1.7418194 -0.986328,2.5019524 -0.128246,0.552702 -0.177541,1.056246 -0.115235,1.507812 0.06231,0.451566 0.256737,0.88502 0.644532,1.134766 0.367887,0.236925 0.81706,0.250005 1.234375,0.142578 0.417314,-0.107427 0.8359149,-0.329712 1.2675778,-0.634766 A 0.50004997,0.50004997 0 1 0 6.6542854,12.692562 c -0.364138,0.257334 -0.695097,0.419519 -0.939453,0.482422 -0.244356,0.0629 -0.369187,0.0341 -0.44336,-0.01367 -0.07784,-0.05013 -0.1598,-0.160113 -0.197265,-0.431641 -0.03746,-0.271527 -0.010001,-0.67224 0.099609,-1.14453 0.106767,-0.460132 0.29127,-0.987849 0.542969,-1.548828 0.016885,0.03344 0.029676,0.06613 0.046875,0.09961 0.71307,1.38787 1.5596891,2.5422 2.3964842,3.314452 0.4183977,0.386128 0.8339527,0.680053 1.2578126,0.851563 0.4238597,0.17151 0.8949758,0.219733 1.3066408,0.01172 0.395978,-0.200087 0.63421,-0.588649 0.748047,-1.009766 0.113836,-0.421117 0.127236,-0.900141 0.07227,-1.433594 C 11.434969,10.803393 11.04,9.5167954 10.39452,8.1867037 A 0.50010125,0.50010125 0 0 0 9.494129,8.6222506 c 0.60373,1.2440584 0.961794,2.4481334 1.054688,3.3496084 0.04645,0.450738 0.02556,0.82598 -0.04102,1.072265 -0.06658,0.246288 -0.154619,0.336653 -0.234375,0.376954 -0.08302,0.04195 -0.222661,0.05743 -0.4804692,-0.04687 C 9.5351487,13.269884 9.1980521,13.04659 8.8398322,12.716 8.1233921,12.054817 7.3200925,10.978574 6.6523324,9.6788912 6.5204064,9.4221195 6.4061864,9.1679545 6.2949104,8.9152193 6.4326624,8.6745997 6.5735404,8.4332198 6.7324103,8.19061 6.8919963,7.9469081 7.0563466,7.7150478 7.2226446,7.4913912 c 0.016076,-1.095e-4 0.030752,-0.0019 0.046875,-0.00195 0.2632649,-8.843e-4 0.533682,0.00709 0.8105469,0.021484 1.4699056,0.076395 2.7888245,0.3660599 3.6894535,0.7460937 0.450314,0.1900142 0.793911,0.4052517 0.99414,0.5957004 0.20023,0.1904489 0.241018,0.3194486 0.236328,0.4082032 -0.004,0.076633 -0.04285,0.1751893 -0.199218,0.3164062 -0.156368,0.1412169 -0.423515,0.2994246 -0.777344,0.4355473 a 0.50018686,0.50018686 0 1 0 0.359375,0.933593 c 0.432421,-0.166357 0.801631,-0.366666 1.089844,-0.626953 0.288212,-0.260287 0.50431,-0.6069943 0.52539,-1.0058591 C 14.022395,8.8525698 13.783935,8.4427714 13.453113,8.12811 13.122292,7.8134486 12.683585,7.5568388 12.158192,7.3351412 11.107405,6.891746 9.7002753,6.5943416 8.1328009,6.5128756 8.0998528,6.5111631 8.0680228,6.5124763 8.0351446,6.5109225 8.3113358,6.2079083 8.5858495,5.9275359 8.8515509,5.6984225 9.5420567,5.1030017 10.188823,4.8059153 10.501942,4.7941256 c 0.115737,-0.00436 0.178168,0.017662 0.226562,0.048828 0.07285,0.046914 0.147692,0.1414294 0.189453,0.3808594 0.04176,0.23943 0.02951,0.596488 -0.05469,1.0214844 a 0.50004997,0.50004997 0 1 0 0.980469,0.1933595 C 11.944218,5.9314932 11.975173,5.4695551 11.902332,5.0519381 11.829491,4.6343211 11.633204,4.2353767 11.26952,4.0011569 11.026894,3.8449029 10.741775,3.7836976 10.464832,3.7941256 9.7177312,3.8222556 8.9785388,4.268595 8.1992072,4.94061 7.7068276,5.3651871 7.2070663,5.9009578 6.7226446,6.5089693 6.3140734,6.5252141 5.9197424,6.5560633 5.5468634,6.6046725 5.5164444,6.4476322 5.4785574,6.2838084 5.4609254,6.1398287 5.4019764,5.6584077 5.4182634,5.2560814 5.4843634,4.9894381 c 0.0661,-0.2666433 0.157292,-0.3662925 0.240234,-0.4082031 0.03132,-0.015826 0.06357,-0.025612 0.113282,-0.029297 0.180889,-0.013455 0.606426,0.1361323 1.0937496,0.5371094 A 0.50004997,0.50004997 0 1 0 7.5663946,4.3175631 C 6.9778187,3.8332742 6.3934714,3.5070458 5.7636604,3.5538912 Z m 0.183594,4.0136719 c -0.016851,0.025412 -0.034016,0.048616 -0.050782,0.074219 -0.021345,0.032597 -0.037585,0.065064 -0.058593,0.097656 -0.01753,-0.053581 -0.028493,-0.101428 -0.044922,-0.1542969 0.050838,-0.00614 0.102528,-0.012037 0.154297,-0.017578 z m 2.1054684,0.859375 a 0.65561905,0.6501802 0 0 0 -0.6738282,0.6523438 0.65625,0.65080592 0 0 0 1.3125,0 0.65561905,0.6501802 0 0 0 -0.6386718,-0.6523438 z"
       style="color:#000000;font-style:normal;font-variant:normal;font-weight:normal;font-stretch:normal;font-size:medium;line-height:normal;font-family:sans-serif;text-indent:0;text-align:start;text-decoration:none;text-decoration-line:none;text-decoration-style:solid;text-decoration-color:#000000;letter-spacing:normal;word-spacing:normal;text-transform:none;direction:ltr;block-progression:tb;writing-mode:lr-tb;baseline-shift:baseline;text-anchor:start;white-space:normal;clip-rule:nonzero;display:inline;overflow:visible;visibility:visible;opacity:0.15;isolation:auto;mix-blend-mode:normal;color-interpolation:sRGB;color-interpolation-filters:linearRGB;solid-color:#000000;solid-opacity:1;fill:#000000;fill-opacity:1;fill-rule:nonzero;stroke:none;stroke-width:0.99999994;stroke-linecap:round;stroke-linejoin:miter;stroke-miterlimit:4;stroke-dasharray:none;stroke-dashoffset:0;stroke-opacity:1;color-rendering:auto;image-rendering:auto;shape-rendering:auto;text-rendering:auto;enable-background:accumulate" />
    <path
       style="color:#000000;font-style:normal;font-variant:normal;font-weight:normal;font-stretch:normal;font-size:medium;line-height:normal;font-family:sans-serif;text-indent:0;text-align:start;text-decoration:none;text-decoration-line:none;text-decoration-style:solid;text-decoration-color:#000000;letter-spacing:normal;word-spacing:normal;text-transform:none;direction:ltr;block-progression:tb;writing-mode:lr-tb;baseline-shift:baseline;text-anchor:start;white-space:normal;clip-rule:nonzero;display:inline;overflow:visible;visibility:visible;opacity:1;isolation:auto;mix-blend-mode:normal;color-interpolation:sRGB;color-interpolation-filters:linearRGB;solid-color:#000000;solid-opacity:1;fill:url(#linearGradient11242);fill-opacity:1;fill-rule:nonzero;stroke:none;stroke-width:0.99999994;stroke-linecap:round;stroke-linejoin:miter;stroke-miterlimit:4;stroke-dasharray:none;stroke-dashoffset:0;stroke-opacity:1;color-rendering:auto;image-rendering:auto;shape-rendering:auto;text-rendering:auto;enable-background:accumulate"
       d="m 5.7636604,2.5536789 c -0.166127,0.012315 -0.3341,0.056852 -0.488281,0.1347657 -0.411748,0.2080548 -0.651968,0.6178034 -0.761719,1.0605468 -0.109751,0.4427434 -0.113918,0.9483108 -0.044922,1.5117188 0.020107,0.1641949 0.060768,0.3421543 0.09375,0.515625 -0.291468,0.067643 -0.568399,0.1442054 -0.820313,0.234375 -0.466108,0.1668381 -0.861504,0.3707703 -1.171874,0.6367187 -0.310372,0.2659484 -0.546265,0.6229504 -0.56836,1.0410157 -0.02107,0.3982765 0.157345,0.7664025 0.416016,1.0546874 0.25867,0.2882851 0.602611,0.5243331 1.013672,0.734375 a 0.50007721,0.50007721 0 1 0 0.455078,-0.890625 c -0.3363,-0.1718409 -0.584715,-0.355808 -0.72461,-0.5117187 -0.139894,-0.1559107 -0.166144,-0.257697 -0.162109,-0.3339844 0.0042,-0.080229 0.04603,-0.1862643 0.220703,-0.3359375 0.174674,-0.1496731 0.471291,-0.314215 0.859375,-0.453125 0.212976,-0.076232 0.458199,-0.1431433 0.720703,-0.203125 0.107017,0.359947 0.232762,0.7284849 0.384766,1.1074219 -0.468271,0.8844418 -0.809951,1.741819 -0.986328,2.5019527 -0.128246,0.552702 -0.177541,1.056246 -0.115235,1.507812 0.06231,0.451566 0.256737,0.88502 0.644532,1.134766 0.367887,0.236925 0.81706,0.250005 1.234375,0.142578 0.417314,-0.107427 0.8359149,-0.329712 1.2675778,-0.634766 A 0.50004997,0.50004997 0 1 0 6.6542854,11.69235 c -0.364138,0.257334 -0.695097,0.419519 -0.939453,0.482422 -0.244356,0.0629 -0.369187,0.0341 -0.44336,-0.01367 -0.07784,-0.05013 -0.1598,-0.160113 -0.197265,-0.431641 -0.03746,-0.271527 -0.010001,-0.67224 0.099609,-1.14453 0.106767,-0.460132 0.29127,-0.9878497 0.542969,-1.5488282 0.016885,0.03344 0.029676,0.066134 0.046875,0.099609 0.71307,1.3878702 1.5596891,2.5422002 2.3964842,3.3144522 0.4183977,0.386128 0.8339527,0.680053 1.2578126,0.851563 0.4238597,0.17151 0.8949758,0.219733 1.3066408,0.01172 0.395978,-0.200087 0.63421,-0.588649 0.748047,-1.009766 0.113836,-0.421117 0.127236,-0.900141 0.07227,-1.433594 C 11.434969,9.8031811 11.04,8.5165831 10.39452,7.1864914 A 0.50010107,0.50010107 0 0 0 9.494129,7.6220383 c 0.60373,1.2440584 0.961794,2.4481337 1.054688,3.3496087 0.04645,0.450738 0.02556,0.82598 -0.04102,1.072265 -0.06658,0.246288 -0.154619,0.336653 -0.234375,0.376954 -0.08302,0.04195 -0.222661,0.05743 -0.4804692,-0.04687 C 9.5351487,12.269672 9.1980521,12.046378 8.8398322,11.715788 8.1233921,11.054605 7.3200925,9.978362 6.6523324,8.6786789 6.5204064,8.4219072 6.4061864,8.1677422 6.2949104,7.915007 6.4326624,7.6743874 6.5735404,7.4330075 6.7324103,7.1903977 6.8919963,6.9466958 7.0563466,6.7148355 7.2226446,6.4911789 c 0.016076,-1.095e-4 0.030752,-0.0019 0.046875,-0.00195 0.2632649,-8.843e-4 0.533682,0.00709 0.8105469,0.021484 1.4699056,0.076395 2.7888245,0.3660599 3.6894535,0.7460937 0.450314,0.1900142 0.793911,0.4052517 0.99414,0.5957004 0.20023,0.1904489 0.241018,0.3194486 0.236328,0.4082032 -0.004,0.076633 -0.04285,0.1751893 -0.199218,0.3164062 -0.156368,0.1412169 -0.423515,0.2994246 -0.777344,0.4355469 a 0.50018686,0.50018686 0 1 0 0.359375,0.9335937 c 0.432421,-0.1663572 0.801631,-0.366666 1.089844,-0.6269531 0.288212,-0.2602871 0.50431,-0.6069945 0.52539,-1.0058593 0.02436,-0.4610871 -0.2141,-0.8708855 -0.544922,-1.1855469 C 13.122292,6.8132363 12.683585,6.5566265 12.158192,6.3349289 11.107405,5.8915337 9.7002753,5.5941293 8.1328009,5.5126633 8.0998528,5.5109508 8.0680228,5.512264 8.0351446,5.5107102 8.3113358,5.207696 8.5858495,4.9273236 8.8515509,4.6982102 9.5420567,4.1027894 10.188823,3.805703 10.501942,3.7939133 c 0.115737,-0.00436 0.178168,0.017662 0.226562,0.048828 0.07285,0.046914 0.147692,0.1414294 0.189453,0.3808594 0.04176,0.23943 0.02951,0.596488 -0.05469,1.0214844 a 0.50004997,0.50004997 0 1 0 0.980469,0.1933595 C 11.944218,4.9312809 11.975173,4.4693428 11.902332,4.0517258 11.829491,3.6341088 11.633204,3.2351644 11.26952,3.0009446 11.026894,2.8446906 10.741775,2.7834853 10.464832,2.7939133 9.7177312,2.8220433 8.9785388,3.2683827 8.1992072,3.9403977 7.7068276,4.3649748 7.2070663,4.9007455 6.7226446,5.508757 6.3140734,5.5250018 5.9197424,5.555851 5.5468634,5.6044602 5.5164444,5.4474199 5.4785574,5.2835961 5.4609254,5.1396164 5.4019764,4.6581954 5.4182634,4.2558691 5.4843634,3.9892258 c 0.0661,-0.2666433 0.157292,-0.3662925 0.240234,-0.4082031 0.03132,-0.015826 0.06357,-0.025612 0.113282,-0.029297 0.180889,-0.013455 0.606426,0.1361323 1.0937496,0.5371094 A 0.50004997,0.50004997 0 1 0 7.5663946,3.3173508 C 6.9778187,2.8330619 6.3934714,2.5068335 5.7636604,2.5536789 Z m 0.183594,4.0136719 c -0.016851,0.025412 -0.034016,0.048616 -0.050782,0.074219 -0.021345,0.032597 -0.037585,0.065064 -0.058593,0.097656 -0.01753,-0.053581 -0.028493,-0.101428 -0.044922,-0.1542969 0.050838,-0.00614 0.102528,-0.012037 0.154297,-0.017578 z m 2.1054684,0.859375 a 0.65561905,0.6501802 0 0 0 -0.6738282,0.6523438 0.65625,0.65080592 0 0 0 1.3125,0 0.65561905,0.6501802 0 0 0 -0.6386718,-0.6523438 z"
       id="path4"
       inkscape:connector-curvature="0" />
  </g>
</svg>
