<?xml version="1.0" encoding="UTF-8" standalone="no"?>
<svg xmlns:rdf="http://www.w3.org/1999/02/22-rdf-syntax-ns#" xmlns="http://www.w3.org/2000/svg" height="16.004" width="16" version="1.1" xmlns:cc="http://creativecommons.org/ns#" xmlns:xlink="http://www.w3.org/1999/xlink" xmlns:dc="http://purl.org/dc/elements/1.1/">
 <defs>
  <linearGradient id="l" y2="79.181" xlink:href="#b" gradientUnits="userSpaceOnUse" x2="143.03" gradientTransform="translate(-135 91.5)" y1="93.437" x1="143.53"/>
  <linearGradient id="b">
   <stop stop-color="#52769e" offset="0"/>
   <stop stop-color="#d1dbe7" offset="1"/>
  </linearGradient>
  <linearGradient id="k" y2="84.321" xlink:href="#c" gradientUnits="userSpaceOnUse" x2="151.16" gradientTransform="translate(-137.68 87.412)" y1="90.278" x1="151.34"/>
  <linearGradient id="c">
   <stop stop-color="#1d446f" offset="0"/>
   <stop stop-color="#5892d4" offset="1"/>
  </linearGradient>
  <radialGradient id="d" gradientUnits="userSpaceOnUse" cy="46.834" cx="166.19" gradientTransform="matrix(-.44285 .45283 -.46485 -.45460 130.45 82.393)" r="24.266">
   <stop stop-color="#5892d4" offset="0"/>
   <stop stop-color="#1d446f" offset="1"/>
  </radialGradient>
  <linearGradient id="j" y2="82.354" xlink:href="#a" gradientUnits="userSpaceOnUse" x2="146.04" gradientTransform="translate(-137.16 86.459)" y1="92.855" x1="145.86"/>
  <linearGradient id="a">
   <stop stop-color="#102640" offset="0"/>
   <stop stop-color="#77a6dd" offset="1"/>
  </linearGradient>
  <linearGradient id="i" y2="79.181" xlink:href="#b" gradientUnits="userSpaceOnUse" x2="143.03" gradientTransform="matrix(-1 0 0 1 205.59 91.5)" y1="93.437" x1="143.53"/>
  <linearGradient id="h" y2="84.321" xlink:href="#c" gradientUnits="userSpaceOnUse" x2="151.16" gradientTransform="translate(-208.24 85.295)" y1="90.278" x1="151.34"/>
  <linearGradient id="g" y2="82.354" xlink:href="#a" gradientUnits="userSpaceOnUse" x2="146.04" gradientTransform="translate(-207.73 83.852)" y1="92.855" x1="145.86"/>
  <linearGradient id="f" y2="156" gradientUnits="userSpaceOnUse" x2="36.164" y1="133.54" x1="36.164">
   <stop stop-color="#fff" offset="0"/>
   <stop stop-color="#fff" stop-opacity="0" offset="1"/>
  </linearGradient>
  <linearGradient id="e" y2="190.48" gradientUnits="userSpaceOnUse" y1="158.73" gradientTransform="matrix(.73042 0 0 .73053 132.19 -95.708)" x2="35.601" x1="35.601">
   <stop stop-color="#bd1717" offset="0"/>
   <stop stop-color="#bdb317" offset="1"/>
  </linearGradient>
 </defs>
 <g transform="translate(-312 -321.5)">
  <g style="enable-background:new" transform="matrix(.34883 0 0 .34883 264.97 320.13)">
   <g style="enable-background:new" transform="matrix(.73042 0 0 .73053 131.98 -95.541)">
    <path style="color:#000000;enable-background:accumulate" d="m11.875 170.72c-2.2909 0-4.3088 1.9892-5.5625 5.0312l0.34375 15.188c1.2639 2.5658 3.144 4.1875 5.2187 4.1875 3.8076 0 6.875-5.451 6.875-12.188 0-6.7365-3.0674-12.219-6.875-12.219z" stroke="#456283" stroke-width="3.9245" fill="url(#l)"/>
    <rect style="color:#000000;enable-background:accumulate" transform="rotate(-1.718)" rx=".95527" ry=".95527" height="24.572" width="5.8336" stroke="#1d446f" y="170.87" x="9.6164" stroke-width="3.9245" fill="url(#k)"/>
    <path style="color:#000000;enable-background:accumulate" d="m35.313 142.19c-6.8585 0-12.972 3.292-17 8.4688l1.1875 2.0312c3.9942-4.2012 9.5838-6.8125 15.812-6.8125 6.2632 0 11.9 2.6329 15.906 6.875l1.1562-2c-4.0357-5.228-10.165-8.5625-17.062-8.5625z" stroke="#0c1d30" stroke-width="3.9245" fill="#193a5f"/>
    <path style="color:#000000;enable-background:accumulate" d="m35.313 138.12c-13.172 0-23.75 10.843-23.75 24.344v7.625h1.75v-4.5938c0-12.919 9.8072-23.312 22-23.312s22.031 10.393 22.031 23.312v4.5938h1.75v-7.625c0-13.501-10.609-24.344-23.781-24.344z" stroke="#1d446f" stroke-width="3.9245" fill="url(#d)"/>
    <path stroke-linejoin="round" d="m11.018 169.4h3.182l-0.70711-3.7123h-2.1213z" stroke="#102640" stroke-linecap="round" stroke-width="3.9245px" fill="#102640"/>
    <rect style="color:#000000;enable-background:accumulate" transform="matrix(.99932 -.036930 .023903 .99971 0 0)" rx=".95411" ry="1.0915" height="28.077" width="5.8265" stroke="#102640" y="169.24" x="6.2785" stroke-width="3.9245" fill="url(#j)"/>
    <path style="color:#000000;enable-background:accumulate" d="m58.711 170.72c2.2909 0 4.3088 1.9892 5.5625 5.0312l-0.34375 15.188c-1.2639 2.5658-3.144 4.1875-5.2188 4.1875-3.8076 0-6.875-5.451-6.875-12.188 0-6.7365 3.0674-12.219 6.875-12.219z" stroke="#456283" stroke-width="3.9245" fill="url(#i)"/>
    <rect style="color:#000000;enable-background:accumulate" transform="matrix(-.99955 -.029980 -.029980 .99955 0 0)" rx=".95527" ry=".95527" height="24.572" width="5.8336" stroke="#1d446f" y="168.75" x="-60.938" stroke-width="3.9245" fill="url(#h)"/>
    <path stroke-linejoin="round" style="enable-background:new" d="m59.569 169.4h-3.182l0.70711-3.7123h2.1213z" stroke="#102640" stroke-linecap="round" stroke-width="3.9245px" fill="#102640"/>
    <rect style="color:#000000;enable-background:accumulate" transform="matrix(-.99932 -.036930 -.023903 .99971 0 0)" rx=".95411" ry="1.0915" height="28.077" width="5.8265" stroke="#102640" y="166.63" x="-64.294" stroke-width="3.9245" fill="url(#g)"/>
    <path style="color:#000000;enable-background:accumulate" d="m35.312 140.06c-12.114 0-21.812 9.9127-21.812 22.406v5.6875h43.656v-5.6875c0-12.491-9.7299-22.406-21.844-22.406z" stroke="url(#f)" stroke-width="3.9245" fill="none"/>
   </g>
   <path stroke-linejoin="round" style="enable-background:new" d="m148.88 38.068 2.4533-12.139 1.8077 16.917 2.195-21.179 1.9368 16.013 2.0659-12.01 2.1951 14.076 1.5494-18.725 3.4863 17.434" stroke="url(#e)" stroke-linecap="round" stroke-width=".95463" fill="none"/>
  </g>
 </g>
</svg>
