<?xml version="1.0" encoding="UTF-8" standalone="no"?>
<svg xmlns:rdf="http://www.w3.org/1999/02/22-rdf-syntax-ns#" xmlns="http://www.w3.org/2000/svg" height="16" width="16" version="1.1" xmlns:cc="http://creativecommons.org/ns#" xmlns:xlink="http://www.w3.org/1999/xlink" xmlns:dc="http://purl.org/dc/elements/1.1/">
 <defs>
  <linearGradient id="b" y2="44.341" gradientUnits="userSpaceOnUse" x2="71.204" gradientTransform="matrix(.35135 0 0 .35135 -17.204 -.90930)" y1="6.2376" x1="71.204">
   <stop stop-color="#fff" offset="0"/>
   <stop stop-color="#fff" stop-opacity=".23529" offset=".50776"/>
   <stop stop-color="#fff" stop-opacity=".15686" offset=".83457"/>
   <stop stop-color="#fff" stop-opacity=".39216" offset="1"/>
  </linearGradient>
  <radialGradient id="a" gradientUnits="userSpaceOnUse" cy="8.4498" cx="1.1288" gradientTransform="matrix(1.891e-7 2 -2.3204 0 27.607 -7.2576)" r="20">
   <stop stop-color="#ffcd7d" offset="0"/>
   <stop stop-color="#fc8f36" offset=".26238"/>
   <stop stop-color="#e23a0e" offset=".70495"/>
   <stop stop-color="#ac441f" offset="1"/>
  </radialGradient>
  <linearGradient id="c" y2="13" gradientUnits="userSpaceOnUse" x2="8" y1="2.7267" x1="8">
   <stop stop-color="#fff5ef" offset="0"/>
   <stop stop-color="#fef8dd" offset="1"/>
  </linearGradient>
 </defs>
 <g>
  <path stroke-linejoin="round" style="color:#000000" d="m8 0.5c-4.1382 0-7.5 3.3618-7.5 7.5 0 4.138 3.3618 7.5 7.5 7.5 4.138 0 7.5-3.362 7.5-7.5 0-4.1382-3.362-7.5-7.5-7.5z" stroke-opacity=".38824" stroke="#640000" stroke-linecap="round" fill="url(#a)"/>
  <path opacity=".5" stroke-linejoin="round" style="color:#000000" d="m14.5 7.9998c0 3.5902-2.91 6.5002-6.4999 6.5002s-6.5001-2.91-6.5001-6.5002c0-3.5898 2.9102-6.4998 6.5001-6.4998s6.4999 2.91 6.4999 6.4998v0z" stroke="url(#b)" stroke-linecap="round" fill="none"/>
  <path opacity=".3" style="color-rendering:auto;text-decoration-color:#000000;color:#000000;isolation:auto;mix-blend-mode:normal;shape-rendering:auto;solid-color:#000000;block-progression:tb;text-decoration-line:none;text-decoration-style:solid;image-rendering:auto;white-space:normal;text-indent:0;text-transform:none" d="m7.4141 4.0019-0.3457 1.3066-1.4786-0.4023-0.3925 1.4473 1.4882 0.4043-0.9062 3.4352-1.4785-0.402-0.3946 1.449 1.4903 0.404-0.3477 1.315 1.4492 0.385 0.3458-1.307 0.9609 0.262-0.3477 1.316 1.4512 0.383 0.3652-1.385c0.39424 0.000228 0.77095-0.10215 1.0684-0.30078 0.43424-0.29001 0.7093-0.72491 0.83203-1.1895 0.113-0.42771 0.09314-0.89718-0.08984-1.334 0.37442-0.28731 0.62176-0.68311 0.73438-1.1094 0.123-0.4642 0.099-0.9775-0.132-1.445-0.16-0.3232-0.435-0.6054-0.78-0.8047l0.367-1.3886-1.4488-0.3848-0.3457 1.3066-0.9609-0.2617 0.3476-1.3164-1.4511-0.3828zm0.7207 3.1484 1.8809 0.51172c0.21831 0.059324 0.27688 0.13666 0.32617 0.23633 0.04929 0.099671 0.06401 0.25226 0.02539 0.39844s-0.12465 0.26529-0.21289 0.32422c-0.08824 0.058933-0.17232 0.096433-0.39063 0.037109l-1.8929-0.5136 0.2637-0.9942zm-0.6465 2.4434 1.8808 0.5113c0.21831 0.05932 0.27689 0.13666 0.32617 0.23633 0.049286 0.09967 0.065965 0.25031 0.027344 0.39648-0.038621 0.14618-0.1266 0.26724-0.21484 0.32617-0.088241 0.05893-0.17232 0.09643-0.39062 0.03711l-1.8906-0.513 0.2617-0.9943z" fill-rule="evenodd" fill="#ae2109"/>
  <path opacity=".15" style="color-rendering:auto;text-decoration-color:#000000;color:#000000;isolation:auto;mix-blend-mode:normal;shape-rendering:auto;solid-color:#000000;block-progression:tb;text-decoration-line:none;text-decoration-style:solid;image-rendering:auto;white-space:normal;text-indent:0;text-transform:none" d="m7.3711 3.002a1.0001 1.0001 0 0 0 -0.9238 0.7441l-0.0879 0.334-0.5078-0.1387a1.0001 1.0001 0 0 0 -1.2266 0.7031l-0.3926 1.4473a1.0001 1.0001 0 0 0 0.70312 1.2266l0.5293 0.1445-0.3964 1.5019-0.5059-0.1386a1.0001 1.0001 0 0 0 -1.2266 0.7011l-0.3945 1.4497a1.0001 1.0001 0 0 0 0.70312 1.2285l0.53125 0.14453-0.09375 0.35352a1.0001 1.0001 0 0 0 0.71094 1.2227l1.4492 0.38477a1.0001 1.0001 0 0 0 0.5 0.002 1.0001 1.0001 0 0 0 0.45898 0.26953l1.4512 0.38281a1.0001 1.0001 0 0 0 1.2227 -0.713l0.23242-0.88086c0.26584-0.07654 0.55091-0.06946 0.78906-0.22852 0.65602-0.43813 1.0665-1.0934 1.2441-1.7656 0.11242-0.42548-0.0115-0.88325-0.0918-1.334 0.293-0.3512 0.625-0.6862 0.737-1.1095 0.178-0.672 0.145-1.4413-0.203-2.1445-0.127-0.2574-0.384-0.399-0.578-0.6015l0.236-0.8926a1.0001 1.0001 0 0 0 -0.711 -1.2227l-1.449-0.3847a1.0001 1.0001 0 0 0 -0.4999 -0.002 1.0001 1.0001 0 0 0 -0.459 -0.2695l-1.4512-0.3828a1.0001 1.0001 0 0 0 -0.2988 -0.0332zm0.248 3.1386a1.0001 1.0001 0 0 0 0.0684 0.1172 1.0001 1.0001 0 0 0 -0.1035 0.0606 1.0001 1.0001 0 0 0 -0.0684 -0.1172 1.0001 1.0001 0 0 0 0.1035 -0.0606zm-1.291 4.8864a1.0001 1.0001 0 0 0 0.070312 0.11719 1.0001 1.0001 0 0 0 -0.10547 0.05859 1.0001 1.0001 0 0 0 -0.068359 -0.11719 1.0001 1.0001 0 0 0 0.10352 -0.05859z" fill-rule="evenodd" fill="#ae2109"/>
  <path style="color-rendering:auto;text-decoration-color:#000000;color:#000000;isolation:auto;mix-blend-mode:normal;shape-rendering:auto;solid-color:#000000;block-progression:tb;text-decoration-line:none;text-decoration-style:solid;image-rendering:auto;white-space:normal;text-indent:0;text-transform:none" d="m7.4141 3.002l-0.3457 1.3066-1.4786-0.4024-0.3925 1.4473 1.4882 0.4043-0.9062 3.4356-1.4785-0.4024-0.3946 1.449 1.4903 0.405-0.3477 1.314 1.4492 0.385 0.3458-1.307 0.9609 0.262-0.3477 1.316 1.4512 0.383 0.3652-1.385c0.3943 0.001 0.7706-0.102 1.0686-0.301 0.434-0.29 0.709-0.724 0.832-1.189 0.113-0.4277 0.093-0.8971-0.09-1.3339 0.374-0.2873 0.622-0.6832 0.734-1.1094 0.123-0.4646 0.099-0.9779-0.132-1.4453-0.16-0.3232-0.435-0.6054-0.78-0.8047l0.367-1.3887-1.4488-0.3848-0.3457 1.3067-0.9609-0.2617 0.3476-1.3164-1.4511-0.3828zm0.7207 3.1484l1.8812 0.5117c0.218 0.0593 0.277 0.1367 0.326 0.2363 0.049 0.0997 0.064 0.2523 0.025 0.3985-0.038 0.1462-0.124 0.2653-0.213 0.3242-0.088 0.0589-0.172 0.0964-0.3903 0.0371l-1.8926-0.5137 0.2637-0.9941zm-0.6465 2.4434l1.8808 0.5117c0.2183 0.0593 0.2769 0.1366 0.3262 0.2363s0.066 0.2503 0.0274 0.3965c-0.0387 0.1462-0.1266 0.2677-0.2149 0.3257-0.0882 0.059-0.1723 0.097-0.3906 0.038l-1.8906-0.5141 0.2617-0.9941z" fill-rule="evenodd" fill="url(#c)"/>
 </g>
</svg>
