<?xml version="1.0" encoding="UTF-8" standalone="no"?>
<svg xmlns:rdf="http://www.w3.org/1999/02/22-rdf-syntax-ns#" xmlns="http://www.w3.org/2000/svg" height="16" width="16" version="1.1" xmlns:cc="http://creativecommons.org/ns#" xmlns:xlink="http://www.w3.org/1999/xlink" xmlns:dc="http://purl.org/dc/elements/1.1/">
 <defs>
  <linearGradient id="d" y2="22" gradientUnits="userSpaceOnUse" x2="156" gradientTransform="matrix(.30442 0 0 .37458 177.4 534.02)" y1="20" x1="156">
   <stop stop-color="#fff" offset="0"/>
   <stop stop-color="#fff" stop-opacity="0" offset="1"/>
  </linearGradient>
  <linearGradient id="e" y2="4" xlink:href="#a" gradientUnits="userSpaceOnUse" x2="157" gradientTransform="matrix(.20169 0 0 .28248 192.66 534.68)" y1="17" x1="157"/>
  <linearGradient id="a">
   <stop stop-color="#5b371f" offset="0"/>
   <stop stop-color="#5b371f" stop-opacity="0" offset="1"/>
  </linearGradient>
  <linearGradient id="f" y2="4" xlink:href="#a" gradientUnits="userSpaceOnUse" x2="157" gradientTransform="matrix(.19249 0 0 .28255 196.93 534.68)" y1="17" x1="157"/>
  <linearGradient id="g" y2="4" xlink:href="#a" gradientUnits="userSpaceOnUse" x2="157" gradientTransform="matrix(.20184 0 0 .28254 194.03 534.68)" y1="17" x1="157"/>
  <linearGradient id="h" y2="41.628" gradientUnits="userSpaceOnUse" x2="149.75" gradientTransform="matrix(.34371 0 0 .31919 171.45 535.74)" y1="26.628" x1="141.53">
   <stop stop-color="#fff" offset="0"/>
   <stop stop-color="#fff" stop-opacity="0" offset="1"/>
  </linearGradient>
  <radialGradient id="b" gradientUnits="userSpaceOnUse" cy="27.696" cx="156" gradientTransform="matrix(.29683 0 0 .27466 178.41 537.61)" r="18">
   <stop stop-color="#fff" offset="0"/>
   <stop stop-color="#ededed" offset=".5"/>
   <stop stop-color="#c8c8c8" offset="1"/>
  </radialGradient>
  <radialGradient id="c" gradientUnits="userSpaceOnUse" cy="16.882" cx="156.01" gradientTransform="matrix(.23733 -.00073608 .00053402 .064276 187.77 541.68)" r="17">
   <stop stop-color="#b37851" offset="0"/>
   <stop stop-color="#462e1e" offset="1"/>
  </radialGradient>
 </defs>
 <g transform="translate(-217.71 -535.83)">
  <path opacity="0.99" stroke-linejoin="round" style="color:#000000" d="m230.69 544.33-0.35242 1.3747h0.96677c0.22419 0 0.37804-0.12311 0.3086 0.16708l-0.2192 0.95059c-0.0694 0.29018-0.29093 0.20218-0.51512 0.20218h-1.0764l-0.31783 1.3396h1.8184c1.5434 0 1.356-0.68805 1.5603-1.5418l0.2192-0.95059c0.20433-0.85373 0.31117-1.5418-0.81504-1.5418z" stroke="#969696" stroke-linecap="round" fill="#dcdcdc"/>
  <path opacity="0.99" stroke-linejoin="round" style="color:#000000" d="m227.37 19.938c0 1.1046-5.4285 2-12.125 2-6.6964 0-12.125-0.89543-12.125-2s5.4285-2 12.125-2 12.125 0.89543 12.125 2z" transform="matrix(.38839 0 0 .39066 141.7 535.01)" stroke="#141414" stroke-linecap="round" stroke-width="2.5672" fill="#52250c"/>
  <path opacity="0.99" stroke-linejoin="round" style="color:#000000" d="m224.71 540.33c-3.0396 0-5.5 0.91139-5.5 2.0287s2.4604 2.0287 5.5 2.0287 5.5-0.91141 5.5-2.0287-2.4604-2.0287-5.5-2.0287z" stroke="#969696" stroke-linecap="round" fill="#dcdcdc"/>
  <path opacity="0.99" stroke-linejoin="round" style="color:#000000" d="m224.81 542.34c-2.9881 0-5.4069 0.44592-5.4069 0.9926 0 0.54667 2.4188 0.9926 5.4069 0.9926s5.4069-0.44593 5.4069-0.9926c0-0.54668-2.4188-0.9926-5.4069-0.9926z" stroke="#bf8d6d" stroke-linecap="round" fill="url(#c)"/>
  <path opacity="0.99" stroke-linejoin="round" style="color:#000000" d="m230.08 543.08c-0.0851 0.88971-2.447 1.2824-5.3636 1.2824-2.8647 0-5.2004-0.36818-5.3636-1.2357-0.058 0.0583-0.10552 0.1221-0.13637 0.1867 0 3.5781 1.8531 8.0166 5.4432 8.0166 3.8462 0 5.4984-4.3541 5.5568-8.0166 0-0.0807-0.0499-0.15967-0.13636-0.23337z" stroke="#969696" stroke-linecap="round" fill="url(#b)"/>
  <path style="color:#000000" d="m219.93 544.17c0.45731 2.4276 1.7799 5.0239 3.942 5.903-1.5476-1.2608-2.4335-3.4946-2.6701-5.5155-0.47388-0.0828-0.90637-0.2725-1.2719-0.3875z" fill="url(#h)"/>
  <path opacity=".7" style="enable-background:new" d="m225.72 539.33c0.21996-0.0689 0.40359-0.2449 0.48182-0.46173 0.0782-0.21683 0.0493-0.46951-0.076-0.663-0.0974-0.15045-0.24458-0.26057-0.38951-0.36603-0.14492-0.10546-0.29369-0.21247-0.39652-0.35927-0.14684-0.20964-0.18263-0.49266-0.0926-0.73225 0.09-0.23959 0.30337-0.42899 0.55194-0.49002" stroke="url(#g)" stroke-linecap="round" stroke-width="1px" fill="none"/>
  <path opacity=".7" style="enable-background:new" d="m228.7 539.33c0.21563-0.0747 0.39321-0.25191 0.46842-0.46738 0.0752-0.21547 0.0465-0.46466-0.0758-0.65735-0.0943-0.14865-0.2366-0.25941-0.37688-0.3658-0.14027-0.10639-0.28411-0.21426-0.38359-0.35951-0.14301-0.20881-0.17828-0.48745-0.0918-0.72531 0.0865-0.23786 0.29248-0.42877 0.53622-0.49696" stroke="url(#f)" stroke-linecap="round" stroke-width="1px" fill="none"/>
  <path opacity=".7" style="enable-background:new" d="m222.71 539.33c0.22024-0.0684 0.40431-0.24429 0.48276-0.46117 0.0785-0.21688 0.0495-0.46978-0.076-0.66329-0.0976-0.15056-0.24515-0.26061-0.39041-0.36598-0.14525-0.10536-0.29437-0.21228-0.39744-0.35917-0.14711-0.20966-0.18292-0.49296-0.0926-0.73263 0.0903-0.23968 0.30416-0.42891 0.55304-0.48937" stroke="url(#e)" stroke-linecap="round" fill="none"/>
  <path opacity="0.99" stroke-linejoin="round" style="color:#000000" d="m224.89 541.33c-2.9442 0-5.3274 0.83427-5.3274 1.857 0 1.0228 2.3832 1.857 5.3274 1.857s5.3274-0.83427 5.3274-1.857c0-1.0228-2.3832-1.857-5.3274-1.857z" stroke="url(#d)" stroke-linecap="round" fill="none"/>
  <path stroke-linejoin="round" style="color:#000000" d="m102.53 62.795c-16.233 5.867-44.59 6.504-63.336 1.423-1.571-0.426-3.046-0.886-4.414-1.376" transform="matrix(.13618 .00033426 -.00033422 .11661 215.73 537.42)" stroke="#fff" stroke-linecap="round" stroke-width="7.9354" fill="none"/>
 </g>
</svg>
