<?xml version="1.0" encoding="UTF-8" standalone="no"?>
<svg xmlns:rdf="http://www.w3.org/1999/02/22-rdf-syntax-ns#" xmlns="http://www.w3.org/2000/svg" height="16" width="16" version="1.1" xmlns:cc="http://creativecommons.org/ns#" xmlns:xlink="http://www.w3.org/1999/xlink" xmlns:dc="http://purl.org/dc/elements/1.1/">
 <defs>
  <radialGradient id="a" gradientUnits="userSpaceOnUse" cy="4.3419" cx="32" gradientTransform="matrix(0 1.3006 -1.3006 0 94.036 165.84)" r="27.5">
   <stop stop-color="#fafafa" offset="0"/>
   <stop stop-color="#e1e1e1" offset="1"/>
  </radialGradient>
  <radialGradient id="c" xlink:href="#a" gradientUnits="userSpaceOnUse" cy="-47.109" cx="27.391" gradientTransform="matrix(2.9895 .0078878 -.0073208 2.7757 -54.839 83.435)" r="55.725"/>
  <radialGradient id="radialGradient11392" xlink:href="#a" gradientUnits="userSpaceOnUse" cy="-9.0843" cx="27.484" gradientTransform="matrix(3.8645 -.015967 .017622 4.2034 -78.661 97.06)" r="55.725"/>
  <linearGradient id="f" y2="16.15" gradientUnits="userSpaceOnUse" x2="8" gradientTransform="matrix(.646 0 0 .66699 138.71 200.99)" x1="8">
   <stop stop-opacity=".32174" offset="0"/>
   <stop stop-opacity=".27826" offset="1"/>
  </linearGradient>
  <radialGradient id="b" xlink:href="#a" gradientUnits="userSpaceOnUse" cy="8" cx="3.9615" gradientTransform="matrix(8e-8 2 -1.8667 7.4667e-8 22.933 -6.9231)" r="7.5"/>
  <linearGradient id="e" y2="14.855" gradientUnits="userSpaceOnUse" x2="8" y1="1" x1="8">
   <stop stop-color="#fff" offset="0"/>
   <stop stop-color="#fff" stop-opacity=".23529" offset=".50776"/>
   <stop stop-color="#fff" stop-opacity=".15686" offset=".83457"/>
   <stop stop-color="#fff" stop-opacity=".39216" offset="1"/>
  </linearGradient>
  <linearGradient id="d" y2="14" gradientUnits="userSpaceOnUse" x2="8" y1="2" x1="8">
   <stop stop-color="#60d36b" offset="0"/>
   <stop stop-color="#27b43d" offset="1"/>
  </linearGradient>
 </defs>
 <path style="color:#000000" d="m8 0.5c-4.1382 0-7.5 3.3618-7.5 7.5 0 1.6237 0.5234 3.123 1.4023 4.352l-1.08 2.878 3.1152-0.933c1.1719 0.758 2.5645 1.203 4.0625 1.203 4.138 0 7.5-3.362 7.5-7.5 0-4.1382-3.362-7.5-7.5-7.5z" fill="url(#b)"/>
 <path style="color:#000000" d="m8 0.5c-4.1382 0-7.5 3.3618-7.5 7.5 0 1.6237 0.52342 3.1231 1.4023 4.3516l-1.08 2.878 3.1152-0.933c1.1719 0.758 2.5645 1.203 4.0625 1.203 4.138 0 7.5-3.362 7.5-7.5 0-4.1382-3.362-7.5-7.5-7.5z" stroke="url(#f)" stroke-linecap="round" fill="none"/>
 <path style="color:#000000" d="m8 1.5c-3.5967 0-6.5 2.9033-6.5 6.5 0 1.4088 0.45066 2.7014 1.2148 3.7695l0.31055 0.43359-0.56055 1.4922 1.6289-0.48828 0.38672 0.25c1.0183 0.658 2.2195 1.042 3.5196 1.042 3.597 0 6.5-2.903 6.5-6.5 0-3.5967-2.903-6.5-6.5-6.5z" stroke="url(#e)" stroke-linecap="round" fill="none"/>
 <path style="color:#000000" d="m8 2c-3.3276 0-6 2.6724-6 6 0 1.3022 0.41386 2.49 1.1211 3.4785l0.4668 0.65039-0.29883 0.79883 0.88281-0.26562 0.58008 0.375c0.9419 0.61 2.0464 0.963 3.248 0.963 3.328 0 6-2.672 6-6 0-3.3276-2.672-6-6-6z" fill="url(#d)"/>
 <path opacity=".05" style="color:#000000" d="m8 2c-3.3276 0-6 2.6724-6 6 0 0.3438 0.0324 0.6776 0.0879 1.0039 0.472-2.8478 2.925-5.0039 5.9121-5.0039 2.986 0 5.437 2.1542 5.91 5 0.054-0.3259 0.09-0.6581 0.09-1 0-3.3276-2.672-6-6-6z"/>
 <path opacity=".15" style="color:#000000" d="m8 2c-3.3276 0-6 2.6724-6 6 0 0.1314 0.0229 0.2558 0.0312 0.3848 0.3058-3.0355 2.8492-5.3848 5.9688-5.3848 3.159 0 5.722 2.4095 5.975 5.5 0.013-0.1654 0.025-0.331 0.025-0.5 0-3.3276-2.672-6-6-6zm-4.6582 10.787l-0.0527 0.141 0.1269-0.039-0.0742-0.102z"/>
 <g>
  <g opacity=".05" transform="matrix(.056770 0 0 -.057863 6.445 6.2697)" stroke="#000" stroke-width="34.896">
   <path d="m0 0c-1.812 4.367-3.2 4.515-5.999 4.648-0.96 0.046-2.001 0.09-3.14 0.09-3.606 0-7.344-1.062-9.597-3.367-2.742-2.805-9.598-9.375-9.598-22.865 0-13.492 9.826-26.529 11.195-28.36 1.373-1.828 19.164-29.919 46.844-41.388 21.606-8.949 28.02-8.153 32.949-7.074 7.172 1.566 16.178 6.847 18.463 13.248 2.285 6.404 2.285 11.892 1.6 13.033-0.686 1.144-2.514 1.828-5.256 3.203-2.742 1.371-16.225 8.004-18.738 8.918-2.514 0.914-4.838 0.635-6.772-2.039-2.668-3.693-5.234-7.488-7.359-9.738-1.668-1.766-4.352-2.012-6.66-1.032-3.036 1.293-11.578 4.27-22.053 13.61-8.15 7.265-13.654 16.242-15.254 18.988-1.6 2.742-0.141 4.379 1.092 5.871 1.406 1.703 2.703 2.926 4.074 4.525 1.371 1.602 2.137 2.456 3.051 4.288 0.914 1.828 0.299 3.714-0.387 5.087-0.687 1.374-6.177 14.862-8.455 20.354" fill-rule="evenodd" stroke="#000" stroke-width="34.896"/>
  </g>
  <g opacity=".15" fill-rule="evenodd" transform="matrix(.056770 0 0 -.057863 6.445 6.2742)">
   <path d="m0 0c-1.812 4.367-3.2 4.515-5.999 4.648-0.96 0.046-2.001 0.09-3.14 0.09-3.606 0-7.344-1.062-9.597-3.367-2.742-2.805-9.598-9.375-9.598-22.865 0-13.492 9.826-26.529 11.195-28.36 1.373-1.828 19.164-29.919 46.844-41.388 21.606-8.949 28.02-8.153 32.949-7.074 7.172 1.566 16.178 6.847 18.463 13.248 2.285 6.404 2.285 11.892 1.6 13.033-0.686 1.144-2.514 1.828-5.256 3.203-2.742 1.371-16.225 8.004-18.738 8.918-2.514 0.914-4.838 0.635-6.772-2.039-2.668-3.693-5.234-7.488-7.359-9.738-1.668-1.766-4.352-2.012-6.66-1.032-3.036 1.293-11.578 4.27-22.053 13.61-8.15 7.265-13.654 16.242-15.254 18.988-1.6 2.742-0.141 4.379 1.092 5.871 1.406 1.703 2.703 2.926 4.074 4.525 1.371 1.602 2.137 2.456 3.051 4.288 0.914 1.828 0.299 3.714-0.387 5.087-0.687 1.374-6.177 14.862-8.455 20.354"/>
   <path d="m0 0c-1.812 4.367-3.2 4.515-5.999 4.648-0.96 0.046-2.001 0.09-3.14 0.09-3.606 0-7.344-1.062-9.597-3.367-2.742-2.805-9.598-9.375-9.598-22.865 0-13.492 9.826-26.529 11.195-28.36 1.373-1.828 19.164-29.919 46.844-41.388 21.606-8.949 28.02-8.153 32.949-7.074 7.172 1.566 16.178 6.847 18.463 13.248 2.285 6.404 2.285 11.892 1.6 13.033-0.686 1.144-2.514 1.828-5.256 3.203-2.742 1.371-16.225 8.004-18.738 8.918-2.514 0.914-4.838 0.635-6.772-2.039-2.668-3.693-5.234-7.488-7.359-9.738-1.668-1.766-4.352-2.012-6.66-1.032-3.036 1.293-11.578 4.27-22.053 13.61-8.15 7.265-13.654 16.242-15.254 18.988-1.6 2.742-0.141 4.379 1.092 5.871 1.406 1.703 2.703 2.926 4.074 4.525 1.371 1.602 2.137 2.456 3.051 4.288 0.914 1.828 0.299 3.714-0.387 5.087-0.687 1.374-6.177 14.862-8.455 20.354"/>
  </g>
  <g fill-rule="evenodd" transform="matrix(.056770 0 0 -.057863 6.445 5.2742)" fill="url(#c)">
   <path d="m0 0c-1.812 4.367-3.2 4.515-5.999 4.648-0.96 0.046-2.001 0.09-3.14 0.09-3.606 0-7.344-1.062-9.597-3.367-2.742-2.805-9.598-9.375-9.598-22.865 0-13.492 9.826-26.529 11.195-28.36 1.373-1.828 19.164-29.919 46.844-41.388 21.606-8.949 28.02-8.153 32.949-7.074 7.172 1.566 16.178 6.847 18.463 13.248 2.285 6.404 2.285 11.892 1.6 13.033-0.686 1.144-2.514 1.828-5.256 3.203-2.742 1.371-16.225 8.004-18.738 8.918-2.514 0.914-4.838 0.635-6.772-2.039-2.668-3.693-5.234-7.488-7.359-9.738-1.668-1.766-4.352-2.012-6.66-1.032-3.036 1.293-11.578 4.27-22.053 13.61-8.15 7.265-13.654 16.242-15.254 18.988-1.6 2.742-0.141 4.379 1.092 5.871 1.406 1.703 2.703 2.926 4.074 4.525 1.371 1.602 2.137 2.456 3.051 4.288 0.914 1.828 0.299 3.714-0.387 5.087-0.687 1.374-6.177 14.862-8.455 20.354"/>
   <path d="m0 0c-1.812 4.367-3.2 4.515-5.999 4.648-0.96 0.046-2.001 0.09-3.14 0.09-3.606 0-7.344-1.062-9.597-3.367-2.742-2.805-9.598-9.375-9.598-22.865 0-13.492 9.826-26.529 11.195-28.36 1.373-1.828 19.164-29.919 46.844-41.388 21.606-8.949 28.02-8.153 32.949-7.074 7.172 1.566 16.178 6.847 18.463 13.248 2.285 6.404 2.285 11.892 1.6 13.033-0.686 1.144-2.514 1.828-5.256 3.203-2.742 1.371-16.225 8.004-18.738 8.918-2.514 0.914-4.838 0.635-6.772-2.039-2.668-3.693-5.234-7.488-7.359-9.738-1.668-1.766-4.352-2.012-6.66-1.032-3.036 1.293-11.578 4.27-22.053 13.61-8.15 7.265-13.654 16.242-15.254 18.988-1.6 2.742-0.141 4.379 1.092 5.871 1.406 1.703 2.703 2.926 4.074 4.525 1.371 1.602 2.137 2.456 3.051 4.288 0.914 1.828 0.299 3.714-0.387 5.087-0.687 1.374-6.177 14.862-8.455 20.354"/>
  </g>
 </g>
</svg>
