<?xml version="1.0" encoding="UTF-8" standalone="no"?>
<svg xmlns:rdf="http://www.w3.org/1999/02/22-rdf-syntax-ns#" xmlns="http://www.w3.org/2000/svg" height="16" width="16" version="1.1" xmlns:cc="http://creativecommons.org/ns#" xmlns:xlink="http://www.w3.org/1999/xlink" xmlns:dc="http://purl.org/dc/elements/1.1/">
 <defs>
  <linearGradient id="b" y2="43" gradientUnits="userSpaceOnUse" x2="24" gradientTransform="matrix(.29730 0 0 .29730 .86487 .86487)" y1="5" x1="24">
   <stop stop-color="#fff" offset="0"/>
   <stop stop-color="#fff" stop-opacity=".23529" offset=".063165"/>
   <stop stop-color="#fff" stop-opacity=".15686" offset=".95056"/>
   <stop stop-color="#fff" stop-opacity=".39216" offset="1"/>
  </linearGradient>
  <radialGradient id="a" fx="6.2002" gradientUnits="userSpaceOnUse" cy="9.9571" cx="6.7304" gradientTransform="matrix(0 3.1659 -3.8867 0 46.977 -26.72)" r="12.672">
   <stop stop-color="#fafafa" offset="0"/>
   <stop stop-color="#e1e1e1" offset="1"/>
  </radialGradient>
 </defs>
 <path style="color:#000000" d="m2.5 2c-0.2856 0-0.5 0.2144-0.5 0.5v11c0 0.286 0.2144 0.5 0.5 0.5h11c0.286 0 0.5-0.214 0.5-0.5v-11c0-0.2856-0.214-0.5-0.5-0.5h-11z" fill="url(#a)"/>
 <rect opacity=".5" stroke-linejoin="round" height="11" width="11" stroke="url(#b)" stroke-linecap="round" y="2.5" x="2.5" fill="none"/>
 <rect opacity=".4" stroke-linejoin="round" style="color:#000000" rx="1" ry="1" height="13" width="13" stroke="#000" stroke-linecap="round" y="1.5" x="1.5" fill="none"/>
 <rect opacity=".15" rx=".5" ry=".5" height="2" width="2" y="5" x="4"/>
 <rect opacity=".15" rx=".5" ry=".5" height="2" width="2" y="5" x="7"/>
 <rect opacity=".15" rx=".5" ry=".5" height="2" width="2" y="5" x="10"/>
 <rect opacity=".15" rx=".5" ry=".5" height="2" width="2" y="8" x="4"/>
 <rect opacity=".15" rx=".5" ry=".5" height="2" width="2" y="8" x="7"/>
 <rect opacity=".15" rx=".5" ry=".5" height="2" width="2" y="8" x="10"/>
 <rect opacity=".15" rx=".5" ry=".5" height="2" width="2" y="11" x="4"/>
 <rect opacity=".15" rx=".5" ry=".5" height="2" width="2" y="11" x="7"/>
 <rect opacity=".15" rx=".5" ry=".5" height="2" width="2" y="11" x="10"/>
 <rect rx=".5" ry=".5" height="2" width="2" y="4" x="4" fill="#fe3932"/>
 <rect rx=".5" ry=".5" height="2" width="2" y="4" x="7" fill="#fe3932"/>
 <rect rx=".5" ry=".5" height="2" width="2" y="4" x="10" fill="#fe3932"/>
 <rect rx=".5" ry=".5" height="2" width="2" y="7" x="4" fill="#009d5a"/>
 <rect rx=".5" ry=".5" height="2" width="2" y="7" x="7" fill="#008bf4"/>
 <rect rx=".5" ry=".5" height="2" width="2" y="7" x="10" fill="#ffb000"/>
 <rect rx=".5" ry=".5" height="2" width="2" y="10" x="4" fill="#009d5a"/>
 <rect rx=".5" ry=".5" height="2" width="2" y="10" x="7" fill="#ffb000"/>
 <rect rx=".5" ry=".5" height="2" width="2" y="10" x="10" fill="#ffb000"/>
</svg>
