<?xml version="1.0" encoding="UTF-8" standalone="no"?>
<svg xmlns:rdf="http://www.w3.org/1999/02/22-rdf-syntax-ns#" xmlns="http://www.w3.org/2000/svg" height="16" width="16" version="1.1" xmlns:cc="http://creativecommons.org/ns#" xmlns:xlink="http://www.w3.org/1999/xlink" xmlns:dc="http://purl.org/dc/elements/1.1/">
 <defs>
  <linearGradient id="c" y2="43" gradientUnits="userSpaceOnUse" x2="24" gradientTransform="matrix(.29730 0 0 .29730 .86487 .86487)" y1="5" x1="24">
   <stop stop-color="#fff" offset="0"/>
   <stop stop-color="#fff" stop-opacity=".23529" offset=".063165"/>
   <stop stop-color="#fff" stop-opacity=".15686" offset=".95056"/>
   <stop stop-color="#fff" stop-opacity=".39216" offset="1"/>
  </linearGradient>
  <radialGradient id="a" gradientUnits="userSpaceOnUse" cy="8.4498" cx="7.4957" gradientTransform="matrix(-.0000019081 .71529 -.82409 -.0000022115 14.963 -3.6674)" r="20">
   <stop stop-color="#f8de97" offset="0"/>
   <stop stop-color="#f6ce68" offset=".26238"/>
   <stop stop-color="#f4ba27" offset=".70495"/>
   <stop stop-color="#d89e0c" offset="1"/>
  </radialGradient>
  <linearGradient id="b" y2="3.899" gradientUnits="userSpaceOnUse" x2="24" gradientTransform="matrix(.33333 0 0 .33333 1.5e-7 -.00000292)" y1="44" x1="24">
   <stop stop-color="#b98809" offset="0"/>
   <stop stop-color="#dca10b" offset="1"/>
  </linearGradient>
 </defs>
 <rect stroke-linejoin="round" height="13" stroke="url(#b)" stroke-linecap="round" fill="url(#a)" style="color:#000000" rx="1" ry="1" width="13" y="1.5" x="1.5"/>
 <rect opacity=".5" stroke-linejoin="round" height="11" width="11" stroke="url(#c)" stroke-linecap="round" y="2.5" x="2.5" fill="none"/>
 <path opacity=".15" style="color-rendering:auto;text-decoration-color:#000000;color:#000000;isolation:auto;mix-blend-mode:normal;shape-rendering:auto;solid-color:#000000;block-progression:tb;text-decoration-line:none;text-decoration-style:solid;image-rendering:auto;white-space:normal;text-indent:0;text-transform:none" d="m8 4c-1.6509 0-3 1.3491-3 3 0.0013 0.8358 0.3947 1.5951 1 2.1582v0.8418 2h1v1h2v-1h1v-2-0.83984c0.606-0.5637 0.999-1.3234 1-2.1602 0-1.6509-1.3491-3-3-3zm0 1c1.1105 0 2 0.8895 2 2-0.0005 0.6294-0.2973 1.22-0.8008 1.5977l-0.1992 0.1503v0.252h-2v-0.2539l-0.1992-0.1504c-0.5031-0.3773-0.7998-0.9669-0.8008-1.5957 0-1.1105 0.8895-2 2-2zm-1 5h2v1h-2v-1z"/>
 <path style="color-rendering:auto;text-decoration-color:#000000;color:#000000;isolation:auto;mix-blend-mode:normal;shape-rendering:auto;solid-color:#000000;block-progression:tb;text-decoration-line:none;text-decoration-style:solid;image-rendering:auto;white-space:normal;text-indent:0;text-transform:none" d="m8 3c-1.6509 0-3 1.3491-3 3 0.0013 0.8358 0.3947 1.5951 1 2.1582v0.8418 2h1v1h2v-1h1v-2-0.83984c0.606-0.5637 0.999-1.3234 1-2.1602 0-1.6509-1.3491-3-3-3zm0 1c1.1105 0 2 0.8895 2 2-0.0005 0.6294-0.2973 1.22-0.8008 1.5977l-0.1992 0.1503v0.252h-2v-0.2539l-0.1992-0.1504c-0.5031-0.3773-0.7998-0.9669-0.8008-1.5957 0-1.1105 0.8895-2 2-2zm-1 5h2v1h-2v-1z" fill="#fff"/>
</svg>
