<?xml version="1.0" encoding="UTF-8" standalone="no"?>
<svg xmlns:rdf="http://www.w3.org/1999/02/22-rdf-syntax-ns#" xmlns="http://www.w3.org/2000/svg" height="16" width="16" version="1.1" xmlns:cc="http://creativecommons.org/ns#" xmlns:xlink="http://www.w3.org/1999/xlink" xmlns:dc="http://purl.org/dc/elements/1.1/">
 <defs>
  <linearGradient id="b" y2="43" gradientUnits="userSpaceOnUse" x2="24" gradientTransform="matrix(.29730 0 0 .29730 .86487 .86487)" y1="5" x1="24">
   <stop stop-color="#fff" offset="0"/>
   <stop stop-color="#fff" stop-opacity=".23529" offset=".063165"/>
   <stop stop-color="#fff" stop-opacity=".15686" offset=".95056"/>
   <stop stop-color="#fff" stop-opacity=".39216" offset="1"/>
  </linearGradient>
  <radialGradient id="a" fx="6.2002" gradientUnits="userSpaceOnUse" cy="9.9571" cx="6.7304" gradientTransform="matrix(0 3.1659 -3.8867 0 46.977 -26.72)" r="12.672">
   <stop stop-color="#fafafa" offset="0"/>
   <stop stop-color="#e1e1e1" offset="1"/>
  </radialGradient>
  <linearGradient id="c" y2="12" gradientUnits="userSpaceOnUse" x2="8" gradientTransform="translate(0 -.0000028610)" y1="4" x1="8">
   <stop stop-color="#008fef" offset="0"/>
   <stop stop-color="#007acc" offset="1"/>
  </linearGradient>
 </defs>
 <path style="color:#000000" d="m2.5 2c-0.2856 0-0.5 0.2144-0.5 0.5v11c0 0.286 0.2144 0.5 0.5 0.5h11c0.286 0 0.5-0.214 0.5-0.5v-11c0-0.2856-0.214-0.5-0.5-0.5h-11z" fill="url(#a)"/>
 <rect opacity=".5" stroke-linejoin="round" height="11" width="11" stroke="url(#b)" stroke-linecap="round" y="2.5" x="2.5" fill="none"/>
 <rect opacity=".4" stroke-linejoin="round" style="color:#000000" rx="1" ry="1" height="13" width="13" stroke="#000" stroke-linecap="round" y="1.5" x="1.5" fill="none"/>
 <g fill-rule="evenodd">
  <path opacity=".2" d="m10.334 5-3.668 3.334-2-1.668l-0.666 0.334v1 2 1l0.66602 0.33398 2-1.668 3.668 3.334 1.666-0.666v-6.668l-1.666-0.666zm-0.334 2.334c0.000533 1.1082 0 2.2327 0 3.332l-2-1.666 2-1.666zm-5 0.66602 1 1l-1 1v-0.334-1.332-0.334z" fill="#fff"/>
  <path d="m10.334 4-3.668 3.334-2-1.668l-0.666 0.334v1 2 1l0.66602 0.33398 2-1.668 3.668 3.334 1.666-0.666v-6.668l-1.666-0.666zm-0.334 2.334c0.000533 1.1082 0 2.2327 0 3.332l-2-1.666 2-1.666zm-5 0.66602 1 1-1 1v-0.33398-1.332-0.33398z" fill="url(#c)"/>
  <path opacity=".3" d="m10.334 4l-3.668 3.334-2-1.668-0.666 0.334v1l0.666-0.334 2 1.668 3.668-3.334 1.666 0.666v-1l-1.666-0.666zm-4.834 4.5l-0.5 0.5v0.666 0.334l1-1-0.5-0.5zm3.0996 0l-0.5996 0.5 2 1.666c0-0.33-0.0001-0.6666 0-1l-1.4004-1.166z" fill="#002d4a"/>
 </g>
</svg>
