<?xml version="1.0" encoding="UTF-8" standalone="no"?>
<svg xmlns:rdf="http://www.w3.org/1999/02/22-rdf-syntax-ns#" xmlns="http://www.w3.org/2000/svg" height="16" width="16" version="1.1" xmlns:cc="http://creativecommons.org/ns#" xmlns:xlink="http://www.w3.org/1999/xlink" xmlns:dc="http://purl.org/dc/elements/1.1/">
 <defs>
  <radialGradient id="b" gradientUnits="userSpaceOnUse" cy="27.97" cx="152.64" gradientTransform="matrix(-.56186 1.4654 -1.1586 -.44422 273.75 -186.65)" r="3.9531">
   <stop stop-color="#f0f0f0" offset="0"/>
   <stop stop-color="#969696" offset="1"/>
  </radialGradient>
  <linearGradient id="d" y2="13" gradientUnits="userSpaceOnUse" x2="157" gradientTransform="matrix(.37267 0 0 .18084 87.047 261.83)" y1="7" x1="157">
   <stop stop-color="#fff" offset="0"/>
   <stop stop-color="#fff" stop-opacity="0" offset="1"/>
  </linearGradient>
  <linearGradient id="e" y2="48" gradientUnits="userSpaceOnUse" x2="157" gradientTransform="matrix(.36111 0 0 .36249 88.839 259.75)" y1="14" x1="157">
   <stop stop-color="#fff" offset="0"/>
   <stop stop-color="#fff" stop-opacity="0" offset="1"/>
  </linearGradient>
  <radialGradient id="c" xlink:href="#a" gradientUnits="userSpaceOnUse" cy="8.4623" cx="157.02" gradientTransform="matrix(-.39183 .38171 -.40029 -.36381 210.43 205.92)" r="19.5"/>
  <linearGradient id="a">
   <stop stop-color="#a0a0a0" offset="0"/>
   <stop stop-color="#646464" offset="1"/>
  </linearGradient>
  <linearGradient id="f" y2="7.3259" xlink:href="#a" gradientUnits="userSpaceOnUse" x2="157.3" gradientTransform="matrix(.38256 0 0 .26769 85.34 260.53)" y1="16.457" x1="157.3"/>
 </defs>
 <g transform="translate(-137.71 -261.51)">
  <path stroke-linejoin="round" style="enable-background:new" d="m138.21 264.01 1.4619-1.9999h12.076l1.4619 1.9999h-15" stroke="#505050" fill="url(#f)"/>
  <rect height="13" stroke="#505050" stroke-linecap="round" fill="url(#c)" style="color:#000000" rx=".81414" ry=".76607" width="15" opacity="0.99" y="264.01" x="138.21"/>
  <rect opacity=".4" style="color:#000000" rx=".84849" ry=".73558" height="9" width="11.18" stroke="#fff" stroke-linecap="round" y="267.01" x="140.15" fill="none"/>
  <rect style="color:#000000" rx=".84849" ry=".73558" height="9" width="11.18" stroke="#505050" stroke-linecap="round" y="266.01" x="140.15" fill="none"/>
  <rect opacity=".4" style="color:#000000" rx=".11640" ry=".12008" height="11.962" width="13" stroke="url(#e)" stroke-linecap="round" y="265.01" x="139.21" fill="none"/>
  <path opacity=".4" stroke-linejoin="round" style="enable-background:new" d="m139.44 264.15 0.65193-1.1429h11.265l0.68213 1.1429" stroke="url(#d)" stroke-width="1px" fill="none"/>
  <path opacity="0.99" stroke-linejoin="round" style="color:#000000" d="m160.37 27.156c0 1.9848-1.609 3.5938-3.5938 3.5938s-3.5938-1.609-3.5938-3.5938 1.609-3.5937 3.5938-3.5937 3.5938 1.609 3.5938 3.5937z" transform="matrix(.99379 0 0 .99379 -10.093 244.33)" stroke="#505050" stroke-linecap="round" stroke-width="1.0063" fill="url(#b)"/>
  <path opacity="0.99" style="color:#000000" d="m160.37 27.156c0 1.9848-1.609 3.5938-3.5938 3.5938s-3.5938-1.609-3.5938-3.5938 1.609-3.5937 3.5938-3.5937 3.5938 1.609 3.5938 3.5937z" transform="matrix(.41739 0 0 .41739 80.275 260.17)" stroke="#505050" stroke-width="2.3958" fill="#282828"/>
 </g>
</svg>
