<?xml version="1.0" encoding="UTF-8" standalone="no"?>
<svg xmlns:rdf="http://www.w3.org/1999/02/22-rdf-syntax-ns#" xmlns="http://www.w3.org/2000/svg" height="16.003" width="16" version="1.1" xmlns:cc="http://creativecommons.org/ns#" xmlns:xlink="http://www.w3.org/1999/xlink" xmlns:dc="http://purl.org/dc/elements/1.1/">
 <defs>
  <radialGradient id="c" gradientUnits="userSpaceOnUse" cy="21.664" cx="156.37" gradientTransform="matrix(-1.6715e-7 2.9918 -3.025 -2.661e-7 223.12 -463.41)" r="17.375">
   <stop stop-color="#8badea" offset="0"/>
   <stop stop-color="#6396cd" offset=".26238"/>
   <stop stop-color="#3b7caf" offset=".66094"/>
   <stop stop-color="#194c70" offset="1"/>
  </radialGradient>
  <radialGradient id="b" gradientUnits="userSpaceOnUse" cy="18.17" cx="154.34" gradientTransform="matrix(0 3.9126 -3.3335 .0000010032 215.15 -598.77)" r="14.234">
   <stop stop-color="#487ede" offset="0"/>
   <stop stop-color="#366eaa" offset=".26238"/>
   <stop stop-color="#275273" offset=".66094"/>
   <stop stop-color="#0a1f2e" offset="1"/>
  </radialGradient>
  <linearGradient id="e" y2="47.43" gradientUnits="userSpaceOnUse" x2="157.81" y1="7.2969" x1="157.81">
   <stop stop-color="#fff" offset="0"/>
   <stop stop-color="#fff" stop-opacity="0" offset="1"/>
  </linearGradient>
  <linearGradient id="d" y2="48.276" gradientUnits="userSpaceOnUse" x2="152.59" gradientTransform="matrix(1 0 0 .99855 0 .070392)" y1="5.2252" x1="152.59">
   <stop stop-color="#4083c2" offset="0"/>
   <stop stop-color="#1f4b6a" offset="1"/>
  </linearGradient>
  <radialGradient id="a" gradientUnits="userSpaceOnUse" cy="34.237" cx="159.98" r="9.7227">
   <stop stop-color="#fff" offset="0"/>
   <stop stop-color="#fff" stop-opacity="0" offset="1"/>
  </radialGradient>
 </defs>
 <g transform="translate(-157.71 -272.93)">
  <g style="enable-background:new" transform="matrix(.34884 0 0 .34884 110.4 271.51)">
   <path style="color:#000000;enable-background:accumulate" d="m157.59 5.5c-4.244 6.1247-8.2697 12.409-12.375 18.629-1.11 1.9146-2.1377 3.5915-2.8438 5.3984-0.4462 1.3266-0.6875 2.7283-0.6875 4.1814 0 8.1647 7.5512 14.791 16.875 14.791s16.875-6.6263 16.875-14.791c-0.0362-1.7877-0.40835-3.3259-0.84375-4.5871-0.87351-2.3413-2.889-4.6708-4.125-6.5842-4.1813-5.7574-8.7903-11.211-12.875-17.038z" fill="url(#c)"/>
   <path d="m155.97 16.719c-3.0562 0.12262-5.731 0.68617-5.875 0.71875l-0.1 0.031c-0.005 0.0073 0.005 0.02395 0 0.03125-1.4766 2.2578-2.95 4.5236-4.4375 6.7812-0.005 0.0083 0.005 0.023 0 0.03125-1.1019 1.9026-2.1268 3.5641-2.8125 5.3125-0.003 0.0095 0.003 0.02176 0 0.03125-0.42698 1.281-0.65625 2.6302-0.65625 4.0312 0 7.9321 7.3334 14.406 16.469 14.406 3.7091 0 7.1235-1.1004 9.875-2.9062-4.216-1.1421-9.2602-2.7047-12.312-4.6562a0.39714 0.39714 0 0 1 -0.04 -0.031c-5.1732-3.8181-6.4585-9.0036-4.8125-12.938 1.646-3.9339 6.2333-6.5201 12.406-5.25 1.7984 0.37002 3.4199 2.1943 4.6875 3.9062 0.26738 0.3611 0.42899 0.62973 0.65625 0.96875-0.26547-0.84909-0.52648-1.7072-1-2.75-1.2892-2.8392-3.4008-5.9239-6.6875-7.125-1.5112-0.55225-3.4919-0.6693-5.375-0.59375z" fill="url(#b)"/>
   <path opacity=".4" style="color:#000000;enable-background:accumulate" d="m157.75 10.438c-3.3792 4.9959-6.7068 10.038-10.062 15.125-1.1206 1.9328-2.0406 3.4857-2.625 4.9688-0.004 0.01115-0.0269 0.02011-0.0312 0.03125-0.32522 1.0071-0.5 2.0627-0.5 3.1562 0 6.4066 6.0565 11.938 14.031 11.938 7.9486 0 13.992-5.4953 14.031-11.875-0.00047-0.02316 0.00061-0.03943 0-0.0625-0.0368-1.3963-0.32885-2.6174-0.6875-3.6562-0.59671-1.5441-2.3509-3.6996-3.75-5.8438-0.0299-0.04117-0.0638-0.08385-0.0937-0.125-3.2804-4.5065-6.8633-9.0248-10.312-13.656z" stroke="url(#e)" stroke-linecap="round" stroke-width="2.8667" fill="none"/>
   <path stroke-linejoin="round" style="color:#000000;enable-background:accumulate" d="m157.59 5.5c-4.244 6.1247-8.2697 12.409-12.375 18.629-1.11 1.9146-2.1377 3.5915-2.8438 5.3984-0.4462 1.3266-0.6875 2.7283-0.6875 4.1814 0 8.1647 7.5512 14.791 16.875 14.791s16.875-6.6263 16.875-14.791c-0.0362-1.7877-0.40835-3.3259-0.84375-4.5871-0.87351-2.3413-2.889-4.6708-4.125-6.5842-4.1813-5.7574-8.7903-11.211-12.875-17.038z" stroke="url(#d)" stroke-linecap="round" stroke-width="2.8667" fill="none"/>
   <path opacity=".5" style="color:#000000;enable-background:accumulate" d="m169.71 34.237c0 5.3697-4.353 9.7227-9.7227 9.7227s-9.7227-4.353-9.7227-9.7227 4.353-9.7227 9.7227-9.7227 9.7227 4.353 9.7227 9.7227z" transform="matrix(1.4182 0 0 1.3636 -68.493 -13.864)" fill="url(#a)"/>
  </g>
 </g>
</svg>
