<?xml version="1.0" encoding="UTF-8" standalone="no"?>
<svg xmlns:rdf="http://www.w3.org/1999/02/22-rdf-syntax-ns#" xmlns="http://www.w3.org/2000/svg" height="16" width="16" version="1.1" xmlns:cc="http://creativecommons.org/ns#" xmlns:xlink="http://www.w3.org/1999/xlink" xmlns:dc="http://purl.org/dc/elements/1.1/">
 <defs>
  <linearGradient id="a" y2="109.96" gradientUnits="userSpaceOnUse" x2="58.3" gradientTransform="matrix(.17857 0 0 .17857 131.2 111.23)" y1="33.748" x1="58.3">
   <stop stop-color="#fff" offset="0"/>
   <stop stop-color="#fff" stop-opacity=".23529" offset=".063165"/>
   <stop stop-color="#fff" stop-opacity=".15686" offset=".95056"/>
   <stop stop-color="#fff" stop-opacity=".39216" offset="1"/>
  </linearGradient>
  <linearGradient id="c" y2="5.9877" gradientUnits="userSpaceOnUse" x2="48" gradientTransform="matrix(.17857 0 0 .17857 205.71 226.65)" y1="90" x1="48">
   <stop stop-color="#be1e1e" offset="0"/>
   <stop stop-color="#e24a4a" offset="1"/>
  </linearGradient>
  <linearGradient id="b" y2="29.963" gradientUnits="userSpaceOnUse" x2="52" gradientTransform="matrix(.17857 0 0 .17857 203.48 222.45)" y1="113.5" x1="52">
   <stop stop-color="#560e0e" offset="0"/>
   <stop stop-color="#9b1919" offset="1"/>
  </linearGradient>
 </defs>
 <g transform="translate(-206.29 -227.22)">
  <path style="enable-background:new" d="m207.86 227.72c-0.56388 0-1.0213 0.43012-1.0658 0.98214 0.44096 0.003 0.79799 0.36189 0.79799 0.80357 0 0.44357-0.36 0.80357-0.80357 0.80357v1.25c0.44357 0 0.80357 0.36 0.80357 0.80357s-0.36 0.80357-0.80357 0.80357v1.25c0.44357 0 0.80357 0.36 0.80357 0.80357s-0.36 0.80357-0.80357 0.80357v1.25c0.44357 0 0.80357 0.36 0.80357 0.80357 0 0.44358-0.36 0.80358-0.80357 0.80358v1.25c0.44357 0 0.80357 0.36 0.80357 0.80358 0 0.44168-0.35703 0.80052-0.79799 0.80357 0.0446 0.55201 0.50197 0.98214 1.0658 0.98214 0-0.44357 0.36-0.80357 0.80358-0.80357 0.44356 0 0.80356 0.36 0.80356 0.80357h1.25c0-0.44357 0.36-0.80357 0.80356-0.80357 0.44357 0 0.80357 0.36 0.80357 0.80357h1.25c0-0.44357 0.36-0.80357 0.80356-0.80357 0.44358 0 0.80358 0.36 0.80358 0.80357h1.25c0-0.44357 0.36-0.80357 0.80357-0.80357s0.80357 0.36 0.80357 0.80357h1.25c-0.00001-0.44357 0.36-0.80357 0.80356-0.80357 0.4379 0 0.79452 0.35109 0.80357 0.78683 0.4801-0.0795 0.8475-0.47267 0.88728-0.9654-0.44096-0.003-0.79799-0.36189-0.79799-0.80357 0-0.44358 0.36-0.80358 0.80357-0.80358v-1.25c-0.44357 0-0.80357-0.36-0.80357-0.80358 0-0.44357 0.36-0.80357 0.80357-0.80357v-1.25c-0.44357 0-0.80357-0.36-0.80357-0.80357s0.36-0.80357 0.80357-0.80357v-1.25c-0.44357 0-0.80357-0.36-0.80357-0.80357s0.36-0.80357 0.80357-0.80357v-1.25c-0.44357 0-0.80357-0.36-0.80357-0.80357 0-0.44168 0.35703-0.80052 0.79799-0.80357-0.0398-0.49273-0.40718-0.88592-0.88728-0.9654-0.009 0.43574-0.36567 0.78683-0.80357 0.78683-0.44357 0-0.80356-0.36-0.80356-0.80357h-1.25c0 0.44357-0.36 0.80357-0.80357 0.80357s-0.80357-0.36-0.80357-0.80357h-1.25c0 0.44357-0.36 0.80357-0.80358 0.80357-0.44356 0-0.80356-0.36-0.80356-0.80357h-1.25c0 0.44357-0.36 0.80357-0.80357 0.80357-0.44356 0-0.80356-0.36-0.80356-0.80357h-1.25c0 0.44357-0.36 0.80357-0.80356 0.80357-0.44358 0-0.80358-0.36-0.80358-0.80357z" stroke="url(#b)" fill="url(#c)"/>
  <path opacity=".95" style="enable-background:new" d="m211.4 230.41-1.9676 8.6524h1.5986l0.92865-3.872h4.3639l-4.0868 3.6266 1.0654 1.2161 0.54569-0.27874c1.0319-0.52599 1.4648-0.21844 2.2477-0.003 0.76168 0.20954 1.4777 0.43382 2.9633-0.41509l-0.29503-1.4983c-1.6213 1.1428-2.1342 0.12319-3.2889 0.0827l3.306-2.7731 0.35872-1.4804h-6.9249l0.44579-1.7767h4.5389l0.31127-1.4804h-6.1107z" fill="#fff"/>
  <path opacity=".5" style="enable-background:new" d="m137.78 117.5c-0.32782 0.46265-0.79843 0.8125-1.4062 0.8125-0.025 0-0.0377-0.0302-0.0625-0.0312 0 0.60782-0.34985 1.0784-0.8125 1.4062v0.0625c0.46265 0.32782 0.8125 0.79843 0.8125 1.4062 0 0.59517-0.36261 1.0232-0.8125 1.3438v0.0937c0.46265 0.32782 0.8125 0.79843 0.8125 1.4062 0 0.60782-0.34985 1.0784-0.8125 1.4062v0.0937c0.44989 0.32058 0.8125 0.74858 0.8125 1.3438 0 0.60782-0.34984 1.0784-0.8125 1.4062v0.0625c0.46266 0.32782 0.8125 0.79843 0.8125 1.4062 0.0248-0.001 0.0375-0.0312 0.0625-0.0312 0.60782 0 1.0784 0.34985 1.4062 0.8125h0.0937c0.32058-0.44989 0.74858-0.8125 1.3438-0.8125 0.60782 0 1.0784 0.34985 1.4062 0.8125h0.0625c0.32782-0.46265 0.79843-0.8125 1.4062-0.8125 0.60782 0 1.0784 0.34984 1.4062 0.8125h0.0937c0.32058-0.44989 0.74858-0.8125 1.3438-0.8125 0.60782 0 1.0784 0.34985 1.4062 0.8125h0.0625c0.30086-0.4246 0.73463-0.70514 1.2812-0.75-0.00017-0.0104 0-0.0208 0-0.0312 0-0.60782 0.34984-1.0784 0.8125-1.4062v-0.0625c-0.46266-0.32782-0.8125-0.79843-0.8125-1.4062 0-0.59517 0.36261-1.0232 0.8125-1.3438v-0.0937c-0.46265-0.32782-0.8125-0.79843-0.8125-1.4062 0-0.60782 0.34985-1.0784 0.8125-1.4062v-0.0937c-0.44989-0.32058-0.8125-0.74858-0.8125-1.3438 0-0.60782 0.34985-1.0784 0.8125-1.4062v-0.0625c-0.46265-0.32782-0.8125-0.79843-0.8125-1.4062 0-0.0104-0.00017-0.0209 0-0.0312-0.54662-0.0449-0.98039-0.3254-1.2812-0.75h-0.0625c-0.32782 0.46265-0.79843 0.8125-1.4062 0.8125-0.59517 0-1.0232-0.36261-1.3438-0.8125h-0.0937c-0.32782 0.46266-0.79843 0.8125-1.4062 0.8125-0.60782 0-1.0784-0.34985-1.4062-0.8125h-0.0625c-0.32782 0.46265-0.79843 0.8125-1.4062 0.8125-0.59517 0-1.0232-0.36261-1.3438-0.8125h-0.0937z" transform="translate(72.286 111.22)" stroke="url(#a)" fill="none"/>
 </g>
</svg>
