<!-- Created with Inkscape (http://www.inkscape.org/) -->
<svg id="svg6839" xmlns:rdf="http://www.w3.org/1999/02/22-rdf-syntax-ns#" xmlns="http://www.w3.org/2000/svg" height="16" width="16" version="1.1" xmlns:cc="http://creativecommons.org/ns#" xmlns:xlink="http://www.w3.org/1999/xlink" xmlns:dc="http://purl.org/dc/elements/1.1/">
<defs id="defs6841">
<radialGradient id="radialGradient4031" gradientUnits="userSpaceOnUse" cy="31.427" cx="64" gradientTransform="matrix(-0.01346256,0.53469772,-0.40661626,-0.01006009,21.379066,-30.32793)" r="33.942">
<stop id="stop38" stop-color="#fafafa" offset="0"/>
<stop id="stop40" stop-color="#e0e0e0" offset="1"/>
</radialGradient>
<linearGradient id="linearGradient3088" y2="43" gradientUnits="userSpaceOnUse" x2="24" gradientTransform="matrix(0.2972973,0,0,0.2972973,0.86486955,0.86486463)" y1="5" x1="24">
<stop id="stop3926-0-6" stop-color="#FFF" offset="0"/>
<stop id="stop3928-6" stop-color="#FFF" stop-opacity="0.23529412" offset="0.063165"/>
<stop id="stop3930-2-7" stop-color="#FFF" stop-opacity="0.15686275" offset="0.95056"/>
<stop id="stop3932-9" stop-color="#FFF" stop-opacity="0.39215687" offset="1"/>
</linearGradient>
<radialGradient id="radialGradient3096" gradientUnits="userSpaceOnUse" cy="9.9941" cx="8.2761" gradientTransform="matrix(0,2.2225861,-2.7286255,0,35.2943,-20.154259)" r="12.672">
<stop id="stop3883" stop-color="#ff9c44" offset="0"/>
<stop id="stop3885" stop-color="#ff7e0c" offset="0.65391"/>
<stop id="stop3887" stop-color="#cb5f00" offset="1"/>
</radialGradient>
</defs>
<metadata id="metadata6844">
<rdf:RDF>
<cc:Work rdf:about="">
<dc:format>image/svg+xml</dc:format>
<dc:type rdf:resource="http://purl.org/dc/dcmitype/StillImage"/>
<dc:title/>
</cc:Work>
</rdf:RDF>
</metadata>
<rect id="rect5505-1" style="enable-background:accumulate;color:#000000;" fill-rule="nonzero" rx="1" ry="1" height="13" width="13" y="1.5" x="1.5" fill="url(#radialGradient3096)"/>
<rect id="rect6741-0-3" opacity="0.5" stroke-linejoin="round" stroke-dasharray="none" stroke-dashoffset="0" height="11" width="11" stroke="url(#linearGradient3088)" stroke-linecap="round" stroke-miterlimit="4" y="2.5" x="2.5" stroke-width="1" fill="none"/>
<rect id="rect5505-1-9" opacity="0.35" stroke-linejoin="round" style="enable-background:accumulate;color:#000000;" stroke-dasharray="none" stroke-dashoffset="0" rx="1" ry="1" height="13" width="13" stroke="#410000" stroke-linecap="round" stroke-miterlimit="4" y="1.5" x="1.5" stroke-width="1" fill="none"/>
<path id="path3979" opacity="0.3" d="M11.038,7.1662c-5.2957-3.0112-6.614,6.5488-1.1344,3.6508,0.6738-0.35644-1.465,0.22145-1.8856-0.96378,1.32,0.06863,2.0827-0.49718,2.2244-1.8692,0.17188,0.28232,0.2269,0.56463,0.57453,0.84697,0.08232-0.331,0.16797-0.662,0.05895-0.993,0.91893,0.50627,0.84784,2.27-0.19317,3.6783-1.4902,2.015-6.7436,2.316-6.8329-2.4654-0.0675-3.6218,6.7109-7.5839,8.6019-1.7093-0.894-1.1118-1.992-2.0668-3.3147-1.8691,0.9847,0.4056,1.7227,0.9387,1.9007,1.6939z" fill="#000"/>
<path id="path3967" opacity="0.15" stroke-linejoin="round" d="m11.038,7.1662c-5.2954-3.0111-6.6136,6.5494-1.1343,3.6506,0.67379-0.35644-1.465,0.22145-1.8856-0.96378,1.3201,0.068623,2.0827-0.49718,2.2244-1.8692,0.17188,0.28232,0.22691,0.56463,0.57453,0.84697,0.08233-0.331,0.16797-0.662,0.05895-0.993,0.91893,0.50628,0.84784,2.27-0.19317,3.6783-1.4901,2.015-6.7436,2.316-6.8329-2.4654-0.0675-3.6218,6.7109-7.5839,8.6019-1.7093-0.894-1.1118-1.992-2.0668-3.3147-1.8691,0.9847,0.4056,1.7227,0.9387,1.9007,1.6939z" stroke="#000" stroke-linecap="butt" stroke-miterlimit="4" stroke-dasharray="none" stroke-width="1.99999976" fill="#000"/>
<path id="path3977" d="M11.038,6.4815c-5.2957-3.0111-6.614,6.5495-1.1344,3.6505,0.6734-0.3563-1.4651,0.222-1.8856-0.9637,1.32,0.068638,2.0827-0.49718,2.2244-1.8692,0.17188,0.28232,0.2269,0.56463,0.57453,0.84697,0.08233-0.331,0.16797-0.662,0.05895-0.993,0.91892,0.50624,0.84783,2.27-0.19318,3.6783-1.4902,2.016-6.7436,2.316-6.8329-2.465-0.0675-3.6218,6.7109-7.5839,8.6019-1.7093-0.894-1.1118-1.992-2.0668-3.3147-1.8692,0.9847,0.4057,1.7227,0.9388,1.9007,1.694z" fill="url(#radialGradient4031)"/>
</svg>
