<?xml version="1.0" encoding="UTF-8" standalone="no"?>
<svg
   xmlns:dc="http://purl.org/dc/elements/1.1/"
   xmlns:cc="http://creativecommons.org/ns#"
   xmlns:rdf="http://www.w3.org/1999/02/22-rdf-syntax-ns#"
   xmlns:svg="http://www.w3.org/2000/svg"
   xmlns="http://www.w3.org/2000/svg"
   xmlns:xlink="http://www.w3.org/1999/xlink"
   version="1.1"
   id="svg4055"
   height="16"
   width="16">
  <defs
     id="defs4057">
    <linearGradient
       id="linearGradient4634">
      <stop
         id="stop4636"
         offset="0"
         style="stop-color:#ffffff;stop-opacity:1;" />
      <stop
         id="stop4638"
         offset="1"
         style="stop-color:#ffffff;stop-opacity:0;" />
    </linearGradient>
    <linearGradient
       id="linearGradient4516">
      <stop
         id="stop4518"
         offset="0"
         style="stop-color:#ffffff;stop-opacity:1" />
      <stop
         id="stop4520"
         offset="1"
         style="stop-color:#ffffff;stop-opacity:0" />
    </linearGradient>
    <linearGradient
       id="linearGradient4029-0-2-6-1">
      <stop
         style="stop-color:#87accd;stop-opacity:1;"
         offset="0"
         id="stop4506" />
      <stop
         id="stop4508"
         offset="0.28728491"
         style="stop-color:#6b96c1;stop-opacity:1;" />
      <stop
         id="stop4510"
         offset="0.59072286"
         style="stop-color:#477ba9;stop-opacity:1;" />
      <stop
         style="stop-color:#325978;stop-opacity:1;"
         offset="1"
         id="stop4512" />
    </linearGradient>
    <radialGradient
       gradientTransform="matrix(-0.05058733,0.05538265,-0.05598756,-0.05113984,244.5166,215.55773)"
       gradientUnits="userSpaceOnUse"
       r="53.035713"
       fy="37.30619"
       fx="47.917099"
       cy="37.30619"
       cx="47.917099"
       id="radialGradient4058-9-2-8-0-2-9"
       xlink:href="#linearGradient4029-0-2-6-1" />
    <linearGradient
       gradientTransform="translate(534.93805,-352.67062)"
       gradientUnits="userSpaceOnUse"
       y2="112.66688"
       x2="-309.86035"
       y1="112.66688"
       x1="-323.86255"
       id="linearGradient4522"
       xlink:href="#linearGradient4516" />
    <radialGradient
       gradientUnits="userSpaceOnUse"
       r="8"
       fy="0.37499985"
       fx="8"
       cy="5"
       cx="8.0625"
       id="radialGradient4640"
       xlink:href="#linearGradient4634" />
  </defs>
  <metadata
     id="metadata4060">
    <rdf:RDF>
      <cc:Work
         rdf:about="">
        <dc:format>image/svg+xml</dc:format>
        <dc:type
           rdf:resource="http://purl.org/dc/dcmitype/StillImage" />
        <dc:title></dc:title>
      </cc:Work>
    </rdf:RDF>
  </metadata>
  <g
     transform="translate(-232.00327,-210.07646)"
     id="layer1">
    <g
       id="g4534">
      <g
         id="g4524">
        <ellipse
           id="path3094-9-1-9-7-8-0-2"
           style="color:#000000;display:inline;overflow:visible;visibility:visible;fill:url(#radialGradient4058-9-2-8-0-2-9);fill-opacity:1;fill-rule:nonzero;stroke:none;stroke-width:1.00000036;stroke-miterlimit:4;stroke-dasharray:none;stroke-opacity:1;marker:none;enable-background:accumulate"
           cx="240.00389"
           cy="218.07646"
           rx="2"
           ry="1.9999992" />
        <path
           id="path4226-0"
           d="m 237.40583,219.57646 a 3,3 0 0 1 1.09807,-4.09808 3,3 0 0 1 1.4995,-0.39889 l 6.9e-4,-0.003 7.41066,-3e-4 a 8,8 0 0 0 -3.41125,-3.928 8,8 0 0 0 -7.9996,-2.3e-4 8,8 0 0 0 -2.30315,2.01082 l 3.70508,6.41738 z"
           style="opacity:1;fill:#dc242a;fill-opacity:1;stroke:none;stroke-width:1;stroke-linecap:square;stroke-linejoin:miter;stroke-miterlimit:4;stroke-dasharray:none;stroke-opacity:1" />
        <g
           transform="translate(-15.99937,0)"
           id="g4362">
          <path
             style="opacity:1;fill:#eed025;fill-opacity:1;stroke:none;stroke-width:1;stroke-linecap:square;stroke-linejoin:miter;stroke-miterlimit:4;stroke-dasharray:none;stroke-opacity:1"
             d="m 24,5 a 3,3 0 0 1 3,3 3,3 0 0 1 -0.404297,1.4980469 l 0.002,0.00195 -3.705078,6.417969 A 8,8 0 0 0 28,14.927734 8,8 0 0 0 32,8 8,8 0 0 0 31.410156,5 L 24,5 Z"
             transform="translate(232.00327,210.07646)"
             id="path4226" />
        </g>
        <path
           id="path4226-0-4"
           d="m 242.60217,219.57637 a 3.0002665,3.0002579 0 0 1 -4.09843,1.09817 3.0002665,3.0002579 0 0 1 -1.09529,-1.09925 l -0.003,7.5e-4 -3.70592,-6.41824 a 8.0007107,8.0006878 60 0 0 -1.69626,4.91866 8.0007107,8.0006878 60 0 0 3.99995,6.92858 8.0007107,8.0006878 60 0 0 2.89325,0.98928 l 3.70539,-6.41795 z"
           style="opacity:1;fill:#32b53b;fill-opacity:1;stroke:none;stroke-width:1;stroke-linecap:square;stroke-linejoin:miter;stroke-miterlimit:4;stroke-dasharray:none;stroke-opacity:1" />
        <circle
           transform="matrix(-0.5,-0.8660254,0.8660254,-0.5,0,0)"
           r="7.5011334"
           cy="98.811295"
           cx="-308.86169"
           id="path4360-6"
           style="opacity:0.2;fill:none;fill-opacity:1;stroke:#000000;stroke-width:0.99999994;stroke-linecap:square;stroke-linejoin:miter;stroke-miterlimit:4;stroke-dasharray:none;stroke-opacity:1" />
        <circle
           transform="matrix(-0.50000001,-0.8660254,0.86602541,-0.49999999,0,0)"
           r="3.5017662"
           cy="98.811241"
           cx="-308.86169"
           id="path4360-6-4"
           style="opacity:0.2;fill:none;fill-opacity:1;stroke:#000000;stroke-width:0.99999994;stroke-linecap:square;stroke-linejoin:miter;stroke-miterlimit:4;stroke-dasharray:none;stroke-opacity:1" />
        <circle
           transform="matrix(0,1,-1,0,0,0)"
           r="6.5011001"
           cy="-240.00374"
           cx="218.07661"
           id="path4360-6-43"
           style="opacity:0.3;fill:none;fill-opacity:1;stroke:url(#linearGradient4522);stroke-width:0.99999988;stroke-linecap:square;stroke-linejoin:miter;stroke-miterlimit:4;stroke-dasharray:none;stroke-opacity:1" />
      </g>
    </g>
    <path
       transform="translate(232.00327,210.07646)"
       id="path4607"
       d="M 8 0 A 8 8 0 0 0 0 8 A 8 8 0 0 0 8 16 A 8 8 0 0 0 16 8 A 8 8 0 0 0 8 0 z M 8 5 A 3 3 0 0 1 11 8 A 3 3 0 0 1 8 11 A 3 3 0 0 1 5 8 A 3 3 0 0 1 8 5 z "
       style="opacity:0.2;fill:url(#radialGradient4640);fill-opacity:1;stroke:none;stroke-width:1;stroke-linecap:square;stroke-linejoin:miter;stroke-miterlimit:4;stroke-dasharray:none;stroke-opacity:0" />
  </g>
</svg>
