<?xml version="1.0" encoding="UTF-8" standalone="no"?>
<svg xmlns:rdf="http://www.w3.org/1999/02/22-rdf-syntax-ns#" xmlns="http://www.w3.org/2000/svg" height="16" width="16" version="1.1" xmlns:cc="http://creativecommons.org/ns#" xmlns:xlink="http://www.w3.org/1999/xlink" xmlns:dc="http://purl.org/dc/elements/1.1/">
<defs>
<linearGradient id="c" y2="43" gradientUnits="userSpaceOnUse" x2="24" gradientTransform="matrix(.29730 0 0 .29730 .86487 .86487)" y1="5" x1="24">
<stop stop-color="#fff" offset="0"/>
<stop stop-color="#fff" stop-opacity=".23529" offset=".063165"/>
<stop stop-color="#fff" stop-opacity=".15686" offset=".95056"/>
<stop stop-color="#fff" stop-opacity=".39216" offset="1"/>
</linearGradient>
<radialGradient id="a" gradientUnits="userSpaceOnUse" cy="8.4498" cx="7.4957" gradientTransform="matrix(0 0.779 -.82409 -1.4352e-8 14.963 -4.1449)" r="20">
<stop stop-color="#73baff" offset="0"/>
<stop stop-color="#5aa7f3" offset=".26238"/>
<stop stop-color="#1977d4" offset=".70495"/>
<stop stop-color="#0065c8" offset="1"/>
</radialGradient>
<linearGradient id="b" y2="3.899" gradientUnits="userSpaceOnUse" x2="24" gradientTransform="matrix(.33333 0 0 .33333 1.5e-7 -.00000292)" y1="44" x1="24">
<stop stop-color="#00478b" offset="0"/>
<stop stop-color="#0065c8" offset="1"/>
</linearGradient>
<linearGradient id="d" y2="12" gradientUnits="userSpaceOnUse" x2="8" y1="3" x1="8">
<stop stop-color="#fff" offset="0"/>
<stop stop-color="#c4e0fa" offset="1"/>
</linearGradient>
</defs>
<rect stroke-linejoin="round" height="13" stroke="url(#b)" stroke-linecap="round" fill="url(#a)" style="color:#000000" rx="1" ry="1" width="13" y="1.5" x="1.5"/>
<rect opacity=".5" stroke-linejoin="round" height="11" width="11" stroke="url(#c)" stroke-linecap="round" y="2.5" x="2.5" fill="none"/>
<g>
<path opacity=".05" stroke-linejoin="round" d="m10 4c-2.7555 0-5 2.2445-5 5 0 0.3424 0.0356 0.6767 0.1016 1h1.039c-0.0827-0.3212-0.1406-0.6524-0.1406-1 0-2.2151 1.7849-4 4-4 0.34762 0 0.6788 0.05794 1 0.14062v-1.039c-0.323-0.066-0.658-0.1016-1-0.1016zm0 2c-1.6509 0-3 1.3491-3 3 0 0.3517 0.0712 0.6858 0.1836 1h1.0918c-0.1703-0.2947-0.2754-0.6329-0.2754-1 0-1.1105 0.8895-2 2-2 0.36714 0 0.70533 0.1051 1 0.27539v-1.0918c-0.314-0.1124-0.648-0.1836-1-0.1836zm0 2a1 1 0 0 0 -1 1 1 1 0 0 0 1 1 1 1 0 0 0 1 -1 1 1 0 0 0 -1 -1zm-0.75 3c-0.1385 0-0.25 0.112-0.25 0.25v1.5c0 0.138 0.1115 0.25 0.25 0.25h1.5c0.138 0 0.25-0.112 0.25-0.25v-1.5c0-0.138-0.112-0.25-0.25-0.25h-1.5z" stroke="#000" stroke-width="2"/>
<path opacity=".15" d="m10 4c-2.7555 0-5 2.2445-5 5 0 0.3424 0.0356 0.6767 0.1016 1h1.039c-0.0827-0.3212-0.1406-0.6524-0.1406-1 0-2.2151 1.7849-4 4-4 0.34762 0 0.6788 0.05794 1 0.14062v-1.039c-0.323-0.066-0.658-0.1016-1-0.1016zm0 2c-1.6509 0-3 1.3491-3 3 0 0.3517 0.0712 0.6858 0.1836 1h1.0918c-0.1703-0.2947-0.2754-0.6329-0.2754-1 0-1.1105 0.8895-2 2-2 0.36714 0 0.70533 0.1051 1 0.27539v-1.0918c-0.314-0.1124-0.648-0.1836-1-0.1836zm0 2a1 1 0 0 0 -1 1 1 1 0 0 0 1 1 1 1 0 0 0 1 -1 1 1 0 0 0 -1 -1zm-0.75 3c-0.1385 0-0.25 0.112-0.25 0.25v1.5c0 0.138 0.1115 0.25 0.25 0.25h1.5c0.138 0 0.25-0.112 0.25-0.25v-1.5c0-0.138-0.112-0.25-0.25-0.25h-1.5z"/>
<path d="m10 3c-2.7555 0-5 2.2445-5 5 0 0.3424 0.0356 0.6767 0.1016 1h1.039c-0.0827-0.3212-0.1406-0.6524-0.1406-1 0-2.2151 1.7849-4 4-4 0.348 0 0.679 0.0579 1 0.1406v-1.039c-0.323-0.066-0.658-0.1016-1-0.1016zm0 2c-1.6509 0-3 1.3491-3 3 0 0.3517 0.0712 0.6858 0.1836 1h1.0918c-0.1703-0.2947-0.2754-0.6329-0.2754-1 0-1.1105 0.8895-2 2-2 0.367 0 0.705 0.1051 1 0.2754v-1.0918c-0.314-0.1124-0.648-0.1836-1-0.1836zm0 2a1 1 0 0 0 -1 1 1 1 0 0 0 1 1 1 1 0 0 0 1 -1 1 1 0 0 0 -1 -1zm-0.75 3c-0.1385 0-0.25 0.112-0.25 0.25v1.5c0 0.138 0.1115 0.25 0.25 0.25h1.5c0.138 0 0.25-0.112 0.25-0.25v-1.5c0-0.138-0.112-0.25-0.25-0.25h-1.5z" fill="url(#d)"/>
</g>
</svg>
