<?xml version="1.0" encoding="UTF-8" standalone="no"?>
<svg
   xmlns:dc="http://purl.org/dc/elements/1.1/"
   xmlns:cc="http://creativecommons.org/ns#"
   xmlns:rdf="http://www.w3.org/1999/02/22-rdf-syntax-ns#"
   xmlns:svg="http://www.w3.org/2000/svg"
   xmlns="http://www.w3.org/2000/svg"
   xmlns:sodipodi="http://sodipodi.sourceforge.net/DTD/sodipodi-0.dtd"
   xmlns:inkscape="http://www.inkscape.org/namespaces/inkscape"
   height="16"
   width="16"
   version="1.1"
   viewBox="0 0 16 16"
   id="svg2"
   inkscape:version="0.92.1 r15371"
   sodipodi:docname="keepassxc-dark.svg">
  <metadata
     id="metadata12">
    <rdf:RDF>
      <cc:Work
         rdf:about="">
        <dc:format>image/svg+xml</dc:format>
        <dc:type
           rdf:resource="http://purl.org/dc/dcmitype/StillImage" />
        <dc:title></dc:title>
      </cc:Work>
    </rdf:RDF>
  </metadata>
  <defs
     id="defs10" />
  <sodipodi:namedview
     pagecolor="#ffffff"
     bordercolor="#666666"
     borderopacity="1"
     objecttolerance="10"
     gridtolerance="10"
     guidetolerance="10"
     inkscape:pageopacity="0"
     inkscape:pageshadow="2"
     inkscape:window-width="1920"
     inkscape:window-height="979"
     id="namedview8"
     showgrid="false"
     inkscape:zoom="9.8333333"
     inkscape:cx="-28.067797"
     inkscape:cy="12"
     inkscape:window-x="0"
     inkscape:window-y="0"
     inkscape:window-maximized="1"
     inkscape:current-layer="svg2" />
  <path
     style="fill:#4c4c4c;fill-opacity:1"
     inkscape:connector-curvature="0"
     id="path6"
     d="m 11.428,0 a 4.5,4.5 0 0 0 -4.5,4.5 4.5,4.5 0 0 0 0.45312,1.9531 l -0.881,0.8 -2.1211,2.2 -4.3789,4.3 v 2.1211 h 1 1.123 1.877 v -1.877 l 0.12305,-0.123 h 1.877 v -1.877 l 0.12305,-0.123 h 1.877 v -1.166 -0.707 l 1.5117,-1.5117 a 4.5,4.5 0 0 0 1.916,0.4336 4.5,4.5 0 0 0 4.5,-4.5 4.5,4.5 0 0 0 -4.5,-4.5 z M 12,2 A 2,2 0 0 1 14,4 2,2 0 0 1 12,6 2,2 0 0 1 10,4 2,2 0 0 1 12,2 Z M 0,3 V 5.123 L 3.6719,8.793 5.793,6.6719 2.1211,3 Z M 9.332,10.2109 8.99997,10.541 V 12 13 h -1.123 l 3,3 h 2.123 v -2.1211 l -3.668,-3.668 z" />
</svg>
