<?xml version="1.0" encoding="UTF-8" standalone="no"?>
<svg xmlns:rdf="http://www.w3.org/1999/02/22-rdf-syntax-ns#" xmlns="http://www.w3.org/2000/svg" height="16" width="16" version="1.1" xmlns:cc="http://creativecommons.org/ns#" xmlns:xlink="http://www.w3.org/1999/xlink" xmlns:dc="http://purl.org/dc/elements/1.1/">
 <defs>
  <radialGradient id="a" gradientUnits="userSpaceOnUse" cy="-8.7256" cx="61.24" gradientTransform="matrix(0 3.5234 -3.5234 0 -6.744 -205.8)" r="9.7553">
   <stop stop-color="#51cfee" offset="0"/>
   <stop stop-color="#49a3d2" offset=".26238"/>
   <stop stop-color="#3470b4" offset=".70495"/>
   <stop stop-color="#273567" offset="1"/>
  </radialGradient>
  <linearGradient id="c" y2="2.6887" gradientUnits="userSpaceOnUse" x2="20" gradientTransform="matrix(.98001 0 0 .97999 .089940 .87036)" y1="43" x1="20">
   <stop stop-color="#254b6d" offset="0"/>
   <stop stop-color="#415b73" offset=".5"/>
   <stop stop-color="#6195b5" offset="1"/>
  </linearGradient>
  <linearGradient id="b" y2="-1.4615" gradientUnits="userSpaceOnUse" x2="62.2" gradientTransform="matrix(1.907 0 0 1.9069 -94.615 30.695)" y1="-12.489" x1="62.2">
   <stop stop-color="#fff" offset="0"/>
   <stop stop-color="#fff" stop-opacity="0" offset="1"/>
  </linearGradient>
  <linearGradient id="d" y2="47.533" gradientUnits="userSpaceOnUse" x2="157.8" y1="20.111" x1="157.8">
   <stop stop-color="#fff" offset="0"/>
   <stop stop-color="#fff" stop-opacity="0" offset="1"/>
  </linearGradient>
  <linearGradient id="f" y2="19.244" gradientUnits="userSpaceOnUse" x2="158.91" gradientTransform="matrix(.38462 0 0 .44302 87.802 55.518)" y1="48.432" x1="158.91">
   <stop stop-color="#8c8c8c" offset="0"/>
   <stop stop-color="#969696" offset=".031177"/>
   <stop stop-color="#a0a0a0" offset=".074123"/>
   <stop stop-color="#dcdcdc" offset=".15525"/>
   <stop stop-color="#e1e1e1" offset=".5"/>
   <stop stop-color="#e6e6e6" offset="1"/>
  </linearGradient>
  <linearGradient id="e" y2="12.644" gradientUnits="userSpaceOnUse" x2="153.68" gradientTransform="matrix(.34884 0 0 .36111 93.455 59.491)" y1="48.531" x1="153.68">
   <stop stop-color="#646464" offset="0"/>
   <stop stop-color="#b4b4b4" offset="1"/>
  </linearGradient>
 </defs>
 <g transform="translate(-140.57 -61.505)">
  <path stroke-linejoin="round" style="color:#000000" d="m141.07 64.005v11.269c0 0.95452 0.66171 1.7306 1.4904 1.7306h12.019c0.82868 0 1.4904-0.77604 1.4904-1.7306v-11.269h-15z" stroke="url(#e)" stroke-linecap="round" fill="url(#f)"/>
  <path stroke-linejoin="round" style="color:#000000" d="m139.47 20.125v24.469c0 1.637 1.2787 2.9375 2.9062 2.9375h31.25c1.6276 0 2.9062-1.3005 2.9062-2.9375v-24.469h-37.062z" transform="matrix(.35076 0 0 .42457 93.152 56.461)" stroke="url(#d)" stroke-linecap="round" stroke-width="2.5913" fill="none"/>
  <g style="enable-background:new" transform="scale(1.0247 .97591)" fill="#3c3c3c">
   <path style="" d="m143.72 67.431c-0.0847 0.04375-0.16131 0.06562-0.22965 0.06562-0.10937 0.000002-0.22693-0.04921-0.35269-0.14764l-0.45111 0.43061 0.0984 0.09842 0.0779-0.06562c0.0574 0.05468 0.15447 0.08202 0.29117 0.08202h0.0205l0.008-0.0041h0.008l0.004 0.47982h-0.008l-0.0328 0.0082h-0.0164c-0.0164 0.0082-0.0574 0.0123-0.12303 0.0123-0.003 0.0027-0.0178 0.0041-0.0451 0.0041-0.1039 0.000001-0.17635-0.01367-0.21736-0.04101-0.0711-0.1285-0.1285-0.23239-0.17224-0.31168-0.041-0.08202-0.0766-0.15037-0.10663-0.20505-0.11209-0.16404-0.20231-0.2775-0.27066-0.34038-0.1039-0.09569-0.22966-0.14353-0.3773-0.14354-0.15037 0.000003-0.27613 0.05878-0.37729 0.17634-0.10389 0.1121-0.15584 0.24196-0.15584 0.3896 0 0.10663 0.0287 0.16541 0.0861 0.17634l-0.008-0.0082h0.0287c0.008-0.09295 0.0697-0.16814 0.18454-0.22556 0.005-0.0055 0.0123-0.0082 0.0205-0.0082 0.0109 0.000002 0.0205-0.0014 0.0287-0.0041 0.0191-0.0055 0.0383-0.0096 0.0574-0.0123 0.0219-0.0055 0.0396-0.01367 0.0533-0.02461h0.008v0.67257c-0.0492 0.0055-0.0889 0.01094-0.11893 0.0164-0.0301 0.0055-0.0506 0.0096-0.0615 0.0123-0.1203 0.04921-0.18044 0.15721-0.18044 0.32398 0 0.07655 0.0246 0.14354 0.0738 0.20095s0.10936 0.08612 0.18045 0.08612v-0.02871-0.0164l-0.004-0.0041c0-0.02187 0.005-0.04374 0.0164-0.06562 0.0137-0.0246 0.0301-0.03691 0.0492-0.03691h0.008c0.008 0.0055 0.015 0.0096 0.0205 0.0123 0.005 0.000001 0.0109 0.0014 0.0164 0.0041v0.54954c-0.27067 0.08202-0.44565 0.26793-0.52493 0.55774 0.0164-0.0055 0.0355-0.01367 0.0574-0.02461 0.0246-0.0082 0.0369-0.0123 0.0369-0.0123 0.0109-0.0055 0.0246-0.01367 0.041-0.02461v0.0041c0.11483-0.05468 0.23376-0.08202 0.35679-0.08202 0.16677 0 0.34585 0.06015 0.53723 0.18044l0.32808-0.43061-0.0902-0.09022-0.0492 0.06562c-0.0793-0.05468-0.15994-0.09569-0.24196-0.12303-0.082-0.03007-0.16815-0.04511-0.25837-0.04511h-0.0246l-0.008 0.0041h-0.004v-0.3937c0.0656-0.04374 0.17088-0.06562 0.31578-0.06562 0.10936 0.000001 0.23513 0.03007 0.3773 0.09022 0.0137 0.03007 0.0273 0.06015 0.041 0.09022 0.0137 0.02734 0.0273 0.05331 0.041 0.07792 0.0547 0.10663 0.0957 0.19138 0.12303 0.25426 0.0301 0.06015 0.0588 0.11073 0.0861 0.15174h-0.004c0.1531 0.27614 0.29664 0.4142 0.4306 0.4142h0.0246v-2.272c0.008-0.0027 0.0178-0.0055 0.0287-0.0082 0.0137-0.0055 0.0287-0.01367 0.0451-0.02461v0.0041c0.0738-0.03827 0.14216-0.09022 0.20505-0.15584 0.041-0.04101 0.0711-0.08065 0.0902-0.11893 0.0191-0.03827 0.0301-0.07655 0.0328-0.11483l-0.0246-0.01641m-1.4764 1.4764c-0.0848 0.000001-0.19685 0.01914-0.33629 0.05741v-1.0991c0.0629 0.03008 0.13944 0.12713 0.22966 0.29117 0.0437 0.08749 0.10526 0.21872 0.18455 0.3937 0.0465 0.10116 0.0847 0.18455 0.11483 0.25016 0.0301 0.06288 0.0533 0.11073 0.0697 0.14354-0.0875-0.02461-0.17498-0.03691-0.26246-0.03691m0.67667-0.15994c-0.0246-0.05468-0.0451-0.09979-0.0615-0.13533s-0.0287-0.06288-0.0369-0.08202c0.0328 0.01094 0.0684 0.01641 0.10663 0.0164h0.11072c0.0328 0.000002 0.0615-0.0014 0.0861-0.0041 0.0273-0.0027 0.0492-0.0082 0.0656-0.0164l0.004 0.73408c-0.041-0.06015-0.0848-0.13123-0.13123-0.21325-0.0437-0.08475-0.0916-0.18454-0.14353-0.29937"/>
   <path style="" d="m145.14 68.883c-0.0273-0.03827-0.0574-0.08339-0.0902-0.13533-0.0301-0.05468-0.0629-0.11346-0.0984-0.17634-0.0383-0.07108-0.0684-0.13533-0.0902-0.19275-0.0219-0.05741-0.0396-0.11073-0.0533-0.15994-0.27067 0.18045-0.51399 0.27067-0.72998 0.27067h-0.0164l-0.0123-0.0041h-0.0123l-0.004-0.0041h-0.0246l-0.0369-0.03691v0.05741c0.0437 0.09569 0.0656 0.16404 0.0656 0.20505v0.99245c-0.0547 0.04101-0.0916 0.07382-0.11073 0.09842-0.003 0.0027-0.0109 0.01367-0.0246 0.03281-0.0109 0.01914-0.026 0.04374-0.0451 0.07382v-0.0041c-0.005 0.0055-0.0109 0.01367-0.0164 0.02461-0.005 0.0082-0.0109 0.01914-0.0164 0.03281 0.0328-0.0055 0.0656-0.0096 0.0984-0.0123 0.0328-0.0055 0.0656-0.0082 0.0984-0.0082 0.0875 0 0.19138 0.0123 0.31167 0.03691 0.0711 0.01367 0.13397 0.03281 0.18865 0.05742 0.0547 0.02734 0.11073 0.05605 0.16814 0.08612l0.041 0.0205 0.37319-0.4101-0.10252-0.09432-0.0984 0.10252c-0.0629-0.03007-0.13123-0.05605-0.20505-0.07792-0.0711-0.02187-0.149-0.03964-0.23375-0.05331v-0.30758c0.0301-0.02187 0.0574-0.03964 0.082-0.05331 0.16677-0.09842 0.298-0.17498 0.39369-0.22966 0.0984-0.05741 0.16404-0.09432 0.19685-0.11073l0.004-0.0205m-0.54543-0.07792c0.0191 0.04101 0.0355 0.07519 0.0492 0.10253 0.0164 0.02461 0.0301 0.04511 0.041 0.06151l-0.22145 0.14354v-0.52493l0.0328-0.0082c0.0137 0.03828 0.0287 0.07655 0.0451 0.11483s0.0342 0.07519 0.0533 0.11073"/>
   <path style="" d="m147.63 68.46c-0.0137 0.0055-0.0232 0.01094-0.0287 0.0164-0.0109 0.0027-0.0191 0.0041-0.0246 0.0041-0.005 0.000001-0.0109 0.0014-0.0164 0.0041v0.0041h-0.004c-0.005 0.0027-0.0109 0.0041-0.0164 0.0041-0.0246 0.000001-0.0383-0.0014-0.041-0.0041-0.0875-0.0082-0.16541-0.08339-0.23376-0.22556l-0.45111 0.33218 0.0615 0.09842 0.0492-0.0205c0.0437 0.05195 0.0847 0.08339 0.12303 0.09432v0.99245c0 0.05195-0.0246 0.07792-0.0738 0.07792h-0.0451-0.008v-0.0041c-0.0109-0.0055-0.0232-0.0096-0.0369-0.0123-0.0137-0.0055-0.0246-0.01094-0.0328-0.0164-0.0902-0.04374-0.13533-0.11346-0.13533-0.20915v-1.0704c-0.005-0.02187-0.01-0.03691-0.0123-0.04511-0.005-0.0082-0.01-0.0164-0.0123-0.02461 0-0.0082-0.001-0.01504-0.004-0.0205-0.0301-0.07655-0.10116-0.14353-0.21325-0.20095l-0.41831 0.36089v0.03281c0.0492 0.000001 0.0971 0.01641 0.14354 0.04921 0.0465 0.03007 0.0697 0.06425 0.0697 0.10252v0.91453c-0.0164 0.01094-0.0342 0.01914-0.0533 0.02461-0.003 0.0027-0.007 0.0055-0.0123 0.0082-0.003 0.0027-0.005 0.0055-0.008 0.0082l-0.0164 0.0164c-0.0164-0.01367-0.0369-0.02734-0.0615-0.04101s-0.052-0.02734-0.082-0.04101c-0.0137-0.0055-0.0219-0.0082-0.0246-0.0082-0.003-0.0027-0.0109-0.0068-0.0246-0.0123-0.0301 0-0.052-0.0055-0.0656-0.0164v-1.0171c0-0.08475-0.0273-0.16131-0.082-0.22966s-0.12303-0.11756-0.20505-0.14764l-0.4142 0.4142 0.0328 0.0205h0.0123l0.008 0.0041h0.0328l0.0123 0.0041h0.008c0.0574 0.000001 0.10663 0.04101 0.14764 0.12303v0.88582h-0.004l-0.004 0.0082c-0.0848 0.06288-0.14081 0.14217-0.16815 0.23786 0.0137-0.0055 0.0273-0.0096 0.041-0.0123 0.0164-0.0027 0.0301-0.0041 0.041-0.0041l0.008-0.0041h0.008c0.0848 0 0.16541 0.01914 0.24196 0.05741 0.0765 0.03828 0.15447 0.09296 0.23376 0.16404 0.041-0.03007 0.0765-0.05605 0.10662-0.07792 0.0301-0.02187 0.0506-0.03691 0.0615-0.04511v0.0041c0.0164-0.01094 0.0273-0.01777 0.0328-0.02051l0.008-0.0041 0.008-0.0082c0.003-0.0027 0.015-0.0082 0.0369-0.0164 0.0492-0.02734 0.10799-0.06288 0.17634-0.10663 0.0465 0.07382 0.108 0.1367 0.18455 0.18865 0.0793 0.05468 0.15994 0.08475 0.24196 0.09022 0.0355-0.0164 0.0643-0.03144 0.0861-0.04511 0.0246-0.01094 0.0451-0.01914 0.0615-0.02461 0.19684-0.09022 0.39369-0.13533 0.59054-0.13533h0.008c0.008 0.0027 0.0369 0.0041 0.0861 0.0041-0.0301-0.04374-0.0451-0.06698-0.0451-0.06972-0.0274-0.03828-0.041-0.07792-0.041-0.11893v-0.99655c0.10663-0.06288 0.16541-0.15584 0.17635-0.27887l-0.0205-0.0164"/>
   <path style="" d="m149.27 68.28-0.11072 0.0082c-0.0492 0.07929-0.11347 0.11893-0.19275 0.11893-0.0766 0.000001-0.15858-0.05058-0.24606-0.15174-0.0984 0.09843-0.15311 0.15037-0.16404 0.15584-0.11757 0.06288-0.23923 0.09432-0.36499 0.09432-0.0246 0.000002-0.0383-0.0014-0.041-0.0041-0.0766 0.000002-0.1244-0.0055-0.14354-0.0164-0.0301 0.000001-0.0588-0.0123-0.0861-0.03691v0.03691c0 0.01094 0.003 0.01914 0.008 0.02461v0.0041l0.0123 0.02871c0 0.01094 0.001 0.01777 0.004 0.0205v-0.0041 0.0082c0.003 0.000002 0.004 0.0014 0.004 0.0041l0.004 0.71358-0.004 0.0082c0 0.03554-0.0123 0.06972-0.0369 0.10253l0.004-0.0123-0.0287 0.02871 0.27067 0.0123c-0.0164 0.01641-0.0314 0.03144-0.0451 0.04511-0.0109 0.01367-0.0205 0.02461-0.0287 0.03281l-0.0164 0.0164c-0.093 0.11483-0.16678 0.22282-0.22146 0.32398-0.0547 0.09842-0.093 0.19548-0.11483 0.29117h0.11893c0.0492-0.1203 0.1367-0.18044 0.26247-0.18044 0.0301 0 0.0533 0.0041 0.0697 0.0123 0.0246 0 0.0465 0.0041 0.0656 0.0123 0.0191 0.01094 0.0396 0.02597 0.0615 0.04511l0.11893 0.11893c0.13396-0.14217 0.30484-0.21325 0.51262-0.21325h0.0246c0.008 0.0027 0.0328 0.0041 0.0738 0.0041 0.0137 0.0082 0.0314 0.01367 0.0533 0.0164h0.082c0.005 0 0.01 0.0014 0.0123 0.0041h-0.004c0.005 0.0027 0.0232 0.0041 0.0533 0.0041l-0.0164-0.03281c-0.008-0.01367-0.0164-0.02734-0.0246-0.04101-0.008-0.01367-0.01-0.01777-0.004-0.0123l0.004 0.0082c-0.003-0.01367-0.004-0.0205-0.004-0.0205 0-0.0027-0.001-0.0055-0.004-0.0082v0.0041l-0.004-0.0082v-0.0123c-0.003-0.0027-0.004-0.0068-0.004-0.0123v-0.69717c0 0.0027 0.001-0.0014 0.004-0.0123 0.003-0.01367 0.005-0.02461 0.008-0.03281v0.0041-0.0082c0.003-0.0027 0.004-0.0068 0.004-0.0123l0.004-0.0082v-0.0082l0.008-0.0082v-0.0082l0.004-0.0041c0-0.0082 0.001-0.01504 0.004-0.0205v-0.0164c0.003-0.0082 0.004-0.01367 0.004-0.0164l-0.38549 0.0082c0.22965-0.23512 0.38002-0.46205 0.45111-0.68077l-0.0164-0.0205m-0.51672 1.5133h-0.0164c-0.0137 0.0055-0.0246 0.0096-0.0328 0.0123h-0.008l-0.0164 0.0082c-0.10116-0.12576-0.22283-0.18865-0.36499-0.18865-0.0137 0-0.0328 0.0027-0.0574 0.0082-0.0246 0.0027-0.0533 0.0068-0.0861 0.0123 0.0355-0.03554 0.0656-0.06698 0.0902-0.09432 0.0246-0.03007 0.0465-0.05468 0.0656-0.07382l0.21325-0.21325h0.20915l0.008 0.0082v0.51673l-0.004 0.0041m-0.0656-0.87352c-0.0629 0.06288-0.11483 0.11346-0.15584 0.15174-0.0383 0.03828-0.0683 0.06425-0.0902 0.07792h-0.0451v-0.51673c0.0137 0.000001 0.0287-0.0041 0.0451-0.0123h0.0164c0.003-0.0027 0.008-0.0055 0.0164-0.0082 0.10115 0.07929 0.19138 0.11893 0.27066 0.11893 0.052 0.000001 0.10116-0.0096 0.14764-0.02871-0.0437 0.04648-0.1121 0.11893-0.20505 0.21735"/>
  </g>
  <path style="enable-background:new" d="m143.08 69.997h10.984" stroke="#646464" stroke-linecap="square" fill="none"/>
  <path style="enable-background:new" d="m143 72.894h2.7522" stroke="#787878" stroke-linecap="square" fill="none"/>
  <path style="enable-background:new" d="m143 74.264h2.7522" stroke="#787878" stroke-linecap="square" fill="none"/>
  <path style="enable-background:new" d="m143 75.635h2.7522" stroke="#787878" stroke-linecap="square" fill="none"/>
  <path style="enable-background:new" d="m151.97 72.005h2.1948" stroke="#787878" stroke-linecap="square" fill="none"/>
  <g style="enable-background:new" transform="matrix(.14994 0 0 .14930 140.44 70.466)">
   <path d="m43.5 23.999c0 10.77-8.731 19.501-19.5 19.501s-19.5-8.731-19.5-19.501c0-10.769 8.731-19.499 19.5-19.499s19.5 8.7299 19.5 19.499z" stroke="url(#c)" stroke-width="6.6835" fill="url(#a)"/>
   <path opacity=".4" d="m24.33 5.2182-2.3623 0.27046-2.5986 0.70995c0.22135-0.077615 0.4456-0.16234 0.67496-0.23665l-0.304-0.541-1.012 0.1691-0.507 0.4733-0.776 0.1014-0.709 0.3381-0.337 0.169-0.101 0.1352-0.507 0.1014-0.303 0.6424-0.405-0.8114-0.13499 0.33807 0.0675 0.91279-0.64121 0.54091-0.37122 0.98041h0.7762l0.30373-0.64234 0.10124-0.23665c0.34129-0.24178 0.66483-0.51103 1.0124-0.74376l0.80995 0.27046c0.52734 0.3589 1.0584 0.72347 1.5861 1.0818l0.777-0.7099-0.878-0.3719-0.405-0.8114-1.485-0.169-0.033-0.169 0.641 0.1352 0.371-0.3719 0.81-0.169c0.192-0.0934 0.38-0.1607 0.574-0.2367l-0.50622 0.4733 1.8224 1.2509v0.74376l-0.7087 0.70995 0.94494 1.8932 0.64121-0.37188 0.80995-1.2509c1.1387-0.35268 2.165-0.76307 3.2398-1.2509l-0.0675 0.4733 0.53996 0.37188 0.94494-0.64233-0.47247-0.54091-0.64121 0.37188-0.20249-0.067613c0.04651-0.02129 0.08828-0.045973 0.13499-0.067613l0.944-2.4341-2.058-0.8114zm-9.2469 3.6512 0.7762 0.54091h0.64121v-0.64233l-0.776-0.3381-0.641 0.4394zm17.92-0.4395-1.384 0.338-0.877 0.5747v0.50711l-1.3837 0.87898 0.26998 1.3185 0.80995-0.57472 0.50622 0.57472 0.57371 0.33807 0.37122-0.98041-0.20249-0.57472 0.20249-0.40569 0.80995-0.74375h0.37122l-0.37122 0.81137v0.74375c0.33384-0.09103 0.6708-0.12648 1.0124-0.16904l-0.94494 0.67614-0.0675 0.40568-1.0799 0.91279-1.1137-0.27046v-0.64234l-0.50622 0.33807 0.23624 0.57472h-0.80995l-0.43872 0.74376-0.53996 0.60853-0.97868 0.20284 0.57371 0.57472 0.13499 0.57472h-0.7087l-0.94494 0.50711v1.4875h0.43872l0.40497 0.43949 0.91119-0.43949 0.33748-0.91279 0.67496-0.40568 0.13499-0.33807 1.0799-0.27046 0.60746 0.67614 0.64121 0.33807-0.37123 0.74376 0.57372-0.16904 0.30373-0.74376-0.74245-0.84518h0.30373l0.74245 0.60853 0.13499 0.81137 0.64121 0.74376 0.16874-1.0818 0.33748-0.16904c0.35922 0.37357 0.64238 0.83043 0.94494 1.2509l1.1137 0.06762 0.64121 0.40569-0.30373 0.43949-0.64121 0.57472h-0.94494l-1.2487-0.40568-0.64121 0.06762-0.47247 0.54092-1.3499-1.3523-0.94494-0.27046-1.3837 0.16904-1.2149 0.33807c-0.69306 0.7871-1.4026 1.5829-2.0586 2.4003l-0.7762 1.8932 0.37123 0.40569-0.67496 0.98041 0.74245 1.7242c0.6178 0.70009 1.2392 1.3955 1.8561 2.096l0.91119-0.77756 0.37123 0.4733 0.97869-0.64234 0.33748 0.37188h0.97868l0.57371 0.64234-0.33748 1.1494 0.67496 0.77756-0.03375 1.3523 0.50622 0.98041-0.37122 0.84518c-0.03619 0.60617-0.0675 1.1855-0.0675 1.7918 0.29776 0.82134 0.59628 1.6407 0.87744 2.4679l0.20249 1.3185v0.67614h0.53996l0.7762-0.50711h0.94494l1.4174-1.5889-0.16874-0.54092 0.94494-0.84518-0.7087-0.77756 0.84369-0.67614 0.80995-0.50711 0.37122-0.40568-0.23623-0.91279c0-0.76848 0.000002-1.5303 0-2.2989l0.64121-1.4199 0.80994-0.87898 0.87744-2.1637v-0.57472c-0.43664 0.0551-0.85517 0.10478-1.2824 0.13523l0.87744-0.87899 1.2149-0.81137 0.64121-0.74376v-0.81137c-0.146-0.274-0.293-0.57-0.439-0.844l-0.57371 0.67614-0.43872-0.5071-0.64121-0.50711v-1.048l0.74245 0.84518 0.8437-0.10142c0.38062 0.34614 0.74609 0.65392 1.0799 1.048l0.53998-0.60854c0-0.65513-0.73657-3.8893-2.3286-6.6262-1.592-2.736-4.3872-5.2401-4.3872-5.2401l-0.20249 0.37188-0.74245 0.81137-0.94494-0.98041h0.94494l0.438-0.4738-1.755-0.3381-0.911-0.338zm-20.283 0.4394-0.337 0.879s-0.59084 0.097717-0.74245 0.13523c-1.9362 1.7873-5.8407 5.6642-6.7496 12.948 0.035987 0.16888 0.64121 1.1494 0.64121 1.1494l1.4849 0.87899 1.4849 0.40568 0.64121 0.77756 0.97869 0.74376 0.57371-0.10142 0.40497 0.20284v0.13523l-0.53996 1.5213-0.43872 0.64234 0.13499 0.30426-0.33748 1.2171 1.2487 2.2989 1.2824 1.1156 0.57371 0.81137-0.0675 1.6904 0.40497 0.9466-0.40497 1.8256s-0.05404-0.01501 0 0.16904c0.05452 0.18413 2.2559 1.4228 2.3961 1.3185 0.13968-0.1063 0.26998-0.20284 0.26998-0.20284l-0.13499-0.40568 0.57371-0.54091 0.20249-0.57472 0.91119-0.30426 0.7087-1.758-0.20249-0.4733 0.47247-0.74376 1.0799-0.23665 0.53996-1.2847-0.13499-1.5889 0.8437-1.1832 0.13499-1.2171c-1.1576-0.57505-2.2933-1.1659-3.4423-1.758l-0.57371-1.1156-1.0462-0.23665-0.57371-1.5213-1.3837 0.16904-1.2149-0.87898-1.2824 1.1156v0.16904c-0.385-0.11-0.84-0.127-1.1817-0.337l-0.26998-0.81137v-0.87898l-0.87744 0.10142c0.070612-0.55989 0.16513-1.1306 0.23623-1.6904h-0.50622l-0.50622 0.64234-0.47247 0.23665-0.7087-0.40568-0.067496-0.87898 0.13499-0.9466 1.0462-0.81137h0.84369l0.16874-0.4733 1.0462 0.23665 0.7762 0.98041 0.13499-1.6227 1.3499-1.1156 0.47247-1.1832 1.0124-0.40568 0.53996-0.81137 1.2824-0.23665 0.64121-0.9466h-1.9236l1.2149-0.57472h0.84369l1.0799-0.37188 0.20249 1.048 0.47247-0.74376-0.53997-0.37188 0.13499-0.43949-0.43872-0.40569-0.47247-0.13523 0.13499-0.50711-0.37123-0.70995-0.8437 0.33807 0.13499-0.64233-0.97869-0.57472-0.7762 1.3523 0.0675 0.4733-0.7762 0.33807-0.47247 1.048-0.23623-0.98041-1.3162-0.54091-0.23623-0.74376 1.7886-1.0142 0.7762-0.74376 0.0675-0.87898-0.43872-0.23665-0.57371-0.067613zm14.478 1.6227v0.54091l0.30373 0.33807v0.81137l-0.16874 1.0818 0.87744-0.16904 0.64121-0.64233-0.57371-0.54092c-0.18605-0.49631-0.3746-0.94387-0.60746-1.4199h-0.47247zm-0.74245 1.0818-0.53996 0.16904 0.13499 0.9804 0.7087-0.37188-0.30373-0.77756zm9.8881 8.8913 0.80995 0.9466 0.97869 2.096 0.60746 0.67614-0.30373 0.70995 0.53996 0.64234c-0.24779 0.01643-0.48776 0.03381-0.74245 0.03381-0.46267-0.97394-0.82884-1.9561-1.1812-2.975l-0.60746-0.67614-0.33748-1.2171 0.23624-0.23665z"/>
   <path opacity=".4" d="m40.677 23.999c0 9.211-7.4673 16.678-16.677 16.678-9.2108 0-16.678-7.4671-16.678-16.678 0-9.2106 7.4669-16.677 16.678-16.677 9.21 0 16.677 7.4663 16.677 16.677z" stroke="url(#b)" stroke-width="6.6835" fill="none"/>
  </g>
  <path d="m147.7 71.63v0.48258c1.2393 0.023 2.2406 1.026 2.2634 2.2674h0.48659c-0.023-1.5101-1.2425-2.727-2.75-2.75zm0 1.1128v0.4363c0.65412 0.0227 1.1794 0.54572 1.2022 1.2009h0.43595c-0.023-0.89679-0.74285-1.6143-1.6381-1.6372zm0.28623 1.1018c-0.0767 0-0.13622 0.0283-0.18936 0.0816-0.0531 0.0523-0.0792 0.10827-0.0792 0.18509 0 0.0756 0.0263 0.13516 0.0792 0.18732 0.0529 0.052 0.11207 0.0771 0.18936 0.0771 0.0749 0 0.1307-0.025 0.18275-0.0771 0.0532-0.0534 0.0815-0.11287 0.0815-0.18732 0-0.0769-0.0283-0.13273-0.0815-0.18509-0.0523-0.0534-0.10845-0.0816-0.18275-0.0816z" stroke="#646464" stroke-width=".25" fill="#646464"/>
  <path style="enable-background:new" d="m151.97 74.005h2.1948" stroke="#787878" stroke-linecap="square" fill="none"/>
 </g>
</svg>
