<?xml version="1.0" encoding="UTF-8" standalone="no"?>
<svg xmlns:rdf="http://www.w3.org/1999/02/22-rdf-syntax-ns#" xmlns="http://www.w3.org/2000/svg" height="16" width="16" version="1.1" xmlns:cc="http://creativecommons.org/ns#" xmlns:xlink="http://www.w3.org/1999/xlink" xmlns:dc="http://purl.org/dc/elements/1.1/">
 <defs>
  <radialGradient id="a" gradientUnits="userSpaceOnUse" cy="-1.2307" cx="8" gradientTransform="matrix(0 2.2667 -2.2667 0 5.2104 -19.133)" r="7.5">
   <stop stop-color="#90dbec" offset="0"/>
   <stop stop-color="#42baea" offset=".26238"/>
   <stop stop-color="#3689e6" offset=".70495"/>
   <stop stop-color="#2b63a0" offset="1"/>
  </radialGradient>
  <linearGradient id="b" y2="14" gradientUnits="userSpaceOnUse" x2="8" y1="1" x1="8">
   <stop stop-color="#fff" offset="0"/>
   <stop stop-color="#fff" stop-opacity=".23529" offset=".50776"/>
   <stop stop-color="#fff" stop-opacity=".15686" offset=".83457"/>
   <stop stop-color="#fff" stop-opacity=".39216" offset="1"/>
  </linearGradient>
 </defs>
 <path d="m8 0.5c-4.1818 0-7.5 2.9428-7.5 6.5 0.00234 1.9501 1.0125 3.804 2.7871 5.047l0.2129 0.15v2.9199l2.9375-1.7637 0.18164 0.0293c0.4556 0.077 0.9188 0.116 1.3829 0.118 4.181-0.001 7.498-2.943 7.498-6.5 0-3.5572-3.318-6.5-7.5-6.5z" fill="url(#a)"/>
 <path opacity=".5" d="m8 0.5c-4.1818 0-7.5 2.9428-7.5 6.5 0.00234 1.9501 1.0125 3.804 2.7871 5.047l0.2129 0.15v2.9199l2.9375-1.7637 0.18164 0.0293c0.4556 0.077 0.9188 0.116 1.3829 0.118 4.181-0.001 7.498-2.943 7.498-6.5 0-3.5572-3.318-6.5-7.5-6.5z" stroke="#00537d" stroke-linecap="round" fill="none"/>
 <path opacity=".5" d="m8 1.5c-3.7119 0-6.4988 2.5636-6.5 5.498v0.002c0.00257 1.6048 0.82378 3.1514 2.3613 4.2285h0.00195l0.6368 0.452v1.6699l1.7363-1.041 0.54492 0.08789h0.00195c0.4033 0.067 0.8135 0.102 1.2227 0.103 3.7101-0.003 6.4941-2.5663 6.4941-5.5 0-2.9353-2.787-5.5-6.5-5.5z" stroke="url(#b)" stroke-linecap="round" fill="none"/>
 <path opacity=".15" d="m8.7232 10-1.797-1.8723-3.5064 1.8723 3.857-4 1.8409 1.8723 3.4623-1.8723-3.8568 4z"/>
 <path d="m8.7232 9-1.797-1.8723-3.5064 1.8723 3.857-4 1.8409 1.8723 3.4623-1.8723-3.8568 4z" fill="#fff"/>
</svg>
