<?xml version="1.0" encoding="UTF-8" standalone="no"?>
<svg xmlns:rdf="http://www.w3.org/1999/02/22-rdf-syntax-ns#" xmlns="http://www.w3.org/2000/svg" height="16" width="16" version="1.0" xmlns:cc="http://creativecommons.org/ns#" xmlns:xlink="http://www.w3.org/1999/xlink" xmlns:dc="http://purl.org/dc/elements/1.1/">
 <defs>
  <linearGradient id="g">
   <stop stop-color="#3465a4" stop-opacity="0" offset="0"/>
   <stop stop-color="#3465a4" offset=".26478"/>
   <stop stop-color="#3465a4" offset=".68843"/>
   <stop stop-color="#3465a4" stop-opacity="0" offset="1"/>
  </linearGradient>
  <linearGradient id="a" y2="10.326" gradientUnits="userSpaceOnUse" x2="20.053" y1="29.849" x1="27.544">
   <stop stop-color="#fff" offset="0"/>
   <stop stop-color="#fff" stop-opacity="0" offset="1"/>
  </linearGradient>
  <radialGradient id="c" gradientUnits="userSpaceOnUse" cy="26.375" cx="25.812" gradientTransform="matrix(1 0 0 .97959 0 .53827)" r="3.0625">
   <stop stop-color="#fff" offset="0"/>
   <stop stop-color="#fff" stop-opacity="0" offset="1"/>
  </radialGradient>
  <linearGradient id="b" y2="16.024" xlink:href="#g" gradientUnits="userSpaceOnUse" x2="-34.247" y1="34.111" x1="-34.357"/>
  <linearGradient id="f" y2="44.401" gradientUnits="userSpaceOnUse" x2="25.511" gradientTransform="matrix(.38715 0 0 .35605 -1.7963 -.46983)" y1="1.7998" x1="25.271">
   <stop stop-color="#b5b5b5" offset="0"/>
   <stop stop-color="#e9e9e9" offset=".12836"/>
   <stop stop-color="#fff" offset=".15045"/>
   <stop stop-color="#b5b5b5" offset="1"/>
  </linearGradient>
  <linearGradient id="e" y2="21.333" gradientUnits="userSpaceOnUse" x2="26.22" y1="19.223" x1="25.02">
   <stop stop-color="#fff" offset="0"/>
   <stop stop-color="#b0b0b0" offset="1"/>
  </linearGradient>
  <linearGradient id="d" y2="27.497" gradientUnits="userSpaceOnUse" x2="28.467" y1="15.926" x1="23.146">
   <stop stop-color="#5f5f5f" offset="0"/>
   <stop stop-color="#b1b1b1" offset="1"/>
  </linearGradient>
 </defs>
 <path stroke-linejoin="round" d="m4.4365 0.5c-0.4916 0-0.7756 0.17287-0.8917 0.43682l-0.9208 1.4743c0.0052 0.1181-0.0231 0.2321-0.0348 0.3494l0.0348 11.914c0 0.465 0.3875 0.842 0.8801 0.842h8.9859c0.493 0 0.892-0.377 0.892-0.841v-11.914l-0.035-0.3499-0.961-1.4743c-0.165-0.26959-0.389-0.4368-0.88-0.4368h-7.0695v0z" stroke="#555753" stroke-linecap="round" fill="url(#f)"/>
 <path stroke-linejoin="round" d="m24.906 9.9688c-5.343 0-9.687 4.3442-9.687 9.6872 0 5.344 4.341 9.719 9.687 9.719s9.688-4.375 9.688-9.719c0-5.343-4.344-9.6872-9.688-9.6872z" fill-rule="evenodd" transform="matrix(.33992 0 0 .33993 -.46299 0.248)" stroke="#5a5a5a" stroke-linecap="round" stroke-width="2.9418" fill="url(#d)"/>
 <path d="m24.906 16.594c-1.779 0-3.062 1.283-3.062 3.062 0 1.78 1.308 3.094 3.062 3.094 1.755 0 3.063-1.314 3.063-3.094 0-1.779-1.283-3.062-3.063-3.062z" fill-rule="evenodd" transform="matrix(.32580 0 0 .32581 -.11332 .52353)" fill="url(#e)"/>
 <path stroke-linejoin="round" d="m24.906 6.0938c-7.443 0-13.562 6.1192-13.562 13.562 0 7.443 6.1 13.594 13.562 13.594s13.563-6.151 13.563-13.594-6.12-13.562-13.563-13.562z" transform="matrix(.32580 0 0 .32581 -.11332 .52353)" stroke="url(#a)" stroke-linecap="round" stroke-width="3.0693" fill="none"/>
 <g stroke-linejoin="round" transform="matrix(.11670 0 0 .11670 4.5853 4.269)" stroke-linecap="round" stroke-width="8.3052">
  <path d="m33.941 19.665a9.0409 9.0409 0 1 1 -18.082 0 9.0409 9.0409 0 1 1 18.082 0z" fill-rule="evenodd" transform="matrix(1.0318 0 0 1.0318 -13.126 51.132)" stroke="#5a5a5a" fill="#5a5a5a"/>
  <path d="m24.906 3.2812c-8.952 0-16.375 7.4228-16.375 16.375 0.0002 8.952 7.392 16.406 16.375 16.406s16.375-7.454 16.375-16.406-7.423-16.375-16.375-16.375z" transform="matrix(1.0318 0 0 1.0318 -13.126 51.132)" stroke="url(#a)" fill="none"/>
 </g>
 <g stroke-linejoin="round" transform="matrix(.11670 0 0 .11670 8.4829 4.269)" stroke-linecap="round" stroke-width="8.3052">
  <path d="m33.941 19.665a9.0409 9.0409 0 1 1 -18.082 0 9.0409 9.0409 0 1 1 18.082 0z" fill-rule="evenodd" transform="matrix(1.0318 0 0 1.0318 -13.126 51.132)" stroke="#5a5a5a" fill="#5a5a5a"/>
  <path d="m24.906 3.2812c-8.955 0-16.375 7.4198-16.375 16.375 0.0002 8.956 7.389 16.406 16.375 16.406s16.375-7.45 16.375-16.406c0-8.955-7.419-16.375-16.375-16.375z" transform="matrix(1.0318 0 0 1.0318 -13.126 51.132)" stroke="url(#a)" fill="none"/>
 </g>
 <path opacity=".4" d="m28.875 26.375a3.0625 3 0 1 1 -6.125 0 3.0625 3 0 1 1 6.125 0z" transform="matrix(.42181 0 0 .40977 -2.2201 -2.0008)" fill="url(#c)"/>
 <path d="m3.8346 2.4804h8.3544" stroke="#555753" stroke-linecap="round" stroke-width=".99994px" fill="#616566"/>
 <path stroke-linejoin="round" d="m-29.85 33.8a11 11 0 0 1 -0.047 -17.565" transform="matrix(.52978 0 0 .60317 18.508 -8.2359)" stroke="url(#b)" stroke-linecap="round" stroke-width="1.769" fill="none"/>
 <path stroke-linejoin="round" d="m-29.85 33.8a11 11 0 0 1 -0.047 -17.565" transform="matrix(-.52978 0 0 .60317 -2.5082 -8.2359)" stroke="url(#b)" stroke-linecap="round" stroke-width="1.769" fill="none"/>
</svg>
