<?xml version="1.0" encoding="UTF-8" standalone="no"?>
<!-- Created with Inkscape (http://www.inkscape.org/) -->

<svg
   xmlns:dc="http://purl.org/dc/elements/1.1/"
   xmlns:cc="http://creativecommons.org/ns#"
   xmlns:rdf="http://www.w3.org/1999/02/22-rdf-syntax-ns#"
   xmlns:svg="http://www.w3.org/2000/svg"
   xmlns="http://www.w3.org/2000/svg"
   xmlns:sodipodi="http://sodipodi.sourceforge.net/DTD/sodipodi-0.dtd"
   xmlns:inkscape="http://www.inkscape.org/namespaces/inkscape"
   version="1.0"
   width="16"
   height="16"
   id="svg3291"
   inkscape:version="0.91 r13725"
   sodipodi:docname="simplescreenrecorder.svg">
  <sodipodi:namedview
     pagecolor="#ffffff"
     bordercolor="#666666"
     borderopacity="1"
     objecttolerance="10"
     gridtolerance="10"
     guidetolerance="10"
     inkscape:pageopacity="0"
     inkscape:pageshadow="2"
     inkscape:window-width="1366"
     inkscape:window-height="745"
     id="namedview43"
     showgrid="true"
     inkscape:zoom="11.313709"
     inkscape:cx="8.5498673"
     inkscape:cy="5.8742299"
     inkscape:window-x="1672"
     inkscape:window-y="274"
     inkscape:window-maximized="1"
     inkscape:current-layer="svg3291">
    <inkscape:grid
       type="xygrid"
       id="grid3025"
       empspacing="5"
       visible="true"
       enabled="true"
       snapvisiblegridlinesonly="true" />
  </sodipodi:namedview>
  <metadata
     id="metadata44">
    <rdf:RDF>
      <cc:Work
         rdf:about="">
        <dc:format>image/svg+xml</dc:format>
        <dc:type
           rdf:resource="http://purl.org/dc/dcmitype/StillImage" />
        <dc:title />
      </cc:Work>
    </rdf:RDF>
  </metadata>
  <defs
     id="defs3293" />
  <path
     style="fill:#f9f9f9;fill-opacity:1;fill-rule:nonzero;stroke:none;stroke-width:0.99827474;marker:none;visibility:visible;display:inline;overflow:visible;enable-background:new"
     d="M 0.34782585,0 C 0.15084875,0 -2.5e-7,0.1763018 -2.5e-7,0.3809524 l 0,11.4285716 c 0,0.20465 0.150849,0.380952 0.3478261,0.380952 l 5.21739135,0 c 0,0 0.158103,1.634423 0,1.904763 -0.273069,0.466919 -1.108696,0.380952 -1.108696,0.380952 -0.363696,0.04816 -0.366705,1.523809 0,1.523809 l 7.0869568,0 c 0.366706,0 0.363773,-1.476265 0,-1.523809 0,0 -0.805629,0.06323 -1.108696,-0.380952 -0.170998,-0.250618 0,-1.904763 0,-1.904763 l 5.217392,0 C 15.849151,12.190476 16,12.014174 16,11.809524 L 16,0.3809524 C 16,0.1763018 15.849151,0 15.652174,0 L 0.34782585,0 z m 0.69565205,1.1428572 13.9130441,0 0,9.9047618 -13.9130441,0 0,-9.9047618 z"
     id="rect1789"
     inkscape:connector-curvature="0" />
</svg>
