<?xml version="1.0" encoding="UTF-8" standalone="no"?>
<!-- Created with Inkscape (http://www.inkscape.org/) -->

<svg
   xmlns:dc="http://purl.org/dc/elements/1.1/"
   xmlns:cc="http://creativecommons.org/ns#"
   xmlns:rdf="http://www.w3.org/1999/02/22-rdf-syntax-ns#"
   xmlns:svg="http://www.w3.org/2000/svg"
   xmlns="http://www.w3.org/2000/svg"
   xmlns:xlink="http://www.w3.org/1999/xlink"
   xmlns:sodipodi="http://sodipodi.sourceforge.net/DTD/sodipodi-0.dtd"
   xmlns:inkscape="http://www.inkscape.org/namespaces/inkscape"
   version="1.1"
   width="16"
   height="16"
   id="svg7357"
   inkscape:version="0.91 r"
   sodipodi:docname="multimedia-audio-player.svg">
  <sodipodi:namedview
     pagecolor="#ffffff"
     bordercolor="#666666"
     borderopacity="1"
     objecttolerance="10"
     gridtolerance="10"
     guidetolerance="10"
     inkscape:pageopacity="0"
     inkscape:pageshadow="2"
     inkscape:window-width="1280"
     inkscape:window-height="745"
     id="namedview28"
     showgrid="true"
     inkscape:zoom="20.85965"
     inkscape:cx="10.148687"
     inkscape:cy="2.4752125"
     inkscape:window-x="0"
     inkscape:window-y="30"
     inkscape:window-maximized="1"
     inkscape:current-layer="layer1">
    <inkscape:grid
       type="xygrid"
       id="grid11227" />
  </sodipodi:namedview>
  <defs
     id="defs7359">
    <linearGradient
       id="linearGradient11255">
      <stop
         offset="0"
         style="stop-color:#effffe;stop-opacity:1"
         id="stop11257" />
      <stop
         offset="1"
         style="stop-color:#ddfefc;stop-opacity:1"
         id="stop11259" />
    </linearGradient>
    <linearGradient
       x1="23.99999"
       y1="4.999989"
       x2="23.99999"
       y2="43"
       id="linearGradient4224"
       xlink:href="#linearGradient3924-4-8"
       gradientUnits="userSpaceOnUse"
       gradientTransform="matrix(0.2972973,0,0,0.2972973,0.86486973,0.86486734)" />
    <linearGradient
       id="linearGradient3924-4-8">
      <stop
         id="stop3926-0-4"
         style="stop-color:#ffffff;stop-opacity:1"
         offset="0" />
      <stop
         id="stop3928-6-8"
         style="stop-color:#ffffff;stop-opacity:0.23529412"
         offset="0.06316455" />
      <stop
         id="stop3930-2-1"
         style="stop-color:#ffffff;stop-opacity:0.15686275"
         offset="0.95056331" />
      <stop
         id="stop3932-9-0"
         style="stop-color:#ffffff;stop-opacity:0.39215687"
         offset="1" />
    </linearGradient>
    <linearGradient
       x1="223.21748"
       y1="38.0354"
       x2="223.21748"
       y2="47.986877"
       id="linearGradient5882-7"
       xlink:href="#linearGradient5803-0"
       gradientUnits="userSpaceOnUse"
       gradientTransform="translate(-215,-35.000003)" />
    <linearGradient
       id="linearGradient5803-0">
      <stop
         id="stop5805-3"
         style="stop-color:#fff5ef;stop-opacity:1"
         offset="0" />
      <stop
         id="stop5807-4"
         style="stop-color:#fef8dd;stop-opacity:1"
         offset="1" />
    </linearGradient>
    <linearGradient
       id="linearGradient2867-449-88-871-390-598-476-591-434-148-57-177-8-3-3-6-4-8-8-8">
      <stop
         id="stop3750-1-0-7-6-6-1-3-9"
         style="stop-color:#40e3d6;stop-opacity:1"
         offset="0" />
      <stop
         id="stop3752-3-7-4-0-32-8-923-0"
         style="stop-color:#19afa3;stop-opacity:1"
         offset="0.26238" />
      <stop
         id="stop3754-1-8-5-2-7-6-7-1"
         style="stop-color:#01919a;stop-opacity:1"
         offset="0.704952" />
      <stop
         id="stop3756-1-6-2-6-6-1-96-6"
         style="stop-color:#016f7a;stop-opacity:1"
         offset="1" />
    </linearGradient>
    <radialGradient
       cx="6.7304144"
       cy="9.9571075"
       r="12.671875"
       fx="6.2001843"
       fy="9.9571075"
       id="radialGradient7347"
       xlink:href="#linearGradient2867-449-88-871-390-598-476-591-434-148-57-177-8-3-3-6-4-8-8-8"
       gradientUnits="userSpaceOnUse"
       gradientTransform="matrix(0,3.1658508,-3.8866533,0,46.97684,-26.720326)" />
    <mask
       id="m">
      <rect
         x="0"
         y="0"
         width="24"
         height="24"
         style="fill:#ffffff"
         id="rect7" />
      <text
         x="6.5"
         y="15.5"
         style="font-weight:500;font-size:9px;font-family:'Open Sans';fill:#000000"
         id="text9">Ak</text>
    </mask>
    <linearGradient
       inkscape:collect="always"
       xlink:href="#linearGradient11255"
       id="linearGradient11253"
       x1="8"
       y1="3"
       x2="8"
       y2="13"
       gradientUnits="userSpaceOnUse" />
  </defs>
  <metadata
     id="metadata7362">
    <rdf:RDF>
      <cc:Work
         rdf:about="">
        <dc:format>image/svg+xml</dc:format>
        <dc:type
           rdf:resource="http://purl.org/dc/dcmitype/StillImage" />
        <dc:title />
      </cc:Work>
    </rdf:RDF>
  </metadata>
  <g
     id="layer1">
    <rect
       width="13.000003"
       height="13.000003"
       rx="1"
       ry="1"
       x="1.5"
       y="1.4999971"
       id="rect5505-21-2"
       style="color:#000000;fill:url(#radialGradient7347);fill-opacity:1;fill-rule:nonzero;stroke:none;stroke-width:0.99999994;marker:none;visibility:visible;display:inline;overflow:visible;enable-background:accumulate" />
    <rect
       width="11"
       height="11"
       x="2.5"
       y="2.4999971"
       id="rect6741-0-3"
       style="opacity:0.5;fill:none;stroke:url(#linearGradient4224);stroke-width:1;stroke-linecap:round;stroke-linejoin:round;stroke-miterlimit:4;stroke-opacity:1;stroke-dasharray:none;stroke-dashoffset:0" />
    <rect
       width="13.000003"
       height="13.000003"
       rx="1"
       ry="1"
       x="1.5"
       y="1.4999971"
       id="rect5505-21-2-8"
       style="opacity:0.4;color:#000000;fill:none;stroke:#015a60;stroke-width:1;stroke-linecap:round;stroke-linejoin:round;stroke-miterlimit:4;stroke-opacity:1;stroke-dasharray:none;stroke-dashoffset:0;marker:none;visibility:visible;display:inline;overflow:visible;enable-background:accumulate" />
  </g>
  <path
     style="color:#000000;font-style:normal;font-variant:normal;font-weight:normal;font-stretch:normal;font-size:medium;line-height:normal;font-family:sans-serif;text-indent:0;text-align:start;text-decoration:none;text-decoration-line:none;text-decoration-style:solid;text-decoration-color:#000000;letter-spacing:normal;word-spacing:normal;text-transform:none;direction:ltr;block-progression:tb;writing-mode:lr-tb;baseline-shift:baseline;text-anchor:start;white-space:normal;clip-rule:nonzero;display:inline;overflow:visible;visibility:visible;opacity:0.05;isolation:auto;mix-blend-mode:normal;color-interpolation:sRGB;color-interpolation-filters:linearRGB;solid-color:#000000;solid-opacity:1;fill:#000000;fill-opacity:1;fill-rule:nonzero;stroke:none;stroke-width:2;stroke-linecap:butt;stroke-linejoin:round;stroke-miterlimit:4;stroke-dasharray:none;stroke-dashoffset:0;stroke-opacity:1;color-rendering:auto;image-rendering:auto;shape-rendering:auto;text-rendering:auto;enable-background:accumulate"
     d="M 9.6582031 3.1699219 A 1.0001 1.0001 0 0 0 8.7695312 3.6699219 L 8.2695312 4.5351562 L 8 5 L 7.9980469 5 L 7.7304688 4.5351562 L 7.2304688 3.6699219 A 1.0001 1.0001 0 0 0 5.8652344 3.3046875 L 4.1347656 4.3046875 A 1.0001 1.0001 0 0 0 3.7695312 5.6699219 L 4.2695312 6.5351562 L 4.5390625 7 L 4 7 L 3 7 A 1.0001 1.0001 0 0 0 2 8 L 2 10 A 1.0001 1.0001 0 0 0 3 11 L 4 11 L 4.5390625 11 L 4.2695312 11.464844 L 3.7695312 12.330078 A 1.0001 1.0001 0 0 0 4.1347656 13.695312 L 4.6621094 14 L 7.421875 14 L 7.7304688 13.464844 L 8 13 L 8.0019531 13 L 8.2695312 13.464844 L 8.578125 14 L 11.337891 14 L 11.865234 13.695312 A 1.0001 1.0001 0 0 0 12.230469 12.330078 L 11.730469 11.464844 L 11.460938 11 L 12 11 L 13 11 A 1.0001 1.0001 0 0 0 14 10 L 14 8 A 1.0001 1.0001 0 0 0 13 7 L 12 7 L 11.460938 7 L 11.730469 6.5351562 L 12.230469 5.6699219 A 1.0001 1.0001 0 0 0 11.865234 4.3046875 L 10.134766 3.3046875 A 1.0001 1.0001 0 0 0 9.6582031 3.1699219 z M 9.4121094 6.5527344 A 1.0001 1.0001 0 0 0 9.3964844 6.5820312 C 9.3964844 6.5820312 9.3945312 6.5820312 9.3945312 6.5820312 A 1.0001 1.0001 0 0 0 9.4121094 6.5527344 z M 6.5996094 6.5742188 A 1.0001 1.0001 0 0 0 6.6054688 6.5820312 C 6.6054688 6.5820312 6.6035156 6.5820312 6.6035156 6.5820312 A 1.0001 1.0001 0 0 0 6.5996094 6.5742188 z M 8 8 C 8.5641294 8 9 8.4358706 9 9 C 9.0000001 9.5641295 8.5641295 10 8 10 C 7.4358705 10 6.9999999 9.5641295 7 9 C 7 8.4358706 7.4358706 8 8 8 z M 6.6035156 11.417969 C 6.6035156 11.417969 6.6054688 11.417969 6.6054688 11.417969 A 1.0001 1.0001 0 0 0 6.5878906 11.447266 A 1.0001 1.0001 0 0 0 6.6035156 11.417969 z M 9.3945312 11.417969 A 1.0001 1.0001 0 0 0 9.3964844 11.417969 A 1.0001 1.0001 0 0 0 9.4003906 11.425781 A 1.0001 1.0001 0 0 0 9.3945312 11.417969 z "
     id="path11263" />
  <path
     id="path11261"
     d="m 6.3652344,4.1698439 -1.7304688,1 0.5,0.8652343 0.5859375,1.0136719 A 3,3 0 0 0 5.1757812,7.999922 l -1.1757812,0 -1,0 0,2 1,0 1.1738281,0 a 3,3 0 0 0 0.5488281,0.947266 l -0.5878906,1.017578 -0.5,0.865234 1.7304688,1 0.5,-0.865234 0.5878906,-1.017578 A 3,3 0 0 0 8,11.999922 3,3 0 0 0 8.5488281,11.949141 l 0.5859375,1.015625 0.5,0.865234 1.7304684,-1 -0.5,-0.865234 -0.585937,-1.013672 a 3,3 0 0 0 0.544922,-0.951172 l 1.175781,0 1,0 0,-2 -1,0 -1.173828,0 A 3,3 0 0 0 10.277344,7.0526564 l 0.58789,-1.0175782 0.5,-0.8652343 -1.7304684,-1 -0.5,0.8652343 L 8.546875,6.0526564 A 3,3 0 0 0 8,5.999922 3,3 0 0 0 7.4511719,6.0507032 l -0.5859375,-1.015625 -0.5,-0.8652343 z M 8,6.999922 a 2,2 0 0 1 2,2 2,2 0 0 1 -2,2 2,2 0 0 1 -2,-2 2,2 0 0 1 2,-2 z"
     style="opacity:0.15;fill:#000000;fill-opacity:1;stroke:none;stroke-width:2;stroke-miterlimit:4;stroke-dasharray:none;stroke-opacity:1"
     inkscape:connector-curvature="0" />
  <path
     style="opacity:1;fill:url(#linearGradient11253);fill-opacity:1;stroke:none;stroke-width:2;stroke-miterlimit:4;stroke-dasharray:none;stroke-opacity:1"
     d="M 6.3652344 3.1699219 L 4.6347656 4.1699219 L 5.1347656 5.0351562 L 5.7207031 6.0488281 A 3 3 0 0 0 5.1757812 7 L 4 7 L 3 7 L 3 9 L 4 9 L 5.1738281 9 A 3 3 0 0 0 5.7226562 9.9472656 L 5.1347656 10.964844 L 4.6347656 11.830078 L 6.3652344 12.830078 L 6.8652344 11.964844 L 7.453125 10.947266 A 3 3 0 0 0 8 11 A 3 3 0 0 0 8.5488281 10.949219 L 9.1347656 11.964844 L 9.6347656 12.830078 L 11.365234 11.830078 L 10.865234 10.964844 L 10.279297 9.9511719 A 3 3 0 0 0 10.824219 9 L 12 9 L 13 9 L 13 7 L 12 7 L 10.826172 7 A 3 3 0 0 0 10.277344 6.0527344 L 10.865234 5.0351562 L 11.365234 4.1699219 L 9.6347656 3.1699219 L 9.1347656 4.0351562 L 8.546875 5.0527344 A 3 3 0 0 0 8 5 A 3 3 0 0 0 7.4511719 5.0507812 L 6.8652344 4.0351562 L 6.3652344 3.1699219 z M 8 6 A 2 2 0 0 1 10 8 A 2 2 0 0 1 8 10 A 2 2 0 0 1 6 8 A 2 2 0 0 1 8 6 z "
     id="path11229" />
</svg>
