<?xml version="1.0" encoding="UTF-8" standalone="no"?>
<svg
   xmlns:dc="http://purl.org/dc/elements/1.1/"
   xmlns:cc="http://creativecommons.org/ns#"
   xmlns:rdf="http://www.w3.org/1999/02/22-rdf-syntax-ns#"
   xmlns:svg="http://www.w3.org/2000/svg"
   xmlns="http://www.w3.org/2000/svg"
   xmlns:xlink="http://www.w3.org/1999/xlink"
   id="svg7357"
   height="16"
   width="16"
   version="1.1">
  <defs
     id="defs7359">
    <linearGradient
       id="linearGradient3924-4-8">
      <stop
         offset="0"
         style="stop-color:#ffffff;stop-opacity:1"
         id="stop3926-0-4" />
      <stop
         offset="0.06316455"
         style="stop-color:#ffffff;stop-opacity:0.23529412"
         id="stop3928-6-8" />
      <stop
         offset="0.95056331"
         style="stop-color:#ffffff;stop-opacity:0.15686275"
         id="stop3930-2-1" />
      <stop
         offset="1"
         style="stop-color:#ffffff;stop-opacity:0.39215687"
         id="stop3932-9-0" />
    </linearGradient>
    <linearGradient
       id="linearGradient2867-449-88-871-390-598-476-591-434-148-57-177-8-3-3-6-4-8-8-8">
      <stop
         offset="0"
         style="stop-color:#ffcd7d;stop-opacity:1"
         id="stop3750-1-0-7-6-6-1-3-9" />
      <stop
         offset="0.26238"
         style="stop-color:#fc8f36;stop-opacity:1"
         id="stop3752-3-7-4-0-32-8-923-0" />
      <stop
         offset="0.704952"
         style="stop-color:#e23a0e;stop-opacity:1"
         id="stop3754-1-8-5-2-7-6-7-1" />
      <stop
         offset="1"
         style="stop-color:#ac441f;stop-opacity:1"
         id="stop3756-1-6-2-6-6-1-96-6" />
    </linearGradient>
    <linearGradient
       gradientTransform="matrix(0.2972973,0,0,0.2972973,0.86486973,0.86486734)"
       gradientUnits="userSpaceOnUse"
       xlink:href="#linearGradient3924-4-8"
       id="linearGradient3007"
       y2="43"
       x2="23.99999"
       y1="4.999989"
       x1="23.99999" />
    <radialGradient
       gradientTransform="matrix(0,3.1658508,-3.8866533,0,46.97684,-26.720326)"
       gradientUnits="userSpaceOnUse"
       xlink:href="#linearGradient2867-449-88-871-390-598-476-591-434-148-57-177-8-3-3-6-4-8-8-8"
       id="radialGradient3015"
       fy="9.9571075"
       fx="6.2001843"
       r="12.671875"
       cy="9.9571075"
       cx="6.7304144" />
  </defs>
  <metadata
     id="metadata7362">
    <rdf:RDF>
      <cc:Work
         rdf:about="">
        <dc:format>image/svg+xml</dc:format>
        <dc:type
           rdf:resource="http://purl.org/dc/dcmitype/StillImage" />
        <dc:title></dc:title>
      </cc:Work>
    </rdf:RDF>
  </metadata>
  <rect
     style="color:#000000;fill:url(#radialGradient3015);fill-opacity:1;fill-rule:nonzero;stroke:none;stroke-width:0.99999994;marker:none;visibility:visible;display:inline;overflow:visible;enable-background:accumulate"
     id="rect5505-21-2"
     y="1.4999971"
     x="1.5"
     ry="1"
     rx="1"
     height="13.000003"
     width="13.000003" />
  <rect
     style="opacity:0.5;fill:none;stroke:url(#linearGradient3007);stroke-width:1;stroke-linecap:round;stroke-linejoin:round;stroke-miterlimit:4;stroke-opacity:1;stroke-dasharray:none;stroke-dashoffset:0"
     id="rect6741-0-3"
     y="2.4999971"
     x="2.5"
     height="11"
     width="11" />
  <rect
     style="opacity:0.4;color:#000000;fill:none;stroke:#640000;stroke-width:1;stroke-linecap:round;stroke-linejoin:round;stroke-miterlimit:4;stroke-opacity:1;stroke-dasharray:none;stroke-dashoffset:0;marker:none;visibility:visible;display:inline;overflow:visible;enable-background:accumulate"
     id="rect5505-21-2-8"
     y="1.4999971"
     x="1.5"
     ry="1"
     rx="1"
     height="13.000003"
     width="13.000003" />
  <path
     id="path4383"
     d="m 3.1291239,9.9257983 c -0.184442,-0.247765 -0.296188,-0.5698718 -0.296188,-0.9223837 0,-0.3525116 0.1117459,-0.6746183 0.296188,-0.9223056 z m 0.525394,0.4139127 c -0.1144679,-0.0461 -0.221179,-0.111079 -0.31738,-0.192068 l 0,-2.2884563 C 3.4333389,7.778198 3.54005,7.7131788 3.6545179,7.6671184 z m 0.624147,0.07855 -0.2221665,0 c -0.053815,0 -0.1067111,-0.0044 -0.1586557,-0.01227 l 0,-2.8051098 c 0.051946,-0.00779 0.1048422,-0.012239 0.1586557,-0.012239 0.075858,0 0.1500847,0.00807 0.2221665,0.023407 z m 0.6558172,0 -0.4231398,0 0,-2.7280152 c 0.074531,0.034571 0.1454919,0.077212 0.2119272,0.1272463 0.043812,-0.2137414 0.1159992,-0.4146988 0.2112126,-0.5978386 z m 0.6558512,0 -0.4231061,0 0,-3.5548171 C 5.2905055,6.711104 5.4329692,6.5799252 5.5903333,6.4751005 z m 0.6770089,0 -0.4231051,0 0,-4.083231 C 5.9784003,6.2752426 6.1200483,6.2330368 6.2673422,6.2113249 z m 0.67701,0 -0.4231055,0 0,-4.2236536 c 0.1457632,0.00194 0.2874449,0.023518 0.4231055,0.062738 z m 0.6770095,0 -0.4231049,0 0,-4.0639572 c 0.058478,0.028008 0.1155218,0.059199 0.1707323,0.093772 0.073579,-0.1393991 0.1582138,-0.2701457 0.2524068,-0.390783 l -3.42e-5,4.3609682 z m 0.655919,0 -0.4231728,0 0,-4.6191574 C 7.9836792,5.6743373 8.12553,5.5660503 8.2772129,5.4769981 l 0,4.9412639 z m 3.7922693,0 -3.5455424,0 0,-5.0652446 c 0.1354568,-0.057149 0.277002,-0.099707 0.4231049,-0.1260998 0.1143325,-0.020608 0.231521,-0.031627 0.3508191,-0.031627 1.1867914,0 2.1596464,1.0584403 2.2513914,2.4034683 0.158894,-0.082249 0.33483,-0.128386 0.520156,-0.128386 0.703985,0 1.274692,0.6598684 1.274692,1.4739263 3.5e-5,0.8140576 -0.570637,1.4739658 -1.274621,1.4739658 z"
     style="fill:#ae2109;fill-opacity:0.16862745" />
  <path
     id="path3105"
     d="M 3.4788941,9.6545458 C 3.3087858,9.4569236 3.2057242,9.2000055 3.2057242,8.9188358 c 0,-0.2811697 0.1030615,-0.5380875 0.2731699,-0.735647 z m 0.4845635,0.3301431 c -0.1055721,-0.03677 -0.2039903,-0.0886 -0.2927152,-0.153197 l 0,-1.8253124 C 3.7594673,7.9415809 3.8578855,7.8897209 3.9634576,7.8529824 z m 0.5756418,0.06265 -0.2049011,0 c -0.049633,0 -0.098418,-0.0034 -0.1463258,-0.0098 l 0,-2.2374045 c 0.047909,-0.00621 0.096694,-0.00976 0.1463258,-0.00976 0.069963,0 0.138421,0.00644 0.2049011,0.018664 z m 0.6048508,0 -0.3902558,0 0,-2.1759112 c 0.068739,0.027572 0.1341851,0.061583 0.1954575,0.1014907 0.040407,-0.1704836 0.1069843,-0.3307712 0.1947983,-0.4768462 z m 0.6048822,0 -0.3902247,0 0,-2.8353832 C 5.4723055,7.0904473 5.6036978,6.9858165 5.7488324,6.9022059 z m 0.6243956,0 -0.3902237,0 0,-3.2568558 C 6.106741,6.7428002 6.237381,6.7091362 6.373228,6.6918172 z m 0.6243966,0 -0.3902241,0 0,-3.3688591 c 0.1344354,0.00154 0.2651063,0.018759 0.3902241,0.050042 z m 0.6243963,0 -0.3902237,0 0,-3.2414822 c 0.053933,0.02234 0.1065442,0.047218 0.157464,0.074794 0.067861,-0.1111885 0.1459184,-0.2154744 0.2327912,-0.3116967 l -3.15e-5,3.4783849 z m 0.6049447,0 -0.3902862,0 0,-3.6843199 C 7.9561812,6.2635044 8.0870081,6.1771329 8.2269031,6.1061036 l 0,3.9412394 z m 3.4975554,0 -3.2700027,0 0,-4.0401275 c 0.1249299,-0.045589 0.2554749,-0.079534 0.3902236,-0.1005856 0.1054472,-0.016443 0.2135285,-0.025226 0.3235554,-0.025226 1.0945607,0 1.9918117,0.8442303 2.0764257,1.917049 0.146547,-0.065602 0.30881,-0.1024028 0.479733,-0.1024028 0.649276,0 1.17563,0.5263228 1.17563,1.1756295 3.2e-5,0.6493065 -0.52629,1.1756614 -1.175565,1.1756614 z"
     style="fill:#ae2109;fill-opacity:0.62745098" />
  <path
     style="fill:#ffffff;fill-opacity:1"
     d="M 3.4788941,9.4313349 C 3.3087858,9.2337129 3.2057242,8.9767948 3.2057242,8.6956249 c 0,-0.2811699 0.1030615,-0.5380878 0.2731699,-0.7356468 z m 0.4845635,0.330143 C 3.8578855,9.7247089 3.7594673,9.6728769 3.6707424,9.6082814 l 0,-1.8253131 c 0.088725,-0.064598 0.1871431,-0.1164586 0.2927152,-0.153197 z m 0.5756418,0.06265 -0.2049011,0 c -0.049633,0 -0.098418,-0.0035 -0.1463258,-0.0098 l 0,-2.2374041 c 0.047909,-0.00621 0.096694,-0.00976 0.1463258,-0.00976 0.069963,0 0.138421,0.00644 0.2049011,0.018665 z m 0.6048508,0 -0.3902558,0 0,-2.1759117 c 0.068739,0.02758 0.1341851,0.061586 0.1954575,0.1014938 0.040407,-0.1704811 0.1069843,-0.3307681 0.1947983,-0.4768436 z m 0.6048822,0 -0.3902247,0 0,-2.8353837 C 5.4723055,6.8672377 5.6036978,6.7626063 5.7488324,6.6789962 z m 0.6243956,0 -0.3902237,0 0,-3.2568557 C 6.106741,6.5195842 6.237381,6.4859192 6.373228,6.4686022 z m 0.6243966,0 -0.3902241,0 0,-3.3688596 c 0.1344354,0.00154 0.2651063,0.018759 0.3902241,0.050042 z m 0.6243963,0 -0.3902237,0 0,-3.2414828 c 0.053933,0.02234 0.1065442,0.047218 0.157464,0.074794 C 7.4571222,6.546252 7.5351796,6.4419662 7.6220524,6.3457432 l -3.15e-5,3.4783853 z m 0.6049447,0 -0.3902862,0 0,-3.6843202 C 7.9561812,6.0402932 8.0870081,5.9539223 8.2269031,5.8828924 l 0,3.9412395 z m 3.4975554,0 -3.2700027,0 0,-4.0401275 c 0.1249299,-0.045584 0.2554749,-0.07953 0.3902236,-0.1005805 0.1054472,-0.016438 0.2135285,-0.025225 0.3235554,-0.025225 1.0945607,0 1.9918117,0.8442308 2.0764257,1.9170491 0.146547,-0.065602 0.30881,-0.1024029 0.479733,-0.1024029 0.649276,0 1.17563,0.5263222 1.17563,1.1756294 3.2e-5,0.649307 -0.52629,1.1756609 -1.175565,1.1756609 z"
     id="soundcloud-square-icon" />
</svg>
