<?xml version="1.0" encoding="UTF-8" standalone="no"?>
<!-- Created with Inkscape (http://www.inkscape.org/) -->

<svg
   xmlns:dc="http://purl.org/dc/elements/1.1/"
   xmlns:cc="http://creativecommons.org/ns#"
   xmlns:rdf="http://www.w3.org/1999/02/22-rdf-syntax-ns#"
   xmlns:svg="http://www.w3.org/2000/svg"
   xmlns="http://www.w3.org/2000/svg"
   xmlns:xlink="http://www.w3.org/1999/xlink"
   xmlns:sodipodi="http://sodipodi.sourceforge.net/DTD/sodipodi-0.dtd"
   xmlns:inkscape="http://www.inkscape.org/namespaces/inkscape"
   id="svg2"
   version="1.1"
   inkscape:version="0.91 r13725"
   width="16"
   height="16"
   sodipodi:docname="telegram.svg">
  <metadata
     id="metadata8">
    <rdf:RDF>
      <cc:Work
         rdf:about="">
        <dc:format>image/svg+xml</dc:format>
        <dc:type
           rdf:resource="http://purl.org/dc/dcmitype/StillImage" />
        <dc:title />
      </cc:Work>
    </rdf:RDF>
  </metadata>
  <defs
     id="defs6">
    <linearGradient
       id="linearGradient3848">
      <stop
         style="stop-color:#ffffff;stop-opacity:1;"
         offset="0"
         id="stop3850" />
      <stop
         id="stop3856"
         offset="0.25"
         style="stop-color:#ffffff;stop-opacity:0.75294119;" />
      <stop
         style="stop-color:#ffffff;stop-opacity:0.50196081;"
         offset="1"
         id="stop3852" />
    </linearGradient>
    <linearGradient
       id="linearGradient3821-2">
      <stop
         style="stop-color:#37aee2;stop-opacity:1;"
         offset="0"
         id="stop3823-9" />
      <stop
         style="stop-color:#1e96c8;stop-opacity:1;"
         offset="1"
         id="stop3825-9" />
    </linearGradient>
    <linearGradient
       id="linearGradient4064-3">
      <stop
         style="stop-color:#ffffff;stop-opacity:1;"
         offset="0"
         id="stop4066-8" />
      <stop
         style="stop-color:#ffffff;stop-opacity:0;"
         offset="1"
         id="stop4068-6" />
    </linearGradient>
    <linearGradient
       id="linearGradient3877-6-8">
      <stop
         style="stop-color:#effffc;stop-opacity:1;"
         offset="0"
         id="stop3879-8-6" />
      <stop
         style="stop-color:#ffffff;stop-opacity:1;"
         offset="1"
         id="stop3881-8-6" />
    </linearGradient>
    <linearGradient
       inkscape:collect="always"
       xlink:href="#linearGradient3821-2"
       id="linearGradient4036"
       gradientUnits="userSpaceOnUse"
       x1="16.666666"
       y1="56.666668"
       x2="6.6666665"
       y2="80" />
    <linearGradient
       inkscape:collect="always"
       xlink:href="#linearGradient3848"
       id="linearGradient4045"
       gradientUnits="userSpaceOnUse"
       gradientTransform="matrix(0,0.26530583,-0.26530611,0,16.489796,-0.48977809)"
       x1="7.0000038"
       y1="32.000004"
       x2="56.999996"
       y2="32.000004" />
    <radialGradient
       inkscape:collect="always"
       xlink:href="#linearGradient4064-3"
       id="radialGradient4057"
       gradientUnits="userSpaceOnUse"
       gradientTransform="matrix(0.1556382,0,0,0.12,-1.9608436,0.32000016)"
       cx="64"
       cy="32.221825"
       fx="64"
       fy="32.221825"
       r="50" />
    <linearGradient
       inkscape:collect="always"
       xlink:href="#linearGradient3877-6-8"
       id="linearGradient4060"
       gradientUnits="userSpaceOnUse"
       gradientTransform="matrix(0.43333333,0,0,0.43333333,12,12.000001)"
       x1="135"
       y1="120"
       x2="160"
       y2="160" />
  </defs>
  <sodipodi:namedview
     pagecolor="#ffffff"
     bordercolor="#666666"
     borderopacity="1"
     objecttolerance="10"
     gridtolerance="10"
     guidetolerance="10"
     inkscape:pageopacity="0"
     inkscape:pageshadow="2"
     inkscape:window-width="1366"
     inkscape:window-height="745"
     id="namedview4"
     showgrid="true"
     inkscape:zoom="4"
     inkscape:cx="-34.087503"
     inkscape:cy="-12.357772"
     inkscape:window-x="1672"
     inkscape:window-y="274"
     inkscape:window-maximized="1"
     inkscape:current-layer="g3886-2-8">
    <inkscape:grid
       type="xygrid"
       id="grid4112"
       empspacing="4"
       visible="true"
       enabled="false"
       snapvisiblegridlinesonly="true"
       dotted="false" />
  </sodipodi:namedview>
  <path
     sodipodi:type="arc"
     style="fill:url(#linearGradient4036);fill-opacity:1;stroke:none"
     id="path2995-1-0-8"
     sodipodi:cx="10"
     sodipodi:cy="70"
     sodipodi:rx="20"
     sodipodi:ry="20"
     d="m 30,70 a 20,20 0 1 1 -40,0 20,20 0 1 1 40,0 z"
     transform="matrix(0.4,0,0,0.3999996,4,-19.999964)" />
  <path
     style="opacity:0.25;color:#000000;fill:url(#radialGradient4057);fill-opacity:1;stroke:none;stroke-width:1;marker:none;visibility:visible;display:inline;overflow:visible;enable-background:accumulate"
     id="path8655-6-1-1-1-2"
     inkscape:connector-curvature="0"
     d="M 14,7.9997885 C 14,11.313605 11.313509,14 8.0000738,14 4.6863385,14 2,11.313574 2,7.9997885 2,4.6861263 4.6863385,2 8.0000738,2 11.313509,2 14,4.6861263 14,7.9997885 l 0,0 z" />
  <g
     transform="matrix(0.17271871,0,0,0.17271852,-3.2147812,-2.8177949)"
     id="g3886-2-8">
    <path
       sodipodi:nodetypes="ccccccc"
       inkscape:connector-curvature="0"
       id="path2993-7-0"
       d="m 54.466666,87.833334 c -1.684645,0 -1.398365,-0.636103 -1.979378,-2.240113 l -4.957627,-16.305085 30.682203,-19.169491 3.580507,0.93644 -2.974573,8.152544 z"
       style="fill:#c8daea;fill-opacity:1;stroke:none" />
    <path
       sodipodi:nodetypes="csccccc"
       inkscape:connector-curvature="0"
       id="path2989-7-2"
       d="m 54.466666,87.833334 c 1.3,0 1.876286,-0.592571 2.6,-1.3 1.117285,-1.092148 15.6,-15.166667 15.6,-15.166667 l -8.871169,-2.147214 -8.233334,5.2 L 54.466666,87.4 z"
       style="fill:#a9c9dd;fill-opacity:1;stroke:none" />
    <path
       sodipodi:nodetypes="ccccccccccc"
       inkscape:connector-curvature="0"
       id="path2991-1-0"
       d="m 55.351693,74.576272 20.956074,15.482497 c 2.391354,1.319444 4.117273,0.636289 4.713046,-2.220196 L 89.551036,47.641352 C 90.424384,44.13992 88.216334,42.551767 85.928612,43.590468 L 35.837888,62.910063 c -3.419036,1.37137 -3.399113,3.278869 -0.623213,4.128787 l 12.853763,4.01193 29.758409,-18.774284 c 1.40481,-0.851881 2.69415,-0.393895 1.635933,0.545311 z"
       style="fill:url(#linearGradient4060);fill-opacity:1;stroke:none" />
  </g>
  <path
     style="opacity:0.3;color:#000000;fill:none;stroke:#000000;stroke-width:1;stroke-linecap:round;stroke-linejoin:round;stroke-miterlimit:4;stroke-opacity:1;stroke-dasharray:none;stroke-dashoffset:0;marker:none;visibility:visible;display:inline;overflow:visible;enable-background:accumulate"
     id="path8655-6-1-6"
     inkscape:connector-curvature="0"
     d="M 15.5,7.9997423 C 15.5,12.142007 12.141889,15.5 8.000096,15.5 3.8579229,15.5 0.5,12.141968 0.5,7.9997423 0.5,3.8576697 3.8579229,0.50001776 8.000096,0.50001776 12.141889,0.50001776 15.5,3.8576697 15.5,7.9997423 l 0,0 z" />
  <path
     style="opacity:0.7;color:#000000;fill:none;stroke:url(#linearGradient4045);stroke-width:0.99999982;stroke-linecap:round;stroke-linejoin:round;stroke-miterlimit:4;stroke-opacity:1;stroke-dasharray:none;stroke-dashoffset:0;marker:none;visibility:visible;display:inline;overflow:visible;enable-background:accumulate"
     id="path8655-6-1-1-7"
     inkscape:connector-curvature="0"
     d="m 1.4999999,8.0002382 c 0,-3.5899623 2.910364,-6.5002216 6.4999193,-6.5002216 C 11.589801,1.5000166 14.5,4.4103089 14.5,8.0002382 14.5,11.590034 11.589801,14.5 7.9999192,14.5 4.4103639,14.5 1.4999999,11.590034 1.4999999,8.0002382 l 0,0 z" />
</svg>
