<?xml version="1.0" encoding="UTF-8" standalone="no"?>
<svg xmlns:rdf="http://www.w3.org/1999/02/22-rdf-syntax-ns#" xmlns="http://www.w3.org/2000/svg" height="64" width="64" version="1.1" xmlns:cc="http://creativecommons.org/ns#" xmlns:xlink="http://www.w3.org/1999/xlink" xmlns:dc="http://purl.org/dc/elements/1.1/">
<defs>
<linearGradient id="d" y2="44.261" gradientUnits="userSpaceOnUse" x2="97.539" gradientTransform="matrix(1.321 0 0 1.268 -70.73 .17381)" y1="16.962" x1="97.539">
<stop stop-color="#fff" offset="0"/>
<stop stop-color="#fff" stop-opacity=".23529" offset=".022122"/>
<stop stop-color="#fff" stop-opacity=".15686" offset=".97910"/>
<stop stop-color="#fff" stop-opacity=".39216" offset="1"/>
</linearGradient>
<linearGradient id="e" y2="36.658" gradientUnits="userSpaceOnUse" x2="22.809" gradientTransform="matrix(1.5433 0 0 1.3103 -5.0383 .34483)" y1="49.629" x1="22.935">
<stop stop-color="#0a0a0a" stop-opacity=".498" offset="0"/>
<stop stop-color="#0a0a0a" stop-opacity="0" offset="1"/>
</linearGradient>
<linearGradient id="f" y2="119.06" gradientUnits="userSpaceOnUse" x2="-91" gradientTransform="matrix(.50413 0 0 .49333 73.844 -1.4533)" y1="44" x1="-91">
<stop stop-color="#b4cee1" offset="0"/>
<stop stop-color="#5d9fcd" offset="1"/>
</linearGradient>
<radialGradient id="b" xlink:href="#a" gradientUnits="userSpaceOnUse" cy="486.65" cx="605.71" gradientTransform="matrix(-.040162 0 0 .032943 30.205 40.921)" r="117.14"/>
<linearGradient id="a">
<stop offset="0"/>
<stop stop-opacity="0" offset="1"/>
</linearGradient>
<linearGradient id="g" y2="609.51" gradientUnits="userSpaceOnUse" x2="302.86" gradientTransform="matrix(.10769 0 0 .032941 -6.9224 40.922)" y1="366.65" x1="302.86">
<stop stop-opacity="0" offset="0"/>
<stop offset=".5"/>
<stop stop-opacity="0" offset="1"/>
</linearGradient>
<radialGradient id="c" xlink:href="#a" gradientUnits="userSpaceOnUse" cy="486.65" cx="605.71" gradientTransform="matrix(.040162 0 0 .032943 33.797 40.921)" r="117.14"/>
<linearGradient id="h" y2="44.261" gradientUnits="userSpaceOnUse" x2="97.539" gradientTransform="matrix(1.275 0 0 1.2183 -67.159 -.33921)" y1="8.8103" x1="97.539">
<stop stop-color="#fff" offset="0"/>
<stop stop-color="#fff" stop-opacity=".23529" offset=".10883"/>
<stop stop-color="#fff" stop-opacity=".15686" offset=".97910"/>
<stop stop-color="#fff" stop-opacity=".39216" offset="1"/>
</linearGradient>
<linearGradient id="i" y2="3.6337" gradientUnits="userSpaceOnUse" x2="-51.786" gradientTransform="matrix(1.0564 0 0 1.0771 69.976 -2.5296)" y1="53.514" x1="-51.786">
<stop stop-opacity=".32174" offset="0"/>
<stop stop-opacity=".27826" offset="1"/>
</linearGradient>
<linearGradient id="j" y2="16.998" gradientUnits="userSpaceOnUse" x2="62.989" gradientTransform="matrix(1.3136 0 0 1.2901 -55.485 -1.2219)" y1="14.091" x1="62.989">
<stop stop-color="#f9f9f9" offset="0"/>
<stop stop-color="#c9c9c9" offset="1"/>
</linearGradient>
</defs>
<g>
<path style="color:#000000" d="m7.5007 10c-0.277 0-0.5 0.223-0.5 0.5v3.5h-2.5c-0.277 0-0.5 0.223-0.5 0.5v9.5c0 0.277 0.223 0.5 0.5 0.5h55c0.277 0 0.5-0.223 0.5-0.5v-9.5c0-0.277-0.223-0.5-0.5-0.5h-31.5v-3.5c0-0.277-0.223-0.5-0.5-0.5h-20z" fill="url(#j)"/>
<path opacity=".8" style="color:#000000" d="m8.0007 9.5002c-0.91501 0.0102-1.5 0.45618-1.5 1.3333v2.6666h-1.506c-0.99492 0-1.494 0.47358-1.494 1.3422 0.0456 13.72 0 14.493 0 15.658 1.9028 0 57-4.9328 57-7.0561v-8.4439c0-1.0001-0.49994-1.5-1.5-1.5h-30.5v-2.6666c0-0.87711-0.22453-1.3435-1.1395-1.3333z" stroke="url(#i)" fill="none"/>
<path stroke-linejoin="round" style="color:#000000" d="m7.5007 10.5v4h-3v10h55v-10h-32v-4h-20z" stroke="url(#h)" stroke-linecap="round" fill="none"/>
</g>
<g>
<g>
<path opacity=".3" d="m58.001 53v7.9999c2.0682 0.0151 5-1.7924 5-4.0005s-2.308-3.9994-5-3.9994z" fill="url(#c)"/>
<rect opacity=".3" height="8" width="52" y="53" x="6.0007" fill="url(#g)"/>
<path opacity=".3" d="m6.0007 53v7.9999c-2.0682 0.0151-5-1.7924-5-4.0005s2.308-3.9994 5-3.9994z" fill="url(#b)"/>
<path style="color:#000000" d="m2.5042 20.532c-1.4404 0.16346-0.87122 1.8529-0.98607 2.8029 0.5271 11.193 1.2595 21.809 1.7834 33.002 0 1.19 1.1949 1.1365 1.8652 1.1365h54.491c1.4628-0.14093 0.85463-1.8602 1.0604-2.8442 0.52711-11.193 1.2599-21.569 1.7838-32.762 0.0178-0.7521-0.50074-1.3352-1.2153-1.3352h-58.782z" fill="url(#f)"/>
</g>
<path opacity=".4" d="m2.4098 20 59.182 0.00053c0.85499 0 1.4091 0.5839 1.4091 1.3098l-1.6775 35.379c0 0.72593-0.68831 1.3103-1.5433 1.3103h-55.56c-0.85498 0-1.5433-0.58441-1.5433-1.3103l-1.6775-35.379c0-0.72594 0.5541-1.3104 1.4091-1.3104z" fill="url(#e)"/>
</g>
<path opacity=".5" stroke-linejoin="round" style="color:#000000" d="m61.069 21.5-57.118 0.031c-1.7092 0-1.4342 0.0338-1.4342 1.0758l1.6211 32.914c0.0163 0.94321-0.0656 0.9793 1.0726 0.9793h54.44c0.53983-11.582 1.258-22.682 1.8148-34.322 0.0519-0.55489 0.0134-0.67818-0.39606-0.67818z" stroke="url(#d)" stroke-linecap="round" fill="none"/>
<path opacity=".3" stroke-linejoin="round" style="color:#000000" d="m2.5042 20.532c-1.4404 0.16346-0.87122 1.8529-0.98607 2.8029 0.5271 11.193 1.2595 21.809 1.7834 33.002 0 1.19 1.1949 1.1365 1.8652 1.1365h54.491c1.4628-0.14093 0.85463-1.8602 1.0604-2.8442 0.52711-11.193 1.2599-21.569 1.7838-32.762 0.0178-0.7521-0.50074-1.3352-1.2153-1.3352h-58.782z" stroke="#000" stroke-linecap="round" fill="none"/>
<path opacity=".3" style="image-rendering:optimizeQuality;shape-rendering:geometricPrecision" d="m28.865 28 8.5195 15h8.1641l-8.548-15h-8.135zm-1.59 1.281-8.275 14.617 4.072 7.334 8.317-14.636-4.114-7.315zm1.725 15.719-4 7h16.5l3.836-7h-16.336z" fill-rule="evenodd" clip-rule="evenodd" fill="#fff"/>
<path style="image-rendering:optimizeQuality;shape-rendering:geometricPrecision" d="m28.865 27l8.52 15h8.164l-8.549-15h-8.135zm-1.59 1.281l-8.275 14.617 4.072 7.334 8.317-14.636-4.114-7.315zm1.725 15.719l-4 7h16.5l3.836-7h-16.336z" fill-rule="evenodd" fill-opacity=".55294" clip-rule="evenodd" fill="#175785"/>
</svg>
