<?xml version="1.0" encoding="UTF-8" standalone="no"?>
<svg xmlns:rdf="http://www.w3.org/1999/02/22-rdf-syntax-ns#" xmlns="http://www.w3.org/2000/svg" height="16" width="16" version="1.1" xmlns:cc="http://creativecommons.org/ns#" xmlns:dc="http://purl.org/dc/elements/1.1/" viewBox="0 0 16 16">
 <g opacity=".97" transform="translate(0 -1036.4)">
  <circle opacity="1" cx="8" cy="1044.4" r="8" fill="#3274b9"/>
  <path d="m8.2675 1036.4c0.25318 0.09 0.50637 0.1791 0.75955 0.2687-0.11508 0.2587-0.23016 0.5175-0.34524 0.7762-0.42895 0.1723-0.86486 0.3292-1.3119 0.4479l-0.31071 0.4179c-0.080552 0.04-0.1611 0.08-0.24165 0.1201-0.11508-0.209-0.23017-0.4179-0.34525-0.6269 0.092064-0.08 0.18413-0.1592 0.27619-0.2388v-0.2389c-0.23016-0.1293-0.46032-0.2587-0.69047-0.388 0.07193-0.059 0.1396-0.1267 0.21412-0.1809 0.37081-0.089 0.74072-0.1829 1.1121-0.2684 0.294-0.03 0.59146-0.057 0.8833-0.089z" fill="#60bf07"/>
  <path d="m3.5547 1.3555a8 8 0 0 0 -0.2266 0.1621c-0.0716 0.106-0.1863 0.1661-0.3066 0.2207a8 8 0 0 0 -2.8692 4.7246c0.00327 0.0429 0.00092 0.0873 0.00981 0.1289 0.08867 0.2229 0.28603 0.3291 0.48633 0.4336 0.27529 0.2049 0.62516 0.2268 0.94536 0.3203 0.1124 0.1762 0.255 0.3176 0.4492 0.4004 0.1317 0.1354 0.2947 0.0802 0.4531 0.0742 0.2445 0.024 0.1435 0.2114 0.0684 0.3613-0.0775 0.2192-0.1784 0.426-0.3379 0.5977 0.1162 0.1572-0.0711 0.3596-0.0352 0.5293 0.1681 0.2908 0.3145 0.5996 0.4961 0.8794 0.2622 0.209 0.5409 0.4 0.7598 0.658 0.002 0.234-0.0788 0.482-0.0196 0.709 0.058 0.16 0.1631 0.317 0.0723 0.486-0.0267 0.2-0.2203 0.472 0.0977 0.525 0.239 0.079 0.854 0.528 0.8925 0.33-0.0462-0.157 0.2336-0.193 0.2598-0.349 0.0294-0.202 0.2528-0.161 0.4023-0.213 0.1373-0.072 0.1636-0.286 0.2559-0.416 0.0751-0.146 0.2062-0.297 0.0137-0.41 0.0024-0.108 0.1509-0.314 0.3027-0.307 0.1633-0.032 0.3537-0.025 0.4082-0.217 0.0757-0.15 0.2481-0.282 0.166-0.464 0.0016-0.154-0.1113-0.34-0.0351-0.471 0.1108-0.1497 0.3005-0.2632 0.3613-0.4357 0.125-0.339-0.071-0.492-0.4043-0.5762-0.3437-0.2395-0.8585-0.2767-1.0898-0.6445-0.0918-0.1344-0.1633-0.2985-0.3536-0.2852-0.2007 0.012-0.2747-0.1426-0.3457-0.3027-0.0859-0.1267-0.1114-0.3646-0.3144-0.2793-0.1991 0-0.427 0.0958-0.5801-0.0762-0.1318-0.043-0.2693-0.2922-0.3965-0.1816-0.1504 0.1367-0.3594 0.2466-0.4746 0.4004-0.2292 0-0.6213 0.0211-0.6113-0.3262-0.0857-0.1038 0.0757-0.4021-0.1016-0.3652-0.4587 0.1853-0.1177-0.4125-0.1914-0.5957-0.2424-0.012-0.3308 0.2869-0.5703 0.2812-0.1283-0.028-0.38468-0.0667-0.33007-0.2519-0.01043-0.1822 0.02951-0.3627 0.04883-0.543 0.22564-0.1226 0.43234-0.2977 0.70314-0.2852 0.1484-0.046 0.1744-0.2684 0.3847-0.1386 0.186 0 0.3038 0.1025 0.3926 0.2558 0.1404 0.2602 0.1493 0.0727 0.1543-0.125 0.0118-0.1624-0.013-0.3454 0.1817-0.3984 0.1877-0.145 0.4542-0.2172 0.5273-0.4668 0.0775-0.1466 0.1267-0.3288 0.3242-0.3281 0.1665-0.03 0.3175-0.0807 0.3672-0.2598 0.045-0.1987 0.2449-0.1714 0.4043-0.2031 0.1825 0.013 0.2976-0.0932 0.3945-0.2344 0.2376-0.1846-0.0473-0.1317-0.2031-0.1367-0.1246-0.01-0.3963 0.0142-0.4336-0.0098 0.2212-0.085 0.4355-0.1992 0.6797-0.1601 0.2149 0.01 0.407-0.1153 0.6113-0.168 0.1684-0.1458 0.0245-0.2694-0.123-0.3438-0.2774 0.027-0.0469-0.1933-0.1875-0.3203-0.0497-0.2276-0.2621-0.0717-0.416-0.0547 0.0486-0.16 0.0662-0.3131-0.1543-0.3281-0.1716-0.1103-0.3022-0.0948-0.3692 0.1094-0.0986 0.1446-0.2052 0.2876-0.164 0.4726-0.152 0.074-0.3709 0.0722-0.4141 0.2696-0.0899 0.2225-0.1513 0.273-0.1543 0 0.0371-0.2097-0.2159-0.1814-0.3476-0.252-0.1395-0.062-0.3633-0.0481-0.334-0.2578-0.0613-0.1783 0.2397-0.1712 0.3457-0.2637 0.2355-0.093 0.4552-0.2104 0.6308-0.3964 0.1126-0.079 0.1577-0.3474 0.0782-0.4278-0.0735-0.0471-0.1531-0.0575-0.2344-0.0605z" transform="translate(0 1036.4)" fill="#60bf07"/>
  <path d="m10.678 0.47266c-0.544 0.0124-0.7669 0.50281-1.1663 0.74214-0.3745 0.065-0.1397 0.8806 0.1719 0.4356 0.295 0.047 0.7624 0.5227 0.7144-0.1211-0.273-0.3448 0.853-0.90686 0.436-0.3145-0.171 0.3872 0.173 0.2348 0.35 0.2657-0.418 0.1192-0.513 0.7858-1.034 0.6875-0.3694 0.1054-0.3286-0.5852-0.5309-0.0899 0.1846 0.2412-0.4424 0.0086-0.4629 0.3496-0.1131 0.3041-0.4998 0.3215-0.6757 0.4336 0.3785 0.1744 0.2962 0.4997-0.1114 0.4239-0.5211 0.1276-0.4229 0.8008 0.045 0.875 0.5011-0.027 0.5567-0.665 1.0039-0.7852 0.3476-0.2233 0.773 0.1754 0.869 0.3711-0.086 0.5702 0.526-0.3147 0.065-0.4434 0.468 0.016 0.382 0.7195 0.73 0.7735-0.061-0.4623 0.415-0.5249 0.518-0.0762 0.265 0.2493 0.792 0.0109 0.755 0.5391 0.086 0.1994 0.144 0.4109 0.217 0.6152-0.453 0.7441-1.339-0.0874-1.826 0.3887-0.423-0.023-0.724-0.7845-1.3065-0.5293-0.5736 0.09-1.1803 0.2094-1.5411 0.6992-0.4596 0.2683-0.1851 0.7632-0.2031 1.0879-0.4474 0.4625 0.2459 1.0794 0.5859 1.4004 0.1993 0.4222 0.532 0.2122 0.8165 0.0742 0.2276 0.3412 0.4901-0.351 0.7343 0.0449 0.418-0.1158 0.887 0.2217 0.512 0.6211 0.236 0.2508 0.396 0.4898 0.289 0.8613 0.389 0.3443 0.004 0.7393 0.045 1.1663-0.023 0.603 0.413 1.126 0.463 1.73 0.031 0.544 0.662-0.138 0.992 0.053 0.185-0.319 0.795-0.498 0.629-0.889 0.28-0.158 0.384-0.347 0.092-0.543 0.295-0.364 1.074-0.459 0.744-1.086-0.052-0.4905-0.002-0.9645 0.357-1.3336 0.247-0.4128 0.757-0.913 0.676-1.3711-0.229-0.012-0.727 0.1243-0.307-0.1836 0.319-0.281 0.793-0.4176 0.985-0.8203 0.092-0.2908-0.27-0.6873-0.444-0.2715-0.202-0.2526-0.69-0.4065-0.451-0.7695 0.304 0.3727 0.817 0.2046 1.09 0.6386 0.119-0.0238 0.188-0.0763 0.232-0.1406a8 8 0 0 0 -3.591 -4.8144c-0.071 0.0106-0.142 0.0347-0.213 0.0761-0.279-0.1197-0.38-0.30153-0.293-0.36129a8 8 0 0 0 -0.961 -0.41015z" transform="translate(0 1036.4)" fill="#60bf07"/>
 </g>
</svg>
