<?xml version="1.0" encoding="UTF-8" standalone="no"?>
<svg xmlns:rdf="http://www.w3.org/1999/02/22-rdf-syntax-ns#" xmlns="http://www.w3.org/2000/svg" height="16" width="16" version="1.1" enable-background="new" xmlns:cc="http://creativecommons.org/ns#" xmlns:dc="http://purl.org/dc/elements/1.1/" viewBox="0 0 16 16">
 <defs>
  <filter id="a" style="color-interpolation-filters:sRGB">
   <feBlend in2="BackgroundImage" mode="multiply"/>
  </filter>
 </defs>
 <g transform="translate(0 -1036.4)" filter="url(#a)">
  <path d="m8 0a8 8 0 0 0 -8 8 8 8 0 0 0 8 8 8 8 0 0 0 8 -8 8 8 0 0 0 -8 -8zm5 3v0.1035a7 7 0 0 0 -0.053 -0.0508l0.053-0.0527zm-10 9.896a7 7 0 0 0 0.0527 0.051l-0.0527 0.053v-0.104z" transform="translate(0 1036.4)" fill="#3d84cf"/>
  <path d="m8 1039.4c-2.4079 0-4.4323 1.7245-4.8984 4h2.0801c0.40905-1.1681 1.5027-2 2.8184-2 0.83585 0 1.5811 0.3364 2.1191 0.8809l-1.119 1.1h4v-4l-1.4805 1.4805c-0.907-1-2.1451-1.5-3.52-1.5zm-5 6v4l1.4805-1.4805c0.90624 0.9065 2.1447 1.4805 3.5195 1.4805 2.4072 0 4.4316-1.7254 4.8984-4h-2.0801c-0.40954 1.1671-1.5033 2-2.8184 2-0.83543 0-1.581-0.3364-2.1191-0.8809l1.1195-1.1h-1.8184-2.0801-0.10156z" fill="#fff"/>
 </g>
</svg>
