<?xml version="1.0" encoding="UTF-8" standalone="no"?>
<!-- Created with Inkscape (http://www.inkscape.org/) -->

<svg
   xmlns:dc="http://purl.org/dc/elements/1.1/"
   xmlns:cc="http://creativecommons.org/ns#"
   xmlns:rdf="http://www.w3.org/1999/02/22-rdf-syntax-ns#"
   xmlns:svg="http://www.w3.org/2000/svg"
   xmlns="http://www.w3.org/2000/svg"
   xmlns:xlink="http://www.w3.org/1999/xlink"
   xmlns:sodipodi="http://sodipodi.sourceforge.net/DTD/sodipodi-0.dtd"
   xmlns:inkscape="http://www.inkscape.org/namespaces/inkscape"
   width="48"
   height="48"
   id="svg2985"
   version="1.1"
   inkscape:version="0.48.4 r9939"
   sodipodi:docname="gimp.svg"
   style="enable-background:new">
  <defs
     id="defs2987">
    <linearGradient
       id="linearGradient3800">
      <stop
         style="stop-color:#d7f4ee;stop-opacity:1"
         offset="0"
         id="stop3802" />
      <stop
         id="stop3810"
         offset="0.13793121"
         style="stop-color:#6f8f90;stop-opacity:0.51764706;" />
      <stop
         id="stop3808"
         offset="0.91379285"
         style="stop-color:#6b8b8c;stop-opacity:0.49803922;" />
      <stop
         style="stop-color:#d7f4ee;stop-opacity:1;"
         offset="1"
         id="stop3804" />
    </linearGradient>
    <linearGradient
       id="linearGradient3012">
      <stop
         id="stop3016"
         offset="0"
         style="stop-color:#2a7fff;stop-opacity:1" />
      <stop
         id="stop3014"
         offset="1"
         style="stop-color:#214478;stop-opacity:1" />
    </linearGradient>
    <linearGradient
       inkscape:collect="always"
       xlink:href="#linearGradient3800"
       id="linearGradient3806"
       x1="6.2612567"
       y1="989.94366"
       x2="6.2612567"
       y2="1057.8004"
       gradientUnits="userSpaceOnUse"
       gradientTransform="matrix(0.59819708,0,0,0.59821505,4.8576961,418.96642)" />
    <filter
       inkscape:collect="always"
       id="filter3926"
       color-interpolation-filters="sRGB">
      <feBlend
         inkscape:collect="always"
         mode="darken"
         in2="BackgroundImage"
         id="feBlend3928" />
    </filter>
    <linearGradient
       id="linearGradient3688-166-749-4-0-3-8-2-5">
      <stop
         id="stop2883-4-0-1-8-4-4"
         style="stop-color:#181818;stop-opacity:1"
         offset="0" />
      <stop
         id="stop2885-9-2-9-6-0-4"
         style="stop-color:#181818;stop-opacity:0"
         offset="1" />
    </linearGradient>
    <radialGradient
       cx="4.9929786"
       cy="43.5"
       r="2.5"
       fx="4.9929786"
       fy="43.5"
       id="radialGradient3339-1-4-8-7"
       xlink:href="#linearGradient3688-464-309-9-2-4-2-3-5"
       gradientUnits="userSpaceOnUse"
       gradientTransform="matrix(2.3603984,0,0,0.74604664,-19.38066,-1081.3315)" />
    <linearGradient
       id="linearGradient3688-464-309-9-2-4-2-3-5">
      <stop
         id="stop2889-7-9-6-9-5-3"
         style="stop-color:#181818;stop-opacity:1"
         offset="0" />
      <stop
         id="stop2891-6-6-1-7-6-4"
         style="stop-color:#181818;stop-opacity:0"
         offset="1" />
    </linearGradient>
    <linearGradient
       gradientTransform="matrix(1.1779705,0,0,0.53289046,-4.1927333,1025.6977)"
       x1="25.058096"
       y1="47.027729"
       x2="25.058096"
       y2="39.999443"
       id="linearGradient6394-1-2"
       xlink:href="#linearGradient3702-501-757-8-4-1-1-3-2"
       gradientUnits="userSpaceOnUse" />
    <linearGradient
       id="linearGradient3702-501-757-8-4-1-1-3-2">
      <stop
         id="stop2895-8-9-9-1-4-6"
         style="stop-color:#181818;stop-opacity:0"
         offset="0" />
      <stop
         id="stop2897-7-8-7-7-6-7"
         style="stop-color:#181818;stop-opacity:1"
         offset="0.5" />
      <stop
         id="stop2899-4-5-1-5-7-6"
         style="stop-color:#181818;stop-opacity:0"
         offset="1" />
    </linearGradient>
    <radialGradient
       r="2.5"
       fy="43.5"
       fx="4.9929786"
       cy="43.5"
       cx="4.9929786"
       gradientTransform="matrix(2.3603984,0,0,0.74604664,28.776458,1016.4255)"
       gradientUnits="userSpaceOnUse"
       id="radialGradient3646"
       xlink:href="#linearGradient3688-166-749-4-0-3-8-2-5"
       inkscape:collect="always" />
    <radialGradient
       inkscape:collect="always"
       xlink:href="#linearGradient3012"
       id="radialGradient3086"
       cx="15.02338"
       cy="998.17773"
       fx="15.02338"
       fy="998.17773"
       r="27.5625"
       gradientUnits="userSpaceOnUse"
       gradientTransform="matrix(0.00497007,2.8843833,-1.7341643,0.00298847,1752.669,949.30266)" />
  </defs>
  <sodipodi:namedview
     id="base"
     pagecolor="#ffffff"
     bordercolor="#666666"
     borderopacity="1.0"
     inkscape:pageopacity="0.0"
     inkscape:pageshadow="2"
     inkscape:zoom="11.313708"
     inkscape:cx="2.4406006"
     inkscape:cy="43.068379"
     inkscape:document-units="px"
     inkscape:current-layer="layer1"
     showgrid="true"
     inkscape:snap-bbox="true"
     inkscape:window-width="1000"
     inkscape:window-height="410"
     inkscape:window-x="185"
     inkscape:window-y="186"
     inkscape:window-maximized="0"
     showguides="true"
     inkscape:guide-bbox="true"
     inkscape:snap-global="true"
     inkscape:snap-page="true">
    <inkscape:grid
       type="xygrid"
       id="grid2993"
       empspacing="5"
       visible="true"
       enabled="true"
       snapvisiblegridlinesonly="true"
       spacingx="0.5px"
       spacingy="0.5px"
       color="#ff00ff"
       opacity="0.1254902"
       empcolor="#ff00ff"
       empopacity="0.25098039" />
    <inkscape:grid
       type="xygrid"
       id="grid2995"
       empspacing="5"
       visible="true"
       enabled="true"
       snapvisiblegridlinesonly="true" />
  </sodipodi:namedview>
  <metadata
     id="metadata2990">
    <rdf:RDF>
      <cc:Work
         rdf:about="">
        <dc:format>image/svg+xml</dc:format>
        <dc:type
           rdf:resource="http://purl.org/dc/dcmitype/StillImage" />
        <dc:title />
      </cc:Work>
    </rdf:RDF>
  </metadata>
  <g
     inkscape:label="tile"
     inkscape:groupmode="layer"
     id="layer1"
     transform="translate(0,-1004.3622)"
     style="display:inline">
    <rect
       width="5.8898525"
       height="3.7302332"
       x="40.570145"
       y="1047.0133"
       id="rect2801-5-5-7-9-0"
       style="opacity:0.6;fill:url(#radialGradient3646);fill-opacity:1;stroke:none" />
    <rect
       width="5.8898525"
       height="3.7302332"
       x="-7.5869737"
       y="-1050.7435"
       transform="scale(-1,-1)"
       id="rect3696-3-0-3-7-8"
       style="opacity:0.6;fill:url(#radialGradient3339-1-4-8-7);fill-opacity:1;stroke:none" />
    <rect
       width="32.983173"
       height="3.7302337"
       x="7.5869737"
       y="1047.0133"
       id="rect3700-5-6-8-4-1"
       style="opacity:0.6;fill:url(#linearGradient6394-1-2);fill-opacity:1;stroke:none" />
    <rect
       y="1009.8028"
       x="4.4409995"
       height="39.12001"
       width="39.118019"
       id="rect2999"
       style="fill:url(#radialGradient3086);fill-opacity:1;stroke:none"
       rx="2.1724906"
       ry="2.1725571" />
    <rect
       style="opacity:0.5;fill:none;stroke:#00222b;stroke-width:1.00000024;stroke-miterlimit:4;stroke-opacity:1;stroke-dasharray:none"
       id="rect2997"
       width="39"
       height="39.017349"
       x="4.5"
       y="1009.8622"
       rx="2.1273181"
       ry="2.1282213" />
    <rect
       ry="1.4016216"
       rx="1.4016073"
       y="1010.813"
       x="5.4512196"
       height="37.098679"
       width="37.097561"
       id="rect3790"
       style="fill:none;stroke:url(#linearGradient3806);stroke-width:0.99999994;stroke-miterlimit:4;stroke-dasharray:none" />
  </g>
  <g
     style="opacity:0.15068491;display:inline;filter:url(#filter3926)"
     inkscape:label="wilbur copy#2"
     id="g5615"
     inkscape:groupmode="layer"
     transform="translate(0,-16)">
    <path
       inkscape:connector-curvature="0"
       id="path5617"
       d="m 40.985875,27.818431 c 0,0 -1.737474,6.407515 -9.641771,8.928738 -1.046388,-1.275988 -2.622324,-2.098252 -4.398778,-2.098252 -2.095828,0 -3.932328,1.147892 -4.931963,2.83487 -5.928449,-1.110976 -7.064708,-5.468849 -7.064708,-5.468849 -0.06563,2.07924 0.129184,4.392942 0.02222,6.473334 -0.642303,0.696579 -1.044154,1.641143 -1.044154,2.678622 0,0.397415 0.04794,0.776529 0.155512,1.138412 -0.04379,0.0713 -0.08812,0.151702 -0.133298,0.22322 -0.04756,-0.08646 -0.08184,-0.182258 -0.133294,-0.267864 -1.592134,-2.648871 -4.445051,-3.850325 -6.3760094,-2.678621 -1.9309583,1.171706 -2.2141844,4.270901 -0.6220497,6.919772 1.5800281,2.628728 4.4014651,3.828036 6.3315761,2.700944 2.977422,2.728366 8.06443,5.610224 16.151074,5.223311 16.702666,-0.799154 11.685644,-26.607637 11.685644,-26.607637 z m -14.040549,7.544782 c 2.776181,0 4.998614,2.252712 4.998614,5.022414 0,2.769705 -2.222433,5.000094 -4.998614,5.000094 -2.776181,0 -5.02083,-2.230389 -5.02083,-5.000094 0,-2.769702 2.244649,-5.022414 5.02083,-5.022414 z m -9.330746,2.6563 c 1.638132,0 2.976953,1.396479 2.976953,3.147381 0,1.750899 -1.338821,3.147377 -2.976953,3.147377 -1.638126,0 -2.97695,-1.396478 -2.97695,-3.147377 0,-1.750902 1.338824,-3.147381 2.97695,-3.147381 z m -8.5753975,1.808068 c 0.4523968,-0.0049 0.9306651,0.0986 1.4218285,0.312506 0.982326,0.427804 1.978978,1.297874 2.688143,2.477726 0.709164,1.179852 0.991298,2.454163 0.91086,3.526849 -0.08042,1.072689 -0.511098,1.907851 -1.266317,2.366116 -0.75522,0.458267 -1.705817,0.472446 -2.688143,0.04465 C 9.1232274,48.127621 8.1487916,47.257551 7.439627,46.077696 6.730462,44.897844 6.426113,43.623536 6.5065525,42.550847 6.5869925,41.478159 7.017648,40.642997 7.7728677,40.18473 8.1504776,39.955597 8.5867865,39.832409 9.0391825,39.82758 z m 24.3932325,7.120668 0.95529,1.450919 c -3.418096,2.899195 -5.796387,1.566683 -8.619829,2.075935 3.112984,-0.881911 7.205611,-1.233164 7.664539,-3.526854 z"
       style="fill:#000000;stroke:none" />
    <path
       inkscape:connector-curvature="0"
       id="path5619"
       d="m 27.604751,38.152675 c 0.376781,0.36742 0.599833,0.861323 0.599833,1.406275 0,1.13324 -0.989626,2.053609 -2.221604,2.053609 -0.443671,0 -0.874472,-0.1071 -1.221885,-0.312503 0.160464,1.421601 1.383325,2.522366 2.888088,2.522366 1.613719,0 2.910303,-1.265775 2.910303,-2.834873 0,-1.569102 -1.296584,-2.834874 -2.910303,-2.834874 -0.01475,0 -0.02972,-2.13e-4 -0.04444,0 z"
       style="fill:#000000;stroke:none" />
    <path
       inkscape:connector-curvature="0"
       id="path5621"
       d="m 18.562815,40.474146 c 0.04495,0.115175 0.06664,0.229247 0.06664,0.357149 0,0.645076 -0.613917,1.183057 -1.377397,1.183057 -0.151574,0 -0.307854,-0.02888 -0.444321,-0.06696 -0.0037,0.04373 -0.02222,0.08928 -0.02222,0.13393 0,0.889158 0.746558,1.607175 1.666204,1.607175 0.919648,0 1.666206,-0.718017 1.666206,-1.607175 0,-0.852269 -0.688417,-1.550762 -1.555124,-1.607171 z"
       style="fill:#000000;stroke:none" />
    <path
       sodipodi:type="arc"
       style="fill:#000000;stroke:none;display:inline"
       id="path5623"
       sodipodi:cx="6.6291261"
       sodipodi:cy="25.904623"
       sodipodi:rx="2.2980971"
       sodipodi:ry="2.032932"
       d="m 8.9272232,25.904623 a 2.2980971,2.032932 0 1 1 -4.5961943,0 2.2980971,2.032932 0 1 1 4.5961943,0 z"
       transform="matrix(0.71091389,0,0,0.71429897,4.3074113,23.645842)" />
  </g>
  <g
     inkscape:groupmode="layer"
     id="layer3"
     inkscape:label="wilbur"
     style="opacity:0.32191784;display:inline;filter:url(#filter3926)"
     transform="translate(0,-16)">
    <path
       style="fill:#000000;stroke:none"
       d="m 40.304153,28.342511 c 0,0 -1.6688,6.125265 -9.260655,8.535427 -1.005028,-1.219781 -2.518671,-2.005824 -4.224905,-2.005824 -2.012985,0 -3.776893,1.097328 -4.737016,2.709995 -5.694112,-1.062039 -6.785457,-5.227945 -6.785457,-5.227945 -0.06304,1.987648 0.124076,4.199431 0.02135,6.188181 -0.616917,0.665895 -1.002883,1.568851 -1.002883,2.560628 0,0.37991 0.04605,0.742323 0.149367,1.088265 -0.04206,0.06816 -0.08464,0.145019 -0.12803,0.213386 -0.04568,-0.08265 -0.07862,-0.174229 -0.128027,-0.256064 -1.529201,-2.532186 -4.269348,-3.680717 -6.12398,-2.560627 -1.8546319,1.120092 -2.1266628,4.082769 -0.5974614,6.614954 1.5175732,2.512932 4.2274864,3.659411 6.0813044,2.581967 2.859731,2.608182 7.745662,5.363092 15.512662,4.993223 C 45.12287,53.014127 40.30416,28.342511 40.30416,28.342511 z m -13.48556,7.212435 c 2.666445,0 4.801029,2.15348 4.801029,4.801176 0,2.647697 -2.134584,4.779838 -4.801029,4.779838 -2.666447,0 -4.822369,-2.132141 -4.822369,-4.779838 0,-2.647696 2.155922,-4.801176 4.822369,-4.801176 z m -8.961923,2.539289 c 1.573377,0 2.85928,1.334963 2.85928,3.008738 0,1.673772 -1.285903,3.008734 -2.85928,3.008734 -1.573377,0 -2.859282,-1.334962 -2.859282,-3.008734 0,-1.673775 1.285905,-3.008738 2.859282,-3.008738 z m -8.2364358,1.728422 c 0.4345148,-0.0046 0.8938788,0.09426 1.3656268,0.298741 0.943496,0.408957 1.900753,1.240701 2.581886,2.36858 0.681133,1.127883 0.952117,2.346057 0.874857,3.371494 -0.07726,1.025435 -0.490895,1.823806 -1.216264,2.261888 -0.725365,0.438077 -1.638389,0.451632 -2.581886,0.04268 C 9.700957,47.757079 8.7650381,46.925336 8.0839052,45.797457 7.4027719,44.669574 7.1104529,43.4514 7.1877129,42.425963 c 0.07726,-1.025436 0.4908932,-1.823807 1.216261,-2.261888 0.3626837,-0.21904 0.7817469,-0.336801 1.2162603,-0.341418 z m 23.4290268,6.807002 0.917531,1.387007 c -3.282986,2.771483 -5.567271,1.497668 -8.27911,1.984487 2.989937,-0.843062 6.920793,-1.178843 7.361579,-3.371494 z"
       id="path13631"
       inkscape:connector-curvature="0" />
    <path
       style="fill:#000000;stroke:none"
       d="m 27.451951,38.221532 c 0.361888,0.351234 0.576123,0.82338 0.576123,1.344326 0,1.083322 -0.950509,1.963152 -2.133792,1.963152 -0.426131,0 -0.839903,-0.102385 -1.173585,-0.298741 0.15412,1.35898 1.328645,2.411258 2.773929,2.411258 1.549935,0 2.795266,-1.210018 2.795266,-2.709998 0,-1.499983 -1.245331,-2.709997 -2.795266,-2.709997 -0.01416,0 -0.02854,-2.04e-4 -0.04268,0 z"
       id="path3813"
       inkscape:connector-curvature="0" />
    <path
       style="fill:#000000;stroke:none"
       d="m 18.76742,40.440741 c 0.04319,0.110102 0.06401,0.219149 0.06401,0.341418 0,0.616659 -0.589652,1.130941 -1.322951,1.130941 -0.145583,0 -0.295687,-0.0276 -0.426758,-0.06401 -0.0035,0.04181 -0.02135,0.08535 -0.02135,0.128031 0,0.84999 0.717048,1.536379 1.600342,1.536379 0.883296,0 1.600344,-0.686389 1.600344,-1.536379 0,-0.814727 -0.661204,-1.482451 -1.493653,-1.536375 z"
       id="path3815"
       inkscape:connector-curvature="0" />
    <path
       transform="matrix(0.68281319,0,0,0.68283394,5.0754987,24.353725)"
       d="m 8.9272232,25.904623 a 2.2980971,2.032932 0 1 1 -4.5961943,0 2.2980971,2.032932 0 1 1 4.5961943,0 z"
       sodipodi:ry="2.032932"
       sodipodi:rx="2.2980971"
       sodipodi:cy="25.904623"
       sodipodi:cx="6.6291261"
       id="path3833-1"
       style="fill:#000000;stroke:none;display:inline"
       sodipodi:type="arc" />
  </g>
  <g
     style="display:inline"
     inkscape:label="wilbur copy#1"
     id="g3916"
     inkscape:groupmode="layer"
     transform="translate(0,-16)">
    <path
       id="path3918"
       d="m 40.346299,27.51734 c 0,0 -1.668797,6.125263 -9.260654,8.535424 -1.005029,-1.219778 -2.51867,-2.005824 -4.224907,-2.005824 -2.012985,0 -3.776892,1.097328 -4.737017,2.709997 -5.694108,-1.06204 -6.785455,-5.227948 -6.785455,-5.227948 -0.06304,1.987648 0.124079,4.199431 0.02134,6.188182 -0.616915,0.665895 -1.002881,1.568854 -1.002881,2.560628 0,0.37991 0.04605,0.742326 0.149364,1.088268 -0.04206,0.06817 -0.08464,0.145018 -0.128026,0.213382 -0.04568,-0.08265 -0.07861,-0.174224 -0.128028,-0.256059 -1.529201,-2.532187 -4.2693486,-3.680721 -6.1239801,-2.560628 -1.854632,1.120089 -2.1266628,4.082768 -0.5974613,6.614954 1.5175736,2.512933 4.2274854,3.659408 6.0813044,2.581967 2.859731,2.608179 7.745662,5.363089 15.512663,4.99322 C 45.165014,52.188956 40.346302,27.51734 40.346302,27.51734 z m -13.485561,7.212435 c 2.666449,0 4.801033,2.15348 4.801033,4.801174 0,2.647696 -2.134584,4.779837 -4.801033,4.779837 -2.666446,0 -4.822367,-2.132141 -4.822367,-4.779837 0,-2.647694 2.155921,-4.801174 4.822367,-4.801174 z m -8.961923,2.539285 c 1.573377,0 2.859281,1.334968 2.859281,3.008739 0,1.673771 -1.285904,3.008738 -2.859281,3.008738 -1.573377,0 -2.859279,-1.334967 -2.859279,-3.008738 0,-1.673771 1.285902,-3.008739 2.859279,-3.008739 z m -8.2364321,1.728427 c 0.4345131,-0.0046 0.8938771,0.09426 1.3656251,0.29874 0.943498,0.408954 1.900755,1.240699 2.581888,2.368578 0.681134,1.127882 0.952113,2.346056 0.874854,3.371493 -0.07726,1.025435 -0.490893,1.823808 -1.216261,2.261887 -0.725368,0.438082 -1.63839,0.451636 -2.581887,0.04268 C 9.7431047,46.931905 8.807186,46.100163 8.1260526,44.972283 7.4449193,43.844401 7.1526003,42.626226 7.2298602,41.600788 7.30712,40.575354 7.7207535,39.776982 8.4461209,39.338905 8.8088047,39.119863 9.2278685,39.002102 9.6623829,38.997487 z m 23.4290271,6.807001 0.91753,1.387005 c -3.28299,2.771485 -5.567271,1.497667 -8.279109,1.984486 2.989937,-0.843062 6.92079,-1.17884 7.361579,-3.371491 z"
       style="fill:#ffffff;stroke:none"
       inkscape:connector-curvature="0" />
    <path
       inkscape:connector-curvature="0"
       id="path3920"
       d="m 27.451951,36.855864 c 0.361888,0.351233 0.576123,0.823378 0.576123,1.344328 0,1.083321 -0.950509,1.963147 -2.133792,1.963147 -0.426131,0 -0.839903,-0.102385 -1.173585,-0.29874 0.15412,1.358982 1.328645,2.411257 2.773929,2.411257 1.549935,0 2.795266,-1.210014 2.795266,-2.709998 0,-1.499978 -1.245331,-2.709994 -2.795266,-2.709994 -0.01416,0 -0.02854,-2.02e-4 -0.04268,0 z"
       style="fill:#ffffff;stroke:none" />
    <path
       inkscape:connector-curvature="0"
       id="path3922"
       d="m 18.76742,39.075074 c 0.04319,0.110102 0.06401,0.21915 0.06401,0.341414 0,0.61666 -0.589652,1.130946 -1.322951,1.130946 -0.145583,0 -0.295687,-0.02761 -0.426758,-0.06401 -0.0035,0.04181 -0.02135,0.08535 -0.02135,0.128033 0,0.849989 0.717048,1.536376 1.600342,1.536376 0.883296,0 1.600344,-0.686387 1.600344,-1.536376 0,-0.814731 -0.661204,-1.482451 -1.493653,-1.536377 z"
       style="fill:#ffffff;stroke:none" />
    <path
       sodipodi:type="arc"
       style="fill:#ffffff;stroke:none;display:inline"
       id="path3924"
       sodipodi:cx="6.6291261"
       sodipodi:cy="25.904623"
       sodipodi:rx="2.2980971"
       sodipodi:ry="2.032932"
       d="m 8.9272232,25.904623 a 2.2980971,2.032932 0 1 1 -4.5961943,0 2.2980971,2.032932 0 1 1 4.5961943,0 z"
       transform="matrix(0.68281319,0,0,0.68283394,5.0754987,22.988059)" />
  </g>
</svg>
