<?xml version="1.0" encoding="UTF-8" standalone="no"?>
<!-- Created with Inkscape (http://www.inkscape.org/) -->

<svg
   xmlns:dc="http://purl.org/dc/elements/1.1/"
   xmlns:cc="http://creativecommons.org/ns#"
   xmlns:rdf="http://www.w3.org/1999/02/22-rdf-syntax-ns#"
   xmlns:svg="http://www.w3.org/2000/svg"
   xmlns="http://www.w3.org/2000/svg"
   xmlns:xlink="http://www.w3.org/1999/xlink"
   xmlns:sodipodi="http://sodipodi.sourceforge.net/DTD/sodipodi-0.dtd"
   xmlns:inkscape="http://www.inkscape.org/namespaces/inkscape"
   width="64"
   height="64"
   id="svg2985"
   version="1.1"
   inkscape:version="0.48.4 r9939"
   sodipodi:docname="gimp.svg"
   enable-background="new">
  <defs
     id="defs2987">
    <linearGradient
       id="linearGradient3800">
      <stop
         style="stop-color:#d7f4ee;stop-opacity:1"
         offset="0"
         id="stop3802" />
      <stop
         id="stop3810"
         offset="0.13793121"
         style="stop-color:#6f8f90;stop-opacity:0.51764706;" />
      <stop
         id="stop3808"
         offset="0.91379285"
         style="stop-color:#6b8b8c;stop-opacity:0.49803922;" />
      <stop
         style="stop-color:#d7f4ee;stop-opacity:1;"
         offset="1"
         id="stop3804" />
    </linearGradient>
    <linearGradient
       id="linearGradient3012">
      <stop
         id="stop3016"
         offset="0"
         style="stop-color:#2a7fff;stop-opacity:1" />
      <stop
         id="stop3014"
         offset="1"
         style="stop-color:#214478;stop-opacity:1" />
    </linearGradient>
    <linearGradient
       inkscape:collect="always"
       xlink:href="#linearGradient3800"
       id="linearGradient3806"
       x1="6.2612567"
       y1="989.94366"
       x2="6.2612567"
       y2="1057.8004"
       gradientUnits="userSpaceOnUse"
       gradientTransform="matrix(0.85470636,0,0,0.85472335,4.6494137,148.23528)" />
    <filter
       inkscape:collect="always"
       id="filter3926">
      <feBlend
         inkscape:collect="always"
         mode="darken"
         in2="BackgroundImage"
         id="feBlend3928" />
    </filter>
    <linearGradient
       id="linearGradient3688-166-749-4-0-3-8-2-5">
      <stop
         id="stop2883-4-0-1-8-4-4"
         style="stop-color:#181818;stop-opacity:1"
         offset="0" />
      <stop
         id="stop2885-9-2-9-6-0-4"
         style="stop-color:#181818;stop-opacity:0"
         offset="1" />
    </linearGradient>
    <radialGradient
       cx="4.9929786"
       cy="43.5"
       r="2.5"
       fx="4.9929786"
       fy="43.5"
       id="radialGradient3339-1-4-8-7"
       xlink:href="#linearGradient3688-464-309-9-2-4-2-3-5"
       gradientUnits="userSpaceOnUse"
       gradientTransform="matrix(3.1638751,0,0,0.99999998,-25.808242,-1091.3622)" />
    <linearGradient
       id="linearGradient3688-464-309-9-2-4-2-3-5">
      <stop
         id="stop2889-7-9-6-9-5-3"
         style="stop-color:#181818;stop-opacity:1"
         offset="0" />
      <stop
         id="stop2891-6-6-1-7-6-4"
         style="stop-color:#181818;stop-opacity:0"
         offset="1" />
    </linearGradient>
    <linearGradient
       gradientTransform="matrix(1.5789502,0,0,0.7142857,-5.7895045,1016.7907)"
       x1="25.058096"
       y1="47.027729"
       x2="25.058096"
       y2="39.999443"
       id="linearGradient6394-1-2"
       xlink:href="#linearGradient3702-501-757-8-4-1-1-3-2"
       gradientUnits="userSpaceOnUse" />
    <linearGradient
       id="linearGradient3702-501-757-8-4-1-1-3-2">
      <stop
         id="stop2895-8-9-9-1-4-6"
         style="stop-color:#181818;stop-opacity:0"
         offset="0" />
      <stop
         id="stop2897-7-8-7-7-6-7"
         style="stop-color:#181818;stop-opacity:1"
         offset="0.5" />
      <stop
         id="stop2899-4-5-1-5-7-6"
         style="stop-color:#181818;stop-opacity:0"
         offset="1" />
    </linearGradient>
    <radialGradient
       r="2.5"
       fy="43.5"
       fx="4.9929786"
       cy="43.5"
       cx="4.9929786"
       gradientTransform="matrix(3.1638751,0,0,0.99999998,38.402359,1004.3622)"
       gradientUnits="userSpaceOnUse"
       id="radialGradient3646"
       xlink:href="#linearGradient3688-166-749-4-0-3-8-2-5"
       inkscape:collect="always" />
    <radialGradient
       inkscape:collect="always"
       xlink:href="#linearGradient3012"
       id="radialGradient3086"
       cx="15.02338"
       cy="998.17773"
       fx="15.02338"
       fy="998.17773"
       r="27.5625"
       gradientUnits="userSpaceOnUse"
       gradientTransform="matrix(0.00700352,4.0643681,-2.4436754,0.00421103,2467.9318,907.55042)" />
  </defs>
  <sodipodi:namedview
     id="base"
     pagecolor="#ffffff"
     bordercolor="#666666"
     borderopacity="1.0"
     inkscape:pageopacity="0.0"
     inkscape:pageshadow="2"
     inkscape:zoom="4"
     inkscape:cx="15.115381"
     inkscape:cy="19.623146"
     inkscape:document-units="px"
     inkscape:current-layer="g3916"
     showgrid="false"
     inkscape:snap-bbox="true"
     inkscape:window-width="1366"
     inkscape:window-height="713"
     inkscape:window-x="0"
     inkscape:window-y="30"
     inkscape:window-maximized="1"
     showguides="true"
     inkscape:guide-bbox="true"
     inkscape:snap-global="true">
    <inkscape:grid
       type="xygrid"
       id="grid2993"
       empspacing="5"
       visible="true"
       enabled="true"
       snapvisiblegridlinesonly="true"
       spacingx="0.5px"
       spacingy="0.5px"
       color="#ff00ff"
       opacity="0.1254902"
       empcolor="#ff00ff"
       empopacity="0.25098039" />
    <inkscape:grid
       type="xygrid"
       id="grid2995"
       empspacing="5"
       visible="true"
       enabled="true"
       snapvisiblegridlinesonly="true" />
  </sodipodi:namedview>
  <metadata
     id="metadata2990">
    <rdf:RDF>
      <cc:Work
         rdf:about="">
        <dc:format>image/svg+xml</dc:format>
        <dc:type
           rdf:resource="http://purl.org/dc/dcmitype/StillImage" />
        <dc:title />
      </cc:Work>
    </rdf:RDF>
  </metadata>
  <g
     inkscape:label="tile"
     inkscape:groupmode="layer"
     id="layer1"
     transform="translate(0,-988.36218)"
     style="display:inline"
     sodipodi:insensitive="true">
    <rect
       width="7.8947511"
       height="5"
       x="54.210602"
       y="1045.3622"
       id="rect2801-5-5-7-9-0"
       style="opacity:0.6;fill:url(#radialGradient3646);fill-opacity:1;stroke:none" />
    <rect
       width="7.8947511"
       height="5"
       x="-10"
       y="-1050.3622"
       transform="scale(-1,-1)"
       id="rect3696-3-0-3-7-8"
       style="opacity:0.6;fill:url(#radialGradient3339-1-4-8-7);fill-opacity:1;stroke:none" />
    <rect
       width="44.210606"
       height="5.0000005"
       x="10"
       y="1045.3622"
       id="rect3700-5-6-8-4-1"
       style="opacity:0.6;fill:url(#linearGradient6394-1-2);fill-opacity:1;stroke:none" />
    <rect
       y="992.80084"
       x="4.4386849"
       height="55.123791"
       width="55.122662"
       id="rect2999"
       style="fill:url(#radialGradient3086);fill-opacity:1;stroke:none"
       rx="3.0613377"
       ry="3.0613377" />
    <rect
       style="opacity:0.5;fill:none;stroke:#00222b;stroke-width:1;stroke-miterlimit:4;stroke-opacity:1;stroke-dasharray:none"
       id="rect2997"
       width="54.999897"
       height="55.001026"
       x="4.5000696"
       y="992.86212"
       rx="3.0000584"
       ry="3.0000584" />
    <rect
       ry="2.0026219"
       rx="2.0026219"
       y="993.85956"
       x="5.4974427"
       height="53.006191"
       width="53.005142"
       id="rect3790"
       style="fill:none;stroke:url(#linearGradient3806);stroke-width:0.99260414;stroke-miterlimit:4;stroke-dasharray:none" />
  </g>
  <g
     style="opacity:0.15068491;display:inline;filter:url(#filter3926)"
     inkscape:label="wilbur copy#2"
     id="g5615"
     inkscape:groupmode="layer"
     sodipodi:insensitive="true">
    <path
       inkscape:connector-curvature="0"
       id="path5617"
       d="m 55.935429,13.425565 c 0,0 -2.448343,9.028793 -13.586577,12.581433 -1.474506,-1.797985 -3.695215,-2.956636 -6.198484,-2.956636 -2.953309,0 -5.541188,1.617491 -6.949814,3.994604 -8.353996,-1.565473 -9.955141,-7.706127 -9.955141,-7.706127 -0.09247,2.929846 0.182037,6.19007 0.03131,9.121539 -0.905094,0.981544 -1.471357,2.312526 -1.471357,3.774429 0,0.559996 0.06756,1.094206 0.219139,1.604133 -0.06171,0.100463 -0.124171,0.213761 -0.187834,0.314536 -0.06702,-0.121834 -0.115325,-0.256817 -0.187832,-0.377444 -2.243536,-3.732507 -6.263686,-5.425472 -8.9846711,-3.774428 -2.7209849,1.651041 -3.1200893,6.018102 -0.8765533,9.75061 2.2264764,3.704125 6.2022684,5.394061 8.9220604,3.805883 4.195595,3.844526 11.363887,7.905333 22.759079,7.360137 C 63.0051,49.792153 55.935429,13.425565 55.935429,13.425565 z M 36.150368,24.056876 c 3.912022,0 7.043732,3.174284 7.043732,7.077055 0,3.902773 -3.13171,7.045602 -7.043732,7.045602 -3.91202,0 -7.075037,-3.142829 -7.075037,-7.045602 0,-3.902771 3.163017,-7.077055 7.075037,-7.077055 z M 23.00207,27.799853 c 2.308348,0 4.194934,1.967772 4.194934,4.434954 0,2.467184 -1.886586,4.434955 -4.194934,4.434955 -2.308347,0 -4.194933,-1.967771 -4.194933,-4.434955 0,-2.467182 1.886586,-4.434954 4.194933,-4.434954 z m -12.083914,2.547739 c 0.63749,-0.0068 1.311435,0.138944 2.003551,0.44035 1.384233,0.602814 2.788652,1.828824 3.787963,3.491348 0.99931,1.662525 1.396874,3.458147 1.283525,4.969666 -0.113351,1.511518 -0.720205,2.688338 -1.784413,3.334079 -1.064208,0.645742 -2.40373,0.665721 -3.787962,0.06292 C 11.036587,42.043129 9.6634731,40.81712 8.6641629,39.154596 7.6648523,37.492071 7.2359827,35.696448 7.3493329,34.18493 7.4626832,32.673409 8.0695366,31.496591 9.1337449,30.850849 9.665849,30.527979 10.280668,30.354397 10.918156,30.347592 z m 34.373411,10.033692 1.346135,2.044483 c -4.816567,4.085238 -8.167905,2.207601 -12.146523,2.925184 4.386623,-1.242694 10.153696,-1.737642 10.800388,-4.969667 z"
       style="fill:#000000;stroke:none" />
    <path
       inkscape:connector-curvature="0"
       id="path5619"
       d="m 37.079588,27.987491 c 0.530937,0.517728 0.845248,1.213683 0.845248,1.981574 0,1.596841 -1.394519,2.89373 -3.130547,2.89373 -0.625191,0 -1.232247,-0.150917 -1.721801,-0.44035 0.226113,2.003172 1.949293,3.554255 4.069711,3.554255 2.273953,0 4.101017,-1.783597 4.101017,-3.994606 0,-2.211009 -1.827064,-3.994603 -4.101017,-3.994603 -0.02079,0 -0.04189,-3e-4 -0.06262,0 z"
       style="fill:#000000;stroke:none" />
    <path
       inkscape:connector-curvature="0"
       id="path5621"
       d="m 24.338261,31.258662 c 0.06336,0.162293 0.09391,0.323031 0.09391,0.503257 0,0.908971 -0.865091,1.66704 -1.94094,1.66704 -0.213587,0 -0.433809,-0.04069 -0.626109,-0.09435 -0.0052,0.06162 -0.03131,0.125802 -0.03131,0.18872 0,1.252906 1.052002,2.264659 2.34791,2.264659 1.295908,0 2.34791,-1.011753 2.34791,-2.264659 0,-1.20093 -0.970072,-2.185171 -2.191383,-2.264657 z"
       style="fill:#000000;stroke:none" />
    <path
       sodipodi:type="arc"
       style="fill:#000000;stroke:none;display:inline"
       id="path5623"
       sodipodi:cx="6.6291261"
       sodipodi:cy="25.904623"
       sodipodi:rx="2.2980971"
       sodipodi:ry="2.032932"
       d="m 8.9272232,25.904623 a 2.2980971,2.032932 0 1 1 -4.5961943,0 2.2980971,2.032932 0 1 1 4.5961943,0 z"
       transform="matrix(1.0017752,0,0,1.0065146,4.2504416,7.545993)" />
  </g>
  <g
     inkscape:groupmode="layer"
     id="layer3"
     inkscape:label="wilbur"
     style="opacity:0.32191784;display:inline;filter:url(#filter3926)"
     sodipodi:insensitive="true">
    <path
       style="fill:#000000;stroke:none"
       d="m 54.974787,14.164046 c 0,0 -2.351566,8.631073 -13.049532,12.027218 -1.416223,-1.718784 -3.549153,-2.826396 -5.953473,-2.826396 -2.836572,0 -5.322159,1.546241 -6.675105,3.818642 -8.023783,-1.496514 -9.561639,-7.366671 -9.561639,-7.366671 -0.08881,2.800785 0.174842,5.917396 0.03007,8.719733 -0.869318,0.938307 -1.413198,2.210659 -1.413198,3.608165 0,0.535328 0.06489,1.046006 0.210477,1.53347 -0.05927,0.09604 -0.119263,0.204345 -0.180409,0.300681 -0.06437,-0.116467 -0.110767,-0.245504 -0.180408,-0.360817 -2.154854,-3.56809 -6.016098,-5.186479 -8.6295287,-3.608165 -2.613431,1.578313 -2.9967598,5.753004 -0.8419053,9.321094 2.138469,3.540958 5.957108,5.156452 8.569393,3.638233 4.029753,3.675174 10.9147,7.557102 21.859468,7.035922 22.606014,-1.076477 15.81579,-35.841109 15.81579,-35.841109 z M 35.971782,24.327045 c 3.757389,0 6.76531,3.034457 6.76531,6.76531 0,3.730854 -3.007921,6.735242 -6.76531,6.735242 -3.757388,0 -6.795378,-3.004388 -6.795378,-6.735242 0,-3.730853 3.03799,-6.76531 6.795378,-6.76531 z m -12.628578,3.578098 c 2.217104,0 4.029118,1.881091 4.029118,4.239594 0,2.358503 -1.812014,4.239594 -4.029118,4.239594 -2.217104,0 -4.029118,-1.881091 -4.029118,-4.239594 0,-2.358503 1.812014,-4.239594 4.029118,-4.239594 z m -11.606266,2.435511 c 0.612291,-0.0065 1.259597,0.132823 1.924355,0.420953 1.329518,0.576259 2.678423,1.748263 3.638234,3.337553 0.95981,1.58929 1.341659,3.305814 1.23279,4.750751 -0.10887,1.444936 -0.691737,2.569916 -1.713879,3.187213 -1.022142,0.617296 -2.308716,0.636395 -3.638233,0.06014 C 11.850687,41.521 10.531849,40.348997 9.5720393,38.759707 8.6122291,37.170417 8.2003116,35.453892 8.3091814,34.008956 8.4180512,32.564019 9.0009172,31.439039 10.02306,30.821743 c 0.511071,-0.308648 1.101588,-0.474584 1.713878,-0.481089 z m 33.014713,9.591706 1.292926,1.954423 c -4.62618,3.905283 -7.845048,2.110356 -11.666401,2.796329 4.213231,-1.187953 9.752345,-1.661099 10.373475,-4.750752 z"
       id="path13631"
       inkscape:connector-curvature="0" />
    <path
       style="fill:#000000;stroke:none"
       d="m 36.864272,28.084515 c 0.50995,0.494923 0.811837,1.16022 0.811837,1.894286 0,1.5265 -1.339397,2.766261 -3.006804,2.766261 -0.600479,0 -1.183539,-0.14427 -1.653742,-0.420953 0.217175,1.914932 1.872242,3.397689 3.908845,3.397689 2.184069,0 3.938914,-1.705028 3.938914,-3.818642 0,-2.113614 -1.754845,-3.818641 -3.938914,-3.818641 -0.01997,0 -0.04023,-2.86e-4 -0.06014,0 z"
       id="path3813"
       inkscape:connector-curvature="0" />
    <path
       style="fill:#000000;stroke:none"
       d="m 24.626578,31.211591 c 0.06086,0.155144 0.0902,0.308801 0.0902,0.481089 0,0.86893 -0.830896,1.593606 -1.864219,1.593606 -0.205144,0 -0.416662,-0.0389 -0.60136,-0.0902 -0.005,0.05891 -0.03007,0.120261 -0.03007,0.180408 0,1.197715 1.010419,2.1649 2.255103,2.1649 1.244684,0 2.255103,-0.967185 2.255103,-2.1649 0,-1.14803 -0.931728,-2.088914 -2.104763,-2.164899 z"
       id="path3815"
       inkscape:connector-curvature="0" />
    <path
       transform="matrix(0.96217743,0,0,0.96217743,5.3327817,8.5434699)"
       d="m 8.9272232,25.904623 a 2.2980971,2.032932 0 1 1 -4.5961943,0 2.2980971,2.032932 0 1 1 4.5961943,0 z"
       sodipodi:ry="2.032932"
       sodipodi:rx="2.2980971"
       sodipodi:cy="25.904623"
       sodipodi:cx="6.6291261"
       id="path3833-1"
       style="fill:#000000;stroke:none;display:inline"
       sodipodi:type="arc" />
  </g>
  <g
     style="display:inline"
     inkscape:label="wilbur copy#1"
     id="g3916"
     inkscape:groupmode="layer"
     sodipodi:insensitive="true">
    <path
       id="path3918"
       d="m 55.034178,13.0013 c 0,0 -2.351565,8.631073 -13.049531,12.027218 -1.416224,-1.718784 -3.549153,-2.826396 -5.953473,-2.826396 -2.836572,0 -5.32216,1.546241 -6.675106,3.818641 -8.023782,-1.496513 -9.561638,-7.366671 -9.561638,-7.366671 -0.08881,2.800785 0.174842,5.917396 0.03007,8.719733 -0.869319,0.938308 -1.413198,2.21066 -1.413198,3.608166 0,0.535327 0.06489,1.046006 0.210476,1.53347 -0.05927,0.09605 -0.119263,0.204344 -0.180408,0.30068 -0.06437,-0.116466 -0.110768,-0.245503 -0.180409,-0.360816 -2.154854,-3.56809 -6.016098,-5.186479 -8.6295283,-3.608165 -2.6134309,1.578313 -2.9967597,5.753004 -0.8419052,9.321093 2.1384695,3.540959 5.9571075,5.156453 8.5693925,3.638234 4.029753,3.675174 10.9147,7.557102 21.859469,7.035922 C 61.824403,47.765932 55.034178,13.0013 55.034178,13.0013 z M 36.031174,23.164299 c 3.757388,0 6.76531,3.034457 6.76531,6.76531 0,3.730854 -3.007922,6.735242 -6.76531,6.735242 -3.757389,0 -6.795378,-3.004388 -6.795378,-6.735242 0,-3.730853 3.037989,-6.76531 6.795378,-6.76531 z m -12.628579,3.578097 c 2.217104,0 4.029118,1.881092 4.029118,4.239595 0,2.358502 -1.812014,4.239594 -4.029118,4.239594 -2.217104,0 -4.029118,-1.881092 -4.029118,-4.239594 0,-2.358503 1.812014,-4.239595 4.029118,-4.239595 z M 11.79633,29.177908 c 0.61229,-0.0065 1.259596,0.132823 1.924355,0.420953 1.329517,0.576259 2.678423,1.748263 3.638233,3.337553 0.959811,1.58929 1.341659,3.305814 1.23279,4.750751 -0.108869,1.444936 -0.691736,2.569916 -1.713879,3.187212 -1.022142,0.617297 -2.308716,0.636396 -3.638233,0.06014 C 11.910078,40.358254 10.591241,39.186251 9.6314307,37.596961 8.6716205,36.00767 8.259703,34.291146 8.3685728,32.846209 8.4774426,31.401273 9.0603087,30.276293 10.082451,29.658997 10.593522,29.350348 11.18404,29.184412 11.79633,29.177908 z m 33.014713,9.591706 1.292926,1.954423 c -4.626181,3.905283 -7.845048,2.110355 -11.666402,2.796328 4.213231,-1.187952 9.752345,-1.661098 10.373476,-4.750751 z"
       style="fill:#ffffff;stroke:none"
       inkscape:connector-curvature="0" />
    <path
       inkscape:connector-curvature="0"
       id="path3920"
       d="m 36.864272,26.16016 c 0.50995,0.494923 0.811837,1.16022 0.811837,1.894287 0,1.526499 -1.339397,2.76626 -3.006804,2.76626 -0.600479,0 -1.183539,-0.14427 -1.653742,-0.420953 0.217175,1.914932 1.872242,3.397689 3.908845,3.397689 2.184069,0 3.938914,-1.705027 3.938914,-3.818642 0,-2.113614 -1.754845,-3.818641 -3.938914,-3.818641 -0.01997,0 -0.04023,-2.86e-4 -0.06014,0 z"
       style="fill:#ffffff;stroke:none" />
    <path
       inkscape:connector-curvature="0"
       id="path3922"
       d="m 24.626578,29.287236 c 0.06086,0.155144 0.0902,0.308802 0.0902,0.481089 0,0.86893 -0.830896,1.593606 -1.864219,1.593606 -0.205144,0 -0.416662,-0.0389 -0.60136,-0.0902 -0.005,0.05891 -0.03007,0.120261 -0.03007,0.180409 0,1.197714 1.010419,2.164899 2.255103,2.164899 1.244684,0 2.255103,-0.967185 2.255103,-2.164899 0,-1.148031 -0.931728,-2.088915 -2.104763,-2.1649 z"
       style="fill:#ffffff;stroke:none" />
    <path
       sodipodi:type="arc"
       style="fill:#ffffff;stroke:none;display:inline"
       id="path3924"
       sodipodi:cx="6.6291261"
       sodipodi:cy="25.904623"
       sodipodi:rx="2.2980971"
       sodipodi:ry="2.032932"
       d="m 8.9272232,25.904623 a 2.2980971,2.032932 0 1 1 -4.5961943,0 2.2980971,2.032932 0 1 1 4.5961943,0 z"
       transform="matrix(0.96217743,0,0,0.96217743,5.3327817,6.6191151)" />
  </g>
</svg>
