<?xml version="1.0" encoding="UTF-8" standalone="no"?>
<!-- Created with Inkscape (http://www.inkscape.org/) -->

<svg
   xmlns:dc="http://purl.org/dc/elements/1.1/"
   xmlns:cc="http://creativecommons.org/ns#"
   xmlns:rdf="http://www.w3.org/1999/02/22-rdf-syntax-ns#"
   xmlns:svg="http://www.w3.org/2000/svg"
   xmlns="http://www.w3.org/2000/svg"
   xmlns:xlink="http://www.w3.org/1999/xlink"
   xmlns:sodipodi="http://sodipodi.sourceforge.net/DTD/sodipodi-0.dtd"
   xmlns:inkscape="http://www.inkscape.org/namespaces/inkscape"
   version="1.1"
   width="64"
   height="64"
   id="svg3489"
   inkscape:version="0.91 r"
   sodipodi:docname="atom.svg">
  <sodipodi:namedview
     pagecolor="#ffffff"
     bordercolor="#666666"
     borderopacity="1"
     objecttolerance="10"
     gridtolerance="10"
     guidetolerance="10"
     inkscape:pageopacity="0"
     inkscape:pageshadow="2"
     inkscape:window-width="1280"
     inkscape:window-height="745"
     id="namedview154"
     showgrid="true"
     inkscape:zoom="7.375"
     inkscape:cx="41.9904"
     inkscape:cy="34.251169"
     inkscape:window-x="0"
     inkscape:window-y="30"
     inkscape:window-maximized="1"
     inkscape:current-layer="layer1">
    <inkscape:grid
       type="xygrid"
       id="grid11365" />
  </sodipodi:namedview>
  <defs
     id="defs3491">
    <linearGradient
       inkscape:collect="always"
       id="linearGradient11409">
      <stop
         style="stop-color:#ffffff;stop-opacity:1"
         offset="0"
         id="stop11411" />
      <stop
         style="stop-color:#cee7dd;stop-opacity:1"
         offset="1"
         id="stop11413" />
    </linearGradient>
    <linearGradient
       x1="71.204407"
       y1="15.369057"
       x2="71.204407"
       y2="40.495617"
       id="linearGradient5013"
       xlink:href="#linearGradient4806"
       gradientUnits="userSpaceOnUse"
       gradientTransform="matrix(2.3268746,0,0,2.3268746,-135.94475,-32.842783)" />
    <linearGradient
       id="linearGradient4806">
      <stop
         id="stop4808"
         style="stop-color:#ffffff;stop-opacity:1"
         offset="0" />
      <stop
         id="stop4810"
         style="stop-color:#ffffff;stop-opacity:0.23529412"
         offset="0.42447853" />
      <stop
         id="stop4812"
         style="stop-color:#ffffff;stop-opacity:0.15686275"
         offset="0.82089913" />
      <stop
         id="stop4814"
         style="stop-color:#ffffff;stop-opacity:0.39215687"
         offset="1" />
    </linearGradient>
    <radialGradient
       cx="23.896"
       cy="3.99"
       r="20.396999"
       fx="23.896"
       fy="3.99"
       id="radialGradient6874-1-9"
       xlink:href="#radialGradient3093-0-3-6"
       gradientUnits="userSpaceOnUse"
       gradientTransform="matrix(0,4.1566535,-5.4867089,0,53.892518,-97.439545)" />
    <radialGradient
       cx="23.896"
       cy="3.99"
       r="20.396999"
       id="radialGradient3093-0-3-6"
       gradientUnits="userSpaceOnUse"
       gradientTransform="matrix(0,1.2316483,-1.625754,0,18.486966,-28.721977)">
      <stop
         id="stop3244-9-33-7-0"
         style="stop-color:#b1e198;stop-opacity:1"
         offset="0" />
      <stop
         id="stop3246-3-5-0-8"
         style="stop-color:#71c586;stop-opacity:1"
         offset="0.26238" />
      <stop
         id="stop3248-1-7-8-8"
         style="stop-color:#04a171;stop-opacity:1"
         offset="0.66093999" />
      <stop
         id="stop3250-9-3-0-5"
         style="stop-color:#108562;stop-opacity:1"
         offset="1" />
    </radialGradient>
    <linearGradient
       id="linearGradient3820-7-2">
      <stop
         id="stop3822-2-6"
         style="stop-color:#3d3d3d;stop-opacity:1"
         offset="0" />
      <stop
         id="stop3864-8-7"
         style="stop-color:#686868;stop-opacity:0.49803922"
         offset="0.5" />
      <stop
         id="stop3824-1-2"
         style="stop-color:#686868;stop-opacity:0"
         offset="1" />
    </linearGradient>
    <radialGradient
       cx="99.157013"
       cy="186.17059"
       r="62.769119"
       fx="99.157013"
       fy="186.17059"
       id="radialGradient3487"
       xlink:href="#linearGradient3820-7-2"
       gradientUnits="userSpaceOnUse"
       gradientTransform="matrix(1,0,0,0.1666667,0,155.14216)" />
    <linearGradient
       inkscape:collect="always"
       xlink:href="#linearGradient11409"
       id="linearGradient11415"
       x1="30"
       y1="11.123633"
       x2="30"
       y2="54"
       gradientUnits="userSpaceOnUse" />
  </defs>
  <metadata
     id="metadata3494">
    <rdf:RDF>
      <cc:Work
         rdf:about="">
        <dc:format>image/svg+xml</dc:format>
        <dc:type
           rdf:resource="http://purl.org/dc/dcmitype/StillImage" />
        <dc:title />
      </cc:Work>
    </rdf:RDF>
  </metadata>
  <g
     id="layer1">
    <path
       d="m 161.92613,186.17059 a 62.769119,10.461519 0 1 1 -125.538236,0 62.769119,10.461519 0 1 1 125.538236,0 z"
       inkscape:connector-curvature="0"
       id="path3818-0"
       style="fill:url(#radialGradient3487);fill-opacity:1;stroke:none"
       transform="matrix(0.38235362,0,0,0.71691308,-5.913044,-76.968133)" />
    <path
       d="m 32,2.4999994 c -16.277082,0 -29.5,13.2229146 -29.5,29.4999976 0,16.277083 13.222918,29.500005 29.5,29.5 16.27708,0 29.50001,-13.222917 29.5,-29.5 C 61.5,15.722914 48.27708,2.4999994 32,2.4999994 z"
       inkscape:connector-curvature="0"
       id="path2555-7"
       style="color:#000000;fill:url(#radialGradient6874-1-9);fill-opacity:1;fill-rule:nonzero;stroke:none;stroke-width:0.99999994;marker:none;visibility:visible;display:inline;overflow:visible;enable-background:accumulate" />
    <path
       d="m 32,2.499999 c -16.277082,0 -29.5,13.222915 -29.5,29.499998 0,16.277083 13.222918,29.500005 29.5,29.5 16.27708,0 29.50001,-13.222917 29.5,-29.5 C 61.5,15.722914 48.27708,2.499999 32,2.499999 z"
       inkscape:connector-curvature="0"
       id="path2555-7-1"
       style="opacity:0.7;color:#000000;fill:none;stroke:#006344;stroke-width:1;stroke-linecap:round;stroke-linejoin:round;stroke-miterlimit:4;stroke-opacity:1;stroke-dasharray:none;stroke-dashoffset:0;marker:none;visibility:visible;display:inline;overflow:visible;enable-background:accumulate" />
    <path
       d="m 60.50001,31.999999 c 0,15.740115 -12.7599,28.499999 -28.50002,28.499999 -15.740099,0 -28.499991,-12.759884 -28.499991,-28.499999 0,-15.740116 12.759892,-28.5000013 28.499991,-28.5000013 15.74012,0 28.50002,12.7598853 28.50002,28.5000013 z"
       inkscape:connector-curvature="0"
       id="path3019"
       style="opacity:0.8;color:#000000;fill:none;stroke:url(#linearGradient5013);stroke-width:1;stroke-linecap:round;stroke-linejoin:round;stroke-miterlimit:4;stroke-opacity:1;stroke-dasharray:none;stroke-dashoffset:0;marker:none;visibility:visible;display:inline;overflow:visible;enable-background:accumulate" />
    <path
       inkscape:connector-curvature="0"
       id="path11417"
       d="m 23.928685,14.013852 c -0.508457,0.03785 -1.008495,0.167872 -1.46875,0.400391 -1.228217,0.620524 -1.978408,1.858503 -2.341797,3.324219 -0.363389,1.465716 -0.387208,3.21978 -0.144531,5.201172 0.10146,0.828398 0.261001,1.70459 0.457031,2.605468 -1.31839,0.272749 -2.543365,0.6016 -3.634766,0.992188 -1.631089,0.583731 -2.990209,1.2903 -4.007812,2.162109 -1.017603,0.871809 -1.717467,1.9672 -1.783203,3.210938 -0.06262,1.184721 0.463203,2.300365 1.30664,3.240234 0.843438,0.93987 2.01562,1.755863 3.449219,2.488281 a 1.0001,1.0001 0 1 0 0.910156,-1.779296 c -1.284078,-0.65603 -2.265228,-1.369787 -2.871093,-2.044922 -0.605865,-0.675135 -0.825455,-1.258128 -0.796875,-1.798828 0.03002,-0.567959 0.341697,-1.159544 1.08789,-1.798829 0.746194,-0.639284 1.903848,-1.268984 3.378907,-1.796875 1.008056,-0.360761 2.1709,-0.671126 3.441406,-0.929687 0.446244,1.610055 1.029279,3.299607 1.738281,5.03125 -1.771962,3.290195 -3.026948,6.467664 -3.669922,9.238281 -0.451085,1.943752 -0.612501,3.689022 -0.40625,5.183592 0.206251,1.49457 0.821967,2.8041 1.978516,3.54883 1.09745,0.70667 2.463874,0.76627 3.839843,0.41211 1.375971,-0.35416 2.827368,-1.10962 4.341797,-2.17969 a 1.0001,1.0001 0 1 0 -1.154297,-1.63281 c -1.379377,0.97465 -2.655445,1.60987 -3.685546,1.875 -1.030101,0.26513 -1.749741,0.17216 -2.259766,-0.15625 -0.536653,-0.34556 -0.923525,-1.00618 -1.080078,-2.14063 -0.156554,-1.13444 -0.04071,-2.67607 0.373047,-4.45898 0.501419,-2.160648 1.438503,-4.676413 2.751953,-7.326172 0.290105,0.620332 0.594848,1.24414 0.916016,1.869141 2.555914,4.973885 5.602458,9.105361 8.546874,11.822261 1.472209,1.35845 2.916834,2.3689 4.322266,2.9375 1.405432,0.56861 2.848117,0.69468 4.076172,0.07422 1.181172,-0.59675 1.923534,-1.76812 2.298828,-3.15625 0.375294,-1.38812 0.431205,-3.04608 0.238281,-4.91797 -0.385846,-3.743757 -1.792426,-8.355509 -4.105468,-13.121089 a 1.0001,1.0001 0 1 0 -1.798829,0.873047 c 2.229524,4.593503 3.562321,9.040268 3.914063,12.453122 0.175871,1.70643 0.101059,3.15299 -0.179687,4.19141 -0.280749,1.03842 -0.720764,1.61533 -1.269532,1.89258 -0.570809,0.28838 -1.350469,0.29167 -2.423828,-0.14258 -1.073359,-0.43426 -2.362997,-1.30535 -3.714844,-2.55274 -2.703692,-2.49477 -5.659723,-6.470072 -8.125,-11.267574 -0.55286,-1.075882 -1.050659,-2.145181 -1.505859,-3.201172 0.565503,-1.005486 1.17472,-2.019608 1.839844,-3.035156 0.665208,-1.015677 1.350748,-1.982994 2.046875,-2.904297 0.196245,-0.0029 0.387784,-0.01106 0.585937,-0.01172 0.974692,-0.0033 1.974413,0.02516 2.994141,0.07813 5.424931,0.281907 10.291575,1.341827 13.689453,2.77539 1.698939,0.716782 3.026388,1.530184 3.861328,2.324219 0.834941,0.794035 1.144477,1.495884 1.111328,2.123047 -0.02865,0.542128 -0.309857,1.102055 -0.986328,1.71289 -0.676471,0.610835 -1.731073,1.220583 -3.082031,1.740235 a 1.0001,1.0001 0 1 0 0.71875,1.865234 c 1.508128,-0.580108 2.762949,-1.272141 3.703125,-2.121094 0.940175,-0.848952 1.581809,-1.905107 1.644531,-3.091797 0.07251,-1.371948 -0.634325,-2.635293 -1.730469,-3.677734 -1.096143,-1.042441 -2.613806,-1.938622 -4.46289,-2.71875 -3.698169,-1.560256 -8.741289,-2.637641 -14.361328,-2.929687 -0.711386,-0.03695 -1.404903,-0.04333 -2.101563,-0.05469 1.415218,-1.683565 2.847191,-3.152283 4.22461,-4.339844 2.583596,-2.227484 5.01015,-3.4301 6.503906,-3.486328 0.552779,-0.02081 0.963945,0.08905 1.298828,0.304688 0.502853,0.323796 0.87155,0.919314 1.048828,1.935547 0.177278,1.016232 0.122235,2.399323 -0.197266,4.011718 a 1.0001,1.0001 0 1 0 1.960938,0.388672 c 0.352068,-1.776752 0.446486,-3.371483 0.207031,-4.74414 -0.239454,-1.372657 -0.852977,-2.575094 -1.9375,-3.273438 -0.723367,-0.465797 -1.579949,-0.654038 -2.455078,-0.621094 -2.361593,0.08889 -4.97507,1.590046 -7.736328,3.970704 -1.823118,1.571826 -3.693523,3.56022 -5.5,5.861328 -1.889086,0.06162 -3.687501,0.216547 -5.355469,0.466796 -0.192553,-0.870448 -0.347711,-1.709289 -0.443359,-2.490234 -0.222591,-1.817394 -0.174497,-3.365043 0.101562,-4.478516 0.276059,-1.113472 0.732087,-1.731226 1.302735,-2.019531 0.214318,-0.108273 0.438398,-0.17083 0.714843,-0.191406 1.02515,-0.07624 2.701733,0.612657 4.556641,2.138672 a 1.0001,1.0001 0 1 0 1.269531,-1.544922 c -2.057417,-1.692597 -4.051751,-2.730897 -5.974609,-2.587891 z m 2.273437,12.78711 c -0.394275,0.556052 -0.784995,1.122285 -1.167968,1.707031 -0.386756,0.590521 -0.758109,1.180558 -1.113282,1.769531 -0.397653,-1.074078 -0.745023,-2.123995 -1.03125,-3.132812 1.048746,-0.152086 2.157916,-0.266593 3.3125,-0.34375 z m 5.996094,4.117187 a 2.3840628,2.3639226 0 0 0 -2.453125,2.363281 2.3840628,2.3639226 0 0 0 4.767578,0 2.3840628,2.3639226 0 0 0 -2.314453,-2.363281 z"
       style="color:#000000;font-style:normal;font-variant:normal;font-weight:normal;font-stretch:normal;font-size:medium;line-height:normal;font-family:sans-serif;text-indent:0;text-align:start;text-decoration:none;text-decoration-line:none;text-decoration-style:solid;text-decoration-color:#000000;letter-spacing:normal;word-spacing:normal;text-transform:none;direction:ltr;block-progression:tb;writing-mode:lr-tb;baseline-shift:baseline;text-anchor:start;white-space:normal;clip-rule:nonzero;display:inline;overflow:visible;visibility:visible;opacity:0.15;isolation:auto;mix-blend-mode:normal;color-interpolation:sRGB;color-interpolation-filters:linearRGB;solid-color:#000000;solid-opacity:1;fill:#000000;fill-opacity:1;fill-rule:nonzero;stroke:none;stroke-width:2;stroke-linecap:round;stroke-linejoin:miter;stroke-miterlimit:4;stroke-dasharray:none;stroke-dashoffset:0;stroke-opacity:1;color-rendering:auto;image-rendering:auto;shape-rendering:auto;text-rendering:auto;enable-background:accumulate" />
    <path
       style="color:#000000;font-style:normal;font-variant:normal;font-weight:normal;font-stretch:normal;font-size:medium;line-height:normal;font-family:sans-serif;text-indent:0;text-align:start;text-decoration:none;text-decoration-line:none;text-decoration-style:solid;text-decoration-color:#000000;letter-spacing:normal;word-spacing:normal;text-transform:none;direction:ltr;block-progression:tb;writing-mode:lr-tb;baseline-shift:baseline;text-anchor:start;white-space:normal;clip-rule:nonzero;display:inline;overflow:visible;visibility:visible;opacity:1;isolation:auto;mix-blend-mode:normal;color-interpolation:sRGB;color-interpolation-filters:linearRGB;solid-color:#000000;solid-opacity:1;fill:url(#linearGradient11415);fill-opacity:1;fill-rule:nonzero;stroke:none;stroke-width:2;stroke-linecap:round;stroke-linejoin:miter;stroke-miterlimit:4;stroke-dasharray:none;stroke-dashoffset:0;stroke-opacity:1;color-rendering:auto;image-rendering:auto;shape-rendering:auto;text-rendering:auto;enable-background:accumulate"
       d="m 23.928685,13.013475 c -0.508457,0.03785 -1.008495,0.167872 -1.46875,0.400391 -1.228217,0.620524 -1.978408,1.858503 -2.341797,3.324219 -0.363389,1.465716 -0.387208,3.21978 -0.144531,5.201172 0.10146,0.828398 0.261001,1.70459 0.457031,2.605468 -1.31839,0.272749 -2.543365,0.6016 -3.634766,0.992188 -1.631089,0.583731 -2.990209,1.2903 -4.007812,2.162109 -1.017603,0.871809 -1.717467,1.9672 -1.783203,3.210938 -0.06262,1.184721 0.463203,2.300365 1.30664,3.240234 0.843438,0.93987 2.01562,1.755863 3.449219,2.488281 a 1.0001,1.0001 0 1 0 0.910156,-1.779296 c -1.284078,-0.65603 -2.265228,-1.369787 -2.871093,-2.044922 -0.605865,-0.675135 -0.825455,-1.258128 -0.796875,-1.798828 0.03002,-0.567959 0.341697,-1.159544 1.08789,-1.798829 0.746194,-0.639284 1.903848,-1.268984 3.378907,-1.796875 1.008056,-0.360761 2.1709,-0.671126 3.441406,-0.929687 0.446244,1.610055 1.029279,3.299607 1.738281,5.03125 -1.771962,3.290195 -3.026948,6.467664 -3.669922,9.238281 -0.451085,1.943752 -0.612501,3.689022 -0.40625,5.183592 0.206251,1.49457 0.821967,2.8041 1.978516,3.54883 1.09745,0.70667 2.463874,0.76627 3.839843,0.41211 1.375971,-0.35416 2.827368,-1.10962 4.341797,-2.17969 a 1.0001,1.0001 0 1 0 -1.154297,-1.63281 c -1.379377,0.97465 -2.655445,1.60987 -3.685546,1.875 -1.030101,0.26513 -1.749741,0.17216 -2.259766,-0.15625 -0.536653,-0.34556 -0.923525,-1.00618 -1.080078,-2.14063 -0.156554,-1.13444 -0.04071,-2.67607 0.373047,-4.45898 0.501419,-2.160648 1.438503,-4.676413 2.751953,-7.326172 0.290105,0.620332 0.594848,1.24414 0.916016,1.869141 2.555914,4.973885 5.602458,9.105361 8.546874,11.822261 1.472209,1.35845 2.916834,2.3689 4.322266,2.9375 1.405432,0.56861 2.848117,0.69468 4.076172,0.07422 1.181172,-0.59675 1.923534,-1.76812 2.298828,-3.15625 0.375294,-1.38812 0.431205,-3.04608 0.238281,-4.91797 -0.385846,-3.743757 -1.792426,-8.355509 -4.105468,-13.121089 a 1.0001,1.0001 0 1 0 -1.798829,0.873047 c 2.229524,4.593503 3.562321,9.040268 3.914063,12.453122 0.175871,1.70643 0.101059,3.15299 -0.179687,4.19141 -0.280749,1.03842 -0.720764,1.61533 -1.269532,1.89258 -0.570809,0.28838 -1.350469,0.29167 -2.423828,-0.14258 -1.073359,-0.43426 -2.362997,-1.30535 -3.714844,-2.55274 -2.703692,-2.49477 -5.659723,-6.470072 -8.125,-11.267574 -0.55286,-1.075882 -1.050659,-2.145181 -1.505859,-3.201172 0.565503,-1.005486 1.17472,-2.019608 1.839844,-3.035156 0.665208,-1.015677 1.350748,-1.982994 2.046875,-2.904297 0.196245,-0.0029 0.387784,-0.01106 0.585937,-0.01172 0.974692,-0.0033 1.974413,0.02516 2.994141,0.07813 5.424931,0.281907 10.291575,1.341827 13.689453,2.77539 1.698939,0.716782 3.026388,1.530184 3.861328,2.324219 0.834941,0.794035 1.144477,1.495884 1.111328,2.123047 -0.02865,0.542128 -0.309857,1.102055 -0.986328,1.71289 -0.676471,0.610835 -1.731073,1.220583 -3.082031,1.740235 a 1.0001,1.0001 0 1 0 0.71875,1.865234 c 1.508128,-0.580108 2.762949,-1.272141 3.703125,-2.121094 0.940175,-0.848952 1.581809,-1.905107 1.644531,-3.091797 0.07251,-1.371948 -0.634325,-2.635293 -1.730469,-3.677734 -1.096143,-1.042441 -2.613806,-1.938622 -4.46289,-2.71875 -3.698169,-1.560256 -8.741289,-2.637641 -14.361328,-2.929687 -0.711386,-0.03695 -1.404903,-0.04333 -2.101563,-0.05469 1.415218,-1.683565 2.847191,-3.152283 4.22461,-4.339844 2.583596,-2.227484 5.01015,-3.4301 6.503906,-3.486328 0.552779,-0.02081 0.963945,0.08905 1.298828,0.304688 0.502853,0.323796 0.87155,0.919314 1.048828,1.935547 0.177278,1.016232 0.122235,2.399323 -0.197266,4.011718 a 1.0001,1.0001 0 1 0 1.960938,0.388672 c 0.352068,-1.776752 0.446486,-3.371483 0.207031,-4.74414 -0.239454,-1.372657 -0.852977,-2.575094 -1.9375,-3.273438 -0.723367,-0.465797 -1.579949,-0.654038 -2.455078,-0.621094 -2.361593,0.08889 -4.97507,1.590046 -7.736328,3.970704 -1.823118,1.571826 -3.693523,3.56022 -5.5,5.861328 -1.889086,0.06162 -3.687501,0.216547 -5.355469,0.466796 -0.192553,-0.870448 -0.347711,-1.709289 -0.443359,-2.490234 -0.222591,-1.817394 -0.174497,-3.365043 0.101562,-4.478516 0.276059,-1.113472 0.732087,-1.731226 1.302735,-2.019531 0.214318,-0.108273 0.438398,-0.17083 0.714843,-0.191406 1.02515,-0.07624 2.701733,0.612657 4.556641,2.138672 a 1.0001,1.0001 0 1 0 1.269531,-1.544922 C 27.845877,13.90877 25.851543,12.87047 23.928685,13.013476 Z m 2.273437,12.78711 c -0.394275,0.556052 -0.784995,1.122285 -1.167968,1.707031 -0.386756,0.590521 -0.758109,1.180558 -1.113282,1.769531 -0.397653,-1.074078 -0.745023,-2.123995 -1.03125,-3.132812 1.048746,-0.152086 2.157916,-0.266593 3.3125,-0.34375 z m 5.996094,4.117187 a 2.3840628,2.3639226 0 0 0 -2.453125,2.363281 2.3840628,2.3639226 0 0 0 4.767578,0 2.3840628,2.3639226 0 0 0 -2.314453,-2.363281 z"
       id="path4"
       inkscape:connector-curvature="0" />
    <path
       inkscape:connector-curvature="0"
       id="path11421"
       d="m 23.928685,14.015064 c -0.508457,0.03785 -1.008495,0.167872 -1.46875,0.400391 -1.228217,0.620524 -1.978408,1.858503 -2.341797,3.324219 -0.363389,1.465716 -0.387208,3.21978 -0.144531,5.201172 0.10146,0.828398 0.261001,1.70459 0.457031,2.605468 -1.31839,0.272749 -2.543365,0.6016 -3.634766,0.992188 -1.631089,0.583731 -2.990209,1.2903 -4.007812,2.162109 -1.017603,0.871809 -1.717467,1.9672 -1.783203,3.210938 -0.06262,1.184721 0.463203,2.300365 1.30664,3.240234 0.843438,0.93987 2.01562,1.755863 3.449219,2.488281 a 1.0001,1.0001 0 1 0 0.910156,-1.779296 c -1.284078,-0.65603 -2.265228,-1.369787 -2.871093,-2.044922 -0.605865,-0.675135 -0.825455,-1.258128 -0.796875,-1.798828 0.03002,-0.567959 0.341697,-1.159544 1.08789,-1.798829 0.746194,-0.639284 1.903848,-1.268984 3.378907,-1.796875 1.008056,-0.360761 2.1709,-0.671126 3.441406,-0.929687 0.446244,1.610055 1.029279,3.299607 1.738281,5.03125 -1.771962,3.290195 -3.026948,6.467664 -3.669922,9.238281 -0.451085,1.943752 -0.612501,3.689022 -0.40625,5.183592 0.206251,1.49457 0.821967,2.8041 1.978516,3.54883 1.09745,0.70667 2.463874,0.76627 3.839843,0.41211 1.375971,-0.35416 2.827368,-1.10962 4.341797,-2.17969 a 1.0001,1.0001 0 1 0 -1.154297,-1.63281 c -1.379377,0.97465 -2.655445,1.60987 -3.685546,1.875 -1.030101,0.26513 -1.749741,0.17216 -2.259766,-0.15625 -0.536653,-0.34556 -0.923525,-1.00618 -1.080078,-2.14063 -0.156554,-1.13444 -0.04071,-2.67607 0.373047,-4.45898 0.501419,-2.160648 1.438503,-4.676413 2.751953,-7.326172 0.290105,0.620332 0.594848,1.24414 0.916016,1.869141 2.555914,4.973885 5.602458,9.105361 8.546874,11.822261 1.472209,1.35845 2.916834,2.3689 4.322266,2.9375 1.405432,0.56861 2.848117,0.69468 4.076172,0.07422 1.181172,-0.59675 1.923534,-1.76812 2.298828,-3.15625 0.375294,-1.38812 0.431205,-3.04608 0.238281,-4.91797 -0.385846,-3.743757 -1.792426,-8.355509 -4.105468,-13.121089 a 1.0001,1.0001 0 1 0 -1.798829,0.873047 c 2.229524,4.593503 3.562321,9.040268 3.914063,12.453122 0.175871,1.70643 0.101059,3.15299 -0.179687,4.19141 -0.280749,1.03842 -0.720764,1.61533 -1.269532,1.89258 -0.570809,0.28838 -1.350469,0.29167 -2.423828,-0.14258 -1.073359,-0.43426 -2.362997,-1.30535 -3.714844,-2.55274 -2.703692,-2.49477 -5.659723,-6.470072 -8.125,-11.267574 -0.55286,-1.075882 -1.050659,-2.145181 -1.505859,-3.201172 0.565503,-1.005486 1.17472,-2.019608 1.839844,-3.035156 0.665208,-1.015677 1.350748,-1.982994 2.046875,-2.904297 0.196245,-0.0029 0.387784,-0.01106 0.585937,-0.01172 0.974692,-0.0033 1.974413,0.02516 2.994141,0.07813 5.424931,0.281907 10.291575,1.341827 13.689453,2.77539 1.698939,0.716782 3.026388,1.530184 3.861328,2.324219 0.834941,0.794035 1.144477,1.495884 1.111328,2.123047 -0.02865,0.542128 -0.309857,1.102055 -0.986328,1.71289 -0.676471,0.610835 -1.731073,1.220583 -3.082031,1.740235 a 1.0001,1.0001 0 1 0 0.71875,1.865234 c 1.508128,-0.580108 2.762949,-1.272141 3.703125,-2.121094 0.940175,-0.848952 1.581809,-1.905107 1.644531,-3.091797 0.07251,-1.371948 -0.634325,-2.635293 -1.730469,-3.677734 -1.096143,-1.042441 -2.613806,-1.938622 -4.46289,-2.71875 -3.698169,-1.560256 -8.741289,-2.637641 -14.361328,-2.929687 -0.711386,-0.03695 -1.404903,-0.04333 -2.101563,-0.05469 1.415218,-1.683565 2.847191,-3.152283 4.22461,-4.339844 2.583596,-2.227484 5.01015,-3.4301 6.503906,-3.486328 0.552779,-0.02081 0.963945,0.08905 1.298828,0.304688 0.502853,0.323796 0.87155,0.919314 1.048828,1.935547 0.177278,1.016232 0.122235,2.399323 -0.197266,4.011718 a 1.0001,1.0001 0 1 0 1.960938,0.388672 c 0.352068,-1.776752 0.446486,-3.371483 0.207031,-4.74414 -0.239454,-1.372657 -0.852977,-2.575094 -1.9375,-3.273438 -0.723367,-0.465797 -1.579949,-0.654038 -2.455078,-0.621094 -2.361593,0.08889 -4.97507,1.590046 -7.736328,3.970704 -1.823118,1.571826 -3.693523,3.56022 -5.5,5.861328 -1.889086,0.06162 -3.687501,0.216547 -5.355469,0.466796 -0.192553,-0.870448 -0.347711,-1.709289 -0.443359,-2.490234 -0.222591,-1.817394 -0.174497,-3.365043 0.101562,-4.478516 0.276059,-1.113472 0.732087,-1.731226 1.302735,-2.019531 0.214318,-0.108273 0.438398,-0.17083 0.714843,-0.191406 1.02515,-0.07624 2.701733,0.612657 4.556641,2.138672 a 1.0001,1.0001 0 1 0 1.269531,-1.544922 c -2.057417,-1.692597 -4.051751,-2.730897 -5.974609,-2.587891 z m 2.273437,12.78711 c -0.394275,0.556052 -0.784995,1.122285 -1.167968,1.707031 -0.386756,0.590521 -0.758109,1.180558 -1.113282,1.769531 -0.397653,-1.074078 -0.745023,-2.123995 -1.03125,-3.132812 1.048746,-0.152086 2.157916,-0.266593 3.3125,-0.34375 z m 5.996094,4.117187 a 2.3840628,2.3639226 0 0 0 -2.453125,2.363281 2.3840628,2.3639226 0 0 0 4.767578,0 2.3840628,2.3639226 0 0 0 -2.314453,-2.363281 z"
       style="color:#000000;font-style:normal;font-variant:normal;font-weight:normal;font-stretch:normal;font-size:medium;line-height:normal;font-family:sans-serif;text-indent:0;text-align:start;text-decoration:none;text-decoration-line:none;text-decoration-style:solid;text-decoration-color:#000000;letter-spacing:normal;word-spacing:normal;text-transform:none;direction:ltr;block-progression:tb;writing-mode:lr-tb;baseline-shift:baseline;text-anchor:start;white-space:normal;clip-rule:nonzero;display:inline;overflow:visible;visibility:visible;opacity:0.05;isolation:auto;mix-blend-mode:normal;color-interpolation:sRGB;color-interpolation-filters:linearRGB;solid-color:#000000;solid-opacity:1;fill:#000000;fill-opacity:1;fill-rule:nonzero;stroke:#000000;stroke-width:2;stroke-linecap:round;stroke-linejoin:miter;stroke-miterlimit:4;stroke-dasharray:none;stroke-dashoffset:0;stroke-opacity:1;color-rendering:auto;image-rendering:auto;shape-rendering:auto;text-rendering:auto;enable-background:accumulate" />
  </g>
</svg>
