<?xml version="1.0" encoding="UTF-8" standalone="no"?>
<svg xmlns:rdf="http://www.w3.org/1999/02/22-rdf-syntax-ns#" xmlns="http://www.w3.org/2000/svg" height="64" width="64" version="1.1" xmlns:cc="http://creativecommons.org/ns#" xmlns:xlink="http://www.w3.org/1999/xlink" xmlns:dc="http://purl.org/dc/elements/1.1/">
 <defs>
  <linearGradient id="c" y2="40.496" gradientUnits="userSpaceOnUse" x2="71.204" gradientTransform="matrix(2.3269 0 0 2.3269 -135.94 -32.843)" y1="15.369" x1="71.204">
   <stop stop-color="#fff" offset="0"/>
   <stop stop-color="#fff" stop-opacity=".23529" offset=".42448"/>
   <stop stop-color="#fff" stop-opacity=".15686" offset=".82090"/>
   <stop stop-color="#fff" stop-opacity=".39216" offset="1"/>
  </linearGradient>
  <radialGradient id="a" gradientUnits="userSpaceOnUse" cy="3.99" cx="23.896" gradientTransform="matrix(0 4.1567 -5.4867 0 53.893 -97.44)" r="20.397">
   <stop stop-color="#b1e198" offset="0"/>
   <stop stop-color="#71c586" offset=".26238"/>
   <stop stop-color="#04a171" offset=".66094"/>
   <stop stop-color="#108562" offset="1"/>
  </radialGradient>
  <radialGradient id="b" gradientUnits="userSpaceOnUse" cy="186.17" cx="99.157" gradientTransform="matrix(1 0 0 .16667 0 155.14)" r="62.769">
   <stop stop-color="#3d3d3d" offset="0"/>
   <stop stop-color="#686868" stop-opacity=".49804" offset=".5"/>
   <stop stop-color="#686868" stop-opacity="0" offset="1"/>
  </radialGradient>
  <linearGradient id="d" y2="54" gradientUnits="userSpaceOnUse" x2="30" y1="11.124" x1="30">
   <stop stop-color="#fff" offset="0"/>
   <stop stop-color="#cee7dd" offset="1"/>
  </linearGradient>
 </defs>
 <path d="m161.93 186.17a62.769 10.462 0 1 1 -125.54 0 62.769 10.462 0 1 1 125.54 0z" transform="matrix(.38235 0 0 .71691 -5.913 -76.968)" fill="url(#b)"/>
 <g>
  <path style="color:#000000" d="m32 2.5c-16.277 0-29.5 13.223-29.5 29.5s13.223 29.5 29.5 29.5 29.5-13.223 29.5-29.5-13.223-29.5-29.5-29.5z" fill="url(#a)"/>
  <path opacity=".7" stroke-linejoin="round" style="color:#000000" d="m32 2.5c-16.277 0-29.5 13.223-29.5 29.5s13.223 29.5 29.5 29.5 29.5-13.223 29.5-29.5-13.223-29.5-29.5-29.5z" stroke="#006344" stroke-linecap="round" fill="none"/>
  <path opacity=".8" stroke-linejoin="round" style="color:#000000" d="m60.5 32c0 15.74-12.76 28.5-28.5 28.5s-28.5-12.76-28.5-28.5 12.76-28.5 28.5-28.5 28.5 12.76 28.5 28.5z" stroke="url(#c)" stroke-linecap="round" fill="none"/>
 </g>
 <g>
  <path opacity=".15" style="color-rendering:auto;text-decoration-color:#000000;color:#000000;isolation:auto;mix-blend-mode:normal;shape-rendering:auto;solid-color:#000000;block-progression:tb;text-decoration-line:none;text-decoration-style:solid;image-rendering:auto;white-space:normal;text-indent:0;text-transform:none" d="m23.929 14.014c-0.50846 0.03785-1.0085 0.16787-1.4688 0.40039-1.2282 0.62052-1.9784 1.8585-2.3418 3.3242-0.36339 1.4657-0.38721 3.2198-0.14453 5.2012 0.10146 0.8284 0.261 1.7046 0.45703 2.6055-1.3184 0.27275-2.5434 0.6016-3.6348 0.99219-1.6311 0.58373-2.9902 1.2903-4.0078 2.1621-1.0176 0.87181-1.7175 1.9672-1.7832 3.2109-0.06262 1.1847 0.4632 2.3004 1.3066 3.2402 0.84344 0.93987 2.0156 1.7559 3.4492 2.4883a1.0001 1.0001 0 1 0 0.91016 -1.7793c-1.2841-0.65603-2.2652-1.3698-2.8711-2.0449-0.60586-0.67514-0.82546-1.2581-0.79688-1.7988 0.03002-0.56796 0.3417-1.1595 1.0879-1.7988 0.74619-0.63928 1.9038-1.269 3.3789-1.7969 1.0081-0.36076 2.1709-0.67113 3.4414-0.92969 0.44624 1.6101 1.0293 3.2996 1.7383 5.0312-1.772 3.2902-3.0269 6.4677-3.6699 9.2383-0.45108 1.9438-0.6125 3.689-0.40625 5.1836s0.82197 2.8041 1.9785 3.5488c1.0974 0.70667 2.4639 0.76627 3.8398 0.41211 1.376-0.35416 2.8274-1.1096 4.3418-2.1797a1.0001 1.0001 0 1 0 -1.1543 -1.6328c-1.3794 0.97465-2.6554 1.6099-3.6855 1.875-1.0301 0.26513-1.7497 0.17216-2.2598-0.15625-0.53665-0.34556-0.92352-1.0062-1.0801-2.1406-0.15655-1.1344-0.04071-2.6761 0.37305-4.459 0.50142-2.1606 1.4385-4.6764 2.752-7.3262 0.2901 0.62033 0.59485 1.2441 0.91602 1.8691 2.5559 4.9739 5.6025 9.1054 8.5469 11.822 1.4722 1.3584 2.9168 2.3689 4.3223 2.9375 1.4054 0.56861 2.8481 0.69468 4.0762 0.07422 1.1812-0.59675 1.9235-1.7681 2.2988-3.1562 0.37529-1.3881 0.4312-3.0461 0.23828-4.918-0.38585-3.7438-1.7924-8.3555-4.1055-13.121a1.0001 1.0001 0 1 0 -1.7988 0.87305c2.2295 4.5935 3.5623 9.0403 3.9141 12.453 0.17587 1.7064 0.10106 3.153-0.17969 4.1914s-0.72076 1.6153-1.2695 1.8926c-0.57081 0.28838-1.3505 0.29167-2.4238-0.14258-1.0734-0.43426-2.363-1.3054-3.7148-2.5527-2.7037-2.4948-5.6597-6.4701-8.125-11.268-0.55286-1.0759-1.0507-2.1452-1.5059-3.2012 0.5655-1.0055 1.1747-2.0196 1.8398-3.0352 0.66521-1.0157 1.3507-1.983 2.0469-2.9043 0.19624-0.0029 0.38778-0.01106 0.58594-0.01172 0.97469-0.0033 1.9744 0.02516 2.9941 0.07813 5.4249 0.28191 10.292 1.3418 13.689 2.7754 1.6989 0.71678 3.0264 1.5302 3.8613 2.3242 0.83494 0.79404 1.1445 1.4959 1.1113 2.123-0.02865 0.54213-0.30986 1.1021-0.98633 1.7129-0.67647 0.61084-1.7311 1.2206-3.082 1.7402a1.0001 1.0001 0 1 0 0.71875 1.8652c1.5081-0.58011 2.7629-1.2721 3.7031-2.1211 0.94018-0.84895 1.5818-1.9051 1.6445-3.0918 0.07251-1.3719-0.63432-2.6353-1.7305-3.6777-1.0961-1.0424-2.6138-1.9386-4.4629-2.7188-3.6982-1.5603-8.7413-2.6376-14.361-2.9297-0.71139-0.03695-1.4049-0.04333-2.1016-0.05469 1.4152-1.6836 2.8472-3.1523 4.2246-4.3398 2.5836-2.2275 5.0102-3.4301 6.5039-3.4863 0.55278-0.02081 0.96394 0.08905 1.2988 0.30469 0.50285 0.3238 0.87155 0.91931 1.0488 1.9355 0.17728 1.0162 0.12224 2.3993-0.19727 4.0117a1.0001 1.0001 0 1 0 1.9609 0.38867c0.35207-1.7768 0.44649-3.3715 0.20703-4.7441-0.23945-1.3727-0.85298-2.5751-1.9375-3.2734-0.72337-0.4658-1.5799-0.65404-2.4551-0.62109-2.3616 0.08889-4.9751 1.59-7.7363 3.9707-1.8231 1.5718-3.6935 3.5602-5.5 5.8613-1.8891 0.06162-3.6875 0.21655-5.3555 0.4668-0.19255-0.87045-0.34771-1.7093-0.44336-2.4902-0.22259-1.8174-0.1745-3.365 0.10156-4.4785s0.73209-1.7312 1.3027-2.0195c0.21432-0.10827 0.4384-0.17083 0.71484-0.19141 1.0252-0.07624 2.7017 0.61266 4.5566 2.1387a1.0001 1.0001 0 1 0 1.2695 -1.5449c-2.0574-1.6926-4.0518-2.7309-5.9746-2.5879zm2.2734 12.787c-0.39428 0.55605-0.785 1.1223-1.168 1.707-0.38676 0.59052-0.75811 1.1806-1.1133 1.7695-0.39765-1.0741-0.74502-2.124-1.0312-3.1328 1.0487-0.15209 2.1579-0.26659 3.3125-0.34375zm5.9961 4.1172a2.3841 2.3639 0 0 0 -2.4531 2.3633 2.3841 2.3639 0 0 0 4.7676 0 2.3841 2.3639 0 0 0 -2.3145 -2.3633z"/>
  <path style="color-rendering:auto;text-decoration-color:#000000;color:#000000;isolation:auto;mix-blend-mode:normal;shape-rendering:auto;solid-color:#000000;block-progression:tb;text-decoration-line:none;text-decoration-style:solid;image-rendering:auto;white-space:normal;text-indent:0;text-transform:none" d="m23.929 13.013c-0.50846 0.03785-1.0085 0.16787-1.4688 0.40039-1.2282 0.62052-1.9784 1.8585-2.3418 3.3242-0.36339 1.4657-0.38721 3.2198-0.14453 5.2012 0.10146 0.8284 0.261 1.7046 0.45703 2.6055-1.3184 0.27275-2.5434 0.6016-3.6348 0.99219-1.6311 0.58373-2.9902 1.2903-4.0078 2.1621-1.0176 0.87181-1.7175 1.9672-1.7832 3.2109-0.06262 1.1847 0.4632 2.3004 1.3066 3.2402 0.84344 0.93987 2.0156 1.7559 3.4492 2.4883a1.0001 1.0001 0 1 0 0.91016 -1.7793c-1.2841-0.65603-2.2652-1.3698-2.8711-2.0449-0.60586-0.67514-0.82546-1.2581-0.79688-1.7988 0.03002-0.56796 0.3417-1.1595 1.0879-1.7988 0.74619-0.63928 1.9038-1.269 3.3789-1.7969 1.0081-0.36076 2.1709-0.67113 3.4414-0.92969 0.44624 1.6101 1.0293 3.2996 1.7383 5.0312-1.772 3.2902-3.0269 6.4677-3.6699 9.2383-0.45108 1.9438-0.6125 3.689-0.40625 5.1836s0.82197 2.8041 1.9785 3.5488c1.0974 0.70667 2.4639 0.76627 3.8398 0.41211 1.376-0.35416 2.8274-1.1096 4.3418-2.1797a1.0001 1.0001 0 1 0 -1.1543 -1.6328c-1.3794 0.97465-2.6554 1.6099-3.6855 1.875-1.0301 0.26513-1.7497 0.17216-2.2598-0.15625-0.53665-0.34556-0.92352-1.0062-1.0801-2.1406-0.15655-1.1344-0.04071-2.6761 0.37305-4.459 0.50142-2.1606 1.4385-4.6764 2.752-7.3262 0.2901 0.62033 0.59485 1.2441 0.91602 1.8691 2.5559 4.9739 5.6025 9.1054 8.5469 11.822 1.4722 1.3584 2.9168 2.3689 4.3223 2.9375 1.4054 0.56861 2.8481 0.69468 4.0762 0.07422 1.1812-0.59675 1.9235-1.7681 2.2988-3.1562 0.37529-1.3881 0.4312-3.0461 0.23828-4.918-0.38585-3.7438-1.7924-8.3555-4.1055-13.121a1.0001 1.0001 0 1 0 -1.7988 0.87305c2.2295 4.5935 3.5623 9.0403 3.9141 12.453 0.17587 1.7064 0.10106 3.153-0.17969 4.1914s-0.72076 1.6153-1.2695 1.8926c-0.57081 0.28838-1.3505 0.29167-2.4238-0.14258-1.0734-0.43426-2.363-1.3054-3.7148-2.5527-2.7037-2.4948-5.6597-6.4701-8.125-11.268-0.55286-1.0759-1.0507-2.1452-1.5059-3.2012 0.5655-1.0055 1.1747-2.0196 1.8398-3.0352 0.66521-1.0157 1.3507-1.983 2.0469-2.9043 0.19624-0.0029 0.38778-0.01106 0.58594-0.01172 0.97469-0.0033 1.9744 0.02516 2.9941 0.07813 5.4249 0.28191 10.292 1.3418 13.689 2.7754 1.6989 0.71678 3.0264 1.5302 3.8613 2.3242 0.83494 0.79404 1.1445 1.4959 1.1113 2.123-0.02865 0.54213-0.30986 1.1021-0.98633 1.7129-0.67647 0.61084-1.7311 1.2206-3.082 1.7402a1.0001 1.0001 0 1 0 0.71875 1.8652c1.5081-0.58011 2.7629-1.2721 3.7031-2.1211 0.94018-0.84895 1.5818-1.9051 1.6445-3.0918 0.07251-1.3719-0.63432-2.6353-1.7305-3.6777-1.0961-1.0424-2.6138-1.9386-4.4629-2.7188-3.6982-1.5603-8.7413-2.6376-14.361-2.9297-0.71139-0.03695-1.4049-0.04333-2.1016-0.05469 1.4152-1.6836 2.8472-3.1523 4.2246-4.3398 2.5836-2.2275 5.0102-3.4301 6.5039-3.4863 0.55278-0.02081 0.96394 0.08905 1.2988 0.30469 0.50285 0.3238 0.87155 0.91931 1.0488 1.9355 0.17728 1.0162 0.12224 2.3993-0.19727 4.0117a1.0001 1.0001 0 1 0 1.9609 0.38867c0.35207-1.7768 0.44649-3.3715 0.20703-4.7441-0.23945-1.3727-0.85298-2.5751-1.9375-3.2734-0.72337-0.4658-1.5799-0.65404-2.4551-0.62109-2.3616 0.08889-4.9751 1.59-7.7363 3.9707-1.8231 1.5718-3.6935 3.5602-5.5 5.8613-1.8891 0.06162-3.6875 0.21655-5.3555 0.4668-0.19255-0.87045-0.34771-1.7093-0.44336-2.4902-0.22259-1.8174-0.1745-3.365 0.10156-4.4785s0.73209-1.7312 1.3027-2.0195c0.21432-0.10827 0.4384-0.17083 0.71484-0.19141 1.0252-0.07624 2.7017 0.61266 4.5566 2.1387a1.0001 1.0001 0 1 0 1.2695 -1.5449c-2.056-1.688-4.05-2.727-5.973-2.584zm2.2734 12.787c-0.39428 0.55605-0.785 1.1223-1.168 1.707-0.38676 0.59052-0.75811 1.1806-1.1133 1.7695-0.39765-1.0741-0.74502-2.124-1.0312-3.1328 1.0487-0.15209 2.1579-0.26659 3.3125-0.34375zm5.9961 4.1172a2.3841 2.3639 0 0 0 -2.4531 2.3633 2.3841 2.3639 0 0 0 4.7676 0 2.3841 2.3639 0 0 0 -2.3145 -2.3633z" fill="url(#d)"/>
  <path opacity=".05" style="color-rendering:auto;text-decoration-color:#000000;color:#000000;isolation:auto;mix-blend-mode:normal;shape-rendering:auto;solid-color:#000000;block-progression:tb;text-decoration-line:none;text-decoration-style:solid;image-rendering:auto;white-space:normal;text-indent:0;text-transform:none" d="m23.929 14.015c-0.50846 0.03785-1.0085 0.16787-1.4688 0.40039-1.2282 0.62052-1.9784 1.8585-2.3418 3.3242-0.36339 1.4657-0.38721 3.2198-0.14453 5.2012 0.10146 0.8284 0.261 1.7046 0.45703 2.6055-1.3184 0.27275-2.5434 0.6016-3.6348 0.99219-1.6311 0.58373-2.9902 1.2903-4.0078 2.1621-1.0176 0.87181-1.7175 1.9672-1.7832 3.2109-0.06262 1.1847 0.4632 2.3004 1.3066 3.2402 0.84344 0.93987 2.0156 1.7559 3.4492 2.4883a1.0001 1.0001 0 1 0 0.91016 -1.7793c-1.2841-0.65603-2.2652-1.3698-2.8711-2.0449-0.60586-0.67514-0.82546-1.2581-0.79688-1.7988 0.03002-0.56796 0.3417-1.1595 1.0879-1.7988 0.74619-0.63928 1.9038-1.269 3.3789-1.7969 1.0081-0.36076 2.1709-0.67113 3.4414-0.92969 0.44624 1.6101 1.0293 3.2996 1.7383 5.0312-1.772 3.2902-3.0269 6.4677-3.6699 9.2383-0.45108 1.9438-0.6125 3.689-0.40625 5.1836s0.82197 2.8041 1.9785 3.5488c1.0974 0.70667 2.4639 0.76627 3.8398 0.41211 1.376-0.35416 2.8274-1.1096 4.3418-2.1797a1.0001 1.0001 0 1 0 -1.1543 -1.6328c-1.3794 0.97465-2.6554 1.6099-3.6855 1.875-1.0301 0.26513-1.7497 0.17216-2.2598-0.15625-0.53665-0.34556-0.92352-1.0062-1.0801-2.1406-0.15655-1.1344-0.04071-2.6761 0.37305-4.459 0.50142-2.1606 1.4385-4.6764 2.752-7.3262 0.2901 0.62033 0.59485 1.2441 0.91602 1.8691 2.5559 4.9739 5.6025 9.1054 8.5469 11.822 1.4722 1.3584 2.9168 2.3689 4.3223 2.9375 1.4054 0.56861 2.8481 0.69468 4.0762 0.07422 1.1812-0.59675 1.9235-1.7681 2.2988-3.1562 0.37529-1.3881 0.4312-3.0461 0.23828-4.918-0.38585-3.7438-1.7924-8.3555-4.1055-13.121a1.0001 1.0001 0 1 0 -1.7988 0.87305c2.2295 4.5935 3.5623 9.0403 3.9141 12.453 0.17587 1.7064 0.10106 3.153-0.17969 4.1914s-0.72076 1.6153-1.2695 1.8926c-0.57081 0.28838-1.3505 0.29167-2.4238-0.14258-1.0734-0.43426-2.363-1.3054-3.7148-2.5527-2.7037-2.4948-5.6597-6.4701-8.125-11.268-0.55286-1.0759-1.0507-2.1452-1.5059-3.2012 0.5655-1.0055 1.1747-2.0196 1.8398-3.0352 0.66521-1.0157 1.3507-1.983 2.0469-2.9043 0.19624-0.0029 0.38778-0.01106 0.58594-0.01172 0.97469-0.0033 1.9744 0.02516 2.9941 0.07813 5.4249 0.28191 10.292 1.3418 13.689 2.7754 1.6989 0.71678 3.0264 1.5302 3.8613 2.3242 0.83494 0.79404 1.1445 1.4959 1.1113 2.123-0.02865 0.54213-0.30986 1.1021-0.98633 1.7129-0.67647 0.61084-1.7311 1.2206-3.082 1.7402a1.0001 1.0001 0 1 0 0.71875 1.8652c1.5081-0.58011 2.7629-1.2721 3.7031-2.1211 0.94018-0.84895 1.5818-1.9051 1.6445-3.0918 0.07251-1.3719-0.63432-2.6353-1.7305-3.6777-1.0961-1.0424-2.6138-1.9386-4.4629-2.7188-3.6982-1.5603-8.7413-2.6376-14.361-2.9297-0.71139-0.03695-1.4049-0.04333-2.1016-0.05469 1.4152-1.6836 2.8472-3.1523 4.2246-4.3398 2.5836-2.2275 5.0102-3.4301 6.5039-3.4863 0.55278-0.02081 0.96394 0.08905 1.2988 0.30469 0.50285 0.3238 0.87155 0.91931 1.0488 1.9355 0.17728 1.0162 0.12224 2.3993-0.19727 4.0117a1.0001 1.0001 0 1 0 1.9609 0.38867c0.35207-1.7768 0.44649-3.3715 0.20703-4.7441-0.23945-1.3727-0.85298-2.5751-1.9375-3.2734-0.72337-0.4658-1.5799-0.65404-2.4551-0.62109-2.3616 0.08889-4.9751 1.59-7.7363 3.9707-1.8231 1.5718-3.6935 3.5602-5.5 5.8613-1.8891 0.06162-3.6875 0.21655-5.3555 0.4668-0.19255-0.87045-0.34771-1.7093-0.44336-2.4902-0.22259-1.8174-0.1745-3.365 0.10156-4.4785s0.73209-1.7312 1.3027-2.0195c0.21432-0.10827 0.4384-0.17083 0.71484-0.19141 1.0252-0.07624 2.7017 0.61266 4.5566 2.1387a1.0001 1.0001 0 1 0 1.2695 -1.5449c-2.0574-1.6926-4.0518-2.7309-5.9746-2.5879zm2.2734 12.787c-0.39428 0.55605-0.785 1.1223-1.168 1.707-0.38676 0.59052-0.75811 1.1806-1.1133 1.7695-0.39765-1.0741-0.74502-2.124-1.0312-3.1328 1.0487-0.15209 2.1579-0.26659 3.3125-0.34375zm5.9961 4.1172a2.3841 2.3639 0 0 0 -2.4531 2.3633 2.3841 2.3639 0 0 0 4.7676 0 2.3841 2.3639 0 0 0 -2.3145 -2.3633z" stroke="#000" stroke-linecap="round" stroke-width="2"/>
 </g>
</svg>
