<?xml version="1.0" encoding="UTF-8" standalone="no"?>
<svg xmlns:rdf="http://www.w3.org/1999/02/22-rdf-syntax-ns#" xmlns="http://www.w3.org/2000/svg" height="64" width="64" version="1.1" xmlns:cc="http://creativecommons.org/ns#" xmlns:xlink="http://www.w3.org/1999/xlink" xmlns:dc="http://purl.org/dc/elements/1.1/">
 <defs>
  <linearGradient id="c" y2="40.496" gradientUnits="userSpaceOnUse" x2="71.204" gradientTransform="matrix(2.3269 0 0 2.3269 -135.94 -32.843)" y1="15.369" x1="71.204">
   <stop stop-color="#fff" offset="0"/>
   <stop stop-color="#fff" stop-opacity=".23529" offset=".42448"/>
   <stop stop-color="#fff" stop-opacity=".15686" offset=".82090"/>
   <stop stop-color="#fff" stop-opacity=".39216" offset="1"/>
  </linearGradient>
  <radialGradient id="a" gradientUnits="userSpaceOnUse" cy="3.8502" cx="17.187" gradientTransform="matrix(0 8.3346 -10.16 0 71.885 -169.24)" r="20.397">
   <stop stop-color="#ffcd7d" offset="0"/>
   <stop stop-color="#fc8f36" offset=".26238"/>
   <stop stop-color="#e23a0e" offset=".70495"/>
   <stop stop-color="#ac441f" offset="1"/>
  </radialGradient>
  <radialGradient id="b" gradientUnits="userSpaceOnUse" cy="186.17" cx="99.157" gradientTransform="matrix(1 0 0 .16667 0 155.14)" r="62.769">
   <stop stop-color="#3d3d3d" offset="0"/>
   <stop stop-color="#686868" stop-opacity=".49804" offset=".5"/>
   <stop stop-color="#686868" stop-opacity="0" offset="1"/>
  </radialGradient>
  <linearGradient id="d" y2="51.388" gradientUnits="userSpaceOnUse" x2="30" y1="11.119" x1="30">
   <stop stop-color="#fff5ef" offset="0"/>
   <stop stop-color="#fef8dd" offset="1"/>
  </linearGradient>
 </defs>
 <path d="m161.93 186.17a62.769 10.462 0 1 1 -125.54 0 62.769 10.462 0 1 1 125.54 0z" transform="matrix(.38235 0 0 .71691 -5.913 -76.968)" fill="url(#b)"/>
 <path style="color:#000000" d="m32 2.5c-16.277 0-29.5 13.223-29.5 29.5s13.223 29.5 29.5 29.5 29.5-13.223 29.5-29.5-13.223-29.5-29.5-29.5z" fill="url(#a)"/>
 <path opacity=".4" stroke-linejoin="round" style="color:#000000" d="m32 2.5c-16.277 0-29.5 13.223-29.5 29.5s13.223 29.5 29.5 29.5 29.5-13.223 29.5-29.5-13.223-29.5-29.5-29.5z" stroke="#640000" stroke-linecap="round" fill="none"/>
 <path opacity=".8" stroke-linejoin="round" style="color:#000000" d="m60.5 32c0 15.74-12.76 28.5-28.5 28.5s-28.5-12.76-28.5-28.5 12.76-28.5 28.5-28.5 28.5 12.76 28.5 28.5z" stroke="url(#c)" stroke-linecap="round" fill="none"/>
 <path opacity=".15" style="color-rendering:auto;text-decoration-color:#000000;color:#000000;isolation:auto;mix-blend-mode:normal;shape-rendering:auto;solid-color:#000000;block-progression:tb;text-decoration-line:none;text-decoration-style:solid;image-rendering:auto;white-space:normal;text-indent:0;text-transform:none" d="m30.713 12.449a1.0001 1.0001 0 0 0 -0.91602 0.75586l-1.109 4.449c-0.32428-0.07549-0.65488-0.1514-0.96875-0.22852a1.0001 1.0001 0 0 0 -0.15625 -0.05273l-4.5391-1.1348a1.0001 1.0001 0 0 0 -1.2129 0.72852l-0.87695 3.5176a1.0001 1.0001 0 0 0 0.74805 1.2148s0.60688 0.14035 1.2051 0.2832c0.2991 0.07142 0.5972 0.14309 0.80664 0.19727 0.09396 0.0243 0.1621 0.04469 0.20312 0.05664a1.0001 1.0001 0 0 0 0.15625 0.05273c0.47891 0.11956 0.60408 0.26757 0.67969 0.38672 0.06916 0.10898 0.0957 0.27206 0.0918 0.45898l-1.4902 5.9824-0.0098 0.03711a1.0001 1.0001 0 0 0 -0.0059 0.02148l-2.125 8.5215c-0.03793 0.07968-0.09133 0.15883-0.10938 0.17188-0.0203 0.01468 0.01695 0.05004-0.2168-0.0078a1.0001 1.0001 0 0 0 -0.14063 -0.02344c-0.04289-0.009-0.12275-0.02816-0.22461-0.05273-0.2125-0.05127-0.51187-0.12612-0.81055-0.20312-0.59735-0.15402-1.2012-0.31445-1.2012-0.31445a1.0001 1.0001 0 0 0 -1.1738 0.56836l-1.6348 3.7676a1.0001 1.0001 0 0 0 0.67578 1.3691l4.2832 1.0684c0.46327 0.11609 0.92003 0.23581 1.3789 0.35547l-1.1211 4.5078a1.0001 1.0001 0 0 0 0.72852 1.2109l3.2871 0.82031a1.0001 1.0001 0 0 0 1.2129 -0.72656l1.1055-4.4336c0.2299 0.06025 0.45878 0.11966 0.68555 0.17773l-1.1035 4.4258a1.0001 1.0001 0 0 0 0.72852 1.2129l3.291 0.82031a1.0001 1.0001 0 0 0 1.2129 -0.72852l1.1484-4.6055c2.4878 0.40528 4.7919 0.55355 6.7812-0.05859 2.2482-0.69178 4.0505-2.3871 5.0176-5.1504 0.77177-2.2036 0.78883-4.1143 0.10352-5.6797-0.42895-0.97976-1.161-1.7396-2.002-2.4102 1.5084-0.88804 2.6436-2.4353 3.0449-4.6484a1.0001 1.0001 0 0 0 0.07617 -0.25976 1.0001 1.0001 0 0 0 0 -0.002c0.339-2.265-0.413-4.2-1.795-5.594-1.188-1.197-2.826-2.017-4.617-2.705l1.1426-4.582a1.0001 1.0001 0 0 0 -0.72656 -1.2129l-3.293-0.82031a1.0001 1.0001 0 0 0 -1.2129 0.72852l-1.0742 4.3086c-0.23014-0.0545-0.45892-0.10876-0.68945-0.16211l1.0762-4.3184a1.0001 1.0001 0 0 0 -0.72656 -1.2129l-3.291-0.82031a1.0001 1.0001 0 0 0 -0.29688 -0.02734zm0.7832 2.2109 1.3496 0.33594-1.0801 4.3301a1.0001 1.0001 0 0 0 0.74805 1.2168c0.88281 0.20149 1.7645 0.4047 2.6172 0.61719a1.0001 1.0001 0 0 0 1.2129 -0.72852l1.0703-4.2969 1.3516 0.33789-1.1055 4.4375a1.0001 1.0001 0 0 0 0.64453 1.1875c2.0037 0.6902 3.6701 1.5485 4.6973 2.584 1.0267 1.035 1.4955 2.1672 1.2383 3.8906-0.000113 0.00076 0.000114 0.0012 0 0.002a1.0001 1.0001 0 0 0 -0.002 0.002c-0.38615 2.6109-1.5852 3.5768-3.4375 4.0039a1.0001 1.0001 0 0 0 -0.24 1.862c1.3526 0.70423 2.2565 1.5287 2.7031 2.5488s0.49979 2.3325-0.16016 4.2168c-0.80972 2.3138-2.0069 3.3723-3.7168 3.8984-1.709 0.527-4.025 0.411-6.763-0.107a1.0001 1.0001 0 0 0 -1.1562 0.74023l-1.1211 4.4902-1.3516-0.33789 1.1035-4.416a1.0001 1.0001 0 0 0 -0.73047 -1.2129c-0.848-0.21-1.712-0.431-2.602-0.673a1.0001 1.0001 0 0 0 -1.233 0.722l-1.1074 4.4414-1.3477-0.33594 1.1211-4.5a1.0001 1.0001 0 0 0 -0.722 -1.211c-0.762-0.195-1.545-0.405-2.352-0.607a1.0001 1.0001 0 0 0 -0.002 0l-3.1367-0.7832 0.82227-1.8965c0.1723 0.0451 0.19184 0.05037 0.38281 0.09961 0.30362 0.07828 0.60482 0.15471 0.83789 0.21094 0.11653 0.02812 0.21341 0.0507 0.29883 0.06836 0.04271 0.0088 0.07669 0.01647 0.14453 0.02539 0.03392 0.0045 0.05848 0.01487 0.19922 0.0078 0.03518-0.0018 0.14782-0.01745 0.14844-0.01758 0.000623-0.000125 0.32974-0.13065 0.33008-0.13086 0.000008-0.000005 0.01242-0.01059 0.01367-0.01172 0.38642-0.04283 0.82149 0.0104 1.0898-0.18359 0.46022-0.3327 0.68042-0.75108 0.80664-1.0645a1.0001 1.0001 0 0 0 0.04297 -0.13281l1.9668-7.8887a1.0001 1.0001 0 0 0 0.37109 -1.4863l1.3555-5.4395a1.0001 1.0001 0 0 0 0.0293 -0.18555c0.02813-0.4881-0.03814-1.1074-0.40625-1.6875-0.26575-0.41878-0.82751-0.65808-1.3613-0.9043-0.03948-0.05315-0.08184-0.1131-0.08203-0.11328-0.00049-0.000459-0.09587-0.08145-0.12891-0.10352-0.13215-0.08826-0.16492-0.08906-0.20117-0.10352-0.0725-0.02892-0.10842-0.03951-0.15234-0.05273-0.08784-0.02645-0.18573-0.05176-0.30274-0.08203-0.23401-0.06053-0.53673-0.13418-0.8418-0.20703-0.116-0.0277-0.12042-0.02829-0.23242-0.05469l0.38867-1.5605 2.627 0.65625 0.20508-0.93164a1.0001 1.0001 0 0 0 0.73633 1.1836c0.69468 0.17272 1.4038 0.33468 2.1211 0.49805a1.0001 1.0001 0 0 0 1.1914 -0.73242l1.1074-4.4355zm0.39648 7.7969a1.0001 1.0001 0 0 0 -1.0137 0.75781l-1.6387 6.5723a1.0001 1.0001 0 0 0 0.73 1.213c0.85355 0.21274 2.8363 0.84155 4.8105 0.91406 0.98711 0.03626 2.002-0.05688 2.9219-0.50391 0.91983-0.44703 1.6987-1.3224 1.9941-2.5059 0.30232-1.2131 0.04029-2.3678-0.5625-3.209-0.603-0.841-1.465-1.398-2.36-1.82-1.789-0.845-3.857-1.183-4.683-1.389a1.0001 1.0001 0 0 0 -0.19727 -0.0293zm0.67383 2.25c1.039 0.23456 2.245 0.45327 3.3535 0.97656 0.71279 0.33647 1.2824 0.75139 1.5879 1.1777 0.30554 0.42635 0.42906 0.83422 0.24805 1.5605-0.16876 0.67433-0.45477 0.9596-0.92773 1.1895-0.47345 0.23009-1.1812 0.33188-1.9746 0.30273-1.2326-0.04527-2.4001-0.39697-3.4199-0.66406l1.1328-4.543zm-3.2383 7.6406a1.0001 1.0001 0 0 0 -0.91602 0.75586l-1.8066 7.248a1.0001 1.0001 0 0 0 0.72852 1.2129c1.0474 0.26008 3.4054 0.98541 5.7109 1.1055 1.1528 0.06003 2.3171-0.01832 3.3633-0.47461 1.0457-0.45608 1.9459-1.3856 2.2695-2.6836 0.33199-1.3312-0.01022-2.5949-0.7207-3.5039-0.71049-0.90898-1.7116-1.5225-2.7637-2-2.104-0.955-4.545-1.376-5.568-1.631a1.0001 1.0001 0 0 0 -0.29688 -0.0293zm0.77344 2.2461c1.2574 0.28626 2.8244 0.58028 4.2656 1.2344 0.88291 0.4007 1.6118 0.8979 2.0137 1.4121 0.40192 0.51421 0.5551 0.98665 0.35547 1.7871-0.18541 0.74506-0.52676 1.0722-1.127 1.334-0.60019 0.26177-1.4869 0.36322-2.4609 0.3125-1.5892-0.08276-3.1134-0.53432-4.3496-0.85742l1.3027-5.2227z" fill="#ae2109"/>
 <path opacity=".3" d="m45.228 28.722c0.59725-3.9923-2.4424-6.1385-6.5988-7.5702l1.3483-5.4081-3.2919-0.8204-1.3126 5.2656c-0.865-0.216-1.754-0.419-2.637-0.621l1.322-5.3003-3.29-0.8204-1.3492 5.4062c-0.71633-0.16314-1.4195-0.32441-2.1021-0.49412l0.0037-0.01688-4.5399-1.1336-0.87572 3.516s2.4424 0.55975 2.3909 0.59444c1.3333 0.33285 1.5742 1.2151 1.5339 1.9146l-1.5358 6.161c0.09189 0.02344 0.21096 0.05719 0.34222 0.1097-0.1097-0.02719-0.2269-0.05719-0.34785-0.08626l-2.1527 8.6306c-0.16314 0.40504-0.57662 1.0126-1.5086 0.78196 0.03282 0.04782-2.3928-0.59725-2.3928-0.59725l-1.6342 3.7682 4.2839 1.0679c0.79696 0.19971 1.578 0.40879 2.3468 0.60569l-1.3623 5.47 3.2882 0.8204 1.3492-5.4118c0.89822 0.24378 1.7702 0.4688 2.6234 0.6807l-1.3445 5.3865 3.2919 0.8204 1.3623-5.4596c5.6134 1.0623 9.8345 0.63382 11.611-4.4433 1.4317-4.0879-0.07126-6.446-3.0247-7.9837 2.1509-0.49599 3.771-1.9108 4.2033-4.8333zm-7.5214 10.547c-1.0173 4.0879-7.9002 1.878-10.132 1.3239l1.8077-7.2467c2.2315 0.55693 9.3872 1.6596 8.324 5.9228zm1.0182-10.606c-0.92822 3.7185-6.657 1.8293-8.5153 1.3661l1.6389-6.5726c1.8583 0.46318 7.843 1.3276 6.8764 5.2065z" fill="#ae2109"/>
 <path d="m45.228 27.722c0.59725-3.9923-2.4424-6.1385-6.5988-7.5702l1.3483-5.4081-3.2919-0.8204-1.3126 5.2656c-0.8654-0.21565-1.7542-0.41911-2.6375-0.62069l1.322-5.3003-3.29-0.8204-1.3492 5.4062c-0.71633-0.16314-1.4195-0.32441-2.1021-0.49412l0.0037-0.01688-4.5399-1.1336-0.87572 3.516s2.4424 0.55975 2.3909 0.59444c1.3333 0.33285 1.5742 1.2151 1.5339 1.9146l-1.5358 6.161c0.09189 0.02344 0.21096 0.05719 0.34222 0.1097-0.1097-0.02719-0.2269-0.05719-0.34785-0.08626l-2.1527 8.6306c-0.16314 0.40504-0.57662 1.0126-1.5086 0.78196 0.03282 0.04782-2.3928-0.59725-2.3928-0.59725l-1.6342 3.7682 4.2839 1.0679c0.79696 0.19971 1.578 0.40879 2.3468 0.60569l-1.3623 5.47 3.2882 0.8204 1.3492-5.4118c0.89822 0.24378 1.7702 0.4688 2.6234 0.6807l-1.3445 5.3865 3.2919 0.8204 1.3623-5.4596c5.6134 1.0623 9.8345 0.63382 11.611-4.4433 1.4317-4.0879-0.07126-6.446-3.0247-7.9837 2.1509-0.49599 3.771-1.9108 4.2033-4.8333zm-7.5214 10.547c-1.0173 4.0879-7.9002 1.878-10.132 1.3239l1.8077-7.2467c2.2315 0.55693 9.3872 1.6596 8.324 5.9228zm1.0182-10.606c-0.92822 3.7185-6.657 1.8293-8.5153 1.3661l1.6389-6.5726c1.8583 0.46318 7.843 1.3276 6.8764 5.2065z" fill="url(#d)"/>
</svg>
