<?xml version="1.0" encoding="UTF-8" standalone="no"?>
<svg
   xmlns:dc="http://purl.org/dc/elements/1.1/"
   xmlns:cc="http://creativecommons.org/ns#"
   xmlns:rdf="http://www.w3.org/1999/02/22-rdf-syntax-ns#"
   xmlns:svg="http://www.w3.org/2000/svg"
   xmlns="http://www.w3.org/2000/svg"
   xmlns:xlink="http://www.w3.org/1999/xlink"
   xmlns:sodipodi="http://sodipodi.sourceforge.net/DTD/sodipodi-0.dtd"
   xmlns:inkscape="http://www.inkscape.org/namespaces/inkscape"
   version="1.0"
   width="64"
   height="64"
   id="svg3338"
   sodipodi:docname="drive-harddisk.svg"
   inkscape:version="0.92.1 r15371">
  <sodipodi:namedview
     pagecolor="#ffffff"
     bordercolor="#666666"
     borderopacity="1"
     objecttolerance="10"
     gridtolerance="10"
     guidetolerance="10"
     inkscape:pageopacity="0"
     inkscape:pageshadow="2"
     inkscape:window-width="1920"
     inkscape:window-height="979"
     id="namedview82"
     showgrid="false"
     inkscape:zoom="3.6875"
     inkscape:cx="32"
     inkscape:cy="32"
     inkscape:window-x="0"
     inkscape:window-y="0"
     inkscape:window-maximized="1"
     inkscape:current-layer="svg3338" />
  <metadata
     id="metadata83">
    <rdf:RDF>
      <cc:Work
         rdf:about="">
        <dc:format>image/svg+xml</dc:format>
        <dc:type
           rdf:resource="http://purl.org/dc/dcmitype/StillImage" />
      </cc:Work>
    </rdf:RDF>
  </metadata>
  <defs
     id="defs3340">
    <linearGradient
       id="linearGradient5048">
      <stop
         id="stop5050"
         style="stop-color:#000000;stop-opacity:0"
         offset="0" />
      <stop
         id="stop5056"
         style="stop-color:#000000;stop-opacity:1"
         offset="0.5" />
      <stop
         id="stop5052"
         style="stop-color:#000000;stop-opacity:0"
         offset="1" />
    </linearGradient>
    <linearGradient
       x1="302.85715"
       y1="366.64789"
       x2="302.85715"
       y2="609.50507"
       id="linearGradient2566"
       xlink:href="#linearGradient5048"
       gradientUnits="userSpaceOnUse"
       gradientTransform="matrix(0.1018087,0,0,0.02745099,-4.7965709,43.268495)" />
    <radialGradient
       cx="605.71429"
       cy="486.64789"
       r="117.14286"
       fx="605.71429"
       fy="486.64789"
       id="radialGradient2563"
       xlink:href="#linearGradient5060"
       gradientUnits="userSpaceOnUse"
       gradientTransform="matrix(0.05979662,0,0,0.02745099,20.518506,43.268495)" />
    <radialGradient
       cx="605.71429"
       cy="486.64789"
       r="117.14286"
       fx="605.71429"
       fy="486.64789"
       id="radialGradient2560"
       xlink:href="#linearGradient5060"
       gradientUnits="userSpaceOnUse"
       gradientTransform="matrix(-0.05979662,0,0,0.02745099,43.481506,43.268495)" />
    <linearGradient
       id="linearGradient2215">
      <stop
         id="stop2223"
         style="stop-color:#7a7a7a;stop-opacity:1"
         offset="0" />
      <stop
         id="stop2219"
         style="stop-color:#474747;stop-opacity:1"
         offset="1" />
    </linearGradient>
    <linearGradient
       x1="29.9375"
       y1="41"
       x2="30"
       y2="49.999996"
       id="linearGradient2557"
       xlink:href="#linearGradient2215"
       gradientUnits="userSpaceOnUse"
       gradientTransform="matrix(1.3573591,0,0,1.0098512,-7.3634079,6.5517759)" />
    <linearGradient
       id="linearGradient3484">
      <stop
         id="stop3486"
         style="stop-color:#969696;stop-opacity:1"
         offset="0" />
      <stop
         id="stop3488"
         style="stop-color:#b4b4b4;stop-opacity:1"
         offset="1" />
    </linearGradient>
    <linearGradient
       x1="17.813944"
       y1="29.796696"
       x2="18.072828"
       y2="10.000001"
       id="linearGradient2553"
       xlink:href="#linearGradient3484"
       gradientUnits="userSpaceOnUse"
       gradientTransform="matrix(1.3526366,0,0,1.3652569,-0.463278,-2.8344302)" />
    <linearGradient
       id="linearGradient7056">
      <stop
         id="stop7064"
         style="stop-color:#e6e6e6;stop-opacity:1"
         offset="0" />
      <stop
         id="stop7060"
         style="stop-color:#c8c8c8;stop-opacity:1"
         offset="1" />
    </linearGradient>
    <radialGradient
       cx="11.734284"
       cy="8.4900017"
       r="23.047892"
       fx="11.734284"
       fy="8.4900017"
       id="radialGradient2551"
       xlink:href="#linearGradient7056"
       gradientUnits="userSpaceOnUse"
       gradientTransform="matrix(1.8621852,0.9518493,-0.6331808,1.2619694,-0.5297689,-5.4809546)" />
    <radialGradient
       cx="141.74666"
       cy="206.42612"
       r="78.728165"
       fx="141.74666"
       fy="206.42612"
       id="radialGradient2547"
       xlink:href="#linearGradient4035"
       gradientUnits="userSpaceOnUse"
       gradientTransform="matrix(0.475706,-0.00690855,0.00352072,0.3975024,-37.03293,-36.799112)" />
    <linearGradient
       id="linearGradient7609">
      <stop
         id="stop7611"
         style="stop-color:#ffffff;stop-opacity:1"
         offset="0" />
      <stop
         id="stop7677"
         style="stop-color:#e7e7e7;stop-opacity:1"
         offset="0.47025558" />
      <stop
         id="stop7613"
         style="stop-color:#8c8c8c;stop-opacity:1"
         offset="0.67183787" />
      <stop
         id="stop7617"
         style="stop-color:#dddddd;stop-opacity:1"
         offset="0.83542866" />
      <stop
         id="stop7615"
         style="stop-color:#a8a8a8;stop-opacity:1"
         offset="1" />
    </linearGradient>
    <radialGradient
       cx="142.62215"
       cy="191.85428"
       r="78.728165"
       fx="142.62215"
       fy="191.85428"
       id="radialGradient2544"
       xlink:href="#linearGradient7609"
       gradientUnits="userSpaceOnUse"
       gradientTransform="matrix(0.2466032,0,0,-0.1743241,-4.1482291,59.731248)" />
    <radialGradient
       cx="113.0654"
       cy="97.587898"
       r="2.5631001"
       fx="113.667"
       fy="98"
       id="radialGradient2540"
       xlink:href="#radialGradient4241"
       gradientUnits="userSpaceOnUse"
       gradientTransform="matrix(-0.5034274,0,0,0.4878048,62.920656,-2.103415)" />
    <radialGradient
       cx="113.0654"
       cy="97.587898"
       r="2.5631001"
       fx="113.667"
       fy="98"
       id="radialGradient2536"
       xlink:href="#radialGradient4241"
       gradientUnits="userSpaceOnUse"
       gradientTransform="matrix(0.374113,-0.07929617,0.04213943,0.3149909,-33.911844,-8.7733407)" />
    <radialGradient
       cx="113.0654"
       cy="97.587898"
       r="2.5631001"
       fx="113.667"
       fy="98"
       id="radialGradient2532"
       xlink:href="#radialGradient4241"
       gradientUnits="userSpaceOnUse"
       gradientTransform="matrix(0.3782453,0.07056425,-0.03896353,0.3065004,11.53557,-24.903099)" />
    <linearGradient
       id="linearGradient5060">
      <stop
         id="stop5062"
         style="stop-color:#000000;stop-opacity:1"
         offset="0" />
      <stop
         id="stop5064"
         style="stop-color:#000000;stop-opacity:0"
         offset="1" />
    </linearGradient>
    <linearGradient
       x1="7.0625"
       y1="35.28125"
       x2="24.6875"
       y2="35.28125"
       id="linearGradient2529"
       xlink:href="#linearGradient5060"
       gradientUnits="userSpaceOnUse"
       gradientTransform="matrix(1.3801029,0,0,1.2584266,0.9287064,8.1011299)" />
    <linearGradient
       id="linearGradient4236">
      <stop
         id="stop4238"
         style="stop-color:#eeeeee;stop-opacity:1"
         offset="0" />
      <stop
         id="stop4240"
         style="stop-color:#eeeeee;stop-opacity:0"
         offset="1" />
    </linearGradient>
    <linearGradient
       x1="12.277412"
       y1="37.205811"
       x2="12.221823"
       y2="33.758667"
       id="linearGradient2526"
       xlink:href="#linearGradient4236"
       gradientUnits="userSpaceOnUse"
       gradientTransform="matrix(1.3504215,0,0,1.2464221,-0.08267968,10.210591)" />
    <linearGradient
       id="linearGradient4035">
      <stop
         id="stop4037"
         style="stop-color:#f5f5f5;stop-opacity:1"
         offset="0" />
      <stop
         id="stop4039"
         style="stop-color:#e7e7e7;stop-opacity:1"
         offset="0.47025558" />
      <stop
         id="stop4041"
         style="stop-color:#8c8c8c;stop-opacity:1"
         offset="0.69348532" />
      <stop
         id="stop4043"
         style="stop-color:#dddddd;stop-opacity:1"
         offset="0.83542866" />
      <stop
         id="stop4045"
         style="stop-color:#a8a8a8;stop-opacity:1"
         offset="1" />
    </linearGradient>
    <radialGradient
       cx="127.31733"
       cy="143.82751"
       r="78.728165"
       fx="127.31733"
       fy="143.82751"
       id="radialGradient2523"
       xlink:href="#linearGradient4035"
       gradientUnits="userSpaceOnUse"
       gradientTransform="matrix(0.2540562,-0.03579406,0.00825801,0.1439066,-9.916226,3.6124102)" />
    <radialGradient
       cx="113.0654"
       cy="97.587898"
       r="2.5631001"
       fx="113.667"
       fy="98"
       id="radialGradient4241"
       gradientUnits="userSpaceOnUse">
      <stop
         id="stop4243"
         style="stop-color:#eeeeee;stop-opacity:1"
         offset="0" />
      <stop
         id="stop4245"
         style="stop-color:#cecece;stop-opacity:1"
         offset="0.16" />
      <stop
         id="stop4247"
         style="stop-color:#888888;stop-opacity:1"
         offset="0.4675" />
      <stop
         id="stop4249"
         style="stop-color:#555555;stop-opacity:1"
         offset="1" />
    </radialGradient>
    <radialGradient
       cx="113.0654"
       cy="97.587898"
       r="2.5631001"
       fx="113.667"
       fy="98"
       id="radialGradient2519"
       xlink:href="#radialGradient4241"
       gradientUnits="userSpaceOnUse"
       gradientTransform="matrix(0.5034273,0,0,0.4878048,1.0793577,-2.103415)" />
    <linearGradient
       id="linearGradient6310-8">
      <stop
         id="stop6312-6"
         style="stop-color:#ffffff;stop-opacity:1"
         offset="0" />
      <stop
         id="stop6314-6"
         style="stop-color:#ffffff;stop-opacity:0"
         offset="1" />
    </linearGradient>
    <radialGradient
       cx="24"
       cy="42"
       r="21"
       fx="24"
       fy="42"
       id="radialGradient2516"
       xlink:href="#linearGradient6310-8"
       gradientUnits="userSpaceOnUse"
       gradientTransform="matrix(1.3526366,-1.4521173e-8,3.762037e-8,0.486864,-0.4632765,31.949499)" />
    <radialGradient
       id="radialGradient2953"
       fx="113.67"
       fy="98"
       xlink:href="#radialGradient4241-3"
       gradientUnits="userSpaceOnUse"
       cy="97.587997"
       cx="113.07"
       gradientTransform="matrix(0.29777333,0.04585733,-0.03067467,0.19918666,19.721598,-9.1757481)"
       r="2.5631001" />
    <radialGradient
       id="radialGradient4241-3"
       fx="113.67"
       fy="98"
       gradientUnits="userSpaceOnUse"
       cy="97.587997"
       cx="113.07"
       r="2.5631001">
      <stop
         id="stop4243-6"
         style="stop-color:#eee"
         offset="0" />
      <stop
         id="stop4245-7"
         style="stop-color:#cecece"
         offset=".16" />
      <stop
         id="stop4247-5"
         style="stop-color:#888"
         offset=".4675" />
      <stop
         id="stop4249-3"
         style="stop-color:#555"
         offset="1" />
    </radialGradient>
    <linearGradient
       inkscape:collect="always"
       xlink:href="#linearGradient5958"
       id="linearGradient5964"
       x1="28"
       y1="16"
       x2="26"
       y2="8"
       gradientUnits="userSpaceOnUse"
       gradientTransform="matrix(1.3767899,0,0,1.3767899,8.527887,-1.783161)" />
    <linearGradient
       inkscape:collect="always"
       id="linearGradient5958">
      <stop
         style="stop-color:#c17d11;stop-opacity:1;"
         offset="0"
         id="stop5960" />
      <stop
         style="stop-color:#e9b96e;stop-opacity:1"
         offset="1"
         id="stop5962" />
    </linearGradient>
    <linearGradient
       inkscape:collect="always"
       xlink:href="#linearGradient5996"
       id="linearGradient6002"
       x1="30.324829"
       y1="9.2407961"
       x2="34"
       y2="18"
       gradientUnits="userSpaceOnUse"
       gradientTransform="matrix(1.3767899,0,0,1.3767899,8.527887,-1.783161)" />
    <linearGradient
       inkscape:collect="always"
       id="linearGradient5996">
      <stop
         style="stop-color:#8f5902;stop-opacity:1;"
         offset="0"
         id="stop5998" />
      <stop
         style="stop-color:#73521e;stop-opacity:1"
         offset="1"
         id="stop6000" />
    </linearGradient>
    <linearGradient
       inkscape:collect="always"
       xlink:href="#linearGradient5984"
       id="linearGradient5994"
       gradientUnits="userSpaceOnUse"
       x1="28"
       y1="8"
       x2="33.447109"
       y2="16.685888" />
    <linearGradient
       inkscape:collect="always"
       id="linearGradient5984">
      <stop
         style="stop-color:#ffffff;stop-opacity:1;"
         offset="0"
         id="stop5986" />
      <stop
         style="stop-color:#ffffff;stop-opacity:0.13438736"
         offset="1"
         id="stop5988" />
    </linearGradient>
    <linearGradient
       inkscape:collect="always"
       xlink:href="#linearGradient5966"
       id="linearGradient5972"
       x1="20.933708"
       y1="25.060659"
       x2="30.208115"
       y2="30.742676"
       gradientUnits="userSpaceOnUse"
       gradientTransform="matrix(1.3767899,0,0,1.3767899,8.527887,-1.783161)" />
    <linearGradient
       inkscape:collect="always"
       id="linearGradient5966">
      <stop
         style="stop-color:#fdef72;stop-opacity:1"
         offset="0"
         id="stop5968" />
      <stop
         style="stop-color:#e2cb0b;stop-opacity:1"
         offset="1"
         id="stop5970" />
    </linearGradient>
    <linearGradient
       inkscape:collect="always"
       xlink:href="#linearGradient5987"
       id="linearGradient5993"
       x1="17.032078"
       y1="27.446827"
       x2="29.494455"
       y2="37.845814"
       gradientUnits="userSpaceOnUse"
       gradientTransform="matrix(1.3767899,0,0,1.3767899,8.527887,-1.783161)" />
    <linearGradient
       inkscape:collect="always"
       id="linearGradient5987">
      <stop
         style="stop-color:#d7c20f;stop-opacity:1"
         offset="0"
         id="stop5989" />
      <stop
         style="stop-color:#b6970d;stop-opacity:1"
         offset="1"
         id="stop5991" />
    </linearGradient>
    <linearGradient
       inkscape:collect="always"
       xlink:href="#linearGradient5981"
       id="linearGradient5973"
       gradientUnits="userSpaceOnUse"
       x1="22.319767"
       y1="41.955986"
       x2="18.985712"
       y2="37.029255"
       gradientTransform="matrix(1.3767899,0,0,1.3767899,8.527887,-1.783161)" />
    <linearGradient
       id="linearGradient5981"
       inkscape:collect="always">
      <stop
         id="stop5983"
         offset="0"
         style="stop-color:#ffffff;stop-opacity:1;" />
      <stop
         id="stop5985"
         offset="1"
         style="stop-color:#ffffff;stop-opacity:0.69411765" />
    </linearGradient>
    <linearGradient
       inkscape:collect="always"
       xlink:href="#linearGradient5999"
       id="linearGradient6005"
       x1="27.354809"
       y1="36.218422"
       x2="23.489431"
       y2="34.728424"
       gradientUnits="userSpaceOnUse"
       gradientTransform="matrix(1.3767899,0,0,1.3767899,8.527887,-1.78316)" />
    <linearGradient
       inkscape:collect="always"
       id="linearGradient5999">
      <stop
         style="stop-color:#c4a000;stop-opacity:1;"
         offset="0"
         id="stop6001" />
      <stop
         style="stop-color:#c4a000;stop-opacity:0;"
         offset="1"
         id="stop6003" />
    </linearGradient>
    <linearGradient
       inkscape:collect="always"
       xlink:href="#linearGradient5974"
       id="linearGradient5980"
       x1="27.651777"
       y1="23.145937"
       x2="21.59099"
       y2="20.618719"
       gradientUnits="userSpaceOnUse"
       gradientTransform="matrix(1.3448749,0,0,1.3767899,9.388844,-1.783161)" />
    <linearGradient
       inkscape:collect="always"
       id="linearGradient5974">
      <stop
         style="stop-color:#919191;stop-opacity:1"
         offset="0"
         id="stop5976" />
      <stop
         style="stop-color:#cecece;stop-opacity:1"
         offset="1"
         id="stop5978" />
    </linearGradient>
  </defs>
  <g
     id="layer1">
    <rect
       width="49.159065"
       height="6.6666665"
       x="7.4204431"
       y="53.333332"
       id="rect2723"
       style="opacity:0.3;fill:url(#linearGradient2566);fill-opacity:1;fill-rule:nonzero;stroke:none;stroke-width:0.5;marker:none;visibility:visible;display:inline;overflow:visible" />
    <path
       d="m 56.555559,53.333564 c 0,0 0,6.666297 0,6.666297 3.079373,0.01255 7.444439,-1.49358 7.444439,-3.333576 0,-1.839996 -3.436346,-3.332721 -7.444439,-3.332721 z"
       id="path2725"
       style="opacity:0.3;fill:url(#radialGradient2563);fill-opacity:1;fill-rule:nonzero;stroke:none;stroke-width:0.5;marker:none;visibility:visible;display:inline;overflow:visible" />
    <path
       d="m 7.4444398,53.333564 c 0,0 0,6.666297 0,6.666297 C 4.3650531,60.012413 0,58.506281 0,56.666285 0,54.826289 3.4363598,53.333564 7.4444398,53.333564 z"
       id="path2727"
       style="opacity:0.3;fill:url(#radialGradient2560);fill-opacity:1;fill-rule:nonzero;stroke:none;stroke-width:1;marker:none;visibility:visible;display:inline;overflow:visible" />
    <path
       d="m 1.4639996,48.463998 61.0720034,0 -1.221119,8.072 -58.4940274,0 -1.356857,-8.072 0,0 z"
       id="rect6431"
       style="fill:url(#linearGradient2557);fill-opacity:1;fill-rule:evenodd;stroke:#353537;stroke-width:0.9279989;stroke-linecap:round;stroke-linejoin:round;stroke-miterlimit:4;stroke-opacity:1;stroke-dasharray:none;stroke-dashoffset:0;display:inline;enable-background:new" />
    <rect
       width="60.868649"
       height="1.3632195"
       x="1.5656769"
       y="47.626324"
       id="rect6381"
       style="fill:#d2d2d3;fill-opacity:1;fill-rule:evenodd;stroke:none;display:inline;enable-background:new" />
    <path
       d="M 62.501957,48.502108 53.290998,13.313517 C 53.030543,12.311454 51.666211,11.49789 50.51922,11.49789 l -37.35606,0 c -1.762134,0 -2.7719,0.271104 -3.143472,1.815627 L 1.4980451,48.467845"
       id="path6345"
       style="fill:url(#radialGradient2551);fill-opacity:1;fill-rule:nonzero;stroke:url(#linearGradient2553);stroke-width:0.99578357;stroke-linecap:round;stroke-linejoin:round;stroke-miterlimit:4;stroke-opacity:1;stroke-dasharray:none;stroke-dashoffset:0;marker:none;visibility:visible;display:inline;overflow:visible;enable-background:accumulate" />
    <path
       d="M 61.499999,48.515874 2.5,48.484128"
       id="path7046"
       style="opacity:0.4;fill:none;stroke:#ffffff;stroke-width:1;stroke-linecap:round;stroke-linejoin:miter;stroke-miterlimit:4;stroke-opacity:1;stroke-dasharray:none;stroke-dashoffset:0;marker:none;visibility:visible;display:inline;overflow:visible;enable-background:accumulate" />
    <path
       d="M 54.961301,32.763994 C 54.666794,30.016779 52.693084,27.397202 49.413701,25.330095 49.347733,24.535535 48.507156,14.371086 48.507156,14.371086 48.44273,13.589722 47.463026,13 46.22743,13 l -7.75407,0 c -1.244481,0 -2.206486,0.597472 -2.237863,1.389719 -0.142288,3.579408 -4.480975,5.448266 -10.952903,7.148352 -2.267692,0.399217 -8.179889,2.275839 -9.536833,3.099502 C 11.751285,26.80128 9.3690428,29.685844 9.0389558,32.763994 8.7386844,35.563589 10.181955,38.365126 13.103009,40.6526 17.378382,44.000787 24.442478,46 31.99986,46 39.557253,46 46.621333,44.000787 50.897247,40.6526 53.565116,38.563769 55,36.045449 55,33.491839 55,33.249344 54.98605,33.006475 54.96122,32.763994 l 7.7e-5,0 0,0 z M 31.99986,44.611455 c -12.587087,0 -22.2254192,-5.610446 -21.528108,-12.113994 0.300798,-2.803863 2.508843,-5.79705 6.165383,-7.769491 0.684753,-0.524539 6.868981,-2.56488 9.087487,-2.923369 6.148651,-1.611623 11.771576,-3.703172 11.947859,-8.110905 0.0077,-0.211063 0.361988,-0.378272 0.800879,-0.378272 l 7.753033,0 c 0.448825,0 0.827591,0.175356 0.845371,0.391853 l 0.941567,11.387714 c 3.258987,1.919284 5.233731,4.78405 5.514123,7.40247 0.697821,6.503548 -8.940494,12.113994 -21.527594,12.113994 l 0,0 0,0 z"
       id="path9001"
       style="fill:url(#radialGradient2547);fill-opacity:1" />
    <path
       d="M 31.999692,37 C 27.513074,37 24.073624,35.310513 24.001128,33.069566 24.000558,33.045333 24,33.021515 24,32.997697 c 0,-0.8109 0.450798,-1.582111 1.307418,-2.235096 C 26.75649,29.658836 29.258363,29 32.000247,29 c 2.741329,0 5.243188,0.658836 6.69226,1.762601 0.881921,0.671362 1.33386,1.469317 1.306304,2.306543 -0.07365,2.240947 -3.513072,3.930849 -7.999119,3.930849 l 0,4e-6 0,3e-6 z m 0,-6.746239 c -4.215702,0 -6.363454,1.674441 -6.312862,3.203083 0.04889,1.504831 2.87511,2.707192 6.312862,2.707192 3.437752,0 6.26394,-1.202784 6.312849,-2.707192 0.04999,-1.529063 -2.097161,-3.203083 -6.312849,-3.203083 l 0,0 0,0 z"
       id="path9003"
       style="fill:url(#radialGradient2544);fill-opacity:1;fill-rule:nonzero;stroke-width:1;stroke-linecap:butt;stroke-linejoin:miter;stroke-miterlimit:4;stroke-opacity:1;stroke-dasharray:none;stroke-dashoffset:0;marker:none;visibility:visible;display:inline;overflow:visible;enable-background:accumulate" />
    <path
       d="M 7.9967277,45.492684 C 7.9332943,46.322928 6.9833279,47 5.8757865,47 4.7687495,47 3.9305429,46.322928 4.0045466,45.492684 4.078048,44.666829 5.027512,44 6.1239769,44 c 1.096969,3.91e-4 1.9351757,0.666829 1.8727508,1.492684 l 0,0 z"
       id="path9007"
       style="fill:#e1e1e1;fill-opacity:1" />
    <path
       d="m 7.280349,44.90878 c 0.1011901,0.105359 0.2169781,0.274148 0.2169781,0.498536 0,0.01611 -0.00101,0.03219 -0.00202,0.04928 -0.0438,0.572194 -0.7853474,1.055609 -1.6190232,1.055609 -0.474732,0 -0.908686,-0.158536 -1.1604005,-0.424877 -0.1082352,-0.113658 -0.2315767,-0.301952 -0.2094255,-0.552683 0.050846,-0.567318 0.7913868,-1.046829 1.6180165,-1.046829 0.471208,3.9e-4 0.9036511,0.157561 1.1558678,0.420974 l 4.1e-6,0 -5e-7,-7e-6 z"
       id="path9009"
       style="fill:url(#radialGradient2540);fill-opacity:1" />
    <path
       d="m 11.015508,13.309735 c 0.118861,0.526123 0.883302,0.813697 1.706351,0.639247 0.822674,-0.174371 1.387082,-0.743609 1.260368,-1.268067 -0.125972,-0.521702 -0.889146,-0.802742 -1.703963,-0.630035 -0.815161,0.173038 -1.380487,0.735406 -1.262756,1.258855 z"
       id="path9019"
       style="fill:#f0f0f0;fill-opacity:1" />
    <path
       d="m 11.497432,12.819853 c -0.0661,0.08398 -0.137561,0.211202 -0.118178,0.356097 0.0014,0.01035 0.0035,0.02071 0.0058,0.03149 0.08198,0.362583 0.674806,0.557935 1.294338,0.426621 0.352787,-0.07477 0.661577,-0.245501 0.825625,-0.457134 0.07062,-0.09045 0.146001,-0.231456 0.107889,-0.389872 -0.0868,-0.358327 -0.678535,-0.551317 -1.29283,-0.421113 -0.350136,0.07447 -0.657921,0.24408 -0.822597,0.453902 l -2e-6,2e-6 -5e-6,9e-6 z"
       id="path9021"
       style="fill:url(#radialGradient2536);fill-opacity:1" />
    <path
       d="m 49.000386,12.701322 c -0.01865,0.530555 0.641011,1.089131 1.473151,1.244373 0.831763,0.15517 1.515621,-0.152769 1.526335,-0.684798 0.01067,-0.529209 -0.649366,-1.081279 -1.473185,-1.234967 -0.824228,-0.153508 -1.507238,0.147743 -1.526301,0.675392 z"
       id="path9025"
       style="fill:#e1e1e1;fill-opacity:1" />
    <path
       d="m 49.58527,12.434852 c -0.08445,0.05201 -0.184921,0.141835 -0.202845,0.282832 -0.0013,0.01005 -0.0019,0.02031 -0.0024,0.03125 -0.01287,0.365665 0.505746,0.773348 1.132121,0.890201 0.356685,0.06654 0.695395,0.02776 0.905794,-0.104309 0.09041,-0.05624 0.198111,-0.157263 0.201496,-0.317911 0.0071,-0.363587 -0.510985,-0.768676 -1.132066,-0.884543 -0.354069,-0.0658 -0.691536,-0.02765 -0.902077,0.102505 l -4e-6,-4e-6 -4.7e-5,-1.8e-5 z"
       id="path9027"
       style="fill:url(#radialGradient2532);fill-opacity:1" />
    <path
       d="m 10,49 25,0 0,7 L 10.675687,56 10,49 z"
       id="rect8993"
       style="fill:url(#linearGradient2529);fill-opacity:1;fill-rule:evenodd;stroke:none;stroke-width:2.40899992;marker:none;visibility:visible;display:inline;overflow:visible" />
    <path
       d="M 10.528925,56 C 10.528925,56 10,51 10,51 c 2.478736,3.962657 11.732684,5 18,5 0,0 -17.471075,0 -17.471075,0 l 0,0 z"
       id="path8995"
       style="opacity:0.81142853;fill:url(#linearGradient2526);fill-opacity:1;fill-rule:evenodd;stroke:none" />
    <path
       d="M 14.542104,13 14.404406,13.544299 12.34874,21.645568 12,23 l 1.018663,-0.291135 17.32636,-5.063293 0.05503,-0.0253 0.04589,-0.0253 c 0.917513,-0.506221 1.407773,-1.529214 1.523397,-2.468355 0.05787,-0.469575 0.04052,-0.929393 -0.110053,-1.354427 -0.14219,-0.401253 -0.512368,-0.758253 -0.899355,-0.746839 l 0,-0.0253 -0.06428,0 -15.940611,0 -0.412973,0 4.4e-5,1e-6 -9e-6,-5.1e-5 z m 0.586449,0.500538 15.968721,0 c 0.0075,0.06838 0.02541,0.106328 0.0089,0.235714 -0.05009,0.407172 -0.265593,1.863855 -0.806989,2.181629 l -16.79474,4.910693 1.623456,-7.328033 5.21e-4,0 9.8e-5,-3e-6 z"
       id="path9039"
       style="fill:url(#radialGradient2523);fill-opacity:1;fill-rule:nonzero;stroke:none;stroke-width:1;marker:none;visibility:visible;display:inline;overflow:visible;enable-background:accumulate" />
    <path
       d="M 56.003272,45.492684 C 56.066707,46.322928 57.016672,47 58.124213,47 59.23125,47 60.069458,46.322928 59.995454,45.492684 59.921945,44.666829 58.972488,44 57.876023,44 c -1.09697,3.91e-4 -1.935174,0.666829 -1.872751,1.492684 l 0,0 z"
       id="path9091"
       style="fill:#e1e1e1;fill-opacity:1" />
    <path
       d="m 56.719652,44.90878 c -0.101194,0.105359 -0.216979,0.274148 -0.216979,0.498536 0,0.01611 10e-4,0.03219 0.002,0.04928 0.04381,0.572194 0.785346,1.055609 1.619022,1.055609 0.474732,0 0.908686,-0.158536 1.160399,-0.424877 0.108237,-0.113658 0.231578,-0.301952 0.209427,-0.552683 -0.05085,-0.567318 -0.791387,-1.046829 -1.618016,-1.046829 -0.471209,3.9e-4 -0.903651,0.157561 -1.155869,0.420974 l -3e-6,0 3.3e-5,-7e-6 z"
       id="path9093"
       style="fill:url(#radialGradient2519);fill-opacity:1" />
    <rect
       width="56.810738"
       height="6.8160973"
       x="3.5946319"
       y="48.989738"
       id="rect6300-3"
       style="opacity:0.3;fill:url(#radialGradient2516);fill-opacity:1;stroke:none" />
  </g>
  <path
     id="path9025-5"
     style="fill:#e1e1e1"
     d="m 49.216265,15.262652 c -0.01468,0.344787 0.50464,0.707787 1.159745,0.80868 0.654815,0.10084 1.19319,-0.09928 1.201615,-0.445026 0.0084,-0.34392 -0.511215,-0.702694 -1.159775,-0.80256 -0.648879,-0.09976 -1.186585,0.09601 -1.201585,0.43892 z"
     inkscape:connector-curvature="0" />
  <path
     id="path9027-6"
     style="fill:url(#radialGradient2953)"
     d="m 49.677599,15.089319 c -0.06648,0.0338 -0.145574,0.09217 -0.159694,0.1838 -10e-4,0.0065 -0.0014,0.0132 -0.0018,0.02031 -0.01014,0.237627 0.398147,0.502574 0.891265,0.578507 0.2808,0.04324 0.547455,0.01804 0.713095,-0.06779 0.07117,-0.03655 0.15596,-0.1022 0.158625,-0.2066 0.0056,-0.23628 -0.40228,-0.499533 -0.891225,-0.57484 -0.27875,-0.04276 -0.544413,-0.01797 -0.71016,0.06661 l -3e-6,-2e-6 z"
     inkscape:connector-curvature="0" />
  <g
     transform="matrix(0.01576022,0,0,0.01335022,61.630415,60.671786)"
     id="g2544" />
  <path
     style="fill:url(#linearGradient5964);fill-opacity:1;fill-rule:evenodd;stroke:url(#linearGradient6002);stroke-width:1.37678993px;stroke-linecap:butt;stroke-linejoin:miter;stroke-opacity:1"
     d="M 58.909795,1.61579 C 47.615688,1.761248 45.972375,23.985219 42.732513,27.989921 l 5.50716,1.979135 C 51.863209,23.948978 69.932369,3.936717 60.028437,1.658814 59.643638,1.616174 59.274121,1.611094 58.909795,1.615794 Z M 57.48998,4.455419 c 0.266496,-0.0258 0.50664,0.0079 0.73142,0.129074 0.899121,0.484799 0.996321,2.058131 0.215124,3.484999 C 57.655326,9.49636 56.280889,10.275279 55.381771,9.79048 54.482654,9.30568 54.38545,7.732348 55.166647,6.30548 55.752546,5.235329 56.690495,4.532817 57.48998,4.455419 Z"
     id="path5371"
     inkscape:connector-curvature="0" />
  <path
     sodipodi:type="inkscape:offset"
     inkscape:radius="-1.0049498"
     inkscape:original="M 36.59375 2.46875 C 28.390533 2.5744003 27.19695 18.716276 24.84375 21.625 L 28.84375 23.0625 C 31.475623 18.689953 44.599746 4.1545034 37.40625 2.5 C 37.12676 2.4690309 36.85837 2.4653419 36.59375 2.46875 z "
     style="opacity:0.26666667;fill:none;stroke:url(#linearGradient5994);stroke-width:1px;stroke-linecap:butt;stroke-linejoin:miter;stroke-opacity:1"
     id="path5992"
     d="m 36.607422,3.4726562 c -1.721619,0.022173 -3.025503,0.8402493 -4.205078,2.265625 -1.179576,1.4253758 -2.144428,3.4514011 -2.933594,5.6035158 -0.789166,2.152114 -1.410368,4.422551 -1.986328,6.363281 -0.399235,1.345245 -0.776838,2.424818 -1.22461,3.361328 l 2.207032,0.792969 c 1.619888,-2.496279 4.999189,-6.593456 7.490234,-10.625 1.325839,-2.1457566 2.309091,-4.2092911 2.525391,-5.59375 0.10815,-0.6922294 0.02944,-1.1651169 -0.140625,-1.4609375 -0.166113,-0.2889417 -0.456736,-0.5224937 -1.13086,-0.6855469 -0.192432,-0.016958 -0.385855,-0.024263 -0.601562,-0.021484 z"
     transform="matrix(1.3767899,0,0,1.3767899,8.527887,-1.78316)" />
  <path
     style="fill:url(#linearGradient5972);fill-opacity:1;fill-rule:evenodd;stroke:url(#linearGradient5993);stroke-width:1.37678981;stroke-linecap:butt;stroke-linejoin:miter;stroke-miterlimit:20;stroke-dasharray:none;stroke-opacity:1"
     d="m 39.505662,20.933872 c 0.97684,2.75772 -0.745378,5.146208 -1.37679,6.88395 -7.147697,2.128068 -12.097579,13.359992 -19.457599,19.211156 0.919404,0.96017 1.999412,1.988329 2.936119,2.817483 l 5.59321,-4.861789 -4.223381,6.229491 c 3.041656,2.465807 6.202516,4.139458 8.267701,4.827853 l 3.786172,-5.033888 -2.409382,5.722283 c 1.999091,0.810767 6.863692,2.040437 9.63753,2.065185 l 2.758935,-4.684524 -0.706526,4.770573 c 1.142134,0.218027 3.356841,0.515217 4.83154,0.559321 4.629024,-7.572345 5.50716,-19.920429 2.75358,-25.427589 -0.688395,-2.75358 2.065185,-6.195555 4.13037,-7.572345 -3.441975,-2.75358 -11.297372,-5.925326 -16.521479,-5.50716 z"
     id="path5367"
     sodipodi:nodetypes="cccccccccccccccc"
     inkscape:connector-curvature="0" />
  <path
     style="opacity:0.26666667;fill:#c4a000;fill-rule:evenodd;stroke:none"
     d="m 23.672578,51.223251 c 6.631301,-6.89895 6.147398,-9.918293 13.927768,-15.87126 -4.106197,6.647735 -4.771733,10.105718 -9.797399,18.62484 z"
     id="path5975"
     sodipodi:nodetypes="cccc"
     inkscape:connector-curvature="0" />
  <path
     style="opacity:0.41568627;fill:#c4a000;fill-rule:evenodd;stroke:none"
     d="m 33.516361,56.32075 5.983566,-13.547816 c 2.291685,-4.107965 3.937168,-8.219507 6.235445,-11.492551 -2.205554,7.459498 -6.733453,16.689162 -10.368949,25.642712 z"
     id="path5979"
     sodipodi:nodetypes="ccccc"
     inkscape:connector-curvature="0" />
  <path
     style="opacity:0.47843137;fill:none;stroke:url(#linearGradient5973);stroke-width:1.37678981px;stroke-linecap:butt;stroke-linejoin:miter;stroke-opacity:1"
     d="m 41.05455,22.310662 c 0.133191,2.636754 -1.270698,4.85958 -1.677962,5.980431 -0.143328,0.391985 -0.461679,0.694418 -0.860494,0.81747 -7.508184,3.076635 -10.504636,11.804649 -17.890889,18.016903 0.27762,0.275157 0.677424,0.57454 0.956222,0.837406 l 12.417075,-10.50752 -9.054617,13.50674 c 1.748568,1.414807 3.747899,2.594621 5.819217,3.427057 l 9.629755,-12.803428 -5.88563,14.334603 c 2.196764,0.723719 4.265713,1.139013 6.808239,1.498482 l 6.359021,-10.584073 -1.887221,10.886026 2.581481,0.311148 c 1.973233,-3.490843 2.935842,-7.801622 3.485,-12.100692 0.583683,-4.569354 -0.0069,-9.005828 -1.161667,-11.315493 -0.03739,-0.0829 -0.06622,-0.169393 -0.08605,-0.258148 -0.477551,-1.910201 0.232873,-3.780151 1.204691,-5.335061 0.587742,-0.940387 1.280927,-1.777131 2.016941,-2.480668 -1.612884,-1.077601 -3.561338,-2.010204 -6.018236,-2.897417 -2.42601,-0.87606 -4.816008,-1.307985 -6.754876,-1.333766 z"
     id="path6014"
     sodipodi:nodetypes="csccccccccccccsssscsc"
     inkscape:connector-curvature="0" />
  <path
     style="opacity:0.24705882;fill:url(#linearGradient6005);fill-opacity:1;fill-rule:evenodd;stroke:none"
     d="m 37.397452,57.418806 c 2.998051,-7.919118 8.805833,-13.86282 11.037605,-21.939715 0.07096,5.041905 0.343812,14.048387 -2.604766,23.015332 -0.440251,0.0025 -0.239461,-0.152561 -0.646926,-0.163223 l 1.102522,-7.881457 -4.517917,7.64722 c -3.016282,-0.215225 -1.782407,0.04488 -4.370518,-0.678157 z"
     id="path5977"
     sodipodi:nodetypes="ccccccc"
     inkscape:connector-curvature="0" />
  <path
     style="opacity:0.48235294;fill:#c4a000;fill-rule:evenodd;stroke:none"
     d="m 40.198279,29.346674 c -1.723734,0.848625 -2.839228,2.102741 -4.10711,3.255266 1.688615,-0.975653 3.275364,-1.994961 5.506572,-2.738075 z"
     id="path5995"
     sodipodi:nodetypes="cccc"
     inkscape:connector-curvature="0" />
  <path
     style="opacity:0.48235294;fill:#c4a000;fill-rule:evenodd;stroke:none"
     d="m 42.959612,29.967059 -1.399459,2.738074 4.103816,-2.186687 z"
     id="path5997"
     sodipodi:nodetypes="cccc"
     inkscape:connector-curvature="0" />
  <path
     style="opacity:0.48235294;fill:#c4a000;fill-rule:evenodd;stroke:none"
     d="m 42.864761,22.945912 -1.232493,2.350211 2.155677,0.691264 z"
     id="path6007"
     sodipodi:nodetypes="cccc"
     inkscape:connector-curvature="0" />
  <path
     style="opacity:0.48235294;fill:#c4a000;fill-rule:evenodd;stroke:none"
     d="m 52.479503,25.594816 -3.387245,2.527025 2.155678,0.691264 z"
     id="path6009"
     sodipodi:nodetypes="cccc"
     inkscape:connector-curvature="0" />
  <path
     style="opacity:0.48235294;fill:#c4a000;fill-rule:evenodd;stroke:none"
     d="m 47.095801,22.914476 -2.084337,3.475863 2.155677,0.691264 -0.07135,-4.167127 z"
     id="path6011"
     sodipodi:nodetypes="cccc"
     inkscape:connector-curvature="0" />
  <path
     style="opacity:0.2;fill:#000000;fill-opacity:1;fill-rule:evenodd;stroke:none"
     d="m 37.396042,28.540222 c -0.780337,-4.082848 12.849354,2.964095 15.195386,4.122617 -0.0089,1.48565 0,2.75358 -1.344875,2.75358 -3.53496,-1.917841 -8.997673,-4.963524 -13.850511,-6.876197 z"
     id="path6013"
     sodipodi:nodetypes="cccc"
     inkscape:connector-curvature="0" />
  <path
     style="fill:url(#linearGradient5980);fill-opacity:1;fill-rule:evenodd;stroke:#464646;stroke-width:1.37678993px;stroke-linecap:butt;stroke-linejoin:round;stroke-opacity:1"
     d="m 36.958783,27.817822 c -0.672438,-1.37679 0,-2.75358 1.344876,-2.75358 5.495375,1.342944 10.084815,3.037518 14.793625,5.50716 0.672438,1.37679 0,2.75358 -1.344875,2.75358 -4.865497,-2.566915 -9.454018,-4.233372 -14.793626,-5.50716 z"
     id="path5373"
     sodipodi:nodetypes="ccccc"
     inkscape:connector-curvature="0" />
</svg>
