<?xml version="1.0" encoding="UTF-8" standalone="no"?>
<svg xmlns:rdf="http://www.w3.org/1999/02/22-rdf-syntax-ns#" xmlns="http://www.w3.org/2000/svg" height="64" width="64" version="1.1" xmlns:cc="http://creativecommons.org/ns#" xmlns:xlink="http://www.w3.org/1999/xlink" xmlns:dc="http://purl.org/dc/elements/1.1/">
 <defs>
  <linearGradient id="f" y2="22" gradientUnits="userSpaceOnUse" x2="156" gradientTransform="matrix(1.3506 0 0 1.3497 -28.992 222.35)" y1="20" x1="156">
   <stop stop-color="#fff" offset="0"/>
   <stop stop-color="#fff" stop-opacity="0" offset="1"/>
  </linearGradient>
  <linearGradient id="a" y2="4" xlink:href="#h" gradientUnits="userSpaceOnUse" x2="157" gradientTransform="matrix(1.3506 0 0 1.3497 -28.992 222.75)" y1="17" x1="157"/>
  <linearGradient id="h">
   <stop stop-color="#5b371f" offset="0"/>
   <stop stop-color="#5b371f" stop-opacity="0" offset="1"/>
  </linearGradient>
  <linearGradient id="e" y2="188.87" gradientUnits="userSpaceOnUse" x2="25.613" gradientTransform="translate(148.11 91.216)" y1="167.62" x1="13.874">
   <stop stop-color="#fff" offset="0"/>
   <stop stop-color="#fff" stop-opacity="0" offset="1"/>
  </linearGradient>
  <radialGradient id="c" gradientUnits="userSpaceOnUse" cy="27.696" cx="156" gradientTransform="matrix(1.2756 2.8517e-8 -2.5179e-8 1.1247 -17.287 232.09)" r="18">
   <stop stop-color="#fff" offset="0"/>
   <stop stop-color="#ededed" offset=".5"/>
   <stop stop-color="#c8c8c8" offset="1"/>
  </radialGradient>
  <linearGradient id="g" y2="76.478" gradientUnits="userSpaceOnUse" x2="114.45" y1="73.737" x1="116.59">
   <stop stop-color="#fff" offset="0"/>
   <stop stop-color="#fff" stop-opacity="0" offset="1"/>
  </linearGradient>
  <radialGradient id="d" gradientUnits="userSpaceOnUse" cy="40.844" cx="156.84" gradientTransform="matrix(1 0 0 .33333 0 27.229)" r="10.969">
   <stop offset="0"/>
   <stop stop-opacity="0" offset="1"/>
  </radialGradient>
  <radialGradient id="b" gradientUnits="userSpaceOnUse" cy="16.882" cx="156.01" gradientTransform="matrix(.97818 -.0049620 .0022009 .43329 29.059 248.69)" r="17">
   <stop stop-color="#b37851" offset="0"/>
   <stop stop-color="#462e1e" offset="1"/>
  </radialGradient>
 </defs>
 <g transform="translate(-153.71 -228.93)">
  <path opacity="0.99" stroke-linejoin="round" style="color:#000000" d="m203.69 261.22-1.2662 3.9676h5.6134c0.8633 0 1.3648 0.6386 1.0974 1.7065l-0.84411 3.4983c-0.26743 1.0679-1.1204 1.7065-1.9837 1.7065h-6.0354l-1.224 3.9676h6.2464c3.1083 0 6.2615-2.5321 7.0484-5.6741l0.84411-3.4983c0.78684-3.1419-1.07-5.6741-4.1784-5.6741h-5.3179z" stroke="#969696" stroke-linecap="round" fill="#dcdcdc"/>
  <path opacity="0.99" stroke-linejoin="round" style="color:#000000" d="m227.37 19.938c0 1.1046-5.4285 2-12.125 2-6.6964 0-12.125-0.89543-12.125-2s5.4285-2 12.125-2 12.125 0.89543 12.125 2z" transform="matrix(1.5262 0 0 1.5269 -145.92 224.46)" stroke="#141414" stroke-linecap="round" stroke-width=".65508" fill="#52250c"/>
  <path opacity="0.99" stroke-linejoin="round" style="color:#000000" d="m181.7 247.72c-13.062 0-23.635 3.006-23.635 6.6912s10.573 6.6912 23.635 6.6912 23.635-3.006 23.635-6.6912-10.573-6.6912-23.635-6.6912z" stroke="#969696" stroke-linecap="round" fill="#dcdcdc"/>
  <path opacity="0.99" stroke-linejoin="round" style="color:#000000" d="m181.7 253.12c-12.316 0-22.285 3.006-22.285 6.6912s9.969 6.6912 22.285 6.6912 22.285-3.006 22.285-6.6912-9.969-6.6912-22.285-6.6912z" stroke="#bf8d6d" stroke-linecap="round" fill="url(#b)"/>
  <path opacity=".4" style="color:#000000" d="m167.81 40.844c0 2.0193-4.9109 3.6562-10.969 3.6562-6.0579 0-10.969-1.637-10.969-3.6562 0-2.0193 4.9109-3.6562 10.969-3.6562 6.0579 0 10.969 1.637 10.969 3.6562z" transform="matrix(1.796 0 0 1.8457 -99.985 210.8)" fill="url(#d)"/>
  <path opacity="0.99" stroke-linejoin="round" style="color:#000000" d="m104.03 68.969-1.94 6.031h10c1.1171 0 2.1727 0.45552 2.7812 1.3438 0.60337 0.88063 0.71377 2.0585 0.40625 3.3125v0.03125l-1.6875 7.0312a1.0001 1.0001 0 0 1 0 0.03125c-0.6412 2.5578-2.7658 4.1875-5 4.1875h-11.438l-1.8438 6h11.25c5.7305 0 11.802-4.8161 13.281-10.656v-0.03125l1.6875-7.0312a1.0001 1.0001 0 0 1 0 -0.03125c0.73439-2.9296 0.23581-5.4704-1.0938-7.2812-1.3296-1.8109-3.5069-2.9375-6.375-2.9375h-10.031z" transform="matrix(.47994 0 0 .48089 153.86 228.89)" stroke="url(#g)" stroke-linecap="round" stroke-width="2.0815" fill="none"/>
  <path style="enable-background:new" d="m202.41 273.24h4.2895c1.049 0 2.0398-1.1421 2.0398-1.1421" stroke="#fff" stroke-linecap="round" stroke-width="1px" fill="none"/>
  <path opacity="0.99" stroke-linejoin="round" style="color:#000000" d="m205.23 255.03c-1.1028 3.3976-11.207 6.0625-23.531 6.0625-12.095 0-22.06-2.5677-23.469-5.875-0.048 0.0734-0.11898 0.14438-0.15625 0.21875 0 14.652 7.9473 32.812 23.375 32.812 16.528 0 23.624-17.814 23.875-32.812 0.00001-0.13229-0.0288-0.27726-0.0937-0.40625z" stroke="#969696" stroke-linecap="round" fill="url(#c)"/>
  <path opacity="0.99" style="color:#000000" d="m161.48 258.36c1.7969 10.265 6.994 21.243 15.49 24.961-6.0812-5.3313-9.5621-14.777-10.492-23.322-1.8621-0.34997-3.5615-1.1523-4.9978-1.6385z" fill="url(#e)"/>
  <path opacity=".7" style="enable-background:new" d="m183.04 244.96c0.62423 0.011 1.2506-0.15731 1.7852-0.47969 0.53465-0.32239 0.97584-0.79781 1.2574-1.355 0.28161-0.55721 0.40272-1.1944 0.34519-1.8161-0.0575-0.62166-0.29353-1.2258-0.67261-1.7219-0.64351-0.84209-1.6392-1.3261-2.603-1.7668-0.96382-0.44076-1.9673-0.89269-2.6565-1.6978-0.45883-0.53604-0.75233-1.2117-0.83096-1.9129-0.0786-0.7012 0.0579-1.4251 0.38661-2.0494 0.32869-0.62436 0.84817-1.1466 1.4708-1.4787 0.62258-0.33204 1.3457-0.47247 2.0473-0.3976" stroke="url(#a)" stroke-linecap="round" stroke-width="1px" fill="none"/>
  <path opacity=".7" style="enable-background:new" d="m193.9 244.96c0.62803 0.02 1.2608-0.1418 1.8021-0.46085 0.54132-0.31905 0.98937-0.79427 1.276-1.3534 0.28668-0.55913 0.41102-1.2003 0.35412-1.8261-0.0569-0.62576-0.29486-1.234-0.67768-1.7323-0.65239-0.84911-1.6631-1.3308-2.6405-1.768-0.97747-0.43722-1.9959-0.88574-2.6952-1.6967-0.46422-0.53834-0.76096-1.2191-0.83937-1.9256-0.0784-0.70652 0.0619-1.4358 0.39673-2.0628 0.33489-0.62702 0.86298-1.1491 1.4938-1.4769 0.63079-0.32774 1.3616-0.4597 2.0672-0.37327" stroke="url(#a)" stroke-linecap="round" stroke-width="1px" fill="none"/>
  <path opacity=".7" style="enable-background:new" d="m172.24 244.96c0.62504 0.0129 1.2528-0.15402 1.7888-0.4757 0.53607-0.32168 0.97871-0.79706 1.2614-1.3547 0.28268-0.55761 0.40447-1.1956 0.34707-1.8182-0.0574-0.62253-0.29381-1.2275-0.67369-1.7241-0.6454-0.84357-1.6442-1.3271-2.611-1.7671-0.96672-0.44001-1.9734-0.89122-2.6647-1.6976-0.45997-0.53653-0.75416-1.2132-0.83275-1.9156-0.0786-0.70233 0.0587-1.4273 0.38875-2.0523 0.33001-0.62492 0.85131-1.1472 1.4756-1.4783 0.62433-0.33113 1.3491-0.46977 2.0516-0.39244" stroke="url(#a)" stroke-linecap="round" stroke-width="1px" fill="none"/>
  <path opacity="0.99" stroke-linejoin="round" style="color:#000000" d="m181.7 248.67c-13.062 0-23.635 3.006-23.635 6.6912s10.573 6.6912 23.635 6.6912 23.635-3.006 23.635-6.6912-10.573-6.6912-23.635-6.6912z" stroke="url(#f)" stroke-linecap="round" fill="none"/>
  <path stroke-linejoin="round" style="color:#000000" d="m111.73 57.486c-6.86 7.458-31.747 11.762-55.575 9.612-14.811-1.336-26.397-4.956-30.69-9.589" transform="matrix(.52567 .0013943 -.0012901 .48640 145.68 229.1)" stroke="#fff" stroke-linecap="round" stroke-width="1.9776" fill="none"/>
 </g>
</svg>
