<?xml version="1.0" encoding="UTF-8" standalone="no"?>
<svg xmlns:rdf="http://www.w3.org/1999/02/22-rdf-syntax-ns#" xmlns="http://www.w3.org/2000/svg" height="64" width="64" version="1.1" xmlns:cc="http://creativecommons.org/ns#" xmlns:xlink="http://www.w3.org/1999/xlink" xmlns:dc="http://purl.org/dc/elements/1.1/">
 <defs>
  <linearGradient id="e" y2="43" gradientUnits="userSpaceOnUse" x2="24" gradientTransform="matrix(1.4324 0 0 1.4363 -2.3784 -2.4708)" y1="5" x1="24">
   <stop stop-color="#fff" offset="0"/>
   <stop stop-color="#fff" stop-opacity=".23529" offset=".063165"/>
   <stop stop-color="#fff" stop-opacity=".15686" offset=".95056"/>
   <stop stop-color="#fff" stop-opacity=".39216" offset="1"/>
  </linearGradient>
  <radialGradient id="a" gradientUnits="userSpaceOnUse" cy="8.4498" cx="7.4957" gradientTransform="matrix(0 2.9339 -3.4865 -7.9857e-8 61.46 -16.67)" r="20">
   <stop stop-color="#4ad58e" offset="0"/>
   <stop stop-color="#2dc477" offset=".26238"/>
   <stop stop-color="#26a464" offset=".70495"/>
   <stop stop-color="#1d7d4c" offset="1"/>
  </radialGradient>
  <linearGradient id="d" y2="3.899" gradientUnits="userSpaceOnUse" x2="24" gradientTransform="matrix(1.4103 0 0 1.4103 -1.8462 -1.8462)" y1="43.256" x1="24">
   <stop stop-color="#1a6f44" offset="0"/>
   <stop stop-color="#1f8753" offset="1"/>
  </linearGradient>
  <radialGradient id="c" gradientUnits="userSpaceOnUse" cy="43.5" cx="4.993" gradientTransform="matrix(2.0038 0 0 1.4 27.988 -17.4)" r="2.5">
   <stop stop-color="#181818" offset="0"/>
   <stop stop-color="#181818" stop-opacity="0" offset="1"/>
  </radialGradient>
  <radialGradient id="b" gradientUnits="userSpaceOnUse" cy="43.5" cx="4.993" gradientTransform="matrix(2.0038 0 0 1.4 -20.012 -104.4)" r="2.5">
   <stop stop-color="#181818" offset="0"/>
   <stop stop-color="#181818" stop-opacity="0" offset="1"/>
  </radialGradient>
  <linearGradient id="f" y2="39.999" gradientUnits="userSpaceOnUse" x2="25.058" y1="47.028" x1="25.058">
   <stop stop-color="#181818" stop-opacity="0" offset="0"/>
   <stop stop-color="#181818" offset=".5"/>
   <stop stop-color="#181818" stop-opacity="0" offset="1"/>
  </linearGradient>
 </defs>
 <g transform="matrix(1.5 0 0 .55556 -4 35.889)">
  <g opacity=".4" transform="matrix(1.0526 0 0 1.2857 -1.2632 -13.429)">
   <rect height="7" width="5" y="40" x="38" fill="url(#c)"/>
   <rect transform="scale(-1)" height="7" width="5" y="-47" x="-10" fill="url(#b)"/>
   <rect height="7" width="28" y="40" x="10" fill="url(#f)"/>
  </g>
 </g>
 <rect stroke-linejoin="round" height="55" stroke="url(#d)" stroke-linecap="round" fill="url(#a)" style="color:#000000" rx="3" ry="3" width="55" y="4.5" x="4.5"/>
 <rect opacity=".5" stroke-linejoin="round" rx="2" ry="2" height="53.142" width="53" stroke="url(#e)" stroke-linecap="round" y="5.4288" x="5.5" fill="none"/>
 <path opacity=".15" style="color-rendering:auto;text-decoration-color:#000000;color:#000000;isolation:auto;mix-blend-mode:normal;shape-rendering:auto;solid-color:#000000;block-progression:tb;text-decoration-line:none;text-decoration-style:solid;image-rendering:auto;white-space:normal;text-indent:0;text-transform:none" d="m18 21v1.5 5.5742 3 4 3 6.926h28v-6.9258-3-4-3-7.074h-28zm3 3h9v4.0742h-9v-4.074zm13 0h9v4.0742h-9v-4.074zm-13 7.0742h9v4h-9v-4zm13 0h9v4h-9v-4zm-13 7h9v3.926h-9v-3.9258zm13 0h9v3.926h-9v-3.9258z" fill-rule="evenodd"/>
 <path opacity=".05" style="color-rendering:auto;text-decoration-color:#000000;color:#000000;isolation:auto;mix-blend-mode:normal;shape-rendering:auto;solid-color:#000000;block-progression:tb;text-decoration-line:none;text-decoration-style:solid;image-rendering:auto;white-space:normal;text-indent:0;text-transform:none" d="m18 20a1.0001 1.0001 0 0 0 -1 1v1.5 5.574 3 4 3 6.926a1.0001 1.0001 0 0 0 1 1h28a1.0001 1.0001 0 0 0 1 -1v-6.926-3-4-3-7.074a1.0001 1.0001 0 0 0 -1 -1h-28zm4 5h7v2.074h-7v-2.074zm13 0h7v2.074h-7v-2.074zm-13 7.074h7v2h-7v-2zm13 0h7v2h-7v-2zm-13 7h7v1.926h-7v-1.926zm13 0h7v1.926h-7v-1.926z" fill-rule="evenodd"/>
 <path style="color-rendering:auto;text-decoration-color:#000000;color:#000000;isolation:auto;mix-blend-mode:normal;shape-rendering:auto;solid-color:#000000;block-progression:tb;text-decoration-line:none;text-decoration-style:solid;image-rendering:auto;white-space:normal;text-indent:0;text-transform:none" d="m18 20v1.5 5.5742 3 4 3 6.926h28v-6.9258-3-4-3-7.074h-28zm3 3h9v4.0742h-9v-4.074zm13 0h9v4.0742h-9v-4.074zm-13 7.0742h9v4h-9v-4zm13 0h9v4h-9v-4zm-13 7h9v3.926h-9v-3.9258zm13 0h9v3.926h-9v-3.9258z" fill-rule="evenodd" fill="#fff"/>
</svg>
