<?xml version="1.0" encoding="UTF-8" standalone="no"?>
<svg xmlns:rdf="http://www.w3.org/1999/02/22-rdf-syntax-ns#" xmlns="http://www.w3.org/2000/svg" height="64" width="64" version="1.1" xmlns:cc="http://creativecommons.org/ns#" xmlns:xlink="http://www.w3.org/1999/xlink" xmlns:dc="http://purl.org/dc/elements/1.1/">
 <defs>
  <linearGradient id="e" y2="43" gradientUnits="userSpaceOnUse" x2="24" gradientTransform="matrix(1.4324 0 0 1.4363 -2.3784 -2.4708)" y1="5" x1="24">
   <stop stop-color="#fff" offset="0"/>
   <stop stop-color="#fff" stop-opacity=".23529" offset=".063165"/>
   <stop stop-color="#fff" stop-opacity=".15686" offset=".95056"/>
   <stop stop-color="#fff" stop-opacity=".39216" offset="1"/>
  </linearGradient>
  <radialGradient id="a" gradientUnits="userSpaceOnUse" cy="8.4498" cx="7.4957" gradientTransform="matrix(0 2.6821 -3.4865 -7.3003e-8 61.46 -14.783)" r="20">
   <stop stop-color="#79a8f7" offset="0"/>
   <stop stop-color="#74a5f7" offset=".26238"/>
   <stop stop-color="#337bf3" offset=".70495"/>
   <stop stop-color="#0e62ed" offset="1"/>
  </radialGradient>
  <linearGradient id="d" y2="3.899" gradientUnits="userSpaceOnUse" x2="24" gradientTransform="matrix(1.4103 0 0 1.4103 -1.8462 -1.8462)" y1="44" x1="24">
   <stop stop-color="#0a45a8" offset="0"/>
   <stop stop-color="#0d5ce0" offset="1"/>
  </linearGradient>
  <radialGradient id="c" gradientUnits="userSpaceOnUse" cy="43.5" cx="4.993" gradientTransform="matrix(2.0038 0 0 1.4 27.988 -17.4)" r="2.5">
   <stop stop-color="#181818" offset="0"/>
   <stop stop-color="#181818" stop-opacity="0" offset="1"/>
  </radialGradient>
  <radialGradient id="b" gradientUnits="userSpaceOnUse" cy="43.5" cx="4.993" gradientTransform="matrix(2.0038 0 0 1.4 -20.012 -104.4)" r="2.5">
   <stop stop-color="#181818" offset="0"/>
   <stop stop-color="#181818" stop-opacity="0" offset="1"/>
  </radialGradient>
  <linearGradient id="f" y2="39.999" gradientUnits="userSpaceOnUse" x2="25.058" y1="47.028" x1="25.058">
   <stop stop-color="#181818" stop-opacity="0" offset="0"/>
   <stop stop-color="#181818" offset=".5"/>
   <stop stop-color="#181818" stop-opacity="0" offset="1"/>
  </linearGradient>
 </defs>
 <g transform="matrix(1.5 0 0 .55556 -4 35.889)">
  <g opacity=".4" transform="matrix(1.0526 0 0 1.2857 -1.2632 -13.429)">
   <rect height="7" width="5" y="40" x="38" fill="url(#c)"/>
   <rect transform="scale(-1)" height="7" width="5" y="-47" x="-10" fill="url(#b)"/>
   <rect height="7" width="28" y="40" x="10" fill="url(#f)"/>
  </g>
 </g>
 <rect stroke-linejoin="round" height="55" stroke="url(#d)" stroke-linecap="round" fill="url(#a)" style="color:#000000" rx="3" ry="3" width="55" y="4.5" x="4.5"/>
 <path opacity=".15" d="m20 18v10h-15v10h15v10l15-15-15-15z"/>
 <path opacity=".05" d="m19.984 17a1.0001 1.0001 0 0 0 -0.984 1v9h-14v12h14v9a1.0001 1.0001 0 0 0 1.707 0.707l15-15a1.0001 1.0001 0 0 0 0 -1.414l-15-15a1.0001 1.0001 0 0 0 -0.723 -0.293z"/>
 <path d="m20 17v10h-15v10h15v10l15-15-15-15z" fill="#fff"/>
 <rect opacity=".5" stroke-linejoin="round" rx="2" ry="2" height="53.142" width="53" stroke="url(#e)" stroke-linecap="round" y="5.4288" x="5.5" fill="none"/>
</svg>
