<?xml version="1.0" encoding="UTF-8" standalone="no"?>
<svg xmlns:rdf="http://www.w3.org/1999/02/22-rdf-syntax-ns#" xmlns="http://www.w3.org/2000/svg" height="64" width="64" version="1.1" xmlns:cc="http://creativecommons.org/ns#" xmlns:xlink="http://www.w3.org/1999/xlink" viewBox="0 0 64.000001 64.000001" xmlns:dc="http://purl.org/dc/elements/1.1/">
 <defs>
  <linearGradient id="e" y2="43" gradientUnits="userSpaceOnUse" x2="24" gradientTransform="matrix(1.4324 0 0 1.4363 -2.3784 985.89)" y1="5" x1="24">
   <stop stop-color="#fff" offset="0"/>
   <stop stop-color="#fff" stop-opacity=".23529" offset=".063165"/>
   <stop stop-color="#fff" stop-opacity=".15686" offset=".95056"/>
   <stop stop-color="#fff" stop-opacity=".39216" offset="1"/>
  </linearGradient>
  <radialGradient id="b" gradientUnits="userSpaceOnUse" cy="4.3419" cx="32" gradientTransform="matrix(1.0056e-8 2.3103 -2.3103 1.0056e-8 42.031 919.28)" r="27.5">
   <stop stop-color="#fafafa" offset="0"/>
   <stop stop-color="#e1e1e1" offset="1"/>
  </radialGradient>
  <radialGradient id="d" xlink:href="#a" gradientUnits="userSpaceOnUse" cy="43.5" cx="4.993" gradientTransform="matrix(2.0038 0 0 1.4 27.988 -17.4)" r="2.5"/>
  <linearGradient id="a">
   <stop stop-color="#181818" offset="0"/>
   <stop stop-color="#181818" stop-opacity="0" offset="1"/>
  </linearGradient>
  <radialGradient id="c" xlink:href="#a" gradientUnits="userSpaceOnUse" cy="43.5" cx="4.993" gradientTransform="matrix(2.0038 0 0 1.4 -20.012 -104.4)" r="2.5"/>
  <linearGradient id="f" y2="39.999" gradientUnits="userSpaceOnUse" x2="25.058" y1="47.028" x1="25.058">
   <stop stop-color="#181818" stop-opacity="0" offset="0"/>
   <stop stop-color="#181818" offset=".5"/>
   <stop stop-color="#181818" stop-opacity="0" offset="1"/>
  </linearGradient>
 </defs>
 <g transform="translate(0 -988.36)">
  <g opacity=".4" transform="matrix(1.579 0 0 .71429 -5.8948 1016.3)">
   <rect height="7" width="5" y="40" x="38" fill="url(#d)"/>
   <rect transform="scale(-1)" height="7" width="5" y="-47" x="-10" fill="url(#c)"/>
   <rect height="7" width="28" y="40" x="10" fill="url(#f)"/>
  </g>
  <rect style="color:#000000" rx="2.5" ry="2.5" height="54" width="54" y="993.36" x="5" fill="url(#b)"/>
  <rect stroke-linejoin="round" rx="2" ry="2" height="53.142" width="53" stroke="url(#e)" stroke-linecap="round" y="993.79" x="5.5" fill="none"/>
  <rect opacity=".3" style="color:#000000" rx="3" ry="3" height="55" width="55" stroke="#000" y="992.86" x="4.5" fill="none"/>
  <g fill-rule="evenodd" clip-rule="evenodd" transform="matrix(1.0186 0 0 1.0186 .43952 990.34)">
   <polygon style="image-rendering:optimizeQuality;shape-rendering:geometricPrecision" transform="matrix(.00025534 0 0 .00025534 13.983 14.744)" class="fil0" points="22194 1.1534e5 44385 76894 1.3316e5 76894 1.1096e5 1.1534e5" fill="#3777e3"/>
   <polygon style="image-rendering:optimizeQuality;shape-rendering:geometricPrecision" transform="matrix(.00025534 0 0 .00025534 13.983 14.744)" class="fil1" points="88772 76894 1.3316e5 76894 88772 0 44385 0" fill="#ffcf63"/>
   <polygon style="image-rendering:optimizeQuality;shape-rendering:geometricPrecision" transform="matrix(.00025534 0 0 .00025534 13.983 14.744)" class="fil2" points="0 76894 22194 1.1534e5 66578 38447 44385 0" fill="#11a861"/>
   <polygon style="image-rendering:optimizeQuality;shape-rendering:geometricPrecision" transform="matrix(.00025534 0 0 .00025534 13.983 14.744)" class="fil0" points="22194 1.1534e5 44385 76894 1.3316e5 76894 1.1096e5 1.1534e5" fill="#3777e3"/>
   <polygon style="image-rendering:optimizeQuality;shape-rendering:geometricPrecision" transform="matrix(.00025534 0 0 .00025534 13.983 14.744)" class="fil1" points="88772 76894 1.3316e5 76894 88772 0 44385 0" fill="#ffcf63"/>
   <polygon style="image-rendering:optimizeQuality;shape-rendering:geometricPrecision" transform="matrix(.00025534 0 0 .00025534 13.983 14.744)" class="fil2" points="0 76894 22194 1.1534e5 66578 38447 44385 0" fill="#11a861"/>
  </g>
  <path opacity=".05" stroke-linejoin="round" style="image-rendering:optimizeQuality;shape-rendering:geometricPrecision" d="m26.229 1006.4-11.545 20 5.7715 10h23.09l5.7715-10-11.543-20h-11.545zm5.7715 10 5.7734 10h-11.545l5.7715-10z" fill-rule="evenodd" stroke="#000" clip-rule="evenodd" stroke-width="2"/>
  <path opacity=".15" style="image-rendering:optimizeQuality;shape-rendering:geometricPrecision" d="m26.229 1006.4-11.545 20 5.7715 10h23.09l5.7715-10-11.543-20h-11.545zm5.7715 10 5.7734 10h-11.545l5.7715-10z" fill-rule="evenodd" clip-rule="evenodd"/>
  <polygon style="image-rendering:optimizeQuality;shape-rendering:geometricPrecision" fill-rule="evenodd" transform="matrix(.00026010 0 0 .00026010 14.683 1005.4)" class="fil0" points="22194 1.1534e5 44385 76894 1.3316e5 76894 1.1096e5 1.1534e5" clip-rule="evenodd" fill="#3777e3"/>
  <polygon style="image-rendering:optimizeQuality;shape-rendering:geometricPrecision" fill-rule="evenodd" transform="matrix(.00026010 0 0 .00026010 14.683 1005.4)" class="fil1" points="88772 76894 1.3316e5 76894 88772 0 44385 0" clip-rule="evenodd" fill="#ffcf63"/>
  <polygon style="image-rendering:optimizeQuality;shape-rendering:geometricPrecision" fill-rule="evenodd" transform="matrix(.00026010 0 0 .00026010 14.683 1005.4)" class="fil2" points="0 76894 22194 1.1534e5 66578 38447 44385 0" clip-rule="evenodd" fill="#11a861"/>
 </g>
</svg>
