<?xml version="1.0" encoding="UTF-8" standalone="no"?>
<svg xmlns:rdf="http://www.w3.org/1999/02/22-rdf-syntax-ns#" xmlns="http://www.w3.org/2000/svg" height="64" width="64" version="1.1" xmlns:cc="http://creativecommons.org/ns#" xmlns:xlink="http://www.w3.org/1999/xlink" viewBox="0 0 64.000001 64.000001" xmlns:dc="http://purl.org/dc/elements/1.1/">
 <defs>
  <linearGradient id="e" y2="43" gradientUnits="userSpaceOnUse" x2="24" gradientTransform="matrix(1.4324 0 0 1.4363 -2.3784 985.89)" y1="5" x1="24">
   <stop stop-color="#fff" offset="0"/>
   <stop stop-color="#fff" stop-opacity=".23529" offset=".063165"/>
   <stop stop-color="#fff" stop-opacity=".15686" offset=".95056"/>
   <stop stop-color="#fff" stop-opacity=".39216" offset="1"/>
  </linearGradient>
  <radialGradient id="b" gradientUnits="userSpaceOnUse" cy="4.3419" cx="32" gradientTransform="matrix(1.0056e-8 2.3103 -2.3103 1.0056e-8 42.031 919.28)" r="27.5">
   <stop stop-color="#fafafa" offset="0"/>
   <stop stop-color="#e1e1e1" offset="1"/>
  </radialGradient>
  <radialGradient id="d" xlink:href="#a" gradientUnits="userSpaceOnUse" cy="43.5" cx="4.993" gradientTransform="matrix(2.0038 0 0 1.4 27.988 -17.4)" r="2.5"/>
  <linearGradient id="a">
   <stop stop-color="#181818" offset="0"/>
   <stop stop-color="#181818" stop-opacity="0" offset="1"/>
  </linearGradient>
  <radialGradient id="c" xlink:href="#a" gradientUnits="userSpaceOnUse" cy="43.5" cx="4.993" gradientTransform="matrix(2.0038 0 0 1.4 -20.012 -104.4)" r="2.5"/>
  <linearGradient id="f" y2="39.999" gradientUnits="userSpaceOnUse" x2="25.058" y1="47.028" x1="25.058">
   <stop stop-color="#181818" stop-opacity="0" offset="0"/>
   <stop stop-color="#181818" offset=".5"/>
   <stop stop-color="#181818" stop-opacity="0" offset="1"/>
  </linearGradient>
 </defs>
 <g transform="translate(0 -988.36)">
  <g opacity=".4" transform="matrix(1.579 0 0 .71429 -5.8948 1016.3)">
   <rect height="7" width="5" y="40" x="38" fill="url(#d)"/>
   <rect transform="scale(-1)" height="7" width="5" y="-47" x="-10" fill="url(#c)"/>
   <rect height="7" width="28" y="40" x="10" fill="url(#f)"/>
  </g>
  <rect style="color:#000000" rx="2.5" ry="2.5" height="54" width="54" y="993.36" x="5" fill="url(#b)"/>
  <rect stroke-linejoin="round" rx="2" ry="2" height="53.142" width="53" stroke="url(#e)" stroke-linecap="round" y="993.79" x="5.5" fill="none"/>
  <rect opacity=".3" style="color:#000000" rx="3" ry="3" height="55" width="55" stroke="#000" y="992.86" x="4.5" fill="none"/>
  <rect opacity=".15" rx="2" ry="2" height="8" width="8" y="1017.4" x="40"/>
  <path opacity=".05" style="color-rendering:auto;text-decoration-color:#000000;color:#000000;isolation:auto;mix-blend-mode:normal;shape-rendering:auto;solid-color:#000000;block-progression:tb;text-decoration-line:none;text-decoration-style:solid;image-rendering:auto;white-space:normal;text-indent:0;text-transform:none" d="m42 1016.4c-1.6447 0-3 1.3553-3 3v4c0 1.6447 1.3553 3 3 3h4c1.6447 0 3-1.3553 3-3v-4c0-1.6447-1.3553-3-3-3h-4zm0 2h4c0.5713 0 1 0.4287 1 1v4c0 0.5713-0.4287 1-1 1h-4c-0.5713 0-1-0.4287-1-1v-4c0-0.5713 0.4287-1 1-1z"/>
  <rect rx="2" ry="2" height="8" width="8" y="1016.4" x="40" fill="#ffb000"/>
  <path opacity=".05" style="color-rendering:auto;text-decoration-color:#000000;color:#000000;isolation:auto;mix-blend-mode:normal;shape-rendering:auto;solid-color:#000000;block-progression:tb;text-decoration-line:none;text-decoration-style:solid;image-rendering:auto;white-space:normal;text-indent:0;text-transform:none" d="m30 1016.4c-1.6447 0-3 1.3553-3 3v4c0 1.6447 1.3553 3 3 3h4c1.6447 0 3-1.3553 3-3v-4c0-1.6447-1.3553-3-3-3h-4zm0 2h4c0.5713 0 1 0.4287 1 1v4c0 0.5713-0.4287 1-1 1h-4c-0.5713 0-1-0.4287-1-1v-4c0-0.5713 0.4287-1 1-1z"/>
  <rect opacity=".15" rx="2" ry="2" height="8" width="8" y="1017.4" x="28"/>
  <path opacity=".05" style="color-rendering:auto;text-decoration-color:#000000;color:#000000;isolation:auto;mix-blend-mode:normal;shape-rendering:auto;solid-color:#000000;block-progression:tb;text-decoration-line:none;text-decoration-style:solid;image-rendering:auto;white-space:normal;text-indent:0;text-transform:none" d="m18 1016.4c-1.6447 0-3 1.3553-3 3v4c0 1.6447 1.3553 3 3 3h4c1.6447 0 3-1.3553 3-3v-4c0-1.6447-1.3553-3-3-3h-4zm0 2h4c0.5713 0 1 0.4287 1 1v4c0 0.5713-0.4287 1-1 1h-4c-0.5713 0-1-0.4287-1-1v-4c0-0.5713 0.4287-1 1-1z"/>
  <rect rx="2" ry="2" height="8" width="8" y="1016.4" x="28" fill="#008bf4"/>
  <path opacity=".05" style="color-rendering:auto;text-decoration-color:#000000;color:#000000;isolation:auto;mix-blend-mode:normal;shape-rendering:auto;solid-color:#000000;block-progression:tb;text-decoration-line:none;text-decoration-style:solid;image-rendering:auto;white-space:normal;text-indent:0;text-transform:none" d="m42 1004.4c-1.6447 0-3 1.3553-3 3v4c0 1.6447 1.3553 3 3 3h4c1.6447 0 3-1.3553 3-3v-4c0-1.6447-1.3553-3-3-3h-4zm0 2h4c0.5713 0 1 0.4287 1 1v4c0 0.5713-0.4287 1-1 1h-4c-0.5713 0-1-0.4287-1-1v-4c0-0.5713 0.4287-1 1-1z"/>
  <rect opacity=".15" rx="2" ry="2" height="8" width="8" y="1017.4" x="16"/>
  <path opacity=".05" style="color-rendering:auto;text-decoration-color:#000000;color:#000000;isolation:auto;mix-blend-mode:normal;shape-rendering:auto;solid-color:#000000;block-progression:tb;text-decoration-line:none;text-decoration-style:solid;image-rendering:auto;white-space:normal;text-indent:0;text-transform:none" d="m30 1004.4c-1.6447 0-3 1.3553-3 3v4c0 1.6447 1.3553 3 3 3h4c1.6447 0 3-1.3553 3-3v-4c0-1.6447-1.3553-3-3-3h-4zm0 2h4c0.5713 0 1 0.4287 1 1v4c0 0.5713-0.4287 1-1 1h-4c-0.5713 0-1-0.4287-1-1v-4c0-0.5713 0.4287-1 1-1z"/>
  <rect rx="2" ry="2" height="8" width="8" y="1016.4" x="16" fill="#009d5a"/>
  <path opacity=".05" style="color-rendering:auto;text-decoration-color:#000000;color:#000000;isolation:auto;mix-blend-mode:normal;shape-rendering:auto;solid-color:#000000;block-progression:tb;text-decoration-line:none;text-decoration-style:solid;image-rendering:auto;white-space:normal;text-indent:0;text-transform:none" d="m18 1004.4c-1.6447 0-3 1.3553-3 3v4c0 1.6447 1.3553 3 3 3h4c1.6447 0 3-1.3553 3-3v-4c0-1.6447-1.3553-3-3-3h-4zm0 2h4c0.5713 0 1 0.4287 1 1v4c0 0.5713-0.4287 1-1 1h-4c-0.5713 0-1-0.4287-1-1v-4c0-0.5713 0.4287-1 1-1z"/>
  <rect opacity=".15" rx="2" ry="2" height="8" width="8" y="1005.4" x="40"/>
  <path opacity=".05" style="color-rendering:auto;text-decoration-color:#000000;color:#000000;isolation:auto;mix-blend-mode:normal;shape-rendering:auto;solid-color:#000000;block-progression:tb;text-decoration-line:none;text-decoration-style:solid;image-rendering:auto;white-space:normal;text-indent:0;text-transform:none" d="m42 1028.4c-1.6447 0-3 1.3553-3 3v4c0 1.6447 1.3553 3 3 3h4c1.6447 0 3-1.3553 3-3v-4c0-1.6447-1.3553-3-3-3h-4zm0 2h4c0.5713 0 1 0.4287 1 1v4c0 0.5713-0.4287 1-1 1h-4c-0.5713 0-1-0.4287-1-1v-4c0-0.5713 0.4287-1 1-1z"/>
  <rect rx="2" ry="2" height="8" width="8" y="1004.4" x="40" fill="#fe3932"/>
  <path opacity=".05" style="color-rendering:auto;text-decoration-color:#000000;color:#000000;isolation:auto;mix-blend-mode:normal;shape-rendering:auto;solid-color:#000000;block-progression:tb;text-decoration-line:none;text-decoration-style:solid;image-rendering:auto;white-space:normal;text-indent:0;text-transform:none" d="m30 1028.4c-1.6447 0-3 1.3553-3 3v4c0 1.6447 1.3553 3 3 3h4c1.6447 0 3-1.3553 3-3v-4c0-1.6447-1.3553-3-3-3h-4zm0 2h4c0.5713 0 1 0.4287 1 1v4c0 0.5713-0.4287 1-1 1h-4c-0.5713 0-1-0.4287-1-1v-4c0-0.5713 0.4287-1 1-1z"/>
  <rect opacity=".15" rx="2" ry="2" height="8" width="8" y="1005.4" x="28"/>
  <path opacity=".05" style="color-rendering:auto;text-decoration-color:#000000;color:#000000;isolation:auto;mix-blend-mode:normal;shape-rendering:auto;solid-color:#000000;block-progression:tb;text-decoration-line:none;text-decoration-style:solid;image-rendering:auto;white-space:normal;text-indent:0;text-transform:none" d="m18 1028.4c-1.6447 0-3 1.3553-3 3v4c0 1.6447 1.3553 3 3 3h4c1.6447 0 3-1.3553 3-3v-4c0-1.6447-1.3553-3-3-3h-4zm0 2h4c0.5713 0 1 0.4287 1 1v4c0 0.5713-0.4287 1-1 1h-4c-0.5713 0-1-0.4287-1-1v-4c0-0.5713 0.4287-1 1-1z"/>
  <rect rx="2" ry="2" height="8" width="8" y="1004.4" x="28" fill="#fe3932"/>
  <rect opacity=".15" rx="2" ry="2" height="8" width="8" y="1005.4" x="16"/>
  <rect rx="2" ry="2" height="8" width="8" y="1004.4" x="16" fill="#fe3932"/>
  <rect opacity=".15" rx="2" ry="2" height="8" width="8" y="1029.4" x="40"/>
  <rect rx="2" ry="2" height="8" width="8" y="1028.4" x="40" fill="#ffb000"/>
  <rect opacity=".15" rx="2" ry="2" height="8" width="8" y="1029.4" x="28"/>
  <rect rx="2" ry="2" height="8" width="8" y="1028.4" x="28" fill="#ffb000"/>
  <rect opacity=".15" rx="2" ry="2" height="8" width="8" y="1029.4" x="16"/>
  <rect rx="2" ry="2" height="8" width="8" y="1028.4" x="16" fill="#009d5a"/>
 </g>
</svg>
