<?xml version="1.0" encoding="UTF-8" standalone="no"?>
<svg xmlns:rdf="http://www.w3.org/1999/02/22-rdf-syntax-ns#" xmlns="http://www.w3.org/2000/svg" height="64" width="64" version="1.1" xmlns:cc="http://creativecommons.org/ns#" xmlns:xlink="http://www.w3.org/1999/xlink" viewBox="0 0 64 64.000001" xmlns:dc="http://purl.org/dc/elements/1.1/">
 <defs>
  <radialGradient id="a" gradientUnits="userSpaceOnUse" cy="4.3419" cx="32" gradientTransform="matrix(0 1.3006 -1.3006 0 94.036 165.84)" r="27.5">
   <stop stop-color="#fafafa" offset="0"/>
   <stop stop-color="#e1e1e1" offset="1"/>
  </radialGradient>
  <radialGradient id="radialGradient12065" xlink:href="#a" gradientUnits="userSpaceOnUse" cy="-9.0843" cx="27.484" gradientTransform="matrix(3.8645 -.015967 .017622 4.2034 -78.661 97.06)" r="55.725"/>
  <radialGradient id="c" xlink:href="#a" gradientUnits="userSpaceOnUse" cy="-47.109" cx="27.391" gradientTransform="matrix(2.9895 .0078878 -.0073208 2.7757 -54.839 83.435)" r="55.725"/>
  <linearGradient id="f" y2="2.125" gradientUnits="userSpaceOnUse" x2="34.75" gradientTransform="matrix(.8 0 0 -.8 29.77 -193.75)" y1="61.75" x1="34.75">
   <stop stop-opacity=".32174" offset="0"/>
   <stop stop-opacity=".27826" offset="1"/>
  </linearGradient>
  <linearGradient id="e" y2="-238.55" gradientUnits="userSpaceOnUse" x2="55.37" y1="-200.15" x1="55.37">
   <stop stop-color="#60d36b" offset="0"/>
   <stop stop-color="#27b43d" offset="1"/>
  </linearGradient>
  <linearGradient id="d" y2="-242.26" gradientUnits="userSpaceOnUse" x2="51.39" gradientTransform="translate(9.6)" y1="-195.93" x1="51.275">
   <stop stop-color="#fff" offset="0"/>
   <stop stop-color="#fff" stop-opacity=".23529" offset=".42448"/>
   <stop stop-color="#fff" stop-opacity=".15686" offset=".8209"/>
   <stop stop-color="#fff" stop-opacity=".39216" offset="1"/>
  </linearGradient>
  <radialGradient id="b" xlink:href="#a" gradientUnits="userSpaceOnUse" cy="-195.77" cx="55.37" gradientTransform="matrix(1.9131 7.8702e-8 -7.9953e-8 1.9436 -50.561 184.74)" r="23.873"/>
  <radialGradient id="g" gradientUnits="userSpaceOnUse" cy="186.17" cx="99.157" gradientTransform="matrix(.30588 0 0 -.095590 25.039 -221.15)" r="62.769">
   <stop stop-color="#3d3d3d" offset="0"/>
   <stop stop-color="#686868" stop-opacity=".49804" offset=".5"/>
   <stop stop-color="#686868" stop-opacity="0" offset="1"/>
  </radialGradient>
 </defs>
 <g transform="translate(0 -988.36)">
  <g transform="matrix(1.25 0 0 -1.25 -37.212 746.17)">
   <path fill="url(#g)" d="m74.57-238.95a19.2 6.0003 0 1 0 -38.4 0 19.2 6.0003 0 1 0 38.4 0z"/>
   <path d="m55.37-195.75a23.6 23.6 0 0 1 -23.6 -23.6 23.6 23.6 0 0 1 3.6938 -12.67l-4.2406-11.512 12.359 3.7625a23.6 23.6 0 0 1 11.788 -3.1797 23.6 23.6 0 0 1 23.6 23.6 23.6 23.6 0 0 1 -23.6 23.6z" fill="url(#b)"/>
   <path opacity=".8" d="m55.37-195.75a23.6 23.6 0 0 1 -23.6 -23.6 23.6 23.6 0 0 1 3.6938 -12.67l-4.2406-11.512 12.359 3.7625a23.6 23.6 0 0 1 11.788 -3.1797 23.6 23.6 0 0 1 23.6 23.6 23.6 23.6 0 0 1 -23.6 23.6z" stroke="url(#f)" stroke-linecap="round" stroke-width="0.8" fill="none"/>
   <path d="m55.37-196.55a22.8 22.8 0 0 1 -22.8 -22.8 22.8 22.8 0 0 1 3.7875 -12.561l-3.8281-10.388 11.167 3.3953a22.8 22.8 0 0 1 11.673 -3.2469 22.8 22.8 0 0 1 22.8 22.8 22.8 22.8 0 0 1 -22.8 22.8z" stroke="url(#d)" stroke-width="0.8" fill="none"/>
   <path d="m55.37-200.15a19.2 19.2 0 0 1 -19.2 -19.2 19.2 19.2 0 0 1 4.2281 -12.012l-1.9844-5.3859 5.8266 1.7719a19.2 19.2 0 0 1 11.13 -3.5734 19.2 19.2 0 0 1 19.2 19.2 19.2 19.2 0 0 1 -19.2 19.2z" fill="url(#e)"/>
   <path opacity=".05" d="m32 8a24 24 0 0 0 -24 24 24 24 0 0 0 0.041 0.828 24 24 0 0 1 23.959 -22.828 24 24 0 0 1 23.959 23.164 24 24 0 0 0 0.041 -1.164 24 24 0 0 0 -24 -24zm-19.207 40.352l-1.988 5.396 0.83-0.252 1.65-4.48a24 24 0 0 1 -0.492 -0.664z" transform="matrix(.8 0 0 -.8 29.77 -193.75)"/>
   <path opacity=".15" d="m32 8a24 24 0 0 0 -24 24 24 24 0 0 0 0.0215 0.414 24 24 0 0 1 23.978 -23.414 24 24 0 0 1 23.979 23.582 24 24 0 0 0 0.021 -0.582 24 24 0 0 0 -24 -24zm-18.961 39.684l-2.234 6.064 0.414-0.127 2.066-5.605a24 24 0 0 1 -0.246 -0.332z" transform="matrix(.8 0 0 -.8 29.77 -193.75)"/>
   <g opacity=".05" fill-rule="evenodd" transform="matrix(.21534 0 0 .21602 49.471 -209.98)" stroke="#000" stroke-width="7.4183">
    <path d="m0 0c-1.812 4.367-3.2 4.515-5.999 4.648-0.96 0.046-2.001 0.09-3.14 0.09-3.606 0-7.344-1.062-9.597-3.367-2.742-2.805-9.598-9.375-9.598-22.865 0-13.492 9.826-26.529 11.195-28.36 1.373-1.828 19.164-29.919 46.844-41.388 21.606-8.949 28.02-8.153 32.949-7.074 7.172 1.566 16.178 6.847 18.463 13.248 2.285 6.404 2.285 11.892 1.6 13.033-0.686 1.144-2.514 1.828-5.256 3.203-2.742 1.371-16.225 8.004-18.738 8.918-2.514 0.914-4.838 0.635-6.772-2.039-2.668-3.693-5.234-7.488-7.359-9.738-1.668-1.766-4.352-2.012-6.66-1.032-3.036 1.293-11.578 4.27-22.053 13.61-8.15 7.265-13.654 16.242-15.254 18.988-1.6 2.742-0.141 4.379 1.092 5.871 1.406 1.703 2.703 2.926 4.074 4.525 1.371 1.602 2.137 2.456 3.051 4.288 0.914 1.828 0.299 3.714-0.387 5.087-0.687 1.374-6.177 14.862-8.455 20.354"/>
    <path d="m0 0c-1.812 4.367-3.2 4.515-5.999 4.648-0.96 0.046-2.001 0.09-3.14 0.09-3.606 0-7.344-1.062-9.597-3.367-2.742-2.805-9.598-9.375-9.598-22.865 0-13.492 9.826-26.529 11.195-28.36 1.373-1.828 19.164-29.919 46.844-41.388 21.606-8.949 28.02-8.153 32.949-7.074 7.172 1.566 16.178 6.847 18.463 13.248 2.285 6.404 2.285 11.892 1.6 13.033-0.686 1.144-2.514 1.828-5.256 3.203-2.742 1.371-16.225 8.004-18.738 8.918-2.514 0.914-4.838 0.635-6.772-2.039-2.668-3.693-5.234-7.488-7.359-9.738-1.668-1.766-4.352-2.012-6.66-1.032-3.036 1.293-11.578 4.27-22.053 13.61-8.15 7.265-13.654 16.242-15.254 18.988-1.6 2.742-0.141 4.379 1.092 5.871 1.406 1.703 2.703 2.926 4.074 4.525 1.371 1.602 2.137 2.456 3.051 4.288 0.914 1.828 0.299 3.714-0.387 5.087-0.687 1.374-6.177 14.862-8.455 20.354"/>
   </g>
   <g opacity=".15" fill-rule="evenodd" transform="matrix(.21534 0 0 .21602 49.471 -209.97)">
    <path d="m0 0c-1.812 4.367-3.2 4.515-5.999 4.648-0.96 0.046-2.001 0.09-3.14 0.09-3.606 0-7.344-1.062-9.597-3.367-2.742-2.805-9.598-9.375-9.598-22.865 0-13.492 9.826-26.529 11.195-28.36 1.373-1.828 19.164-29.919 46.844-41.388 21.606-8.949 28.02-8.153 32.949-7.074 7.172 1.566 16.178 6.847 18.463 13.248 2.285 6.404 2.285 11.892 1.6 13.033-0.686 1.144-2.514 1.828-5.256 3.203-2.742 1.371-16.225 8.004-18.738 8.918-2.514 0.914-4.838 0.635-6.772-2.039-2.668-3.693-5.234-7.488-7.359-9.738-1.668-1.766-4.352-2.012-6.66-1.032-3.036 1.293-11.578 4.27-22.053 13.61-8.15 7.265-13.654 16.242-15.254 18.988-1.6 2.742-0.141 4.379 1.092 5.871 1.406 1.703 2.703 2.926 4.074 4.525 1.371 1.602 2.137 2.456 3.051 4.288 0.914 1.828 0.299 3.714-0.387 5.087-0.687 1.374-6.177 14.862-8.455 20.354"/>
    <path d="m0 0c-1.812 4.367-3.2 4.515-5.999 4.648-0.96 0.046-2.001 0.09-3.14 0.09-3.606 0-7.344-1.062-9.597-3.367-2.742-2.805-9.598-9.375-9.598-22.865 0-13.492 9.826-26.529 11.195-28.36 1.373-1.828 19.164-29.919 46.844-41.388 21.606-8.949 28.02-8.153 32.949-7.074 7.172 1.566 16.178 6.847 18.463 13.248 2.285 6.404 2.285 11.892 1.6 13.033-0.686 1.144-2.514 1.828-5.256 3.203-2.742 1.371-16.225 8.004-18.738 8.918-2.514 0.914-4.838 0.635-6.772-2.039-2.668-3.693-5.234-7.488-7.359-9.738-1.668-1.766-4.352-2.012-6.66-1.032-3.036 1.293-11.578 4.27-22.053 13.61-8.15 7.265-13.654 16.242-15.254 18.988-1.6 2.742-0.141 4.379 1.092 5.871 1.406 1.703 2.703 2.926 4.074 4.525 1.371 1.602 2.137 2.456 3.051 4.288 0.914 1.828 0.299 3.714-0.387 5.087-0.687 1.374-6.177 14.862-8.455 20.354"/>
   </g>
   <g fill-rule="evenodd" transform="matrix(.21534 0 0 .21602 49.471 -209.17)" fill="url(#c)">
    <path d="m0 0c-1.812 4.367-3.2 4.515-5.999 4.648-0.96 0.046-2.001 0.09-3.14 0.09-3.606 0-7.344-1.062-9.597-3.367-2.742-2.805-9.598-9.375-9.598-22.865 0-13.492 9.826-26.529 11.195-28.36 1.373-1.828 19.164-29.919 46.844-41.388 21.606-8.949 28.02-8.153 32.949-7.074 7.172 1.566 16.178 6.847 18.463 13.248 2.285 6.404 2.285 11.892 1.6 13.033-0.686 1.144-2.514 1.828-5.256 3.203-2.742 1.371-16.225 8.004-18.738 8.918-2.514 0.914-4.838 0.635-6.772-2.039-2.668-3.693-5.234-7.488-7.359-9.738-1.668-1.766-4.352-2.012-6.66-1.032-3.036 1.293-11.578 4.27-22.053 13.61-8.15 7.265-13.654 16.242-15.254 18.988-1.6 2.742-0.141 4.379 1.092 5.871 1.406 1.703 2.703 2.926 4.074 4.525 1.371 1.602 2.137 2.456 3.051 4.288 0.914 1.828 0.299 3.714-0.387 5.087-0.687 1.374-6.177 14.862-8.455 20.354"/>
    <path d="m0 0c-1.812 4.367-3.2 4.515-5.999 4.648-0.96 0.046-2.001 0.09-3.14 0.09-3.606 0-7.344-1.062-9.597-3.367-2.742-2.805-9.598-9.375-9.598-22.865 0-13.492 9.826-26.529 11.195-28.36 1.373-1.828 19.164-29.919 46.844-41.388 21.606-8.949 28.02-8.153 32.949-7.074 7.172 1.566 16.178 6.847 18.463 13.248 2.285 6.404 2.285 11.892 1.6 13.033-0.686 1.144-2.514 1.828-5.256 3.203-2.742 1.371-16.225 8.004-18.738 8.918-2.514 0.914-4.838 0.635-6.772-2.039-2.668-3.693-5.234-7.488-7.359-9.738-1.668-1.766-4.352-2.012-6.66-1.032-3.036 1.293-11.578 4.27-22.053 13.61-8.15 7.265-13.654 16.242-15.254 18.988-1.6 2.742-0.141 4.379 1.092 5.871 1.406 1.703 2.703 2.926 4.074 4.525 1.371 1.602 2.137 2.456 3.051 4.288 0.914 1.828 0.299 3.714-0.387 5.087-0.687 1.374-6.177 14.862-8.455 20.354"/>
   </g>
  </g>
 </g>
</svg>
