<?xml version="1.0" encoding="UTF-8" standalone="no"?>
<svg xmlns:rdf="http://www.w3.org/1999/02/22-rdf-syntax-ns#" xmlns="http://www.w3.org/2000/svg" height="64" width="64" version="1.1" xmlns:cc="http://creativecommons.org/ns#" xmlns:xlink="http://www.w3.org/1999/xlink" xmlns:dc="http://purl.org/dc/elements/1.1/">
 <defs>
  <linearGradient id="h" y2="40.501" gradientUnits="userSpaceOnUse" x2="158.08" y1="38.954" x1="158.08">
   <stop stop-color="#fff" offset="0"/>
   <stop stop-color="#fff" stop-opacity="0" offset="1"/>
  </linearGradient>
  <linearGradient id="i" y2="29.866" gradientUnits="userSpaceOnUse" x2="156.09" y1="24.324" x1="156.09">
   <stop stop-color="#fff" offset="0"/>
   <stop stop-color="#fff" stop-opacity="0" offset="1"/>
  </linearGradient>
  <radialGradient id="d" gradientUnits="userSpaceOnUse" cy="28.006" cx="152.01" gradientTransform="matrix(-.56186 1.4654 -1.1586 -.44422 273.75 -186.65)" r="3.9531">
   <stop stop-color="#f0f0f0" offset="0"/>
   <stop stop-color="#969696" offset="1"/>
  </radialGradient>
  <linearGradient id="j" y2="48" xlink:href="#b" gradientUnits="userSpaceOnUse" x2="157" gradientTransform="matrix(1.3611 0 0 1.3607 125.62 122.7)" y1="14" x1="157"/>
  <linearGradient id="b">
   <stop stop-color="#fff" offset="0"/>
   <stop stop-color="#fff" stop-opacity="0" offset="1"/>
  </linearGradient>
  <radialGradient id="e" xlink:href="#c" gradientUnits="userSpaceOnUse" cy="8.4623" cx="157.02" gradientTransform="matrix(-1.3322 1.3748 -1.361 -1.3103 560.04 -67.756)" r="19.5"/>
  <linearGradient id="c">
   <stop stop-color="#a0a0a0" offset="0"/>
   <stop stop-color="#646464" offset="1"/>
  </linearGradient>
  <linearGradient id="m" y2="48" xlink:href="#b" gradientUnits="userSpaceOnUse" x2="157" gradientTransform="matrix(1.3611 0 0 1.3607 125.62 120.7)" y1="14" x1="157"/>
  <linearGradient id="k" y2="7.3259" xlink:href="#c" gradientUnits="userSpaceOnUse" x2="157.3" gradientTransform="matrix(1.2952 0 0 1.6781 135.71 121.28)" y1="16.457" x1="157.3"/>
  <radialGradient id="g" xlink:href="#a" gradientUnits="userSpaceOnUse" cy="43.5" cx="4.993" gradientTransform="matrix(2.0038 0 0 1.4 27.988 -17.4)" r="2.5"/>
  <linearGradient id="a">
   <stop stop-color="#181818" offset="0"/>
   <stop stop-color="#181818" stop-opacity="0" offset="1"/>
  </linearGradient>
  <radialGradient id="f" xlink:href="#a" gradientUnits="userSpaceOnUse" cy="43.5" cx="4.993" gradientTransform="matrix(2.0038 0 0 1.4 -20.012 -104.4)" r="2.5"/>
  <linearGradient id="l" y2="39.999" gradientUnits="userSpaceOnUse" x2="25.058" y1="47.028" x1="25.058">
   <stop stop-color="#181818" stop-opacity="0" offset="0"/>
   <stop stop-color="#181818" offset=".5"/>
   <stop stop-color="#181818" stop-opacity="0" offset="1"/>
  </linearGradient>
 </defs>
 <g transform="translate(-308 -128.93)">
  <g opacity=".4" style="enable-background:new" transform="matrix(1.6316 0 0 .77028 300.84 154.73)">
   <rect height="7" width="5" y="40" x="38" fill="url(#g)"/>
   <rect transform="scale(-1)" height="7" width="5" y="-47" x="-10" fill="url(#f)"/>
   <rect height="7" width="28" y="40" x="10" fill="url(#l)"/>
  </g>
  <path stroke-linejoin="round" style="enable-background:new" d="m314.72 143.05 4.9492-12.537h40.884l4.9492 12.537h-50.783" stroke="#505050" fill="url(#k)"/>
  <rect opacity=".4" style="color:#000000" rx="1.3879" ry="1.3876" height="44.904" width="49" stroke="url(#m)" stroke-linecap="round" y="140.43" x="315.5" fill="none"/>
  <rect height="46.82" stroke="#505050" stroke-linecap="round" fill="url(#e)" style="color:#000000" rx="2.7681" ry="2.759" width="51" opacity="0.99" y="141.43" x="314.5"/>
  <path opacity=".2" stroke-linejoin="round" style="color:#000000" d="m162.03 30.531c-0.34173 0.08362-0.60653 0.25322-0.8125 0.40625l-2.4062 1.7812c-0.42842-0.1513-0.82549-0.375-1.3125-0.375-0.85325 0-1.5918 0.3143-2.25 0.75l-2.47-1.093c-1.1675-0.51358-2.5291 0.04598-3.0312 1.1875-0.49029 1.1146 0.0346 2.507 1.1562 3l2.5312 1.125c0.26972 1.4159 1.1952 2.5615 2.5 3.0938l0.46875 2.4375c0.22283 1.2047 1.4116 2.0369 2.625 1.8125 1.2047-0.22282 2.037-1.4115 1.8125-2.625l-0.5-2.5625c0.7807-0.76847 1.375-1.7325 1.375-2.9062 0-0.13231-0.0486-0.19421-0.0625-0.3125l2.25-1.6875c0.98743-0.7336 1.2048-2.1655 0.46875-3.1562-0.54541-0.73411-1.4631-1.0905-2.3438-0.875z" transform="matrix(1.3478 0 0 1.348 128.04 123.51)" stroke="#000" stroke-linecap="round" stroke-width=".74189"/>
  <rect opacity=".4" style="color:#000000" rx="3.0687" ry="2.9503" height="36.098" width="40.435" stroke="#fff" stroke-linecap="round" y="147.43" x="320.11" fill="none"/>
  <rect style="color:#000000" rx="3.0687" ry="2.9379" height="35.946" width="40.435" stroke="#505050" stroke-linecap="round" y="146.49" x="320.11" fill="none"/>
  <rect opacity=".4" style="color:#000000" rx="1.3879" ry="1.3876" height="44.904" width="49" stroke="url(#j)" stroke-linecap="round" y="142.43" x="315.5" fill="none"/>
  <path opacity="0.99" stroke-linejoin="round" style="color:#000000" d="m160.37 27.156c0 1.9848-1.609 3.5938-3.5938 3.5938s-3.5938-1.609-3.5938-3.5938 1.609-3.5937 3.5938-3.5937 3.5938 1.609 3.5938 3.5937z" transform="matrix(1.9357 0 0 1.9478 37.058 104.54)" stroke="#505050" stroke-linecap="round" stroke-width="0.515" fill="url(#d)"/>
  <path opacity="0.99" style="color:#000000" d="m160.37 27.156c0 1.9848-1.609 3.5938-3.5938 3.5938s-3.5938-1.609-3.5938-3.5938 1.609-3.5937 3.5938-3.5937 3.5938 1.609 3.5938 3.5937z" transform="matrix(1.113 0 0 1.113 166 128.21)" stroke="#505050" stroke-width=".89844" fill="#282828"/>
  <path opacity=".6" style="color:#000000" d="m156.78 24.594c-1.4338 0-2.5625 1.1286-2.5625 2.5625s1.1286 2.5625 2.5625 2.5625c1.4338 0 2.5625-1.1286 2.5625-2.5625s-1.1286-2.5625-2.5625-2.5625z" transform="matrix(1.1707 0 0 1.1707 156.95 126.64)" stroke="url(#i)" stroke-width=".85417" fill="none"/>
  <rect stroke-linejoin="round" transform="matrix(.59632 .80275 -.80268 .59641 0 0)" stroke="#3c3c3c" stroke-linecap="round" fill="#b4b4b4" style="color:#000000" rx="1.4243" ry="1.4242" width="2.8486" opacity="0.99" height="8.1182" y="-180.37" x="339.88"/>
  <rect stroke-linejoin="round" transform="matrix(.40261 -.91537 .91533 .40270 0 0)" stroke="#3c3c3c" stroke-linecap="round" fill="#b4b4b4" style="color:#000000" rx="1.4243" ry="1.4242" width="2.8486" opacity="0.99" height="8.118" y="371.19" x="-22.195"/>
  <rect stroke-linejoin="round" transform="matrix(.98332 -.18190 -.18185 -.98333 0 0)" stroke="#3c3c3c" stroke-linecap="round" fill="#b4b4b4" style="color:#000000" rx="1.4242" ry="1.4243" width="2.8484" opacity="0.99" height="8.1188" y="-240.91" x="301.92"/>
  <path stroke-linejoin="round" style="color:#000000" d="m159.36 39.762c0 0.85427-0.69252 1.5468-1.5468 1.5468-0.85427 0-1.5468-0.69252-1.5468-1.5468 0-0.85427 0.69253-1.5468 1.5468-1.5468s1.5468 0.69252 1.5468 1.5468z" transform="matrix(2.6141 0 0 2.6144 -72.223 68.436)" stroke="#505050" stroke-linecap="round" stroke-width=".38252" fill="#b4b4b4"/>
  <path stroke-linejoin="round" style="color:#000000" d="m157.81 38.625c-0.63481 0-1.125 0.49019-1.125 1.125s0.50032 1.1562 1.125 1.1562 1.1562-0.53157 1.1562-1.1562c0-0.62468-0.52144-1.125-1.1562-1.125z" transform="matrix(2.6141 0 0 2.6144 -72.223 68.436)" stroke="url(#h)" stroke-linecap="round" stroke-width=".38252" fill="none"/>
 </g>
</svg>
