<?xml version="1.0" encoding="UTF-8" standalone="no"?>
<svg xmlns:rdf="http://www.w3.org/1999/02/22-rdf-syntax-ns#" xmlns="http://www.w3.org/2000/svg" height="64" width="64" version="1.1" xmlns:cc="http://creativecommons.org/ns#" xmlns:xlink="http://www.w3.org/1999/xlink" xmlns:dc="http://purl.org/dc/elements/1.1/">
 <defs>
  <linearGradient id="d" y2="197.01" gradientUnits="userSpaceOnUse" x2="35" y1="142.43" x1="35">
   <stop stop-color="#fff" offset="0"/>
   <stop stop-color="#fff" stop-opacity=".23529" offset=".063165"/>
   <stop stop-color="#fff" stop-opacity=".15686" offset=".95056"/>
   <stop stop-color="#fff" stop-opacity=".39216" offset="1"/>
  </linearGradient>
  <linearGradient id="f" y2="5.9877" gradientUnits="userSpaceOnUse" x2="48" gradientTransform="matrix(.65476 0 0 .65476 194.29 295.22)" y1="90" x1="48">
   <stop stop-color="#be1e1e" offset="0"/>
   <stop stop-color="#e24a4a" offset="1"/>
  </linearGradient>
  <linearGradient id="e" y2="29.963" gradientUnits="userSpaceOnUse" x2="52" gradientTransform="matrix(.65476 0 0 .65476 186.1 279.83)" y1="113.5" x1="52">
   <stop stop-color="#560e0e" offset="0"/>
   <stop stop-color="#9b1919" offset="1"/>
  </linearGradient>
  <radialGradient id="c" cx="4.993" xlink:href="#a" gradientUnits="userSpaceOnUse" cy="43.5" r="2.5" gradientTransform="matrix(2.0038 0 0 1.4 27.988 -17.4)"/>
  <linearGradient id="a">
   <stop stop-color="#181818" offset="0"/>
   <stop stop-color="#181818" stop-opacity="0" offset="1"/>
  </linearGradient>
  <radialGradient id="b" cx="4.993" xlink:href="#a" gradientUnits="userSpaceOnUse" cy="43.5" r="2.5" gradientTransform="matrix(2.0038 0 0 1.4 -20.012 -104.4)"/>
  <linearGradient id="g" x1="25.058" gradientUnits="userSpaceOnUse" y1="47.028" x2="25.058" y2="39.999">
   <stop stop-color="#181818" stop-opacity="0" offset="0"/>
   <stop stop-color="#181818" offset=".5"/>
   <stop stop-color="#181818" stop-opacity="0" offset="1"/>
  </linearGradient>
 </defs>
 <g transform="translate(-193.71 -294.65)">
  <g style="enable-background:new" transform="matrix(1.5 0 0 .55556 189.71 330.54)">
   <g opacity=".4" transform="matrix(1.0526 0 0 1.2857 -1.2632 -13.429)">
    <rect height="7" width="5" y="40" x="38" fill="url(#c)"/>
    <rect transform="scale(-1)" height="7" width="5" y="-47" x="-10" fill="url(#b)"/>
    <rect height="7" width="28" y="40" x="10" fill="url(#g)"/>
   </g>
  </g>
  <path style="enable-background:new" d="m202.14 299.15c-2.0676 0-3.7447 1.5771-3.9081 3.6012 1.6169 0.0112 2.926 1.3269 2.926 2.9464 0 1.6264-1.32 2.9464-2.9464 2.9464v4.5833c1.6264 0 2.9464 1.32 2.9464 2.9464s-1.32 2.9464-2.9464 2.9464v4.5833c1.6264 0 2.9464 1.32 2.9464 2.9464s-1.32 2.9464-2.9464 2.9464v4.5833c1.6264 0 2.9464 1.32 2.9464 2.9464s-1.32 2.9464-2.9464 2.9464v4.5833c1.6264 0 2.9464 1.32 2.9464 2.9464 0 1.6195-1.3091 2.9352-2.926 2.9464 0.1634 2.024 1.8406 3.6012 3.9081 3.6012 0-1.6264 1.32-2.9464 2.9464-2.9464s2.9464 1.32 2.9464 2.9464h4.5833c0-1.6264 1.32-2.9464 2.9464-2.9464s2.9464 1.32 2.9464 2.9464h4.5833c0-1.6264 1.32-2.9464 2.9464-2.9464s2.9464 1.32 2.9464 2.9464h4.5833c0-1.6264 1.32-2.9464 2.9464-2.9464s2.9464 1.32 2.9464 2.9464h4.5833c0-1.6264 1.32-2.9464 2.9464-2.9464 1.6056 0 2.9132 1.2873 2.9464 2.885 1.7604-0.29144 3.1075-1.7331 3.2533-3.5398-1.6169-0.0112-2.926-1.3269-2.926-2.9464 0-1.6264 1.32-2.9464 2.9464-2.9464v-4.5833c-1.6264 0.00001-2.9464-1.32-2.9464-2.9464s1.32-2.9464 2.9464-2.9464v-4.5833c-1.6264 0-2.9464-1.32-2.9464-2.9464s1.32-2.9464 2.9464-2.9464v-4.5833c-1.6264 0.00001-2.9464-1.32-2.9464-2.9464s1.32-2.9464 2.9464-2.9464v-4.5833c-1.6264 0-2.9464-1.32-2.9464-2.9464 0-1.6195 1.3091-2.9352 2.926-2.9464-0.14584-1.8067-1.493-3.2484-3.2533-3.5398-0.0332 1.5977-1.3408 2.885-2.9464 2.885-1.6264 0-2.9464-1.32-2.9464-2.9464h-4.5833c0 1.6264-1.32 2.9464-2.9464 2.9464s-2.9464-1.32-2.9464-2.9464h-4.5833c0 1.6264-1.32 2.9464-2.9464 2.9464s-2.9464-1.32-2.9464-2.9464h-4.5833c0 1.6264-1.32 2.9464-2.9464 2.9464s-2.9464-1.32-2.9464-2.9464h-4.5833c0 1.6264-1.32 2.9464-2.9464 2.9464s-2.9464-1.32-2.9464-2.9464z" stroke="url(#e)" fill="url(#f)"/>
  <path opacity=".95" style="enable-background:new" d="m215.13 309.14-7.2144 31.725h5.8617l3.4051-14.197h16.001l-14.985 13.298 3.9064 4.4591 2.0009-1.0221c3.7838-1.9286 5.3707-0.80092 8.2415-0.0112 2.7928 0.76833 5.4183 1.5907 10.865-1.522l-1.0817-5.4939c-5.9448 4.1902-7.8254 0.45172-12.059 0.30332l12.122-10.168 1.3153-5.428h-25.391l1.6345-6.5146h16.643l1.1414-5.428h-22.406z" fill="#fff"/>
  <path opacity=".5" style="enable-background:new" d="m18.062 143.16c-0.43162 1.669-1.8891 2.9375-3.6875 2.9375-1.7089 0-3.1135-1.1438-3.625-2.6875-0.94199 0.24188-1.6039 0.85372-1.9375 1.75 1.4835 0.54444 2.5625 1.9293 2.5625 3.5938 0 1.7984-1.264 3.2802-2.9375 3.7188v3.0625c1.6735 0.43856 2.9375 1.9203 2.9375 3.7188 0 1.7984-1.2685 3.2559-2.9375 3.6875v3.0938c1.669 0.43162 2.9375 1.8891 2.9375 3.6875s-1.2685 3.2559-2.9375 3.6875v3.0938c1.669 0.43162 2.9375 1.8891 2.9375 3.6875s-1.2685 3.2559-2.9375 3.6875v3.0938c1.669 0.43162 2.9375 1.8891 2.9375 3.6875 0 1.6644-1.0763 3.0723-2.5625 3.625 0.33356 0.89627 0.99551 1.5081 1.9375 1.75 0.51152-1.5437 1.9161-2.6875 3.625-2.6875 1.7984 0 3.2559 1.2685 3.6875 2.9375h3.0938c0.43162-1.669 1.8891-2.9375 3.6875-2.9375s3.2802 1.264 3.7188 2.9375h3.0625c0.43162-1.669 1.8891-2.9375 3.6875-2.9375s3.2802 1.264 3.7188 2.9375h3.0625c0.43856-1.6735 1.9203-2.9375 3.7188-2.9375 1.7984 0 3.2559 1.2685 3.6875 2.9375h3.0938c0.43162-1.669 1.8891-2.9375 3.6875-2.9375 1.6226 0 3.0187 1.0134 3.5938 2.4375 0.62641-0.32692 1.0557-0.80204 1.3125-1.4688-1.4893-0.55107-2.5625-1.9896-2.5625-3.6562 0-1.7984 1.2685-3.2559 2.9375-3.6875v-3.0938c-1.669-0.43161-2.9375-1.8891-2.9375-3.6875s1.2685-3.2559 2.9375-3.6875v-3.0938c-1.669-0.43162-2.9375-1.8891-2.9375-3.6875s1.2685-3.2559 2.9375-3.6875v-3.0938c-1.669-0.43161-2.9375-1.8891-2.9375-3.6875s1.264-3.2802 2.9375-3.7188v-3.0625c-1.6735-0.43856-2.9375-1.9203-2.9375-3.7188 0-1.6666 1.0759-3.0822 2.5625-3.625-0.25676-0.66671-0.68609-1.1418-1.3125-1.4688-0.57509 1.4241-1.9712 2.4375-3.5938 2.4375-1.7984 0-3.2559-1.2686-3.6875-2.9375h-3.0938c-0.43162 1.669-1.8891 2.9375-3.6875 2.9375s-3.2802-1.264-3.7188-2.9375h-3.0625c-0.43856 1.6735-1.9203 2.9375-3.7188 2.9375-1.7984 0-3.2559-1.2686-3.6875-2.9375h-3.0625c-0.43856 1.6735-1.9203 2.9375-3.7188 2.9375-1.7984 0-3.2559-1.2685-3.6875-2.9375h-3.0938z" transform="translate(190.71 156.93)" stroke="url(#d)" fill="none"/>
 </g>
</svg>
