<?xml version="1.0" encoding="UTF-8" standalone="no"?>
<!-- Created with Inkscape (http://www.inkscape.org/) -->

<svg
   xmlns:dc="http://purl.org/dc/elements/1.1/"
   xmlns:cc="http://creativecommons.org/ns#"
   xmlns:rdf="http://www.w3.org/1999/02/22-rdf-syntax-ns#"
   xmlns:svg="http://www.w3.org/2000/svg"
   xmlns="http://www.w3.org/2000/svg"
   xmlns:xlink="http://www.w3.org/1999/xlink"
   xmlns:sodipodi="http://sodipodi.sourceforge.net/DTD/sodipodi-0.dtd"
   xmlns:inkscape="http://www.inkscape.org/namespaces/inkscape"
   version="1.1"
   width="64"
   height="64"
   id="svg4845"
   inkscape:version="0.91 r"
   sodipodi:docname="hangouts.svg">
  <sodipodi:namedview
     pagecolor="#ffffff"
     bordercolor="#666666"
     borderopacity="1"
     objecttolerance="10"
     gridtolerance="10"
     guidetolerance="10"
     inkscape:pageopacity="0"
     inkscape:pageshadow="2"
     inkscape:window-width="1920"
     inkscape:window-height="1025"
     id="namedview41"
     showgrid="false"
     inkscape:zoom="1"
     inkscape:cx="172.06459"
     inkscape:cy="-57.622791"
     inkscape:window-x="0"
     inkscape:window-y="30"
     inkscape:window-maximized="1"
     inkscape:current-layer="svg4845" />
  <defs
     id="defs4847">
    <linearGradient
       id="linearGradient4230">
      <stop
         offset="0"
         style="stop-color:#87deaa;stop-opacity:1"
         id="stop4232" />
      <stop
         offset="0.26238"
         style="stop-color:#37c871;stop-opacity:1"
         id="stop4234" />
      <stop
         offset="0.704952"
         style="stop-color:#2ca05a;stop-opacity:1"
         id="stop4236" />
      <stop
         offset="1"
         style="stop-color:#217844;stop-opacity:1"
         id="stop4238" />
    </linearGradient>
    <linearGradient
       id="linearGradient4806">
      <stop
         id="stop4808"
         style="stop-color:#ffffff;stop-opacity:1"
         offset="0" />
      <stop
         id="stop4810"
         style="stop-color:#ffffff;stop-opacity:0.23529412"
         offset="0.42447853" />
      <stop
         id="stop4812"
         style="stop-color:#ffffff;stop-opacity:0.15686275"
         offset="0.82089913" />
      <stop
         id="stop4814"
         style="stop-color:#ffffff;stop-opacity:0.39215687"
         offset="1" />
    </linearGradient>
    <linearGradient
       id="linearGradient3242-7-3-8-9">
      <stop
         id="stop3244-5-8-5-3"
         style="stop-color:#eef87e;stop-opacity:1"
         offset="0" />
      <stop
         id="stop3246-9-5-1-2"
         style="stop-color:#cde34f;stop-opacity:1"
         offset="0.26238" />
      <stop
         id="stop3248-7-2-0-84"
         style="stop-color:#93b723;stop-opacity:1"
         offset="0.66093999" />
      <stop
         id="stop3250-8-2-8-3"
         style="stop-color:#5a7e0d;stop-opacity:1"
         offset="1" />
    </linearGradient>
    <radialGradient
       cx="299.44821"
       cy="-290.5918"
       r="17.1528"
       fx="297.44989"
       fy="-289.9133"
       id="XMLID_2_-8-6-1"
       gradientUnits="userSpaceOnUse"
       gradientTransform="matrix(0.8232,0.2312,0.2703,-0.9626,-96.2274,-315.3433)">
      <stop
         id="stop228-2-7-9"
         style="stop-color:#000000;stop-opacity:1"
         offset="0" />
      <stop
         id="stop230-7-5-7"
         style="stop-color:#000000;stop-opacity:0"
         offset="1" />
    </radialGradient>
    <linearGradient
       id="linearGradient2867-449-88-871-390-598-476-591-434-148-57-177-3-8">
      <stop
         id="stop3750-8-9"
         style="stop-color:#a4a4a4;stop-opacity:1;"
         offset="0" />
      <stop
         id="stop3752-3-2"
         style="stop-color:#969696;stop-opacity:1;"
         offset="0.26238" />
      <stop
         id="stop3754-7-2"
         style="stop-color:#8e8e8e;stop-opacity:1;"
         offset="0.704952" />
      <stop
         id="stop3756-9-3"
         style="stop-color:#666666;stop-opacity:1;"
         offset="1" />
    </linearGradient>
    <linearGradient
       id="linearGradient3820-7-2">
      <stop
         id="stop3822-2-6"
         style="stop-color:#3d3d3d;stop-opacity:1"
         offset="0" />
      <stop
         id="stop3864-8-7"
         style="stop-color:#686868;stop-opacity:0.49803922"
         offset="0.5" />
      <stop
         id="stop3824-1-2"
         style="stop-color:#686868;stop-opacity:0"
         offset="1" />
    </linearGradient>
    <radialGradient
       cx="15.645058"
       cy="8.449769"
       r="19.99999"
       fx="-0.22334664"
       fy="8.44977"
       id="radialGradient5007"
       xlink:href="#linearGradient2867-449-88-871-390-598-476-591-434-148-57-177-3-8"
       gradientUnits="userSpaceOnUse"
       gradientTransform="matrix(-9.6613255e-8,1.5876869,-1.495831,-1.0935756e-7,44.6396,2.8743392)" />
    <linearGradient
       x1="-1085.9586"
       y1="539.40955"
       x2="-474.68497"
       y2="375.61926"
       id="linearGradient5009"
       xlink:href="#XMLID_2_-8-6-1"
       gradientUnits="userSpaceOnUse"
       gradientTransform="matrix(0.1011621,0,0,0.08500722,118.6948,-5.5605522)" />
    <radialGradient
       cx="18.164446"
       cy="8.449769"
       r="19.99999"
       fx="8.894803"
       fy="8.5985041"
       id="radialGradient5011"
       xlink:href="#linearGradient3242-7-3-8-9"
       gradientUnits="userSpaceOnUse"
       gradientTransform="matrix(0,1.9915335,-1.8772441,-2.2997302e-8,47.862448,-4.4613112)" />
    <linearGradient
       x1="71.204407"
       y1="15.369057"
       x2="71.204407"
       y2="40.495617"
       id="linearGradient5013"
       xlink:href="#linearGradient4806"
       gradientUnits="userSpaceOnUse"
       gradientTransform="matrix(2.3268746,0,0,2.3268746,-135.94475,-32.842783)" />
    <radialGradient
       cx="99.157013"
       cy="186.17059"
       r="62.769119"
       fx="99.157013"
       fy="186.17059"
       id="radialGradient5015"
       xlink:href="#linearGradient3820-7-2"
       gradientUnits="userSpaceOnUse"
       gradientTransform="matrix(0.33538589,0,0,0.05027819,-1.2558636,51.10935)" />
    <linearGradient
       inkscape:collect="always"
       xlink:href="#linearGradient4806"
       id="linearGradient4205"
       x1="32.4375"
       y1="-5.3736515"
       x2="32.4375"
       y2="66.12339"
       gradientUnits="userSpaceOnUse" />
    <radialGradient
       inkscape:collect="always"
       xlink:href="#linearGradient4230"
       id="radialGradient4215"
       cx="29.849619"
       cy="11.825511"
       fx="29.849619"
       fy="11.825511"
       r="23.874746"
       gradientTransform="matrix(0,2.433949,-2.9903952,0,67.362951,-69.026263)"
       gradientUnits="userSpaceOnUse" />
  </defs>
  <metadata
     id="metadata4850">
    <rdf:RDF>
      <cc:Work
         rdf:about="">
        <dc:format>image/svg+xml</dc:format>
        <dc:type
           rdf:resource="http://purl.org/dc/dcmitype/StillImage" />
        <dc:title />
      </cc:Work>
    </rdf:RDF>
  </metadata>
  <g
     id="g4187">
    <path
       inkscape:connector-curvature="0"
       d="m 53.051877,60.469668 a 21.051877,3.1559175 0 0 1 -42.103755,0 21.051877,3.1559175 0 1 1 42.103755,0 z"
       id="path3818-0"
       style="opacity:0.4;fill:url(#radialGradient5015);fill-opacity:1;stroke:none" />
    <path
       style="fill:url(#radialGradient4215);fill-opacity:1;fill-rule:evenodd;stroke:none;stroke-width:1.25050831px;stroke-linecap:butt;stroke-linejoin:miter;stroke-opacity:1"
       d="m 55.874746,26.374746 c 0,6.59283 -2.73584,22.950301 -23.819494,35.122954 C 32.055252,54.501677 32,53.317617 32,50.249493 18.814341,50.249493 8.1252531,39.560405 8.1252537,26.374746 8.1252537,13.189088 18.814342,2.4999998 32,2.5 c 13.185658,0 23.874745,10.689088 23.874746,23.874746 z"
       id="path4187"
       inkscape:connector-curvature="0"
       sodipodi:nodetypes="sccsss" />
    <path
       sodipodi:nodetypes="sccsss"
       inkscape:connector-curvature="0"
       id="path4197"
       d="m 54.899773,26.373392 c 0,8.444918 -4.478597,22.547188 -21.847813,33.411335 0,-6.529347 -0.06759,-8.308437 -0.06759,-10.542812 -14.061409,0 -23.8841476,-10.221328 -23.8841476,-22.868523 C 9.1002277,13.726197 19.352805,3.4736197 32,3.4736195 c 12.647195,0 22.899773,10.2525775 22.899773,22.8997725 z"
       style="opacity:0.5;fill:none;stroke:url(#linearGradient4205);stroke-width:1" />
    <path
       sodipodi:nodetypes="sccsss"
       inkscape:connector-curvature="0"
       id="path4207"
       d="m 55.874746,26.374746 c 0,6.59283 -2.73584,22.950301 -23.819494,35.122954 C 32.055252,54.501677 32,53.317617 32,50.249493 18.814341,50.249493 8.1252531,39.560405 8.1252537,26.374746 8.1252537,13.189088 18.814342,2.4999998 32,2.5 c 13.185658,0 23.874745,10.689088 23.874746,23.874746 z"
       style="opacity:0.7;fill:none;fill-rule:evenodd;stroke:#16502d;stroke-width:1;stroke-linecap:butt;stroke-linejoin:miter;stroke-opacity:1" />
    <g
       transform="translate(0.116881,2.125)"
       id="g4258">
      <g
         id="g4246"
         transform="matrix(0.9902094,0,0,0.9902094,2.2569,0.25203339)">
        <path
           sodipodi:nodetypes="ssssscssss"
           inkscape:connector-curvature="0"
           id="rect4241"
           d="m 17.948251,18.038058 6.528672,0 c 1.166737,0 2.106023,0.939287 2.106023,2.106024 l 0,6.528672 c 0,3.378061 -5.436734,7.747979 -5.42301,6.581323 l 0.05265,-4.4753 -3.264336,0 c -1.166737,0 -2.106023,-0.939286 -2.106023,-2.106023 l 0,-6.528672 c 0,-1.166737 0.939286,-2.106024 2.106028,-2.106024 z"
           style="opacity:1;fill:#ffffff;fill-opacity:1;stroke:none;stroke-width:1;stroke-opacity:1" />
        <path
           style="opacity:1;fill:#ffffff;fill-opacity:1;stroke:none;stroke-width:1;stroke-opacity:1"
           d="m 35.361373,18.038058 6.528672,0 c 1.166737,0 2.106023,0.939287 2.106023,2.106024 l 0,6.528672 c 0,3.378061 -5.436734,7.747979 -5.42301,6.581323 l 0.05265,-4.4753 -3.264336,0 c -1.166737,0 -2.106023,-0.939286 -2.106023,-2.106023 l 0,-6.528672 c 0,-1.166737 0.939286,-2.106024 2.106028,-2.106024 z"
           id="path4244"
           inkscape:connector-curvature="0"
           sodipodi:nodetypes="ssssscssss" />
      </g>
      <path
         sodipodi:nodetypes="ssssscssss"
         inkscape:connector-curvature="0"
         id="path4252"
         d="m 20.029428,18.113488 6.464752,0 c 1.155314,0 2.085404,0.930091 2.085404,2.085405 l 0,6.464752 c 0,3.344988 -5.383505,7.672122 -5.369916,6.516888 l 0.05213,-4.431484 -3.232376,0 c -1.155314,0 -2.085404,-0.93009 -2.085404,-2.085404 l 0,-6.464752 c 0,-1.155314 0.93009,-2.085405 2.085409,-2.085405 z"
         style="opacity:0.5;fill:none;fill-opacity:1;stroke:#005522;stroke-width:1;stroke-opacity:1" />
      <path
         style="opacity:0.5;fill:none;fill-opacity:1;stroke:#16502d;stroke-width:1;stroke-opacity:1"
         d="m 37.272064,18.113488 6.464752,0 c 1.155314,0 2.085404,0.930091 2.085404,2.085405 l 0,6.464752 c 0,3.344988 -5.383505,7.672122 -5.369915,6.516888 l 0.05213,-4.431484 -3.232376,0 c -1.155314,0 -2.085404,-0.93009 -2.085404,-2.085404 l 0,-6.464752 c 0,-1.155314 0.93009,-2.085405 2.085409,-2.085405 z"
         id="path4254"
         inkscape:connector-curvature="0"
         sodipodi:nodetypes="ssssscssss" />
    </g>
  </g>
</svg>
