<?xml version="1.0" encoding="UTF-8" standalone="no"?>
<svg xmlns:rdf="http://www.w3.org/1999/02/22-rdf-syntax-ns#" xmlns="http://www.w3.org/2000/svg" height="64" width="64" version="1.1" xmlns:cc="http://creativecommons.org/ns#" xmlns:xlink="http://www.w3.org/1999/xlink" xmlns:dc="http://purl.org/dc/elements/1.1/">
<defs>
<linearGradient id="e" y2="43" gradientUnits="userSpaceOnUse" x2="24" gradientTransform="matrix(1.4324 0 0 1.4363 -2.3784 -2.4708)" y1="5" x1="24">
<stop stop-color="#fff" offset="0"/>
<stop stop-color="#fff" stop-opacity=".23529" offset=".063165"/>
<stop stop-color="#fff" stop-opacity=".15686" offset=".95056"/>
<stop stop-color="#fff" stop-opacity=".39216" offset="1"/>
</linearGradient>
<radialGradient id="a" gradientUnits="userSpaceOnUse" cy="8.4498" cx="7.4957" gradientTransform="matrix(2.7399e-8 3.2958 -3.4865 -6.072e-8 61.46 -19.382)" r="20">
<stop stop-color="#73baff" offset="0"/>
<stop stop-color="#5aa7f3" offset=".26238"/>
<stop stop-color="#1977d4" offset=".70495"/>
<stop stop-color="#0065c8" offset="1"/>
</radialGradient>
<linearGradient id="d" y2="3.899" gradientUnits="userSpaceOnUse" x2="24" gradientTransform="matrix(1.4103 0 0 1.4103 -1.8462 -1.8462)" y1="44" x1="24">
<stop stop-color="#00478b" offset="0"/>
<stop stop-color="#0065c8" offset="1"/>
</linearGradient>
<radialGradient id="c" gradientUnits="userSpaceOnUse" cy="43.5" cx="4.993" gradientTransform="matrix(2.0038 0 0 1.4 27.988 -17.4)" r="2.5">
<stop stop-color="#181818" offset="0"/>
<stop stop-color="#181818" stop-opacity="0" offset="1"/>
</radialGradient>
<radialGradient id="b" gradientUnits="userSpaceOnUse" cy="43.5" cx="4.993" gradientTransform="matrix(2.0038 0 0 1.4 -20.012 -104.4)" r="2.5">
<stop stop-color="#181818" offset="0"/>
<stop stop-color="#181818" stop-opacity="0" offset="1"/>
</radialGradient>
<linearGradient id="f" y2="39.999" gradientUnits="userSpaceOnUse" x2="25.058" y1="47.028" x1="25.058">
<stop stop-color="#181818" stop-opacity="0" offset="0"/>
<stop stop-color="#181818" offset=".5"/>
<stop stop-color="#181818" stop-opacity="0" offset="1"/>
</linearGradient>
<linearGradient id="g" y2="50" gradientUnits="userSpaceOnUse" x2="30" y1="14" x1="30">
<stop stop-color="#fff" offset="0"/>
<stop stop-color="#c4e0fa" offset="1"/>
</linearGradient>
</defs>
<g transform="matrix(1.5 0 0 .55556 -4 35.889)">
<g opacity=".4" transform="matrix(1.0526 0 0 1.2857 -1.2632 -13.429)">
<rect height="7" width="5" y="40" x="38" fill="url(#c)"/>
<rect transform="scale(-1)" height="7" width="5" y="-47" x="-10" fill="url(#b)"/>
<rect height="7" width="28" y="40" x="10" fill="url(#f)"/>
</g>
</g>
<rect stroke-linejoin="round" height="55" stroke="url(#d)" stroke-linecap="round" fill="url(#a)" style="color:#000000" rx="3" ry="3" width="55" y="4.5" x="4.5"/>
<rect opacity=".5" stroke-linejoin="round" rx="2" ry="2" height="53.142" width="53" stroke="url(#e)" stroke-linecap="round" y="5.4288" x="5.5" fill="none"/>
<g>
<path opacity=".05" stroke-linejoin="round" d="m41 15c-11.574 0-21 9.4257-21 21 0 1.0185 0.07578 2.0197 0.2168 3h4.0605c-0.173-0.975-0.278-1.974-0.278-3 0-9.4125 7.5875-17 17-17 1.0257 0 2.0251 0.1046 3 0.27734v-4.0605c-0.98-0.14-1.982-0.216-3-0.216zm0 6c-8.2606 0-15 6.7394-15 15 0 1.0272 0.10631 2.0299 0.30469 3h4.1152c-0.268-0.954-0.42-1.957-0.42-3 0-6.0988 4.9012-11 11-11 1.0425 0 2.046 0.152 3 0.41992v-4.1152c-0.97-0.199-1.973-0.305-3-0.305zm0 6c-4.9469 0-9 4.0531-9 9 0 1.0519 0.19316 2.0593 0.5293 3h4.4766c-0.625-0.834-1.006-1.865-1.006-3 0-2.7851 2.2149-5 5-5 1.1354 0 2.1656 0.3811 3 1.0059v-4.4766c-0.941-0.336-1.948-0.529-3-0.529zm0 6a3 3 0 0 0 -3 3 3 3 0 0 0 3 3 3 3 0 0 0 3 -3 3 3 0 0 0 -3 -3zm-2 8c-0.554 0-1 0.446-1 1v8c0 0.554 0.446 1 1 1h4c0.554 0 1-0.446 1-1v-8c0-0.554-0.446-1-1-1h-4z" stroke="#000" stroke-width="2"/>
<path opacity=".15" d="m41 15c-11.574 0-21 9.4257-21 21 0 1.0185 0.07578 2.0197 0.2168 3h4.0605c-0.173-0.975-0.278-1.974-0.278-3 0-9.4125 7.5875-17 17-17 1.0257 0 2.0251 0.1046 3 0.27734v-4.0605c-0.98-0.14-1.982-0.216-3-0.216zm0 6c-8.2606 0-15 6.7394-15 15 0 1.0272 0.10631 2.0299 0.30469 3h4.1152c-0.268-0.954-0.42-1.957-0.42-3 0-6.0988 4.9012-11 11-11 1.0425 0 2.046 0.152 3 0.41992v-4.1152c-0.97-0.199-1.973-0.305-3-0.305zm0 6c-4.9469 0-9 4.0531-9 9 0 1.0519 0.19316 2.0593 0.5293 3h4.4766c-0.625-0.834-1.006-1.865-1.006-3 0-2.7851 2.2149-5 5-5 1.1354 0 2.1656 0.3811 3 1.0059v-4.4766c-0.941-0.336-1.948-0.529-3-0.529zm0 6a3 3 0 0 0 -3 3 3 3 0 0 0 3 3 3 3 0 0 0 3 -3 3 3 0 0 0 -3 -3zm-2 8c-0.554 0-1 0.446-1 1v8c0 0.554 0.446 1 1 1h4c0.554 0 1-0.446 1-1v-8c0-0.554-0.446-1-1-1h-4z"/>
<path d="m41 14c-11.574 0-21 9.4257-21 21 0 1.0185 0.07578 2.0197 0.2168 3h4.0605c-0.173-0.975-0.278-1.974-0.278-3 0-9.4125 7.5875-17 17-17 1.0257 0 2.0251 0.1046 3 0.27734v-4.0605c-0.98-0.14-1.982-0.216-3-0.216zm0 6c-8.2606 0-15 6.7394-15 15 0 1.0272 0.10631 2.0299 0.30469 3h4.1152c-0.268-0.954-0.42-1.957-0.42-3 0-6.0988 4.9012-11 11-11 1.0425 0 2.046 0.152 3 0.41992v-4.1152c-0.97-0.199-1.973-0.305-3-0.305zm0 6c-4.9469 0-9 4.0531-9 9 0 1.0519 0.19316 2.0593 0.5293 3h4.4766c-0.625-0.834-1.006-1.865-1.006-3 0-2.7851 2.2149-5 5-5 1.1354 0 2.1656 0.3811 3 1.0059v-4.4766c-0.941-0.336-1.948-0.529-3-0.529zm0 6a3 3 0 0 0 -3 3 3 3 0 0 0 3 3 3 3 0 0 0 3 -3 3 3 0 0 0 -3 -3zm-2 8c-0.554 0-1 0.446-1 1v8c0 0.554 0.446 1 1 1h4c0.554 0 1-0.446 1-1v-8c0-0.554-0.446-1-1-1h-4z" fill="url(#g)"/>
</g>
</svg>
