<?xml version="1.0" encoding="UTF-8" standalone="no"?>
<svg xmlns:rdf="http://www.w3.org/1999/02/22-rdf-syntax-ns#" xmlns="http://www.w3.org/2000/svg" height="64" width="64" version="1.1" xmlns:cc="http://creativecommons.org/ns#" xmlns:xlink="http://www.w3.org/1999/xlink" xmlns:dc="http://purl.org/dc/elements/1.1/">
 <defs>
  <radialGradient id="c" gradientUnits="userSpaceOnUse" cy="43.5" cx="4.993" gradientTransform="matrix(2.0038 0 0 1.4 27.988 -17.4)" r="2.5">
   <stop stop-color="#181818" offset="0"/>
   <stop stop-color="#181818" stop-opacity="0" offset="1"/>
  </radialGradient>
  <radialGradient id="b" gradientUnits="userSpaceOnUse" cy="43.5" cx="4.993" gradientTransform="matrix(2.0038 0 0 1.4 -20.012 -104.4)" r="2.5">
   <stop stop-color="#181818" offset="0"/>
   <stop stop-color="#181818" stop-opacity="0" offset="1"/>
  </radialGradient>
  <linearGradient id="e" y2="39.999" gradientUnits="userSpaceOnUse" x2="25.058" y1="47.028" x1="25.058">
   <stop stop-color="#181818" stop-opacity="0" offset="0"/>
   <stop stop-color="#181818" offset=".5"/>
   <stop stop-color="#181818" stop-opacity="0" offset="1"/>
  </linearGradient>
  <linearGradient id="d" y2="43" gradientUnits="userSpaceOnUse" x2="24" gradientTransform="matrix(1.4324 0 0 1.4363 -2.3784 -2.4708)" y1="5" x1="24">
   <stop stop-color="#fff" offset="0"/>
   <stop stop-color="#fff" stop-opacity=".23529" offset=".063165"/>
   <stop stop-color="#fff" stop-opacity=".15686" offset=".95056"/>
   <stop stop-color="#fff" stop-opacity=".39216" offset="1"/>
  </linearGradient>
  <radialGradient id="a" gradientUnits="userSpaceOnUse" cy="4.3419" cx="32" gradientTransform="matrix(1.0056e-8 2.3103 -2.3103 1.0056e-8 42.031 -69.086)" r="27.5">
   <stop stop-color="#fafafa" offset="0"/>
   <stop stop-color="#e1e1e1" offset="1"/>
  </radialGradient>
 </defs>
 <g opacity=".4" transform="matrix(1.579 0 0 .71429 -5.8948 27.929)">
  <rect height="7" width="5" y="40" x="38" fill="url(#c)"/>
  <rect transform="scale(-1)" height="7" width="5" y="-47" x="-10" fill="url(#b)"/>
  <rect height="7" width="28" y="40" x="10" fill="url(#e)"/>
 </g>
 <rect style="color:#000000" rx="2.5" ry="2.5" height="54" width="54" y="5" x="5" fill="url(#a)"/>
 <rect stroke-linejoin="round" rx="2" ry="2" height="53.142" width="53" stroke="url(#d)" stroke-linecap="round" y="5.4288" x="5.5" fill="none"/>
 <rect opacity=".3" style="color:#000000" rx="3" ry="3" height="55" width="55" stroke="#000" y="4.5" x="4.5" fill="none"/>
 <text opacity=".8" xml:space="preserve" font-size="12.666px" y="11.54004" x="1023.4568" font-family="Bitstream Vera Sans" fill="#000000"><tspan y="11.54004" x="1023.4568"/></text>
 <text opacity=".8" xml:space="preserve" font-size="12.666px" y="-29.201666" x="1047.4177" font-family="Bitstream Vera Sans" fill="#000000"><tspan y="-29.201666" x="1047.4177"/></text>
 <text opacity=".8" xml:space="preserve" font-size="12.666px" y="-59.279808" x="-423.14066" font-family="Bitstream Vera Sans" fill="#000000"><tspan y="-59.279808" x="-423.14066"/></text>
 <text opacity=".8" xml:space="preserve" font-size="12.666px" y="686.27368" x="-2246.8267" font-family="Bitstream Vera Sans" fill="#000000"><tspan y="686.27368" x="-2246.8267"/></text>
 <text opacity=".8" xml:space="preserve" font-size="12.666px" y="-444.60077" x="-308.64957" font-family="Bitstream Vera Sans" fill="#000000"><tspan y="-444.60077" x="-308.64957"/></text>
 <text opacity=".8" xml:space="preserve" font-size="12.666px" y="-858.07086" x="498.95258" font-family="Bitstream Vera Sans" fill="#000000"><tspan y="-858.07086" x="498.95258"/></text>
 <text opacity=".8" xml:space="preserve" font-size="12.666px" y="-898.81256" x="522.91351" font-family="Bitstream Vera Sans" fill="#000000"><tspan y="-898.81256" x="522.91351"/></text>
 <text opacity=".8" xml:space="preserve" font-size="12.666px" y="-906.02246" x="-968.54968" font-family="Bitstream Vera Sans" fill="#000000"><tspan y="-906.02246" x="-968.54968"/></text>
 <text opacity=".8" xml:space="preserve" font-size="12.666px" y="-1179.2567" x="491.9931" font-family="Bitstream Vera Sans" fill="#000000"><tspan y="-1179.2567" x="491.9931"/></text>
 <text opacity=".8" xml:space="preserve" font-size="12.666px" y="-552.56525" x="1978.1166" font-family="Bitstream Vera Sans" fill="#000000"><tspan y="-552.56525" x="1978.1166"/></text>
 <text opacity=".8" xml:space="preserve" font-size="12.666px" y="-593.30701" x="2002.0774" font-family="Bitstream Vera Sans" fill="#000000"><tspan y="-593.30701" x="2002.0774"/></text>
 <text opacity=".8" xml:space="preserve" font-size="12.666px" y="-600.51691" x="510.61426" font-family="Bitstream Vera Sans" fill="#000000"><tspan y="-600.51691" x="510.61426"/></text>
 <text opacity=".8" xml:space="preserve" font-size="12.666px" y="-873.75092" x="1971.1571" font-family="Bitstream Vera Sans" fill="#000000"><tspan y="-873.75092" x="1971.1571"/></text>
 <text opacity=".8" xml:space="preserve" font-size="12.666px" y="-648.60822" x="-427.20206" font-family="Bitstream Vera Sans" fill="#000000"><tspan y="-648.60822" x="-427.20206"/></text>
 <text opacity=".8" xml:space="preserve" font-size="12.666px" y="96.945297" x="-2250.8877" font-family="Bitstream Vera Sans" fill="#000000"><tspan y="96.945297" x="-2250.8877"/></text>
 <text opacity=".8" xml:space="preserve" font-size="12.666px" y="189.81743" x="-536.13226" font-family="Bitstream Vera Sans" fill="#000000"><tspan y="189.81743" x="-536.13226"/></text>
 <text opacity=".8" xml:space="preserve" font-size="12.666px" y="10.635291" x="572.89203" font-family="Bitstream Vera Sans" fill="#000000"><tspan y="10.635291" x="572.89203"/></text>
 <text opacity=".8" xml:space="preserve" font-size="12.666px" y="-30.106415" x="596.85297" font-family="Bitstream Vera Sans" fill="#000000"><tspan y="-30.106415" x="596.85297"/></text>
 <text opacity=".8" xml:space="preserve" font-size="12.666px" y="-37.316387" x="-894.61023" font-family="Bitstream Vera Sans" fill="#000000"><tspan y="-37.316387" x="-894.61023"/></text>
 <text opacity=".8" xml:space="preserve" font-size="12.666px" y="-310.55045" x="565.93256" font-family="Bitstream Vera Sans" fill="#000000"><tspan y="-310.55045" x="565.93256"/></text>
 <text opacity=".8" xml:space="preserve" font-size="12.666px" y="-40.030632" x="-461.80203" font-family="Bitstream Vera Sans" fill="#000000"><tspan y="-40.030632" x="-461.80203"/></text>
 <text opacity=".8" xml:space="preserve" font-size="12.666px" y="705.52289" x="-2285.488" font-family="Bitstream Vera Sans" fill="#000000"><tspan y="705.52289" x="-2285.488"/></text>
 <text opacity=".8" xml:space="preserve" font-size="12.666px" y="-901.5611" x="-310.70898" font-family="Bitstream Vera Sans" fill="#000000"><tspan y="-901.5611" x="-310.70898"/></text>
 <text opacity=".8" xml:space="preserve" font-size="12.666px" y="-1315.0314" x="496.89316" font-family="Bitstream Vera Sans" fill="#000000"><tspan y="-1315.0314" x="496.89316"/></text>
 <text opacity=".8" xml:space="preserve" font-size="12.666px" y="-1355.7731" x="520.85406" font-family="Bitstream Vera Sans" fill="#000000"><tspan y="-1355.7731" x="520.85406"/></text>
 <text opacity=".8" xml:space="preserve" font-size="12.666px" y="-1362.983" x="-970.60907" font-family="Bitstream Vera Sans" fill="#000000"><tspan y="-1362.983" x="-970.60907"/></text>
 <text opacity=".8" xml:space="preserve" font-size="12.666px" y="-1636.2172" x="489.93365" font-family="Bitstream Vera Sans" fill="#000000"><tspan y="-1636.2172" x="489.93365"/></text>
 <text opacity=".8" xml:space="preserve" font-size="12.666px" y="-1009.5258" x="1976.057" font-family="Bitstream Vera Sans" fill="#000000"><tspan y="-1009.5258" x="1976.057"/></text>
 <text opacity=".8" xml:space="preserve" font-size="12.666px" y="-1050.2675" x="2000.0178" font-family="Bitstream Vera Sans" fill="#000000"><tspan y="-1050.2675" x="2000.0178"/></text>
 <text opacity=".8" xml:space="preserve" font-size="12.666px" y="-1057.4774" x="508.55481" font-family="Bitstream Vera Sans" fill="#000000"><tspan y="-1057.4774" x="508.55481"/></text>
 <text opacity=".8" xml:space="preserve" font-size="12.666px" y="-1330.7115" x="1969.0975" font-family="Bitstream Vera Sans" fill="#000000"><tspan y="-1330.7115" x="1969.0975"/></text>
 <text opacity=".8" xml:space="preserve" font-size="12.666px" y="-1105.5687" x="-429.26147" font-family="Bitstream Vera Sans" fill="#000000"><tspan y="-1105.5687" x="-429.26147"/></text>
 <text opacity=".8" xml:space="preserve" font-size="12.666px" y="-360.01517" x="-2252.9473" font-family="Bitstream Vera Sans" fill="#000000"><tspan y="-360.01517" x="-2252.9473"/></text>
 <text opacity=".8" xml:space="preserve" font-size="12.666px" y="-267.14301" x="-538.19171" font-family="Bitstream Vera Sans" fill="#000000"><tspan y="-267.14301" x="-538.19171"/></text>
 <text opacity=".8" xml:space="preserve" font-size="12.666px" y="-26.228838" x="301.82278" font-family="Bitstream Vera Sans" fill="#000000"><tspan y="-26.228838" x="301.82278"/></text>
 <text opacity=".8" xml:space="preserve" font-size="12.666px" y="-66.970558" x="325.78372" font-family="Bitstream Vera Sans" fill="#000000"><tspan y="-66.970558" x="325.78372"/></text>
 <text opacity=".8" xml:space="preserve" font-size="12.666px" y="-260.99918" x="-944.03296" font-family="Bitstream Vera Sans" fill="#000000"><tspan y="-260.99918" x="-944.03296"/></text>
 <text opacity=".8" xml:space="preserve" font-size="12.666px" y="-674.4693" x="-136.43091" font-family="Bitstream Vera Sans" fill="#000000"><tspan y="-674.4693" x="-136.43091"/></text>
 <text opacity=".8" xml:space="preserve" font-size="12.666px" y="-715.211" x="-112.46998" font-family="Bitstream Vera Sans" fill="#000000"><tspan y="-715.211" x="-112.46998"/></text>
 <text opacity=".8" xml:space="preserve" font-size="12.666px" y="-722.4209" x="-1603.9331" font-family="Bitstream Vera Sans" fill="#000000"><tspan y="-722.4209" x="-1603.9331"/></text>
 <text opacity=".8" xml:space="preserve" font-size="12.666px" y="-995.65503" x="-143.39035" font-family="Bitstream Vera Sans" fill="#000000"><tspan y="-995.65503" x="-143.39035"/></text>
 <text opacity=".8" xml:space="preserve" font-size="12.666px" y="-368.96368" x="1342.733" font-family="Bitstream Vera Sans" fill="#000000"><tspan y="-368.96368" x="1342.733"/></text>
 <text opacity=".8" xml:space="preserve" font-size="12.666px" y="-409.70541" x="1366.6938" font-family="Bitstream Vera Sans" fill="#000000"><tspan y="-409.70541" x="1366.6938"/></text>
 <text opacity=".8" xml:space="preserve" font-size="12.666px" y="-416.91537" x="-124.76923" font-family="Bitstream Vera Sans" fill="#000000"><tspan y="-416.91537" x="-124.76923"/></text>
 <text opacity=".8" xml:space="preserve" font-size="12.666px" y="-690.14941" x="1335.7736" font-family="Bitstream Vera Sans" fill="#000000"><tspan y="-690.14941" x="1335.7736"/></text>
 <text opacity=".8" xml:space="preserve" font-size="12.666px" y="-465.00665" x="-1062.5856" font-family="Bitstream Vera Sans" fill="#000000"><tspan y="-465.00665" x="-1062.5856"/></text>
 <text opacity=".8" xml:space="preserve" font-size="12.666px" y="280.54691" x="-2886.2712" font-family="Bitstream Vera Sans" fill="#000000"><tspan y="280.54691" x="-2886.2712"/></text>
 <g transform="matrix(.90475 0 0 .90475 -570.51 -675.56)">
  <text opacity=".8" xml:space="preserve" font-size="14px" y="1159.4154" x="-664.2738" font-family="Bitstream Vera Sans" fill="#000000"><tspan y="1159.4154" x="-664.2738"/></text>
 </g>
 <text opacity=".8" xml:space="preserve" font-size="12.666px" y="18.778028" x="1023.4568" font-family="Bitstream Vera Sans" fill="#000000"><tspan y="18.778028" x="1023.4568"/></text>
 <text opacity=".8" xml:space="preserve" font-size="12.666px" y="-21.963676" x="1047.4177" font-family="Bitstream Vera Sans" fill="#000000"><tspan y="-21.963676" x="1047.4177"/></text>
 <text opacity=".8" xml:space="preserve" font-size="12.666px" y="-52.041821" x="-423.14066" font-family="Bitstream Vera Sans" fill="#000000"><tspan y="-52.041821" x="-423.14066"/></text>
 <text opacity=".8" xml:space="preserve" font-size="12.666px" y="693.51166" x="-2246.8267" font-family="Bitstream Vera Sans" fill="#000000"><tspan y="693.51166" x="-2246.8267"/></text>
 <text opacity=".8" xml:space="preserve" font-size="12.666px" y="-437.36276" x="-308.64957" font-family="Bitstream Vera Sans" fill="#000000"><tspan y="-437.36276" x="-308.64957"/></text>
 <text opacity=".8" xml:space="preserve" font-size="12.666px" y="-850.83282" x="498.95258" font-family="Bitstream Vera Sans" fill="#000000"><tspan y="-850.83282" x="498.95258"/></text>
 <text opacity=".8" xml:space="preserve" font-size="12.666px" y="-891.57458" x="522.91351" font-family="Bitstream Vera Sans" fill="#000000"><tspan y="-891.57458" x="522.91351"/></text>
 <text opacity=".8" xml:space="preserve" font-size="12.666px" y="-898.78448" x="-968.54968" font-family="Bitstream Vera Sans" fill="#000000"><tspan y="-898.78448" x="-968.54968"/></text>
 <text opacity=".8" xml:space="preserve" font-size="12.666px" y="-1172.0187" x="491.9931" font-family="Bitstream Vera Sans" fill="#000000"><tspan y="-1172.0187" x="491.9931"/></text>
 <text opacity=".8" xml:space="preserve" font-size="12.666px" y="-545.32727" x="1978.1166" font-family="Bitstream Vera Sans" fill="#000000"><tspan y="-545.32727" x="1978.1166"/></text>
 <text opacity=".8" xml:space="preserve" font-size="12.666px" y="-586.06903" x="2002.0774" font-family="Bitstream Vera Sans" fill="#000000"><tspan y="-586.06903" x="2002.0774"/></text>
 <text opacity=".8" xml:space="preserve" font-size="12.666px" y="-593.27893" x="510.61426" font-family="Bitstream Vera Sans" fill="#000000"><tspan y="-593.27893" x="510.61426"/></text>
 <text opacity=".8" xml:space="preserve" font-size="12.666px" y="-866.51288" x="1971.1571" font-family="Bitstream Vera Sans" fill="#000000"><tspan y="-866.51288" x="1971.1571"/></text>
 <text opacity=".8" xml:space="preserve" font-size="12.666px" y="-641.37024" x="-427.20206" font-family="Bitstream Vera Sans" fill="#000000"><tspan y="-641.37024" x="-427.20206"/></text>
 <text opacity=".8" xml:space="preserve" font-size="12.666px" y="104.18329" x="-2250.8877" font-family="Bitstream Vera Sans" fill="#000000"><tspan y="104.18329" x="-2250.8877"/></text>
 <text opacity=".8" xml:space="preserve" font-size="12.666px" y="197.05542" x="-536.13226" font-family="Bitstream Vera Sans" fill="#000000"><tspan y="197.05542" x="-536.13226"/></text>
 <text opacity=".8" xml:space="preserve" font-size="12.666px" y="17.87328" x="572.89203" font-family="Bitstream Vera Sans" fill="#000000"><tspan y="17.87328" x="572.89203"/></text>
 <text opacity=".8" xml:space="preserve" font-size="12.666px" y="-22.868425" x="596.85297" font-family="Bitstream Vera Sans" fill="#000000"><tspan y="-22.868425" x="596.85297"/></text>
 <text opacity=".8" xml:space="preserve" font-size="12.666px" y="-30.078396" x="-894.61023" font-family="Bitstream Vera Sans" fill="#000000"><tspan y="-30.078396" x="-894.61023"/></text>
 <text opacity=".8" xml:space="preserve" font-size="12.666px" y="-303.31244" x="565.93256" font-family="Bitstream Vera Sans" fill="#000000"><tspan y="-303.31244" x="565.93256"/></text>
 <text opacity=".8" xml:space="preserve" font-size="12.666px" y="-32.792641" x="-461.80203" font-family="Bitstream Vera Sans" fill="#000000"><tspan y="-32.792641" x="-461.80203"/></text>
 <text opacity=".8" xml:space="preserve" font-size="12.666px" y="712.76093" x="-2285.488" font-family="Bitstream Vera Sans" fill="#000000"><tspan y="712.76093" x="-2285.488"/></text>
 <text opacity=".8" xml:space="preserve" font-size="12.666px" y="-894.32312" x="-310.70898" font-family="Bitstream Vera Sans" fill="#000000"><tspan y="-894.32312" x="-310.70898"/></text>
 <text opacity=".8" xml:space="preserve" font-size="12.666px" y="-1307.7933" x="496.89316" font-family="Bitstream Vera Sans" fill="#000000"><tspan y="-1307.7933" x="496.89316"/></text>
 <text opacity=".8" xml:space="preserve" font-size="12.666px" y="-1348.5352" x="520.85406" font-family="Bitstream Vera Sans" fill="#000000"><tspan y="-1348.5352" x="520.85406"/></text>
 <text opacity=".8" xml:space="preserve" font-size="12.666px" y="-1355.745" x="-970.60907" font-family="Bitstream Vera Sans" fill="#000000"><tspan y="-1355.745" x="-970.60907"/></text>
 <text opacity=".8" xml:space="preserve" font-size="12.666px" y="-1628.9791" x="489.93365" font-family="Bitstream Vera Sans" fill="#000000"><tspan y="-1628.9791" x="489.93365"/></text>
 <text opacity=".8" xml:space="preserve" font-size="12.666px" y="-1002.2878" x="1976.057" font-family="Bitstream Vera Sans" fill="#000000"><tspan y="-1002.2878" x="1976.057"/></text>
 <text opacity=".8" xml:space="preserve" font-size="12.666px" y="-1043.0295" x="2000.0178" font-family="Bitstream Vera Sans" fill="#000000"><tspan y="-1043.0295" x="2000.0178"/></text>
 <text opacity=".8" xml:space="preserve" font-size="12.666px" y="-1050.2394" x="508.55481" font-family="Bitstream Vera Sans" fill="#000000"><tspan y="-1050.2394" x="508.55481"/></text>
 <text opacity=".8" xml:space="preserve" font-size="12.666px" y="-1323.4735" x="1969.0975" font-family="Bitstream Vera Sans" fill="#000000"><tspan y="-1323.4735" x="1969.0975"/></text>
 <text opacity=".8" xml:space="preserve" font-size="12.666px" y="-1098.3307" x="-429.26147" font-family="Bitstream Vera Sans" fill="#000000"><tspan y="-1098.3307" x="-429.26147"/></text>
 <text opacity=".8" xml:space="preserve" font-size="12.666px" y="-352.77716" x="-2252.9473" font-family="Bitstream Vera Sans" fill="#000000"><tspan y="-352.77716" x="-2252.9473"/></text>
 <text opacity=".8" xml:space="preserve" font-size="12.666px" y="-259.905" x="-538.19171" font-family="Bitstream Vera Sans" fill="#000000"><tspan y="-259.905" x="-538.19171"/></text>
 <text opacity=".8" xml:space="preserve" font-size="12.666px" y="-18.99085" x="301.82278" font-family="Bitstream Vera Sans" fill="#000000"><tspan y="-18.99085" x="301.82278"/></text>
 <text opacity=".8" xml:space="preserve" font-size="12.666px" y="-59.732571" x="325.78372" font-family="Bitstream Vera Sans" fill="#000000"><tspan y="-59.732571" x="325.78372"/></text>
 <text opacity=".8" xml:space="preserve" font-size="12.666px" y="-253.76117" x="-944.03296" font-family="Bitstream Vera Sans" fill="#000000"><tspan y="-253.76117" x="-944.03296"/></text>
 <text opacity=".8" xml:space="preserve" font-size="12.666px" y="-667.23132" x="-136.43091" font-family="Bitstream Vera Sans" fill="#000000"><tspan y="-667.23132" x="-136.43091"/></text>
 <text opacity=".8" xml:space="preserve" font-size="12.666px" y="-707.97302" x="-112.46998" font-family="Bitstream Vera Sans" fill="#000000"><tspan y="-707.97302" x="-112.46998"/></text>
 <text opacity=".8" xml:space="preserve" font-size="12.666px" y="-715.18298" x="-1603.9331" font-family="Bitstream Vera Sans" fill="#000000"><tspan y="-715.18298" x="-1603.9331"/></text>
 <text opacity=".8" xml:space="preserve" font-size="12.666px" y="-988.41699" x="-143.39035" font-family="Bitstream Vera Sans" fill="#000000"><tspan y="-988.41699" x="-143.39035"/></text>
 <text opacity=".8" xml:space="preserve" font-size="12.666px" y="-361.72571" x="1342.733" font-family="Bitstream Vera Sans" fill="#000000"><tspan y="-361.72571" x="1342.733"/></text>
 <text opacity=".8" xml:space="preserve" font-size="12.666px" y="-402.46744" x="1366.6938" font-family="Bitstream Vera Sans" fill="#000000"><tspan y="-402.46744" x="1366.6938"/></text>
 <text opacity=".8" xml:space="preserve" font-size="12.666px" y="-409.67737" x="-124.76923" font-family="Bitstream Vera Sans" fill="#000000"><tspan y="-409.67737" x="-124.76923"/></text>
 <text opacity=".8" xml:space="preserve" font-size="12.666px" y="-682.91144" x="1335.7736" font-family="Bitstream Vera Sans" fill="#000000"><tspan y="-682.91144" x="1335.7736"/></text>
 <text opacity=".8" xml:space="preserve" font-size="12.666px" y="-457.76865" x="-1062.5856" font-family="Bitstream Vera Sans" fill="#000000"><tspan y="-457.76865" x="-1062.5856"/></text>
 <text opacity=".8" xml:space="preserve" font-size="12.666px" y="287.78488" x="-2886.2712" font-family="Bitstream Vera Sans" fill="#000000"><tspan y="287.78488" x="-2886.2712"/></text>
 <g transform="matrix(.90475 0 0 .90475 -570.51 -668.32)">
  <text opacity=".8" xml:space="preserve" font-size="14px" y="1159.4154" x="-664.2738" font-family="Bitstream Vera Sans" fill="#000000"><tspan y="1159.4154" x="-664.2738"/></text>
 </g>
 <text xml:space="preserve" font-size="12.666px" y="-360.49802" x="582.13477" font-family="Droid Sans" fill="#000000"><tspan y="-360.49802" x="582.13477"/><tspan y="-344.66495" x="582.13477"/></text>
 <text opacity=".8" xml:space="preserve" font-size="12.666px" y="-842.54254" x="1047.3187" font-family="Bitstream Vera Sans" fill="#000000"><tspan y="-842.54254" x="1047.3187"/></text>
 <text opacity=".8" xml:space="preserve" font-size="12.666px" y="-96.989113" x="-776.36725" font-family="Bitstream Vera Sans" fill="#000000"><tspan y="-96.989113" x="-776.36725"/></text>
 <text opacity=".8" xml:space="preserve" font-size="12.666px" y="-1127.5385" x="1774.3982" font-family="Bitstream Vera Sans" fill="#000000"><tspan y="-1127.5385" x="1774.3982"/></text>
 <text opacity=".8" xml:space="preserve" font-size="12.666px" y="-1168.2802" x="1798.359" font-family="Bitstream Vera Sans" fill="#000000"><tspan y="-1168.2802" x="1798.359"/></text>
 <text opacity=".8" xml:space="preserve" font-size="12.666px" y="-1175.4901" x="306.8959" font-family="Bitstream Vera Sans" fill="#000000"><tspan y="-1175.4901" x="306.8959"/></text>
 <text opacity=".8" xml:space="preserve" font-size="12.666px" y="-1448.7242" x="1767.4387" font-family="Bitstream Vera Sans" fill="#000000"><tspan y="-1448.7242" x="1767.4387"/></text>
 <g opacity=".05" stroke-linejoin="round" transform="matrix(.093165 0 0 .093537 35.185 30.555)" stroke="#000" stroke-width="21.425">
  <path d="m17.469-230.45c2.6238 12.626 3.9993 25.752 1.123 38.502-3.4988 17.375-13.624 32.5-25.875 45.125-22.124 23-50 39.625-72.625 62.25-8.125 8.5-16.25 17.625-19.875 29-3.625 11.125-1.5 23.375 3.25 33.875 7 15 17.625 27.75 28.875 39.75 10.75 11.375 22.25 22.125 34 32.5-0.33203-0.71485-0.67273-1.4252-1.0215-2.1308-10.811-21.876-29.365-39.502-37.479-62.994-5.125-14.125-3.375-30.125 4.125-43.125 8.875-16 22.75-28.25 36.875-39.625 12.124-9.75 23.75-20.25 33.875-32.125 12.624-14.75 23.375-31.875 27-51.25 3.3775-17.25-0.50055-36.376-12.248-49.752z"/>
  <path d="m80.342-125.57c-28.75 8.25-57.125 19.625-81.375 37.5-15.376 11.5-29.624 27.5-31.75 47.375-2.125 19.875 8.25 38.625 20.625 53.375 6.0012 6.625 11.126 14.75 11.375 24 0.25125 12.375-6.7475 23.875-15.75 32 0.26593-0.0312 0.52152-0.0889 0.76953-0.16602 1.736-0.54003 3.0742-2.084 4.6055-2.959 13.499-8.625 26.499-19.5 33.125-34.375 4.375-10.125 3.3738-22.125-2.375-31.5-6.7512-11-15.624-20.75-20.873-32.75-2.8762-6.75-3.877-14.625-1.502-21.75 3.125-9.625 9.8762-17.5 17-24.375 19.626-18.625 43.376-31.875 66.125-46.375z"/>
  <path d="m113.73 46.991c-2.5127-0.0363-5.0276 0.11133-7.5117 0.43945-7.6275 1-16.001 2.625-21.25 9 0.78125-0.15625 1.5596-0.33276 2.3379-0.51952 5.4478-1.3074 10.847-3.1524 16.535-2.6055 13.626 0.75 27 10.75 29.5 24.5 2.375 11.875-3.3738 23.625-10.75 32.625-12.126 14.5-28.501 24.875-45 33.75-1.6262 0.99875-3 2.2495-4.25 3.627 21.75-5.5013 43.501-13.752 61.125-27.877 9.7488-8.125 18.375-18.875 20.25-31.75 1.7512-11.125-2.8725-22.625-11.125-30-8.125-7.4141-18.973-11.032-29.861-11.189z"/>
  <path d="m-93.158 51.93c-25.126-0.375-50.125 6-73.125 15.875-5.125 2.5-10.874 4.5-15 8.75-1.6245 1.75-1.625 4.75 0.25 6.25 3.75 3.375 8.7505 4.875 13.5 6.25 16.376 4.375 33.25 5.625 50 6.75 15.001 1 30 1.25 45.125 1.125 39-0.625 78.251-3.25 116.5-11.75 3.6262-0.875 7.6244-1.5 10.877-3.75 6.3738-4.125 13.373-7.375 20.248-10.625-31.126 5-62.376 9.25-93.875 11.25-31.875 2-64 3.25-96 1.125-9.1255-0.875-18.501-1.375-27-4.875-2-0.875-4.7505-2.625-3.75-5.25 1.875-3.375 5.625-5 8.875-6.75 13.75-6.5 28.75-10.125 43.375-14.375z"/>
  <path d="m-114.78 110.43c-7.7505 2.75-15.5 5.625-22 10.75-2.7505 2.125-5.5 5.5-4.75 9.25 1.125 4.375 5.375 7 9.125 9 9.2495 4.75 19.625 6.873 29.75 8.748 25.625 4.1262 51.751 4.2513 77.5 2.5 27.251-2.1237 54.374-6.623 80.752-14.373-7.5-3.375-14.628-7.25-20.625-12.875-21.875 3.875-43.878 7.5-66.002 8.625-24.25 1.625-48.5 0.25-72.5-2.25-4.625-0.625-9.2495-1.375-13.375-3.5-2.1245-1.25-4.25-3.25-4.125-5.875 0.2495-4.125 3.75-7 6.25-10z"/>
  <path d="m-102.41 166.68c-7 2-14.125 4.3743-19.875 8.998-2.8755 2.2513-5.125 6.127-3.75 9.752 1.75 4.6238 6.1255 7.3755 10.25 9.748 10.751 5.8763 22.875 8.6264 34.75 10.754 26.875 4.2475 54.499 3.6218 81.25-1.127 13.89-2.625 27.782-6.2087 40.918-11.5 0.93831-0.37795 1.8724-0.7645 2.8027-1.1602 0.93033-0.39565 1.8575-0.79897 2.7793-1.2129-9.6238-4.0025-18.999-8.5012-27.998-13.75-15.625 2.7488-31.378 5.6236-47.377 6.6211-21.125 1.6263-42.5-0.12304-63.625-2.748-5-1.125-11.25-1.627-14.625-6.002-1.75-3.625 2.25-6.2493 4.5-8.373z"/>
  <path d="m-154.33 203.65c-0.61153 0.00028-1.2227 0.01-1.832 0.0254-12.126 0.37625-24 3.5012-35.5 7.375-9.875 3.6262-20 7.6257-27.875 14.877-3.125 2.7488-6 7.9961-2.75 11.746 5 5.3763 12.75 6.7507 19.625 8.377 38.5 6.6238 77.499 10.374 116.5 11.752 51.75 1.4988 103.88-0.75391 154.75-10.754 17.5-3.6225 35.128-7.748 51.125-15.873 5-2.8762 11.126-6.0012 12.752-12 0.87375-5.7488-5.1275-8.75-9.375-11.125 2.6238 3 4.3756 7.3743 1.748 10.873-4.375 5.8763-11.876 8.1257-18.5 10.377-20.749 5.8738-42.251 8.2488-63.625 10.625-56.626 5.1238-113.62 6.3744-170.25 1.627-19-2.0025-38.375-4.1276-56.5-10.879-2.8755-1.25-7.25-2.4993-7.25-6.373 1.125-3.3738 4.3745-5.2488 7.25-6.875 13-6.6262 27.5-10.249 42-11.127-3.7188-2.1875-8.0123-2.6504-12.293-2.6484z"/>
  <path d="m155.34 234.81c-9.375 10-22.872 14.623-35.5 18.998-23.499 7.5-47.875 11.626-72.125 15-41.875 5.2525-84.125 6.875-126.25 5.625-25.625-0.99751-51.25-2.748-76.5-6.998 5.8755 3.9988 13.125 5.248 19.875 7.123 28.376 6.0013 57.5 7.1263 86.375 8 42.374 0.75 84.749-0.87374 126.5-7.5 19.751-3.4975 39.624-7.748 57.375-16.998 9.2512-4.8762 18.628-12.376 20.25-23.25z"/>
 </g>
 <g opacity=".1" transform="matrix(.093165 0 0 .093537 35.185 30.555)">
  <path d="m17.469-230.45c2.6238 12.626 3.9993 25.752 1.123 38.502-3.4988 17.375-13.624 32.5-25.875 45.125-22.124 23-50 39.625-72.625 62.25-8.125 8.5-16.25 17.625-19.875 29-3.625 11.125-1.5 23.375 3.25 33.875 7 15 17.625 27.75 28.875 39.75 10.75 11.375 22.25 22.125 34 32.5-0.33203-0.71485-0.67273-1.4252-1.0215-2.1308-10.811-21.876-29.365-39.502-37.479-62.994-5.125-14.125-3.375-30.125 4.125-43.125 8.875-16 22.75-28.25 36.875-39.625 12.124-9.75 23.75-20.25 33.875-32.125 12.624-14.75 23.375-31.875 27-51.25 3.3775-17.25-0.50055-36.376-12.248-49.752z"/>
  <path d="m80.342-125.57c-28.75 8.25-57.125 19.625-81.375 37.5-15.376 11.5-29.624 27.5-31.75 47.375-2.125 19.875 8.25 38.625 20.625 53.375 6.0012 6.625 11.126 14.75 11.375 24 0.25125 12.375-6.7475 23.875-15.75 32 0.26593-0.0312 0.52152-0.0889 0.76953-0.16602 1.736-0.54003 3.0742-2.084 4.6055-2.959 13.499-8.625 26.499-19.5 33.125-34.375 4.375-10.125 3.3738-22.125-2.375-31.5-6.7512-11-15.624-20.75-20.873-32.75-2.8762-6.75-3.877-14.625-1.502-21.75 3.125-9.625 9.8762-17.5 17-24.375 19.626-18.625 43.376-31.875 66.125-46.375z"/>
  <path d="m113.73 46.991c-2.5127-0.0363-5.0276 0.11133-7.5117 0.43945-7.6275 1-16.001 2.625-21.25 9 0.78125-0.15625 1.5596-0.33276 2.3379-0.51952 5.4478-1.3074 10.847-3.1524 16.535-2.6055 13.626 0.75 27 10.75 29.5 24.5 2.375 11.875-3.3738 23.625-10.75 32.625-12.126 14.5-28.501 24.875-45 33.75-1.6262 0.99875-3 2.2495-4.25 3.627 21.75-5.5013 43.501-13.752 61.125-27.877 9.7488-8.125 18.375-18.875 20.25-31.75 1.7512-11.125-2.8725-22.625-11.125-30-8.125-7.4141-18.973-11.032-29.861-11.189z"/>
  <path d="m-93.158 51.93c-25.126-0.375-50.125 6-73.125 15.875-5.125 2.5-10.874 4.5-15 8.75-1.6245 1.75-1.625 4.75 0.25 6.25 3.75 3.375 8.7505 4.875 13.5 6.25 16.376 4.375 33.25 5.625 50 6.75 15.001 1 30 1.25 45.125 1.125 39-0.625 78.251-3.25 116.5-11.75 3.6262-0.875 7.6244-1.5 10.877-3.75 6.3738-4.125 13.373-7.375 20.248-10.625-31.126 5-62.376 9.25-93.875 11.25-31.875 2-64 3.25-96 1.125-9.1255-0.875-18.501-1.375-27-4.875-2-0.875-4.7505-2.625-3.75-5.25 1.875-3.375 5.625-5 8.875-6.75 13.75-6.5 28.75-10.125 43.375-14.375z"/>
  <path d="m-114.78 110.43c-7.7505 2.75-15.5 5.625-22 10.75-2.7505 2.125-5.5 5.5-4.75 9.25 1.125 4.375 5.375 7 9.125 9 9.2495 4.75 19.625 6.873 29.75 8.748 25.625 4.1262 51.751 4.2513 77.5 2.5 27.251-2.1237 54.374-6.623 80.752-14.373-7.5-3.375-14.628-7.25-20.625-12.875-21.875 3.875-43.878 7.5-66.002 8.625-24.25 1.625-48.5 0.25-72.5-2.25-4.625-0.625-9.2495-1.375-13.375-3.5-2.1245-1.25-4.25-3.25-4.125-5.875 0.2495-4.125 3.75-7 6.25-10z"/>
  <path d="m-102.41 166.68c-7 2-14.125 4.3743-19.875 8.998-2.8755 2.2513-5.125 6.127-3.75 9.752 1.75 4.6238 6.1255 7.3755 10.25 9.748 10.751 5.8763 22.875 8.6264 34.75 10.754 26.875 4.2475 54.499 3.6218 81.25-1.127 13.89-2.625 27.782-6.2087 40.918-11.5 0.93831-0.37795 1.8724-0.7645 2.8027-1.1602 0.93033-0.39565 1.8575-0.79897 2.7793-1.2129-9.6238-4.0025-18.999-8.5012-27.998-13.75-15.625 2.7488-31.378 5.6236-47.377 6.6211-21.125 1.6263-42.5-0.12304-63.625-2.748-5-1.125-11.25-1.627-14.625-6.002-1.75-3.625 2.25-6.2493 4.5-8.373z"/>
  <path d="m-154.33 203.65c-0.61153 0.00028-1.2227 0.01-1.832 0.0254-12.126 0.37625-24 3.5012-35.5 7.375-9.875 3.6262-20 7.6257-27.875 14.877-3.125 2.7488-6 7.9961-2.75 11.746 5 5.3763 12.75 6.7507 19.625 8.377 38.5 6.6238 77.499 10.374 116.5 11.752 51.75 1.4988 103.88-0.75391 154.75-10.754 17.5-3.6225 35.128-7.748 51.125-15.873 5-2.8762 11.126-6.0012 12.752-12 0.87375-5.7488-5.1275-8.75-9.375-11.125 2.6238 3 4.3756 7.3743 1.748 10.873-4.375 5.8763-11.876 8.1257-18.5 10.377-20.749 5.8738-42.251 8.2488-63.625 10.625-56.626 5.1238-113.62 6.3744-170.25 1.627-19-2.0025-38.375-4.1276-56.5-10.879-2.8755-1.25-7.25-2.4993-7.25-6.373 1.125-3.3738 4.3745-5.2488 7.25-6.875 13-6.6262 27.5-10.249 42-11.127-3.7188-2.1875-8.0123-2.6504-12.293-2.6484z"/>
  <path d="m155.34 234.81c-9.375 10-22.872 14.623-35.5 18.998-23.499 7.5-47.875 11.626-72.125 15-41.875 5.2525-84.125 6.875-126.25 5.625-25.625-0.99751-51.25-2.748-76.5-6.998 5.8755 3.9988 13.125 5.248 19.875 7.123 28.376 6.0013 57.5 7.1263 86.375 8 42.374 0.75 84.749-0.87374 126.5-7.5 19.751-3.4975 39.624-7.748 57.375-16.998 9.2512-4.8762 18.628-12.376 20.25-23.25z"/>
 </g>
 <g transform="matrix(.093165 0 0 .093537 35.185 29.555)">
  <path d="m17.469-230.45c2.6238 12.626 3.9993 25.752 1.123 38.502-3.4988 17.375-13.624 32.5-25.875 45.125-22.124 23-50 39.625-72.625 62.25-8.125 8.5-16.25 17.625-19.875 29-3.625 11.125-1.5 23.375 3.25 33.875 7 15 17.625 27.75 28.875 39.75 10.75 11.375 22.25 22.125 34 32.5-0.33203-0.71485-0.67273-1.4252-1.0215-2.1308-10.811-21.876-29.365-39.502-37.479-62.994-5.125-14.125-3.375-30.125 4.125-43.125 8.875-16 22.75-28.25 36.875-39.625 12.124-9.75 23.75-20.25 33.875-32.125 12.624-14.75 23.375-31.875 27-51.25 3.3775-17.25-0.50055-36.376-12.248-49.752z" fill="#e76f00"/>
  <path d="m80.342-125.57c-28.75 8.25-57.125 19.625-81.375 37.5-15.376 11.5-29.624 27.5-31.75 47.375-2.125 19.875 8.25 38.625 20.625 53.375 6.0012 6.625 11.126 14.75 11.375 24 0.25125 12.375-6.7475 23.875-15.75 32 0.26593-0.0312 0.52152-0.0889 0.76953-0.16602 1.736-0.54003 3.0742-2.084 4.6055-2.959 13.499-8.625 26.499-19.5 33.125-34.375 4.375-10.125 3.3738-22.125-2.375-31.5-6.7512-11-15.624-20.75-20.873-32.75-2.8762-6.75-3.877-14.625-1.502-21.75 3.125-9.625 9.8762-17.5 17-24.375 19.626-18.625 43.376-31.875 66.125-46.375z" fill="#e76f00"/>
  <path d="m113.73 46.991c-2.5127-0.0363-5.0276 0.11133-7.5117 0.43945-7.6275 1-16.001 2.625-21.25 9 0.78125-0.15625 1.5596-0.33276 2.3379-0.51952 5.4478-1.3074 10.847-3.1524 16.535-2.6055 13.626 0.75 27 10.75 29.5 24.5 2.375 11.875-3.3738 23.625-10.75 32.625-12.126 14.5-28.501 24.875-45 33.75-1.6262 0.99875-3 2.2495-4.25 3.627 21.75-5.5013 43.501-13.752 61.125-27.877 9.7488-8.125 18.375-18.875 20.25-31.75 1.7512-11.125-2.8725-22.625-11.125-30-8.125-7.4141-18.973-11.032-29.861-11.189z" fill="#5382a1"/>
  <path d="m-93.158 51.93c-25.126-0.375-50.125 6-73.125 15.875-5.125 2.5-10.874 4.5-15 8.75-1.6245 1.75-1.625 4.75 0.25 6.25 3.75 3.375 8.7505 4.875 13.5 6.25 16.376 4.375 33.25 5.625 50 6.75 15.001 1 30 1.25 45.125 1.125 39-0.625 78.251-3.25 116.5-11.75 3.6262-0.875 7.6244-1.5 10.877-3.75 6.3738-4.125 13.373-7.375 20.248-10.625-31.126 5-62.376 9.25-93.875 11.25-31.875 2-64 3.25-96 1.125-9.1255-0.875-18.501-1.375-27-4.875-2-0.875-4.7505-2.625-3.75-5.25 1.875-3.375 5.625-5 8.875-6.75 13.75-6.5 28.75-10.125 43.375-14.375z" fill="#5382a1"/>
  <path d="m-114.78 110.43c-7.7505 2.75-15.5 5.625-22 10.75-2.7505 2.125-5.5 5.5-4.75 9.25 1.125 4.375 5.375 7 9.125 9 9.2495 4.75 19.625 6.873 29.75 8.748 25.625 4.1262 51.751 4.2513 77.5 2.5 27.251-2.1237 54.374-6.623 80.752-14.373-7.5-3.375-14.628-7.25-20.625-12.875-21.875 3.875-43.878 7.5-66.002 8.625-24.25 1.625-48.5 0.25-72.5-2.25-4.625-0.625-9.2495-1.375-13.375-3.5-2.1245-1.25-4.25-3.25-4.125-5.875 0.2495-4.125 3.75-7 6.25-10z" fill="#5382a1"/>
  <path d="m-102.41 166.68c-7 2-14.125 4.3743-19.875 8.998-2.8755 2.2513-5.125 6.127-3.75 9.752 1.75 4.6238 6.1255 7.3755 10.25 9.748 10.751 5.8763 22.875 8.6264 34.75 10.754 26.875 4.2475 54.499 3.6218 81.25-1.127 13.89-2.625 27.782-6.2087 40.918-11.5 0.93831-0.37795 1.8724-0.7645 2.8027-1.1602 0.93033-0.39565 1.8575-0.79897 2.7793-1.2129-9.6238-4.0025-18.999-8.5012-27.998-13.75-15.625 2.7488-31.378 5.6236-47.377 6.6211-21.125 1.6263-42.5-0.12304-63.625-2.748-5-1.125-11.25-1.627-14.625-6.002-1.75-3.625 2.25-6.2493 4.5-8.373z" fill="#5382a1"/>
  <path d="m-154.33 203.65c-0.61153 0.00028-1.2227 0.01-1.832 0.0254-12.126 0.37625-24 3.5012-35.5 7.375-9.875 3.6262-20 7.6257-27.875 14.877-3.125 2.7488-6 7.9961-2.75 11.746 5 5.3763 12.75 6.7507 19.625 8.377 38.5 6.6238 77.499 10.374 116.5 11.752 51.75 1.4988 103.88-0.75391 154.75-10.754 17.5-3.6225 35.128-7.748 51.125-15.873 5-2.8762 11.126-6.0012 12.752-12 0.87375-5.7488-5.1275-8.75-9.375-11.125 2.6238 3 4.3756 7.3743 1.748 10.873-4.375 5.8763-11.876 8.1257-18.5 10.377-20.749 5.8738-42.251 8.2488-63.625 10.625-56.626 5.1238-113.62 6.3744-170.25 1.627-19-2.0025-38.375-4.1276-56.5-10.879-2.8755-1.25-7.25-2.4993-7.25-6.373 1.125-3.3738 4.3745-5.2488 7.25-6.875 13-6.6262 27.5-10.249 42-11.127-3.7188-2.1875-8.0123-2.6504-12.293-2.6484z" fill="#5382a1"/>
  <path d="m155.34 234.81c-9.375 10-22.872 14.623-35.5 18.998-23.499 7.5-47.875 11.626-72.125 15-41.875 5.2525-84.125 6.875-126.25 5.625-25.625-0.99751-51.25-2.748-76.5-6.998 5.8755 3.9988 13.125 5.248 19.875 7.123 28.376 6.0013 57.5 7.1263 86.375 8 42.374 0.75 84.749-0.87374 126.5-7.5 19.751-3.4975 39.624-7.748 57.375-16.998 9.2512-4.8762 18.628-12.376 20.25-23.25z" fill="#5382a1"/>
 </g>
</svg>
