<?xml version="1.0" encoding="UTF-8" standalone="no"?>
<svg xmlns:rdf="http://www.w3.org/1999/02/22-rdf-syntax-ns#" xmlns="http://www.w3.org/2000/svg" height="64" width="64" version="1.1" xmlns:cc="http://creativecommons.org/ns#" xmlns:xlink="http://www.w3.org/1999/xlink" xmlns:dc="http://purl.org/dc/elements/1.1/">
 <defs>
  <radialGradient id="c" gradientUnits="userSpaceOnUse" cy="4.625" cx="62.625" gradientTransform="matrix(1 0 0 .34118 0 3.0471)" r="10.625">
   <stop offset="0"/>
   <stop stop-opacity="0" offset="1"/>
  </radialGradient>
  <radialGradient id="b" gradientUnits="userSpaceOnUse" cy="-8.7256" cx="61.24" gradientTransform="matrix(0 3.5234 -3.5234 0 -6.744 -205.8)" r="9.7553">
   <stop stop-color="#51cfee" offset="0"/>
   <stop stop-color="#49a3d2" offset=".26238"/>
   <stop stop-color="#3470b4" offset=".70495"/>
   <stop stop-color="#273567" offset="1"/>
  </radialGradient>
  <linearGradient id="g" y2="2.6887" gradientUnits="userSpaceOnUse" x2="20" gradientTransform="matrix(.98001 0 0 .97999 .089940 .87036)" y1="43" x1="20">
   <stop stop-color="#254b6d" offset="0"/>
   <stop stop-color="#415b73" offset=".5"/>
   <stop stop-color="#6195b5" offset="1"/>
  </linearGradient>
  <linearGradient id="f" y2="-1.4615" gradientUnits="userSpaceOnUse" x2="62.2" gradientTransform="matrix(2.0648 0 0 2.0648 -104.43 31.249)" y1="-12.489" x1="62.2">
   <stop stop-color="#fff" offset="0"/>
   <stop stop-color="#fff" stop-opacity="0" offset="1"/>
  </linearGradient>
  <linearGradient id="i" y2="47.533" gradientUnits="userSpaceOnUse" x2="157.8" y1="20.111" x1="157.8">
   <stop stop-color="#fff" offset="0"/>
   <stop stop-color="#fff" stop-opacity="0" offset="1"/>
  </linearGradient>
  <linearGradient id="j" y2="19.244" gradientUnits="userSpaceOnUse" x2="158.91" gradientTransform="matrix(1.4701 0 0 1.6381 -66.56 91.844)" y1="48.432" x1="158.91">
   <stop stop-color="#8c8c8c" offset="0"/>
   <stop stop-color="#969696" offset=".031177"/>
   <stop stop-color="#a0a0a0" offset=".074123"/>
   <stop stop-color="#dcdcdc" offset=".15525"/>
   <stop stop-color="#e1e1e1" offset=".5"/>
   <stop stop-color="#e6e6e6" offset="1"/>
  </linearGradient>
  <linearGradient id="h" y2="148.93" gradientUnits="userSpaceOnUse" x2="29.417" gradientTransform="translate(130.71 -25.927)" y1="196.9" x1="29.417">
   <stop stop-color="#646464" offset="0"/>
   <stop stop-color="#b4b4b4" offset="1"/>
  </linearGradient>
  <radialGradient id="e" xlink:href="#a" gradientUnits="userSpaceOnUse" cy="43.5" cx="4.993" gradientTransform="matrix(2.0038 0 0 1.4 27.988 -17.4)" r="2.5"/>
  <linearGradient id="a">
   <stop offset="0"/>
   <stop stop-opacity="0" offset="1"/>
  </linearGradient>
  <radialGradient id="d" xlink:href="#a" gradientUnits="userSpaceOnUse" cy="43.5" cx="4.993" gradientTransform="matrix(2.0038 0 0 1.4 -20.012 -104.4)" r="2.5"/>
  <linearGradient id="k" y2="39.999" gradientUnits="userSpaceOnUse" x2="25.058" y1="47.028" x1="25.058">
   <stop stop-opacity="0" offset="0"/>
   <stop offset=".5"/>
   <stop stop-opacity="0" offset="1"/>
  </linearGradient>
 </defs>
 <g transform="translate(-133.71 -111.79)">
  <g style="enable-background:new" transform="matrix(1.6 0 0 .59343 127.31 145.9)">
   <g opacity=".4" transform="matrix(1.0526 0 0 1.2857 -1.2632 -13.429)">
    <rect height="7" width="5" y="40" x="38" fill="url(#e)"/>
    <rect transform="scale(-1)" height="7" width="5" y="-47" x="-10" fill="url(#d)"/>
    <rect height="7" width="28" y="40" x="10" fill="url(#k)"/>
   </g>
  </g>
  <path stroke-linejoin="round" style="color:#000000" d="m137.05 123.22v41.669c0 3.5294 2.5292 6.3988 5.6966 6.3988h45.94c3.1674 0 5.6966-2.8694 5.6966-6.3988v-41.669h-57.333z" stroke="url(#h)" stroke-linecap="round" fill="url(#j)"/>
  <path stroke-linejoin="round" style="color:#000000" d="m139.47 20.125v24.469c0 1.637 1.2787 2.9375 2.9062 2.9375h31.25c1.6276 0 2.9062-1.3005 2.9062-2.9375v-24.469h-37.062z" transform="matrix(1.4914 0 0 1.6757 -69.927 90.526)" stroke="url(#i)" stroke-linecap="round" stroke-width=".63258" fill="none"/>
  <g style="enable-background:new" transform="scale(1.019 .98140)" fill="#3c3c3c">
   <path style="" d="m156.64 130.64c-0.33032 0.1705-0.62866 0.25574-0.89503 0.25573-0.42621 0.00001-0.88438-0.19179-1.3745-0.57538l-1.7581 1.6782 0.38358 0.38358 0.30367-0.25572c0.22375 0.21311 0.60201 0.31966 1.1348 0.31965h0.0799l0.032-0.016h0.032l0.016 1.87h-0.032l-0.12786 0.032h-0.0639c-0.0639 0.032-0.22377 0.0479-0.47948 0.0479-0.0107 0.0107-0.0693 0.016-0.17581 0.016-0.4049 0-0.68726-0.0533-0.84708-0.15983-0.27703-0.50078-0.50079-0.90567-0.67127-1.2147-0.15983-0.31964-0.29834-0.58602-0.41554-0.79913-0.43687-0.63929-0.78848-1.0815-1.0549-1.3266-0.40489-0.37292-0.89502-0.55938-1.4704-0.55939-0.58604 0.00001-1.0762 0.22909-1.4704 0.68725-0.4049 0.43686-0.60734 0.94298-0.60734 1.5183 0 0.41556 0.11187 0.64464 0.33563 0.68726l-0.032-0.032h0.11187c0.032-0.36226 0.27171-0.65528 0.71922-0.87904 0.0213-0.0213 0.048-0.032 0.0799-0.032 0.0426 0.00001 0.0799-0.005 0.11188-0.016 0.0746-0.0213 0.14917-0.0373 0.22376-0.048 0.0852-0.0213 0.1545-0.0533 0.20777-0.0959h0.032v2.6211c-0.19179 0.0213-0.34629 0.0426-0.4635 0.0639-0.1172 0.0213-0.19712 0.0373-0.23974 0.048-0.46882 0.1918-0.70323 0.61267-0.70323 1.2626 0 0.29834 0.0959 0.55939 0.28769 0.78314 0.19179 0.22376 0.4262 0.33564 0.70323 0.33564v-0.11188-0.0639l-0.016-0.016c0-0.0852 0.0213-0.17048 0.0639-0.25572 0.0533-0.0959 0.1172-0.14384 0.19179-0.14385h0.032c0.032 0.0213 0.0586 0.0373 0.0799 0.048 0.0213 0 0.0426 0.005 0.0639 0.016v2.1417c-1.0548 0.31966-1.7368 1.0442-2.0458 2.1736 0.0639-0.0213 0.13851-0.0533 0.22375-0.0959 0.0959-0.032 0.14384-0.0479 0.14385-0.0479 0.0426-0.0213 0.0959-0.0533 0.15982-0.0959v0.016c0.44751-0.2131 0.91101-0.31965 1.3905-0.31965 0.64995 0 1.3479 0.23441 2.0937 0.70323l1.2786-1.6782-0.35162-0.35162-0.19179 0.25572c-0.309-0.2131-0.62333-0.37292-0.94298-0.47948-0.31965-0.1172-0.65529-0.1758-1.0069-0.1758h-0.0959l-0.032 0.016h-0.016v-1.5343c0.25572-0.17048 0.66594-0.25572 1.2307-0.25572 0.4262 0 0.91633 0.11721 1.4704 0.35161 0.0533 0.11721 0.10654 0.23442 0.15982 0.35162 0.0533 0.10656 0.10655 0.20778 0.15983 0.30367 0.21309 0.41555 0.37292 0.74586 0.47948 0.99092 0.1172 0.23442 0.22907 0.43153 0.33563 0.59136h-0.016c0.59668 1.0762 1.1561 1.6142 1.6782 1.6142h0.0959v-8.8544c0.0319-0.0106 0.0692-0.0213 0.11188-0.032 0.0533-0.0213 0.11187-0.0533 0.1758-0.0959v0.016c0.28768-0.14916 0.55406-0.35161 0.79913-0.60734 0.15982-0.15981 0.27703-0.31431 0.35162-0.46349 0.0746-0.14916 0.1172-0.29833 0.12786-0.44751l-0.0959-0.0639m-5.7537 5.7537c-0.33031 0.00001-0.76717 0.0746-1.3106 0.22376v-4.2833c0.24506 0.11721 0.5434 0.49547 0.89502 1.1348 0.17048 0.34096 0.41022 0.85241 0.71922 1.5343 0.18113 0.39425 0.3303 0.71923 0.44751 0.97494 0.1172 0.24507 0.20777 0.43154 0.27171 0.55939-0.34097-0.0959-0.68193-0.14383-1.0229-0.14384m2.6371-0.62332c-0.0959-0.2131-0.17582-0.38891-0.23974-0.52743-0.0639-0.13851-0.11188-0.24506-0.14384-0.31965 0.12785 0.0426 0.26637 0.0639 0.41555 0.0639h0.43153c0.12785 0.00001 0.23973-0.005 0.33563-0.016 0.10654-0.0106 0.19178-0.032 0.25572-0.0639l0.016 2.8609c-0.15983-0.2344-0.33031-0.51144-0.51144-0.83109-0.17049-0.3303-0.35695-0.71921-0.55939-1.1667"/>
   <path style="" d="m162.15 136.3c-0.10656-0.14917-0.22376-0.32498-0.35162-0.52743-0.11721-0.2131-0.24507-0.44218-0.38358-0.68725-0.14918-0.27703-0.26638-0.52742-0.35162-0.75118-0.0852-0.22375-0.1545-0.43153-0.20777-0.62333-1.0549 0.70324-2.0032 1.0549-2.8449 1.0549h-0.0639l-0.0479-0.016h-0.048l-0.016-0.016h-0.0959l-0.14384-0.14384v0.22375c0.17048 0.37294 0.25572 0.63931 0.25572 0.79913v3.8678c-0.2131 0.15983-0.35695 0.28769-0.43153 0.38359-0.0107 0.0106-0.0426 0.0533-0.0959 0.12786-0.0426 0.0746-0.10122 0.17048-0.17581 0.28768v-0.016c-0.0213 0.0213-0.0426 0.0533-0.0639 0.0959-0.0213 0.032-0.0426 0.0746-0.0639 0.12786 0.12786-0.0213 0.25572-0.0373 0.38359-0.048 0.12786-0.0213 0.25572-0.032 0.38358-0.032 0.34096 0 0.74585 0.048 1.2147 0.14385 0.27703 0.0533 0.52209 0.12786 0.7352 0.22375 0.21309 0.10655 0.43152 0.21843 0.65528 0.33564l0.15983 0.0799 1.4544-1.5983-0.39956-0.3676-0.38358 0.39957c-0.24507-0.11721-0.51145-0.21843-0.79913-0.30367-0.27704-0.0852-0.58071-0.1545-0.91101-0.20778v-1.1987c0.1172-0.0852 0.22375-0.1545 0.31965-0.20778 0.64996-0.38357 1.1614-0.68192 1.5343-0.89502 0.38358-0.22375 0.6393-0.3676 0.76717-0.43153l0.016-0.0799m-2.1257-0.30367c0.0746 0.15983 0.13851 0.29301 0.19179 0.39956 0.0639 0.0959 0.11721 0.17581 0.15983 0.23974l-0.86306 0.55939v-2.0458l0.12786-0.032c0.0533 0.14918 0.11188 0.29835 0.17581 0.44752 0.0639 0.14917 0.13318 0.29301 0.20777 0.43153"/>
   <path style="" d="m171.87 134.65c-0.0533 0.0213-0.0906 0.0426-0.11188 0.0639-0.0426 0.0107-0.0746 0.016-0.0959 0.016-0.0213 0.00001-0.0426 0.005-0.0639 0.016v0.016h-0.016c-0.0213 0.0107-0.0426 0.016-0.0639 0.016-0.0959 0-0.14918-0.005-0.15982-0.016-0.34097-0.032-0.64464-0.32498-0.91101-0.87905l-1.7581 1.2946 0.23974 0.38359 0.19179-0.0799c0.17048 0.20245 0.3303 0.32499 0.47948 0.3676v3.8678c-0.00001 0.20245-0.0959 0.30367-0.28768 0.30367h-0.17581-0.032c-0.00001-0.0106-0.00001-0.016 0-0.016-0.0426-0.0213-0.0906-0.0373-0.14384-0.048-0.0533-0.0213-0.0959-0.0426-0.12786-0.0639-0.35163-0.17048-0.52743-0.44218-0.52743-0.81511v-4.1715c-0.0213-0.0852-0.0373-0.14384-0.0479-0.17581-0.0213-0.032-0.0373-0.0639-0.0479-0.0959-0.00001-0.032-0.005-0.0586-0.016-0.0799-0.11721-0.29833-0.39424-0.55938-0.83109-0.78315l-1.6302 1.4065v0.12786c0.19179 0.00001 0.37825 0.0639 0.55939 0.1918 0.18114 0.11721 0.2717 0.25039 0.27171 0.39956v3.5641c-0.0639 0.0426-0.13319 0.0746-0.20778 0.0959-0.0107 0.0106-0.0266 0.0213-0.0479 0.032l-0.032 0.032-0.0639 0.0639c-0.0639-0.0533-0.14385-0.10655-0.23974-0.15983-0.0959-0.0533-0.20245-0.10655-0.31965-0.15983-0.0533-0.0213-0.0852-0.032-0.0959-0.032-0.0106-0.0106-0.0426-0.0266-0.0959-0.0479-0.11721 0-0.20245-0.0213-0.25572-0.0639v-3.9637c-0.00001-0.33031-0.10656-0.62865-0.31966-0.89503-0.2131-0.26637-0.47948-0.45816-0.79913-0.57537l-1.6142 1.6142 0.12786 0.0799h0.048l0.032 0.016h0.12786l0.0479 0.016h0.032c0.22375 0 0.41555 0.15983 0.57537 0.47948v3.4522h-0.016l-0.016 0.032c-0.33031 0.24507-0.54874 0.55407-0.65529 0.92699 0.0533-0.0213 0.10655-0.0373 0.15983-0.0479 0.0639-0.0107 0.1172-0.016 0.15982-0.016l0.032-0.016h0.032c0.33031 0 0.64463 0.0746 0.94298 0.22376 0.29834 0.14917 0.60201 0.36227 0.91101 0.6393 0.15982-0.1172 0.29833-0.21843 0.41554-0.30367 0.11721-0.0852 0.19712-0.14384 0.23974-0.17581v0.016c0.0639-0.0426 0.10655-0.0693 0.12786-0.0799l0.032-0.016 0.032-0.032c0.0106-0.0107 0.0586-0.032 0.14385-0.0639 0.19178-0.10655 0.42087-0.24506 0.68725-0.41554 0.18113 0.28768 0.42087 0.53275 0.71922 0.7352 0.30899 0.2131 0.62331 0.3303 0.94297 0.35161 0.13851-0.0639 0.25039-0.12253 0.33563-0.1758 0.0959-0.0426 0.17581-0.0746 0.23974-0.0959 0.76716-0.35162 1.5343-0.52743 2.3015-0.52743h0.032c0.032 0.0107 0.14384 0.016 0.33564 0.016-0.11722-0.17048-0.17582-0.26105-0.17581-0.27171-0.10656-0.14917-0.15984-0.30367-0.15983-0.46349v-3.8838c0.41554-0.24506 0.64462-0.60733 0.68725-1.0868l-0.0799-0.0639"/>
   <path style="" d="m178.26 133.95-0.43153 0.032c-0.1918 0.309-0.44219 0.4635-0.75118 0.46349-0.29835 0.00001-0.618-0.19711-0.95896-0.59135-0.38359 0.38359-0.59669 0.58603-0.63931 0.60734-0.45817 0.24507-0.93232 0.3676-1.4224 0.3676-0.0959 0-0.14917-0.005-0.15982-0.016-0.29835 0.00001-0.48481-0.0213-0.55939-0.0639-0.11721 0.00001-0.22909-0.0479-0.33564-0.14384v0.14384c0 0.0426 0.0107 0.0746 0.032 0.0959v0.016l0.0479 0.11188c0 0.0426 0.005 0.0693 0.016 0.0799v-0.016 0.032c0.0106 0 0.016 0.005 0.016 0.016l0.016 2.781-0.016 0.032c0 0.13851-0.0479 0.2717-0.14384 0.39956l0.016-0.048-0.11188 0.11188 1.0548 0.0479-0.17581 0.17581c-0.0426 0.0533-0.0799 0.0959-0.11187 0.12786l-0.0639 0.0639c-0.36228 0.44751-0.64996 0.86839-0.86307 1.2626-0.2131 0.38359-0.36227 0.76184-0.44751 1.1348h0.4635c0.19179-0.46882 0.53275-0.70324 1.0229-0.70324 0.11721 0 0.20778 0.016 0.27171 0.048 0.0959 0 0.18113 0.016 0.25572 0.0479 0.0746 0.0426 0.1545 0.10122 0.23974 0.17581l0.46349 0.46349c0.5221-0.55406 1.188-0.83109 1.9978-0.83109h0.0959c0.032 0.0106 0.12785 0.016 0.28768 0.016 0.0533 0.032 0.12253 0.0533 0.20778 0.0639h0.31965c0.0213 0 0.0373 0.005 0.0479 0.016h-0.016c0.0213 0.0107 0.0906 0.016 0.20778 0.016l-0.0639-0.12786c-0.032-0.0533-0.0639-0.10655-0.0959-0.15983-0.032-0.0533-0.0373-0.0693-0.016-0.048l0.016 0.032c-0.0107-0.0533-0.016-0.0799-0.016-0.0799-0.00001-0.0106-0.005-0.0213-0.016-0.032v0.016l-0.016-0.032v-0.0479c-0.0107-0.0107-0.016-0.0266-0.016-0.048v-2.717c-0.00001 0.0107 0.005-0.005 0.016-0.0479 0.0106-0.0533 0.0213-0.0959 0.032-0.12786v0.016c-0.00001-0.0106-0.00001-0.0213 0-0.032 0.0106-0.0106 0.016-0.0266 0.016-0.0479l0.016-0.032v-0.032l0.032-0.032v-0.032l0.016-0.016c0-0.032 0.005-0.0586 0.016-0.0799v-0.0639c0.0106-0.032 0.016-0.0533 0.016-0.0639l-1.5024 0.032c0.89502-0.91633 1.481-1.8007 1.7581-2.6531l-0.0639-0.0799m-2.0138 5.8976h-0.0639c-0.0533 0.0213-0.0959 0.0373-0.12786 0.0479h-0.032l-0.0639 0.032c-0.39424-0.49014-0.86839-0.7352-1.4224-0.7352-0.0533 0-0.12786 0.0106-0.22375 0.032-0.0959 0.0107-0.20778 0.0266-0.33564 0.0479 0.13851-0.13852 0.25572-0.26105 0.35162-0.3676 0.0959-0.1172 0.18113-0.2131 0.25572-0.28769l0.83109-0.83109h0.81512l0.032 0.032v2.0138l-0.016 0.016m-0.25572-3.4043c-0.24507 0.24507-0.44752 0.44219-0.60734 0.59136-0.14917 0.14917-0.26638 0.25039-0.35162 0.30366h-0.17581v-2.0138c0.0533 0 0.11188-0.016 0.17581-0.0479h0.0639c0.0106-0.0106 0.032-0.0213 0.0639-0.032 0.39424 0.30901 0.74585 0.4635 1.0548 0.4635 0.20245 0 0.39424-0.0373 0.57538-0.11188-0.17049 0.18114-0.43686 0.4635-0.79913 0.84708"/>
  </g>
  <path style="enable-background:new" d="m141.13 141.92v1.3352h49.333v-1.3352z" stroke="#646464" stroke-width="1px" fill="#646464"/>
  <path style="enable-background:new" d="m141.05 145.92h49.334" stroke="#646464" stroke-linecap="square" stroke-width="1px" fill="none"/>
  <g style="enable-background:new" transform="matrix(1.2579 0 0 1.3352 -29.958 106.53)" stroke="#787878" stroke-linecap="square" stroke-width=".77161px" fill="none">
   <path d="m163.5 32.5h11.66"/>
   <path d="m163.5 34.5h11.66"/>
   <path d="m163.5 36.5h11.66"/>
   <path d="m163.5 38.5h11.66"/>
   <path d="m163.5 40.5h11.66"/>
   <path d="m163.5 42.5h11.66"/>
   <path d="m163.5 44.5h11.66"/>
   <path d="m163.5 46.5h11.66"/>
   <path d="m163.5 46.5h11.66"/>
  </g>
  <g style="enable-background:new" transform="matrix(1.2579 0 0 1.3352 -64.624 106.53)" stroke="#787878" stroke-linecap="square" stroke-width=".77161px" fill="none">
   <path d="m163.5 32.5h11.66"/>
   <path d="m163.5 34.5h11.66"/>
   <path d="m163.5 36.5h11.66"/>
   <path d="m163.5 38.5h11.66"/>
   <path d="m163.5 40.5h11.66"/>
   <path d="m163.5 42.5h11.66"/>
   <path d="m163.5 44.5h11.66"/>
   <path d="m163.5 46.5h11.66"/>
   <path d="m163.5 46.5h11.66"/>
  </g>
  <g style="enable-background:new" transform="matrix(1.2579 0 0 1.3352 -47.291 106.53)" stroke="#787878" stroke-linecap="square" stroke-width=".77161px" fill="none">
   <path d="m163.5 46.5h11.66"/>
   <path d="m163.5 46.5h11.66"/>
  </g>
  <path d="m157.78 149.43v2.7639c7.1036 0.13236 12.844 5.8762 12.974 12.987h2.7892c-0.13181-8.6491-7.1223-15.619-15.763-15.751zm0 6.3735v2.4989c3.7495 0.13047 6.7603 3.1256 6.8909 6.8783h2.4989c-0.13166-5.1364-4.2581-9.2457-9.3898-9.3772zm1.6407 6.3104c-0.4397 0.00002-0.78084 0.16216-1.0854 0.46697-0.30495 0.29981-0.45435 0.62004-0.45435 1.0601 0 0.43323 0.15047 0.77405 0.45435 1.0728 0.30296 0.29786 0.64232 0.44173 1.0854 0.44173 0.42933 0 0.74918-0.1431 1.0475-0.44173 0.3055-0.30579 0.46697-0.64646 0.46697-1.0728 0-0.4401-0.16202-0.76033-0.46697-1.0601-0.29991-0.30564-0.62165-0.46695-1.0475-0.46697z" stroke="#646464" stroke-width=".5" fill="#646464"/>
  <g style="enable-background:new" transform="matrix(.51694 0 0 .51694 133.2 148.98)">
   <path opacity=".4" d="m73.25 4.625a10.625 3.625 0 1 1 -21.25 0 10.625 3.625 0 1 1 21.25 0z" fill-rule="evenodd" transform="matrix(2.1647 0 0 2.5637 -111.56 26.85)" fill="url(#c)"/>
   <path d="m43.5 23.999c0 10.77-8.731 19.501-19.5 19.501s-19.5-8.731-19.5-19.501c0-10.769 8.731-19.499 19.5-19.499s19.5 8.7299 19.5 19.499z" stroke="url(#g)" stroke-width="1.9345" fill="url(#b)"/>
   <path opacity=".4" d="m24.33 5.2182-2.3623 0.27046-2.5986 0.70995c0.22135-0.077615 0.4456-0.16234 0.67496-0.23665l-0.304-0.541-1.012 0.1691-0.507 0.4733-0.776 0.1014-0.709 0.3381-0.337 0.169-0.101 0.1352-0.507 0.1014-0.303 0.6424-0.405-0.8114-0.13499 0.33807 0.0675 0.91279-0.64121 0.54091-0.37122 0.98041h0.7762l0.30373-0.64234 0.10124-0.23665c0.34129-0.24178 0.66483-0.51103 1.0124-0.74376l0.80995 0.27046c0.52734 0.3589 1.0584 0.72347 1.5861 1.0818l0.777-0.7099-0.878-0.3719-0.405-0.8114-1.485-0.169-0.033-0.169 0.641 0.1352 0.371-0.3719 0.81-0.169c0.192-0.0934 0.38-0.1607 0.574-0.2367l-0.50622 0.4733 1.8224 1.2509v0.74376l-0.7087 0.70995 0.94494 1.8932 0.64121-0.37188 0.80995-1.2509c1.1387-0.35268 2.165-0.76307 3.2398-1.2509l-0.0675 0.4733 0.53996 0.37188 0.94494-0.64233-0.47247-0.54091-0.64121 0.37188-0.20249-0.067613c0.04651-0.02129 0.08828-0.045973 0.13499-0.067613l0.944-2.4341-2.058-0.8114zm-9.2469 3.6512 0.7762 0.54091h0.64121v-0.64233l-0.776-0.3381-0.641 0.4394zm17.92-0.4395-1.384 0.338-0.877 0.5747v0.50711l-1.3837 0.87898 0.26998 1.3185 0.80995-0.57472 0.50622 0.57472 0.57371 0.33807 0.37122-0.98041-0.20249-0.57472 0.20249-0.40569 0.80995-0.74375h0.37122l-0.37122 0.81137v0.74375c0.33384-0.09103 0.6708-0.12648 1.0124-0.16904l-0.94494 0.67614-0.0675 0.40568-1.0799 0.91279-1.1137-0.27046v-0.64234l-0.50622 0.33807 0.23624 0.57472h-0.80995l-0.43872 0.74376-0.53996 0.60853-0.97868 0.20284 0.57371 0.57472 0.13499 0.57472h-0.7087l-0.94494 0.50711v1.4875h0.43872l0.40497 0.43949 0.91119-0.43949 0.33748-0.91279 0.67496-0.40568 0.13499-0.33807 1.0799-0.27046 0.60746 0.67614 0.64121 0.33807-0.37123 0.74376 0.57372-0.16904 0.30373-0.74376-0.74245-0.84518h0.30373l0.74245 0.60853 0.13499 0.81137 0.64121 0.74376 0.16874-1.0818 0.33748-0.16904c0.35922 0.37357 0.64238 0.83043 0.94494 1.2509l1.1137 0.06762 0.64121 0.40569-0.30373 0.43949-0.64121 0.57472h-0.94494l-1.2487-0.40568-0.64121 0.06762-0.47247 0.54092-1.3499-1.3523-0.94494-0.27046-1.3837 0.16904-1.2149 0.33807c-0.69306 0.7871-1.4026 1.5829-2.0586 2.4003l-0.7762 1.8932 0.37123 0.40569-0.67496 0.98041 0.74245 1.7242c0.6178 0.70009 1.2392 1.3955 1.8561 2.096l0.91119-0.77756 0.37123 0.4733 0.97869-0.64234 0.33748 0.37188h0.97868l0.57371 0.64234-0.33748 1.1494 0.67496 0.77756-0.03375 1.3523 0.50622 0.98041-0.37122 0.84518c-0.03619 0.60617-0.0675 1.1855-0.0675 1.7918 0.29776 0.82134 0.59628 1.6407 0.87744 2.4679l0.20249 1.3185v0.67614h0.53996l0.7762-0.50711h0.94494l1.4174-1.5889-0.16874-0.54092 0.94494-0.84518-0.7087-0.77756 0.84369-0.67614 0.80995-0.50711 0.37122-0.40568-0.23623-0.91279c0-0.76848 0.000002-1.5303 0-2.2989l0.64121-1.4199 0.80994-0.87898 0.87744-2.1637v-0.57472c-0.43664 0.0551-0.85517 0.10478-1.2824 0.13523l0.87744-0.87899 1.2149-0.81137 0.64121-0.74376v-0.81137c-0.146-0.274-0.293-0.57-0.439-0.844l-0.57371 0.67614-0.43872-0.5071-0.64121-0.50711v-1.048l0.74245 0.84518 0.8437-0.10142c0.38062 0.34614 0.74609 0.65392 1.0799 1.048l0.53998-0.60854c0-0.65513-0.73657-3.8893-2.3286-6.6262-1.592-2.736-4.3872-5.2401-4.3872-5.2401l-0.20249 0.37188-0.74245 0.81137-0.94494-0.98041h0.94494l0.438-0.4738-1.755-0.3381-0.911-0.338zm-20.283 0.4394-0.337 0.879s-0.59084 0.097717-0.74245 0.13523c-1.9362 1.7873-5.8407 5.6642-6.7496 12.948 0.035987 0.16888 0.64121 1.1494 0.64121 1.1494l1.4849 0.87899 1.4849 0.40568 0.64121 0.77756 0.97869 0.74376 0.57371-0.10142 0.40497 0.20284v0.13523l-0.53996 1.5213-0.43872 0.64234 0.13499 0.30426-0.33748 1.2171 1.2487 2.2989 1.2824 1.1156 0.57371 0.81137-0.0675 1.6904 0.40497 0.9466-0.40497 1.8256s-0.05404-0.01501 0 0.16904c0.05452 0.18413 2.2559 1.4228 2.3961 1.3185 0.13968-0.1063 0.26998-0.20284 0.26998-0.20284l-0.13499-0.40568 0.57371-0.54091 0.20249-0.57472 0.91119-0.30426 0.7087-1.758-0.20249-0.4733 0.47247-0.74376 1.0799-0.23665 0.53996-1.2847-0.13499-1.5889 0.8437-1.1832 0.13499-1.2171c-1.1576-0.57505-2.2933-1.1659-3.4423-1.758l-0.57371-1.1156-1.0462-0.23665-0.57371-1.5213-1.3837 0.16904-1.2149-0.87898-1.2824 1.1156v0.16904c-0.385-0.11-0.84-0.127-1.1817-0.337l-0.26998-0.81137v-0.87898l-0.87744 0.10142c0.070612-0.55989 0.16513-1.1306 0.23623-1.6904h-0.50622l-0.50622 0.64234-0.47247 0.23665-0.7087-0.40568-0.067496-0.87898 0.13499-0.9466 1.0462-0.81137h0.84369l0.16874-0.4733 1.0462 0.23665 0.7762 0.98041 0.13499-1.6227 1.3499-1.1156 0.47247-1.1832 1.0124-0.40568 0.53996-0.81137 1.2824-0.23665 0.64121-0.9466h-1.9236l1.2149-0.57472h0.84369l1.0799-0.37188 0.20249 1.048 0.47247-0.74376-0.53997-0.37188 0.13499-0.43949-0.43872-0.40569-0.47247-0.13523 0.13499-0.50711-0.37123-0.70995-0.8437 0.33807 0.13499-0.64233-0.97869-0.57472-0.7762 1.3523 0.0675 0.4733-0.7762 0.33807-0.47247 1.048-0.23623-0.98041-1.3162-0.54091-0.23623-0.74376 1.7886-1.0142 0.7762-0.74376 0.0675-0.87898-0.43872-0.23665-0.57371-0.067613zm14.478 1.6227v0.54091l0.30373 0.33807v0.81137l-0.16874 1.0818 0.87744-0.16904 0.64121-0.64233-0.57371-0.54092c-0.18605-0.49631-0.3746-0.94387-0.60746-1.4199h-0.47247zm-0.74245 1.0818-0.53996 0.16904 0.13499 0.9804 0.7087-0.37188-0.30373-0.77756zm9.8881 8.8913 0.80995 0.9466 0.97869 2.096 0.60746 0.67614-0.30373 0.70995 0.53996 0.64234c-0.24779 0.01643-0.48776 0.03381-0.74245 0.03381-0.46267-0.97394-0.82884-1.9561-1.1812-2.975l-0.60746-0.67614-0.33748-1.2171 0.23624-0.23665z"/>
   <path opacity=".4" d="m42.058 23.999c0 9.9735-8.0855 18.059-18.058 18.059-9.9733 0-18.058-8.0853-18.058-18.059 0-9.9731 8.085-18.057 18.058-18.057 9.9724 0 18.058 8.0844 18.058 18.057z" stroke="url(#f)" stroke-width="1.9345" fill="none"/>
  </g>
 </g>
</svg>
