<?xml version="1.0" encoding="UTF-8" standalone="no"?>
<!-- Created with Inkscape (http://www.inkscape.org/) -->

<svg
   xmlns:dc="http://purl.org/dc/elements/1.1/"
   xmlns:cc="http://creativecommons.org/ns#"
   xmlns:rdf="http://www.w3.org/1999/02/22-rdf-syntax-ns#"
   xmlns:svg="http://www.w3.org/2000/svg"
   xmlns="http://www.w3.org/2000/svg"
   xmlns:xlink="http://www.w3.org/1999/xlink"
   xmlns:sodipodi="http://sodipodi.sourceforge.net/DTD/sodipodi-0.dtd"
   xmlns:inkscape="http://www.inkscape.org/namespaces/inkscape"
   version="1.1"
   width="64"
   height="64"
   id="svg4161"
   inkscape:version="0.48.4 r9939"
   sodipodi:docname="utilities-terminal.svg">
  <sodipodi:namedview
     pagecolor="#ffffff"
     bordercolor="#666666"
     borderopacity="1"
     objecttolerance="10"
     gridtolerance="10"
     guidetolerance="10"
     inkscape:pageopacity="0"
     inkscape:pageshadow="2"
     inkscape:window-width="1920"
     inkscape:window-height="1025"
     id="namedview45"
     showgrid="false"
     inkscape:zoom="7.375"
     inkscape:cx="2.2671739"
     inkscape:cy="36.779044"
     inkscape:window-x="0"
     inkscape:window-y="30"
     inkscape:window-maximized="1"
     inkscape:current-layer="svg4161" />
  <defs
     id="defs4163">
    <linearGradient
       x1="20"
       y1="26.000008"
       x2="20"
       y2="13.000008"
       id="linearGradient4069"
       xlink:href="#linearGradient3680-6-6-6-3-7-1"
       gradientUnits="userSpaceOnUse"
       gradientTransform="matrix(1.326882,0,0,1.326882,-0.399219,-0.2324859)" />
    <linearGradient
       id="linearGradient3680-6-6-6-3-7-1">
      <stop
         id="stop3682-4-6-1-3-7-7"
         style="stop-color:#dcdcdc;stop-opacity:1"
         offset="0" />
      <stop
         id="stop3684-8-5-8-0-2-6"
         style="stop-color:#ffffff;stop-opacity:1"
         offset="1" />
    </linearGradient>
    <linearGradient
       x1="23.99999"
       y1="4.999989"
       x2="23.99999"
       y2="43"
       id="linearGradient3180"
       xlink:href="#linearGradient3924-2-2-5-8"
       gradientUnits="userSpaceOnUse"
       gradientTransform="matrix(1.4324324,0,0,1.4362832,-2.378381,-2.4707781)" />
    <linearGradient
       id="linearGradient3924-2-2-5-8">
      <stop
         id="stop3926-9-4-9-6"
         style="stop-color:#ffffff;stop-opacity:1"
         offset="0" />
      <stop
         id="stop3928-9-8-6-5"
         style="stop-color:#ffffff;stop-opacity:0.23529412"
         offset="0.06316455" />
      <stop
         id="stop3930-3-5-1-7"
         style="stop-color:#ffffff;stop-opacity:0.15686275"
         offset="0.95056331" />
      <stop
         id="stop3932-8-0-4-8"
         style="stop-color:#ffffff;stop-opacity:0.39215687"
         offset="1" />
    </linearGradient>
    <radialGradient
       cx="7.1183534"
       cy="9.9571075"
       r="12.671875"
       fx="7.1183534"
       fy="9.9571075"
       id="radialGradient3988-3"
       xlink:href="#linearGradient2867-449-88-871-390-598-476-591-434-148-57-177-8-3-3-6-4-8-8-8-5-7"
       gradientUnits="userSpaceOnUse"
       gradientTransform="matrix(0,12.890089,-15.824912,0,190.74237,-113.0978)" />
    <linearGradient
       id="linearGradient2867-449-88-871-390-598-476-591-434-148-57-177-8-3-3-6-4-8-8-8-5-7">
      <stop
         id="stop3750-1-0-7-6-6-1-3-9-3-9"
         style="stop-color:#505050;stop-opacity:1"
         offset="0" />
      <stop
         id="stop3752-3-7-4-0-32-8-923-0-7-0"
         style="stop-color:#2b2b2b;stop-opacity:1"
         offset="0.26238" />
      <stop
         id="stop3754-1-8-5-2-7-6-7-1-9-1"
         style="stop-color:#0a0a0a;stop-opacity:1"
         offset="0.704952" />
      <stop
         id="stop3756-1-6-2-6-6-1-96-6-0-1"
         style="stop-color:#000000;stop-opacity:1"
         offset="1" />
    </linearGradient>
    <radialGradient
       cx="4.9929786"
       cy="43.5"
       r="2.5"
       fx="4.9929786"
       fy="43.5"
       id="radialGradient3337-2-2"
       xlink:href="#linearGradient3688-166-749-4-0-3-8"
       gradientUnits="userSpaceOnUse"
       gradientTransform="matrix(2.003784,0,0,1.4,27.98813,-17.4)" />
    <linearGradient
       id="linearGradient3688-166-749-4-0-3-8">
      <stop
         id="stop2883-4-0-1-8"
         style="stop-color:#181818;stop-opacity:1"
         offset="0" />
      <stop
         id="stop2885-9-2-9-6"
         style="stop-color:#181818;stop-opacity:0"
         offset="1" />
    </linearGradient>
    <radialGradient
       cx="4.9929786"
       cy="43.5"
       r="2.5"
       fx="4.9929786"
       fy="43.5"
       id="radialGradient3339-1-4"
       xlink:href="#linearGradient3688-464-309-9-2-4-2"
       gradientUnits="userSpaceOnUse"
       gradientTransform="matrix(2.003784,0,0,1.4,-20.01187,-104.4)" />
    <linearGradient
       id="linearGradient3688-464-309-9-2-4-2">
      <stop
         id="stop2889-7-9-6-9"
         style="stop-color:#181818;stop-opacity:1"
         offset="0" />
      <stop
         id="stop2891-6-6-1-7"
         style="stop-color:#181818;stop-opacity:0"
         offset="1" />
    </linearGradient>
    <linearGradient
       id="linearGradient3702-501-757-8-4-1-1">
      <stop
         id="stop2895-8-9-9-1"
         style="stop-color:#181818;stop-opacity:0"
         offset="0" />
      <stop
         id="stop2897-7-8-7-7"
         style="stop-color:#181818;stop-opacity:1"
         offset="0.5" />
      <stop
         id="stop2899-4-5-1-5"
         style="stop-color:#181818;stop-opacity:0"
         offset="1" />
    </linearGradient>
    <linearGradient
       x1="25.058096"
       y1="47.027729"
       x2="25.058096"
       y2="39.999443"
       id="linearGradient4159"
       xlink:href="#linearGradient3702-501-757-8-4-1-1"
       gradientUnits="userSpaceOnUse" />
    <radialGradient
       inkscape:collect="always"
       xlink:href="#linearGradient4777"
       id="radialGradient4789"
       cx="32.007732"
       cy="13.460493"
       fx="32.007732"
       fy="13.460493"
       r="20.523518"
       gradientTransform="matrix(0,2.1386567,-2.6446274,0,67.605721,-56.613384)"
       gradientUnits="userSpaceOnUse" />
    <linearGradient
       id="linearGradient4777">
      <stop
         style="stop-color:#f8c700;stop-opacity:1;"
         offset="0"
         id="stop4779" />
      <stop
         id="stop4787"
         offset="0.33070782"
         style="stop-color:#e8ba00;stop-opacity:1;" />
      <stop
         id="stop4785"
         offset="0.50559151"
         style="stop-color:#dcb000;stop-opacity:1;" />
      <stop
         style="stop-color:#e4b600;stop-opacity:1;"
         offset="1"
         id="stop4781" />
    </linearGradient>
    <radialGradient
       r="20.523518"
       fy="13.460493"
       fx="32.007732"
       cy="13.460493"
       cx="32.007732"
       gradientTransform="matrix(0,2.1386567,-2.6446274,0,67.597988,-57.361089)"
       gradientUnits="userSpaceOnUse"
       id="radialGradient3054"
       xlink:href="#linearGradient4777"
       inkscape:collect="always" />
    <radialGradient
       inkscape:collect="always"
       xlink:href="#linearGradient4777"
       id="radialGradient3051"
       gradientUnits="userSpaceOnUse"
       gradientTransform="matrix(0,2.1386567,-2.6446274,0,69.089513,-57.361089)"
       cx="32.007732"
       cy="13.460493"
       fx="32.007732"
       fy="13.460493"
       r="20.523518" />
    <radialGradient
       inkscape:collect="always"
       xlink:href="#linearGradient4777"
       id="radialGradient3055"
       gradientUnits="userSpaceOnUse"
       gradientTransform="matrix(0,2.1386567,-2.6446274,0,66.309852,-57.361089)"
       cx="32.007732"
       cy="13.460493"
       fx="32.007732"
       fy="13.460493"
       r="20.523518" />
    <radialGradient
       inkscape:collect="always"
       xlink:href="#linearGradient4777"
       id="radialGradient3059"
       gradientUnits="userSpaceOnUse"
       gradientTransform="matrix(0,2.1386567,-2.6446274,0,66.309852,-58.581428)"
       cx="32.007732"
       cy="13.460493"
       fx="32.007732"
       fy="13.460493"
       r="20.523518" />
    <radialGradient
       inkscape:collect="always"
       xlink:href="#linearGradient4777"
       id="radialGradient3067"
       gradientUnits="userSpaceOnUse"
       gradientTransform="matrix(0,2.1386567,-2.6446274,0,67.597988,-57.361089)"
       cx="32.007732"
       cy="13.460493"
       fx="32.007732"
       fy="13.460493"
       r="20.523518" />
  </defs>
  <metadata
     id="metadata4166">
    <rdf:RDF>
      <cc:Work
         rdf:about="">
        <dc:format>image/svg+xml</dc:format>
        <dc:type
           rdf:resource="http://purl.org/dc/dcmitype/StillImage" />
        <dc:title></dc:title>
      </cc:Work>
    </rdf:RDF>
  </metadata>
  <g
     id="g3073">
    <g
       id="layer1">
      <g
         style="opacity:0.6"
         id="g3712-8-2-4-4"
         transform="matrix(1.5789502,0,0,0.7142857,-5.894751,27.928572)">
        <rect
           style="fill:url(#radialGradient3337-2-2);fill-opacity:1;stroke:none"
           id="rect2801-5-5-7-9"
           y="40"
           x="38"
           height="7"
           width="5" />
        <rect
           style="fill:url(#radialGradient3339-1-4);fill-opacity:1;stroke:none"
           id="rect3696-3-0-3-7"
           transform="scale(-1,-1)"
           y="-47"
           x="-10"
           height="7"
           width="5" />
        <rect
           style="fill:url(#linearGradient4159);fill-opacity:1;stroke:none"
           id="rect3700-5-6-8-4"
           y="40"
           x="10"
           height="7.0000005"
           width="28" />
      </g>
      <rect
         style="opacity:0.9;color:#000000;fill:url(#radialGradient3988-3);fill-opacity:1;fill-rule:nonzero;stroke:none;stroke-width:0.99999994;marker:none;visibility:visible;display:inline;overflow:visible;enable-background:accumulate"
         id="rect5505-21-3-8-5-2"
         y="4.5"
         x="4.5"
         ry="3"
         rx="3"
         height="55"
         width="55" />
      <rect
         style="opacity:0.3;fill:none;stroke:url(#linearGradient3180);stroke-width:1;stroke-linecap:round;stroke-linejoin:round;stroke-miterlimit:4;stroke-opacity:1;stroke-dasharray:none;stroke-dashoffset:0"
         id="rect6741-5-0-2-3"
         y="5.4287739"
         x="5.4999986"
         ry="2"
         rx="2"
         height="53.142479"
         width="53" />
      <rect
         style="opacity:0.7;color:#000000;fill:none;stroke:#000000;stroke-width:1;stroke-linecap:round;stroke-linejoin:round;stroke-miterlimit:4;stroke-opacity:1;stroke-dasharray:none;stroke-dashoffset:0;marker:none;visibility:visible;display:inline;overflow:visible;enable-background:accumulate"
         id="rect5505-21-3-8-9-1-1"
         y="4.5000019"
         x="4.4999986"
         ry="3"
         rx="3"
         height="55"
         width="55" />
    </g>
    <path
       inkscape:connector-curvature="0"
       id="path3065"
       d="M 16,8.25 C 8.6857744,6.2171276 11.06471,10.929029 10.403164,15.591597 10.061004,22.238865 9.5692277,28.458456 9.90625,34.96875 8.8824288,41.251288 10.48288,47.858724 9.5625,54 c 2.727168,4.030327 8.764052,1.48438 13.09375,2.03125 4.37352,0.497322 3.11859,-3.724867 3.125,-6.3125 0.264733,-4.299484 0.121377,-8.356374 0.1875,-12.71875 1.471023,1.315988 3.943136,0.218174 4.0625,-1.75 2.827554,0.13238 1.497668,2.752022 1.90625,5.125 0.298546,4.420066 7.204885,1.139352 4.59375,-1.75 -0.614985,-2.168093 0.41612,-4.240506 1.96875,-2.6875 -0.423567,6.04535 0.217142,12.297899 0.5625,18.3125 1.576055,3.836372 7.530026,1.299952 11.0625,1.90625 3.823954,1.15708 6.393976,-4.827272 5.66186,-3.482956 C 55.2972,48.191181 59.656633,46.882871 54.15625,47.75 54.026554,39.874862 54.497443,31.756656 54.28125,24.21875 54.731752,22.315738 53.470831,19.192688 54.59375,17 54.127437,14.534797 54.339305,11.471039 53.625,8.4375 49.18631,7.5980386 44.360761,7.9636029 39.9375,8 c -2.425235,3.273396 -5.394912,6.98211 -8.53125,9.5625 -2.675783,-2.035206 -1.624089,-6.033249 -2.84375,-9 C 28.474109,13.151631 26.064809,10.393628 25.6875,8 22.586943,7.4577597 18.599347,9.1002555 16.21875,6.78125 L 16.071439,7.7703402 16,8.25 z"
       style="font-size:48px;font-style:normal;font-variant:normal;font-weight:normal;font-stretch:normal;line-height:125%;letter-spacing:0px;word-spacing:0px;fill:#000000;fill-opacity:1;stroke:none;font-family:Boston Traffic;-inkscape-font-specification:Boston Traffic;opacity:0.05" />
    <path
       id="path3036"
       d="m 41.679767,9.7522952 -0.59375,0.2499998 c -0.05127,-0.0016 -0.104976,7.13e-4 -0.15625,0 l -0.09375,0.125 -0.125,0.0625 -0.03125,0.1875 -0.03125,0.0625 -0.46875,0.21875 -0.28125,0.6875 -0.5625,0.90625 -1.28125,1.6875 -0.71875,0.875 -1,0.75 -0.90625,0.5625 -0.78125,1.09375 -0.375,1.09375 -1.3125,0.5625 -0.53125,0.96875 -2,0.6875 -0.21875,-0.6875 c -0.450696,-0.434364 -0.675043,-0.842202 -0.65625,-1.25 -0.348974,-0.297326 -0.627813,-0.59392 -0.84375,-0.875 l -0.375,0.03125 -0.3125,-0.375 0.0625,-0.15625 -0.25,-0.25 0.25,-0.5 0.03125,0.03125 -0.03125,-0.15625 -0.03125,0.09375 -0.25,0 -0.21875,-0.21875 0.15625,-0.34375 c -0.107637,-0.125814 -0.164034,-0.258637 -0.1875,-0.375 l -0.4375,-0.46875 -0.875,-1.9375 -0.46875,-0.21875 0,-0.46875 c -0.807486,-0.895325 -1.305916,-1.697038 -1.53125,-2.40625 l -1.6875,0 -0.75,-0.03125 c -0.788704,2.4e-5 -1.418013,0.03172 -1.90625,0.09375 -0.938929,-0.1329488 -1.829998,-0.1604348 -2.65625,-0.1249998 l -0.65625,0.2187498 -0.03125,0.09375 -0.25,0 -0.03125,0 -3.75,-0.09375 0.375,1.75 0.65625,0.15625 0.25,-0.46875 0.59375,0.40625 -0.0625,0.28125 0.53125,0.125 1.90625,1 -0.3125,-0.375 0.21875,-0.5 0.625,0.40625 -0.125,0.4375 -0.40625,0.03125 0.0625,0.03125 0.65625,0.8125 0.21875,0.78125 0.46875,0.25 -0.03125,0.34375 c 0.882587,0.80672 1.393489,1.509132 1.5625,2.15625 0.244115,0.212772 0.41241,0.425333 0.46875,0.59375 l 0.4375,0.5625 c 0.638464,0.691475 0.99985,1.311873 1.09375,1.84375 l 0.71875,0.46875 -0.03125,0.34375 c 0.488233,0.531904 0.793571,0.993823 0.90625,1.375 0.920138,0.815577 1.43104,1.617287 1.5625,2.40625 l 0.71875,0.34375 0.84375,1.8125 0.21875,0.21875 c 0.172667,0.456751 0.375,1 0.375,1 0,0 0.16099,1.09162 0.3125,1.1875 0.151503,0.09588 0.21875,1.1875 0.21875,1.1875 l -0.375,1.34375 0.15625,0.84375 c 0,0 0.1752,0.571124 0.1875,0.75 0.01592,0.231472 -0.625,0.8125 -0.625,0.8125 0,0 0.09195,0.70687 0.75,0.6875 0.462293,-0.01361 0.40625,-1.09375 0.40625,-1.09375 l 0.0625,-1.28125 -0.09375,-1.78125 -0.0625,-1.4375 0.03125,0.09375 c 0.187772,0.115243 0.256294,0.237375 0.21875,0.34375 l 0.46875,0.21875 -0.03125,0.46875 0.5,0.34375 0.6875,0.53125 c 0.05632,0.611677 1.218165,1.414028 1.59375,1.875 0.451042,-0.01671 2.046682,-1.581252 3.65625,-3.21875 l 0,0.1875 -1.09375,3.4375 -0.125,2.15625 -0.0625,1.8125 0.0625,1.28125 c 0,0 -0.05604,1.048892 0.40625,1.0625 0.658046,0.01937 0.71875,-0.65625 0.71875,-0.65625 0,0 -0.609666,-0.581028 -0.59375,-0.8125 0.0123,-0.178876 0.15625,-0.78125 0.15625,-0.78125 l 0.15625,-0.84375 -0.375,-1.34375 c 0,0 0.06725,-1.060371 0.21875,-1.15625 0.15151,-0.09588 0.3125,-1.21875 0.3125,-1.21875 0,0 1.120259,-2.779121 0.96875,-2.875 -0.151509,-0.09588 0,-0.875 0,-0.875 l 0,-0.125 c 0.314625,-0.322311 0.580299,-0.606116 0.875,-0.90625 0.0051,-0.0052 0.02612,0.0052 0.03125,0 0,0 0.32577,0.264291 0.375,0.5 0.05005,0.239615 0.25,0.8125 0.25,0.8125 l 0.0625,0.9375 -0.125,0.65625 c 0,0 0.10634,0.428497 0.125,0.5625 0.02419,0.173405 0,0.59375 0,0.59375 0,0 -0.0792,0.54576 0.34375,0.53125 0.70092,-0.02405 0.0625,-1.0625 0.0625,-1.0625 l -0.09375,-1 0.09375,-0.9375 -0.28125,-1.5 -0.03125,-0.90625 c 0.767002,-0.763461 1.351899,-1.317142 1.53125,-1.34375 l 0.53125,-0.8125 c -0.09391,-0.248214 -0.10022,-0.483605 0.03125,-0.6875 l 0.28125,-0.4375 0.5,-0.5625 0.03125,-0.46875 0,0.78125 c -0.03758,0.5319 0.006,0.99382 0.15625,1.375 -0.192348,0.474927 -0.20432,0.916685 -0.03125,1.34375 l 0.21875,-0.28125 0.15625,0.03125 0.21875,-0.3125 0.53125,0.125 -0.15625,0.40625 0.4375,0.09375 -0.15625,0.4375 0.15625,0.03125 -0.25,0.65625 -0.46875,0 -0.125,-0.40625 0.03125,-0.03125 -0.21875,0 -0.0625,-0.25 -0.1875,0 c -0.347407,0.825662 -0.380288,1.591631 -0.0625,2.25 l -0.25,0.21875 c -0.0023,0.180622 0.05582,1.156392 0.46875,1.75 -0.332783,0.593607 -0.119013,1.407602 0.03125,2.59375 -0.459906,0.982759 -0.3664,2.120676 -0.75,3.46875 0.42996,1.348075 -9.73e-4,3.300911 0.4375,4.3125 0.0013,0.06252 -3.4e-5,0.124907 0,0.1875 l 0.34375,0.09375 -0.25,0.65625 -0.125,0 c -0.05481,1.107846 -0.16556,2.214011 0.125,3.25 0.02175,0.04456 0.04442,0.0803 0.0625,0.125 l -0.0625,-0.21875 0.15625,-0.21875 0.28125,0.0625 -0.125,0.375 -0.25,0 c 0.466371,1.15276 -0.245454,2.360386 0.0625,3.53125 -0.290273,1.080676 0.130282,1.983564 0.1875,2.65625 0.05722,0.672687 0.09052,1.11348 0.15625,1.21875 1.848979,0.115611 4.985199,0.110829 7.59375,0.03125 l -0.03125,-0.4375 0.46875,-0.28125 0.28125,0.6875 c 0.411139,-0.01603 0.734282,-0.01008 1.09375,-0.03125 l 0,-0.3125 0.6875,0.0625 0.0625,0.1875 c 0.276784,-0.02262 0.665014,-0.03578 0.875,-0.0625 l 0.0625,-1.25 0.03125,-0.46875 c -0.08287,-0.101685 -0.07856,-0.211176 0,-0.3125 l -0.0625,0.03125 -0.21875,-0.21875 0.09375,-0.34375 0.21875,0.125 -0.03125,-0.53125 -0.03125,0.03125 -0.25,-0.15625 -0.03125,-0.3125 0.3125,-0.15625 -0.03125,-0.3125 -0.09375,-0.09375 0.09375,-0.21875 -0.03125,-1.0625 -0.125,0.09375 -0.34375,-0.21875 0,-0.09375 -0.1875,0.1875 -0.125,-0.09375 -0.25,0.21875 -0.34375,-0.21875 0,-0.0625 -0.1875,0.15625 -0.21875,-0.125 -0.1875,0.15625 -0.34375,-0.21875 0,-0.15625 -0.125,-0.0625 -0.03125,-0.3125 0.125,-0.0625 0.03125,-0.0625 -0.28125,-0.21875 0.15625,-0.53125 0.375,0.1875 0.0625,-0.125 -0.03125,-0.03125 0,-0.3125 0.28125,-0.15625 0.15625,0.375 0.09375,0.03125 0.0625,-0.15625 0.3125,0.15625 0,-0.25 0.28125,-0.15625 0.1875,0.40625 -0.15625,0.15625 0,0.21875 0.09375,0.25 0.375,-0.1875 0.15625,0.40625 0.15625,-0.0625 -0.0625,-1.125 -0.125,-0.0625 -0.03125,-0.34375 0.15625,-0.09375 0.1875,-5 -0.15625,-5.1875 0.1875,-5.1875 c 0,0 -0.08146,-0.228503 0.03125,-0.34375 l 0,-0.34375 -0.21875,-0.90625 c 0.206531,-0.558483 0.324939,-1.029265 0.34375,-1.375 l -0.46875,-0.46875 0.53125,-0.65625 -0.21875,-0.6875 c 0.01875,-0.38118 -0.05608,-0.675755 -0.1875,-0.90625 0.206531,-0.487558 0.23148,-0.904261 0.0625,-1.25 l 0.25,-0.46875 -0.21875,-0.21875 0.09375,-1.25 c -0.15026,-0.434366 -0.237561,-0.828237 -0.21875,-1.15625 l 0.03125,-0.5625 0.0625,-0.90625 0.03125,-0.4375 -0.21875,-0.71875 0.28125,-0.4375 c -0.07515,-0.195011 -0.06268,-0.385186 0.03125,-0.5625 -0.09392,-0.186145 -0.08146,-0.32224 0.03125,-0.4375 -0.187817,-0.452091 -0.194119,-0.891178 0.03125,-1.28125 -0.169039,-0.203873 -0.225089,-0.394049 -0.1875,-0.5625 l -0.21875,-0.21875 0,-0.34375 0.09375,-1.375 0,-0.34375 0.03125,-0.3125 c 0.112635,-0.895328 0.06275,-1.660686 -0.125,-2.28125 l -0.46875,-0.1249998 c -2.441236,0.1241318 -8.084904,0.06074 -9.8125,-0.1875 z m -24.53125,0.3437498 0.375,0.25 0.0625,-0.125 0.59375,0.375 -0.09375,0.46875 -0.40625,0.03125 -0.0625,-0.0625 -0.03125,0.21875 -0.25,0.03125 -0.0625,0.25 -0.40625,0.03125 -0.3125,-0.375 0.0625,-0.125 -0.25,-0.28125 0.21875,-0.5 0.375,0.21875 0.1875,-0.40625 z m -3.46875,0.21875 0.25,0.15625 -0.0625,0.1875 -0.15625,0 -0.125,-0.15625 0.09375,-0.1875 z m 2.15625,1.09375 0.375,0.25 -0.0625,0.28125 -0.25,0.03125 -0.21875,-0.25 0.15625,-0.3125 z m 4.5,1.75 0.3125,0.21875 -0.0625,0.25 -0.21875,0 -0.1875,-0.1875 0.15625,-0.28125 z m 23.59375,0.1875 0.125,0.25 -0.15625,0.125 -0.125,-0.0625 -0.03125,-0.21875 0.1875,-0.09375 z m 4.28125,0.5 0.1875,0.40625 -0.25,0.21875 -0.21875,-0.15625 -0.03125,-0.3125 0.3125,-0.15625 z m -1.8125,0.46875 0.15625,0.4375 -0.21875,0.1875 -0.21875,-0.125 -0.03125,-0.3125 0.3125,-0.1875 z m -3.09375,0.15625 0.25,0.65625 -0.34375,0.3125 -0.34375,-0.21875 -0.0625,-0.5 0.5,-0.25 z m -30.84375,0.25 -0.4375,6.65625 0.21875,0.59375 -0.0625,0.78125 c -0.338013,0.842173 -0.456421,1.562315 -0.34375,2.15625 l -0.09375,1.59375 0.21875,0.5625 0.1875,1.03125 -0.0625,0.90625 -0.25,0.34375 -0.0625,1.25 c -0.187209,0.707751 -0.0033,2.965362 0.53125,3.4375 -0.546546,0.546546 -1.276679,6.655597 -0.46875,7.125 -0.534376,0.613221 0.326623,6.766922 -0.03125,7.09375 -0.261997,0.710344 -0.05619,3.308737 -0.09375,3.40625 0.300455,0.700325 0.331563,1.298339 0.125,1.8125 0.24412,0.203894 0.412414,0.385203 0.46875,0.5625 l 5.1875,0.125 0.5,-0.09375 0.71875,0.125 0.6875,-0.125 1.875,0.03125 c 0.92014,-0.07092 1.730216,-0.102609 2.40625,-0.09375 l 0.25,-0.3125 0.28125,-0.46875 0,-0.34375 -0.4375,-0.78125 c 0,0 -0.309006,-1.909587 0.03125,-2.78125 0.484094,-2.261906 0.330896,-1.542761 0,-2.75 -0.282937,-0.871663 0.410086,-1.782459 0.03125,-2.75 0.08068,-0.297085 0.111552,-0.563762 0.125,-0.8125 l -0.125,-0.03125 0.125,-0.34375 c -4.95e-4,-0.01103 5.91e-4,-0.02033 0,-0.03125 -0.05356,-0.989246 -0.484092,-1.489195 -0.125,-1.53125 0.484094,-0.584026 -0.08734,-1.960233 0.03125,-2.78125 0.182778,-1.265418 0.04793,-1.740977 -0.0625,-2 l -0.09375,-0.03125 0.03125,-0.09375 c -0.07009,-0.158707 -0.08036,-0.2693 0.125,-0.625 0.21457,-0.800787 0.229754,-1.892547 0,-2.75 l 0.03125,-2.78125 c 0,0 -0.71188,-1.029265 -1.125,-1.375 l -0.21875,-0.5625 -0.46875,-0.46875 -0.3125,-0.84375 c -0.48827,-0.452108 -0.306342,-0.539018 -0.25,-1 l -0.625,-0.71875 c -0.150234,-0.709181 0.175879,-0.923328 -0.40625,-1.4375 l -0.6875,-1.40625 c -0.732366,-0.744636 -1.993268,-2.629001 -2.3125,-3.1875 l -1.34375,-2.84375 -0.9375,-0.09375 -0.5625,-0.96875 -2.1875,-0.375 z m 33.90625,0.28125 0.15625,0.375 0.34375,-0.21875 0.1875,0.4375 0.125,-0.0625 0.28125,0.65625 -0.34375,0.3125 -0.375,-0.21875 0,-0.03125 -0.15625,0.125 -0.21875,-0.15625 -0.1875,0.1875 -0.34375,-0.21875 -0.0625,-0.5 0.125,-0.0625 -0.03125,-0.375 0.5,-0.25 z m -1.28125,0.46875 0.15625,0.4375 -0.21875,0.1875 -0.21875,-0.125 -0.03125,-0.3125 0.3125,-0.1875 z m -19.90625,1.03125 0.25,0.15625 -0.0625,0.1875 -0.15625,0 -0.15625,-0.15625 0.125,-0.1875 z m 19.9375,0.375 0.25,0.6875 -0.34375,0.3125 -0.34375,-0.21875 -0.0625,-0.5 0.5,-0.28125 z m -1.1875,0.6875 0.125,0.28125 -0.15625,0.125 -0.125,-0.09375 -0.03125,-0.1875 0.1875,-0.125 z m -16.59375,0.03125 0.375,0.25 -0.0625,0.28125 -0.28125,0.03125 -0.1875,-0.25 0.15625,-0.3125 z m -2.03125,0.1875 0.59375,0.40625 -0.125,0.4375 -0.40625,0.03125 -0.3125,-0.375 0.25,-0.5 z m 22.90625,0.3125 0.1875,0.40625 -0.25,0.21875 -0.21875,-0.15625 -0.03125,-0.3125 0.3125,-0.15625 z m -1.8125,0.46875 0.15625,0.4375 -0.21875,0.1875 -0.21875,-0.125 -0.03125,-0.3125 0.3125,-0.1875 z m -3.09375,0.125 0.25,0.6875 -0.34375,0.3125 -0.34375,-0.21875 -0.0625,-0.5 0.5,-0.28125 z m -15.125,0.03125 0.59375,0.40625 -0.09375,0.4375 -0.4375,0.03125 -0.3125,-0.375 0.25,-0.5 z m 18.1875,0.5 0.15625,0.40625 0.34375,-0.21875 0.1875,0.40625 0.125,-0.0625 0.28125,0.6875 -0.34375,0.3125 -0.375,-0.25 0,-0.03125 -0.15625,0.125 -0.21875,-0.125 -0.1875,0.1875 -0.34375,-0.21875 -0.0625,-0.5 0.125,-0.0625 -0.03125,-0.375 0.5,-0.28125 z m 1.34375,0.28125 0.15625,0.34375 -0.1875,0.1875 -0.1875,-0.125 -0.03125,-0.25 0.25,-0.15625 z m -2.625,0.21875 0.15625,0.40625 -0.21875,0.21875 -0.21875,-0.15625 -0.03125,-0.3125 0.3125,-0.15625 z m -28.09375,1.0625 0.40625,0.21875 -0.03125,0.28125 -0.28125,0.0625 -0.21875,-0.21875 0.125,-0.34375 z m 28.125,0.34375 0.25,0.65625 -0.34375,0.3125 -0.34375,-0.21875 -0.0625,-0.46875 0.5,-0.28125 z m -29.15625,1.25 0.40625,0.1875 -0.03125,0.3125 -0.25,0.03125 -0.25,-0.1875 0.125,-0.34375 z m 0.9375,0.28125 0.40625,0.21875 0.0625,-0.15625 0.625,0.3125 -0.0625,0.46875 -0.40625,0.09375 -0.03125,-0.03125 -0.03125,0.1875 -0.25,0.0625 -0.03125,0.25 -0.40625,0.0625 -0.34375,-0.3125 0.0625,-0.125 -0.3125,-0.28125 0.1875,-0.5 0.375,0.1875 0.15625,-0.4375 z m -3.40625,0.625 0.25,0.125 -0.03125,0.1875 -0.15625,0.03125 -0.15625,-0.125 0.09375,-0.21875 z m 34.21875,0.46875 0.15625,0.34375 -0.1875,0.15625 -0.1875,-0.09375 -0.03125,-0.28125 0.25,-0.125 z m -27.875,0.1875 0.40625,0.1875 -0.03125,0.3125 -0.28125,0.0625 -0.21875,-0.21875 0.125,-0.34375 z m 20.9375,0.09375 0.25,0.03125 -0.125,0.28125 -0.1875,0 -0.03125,-0.15625 0.09375,-0.15625 z m -25.03125,0.09375 0.4375,0.1875 -0.0625,0.3125 -0.25,0.03125 -0.21875,-0.21875 0.09375,-0.3125 z m 23.5,0.21875 0.53125,0.125 -0.25,0.6875 -0.46875,0 -0.09375,-0.40625 0.28125,-0.40625 z m -7.8125,0.03125 0.21875,0.0625 -0.125,0.28125 -0.1875,-0.03125 -0.03125,-0.15625 0.125,-0.15625 z m -17.65625,0.1875 0.625,0.3125 -0.0625,0.46875 -0.40625,0.0625 -0.34375,-0.34375 0.1875,-0.5 z m 16.09375,0.15625 0.53125,0.125 -0.25,0.65625 -0.46875,0 -0.09375,-0.40625 0.28125,-0.375 z m -13.125,0.40625 0.625,0.3125 -0.03125,0.46875 -0.4375,0.09375 -0.34375,-0.34375 0.1875,-0.53125 z m 3.6875,0.1875 0.34375,0.1875 -0.03125,0.25 -0.21875,0.03125 -0.1875,-0.1875 0.09375,-0.28125 z m -1.625,0.21875 0.40625,0.1875 -0.03125,0.28125 -0.25,0.0625 -0.21875,-0.21875 0.09375,-0.3125 z m 0.9375,0.28125 0.40625,0.21875 0.0625,-0.15625 0.625,0.3125 -0.03125,0.46875 -0.4375,0.0625 -0.03125,-0.03125 -0.03125,0.21875 -0.21875,0.03125 -0.03125,0.28125 -0.40625,0.0625 -0.375,-0.34375 0.03125,-0.125 -0.25,-0.25 0.15625,-0.53125 0.375,0.1875 0.15625,-0.40625 z m 22.09375,0.5625 0.34375,0.09375 -0.15625,0.40625 -0.3125,0 -0.0625,-0.25 0.1875,-0.25 z m -25.5,0.0625 0.25,0.125 0,0.1875 -0.1875,0.03125 -0.15625,-0.125 0.09375,-0.21875 z m 14.375,0.25 0.34375,0.09375 -0.15625,0.4375 -0.3125,-0.03125 -0.0625,-0.25 0.1875,-0.25 z m 1.75,0.03125 0.34375,0.09375 -0.15625,0.4375 -0.3125,0 -0.0625,-0.28125 0.1875,-0.25 z m -0.6875,0.4375 0.53125,0.125 -0.15625,0.375 0.4375,0.09375 -0.15625,0.4375 0.15625,0.03125 -0.25,0.6875 -0.46875,0 -0.125,-0.40625 0.0625,-0.0625 -0.25,0 -0.0625,-0.21875 -0.25,0 -0.125,-0.40625 0.3125,-0.40625 0.125,0.03125 0.21875,-0.28125 z m 11.71875,0.0625 0.34375,0.09375 -0.15625,0.4375 -0.3125,0 -0.0625,-0.28125 0.1875,-0.25 z m -24.875,0.03125 0.40625,0.21875 -0.03125,0.28125 -0.28125,0.0625 -0.21875,-0.21875 0.125,-0.34375 z m 15.5,0.34375 0.34375,0.0625 -0.15625,0.4375 -0.28125,0 -0.09375,-0.25 0.1875,-0.25 z m -17.5,0.09375 0.625,0.3125 -0.03125,0.46875 -0.4375,0.09375 -0.34375,-0.34375 0.1875,-0.53125 z m 12.96875,0.03125 0.53125,0.125 -0.25,0.6875 -0.46875,0 -0.09375,-0.40625 0.28125,-0.40625 z m -10,0.5625 0.65625,0.3125 -0.0625,0.46875 -0.40625,0.0625 -0.375,-0.3125 0.1875,-0.53125 z m 31.4375,0.84375 0.40625,0.25 -0.0625,0.28125 -0.28125,0.03125 -0.21875,-0.25 0.15625,-0.3125 z m -1.1875,1.4375 0.375,0.25 -0.0625,0.28125 -0.25,0.03125 -0.21875,-0.25 0.15625,-0.3125 z m 0.875,0.40625 0.40625,0.25 0.0625,-0.15625 0.59375,0.40625 -0.09375,0.4375 -0.4375,0.03125 -0.03125,-0.03125 -0.0625,0.21875 -0.21875,0.03125 -0.0625,0.21875 -0.40625,0.03125 -0.34375,-0.375 0.0625,-0.125 -0.25,-0.28125 0.25,-0.5 0.34375,0.25 0.1875,-0.40625 z m -3.4375,0.1875 0.25,0.1875 -0.0625,0.1875 -0.15625,0 -0.125,-0.15625 0.09375,-0.21875 z m -17.25,0.3125 0.28125,0.0625 -0.125,0.375 -0.25,-0.03125 -0.0625,-0.1875 0.15625,-0.21875 z m 19.40625,0.78125 0.375,0.25 -0.0625,0.3125 -0.28125,0 -0.1875,-0.21875 0.15625,-0.34375 z m -2.03125,0.21875 0.59375,0.375 -0.09375,0.46875 -0.4375,0.03125 -0.3125,-0.375 0.25,-0.5 z m 2.875,0.9375 0.59375,0.375 -0.09375,0.46875 -0.40625,0 -0.34375,-0.34375 0.25,-0.5 z m -28.5,5.5625 0.46875,0 0.125,0.375 -0.03125,0.0625 0.21875,0 0.0625,0.21875 0.28125,0 0.125,0.40625 -0.28125,0.375 -0.125,-0.03125 -0.21875,0.3125 -0.5625,-0.09375 0.15625,-0.40625 -0.4375,-0.0625 0.15625,-0.4375 -0.15625,-0.03125 0.21875,-0.6875 z m -0.4375,0.15625 0.09375,0.21875 -0.15625,0.21875 -0.28125,-0.0625 0.125,-0.34375 0.21875,-0.03125 z m 20.875,0.09375 0.21875,0.0625 -0.09375,0.28125 -0.21875,0 -0.03125,-0.1875 0.125,-0.15625 z m -1.5625,0.34375 0.53125,0.125 -0.25,0.65625 -0.46875,0 -0.09375,-0.40625 0.28125,-0.375 z m -20.53125,0.25 0.09375,0.28125 -0.1875,0.25 -0.34375,-0.0625 0.15625,-0.4375 0.28125,-0.03125 z m 3.46875,0.78125 0.0625,0.28125 -0.15625,0.25 -0.34375,-0.09375 0.125,-0.40625 0.3125,-0.03125 z m -2.0625,0.03125 0.3125,0 0.0625,0.25 -0.1875,0.25 -0.34375,-0.0625 0.15625,-0.4375 z m 19.96875,0.90625 0.34375,0.09375 -0.15625,0.4375 -0.3125,0 -0.0625,-0.28125 0.1875,-0.25 z m 1.75,0.0625 0.34375,0.0625 -0.15625,0.4375 -0.3125,0 -0.0625,-0.25 0.1875,-0.25 z m -0.6875,0.40625 0.53125,0.125 -0.125,0.375 0.40625,0.09375 -0.15625,0.4375 0.15625,0.0625 -0.25,0.65625 -0.46875,0 -0.125,-0.40625 0.0625,-0.0625 -0.25,0 -0.0625,-0.21875 -0.25,0 -0.125,-0.40625 0.3125,-0.40625 0.125,0.03125 0.21875,-0.28125 z m -23.53125,0.1875 0.46875,0 0.125,0.40625 -0.03125,0.0625 0.25,-0.03125 0.0625,0.25 0.25,0 0.125,0.375 -0.28125,0.40625 -0.125,-0.03125 -0.21875,0.3125 -0.53125,-0.125 0.125,-0.375 -0.4375,-0.09375 0.15625,-0.4375 -0.15625,-0.03125 0.21875,-0.6875 z m 25.875,0.25 0.34375,0.0625 -0.15625,0.4375 -0.28125,0 -0.09375,-0.25 0.1875,-0.25 z m -23.40625,0.0625 0.46875,0 0.125,0.375 -0.28125,0.40625 -0.53125,-0.09375 0.21875,-0.6875 z m -4.40625,0.5625 0.3125,0 0.0625,0.25 -0.1875,0.25 -0.34375,-0.0625 0.15625,-0.4375 z m 5.625,0.0625 0.1875,0 0.0625,0.15625 -0.125,0.1875 -0.21875,-0.0625 0.09375,-0.28125 z m -9.53125,0.09375 0.125,0.25 -0.15625,0.125 -0.15625,-0.0625 0,-0.21875 0.1875,-0.09375 z m 4.28125,0.5 0.15625,0.40625 -0.21875,0.21875 -0.21875,-0.15625 -0.03125,-0.3125 0.3125,-0.15625 z m 3.0625,0.125 0.3125,0 0.09375,0.25 -0.1875,0.25 -0.34375,-0.0625 0.125,-0.4375 z m -1.75,0.03125 0.3125,0 0.0625,0.25 -0.15625,0.25 -0.34375,-0.0625 0.125,-0.4375 z m -3.125,0.3125 0.15625,0.4375 -0.21875,0.1875 -0.21875,-0.125 -0.03125,-0.3125 0.3125,-0.1875 z m -3.09375,0.15625 0.25,0.65625 -0.34375,0.3125 -0.375,-0.21875 -0.03125,-0.5 0.5,-0.25 z m 3.03125,0.53125 0.15625,0.375 0.375,-0.21875 0.1875,0.4375 0.125,-0.0625 0.28125,0.65625 -0.375,0.3125 -0.34375,-0.21875 0,-0.0625 -0.1875,0.15625 -0.1875,-0.125 -0.1875,0.15625 -0.375,-0.21875 -0.03125,-0.5 0.125,-0.0625 -0.03125,-0.375 0.46875,-0.25 z m 34.75,0.125 0.40625,0.21875 -0.03125,0.28125 -0.25,0.0625 -0.25,-0.21875 0.125,-0.34375 z m -36.03125,0.34375 0.1875,0.4375 -0.21875,0.1875 -0.25,-0.125 -0.03125,-0.3125 0.3125,-0.1875 z m 7,0.1875 0.46875,0 0.125,0.375 -0.28125,0.40625 -0.53125,-0.125 0.21875,-0.65625 z m 26.6875,0.15625 0.09375,0.28125 -0.125,0.125 -0.15625,-0.09375 -0.03125,-0.21875 0.21875,-0.09375 z m 0.90625,0 0.09375,0.28125 -0.125,0.125 -0.15625,-0.09375 -0.03125,-0.21875 0.21875,-0.09375 z m -28.9375,0.6875 0.1875,0 0.0625,0.15625 -0.125,0.15625 -0.21875,-0.03125 0.09375,-0.28125 z m 29.375,0.25 0.40625,0.1875 -0.03125,0.28125 -0.25,0.0625 -0.25,-0.21875 0.125,-0.3125 z m -34.96875,0.125 0.25,0.6875 -0.34375,0.3125 -0.375,-0.21875 -0.03125,-0.5 0.5,-0.28125 z m 32.96875,0.0625 0.28125,0.65625 -0.34375,0.3125 -0.15625,-0.09375 0,0.1875 -0.1875,0.03125 -0.125,-0.125 0.0625,-0.21875 0.03125,0 -0.03125,-0.5 0.46875,-0.25 z m 0.90625,0 0.28125,0.65625 -0.375,0.3125 -0.34375,-0.21875 -0.03125,-0.5 0.46875,-0.25 z m -35.0625,0.625 0.125,0.28125 -0.15625,0.125 -0.15625,-0.09375 0,-0.1875 0.1875,-0.125 z m 35.9375,0.375 0.15625,0.4375 -0.125,0.09375 0.40625,0.21875 -0.03125,0.28125 -0.25,0.0625 -0.21875,-0.21875 0.09375,-0.3125 -0.09375,0.0625 -0.21875,-0.125 -0.03125,-0.3125 0.3125,-0.1875 z m -31.65625,0.15625 0.15625,0.40625 -0.21875,0.21875 -0.21875,-0.15625 -0.03125,-0.3125 0.3125,-0.15625 z m -1.8125,0.46875 0.15625,0.4375 -0.21875,0.1875 -0.21875,-0.125 -0.03125,-0.3125 0.3125,-0.1875 z m -3.09375,0.125 0.25,0.6875 -0.34375,0.3125 -0.375,-0.21875 -0.03125,-0.5 0.5,-0.28125 z m 34.625,0.25 0.625,0.3125 -0.03125,0.46875 -0.40625,0.09375 -0.375,-0.34375 0.1875,-0.53125 z m -31.59375,0.28125 0.15625,0.40625 0.375,-0.21875 0.1875,0.40625 0.125,-0.0625 0.28125,0.6875 -0.375,0.3125 -0.34375,-0.25 0,-0.0625 -0.1875,0.15625 -0.1875,-0.125 -0.1875,0.1875 -0.375,-0.21875 -0.03125,-0.5 0.125,-0.0625 -0.03125,-0.375 0.46875,-0.28125 z m 33.5625,0.15625 0.15625,0.375 0.28125,0.03125 0,-0.15625 0.46875,-0.25 0.0625,0.15625 0.03125,-0.0625 0.65625,0.3125 -0.0625,0.46875 -0.40625,0.09375 -0.15625,-0.15625 -0.21875,0.15625 -0.28125,-0.1875 -0.09375,0.0625 -0.25,-0.09375 -0.28125,0.21875 -0.34375,-0.21875 -0.03125,-0.5 0.46875,-0.25 z m -32.1875,0.125 0.125,0.34375 -0.1875,0.1875 -0.1875,-0.125 0,-0.25 0.25,-0.15625 z m -2.65625,0.21875 0.1875,0.4375 -0.21875,0.1875 -0.25,-0.15625 -0.03125,-0.3125 0.3125,-0.15625 z m 33.6875,0.34375 0.09375,0.25 -0.125,0.125 -0.15625,-0.09375 -0.03125,-0.1875 0.21875,-0.09375 z m 1.78125,0.71875 0.25,0.125 0,0.1875 -0.1875,0.03125 -0.15625,-0.125 0.09375,-0.21875 z m 0.65625,0.25 0.1875,0.4375 0.375,0.0625 0.09375,0.4375 -0.09375,0.0625 0.09375,0.28125 0.15625,-0.0625 0.25,0.65625 -0.34375,0.3125 -0.34375,-0.21875 0,-0.09375 -0.1875,0.15625 -0.1875,-0.125 -0.21875,0.1875 -0.34375,-0.21875 0,-0.09375 -0.09375,-0.03125 0,-0.125 -0.34375,-0.15625 0,-0.5625 0.40625,0.03125 0,-0.40625 0.4375,0.03125 -0.125,-0.0625 0,-0.3125 0.28125,-0.1875 z m -36.0625,0.09375 0.25,0.65625 -0.34375,0.3125 -0.375,-0.21875 -0.03125,-0.46875 0.5,-0.28125 z m 32.96875,0.0625 0.28125,0.65625 -0.34375,0.3125 -0.375,-0.21875 -0.03125,-0.5 0.46875,-0.25 z m 1.53125,0.40625 0.4375,0.03125 0.0625,0.3125 -0.21875,0.125 -0.28125,-0.125 0,-0.34375 z m 2.90625,0.375 0.125,0.375 -0.1875,0.15625 -0.1875,-0.125 -0.03125,-0.25 0.28125,-0.15625 z m -2.65625,0.21875 0.15625,0.4375 -0.21875,0.1875 -0.21875,-0.125 -0.03125,-0.3125 0.3125,-0.1875 z m -2.3125,1.09375 0.3125,0.03125 0.03125,0.1875 -0.15625,0.09375 -0.15625,-0.09375 -0.03125,-0.21875 z m 2.4375,0 0.46875,0.0625 0.0625,0.28125 -0.25,0.125 -0.28125,-0.09375 0,-0.375 z m -32.28125,0.46875 0.125,0.34375 -0.1875,0.15625 -0.1875,-0.09375 0,-0.28125 0.25,-0.125 z"
       style="font-size:48px;font-style:normal;font-variant:normal;font-weight:normal;font-stretch:normal;line-height:125%;letter-spacing:0px;word-spacing:0px;fill:url(#radialGradient3054);fill-opacity:1;stroke:none;font-family:Boston Traffic;-inkscape-font-specification:Boston Traffic"
       inkscape:connector-curvature="0" />
  </g>
</svg>
