<?xml version="1.0" encoding="UTF-8" standalone="no"?>
<svg
   xmlns:dc="http://purl.org/dc/elements/1.1/"
   xmlns:cc="http://creativecommons.org/ns#"
   xmlns:rdf="http://www.w3.org/1999/02/22-rdf-syntax-ns#"
   xmlns:svg="http://www.w3.org/2000/svg"
   xmlns="http://www.w3.org/2000/svg"
   xmlns:xlink="http://www.w3.org/1999/xlink"
   xmlns:sodipodi="http://sodipodi.sourceforge.net/DTD/sodipodi-0.dtd"
   xmlns:inkscape="http://www.inkscape.org/namespaces/inkscape"
   viewBox="0 0 64 64"
   id="svg2"
   version="1.1"
   inkscape:version="0.48.4 r9939"
   width="100%"
   height="100%"
   sodipodi:docname="minecraft.svg">
  <metadata
     id="metadata485">
    <rdf:RDF>
      <cc:Work
         rdf:about="">
        <dc:format>image/svg+xml</dc:format>
        <dc:type
           rdf:resource="http://purl.org/dc/dcmitype/StillImage" />
        <dc:title></dc:title>
      </cc:Work>
    </rdf:RDF>
  </metadata>
  <sodipodi:namedview
     pagecolor="#ffffff"
     bordercolor="#666666"
     borderopacity="1"
     objecttolerance="10"
     gridtolerance="10"
     guidetolerance="10"
     inkscape:pageopacity="0"
     inkscape:pageshadow="2"
     inkscape:window-width="1364"
     inkscape:window-height="700"
     id="namedview483"
     showgrid="false"
     inkscape:zoom="3.6875"
     inkscape:cx="32"
     inkscape:cy="32"
     inkscape:window-x="0"
     inkscape:window-y="28"
     inkscape:window-maximized="1"
     inkscape:current-layer="svg2" />
  <defs
     id="defs4">
    <linearGradient
       id="4"
       gradientUnits="userSpaceOnUse"
       gradientTransform="matrix(1.43243 0 0 1.43628-2.378-2.471)"
       y1="5"
       x2="0"
       y2="43">
      <stop
         stop-color="#fff"
         id="stop7" />
      <stop
         offset=".063"
         stop-color="#fff"
         stop-opacity=".235"
         id="stop9" />
      <stop
         offset=".951"
         stop-color="#fff"
         stop-opacity=".157"
         id="stop11" />
      <stop
         offset="1"
         stop-color="#fff"
         stop-opacity=".392"
         id="stop13" />
    </linearGradient>
    <linearGradient
       id="1">
      <stop
         stop-color="#181818"
         id="stop16" />
      <stop
         offset="1"
         stop-color="#181818"
         stop-opacity="0"
         id="stop18" />
    </linearGradient>
    <linearGradient
       y1="47.03"
       x2="0"
       y2="39.999"
       id="3"
       gradientUnits="userSpaceOnUse">
      <stop
         stop-color="#181818"
         stop-opacity="0"
         id="stop21" />
      <stop
         offset=".5"
         stop-color="#181818"
         id="stop23" />
      <stop
         offset="1"
         stop-color="#181818"
         stop-opacity="0"
         id="stop25" />
    </linearGradient>
    <radialGradient
       cx="4.993"
       cy="43.5"
       r="2.5"
       id="2"
       xlink:href="#1"
       gradientUnits="userSpaceOnUse"
       gradientTransform="matrix(2.0038 0 0 1.4-20.01-104.4)" />
    <radialGradient
       cx="4.993"
       cy="43.5"
       r="2.5"
       id="0"
       xlink:href="#1"
       gradientUnits="userSpaceOnUse"
       gradientTransform="matrix(2.0038 0 0 1.4 27.988-17.4)" />
  </defs>
  <g
     transform="matrix(1.57895 0 0 .71429-5.895 27.929)"
     opacity=".6"
     id="g29">
    <path
       fill="url(#0)"
       d="m38 40h5v7h-5z"
       id="path31" />
    <path
       transform="scale(-1-1)"
       fill="url(#2)"
       d="m-10-47h5v7h-5z"
       id="path33" />
    <path
       fill="url(#3)"
       d="m10 40h28v7h-28z"
       id="path35" />
  </g>
  <path
     opacity="1"
     fill="#583c28"
     d="m28 36h4v4h-4z"
     id="path37" />
  <path
     opacity="1"
     fill="#785439"
     d="m24 36h4v4h-4z"
     id="path39" />
  <path
     opacity="1"
     fill="#583c28"
     d="m24 40h4v4h-4z"
     id="path41" />
  <path
     opacity="1"
     fill="#b8845b"
     d="m24 44h4v4h-4z"
     id="path43" />
  <path
     opacity="1"
     fill="#785439"
     d="m24 48h4v4h-4z"
     id="path45" />
  <path
     opacity="1"
     fill="#b8845b"
     d="m24 52h4v4h-4z"
     id="path47" />
  <path
     opacity="1"
     fill="#956b49"
     d="m24 56h4v4h-4z"
     id="path49" />
  <path
     opacity="1"
     fill="#785439"
     d="m28 40h4v4h-4z"
     id="path51" />
  <g
     fill="#956b49"
     id="g53">
    <path
       opacity="1"
       d="m28 44h4v4h-4z"
       id="path55" />
    <path
       opacity="1"
       d="m28 48h4v4h-4z"
       id="path57" />
  </g>
  <path
     opacity="1"
     fill="#785439"
     d="m28 52h4v4h-4z"
     id="path59" />
  <path
     opacity="1"
     fill="#956b49"
     d="m28 56h4v4h-4z"
     id="path61" />
  <path
     opacity="1"
     fill="#583c28"
     d="m28 24h4v4h-4z"
     id="path63" />
  <path
     opacity="1"
     fill="#b8845b"
     d="m28 28h4v4h-4z"
     id="path65" />
  <path
     opacity="1"
     fill="#785439"
     d="m28 32h4v4h-4z"
     id="path67" />
  <path
     opacity="1"
     fill="#583c28"
     d="m4 24h4v4h-4z"
     id="path69" />
  <path
     opacity="1"
     fill="#785439"
     d="m4 28h4v4h-4z"
     id="path71" />
  <path
     opacity="1"
     fill="#956b49"
     d="m8 24h4v4h-4z"
     id="path73" />
  <path
     opacity="1"
     fill="#785439"
     d="m8 28h4v4h-4z"
     id="path75" />
  <path
     opacity="1"
     fill="#956b49"
     d="m12 24h4v4h-4z"
     id="path77" />
  <g
     fill="#785439"
     id="g79">
    <path
       opacity="1"
       d="m12 28h4v4h-4z"
       id="path81" />
    <path
       opacity="1"
       d="m16 24h4v4h-4z"
       id="path83" />
  </g>
  <path
     opacity="1"
     fill="#868686"
     d="m16 28h4v4h-4z"
     id="path85" />
  <path
     opacity="1"
     fill="#956b49"
     d="m20 24h4v4h-4z"
     id="path87" />
  <path
     opacity="1"
     fill="#785439"
     d="m20 28h4v4h-4z"
     id="path89" />
  <path
     opacity="1"
     fill="#583c28"
     d="m24 24h4v4h-4z"
     id="path91" />
  <g
     fill="#785439"
     id="g93">
    <path
       opacity="1"
       d="m24 28h4v4h-4z"
       id="path95" />
    <path
       opacity="1"
       d="m4 32h4v4h-4z"
       id="path97" />
    <path
       opacity="1"
       d="m4 36h4v4h-4z"
       id="path99" />
  </g>
  <g
     fill="#956b49"
     id="g101">
    <path
       opacity="1"
       d="m4 40h4v4h-4z"
       id="path103" />
    <path
       opacity="1"
       d="m4 44h4v4h-4z"
       id="path105" />
  </g>
  <path
     opacity="1"
     fill="#785439"
     d="m4 48h4v4h-4z"
     id="path107" />
  <path
     opacity="1"
     fill="#583c28"
     d="m4 52h4v4h-4z"
     id="path109" />
  <path
     d="m4 56h4v4h-.5c0 0-3.5 0-3.5-3.5z"
     fill="#956b49"
     id="path111" />
  <path
     opacity="1"
     fill="#b8845b"
     d="m8 32h4v4h-4z"
     id="path113" />
  <path
     opacity="1"
     fill="#785439"
     d="m8 36h4v4h-4z"
     id="path115" />
  <path
     opacity="1"
     fill="#583c28"
     d="m8 40h4v4h-4z"
     id="path117" />
  <g
     fill="#785439"
     id="g119">
    <path
       opacity="1"
       d="m8 44h4v4h-4z"
       id="path121" />
    <path
       opacity="1"
       d="m8 48h4v4h-4z"
       id="path123" />
  </g>
  <path
     opacity="1"
     fill="#956b49"
     d="m8 52h4v4h-4z"
     id="path125" />
  <path
     opacity="1"
     fill="#785439"
     d="m8 56h4v4h-4z"
     id="path127" />
  <path
     opacity="1"
     fill="#b8845b"
     d="m12 32h4v4h-4z"
     id="path129" />
  <path
     opacity="1"
     fill="#956b49"
     d="m12 36h4v4h-4z"
     id="path131" />
  <path
     opacity="1"
     fill="#785439"
     d="m12 40h4v4h-4z"
     id="path133" />
  <path
     opacity="1"
     fill="#b8845b"
     d="m12 44h4v4h-4z"
     id="path135" />
  <path
     opacity="1"
     fill="#956b49"
     d="m12 48h4v4h-4z"
     id="path137" />
  <g
     fill="#785439"
     id="g139">
    <path
       opacity="1"
       d="m12 52h4v4h-4z"
       id="path141" />
    <path
       opacity="1"
       d="m12 56h4v4h-4z"
       id="path143" />
  </g>
  <path
     opacity="1"
     fill="#956b49"
     d="m16 32h4v4h-4z"
     id="path145" />
  <g
     fill="#785439"
     id="g147">
    <path
       opacity="1"
       d="m16 36h4v4h-4z"
       id="path149" />
    <path
       opacity="1"
       d="m16 40h4v4h-4z"
       id="path151" />
  </g>
  <path
     opacity="1"
     fill="#b8845b"
     d="m16 44h4v4h-4z"
     id="path153" />
  <g
     fill="#956b49"
     id="g155">
    <path
       opacity="1"
       d="m16 48h4v4h-4z"
       id="path157" />
    <path
       opacity="1"
       d="m16 52h4v4h-4z"
       id="path159" />
  </g>
  <path
     opacity="1"
     fill="#583c28"
     d="m16 56h4v4h-4z"
     id="path161" />
  <g
     fill="#956b49"
     id="g163">
    <path
       opacity="1"
       d="m20 32h4v4h-4z"
       id="path165" />
    <path
       opacity="1"
       d="m20 36h4v4h-4z"
       id="path167" />
  </g>
  <path
     opacity="1"
     fill="#583c28"
     d="m20 40h4v4h-4z"
     id="path169" />
  <path
     opacity="1"
     fill="#785439"
     d="m20 44h4v4h-4z"
     id="path171" />
  <path
     opacity="1"
     fill="#b8845b"
     d="m20 48h4v4h-4z"
     id="path173" />
  <path
     opacity="1"
     fill="#956b49"
     d="m20 52h4v4h-4z"
     id="path175" />
  <g
     fill="#785439"
     id="g177">
    <path
       opacity="1"
       d="m20 56h4v4h-4z"
       id="path179" />
    <path
       opacity="1"
       d="m24 32h4v4h-4z"
       id="path181" />
    <path
       opacity="1"
       d="m32 36h4v4h-4z"
       id="path183" />
  </g>
  <g
     fill="#956b49"
     id="g185">
    <path
       opacity="1"
       d="m36 36h4v4h-4z"
       id="path187" />
    <path
       opacity="1"
       d="m40 36h4v4h-4z"
       id="path189" />
  </g>
  <g
     fill="#785439"
     id="g191">
    <path
       opacity="1"
       d="m44 36h4v4h-4z"
       id="path193" />
    <path
       opacity="1"
       d="m48 36h4v4h-4z"
       id="path195" />
    <path
       opacity="1"
       d="m52 36h4v4h-4z"
       id="path197" />
  </g>
  <path
     opacity="1"
     fill="#583c28"
     d="m56 36h4v4h-4z"
     id="path199" />
  <path
     opacity="1"
     fill="#785439"
     d="m32 40h4v4h-4z"
     id="path201" />
  <path
     opacity="1"
     fill="#583c28"
     d="m32 44h4v4h-4z"
     id="path203" />
  <path
     opacity="1"
     fill="#6b6b6b"
     d="m32 48h4v4h-4z"
     id="path205" />
  <g
     fill="#785439"
     id="g207">
    <path
       opacity="1"
       d="m32 52h4v4h-4z"
       id="path209" />
    <path
       opacity="1"
       d="m32 56h4v4h-4z"
       id="path211" />
    <path
       opacity="1"
       d="m36 40h4v4h-4z"
       id="path213" />
  </g>
  <path
     opacity="1"
     fill="#b8845b"
     d="m36 44h4v4h-4z"
     id="path215" />
  <path
     opacity="1"
     fill="#956b49"
     d="m36 48h4v4h-4z"
     id="path217" />
  <path
     opacity="1"
     fill="#785439"
     d="m36 52h4v4h-4z"
     id="path219" />
  <path
     opacity="1"
     fill="#583c28"
     d="m36 56h4v4h-4z"
     id="path221" />
  <path
     opacity="1"
     fill="#785439"
     d="m40 40h4v4h-4z"
     id="path223" />
  <path
     opacity="1"
     fill="#b8845b"
     d="m40 44h4v4h-4z"
     id="path225" />
  <path
     opacity="1"
     fill="#956b49"
     d="m40 48h4v4h-4z"
     id="path227" />
  <path
     opacity="1"
     fill="#785439"
     d="m40 52h4v4h-4z"
     id="path229" />
  <path
     opacity="1"
     fill="#b8845b"
     d="m40 56h4v4h-4z"
     id="path231" />
  <path
     opacity="1"
     fill="#785439"
     d="m44 40h4v4h-4z"
     id="path233" />
  <path
     opacity="1"
     fill="#583c28"
     d="m44 44h4v4h-4z"
     id="path235" />
  <g
     fill="#785439"
     id="g237">
    <path
       opacity="1"
       d="m44 48h4v4h-4z"
       id="path239" />
    <path
       opacity="1"
       d="m44 52h4v4h-4z"
       id="path241" />
  </g>
  <path
     opacity="1"
     fill="#583c28"
     d="m44 56h4v4h-4z"
     id="path243" />
  <path
     opacity="1"
     fill="#b8845b"
     d="m48 40h4v4h-4z"
     id="path245" />
  <path
     opacity="1"
     fill="#956b49"
     d="m48 44h4v4h-4z"
     id="path247" />
  <path
     opacity="1"
     fill="#583c28"
     d="m48 48h4v4h-4z"
     id="path249" />
  <g
     fill="#785439"
     id="g251">
    <path
       opacity="1"
       d="m48 52h4v4h-4z"
       id="path253" />
    <path
       opacity="1"
       d="m48 56h4v4h-4z"
       id="path255" />
  </g>
  <path
     opacity="1"
     fill="#b8845b"
     d="m52 40h4v4h-4z"
     id="path257" />
  <g
     fill="#956b49"
     id="g259">
    <path
       opacity="1"
       d="m52 44h4v4h-4z"
       id="path261" />
    <path
       opacity="1"
       d="m52 48h4v4h-4z"
       id="path263" />
  </g>
  <path
     opacity="1"
     fill="#785439"
     d="m52 52h4v4h-4z"
     id="path265" />
  <path
     opacity="1"
     fill="#b8845b"
     d="m52 56h4v4h-4z"
     id="path267" />
  <path
     opacity="1"
     fill="#785439"
     d="m56 40h4v4h-4z"
     id="path269" />
  <path
     opacity="1"
     fill="#868686"
     d="m56 44h4v4h-4z"
     id="path271" />
  <path
     opacity="1"
     fill="#785439"
     d="m56 48h4v4h-4z"
     id="path273" />
  <path
     opacity="1"
     fill="#b8845b"
     d="m56 52h4v4h-4z"
     id="path275" />
  <path
     d="m56 56h4v.5c0 0 0 3.5-3.5 3.5h-.5z"
     fill="#583c28"
     id="path277" />
  <path
     opacity="1"
     fill="#6bab41"
     d="m28 4h4v4h-4z"
     id="path279" />
  <path
     opacity="1"
     fill="#61a137"
     d="m28 8h4v4h-4z"
     id="path281" />
  <g
     fill="#583c28"
     id="g283">
    <path
       opacity="1"
       d="m28 12h4v4h-4z"
       id="path285" />
    <path
       opacity="1"
       d="m28 16h4v4h-4z"
       id="path287" />
  </g>
  <path
     opacity="1"
     fill="#785439"
     d="m28 20h4v4h-4z"
     id="path289" />
  <path
     opacity="1"
     fill="#7dbd53"
     d="m32 4h4v4h-4z"
     id="path291" />
  <path
     opacity="1"
     fill="#5e9e34"
     d="m32 8h4v4h-4z"
     id="path293" />
  <path
     opacity="1"
     fill="#73b349"
     d="m32 12h4v4h-4z"
     id="path295" />
  <path
     opacity="1"
     fill="#5e9e34"
     d="m32 16h4v4h-4z"
     id="path297" />
  <g
     fill="#583c28"
     id="g299">
    <path
       opacity="1"
       d="m32 20h4v4h-4z"
       id="path301" />
    <path
       opacity="1"
       d="m32 24h4v4h-4z"
       id="path303" />
  </g>
  <path
     opacity="1"
     fill="#b8845b"
     d="m32 28h4v4h-4z"
     id="path305" />
  <path
     opacity="1"
     fill="#956b49"
     d="m32 32h4v4h-4z"
     id="path307" />
  <path
     opacity="1"
     fill="#75b54b"
     d="m36 4h4v4h-4z"
     id="path309" />
  <path
     opacity="1"
     fill="#92c162"
     d="m36 8h4v4h-4z"
     id="path311" />
  <path
     opacity="1"
     fill="#7ebe54"
     d="m36 12h4v4h-4z"
     id="path313" />
  <g
     fill="#583c28"
     id="g315">
    <path
       opacity="1"
       d="m36 16h4v4h-4z"
       id="path317" />
    <path
       opacity="1"
       d="m36 20h4v4h-4z"
       id="path319" />
  </g>
  <g
     fill="#785439"
     id="g321">
    <path
       opacity="1"
       d="m36 24h4v4h-4z"
       id="path323" />
    <path
       opacity="1"
       d="m36 28h4v4h-4z"
       id="path325" />
  </g>
  <path
     opacity="1"
     fill="#583c28"
     d="m36 32h4v4h-4z"
     id="path327" />
  <path
     opacity="1"
     fill="#69a93f"
     d="m40 4h4v4h-4z"
     id="path329" />
  <path
     opacity="1"
     fill="#8fbe5f"
     d="m40 8h4v4h-4z"
     id="path331" />
  <path
     opacity="1"
     fill="#91c061"
     d="m40 12h4v4h-4z"
     id="path333" />
  <path
     opacity="1"
     fill="#6cac42"
     d="m40 16h4v4h-4z"
     id="path335" />
  <path
     opacity="1"
     fill="#583c28"
     d="m40 20h4v4h-4z"
     id="path337" />
  <path
     opacity="1"
     fill="#785439"
     d="m40 24h4v4h-4z"
     id="path339" />
  <path
     opacity="1"
     fill="#b8845b"
     d="m40 28h4v4h-4z"
     id="path341" />
  <path
     opacity="1"
     fill="#956b49"
     d="m40 32h4v4h-4z"
     id="path343" />
  <path
     opacity="1"
     fill="#66a63c"
     d="m44 4h4v4h-4z"
     id="path345" />
  <path
     opacity="1"
     fill="#72b248"
     d="m44 8h4v4h-4z"
     id="path347" />
  <path
     opacity="1"
     fill="#96c566"
     d="m44 12h4v4h-4z"
     id="path349" />
  <path
     opacity="1"
     fill="#583c28"
     d="m44 16h4v4h-4z"
     id="path351" />
  <path
     opacity="1"
     fill="#6b6b6b"
     d="m44 20h4v4h-4z"
     id="path353" />
  <path
     opacity="1"
     fill="#583c28"
     d="m44 24h4v4h-4z"
     id="path355" />
  <path
     opacity="1"
     fill="#b8845b"
     d="m44 28h4v4h-4z"
     id="path357" />
  <path
     opacity="1"
     fill="#956b49"
     d="m44 32h4v4h-4z"
     id="path359" />
  <path
     opacity="1"
     fill="#68a83e"
     d="m48 4h4v4h-4z"
     id="path361" />
  <path
     opacity="1"
     fill="#60a036"
     d="m48 8h4v4h-4z"
     id="path363" />
  <path
     opacity="1"
     fill="#583c28"
     d="m48 12h4v4h-4z"
     id="path365" />
  <g
     fill="#785439"
     id="g367">
    <path
       opacity="1"
       d="m48 16h4v4h-4z"
       id="path369" />
    <path
       opacity="1"
       d="m48 20h4v4h-4z"
       id="path371" />
    <path
       opacity="1"
       d="m48 24h4v4h-4z"
       id="path373" />
    <path
       opacity="1"
       d="m48 28h4v4h-4z"
       id="path375" />
    <path
       opacity="1"
       d="m48 32h4v4h-4z"
       id="path377" />
  </g>
  <path
     opacity="1"
     fill="#60a036"
     d="m52 4h4v4h-4z"
     id="path379" />
  <path
     opacity="1"
     fill="#6bab41"
     d="m52 8h4v4h-4z"
     id="path381" />
  <path
     opacity="1"
     fill="#56962c"
     d="m52 12h4v4h-4z"
     id="path383" />
  <path
     opacity="1"
     fill="#583c28"
     d="m52 16h4v4h-4z"
     id="path385" />
  <path
     opacity="1"
     fill="#956b49"
     d="m52 20h4v4h-4z"
     id="path387" />
  <path
     opacity="1"
     fill="#785439"
     d="m52 24h4v4h-4z"
     id="path389" />
  <path
     opacity="1"
     fill="#956b49"
     d="m52 28h4v4h-4z"
     id="path391" />
  <path
     opacity="1"
     fill="#785439"
     d="m52 32h4v4h-4z"
     id="path393" />
  <path
     d="m56 4h.5c0 0 3.5 0 3.5 3.5v.5h-4z"
     fill="#4f8f25"
     id="path395" />
  <path
     opacity="1"
     fill="#66a63c"
     d="m56 8h4v4h-4z"
     id="path397" />
  <path
     opacity="1"
     fill="#4f8f25"
     d="m56 12h4v4h-4z"
     id="path399" />
  <g
     fill="#583c28"
     id="g401">
    <path
       opacity="1"
       d="m56 16h4v4h-4z"
       id="path403" />
    <path
       opacity="1"
       d="m56 20h4v4h-4z"
       id="path405" />
  </g>
  <g
     fill="#785439"
     id="g407">
    <path
       opacity="1"
       d="m56 24h4v4h-4z"
       id="path409" />
    <path
       opacity="1"
       d="m56 28h4v4h-4z"
       id="path411" />
  </g>
  <path
     opacity="1"
     fill="#956b49"
     d="m56 32h4v4h-4z"
     id="path413" />
  <path
     d="m4 7.5c0-3.5 3.5-3.5 3.5-3.5h.5v4h-4z"
     fill="#75b54b"
     id="path415" />
  <path
     opacity="1"
     fill="#6bab41"
     d="m4 8h4v4h-4z"
     id="path417" />
  <path
     opacity="1"
     fill="#583c28"
     d="m4 12h4v4h-4z"
     id="path419" />
  <path
     opacity="1"
     fill="#6b6b6b"
     d="m4 16h4v4h-4z"
     id="path421" />
  <path
     opacity="1"
     fill="#785439"
     d="m4 20h4v4h-4z"
     id="path423" />
  <path
     opacity="1"
     fill="#72b248"
     d="m8 4h4v4h-4z"
     id="path425" />
  <path
     opacity="1"
     fill="#89b859"
     d="m8 8h4v4h-4z"
     id="path427" />
  <path
     opacity="1"
     fill="#9bca6b"
     d="m8 12h4v4h-4z"
     id="path429" />
  <path
     opacity="1"
     fill="#583c28"
     d="m8 16h4v4h-4z"
     id="path431" />
  <path
     opacity="1"
     fill="#956b49"
     d="m8 20h4v4h-4z"
     id="path433" />
  <path
     opacity="1"
     fill="#65a53b"
     d="m12 4h4v4h-4z"
     id="path435" />
  <path
     opacity="1"
     fill="#80af50"
     d="m12 8h4v4h-4z"
     id="path437" />
  <path
     opacity="1"
     fill="#63a339"
     d="m12 12h4v4h-4z"
     id="path439" />
  <path
     opacity="1"
     fill="#583c28"
     d="m12 16h4v4h-4z"
     id="path441" />
  <path
     opacity="1"
     fill="#b8845b"
     d="m12 20h4v4h-4z"
     id="path443" />
  <path
     opacity="1"
     fill="#65a53b"
     d="m16 4h4v4h-4z"
     id="path445" />
  <path
     opacity="1"
     fill="#82b152"
     d="m16 8h4v4h-4z"
     id="path447" />
  <path
     opacity="1"
     fill="#68a83e"
     d="m16 12h4v4h-4z"
     id="path449" />
  <path
     opacity="1"
     fill="#70b046"
     d="m16 16h4v4h-4z"
     id="path451" />
  <path
     opacity="1"
     fill="#583c28"
     d="m16 20h4v4h-4z"
     id="path453" />
  <path
     opacity="1"
     fill="#6eae44"
     d="m20 4h4v4h-4z"
     id="path455" />
  <g
     fill="#583c28"
     id="g457">
    <path
       opacity="1"
       d="m20 8h4v4h-4z"
       id="path459" />
    <path
       opacity="1"
       d="m20 12h4v4h-4z"
       id="path461" />
    <path
       opacity="1"
       d="m20 16h4v4h-4z"
       id="path463" />
  </g>
  <path
     opacity="1"
     fill="#956b49"
     d="m20 20h4v4h-4z"
     id="path465" />
  <path
     opacity="1"
     fill="#5e9e34"
     d="m24 4h4v4h-4z"
     id="path467" />
  <path
     opacity="1"
     fill="#67a73d"
     d="m24 8h4v4h-4z"
     id="path469" />
  <path
     opacity="1"
     fill="#6faf45"
     d="m24 12h4v4h-4z"
     id="path471" />
  <path
     opacity="1"
     fill="#583c28"
     d="m24 16h4v4h-4z"
     id="path473" />
  <path
     opacity="1"
     fill="#785439"
     d="m24 20h4v4h-4z"
     id="path475" />
  <g
     fill="none"
     stroke-linejoin="round"
     stroke-linecap="round"
     id="g477">
    <rect
       y="5.429"
       x="5.5"
       rx="2"
       height="53.14"
       width="53"
       opacity=".5"
       stroke="url(#4)"
       id="rect479" />
    <rect
       y="4.5"
       x="4.5"
       rx="3"
       height="55"
       width="55"
       opacity=".3"
       stroke="#000"
       color="#000"
       id="rect481" />
  </g>
</svg>
