<!-- Created with Inkscape (http://www.inkscape.org/) -->
<svg id="svg3489" xmlns:rdf="http://www.w3.org/1999/02/22-rdf-syntax-ns#" xmlns="http://www.w3.org/2000/svg" height="64" width="64" version="1.1" xmlns:cc="http://creativecommons.org/ns#" xmlns:xlink="http://www.w3.org/1999/xlink" xmlns:dc="http://purl.org/dc/elements/1.1/">
<defs id="defs3491">
<linearGradient id="linearGradient3839" y2="40.496" gradientUnits="userSpaceOnUse" x2="71.204" gradientTransform="matrix(2.3268746,0,0,2.3268746,-135.94475,-32.842783)" y1="15.369" x1="71.204">
<stop id="stop4808" stop-color="#FFF" offset="0"/>
<stop id="stop4810" stop-color="#FFF" stop-opacity="0.23529412" offset="0.42448"/>
<stop id="stop4812" stop-color="#FFF" stop-opacity="0.15686275" offset="0.8209"/>
<stop id="stop4814" stop-color="#FFF" stop-opacity="0.39215687" offset="1"/>
</linearGradient>
<radialGradient id="radialGradient3843" gradientUnits="userSpaceOnUse" cy="8.4126" cx="8.4037" gradientTransform="matrix(-0.00170827,1.8335528,-2.0036617,-0.00186677,48.620528,-1.1737681)" r="20">
<stop id="stop4087" stop-color="#06abec" offset="0"/>
<stop id="stop4093" stop-color="#0da6f6" offset="0.14449"/>
<stop id="stop4091" stop-color="#1e9df5" offset="0.32573"/>
<stop id="stop4089" stop-color="#1953f1" offset="1"/>
</radialGradient>
<radialGradient id="radialGradient3846" gradientUnits="userSpaceOnUse" cy="186.17" cx="99.157" gradientTransform="matrix(0.38235362,0,0,0.11948554,-5.913044,34.255311)" r="62.769">
<stop id="stop3822-2-6" stop-color="#3d3d3d" offset="0"/>
<stop id="stop3864-8-7" stop-color="#686868" stop-opacity="0.49803922" offset="0.5"/>
<stop id="stop3824-1-2" stop-color="#686868" stop-opacity="0" offset="1"/>
</radialGradient>
</defs>
<metadata id="metadata3494">
<rdf:RDF>
<cc:Work rdf:about="">
<dc:format>image/svg+xml</dc:format>
<dc:type rdf:resource="http://purl.org/dc/dcmitype/StillImage"/>
<dc:title/>
</cc:Work>
</rdf:RDF>
</metadata>
<path id="path3818-0" d="m56,56.5a24,7.5,0,1,1,-48,0,24,7.5,0,1,1,48,0z" fill="url(#radialGradient3846)"/>
<path id="path2555" style="enable-background:accumulate;color:#000000;" d="M32,2.5c-16.277,0-29.5,13.223-29.5,29.5s13.223,29.5,29.5,29.5,29.5-13.223,29.5-29.5-13.223-29.5-29.5-29.5z" fill-rule="nonzero" fill="url(#radialGradient3843)"/>
<path id="path2555-7-1" opacity="0.50000000000000000" stroke-linejoin="round" style="enable-background:accumulate;color:#000000;" d="m32,2.5c-16.277,0-29.5,13.223-29.5,29.5s13.223,29.5,29.5,29.5,29.5-13.223,29.5-29.5-13.223-29.5-29.5-29.5z" stroke-dashoffset="0" stroke="#00537d" stroke-linecap="round" stroke-miterlimit="4" stroke-dasharray="none" stroke-width="1" fill="none"/>
<path id="path3019" opacity="0.5" stroke-linejoin="round" style="enable-background:accumulate;color:#000000;" d="m60.5,32c0,15.74-12.76,28.5-28.5,28.5s-28.5-12.76-28.5-28.5,12.76-28.5,28.5-28.5,28.5,12.76,28.5,28.5z" stroke-dashoffset="0" stroke="url(#linearGradient3839)" stroke-linecap="round" stroke-miterlimit="4" stroke-dasharray="none" stroke-width="1" fill="none"/>
<path id="path3803" opacity="0.15" d="m33.405,15.765,0,28.933,3.2088,0,0-3.3507c1.8727,1.121,4.1512,1.7362,6.4354,1.7374,2.9437-0.0027,5.868-1.0432,7.9484-2.8283s3.2913-4.2928,3.2913-6.8159c0.000006-2.5232-1.2109-5.0308-3.2913-6.8159s-5.0047-2.8257-7.9484-2.8283c-2.2842,0.0012-4.5627,0.61637-6.4354,1.7374v-9.7683zm-6.4354,6.4354,0,3.3507c-1.8702-1.1272-4.1491-1.7487-6.4354-1.7551-2.9437,0.0027-5.868,1.0432-7.9484,2.8283s-3.2913,4.2928-3.2913,6.8159c0,2.5232,1.2109,5.0308,3.2913,6.8159s5.0048,2.8257,7.9484,2.8283c2.282,0.004,4.5603-0.60486,6.4354-1.7197v9.7683h3.2088v-28.933zm-6.4354,4.8221c2.4896,0.0024,4.948,0.99116,6.4354,2.5883v7.6764c-1.4874,1.5972-3.9458,2.586-6.4354,2.5883-2.1043-0.0013-4.195-0.69556-5.6817-1.8869-1.4867-1.1914-2.3512-2.865-2.3492-4.5485,0.004-1.6805,0.8709-3.3494,2.3571-4.537s3.5732-1.8794,5.6739-1.8806zm22.515,0c2.1006,0.0013,4.1877,0.69302,5.6739,1.8806s2.3532,2.8565,2.3571,4.537c0.0019,1.6834-0.86251,3.3571-2.3492,4.5485s-3.5774,1.8857-5.6817,1.8869c-2.4896-0.0024-4.948-0.99116-6.4354-2.5883v-7.6764c1.4874-1.5972,3.9458-2.586,6.4354-2.5883z" stroke="#000" stroke-miterlimit="4" stroke-dasharray="none" stroke-width="1.99999976" fill="none"/>
<path id="path3033" opacity="0.15" d="m33.405,15.765,0,28.933,3.2088,0,0-3.3507c1.8727,1.121,4.1512,1.7362,6.4354,1.7374,2.9437-0.0027,5.868-1.0432,7.9484-2.8283s3.2913-4.2928,3.2913-6.8159c0.000005-2.5232-1.2109-5.0308-3.2913-6.8159s-5.0047-2.8257-7.9484-2.8283c-2.2842,0.0012-4.5627,0.61636-6.4354,1.7374v-9.7683zm-6.4354,6.4354,0,3.3507c-1.8702-1.1272-4.1491-1.7487-6.4354-1.7551-2.9437,0.0027-5.868,1.0432-7.9484,2.8283s-3.2913,4.2928-3.2913,6.8159c0,2.5232,1.2109,5.0308,3.2913,6.8159s5.0048,2.8257,7.9484,2.8283c2.282,0.004,4.5603-0.60486,6.4354-1.7196v9.7683h3.2088v-28.933zm-6.4354,4.8221c2.4896,0.0024,4.948,0.99116,6.4354,2.5883v7.6764c-1.4874,1.5972-3.9458,2.586-6.4354,2.5883-2.1043-0.0013-4.195-0.69556-5.6817-1.8869-1.4867-1.1914-2.3512-2.865-2.3492-4.5485,0.004-1.6805,0.87088-3.3494,2.3571-4.537s3.5733-1.8794,5.6739-1.8806zm22.515,0c2.1006,0.0013,4.1877,0.69302,5.6739,1.8806s2.3532,2.8565,2.3571,4.537c0.0019,1.6834-0.86251,3.3571-2.3492,4.5485s-3.5774,1.8857-5.6817,1.8869c-2.4896-0.0024-4.948-0.99116-6.4354-2.5883v-7.6764c1.4874-1.5972,3.9458-2.586,6.4354-2.5883z" fill="#000"/>
<path id="path3060" fill="#FFF" d="m33.405,14.765,0,28.933,3.2088,0,0-3.3507c1.8727,1.121,4.1512,1.7362,6.4354,1.7374,2.9437-0.0027,5.868-1.0432,7.9484-2.8283s3.2913-4.2928,3.2913-6.8159c0.000005-2.5232-1.2109-5.0308-3.2913-6.8159s-5.0047-2.8257-7.9484-2.8283c-2.2842,0.0012-4.5627,0.61636-6.4354,1.7374v-9.7683zm-6.4354,6.4354,0,3.3507c-1.8702-1.1272-4.1491-1.7487-6.4354-1.7551-2.9437,0.0027-5.868,1.0432-7.9484,2.8283s-3.2913,4.2928-3.2913,6.8159c0,2.5232,1.2109,5.0308,3.2913,6.8159s5.0048,2.8257,7.9484,2.8283c2.282,0.004,4.5603-0.60486,6.4354-1.7196v9.7683h3.2088v-28.933zm-6.4354,4.8221c2.4896,0.0024,4.948,0.99116,6.4354,2.5883v7.6764c-1.4874,1.5972-3.9458,2.586-6.4354,2.5883-2.1043-0.0013-4.195-0.69556-5.6817-1.8869-1.4867-1.1914-2.3512-2.865-2.3492-4.5485,0.004-1.6805,0.87088-3.3494,2.3571-4.537s3.5733-1.8794,5.6739-1.8806zm22.515,0c2.1006,0.0013,4.1877,0.69302,5.6739,1.8806s2.3532,2.8565,2.3571,4.537c0.0019,1.6834-0.86251,3.3571-2.3492,4.5485s-3.5774,1.8857-5.6817,1.8869c-2.4896-0.0024-4.948-0.99116-6.4354-2.5883v-7.6764c1.4874-1.5972,3.9458-2.586,6.4354-2.5883z"/>
</svg>
