<?xml version="1.0" encoding="UTF-8" standalone="no"?>
<!-- Created with Inkscape (http://www.inkscape.org/) -->

<svg
   xmlns:dc="http://purl.org/dc/elements/1.1/"
   xmlns:cc="http://creativecommons.org/ns#"
   xmlns:rdf="http://www.w3.org/1999/02/22-rdf-syntax-ns#"
   xmlns:svg="http://www.w3.org/2000/svg"
   xmlns="http://www.w3.org/2000/svg"
   xmlns:xlink="http://www.w3.org/1999/xlink"
   xmlns:sodipodi="http://sodipodi.sourceforge.net/DTD/sodipodi-0.dtd"
   xmlns:inkscape="http://www.inkscape.org/namespaces/inkscape"
   version="1.1"
   width="64"
   height="64"
   id="svg6333"
   inkscape:version="0.91 r"
   sodipodi:docname="snes9x.svg">
  <sodipodi:namedview
     pagecolor="#ffffff"
     bordercolor="#666666"
     borderopacity="1"
     objecttolerance="10"
     gridtolerance="10"
     guidetolerance="10"
     inkscape:pageopacity="0"
     inkscape:pageshadow="2"
     inkscape:window-width="1920"
     inkscape:window-height="1025"
     id="namedview49"
     showgrid="false"
     inkscape:zoom="4"
     inkscape:cx="-1.818014"
     inkscape:cy="30.79157"
     inkscape:window-x="0"
     inkscape:window-y="30"
     inkscape:window-maximized="1"
     inkscape:current-layer="svg6333" />
  <defs
     id="defs6335">
    <linearGradient
       id="linearGradient4382">
      <stop
         offset="0"
         style="stop-color:#ffffff;stop-opacity:1"
         id="stop4384" />
      <stop
         offset="0.19011267"
         style="stop-color:#ffffff;stop-opacity:0.23529412"
         id="stop4386" />
      <stop
         offset="0.83802253"
         style="stop-color:#ffffff;stop-opacity:0.15686275"
         id="stop4388" />
      <stop
         offset="1"
         style="stop-color:#ffffff;stop-opacity:0.39215687"
         id="stop4390" />
    </linearGradient>
    <linearGradient
       id="linearGradient4360">
      <stop
         offset="0"
         style="stop-color:#ffffff;stop-opacity:1"
         id="stop4362" />
      <stop
         offset="0.47528166"
         style="stop-color:#ffffff;stop-opacity:0.23529412"
         id="stop4364" />
      <stop
         offset="0.95056331"
         style="stop-color:#ffffff;stop-opacity:0.15686275"
         id="stop4366" />
      <stop
         offset="1"
         style="stop-color:#ffffff;stop-opacity:0.39215687"
         id="stop4368" />
    </linearGradient>
    <linearGradient
       id="linearGradient4232">
      <stop
         offset="0"
         style="stop-color:#cccccc;stop-opacity:1"
         id="stop4234" />
      <stop
         offset="0.26238"
         style="stop-color:#999999;stop-opacity:1"
         id="stop4236" />
      <stop
         offset="0.704952"
         style="stop-color:#808080;stop-opacity:1"
         id="stop4238" />
      <stop
         offset="1"
         style="stop-color:#666666;stop-opacity:1"
         id="stop4240" />
    </linearGradient>
    <linearGradient
       x1="167.98311"
       y1="8.50811"
       x2="167.98311"
       y2="54.780239"
       id="linearGradient5809"
       xlink:href="#linearGradient5803"
       gradientUnits="userSpaceOnUse"
       gradientTransform="translate(-130,1.759402e-6)" />
    <linearGradient
       id="linearGradient5803">
      <stop
         id="stop5805"
         style="stop-color:#fff5ef;stop-opacity:1"
         offset="0" />
      <stop
         id="stop5807"
         style="stop-color:#fef8dd;stop-opacity:1"
         offset="1" />
    </linearGradient>
    <linearGradient
       x1="27.096104"
       y1="10.880992"
       x2="27.096104"
       y2="39.150768"
       id="linearGradient5801"
       xlink:href="#linearGradient3895-9-0-3-5-2-0-4-9"
       gradientUnits="userSpaceOnUse"
       gradientTransform="matrix(1.4102564,0,0,1.4102564,0.391129,-2.2559982)" />
    <linearGradient
       id="linearGradient3895-9-0-3-5-2-0-4-9">
      <stop
         id="stop3897-0-5-7-89-6-6-7-0"
         style="stop-color:#dc5639;stop-opacity:1"
         offset="0" />
      <stop
         id="stop3899-8-7-06-3-8-3-8-0"
         style="stop-color:#9d0f0f;stop-opacity:1"
         offset="1" />
    </linearGradient>
    <linearGradient
       x1="23.99999"
       y1="4.999989"
       x2="23.99999"
       y2="43"
       id="linearGradient3381-5-4"
       xlink:href="#linearGradient3924-2-2-5-8"
       gradientUnits="userSpaceOnUse"
       gradientTransform="matrix(1.4324324,0,0,1.4362832,-2.378381,-2.4707782)" />
    <linearGradient
       id="linearGradient3924-2-2-5-8">
      <stop
         id="stop3926-9-4-9-6"
         style="stop-color:#ffffff;stop-opacity:1"
         offset="0" />
      <stop
         id="stop3928-9-8-6-5"
         style="stop-color:#ffffff;stop-opacity:0.23529412"
         offset="0.06316455" />
      <stop
         id="stop3930-3-5-1-7"
         style="stop-color:#ffffff;stop-opacity:0.15686275"
         offset="0.95056331" />
      <stop
         id="stop3932-8-0-4-8"
         style="stop-color:#ffffff;stop-opacity:0.39215687"
         offset="1" />
    </linearGradient>
    <radialGradient
       cx="6.7304144"
       cy="9.9571075"
       r="12.671875"
       fx="6.2001843"
       fy="9.9571075"
       id="radialGradient3402-7-1-6"
       xlink:href="#linearGradient2867-449-88-871-390-598-476-591-434-148-57-177-8-3-3-6-4-8-8-8"
       gradientUnits="userSpaceOnUse"
       gradientTransform="matrix(0,13.393984,-16.443533,0,197.15205,-115.14368)" />
    <linearGradient
       id="linearGradient2867-449-88-871-390-598-476-591-434-148-57-177-8-3-3-6-4-8-8-8">
      <stop
         id="stop3750-1-0-7-6-6-1-3-9"
         style="stop-color:#ffffff;stop-opacity:1"
         offset="0" />
      <stop
         id="stop3752-3-7-4-0-32-8-923-0"
         style="stop-color:#f2f2f2;stop-opacity:1"
         offset="0.26238" />
      <stop
         id="stop3754-1-8-5-2-7-6-7-1"
         style="stop-color:#ececec;stop-opacity:1"
         offset="0.704952" />
      <stop
         id="stop3756-1-6-2-6-6-1-96-6"
         style="stop-color:#cccccc;stop-opacity:1"
         offset="1" />
    </linearGradient>
    <radialGradient
       cx="4.9929786"
       cy="43.5"
       r="2.5"
       fx="4.9929786"
       fy="43.5"
       id="radialGradient3337-2-2"
       xlink:href="#linearGradient3688-166-749-4-0-3-8"
       gradientUnits="userSpaceOnUse"
       gradientTransform="matrix(2.003784,0,0,1.4,27.98813,-17.4)" />
    <linearGradient
       id="linearGradient3688-166-749-4-0-3-8">
      <stop
         id="stop2883-4-0-1-8"
         style="stop-color:#181818;stop-opacity:1"
         offset="0" />
      <stop
         id="stop2885-9-2-9-6"
         style="stop-color:#181818;stop-opacity:0"
         offset="1" />
    </linearGradient>
    <radialGradient
       cx="4.9929786"
       cy="43.5"
       r="2.5"
       fx="4.9929786"
       fy="43.5"
       id="radialGradient3339-1-4"
       xlink:href="#linearGradient3688-464-309-9-2-4-2"
       gradientUnits="userSpaceOnUse"
       gradientTransform="matrix(2.003784,0,0,1.4,-20.01187,-104.4)" />
    <linearGradient
       id="linearGradient3688-464-309-9-2-4-2">
      <stop
         id="stop2889-7-9-6-9"
         style="stop-color:#181818;stop-opacity:1"
         offset="0" />
      <stop
         id="stop2891-6-6-1-7"
         style="stop-color:#181818;stop-opacity:0"
         offset="1" />
    </linearGradient>
    <linearGradient
       id="linearGradient3702-501-757-8-4-1-1">
      <stop
         id="stop2895-8-9-9-1"
         style="stop-color:#181818;stop-opacity:0"
         offset="0" />
      <stop
         id="stop2897-7-8-7-7"
         style="stop-color:#181818;stop-opacity:1"
         offset="0.5" />
      <stop
         id="stop2899-4-5-1-5"
         style="stop-color:#181818;stop-opacity:0"
         offset="1" />
    </linearGradient>
    <linearGradient
       x1="25.058096"
       y1="47.027729"
       x2="25.058096"
       y2="39.999443"
       id="linearGradient6394"
       xlink:href="#linearGradient3702-501-757-8-4-1-1"
       gradientUnits="userSpaceOnUse" />
    <radialGradient
       inkscape:collect="always"
       xlink:href="#linearGradient4232"
       id="radialGradient4254"
       cx="32.25"
       cy="5"
       fx="32.25"
       fy="5"
       r="24"
       gradientUnits="userSpaceOnUse"
       gradientTransform="matrix(-1.4657735,1.4657735,-1.9445436,-1.9445436,108.15902,-24.713582)" />
    <linearGradient
       inkscape:collect="always"
       xlink:href="#linearGradient4382"
       id="linearGradient4348"
       x1="32.426777"
       y1="8.4267769"
       x2="32.426777"
       y2="55.220245"
       gradientUnits="userSpaceOnUse" />
    <linearGradient
       inkscape:collect="always"
       xlink:href="#linearGradient4360"
       id="linearGradient4358"
       x1="32.298489"
       y1="-13.08103"
       x2="38.726566"
       y2="-6.6529512"
       gradientUnits="userSpaceOnUse" />
    <linearGradient
       inkscape:collect="always"
       xlink:href="#linearGradient4360"
       id="linearGradient4372"
       gradientUnits="userSpaceOnUse"
       x1="32.298489"
       y1="-13.08103"
       x2="38.726566"
       y2="-6.6529512"
       gradientTransform="translate(18.624998,-2.1875302e-8)" />
    <linearGradient
       inkscape:collect="always"
       xlink:href="#linearGradient4360"
       id="linearGradient4376"
       gradientUnits="userSpaceOnUse"
       gradientTransform="translate(18.625001,17.499999)"
       x1="32.298489"
       y1="-13.08103"
       x2="38.726566"
       y2="-6.6529512" />
    <linearGradient
       inkscape:collect="always"
       xlink:href="#linearGradient4360"
       id="linearGradient4380"
       gradientUnits="userSpaceOnUse"
       gradientTransform="translate(4.5499755e-7,17.499999)"
       x1="32.298489"
       y1="-13.08103"
       x2="38.726566"
       y2="-6.6529512" />
  </defs>
  <metadata
     id="metadata6338">
    <rdf:RDF>
      <cc:Work
         rdf:about="">
        <dc:format>image/svg+xml</dc:format>
        <dc:type
           rdf:resource="http://purl.org/dc/dcmitype/StillImage" />
        <dc:title />
      </cc:Work>
    </rdf:RDF>
  </metadata>
  <g
     id="g4346">
    <g
       id="layer1">
      <g
         style="opacity:0.6"
         id="g3712-8-2-4-4"
         transform="matrix(1.5789502,0,0,0.7142857,-5.894751,27.928572)">
        <rect
           style="fill:url(#radialGradient3337-2-2);fill-opacity:1;stroke:none"
           id="rect2801-5-5-7-9"
           y="40"
           x="38"
           height="7"
           width="5" />
        <rect
           style="fill:url(#radialGradient3339-1-4);fill-opacity:1;stroke:none"
           id="rect3696-3-0-3-7"
           transform="scale(-1,-1)"
           y="-47"
           x="-10"
           height="7"
           width="5" />
        <rect
           style="fill:url(#linearGradient6394);fill-opacity:1;stroke:none"
           id="rect3700-5-6-8-4"
           y="40"
           x="10"
           height="7.0000005"
           width="28" />
      </g>
      <rect
         style="color:#000000;display:inline;overflow:visible;visibility:visible;fill:url(#radialGradient3402-7-1-6);fill-opacity:1;fill-rule:nonzero;stroke:none;stroke-width:0.99999994;marker:none;enable-background:accumulate"
         id="rect5505-21-3-8-5-2"
         y="4.250001"
         x="4.749999"
         ry="3"
         rx="3"
         height="55"
         width="55" />
      <rect
         style="opacity:1;fill:none;stroke:url(#linearGradient3381-5-4);stroke-width:1;stroke-linecap:round;stroke-linejoin:round;stroke-miterlimit:4;stroke-dasharray:none;stroke-dashoffset:0;stroke-opacity:1"
         id="rect6741-5-0-2-3"
         y="5.4287739"
         x="5.4999986"
         ry="2"
         rx="2"
         height="53.142479"
         width="53" />
      <rect
         style="color:#000000;display:inline;overflow:visible;visibility:visible;opacity:0.3;fill:none;stroke:#000000;stroke-width:1;stroke-linecap:round;stroke-linejoin:round;stroke-miterlimit:4;stroke-dasharray:none;stroke-dashoffset:0;stroke-opacity:1;marker:none;enable-background:accumulate"
         id="rect5505-21-3-8-9-1-1"
         y="4.5000019"
         x="4.4999986"
         ry="3"
         rx="3"
         height="55"
         width="55" />
    </g>
    <g
       id="g4332">
      <path
         inkscape:connector-curvature="0"
         style="opacity:1;fill:url(#radialGradient4254);fill-opacity:1;stroke:none;stroke-width:1;stroke-linecap:round;stroke-linejoin:round;stroke-opacity:1"
         d="m 49.220563,14.779437 a 24,24 0 0 0 -33.941125,0 24,24 0 0 0 0,33.941126 24,24 0 0 0 33.941125,0 24,24 0 0 0 0,-33.941126 z M 37.685884,13.144253 c 3.133897,3.133897 3.133897,8.179811 0,11.313708 L 24.957962,37.185883 c -3.133898,3.133898 -8.179812,3.133898 -11.313709,0 -3.133897,-3.133897 -3.133897,-8.179811 0,-11.313708 L 26.372175,13.144253 c 3.133898,-3.133897 8.179812,-3.133897 11.313709,0 z m 13.169864,13.169864 c 3.133897,3.133897 3.133897,8.179811 0,11.313708 L 38.127825,50.355747 c -3.133897,3.133897 -8.179811,3.133897 -11.313708,0 -3.133897,-3.133897 -3.133897,-8.179811 0,-11.313708 L 39.542039,26.314117 c 3.133897,-3.133898 8.179811,-3.133898 11.313709,0 z"
         id="path4246" />
      <circle
         style="opacity:1;fill:#c6afe9;fill-opacity:1;stroke:none;stroke-width:1;stroke-linecap:round;stroke-linejoin:round;stroke-opacity:1"
         id="path4258"
         cx="35.942333"
         cy="-9.1035538"
         r="6"
         transform="matrix(0.70710678,0.70710678,-0.70710678,0.70710678,0,0)" />
      <circle
         r="6"
         cy="8.3964462"
         cx="35.942333"
         id="circle4264"
         style="opacity:1;fill:#c6afe9;fill-opacity:1;stroke:none;stroke-width:1;stroke-linecap:round;stroke-linejoin:round;stroke-opacity:1"
         transform="matrix(0.70710678,0.70710678,-0.70710678,0.70710678,0,0)" />
      <circle
         r="6"
         cy="-9.1035538"
         cx="54.567333"
         id="circle4275"
         style="opacity:1;fill:#7137c8;fill-opacity:1;stroke:none;stroke-width:1;stroke-linecap:round;stroke-linejoin:round;stroke-opacity:1"
         transform="matrix(0.70710678,0.70710678,-0.70710678,0.70710678,0,0)" />
      <circle
         style="opacity:1;fill:#7137c8;fill-opacity:1;stroke:none;stroke-width:1;stroke-linecap:round;stroke-linejoin:round;stroke-opacity:1"
         id="circle4277"
         cx="54.567333"
         cy="8.3964462"
         r="6"
         transform="matrix(0.70710678,0.70710678,-0.70710678,0.70710678,0,0)" />
      <path
         inkscape:connector-curvature="0"
         id="path4313"
         d="m 49.220563,14.779437 a 24,24 0 0 0 -33.941125,0 24,24 0 0 0 0,33.941126 24,24 0 0 0 33.941125,0 24,24 0 0 0 0,-33.941126 z M 37.685884,13.144253 c 3.133897,3.133897 3.133897,8.179811 0,11.313708 L 24.957962,37.185883 c -3.133898,3.133898 -8.179812,3.133898 -11.313709,0 -3.133897,-3.133897 -3.133897,-8.179811 0,-11.313708 L 26.372175,13.144253 c 3.133898,-3.133897 8.179812,-3.133897 11.313709,0 z m 13.169864,13.169864 c 3.133897,3.133897 3.133897,8.179811 0,11.313708 L 38.127825,50.355747 c -3.133897,3.133897 -8.179811,3.133897 -11.313708,0 -3.133897,-3.133897 -3.133897,-8.179811 0,-11.313708 L 39.542039,26.314117 c 3.133897,-3.133898 8.179811,-3.133898 11.313709,0 z"
         style="opacity:0.3;fill:none;fill-opacity:1;stroke:#000000;stroke-width:1;stroke-linecap:round;stroke-linejoin:round;stroke-opacity:1" />
      <path
         inkscape:connector-curvature="0"
         style="opacity:0.5;fill:none;fill-opacity:1;stroke:#2d1650;stroke-width:1;stroke-linecap:round;stroke-linejoin:round;stroke-opacity:1"
         d="m 31.939453,12.978516 a 6,6 0 0 0 -4.330078,1.755859 6,6 0 0 0 0,8.486328 6,6 0 0 0 8.486328,0 6,6 0 0 0 0,-8.486328 6,6 0 0 0 -4.15625,-1.755859 z m -12.373047,12.375 a 6,6 0 0 0 -4.332031,1.755859 6,6 0 0 0 0,8.486328 6,6 0 0 0 8.486328,0 6,6 0 0 0 0,-8.486328 6,6 0 0 0 -4.154297,-1.755859 z m 25.542969,0.794922 a 6,6 0 0 0 -4.330078,1.755859 6,6 0 0 0 0,8.486328 6,6 0 0 0 8.486328,0 6,6 0 0 0 0,-8.486328 6,6 0 0 0 -4.15625,-1.755859 z m -12.373047,12.375 a 6,6 0 0 0 -4.332031,1.755859 6,6 0 0 0 0,8.486328 6,6 0 0 0 8.486328,0 6,6 0 0 0 0,-8.486328 6,6 0 0 0 -4.154297,-1.755859 z"
         id="circle4329" />
      <circle
         style="opacity:0.3;fill:none;fill-opacity:1;stroke:url(#linearGradient4348);stroke-width:1;stroke-linecap:round;stroke-linejoin:round;stroke-opacity:1"
         id="path4340"
         cx="32.25"
         cy="31.75"
         r="23" />
      <circle
         transform="matrix(0.70710678,0.70710678,-0.70710678,0.70710678,0,0)"
         r="5"
         cy="-9.1035538"
         cx="35.942333"
         id="circle4350"
         style="opacity:0.3;fill:none;fill-opacity:1;stroke:url(#linearGradient4358);stroke-width:1;stroke-linecap:round;stroke-linejoin:round;stroke-opacity:1" />
      <circle
         style="opacity:0.3;fill:none;fill-opacity:1;stroke:url(#linearGradient4372);stroke-width:1;stroke-linecap:round;stroke-linejoin:round;stroke-opacity:1"
         id="circle4370"
         cx="54.567333"
         cy="-9.1035538"
         r="5"
         transform="matrix(0.70710678,0.70710678,-0.70710678,0.70710678,0,0)" />
      <circle
         transform="matrix(0.70710678,0.70710678,-0.70710678,0.70710678,0,0)"
         r="5"
         cy="8.3964453"
         cx="54.567333"
         id="circle4374"
         style="opacity:0.3;fill:none;fill-opacity:1;stroke:url(#linearGradient4376);stroke-width:1;stroke-linecap:round;stroke-linejoin:round;stroke-opacity:1" />
      <circle
         style="opacity:0.3;fill:none;fill-opacity:1;stroke:url(#linearGradient4380);stroke-width:1;stroke-linecap:round;stroke-linejoin:round;stroke-opacity:1"
         id="circle4378"
         cx="35.942333"
         cy="8.3964453"
         r="5"
         transform="matrix(0.70710678,0.70710678,-0.70710678,0.70710678,0,0)" />
    </g>
  </g>
</svg>
