<?xml version="1.0" encoding="UTF-8" standalone="no"?>
<!-- Created with Inkscape (http://www.inkscape.org/) -->

<svg
   xmlns:dc="http://purl.org/dc/elements/1.1/"
   xmlns:cc="http://creativecommons.org/ns#"
   xmlns:rdf="http://www.w3.org/1999/02/22-rdf-syntax-ns#"
   xmlns:svg="http://www.w3.org/2000/svg"
   xmlns="http://www.w3.org/2000/svg"
   xmlns:xlink="http://www.w3.org/1999/xlink"
   xmlns:sodipodi="http://sodipodi.sourceforge.net/DTD/sodipodi-0.dtd"
   xmlns:inkscape="http://www.inkscape.org/namespaces/inkscape"
   version="1.1"
   width="64"
   height="64"
   id="svg6333"
   inkscape:version="0.91 r"
   sodipodi:docname="softwarecenter.svg">
  <sodipodi:namedview
     pagecolor="#ffffff"
     bordercolor="#666666"
     borderopacity="1"
     objecttolerance="10"
     gridtolerance="10"
     guidetolerance="10"
     inkscape:pageopacity="0"
     inkscape:pageshadow="2"
     inkscape:window-width="1920"
     inkscape:window-height="1025"
     id="namedview56"
     showgrid="false"
     inkscape:zoom="1"
     inkscape:cx="165.12985"
     inkscape:cy="145.30043"
     inkscape:window-x="0"
     inkscape:window-y="30"
     inkscape:window-maximized="1"
     inkscape:current-layer="svg6333" />
  <defs
     id="defs6335">
    <linearGradient
       x1="167.98311"
       y1="8.50811"
       x2="167.98311"
       y2="54.780239"
       id="linearGradient5809"
       xlink:href="#linearGradient5803"
       gradientUnits="userSpaceOnUse"
       gradientTransform="translate(-130,1.759402e-6)" />
    <linearGradient
       id="linearGradient5803">
      <stop
         id="stop5805"
         style="stop-color:#fff5ef;stop-opacity:1"
         offset="0" />
      <stop
         id="stop5807"
         style="stop-color:#fef8dd;stop-opacity:1"
         offset="1" />
    </linearGradient>
    <linearGradient
       x1="27.096104"
       y1="10.880992"
       x2="27.096104"
       y2="39.150768"
       id="linearGradient5801"
       xlink:href="#linearGradient3895-9-0-3-5-2-0-4-9"
       gradientUnits="userSpaceOnUse"
       gradientTransform="matrix(1.4102564,0,0,1.4102564,0.391129,-2.2559982)" />
    <linearGradient
       id="linearGradient3895-9-0-3-5-2-0-4-9">
      <stop
         id="stop3897-0-5-7-89-6-6-7-0"
         style="stop-color:#dc5639;stop-opacity:1"
         offset="0" />
      <stop
         id="stop3899-8-7-06-3-8-3-8-0"
         style="stop-color:#9d0f0f;stop-opacity:1"
         offset="1" />
    </linearGradient>
    <linearGradient
       x1="23.99999"
       y1="4.999989"
       x2="23.99999"
       y2="43"
       id="linearGradient3381-5-4"
       xlink:href="#linearGradient3924-2-2-5-8"
       gradientUnits="userSpaceOnUse"
       gradientTransform="matrix(1.4324324,0,0,1.4362832,-2.378381,-2.4707782)" />
    <linearGradient
       id="linearGradient3924-2-2-5-8">
      <stop
         id="stop3926-9-4-9-6"
         style="stop-color:#ffffff;stop-opacity:1"
         offset="0" />
      <stop
         id="stop3928-9-8-6-5"
         style="stop-color:#ffffff;stop-opacity:0.23529412"
         offset="0.06316455" />
      <stop
         id="stop3930-3-5-1-7"
         style="stop-color:#ffffff;stop-opacity:0.15686275"
         offset="0.95056331" />
      <stop
         id="stop3932-8-0-4-8"
         style="stop-color:#ffffff;stop-opacity:0.39215687"
         offset="1" />
    </linearGradient>
    <radialGradient
       cx="6.7304144"
       cy="9.9571075"
       r="12.671875"
       fx="6.2001843"
       fy="9.9571075"
       id="radialGradient3402-7-1-6"
       xlink:href="#linearGradient2867-449-88-871-390-598-476-591-434-148-57-177-8-3-3-6-4-8-8-8"
       gradientUnits="userSpaceOnUse"
       gradientTransform="matrix(0,13.393984,-16.443533,0,196.90205,-114.89368)" />
    <linearGradient
       id="linearGradient2867-449-88-871-390-598-476-591-434-148-57-177-8-3-3-6-4-8-8-8">
      <stop
         id="stop3750-1-0-7-6-6-1-3-9"
         style="stop-color:#ffcd7d;stop-opacity:1"
         offset="0" />
      <stop
         id="stop3752-3-7-4-0-32-8-923-0"
         style="stop-color:#fc8f36;stop-opacity:1"
         offset="0.26238" />
      <stop
         id="stop3754-1-8-5-2-7-6-7-1"
         style="stop-color:#e23a0e;stop-opacity:1"
         offset="0.704952" />
      <stop
         id="stop3756-1-6-2-6-6-1-96-6"
         style="stop-color:#ac441f;stop-opacity:1"
         offset="1" />
    </linearGradient>
    <radialGradient
       cx="4.9929786"
       cy="43.5"
       r="2.5"
       fx="4.9929786"
       fy="43.5"
       id="radialGradient3337-2-2"
       xlink:href="#linearGradient3688-166-749-4-0-3-8"
       gradientUnits="userSpaceOnUse"
       gradientTransform="matrix(2.003784,0,0,1.4,27.98813,-17.4)" />
    <linearGradient
       id="linearGradient3688-166-749-4-0-3-8">
      <stop
         id="stop2883-4-0-1-8"
         style="stop-color:#181818;stop-opacity:1"
         offset="0" />
      <stop
         id="stop2885-9-2-9-6"
         style="stop-color:#181818;stop-opacity:0"
         offset="1" />
    </linearGradient>
    <radialGradient
       cx="4.9929786"
       cy="43.5"
       r="2.5"
       fx="4.9929786"
       fy="43.5"
       id="radialGradient3339-1-4"
       xlink:href="#linearGradient3688-464-309-9-2-4-2"
       gradientUnits="userSpaceOnUse"
       gradientTransform="matrix(2.003784,0,0,1.4,-20.01187,-104.4)" />
    <linearGradient
       id="linearGradient3688-464-309-9-2-4-2">
      <stop
         id="stop2889-7-9-6-9"
         style="stop-color:#181818;stop-opacity:1"
         offset="0" />
      <stop
         id="stop2891-6-6-1-7"
         style="stop-color:#181818;stop-opacity:0"
         offset="1" />
    </linearGradient>
    <linearGradient
       id="linearGradient3702-501-757-8-4-1-1">
      <stop
         id="stop2895-8-9-9-1"
         style="stop-color:#181818;stop-opacity:0"
         offset="0" />
      <stop
         id="stop2897-7-8-7-7"
         style="stop-color:#181818;stop-opacity:1"
         offset="0.5" />
      <stop
         id="stop2899-4-5-1-5"
         style="stop-color:#181818;stop-opacity:0"
         offset="1" />
    </linearGradient>
    <linearGradient
       x1="25.058096"
       y1="47.027729"
       x2="25.058096"
       y2="39.999443"
       id="linearGradient6394"
       xlink:href="#linearGradient3702-501-757-8-4-1-1"
       gradientUnits="userSpaceOnUse" />
    <linearGradient
       x1="167.98311"
       y1="8.50811"
       x2="167.98311"
       y2="54.780239"
       id="linearGradient3027"
       xlink:href="#linearGradient5803"
       gradientUnits="userSpaceOnUse"
       gradientTransform="translate(-126.77481,1.759402e-6)" />
    <linearGradient
       x1="27.096104"
       y1="10.880992"
       x2="27.096104"
       y2="39.150768"
       id="linearGradient3031"
       xlink:href="#linearGradient3895-9-0-3-5-2-0-4-9"
       gradientUnits="userSpaceOnUse"
       gradientTransform="matrix(1.4102564,0,0,1.4102564,-63.306509,-2.2559982)" />
    <linearGradient
       x1="23.99999"
       y1="4.999989"
       x2="23.99999"
       y2="43"
       id="linearGradient3034"
       xlink:href="#linearGradient3924-2-2-5-8"
       gradientUnits="userSpaceOnUse"
       gradientTransform="matrix(1.4324324,0,0,1.4362832,-2.378381,-2.4707782)" />
    <radialGradient
       cx="6.7304144"
       cy="9.9571075"
       r="12.671875"
       fx="6.2001843"
       fy="9.9571075"
       id="radialGradient3037"
       xlink:href="#linearGradient2867-449-88-871-390-598-476-591-434-148-57-177-8-3-3-6-4-8-8-8"
       gradientUnits="userSpaceOnUse"
       gradientTransform="matrix(0,13.393984,-16.443533,0,196.90205,-114.89368)" />
    <linearGradient
       x1="167.98311"
       y1="8.50811"
       x2="167.98311"
       y2="54.780239"
       id="linearGradient3027-4"
       xlink:href="#linearGradient5803-0"
       gradientUnits="userSpaceOnUse"
       gradientTransform="translate(-163.20879,-0.19175601)" />
    <linearGradient
       id="linearGradient5803-0">
      <stop
         id="stop5805-3"
         style="stop-color:#fff5ef;stop-opacity:1"
         offset="0" />
      <stop
         id="stop5807-1"
         style="stop-color:#fef8dd;stop-opacity:1"
         offset="1" />
    </linearGradient>
    <radialGradient
       inkscape:collect="always"
       xlink:href="#linearGradient5803"
       id="radialGradient3814"
       cx="32.244804"
       cy="12.463851"
       fx="32.244804"
       fy="12.463851"
       r="24.264"
       gradientTransform="matrix(1.8239138e-8,1.8233953,-1.4228771,1.4232817e-8,49.979331,-46.891919)"
       gradientUnits="userSpaceOnUse" />
    <radialGradient
       inkscape:collect="always"
       xlink:href="#linearGradient5803"
       id="radialGradient3858"
       gradientUnits="userSpaceOnUse"
       gradientTransform="matrix(1.5033909e-8,1.5029635,-1.1728298,1.1731633e-8,46.651144,-33.321032)"
       cx="32.244804"
       cy="12.463851"
       fx="32.244804"
       fy="12.463851"
       r="24.264" />
    <radialGradient
       inkscape:collect="always"
       xlink:href="#linearGradient5803"
       id="radialGradient3877"
       gradientUnits="userSpaceOnUse"
       gradientTransform="matrix(1.8239138e-8,1.8233953,-1.4228771,1.4232817e-8,49.255794,-46.89192)"
       cx="32.244804"
       cy="12.463851"
       fx="32.244804"
       fy="12.463851"
       r="24.264" />
    <radialGradient
       inkscape:collect="always"
       xlink:href="#linearGradient5803"
       id="radialGradient3895"
       gradientUnits="userSpaceOnUse"
       gradientTransform="matrix(1.5033909e-8,1.5029635,-1.1728298,1.1731633e-8,46.054757,-33.321032)"
       cx="32.244804"
       cy="12.463851"
       fx="32.244804"
       fy="12.463851"
       r="24.264" />
    <radialGradient
       inkscape:collect="always"
       xlink:href="#linearGradient5803"
       id="radialGradient3898"
       gradientUnits="userSpaceOnUse"
       gradientTransform="matrix(1.5033909e-8,1.5029635,-1.1728298,1.1731633e-8,46.054757,-33.321032)"
       cx="32.244804"
       cy="12.463851"
       fx="32.244804"
       fy="12.463851"
       r="24.264" />
    <radialGradient
       inkscape:collect="always"
       xlink:href="#linearGradient5803"
       id="radialGradient3901"
       gradientUnits="userSpaceOnUse"
       gradientTransform="matrix(1.5033909e-8,1.5029635,-1.1728298,1.1731633e-8,46.054757,-33.321032)"
       cx="32.244804"
       cy="12.463851"
       fx="32.244804"
       fy="12.463851"
       r="24.264" />
    <radialGradient
       inkscape:collect="always"
       xlink:href="#linearGradient5803"
       id="radialGradient3903"
       gradientUnits="userSpaceOnUse"
       gradientTransform="matrix(1.8239138e-8,1.8233953,-1.4228771,1.4232817e-8,49.979331,-46.891919)"
       cx="32.244804"
       cy="12.463851"
       fx="32.244804"
       fy="12.463851"
       r="24.264" />
    <radialGradient
       inkscape:collect="always"
       xlink:href="#linearGradient5803"
       id="radialGradient3925"
       gradientUnits="userSpaceOnUse"
       gradientTransform="matrix(1.5033909e-8,1.5029635,-1.1728298,1.1731633e-8,46.054757,-33.321032)"
       cx="32.244804"
       cy="12.463851"
       fx="32.244804"
       fy="12.463851"
       r="24.264" />
    <radialGradient
       inkscape:collect="always"
       xlink:href="#linearGradient5803"
       id="radialGradient3927"
       gradientUnits="userSpaceOnUse"
       gradientTransform="matrix(1.8239138e-8,1.8233953,-1.4228771,1.4232817e-8,49.979331,-46.891919)"
       cx="32.244804"
       cy="12.463851"
       fx="32.244804"
       fy="12.463851"
       r="24.264" />
    <radialGradient
       inkscape:collect="always"
       xlink:href="#linearGradient5803"
       id="radialGradient3937"
       gradientUnits="userSpaceOnUse"
       gradientTransform="matrix(1.8239138e-8,1.8233953,-1.4228771,1.4232817e-8,49.979331,-46.891919)"
       cx="32.244804"
       cy="12.463851"
       fx="32.244804"
       fy="12.463851"
       r="24.264" />
  </defs>
  <metadata
     id="metadata6338">
    <rdf:RDF>
      <cc:Work
         rdf:about="">
        <dc:format>image/svg+xml</dc:format>
        <dc:type
           rdf:resource="http://purl.org/dc/dcmitype/StillImage" />
        <dc:title />
      </cc:Work>
    </rdf:RDF>
  </metadata>
  <g
     transform="matrix(0.82426641,0,0,0.82426641,5.4548606,6.7679021)"
     id="g3863"
     style="font-size:72px;font-style:normal;font-variant:normal;font-weight:500;font-stretch:normal;line-height:125%;letter-spacing:0px;word-spacing:0px;opacity:0.3;fill:#ba3d12;fill-opacity:1;stroke:none;font-family:Ubuntu;-inkscape-font-specification:Ubuntu Medium" />
  <g
     id="g4213">
    <g
       style="opacity:0.6"
       id="g3712-8-2-4-4"
       transform="matrix(1.5789502,0,0,0.7142857,-5.894751,27.928572)">
      <rect
         style="fill:url(#radialGradient3337-2-2);fill-opacity:1;stroke:none"
         id="rect2801-5-5-7-9"
         y="40"
         x="38"
         height="7"
         width="5" />
      <rect
         style="fill:url(#radialGradient3339-1-4);fill-opacity:1;stroke:none"
         id="rect3696-3-0-3-7"
         transform="scale(-1,-1)"
         y="-47"
         x="-10"
         height="7"
         width="5" />
      <rect
         style="fill:url(#linearGradient6394);fill-opacity:1;stroke:none"
         id="rect3700-5-6-8-4"
         y="40"
         x="10"
         height="7.0000005"
         width="28" />
    </g>
    <rect
       style="color:#000000;display:inline;overflow:visible;visibility:visible;fill:url(#radialGradient3037);fill-opacity:1;fill-rule:nonzero;stroke:none;stroke-width:0.99999994;marker:none;enable-background:accumulate"
       id="rect5505-21-3-8-5-2"
       y="4.5000019"
       x="4.4999986"
       ry="3"
       rx="3"
       height="55"
       width="55" />
    <rect
       style="opacity:0.5;fill:none;stroke:url(#linearGradient3034);stroke-width:1;stroke-linecap:round;stroke-linejoin:round;stroke-miterlimit:4;stroke-dasharray:none;stroke-dashoffset:0;stroke-opacity:1"
       id="rect6741-5-0-2-3"
       y="5.4287739"
       x="5.4999986"
       ry="2"
       rx="2"
       height="53.142479"
       width="53" />
    <rect
       style="color:#000000;display:inline;overflow:visible;visibility:visible;opacity:0.4;fill:none;stroke:#640000;stroke-width:1;stroke-linecap:round;stroke-linejoin:round;stroke-miterlimit:4;stroke-dasharray:none;stroke-dashoffset:0;stroke-opacity:1;marker:none;enable-background:accumulate"
       id="rect5505-21-3-8-9-1-1"
       y="4.5000019"
       x="4.4999986"
       ry="3"
       rx="3"
       height="55"
       width="55" />
    <g
       transform="matrix(0.83206913,0,0,0.83463288,5.373782,4.4628628)"
       id="g3951">
      <g
         transform="matrix(0.78305308,0,0,0.76163218,7.3461787,8.7319691)"
         id="g3939"
         style="font-style:normal;font-variant:normal;font-weight:500;font-stretch:normal;font-size:72px;line-height:125%;font-family:Ubuntu;-inkscape-font-specification:'Ubuntu Medium';letter-spacing:0px;word-spacing:0px;opacity:0.3;fill:#ba3d12;fill-opacity:1;stroke:none">
        <path
           inkscape:connector-curvature="0"
           id="path3941"
           transform="matrix(1.2132,0,0,1.2132,-6.6178368,-6.4668438)"
           d="m 27.84375,11.4375 c -1.384782,2.927833 -2.725626,5.899362 -4.03125,8.90625 -1.30565,3.006954 -2.623556,6.176583 -3.96875,9.5 -0.414544,1.055203 -0.859331,2.155095 -1.28125,3.25 l -3.03125,0 c -2.283151,0 -4.125,1.754575 -4.125,3.9375 l 0,0.125 c 0,2.182925 1.841849,3.9375 4.125,3.9375 l 0.03125,0 c -1.313378,3.535981 -2.704261,7.336167 -4.15625,11.46875 l 7.78125,0 1.65625,-4.75 c 0.420697,-1.149919 0.817925,-2.330193 1.21875,-3.5 0.200352,-0.646079 0.562978,-1.843227 1,-3.21875 l 16.34375,0 c 0.434873,1.365079 0.800979,2.536055 1,3.1875 0.402094,1.16568 0.796611,2.343108 1.21875,3.46875 0.59344,1.582595 1.164812,3.190345 1.71875,4.8125 l 8.0625,0 c -1.45203,-4.132583 -2.842057,-7.932769 -4.1875,-11.46875 l 0.0625,0 c 2.283151,0 4.125,-1.754575 4.125,-3.9375 l 0,-0.125 c 0,-2.182925 -1.841849,-3.9375 -4.125,-3.9375 l -3.125,0 c -0.430022,-1.092555 -0.855041,-2.196981 -1.28125,-3.25 -1.305668,-3.323417 -2.631891,-6.493046 -3.9375,-9.5 -1.305664,-3.006888 -2.646506,-5.978417 -4.03125,-8.90625 l -7.0625,0 z m 3.375,7.9375 c 0.870406,2.017835 1.906784,4.57854 3.09375,7.625 0.748311,1.920719 1.526142,3.978649 2.3125,6.09375 l -10.78125,0 c 0.766791,-2.087828 1.535767,-4.190728 2.25,-6.0625 1.186925,-3.006895 2.214992,-5.559285 3.125,-7.65625 z m -15.5,15.71875 24.6875,0 0,4 -24.6875,0 c -1.639233,0 -2.3125,-0.892 -2.3125,-2 0,-1.108 0.673267,-2 2.3125,-2 z"
           style="fill:#ba3d12;fill-opacity:1" />
      </g>
      <g
         style="font-style:normal;font-variant:normal;font-weight:500;font-stretch:normal;font-size:72px;line-height:125%;font-family:Ubuntu;-inkscape-font-specification:'Ubuntu Medium';letter-spacing:0px;word-spacing:0px;opacity:0.1;fill:#ba3d12;fill-opacity:1;stroke:#ba3d12"
         id="g3947"
         transform="matrix(0.78305308,0,0,0.76163218,7.3461787,8.7319691)">
        <path
           style="fill:#ba3d12;fill-opacity:1;stroke:#ba3d12;stroke-width:2.56154447"
           d="m 27.84375,11.4375 c -1.384782,2.927833 -2.725626,5.899362 -4.03125,8.90625 -1.30565,3.006954 -2.623556,6.176583 -3.96875,9.5 -0.414544,1.055203 -0.859331,2.155095 -1.28125,3.25 l -3.03125,0 c -2.283151,0 -4.125,1.754575 -4.125,3.9375 l 0,0.125 c 0,2.182925 1.841849,3.9375 4.125,3.9375 l 0.03125,0 c -1.313378,3.535981 -2.704261,7.336167 -4.15625,11.46875 l 7.78125,0 1.65625,-4.75 c 0.420697,-1.149919 0.817925,-2.330193 1.21875,-3.5 0.200352,-0.646079 0.562978,-1.843227 1,-3.21875 l 16.34375,0 c 0.434873,1.365079 0.800979,2.536055 1,3.1875 0.402094,1.16568 0.796611,2.343108 1.21875,3.46875 0.59344,1.582595 1.164812,3.190345 1.71875,4.8125 l 8.0625,0 c -1.45203,-4.132583 -2.842057,-7.932769 -4.1875,-11.46875 l 0.0625,0 c 2.283151,0 4.125,-1.754575 4.125,-3.9375 l 0,-0.125 c 0,-2.182925 -1.841849,-3.9375 -4.125,-3.9375 l -3.125,0 c -0.430022,-1.092555 -0.855041,-2.196981 -1.28125,-3.25 -1.305668,-3.323417 -2.631891,-6.493046 -3.9375,-9.5 -1.305664,-3.006888 -2.646506,-5.978417 -4.03125,-8.90625 l -7.0625,0 z m 3.375,7.9375 c 0.870406,2.017835 1.906784,4.57854 3.09375,7.625 0.748311,1.920719 1.526142,3.978649 2.3125,6.09375 l -10.78125,0 c 0.766791,-2.087828 1.535767,-4.190728 2.25,-6.0625 1.186925,-3.006895 2.214992,-5.559285 3.125,-7.65625 z m -15.5,15.71875 24.6875,0 0,4 -24.6875,0 c -1.639233,0 -2.3125,-0.892 -2.3125,-2 0,-1.108 0.673267,-2 2.3125,-2 z"
           transform="matrix(1.2132,0,0,1.2132,-6.6178368,-6.4668438)"
           id="path3949"
           inkscape:connector-curvature="0" />
      </g>
      <g
         style="font-style:normal;font-variant:normal;font-weight:500;font-stretch:normal;font-size:72px;line-height:125%;font-family:Ubuntu;-inkscape-font-specification:'Ubuntu Medium';letter-spacing:0px;word-spacing:0px;fill:url(#radialGradient3937);fill-opacity:1;stroke:none"
         id="text3033"
         transform="matrix(0.78305308,0,0,0.76163218,7.3461787,6.9819691)">
        <path
           style="fill:#ffffff;fill-opacity:1"
           d="m 27.84375,11.4375 c -1.384782,2.927833 -2.725626,5.899362 -4.03125,8.90625 -1.30565,3.006954 -2.623556,6.176583 -3.96875,9.5 -0.414544,1.055203 -0.859331,2.155095 -1.28125,3.25 l -3.03125,0 c -2.283151,0 -4.125,1.754575 -4.125,3.9375 l 0,0.125 c 0,2.182925 1.841849,3.9375 4.125,3.9375 l 0.03125,0 c -1.313378,3.535981 -2.704261,7.336167 -4.15625,11.46875 l 7.78125,0 1.65625,-4.75 c 0.420697,-1.149919 0.817925,-2.330193 1.21875,-3.5 0.200352,-0.646079 0.562978,-1.843227 1,-3.21875 l 16.34375,0 c 0.434873,1.365079 0.800979,2.536055 1,3.1875 0.402094,1.16568 0.796611,2.343108 1.21875,3.46875 0.59344,1.582595 1.164812,3.190345 1.71875,4.8125 l 8.0625,0 c -1.45203,-4.132583 -2.842057,-7.932769 -4.1875,-11.46875 l 0.0625,0 c 2.283151,0 4.125,-1.754575 4.125,-3.9375 l 0,-0.125 c 0,-2.182925 -1.841849,-3.9375 -4.125,-3.9375 l -3.125,0 c -0.430022,-1.092555 -0.855041,-2.196981 -1.28125,-3.25 -1.305668,-3.323417 -2.631891,-6.493046 -3.9375,-9.5 -1.305664,-3.006888 -2.646506,-5.978417 -4.03125,-8.90625 l -7.0625,0 z m 3.375,7.9375 c 0.870406,2.017835 1.906784,4.57854 3.09375,7.625 0.748311,1.920719 1.526142,3.978649 2.3125,6.09375 l -10.78125,0 c 0.766791,-2.087828 1.535767,-4.190728 2.25,-6.0625 1.186925,-3.006895 2.214992,-5.559285 3.125,-7.65625 z m -15.5,15.71875 24.6875,0 0,4 -24.6875,0 c -1.639233,0 -2.3125,-0.892 -2.3125,-2 0,-1.108 0.673267,-2 2.3125,-2 z"
           transform="matrix(1.2132,0,0,1.2132,-6.6178368,-6.4668438)"
           id="path3038"
           inkscape:connector-curvature="0" />
      </g>
    </g>
  </g>
</svg>
