<?xml version="1.0" encoding="UTF-8" standalone="no"?>
<svg
   xmlns:dc="http://purl.org/dc/elements/1.1/"
   xmlns:cc="http://creativecommons.org/ns#"
   xmlns:rdf="http://www.w3.org/1999/02/22-rdf-syntax-ns#"
   xmlns:svg="http://www.w3.org/2000/svg"
   xmlns="http://www.w3.org/2000/svg"
   xmlns:xlink="http://www.w3.org/1999/xlink"
   id="svg4330"
   height="64"
   width="64"
   version="1.1">
  <defs
     id="defs4332">
    <linearGradient
       gradientTransform="matrix(1.4324324,0,0,1.4362832,-2.378381,-2.4707781)"
       gradientUnits="userSpaceOnUse"
       xlink:href="#linearGradient3924-2-2-5-8"
       id="linearGradient3052"
       y2="43"
       x2="23.99999"
       y1="4.999989"
       x1="23.99999" />
    <linearGradient
       id="linearGradient3924-2-2-5-8">
      <stop
         offset="0"
         style="stop-color:#ffffff;stop-opacity:1"
         id="stop3926-9-4-9-6" />
      <stop
         offset="0.06316455"
         style="stop-color:#ffffff;stop-opacity:0.23529412"
         id="stop3928-9-8-6-5" />
      <stop
         offset="0.95056331"
         style="stop-color:#ffffff;stop-opacity:0.15686275"
         id="stop3930-3-5-1-7" />
      <stop
         offset="1"
         style="stop-color:#ffffff;stop-opacity:0.39215687"
         id="stop3932-8-0-4-8" />
    </linearGradient>
    <radialGradient
       gradientTransform="matrix(0,13.393984,-16.443533,0,196.90205,-114.89368)"
       gradientUnits="userSpaceOnUse"
       xlink:href="#linearGradient2867-449-88-871-390-598-476-591-434-148-57-177-8-3-3-6-4-8-8-8"
       id="radialGradient3055"
       fy="9.9571075"
       fx="6.2001843"
       r="12.671875"
       cy="9.9571075"
       cx="6.7304144" />
    <linearGradient
       id="linearGradient2867-449-88-871-390-598-476-591-434-148-57-177-8-3-3-6-4-8-8-8">
      <stop
         offset="0"
         style="stop-color:#ffcd7d;stop-opacity:1"
         id="stop3750-1-0-7-6-6-1-3-9" />
      <stop
         offset="0.26238"
         style="stop-color:#fc8f36;stop-opacity:1"
         id="stop3752-3-7-4-0-32-8-923-0" />
      <stop
         offset="0.704952"
         style="stop-color:#e23a0e;stop-opacity:1"
         id="stop3754-1-8-5-2-7-6-7-1" />
      <stop
         offset="1"
         style="stop-color:#ac441f;stop-opacity:1"
         id="stop3756-1-6-2-6-6-1-96-6" />
    </linearGradient>
    <radialGradient
       gradientTransform="matrix(2.003784,0,0,1.4,27.98813,-17.4)"
       gradientUnits="userSpaceOnUse"
       xlink:href="#linearGradient3688-166-749-4-0-3-8"
       id="radialGradient3337-2-2"
       fy="43.5"
       fx="4.9929786"
       r="2.5"
       cy="43.5"
       cx="4.9929786" />
    <linearGradient
       id="linearGradient3688-166-749-4-0-3-8">
      <stop
         offset="0"
         style="stop-color:#181818;stop-opacity:1"
         id="stop2883-4-0-1-8" />
      <stop
         offset="1"
         style="stop-color:#181818;stop-opacity:0"
         id="stop2885-9-2-9-6" />
    </linearGradient>
    <radialGradient
       gradientTransform="matrix(2.003784,0,0,1.4,-20.01187,-104.4)"
       gradientUnits="userSpaceOnUse"
       xlink:href="#linearGradient3688-464-309-9-2-4-2"
       id="radialGradient3339-1-4"
       fy="43.5"
       fx="4.9929786"
       r="2.5"
       cy="43.5"
       cx="4.9929786" />
    <linearGradient
       id="linearGradient3688-464-309-9-2-4-2">
      <stop
         offset="0"
         style="stop-color:#181818;stop-opacity:1"
         id="stop2889-7-9-6-9" />
      <stop
         offset="1"
         style="stop-color:#181818;stop-opacity:0"
         id="stop2891-6-6-1-7" />
    </linearGradient>
    <linearGradient
       id="linearGradient3702-501-757-8-4-1-1">
      <stop
         offset="0"
         style="stop-color:#181818;stop-opacity:0"
         id="stop2895-8-9-9-1" />
      <stop
         offset="0.5"
         style="stop-color:#181818;stop-opacity:1"
         id="stop2897-7-8-7-7" />
      <stop
         offset="1"
         style="stop-color:#181818;stop-opacity:0"
         id="stop2899-4-5-1-5" />
    </linearGradient>
    <linearGradient
       gradientUnits="userSpaceOnUse"
       xlink:href="#linearGradient3702-501-757-8-4-1-1"
       id="linearGradient4328"
       y2="39.999443"
       x2="25.058096"
       y1="47.027729"
       x1="25.058096" />
  </defs>
  <metadata
     id="metadata4335">
    <rdf:RDF>
      <cc:Work
         rdf:about="">
        <dc:format>image/svg+xml</dc:format>
        <dc:type
           rdf:resource="http://purl.org/dc/dcmitype/StillImage" />
        <dc:title></dc:title>
      </cc:Work>
    </rdf:RDF>
  </metadata>
  <g
     id="layer1">
    <g
       style="opacity:0.6"
       id="g3712-8-2-4-4"
       transform="matrix(1.5789502,0,0,0.7142857,-5.894751,27.928572)">
      <rect
         style="fill:url(#radialGradient3337-2-2);fill-opacity:1;stroke:none"
         id="rect2801-5-5-7-9"
         y="40"
         x="38"
         height="7"
         width="5" />
      <rect
         style="fill:url(#radialGradient3339-1-4);fill-opacity:1;stroke:none"
         id="rect3696-3-0-3-7"
         transform="scale(-1,-1)"
         y="-47"
         x="-10"
         height="7"
         width="5" />
      <rect
         style="fill:url(#linearGradient4328);fill-opacity:1;stroke:none"
         id="rect3700-5-6-8-4"
         y="40"
         x="10"
         height="7.0000005"
         width="28" />
    </g>
    <rect
       style="color:#000000;fill:url(#radialGradient3055);fill-opacity:1;fill-rule:nonzero;stroke:none;stroke-width:0.99999994;marker:none;visibility:visible;display:inline;overflow:visible;enable-background:accumulate"
       id="rect5505-21-3-8-5-2"
       y="4.5000019"
       x="4.4999986"
       ry="3"
       rx="3"
       height="55"
       width="55" />
    <rect
       style="opacity:0.5;fill:none;stroke:url(#linearGradient3052);stroke-width:1;stroke-linecap:round;stroke-linejoin:round;stroke-miterlimit:4;stroke-opacity:1;stroke-dasharray:none;stroke-dashoffset:0"
       id="rect6741-5-0-2-3"
       y="5.4287739"
       x="5.4999986"
       ry="2"
       rx="2"
       height="53.142479"
       width="53" />
    <rect
       style="opacity:0.4;color:#000000;fill:none;stroke:#640000;stroke-width:1;stroke-linecap:round;stroke-linejoin:round;stroke-miterlimit:4;stroke-opacity:1;stroke-dasharray:none;stroke-dashoffset:0;marker:none;visibility:visible;display:inline;overflow:visible;enable-background:accumulate"
       id="rect5505-21-3-8-9-1-1"
       y="4.5000019"
       x="4.4999986"
       ry="3"
       rx="3"
       height="55"
       width="55" />
    <path
       id="path4383"
       d="M 8.3094699,37.503969 C 7.4353844,36.488503 6.905807,35.168349 6.905807,33.723579 c 0,-1.444769 0.5295774,-2.764923 1.4036629,-3.780066 z m 2.4898941,1.696418 C 10.256891,39.011449 9.7511782,38.745129 9.2952702,38.413196 l 0,-9.379234 c 0.455908,-0.331932 0.9616208,-0.598413 1.5040938,-0.787191 z m 2.957892,0.321938 -1.052868,0 c -0.255031,0 -0.505713,-0.01822 -0.751883,-0.0503 l 0,-11.496736 c 0.24617,-0.03192 0.496852,-0.05014 0.751883,-0.05014 0.359501,0 0.711265,0.03305 1.052868,0.09592 z m 3.107981,0 -2.005302,0 0,-11.180762 c 0.353216,0.141704 0.689502,0.316456 1.004346,0.521516 0.207639,-0.876018 0.549729,-1.699643 1.000956,-2.45024 z m 3.108143,0 -2.005142,0 0,-14.569409 c 0.584228,-0.624369 1.259376,-1.162006 2.005142,-1.591632 z m 3.208408,0 -2.005135,0 0,-16.735113 c 0.635813,-0.245039 1.307095,-0.418018 2.005135,-0.507006 z m 3.208415,0 -2.005137,0 0,-17.310635 c 0.690787,0.0079 1.36223,0.09641 2.005137,0.257132 z m 3.208414,0 -2.005135,0 0,-16.656119 c 0.27712,0.114782 0.547468,0.242622 0.809117,0.384326 0.348696,-0.57133 0.74979,-1.107194 1.196179,-1.601627 l -1.61e-4,17.87342 z m 3.108463,0 -2.005457,0 0,-18.931606 c 0.61405,-0.511361 1.286296,-0.955173 2.005136,-1.320154 l 0,20.25176 z m 17.971923,0 -16.802662,0 0,-20.759896 c 0.641939,-0.234239 1.31274,-0.408669 2.005138,-0.516841 0.541826,-0.08447 1.097198,-0.129613 1.66257,-0.129613 5.624316,0 10.234775,4.338015 10.669561,9.850612 0.753012,-0.337091 1.586792,-0.526191 2.465065,-0.526191 3.336256,0 6.040888,2.704469 6.040888,6.040884 1.6e-4,3.336416 -2.704304,6.041045 -6.04056,6.041045 z"
       style="fill:#ae2109;fill-opacity:0.16862745" />
    <path
       id="path3105"
       d="M 8.3094699,39.797872 C 7.4353844,38.782406 6.905807,37.462253 6.905807,36.017483 c 0,-1.444769 0.5295774,-2.764923 1.4036629,-3.780067 z m 2.4898941,1.696419 C 10.256891,41.305353 9.7511782,41.039033 9.2952702,40.7071 l 0,-9.379234 c 0.455908,-0.331933 0.9616208,-0.598413 1.5040938,-0.78719 z m 2.957892,0.321938 -1.052868,0 c -0.255031,0 -0.505713,-0.01822 -0.751883,-0.0503 l 0,-11.496735 c 0.24617,-0.03192 0.496852,-0.05014 0.751883,-0.05014 0.359501,0 0.711265,0.03305 1.052868,0.09592 z m 3.107981,0 -2.005302,0 0,-11.180762 c 0.353216,0.141704 0.689502,0.316456 1.004346,0.521516 0.207639,-0.876018 0.549729,-1.699643 1.000956,-2.45024 z m 3.108143,0 -2.005142,0 0,-14.569409 c 0.584228,-0.624369 1.259376,-1.162006 2.005142,-1.591632 z m 3.208408,0 -2.005135,0 0,-16.735113 c 0.635813,-0.24504 1.307095,-0.418019 2.005135,-0.507007 z m 3.208415,0 -2.005137,0 0,-17.310635 c 0.690787,0.0079 1.36223,0.0964 2.005137,0.257131 z m 3.208414,0 -2.005135,0 0,-16.656119 c 0.27712,0.114782 0.547468,0.242621 0.809117,0.384326 0.348696,-0.571331 0.74979,-1.107195 1.196179,-1.601627 l -1.61e-4,17.87342 z m 3.108463,0 -2.005457,0 0,-18.931606 c 0.61405,-0.51136 1.286296,-0.955174 2.005136,-1.320154 l 0,20.25176 z m 17.971923,0 -16.802662,0 0,-20.759896 c 0.641939,-0.234238 1.31274,-0.408669 2.005138,-0.516842 0.541826,-0.08447 1.097198,-0.129612 1.66257,-0.129612 5.624316,0 10.234775,4.338015 10.669561,9.850611 0.753012,-0.33709 1.586792,-0.526191 2.465065,-0.526191 3.336256,0 6.040888,2.70447 6.040888,6.040885 1.6e-4,3.336415 -2.704304,6.041045 -6.04056,6.041045 z"
       style="fill:#ae2109;fill-opacity:0.62745098" />
    <path
       style="fill:#f4f4f4;fill-opacity:0.944"
       d="M 8.3094699,38.65092 C 7.4353844,37.635454 6.905807,36.315301 6.905807,34.870531 c 0,-1.444768 0.5295774,-2.764923 1.4036629,-3.780067 z m 2.4898941,1.696419 C 10.256891,40.158401 9.7511782,39.892081 9.2952702,39.560148 l 0,-9.379233 c 0.455908,-0.331934 0.9616208,-0.598414 1.5040938,-0.787192 z m 2.957892,0.321938 -1.052868,0 c -0.255031,0 -0.505713,-0.01822 -0.751883,-0.0503 l 0,-11.496735 c 0.24617,-0.03192 0.496852,-0.05014 0.751883,-0.05014 0.359501,0 0.711265,0.03305 1.052868,0.09592 z m 3.107981,0 -2.005302,0 0,-11.180761 c 0.353216,0.141703 0.689502,0.316456 1.004346,0.521515 0.207639,-0.876018 0.549729,-1.699643 1.000956,-2.45024 z m 3.108143,0 -2.005142,0 0,-14.569409 c 0.584228,-0.624369 1.259376,-1.162007 2.005142,-1.591632 z m 3.208408,0 -2.005135,0 0,-16.735113 c 0.635813,-0.245039 1.307095,-0.418018 2.005135,-0.507007 z m 3.208415,0 -2.005137,0 0,-17.310635 c 0.690787,0.0079 1.36223,0.09641 2.005137,0.257132 z m 3.208414,0 -2.005135,0 0,-16.656119 c 0.27712,0.114782 0.547468,0.242621 0.809117,0.384326 0.348696,-0.57133 0.74979,-1.107195 1.196179,-1.601627 l -1.61e-4,17.87342 z m 3.108463,0 -2.005457,0 0,-18.931606 c 0.61405,-0.511361 1.286296,-0.955173 2.005136,-1.320154 l 0,20.25176 z m 17.971923,0 -16.802662,0 0,-20.759896 c 0.641939,-0.234239 1.31274,-0.408669 2.005138,-0.516841 0.541826,-0.08447 1.097198,-0.129613 1.66257,-0.129613 5.624316,0 10.234775,4.338015 10.669561,9.850611 0.753012,-0.33709 1.586792,-0.526191 2.465065,-0.526191 3.336256,0 6.040888,2.704471 6.040888,6.040885 1.6e-4,3.336416 -2.704304,6.041045 -6.04056,6.041045 z"
       id="soundcloud-square-icon" />
  </g>
</svg>
