<?xml version="1.0" encoding="UTF-8" standalone="no"?>
<!-- Created with Inkscape (http://www.inkscape.org/) -->

<svg
   xmlns:dc="http://purl.org/dc/elements/1.1/"
   xmlns:cc="http://creativecommons.org/ns#"
   xmlns:rdf="http://www.w3.org/1999/02/22-rdf-syntax-ns#"
   xmlns:svg="http://www.w3.org/2000/svg"
   xmlns="http://www.w3.org/2000/svg"
   xmlns:xlink="http://www.w3.org/1999/xlink"
   xmlns:sodipodi="http://sodipodi.sourceforge.net/DTD/sodipodi-0.dtd"
   xmlns:inkscape="http://www.inkscape.org/namespaces/inkscape"
   version="1.1"
   width="64"
   height="64"
   id="svg4845"
   inkscape:version="0.48.4 r9939"
   sodipodi:docname="spotify.svg">
  <sodipodi:namedview
     pagecolor="#ffffff"
     bordercolor="#666666"
     borderopacity="1"
     objecttolerance="10"
     gridtolerance="10"
     guidetolerance="10"
     inkscape:pageopacity="0"
     inkscape:pageshadow="2"
     inkscape:window-width="1920"
     inkscape:window-height="1025"
     id="namedview41"
     showgrid="false"
     inkscape:zoom="5.6568542"
     inkscape:cx="31.310913"
     inkscape:cy="31.069332"
     inkscape:window-x="0"
     inkscape:window-y="30"
     inkscape:window-maximized="1"
     inkscape:current-layer="svg4845" />
  <defs
     id="defs4847">
    <linearGradient
       id="linearGradient4806">
      <stop
         id="stop4808"
         style="stop-color:#ffffff;stop-opacity:1"
         offset="0" />
      <stop
         id="stop4810"
         style="stop-color:#ffffff;stop-opacity:0.23529412"
         offset="0.42447853" />
      <stop
         id="stop4812"
         style="stop-color:#ffffff;stop-opacity:0.15686275"
         offset="0.82089913" />
      <stop
         id="stop4814"
         style="stop-color:#ffffff;stop-opacity:0.39215687"
         offset="1" />
    </linearGradient>
    <linearGradient
       id="linearGradient3242-7-3-8-9">
      <stop
         id="stop3244-5-8-5-3"
         style="stop-color:#eef87e;stop-opacity:1"
         offset="0" />
      <stop
         id="stop3246-9-5-1-2"
         style="stop-color:#cde34f;stop-opacity:1"
         offset="0.26238" />
      <stop
         id="stop3248-7-2-0-84"
         style="stop-color:#93b723;stop-opacity:1"
         offset="0.66093999" />
      <stop
         id="stop3250-8-2-8-3"
         style="stop-color:#5a7e0d;stop-opacity:1"
         offset="1" />
    </linearGradient>
    <radialGradient
       cx="299.44821"
       cy="-290.5918"
       r="17.1528"
       fx="297.44989"
       fy="-289.9133"
       id="XMLID_2_-8-6-1"
       gradientUnits="userSpaceOnUse"
       gradientTransform="matrix(0.8232,0.2312,0.2703,-0.9626,-96.2274,-315.3433)">
      <stop
         id="stop228-2-7-9"
         style="stop-color:#000000;stop-opacity:1"
         offset="0" />
      <stop
         id="stop230-7-5-7"
         style="stop-color:#000000;stop-opacity:0"
         offset="1" />
    </radialGradient>
    <linearGradient
       id="linearGradient2867-449-88-871-390-598-476-591-434-148-57-177-3-8">
      <stop
         id="stop3750-8-9"
         style="stop-color:#8de53e;stop-opacity:1;"
         offset="0" />
      <stop
         id="stop3752-3-2"
         style="stop-color:#95de55;stop-opacity:1;"
         offset="0.26238" />
      <stop
         id="stop3754-7-2"
         style="stop-color:#82de31;stop-opacity:1;"
         offset="0.704952" />
      <stop
         id="stop3756-9-3"
         style="stop-color:#60cc00;stop-opacity:1;"
         offset="1" />
    </linearGradient>
    <linearGradient
       id="linearGradient3820-7-2">
      <stop
         id="stop3822-2-6"
         style="stop-color:#3d3d3d;stop-opacity:1"
         offset="0" />
      <stop
         id="stop3864-8-7"
         style="stop-color:#686868;stop-opacity:0.49803922"
         offset="0.5" />
      <stop
         id="stop3824-1-2"
         style="stop-color:#686868;stop-opacity:0"
         offset="1" />
    </linearGradient>
    <radialGradient
       cx="15.645058"
       cy="8.449769"
       r="19.99999"
       fx="-0.22334664"
       fy="8.44977"
       id="radialGradient5007"
       xlink:href="#linearGradient2867-449-88-871-390-598-476-591-434-148-57-177-3-8"
       gradientUnits="userSpaceOnUse"
       gradientTransform="matrix(-9.6613255e-8,1.5876869,-1.495831,-1.0935756e-7,44.6396,2.8743392)" />
    <linearGradient
       x1="-1085.9586"
       y1="539.40955"
       x2="-474.68497"
       y2="375.61926"
       id="linearGradient5009"
       xlink:href="#XMLID_2_-8-6-1"
       gradientUnits="userSpaceOnUse"
       gradientTransform="matrix(0.1011621,0,0,0.08500722,118.6948,-5.5605522)" />
    <radialGradient
       cx="18.164446"
       cy="8.449769"
       r="19.99999"
       fx="8.894803"
       fy="8.5985041"
       id="radialGradient5011"
       xlink:href="#linearGradient3242-7-3-8-9"
       gradientUnits="userSpaceOnUse"
       gradientTransform="matrix(0,1.9915335,-1.8772441,-2.2997302e-8,47.862448,-4.4613112)" />
    <linearGradient
       x1="71.204407"
       y1="15.369057"
       x2="71.204407"
       y2="40.495617"
       id="linearGradient5013"
       xlink:href="#linearGradient4806"
       gradientUnits="userSpaceOnUse"
       gradientTransform="matrix(2.3268746,0,0,2.3268746,-135.94475,-32.842783)" />
    <radialGradient
       cx="99.157013"
       cy="186.17059"
       r="62.769119"
       fx="99.157013"
       fy="186.17059"
       id="radialGradient5015"
       xlink:href="#linearGradient3820-7-2"
       gradientUnits="userSpaceOnUse"
       gradientTransform="matrix(1,0,0,0.1666667,0,155.14216)" />
    <linearGradient
       inkscape:collect="always"
       xlink:href="#linearGradient4806"
       id="linearGradient3796"
       x1="31.972326"
       y1="3.8841453"
       x2="31.972326"
       y2="61.889656"
       gradientUnits="userSpaceOnUse" />
  </defs>
  <metadata
     id="metadata4850">
    <rdf:RDF>
      <cc:Work
         rdf:about="">
        <dc:format>image/svg+xml</dc:format>
        <dc:type
           rdf:resource="http://purl.org/dc/dcmitype/StillImage" />
        <dc:title></dc:title>
      </cc:Work>
    </rdf:RDF>
  </metadata>
  <g
     id="g3911">
    <g
       id="g3798">
      <g
         id="layer1">
        <path
           d="m 161.92613,186.17059 a 62.769119,10.461519 0 1 1 -125.538236,0 62.769119,10.461519 0 1 1 125.538236,0 z"
           transform="matrix(0.38235362,0,0,0.71691308,-5.913044,-76.968133)"
           id="path3818-0"
           style="fill:url(#radialGradient5015);fill-opacity:1;stroke:none" />
        <path
           d="m 32,2.4999994 c -16.277082,0 -29.5,13.2229146 -29.5,29.4999976 0,16.277083 13.222918,29.500005 29.5,29.5 16.27708,0 29.50001,-13.222917 29.5,-29.5 C 61.5,15.722914 48.27708,2.4999994 32,2.4999994 z"
           inkscape:connector-curvature="0"
           id="path2555-7"
           style="color:#000000;fill:url(#radialGradient5007);fill-opacity:1;fill-rule:nonzero;stroke:none;stroke-width:1;marker:none;visibility:visible;display:inline;overflow:visible;enable-background:accumulate" />
        <path
           d="m 32,2.499999 c -16.277082,0 -29.5,13.222915 -29.5,29.499998 0,16.277083 13.222918,29.500005 29.5,29.5 16.27708,0 29.50001,-13.222917 29.5,-29.5 C 61.5,15.722914 48.27708,2.499999 32,2.499999 z"
           inkscape:connector-curvature="0"
           id="path2555-7-1"
           style="opacity:0.4;color:#000000;fill:none;stroke:#000000;stroke-width:1;stroke-linecap:round;stroke-linejoin:round;stroke-miterlimit:4;stroke-opacity:1;stroke-dasharray:none;stroke-dashoffset:0;marker:none;visibility:visible;display:inline;overflow:visible;enable-background:accumulate" />
      </g>
      <path
         sodipodi:type="arc"
         style="opacity:0.40000000000000002;fill:none;stroke:url(#linearGradient3796);stroke-width:1;stroke-miterlimit:4;stroke-opacity:1;stroke-dasharray:none;fill-opacity:1"
         id="path3020"
         sodipodi:cx="32.023548"
         sodipodi:cy="32.935242"
         sodipodi:rx="28.499874"
         sodipodi:ry="28.499874"
         d="m 60.523422,32.935242 a 28.499874,28.499874 0 1 1 -56.999748,0 28.499874,28.499874 0 1 1 56.999748,0 z"
         transform="translate(-0.02354813,-0.9352417)" />
    </g>
    <g
       id="g3882">
      <g
         id="g3869">
        <path
           sodipodi:nodetypes="sssssssss"
           inkscape:connector-curvature="0"
           id="rect3883"
           d="m 17.298088,40.902181 c 0.5927,-2.211986 2.511307,-2.908051 4.505133,-2.908051 3.046229,0 6.075666,0.293311 8.946667,1.062595 2.871,0.769281 5.750306,2.092963 8.279337,3.553099 1.726704,0.996913 2.991573,2.740627 2.412776,4.900726 -0.44672,1.667187 -2.298784,2.114913 -4.025488,1.117998 -2.504852,-1.446176 -5.408337,-2.783817 -8.279338,-3.553099 -2.871001,-0.769284 -5.985761,-1.062595 -8.946666,-1.062595 -1.993826,0 -3.339143,-1.443486 -2.892421,-3.110673 z"
           style="opacity:0.9;fill:#1a1a1a;fill-opacity:1;stroke:none" />
        <path
           style="opacity:0.9;fill:#1a1a1a;fill-opacity:1;stroke:none"
           d="m 14.48274,30.10568 c 0.592699,-2.211984 2.511306,-2.90805 4.505132,-2.908051 3.046229,1e-6 8.414615,0.369513 14.734347,2.06288 5.80609,1.555737 10.715029,3.816484 13.24406,5.276623 1.726704,0.996912 2.991575,2.740624 2.412777,4.900724 -0.446721,1.667187 -2.298785,2.114913 -4.025488,1.118 C 42.848715,39.10968 38.062352,36.874294 32.109506,35.279234 26.523547,33.78248 20.336065,33.216355 17.37516,33.216355 c -1.993826,0 -3.339141,-1.443488 -2.89242,-3.110675 z"
           id="path3895"
           inkscape:connector-curvature="0"
           sodipodi:nodetypes="sssssssss" />
        <path
           sodipodi:nodetypes="sssssssss"
           inkscape:connector-curvature="0"
           id="path3897"
           d="m 12.346123,19.69258 c 0.592699,-2.211986 2.511306,-2.908051 4.505132,-2.908051 3.046229,0 11.800505,0.647594 19.147517,2.61622 9.3282,2.499482 14.192548,5.220155 16.72158,6.680294 1.726704,0.996912 2.991572,2.740624 2.412776,4.900724 -0.446721,1.667186 -2.298785,2.114913 -4.02549,1.117999 C 48.602789,30.653589 40.045396,26.935888 34.38606,25.419475 27.99295,23.706446 18.199449,22.803253 15.238543,22.803253 c -1.993826,0 -3.339141,-1.443488 -2.89242,-3.110673 z"
           style="opacity:0.9;fill:#1a1a1a;fill-opacity:1;stroke:none" />
      </g>
      <g
         id="g3874"
         style="fill:#ffffff;opacity:0.2"
         transform="translate(0,1.4142136)">
        <path
           style="opacity:0.90000000000000002;fill:#ffffff;fill-opacity:1;stroke:none"
           d="m 17.298088,40.902181 c 0.5927,-2.211986 2.511307,-2.908051 4.505133,-2.908051 3.046229,0 6.075666,0.293311 8.946667,1.062595 2.871,0.769281 5.750306,2.092963 8.279337,3.553099 1.726704,0.996913 2.991573,2.740627 2.412776,4.900726 -0.44672,1.667187 -2.298784,2.114913 -4.025488,1.117998 -2.504852,-1.446176 -5.408337,-2.783817 -8.279338,-3.553099 -2.871001,-0.769284 -5.985761,-1.062595 -8.946666,-1.062595 -1.993826,0 -3.339143,-1.443486 -2.892421,-3.110673 z"
           id="path3876"
           inkscape:connector-curvature="0"
           sodipodi:nodetypes="sssssssss" />
        <path
           sodipodi:nodetypes="sssssssss"
           inkscape:connector-curvature="0"
           id="path3878"
           d="m 14.48274,30.10568 c 0.592699,-2.211984 2.511306,-2.90805 4.505132,-2.908051 3.046229,1e-6 8.414615,0.369513 14.734347,2.06288 5.80609,1.555737 10.715029,3.816484 13.24406,5.276623 1.726704,0.996912 2.991575,2.740624 2.412777,4.900724 -0.446721,1.667187 -2.298785,2.114913 -4.025488,1.118 C 42.848715,39.10968 38.062352,36.874294 32.109506,35.279234 26.523547,33.78248 20.336065,33.216355 17.37516,33.216355 c -1.993826,0 -3.339141,-1.443488 -2.89242,-3.110675 z"
           style="opacity:0.90000000000000002;fill:#ffffff;fill-opacity:1;stroke:none" />
        <path
           style="opacity:0.90000000000000002;fill:#ffffff;fill-opacity:1;stroke:none"
           d="m 12.346123,19.69258 c 0.592699,-2.211986 2.511306,-2.908051 4.505132,-2.908051 3.046229,0 11.800505,0.647594 19.147517,2.61622 9.3282,2.499482 14.192548,5.220155 16.72158,6.680294 1.726704,0.996912 2.991572,2.740624 2.412776,4.900724 -0.446721,1.667186 -2.298785,2.114913 -4.02549,1.117999 C 48.602789,30.653589 40.045396,26.935888 34.38606,25.419475 27.99295,23.706446 18.199449,22.803253 15.238543,22.803253 c -1.993826,0 -3.339141,-1.443488 -2.89242,-3.110673 z"
           id="path3880"
           inkscape:connector-curvature="0"
           sodipodi:nodetypes="sssssssss" />
      </g>
    </g>
  </g>
</svg>
