<?xml version="1.0" encoding="UTF-8" standalone="no"?>
<svg
   xmlns:dc="http://purl.org/dc/elements/1.1/"
   xmlns:cc="http://creativecommons.org/ns#"
   xmlns:rdf="http://www.w3.org/1999/02/22-rdf-syntax-ns#"
   xmlns:svg="http://www.w3.org/2000/svg"
   xmlns="http://www.w3.org/2000/svg"
   xmlns:xlink="http://www.w3.org/1999/xlink"
   xmlns:sodipodi="http://sodipodi.sourceforge.net/DTD/sodipodi-0.dtd"
   xmlns:inkscape="http://www.inkscape.org/namespaces/inkscape"
   height="64"
   width="64"
   version="1.1"
   id="svg2"
   inkscape:version="0.91 r13725"
   sodipodi:docname="synfig.svg">
  <metadata
     id="metadata52">
    <rdf:RDF>
      <cc:Work
         rdf:about="">
        <dc:format>image/svg+xml</dc:format>
        <dc:type
           rdf:resource="http://purl.org/dc/dcmitype/StillImage" />
        <dc:title />
      </cc:Work>
    </rdf:RDF>
  </metadata>
  <sodipodi:namedview
     pagecolor="#ffffff"
     bordercolor="#666666"
     borderopacity="1"
     objecttolerance="10"
     gridtolerance="10"
     guidetolerance="10"
     inkscape:pageopacity="0"
     inkscape:pageshadow="2"
     inkscape:window-width="1600"
     inkscape:window-height="837"
     id="namedview50"
     showgrid="true"
     inkscape:snap-bbox="true"
     inkscape:bbox-nodes="true"
     inkscape:bbox-paths="true"
     inkscape:zoom="5.6568543"
     inkscape:cx="34.379508"
     inkscape:cy="47.547964"
     inkscape:window-x="0"
     inkscape:window-y="30"
     inkscape:window-maximized="1"
     inkscape:current-layer="svg2"
     inkscape:object-nodes="true"
     inkscape:snap-intersection-paths="true"
     inkscape:object-paths="true"
     inkscape:snap-smooth-nodes="true">
    <inkscape:grid
       type="xygrid"
       id="grid4231" />
  </sodipodi:namedview>
  <defs
     id="defs4">
    <linearGradient
       inkscape:collect="always"
       id="linearGradient4346">
      <stop
         style="stop-color:#1f85ff;stop-opacity:1"
         offset="0"
         id="stop4348" />
      <stop
         style="stop-color:#89b9f3;stop-opacity:0.94901961"
         offset="1"
         id="stop4350" />
    </linearGradient>
    <linearGradient
       id="c"
       y2="40.496"
       gradientUnits="userSpaceOnUse"
       x2="71.204"
       gradientTransform="matrix(2.3269,0,0,2.3269,-125.20156,-28.049056)"
       y1="15.369"
       x1="71.204">
      <stop
         stop-color="#fff"
         offset="0"
         id="stop7" />
      <stop
         stop-color="#fff"
         stop-opacity=".23529"
         offset=".42448"
         id="stop9" />
      <stop
         stop-color="#fff"
         stop-opacity=".15686"
         offset=".82090"
         id="stop11" />
      <stop
         stop-color="#fff"
         stop-opacity=".39216"
         offset="1"
         id="stop13" />
    </linearGradient>
    <radialGradient
       id="a"
       gradientUnits="userSpaceOnUse"
       cy="3.8502"
       cx="17.187"
       gradientTransform="matrix(0 8.3346 -10.16 0 71.885 -169.24)"
       r="20.397">
      <stop
         stop-color="#ffcd7d"
         offset="0"
         id="stop16" />
      <stop
         stop-color="#fc8f36"
         offset=".26238"
         id="stop18" />
      <stop
         stop-color="#e23a0e"
         offset=".70495"
         id="stop20" />
      <stop
         stop-color="#ac441f"
         offset="1"
         id="stop22" />
    </radialGradient>
    <radialGradient
       id="b"
       gradientUnits="userSpaceOnUse"
       cy="186.17"
       cx="99.157"
       gradientTransform="matrix(1 0 0 .16667 0 155.14)"
       r="62.769">
      <stop
         stop-color="#3d3d3d"
         offset="0"
         id="stop25" />
      <stop
         stop-color="#686868"
         stop-opacity=".49804"
         offset=".5"
         id="stop27" />
      <stop
         stop-color="#686868"
         stop-opacity="0"
         offset="1"
         id="stop29" />
    </radialGradient>
    <linearGradient
       id="d"
       y2="51.388"
       gradientUnits="userSpaceOnUse"
       x2="30"
       y1="11.119"
       x1="30">
      <stop
         stop-color="#fff5ef"
         offset="0"
         id="stop32" />
      <stop
         stop-color="#fef8dd"
         offset="1"
         id="stop34" />
    </linearGradient>
    <radialGradient
       r="62.769119"
       fy="186.17059"
       fx="99.157013"
       cy="186.17059"
       cx="99.157013"
       gradientTransform="matrix(0.3434702,0,0,0.10730847,60.904385,35.965409)"
       gradientUnits="userSpaceOnUse"
       id="radialGradient3163-6"
       xlink:href="#linearGradient3820-7-2-8-6" />
    <linearGradient
       id="linearGradient3820-7-2-8-6">
      <stop
         offset="0"
         style="stop-color:#3d3d3d;stop-opacity:1"
         id="stop3822-2-6-5-0" />
      <stop
         offset="0.5"
         style="stop-color:#686868;stop-opacity:0.49803922"
         id="stop3864-8-7-4-1" />
      <stop
         offset="1"
         style="stop-color:#686868;stop-opacity:0"
         id="stop3824-1-2-6-7" />
    </linearGradient>
    <linearGradient
       inkscape:collect="always"
       xlink:href="#linearGradient4223-3"
       id="linearGradient4239"
       gradientUnits="userSpaceOnUse"
       x1="64.000008"
       y1="-5.9801226"
       x2="64.000008"
       y2="82.661423"
       gradientTransform="matrix(0.42869288,0,0,0.42869287,-59.436348,-59.436364)" />
    <linearGradient
       id="linearGradient4223-3"
       inkscape:collect="always">
      <stop
         id="stop4233"
         offset="0"
         style="stop-color:#ffffff;stop-opacity:1;" />
      <stop
         id="stop4235"
         offset="1"
         style="stop-color:#ffffff;stop-opacity:0;" />
    </linearGradient>
    <linearGradient
       gradientTransform="matrix(0.42856856,0,0,0.42856855,4.571617,4.571631)"
       inkscape:collect="always"
       xlink:href="#linearGradient4223-3"
       id="linearGradient4229"
       x1="66.333336"
       y1="-6.0005126"
       x2="66.333336"
       y2="63.999958"
       gradientUnits="userSpaceOnUse" />
    <linearGradient
       inkscape:collect="always"
       xlink:href="#linearGradient4346"
       id="linearGradient4352"
       x1="-22.118645"
       y1="51.457588"
       x2="-22.201471"
       y2="11.076253"
       gradientUnits="userSpaceOnUse"
       gradientTransform="matrix(1.0018486,0,0,0.99999065,54.065196,-0.4575191)" />
  </defs>
  <path
     d="m161.93 186.17a62.769 10.462 0 1 1 -125.54 0 62.769 10.462 0 1 1 125.54 0z"
     transform="matrix(.38235 0 0 .71691 -5.913 -76.968)"
     fill="url(#b)"
     id="path36" />
  <path
     style="color:#000000;fill:#1b344c;fill-opacity:1"
     d="m32 2.5c-16.277 0-29.5 13.223-29.5 29.5s13.223 29.5 29.5 29.5 29.5-13.223 29.5-29.5-13.223-29.5-29.5-29.5z"
     fill="url(#a)"
     id="path38" />
  <circle
     style="display:inline;opacity:1;fill:none;fill-opacity:1;stroke:url(#linearGradient4229);stroke-width:0.9925229;stroke-miterlimit:4;stroke-dasharray:none;stroke-opacity:0.52597405"
     id="circle4220"
     cx="32"
     cy="32"
     r="28.503738" />
  <path
     d="m 31,14 c -3.60452,4.173109 -6.865718,9.657222 -8.619653,14.339622 -1.918759,5.8704 -2.829656,10.01966 -3.358506,15.709575 -0.02184,0.275573 -0.02184,0.477617 -0.0036,0.648081 0.01234,0.04948 -0.01824,0.227143 0.18403,0.302722 0.227744,0.06252 0.590882,0.112839 0.797729,0.149999 4.765481,0.762375 7.826945,3.320999 11,6.162501 0.492553,0.441086 0.664034,0.6875 1,0.6875 0.335966,0 0.470173,-0.200547 1,-0.6875 3.33713,-3.067086 6.909607,-5.719747 11,-6.191949 C 44.353553,45.087405 44.716152,45 44.716152,45 45,44.936786 44.999631,44.814161 44.999509,44.584149 l 0,-0.167652 C 44.600234,39.083387 43.251335,32.787542 41.605271,28.268623 39.500375,22.56521 36.564587,18.431721 33,14 c -0.507853,-0.64309 -0.823551,-1 -1,-1 -0.176449,0 -0.508309,0.443172 -1,1 z"
     id="path4356"
     style="display:inline;opacity:0.07000002;fill:#000000;fill-opacity:1;stroke:#000000;stroke-opacity:1"
     inkscape:connector-curvature="0"
     sodipodi:nodetypes="ccccccszscccccczc" />
  <circle
     cy="-32"
     cx="-32"
     id="ellipse4237"
     style="display:inline;opacity:0.5;fill:none;fill-opacity:1;stroke:url(#linearGradient4239);stroke-width:0.97598356;stroke-miterlimit:4;stroke-dasharray:none;stroke-opacity:0.52597405"
     transform="scale(-1,-1)"
     r="28.512009" />
  <path
     style="color:#000000;stroke:#102940;stroke-opacity:1"
     d="m32 2.5c-16.277 0-29.5 13.223-29.5 29.5s13.223 29.5 29.5 29.5 29.5-13.223 29.5-29.5-13.223-29.5-29.5-29.5z"
     id="path40"
     stroke-linejoin="round"
     stroke-linecap="round"
     stroke="#640000"
     fill="none"
     opacity=".4" />
  <path
     sodipodi:nodetypes="ccccccszscccccczc"
     inkscape:connector-curvature="0"
     style="display:inline;opacity:0.15;fill:#000000;fill-opacity:1"
     id="path4354"
     d="m 31,14 c -3.60452,4.173109 -6.865718,9.657222 -8.619653,14.339622 -1.918759,5.8704 -2.829656,10.01966 -3.358506,15.709575 -0.02184,0.275573 -0.02184,0.477617 -0.0036,0.648081 0.01234,0.04948 -0.01824,0.227143 0.18403,0.302722 0.227744,0.06252 0.590882,0.112839 0.797729,0.149999 4.765481,0.762375 7.826945,3.320999 11,6.162501 0.492553,0.441086 0.664034,0.6875 1,0.6875 0.335966,0 0.470173,-0.200547 1,-0.6875 3.33713,-3.067086 6.909607,-5.719747 11,-6.191949 C 44.353553,45.087405 44.716152,45 44.716152,45 45,44.936786 44.999631,44.814161 44.999509,44.584149 l 0,-0.167652 C 44.600234,39.083387 43.251335,32.787542 41.605271,28.268623 39.500375,22.56521 36.564587,18.431721 33,14 c -0.507853,-0.64309 -0.823551,-1 -1,-1 -0.176449,0 -0.508309,0.443172 -1,1 z" />
  <path
     d="m 31,13 c -3.60452,4.173109 -6.865718,9.657222 -8.619653,14.339622 -1.918759,5.8704 -2.829656,10.01966 -3.358506,15.709575 -0.02184,0.275573 -0.02184,0.477617 -0.0036,0.648081 0.01234,0.04948 -0.01824,0.227143 0.18403,0.302722 0.227744,0.06252 0.590882,0.112839 0.797729,0.149999 4.765481,0.762375 7.826945,3.320999 11,6.162501 0.492553,0.441086 0.664034,0.6875 1,0.6875 0.335966,0 0.470173,-0.200547 1,-0.6875 3.33713,-3.067086 6.909607,-5.719747 11,-6.191949 C 44.353553,44.087405 44.716152,44 44.716152,44 45,43.936786 44.999631,43.814161 44.999509,43.584149 l 0,-0.167652 C 44.600234,38.083387 43.251335,31.787542 41.605271,27.268623 39.500375,21.56521 36.564587,17.431721 33,13 c -0.507853,-0.64309 -0.823551,-1 -1,-1 -0.176449,0 -0.508309,0.443172 -1,1 z"
     id="path4342"
     style="display:inline;opacity:1;fill:url(#linearGradient4352);fill-opacity:1"
     inkscape:connector-curvature="0"
     sodipodi:nodetypes="ccccccszscccccczc" />
</svg>
