<?xml version="1.0" encoding="UTF-8" standalone="no"?>
<!-- Created with Inkscape (http://www.inkscape.org/) -->
<svg id="svg6086" xmlns:rdf="http://www.w3.org/1999/02/22-rdf-syntax-ns#" xmlns="http://www.w3.org/2000/svg" height="64" width="64" version="1.1" xmlns:cc="http://creativecommons.org/ns#" xmlns:dc="http://purl.org/dc/elements/1.1/">
 <defs id="defs6088">
  <radialGradient id="radialGradient3337-2-2" gradientUnits="userSpaceOnUse" cy="43.5" cx="4.993" gradientTransform="matrix(2.003784,0,0,1.4,27.98813,-17.4)" r="2.5">
   <stop id="stop2883-4-0-1-8" stop-color="#181818" offset="0"/>
   <stop id="stop2885-9-2-9-6" stop-color="#181818" stop-opacity="0" offset="1"/>
  </radialGradient>
  <radialGradient id="radialGradient3339-1-4" gradientUnits="userSpaceOnUse" cy="43.5" cx="4.993" gradientTransform="matrix(2.003784,0,0,1.4,-20.01187,-104.4)" r="2.5">
   <stop id="stop2889-7-9-6-9" stop-color="#181818" offset="0"/>
   <stop id="stop2891-6-6-1-7" stop-color="#181818" stop-opacity="0" offset="1"/>
  </radialGradient>
  <linearGradient id="linearGradient6084" y2="39.999" gradientUnits="userSpaceOnUse" y1="47.028" x2="25.058" x1="25.058">
   <stop id="stop2895-8-9-9-1" stop-color="#181818" stop-opacity="0" offset="0"/>
   <stop id="stop2897-7-8-7-7" stop-color="#181818" offset="0.5"/>
   <stop id="stop2899-4-5-1-5" stop-color="#181818" stop-opacity="0" offset="1"/>
  </linearGradient>
  <linearGradient id="linearGradient4326" x1="71.123" gradientUnits="userSpaceOnUse" y1="29.909" gradientTransform="matrix(0.5,0,0,0.5,0.17006163,-1.674651)" x2="71.246" y2="100.71">
   <stop id="stop4336" stop-color="#323232" offset="0"/>
   <stop id="stop4338" stop-color="#191919" offset="1"/>
  </linearGradient>
  <linearGradient id="linearGradient3121" x1="24" gradientUnits="userSpaceOnUse" y1="5" gradientTransform="matrix(1.4324324,0,0,1.4324324,-2.378381,-2.3783712)" x2="24" y2="43">
   <stop id="stop3926-9-4-9-6" stop-color="#FFF" offset="0"/>
   <stop id="stop3928-9-8-6-5" stop-color="#FFF" stop-opacity="0.23529412" offset="0.063165"/>
   <stop id="stop3930-3-5-1-7" stop-color="#FFF" stop-opacity="0.15686275" offset="0.95056"/>
   <stop id="stop3932-8-0-4-8" stop-color="#FFF" stop-opacity="0.39215687" offset="1"/>
  </linearGradient>
  <radialGradient id="radialGradient3130" gradientUnits="userSpaceOnUse" cy="10.022" cx="6.7716" gradientTransform="matrix(0,12.886614,-11.544185,0,147.47589,-110.18913)" r="12.672">
   <stop id="stop3818" stop-color="#ff9994" offset="0"/>
   <stop id="stop3820" stop-color="#fd4d4d" offset="0.26238"/>
   <stop id="stop3822" stop-color="#e20e0e" offset="0.70495"/>
   <stop id="stop3824" stop-color="#ac301f" offset="1"/>
  </radialGradient>
 </defs>
 <metadata id="metadata6091">
  <rdf:RDF>
   <cc:Work rdf:about="">
    <dc:format>image/svg+xml</dc:format>
    <dc:type rdf:resource="http://purl.org/dc/dcmitype/StillImage"/>
    <dc:title/>
   </cc:Work>
  </rdf:RDF>
 </metadata>
 <g id="g3712-8-2-4-4" opacity="0.6" transform="matrix(1.5789502,0,0,0.7142857,-5.894751,27.928572)">
  <rect id="rect2801-5-5-7-9" height="7" width="5" y="40" x="38" fill="url(#radialGradient3337-2-2)"/>
  <rect id="rect3696-3-0-3-7" transform="scale(-1,-1)" height="7" width="5" y="-47" x="-10" fill="url(#radialGradient3339-1-4)"/>
  <rect id="rect3700-5-6-8-4" height="7" width="28" y="40" x="10" fill="url(#linearGradient6084)"/>
 </g>
 <rect id="rect5505-21-3-8-5-2" style="color:#000000;enable-background:accumulate;" fill-rule="nonzero" rx="3" ry="3" height="55" width="55" y="4.5" x="4.5" fill="url(#radialGradient3130)"/>
 <rect id="rect6741-5-0-2-3" opacity="0.5" stroke-linejoin="round" stroke-width="1" rx="2" stroke-dashoffset="0" ry="2" width="53" stroke="url(#linearGradient3121)" stroke-linecap="round" stroke-dasharray="none" x="5.5" y="5.5" stroke-miterlimit="4" height="53" fill="none"/>
 <rect id="rect5505-21-3-8-9-1-1" opacity="0.4" stroke-linejoin="round" style="color:#000000;enable-background:accumulate;" stroke-width="1" rx="3" stroke-dashoffset="0" ry="3" width="55" stroke="#640000" stroke-linecap="round" stroke-dasharray="none" x="4.5" y="4.5" stroke-miterlimit="4" height="55" fill="none"/>
 <path id="path3039" opacity="0.15" fill="#000" d="m48.511,19.026c-6.4381,4.7048-15.833,0.6106-23.817-1.3831-2.7395-0.68407-5.5062-0.61852-6.9678,0.32149-9.206,5.921-1.6312,16.166,9.6469,14.231,0.81828-0.04548-4.105,5.0299-2.0079,12.117,3.0519,10.313,16.842,7.1499,19.335-1.0878,0.81922-2.7075,1.0218-10.67-6.848-7.4894-1.5637,0.63192-4.7599,3.2034-5.7342,6.9818-0.41367,1.6043,1.5925,1.4516,1.9678,0.84665,6.6836-10.772,9.6876-5.4333,7.4638-0.52979-2.0615,4.5457-10.615,9.7631-12.77,0.13963-0.7768-3.4688,3.5087-11.535,3.7311-11.571,2.8973-0.47263,5.4165-1.0666,6.9601-1.2929,1.1985-0.53526,1.1418-2.2475-0.76191-2.1068-1.4158,0.23892-2.9211,0.58318-4.4863,0.92-0.38585,0.08303,1.3769-1.8366,1.8021-2.6046,0.69714-1.2592,0.48346-1.7294-0.99619-1.4862-5.2899,0.86949-5.3775,4.9407-6.1921,5.0298-3.6561,0.39971-7.9715,0.2909-10.812-1.4263-2.8407-1.7173-2.6333-7.0355,1.0772-7.6708,3.4824-0.59621,19.656,7.9293,30.784,0.12313,1.1645-0.81686,0.14348-3.1703-1.3738-2.0616z"/>
 <path id="path4313" opacity="0.3" fill="#000" d="m48.511,18.026c-6.4381,4.7048-15.833,0.6106-23.817-1.3831-2.7395-0.68407-5.5062-0.61852-6.9678,0.32149-9.206,5.921-1.6312,16.166,9.6469,14.231,0.81828-0.04548-4.105,5.0299-2.0079,12.117,3.0519,10.313,16.842,7.1499,19.335-1.0878,0.81922-2.7075,1.0218-10.67-6.848-7.4894-1.5637,0.63192-4.7599,3.2034-5.7342,6.9818-0.41367,1.6043,1.5925,1.4516,1.9678,0.84665,6.6836-10.772,9.6876-5.4333,7.4638-0.52979-2.0615,4.5457-10.615,9.7631-12.77,0.13963-0.7768-3.4688,3.5087-11.535,3.7311-11.571,2.8973-0.47263,5.4165-1.0666,6.9601-1.2929,1.1985-0.53526,1.1418-2.2475-0.76191-2.1068-1.4158,0.23892-2.9211,0.58318-4.4863,0.92-0.38585,0.08303,1.3769-1.8366,1.8021-2.6046,0.69714-1.2592,0.48346-1.7294-0.99619-1.4862-5.2899,0.86949-5.3775,4.9407-6.1921,5.0298-3.6561,0.39971-7.9715,0.2909-10.812-1.4263-2.8407-1.7173-2.6333-7.0355,1.0772-7.6708,3.4824-0.59621,19.656,7.9293,30.784,0.12313,1.1645-0.81686,0.14348-3.1703-1.3738-2.0616z"/>
 <path id="path4324" fill="url(#linearGradient4326)" d="m48.511,17.026c-6.4381,4.7048-15.833,0.6106-23.817-1.3831-2.7395-0.68407-5.5062-0.61852-6.9678,0.32149-9.206,5.921-1.6312,16.166,9.6469,14.231,0.81828-0.04548-4.105,5.0299-2.0079,12.117,3.0519,10.313,16.842,7.1499,19.335-1.0878,0.81922-2.7075,1.0218-10.67-6.848-7.4894-1.5637,0.63192-4.7599,3.2034-5.7342,6.9818-0.41367,1.6043,1.5925,1.4516,1.9678,0.84665,6.6836-10.772,9.6876-5.4333,7.4638-0.52979-2.0615,4.5457-10.615,9.7631-12.77,0.13963-0.7768-3.4688,3.5087-11.535,3.7311-11.571,2.8973-0.47263,5.4165-1.0666,6.9601-1.2929,1.1985-0.53526,1.1418-2.2475-0.76191-2.1068-1.4158,0.23892-2.9211,0.58318-4.4863,0.92-0.38585,0.08303,1.3769-1.8366,1.8021-2.6046,0.69714-1.2592,0.48346-1.7294-0.99619-1.4862-5.2899,0.86949-5.3775,4.9407-6.1921,5.0298-3.6561,0.39971-7.9715,0.2909-10.812-1.4263-2.8407-1.7173-2.6333-7.0355,1.0772-7.6708,3.4824-0.59621,19.656,7.9293,30.784,0.12313,1.1645-0.81686,0.14348-3.1703-1.3738-2.0616z"/>
</svg>
