<?xml version="1.0" encoding="UTF-8" standalone="no"?>
<svg xmlns:rdf="http://www.w3.org/1999/02/22-rdf-syntax-ns#" xmlns="http://www.w3.org/2000/svg" height="64" width="64" version="1.1" xmlns:cc="http://creativecommons.org/ns#" xmlns:xlink="http://www.w3.org/1999/xlink" xmlns:dc="http://purl.org/dc/elements/1.1/">
 <defs>
  <linearGradient id="i" y2="24.628" gradientUnits="userSpaceOnUse" x2="20.055" gradientTransform="matrix(1.2626 0 0 1.3398 1.698 3.0028)" y1="15.298" x1="16.626">
   <stop stop-color="#fff" offset="0"/>
   <stop stop-color="#fff" stop-opacity="0" offset="1"/>
  </linearGradient>
  <linearGradient id="l" y2="44" gradientUnits="userSpaceOnUse" x2="16.143" gradientTransform="matrix(1.2052 0 0 .94879 3.0753 12.229)" y1="4" x1="16.143">
   <stop stop-color="#fff" offset="0"/>
   <stop stop-color="#fff" stop-opacity="0" offset="1"/>
  </linearGradient>
  <radialGradient id="d" gradientUnits="userSpaceOnUse" cy="8.4498" cx="7.4957" gradientTransform="matrix(0 2.2999 -3.8677 -9.7047e-8 64.681 -1.158)" r="20">
   <stop stop-color="#4a5653" offset="0"/>
   <stop stop-color="#141414" offset="1"/>
  </radialGradient>
  <linearGradient id="k" y2="44" gradientUnits="userSpaceOnUse" x2="16.143" gradientTransform="matrix(1.2565 0 0 1.0001 1.8444 10.999)" y1="4" x1="16.143">
   <stop stop-color="#323232" offset="0"/>
   <stop offset="1"/>
  </linearGradient>
  <linearGradient id="h" y2="47.279" gradientUnits="userSpaceOnUse" x2="12.213" gradientTransform="matrix(1.2655 0 0 1.2039 1.6269 7.3166)" y1="2.9165" x1="12.579">
   <stop stop-color="#fff" offset="0"/>
   <stop stop-color="#fff" stop-opacity="0" offset="1"/>
  </linearGradient>
  <linearGradient id="g" y2="33.296" gradientUnits="userSpaceOnUse" x2="23.071" gradientTransform="matrix(1.296 0 0 1.3378 .90331 8.2994)" y1="36.047" x1="23.071">
   <stop stop-color="#fff" offset="0"/>
   <stop stop-color="#fff" stop-opacity="0" offset="1"/>
  </linearGradient>
  <linearGradient id="f" y2="43.865" gradientUnits="userSpaceOnUse" x2="24" gradientTransform="matrix(1.3111 0 0 1.3243 .53297 .56708)" y1="7.96" x1="24">
   <stop stop-color="#f0f0f0" offset="0"/>
   <stop stop-color="#d7d7d8" offset=".085525"/>
   <stop stop-color="#b2b2b3" offset=".92166"/>
   <stop stop-color="#979798" offset="1"/>
  </linearGradient>
  <linearGradient id="e" y2="2.8765" gradientUnits="userSpaceOnUse" x2="10.014" gradientTransform="matrix(1.2553 0 0 1.1965 1.8719 6.2692)" y1="44.96" x1="10.014">
   <stop stop-color="#595959" offset="0"/>
   <stop stop-color="#b3b3b3" offset="1"/>
  </linearGradient>
  <radialGradient id="c" xlink:href="#a" gradientUnits="userSpaceOnUse" cy="486.65" cx="605.71" gradientTransform="matrix(-.087450 0 0 .032941 63.59 42.589)" r="117.14"/>
  <linearGradient id="a">
   <stop offset="0"/>
   <stop stop-opacity="0" offset="1"/>
  </linearGradient>
  <radialGradient id="b" xlink:href="#a" gradientUnits="userSpaceOnUse" cy="486.65" cx="605.71" gradientTransform="matrix(.087450 0 0 .032941 .41038 42.589)" r="117.14"/>
  <linearGradient id="j" y2="609.51" gradientUnits="userSpaceOnUse" x2="302.86" gradientTransform="matrix(.087450 0 0 .032941 .39317 42.589)" y1="366.65" x1="302.86">
   <stop stop-opacity="0" offset="0"/>
   <stop offset=".5"/>
   <stop stop-opacity="0" offset="1"/>
  </linearGradient>
 </defs>
 <rect opacity=".40206" height="8" width="42.226" y="54.667" x="10.887" fill="url(#j)"/>
 <path opacity=".40206" d="m53.113 54.667v7.9996c4.5034 0.01505 10.887-1.7923 10.887-4.0003s-5.0255-3.9993-10.887-3.9993z" fill="url(#b)"/>
 <path opacity=".40206" d="m10.887 54.667v7.9996c-4.5033 0.015-10.887-1.793-10.887-4.001s5.0255-3.999 10.887-3.999z" fill="url(#c)"/>
 <rect stroke-linejoin="round" fill-rule="evenodd" rx="1.4989" ry="1.4989" height="48.998" width="58.998" stroke="url(#e)" stroke-linecap="round" y="10.501" x="2.5011" stroke-width="1.0021" fill="url(#f)"/>
 <rect opacity=".4" stroke-linejoin="round" rx="0" ry="0" height="40.998" width="50.998" stroke="url(#g)" stroke-linecap="round" y="14.501" x="6.5011" stroke-width="1.0021" fill="none"/>
 <rect opacity=".8" stroke-linejoin="round" rx=".49813" ry=".49813" height="46.996" width="56.996" stroke="url(#h)" stroke-linecap="round" y="11.502" x="3.5019" stroke-width="1.0037" fill="none"/>
 <rect stroke-linejoin="round" height="39" stroke="url(#k)" stroke-linecap="round" fill="url(#d)" style="color:#000000" rx="0" ry="0" width="49" y="15.5" x="7.5"/>
 <rect opacity=".2" stroke-linejoin="round" style="color:#000000" rx="0" ry="0" height="37" width="47" stroke="url(#l)" stroke-linecap="round" y="16.5" x="8.5" fill="none"/>
 <path opacity=".1" d="m9.5 19.535h45" stroke="#b9ffeb" stroke-linecap="square" stroke-width="1px" fill="none"/>
 <path opacity=".1" d="m9.5 24.5h45" stroke="#b9ffeb" stroke-linecap="square" stroke-width="1px" fill="none"/>
 <path opacity=".1" d="m9.5 30.5h45" stroke="#b9ffeb" stroke-linecap="square" stroke-width="1px" fill="none"/>
 <path opacity=".1" d="m9.5 35.5h45" stroke="#b9ffeb" stroke-linecap="square" stroke-width="1px" fill="none"/>
 <path opacity=".1" d="m9.5 41.052h45" stroke="#b9ffeb" stroke-linecap="square" stroke-width="1px" fill="none"/>
 <path opacity=".1" d="m9.5 46.5h45" stroke="#b9ffeb" stroke-linecap="square" stroke-width="1px" fill="none"/>
 <path opacity=".1" d="m9.5 51.5h45" stroke="#b9ffeb" stroke-linecap="square" stroke-width="1px" fill="none"/>
 <path stroke-linejoin="round" d="m9.5 38.451h8.9999l2.5714-13.448 5.1428 20.172 3.8571-12.103 3.8571 8.0689 3.8571-2.6896h16.714" stroke="#91ffe0" stroke-linecap="square" stroke-width="1px" fill="none"/>
 <path opacity="0.07" stroke-linejoin="round" d="m9.5 38.451h8.9999l2.5714-13.448 5.1428 20.172 3.8571-12.103 3.8571 8.0689 3.8571-2.6896h16.714" stroke="#91ffe0" stroke-linecap="square" stroke-width="5" fill="none"/>
 <path opacity="0.16" stroke-linejoin="round" d="m9.5 38.451h8.9999l2.5714-13.448 5.1428 20.172 3.8571-12.103 3.8571 8.0689 3.8571-2.6896h16.714" stroke="#91ffe0" stroke-linecap="square" stroke-width="3" fill="none"/>
 <path opacity=".2" d="m5.7619 11c-1.5256 0-2.7619 1.312-2.7619 2.931v21.438c0.00395 0.18035 0.078036 0.3509 0.20549 0.47024 0.12747 0.11934 0.2962 0.17658 0.46525 0.15781l56.816-9.547c0.292-0.049 0.509-0.314 0.513-0.628v-11.891c0-1.6189-1.2363-2.9309-2.7619-2.9309h-52.476z" fill-rule="evenodd" fill="url(#i)"/>
</svg>
