<?xml version="1.0" encoding="UTF-8" standalone="no"?>
<svg xmlns:rdf="http://www.w3.org/1999/02/22-rdf-syntax-ns#" xmlns="http://www.w3.org/2000/svg" height="32" width="32" version="1.1" xmlns:cc="http://creativecommons.org/ns#" xmlns:xlink="http://www.w3.org/1999/xlink" xmlns:dc="http://purl.org/dc/elements/1.1/">
 <defs>
  <linearGradient id="c" y2="44.341" gradientUnits="userSpaceOnUse" x2="71.204" gradientTransform="matrix(.72973 0 0 .72973 -36.346 -2.5039)" y1="6.2376" x1="71.204">
   <stop stop-color="#fff" offset="0"/>
   <stop stop-color="#fff" stop-opacity=".23529" offset=".50776"/>
   <stop stop-color="#fff" stop-opacity=".15686" offset=".83457"/>
   <stop stop-color="#fff" stop-opacity=".39216" offset="1"/>
  </linearGradient>
  <radialGradient id="b" gradientUnits="userSpaceOnUse" cy="8.4498" cx="5.9922" gradientTransform="matrix(3.0712e-8 1.9 -1.8698 -1.7556e-8 31.799 -10.385)" r="20">
   <stop stop-color="#b1e198" offset="0"/>
   <stop stop-color="#71c586" offset=".28947"/>
   <stop stop-color="#04a171" offset=".71053"/>
   <stop stop-color="#108562" offset="1"/>
  </radialGradient>
  <radialGradient id="a" gradientUnits="userSpaceOnUse" cx="99.157" cy="186.17" r="62.769" gradientTransform="matrix(.17525 0 0 .055760 -1.3768 18.119)">
   <stop stop-color="#3d3d3d" offset="0"/>
   <stop stop-color="#686868" stop-opacity=".49804" offset=".5"/>
   <stop stop-color="#686868" stop-opacity="0" offset="1"/>
  </radialGradient>
  <linearGradient id="d" y2="26" gradientUnits="userSpaceOnUse" x2="16" y1="6" x1="16">
   <stop stop-color="#fff" offset="0"/>
   <stop stop-color="#cee7dd" offset="1"/>
  </linearGradient>
 </defs>
 <path d="m27 28.499a11 3.5 0 1 1 -22 0 11 3.5 0 1 1 22 0z" fill="url(#a)"/>
 <g>
  <path style="color:#000000" d="m16 1.5c-8.0006 0-14.5 6.4994-14.5 14.5 0 8.001 6.4994 14.5 14.5 14.5 8.001 0 14.5-6.499 14.5-14.5 0-8.0006-6.499-14.5-14.5-14.5z" fill="url(#b)"/>
  <path opacity=".7" stroke-linejoin="round" style="color:#000000" d="m16 1.5c-8.0006 0-14.5 6.4994-14.5 14.5 0 8.001 6.4994 14.5 14.5 14.5 8.001 0 14.5-6.499 14.5-14.5 0-8.0006-6.499-14.5-14.5-14.5z" fill-opacity="0" stroke="#006344" stroke-linecap="round"/>
  <path opacity=".5" stroke-linejoin="round" style="color:#000000" d="m29.5 16c0 7.4561-6.0446 13.5-13.5 13.5-7.4557 0-13.5-6.044-13.5-13.5 0-7.4562 6.0443-13.5 13.5-13.5 7.455 0 13.5 6.0438 13.5 13.5v0z" stroke="url(#c)" stroke-linecap="round" fill="none"/>
 </g>
 <g>
  <path opacity=".15" style="color-rendering:auto;text-decoration-color:#000000;color:#000000;isolation:auto;mix-blend-mode:normal;shape-rendering:auto;solid-color:#000000;block-progression:tb;text-decoration-line:none;text-decoration-style:solid;image-rendering:auto;white-space:normal;text-indent:0;text-transform:none" d="m11.697 7.0083c-0.26676 0.019634-0.52842 0.086497-0.76953 0.20703-0.64344 0.32166-1.0396 0.96689-1.2324 1.7363-0.19279 0.76943-0.20733 1.6925-0.078125 2.7363 0.05512 0.44531 0.15018 0.92313 0.25781 1.4082-0.71069 0.14428-1.3861 0.30987-1.9727 0.51758-0.8671 0.30706-1.5866 0.67834-2.125 1.1348-0.53842 0.45643-0.90675 1.0289-0.94141 1.6777-0.03301 0.61801 0.24314 1.1993 0.68945 1.6914 0.44631 0.49211 1.0681 0.92143 1.8301 1.3066a0.50006 0.50006 0 0 0 0.4513 -0.892c-0.6875-0.348-1.2143-0.726-1.541-1.086s-0.4472-0.674-0.4316-0.967c0.016417-0.30735 0.1875-0.62572 0.58984-0.9668 0.40234-0.34107 1.0229-0.67546 1.8125-0.95508 0.54894-0.19439 1.2013-0.35026 1.8945-0.48828 0.24003 0.86137 0.53911 1.7556 0.92383 2.6836-0.9456 1.7359-1.6242 3.4143-1.9668 4.875-0.24016 1.024-0.32623 1.9438-0.2168 2.7285 0.10944 0.78469 0.43665 1.4672 1.043 1.8535 0.57535 0.36659 1.2902 0.39814 2.0176 0.21289 0.72739-0.18525 1.4992-0.58136 2.3047-1.1445a0.50005 0.50005 0 1 0 -0.57422 -0.81836c-0.73798 0.51596-1.4206 0.85255-1.9766 0.99414-0.55594 0.14159-0.95234 0.09376-1.2344-0.08594-0.29679-0.1891-0.50577-0.54757-0.58984-1.1504-0.084073-0.60282-0.021908-1.4185 0.19922-2.3613 0.27167-1.1583 0.80456-2.5162 1.5215-3.9375 0.16442 0.35025 0.31462 0.69758 0.49805 1.0508 1.3621 2.6228 2.986 4.802 4.5527 6.2324 0.78335 0.71522 1.5514 1.2473 2.2949 1.5449 0.74357 0.29767 1.5012 0.36263 2.1445 0.04101 0.61879-0.30934 1.0099-0.91995 1.209-1.6484 0.19905-0.72849 0.22966-1.6018 0.12695-2.5879-0.20541-1.9721-0.95486-4.4031-2.1875-6.916a0.50005 0.50005 0 1 0 -0.89648 0.43945c1.1902 2.4265 1.9018 4.7751 2.0898 6.5801 0.094 0.90247 0.05321 1.6685-0.09766 2.2207-0.15087 0.55216-0.3875 0.86565-0.69141 1.0176-0.31611 0.15802-0.74567 0.15543-1.3242-0.07617-0.57855-0.23161-1.2693-0.69346-1.9922-1.3535-1.4459-1.3201-3.0238-3.4208-4.3398-5.9551-0.29699-0.57188-0.56051-1.1381-0.80469-1.6992 0.30377-0.53494 0.62672-1.0749 0.98438-1.6152 0.35733-0.53986 0.72558-1.0517 1.0996-1.541 0.11366-0.0018 0.21912-0.01134 0.33398-0.01172 0.52071-0.0017 1.0551 0.01303 1.5996 0.04102 2.8973 0.14897 5.4947 0.70794 7.3125 1.4668 0.90889 0.37943 1.6209 0.81148 2.0703 1.2344 0.4494 0.4229 0.61969 0.7993 0.60156 1.1387-0.01567 0.29337-0.17018 0.59578-0.53516 0.92188-0.36497 0.3261-0.93086 0.65043-1.6543 0.92578a0.50005 0.50005 0 1 0 0.35547 0.93359c0.80152-0.30506 1.4675-0.66895 1.9648-1.1133 0.4973-0.44433 0.83412-0.99424 0.86719-1.6133 0.03823-0.71569-0.33348-1.3755-0.91406-1.9219-0.58058-0.54634-1.3856-1.0171-2.3691-1.4277-1.9671-0.82118-4.6546-1.389-7.6484-1.543-0.39808-0.02046-0.78651-0.02551-1.1758-0.03125 0.76585-0.9049 1.5408-1.6992 2.2871-2.3359 1.3809-1.178 2.6768-1.8174 3.4902-1.8477 0.30106-0.011214 0.52961 0.047994 0.71484 0.16602 0.27811 0.1772 0.47699 0.49864 0.57227 1.0391 0.09528 0.54042 0.06532 1.2741-0.10547 2.127a0.50005 0.50005 0 1 0 0.98047 0.19531c0.1874-0.93581 0.23637-1.7757 0.10938-2.4961-0.127-0.72035-0.45098-1.3467-1.0195-1.709-0.37921-0.24162-0.82852-0.33942-1.2891-0.32227-1.2429 0.046294-2.6316 0.83388-4.1016 2.0879-0.97352 0.83051-1.972 1.8953-2.9375 3.1133-1.019 0.03255-2.0006 0.10604-2.8984 0.24023-0.10551-0.46876-0.19604-0.92554-0.24805-1.3457-0.11895-0.96102-0.09359-1.7793 0.05469-2.3711 0.14827-0.59177 0.39296-0.926 0.70898-1.084 0.11868-0.05933 0.2446-0.094289 0.39648-0.10547 0.56409-0.041509 1.4625 0.32867 2.4551 1.1367a0.50042 0.50042 0 1 0 0.635 -0.7757c-1.094-0.8906-2.153-1.4316-3.162-1.3574zm1.2832 6.6934c-0.22362 0.31048-0.44916 0.61379-0.66602 0.94141-0.22165 0.33487-0.40915 0.66619-0.61133 1-0.22858-0.60587-0.42299-1.1909-0.58398-1.7578 0.58681-0.0846 1.2129-0.14259 1.8613-0.18359zm3.125 2.2012a1.2716 1.2476 0 0 0 -1.3086 1.2461 1.2716 1.2476 0 0 0 2.543 0 1.2716 1.2476 0 0 0 -1.2344 -1.2461z"/>
  <path opacity=".05" style="color-rendering:auto;text-decoration-color:#000000;color:#000000;isolation:auto;mix-blend-mode:normal;shape-rendering:auto;solid-color:#000000;block-progression:tb;text-decoration-line:none;text-decoration-style:solid;image-rendering:auto;white-space:normal;text-indent:0;text-transform:none" d="m11.697 7.0083c-0.26676 0.019634-0.52842 0.086497-0.76953 0.20703-0.64344 0.32166-1.0396 0.96689-1.2324 1.7363-0.19279 0.76943-0.20733 1.6925-0.078125 2.7363 0.05512 0.44531 0.15018 0.92313 0.25781 1.4082-0.71069 0.14428-1.3861 0.30987-1.9727 0.51758-0.8671 0.30706-1.5866 0.67834-2.125 1.1348-0.53842 0.45643-0.90675 1.0289-0.94141 1.6777-0.03301 0.61801 0.24314 1.1993 0.68945 1.6914 0.44631 0.49211 1.0681 0.92143 1.8301 1.3066a0.50006 0.50006 0 0 0 0.4513 -0.892c-0.6875-0.348-1.2143-0.726-1.541-1.086s-0.4472-0.674-0.4316-0.967c0.016417-0.30735 0.1875-0.62572 0.58984-0.9668 0.40234-0.34107 1.0229-0.67546 1.8125-0.95508 0.54894-0.19439 1.2013-0.35026 1.8945-0.48828 0.24003 0.86137 0.53911 1.7556 0.92383 2.6836-0.9456 1.7359-1.6242 3.4143-1.9668 4.875-0.24016 1.024-0.32623 1.9438-0.2168 2.7285 0.10944 0.78469 0.43665 1.4672 1.043 1.8535 0.57535 0.36659 1.2902 0.39814 2.0176 0.21289 0.72739-0.18525 1.4992-0.58136 2.3047-1.1445a0.50005 0.50005 0 1 0 -0.57422 -0.81836c-0.73798 0.51596-1.4206 0.85255-1.9766 0.99414-0.55594 0.14159-0.95234 0.09376-1.2344-0.08594-0.29679-0.1891-0.50577-0.54757-0.58984-1.1504-0.084073-0.60282-0.021908-1.4185 0.19922-2.3613 0.27167-1.1583 0.80456-2.5162 1.5215-3.9375 0.16442 0.35025 0.31462 0.69758 0.49805 1.0508 1.3621 2.6228 2.986 4.802 4.5527 6.2324 0.78335 0.71522 1.5514 1.2473 2.2949 1.5449 0.74357 0.29767 1.5012 0.36263 2.1445 0.04102 0.61879-0.30934 1.0099-0.91995 1.209-1.6484 0.19905-0.72849 0.22966-1.6018 0.12695-2.5879-0.20541-1.9721-0.95486-4.4031-2.1875-6.916a0.50005 0.50005 0 1 0 -0.89648 0.43945c1.1902 2.4265 1.9018 4.7751 2.0898 6.5801 0.094 0.90247 0.05321 1.6685-0.09766 2.2207-0.15087 0.55216-0.3875 0.86565-0.69141 1.0176-0.31611 0.15802-0.74567 0.15543-1.3242-0.07617-0.57855-0.23161-1.2693-0.69346-1.9922-1.3535-1.4459-1.3201-3.0238-3.4208-4.3398-5.9551-0.29699-0.57188-0.56051-1.1381-0.80469-1.6992 0.30377-0.53494 0.62672-1.0749 0.98438-1.6152 0.35733-0.53986 0.72558-1.0517 1.0996-1.541 0.11366-0.0018 0.21912-0.01134 0.33398-0.01172 0.52071-0.0017 1.0551 0.01303 1.5996 0.04102 2.8973 0.14897 5.4947 0.70794 7.3125 1.4668 0.90889 0.37943 1.6209 0.81148 2.0703 1.2344 0.4494 0.4229 0.61969 0.7993 0.60156 1.1387-0.01567 0.29337-0.17018 0.59578-0.53516 0.92188-0.36497 0.3261-0.93086 0.65043-1.6543 0.92578a0.50005 0.50005 0 1 0 0.35547 0.93359c0.80152-0.30506 1.4675-0.66895 1.9648-1.1133 0.4973-0.44433 0.83412-0.99424 0.86719-1.6133 0.03823-0.71569-0.33348-1.3755-0.91406-1.9219-0.58058-0.54634-1.3856-1.0171-2.3691-1.4277-1.9671-0.82118-4.6546-1.389-7.6484-1.543-0.39808-0.02046-0.78651-0.02551-1.1758-0.03125 0.76585-0.9049 1.5408-1.6992 2.2871-2.3359 1.3809-1.178 2.6768-1.8174 3.4902-1.8477 0.30106-0.011214 0.52961 0.047994 0.71484 0.16602 0.27811 0.1772 0.47699 0.49864 0.57227 1.0391 0.09528 0.54042 0.06532 1.2741-0.10547 2.127a0.50005 0.50005 0 1 0 0.98047 0.19531c0.1874-0.93581 0.23637-1.7757 0.10938-2.4961-0.127-0.72035-0.45098-1.3467-1.0195-1.709-0.37921-0.24162-0.82852-0.33942-1.2891-0.32227-1.2429 0.046294-2.6316 0.83388-4.1016 2.0879-0.97352 0.83051-1.972 1.8953-2.9375 3.1133-1.019 0.03255-2.0006 0.10604-2.8984 0.24023-0.10551-0.46876-0.19604-0.92554-0.24805-1.3457-0.11895-0.96102-0.09359-1.7793 0.05469-2.3711 0.14827-0.59177 0.39296-0.926 0.70898-1.084 0.11868-0.05933 0.2446-0.094289 0.39648-0.10547 0.56409-0.041509 1.4625 0.32867 2.4551 1.1367a0.50042 0.50042 0 1 0 0.635 -0.7757c-1.094-0.8907-2.153-1.4316-3.162-1.3574zm1.2832 6.6934c-0.22362 0.31048-0.44916 0.61379-0.66602 0.94141-0.22165 0.33487-0.40915 0.66619-0.61133 1-0.22858-0.60587-0.42299-1.1909-0.58398-1.7578 0.58681-0.0846 1.2129-0.14259 1.8613-0.18359zm3.125 2.2012a1.2716 1.2476 0 0 0 -1.3086 1.2461 1.2716 1.2476 0 0 0 2.543 0 1.2716 1.2476 0 0 0 -1.2344 -1.2461z" stroke="#000" stroke-linecap="round" stroke-width="2"/>
  <path style="color-rendering:auto;text-decoration-color:#000000;color:#000000;isolation:auto;mix-blend-mode:normal;shape-rendering:auto;solid-color:#000000;block-progression:tb;text-decoration-line:none;text-decoration-style:solid;image-rendering:auto;white-space:normal;text-indent:0;text-transform:none" d="m11.697 6.0078c-0.266 0.0196-0.528 0.0865-0.769 0.207-0.644 0.3217-1.0399 0.9669-1.2327 1.7364-0.1928 0.7694-0.2073 1.6925-0.0781 2.7368 0.0551 0.445 0.1502 0.923 0.2578 1.408-0.7107 0.144-1.3861 0.31-1.9727 0.517-0.8671 0.307-1.5865 0.679-2.125 1.135-0.5384 0.456-0.9067 1.029-0.9414 1.678-0.033 0.618 0.2432 1.199 0.6895 1.691s1.0681 0.922 1.8301 1.307a0.50006 0.50006 0 0 0 0.4511 -0.893c-0.6875-0.347-1.2143-0.725-1.541-1.086-0.3267-0.36-0.4472-0.674-0.4316-0.966 0.0164-0.308 0.1875-0.626 0.5898-0.967 0.4024-0.341 1.0229-0.676 1.8125-0.955 0.549-0.195 1.2013-0.351 1.8947-0.489 0.24 0.862 0.539 1.756 0.924 2.684-0.946 1.736-1.6245 3.414-1.9671 4.875-0.2402 1.024-0.3262 1.944-0.2168 2.728 0.1094 0.785 0.4366 1.468 1.043 1.854 0.5749 0.367 1.2899 0.398 2.0179 0.213 0.727-0.185 1.499-0.581 2.304-1.145a0.50005 0.50005 0 1 0 -0.574 -0.818c-0.738 0.516-1.421 0.853-1.976 0.994-0.556 0.142-0.953 0.094-1.235-0.086-0.297-0.189-0.5056-0.547-0.5897-1.15-0.084-0.603-0.0219-1.419 0.1997-2.362 0.271-1.158 0.804-2.516 1.521-3.937 0.164 0.35 0.315 0.698 0.498 1.051 1.362 2.623 2.986 4.802 4.553 6.232 0.783 0.715 1.551 1.247 2.295 1.545 0.743 0.298 1.501 0.363 2.144 0.041 0.619-0.309 1.01-0.92 1.209-1.648 0.199-0.729 0.23-1.602 0.127-2.588-0.205-1.972-0.955-4.403-2.187-6.916a0.50005 0.50005 0 1 0 -0.897 0.439c1.19 2.427 1.902 4.775 2.09 6.58 0.094 0.903 0.053 1.669-0.098 2.221-0.15 0.552-0.387 0.866-0.691 1.018-0.316 0.158-0.746 0.155-1.324-0.077-0.579-0.231-1.269-0.693-1.992-1.353-1.446-1.32-3.024-3.421-4.34-5.955-0.297-0.572-0.561-1.138-0.805-1.699 0.304-0.535 0.627-1.075 0.984-1.616 0.358-0.539 0.726-1.051 1.1-1.541 0.114-0.001 0.219-0.011 0.334-0.011 0.521-0.002 1.055 0.013 1.6 0.041 2.897 0.149 5.494 0.708 7.312 1.466 0.909 0.38 1.621 0.812 2.07 1.235 0.45 0.423 0.62 0.799 0.602 1.138-0.016 0.294-0.17 0.596-0.535 0.922s-0.931 0.651-1.654 0.926a0.50005 0.50005 0 1 0 0.355 0.934c0.802-0.305 1.468-0.669 1.965-1.114 0.497-0.444 0.834-0.994 0.867-1.613 0.038-0.716-0.333-1.375-0.914-1.922-0.581-0.546-1.386-1.017-2.369-1.427-1.967-0.822-4.655-1.389-7.649-1.543-0.398-0.021-0.786-0.026-1.175-0.032 0.765-0.905 1.54-1.6989 2.287-2.3356 1.381-1.178 2.677-1.8173 3.49-1.8476 0.301-0.0113 0.53 0.0479 0.715 0.166 0.278 0.1772 0.477 0.4986 0.572 1.039s0.065 1.2741-0.105 2.1272a0.50005 0.50005 0 1 0 0.98 0.195c0.187-0.936 0.236-1.7756 0.109-2.496s-0.451-1.3467-1.019-1.709c-0.379-0.2416-0.829-0.3394-1.289-0.3222-1.243 0.0462-2.632 0.8338-4.102 2.0878-0.973 0.8306-1.972 1.8954-2.937 3.1134-1.019 0.032-2.001 0.106-2.899 0.24-0.105-0.469-0.196-0.925-0.248-1.346-0.119-0.9606-0.093-1.7789 0.055-2.3706 0.148-0.5918 0.393-0.926 0.709-1.084 0.119-0.0594 0.245-0.0943 0.396-0.1055 0.565-0.0415 1.463 0.3287 2.456 1.1367a0.50042 0.50042 0 0 0 0.632 -0.7754c-1.094-0.8906-2.153-1.4316-3.162-1.3574zm1.283 6.6932c-0.223 0.311-0.449 0.614-0.666 0.942-0.221 0.334-0.409 0.666-0.611 1-0.228-0.606-0.423-1.191-0.584-1.758 0.587-0.085 1.213-0.143 1.861-0.184zm3.125 2.201a1.2716 1.2476 0 0 0 -1.308 1.246 1.2716 1.2476 0 0 0 2.543 0 1.2716 1.2476 0 0 0 -1.235 -1.246z" fill="url(#d)"/>
 </g>
</svg>
