<?xml version="1.0" encoding="UTF-8" standalone="no"?>
<!-- Created with Inkscape (http://www.inkscape.org/) -->

<svg
   xmlns:dc="http://purl.org/dc/elements/1.1/"
   xmlns:cc="http://creativecommons.org/ns#"
   xmlns:rdf="http://www.w3.org/1999/02/22-rdf-syntax-ns#"
   xmlns:svg="http://www.w3.org/2000/svg"
   xmlns="http://www.w3.org/2000/svg"
   xmlns:xlink="http://www.w3.org/1999/xlink"
   xmlns:sodipodi="http://sodipodi.sourceforge.net/DTD/sodipodi-0.dtd"
   xmlns:inkscape="http://www.inkscape.org/namespaces/inkscape"
   version="1.1"
   width="32"
   height="32"
   id="svg4248"
   inkscape:version="0.91 r"
   sodipodi:docname="atom.svg">
  <sodipodi:namedview
     pagecolor="#ffffff"
     bordercolor="#666666"
     borderopacity="1"
     objecttolerance="10"
     gridtolerance="10"
     guidetolerance="10"
     inkscape:pageopacity="0"
     inkscape:pageshadow="2"
     inkscape:window-width="1280"
     inkscape:window-height="745"
     id="namedview46"
     showgrid="true"
     inkscape:zoom="6.5821459"
     inkscape:cx="-16.919225"
     inkscape:cy="9.6984041"
     inkscape:window-x="0"
     inkscape:window-y="30"
     inkscape:window-maximized="1"
     inkscape:current-layer="svg4248">
    <inkscape:grid
       type="xygrid"
       id="grid3173" />
  </sodipodi:namedview>
  <defs
     id="defs4250">
    <linearGradient
       id="linearGradient11287"
       inkscape:collect="always">
      <stop
         id="stop11289"
         offset="0"
         style="stop-color:#ffffff;stop-opacity:1" />
      <stop
         id="stop11291"
         offset="1"
         style="stop-color:#cee7dd;stop-opacity:1" />
    </linearGradient>
    <linearGradient
       id="linearGradient11383">
      <stop
         id="stop11385"
         style="stop-color:#b1e198;stop-opacity:1"
         offset="0" />
      <stop
         id="stop11387"
         style="stop-color:#71c586;stop-opacity:1"
         offset="0.28947368" />
      <stop
         id="stop11389"
         style="stop-color:#04a171;stop-opacity:1"
         offset="0.71052635" />
      <stop
         id="stop11391"
         style="stop-color:#108562;stop-opacity:1"
         offset="1" />
    </linearGradient>
    <linearGradient
       id="linearGradient4011-4">
      <stop
         offset="0"
         style="stop-color:#ffffff;stop-opacity:1"
         id="stop4013-8" />
      <stop
         offset="0.507761"
         style="stop-color:#ffffff;stop-opacity:0.23529412"
         id="stop4015-5" />
      <stop
         offset="0.83456558"
         style="stop-color:#ffffff;stop-opacity:0.15686275"
         id="stop4017-6" />
      <stop
         offset="1"
         style="stop-color:#ffffff;stop-opacity:0.39215687"
         id="stop4019-1" />
    </linearGradient>
    <linearGradient
       inkscape:collect="always"
       xlink:href="#linearGradient4011-4"
       id="linearGradient3089"
       gradientUnits="userSpaceOnUse"
       gradientTransform="matrix(0.72972969,0,0,0.72972969,-36.346075,-2.5039314)"
       x1="71.204407"
       y1="6.2375584"
       x2="71.204407"
       y2="44.340794" />
    <radialGradient
       inkscape:collect="always"
       xlink:href="#linearGradient11383"
       id="radialGradient3092"
       gradientUnits="userSpaceOnUse"
       gradientTransform="matrix(3.0712084e-8,1.9000009,-1.8697707,-1.7555949e-8,31.79921,-10.385227)"
       cx="5.9922218"
       cy="8.4498119"
       fx="5.9922218"
       fy="8.4498119"
       r="19.99999" />
    <linearGradient
       id="linearGradient3820-7-2-2">
      <stop
         offset="0"
         style="stop-color:#3d3d3d;stop-opacity:1"
         id="stop3822-2-6-36" />
      <stop
         offset="0.5"
         style="stop-color:#686868;stop-opacity:0.49803922"
         id="stop3864-8-7-6" />
      <stop
         offset="1"
         style="stop-color:#686868;stop-opacity:0"
         id="stop3824-1-2-4" />
    </linearGradient>
    <radialGradient
       r="62.769119"
       fy="186.17059"
       fx="99.157013"
       cy="186.17059"
       cx="99.157013"
       gradientTransform="matrix(0.17524541,0,0,0.05575992,-1.3768101,18.118568)"
       gradientUnits="userSpaceOnUse"
       id="radialGradient3315"
       xlink:href="#linearGradient3820-7-2-2"
       inkscape:collect="always" />
    <linearGradient
       inkscape:collect="always"
       xlink:href="#linearGradient11287"
       id="linearGradient11299"
       x1="16"
       y1="6"
       x2="16"
       y2="26"
       gradientUnits="userSpaceOnUse" />
  </defs>
  <metadata
     id="metadata4253">
    <rdf:RDF>
      <cc:Work
         rdf:about="">
        <dc:format>image/svg+xml</dc:format>
        <dc:type
           rdf:resource="http://purl.org/dc/dcmitype/StillImage" />
        <dc:title />
      </cc:Work>
    </rdf:RDF>
  </metadata>
  <path
     style="fill:url(#radialGradient3315);fill-opacity:1;stroke:none"
     id="path3818-0-2"
     inkscape:connector-curvature="0"
     d="m 27.000001,28.499422 a 11,3.4999999 0 1 1 -21.9999997,0 11,3.4999999 0 1 1 21.9999997,0 z" />
  <path
     inkscape:connector-curvature="0"
     d="M 16.000002,1.4999989 C 7.9994024,1.4999989 1.5,7.9993978 1.5,15.999998 1.5,24.0006 7.9994024,30.500002 16.000002,30.5 24.000599,30.5 30.500007,24.0006 30.5,15.999998 30.5,7.9993978 24.000599,1.4999989 16.000002,1.4999989 z"
     id="path2555"
     style="color:#000000;fill:url(#radialGradient3092);fill-opacity:1;fill-rule:nonzero;stroke:none;stroke-width:1;marker:none;visibility:visible;display:inline;overflow:visible;enable-background:accumulate" />
  <path
     inkscape:connector-curvature="0"
     d="M 16.000002,1.4999989 C 7.999402,1.4999989 1.5,7.9993981 1.5,15.999999 1.5,24.000599 7.999402,30.500002 16.000002,30.5 24.000598,30.5 30.500008,24.000599 30.5,15.999999 30.5,7.9993981 24.000598,1.4999989 16.000002,1.4999989 z"
     id="path2555-6"
     style="opacity:0.7;color:#000000;fill:#000000;fill-opacity:0;fill-rule:nonzero;stroke:#006344;stroke-width:1;stroke-linecap:round;stroke-linejoin:round;stroke-miterlimit:4;stroke-opacity:1;stroke-dasharray:none;stroke-dashoffset:0;marker:none;visibility:visible;display:inline;overflow:visible;enable-background:accumulate" />
  <path
     inkscape:connector-curvature="0"
     d="m 29.5,15.999521 c 0,7.456085 -6.044601,13.500478 -13.499829,13.500478 C 8.54426,29.499999 2.5,23.455537 2.5,15.999521 2.5,8.5437808 8.54426,2.5000002 16.000171,2.5000002 23.455399,2.5000002 29.5,8.5437808 29.5,15.999521 l 0,0 z"
     id="path8655"
     style="opacity:0.5;color:#000000;fill:none;stroke:url(#linearGradient3089);stroke-width:1;stroke-linecap:round;stroke-linejoin:round;stroke-miterlimit:4;stroke-opacity:1;stroke-dasharray:none;stroke-dashoffset:0;marker:none;visibility:visible;display:inline;overflow:visible;enable-background:accumulate" />
  <path
     id="path11308"
     d="m 11.697266,7.008291 c -0.266758,0.019634 -0.528416,0.086497 -0.769532,0.2070313 -0.64344,0.3216622 -1.0396317,0.9668933 -1.2324215,1.7363281 -0.1927898,0.7694347 -0.2073317,1.6924786 -0.078125,2.7363286 0.05512,0.445307 0.1501802,0.923128 0.2578125,1.408203 -0.7106861,0.144285 -1.3860885,0.309866 -1.9726562,0.517578 -0.8671026,0.307055 -1.5865788,0.678335 -2.125,1.134766 -0.5384214,0.456431 -0.90675,1.028934 -0.9414063,1.677734 -0.03301,0.618009 0.2431393,1.199292 0.6894531,1.691407 0.4463138,0.492114 1.0680814,0.921433 1.8300782,1.30664 A 0.50006287,0.50006287 0 0 0 7.8066406,18.531729 C 7.1191022,18.184162 6.592329,17.806022 6.265625,17.445791 5.938921,17.085561 5.8183549,16.771603 5.8339844,16.478995 c 0.016417,-0.307351 0.187504,-0.625725 0.5898437,-0.966797 0.4023397,-0.341072 1.0228685,-0.675458 1.8125,-0.955078 0.5489401,-0.194389 1.2012641,-0.350262 1.8945309,-0.488282 0.240032,0.861371 0.53911,1.755591 0.923829,2.683594 -0.945599,1.735874 -1.6242031,3.414258 -1.9667974,4.875 -0.2401573,1.023975 -0.326234,1.943829 -0.2167968,2.728516 0.109437,0.784686 0.4366489,1.467197 1.0429687,1.853515 0.5753505,0.366587 1.2901855,0.398143 2.0175785,0.212891 0.727392,-0.185252 1.499188,-0.581359 2.304687,-1.144531 a 0.50005,0.50005 0 1 0 -0.574219,-0.81836 c -0.737978,0.515965 -1.420622,0.852554 -1.976562,0.994141 -0.55594,0.141587 -0.952342,0.09376 -1.234375,-0.08594 -0.296788,-0.1891 -0.5057711,-0.547572 -0.5898439,-1.150391 -0.084073,-0.602819 -0.021908,-1.418497 0.1992189,-2.361328 0.271671,-1.158342 0.804561,-2.516219 1.521484,-3.9375 0.164417,0.350252 0.314623,0.697585 0.498047,1.050781 1.362073,2.622771 2.986043,4.801986 4.552734,6.232422 0.783347,0.715218 1.551353,1.247254 2.294922,1.544922 0.743569,0.297667 1.501173,0.362632 2.144532,0.04101 0.618794,-0.309341 1.009938,-0.919951 1.208984,-1.648437 0.199046,-0.728486 0.229658,-1.601846 0.126953,-2.587891 -0.20541,-1.972089 -0.954863,-4.403102 -2.1875,-6.916015 a 0.50005,0.50005 0 1 0 -0.896484,0.439453 c 1.190244,2.426489 1.901844,4.775144 2.089843,6.580078 0.094,0.902467 0.05321,1.668542 -0.09766,2.220703 -0.150868,0.552161 -0.387497,0.865651 -0.691406,1.017578 -0.316106,0.158025 -0.745669,0.155433 -1.324219,-0.07617 -0.578546,-0.231613 -1.26926,-0.693461 -1.992187,-1.353515 -1.445856,-1.320109 -3.02375,-3.420842 -4.339844,-5.955079 -0.296991,-0.571878 -0.560513,-1.138079 -0.804688,-1.699218 0.303772,-0.534942 0.626721,-1.074888 0.984376,-1.615235 0.35733,-0.539857 0.725576,-1.051678 1.099609,-1.541015 0.113665,-0.0018 0.219124,-0.01134 0.333984,-0.01172 0.520711,-0.0017 1.055116,0.01303 1.59961,0.04102 2.897274,0.148974 5.494718,0.707937 7.3125,1.466797 0.90889,0.379429 1.620907,0.811481 2.070312,1.234374 0.449405,0.422896 0.619691,0.799298 0.601563,1.138672 -0.01567,0.293366 -0.170182,0.595778 -0.535157,0.921875 -0.364974,0.326098 -0.930855,0.650433 -1.654297,0.925782 a 0.50005,0.50005 0 1 0 0.355469,0.933593 c 0.801517,-0.305064 1.467544,-0.668953 1.964844,-1.113281 0.4973,-0.444328 0.834121,-0.99424 0.867187,-1.613281 0.03823,-0.715689 -0.333479,-1.37554 -0.914062,-1.921875 -0.580583,-0.546335 -1.385613,-1.017146 -2.369141,-1.427735 -1.967055,-0.821175 -4.654626,-1.38903 -7.648437,-1.542968 -0.398083,-0.02046 -0.786511,-0.02551 -1.175781,-0.03125 0.765849,-0.904896 1.540783,-1.699247 2.287109,-2.335938 1.380857,-1.1780104 2.676753,-1.8173561 3.490234,-1.8476565 0.301061,-0.011214 0.529612,0.047994 0.714844,0.1660156 0.278111,0.1771985 0.47699,0.4986438 0.572266,1.0390625 0.09528,0.5404184 0.06532,1.2740914 -0.105469,2.1269534 a 0.50005,0.50005 0 1 0 0.980469,0.195313 c 0.187404,-0.93581 0.236373,-1.77574 0.109375,-2.4960945 -0.126998,-0.7203542 -0.450978,-1.34673 -1.019531,-1.7089844 -0.379211,-0.2416153 -0.828515,-0.33942 -1.289063,-0.3222656 -1.242856,0.046294 -2.631619,0.8338817 -4.101563,2.0878906 -0.973519,0.8305099 -1.972035,1.8953319 -2.9375,3.1132819 -1.019024,0.03255 -2.00063,0.106043 -2.898437,0.240234 -0.105507,-0.468764 -0.196039,-0.925538 -0.248047,-1.345703 -0.118954,-0.961019 -0.09359,-1.7793228 0.05469,-2.3710941 0.148274,-0.5917713 0.392959,-0.9260006 0.708984,-1.0839844 0.118682,-0.05933 0.244596,-0.094289 0.396484,-0.1054688 0.564088,-0.041509 1.462452,0.3286741 2.455078,1.1367188 A 0.50042054,0.50042054 0 1 0 14.859375,8.3657129 C 13.765274,7.4750642 12.705562,6.9340939 11.697266,7.008291 Z m 1.283203,6.69336 c -0.223621,0.310484 -0.449165,0.613787 -0.666016,0.941406 -0.221652,0.334874 -0.409146,0.66619 -0.611328,1 -0.228576,-0.605873 -0.422991,-1.190934 -0.583984,-1.757812 0.586813,-0.0846 1.212896,-0.142588 1.861328,-0.183594 z m 3.125,2.201172 a 1.271594,1.2475973 0 0 0 -1.308594,1.246094 1.271594,1.2475973 0 0 0 2.542969,0 1.271594,1.2475973 0 0 0 -1.234375,-1.246094 z"
     style="color:#000000;font-style:normal;font-variant:normal;font-weight:normal;font-stretch:normal;font-size:medium;line-height:normal;font-family:sans-serif;text-indent:0;text-align:start;text-decoration:none;text-decoration-line:none;text-decoration-style:solid;text-decoration-color:#000000;letter-spacing:normal;word-spacing:normal;text-transform:none;direction:ltr;block-progression:tb;writing-mode:lr-tb;baseline-shift:baseline;text-anchor:start;white-space:normal;clip-rule:nonzero;display:inline;overflow:visible;visibility:visible;opacity:0.15;isolation:auto;mix-blend-mode:normal;color-interpolation:sRGB;color-interpolation-filters:linearRGB;solid-color:#000000;solid-opacity:1;fill:#000000;fill-opacity:1;fill-rule:nonzero;stroke:none;stroke-width:1;stroke-linecap:round;stroke-linejoin:miter;stroke-miterlimit:4;stroke-dasharray:none;stroke-dashoffset:0;stroke-opacity:1;color-rendering:auto;image-rendering:auto;shape-rendering:auto;text-rendering:auto;enable-background:accumulate"
     inkscape:connector-curvature="0" />
  <path
     id="path11312"
     d="m 11.697266,7.0082578 c -0.266758,0.019634 -0.528416,0.086497 -0.769532,0.2070313 -0.64344,0.3216622 -1.0396317,0.9668933 -1.2324215,1.7363281 -0.1927898,0.7694347 -0.2073317,1.6924788 -0.078125,2.7363278 0.05512,0.445307 0.1501802,0.923128 0.2578125,1.408203 -0.7106861,0.144285 -1.3860885,0.309866 -1.9726562,0.517578 -0.8671026,0.307055 -1.5865788,0.678335 -2.125,1.134766 -0.5384214,0.456431 -0.90675,1.028934 -0.9414063,1.677734 -0.03301,0.618009 0.2431393,1.199292 0.6894531,1.691407 0.4463138,0.492114 1.0680814,0.921433 1.8300782,1.30664 A 0.50006287,0.50006287 0 0 0 7.8066406,18.531695 C 7.1191022,18.184128 6.592329,17.805988 6.265625,17.445757 5.938921,17.085527 5.8183549,16.771569 5.8339844,16.478961 c 0.016417,-0.307351 0.187504,-0.625725 0.5898437,-0.966797 0.4023397,-0.341072 1.0228685,-0.675458 1.8125,-0.955078 0.5489401,-0.194389 1.2012641,-0.350262 1.8945309,-0.488282 0.240032,0.861371 0.53911,1.755591 0.923829,2.683594 -0.945599,1.735874 -1.6242031,3.414258 -1.9667974,4.875 -0.2401573,1.023975 -0.326234,1.943829 -0.2167968,2.728516 0.109437,0.784686 0.4366489,1.467197 1.0429687,1.853515 0.5753505,0.366587 1.2901855,0.398143 2.0175785,0.212891 0.727392,-0.185252 1.499188,-0.581359 2.304687,-1.144531 a 0.50005,0.50005 0 1 0 -0.574219,-0.81836 c -0.737978,0.515965 -1.420622,0.852554 -1.976562,0.994141 -0.55594,0.141587 -0.952342,0.09376 -1.234375,-0.08594 -0.296788,-0.1891 -0.5057711,-0.547572 -0.5898439,-1.150391 -0.084073,-0.602819 -0.021908,-1.418497 0.1992189,-2.361328 0.271671,-1.158342 0.804561,-2.516219 1.521484,-3.9375 0.164417,0.350252 0.314623,0.697585 0.498047,1.050781 1.362073,2.622771 2.986043,4.801986 4.552734,6.232422 0.783347,0.715218 1.551353,1.247254 2.294922,1.544922 0.743569,0.297667 1.501173,0.362632 2.144532,0.04102 0.618794,-0.309341 1.009938,-0.919951 1.208984,-1.648437 0.199046,-0.728486 0.229658,-1.601846 0.126953,-2.587891 -0.20541,-1.972089 -0.954863,-4.403102 -2.1875,-6.916015 a 0.50005,0.50005 0 1 0 -0.896484,0.439453 c 1.190244,2.426489 1.901844,4.775144 2.089843,6.580078 0.094,0.902467 0.05321,1.668542 -0.09766,2.220703 -0.150868,0.552161 -0.387497,0.865651 -0.691406,1.017578 -0.316106,0.158025 -0.745669,0.155433 -1.324219,-0.07617 -0.578546,-0.231613 -1.26926,-0.693461 -1.992187,-1.353515 -1.445856,-1.320109 -3.02375,-3.420842 -4.339844,-5.955079 -0.296991,-0.571878 -0.560513,-1.138079 -0.804688,-1.699218 0.303772,-0.534942 0.626721,-1.074888 0.984376,-1.615235 0.35733,-0.539857 0.725576,-1.051678 1.099609,-1.541015 0.113665,-0.0018 0.219124,-0.01134 0.333984,-0.01172 0.520711,-0.0017 1.055116,0.01303 1.59961,0.04102 2.897274,0.148974 5.494718,0.707937 7.3125,1.466797 0.90889,0.379429 1.620907,0.811481 2.070312,1.234374 0.449405,0.422896 0.619691,0.799298 0.601563,1.138672 -0.01567,0.293366 -0.170182,0.595778 -0.535157,0.921875 -0.364974,0.326098 -0.930855,0.650433 -1.654297,0.925782 a 0.50005,0.50005 0 1 0 0.355469,0.933593 c 0.801517,-0.305064 1.467544,-0.668953 1.964844,-1.113281 0.4973,-0.444328 0.834121,-0.99424 0.867187,-1.613281 0.03823,-0.715689 -0.333479,-1.37554 -0.914062,-1.921875 -0.580583,-0.546335 -1.385613,-1.017146 -2.369141,-1.427735 -1.967055,-0.821175 -4.654626,-1.38903 -7.648437,-1.542968 -0.398083,-0.02046 -0.786511,-0.02551 -1.175781,-0.03125 0.765849,-0.904896 1.540783,-1.699247 2.287109,-2.335937 1.380857,-1.1780106 2.676753,-1.8173563 3.490234,-1.8476567 0.301061,-0.011214 0.529612,0.047994 0.714844,0.1660156 0.278111,0.1771985 0.47699,0.4986438 0.572266,1.0390625 0.09528,0.5404186 0.06532,1.2740916 -0.105469,2.1269526 a 0.50005,0.50005 0 1 0 0.980469,0.195313 c 0.187404,-0.93581 0.236373,-1.775739 0.109375,-2.4960937 -0.126998,-0.7203542 -0.450978,-1.34673 -1.019531,-1.7089844 -0.379211,-0.2416153 -0.828515,-0.33942 -1.289063,-0.3222656 -1.242856,0.046294 -2.631619,0.8338817 -4.101563,2.0878906 -0.973519,0.8305101 -1.972035,1.8953311 -2.9375,3.1132811 -1.019024,0.03255 -2.00063,0.106043 -2.898437,0.240234 -0.105507,-0.468764 -0.196039,-0.925538 -0.248047,-1.345703 -0.118954,-0.961018 -0.09359,-1.779322 0.05469,-2.3710933 0.148274,-0.5917713 0.392959,-0.9260006 0.708984,-1.0839844 0.118682,-0.05933 0.244596,-0.094289 0.396484,-0.1054688 0.564088,-0.041509 1.462452,0.3286741 2.455078,1.1367188 A 0.50042054,0.50042054 0 1 0 14.859375,8.3656797 C 13.765274,7.475031 12.705562,6.9340607 11.697266,7.0082578 Z m 1.283203,6.6933592 c -0.223621,0.310484 -0.449165,0.613787 -0.666016,0.941406 -0.221652,0.334874 -0.409146,0.66619 -0.611328,1 -0.228576,-0.605873 -0.422991,-1.190934 -0.583984,-1.757812 0.586813,-0.0846 1.212896,-0.142588 1.861328,-0.183594 z m 3.125,2.201172 a 1.271594,1.2475973 0 0 0 -1.308594,1.246094 1.271594,1.2475973 0 0 0 2.542969,0 1.271594,1.2475973 0 0 0 -1.234375,-1.246094 z"
     style="color:#000000;font-style:normal;font-variant:normal;font-weight:normal;font-stretch:normal;font-size:medium;line-height:normal;font-family:sans-serif;text-indent:0;text-align:start;text-decoration:none;text-decoration-line:none;text-decoration-style:solid;text-decoration-color:#000000;letter-spacing:normal;word-spacing:normal;text-transform:none;direction:ltr;block-progression:tb;writing-mode:lr-tb;baseline-shift:baseline;text-anchor:start;white-space:normal;clip-rule:nonzero;display:inline;overflow:visible;visibility:visible;opacity:0.05;isolation:auto;mix-blend-mode:normal;color-interpolation:sRGB;color-interpolation-filters:linearRGB;solid-color:#000000;solid-opacity:1;fill:#000000;fill-opacity:1;fill-rule:nonzero;stroke:#000000;stroke-width:2;stroke-linecap:round;stroke-linejoin:miter;stroke-miterlimit:4;stroke-dasharray:none;stroke-dashoffset:0;stroke-opacity:1;color-rendering:auto;image-rendering:auto;shape-rendering:auto;text-rendering:auto;enable-background:accumulate"
     inkscape:connector-curvature="0" />
  <path
     style="color:#000000;font-style:normal;font-variant:normal;font-weight:normal;font-stretch:normal;font-size:medium;line-height:normal;font-family:sans-serif;text-indent:0;text-align:start;text-decoration:none;text-decoration-line:none;text-decoration-style:solid;text-decoration-color:#000000;letter-spacing:normal;word-spacing:normal;text-transform:none;direction:ltr;block-progression:tb;writing-mode:lr-tb;baseline-shift:baseline;text-anchor:start;white-space:normal;clip-rule:nonzero;display:inline;overflow:visible;visibility:visible;opacity:1;isolation:auto;mix-blend-mode:normal;color-interpolation:sRGB;color-interpolation-filters:linearRGB;solid-color:#000000;solid-opacity:1;fill:url(#linearGradient11299);fill-opacity:1;fill-rule:nonzero;stroke:none;stroke-width:1;stroke-linecap:round;stroke-linejoin:miter;stroke-miterlimit:4;stroke-dasharray:none;stroke-dashoffset:0;stroke-opacity:1;color-rendering:auto;image-rendering:auto;shape-rendering:auto;text-rendering:auto;enable-background:accumulate"
     d="M 11.697266 6.0078125 C 11.430508 6.0274469 11.16885 6.0943091 10.927734 6.2148438 C 10.284294 6.536506 9.8881023 7.1817371 9.6953125 7.9511719 C 9.5025227 8.7206066 9.4879808 9.6436502 9.6171875 10.6875 C 9.6723071 11.132807 9.7673677 11.610628 9.875 12.095703 C 9.1643139 12.239988 8.4889115 12.405569 7.9023438 12.613281 C 7.0352412 12.920336 6.315765 13.291616 5.7773438 13.748047 C 5.2389224 14.204478 4.8705938 14.776981 4.8359375 15.425781 C 4.8029275 16.04379 5.0790768 16.625073 5.5253906 17.117188 C 5.9717044 17.609302 6.593472 18.038621 7.3554688 18.423828 A 0.50006287 0.50006287 0 0 0 7.8066406 17.53125 C 7.1191022 17.183683 6.592329 16.805543 6.265625 16.445312 C 5.938921 16.085082 5.8183549 15.771124 5.8339844 15.478516 C 5.8504014 15.171165 6.0214884 14.852791 6.4238281 14.511719 C 6.8261678 14.170647 7.4466966 13.836261 8.2363281 13.556641 C 8.7852682 13.362252 9.4375922 13.206379 10.130859 13.068359 C 10.370891 13.92973 10.669969 14.82395 11.054688 15.751953 C 10.109089 17.487827 9.4304849 19.166211 9.0878906 20.626953 C 8.8477333 21.650928 8.7616566 22.570782 8.8710938 23.355469 C 8.9805308 24.140155 9.3077427 24.822666 9.9140625 25.208984 C 10.489413 25.575571 11.204248 25.607127 11.931641 25.421875 C 12.659033 25.236623 13.430829 24.840516 14.236328 24.277344 A 0.50005 0.50005 0 1 0 13.662109 23.458984 C 12.924131 23.974949 12.241487 24.311538 11.685547 24.453125 C 11.129607 24.594712 10.733205 24.546888 10.451172 24.367188 C 10.154384 24.178088 9.9454009 23.819616 9.8613281 23.216797 C 9.7772551 22.613978 9.83942 21.7983 10.060547 20.855469 C 10.332218 19.697127 10.865108 18.33925 11.582031 16.917969 C 11.746448 17.268221 11.896654 17.615554 12.080078 17.96875 C 13.442151 20.591521 15.066121 22.770736 16.632812 24.201172 C 17.416159 24.91639 18.184165 25.448426 18.927734 25.746094 C 19.671303 26.043761 20.428907 26.108726 21.072266 25.787109 C 21.69106 25.477768 22.082204 24.867158 22.28125 24.138672 C 22.480296 23.410186 22.510908 22.536826 22.408203 21.550781 C 22.202793 19.578692 21.45334 17.147679 20.220703 14.634766 A 0.50005 0.50005 0 1 0 19.324219 15.074219 C 20.514463 17.500708 21.226063 19.849363 21.414062 21.654297 C 21.508063 22.556764 21.467276 23.322839 21.316406 23.875 C 21.165538 24.427161 20.928909 24.740651 20.625 24.892578 C 20.308894 25.050603 19.879331 25.048011 19.300781 24.816406 C 18.722235 24.584793 18.031521 24.122945 17.308594 23.462891 C 15.862738 22.142782 14.284844 20.042049 12.96875 17.507812 C 12.671759 16.935934 12.408237 16.369733 12.164062 15.808594 C 12.467834 15.273652 12.790783 14.733706 13.148438 14.193359 C 13.505768 13.653502 13.874014 13.141681 14.248047 12.652344 C 14.361712 12.650567 14.467171 12.641004 14.582031 12.640625 C 15.102742 12.638925 15.637147 12.653651 16.181641 12.681641 C 19.078915 12.830615 21.676359 13.389578 23.494141 14.148438 C 24.403031 14.527867 25.115048 14.959919 25.564453 15.382812 C 26.013858 15.805708 26.184144 16.18211 26.166016 16.521484 C 26.150346 16.81485 25.995834 17.117262 25.630859 17.443359 C 25.265885 17.769457 24.700004 18.093792 23.976562 18.369141 A 0.50005 0.50005 0 1 0 24.332031 19.302734 C 25.133548 18.99767 25.799575 18.633781 26.296875 18.189453 C 26.794175 17.745125 27.130996 17.195213 27.164062 16.576172 C 27.202292 15.860483 26.830583 15.200632 26.25 14.654297 C 25.669417 14.107962 24.864387 13.637151 23.880859 13.226562 C 21.913804 12.405387 19.226233 11.837532 16.232422 11.683594 C 15.834339 11.663131 15.445911 11.658081 15.056641 11.652344 C 15.82249 10.747448 16.597424 9.953097 17.34375 9.3164062 C 18.724607 8.1383961 20.020503 7.4990504 20.833984 7.46875 C 21.135045 7.457536 21.363596 7.516744 21.548828 7.6347656 C 21.826939 7.8119641 22.025818 8.1334094 22.121094 8.6738281 C 22.216374 9.2142469 22.186414 9.9479192 22.015625 10.800781 A 0.50005 0.50005 0 1 0 22.996094 10.996094 C 23.183498 10.060284 23.232467 9.2203542 23.105469 8.5 C 22.978471 7.7796458 22.654491 7.15327 22.085938 6.7910156 C 21.706727 6.5494003 21.257423 6.4515956 20.796875 6.46875 C 19.554019 6.515044 18.165256 7.3026317 16.695312 8.5566406 C 15.721793 9.3871508 14.723277 10.451972 13.757812 11.669922 C 12.738788 11.702473 11.757182 11.775965 10.859375 11.910156 C 10.753868 11.441392 10.663336 10.984618 10.611328 10.564453 C 10.492374 9.6034343 10.517741 8.7851307 10.666016 8.1933594 C 10.81429 7.6015881 11.058975 7.2673588 11.375 7.109375 C 11.493682 7.050045 11.619596 7.0150861 11.771484 7.0039062 C 12.335572 6.9623973 13.233936 7.3325803 14.226562 8.140625 A 0.50042054 0.50042054 0 0 0 14.859375 7.3652344 C 13.765274 6.4745857 12.705562 5.9336154 11.697266 6.0078125 z M 12.980469 12.701172 C 12.756848 13.011656 12.531304 13.314959 12.314453 13.642578 C 12.092801 13.977452 11.905307 14.308768 11.703125 14.642578 C 11.474549 14.036705 11.280134 13.451644 11.119141 12.884766 C 11.705954 12.800167 12.332037 12.742178 12.980469 12.701172 z M 16.105469 14.902344 A 1.271594 1.2475973 0 0 0 14.796875 16.148438 A 1.271594 1.2475973 0 0 0 17.339844 16.148438 A 1.271594 1.2475973 0 0 0 16.105469 14.902344 z "
     id="path4" />
</svg>
