<?xml version="1.0" encoding="UTF-8" standalone="no"?>
<svg xmlns:rdf="http://www.w3.org/1999/02/22-rdf-syntax-ns#" xmlns="http://www.w3.org/2000/svg" height="32" width="32" version="1.1" xmlns:cc="http://creativecommons.org/ns#" xmlns:xlink="http://www.w3.org/1999/xlink" xmlns:dc="http://purl.org/dc/elements/1.1/">
 <defs>
  <linearGradient id="c" y2="44.341" gradientUnits="userSpaceOnUse" x2="71.204" gradientTransform="matrix(.72973 0 0 .72973 -36.346 -2.5039)" y1="6.2376" x1="71.204">
   <stop stop-color="#fff" offset="0"/>
   <stop stop-color="#fff" stop-opacity=".23529" offset=".50776"/>
   <stop stop-color="#fff" stop-opacity=".15686" offset=".83457"/>
   <stop stop-color="#fff" stop-opacity=".39216" offset="1"/>
  </linearGradient>
  <radialGradient id="b" gradientUnits="userSpaceOnUse" cy="8.4236" cx="-.74462" gradientTransform="matrix(0 3.85 -5.7895 -9.2955e-7 64.92 -7.1332)" r="20">
   <stop stop-color="#ffcd7d" offset="0"/>
   <stop stop-color="#fc8f36" offset=".26238"/>
   <stop stop-color="#e23a0e" offset=".70495"/>
   <stop stop-color="#ac441f" offset="1"/>
  </radialGradient>
  <radialGradient id="a" gradientUnits="userSpaceOnUse" cx="99.157" cy="186.17" r="62.769" gradientTransform="matrix(.17525 0 0 .055760 -1.3768 18.119)">
   <stop stop-color="#3d3d3d" offset="0"/>
   <stop stop-color="#686868" stop-opacity=".49804" offset=".5"/>
   <stop stop-color="#686868" stop-opacity="0" offset="1"/>
  </radialGradient>
  <linearGradient id="d" y2="26" gradientUnits="userSpaceOnUse" x2="17" y1="6" x1="17">
   <stop stop-color="#fff5ef" offset="0"/>
   <stop stop-color="#fef8dd" offset="1"/>
  </linearGradient>
 </defs>
 <path d="m27 28.499a11 3.5 0 1 1 -22 0 11 3.5 0 1 1 22 0z" fill="url(#a)"/>
 <path style="color:#000000" d="m16 1.5c-8.0006 0-14.5 6.4994-14.5 14.5 0 8.001 6.4994 14.5 14.5 14.5 8.001 0 14.5-6.499 14.5-14.5 0-8.0006-6.499-14.5-14.5-14.5z" fill="url(#b)"/>
 <path opacity=".4" stroke-linejoin="round" style="color:#000000" d="m16 1.5c-8.0006 0-14.5 6.4994-14.5 14.5 0 8.001 6.4994 14.5 14.5 14.5 8.001 0 14.5-6.499 14.5-14.5 0-8.0006-6.499-14.5-14.5-14.5z" fill-opacity="0" stroke="#640000" stroke-linecap="round"/>
 <path opacity=".5" stroke-linejoin="round" style="color:#000000" d="m29.5 16c0 7.4561-6.0446 13.5-13.5 13.5-7.4557 0-13.5-6.044-13.5-13.5 0-7.4562 6.0443-13.5 13.5-13.5 7.455 0 13.5 6.0438 13.5 13.5v0z" stroke="url(#c)" stroke-linecap="round" fill="none"/>
 <path opacity=".15" style="color-rendering:auto;text-decoration-color:#000000;color:#000000;isolation:auto;mix-blend-mode:normal;shape-rendering:auto;solid-color:#000000;block-progression:tb;text-decoration-line:none;text-decoration-style:solid;image-rendering:auto;white-space:normal;text-indent:0;text-transform:none" d="m15.328 6.2246a1.0001 1.0001 0 0 0 -0.91406 0.75781l-0.43555 1.7422a1.0001 1.0001 0 0 0 -0.07617 -0.023437l-2.269-0.5664a1.0001 1.0001 0 0 0 -1.2129 0.72852l-0.4376 1.7577a1.0001 1.0001 0 0 0 0.74609 1.2168s0.30349 0.06796 0.59961 0.13867c0.14806 0.03536 0.294 0.07216 0.39258 0.09766 0.03514 0.0091 0.05206 0.01303 0.06836 0.01758a1.0001 1.0001 0 0 0 0.09375 0.03125l-0.70703 2.832a1.0001 1.0001 0 0 0 -0.002 0.01172 1.0001 1.0001 0 0 0 0 0.002l-0.97266 3.8965c-0.07678-0.01928-0.14432-0.03638-0.23047-0.05859-0.296-0.077-0.5955-0.157-0.5955-0.157a1.0001 1.0001 0 0 0 -1.1758 0.569l-0.81641 1.8848a1.0001 1.0001 0 0 0 0.67578 1.3672l2.1406 0.53516c0.06817 0.01708 0.13688 0.0353 0.20508 0.05273l-0.44141 1.7734a1.0001 1.0001 0 0 0 0.72852 1.2109l1.6445 0.41016a1.0001 1.0001 0 0 0 0.7207 -0.09375 1.0001 1.0001 0 0 0 0.59375 0.42188l1.6465 0.41016a1.0001 1.0001 0 0 0 1.2109 -0.72852l0.46875-1.875c1.1112 0.14956 2.1782 0.2 3.1582-0.10156 1.2586-0.3873 2.3111-1.3927 2.834-2.8867 0.41384-1.1816 0.4414-2.2861 0.03906-3.2051-0.17648-0.40311-0.44596-0.73096-0.74023-1.0332 0.65296-0.56994 1.1818-1.3127 1.3359-2.3516 0.18992-1.2695-0.25706-2.4402-1.0371-3.2266-0.56037-0.5649-1.3444-0.85988-2.1016-1.1875l0.49414-1.9824a1.0001 1.0001 0 0 0 -0.728 -1.2103l-1.646-0.4101a1.0001 1.0001 0 0 0 -0.7207 0.09375 1.0001 1.0001 0 0 0 -0.5918 -0.42188l-1.647-0.4102a1.0001 1.0001 0 0 0 -0.29688 -0.029297zm-2.6445 3.2363a1.0001 1.0001 0 0 0 0.73438 1.1895c0.3534 0.08786 0.70923 0.17016 1.0684 0.25195a1.0001 1.0001 0 0 0 0.93945 -0.2793 1.0001 1.0001 0 0 0 0.64258 0.61523 1.0001 1.0001 0 0 0 -1.1133 0.74805l-0.82031 3.2871a1.0001 1.0001 0 0 0 0.26172 0.94531 1.0001 1.0001 0 0 0 -0.67578 0.71289l-0.90234 3.623a1.0001 1.0001 0 0 0 0.72852 1.2129c0.48949 0.12155 1.7071 0.50172 2.9492 0.56641 0.62105 0.03234 1.2736-0.000569 1.9082-0.27734 0.6346-0.27678 1.2238-0.89177 1.4199-1.6797 0.19908-0.79826-0.01879-1.6285-0.45117-2.1816-0.43239-0.55319-1.002-0.88856-1.5703-1.1465-0.14161-0.06427-0.21353-0.05019-0.35742-0.10547 0.52173 0.01338 1.0785-0.02346 1.625-0.28906 0.57151-0.27775 1.0823-0.86145 1.2617-1.5801 0.18149-0.72824 0.01634-1.4933-0.35938-2.0176-0.37571-0.52427-0.88011-0.83958-1.373-1.0723-0.9415-0.44443-1.918-0.59983-2.3242-0.69336 0.39609 0.09054 0.7922 0.17932 1.1699 0.27344a1.0001 1.0001 0 0 0 0.90625 -0.22461 1.0001 1.0001 0 0 0 0.63672 0.68164c0.9646 0.33227 1.7334 0.74368 2.1582 1.1719 0.42477 0.4282 0.58722 0.7929 0.47852 1.5195a1.0001 1.0001 0 0 0 0 0.002c-0.17004 1.1497-0.56106 1.4088-1.3379 1.5879a1.0001 1.0001 0 0 0 -0.23633 1.8613c0.61427 0.31981 0.96138 0.65948 1.125 1.0332 0.16362 0.37373 0.20827 0.87984-0.09375 1.7422-0.36553 1.0445-0.81475 1.415-1.5352 1.6367-0.7204 0.22168-1.8064 0.18413-3.1406-0.06836a1.0001 1.0001 0 0 0 -0.89844 0.28125 1.0001 1.0001 0 0 0 -0.70312 -0.64258c-0.421-0.103-0.848-0.213-1.289-0.333a1.0001 1.0001 0 0 0 -0.94531 0.23438 1.0001 1.0001 0 0 0 -0.70703 -0.67773c-0.37726-0.09662-0.76903-0.20228-1.1777-0.30469a1.0001 1.0001 0 0 0 -0.002 0l-0.9965-0.248 0.00586-0.01563c0.069422 0.0175 0.14654 0.03666 0.20508 0.05078 0.060837 0.01468 0.11219 0.02598 0.16602 0.03711 0.02691 0.0056 0.04756 0.01166 0.10742 0.01953 0.02993 0.0039 0.05053 0.01478 0.18945 0.0078 0.03473-0.0017 0.14813-0.01947 0.14844-0.01953 0.000311-0.000062 0.32991-0.1288 0.33008-0.12891 0.000006-0.000004 0.01833-0.01667 0.02148-0.01953 0.1905-0.04804 0.41764 0.0042 0.55859-0.09766 0.34009-0.24586 0.49074-0.53984 0.57617-0.75195a1.0001 1.0001 0 0 0 0.04101 -0.13086l0.942-3.767a1.0001 1.0001 0 0 0 0.27344 -1.0996l0.63281-2.541a1.0001 1.0001 0 0 0 0.0293 -0.18555c0.01806-0.31324-0.02407-0.73536-0.28125-1.1406-0.14687-0.23143-0.45485-0.32918-0.70898-0.48242-0.04476-0.06027-0.09169-0.12295-0.0918-0.12305-0.000244-0.000229-0.09821-0.07976-0.13086-0.10156-0.12955-0.08653-0.15726-0.08889-0.18945-0.10156l0.172-0.7631zm-1.528 1.8241a1.0001 1.0001 0 0 0 0.0039 0.01563c-0.000191-0.000626-0.0039-0.0098-0.0039-0.0098 0 0.000001-0.000013-0.0057 0-0.0059zm5.4883 2.1914c0.39094 0.09816 0.76954 0.15968 1.1016 0.31641 0.31088 0.14675 0.52311 0.31826 0.60156 0.42773s0.1051 0.12767 0.04492 0.36914c-0.05267 0.211-0.07214 0.20481-0.19727 0.26562s-0.40174 0.11435-0.75 0.10156c-0.37029-0.0136-0.72479-0.12847-1.1152-0.21875l0.31445-1.2617zm-1.2324 4.9434c0.54093 0.12987 1.0703 0.22496 1.5645 0.44922 0.39917 0.18116 0.6965 0.40018 0.82031 0.55859 0.12382 0.15841 0.15266 0.19729 0.08594 0.46484-0.05825 0.23407-0.08875 0.24782-0.27734 0.33008-0.1886 0.08225-0.56349 0.13827-1.0059 0.11524-0.54659-0.02846-1.0509-0.18522-1.5879-0.31641l0.40039-1.6016zm-5.2852 0.51367a1.0001 1.0001 0 0 0 -0.01758 0.0039c0.000191-0.000077 0.0059-0.002 0.0059-0.002-0.000025 0.000005 0.01038-0.0018 0.01172-0.002z" fill="#ae2109"/>
 <path opacity=".3" d="m22.614 14.861c0.29863-1.9962-1.2212-3.0692-3.2994-3.7851l0.674-2.7041-1.646-0.4102-0.656 2.6323c-0.433-0.107-0.877-0.209-1.319-0.31l0.661-2.65-1.645-0.4102-0.675 2.7031c-0.358-0.0816-0.709-0.1622-1.051-0.247l0.0019-0.00844-2.2699-0.56678-0.43786 1.758s1.2212 0.27987 1.1954 0.29722c0.66663 0.16642 0.78712 0.60756 0.76696 0.95729l-0.76789 3.0805c0.04594 0.01172 0.10548 0.0286 0.17111 0.05485-0.05485-0.0136-0.11345-0.0286-0.17392-0.04313l-1.075 4.315c-0.08157 0.20252-0.28831 0.5063-0.7543 0.39098 0.01641 0.02391-1.1964-0.29863-1.1964-0.29863l-0.8174 1.884 2.1419 0.53396c0.39848 0.09985 0.78899 0.2044 1.1734 0.30284l-0.68117 2.735 1.6441 0.4102 0.6746-2.7059c0.44911 0.12189 0.8851 0.2344 1.3117 0.34035l-0.67226 2.6933 1.646 0.4102 0.68117-2.7298c2.8067 0.53115 4.9172 0.31691 5.8056-2.2216 0.71586-2.044-0.03563-3.223-1.5123-3.9918 1.0754-0.248 1.8855-0.95541 2.1016-2.4167zm-3.7607 5.2735c-0.50865 2.044-3.9501 0.93901-5.0659 0.66194l0.90385-3.6234c1.1157 0.27847 4.6936 0.82978 4.162 2.9614zm0.50912-5.3031c-0.46411 1.8593-3.3285 0.91463-4.2576 0.68304l0.81946-3.2863c0.92916 0.23159 3.9215 0.66382 3.4382 2.6032z" fill="#ae2109"/>
 <path d="m22.614 13.861c0.29863-1.9962-1.2212-3.0692-3.2994-3.7851l0.674-2.704-1.646-0.4102-0.656 2.6328c-0.433-0.1079-0.877-0.2096-1.319-0.3104l0.661-2.6501-1.645-0.4102-0.675 2.7031c-0.358-0.0816-0.709-0.1622-1.051-0.2471l0.0019-0.00844-2.2699-0.56678-0.43786 1.758s1.2212 0.27987 1.1954 0.29722c0.66663 0.16642 0.78712 0.60756 0.76696 0.95729l-0.76789 3.0805c0.04594 0.01172 0.10548 0.0286 0.17111 0.05485-0.05485-0.0136-0.11345-0.0286-0.17392-0.04313l-1.0764 4.3153c-0.08157 0.20252-0.28831 0.5063-0.7543 0.39098 0.01641 0.02391-1.1964-0.29863-1.1964-0.29863l-0.8164 1.884 2.1419 0.53396c0.39848 0.09985 0.78899 0.2044 1.1734 0.30284l-0.68117 2.735 1.6441 0.4102 0.6746-2.7059c0.44911 0.12189 0.8851 0.2344 1.3117 0.34035l-0.67226 2.6933 1.646 0.4102 0.68117-2.7298c2.8067 0.53115 4.9172 0.31691 5.8056-2.2216 0.71586-2.044-0.03563-3.223-1.5123-3.9918 1.0754-0.248 1.8855-0.95541 2.1016-2.4167zm-3.7607 5.2735c-0.50865 2.044-3.9501 0.93901-5.0659 0.66194l0.90385-3.6234c1.1157 0.27847 4.6936 0.82978 4.162 2.9614zm0.50912-5.3031c-0.46411 1.8593-3.3285 0.91463-4.2576 0.68304l0.81946-3.2863c0.92916 0.23159 3.9215 0.66382 3.4382 2.6032z" fill="url(#d)"/>
</svg>
