<?xml version="1.0" encoding="UTF-8" standalone="no"?>
<svg xmlns:rdf="http://www.w3.org/1999/02/22-rdf-syntax-ns#" xmlns="http://www.w3.org/2000/svg" height="32" width="32" version="1.1" xmlns:cc="http://creativecommons.org/ns#" xmlns:xlink="http://www.w3.org/1999/xlink" xmlns:dc="http://purl.org/dc/elements/1.1/">
 <defs>
  <linearGradient id="i" y2="22" gradientUnits="userSpaceOnUse" x2="156" gradientTransform="matrix(.60116 0 0 .71254 89.983 392.97)" y1="20" x1="156">
   <stop stop-color="#fff" offset="0"/>
   <stop stop-color="#fff" stop-opacity="0" offset="1"/>
  </linearGradient>
  <linearGradient id="h" y2="4" xlink:href="#a" gradientUnits="userSpaceOnUse" x2="157" gradientTransform="matrix(.60721 0 0 .55095 89.263 394.8)" y1="17" x1="157"/>
  <linearGradient id="a">
   <stop stop-color="#5b371f" offset="0"/>
   <stop stop-color="#5b371f" stop-opacity="0" offset="1"/>
  </linearGradient>
  <linearGradient id="g" y2="4" xlink:href="#a" gradientUnits="userSpaceOnUse" x2="157" gradientTransform="matrix(.61951 0 0 .55107 87.541 394.79)" y1="17" x1="157"/>
  <linearGradient id="f" y2="4" xlink:href="#a" gradientUnits="userSpaceOnUse" x2="157" gradientTransform="matrix(.61249 0 0 .55107 88.585 394.79)" y1="17" x1="157"/>
  <linearGradient id="e" y2="41.628" gradientUnits="userSpaceOnUse" x2="149.75" gradientTransform="matrix(.65598 0 0 .64254 81.431 394.85)" y1="26.628" x1="141.53">
   <stop stop-color="#fff" offset="0"/>
   <stop stop-color="#fff" stop-opacity="0" offset="1"/>
  </linearGradient>
  <radialGradient id="c" gradientUnits="userSpaceOnUse" cy="27.696" cx="156" gradientTransform="matrix(.62143 1.3505e-8 -1.2267e-8 .53267 86.786 399.26)" r="18">
   <stop stop-color="#fff" offset="0"/>
   <stop stop-color="#ededed" offset=".5"/>
   <stop stop-color="#c8c8c8" offset="1"/>
  </radialGradient>
  <radialGradient id="d" gradientUnits="userSpaceOnUse" cy="40.844" cx="156.84" gradientTransform="matrix(1 0 0 .33333 0 27.229)" r="10.969">
   <stop offset="0"/>
   <stop stop-opacity="0" offset="1"/>
  </radialGradient>
  <radialGradient id="b" gradientUnits="userSpaceOnUse" cy="16.882" cx="156.01" gradientTransform="matrix(.47510 -.0024603 .0010690 .21484 109.63 406.66)" r="17">
   <stop stop-color="#b37851" offset="0"/>
   <stop stop-color="#462e1e" offset="1"/>
  </radialGradient>
 </defs>
 <g transform="translate(-169.71 -396.36)">
  <path opacity="0.99" stroke-linejoin="round" style="color:#000000" d="m194.47 412.93-0.66582 2.0747h2.7539c0.42353 0 0.71419 0.0774 0.58299 0.57633l-0.41412 1.6345c-0.1312 0.49894-0.54965 0.70892-0.97317 0.70892h-2.9609l-0.60047 1.9421h3.0645c1.5249 0 3.0719-1.1831 3.4579-2.651l0.41412-1.6345c0.38603-1.468-0.52497-2.651-2.0499-2.651z" stroke="#969696" stroke-linecap="round" fill="#dcdcdc"/>
  <path opacity="0.99" stroke-linejoin="round" style="color:#000000" d="m227.37 19.938c0 1.1046-5.4285 2-12.125 2-6.6964 0-12.125-0.89543-12.125-2s5.4285-2 12.125-2 12.125 0.89543 12.125 2z" transform="matrix(.74126 0 0 .74312 24.639 395.04)" stroke="#141414" stroke-linecap="round" stroke-width="1.3474" fill="#52250c"/>
  <path opacity="0.99" stroke-linejoin="round" style="color:#000000" d="m183.76 405.86c-6.3442 0-11.48 1.5741-11.48 3.5039s5.1354 3.5039 11.48 3.5039c6.3442 0 11.48-1.5741 11.48-3.5039s-5.1354-3.5039-11.48-3.5039z" stroke="#969696" stroke-linecap="round" fill="#dcdcdc"/>
  <path opacity="0.99" stroke-linejoin="round" style="color:#000000" d="m183.76 408.86c-5.9817 0-10.824 1.4905-10.824 3.3177s4.842 3.3177 10.824 3.3177c5.9817 0 10.824-1.4905 10.824-3.3177s-4.842-3.3177-10.824-3.3177z" stroke="#bf8d6d" stroke-linecap="round" fill="url(#b)"/>
  <path opacity=".4" style="color:#000000" d="m167.81 40.844c0 2.0193-4.9109 3.6562-10.969 3.6562-6.0579 0-10.969-1.637-10.969-3.6562 0-2.0193 4.9109-3.6562 10.969-3.6562 6.0579 0 10.969 1.637 10.969 3.6562z" transform="matrix(.87230 0 0 .89829 46.95 388.39)" fill="url(#d)"/>
  <path opacity="0.99" stroke-linejoin="round" style="color:#000000" d="m194.96 409.86c-0.17821 1.7255-5.123 3.1231-11.229 3.1231-5.9974 0-10.888-1.3501-11.229-3.0325-0.12132 0.11302-0.22089 0.2368-0.28549 0.36209 0 6.9393 3.8796 15.547 11.396 15.547 8.0523 0 11.511-8.4443 11.634-15.547 0.00001-0.15663-0.10442-0.30968-0.28548-0.45262z" stroke="#969696" stroke-linecap="round" fill="url(#c)"/>
  <path opacity="0.99" style="color:#000000" d="m173.94 411.8c0.87276 4.8868 3.397 10.113 7.5233 11.883-2.9537-2.538-4.6444-7.0347-5.0959-11.103-0.90443-0.16661-1.7298-0.54856-2.4274-0.78005z" fill="url(#e)"/>
  <path opacity=".7" style="enable-background:new" d="m184.74 403.86c0.26572 0.0327 0.54083-0.0155 0.7797-0.13635 0.23887-0.12089 0.44055-0.31409 0.57159-0.54754 0.13105-0.23345 0.19094-0.50624 0.16974-0.77312s-0.12341-0.52678-0.28967-0.73662c-0.14514-0.18318-0.33576-0.32639-0.53974-0.44048-0.20398-0.11408-0.42205-0.2005-0.64003-0.28481-0.43596-0.16864-0.89239-0.34216-1.2054-0.68932-0.20421-0.22649-0.3341-0.51892-0.36524-0.82228-0.0311-0.30337 0.0366-0.61609 0.19056-0.87934 0.15394-0.26325 0.39324-0.47568 0.67289-0.59731s0.5982-0.15184 0.89573-0.0849" stroke="url(#f)" stroke-linecap="round" stroke-width="1px" fill="none"/>
  <path opacity=".7" style="enable-background:new" d="m189.78 403.86c0.2682 0.04 0.54817-0.003 0.79235-0.12049 0.24417-0.11796 0.45155-0.3108 0.5869-0.54578 0.13535-0.23499 0.19811-0.51113 0.17762-0.78153-0.0205-0.2704-0.12413-0.53393-0.29334-0.74584-0.14873-0.18626-0.34455-0.33072-0.55389-0.44468-0.20935-0.11397-0.433-0.19896-0.65652-0.28175-0.44703-0.16557-0.91574-0.33608-1.2371-0.6882-0.20867-0.22866-0.34119-0.52566-0.37199-0.83368-0.0308-0.30803 0.0403-0.62539 0.19958-0.89083 0.15927-0.26545 0.40583-0.47752 0.69211-0.5953 0.28628-0.11777 0.61071-0.1406 0.91066-0.0641" stroke="url(#g)" stroke-linecap="round" stroke-width="1px" fill="none"/>
  <path opacity=".7" style="enable-background:new" d="m179.74 403.86c0.26514 0.0311 0.53918-0.0181 0.77691-0.13954 0.23774-0.12146 0.43821-0.31467 0.56836-0.54776s0.18944-0.50513 0.16811-0.77124c-0.0213-0.2661-0.12322-0.52522-0.28884-0.7346-0.14438-0.18252-0.3339-0.32545-0.53674-0.43953-0.20283-0.11409-0.41972-0.20077-0.63651-0.28538-0.4336-0.16922-0.88743-0.34332-1.1987-0.6894-0.20325-0.22601-0.33258-0.51745-0.36378-0.8198s0.0359-0.61406 0.18871-0.87681c0.15282-0.26275 0.39058-0.47519 0.66882-0.59757 0.27823-0.12238 0.5955-0.15408 0.89244-0.0892" stroke="url(#h)" stroke-linecap="round" stroke-width="1px" fill="none"/>
  <path opacity="0.99" stroke-linejoin="round" style="color:#000000" d="m183.76 406.86c-5.814 0-10.52 1.587-10.52 3.5325s4.7063 3.5325 10.52 3.5325c5.8141 0 10.52-1.587 10.52-3.5325s-4.7063-3.5325-10.52-3.5325z" stroke="url(#i)" stroke-linecap="round" fill="none"/>
  <path stroke-linejoin="round" style="color:#000000" d="m108.95 59.755c-10.876 6.976-37.757 9.873-60.045 6.471-8.792-1.343-15.943-3.547-20.366-6.278" transform="matrix(.25990 .00068990 -.00063786 .24068 165.93 397.53)" stroke="#fff" stroke-linecap="round" stroke-width="3.9983" fill="none"/>
 </g>
</svg>
