<?xml version="1.0" encoding="UTF-8" standalone="no"?>
<svg xmlns:rdf="http://www.w3.org/1999/02/22-rdf-syntax-ns#" xmlns="http://www.w3.org/2000/svg" height="32" width="32" version="1.1" xmlns:cc="http://creativecommons.org/ns#" xmlns:xlink="http://www.w3.org/1999/xlink" viewBox="0 0 32 32.000001" xmlns:dc="http://purl.org/dc/elements/1.1/">
 <defs>
  <linearGradient id="f" y2="43" gradientUnits="userSpaceOnUse" x2="24" gradientTransform="matrix(.62162 0 0 .62162 1.0811 1022.4)" y1="5" x1="24">
   <stop stop-color="#fff" offset="0"/>
   <stop stop-color="#fff" stop-opacity=".23529" offset=".063165"/>
   <stop stop-color="#fff" stop-opacity=".15686" offset=".95056"/>
   <stop stop-color="#fff" stop-opacity=".39216" offset="1"/>
  </linearGradient>
  <linearGradient id="g" y2="30.093" gradientUnits="userSpaceOnUse" x2="30.643" gradientTransform="translate(-27.316 1020.4)" y1="3.9158" x1="30.643">
   <stop stop-opacity=".27206" offset="0"/>
   <stop stop-opacity=".36765" offset="1"/>
  </linearGradient>
  <radialGradient id="d" gradientUnits="userSpaceOnUse" cy="8.4498" cx="20.931" gradientTransform="matrix(1.1657e-8 1.4381 -1.4834 -2.6496e-8 28.534 -1059.8)" r="20">
   <stop stop-color="#f4f4f4" offset="0"/>
   <stop stop-color="#d0d0d0" offset="1"/>
  </radialGradient>
  <radialGradient id="c" xlink:href="#a" gradientUnits="userSpaceOnUse" cy="43.5" cx="4.993" gradientTransform="matrix(2.0038 0 0 1.4 27.988 -17.4)" r="2.5"/>
  <linearGradient id="a">
   <stop stop-color="#181818" offset="0"/>
   <stop stop-color="#181818" stop-opacity="0" offset="1"/>
  </linearGradient>
  <radialGradient id="b" xlink:href="#a" gradientUnits="userSpaceOnUse" cy="43.5" cx="4.993" gradientTransform="matrix(2.0038 0 0 1.4 -20.012 -104.4)" r="2.5"/>
  <linearGradient id="e" y2="39.999" gradientUnits="userSpaceOnUse" x2="25.058" y1="47.028" x1="25.058">
   <stop stop-color="#181818" stop-opacity="0" offset="0"/>
   <stop stop-color="#181818" offset=".5"/>
   <stop stop-color="#181818" stop-opacity="0" offset="1"/>
  </linearGradient>
 </defs>
 <g transform="translate(0 -1020.4)">
  <g transform="matrix(0.7 0 0 .44444 -0.8 1030.5)">
   <g opacity=".4" transform="matrix(1.0526 0 0 1.2857 -1.2632 -13.429)">
    <rect height="7" width="5" y="40" x="38" fill="url(#c)"/>
    <rect transform="scale(-1)" height="7" width="5" y="-47" x="-10" fill="url(#b)"/>
    <rect height="7" width="28" y="40" x="10" fill="url(#e)"/>
   </g>
  </g>
  <rect style="color:#000000" transform="scale(1,-1)" rx="1.4911" ry="1.4911" height="24" width="24" y="-1049.4" x="4" fill="url(#d)"/>
  <rect stroke-linejoin="round" style="color:#000000" rx="2" ry="2" height="25" width="25" stroke="url(#g)" stroke-linecap="round" y="1024.9" x="3.5" fill="none"/>
  <rect stroke-linejoin="round" rx="1" ry="1" height="23" width="23" stroke="url(#f)" stroke-linecap="round" y="1025.9" x="4.5" fill="none"/>
  <path opacity=".05" stroke-linejoin="round" style="image-rendering:optimizeQuality;shape-rendering:geometricPrecision" d="m13.334 1031.5-5.334 9.2l2.666 4.6191h10.668l2.666-4.6191-5.334-9.2403h-5.332zm2.666 4.6l2.666 4.6211h-5.332l2.666-4.6z" fill-rule="evenodd" stroke="#000" clip-rule="evenodd" stroke-width="2"/>
  <path opacity=".15" style="image-rendering:optimizeQuality;shape-rendering:geometricPrecision" d="m13.334 1031.5-5.334 9.2l2.666 4.6191h10.668l2.666-4.6191-5.334-9.2403h-5.332zm2.666 4.6l2.666 4.6211h-5.332l2.666-4.6z" fill-rule="evenodd" clip-rule="evenodd"/>
  <polygon style="image-rendering:optimizeQuality;shape-rendering:geometricPrecision" fill-rule="evenodd" transform="matrix(.00012016 0 0 .00012016 8 1030.5)" class="fil0" points="1.3316e5 76894 1.1096e5 1.1534e5 22194 1.1534e5 44385 76894" clip-rule="evenodd" fill="#3777e3"/>
  <polygon style="image-rendering:optimizeQuality;shape-rendering:geometricPrecision" fill-rule="evenodd" transform="matrix(.00012016 0 0 .00012016 8 1030.5)" class="fil1" points="88772 0 44385 0 88772 76894 1.3316e5 76894" clip-rule="evenodd" fill="#ffcf63"/>
  <polygon style="image-rendering:optimizeQuality;shape-rendering:geometricPrecision" fill-rule="evenodd" transform="matrix(.00012016 0 0 .00012016 8 1030.5)" class="fil2" points="66578 38447 44385 0 0 76894 22194 1.1534e5" clip-rule="evenodd" fill="#11a861"/>
 </g>
</svg>
