<?xml version="1.0" encoding="UTF-8" standalone="no"?>
<svg xmlns:rdf="http://www.w3.org/1999/02/22-rdf-syntax-ns#" xmlns="http://www.w3.org/2000/svg" height="32" width="32" version="1.1" xmlns:cc="http://creativecommons.org/ns#" xmlns:xlink="http://www.w3.org/1999/xlink" xmlns:dc="http://purl.org/dc/elements/1.1/">
 <defs>
  <linearGradient id="e" y2="43" gradientUnits="userSpaceOnUse" x2="24" gradientTransform="matrix(.62162 0 0 .62162 1.0811 2.0811)" y1="5" x1="24">
   <stop stop-color="#fff" offset="0"/>
   <stop stop-color="#fff" stop-opacity=".23529" offset=".063165"/>
   <stop stop-color="#fff" stop-opacity=".15686" offset=".95056"/>
   <stop stop-color="#fff" stop-opacity=".39216" offset="1"/>
  </linearGradient>
  <radialGradient id="a" gradientUnits="userSpaceOnUse" cy="8.4498" cx="7.4957" gradientTransform="matrix(-.0000034738 1.3563 -1.5848 -.0000040959 29.391 -5.2932)" r="20">
   <stop stop-color="#4ad58e" offset="0"/>
   <stop stop-color="#2dc477" offset=".26238"/>
   <stop stop-color="#26a464" offset=".70495"/>
   <stop stop-color="#1d7d4c" offset="1"/>
  </radialGradient>
  <linearGradient id="d" y2="3.899" gradientUnits="userSpaceOnUse" x2="24" gradientTransform="matrix(.64103 0 0 .64103 .61539 1.6154)" y1="47.4" x1="24">
   <stop stop-color="#1a6f44" offset="0"/>
   <stop stop-color="#1f8753" offset="1"/>
  </linearGradient>
  <radialGradient id="c" gradientUnits="userSpaceOnUse" cy="43.5" cx="4.993" gradientTransform="matrix(2.0038 0 0 1.4 27.988 -17.4)" r="2.5">
   <stop stop-color="#181818" offset="0"/>
   <stop stop-color="#181818" stop-opacity="0" offset="1"/>
  </radialGradient>
  <radialGradient id="b" gradientUnits="userSpaceOnUse" cy="43.5" cx="4.993" gradientTransform="matrix(2.0038 0 0 1.4 -20.012 -104.4)" r="2.5">
   <stop stop-color="#181818" offset="0"/>
   <stop stop-color="#181818" stop-opacity="0" offset="1"/>
  </radialGradient>
  <linearGradient id="f" y2="39.999" gradientUnits="userSpaceOnUse" x2="25.058" y1="47.028" x1="25.058">
   <stop stop-color="#181818" stop-opacity="0" offset="0"/>
   <stop stop-color="#181818" offset=".5"/>
   <stop stop-color="#181818" stop-opacity="0" offset="1"/>
  </linearGradient>
 </defs>
 <g transform="matrix(0.7 0 0 .33333 -0.8 15.333)">
  <g opacity=".4" transform="matrix(1.0526 0 0 1.2857 -1.2632 -13.429)">
   <rect height="7" width="5" y="40" x="38" fill="url(#c)"/>
   <rect transform="scale(-1)" height="7" width="5" y="-47" x="-10" fill="url(#b)"/>
   <rect height="7" width="28" y="40" x="10" fill="url(#f)"/>
  </g>
 </g>
 <rect stroke-linejoin="round" height="25" stroke="url(#d)" stroke-linecap="round" fill="url(#a)" style="color:#000000" rx="2" ry="2" width="25" y="4.5" x="3.5"/>
 <rect opacity=".5" stroke-linejoin="round" rx="1" ry="1" height="23" width="23" stroke="url(#e)" stroke-linecap="round" y="5.5" x="4.5" fill="none"/>
 <path opacity=".15" d="m11 12.25a1 1 0 0 0 -1 1 1 1 0 0 0 1 1 1 1 0 0 0 1 -1 1 1 0 0 0 -1 -1zm3 0.25v1.5h8v-1.5h-8zm-3 3.75a1 1 0 0 0 -1 1 1 1 0 0 0 1 1 1 1 0 0 0 1 -1 1 1 0 0 0 -1 -1zm3 0.25v1.5h8v-1.5h-8zm-3 3.75a1 1 0 0 0 -1 1 1 1 0 0 0 1 1 1 1 0 0 0 1 -1 1 1 0 0 0 -1 -1zm3 0.25v1.5h8v-1.5h-8z"/>
 <path opacity=".05" style="color-rendering:auto;text-decoration-color:#000000;color:#000000;isolation:auto;mix-blend-mode:normal;shape-rendering:auto;solid-color:#000000;block-progression:tb;text-decoration-line:none;text-decoration-style:solid;image-rendering:auto;white-space:normal;text-indent:0;text-transform:none" d="m11 11.25c-1.0927 0-2 0.90728-2 2s0.90728 2 2 2 2-0.90728 2-2-0.90728-2-2-2zm2 2v0.75a1.0001 1.0001 0 0 0 1 1h8a1.0001 1.0001 0 0 0 1 -1v-1.5a1.0001 1.0001 0 0 0 -1 -1h-8a1.0001 1.0001 0 0 0 -1 1v0.75zm-2 2c-1.0927 0-2 0.90728-2 2s0.90728 2 2 2 2-0.90728 2-2-0.90728-2-2-2zm2 2v0.75a1.0001 1.0001 0 0 0 1 1h8a1.0001 1.0001 0 0 0 1 -1v-1.5a1.0001 1.0001 0 0 0 -1 -1h-8a1.0001 1.0001 0 0 0 -1 1v0.75zm-2 2c-1.0927 0-2 0.90728-2 2s0.90728 2 2 2 2-0.90728 2-2-0.90728-2-2-2zm2 2v0.75a1.0001 1.0001 0 0 0 1 1h8a1.0001 1.0001 0 0 0 1 -1v-1.5a1.0001 1.0001 0 0 0 -1 -1h-8a1.0001 1.0001 0 0 0 -1 1v0.75z"/>
 <path d="m11 11.25a1 1 0 0 0 -1 1 1 1 0 0 0 1 1 1 1 0 0 0 1 -1 1 1 0 0 0 -1 -1zm3 0.25v1.5h8v-1.5h-8zm-3 3.75a1 1 0 0 0 -1 1 1 1 0 0 0 1 1 1 1 0 0 0 1 -1 1 1 0 0 0 -1 -1zm3 0.25v1.5h8v-1.5h-8zm-3 3.75a1 1 0 0 0 -1 1 1 1 0 0 0 1 1 1 1 0 0 0 1 -1 1 1 0 0 0 -1 -1zm3 0.25v1.5h8v-1.5h-8z" fill="#fff"/>
</svg>
