<?xml version="1.0" encoding="UTF-8" standalone="no"?>
<svg xmlns:rdf="http://www.w3.org/1999/02/22-rdf-syntax-ns#" xmlns="http://www.w3.org/2000/svg" height="32" width="32" version="1.1" xmlns:cc="http://creativecommons.org/ns#" xmlns:xlink="http://www.w3.org/1999/xlink" viewBox="0 0 32 32.000001" xmlns:dc="http://purl.org/dc/elements/1.1/">
 <defs>
  <linearGradient id="f" y2="43" gradientUnits="userSpaceOnUse" x2="24" gradientTransform="matrix(.62162 0 0 .62162 1.0811 1022.4)" y1="5" x1="24">
   <stop stop-color="#fff" offset="0"/>
   <stop stop-color="#fff" stop-opacity=".23529" offset=".063165"/>
   <stop stop-color="#fff" stop-opacity=".15686" offset=".95056"/>
   <stop stop-color="#fff" stop-opacity=".39216" offset="1"/>
  </linearGradient>
  <linearGradient id="g" y2="30.093" gradientUnits="userSpaceOnUse" x2="30.643" gradientTransform="translate(-27.316 1020.4)" y1="3.9158" x1="30.643">
   <stop stop-opacity=".27206" offset="0"/>
   <stop stop-opacity=".36765" offset="1"/>
  </linearGradient>
  <radialGradient id="d" gradientUnits="userSpaceOnUse" cy="8.4498" cx="20.931" gradientTransform="matrix(1.1657e-8 1.4381 -1.4834 -2.6496e-8 28.534 -1059.8)" r="20">
   <stop stop-color="#f4f4f4" offset="0"/>
   <stop stop-color="#d0d0d0" offset="1"/>
  </radialGradient>
  <radialGradient id="c" xlink:href="#a" gradientUnits="userSpaceOnUse" cy="43.5" cx="4.993" gradientTransform="matrix(2.0038 0 0 1.4 27.988 -17.4)" r="2.5"/>
  <linearGradient id="a">
   <stop stop-color="#181818" offset="0"/>
   <stop stop-color="#181818" stop-opacity="0" offset="1"/>
  </linearGradient>
  <radialGradient id="b" xlink:href="#a" gradientUnits="userSpaceOnUse" cy="43.5" cx="4.993" gradientTransform="matrix(2.0038 0 0 1.4 -20.012 -104.4)" r="2.5"/>
  <linearGradient id="e" y2="39.999" gradientUnits="userSpaceOnUse" x2="25.058" y1="47.028" x1="25.058">
   <stop stop-color="#181818" stop-opacity="0" offset="0"/>
   <stop stop-color="#181818" offset=".5"/>
   <stop stop-color="#181818" stop-opacity="0" offset="1"/>
  </linearGradient>
 </defs>
 <g transform="translate(0 -1020.4)">
  <g transform="matrix(0.7 0 0 .44444 -0.8 1030.5)">
   <g opacity=".4" transform="matrix(1.0526 0 0 1.2857 -1.2632 -13.429)">
    <rect height="7" width="5" y="40" x="38" fill="url(#c)"/>
    <rect transform="scale(-1)" height="7" width="5" y="-47" x="-10" fill="url(#b)"/>
    <rect height="7" width="28" y="40" x="10" fill="url(#e)"/>
   </g>
  </g>
  <rect style="color:#000000" transform="scale(1,-1)" rx="1.4911" ry="1.4911" height="24" width="24" y="-1049.4" x="4" fill="url(#d)"/>
  <rect stroke-linejoin="round" style="color:#000000" rx="2" ry="2" height="25" width="25" stroke="url(#g)" stroke-linecap="round" y="1024.9" x="3.5" fill="none"/>
  <rect stroke-linejoin="round" rx="1" ry="1" height="23" width="23" stroke="url(#f)" stroke-linecap="round" y="1025.9" x="4.5" fill="none"/>
  <g opacity=".15" transform="translate(1e-7 1020.4)">
   <rect opacity="1" rx="1" ry="1" height="4" width="4" y="10" x="20"/>
   <rect opacity="1" rx="1" ry="1" height="4" width="4" y="10" x="14"/>
   <rect opacity="1" rx="1" ry="1" height="4" width="4" y="10" x="8"/>
   <rect opacity="1" rx="1" ry="1" height="4" width="4" y="16" x="20"/>
   <rect opacity="1" rx="1" ry="1" height="4" width="4" y="16" x="14"/>
   <rect opacity="1" rx="1" ry="1" height="4" width="4" y="16" x="8"/>
   <rect opacity="1" rx="1" ry="1" height="4" width="4" y="22" x="20"/>
   <rect opacity="1" rx="1" ry="1" height="4" width="4" y="22" x="14"/>
   <rect opacity="1" rx="1" ry="1" height="4" width="4" y="22" x="8"/>
  </g>
  <path opacity=".05" style="color-rendering:auto;text-decoration-color:#000000;color:#000000;isolation:auto;mix-blend-mode:normal;shape-rendering:auto;solid-color:#000000;block-progression:tb;text-decoration-line:none;text-decoration-style:solid;image-rendering:auto;white-space:normal;text-indent:0;text-transform:none" d="m21 1029.4c-1.0907 0-2 0.9093-2 2v2c0 1.0907 0.9093 2 2 2h2c1.0907 0 2-0.9093 2-2v-2c0-1.0907-0.9093-2-2-2h-2zm0 2h2v2h-2v-2z"/>
  <path opacity=".05" style="color-rendering:auto;text-decoration-color:#000000;color:#000000;isolation:auto;mix-blend-mode:normal;shape-rendering:auto;solid-color:#000000;block-progression:tb;text-decoration-line:none;text-decoration-style:solid;image-rendering:auto;white-space:normal;text-indent:0;text-transform:none" d="m15 1029.4c-1.0907 0-2 0.9093-2 2v2c0 1.0907 0.9093 2 2 2h2c1.0907 0 2-0.9093 2-2v-2c0-1.0907-0.9093-2-2-2h-2zm0 2h2v2h-2v-2z"/>
  <path opacity=".05" style="color-rendering:auto;text-decoration-color:#000000;color:#000000;isolation:auto;mix-blend-mode:normal;shape-rendering:auto;solid-color:#000000;block-progression:tb;text-decoration-line:none;text-decoration-style:solid;image-rendering:auto;white-space:normal;text-indent:0;text-transform:none" d="m9 1029.4c-1.0907 0-2 0.9093-2 2v2c0 1.0907 0.9093 2 2 2h2c1.0907 0 2-0.9093 2-2v-2c0-1.0907-0.9093-2-2-2h-2zm0 2h2v2h-2v-2z"/>
  <path opacity=".05" style="color-rendering:auto;text-decoration-color:#000000;color:#000000;isolation:auto;mix-blend-mode:normal;shape-rendering:auto;solid-color:#000000;block-progression:tb;text-decoration-line:none;text-decoration-style:solid;image-rendering:auto;white-space:normal;text-indent:0;text-transform:none" d="m21 1035.4c-1.0907 0-2 0.9093-2 2v2c0 1.0907 0.9093 2 2 2h2c1.0907 0 2-0.9093 2-2v-2c0-1.0907-0.9093-2-2-2h-2zm0 2h2v2h-2v-2z"/>
  <path opacity=".05" style="color-rendering:auto;text-decoration-color:#000000;color:#000000;isolation:auto;mix-blend-mode:normal;shape-rendering:auto;solid-color:#000000;block-progression:tb;text-decoration-line:none;text-decoration-style:solid;image-rendering:auto;white-space:normal;text-indent:0;text-transform:none" d="m15 1035.4c-1.0907 0-2 0.9093-2 2v2c0 1.0907 0.9093 2 2 2h2c1.0907 0 2-0.9093 2-2v-2c0-1.0907-0.9093-2-2-2h-2zm0 2h2v2h-2v-2z"/>
  <path opacity=".05" style="color-rendering:auto;text-decoration-color:#000000;color:#000000;isolation:auto;mix-blend-mode:normal;shape-rendering:auto;solid-color:#000000;block-progression:tb;text-decoration-line:none;text-decoration-style:solid;image-rendering:auto;white-space:normal;text-indent:0;text-transform:none" d="m9 1035.4c-1.0907 0-2 0.9093-2 2v2c0 1.0907 0.9093 2 2 2h2c1.0907 0 2-0.9093 2-2v-2c0-1.0907-0.9093-2-2-2h-2zm0 2h2v2h-2v-2z"/>
  <path opacity=".05" style="color-rendering:auto;text-decoration-color:#000000;color:#000000;isolation:auto;mix-blend-mode:normal;shape-rendering:auto;solid-color:#000000;block-progression:tb;text-decoration-line:none;text-decoration-style:solid;image-rendering:auto;white-space:normal;text-indent:0;text-transform:none" d="m21 1041.4c-1.0907 0-2 0.9093-2 2v2c0 1.0907 0.9093 2 2 2h2c1.0907 0 2-0.9093 2-2v-2c0-1.0907-0.9093-2-2-2h-2zm0 2h2v2h-2v-2z"/>
  <path opacity=".05" style="color-rendering:auto;text-decoration-color:#000000;color:#000000;isolation:auto;mix-blend-mode:normal;shape-rendering:auto;solid-color:#000000;block-progression:tb;text-decoration-line:none;text-decoration-style:solid;image-rendering:auto;white-space:normal;text-indent:0;text-transform:none" d="m15 1041.4c-1.0907 0-2 0.9093-2 2v2c0 1.0907 0.9093 2 2 2h2c1.0907 0 2-0.9093 2-2v-2c0-1.0907-0.9093-2-2-2h-2zm0 2h2v2h-2v-2z"/>
  <path opacity=".05" style="color-rendering:auto;text-decoration-color:#000000;color:#000000;isolation:auto;mix-blend-mode:normal;shape-rendering:auto;solid-color:#000000;block-progression:tb;text-decoration-line:none;text-decoration-style:solid;image-rendering:auto;white-space:normal;text-indent:0;text-transform:none" d="m9 1041.4c-1.0907 0-2 0.9093-2 2v2c0 1.0907 0.9093 2 2 2h2c1.0907 0 2-0.9093 2-2v-2c0-1.0907-0.9093-2-2-2h-2zm0 2h2v2h-2v-2z"/>
  <rect rx="1" ry="1" height="4" width="4" y="1029.4" x="20" fill="#fe3932"/>
  <rect rx="1" ry="1" height="4" width="4" y="1029.4" x="14" fill="#fe3932"/>
  <rect rx="1" ry="1" height="4" width="4" y="1029.4" x="8" fill="#fe3932"/>
  <rect rx="1" ry="1" height="4" width="4" y="1035.4" x="20" fill="#ffb000"/>
  <rect rx="1" ry="1" height="4" width="4" y="1035.4" x="14" fill="#008bf4"/>
  <rect rx="1" ry="1" height="4" width="4" y="1035.4" x="8" fill="#009d5a"/>
  <rect rx="1" ry="1" height="4" width="4" y="1041.4" x="20" fill="#ffb000"/>
  <rect rx="1" ry="1" height="4" width="4" y="1041.4" x="14" fill="#ffb000"/>
  <rect rx="1" ry="1" height="4" width="4" y="1041.4" x="8" fill="#009d5a"/>
 </g>
</svg>
