<?xml version="1.0" encoding="UTF-8" standalone="no"?>
<svg xmlns:rdf="http://www.w3.org/1999/02/22-rdf-syntax-ns#" xmlns="http://www.w3.org/2000/svg" height="32" width="32" version="1.1" xmlns:cc="http://creativecommons.org/ns#" xmlns:xlink="http://www.w3.org/1999/xlink" xmlns:dc="http://purl.org/dc/elements/1.1/">
 <defs>
  <linearGradient id="e" y2="43" gradientUnits="userSpaceOnUse" x2="24" gradientTransform="matrix(.62162 0 0 .62162 1.0811 2.0811)" y1="5" x1="24">
   <stop stop-color="#fff" offset="0"/>
   <stop stop-color="#fff" stop-opacity=".23529" offset=".063165"/>
   <stop stop-color="#fff" stop-opacity=".15686" offset=".95056"/>
   <stop stop-color="#fff" stop-opacity=".39216" offset="1"/>
  </linearGradient>
  <radialGradient id="a" gradientUnits="userSpaceOnUse" cy="8.4498" cx="7.4957" gradientTransform="matrix(-.0000034738 1.3563 -1.5848 -.0000040959 29.391 -5.2932)" r="20">
   <stop stop-color="#f8de97" offset="0"/>
   <stop stop-color="#f6ce68" offset=".26238"/>
   <stop stop-color="#f4ba27" offset=".70495"/>
   <stop stop-color="#d89e0c" offset="1"/>
  </radialGradient>
  <linearGradient id="d" y2="3.899" gradientUnits="userSpaceOnUse" x2="24" gradientTransform="matrix(.64103 0 0 .64103 .61539 1.6154)" y1="47.4" x1="24">
   <stop stop-color="#b98809" offset="0"/>
   <stop stop-color="#dca10b" offset="1"/>
  </linearGradient>
  <radialGradient id="c" gradientUnits="userSpaceOnUse" cy="43.5" cx="4.993" gradientTransform="matrix(2.0038 0 0 1.4 27.988 -17.4)" r="2.5">
   <stop stop-color="#181818" offset="0"/>
   <stop stop-color="#181818" stop-opacity="0" offset="1"/>
  </radialGradient>
  <radialGradient id="b" gradientUnits="userSpaceOnUse" cy="43.5" cx="4.993" gradientTransform="matrix(2.0038 0 0 1.4 -20.012 -104.4)" r="2.5">
   <stop stop-color="#181818" offset="0"/>
   <stop stop-color="#181818" stop-opacity="0" offset="1"/>
  </radialGradient>
  <linearGradient id="f" y2="39.999" gradientUnits="userSpaceOnUse" x2="25.058" y1="47.028" x1="25.058">
   <stop stop-color="#181818" stop-opacity="0" offset="0"/>
   <stop stop-color="#181818" offset=".5"/>
   <stop stop-color="#181818" stop-opacity="0" offset="1"/>
  </linearGradient>
 </defs>
 <g transform="matrix(0.7 0 0 .33333 -0.8 15.333)">
  <g opacity=".4" transform="matrix(1.0526 0 0 1.2857 -1.2632 -13.429)">
   <rect height="7" width="5" y="40" x="38" fill="url(#c)"/>
   <rect transform="scale(-1)" height="7" width="5" y="-47" x="-10" fill="url(#b)"/>
   <rect height="7" width="28" y="40" x="10" fill="url(#f)"/>
  </g>
 </g>
 <rect stroke-linejoin="round" height="25" stroke="url(#d)" stroke-linecap="round" fill="url(#a)" style="color:#000000" rx="2" ry="2" width="25" y="4.5" x="3.5"/>
 <rect opacity=".5" stroke-linejoin="round" rx="1" ry="1" height="23" width="23" stroke="url(#e)" stroke-linecap="round" y="5.5" x="4.5" fill="none"/>
 <path opacity=".15" style="color-rendering:auto;text-decoration-color:#000000;color:#000000;isolation:auto;mix-blend-mode:normal;shape-rendering:auto;solid-color:#000000;block-progression:tb;text-decoration-line:none;text-decoration-style:solid;image-rendering:auto;white-space:normal;text-indent:0;text-transform:none" d="m16 8.043c-3.581 0-6.5 2.919-6.5 6.5 0.000352 2.19 1.1945 4.132 3 5.3281v5.1719h1.5v1.957h4v-1.957h1.5v-5.1758c1.8049-1.1947 2.9974-3.1357 3-5.3242 0-3.581-2.919-6.5-6.5-6.5zm0 1.5c2.7696 0 4.9989 2.2287 5 4.998-0.0022 1.8302-1.0001 3.5095-2.6074 4.3848l-0.39258 0.21484v1.8594h-4v-1.8535l-0.39062-0.21484c-1.6089-0.87617-2.6091-2.5567-2.6094-4.3887 0-2.7703 2.2297-5 5-5zm-2 12.457h4v1.543h-4v-1.543z"/>
 <path opacity=".05" style="color-rendering:auto;text-decoration-color:#000000;color:#000000;isolation:auto;mix-blend-mode:normal;shape-rendering:auto;solid-color:#000000;block-progression:tb;text-decoration-line:none;text-decoration-style:solid;image-rendering:auto;white-space:normal;text-indent:0;text-transform:none" d="m16 7.043c-4.1244 0-7.5 3.3756-7.5 7.5 0.0003736 2.3242 1.2451 4.3111 3 5.6895v4.8105a1.0001 1.0001 0 0 0 1 1h0.5v0.956a1.0001 1.0001 0 0 0 1 1h4a1.0001 1.0001 0 0 0 1 -1v-0.95703h0.5a1.0001 1.0001 0 0 0 1 -1v-4.8145c1.7544-1.3772 2.9973-3.3615 3-5.6836a1.0001 1.0001 0 0 0 0 -0.002c0-4.123-3.376-7.499-7.5-7.499zm0 3.5c2.2332 0 3.9991 1.7651 4 3.998-0.0025 1.4666-0.79835 2.8047-2.0859 3.5059a1.0001 1.0001 0 0 0 -0.002 0.002l-0.39258 0.21484a1.0001 1.0001 0 0 0 -0.519 0.877v0.859h-2v-0.85352a1.0001 1.0001 0 0 0 -0.51758 -0.87695l-0.39062-0.21484a1.0001 1.0001 0 0 0 -0.0039 -0.002c-1.289-0.702-2.087-2.041-2.087-3.509 0-2.2337 1.7663-4 4-4zm-1.1367 14h2.2715a1.0001 1.0001 0 0 0 -0.134 0.5v0.957h-2v-0.95703a1.0001 1.0001 0 0 0 -0.13672 -0.5z"/>
 <path style="color-rendering:auto;text-decoration-color:#000000;color:#000000;isolation:auto;mix-blend-mode:normal;shape-rendering:auto;solid-color:#000000;block-progression:tb;text-decoration-line:none;text-decoration-style:solid;image-rendering:auto;white-space:normal;text-indent:0;text-transform:none" d="m16 7.043c-3.581 0-6.5 2.919-6.5 6.5 0.000352 2.19 1.1945 4.132 3 5.3281v5.1719h1.5v1.957h4v-1.957h1.5v-5.1758c1.8049-1.1947 2.9974-3.1357 3-5.3242 0-3.581-2.919-6.5-6.5-6.5zm0 1.5c2.7696 0 4.9989 2.2287 5 4.998-0.0022 1.8302-1.0001 3.5095-2.6074 4.3848l-0.39258 0.21484v1.8594h-4v-1.8535l-0.39062-0.21484c-1.6089-0.87617-2.6091-2.5567-2.6094-4.3887 0-2.7703 2.2297-5 5-5zm-2 12.457h4v1.543h-4v-1.543z" fill="#fff"/>
</svg>
