<?xml version="1.0" encoding="UTF-8" standalone="no"?>
<svg xmlns:rdf="http://www.w3.org/1999/02/22-rdf-syntax-ns#" xmlns="http://www.w3.org/2000/svg" height="32" width="32" version="1.1" xmlns:cc="http://creativecommons.org/ns#" xmlns:xlink="http://www.w3.org/1999/xlink" xmlns:dc="http://purl.org/dc/elements/1.1/">
 <defs>
  <linearGradient id="e" y2="44.341" gradientUnits="userSpaceOnUse" x2="71.204" gradientTransform="matrix(.72973 0 0 .72973 -36.346 -2.5039)" y1="6.2376" x1="71.204">
   <stop stop-color="#fff" offset="0"/>
   <stop stop-color="#fff" stop-opacity=".23529" offset=".50776"/>
   <stop stop-color="#fff" stop-opacity=".15686" offset=".83457"/>
   <stop stop-color="#fff" stop-opacity=".39216" offset="1"/>
  </linearGradient>
  <radialGradient id="c" xlink:href="#a" gradientUnits="userSpaceOnUse" cy="8.4498" cx="5.9922" gradientTransform="matrix(3.0712e-8 1.9 -1.8698 -1.7556e-8 31.799 -10.385)" r="20"/>
  <radialGradient id="b" gradientUnits="userSpaceOnUse" cx="99.157" cy="186.17" r="62.769" gradientTransform="matrix(.17525 0 0 .055760 -1.3768 18.119)">
   <stop stop-color="#3d3d3d" offset="0"/>
   <stop stop-color="#686868" stop-opacity=".49804" offset=".5"/>
   <stop stop-color="#686868" stop-opacity="0" offset="1"/>
  </radialGradient>
  <radialGradient id="radialGradient12065" xlink:href="#a" gradientUnits="userSpaceOnUse" cy="-9.0843" cx="27.484" gradientTransform="matrix(3.8645 -.015967 .017622 4.2034 -78.661 97.06)" r="55.725"/>
  <radialGradient id="a" gradientUnits="userSpaceOnUse" cy="4.3419" cx="32" gradientTransform="matrix(0 1.3006 -1.3006 0 94.036 165.84)" r="27.5">
   <stop stop-color="#fafafa" offset="0"/>
   <stop stop-color="#e1e1e1" offset="1"/>
  </radialGradient>
  <radialGradient id="d" xlink:href="#a" gradientUnits="userSpaceOnUse" cy="-47.109" cx="27.391" gradientTransform="matrix(2.9895 .0078878 -.0073208 2.7757 -54.839 83.435)" r="55.725"/>
  <linearGradient id="g" y2="1" gradientUnits="userSpaceOnUse" x2="17" gradientTransform="translate(-2)" y1="31" x1="17">
   <stop stop-opacity=".32174" offset="0"/>
   <stop stop-opacity=".27826" offset="1"/>
  </linearGradient>
  <linearGradient id="f" y2="28" gradientUnits="userSpaceOnUse" x2="15" y1="4" x1="15">
   <stop stop-color="#60d36b" offset="0"/>
   <stop stop-color="#27b43d" offset="1"/>
  </linearGradient>
 </defs>
 <path d="m27 28.499a11 3.5 0 1 1 -22 0 11 3.5 0 1 1 22 0z" fill="url(#b)"/>
 <path style="color:#000000" d="m16 1.5c-8.0006 0-14.5 6.4994-14.5 14.5 0 2.884 0.85368 5.5664 2.3086 7.8262l-2.9551 7.389 8.1641-2.512c2.0724 1.143 4.4514 1.797 6.9824 1.797 8.001 0 14.5-6.499 14.5-14.5 0-8.0006-6.499-14.5-14.5-14.5z" fill="url(#c)"/>
 <path opacity=".7" style="color:#000000" d="m16 1.5c-8.0006 0-14.5 6.4994-14.5 14.5 0 2.884 0.85368 5.5664 2.3086 7.8262l-2.9551 7.389 8.1641-2.512c2.0724 1.143 4.4514 1.797 6.9824 1.797 8.001 0 14.5-6.499 14.5-14.5 0-8.0006-6.499-14.5-14.5-14.5z" fill-opacity="0" stroke="url(#g)" stroke-linecap="round"/>
 <path style="color:#000000" d="m16 2.5c-7.4559 0-13.5 6.0443-13.5 13.5 0 2.868 0.88908 5.5126 2.4141 7.6992l0.00586 0.0078-2.3594 5.9336 5.8789-1.8066c0.2275-0.066 0.4789-0.159 0.6894-0.229 2.0141 1.196 4.3591 1.895 6.8711 1.895 7.455 0 13.5-6.044 13.5-13.5 0-7.4557-6.045-13.5-13.5-13.5z" stroke="url(#e)" stroke-linecap="round" fill="none"/>
 <path style="color:#000000" d="m16 4c-6.6452 0-12 5.3549-12 12 0 2.555 0.7868 4.89 2.1406 6.834l0.4864 0.643-1.5157 3.81 2.9004-0.891 0.0117-0.003c0.1466-0.043 0.3823-0.128 0.6328-0.211l0.6504-0.215 0.5879 0.349c1.7965 1.066 3.8715 1.684 6.1055 1.684 6.645 0 12-5.355 12-12s-5.356-12-12-12z" fill="url(#f)"/>
 <path opacity=".05" style="color:#000000" d="m16 4c-6.6452 0-12 5.3549-12 12 0 0.353 0.0194 0.701 0.0488 1.045 0.4853-6.195 5.6283-11.045 11.951-11.045 6.307 0 11.443 4.827 11.949 11 0.027-0.33 0.051-0.662 0.051-1 0-6.645-5.356-12-12-12zm-9.8926 20.783l-0.9961 2.504 0.9063-0.277 0.6094-1.533-0.4864-0.643c-0.0115-0.017-0.0217-0.034-0.0332-0.051z"/>
 <path opacity=".15" style="color:#000000" d="m16 4c-6.6452 0-12 5.3549-12 12 0 0.176 0.0149 0.348 0.0234 0.521 0.2516-6.42 5.4929-11.521 11.977-11.521 6.476 0 11.712 5.09 11.975 11.5 0.009-0.167 0.025-0.331 0.025-0.5 0-6.645-5.356-12-12-12zm-9.8926 20.783l-0.9961 2.504 0.4532-0.139 0.8027-2.015-0.2266-0.299c-0.0115-0.017-0.0217-0.034-0.0332-0.051z"/>
 <g opacity=".05" fill-rule="evenodd" transform="matrix(.13247 0 0 -.13501 12.372 10.64)" stroke="#000" stroke-width="14.955">
  <path d="m0 0c-1.812 4.367-3.2 4.515-5.999 4.648-0.96 0.046-2.001 0.09-3.14 0.09-3.606 0-7.344-1.062-9.597-3.367-2.742-2.805-9.598-9.375-9.598-22.865 0-13.492 9.826-26.529 11.195-28.36 1.373-1.828 19.164-29.919 46.844-41.388 21.606-8.949 28.02-8.153 32.949-7.074 7.172 1.566 16.178 6.847 18.463 13.248 2.285 6.404 2.285 11.892 1.6 13.033-0.686 1.144-2.514 1.828-5.256 3.203-2.742 1.371-16.225 8.004-18.738 8.918-2.514 0.914-4.838 0.635-6.772-2.039-2.668-3.693-5.234-7.488-7.359-9.738-1.668-1.766-4.352-2.012-6.66-1.032-3.036 1.293-11.578 4.27-22.053 13.61-8.15 7.265-13.654 16.242-15.254 18.988-1.6 2.742-0.141 4.379 1.092 5.871 1.406 1.703 2.703 2.926 4.074 4.525 1.371 1.602 2.137 2.456 3.051 4.288 0.914 1.828 0.299 3.714-0.387 5.087-0.687 1.374-6.177 14.862-8.455 20.354"/>
  <path d="m0 0c-1.812 4.367-3.2 4.515-5.999 4.648-0.96 0.046-2.001 0.09-3.14 0.09-3.606 0-7.344-1.062-9.597-3.367-2.742-2.805-9.598-9.375-9.598-22.865 0-13.492 9.826-26.529 11.195-28.36 1.373-1.828 19.164-29.919 46.844-41.388 21.606-8.949 28.02-8.153 32.949-7.074 7.172 1.566 16.178 6.847 18.463 13.248 2.285 6.404 2.285 11.892 1.6 13.033-0.686 1.144-2.514 1.828-5.256 3.203-2.742 1.371-16.225 8.004-18.738 8.918-2.514 0.914-4.838 0.635-6.772-2.039-2.668-3.693-5.234-7.488-7.359-9.738-1.668-1.766-4.352-2.012-6.66-1.032-3.036 1.293-11.578 4.27-22.053 13.61-8.15 7.265-13.654 16.242-15.254 18.988-1.6 2.742-0.141 4.379 1.092 5.871 1.406 1.703 2.703 2.926 4.074 4.525 1.371 1.602 2.137 2.456 3.051 4.288 0.914 1.828 0.299 3.714-0.387 5.087-0.687 1.374-6.177 14.862-8.455 20.354"/>
 </g>
 <g opacity=".15" fill-rule="evenodd" transform="matrix(.13247 0 0 -.13501 12.372 10.64)">
  <path d="m0 0c-1.812 4.367-3.2 4.515-5.999 4.648-0.96 0.046-2.001 0.09-3.14 0.09-3.606 0-7.344-1.062-9.597-3.367-2.742-2.805-9.598-9.375-9.598-22.865 0-13.492 9.826-26.529 11.195-28.36 1.373-1.828 19.164-29.919 46.844-41.388 21.606-8.949 28.02-8.153 32.949-7.074 7.172 1.566 16.178 6.847 18.463 13.248 2.285 6.404 2.285 11.892 1.6 13.033-0.686 1.144-2.514 1.828-5.256 3.203-2.742 1.371-16.225 8.004-18.738 8.918-2.514 0.914-4.838 0.635-6.772-2.039-2.668-3.693-5.234-7.488-7.359-9.738-1.668-1.766-4.352-2.012-6.66-1.032-3.036 1.293-11.578 4.27-22.053 13.61-8.15 7.265-13.654 16.242-15.254 18.988-1.6 2.742-0.141 4.379 1.092 5.871 1.406 1.703 2.703 2.926 4.074 4.525 1.371 1.602 2.137 2.456 3.051 4.288 0.914 1.828 0.299 3.714-0.387 5.087-0.687 1.374-6.177 14.862-8.455 20.354"/>
  <path d="m0 0c-1.812 4.367-3.2 4.515-5.999 4.648-0.96 0.046-2.001 0.09-3.14 0.09-3.606 0-7.344-1.062-9.597-3.367-2.742-2.805-9.598-9.375-9.598-22.865 0-13.492 9.826-26.529 11.195-28.36 1.373-1.828 19.164-29.919 46.844-41.388 21.606-8.949 28.02-8.153 32.949-7.074 7.172 1.566 16.178 6.847 18.463 13.248 2.285 6.404 2.285 11.892 1.6 13.033-0.686 1.144-2.514 1.828-5.256 3.203-2.742 1.371-16.225 8.004-18.738 8.918-2.514 0.914-4.838 0.635-6.772-2.039-2.668-3.693-5.234-7.488-7.359-9.738-1.668-1.766-4.352-2.012-6.66-1.032-3.036 1.293-11.578 4.27-22.053 13.61-8.15 7.265-13.654 16.242-15.254 18.988-1.6 2.742-0.141 4.379 1.092 5.871 1.406 1.703 2.703 2.926 4.074 4.525 1.371 1.602 2.137 2.456 3.051 4.288 0.914 1.828 0.299 3.714-0.387 5.087-0.687 1.374-6.177 14.862-8.455 20.354"/>
 </g>
 <g fill-rule="evenodd" transform="matrix(.13247 0 0 -.13501 12.372 9.6397)" fill="url(#d)">
  <path d="m0 0c-1.812 4.367-3.2 4.515-5.999 4.648-0.96 0.046-2.001 0.09-3.14 0.09-3.606 0-7.344-1.062-9.597-3.367-2.742-2.805-9.598-9.375-9.598-22.865 0-13.492 9.826-26.529 11.195-28.36 1.373-1.828 19.164-29.919 46.844-41.388 21.606-8.949 28.02-8.153 32.949-7.074 7.172 1.566 16.178 6.847 18.463 13.248 2.285 6.404 2.285 11.892 1.6 13.033-0.686 1.144-2.514 1.828-5.256 3.203-2.742 1.371-16.225 8.004-18.738 8.918-2.514 0.914-4.838 0.635-6.772-2.039-2.668-3.693-5.234-7.488-7.359-9.738-1.668-1.766-4.352-2.012-6.66-1.032-3.036 1.293-11.578 4.27-22.053 13.61-8.15 7.265-13.654 16.242-15.254 18.988-1.6 2.742-0.141 4.379 1.092 5.871 1.406 1.703 2.703 2.926 4.074 4.525 1.371 1.602 2.137 2.456 3.051 4.288 0.914 1.828 0.299 3.714-0.387 5.087-0.687 1.374-6.177 14.862-8.455 20.354"/>
  <path d="m0 0c-1.812 4.367-3.2 4.515-5.999 4.648-0.96 0.046-2.001 0.09-3.14 0.09-3.606 0-7.344-1.062-9.597-3.367-2.742-2.805-9.598-9.375-9.598-22.865 0-13.492 9.826-26.529 11.195-28.36 1.373-1.828 19.164-29.919 46.844-41.388 21.606-8.949 28.02-8.153 32.949-7.074 7.172 1.566 16.178 6.847 18.463 13.248 2.285 6.404 2.285 11.892 1.6 13.033-0.686 1.144-2.514 1.828-5.256 3.203-2.742 1.371-16.225 8.004-18.738 8.918-2.514 0.914-4.838 0.635-6.772-2.039-2.668-3.693-5.234-7.488-7.359-9.738-1.668-1.766-4.352-2.012-6.66-1.032-3.036 1.293-11.578 4.27-22.053 13.61-8.15 7.265-13.654 16.242-15.254 18.988-1.6 2.742-0.141 4.379 1.092 5.871 1.406 1.703 2.703 2.926 4.074 4.525 1.371 1.602 2.137 2.456 3.051 4.288 0.914 1.828 0.299 3.714-0.387 5.087-0.687 1.374-6.177 14.862-8.455 20.354"/>
 </g>
</svg>
