<?xml version="1.0" encoding="UTF-8" standalone="no"?>
<svg xmlns:rdf="http://www.w3.org/1999/02/22-rdf-syntax-ns#" xmlns="http://www.w3.org/2000/svg" height="32" width="32" version="1.1" xmlns:cc="http://creativecommons.org/ns#" xmlns:xlink="http://www.w3.org/1999/xlink" xmlns:dc="http://purl.org/dc/elements/1.1/">
 <defs>
  <radialGradient id="c" gradientUnits="userSpaceOnUse" cy="43.5" cx="4.993" gradientTransform="matrix(2.0038 0 0 1.4 27.988 -17.4)" r="2.5">
   <stop stop-color="#181818" offset="0"/>
   <stop stop-color="#181818" stop-opacity="0" offset="1"/>
  </radialGradient>
  <radialGradient id="b" gradientUnits="userSpaceOnUse" cy="43.5" cx="4.993" gradientTransform="matrix(2.0038 0 0 1.4 -20.012 -104.4)" r="2.5">
   <stop stop-color="#181818" offset="0"/>
   <stop stop-color="#181818" stop-opacity="0" offset="1"/>
  </radialGradient>
  <linearGradient id="e" y2="39.999" gradientUnits="userSpaceOnUse" x2="25.058" y1="47.028" x1="25.058">
   <stop stop-color="#181818" stop-opacity="0" offset="0"/>
   <stop stop-color="#181818" offset=".5"/>
   <stop stop-color="#181818" stop-opacity="0" offset="1"/>
  </linearGradient>
  <linearGradient id="g" y2="30.093" gradientUnits="userSpaceOnUse" x2="30.643" gradientTransform="translate(-27.316)" y1="3.9158" x1="30.643">
   <stop stop-opacity=".27206" offset="0"/>
   <stop stop-opacity=".36765" offset="1"/>
  </linearGradient>
  <linearGradient id="f" y2="43" gradientUnits="userSpaceOnUse" x2="24" gradientTransform="matrix(.62162 0 0 .62162 1.0811 2.0811)" y1="5" x1="24">
   <stop stop-color="#fff" offset="0"/>
   <stop stop-color="#fff" stop-opacity=".23529" offset=".063165"/>
   <stop stop-color="#fff" stop-opacity=".15686" offset=".95056"/>
   <stop stop-color="#fff" stop-opacity=".39216" offset="1"/>
  </linearGradient>
  <radialGradient id="d" gradientUnits="userSpaceOnUse" cy="8.4498" cx="20.931" gradientTransform="matrix(1.1657e-8 1.4381 -1.4834 -2.6496e-8 28.534 -39.421)" r="20">
   <stop stop-color="#f4f4f4" offset="0"/>
   <stop stop-color="#d0d0d0" offset="1"/>
  </radialGradient>
  <linearGradient id="a" y2="25" xlink:href="#h" gradientUnits="userSpaceOnUse" x2="16" gradientTransform="translate(0 .0000019073)" y1="9" x1="16"/>
  <linearGradient id="h">
   <stop stop-color="#008fef" offset="0"/>
   <stop stop-color="#007acc" offset="1"/>
  </linearGradient>
  <clipPath id="i" clipPathUnits="userSpaceOnUse">
   <path d="m20.75 9-7.416 6.666-4.084-3.166l-1.25 0.5v8l1.25 0.5 4.084-3.166 7.416 6.666 3.25-1.5v-12.75l-3.25-1.75zm-0.75 4.75v6.5l-4-3.25 4-3.25zm-11 1.25 2 2-2 2v-4z" fill-rule="evenodd" fill="url(#a)"/>
  </clipPath>
 </defs>
 <g transform="matrix(0.7 0 0 .44444 -0.8 10.111)">
  <g opacity=".4" transform="matrix(1.0526 0 0 1.2857 -1.2632 -13.429)">
   <rect height="7" width="5" y="40" x="38" fill="url(#c)"/>
   <rect transform="scale(-1)" height="7" width="5" y="-47" x="-10" fill="url(#b)"/>
   <rect height="7" width="28" y="40" x="10" fill="url(#e)"/>
  </g>
 </g>
 <rect style="color:#000000" transform="scale(1,-1)" rx="1.4911" ry="1.4911" height="24" width="24" y="-29" x="4" fill="url(#d)"/>
 <rect stroke-linejoin="round" style="color:#000000" rx="2" ry="2" height="25" width="25" stroke="url(#g)" stroke-linecap="round" y="4.5" x="3.5" fill="none"/>
 <rect stroke-linejoin="round" rx="1" ry="1" height="23" width="23" stroke="url(#f)" stroke-linecap="round" y="5.5" x="4.5" fill="none"/>
 <g font-size="12.666px" font-family="Bitstream Vera Sans" fill="#000000">
  <text opacity=".8" xml:space="preserve" y="-7.3794532" x="948.06689"><tspan y="-7.3794532" x="948.06689"/></text>
  <text opacity=".8" xml:space="preserve" y="-48.121159" x="972.02783"><tspan y="-48.121159" x="972.02783"/></text>
  <text opacity=".8" xml:space="preserve" y="-78.199303" x="-498.53055"><tspan y="-78.199303" x="-498.53055"/></text>
  <text opacity=".8" xml:space="preserve" y="667.35419" x="-2322.2166"><tspan y="667.35419" x="-2322.2166"/></text>
  <text opacity=".8" xml:space="preserve" y="-463.52026" x="-384.03946"><tspan y="-463.52026" x="-384.03946"/></text>
  <text opacity=".8" xml:space="preserve" y="-876.99036" x="423.56268"><tspan y="-876.99036" x="423.56268"/></text>
  <text opacity=".8" xml:space="preserve" y="-917.73206" x="447.52362"><tspan y="-917.73206" x="447.52362"/></text>
  <text opacity=".8" xml:space="preserve" y="-924.94196" x="-1043.9396"><tspan y="-924.94196" x="-1043.9396"/></text>
  <text opacity=".8" xml:space="preserve" y="-1198.1761" x="416.60321"><tspan y="-1198.1761" x="416.60321"/></text>
  <text opacity=".8" xml:space="preserve" y="-571.48474" x="1902.7267"><tspan y="-571.48474" x="1902.7267"/></text>
  <text opacity=".8" xml:space="preserve" y="-612.2265" x="1926.6875"><tspan y="-612.2265" x="1926.6875"/></text>
  <text opacity=".8" xml:space="preserve" y="-619.4364" x="435.22437"><tspan y="-619.4364" x="435.22437"/></text>
  <text opacity=".8" xml:space="preserve" y="-892.67041" x="1895.7672"><tspan y="-892.67041" x="1895.7672"/></text>
  <text opacity=".8" xml:space="preserve" y="-667.52771" x="-502.59195"><tspan y="-667.52771" x="-502.59195"/></text>
  <text opacity=".8" xml:space="preserve" y="78.025803" x="-2326.2776"><tspan y="78.025803" x="-2326.2776"/></text>
  <text opacity=".8" xml:space="preserve" y="170.89793" x="-611.52216"><tspan y="170.89793" x="-611.52216"/></text>
  <text opacity=".8" xml:space="preserve" y="-8.2842016" x="497.50214"><tspan y="-8.2842016" x="497.50214"/></text>
  <text opacity=".8" xml:space="preserve" y="-49.025909" x="521.46307"><tspan y="-49.025909" x="521.46307"/></text>
  <text opacity=".8" xml:space="preserve" y="-56.235882" x="-970.00012"><tspan y="-56.235882" x="-970.00012"/></text>
  <text opacity=".8" xml:space="preserve" y="-329.46994" x="490.54266"><tspan y="-329.46994" x="490.54266"/></text>
  <text opacity=".8" xml:space="preserve" y="-58.950127" x="-537.19189"><tspan y="-58.950127" x="-537.19189"/></text>
  <text opacity=".8" xml:space="preserve" y="686.60339" x="-2360.8779"><tspan y="686.60339" x="-2360.8779"/></text>
  <text opacity=".8" xml:space="preserve" y="-920.48059" x="-386.09888"><tspan y="-920.48059" x="-386.09888"/></text>
  <text opacity=".8" xml:space="preserve" y="-1333.9508" x="421.50327"><tspan y="-1333.9508" x="421.50327"/></text>
  <text opacity=".8" xml:space="preserve" y="-1374.6925" x="445.46417"><tspan y="-1374.6925" x="445.46417"/></text>
  <text opacity=".8" xml:space="preserve" y="-1381.9025" x="-1045.9989"><tspan y="-1381.9025" x="-1045.9989"/></text>
  <text opacity=".8" xml:space="preserve" y="-1655.1366" x="414.54376"><tspan y="-1655.1366" x="414.54376"/></text>
  <text opacity=".8" xml:space="preserve" y="-1028.4453" x="1900.6671"><tspan y="-1028.4453" x="1900.6671"/></text>
  <text opacity=".8" xml:space="preserve" y="-1069.1869" x="1924.6279"><tspan y="-1069.1869" x="1924.6279"/></text>
  <text opacity=".8" xml:space="preserve" y="-1076.3969" x="433.16492"><tspan y="-1076.3969" x="433.16492"/></text>
  <text opacity=".8" xml:space="preserve" y="-1349.631" x="1893.7076"><tspan y="-1349.631" x="1893.7076"/></text>
  <text opacity=".8" xml:space="preserve" y="-1124.4882" x="-504.65137"><tspan y="-1124.4882" x="-504.65137"/></text>
  <text opacity=".8" xml:space="preserve" y="-378.93466" x="-2328.3372"><tspan y="-378.93466" x="-2328.3372"/></text>
  <text opacity=".8" xml:space="preserve" y="-286.0625" x="-613.5816"><tspan y="-286.0625" x="-613.5816"/></text>
  <text opacity=".8" xml:space="preserve" y="-45.148331" x="226.43291"><tspan y="-45.148331" x="226.43291"/></text>
  <text opacity=".8" xml:space="preserve" y="-85.890053" x="250.39384"><tspan y="-85.890053" x="250.39384"/></text>
  <text opacity=".8" xml:space="preserve" y="-279.91867" x="-1019.4229"><tspan y="-279.91867" x="-1019.4229"/></text>
  <text opacity=".8" xml:space="preserve" y="-693.38879" x="-211.82079"><tspan y="-693.38879" x="-211.82079"/></text>
  <text opacity=".8" xml:space="preserve" y="-734.13049" x="-187.85986"><tspan y="-734.13049" x="-187.85986"/></text>
  <text opacity=".8" xml:space="preserve" y="-741.34039" x="-1679.323"><tspan y="-741.34039" x="-1679.323"/></text>
  <text opacity=".8" xml:space="preserve" y="-1014.5745" x="-218.78023"><tspan y="-1014.5745" x="-218.78023"/></text>
  <text opacity=".8" xml:space="preserve" y="-387.88318" x="1267.3431"><tspan y="-387.88318" x="1267.3431"/></text>
  <text opacity=".8" xml:space="preserve" y="-428.62491" x="1291.304"><tspan y="-428.62491" x="1291.304"/></text>
  <text opacity=".8" xml:space="preserve" y="-435.83487" x="-200.15912"><tspan y="-435.83487" x="-200.15912"/></text>
  <text opacity=".8" xml:space="preserve" y="-709.06891" x="1260.3837"><tspan y="-709.06891" x="1260.3837"/></text>
  <text opacity=".8" xml:space="preserve" y="-483.92615" x="-1137.9755"><tspan y="-483.92615" x="-1137.9755"/></text>
  <text opacity=".8" xml:space="preserve" y="261.62741" x="-2961.6611"><tspan y="261.62741" x="-2961.6611"/></text>
 </g>
 <g transform="matrix(.90475 0 0 .90475 -645.9 -694.48)">
  <text opacity=".8" xml:space="preserve" font-size="14px" y="1159.4154" x="-664.2738" font-family="Bitstream Vera Sans" fill="#000000"><tspan y="1159.4154" x="-664.2738"/></text>
 </g>
 <g font-size="12.666px" font-family="Bitstream Vera Sans" fill="#000000">
  <text opacity=".8" xml:space="preserve" y="-0.14146452" x="948.06689"><tspan y="-0.14146452" x="948.06689"/></text>
  <text opacity=".8" xml:space="preserve" y="-40.883171" x="972.02783"><tspan y="-40.883171" x="972.02783"/></text>
  <text opacity=".8" xml:space="preserve" y="-70.961311" x="-498.53055"><tspan y="-70.961311" x="-498.53055"/></text>
  <text opacity=".8" xml:space="preserve" y="674.59216" x="-2322.2166"><tspan y="674.59216" x="-2322.2166"/></text>
  <text opacity=".8" xml:space="preserve" y="-456.28226" x="-384.03946"><tspan y="-456.28226" x="-384.03946"/></text>
  <text opacity=".8" xml:space="preserve" y="-869.75232" x="423.56268"><tspan y="-869.75232" x="423.56268"/></text>
  <text opacity=".8" xml:space="preserve" y="-910.49408" x="447.52362"><tspan y="-910.49408" x="447.52362"/></text>
  <text opacity=".8" xml:space="preserve" y="-917.70398" x="-1043.9396"><tspan y="-917.70398" x="-1043.9396"/></text>
  <text opacity=".8" xml:space="preserve" y="-1190.9381" x="416.60321"><tspan y="-1190.9381" x="416.60321"/></text>
  <text opacity=".8" xml:space="preserve" y="-564.24677" x="1902.7267"><tspan y="-564.24677" x="1902.7267"/></text>
  <text opacity=".8" xml:space="preserve" y="-604.98853" x="1926.6875"><tspan y="-604.98853" x="1926.6875"/></text>
  <text opacity=".8" xml:space="preserve" y="-612.19843" x="435.22437"><tspan y="-612.19843" x="435.22437"/></text>
  <text opacity=".8" xml:space="preserve" y="-885.43237" x="1895.7672"><tspan y="-885.43237" x="1895.7672"/></text>
  <text opacity=".8" xml:space="preserve" y="-660.28973" x="-502.59195"><tspan y="-660.28973" x="-502.59195"/></text>
  <text opacity=".8" xml:space="preserve" y="85.263794" x="-2326.2776"><tspan y="85.263794" x="-2326.2776"/></text>
  <text opacity=".8" xml:space="preserve" y="178.13593" x="-611.52216"><tspan y="178.13593" x="-611.52216"/></text>
  <text opacity=".8" xml:space="preserve" y="-1.0462134" x="497.50214"><tspan y="-1.0462134" x="497.50214"/></text>
  <text opacity=".8" xml:space="preserve" y="-41.787918" x="521.46307"><tspan y="-41.787918" x="521.46307"/></text>
  <text opacity=".8" xml:space="preserve" y="-48.99789" x="-970.00012"><tspan y="-48.99789" x="-970.00012"/></text>
  <text opacity=".8" xml:space="preserve" y="-322.23193" x="490.54266"><tspan y="-322.23193" x="490.54266"/></text>
  <text opacity=".8" xml:space="preserve" y="-51.712135" x="-537.19189"><tspan y="-51.712135" x="-537.19189"/></text>
  <text opacity=".8" xml:space="preserve" y="693.84143" x="-2360.8779"><tspan y="693.84143" x="-2360.8779"/></text>
  <text opacity=".8" xml:space="preserve" y="-913.24261" x="-386.09888"><tspan y="-913.24261" x="-386.09888"/></text>
  <text opacity=".8" xml:space="preserve" y="-1326.7128" x="421.50327"><tspan y="-1326.7128" x="421.50327"/></text>
  <text opacity=".8" xml:space="preserve" y="-1367.4546" x="445.46417"><tspan y="-1367.4546" x="445.46417"/></text>
  <text opacity=".8" xml:space="preserve" y="-1374.6644" x="-1045.9989"><tspan y="-1374.6644" x="-1045.9989"/></text>
  <text opacity=".8" xml:space="preserve" y="-1647.8986" x="414.54376"><tspan y="-1647.8986" x="414.54376"/></text>
  <text opacity=".8" xml:space="preserve" y="-1021.2073" x="1900.6671"><tspan y="-1021.2073" x="1900.6671"/></text>
  <text opacity=".8" xml:space="preserve" y="-1061.949" x="1924.6279"><tspan y="-1061.949" x="1924.6279"/></text>
  <text opacity=".8" xml:space="preserve" y="-1069.1588" x="433.16492"><tspan y="-1069.1588" x="433.16492"/></text>
  <text opacity=".8" xml:space="preserve" y="-1342.3929" x="1893.7076"><tspan y="-1342.3929" x="1893.7076"/></text>
  <text opacity=".8" xml:space="preserve" y="-1117.2501" x="-504.65137"><tspan y="-1117.2501" x="-504.65137"/></text>
  <text opacity=".8" xml:space="preserve" y="-371.69666" x="-2328.3372"><tspan y="-371.69666" x="-2328.3372"/></text>
  <text opacity=".8" xml:space="preserve" y="-278.82449" x="-613.5816"><tspan y="-278.82449" x="-613.5816"/></text>
  <text opacity=".8" xml:space="preserve" y="-37.910343" x="226.43291"><tspan y="-37.910343" x="226.43291"/></text>
  <text opacity=".8" xml:space="preserve" y="-78.652061" x="250.39384"><tspan y="-78.652061" x="250.39384"/></text>
  <text opacity=".8" xml:space="preserve" y="-272.68066" x="-1019.4229"><tspan y="-272.68066" x="-1019.4229"/></text>
  <text opacity=".8" xml:space="preserve" y="-686.15082" x="-211.82079"><tspan y="-686.15082" x="-211.82079"/></text>
  <text opacity=".8" xml:space="preserve" y="-726.89252" x="-187.85986"><tspan y="-726.89252" x="-187.85986"/></text>
  <text opacity=".8" xml:space="preserve" y="-734.10248" x="-1679.323"><tspan y="-734.10248" x="-1679.323"/></text>
  <text opacity=".8" xml:space="preserve" y="-1007.3365" x="-218.78023"><tspan y="-1007.3365" x="-218.78023"/></text>
  <text opacity=".8" xml:space="preserve" y="-380.6452" x="1267.3431"><tspan y="-380.6452" x="1267.3431"/></text>
  <text opacity=".8" xml:space="preserve" y="-421.38693" x="1291.304"><tspan y="-421.38693" x="1291.304"/></text>
  <text opacity=".8" xml:space="preserve" y="-428.59686" x="-200.15912"><tspan y="-428.59686" x="-200.15912"/></text>
  <text opacity=".8" xml:space="preserve" y="-701.83093" x="1260.3837"><tspan y="-701.83093" x="1260.3837"/></text>
  <text opacity=".8" xml:space="preserve" y="-476.68814" x="-1137.9755"><tspan y="-476.68814" x="-1137.9755"/></text>
  <text opacity=".8" xml:space="preserve" y="268.86539" x="-2961.6611"><tspan y="268.86539" x="-2961.6611"/></text>
 </g>
 <g transform="matrix(.90475 0 0 .90475 -645.9 -687.24)">
  <text opacity=".8" xml:space="preserve" font-size="14px" y="1159.4154" x="-664.2738" font-family="Bitstream Vera Sans" fill="#000000"><tspan y="1159.4154" x="-664.2738"/></text>
 </g>
 <g font-size="12.666px" fill="#000000">
  <text xml:space="preserve" y="-379.41751" x="506.74487" font-family="Droid Sans"><tspan y="-379.41751" x="506.74487"/><tspan y="-363.58444" x="506.74487"/></text>
  <g font-family="Bitstream Vera Sans">
   <text opacity=".8" xml:space="preserve" y="-861.46204" x="971.92883"><tspan y="-861.46204" x="971.92883"/></text>
   <text opacity=".8" xml:space="preserve" y="-115.90861" x="-851.75714"><tspan y="-115.90861" x="-851.75714"/></text>
   <text opacity=".8" xml:space="preserve" y="-1146.4579" x="1699.0083"><tspan y="-1146.4579" x="1699.0083"/></text>
   <text opacity=".8" xml:space="preserve" y="-1187.1996" x="1722.9691"><tspan y="-1187.1996" x="1722.9691"/></text>
   <text opacity=".8" xml:space="preserve" y="-1194.4095" x="231.50603"><tspan y="-1194.4095" x="231.50603"/></text>
   <text opacity=".8" xml:space="preserve" y="-1467.6437" x="1692.0488"><tspan y="-1467.6437" x="1692.0488"/></text>
  </g>
 </g>
 <path opacity=".2" d="m20.75 10-7.416 6.666-4.084-3.166-1.25 0.5v8l1.25 0.5 4.084-3.166 7.416 6.666 3.25-1.5v-12.75l-3.25-1.75zm-0.75 4.75v6.5l-4-3.25 4-3.25zm-11 1.25l2 2-2 2v-4z" fill-rule="evenodd" fill="#fff"/>
 <path d="m20.75 9-7.416 6.666-4.084-3.166l-1.25 0.5v8l1.25 0.5 4.084-3.166 7.416 6.666 3.25-1.5v-12.75l-3.25-1.75zm-0.75 4.75v6.5l-4-3.25 4-3.25zm-11 1.25 2 2-2 2v-4z" fill-rule="evenodd" fill="url(#a)"/>
 <path stroke-linejoin="round" opacity=".15" d="m20.75 9l-7.416 6.666-4.084-3.166-1.25 0.5v1l1.25-0.5 4.084 3.166 7.416-6.666 3.25 1.75v-1l-3.25-1.75zm-10.25 8.5l-1.5 1.5v1l2-2-0.5-0.5zm6.115 0l-0.615 0.5 4 3.25v-1l-3.385-2.75z" clip-path="url(#i)" stroke="#002d4a" stroke-width="2" fill="none"/>
 <path opacity=".3" d="m20.75 9-7.416 6.666-4.084-3.166-1.25 0.5v1l1.25-0.5 4.084 3.166 7.416-6.666 3.25 1.75v-1l-3.25-1.75zm-10.25 8.5-1.5 1.5v1l2-2-0.5-0.5zm6.1152 0l-0.615 0.5 4 3.25v-1l-3.3848-2.75z" fill-rule="evenodd" fill="#002d4a"/>
</svg>
