<?xml version="1.0" encoding="UTF-8" standalone="no"?>
<svg xmlns:rdf="http://www.w3.org/1999/02/22-rdf-syntax-ns#" xmlns="http://www.w3.org/2000/svg" height="32" width="32" version="1.1" xmlns:cc="http://creativecommons.org/ns#" xmlns:xlink="http://www.w3.org/1999/xlink" xmlns:dc="http://purl.org/dc/elements/1.1/">
 <defs>
  <linearGradient id="h" y2="29.866" gradientUnits="userSpaceOnUse" x2="156.09" y1="24.324" x1="156.09">
   <stop stop-color="#fff" offset="0"/>
   <stop stop-color="#fff" stop-opacity="0" offset="1"/>
  </linearGradient>
  <linearGradient id="i" y2="40.501" gradientUnits="userSpaceOnUse" x2="158.08" y1="38.954" x1="158.08">
   <stop stop-color="#fff" offset="0"/>
   <stop stop-color="#fff" stop-opacity="0" offset="1"/>
  </linearGradient>
  <radialGradient id="d" gradientUnits="userSpaceOnUse" cy="27.458" cx="152.93" gradientTransform="matrix(-1.113 2.064 -1.4826 -.79932 366.94 -268.44)" r="3.9531">
   <stop stop-color="#f0f0f0" offset="0"/>
   <stop stop-color="#969696" offset="1"/>
  </radialGradient>
  <linearGradient id="j" y2="48" xlink:href="#b" gradientUnits="userSpaceOnUse" x2="157" gradientTransform="matrix(.69565 0 0 .70685 193.35 424.04)" y1="14" x1="157"/>
  <linearGradient id="b">
   <stop stop-color="#fff" offset="0"/>
   <stop stop-color="#fff" stop-opacity="0" offset="1"/>
  </linearGradient>
  <radialGradient id="e" xlink:href="#c" gradientUnits="userSpaceOnUse" cy="8.4623" cx="157.02" gradientTransform="matrix(-.70529 .73406 -.72053 -.69963 419.35 321.59)" r="19.5"/>
  <linearGradient id="c">
   <stop stop-color="#a0a0a0" offset="0"/>
   <stop stop-color="#646464" offset="1"/>
  </linearGradient>
  <linearGradient id="m" y2="48" xlink:href="#b" gradientUnits="userSpaceOnUse" x2="157" gradientTransform="matrix(.64654 0 0 .70685 201.08 422.04)" y1="14" x1="157"/>
  <linearGradient id="k" y2="7.3259" xlink:href="#c" gradientUnits="userSpaceOnUse" x2="157.3" gradientTransform="matrix(.68860 0 0 .80310 194.18 423.87)" y1="16.457" x1="157.3"/>
  <radialGradient id="g" xlink:href="#a" gradientUnits="userSpaceOnUse" cy="43.5" cx="4.993" gradientTransform="matrix(2.0038 0 0 1.4 27.988 -17.4)" r="2.5"/>
  <linearGradient id="a">
   <stop stop-color="#181818" offset="0"/>
   <stop stop-color="#181818" stop-opacity="0" offset="1"/>
  </linearGradient>
  <radialGradient id="f" xlink:href="#a" gradientUnits="userSpaceOnUse" cy="43.5" cx="4.993" gradientTransform="matrix(2.0038 0 0 1.4 -20.012 -104.4)" r="2.5"/>
  <linearGradient id="l" y2="39.999" gradientUnits="userSpaceOnUse" x2="25.058" y1="47.028" x1="25.058">
   <stop stop-color="#181818" stop-opacity="0" offset="0"/>
   <stop stop-color="#181818" offset=".5"/>
   <stop stop-color="#181818" stop-opacity="0" offset="1"/>
  </linearGradient>
 </defs>
 <g transform="translate(-286.86 -427.79)">
  <g opacity=".4" style="enable-background:new" transform="matrix(.84210 0 0 .39742 282.65 441.11)">
   <rect height="7" width="5" y="40" x="38" fill="url(#g)"/>
   <rect transform="scale(-1)" height="7" width="5" y="-47" x="-10" fill="url(#f)"/>
   <rect height="7" width="28" y="40" x="10" fill="url(#l)"/>
  </g>
  <path stroke-linejoin="round" style="enable-background:new" d="m289.36 434.29 2.6314-6h21.737l2.6314 6h-27" stroke="#505050" fill="url(#k)"/>
  <rect opacity=".4" style="color:#000000" rx=".65929" ry=".72079" height="23.326" width="23.275" stroke="url(#m)" stroke-linecap="round" y="432.29" x="291.27" fill="none"/>
  <rect height="25" stroke="#505050" stroke-linecap="round" fill="url(#e)" style="color:#000000" rx="1.4655" ry="1.4732" width="27" opacity="0.99" y="433.29" x="289.36"/>
  <path opacity=".2" stroke-linejoin="round" style="color:#000000" d="m162.03 30.531c-0.34173 0.08362-0.60653 0.25322-0.8125 0.40625l-2.4062 1.7812c-0.42842-0.1513-0.82549-0.375-1.3125-0.375-0.85325 0-1.5918 0.3143-2.25 0.75l-2.47-1.093c-1.1675-0.51358-2.5291 0.04598-3.0312 1.1875-0.49029 1.1146 0.0346 2.507 1.1562 3l2.5312 1.125c0.26972 1.4159 1.1952 2.5615 2.5 3.0938l0.46875 2.4375c0.22283 1.2047 1.4116 2.0369 2.625 1.8125 1.2047-0.22282 2.037-1.4115 1.8125-2.625l-0.5-2.5625c0.7807-0.76847 1.375-1.7325 1.375-2.9062 0-0.13231-0.0486-0.19421-0.0625-0.3125l2.25-1.6875c0.98743-0.7336 1.2048-2.1655 0.46875-3.1562-0.54541-0.73411-1.4631-1.0905-2.3438-0.875z" transform="matrix(.69565 0 0 .69549 193.35 424.79)" stroke="#000" stroke-linecap="round" stroke-width="1.4377"/>
  <rect opacity=".4" style="color:#000000" rx="1.5838" ry="1.5476" height="18.935" width="20.869" stroke="#fff" stroke-linecap="round" y="437.29" x="292.48" fill="none"/>
  <rect style="color:#000000" rx="1.5838" ry="1.5529" height="19" width="20.869" stroke="#505050" stroke-linecap="round" y="436.29" x="292.48" fill="none"/>
  <rect opacity=".4" style="color:#000000" rx=".70936" ry=".72079" height="23.326" width="25.043" stroke="url(#j)" stroke-linecap="round" y="434.29" x="290.39" fill="none"/>
  <path opacity="0.99" stroke-linejoin="round" style="color:#000000" d="m160.37 27.156c0 1.9848-1.609 3.5938-3.5938 3.5938s-3.5938-1.609-3.5938-3.5938 1.609-3.5937 3.5938-3.5937 3.5938 1.609 3.5938 3.5937z" transform="matrix(.96785 0 0 .96764 151.17 415.54)" stroke="#505050" stroke-linecap="round" stroke-width="1.0333" fill="url(#d)"/>
  <path opacity="0.99" style="color:#000000" d="m160.37 27.156c0 1.9848-1.609 3.5938-3.5938 3.5938s-3.5938-1.609-3.5938-3.5938 1.609-3.5937 3.5938-3.5937 3.5938 1.609 3.5938 3.5937z" transform="matrix(.39072 0 0 .39063 241.65 431.59)" stroke="#505050" stroke-width="2.5597" fill="#282828"/>
  <rect stroke-linejoin="round" transform="matrix(.59645 .80265 -.80277 .59628 0 0)" stroke="#3c3c3c" stroke-linecap="round" fill="#b4b4b4" style="color:#000000" rx=".73495" ry=".73499" width="1.4699" opacity="0.99" height="4.1895" y="20.133" x="541.12"/>
  <rect stroke-linejoin="round" transform="matrix(.40273 -.91532 .91538 .40258 0 0)" stroke="#3c3c3c" stroke-linecap="round" fill="#b4b4b4" style="color:#000000" rx=".73492" ry=".73502" width="1.4698" opacity="0.99" height="4.1896" y="453.47" x="-290.74"/>
  <rect stroke-linejoin="round" transform="matrix(.98333 -.18184 -.18191 -.98331 0 0)" stroke="#3c3c3c" stroke-linecap="round" fill="#b4b4b4" style="color:#000000" rx=".73504" ry=".73490" width="1.4701" opacity="0.99" height="4.1889" y="-502.49" x="215.28"/>
  <path style="enable-background:new" d="m306.25 447.49-2.5633 1.9887" stroke="#b3b3b3" stroke-linecap="round" stroke-width="1px" fill="none"/>
  <path style="enable-background:new" d="m299.15 448.42 2.4749 0.99436" stroke="#b3b3b3" stroke-linecap="round" stroke-width="1px" fill="none"/>
  <path style="enable-background:new" d="m303.26 451.73 0.37565 2.1434" stroke="#b3b3b3" stroke-linecap="round" stroke-width="1px" fill="none"/>
  <path stroke-linejoin="round" style="color:#000000" d="m159.36 39.762c0 0.85427-0.69252 1.5468-1.5468 1.5468-0.85427 0-1.5468-0.69252-1.5468-1.5468 0-0.85427 0.69253-1.5468 1.5468-1.5468s1.5468 0.69252 1.5468 1.5468z" transform="matrix(1.3492 0 0 1.3489 89.984 396.38)" stroke="#505050" stroke-linecap="round" stroke-width=".74126" fill="#b4b4b4"/>
  <path stroke-linejoin="round" style="color:#000000" d="m157.81 38.719c-0.59496 0-1.0312 0.43629-1.0312 1.0312 0 0.59496 0.44826 1.0625 1.0312 1.0625 0.58299 0 1.0625-0.47951 1.0625-1.0625s-0.46754-1.0312-1.0625-1.0312z" transform="matrix(.99037 0 0 .99014 146.62 410.64)" stroke="url(#i)" stroke-linecap="round" stroke-width="1.0098" fill="none"/>
  <path opacity=".6" style="color:#000000" d="m156.78 26.625c-0.3711 0-0.53125 0.16015-0.53125 0.53125s0.16015 0.53125 0.53125 0.53125 0.53125-0.16015 0.53125-0.53125-0.16015-0.53125-0.53125-0.53125z" transform="matrix(.68571 0 0 .68571 195.4 423.57)" stroke="url(#h)" stroke-width="1.4583" fill="none"/>
 </g>
</svg>
