<?xml version="1.0" encoding="UTF-8" standalone="no"?>
<svg xmlns:rdf="http://www.w3.org/1999/02/22-rdf-syntax-ns#" xmlns="http://www.w3.org/2000/svg" height="32" width="32" version="1.1" xmlns:cc="http://creativecommons.org/ns#" xmlns:xlink="http://www.w3.org/1999/xlink" xmlns:dc="http://purl.org/dc/elements/1.1/">
 <defs>
  <linearGradient id="d" y2="111.18" gradientUnits="userSpaceOnUse" x2="60.5" gradientTransform="matrix(.29762 0 0 .29762 131.99 50.72)" y1="31.816" x1="60.5">
   <stop stop-color="#fff" offset="0"/>
   <stop stop-color="#fff" stop-opacity=".23529" offset=".063165"/>
   <stop stop-color="#fff" stop-opacity=".15686" offset=".95056"/>
   <stop stop-color="#fff" stop-opacity=".39216" offset="1"/>
  </linearGradient>
  <linearGradient id="f" y2="5.9877" gradientUnits="userSpaceOnUse" x2="48" gradientTransform="matrix(.29762 0 0 .29762 331.43 261.93)" y1="90" x1="48">
   <stop stop-color="#be1e1e" offset="0"/>
   <stop stop-color="#e24a4a" offset="1"/>
  </linearGradient>
  <linearGradient id="e" y2="29.963" gradientUnits="userSpaceOnUse" x2="52" gradientTransform="matrix(.29762 0 0 .29762 327.71 254.94)" y1="113.5" x1="52">
   <stop stop-color="#560e0e" offset="0"/>
   <stop stop-color="#9b1919" offset="1"/>
  </linearGradient>
  <radialGradient id="c" xlink:href="#a" gradientUnits="userSpaceOnUse" cy="43.5" cx="4.993" gradientTransform="matrix(2.0038 0 0 1.4 27.988 -17.4)" r="2.5"/>
  <linearGradient id="a">
   <stop stop-color="#181818" offset="0"/>
   <stop stop-color="#181818" stop-opacity="0" offset="1"/>
  </linearGradient>
  <radialGradient id="b" xlink:href="#a" gradientUnits="userSpaceOnUse" cy="43.5" cx="4.993" gradientTransform="matrix(2.0038 0 0 1.4 -20.012 -104.4)" r="2.5"/>
  <linearGradient id="g" y2="39.999" gradientUnits="userSpaceOnUse" x2="25.058" y1="47.028" x1="25.058">
   <stop stop-color="#181818" stop-opacity="0" offset="0"/>
   <stop stop-color="#181818" offset=".5"/>
   <stop stop-color="#181818" stop-opacity="0" offset="1"/>
  </linearGradient>
 </defs>
 <g transform="translate(-329.71 -259.22)">
  <g style="enable-background:new" transform="matrix(0.7 0 0 .33333 328.91 274.55)">
   <g opacity=".4" transform="matrix(1.0526 0 0 1.2857 -1.2632 -13.429)">
    <rect height="7" width="5" y="40" x="38" fill="url(#c)"/>
    <rect transform="scale(-1)" height="7" width="5" y="-47" x="-10" fill="url(#b)"/>
    <rect height="7" width="28" y="40" x="10" fill="url(#g)"/>
   </g>
  </g>
  <path style="enable-background:new" d="m335 263.72c-0.9398 0-1.7021 0.71687-1.7764 1.6369 0.73494 0.005 1.33 0.60314 1.33 1.3393 0 0.73928-0.6 1.3393-1.3393 1.3393v2.0833c0.73929 0 1.3393 0.6 1.3393 1.3393 0 0.73928-0.6 1.3393-1.3393 1.3393v2.0833c0.73929 0 1.3393 0.6 1.3393 1.3393 0 0.73928-0.6 1.3393-1.3393 1.3393v2.0833c0.73929 0 1.3393 0.6 1.3393 1.3393 0 0.73929-0.6 1.3393-1.3393 1.3393v2.0833c0.73929 0 1.3393 0.6 1.3393 1.3393 0 0.73614-0.59505 1.3342-1.33 1.3393 0.0743 0.92002 0.83662 1.6369 1.7764 1.6369 0-0.73929 0.6-1.3393 1.3393-1.3393 0.73928 0 1.3393 0.6 1.3393 1.3393h2.0833c0-0.73929 0.6-1.3393 1.3393-1.3393 0.73928 0 1.3393 0.6 1.3393 1.3393h2.0833c0-0.73929 0.6-1.3393 1.3393-1.3393 0.73929 0 1.3393 0.6 1.3393 1.3393h2.0833c0-0.73929 0.6-1.3393 1.3393-1.3393 0.73928 0 1.3393 0.6 1.3393 1.3393h2.0833c-0.00001-0.73929 0.6-1.3393 1.3393-1.3393 0.72983 0 1.3242 0.58515 1.3393 1.3114 0.80017-0.13247 1.4125-0.78779 1.4788-1.609-0.73494-0.005-1.33-0.60315-1.33-1.3393 0-0.73928 0.59999-1.3393 1.3393-1.3393v-2.0833c-0.73929 0-1.3393-0.6-1.3393-1.3393 0-0.73928 0.59999-1.3393 1.3393-1.3393v-2.0833c-0.73929 0-1.3393-0.6-1.3393-1.3393 0-0.73929 0.59999-1.3393 1.3393-1.3393v-2.0833c-0.73929 0-1.3393-0.6-1.3393-1.3393 0-0.73929 0.59999-1.3393 1.3393-1.3393v-2.0833c-0.73929 0-1.3393-0.6-1.3393-1.3393 0-0.73614 0.59504-1.3342 1.33-1.3393-0.0663-0.82122-0.67863-1.4765-1.4788-1.609-0.0151 0.72624-0.60945 1.3114-1.3393 1.3114-0.73929 0-1.3393-0.6-1.3393-1.3393h-2.0833c0 0.73929-0.6 1.3393-1.3393 1.3393-0.73929 0-1.3393-0.6-1.3393-1.3393h-2.0833c0 0.73929-0.6 1.3393-1.3393 1.3393-0.73928 0-1.3393-0.6-1.3393-1.3393h-2.0833c0 0.73929-0.6 1.3393-1.3393 1.3393-0.73928 0-1.3393-0.6-1.3393-1.3393h-2.0833c0 0.73929-0.6 1.3393-1.3393 1.3393-0.73929 0-1.3393-0.6-1.3393-1.3393z" stroke="url(#e)" fill="url(#f)"/>
  <path opacity=".95" style="enable-background:new" d="m340.9 268.2-3.2793 14.421h2.6644l1.5478-6.4534h7.2732l-6.8113 6.0444 1.7756 2.0268 0.90948-0.46458c1.7199-0.87664 2.4412-0.36406 3.7461-0.005 1.2695 0.34924 2.4629 0.72303 4.9388-0.69181l-0.4917-2.4972c-2.7022 1.9046-3.557 0.20533-5.4816 0.13787l5.5099-4.6219 0.59786-2.4673h-11.542l0.74297-2.9612h7.5649l0.51879-2.4673h-10.184z" fill="#fff"/>
  <path opacity=".5" style="enable-background:new" d="m142.59 60.594c-0.42111 0.75132-1.0548 1.3438-1.9688 1.3438-0.42884 0-0.74123-0.27116-1.0938-0.46875 0.16449 0.32758 0.40625 0.60993 0.40625 1 0 0.91397-0.59243 1.5476-1.3438 1.9688v0.84375c0.75132 0.42112 1.3438 1.0548 1.3438 1.9688 0 0.91555-0.59097 1.5575-1.3438 1.9688v0.8125c0.75132 0.42112 1.3438 1.0548 1.3438 1.9688 0 0.91397-0.59243 1.5476-1.3438 1.9688v0.8125c0.75278 0.41127 1.3438 1.0532 1.3438 1.9688 0 0.91397-0.59243 1.5476-1.3438 1.9688v0.84375c0.75132 0.42112 1.3438 1.0548 1.3438 1.9688 0 0.39007-0.24176 0.67242-0.40625 1 0.35252-0.19759 0.66491-0.46875 1.0938-0.46875 0.91397 0 1.5476 0.59243 1.9688 1.3438h0.8125c0.41127-0.75278 1.0532-1.3438 1.9688-1.3438 0.91397 0 1.5476 0.59243 1.9688 1.3438h0.84375c0.42112-0.75132 1.0548-1.3438 1.9688-1.3438 0.91397 0 1.5476 0.59243 1.9688 1.3438h0.8125c0.42112-0.75132 1.0548-1.3438 1.9688-1.3438 0.91397 0 1.5476 0.59243 1.9688 1.3438h0.84375c0.42112-0.75132 1.0548-1.3438 1.9688-1.3438 0.28012 0 0.46882 0.19078 0.71875 0.28125-0.11251-0.27956-0.34375-0.49366-0.34375-0.8125 0-0.91397 0.59243-1.5476 1.3438-1.9688v-0.84375c-0.75132-0.42112-1.3438-1.0548-1.3438-1.9688 0-0.91555 0.59097-1.5575 1.3438-1.9688v-0.8125c-0.75-0.422-1.34-1.056-1.34-1.97 0-0.91397 0.59243-1.5476 1.3438-1.9688v-0.8125c-0.75278-0.41127-1.3438-1.0532-1.3438-1.9688 0-0.91397 0.59243-1.5476 1.3438-1.9688v-0.84375c-0.75132-0.42112-1.3438-1.0548-1.3438-1.9688 0-0.31884 0.23124-0.53294 0.34375-0.8125-0.24993 0.09047-0.43864 0.28125-0.71875 0.28125-0.91397 0-1.5476-0.59243-1.9688-1.3438h-0.84375c-0.42111 0.75132-1.0548 1.3438-1.9688 1.3438-0.91397 0-1.5476-0.59243-1.9688-1.3438h-0.8125c-0.42111 0.75132-1.0548 1.3438-1.9688 1.3438-0.91397 0-1.5476-0.59243-1.9688-1.3438h-0.84375c-0.42111 0.75132-1.0548 1.3438-1.9688 1.3438-0.91555 0-1.5575-0.59097-1.9688-1.3438h-0.8125z" transform="translate(195.71 204.22)" stroke="url(#d)" stroke-linecap="round" fill="none"/>
 </g>
</svg>
