<?xml version="1.0" encoding="UTF-8" standalone="no"?>
<svg
   xmlns:dc="http://purl.org/dc/elements/1.1/"
   xmlns:cc="http://creativecommons.org/ns#"
   xmlns:rdf="http://www.w3.org/1999/02/22-rdf-syntax-ns#"
   xmlns:svg="http://www.w3.org/2000/svg"
   xmlns="http://www.w3.org/2000/svg"
   xmlns:xlink="http://www.w3.org/1999/xlink"
   version="1.1"
   id="svg4071"
   height="32.000195"
   width="32">
  <defs
     id="defs4073">
    <linearGradient
       id="linearGradient4029-0-2">
      <stop
         id="stop4031-7-8"
         offset="0"
         style="stop-color:#87accd;stop-opacity:1;" />
      <stop
         style="stop-color:#6b96c1;stop-opacity:1;"
         offset="0.28728491"
         id="stop4062-3-8-5" />
      <stop
         style="stop-color:#477ba9;stop-opacity:1;"
         offset="0.59072286"
         id="stop4060-0-2-4" />
      <stop
         id="stop4033-0-3"
         offset="1"
         style="stop-color:#325978;stop-opacity:1;" />
    </linearGradient>
    <radialGradient
       gradientTransform="matrix(-0.10117465,0.11076534,-0.11197512,-0.10227971,163.31116,173.03909)"
       gradientUnits="userSpaceOnUse"
       r="53.035713"
       fy="37.30619"
       fx="47.917099"
       cy="37.30619"
       cx="47.917099"
       id="radialGradient4058-9-2-8-0-2-9"
       xlink:href="#linearGradient4029-0-2" />
    <linearGradient
       gradientTransform="matrix(2.0767139,0,0,2.0765717,836.10621,-388.24659)"
       gradientUnits="userSpaceOnUse"
       y2="112.66688"
       x2="-309.86035"
       y1="112.66688"
       x1="-323.86255"
       id="linearGradient4522"
       xlink:href="#linearGradient4516" />
    <linearGradient
       id="linearGradient4516">
      <stop
         id="stop4518"
         offset="0"
         style="stop-color:#ffffff;stop-opacity:1" />
      <stop
         id="stop4520"
         offset="1"
         style="stop-color:#ffffff;stop-opacity:0" />
    </linearGradient>
    <radialGradient
       gradientTransform="matrix(1.8749983,0,0,1.8749977,139.28572,163.0766)"
       gradientUnits="userSpaceOnUse"
       r="8"
       fy="0.37499985"
       fx="8"
       cy="5"
       cx="8.0625"
       id="radialGradient4640"
       xlink:href="#linearGradient4516" />
    <radialGradient
       gradientTransform="matrix(0.17525,0,0,0.05576,136.90892,180.19656)"
       r="62.769001"
       cy="186.17"
       cx="99.156998"
       gradientUnits="userSpaceOnUse"
       id="a">
      <stop
         id="stop25"
         offset="0"
         stop-color="#3d3d3d" />
      <stop
         id="stop27"
         offset=".5"
         stop-opacity=".49804"
         stop-color="#686868" />
      <stop
         id="stop29"
         offset="1"
         stop-opacity="0"
         stop-color="#686868" />
    </radialGradient>
  </defs>
  <metadata
     id="metadata4076">
    <rdf:RDF>
      <cc:Work
         rdf:about="">
        <dc:format>image/svg+xml</dc:format>
        <dc:type
           rdf:resource="http://purl.org/dc/dcmitype/StillImage" />
        <dc:title></dc:title>
      </cc:Work>
    </rdf:RDF>
  </metadata>
  <g
     transform="translate(-138.28572,-162.07637)"
     id="layer1">
    <path
       id="path36"
       d="m 165.28572,190.57656 a 11,3.5 0 0 1 -22,0 11,3.5 0 1 1 22,0 z"
       style="fill:url(#a)" />
    <g
       id="g4299">
      <circle
         cy="178.07657"
         cx="154.28572"
         style="color:#000000;display:inline;overflow:visible;visibility:visible;fill:url(#radialGradient4058-9-2-8-0-2-9);fill-opacity:1;fill-rule:nonzero;stroke:none;stroke-width:1.00000036;stroke-miterlimit:4;stroke-dasharray:none;stroke-opacity:1;marker:none;enable-background:accumulate"
         id="path3094-9-1-9-7-8-0-2"
         r="4" />
      <path
         style="opacity:1;fill:#dc242a;fill-opacity:1;stroke:none;stroke-width:1;stroke-linecap:square;stroke-linejoin:miter;stroke-miterlimit:4;stroke-dasharray:none;stroke-opacity:1"
         d="m 149.41491,180.8965 a 5.6247551,5.6251429 0 0 1 2.0588,-7.6841 5.6247551,5.6251429 0 0 1 2.81144,-0.74794 l 0.001,-0.005 13.89438,-5.7e-4 a 14.999347,15.000381 0 0 0 -6.39582,-7.36519 14.999347,15.000381 0 0 0 -14.99859,-4.3e-4 14.999347,15.000381 0 0 0 -4.31821,3.77038 l 6.94671,12.0329 z"
         id="path4226-0" />
      <path
         style="opacity:0.2;fill:url(#radialGradient4640);fill-opacity:1;stroke:none;stroke-width:1;stroke-linecap:square;stroke-linejoin:miter;stroke-miterlimit:4;stroke-dasharray:none;stroke-opacity:0"
         d="m 154.28571,163.0766 a 14.999986,14.999982 0 0 0 -14.99999,14.99998 14.999986,14.999982 0 0 0 14.99999,14.99998 14.999986,14.999982 0 0 0 14.99998,-14.99998 14.999986,14.999982 0 0 0 -14.99998,-14.99998 z m 0,9.37499 a 5.6249948,5.6249931 0 0 1 5.62499,5.62499 5.6249948,5.6249931 0 0 1 -5.62499,5.625 5.6249948,5.6249931 0 0 1 -5.625,-5.625 5.6249948,5.6249931 0 0 1 5.625,-5.62499 z"
         id="path4607" />
      <g
         id="g4362"
         transform="matrix(1.8749184,0,0,1.8750476,-325.69915,-230.81982)">
        <path
           id="path4226"
           transform="translate(232.00327,210.07646)"
           d="m 24,5 a 3,3 0 0 1 3,3 3,3 0 0 1 -0.404297,1.4980469 l 0.002,0.00195 -3.705078,6.4179691 A 8,8 0 0 0 28,14.927734 8,8 0 0 0 32,8 8,8 0 0 0 31.410156,5 L 24,5 Z"
           style="opacity:1;fill:#eed025;fill-opacity:1;stroke:none;stroke-width:1;stroke-linecap:square;stroke-linejoin:miter;stroke-miterlimit:4;stroke-dasharray:none;stroke-opacity:1" />
      </g>
      <path
         style="opacity:1;fill:#32b53b;fill-opacity:1;stroke:none;stroke-width:1;stroke-linecap:square;stroke-linejoin:miter;stroke-miterlimit:4;stroke-dasharray:none;stroke-opacity:1"
         d="m 159.15763,180.89633 a 5.6252547,5.6256264 0 0 1 -7.68422,2.05912 5.6252547,5.6256264 0 0 1 -2.05358,-2.06115 l -0.005,0.001 -6.94829,-12.0345 a 15.001703,15.000647 88.991359 0 0 -3.18036,9.22271 15.001703,15.000647 88.991359 0 0 7.49959,12.99143 15.001703,15.000647 88.991359 0 0 5.42461,1.85494 l 6.94729,-12.03396 z"
         id="path4226-0-4" />
      <ellipse
         style="opacity:0.2;fill:none;fill-opacity:1;stroke:#000000;stroke-width:1;stroke-linecap:square;stroke-linejoin:miter;stroke-miterlimit:4;stroke-dasharray:none;stroke-opacity:1"
         id="path4360-6"
         cx="-231.36166"
         cy="44.576908"
         transform="matrix(-0.50000072,-0.86602499,0.86602583,-0.49999926,0,0)"
         rx="14.49994"
         ry="14.499956" />
      <ellipse
         style="opacity:0.3;fill:none;fill-opacity:1;stroke:#000000;stroke-width:1;stroke-linecap:square;stroke-linejoin:miter;stroke-miterlimit:4;stroke-dasharray:none;stroke-opacity:1"
         id="path4360-6-4"
         cx="-231.36218"
         cy="44.579933"
         transform="matrix(-0.49998875,-0.8660319,0.86601893,-0.50001122,0,0)"
         rx="5.5013909"
         ry="5.5013089" />
      <ellipse
         style="opacity:0.3;fill:none;fill-opacity:1;stroke:url(#linearGradient4522);stroke-width:1;stroke-linecap:square;stroke-linejoin:miter;stroke-miterlimit:4;stroke-dasharray:none;stroke-opacity:1"
         id="path4360-6-43"
         cx="178.07564"
         cy="-154.28572"
         transform="matrix(0,1,-1,0,0,0)"
         rx="13.500926"
         ry="13.5" />
    </g>
  </g>
</svg>
