<?xml version="1.0" encoding="UTF-8" standalone="no"?>
<svg xmlns:rdf="http://www.w3.org/1999/02/22-rdf-syntax-ns#" xmlns="http://www.w3.org/2000/svg" height="32" width="32" version="1.1" xmlns:cc="http://creativecommons.org/ns#" xmlns:xlink="http://www.w3.org/1999/xlink" xmlns:dc="http://purl.org/dc/elements/1.1/">
 <defs>
  <radialGradient id="b" gradientUnits="userSpaceOnUse" cy="43.5" cx="4.993" gradientTransform="matrix(2.0038 0 0 1.4 27.988 -17.4)" r="2.5">
   <stop stop-color="#181818" offset="0"/>
   <stop stop-color="#181818" stop-opacity="0" offset="1"/>
  </radialGradient>
  <radialGradient id="a" gradientUnits="userSpaceOnUse" cy="43.5" cx="4.993" gradientTransform="matrix(2.0038 0 0 1.4 -20.012 -104.4)" r="2.5">
   <stop stop-color="#181818" offset="0"/>
   <stop stop-color="#181818" stop-opacity="0" offset="1"/>
  </radialGradient>
  <linearGradient id="d" y2="39.999" gradientUnits="userSpaceOnUse" x2="25.058" y1="47.028" x1="25.058">
   <stop stop-color="#181818" stop-opacity="0" offset="0"/>
   <stop stop-color="#181818" offset=".5"/>
   <stop stop-color="#181818" stop-opacity="0" offset="1"/>
  </linearGradient>
  <linearGradient id="f" y2="30.093" gradientUnits="userSpaceOnUse" x2="30.643" gradientTransform="translate(-27.316)" y1="3.9158" x1="30.643">
   <stop stop-opacity=".27206" offset="0"/>
   <stop stop-opacity=".36765" offset="1"/>
  </linearGradient>
  <linearGradient id="e" y2="43" gradientUnits="userSpaceOnUse" x2="24" gradientTransform="matrix(.62162 0 0 .62162 1.0811 2.0811)" y1="5" x1="24">
   <stop stop-color="#fff" offset="0"/>
   <stop stop-color="#fff" stop-opacity=".23529" offset=".063165"/>
   <stop stop-color="#fff" stop-opacity=".15686" offset=".95056"/>
   <stop stop-color="#fff" stop-opacity=".39216" offset="1"/>
  </linearGradient>
  <radialGradient id="c" gradientUnits="userSpaceOnUse" cy="8.4498" cx="20.931" gradientTransform="matrix(1.1657e-8 1.4381 -1.4834 -2.6496e-8 28.534 -39.421)" r="20">
   <stop stop-color="#f4f4f4" offset="0"/>
   <stop stop-color="#d0d0d0" offset="1"/>
  </radialGradient>
 </defs>
 <g transform="matrix(0.7 0 0 .44444 -0.8 10.111)">
  <g opacity=".4" transform="matrix(1.0526 0 0 1.2857 -1.2632 -13.429)">
   <rect height="7" width="5" y="40" x="38" fill="url(#b)"/>
   <rect transform="scale(-1)" height="7" width="5" y="-47" x="-10" fill="url(#a)"/>
   <rect height="7" width="28" y="40" x="10" fill="url(#d)"/>
  </g>
 </g>
 <rect style="color:#000000" transform="scale(1,-1)" rx="1.4911" ry="1.4911" height="24" width="24" y="-29" x="4" fill="url(#c)"/>
 <rect stroke-linejoin="round" style="color:#000000" rx="2" ry="2" height="25" width="25" stroke="url(#f)" stroke-linecap="round" y="4.5" x="3.5" fill="none"/>
 <rect stroke-linejoin="round" rx="1" ry="1" height="23" width="23" stroke="url(#e)" stroke-linecap="round" y="5.5" x="4.5" fill="none"/>
 <text opacity=".8" xml:space="preserve" font-size="12.666px" y="-7.3794532" x="948.06689" font-family="Bitstream Vera Sans" fill="#000000"><tspan y="-7.3794532" x="948.06689"/></text>
 <text opacity=".8" xml:space="preserve" font-size="12.666px" y="-48.121159" x="972.02783" font-family="Bitstream Vera Sans" fill="#000000"><tspan y="-48.121159" x="972.02783"/></text>
 <text opacity=".8" xml:space="preserve" font-size="12.666px" y="-78.199303" x="-498.53055" font-family="Bitstream Vera Sans" fill="#000000"><tspan y="-78.199303" x="-498.53055"/></text>
 <text opacity=".8" xml:space="preserve" font-size="12.666px" y="667.35419" x="-2322.2166" font-family="Bitstream Vera Sans" fill="#000000"><tspan y="667.35419" x="-2322.2166"/></text>
 <text opacity=".8" xml:space="preserve" font-size="12.666px" y="-463.52026" x="-384.03946" font-family="Bitstream Vera Sans" fill="#000000"><tspan y="-463.52026" x="-384.03946"/></text>
 <text opacity=".8" xml:space="preserve" font-size="12.666px" y="-876.99036" x="423.56268" font-family="Bitstream Vera Sans" fill="#000000"><tspan y="-876.99036" x="423.56268"/></text>
 <text opacity=".8" xml:space="preserve" font-size="12.666px" y="-917.73206" x="447.52362" font-family="Bitstream Vera Sans" fill="#000000"><tspan y="-917.73206" x="447.52362"/></text>
 <text opacity=".8" xml:space="preserve" font-size="12.666px" y="-924.94196" x="-1043.9396" font-family="Bitstream Vera Sans" fill="#000000"><tspan y="-924.94196" x="-1043.9396"/></text>
 <text opacity=".8" xml:space="preserve" font-size="12.666px" y="-1198.1761" x="416.60321" font-family="Bitstream Vera Sans" fill="#000000"><tspan y="-1198.1761" x="416.60321"/></text>
 <text opacity=".8" xml:space="preserve" font-size="12.666px" y="-571.48474" x="1902.7267" font-family="Bitstream Vera Sans" fill="#000000"><tspan y="-571.48474" x="1902.7267"/></text>
 <text opacity=".8" xml:space="preserve" font-size="12.666px" y="-612.2265" x="1926.6875" font-family="Bitstream Vera Sans" fill="#000000"><tspan y="-612.2265" x="1926.6875"/></text>
 <text opacity=".8" xml:space="preserve" font-size="12.666px" y="-619.4364" x="435.22437" font-family="Bitstream Vera Sans" fill="#000000"><tspan y="-619.4364" x="435.22437"/></text>
 <text opacity=".8" xml:space="preserve" font-size="12.666px" y="-892.67041" x="1895.7672" font-family="Bitstream Vera Sans" fill="#000000"><tspan y="-892.67041" x="1895.7672"/></text>
 <text opacity=".8" xml:space="preserve" font-size="12.666px" y="-667.52771" x="-502.59195" font-family="Bitstream Vera Sans" fill="#000000"><tspan y="-667.52771" x="-502.59195"/></text>
 <text opacity=".8" xml:space="preserve" font-size="12.666px" y="78.025803" x="-2326.2776" font-family="Bitstream Vera Sans" fill="#000000"><tspan y="78.025803" x="-2326.2776"/></text>
 <text opacity=".8" xml:space="preserve" font-size="12.666px" y="170.89793" x="-611.52216" font-family="Bitstream Vera Sans" fill="#000000"><tspan y="170.89793" x="-611.52216"/></text>
 <text opacity=".8" xml:space="preserve" font-size="12.666px" y="-8.2842016" x="497.50214" font-family="Bitstream Vera Sans" fill="#000000"><tspan y="-8.2842016" x="497.50214"/></text>
 <text opacity=".8" xml:space="preserve" font-size="12.666px" y="-49.025909" x="521.46307" font-family="Bitstream Vera Sans" fill="#000000"><tspan y="-49.025909" x="521.46307"/></text>
 <text opacity=".8" xml:space="preserve" font-size="12.666px" y="-56.235882" x="-970.00012" font-family="Bitstream Vera Sans" fill="#000000"><tspan y="-56.235882" x="-970.00012"/></text>
 <text opacity=".8" xml:space="preserve" font-size="12.666px" y="-329.46994" x="490.54266" font-family="Bitstream Vera Sans" fill="#000000"><tspan y="-329.46994" x="490.54266"/></text>
 <text opacity=".8" xml:space="preserve" font-size="12.666px" y="-58.950127" x="-537.19189" font-family="Bitstream Vera Sans" fill="#000000"><tspan y="-58.950127" x="-537.19189"/></text>
 <text opacity=".8" xml:space="preserve" font-size="12.666px" y="686.60339" x="-2360.8779" font-family="Bitstream Vera Sans" fill="#000000"><tspan y="686.60339" x="-2360.8779"/></text>
 <text opacity=".8" xml:space="preserve" font-size="12.666px" y="-920.48059" x="-386.09888" font-family="Bitstream Vera Sans" fill="#000000"><tspan y="-920.48059" x="-386.09888"/></text>
 <text opacity=".8" xml:space="preserve" font-size="12.666px" y="-1333.9508" x="421.50327" font-family="Bitstream Vera Sans" fill="#000000"><tspan y="-1333.9508" x="421.50327"/></text>
 <text opacity=".8" xml:space="preserve" font-size="12.666px" y="-1374.6925" x="445.46417" font-family="Bitstream Vera Sans" fill="#000000"><tspan y="-1374.6925" x="445.46417"/></text>
 <text opacity=".8" xml:space="preserve" font-size="12.666px" y="-1381.9025" x="-1045.9989" font-family="Bitstream Vera Sans" fill="#000000"><tspan y="-1381.9025" x="-1045.9989"/></text>
 <text opacity=".8" xml:space="preserve" font-size="12.666px" y="-1655.1366" x="414.54376" font-family="Bitstream Vera Sans" fill="#000000"><tspan y="-1655.1366" x="414.54376"/></text>
 <text opacity=".8" xml:space="preserve" font-size="12.666px" y="-1028.4453" x="1900.6671" font-family="Bitstream Vera Sans" fill="#000000"><tspan y="-1028.4453" x="1900.6671"/></text>
 <text opacity=".8" xml:space="preserve" font-size="12.666px" y="-1069.1869" x="1924.6279" font-family="Bitstream Vera Sans" fill="#000000"><tspan y="-1069.1869" x="1924.6279"/></text>
 <text opacity=".8" xml:space="preserve" font-size="12.666px" y="-1076.3969" x="433.16492" font-family="Bitstream Vera Sans" fill="#000000"><tspan y="-1076.3969" x="433.16492"/></text>
 <text opacity=".8" xml:space="preserve" font-size="12.666px" y="-1349.631" x="1893.7076" font-family="Bitstream Vera Sans" fill="#000000"><tspan y="-1349.631" x="1893.7076"/></text>
 <text opacity=".8" xml:space="preserve" font-size="12.666px" y="-1124.4882" x="-504.65137" font-family="Bitstream Vera Sans" fill="#000000"><tspan y="-1124.4882" x="-504.65137"/></text>
 <text opacity=".8" xml:space="preserve" font-size="12.666px" y="-378.93466" x="-2328.3372" font-family="Bitstream Vera Sans" fill="#000000"><tspan y="-378.93466" x="-2328.3372"/></text>
 <text opacity=".8" xml:space="preserve" font-size="12.666px" y="-286.0625" x="-613.5816" font-family="Bitstream Vera Sans" fill="#000000"><tspan y="-286.0625" x="-613.5816"/></text>
 <text opacity=".8" xml:space="preserve" font-size="12.666px" y="-45.148331" x="226.43291" font-family="Bitstream Vera Sans" fill="#000000"><tspan y="-45.148331" x="226.43291"/></text>
 <text opacity=".8" xml:space="preserve" font-size="12.666px" y="-85.890053" x="250.39384" font-family="Bitstream Vera Sans" fill="#000000"><tspan y="-85.890053" x="250.39384"/></text>
 <text opacity=".8" xml:space="preserve" font-size="12.666px" y="-279.91867" x="-1019.4229" font-family="Bitstream Vera Sans" fill="#000000"><tspan y="-279.91867" x="-1019.4229"/></text>
 <text opacity=".8" xml:space="preserve" font-size="12.666px" y="-693.38879" x="-211.82079" font-family="Bitstream Vera Sans" fill="#000000"><tspan y="-693.38879" x="-211.82079"/></text>
 <text opacity=".8" xml:space="preserve" font-size="12.666px" y="-734.13049" x="-187.85986" font-family="Bitstream Vera Sans" fill="#000000"><tspan y="-734.13049" x="-187.85986"/></text>
 <text opacity=".8" xml:space="preserve" font-size="12.666px" y="-741.34039" x="-1679.323" font-family="Bitstream Vera Sans" fill="#000000"><tspan y="-741.34039" x="-1679.323"/></text>
 <text opacity=".8" xml:space="preserve" font-size="12.666px" y="-1014.5745" x="-218.78023" font-family="Bitstream Vera Sans" fill="#000000"><tspan y="-1014.5745" x="-218.78023"/></text>
 <text opacity=".8" xml:space="preserve" font-size="12.666px" y="-387.88318" x="1267.3431" font-family="Bitstream Vera Sans" fill="#000000"><tspan y="-387.88318" x="1267.3431"/></text>
 <text opacity=".8" xml:space="preserve" font-size="12.666px" y="-428.62491" x="1291.304" font-family="Bitstream Vera Sans" fill="#000000"><tspan y="-428.62491" x="1291.304"/></text>
 <text opacity=".8" xml:space="preserve" font-size="12.666px" y="-435.83487" x="-200.15912" font-family="Bitstream Vera Sans" fill="#000000"><tspan y="-435.83487" x="-200.15912"/></text>
 <text opacity=".8" xml:space="preserve" font-size="12.666px" y="-709.06891" x="1260.3837" font-family="Bitstream Vera Sans" fill="#000000"><tspan y="-709.06891" x="1260.3837"/></text>
 <text opacity=".8" xml:space="preserve" font-size="12.666px" y="-483.92615" x="-1137.9755" font-family="Bitstream Vera Sans" fill="#000000"><tspan y="-483.92615" x="-1137.9755"/></text>
 <text opacity=".8" xml:space="preserve" font-size="12.666px" y="261.62741" x="-2961.6611" font-family="Bitstream Vera Sans" fill="#000000"><tspan y="261.62741" x="-2961.6611"/></text>
 <g transform="matrix(.90475 0 0 .90475 -645.9 -694.48)">
  <text opacity=".8" xml:space="preserve" font-size="14px" y="1159.4154" x="-664.2738" font-family="Bitstream Vera Sans" fill="#000000"><tspan y="1159.4154" x="-664.2738"/></text>
 </g>
 <text opacity=".8" xml:space="preserve" font-size="12.666px" y="-0.14146452" x="948.06689" font-family="Bitstream Vera Sans" fill="#000000"><tspan y="-0.14146452" x="948.06689"/></text>
 <text opacity=".8" xml:space="preserve" font-size="12.666px" y="-40.883171" x="972.02783" font-family="Bitstream Vera Sans" fill="#000000"><tspan y="-40.883171" x="972.02783"/></text>
 <text opacity=".8" xml:space="preserve" font-size="12.666px" y="-70.961311" x="-498.53055" font-family="Bitstream Vera Sans" fill="#000000"><tspan y="-70.961311" x="-498.53055"/></text>
 <text opacity=".8" xml:space="preserve" font-size="12.666px" y="674.59216" x="-2322.2166" font-family="Bitstream Vera Sans" fill="#000000"><tspan y="674.59216" x="-2322.2166"/></text>
 <text opacity=".8" xml:space="preserve" font-size="12.666px" y="-456.28226" x="-384.03946" font-family="Bitstream Vera Sans" fill="#000000"><tspan y="-456.28226" x="-384.03946"/></text>
 <text opacity=".8" xml:space="preserve" font-size="12.666px" y="-869.75232" x="423.56268" font-family="Bitstream Vera Sans" fill="#000000"><tspan y="-869.75232" x="423.56268"/></text>
 <text opacity=".8" xml:space="preserve" font-size="12.666px" y="-910.49408" x="447.52362" font-family="Bitstream Vera Sans" fill="#000000"><tspan y="-910.49408" x="447.52362"/></text>
 <text opacity=".8" xml:space="preserve" font-size="12.666px" y="-917.70398" x="-1043.9396" font-family="Bitstream Vera Sans" fill="#000000"><tspan y="-917.70398" x="-1043.9396"/></text>
 <text opacity=".8" xml:space="preserve" font-size="12.666px" y="-1190.9381" x="416.60321" font-family="Bitstream Vera Sans" fill="#000000"><tspan y="-1190.9381" x="416.60321"/></text>
 <text opacity=".8" xml:space="preserve" font-size="12.666px" y="-564.24677" x="1902.7267" font-family="Bitstream Vera Sans" fill="#000000"><tspan y="-564.24677" x="1902.7267"/></text>
 <text opacity=".8" xml:space="preserve" font-size="12.666px" y="-604.98853" x="1926.6875" font-family="Bitstream Vera Sans" fill="#000000"><tspan y="-604.98853" x="1926.6875"/></text>
 <text opacity=".8" xml:space="preserve" font-size="12.666px" y="-612.19843" x="435.22437" font-family="Bitstream Vera Sans" fill="#000000"><tspan y="-612.19843" x="435.22437"/></text>
 <text opacity=".8" xml:space="preserve" font-size="12.666px" y="-885.43237" x="1895.7672" font-family="Bitstream Vera Sans" fill="#000000"><tspan y="-885.43237" x="1895.7672"/></text>
 <text opacity=".8" xml:space="preserve" font-size="12.666px" y="-660.28973" x="-502.59195" font-family="Bitstream Vera Sans" fill="#000000"><tspan y="-660.28973" x="-502.59195"/></text>
 <text opacity=".8" xml:space="preserve" font-size="12.666px" y="85.263794" x="-2326.2776" font-family="Bitstream Vera Sans" fill="#000000"><tspan y="85.263794" x="-2326.2776"/></text>
 <text opacity=".8" xml:space="preserve" font-size="12.666px" y="178.13593" x="-611.52216" font-family="Bitstream Vera Sans" fill="#000000"><tspan y="178.13593" x="-611.52216"/></text>
 <text opacity=".8" xml:space="preserve" font-size="12.666px" y="-1.0462134" x="497.50214" font-family="Bitstream Vera Sans" fill="#000000"><tspan y="-1.0462134" x="497.50214"/></text>
 <text opacity=".8" xml:space="preserve" font-size="12.666px" y="-41.787918" x="521.46307" font-family="Bitstream Vera Sans" fill="#000000"><tspan y="-41.787918" x="521.46307"/></text>
 <text opacity=".8" xml:space="preserve" font-size="12.666px" y="-48.99789" x="-970.00012" font-family="Bitstream Vera Sans" fill="#000000"><tspan y="-48.99789" x="-970.00012"/></text>
 <text opacity=".8" xml:space="preserve" font-size="12.666px" y="-322.23193" x="490.54266" font-family="Bitstream Vera Sans" fill="#000000"><tspan y="-322.23193" x="490.54266"/></text>
 <text opacity=".8" xml:space="preserve" font-size="12.666px" y="-51.712135" x="-537.19189" font-family="Bitstream Vera Sans" fill="#000000"><tspan y="-51.712135" x="-537.19189"/></text>
 <text opacity=".8" xml:space="preserve" font-size="12.666px" y="693.84143" x="-2360.8779" font-family="Bitstream Vera Sans" fill="#000000"><tspan y="693.84143" x="-2360.8779"/></text>
 <text opacity=".8" xml:space="preserve" font-size="12.666px" y="-913.24261" x="-386.09888" font-family="Bitstream Vera Sans" fill="#000000"><tspan y="-913.24261" x="-386.09888"/></text>
 <text opacity=".8" xml:space="preserve" font-size="12.666px" y="-1326.7128" x="421.50327" font-family="Bitstream Vera Sans" fill="#000000"><tspan y="-1326.7128" x="421.50327"/></text>
 <text opacity=".8" xml:space="preserve" font-size="12.666px" y="-1367.4546" x="445.46417" font-family="Bitstream Vera Sans" fill="#000000"><tspan y="-1367.4546" x="445.46417"/></text>
 <text opacity=".8" xml:space="preserve" font-size="12.666px" y="-1374.6644" x="-1045.9989" font-family="Bitstream Vera Sans" fill="#000000"><tspan y="-1374.6644" x="-1045.9989"/></text>
 <text opacity=".8" xml:space="preserve" font-size="12.666px" y="-1647.8986" x="414.54376" font-family="Bitstream Vera Sans" fill="#000000"><tspan y="-1647.8986" x="414.54376"/></text>
 <text opacity=".8" xml:space="preserve" font-size="12.666px" y="-1021.2073" x="1900.6671" font-family="Bitstream Vera Sans" fill="#000000"><tspan y="-1021.2073" x="1900.6671"/></text>
 <text opacity=".8" xml:space="preserve" font-size="12.666px" y="-1061.949" x="1924.6279" font-family="Bitstream Vera Sans" fill="#000000"><tspan y="-1061.949" x="1924.6279"/></text>
 <text opacity=".8" xml:space="preserve" font-size="12.666px" y="-1069.1588" x="433.16492" font-family="Bitstream Vera Sans" fill="#000000"><tspan y="-1069.1588" x="433.16492"/></text>
 <text opacity=".8" xml:space="preserve" font-size="12.666px" y="-1342.3929" x="1893.7076" font-family="Bitstream Vera Sans" fill="#000000"><tspan y="-1342.3929" x="1893.7076"/></text>
 <text opacity=".8" xml:space="preserve" font-size="12.666px" y="-1117.2501" x="-504.65137" font-family="Bitstream Vera Sans" fill="#000000"><tspan y="-1117.2501" x="-504.65137"/></text>
 <text opacity=".8" xml:space="preserve" font-size="12.666px" y="-371.69666" x="-2328.3372" font-family="Bitstream Vera Sans" fill="#000000"><tspan y="-371.69666" x="-2328.3372"/></text>
 <text opacity=".8" xml:space="preserve" font-size="12.666px" y="-278.82449" x="-613.5816" font-family="Bitstream Vera Sans" fill="#000000"><tspan y="-278.82449" x="-613.5816"/></text>
 <text opacity=".8" xml:space="preserve" font-size="12.666px" y="-37.910343" x="226.43291" font-family="Bitstream Vera Sans" fill="#000000"><tspan y="-37.910343" x="226.43291"/></text>
 <text opacity=".8" xml:space="preserve" font-size="12.666px" y="-78.652061" x="250.39384" font-family="Bitstream Vera Sans" fill="#000000"><tspan y="-78.652061" x="250.39384"/></text>
 <text opacity=".8" xml:space="preserve" font-size="12.666px" y="-272.68066" x="-1019.4229" font-family="Bitstream Vera Sans" fill="#000000"><tspan y="-272.68066" x="-1019.4229"/></text>
 <text opacity=".8" xml:space="preserve" font-size="12.666px" y="-686.15082" x="-211.82079" font-family="Bitstream Vera Sans" fill="#000000"><tspan y="-686.15082" x="-211.82079"/></text>
 <text opacity=".8" xml:space="preserve" font-size="12.666px" y="-726.89252" x="-187.85986" font-family="Bitstream Vera Sans" fill="#000000"><tspan y="-726.89252" x="-187.85986"/></text>
 <text opacity=".8" xml:space="preserve" font-size="12.666px" y="-734.10248" x="-1679.323" font-family="Bitstream Vera Sans" fill="#000000"><tspan y="-734.10248" x="-1679.323"/></text>
 <text opacity=".8" xml:space="preserve" font-size="12.666px" y="-1007.3365" x="-218.78023" font-family="Bitstream Vera Sans" fill="#000000"><tspan y="-1007.3365" x="-218.78023"/></text>
 <text opacity=".8" xml:space="preserve" font-size="12.666px" y="-380.6452" x="1267.3431" font-family="Bitstream Vera Sans" fill="#000000"><tspan y="-380.6452" x="1267.3431"/></text>
 <text opacity=".8" xml:space="preserve" font-size="12.666px" y="-421.38693" x="1291.304" font-family="Bitstream Vera Sans" fill="#000000"><tspan y="-421.38693" x="1291.304"/></text>
 <text opacity=".8" xml:space="preserve" font-size="12.666px" y="-428.59686" x="-200.15912" font-family="Bitstream Vera Sans" fill="#000000"><tspan y="-428.59686" x="-200.15912"/></text>
 <text opacity=".8" xml:space="preserve" font-size="12.666px" y="-701.83093" x="1260.3837" font-family="Bitstream Vera Sans" fill="#000000"><tspan y="-701.83093" x="1260.3837"/></text>
 <text opacity=".8" xml:space="preserve" font-size="12.666px" y="-476.68814" x="-1137.9755" font-family="Bitstream Vera Sans" fill="#000000"><tspan y="-476.68814" x="-1137.9755"/></text>
 <text opacity=".8" xml:space="preserve" font-size="12.666px" y="268.86539" x="-2961.6611" font-family="Bitstream Vera Sans" fill="#000000"><tspan y="268.86539" x="-2961.6611"/></text>
 <g transform="matrix(.90475 0 0 .90475 -645.9 -687.24)">
  <text opacity=".8" xml:space="preserve" font-size="14px" y="1159.4154" x="-664.2738" font-family="Bitstream Vera Sans" fill="#000000"><tspan y="1159.4154" x="-664.2738"/></text>
 </g>
 <text xml:space="preserve" font-size="12.666px" y="-379.41751" x="506.74487" font-family="Droid Sans" fill="#000000"><tspan y="-379.41751" x="506.74487"/><tspan y="-363.58444" x="506.74487"/></text>
 <text opacity=".8" xml:space="preserve" font-size="12.666px" y="-861.46204" x="971.92883" font-family="Bitstream Vera Sans" fill="#000000"><tspan y="-861.46204" x="971.92883"/></text>
 <text opacity=".8" xml:space="preserve" font-size="12.666px" y="-115.90861" x="-851.75714" font-family="Bitstream Vera Sans" fill="#000000"><tspan y="-115.90861" x="-851.75714"/></text>
 <text opacity=".8" xml:space="preserve" font-size="12.666px" y="-1146.4579" x="1699.0083" font-family="Bitstream Vera Sans" fill="#000000"><tspan y="-1146.4579" x="1699.0083"/></text>
 <text opacity=".8" xml:space="preserve" font-size="12.666px" y="-1187.1996" x="1722.9691" font-family="Bitstream Vera Sans" fill="#000000"><tspan y="-1187.1996" x="1722.9691"/></text>
 <text opacity=".8" xml:space="preserve" font-size="12.666px" y="-1194.4095" x="231.50603" font-family="Bitstream Vera Sans" fill="#000000"><tspan y="-1194.4095" x="231.50603"/></text>
 <text opacity=".8" xml:space="preserve" font-size="12.666px" y="-1467.6437" x="1692.0488" font-family="Bitstream Vera Sans" fill="#000000"><tspan y="-1467.6437" x="1692.0488"/></text>
 <g opacity=".05" stroke-linejoin="round" transform="matrix(.038819 0 0 .038974 17.327 16.981)" stroke="#000" stroke-width="51.419">
  <path d="m17.469-230.45c2.6238 12.626 3.9993 25.752 1.123 38.502-3.4988 17.375-13.624 32.5-25.875 45.125-22.124 23-50 39.625-72.625 62.25-8.125 8.5-16.25 17.625-19.875 29-3.625 11.125-1.5 23.375 3.25 33.875 7 15 17.625 27.75 28.875 39.75 10.75 11.375 22.25 22.125 34 32.5-0.33203-0.71485-0.67273-1.4252-1.0215-2.1308-10.811-21.876-29.365-39.502-37.479-62.994-5.125-14.125-3.375-30.125 4.125-43.125 8.875-16 22.75-28.25 36.875-39.625 12.124-9.75 23.75-20.25 33.875-32.125 12.624-14.75 23.375-31.875 27-51.25 3.3775-17.25-0.50055-36.376-12.248-49.752z"/>
  <path d="m80.342-125.57c-28.75 8.25-57.125 19.625-81.375 37.5-15.376 11.5-29.624 27.5-31.75 47.375-2.125 19.875 8.25 38.625 20.625 53.375 6.0012 6.625 11.126 14.75 11.375 24 0.25125 12.375-6.7475 23.875-15.75 32 0.26593-0.0312 0.52152-0.0889 0.76953-0.16602 1.736-0.54003 3.0742-2.084 4.6055-2.959 13.499-8.625 26.499-19.5 33.125-34.375 4.375-10.125 3.3738-22.125-2.375-31.5-6.7512-11-15.624-20.75-20.873-32.75-2.8762-6.75-3.877-14.625-1.502-21.75 3.125-9.625 9.8762-17.5 17-24.375 19.626-18.625 43.376-31.875 66.125-46.375z"/>
  <path d="m113.73 46.991c-2.5127-0.0363-5.0276 0.11133-7.5117 0.43945-7.6275 1-16.001 2.625-21.25 9 0.78125-0.15625 1.5596-0.33276 2.3379-0.51952 5.4478-1.3074 10.847-3.1524 16.535-2.6055 13.626 0.75 27 10.75 29.5 24.5 2.375 11.875-3.3738 23.625-10.75 32.625-12.126 14.5-28.501 24.875-45 33.75-1.6262 0.99875-3 2.2495-4.25 3.627 21.75-5.5013 43.501-13.752 61.125-27.877 9.7488-8.125 18.375-18.875 20.25-31.75 1.7512-11.125-2.8725-22.625-11.125-30-8.125-7.4141-18.973-11.032-29.861-11.189z"/>
  <path d="m-93.158 51.93c-25.126-0.375-50.125 6-73.125 15.875-5.125 2.5-10.874 4.5-15 8.75-1.6245 1.75-1.625 4.75 0.25 6.25 3.75 3.375 8.7505 4.875 13.5 6.25 16.376 4.375 33.25 5.625 50 6.75 15.001 1 30 1.25 45.125 1.125 39-0.625 78.251-3.25 116.5-11.75 3.6262-0.875 7.6244-1.5 10.877-3.75 6.3738-4.125 13.373-7.375 20.248-10.625-31.126 5-62.376 9.25-93.875 11.25-31.875 2-64 3.25-96 1.125-9.1255-0.875-18.501-1.375-27-4.875-2-0.875-4.7505-2.625-3.75-5.25 1.875-3.375 5.625-5 8.875-6.75 13.75-6.5 28.75-10.125 43.375-14.375z"/>
  <path d="m-114.78 110.43c-7.7505 2.75-15.5 5.625-22 10.75-2.7505 2.125-5.5 5.5-4.75 9.25 1.125 4.375 5.375 7 9.125 9 9.2495 4.75 19.625 6.873 29.75 8.748 25.625 4.1262 51.751 4.2513 77.5 2.5 27.251-2.1237 54.374-6.623 80.752-14.373-7.5-3.375-14.628-7.25-20.625-12.875-21.875 3.875-43.878 7.5-66.002 8.625-24.25 1.625-48.5 0.25-72.5-2.25-4.625-0.625-9.2495-1.375-13.375-3.5-2.1245-1.25-4.25-3.25-4.125-5.875 0.2495-4.125 3.75-7 6.25-10z"/>
  <path d="m-102.41 166.68c-7 2-14.125 4.3743-19.875 8.998-2.8755 2.2513-5.125 6.127-3.75 9.752 1.75 4.6238 6.1255 7.3755 10.25 9.748 10.751 5.8763 22.875 8.6264 34.75 10.754 26.875 4.2475 54.499 3.6218 81.25-1.127 13.89-2.625 27.782-6.2087 40.918-11.5 0.93831-0.37795 1.8724-0.7645 2.8027-1.1602 0.93033-0.39565 1.8575-0.79897 2.7793-1.2129-9.6238-4.0025-18.999-8.5012-27.998-13.75-15.625 2.7488-31.378 5.6236-47.377 6.6211-21.125 1.6263-42.5-0.12304-63.625-2.748-5-1.125-11.25-1.627-14.625-6.002-1.75-3.625 2.25-6.2493 4.5-8.373z"/>
  <path d="m-154.33 203.65c-0.61153 0.00028-1.2227 0.01-1.832 0.0254-12.126 0.37625-24 3.5012-35.5 7.375-9.875 3.6262-20 7.6257-27.875 14.877-3.125 2.7488-6 7.9961-2.75 11.746 5 5.3763 12.75 6.7507 19.625 8.377 38.5 6.6238 77.499 10.374 116.5 11.752 51.75 1.4988 103.88-0.75391 154.75-10.754 17.5-3.6225 35.128-7.748 51.125-15.873 5-2.8762 11.126-6.0012 12.752-12 0.87375-5.7488-5.1275-8.75-9.375-11.125 2.6238 3 4.3756 7.3743 1.748 10.873-4.375 5.8763-11.876 8.1257-18.5 10.377-20.749 5.8738-42.251 8.2488-63.625 10.625-56.626 5.1238-113.62 6.3744-170.25 1.627-19-2.0025-38.375-4.1276-56.5-10.879-2.8755-1.25-7.25-2.4993-7.25-6.373 1.125-3.3738 4.3745-5.2488 7.25-6.875 13-6.6262 27.5-10.249 42-11.127-3.7188-2.1875-8.0123-2.6504-12.293-2.6484z"/>
  <path d="m155.34 234.81c-9.375 10-22.872 14.623-35.5 18.998-23.499 7.5-47.875 11.626-72.125 15-41.875 5.2525-84.125 6.875-126.25 5.625-25.625-0.99751-51.25-2.748-76.5-6.998 5.8755 3.9988 13.125 5.248 19.875 7.123 28.376 6.0013 57.5 7.1263 86.375 8 42.374 0.75 84.749-0.87374 126.5-7.5 19.751-3.4975 39.624-7.748 57.375-16.998 9.2512-4.8762 18.628-12.376 20.25-23.25z"/>
 </g>
 <g opacity=".1" transform="matrix(.038819 0 0 .038974 17.327 16.981)">
  <path d="m17.469-230.45c2.6238 12.626 3.9993 25.752 1.123 38.502-3.4988 17.375-13.624 32.5-25.875 45.125-22.124 23-50 39.625-72.625 62.25-8.125 8.5-16.25 17.625-19.875 29-3.625 11.125-1.5 23.375 3.25 33.875 7 15 17.625 27.75 28.875 39.75 10.75 11.375 22.25 22.125 34 32.5-0.33203-0.71485-0.67273-1.4252-1.0215-2.1308-10.811-21.876-29.365-39.502-37.479-62.994-5.125-14.125-3.375-30.125 4.125-43.125 8.875-16 22.75-28.25 36.875-39.625 12.124-9.75 23.75-20.25 33.875-32.125 12.624-14.75 23.375-31.875 27-51.25 3.3775-17.25-0.50055-36.376-12.248-49.752z"/>
  <path d="m80.342-125.57c-28.75 8.25-57.125 19.625-81.375 37.5-15.376 11.5-29.624 27.5-31.75 47.375-2.125 19.875 8.25 38.625 20.625 53.375 6.0012 6.625 11.126 14.75 11.375 24 0.25125 12.375-6.7475 23.875-15.75 32 0.26593-0.0312 0.52152-0.0889 0.76953-0.16602 1.736-0.54003 3.0742-2.084 4.6055-2.959 13.499-8.625 26.499-19.5 33.125-34.375 4.375-10.125 3.3738-22.125-2.375-31.5-6.7512-11-15.624-20.75-20.873-32.75-2.8762-6.75-3.877-14.625-1.502-21.75 3.125-9.625 9.8762-17.5 17-24.375 19.626-18.625 43.376-31.875 66.125-46.375z"/>
  <path d="m113.73 46.991c-2.5127-0.0363-5.0276 0.11133-7.5117 0.43945-7.6275 1-16.001 2.625-21.25 9 0.78125-0.15625 1.5596-0.33276 2.3379-0.51952 5.4478-1.3074 10.847-3.1524 16.535-2.6055 13.626 0.75 27 10.75 29.5 24.5 2.375 11.875-3.3738 23.625-10.75 32.625-12.126 14.5-28.501 24.875-45 33.75-1.6262 0.99875-3 2.2495-4.25 3.627 21.75-5.5013 43.501-13.752 61.125-27.877 9.7488-8.125 18.375-18.875 20.25-31.75 1.7512-11.125-2.8725-22.625-11.125-30-8.125-7.4141-18.973-11.032-29.861-11.189z"/>
  <path d="m-93.158 51.93c-25.126-0.375-50.125 6-73.125 15.875-5.125 2.5-10.874 4.5-15 8.75-1.6245 1.75-1.625 4.75 0.25 6.25 3.75 3.375 8.7505 4.875 13.5 6.25 16.376 4.375 33.25 5.625 50 6.75 15.001 1 30 1.25 45.125 1.125 39-0.625 78.251-3.25 116.5-11.75 3.6262-0.875 7.6244-1.5 10.877-3.75 6.3738-4.125 13.373-7.375 20.248-10.625-31.126 5-62.376 9.25-93.875 11.25-31.875 2-64 3.25-96 1.125-9.1255-0.875-18.501-1.375-27-4.875-2-0.875-4.7505-2.625-3.75-5.25 1.875-3.375 5.625-5 8.875-6.75 13.75-6.5 28.75-10.125 43.375-14.375z"/>
  <path d="m-114.78 110.43c-7.7505 2.75-15.5 5.625-22 10.75-2.7505 2.125-5.5 5.5-4.75 9.25 1.125 4.375 5.375 7 9.125 9 9.2495 4.75 19.625 6.873 29.75 8.748 25.625 4.1262 51.751 4.2513 77.5 2.5 27.251-2.1237 54.374-6.623 80.752-14.373-7.5-3.375-14.628-7.25-20.625-12.875-21.875 3.875-43.878 7.5-66.002 8.625-24.25 1.625-48.5 0.25-72.5-2.25-4.625-0.625-9.2495-1.375-13.375-3.5-2.1245-1.25-4.25-3.25-4.125-5.875 0.2495-4.125 3.75-7 6.25-10z"/>
  <path d="m-102.41 166.68c-7 2-14.125 4.3743-19.875 8.998-2.8755 2.2513-5.125 6.127-3.75 9.752 1.75 4.6238 6.1255 7.3755 10.25 9.748 10.751 5.8763 22.875 8.6264 34.75 10.754 26.875 4.2475 54.499 3.6218 81.25-1.127 13.89-2.625 27.782-6.2087 40.918-11.5 0.93831-0.37795 1.8724-0.7645 2.8027-1.1602 0.93033-0.39565 1.8575-0.79897 2.7793-1.2129-9.6238-4.0025-18.999-8.5012-27.998-13.75-15.625 2.7488-31.378 5.6236-47.377 6.6211-21.125 1.6263-42.5-0.12304-63.625-2.748-5-1.125-11.25-1.627-14.625-6.002-1.75-3.625 2.25-6.2493 4.5-8.373z"/>
  <path d="m-154.33 203.65c-0.61153 0.00028-1.2227 0.01-1.832 0.0254-12.126 0.37625-24 3.5012-35.5 7.375-9.875 3.6262-20 7.6257-27.875 14.877-3.125 2.7488-6 7.9961-2.75 11.746 5 5.3763 12.75 6.7507 19.625 8.377 38.5 6.6238 77.499 10.374 116.5 11.752 51.75 1.4988 103.88-0.75391 154.75-10.754 17.5-3.6225 35.128-7.748 51.125-15.873 5-2.8762 11.126-6.0012 12.752-12 0.87375-5.7488-5.1275-8.75-9.375-11.125 2.6238 3 4.3756 7.3743 1.748 10.873-4.375 5.8763-11.876 8.1257-18.5 10.377-20.749 5.8738-42.251 8.2488-63.625 10.625-56.626 5.1238-113.62 6.3744-170.25 1.627-19-2.0025-38.375-4.1276-56.5-10.879-2.8755-1.25-7.25-2.4993-7.25-6.373 1.125-3.3738 4.3745-5.2488 7.25-6.875 13-6.6262 27.5-10.249 42-11.127-3.7188-2.1875-8.0123-2.6504-12.293-2.6484z"/>
  <path d="m155.34 234.81c-9.375 10-22.872 14.623-35.5 18.998-23.499 7.5-47.875 11.626-72.125 15-41.875 5.2525-84.125 6.875-126.25 5.625-25.625-0.99751-51.25-2.748-76.5-6.998 5.8755 3.9988 13.125 5.248 19.875 7.123 28.376 6.0013 57.5 7.1263 86.375 8 42.374 0.75 84.749-0.87374 126.5-7.5 19.751-3.4975 39.624-7.748 57.375-16.998 9.2512-4.8762 18.628-12.376 20.25-23.25z"/>
 </g>
 <g transform="matrix(.038819 0 0 .038974 17.327 15.981)">
  <path d="m17.469-230.45c2.6238 12.626 3.9993 25.752 1.123 38.502-3.4988 17.375-13.624 32.5-25.875 45.125-22.124 23-50 39.625-72.625 62.25-8.125 8.5-16.25 17.625-19.875 29-3.625 11.125-1.5 23.375 3.25 33.875 7 15 17.625 27.75 28.875 39.75 10.75 11.375 22.25 22.125 34 32.5-0.33203-0.71485-0.67273-1.4252-1.0215-2.1308-10.811-21.876-29.365-39.502-37.479-62.994-5.125-14.125-3.375-30.125 4.125-43.125 8.875-16 22.75-28.25 36.875-39.625 12.124-9.75 23.75-20.25 33.875-32.125 12.624-14.75 23.375-31.875 27-51.25 3.3775-17.25-0.50055-36.376-12.248-49.752z" fill="#e76f00"/>
  <path d="m80.342-125.57c-28.75 8.25-57.125 19.625-81.375 37.5-15.376 11.5-29.624 27.5-31.75 47.375-2.125 19.875 8.25 38.625 20.625 53.375 6.0012 6.625 11.126 14.75 11.375 24 0.25125 12.375-6.7475 23.875-15.75 32 0.26593-0.0312 0.52152-0.0889 0.76953-0.16602 1.736-0.54003 3.0742-2.084 4.6055-2.959 13.499-8.625 26.499-19.5 33.125-34.375 4.375-10.125 3.3738-22.125-2.375-31.5-6.7512-11-15.624-20.75-20.873-32.75-2.8762-6.75-3.877-14.625-1.502-21.75 3.125-9.625 9.8762-17.5 17-24.375 19.626-18.625 43.376-31.875 66.125-46.375z" fill="#e76f00"/>
  <path d="m113.73 46.991c-2.5127-0.0363-5.0276 0.11133-7.5117 0.43945-7.6275 1-16.001 2.625-21.25 9 0.78125-0.15625 1.5596-0.33276 2.3379-0.51952 5.4478-1.3074 10.847-3.1524 16.535-2.6055 13.626 0.75 27 10.75 29.5 24.5 2.375 11.875-3.3738 23.625-10.75 32.625-12.126 14.5-28.501 24.875-45 33.75-1.6262 0.99875-3 2.2495-4.25 3.627 21.75-5.5013 43.501-13.752 61.125-27.877 9.7488-8.125 18.375-18.875 20.25-31.75 1.7512-11.125-2.8725-22.625-11.125-30-8.125-7.4141-18.973-11.032-29.861-11.189z" fill="#5382a1"/>
  <path d="m-93.158 51.93c-25.126-0.375-50.125 6-73.125 15.875-5.125 2.5-10.874 4.5-15 8.75-1.6245 1.75-1.625 4.75 0.25 6.25 3.75 3.375 8.7505 4.875 13.5 6.25 16.376 4.375 33.25 5.625 50 6.75 15.001 1 30 1.25 45.125 1.125 39-0.625 78.251-3.25 116.5-11.75 3.6262-0.875 7.6244-1.5 10.877-3.75 6.3738-4.125 13.373-7.375 20.248-10.625-31.126 5-62.376 9.25-93.875 11.25-31.875 2-64 3.25-96 1.125-9.1255-0.875-18.501-1.375-27-4.875-2-0.875-4.7505-2.625-3.75-5.25 1.875-3.375 5.625-5 8.875-6.75 13.75-6.5 28.75-10.125 43.375-14.375z" fill="#5382a1"/>
  <path d="m-114.78 110.43c-7.7505 2.75-15.5 5.625-22 10.75-2.7505 2.125-5.5 5.5-4.75 9.25 1.125 4.375 5.375 7 9.125 9 9.2495 4.75 19.625 6.873 29.75 8.748 25.625 4.1262 51.751 4.2513 77.5 2.5 27.251-2.1237 54.374-6.623 80.752-14.373-7.5-3.375-14.628-7.25-20.625-12.875-21.875 3.875-43.878 7.5-66.002 8.625-24.25 1.625-48.5 0.25-72.5-2.25-4.625-0.625-9.2495-1.375-13.375-3.5-2.1245-1.25-4.25-3.25-4.125-5.875 0.2495-4.125 3.75-7 6.25-10z" fill="#5382a1"/>
  <path d="m-102.41 166.68c-7 2-14.125 4.3743-19.875 8.998-2.8755 2.2513-5.125 6.127-3.75 9.752 1.75 4.6238 6.1255 7.3755 10.25 9.748 10.751 5.8763 22.875 8.6264 34.75 10.754 26.875 4.2475 54.499 3.6218 81.25-1.127 13.89-2.625 27.782-6.2087 40.918-11.5 0.93831-0.37795 1.8724-0.7645 2.8027-1.1602 0.93033-0.39565 1.8575-0.79897 2.7793-1.2129-9.6238-4.0025-18.999-8.5012-27.998-13.75-15.625 2.7488-31.378 5.6236-47.377 6.6211-21.125 1.6263-42.5-0.12304-63.625-2.748-5-1.125-11.25-1.627-14.625-6.002-1.75-3.625 2.25-6.2493 4.5-8.373z" fill="#5382a1"/>
  <path d="m-154.33 203.65c-0.61153 0.00028-1.2227 0.01-1.832 0.0254-12.126 0.37625-24 3.5012-35.5 7.375-9.875 3.6262-20 7.6257-27.875 14.877-3.125 2.7488-6 7.9961-2.75 11.746 5 5.3763 12.75 6.7507 19.625 8.377 38.5 6.6238 77.499 10.374 116.5 11.752 51.75 1.4988 103.88-0.75391 154.75-10.754 17.5-3.6225 35.128-7.748 51.125-15.873 5-2.8762 11.126-6.0012 12.752-12 0.87375-5.7488-5.1275-8.75-9.375-11.125 2.6238 3 4.3756 7.3743 1.748 10.873-4.375 5.8763-11.876 8.1257-18.5 10.377-20.749 5.8738-42.251 8.2488-63.625 10.625-56.626 5.1238-113.62 6.3744-170.25 1.627-19-2.0025-38.375-4.1276-56.5-10.879-2.8755-1.25-7.25-2.4993-7.25-6.373 1.125-3.3738 4.3745-5.2488 7.25-6.875 13-6.6262 27.5-10.249 42-11.127-3.7188-2.1875-8.0123-2.6504-12.293-2.6484z" fill="#5382a1"/>
  <path d="m155.34 234.81c-9.375 10-22.872 14.623-35.5 18.998-23.499 7.5-47.875 11.626-72.125 15-41.875 5.2525-84.125 6.875-126.25 5.625-25.625-0.99751-51.25-2.748-76.5-6.998 5.8755 3.9988 13.125 5.248 19.875 7.123 28.376 6.0013 57.5 7.1263 86.375 8 42.374 0.75 84.749-0.87374 126.5-7.5 19.751-3.4975 39.624-7.748 57.375-16.998 9.2512-4.8762 18.628-12.376 20.25-23.25z" fill="#5382a1"/>
 </g>
</svg>
