<?xml version="1.0" encoding="UTF-8" standalone="no"?>
<svg xmlns:rdf="http://www.w3.org/1999/02/22-rdf-syntax-ns#" xmlns="http://www.w3.org/2000/svg" height="32" width="32" version="1.1" xmlns:cc="http://creativecommons.org/ns#" xmlns:xlink="http://www.w3.org/1999/xlink" xmlns:dc="http://purl.org/dc/elements/1.1/">
 <defs>
  <radialGradient id="c" gradientUnits="userSpaceOnUse" cy="4.625" cx="62.625" gradientTransform="matrix(1 0 0 .34118 0 3.0471)" r="10.625">
   <stop offset="0"/>
   <stop stop-opacity="0" offset="1"/>
  </radialGradient>
  <radialGradient id="b" gradientUnits="userSpaceOnUse" cy="-8.7256" cx="61.24" gradientTransform="matrix(0 3.5234 -3.5234 0 -6.744 -205.8)" r="9.7553">
   <stop stop-color="#51cfee" offset="0"/>
   <stop stop-color="#49a3d2" offset=".26238"/>
   <stop stop-color="#3470b4" offset=".70495"/>
   <stop stop-color="#273567" offset="1"/>
  </radialGradient>
  <linearGradient id="g" y2="2.6887" gradientUnits="userSpaceOnUse" x2="20" gradientTransform="matrix(.98001 0 0 .97999 .089940 .87036)" y1="43" x1="20">
   <stop stop-color="#254b6d" offset="0"/>
   <stop stop-color="#415b73" offset=".5"/>
   <stop stop-color="#6195b5" offset="1"/>
  </linearGradient>
  <linearGradient id="f" y2="-1.4615" gradientUnits="userSpaceOnUse" x2="62.2" gradientTransform="matrix(1.9605 0 0 1.9605 -97.946 30.883)" y1="-12.489" x1="62.2">
   <stop stop-color="#fff" offset="0"/>
   <stop stop-color="#fff" stop-opacity="0" offset="1"/>
  </linearGradient>
  <linearGradient id="h" y2="47.533" gradientUnits="userSpaceOnUse" x2="157.8" y1="20.111" x1="157.8">
   <stop stop-color="#fff" offset="0"/>
   <stop stop-color="#fff" stop-opacity="0" offset="1"/>
  </linearGradient>
  <linearGradient id="j" y2="19.244" gradientUnits="userSpaceOnUse" x2="158.91" gradientTransform="matrix(.74358 0 0 .81558 79.657 386.31)" y1="48.432" x1="158.91">
   <stop stop-color="#8c8c8c" offset="0"/>
   <stop stop-color="#969696" offset=".031177"/>
   <stop stop-color="#a0a0a0" offset=".074123"/>
   <stop stop-color="#dcdcdc" offset=".15525"/>
   <stop stop-color="#e1e1e1" offset=".5"/>
   <stop stop-color="#e6e6e6" offset="1"/>
  </linearGradient>
  <linearGradient id="i" y2="12.644" gradientUnits="userSpaceOnUse" x2="153.68" gradientTransform="matrix(.67441 0 0 .66478 90.586 393.62)" y1="48.531" x1="153.68">
   <stop stop-color="#646464" offset="0"/>
   <stop stop-color="#b4b4b4" offset="1"/>
  </linearGradient>
  <radialGradient id="e" xlink:href="#a" gradientUnits="userSpaceOnUse" cy="43.5" cx="4.993" gradientTransform="matrix(2.0038 0 0 1.4 27.988 -17.4)" r="2.5"/>
  <linearGradient id="a">
   <stop offset="0"/>
   <stop stop-opacity="0" offset="1"/>
  </linearGradient>
  <radialGradient id="d" xlink:href="#a" gradientUnits="userSpaceOnUse" cy="43.5" cx="4.993" gradientTransform="matrix(2.0038 0 0 1.4 -20.012 -104.4)" r="2.5"/>
  <linearGradient id="k" y2="39.999" gradientUnits="userSpaceOnUse" x2="25.058" y1="47.028" x1="25.058">
   <stop stop-opacity="0" offset="0"/>
   <stop offset=".5"/>
   <stop stop-opacity="0" offset="1"/>
  </linearGradient>
 </defs>
 <g transform="translate(-181.14 -396.36)">
  <g style="enable-background:new" transform="matrix(.79999 0 0 .29546 177.94 413.48)">
   <g opacity=".4" transform="matrix(1.0526 0 0 1.2857 -1.2632 -13.429)">
    <rect height="7" width="5" y="40" x="38" fill="url(#e)"/>
    <rect transform="scale(-1)" height="7" width="5" y="-47" x="-10" fill="url(#d)"/>
    <rect height="7" width="28" y="40" x="10" fill="url(#k)"/>
   </g>
  </g>
  <path stroke-linejoin="round" style="color:#000000" d="m182.64 401.93v20.746c0 1.7572 1.2793 3.1858 2.8814 3.1858h23.237c1.6021 0 2.8814-1.4286 2.8814-3.1858v-20.746h-29z" stroke="url(#i)" stroke-linecap="round" fill="url(#j)"/>
  <path stroke-linejoin="round" style="color:#000000" d="m139.47 20.125v24.469c0 1.637 1.2787 2.9375 2.9062 2.9375h31.25c1.6276 0 2.9062-1.3005 2.9062-2.9375v-24.469h-37.062z" transform="matrix(.72713 0 0 .81051 82.253 386.63)" stroke="url(#h)" stroke-linecap="round" stroke-width="1.3026" fill="none"/>
  <g style="enable-background:new" transform="scale(1.0211 .97933)" fill="#3c3c3c">
   <path style="" d="m190.08 412.95c-0.16481 0.0851-0.31366 0.1276-0.44656 0.12759-0.21266 0.00001-0.44126-0.0957-0.6858-0.28707l-0.87717 0.8373 0.19138 0.19138 0.15151-0.12758c0.11164 0.10632 0.30037 0.15949 0.56618 0.15948h0.0399l0.016-0.008h0.016l0.008 0.93299h-0.016l-0.0638 0.016h-0.0319c-0.0319 0.016-0.11164 0.0239-0.23923 0.0239-0.005 0.005-0.0346 0.008-0.0877 0.008-0.20202 0-0.3429-0.0266-0.42264-0.0797-0.13823-0.24986-0.24987-0.45188-0.33493-0.60605-0.0797-0.15948-0.14885-0.29239-0.20733-0.39872-0.21797-0.31897-0.3934-0.53959-0.5263-0.66187-0.20202-0.18606-0.44657-0.27909-0.73364-0.2791-0.2924 0.00001-0.53694 0.1143-0.73364 0.3429-0.20202 0.21797-0.30303 0.47049-0.30303 0.75756 0 0.20733 0.0558 0.32163 0.16747 0.34289l-0.016-0.0159h0.0558c0.0159-0.18075 0.13556-0.32695 0.35884-0.43859 0.0106-0.0106 0.0239-0.016 0.0399-0.016 0.0213 0 0.0399-0.003 0.0558-0.008 0.0372-0.0106 0.0744-0.0186 0.11164-0.0239 0.0425-0.0106 0.0771-0.0266 0.10367-0.0478h0.016v1.3078c-0.0957 0.0106-0.17278 0.0213-0.23126 0.0319-0.0585 0.0106-0.0983 0.0186-0.11961 0.0239-0.23392 0.0957-0.35087 0.30568-0.35087 0.62997 0 0.14885 0.0478 0.2791 0.14354 0.39074 0.0957 0.11164 0.21264 0.16746 0.35087 0.16746v-0.0558-0.0319l-0.008-0.008c0-0.0425 0.0106-0.0851 0.0319-0.12759 0.0266-0.0478 0.0585-0.0718 0.0957-0.0718h0.016c0.016 0.0106 0.0292 0.0186 0.0399 0.0239 0.0106 0.00001 0.0213 0.003 0.0319 0.008v1.0686c-0.52631 0.15949-0.86654 0.52099-1.0207 1.0845 0.0319-0.0106 0.0691-0.0266 0.11165-0.0478 0.0478-0.016 0.0718-0.0239 0.0718-0.0239 0.0213-0.0106 0.0478-0.0266 0.0797-0.0478v0.008c0.22328-0.10633 0.45453-0.15949 0.69376-0.15949 0.32429 0 0.6725 0.11696 1.0446 0.35087l0.63795-0.8373-0.17544-0.17544-0.0957 0.12759c-0.15417-0.10632-0.311-0.18607-0.47048-0.23923-0.15949-0.0585-0.32695-0.0877-0.50239-0.0877h-0.0478l-0.016 0.008h-0.008v-0.76554c0.12759-0.0851 0.33227-0.12759 0.61403-0.12759 0.21264 0 0.45719 0.0585 0.73364 0.17544 0.0266 0.0585 0.0531 0.11696 0.0797 0.17543 0.0266 0.0532 0.0532 0.10367 0.0797 0.15151 0.10632 0.20734 0.18607 0.37214 0.23923 0.49441 0.0585 0.11696 0.1143 0.21531 0.16746 0.29505h-0.008c0.2977 0.53694 0.5768 0.80541 0.8373 0.80541h0.0478v-4.4178c0.0159-0.005 0.0346-0.0106 0.0558-0.0159 0.0266-0.0106 0.0558-0.0266 0.0877-0.0478v0.008c0.14353-0.0744 0.27644-0.17543 0.39871-0.30302 0.0797-0.0797 0.13822-0.15683 0.17544-0.23126 0.0372-0.0744 0.0585-0.14885 0.0638-0.22328l-0.0478-0.0319m-2.8708 2.8708c-0.16481 0-0.38277 0.0372-0.6539 0.11164v-2.1371c0.12228 0.0585 0.27113 0.24721 0.44657 0.56618 0.085 0.17012 0.20467 0.4253 0.35884 0.76554 0.0904 0.1967 0.1648 0.35884 0.22328 0.48643 0.0585 0.12227 0.10367 0.21531 0.13557 0.2791-0.17013-0.0478-0.34024-0.0718-0.51036-0.0718m1.3158-0.311c-0.0478-0.10632-0.0877-0.19404-0.11961-0.26315-0.0319-0.0691-0.0558-0.12227-0.0718-0.15949 0.0638 0.0213 0.1329 0.0319 0.20733 0.0319h0.21531c0.0638 0 0.11961-0.003 0.16746-0.008 0.0532-0.005 0.0957-0.016 0.12759-0.0319l0.008 1.4274c-0.0797-0.11695-0.1648-0.25517-0.25518-0.41466-0.0851-0.1648-0.17809-0.35884-0.2791-0.58213"/>
   <path style="" d="m192.83 415.77c-0.0532-0.0744-0.11164-0.16215-0.17543-0.26316-0.0585-0.10632-0.12228-0.22062-0.19139-0.34289-0.0744-0.13822-0.1329-0.26315-0.17543-0.3748-0.0425-0.11163-0.0771-0.2153-0.10367-0.311-0.52631 0.35088-0.99945 0.52631-1.4194 0.52631h-0.0319l-0.0239-0.008h-0.0239l-0.008-0.008h-0.0478l-0.0718-0.0718v0.11164c0.0851 0.18607 0.12759 0.31898 0.12759 0.39872v1.9298c-0.10633 0.0797-0.1781 0.14354-0.21531 0.19138-0.005 0.005-0.0213 0.0266-0.0478 0.0638-0.0213 0.0372-0.0505 0.0851-0.0877 0.14353v-0.008c-0.0106 0.0106-0.0213 0.0266-0.0319 0.0478-0.0106 0.0159-0.0213 0.0372-0.0319 0.0638 0.0638-0.0106 0.12759-0.0186 0.19139-0.0239 0.0638-0.0106 0.12759-0.0159 0.19138-0.0159 0.17012 0 0.37214 0.0239 0.60605 0.0718 0.13822 0.0266 0.26049 0.0638 0.36682 0.11164 0.10632 0.0532 0.2153 0.10898 0.32695 0.16746l0.0797 0.0399 0.72566-0.79743-0.19935-0.18341-0.19139 0.19936c-0.12227-0.0585-0.25518-0.10899-0.39871-0.15152-0.13823-0.0425-0.28974-0.0771-0.45454-0.10366v-0.59808c0.0585-0.0425 0.11164-0.0771 0.15949-0.10366 0.32428-0.19139 0.57946-0.34024 0.76553-0.44657 0.19138-0.11163 0.31897-0.1834 0.38277-0.2153l0.008-0.0399m-1.0606-0.15152c0.0372 0.0798 0.0691 0.1462 0.0957 0.19936 0.0319 0.0479 0.0585 0.0877 0.0797 0.11962l-0.43061 0.2791v-1.0207l0.0638-0.0159c0.0266 0.0744 0.0558 0.14885 0.0877 0.22328 0.0319 0.0744 0.0664 0.1462 0.10367 0.2153"/>
   <path style="" d="m197.67 414.95c-0.0266 0.0106-0.0452 0.0213-0.0558 0.0319-0.0213 0.005-0.0372 0.008-0.0478 0.008s-0.0213 0.003-0.0319 0.008v0.008h-0.008c-0.0106 0.005-0.0213 0.008-0.0319 0.008-0.0478 0.00001-0.0744-0.003-0.0797-0.008-0.17013-0.0159-0.32164-0.16214-0.45454-0.43859l-0.87718 0.64592 0.11962 0.19139 0.0957-0.0399c0.0851 0.10101 0.1648 0.16214 0.23923 0.1834v1.9298c0 0.10101-0.0478 0.15152-0.14354 0.15151h-0.0877c-0.005 0.00001-0.0106 0.00001-0.016 0v-0.008c-0.0213-0.0106-0.0452-0.0186-0.0718-0.0239-0.0266-0.0106-0.0479-0.0213-0.0638-0.0319-0.17544-0.0851-0.26315-0.22062-0.26315-0.40669v-2.0813c-0.0106-0.0425-0.0186-0.0718-0.0239-0.0877-0.0106-0.0159-0.0186-0.0319-0.0239-0.0478 0-0.016-0.003-0.0292-0.008-0.0399-0.0585-0.14885-0.1967-0.27909-0.41467-0.39074l-0.81338 0.70174v0.0638c0.0957 0 0.18873 0.0319 0.2791 0.0957 0.0904 0.0585 0.13556 0.12493 0.13557 0.19936v1.7783c-0.0319 0.0213-0.0665 0.0372-0.10367 0.0479-0.005 0.005-0.0133 0.0106-0.0239 0.0159-0.005 0.005-0.0106 0.0106-0.016 0.0159l-0.0319 0.0319c-0.0319-0.0266-0.0718-0.0532-0.11961-0.0797-0.0478-0.0266-0.10101-0.0532-0.15949-0.0797-0.0266-0.0106-0.0425-0.0159-0.0478-0.0159-0.005-0.005-0.0213-0.0133-0.0478-0.0239-0.0585 0-0.10101-0.0106-0.12759-0.0319v-1.9776c0-0.1648-0.0532-0.31365-0.15949-0.44656-0.10632-0.1329-0.23923-0.22859-0.39871-0.28707l-0.80541 0.8054 0.0638 0.0399h0.0239l0.0159 0.008h0.0638l0.0239 0.008h0.016c0.11164 0.00001 0.20733 0.0797 0.28708 0.23923v1.7225h-0.008l-0.008 0.016c-0.16481 0.12227-0.27379 0.27644-0.32695 0.46251 0.0266-0.0106 0.0532-0.0186 0.0797-0.0239 0.0319-0.005 0.0585-0.008 0.0798-0.008l0.0159-0.008h0.0159c0.16481 0 0.32163 0.0372 0.47049 0.11164 0.14885 0.0744 0.30036 0.18075 0.45454 0.31897 0.0797-0.0585 0.14885-0.10898 0.20733-0.15151 0.0585-0.0425 0.0984-0.0718 0.11961-0.0877v0.008c0.0319-0.0213 0.0532-0.0346 0.0638-0.0399l0.016-0.008 0.016-0.0159c0.005-0.005 0.0292-0.016 0.0718-0.0319 0.0957-0.0532 0.20999-0.12227 0.3429-0.20733 0.0904 0.14354 0.20999 0.26581 0.35885 0.36682 0.15416 0.10632 0.31099 0.1648 0.47048 0.17544 0.0691-0.0319 0.12493-0.0611 0.16746-0.0877 0.0478-0.0213 0.0877-0.0372 0.11962-0.0478 0.38276-0.17543 0.76553-0.26315 1.1483-0.26315h0.016c0.0159 0.005 0.0718 0.008 0.16746 0.008-0.0585-0.0851-0.0877-0.13024-0.0877-0.13556-0.0532-0.0744-0.0798-0.15151-0.0797-0.23126v-1.9378c0.20733-0.12227 0.32163-0.30302 0.3429-0.54225l-0.0399-0.0319"/>
   <path style="" d="m200.87 414.6-0.21531 0.0159c-0.0957 0.15417-0.22062 0.23126-0.37479 0.23125-0.14886 0.00001-0.30835-0.0983-0.47846-0.29505-0.19139 0.19139-0.29771 0.2924-0.31898 0.30303-0.22859 0.12227-0.46517 0.18341-0.70971 0.18341-0.0478 0-0.0744-0.003-0.0797-0.008-0.14886 0.00001-0.24189-0.0106-0.27911-0.0319-0.0585 0-0.11429-0.0239-0.16746-0.0718v0.0718c0 0.0213 0.005 0.0372 0.016 0.0478v0.008l0.0239 0.0558c-0.00001 0.0213 0.003 0.0345 0.008 0.0399v-0.008 0.016c0.005 0.00001 0.008 0.003 0.008 0.008l0.008 1.3875-0.008 0.0159c0 0.0691-0.0239 0.13556-0.0718 0.19936l0.008-0.0239-0.0558 0.0558 0.5263 0.0239-0.0877 0.0877c-0.0213 0.0266-0.0399 0.0478-0.0558 0.0638l-0.0319 0.0319c-0.18075 0.22328-0.32429 0.43327-0.43061 0.62997-0.10633 0.19138-0.18076 0.38011-0.22329 0.56618h0.23126c0.0957-0.23392 0.26581-0.35087 0.51036-0.35087 0.0585 0 0.10366 0.008 0.13556 0.0239 0.0479 0 0.0904 0.008 0.12759 0.0239 0.0372 0.0213 0.0771 0.0505 0.11962 0.0877l0.23125 0.23126c0.26049-0.27645 0.59276-0.41467 0.99679-0.41467h0.0478c0.0159 0.005 0.0638 0.008 0.14354 0.008 0.0266 0.016 0.0611 0.0266 0.10366 0.0319h0.15949c0.0106 0 0.0186 0.003 0.0239 0.008h-0.008c0.0106 0.005 0.0452 0.008 0.10366 0.008l-0.0319-0.0638c-0.016-0.0266-0.0319-0.0532-0.0479-0.0797-0.016-0.0266-0.0186-0.0346-0.008-0.0239l0.008 0.016c-0.005-0.0266-0.008-0.0399-0.008-0.0399-0.00001-0.005-0.003-0.0106-0.008-0.0159v0.008l-0.008-0.016v-0.0239c-0.005-0.005-0.008-0.0133-0.008-0.0239v-1.3556c0 0.005 0.003-0.003 0.008-0.0239 0.005-0.0266 0.0106-0.0479 0.016-0.0638v0.008c-0.00001-0.005-0.00001-0.0106 0-0.0159 0.005-0.005 0.008-0.0133 0.008-0.0239l0.008-0.016v-0.0159l0.016-0.016v-0.0159l0.008-0.008c-0.00001-0.016 0.003-0.0292 0.008-0.0399v-0.0319c0.005-0.0159 0.008-0.0266 0.008-0.0319l-0.74959 0.016c0.44656-0.45719 0.73895-0.89844 0.87718-1.3237l-0.0319-0.0399m-1.0048 2.9425h-0.0319c-0.0266 0.0106-0.0479 0.0186-0.0638 0.0239h-0.016l-0.0319 0.016c-0.1967-0.24455-0.43327-0.36682-0.70971-0.36682-0.0266 0-0.0638 0.005-0.11164 0.016-0.0478 0.005-0.10367 0.0133-0.16746 0.0239 0.0691-0.0691 0.12759-0.13025 0.17543-0.18341 0.0479-0.0585 0.0904-0.10632 0.12759-0.14354l0.41467-0.41466h0.40669l0.016 0.0159v1.0048l-0.008 0.008m-0.12759-1.6985c-0.12227 0.12228-0.22328 0.22063-0.30302 0.29506-0.0744 0.0744-0.13291 0.12493-0.17544 0.15151h-0.0877v-1.0048c0.0266 0 0.0558-0.008 0.0877-0.0239h0.0319c0.005-0.005 0.0159-0.0106 0.0319-0.0159 0.1967 0.15417 0.37213 0.23126 0.5263 0.23126 0.10101 0 0.1967-0.0186 0.28708-0.0558-0.0851 0.0904-0.21797 0.23125-0.39872 0.42263"/>
  </g>
  <path style="enable-background:new" d="m184.65 413.86h25" stroke="#646464" stroke-linecap="square" fill="none"/>
  <path style="enable-background:new" d="m202.65 415.86h7" stroke="#787878" stroke-linecap="square" fill="none"/>
  <path style="enable-background:new" d="m184.64 415.86h7" stroke="#787878" stroke-linecap="square" fill="none"/>
  <path style="enable-background:new" d="m185.14 411.36h24" stroke="#646464" stroke-linecap="square" stroke-width="2" fill="none"/>
  <path style="enable-background:new" d="m202.65 417.86h7" stroke="#787878" stroke-linecap="square" fill="none"/>
  <path style="enable-background:new" d="m202.65 419.86h7" stroke="#787878" stroke-linecap="square" fill="none"/>
  <path style="enable-background:new" d="m202.65 421.86h7" stroke="#787878" stroke-linecap="square" fill="none"/>
  <path style="enable-background:new" d="m202.65 423.86h7" stroke="#787878" stroke-linecap="square" fill="none"/>
  <path style="enable-background:new" d="m184.64 417.86h6.9997" stroke="#787878" stroke-linecap="square" fill="none"/>
  <path style="enable-background:new" d="m184.64 419.86h6.9997" stroke="#787878" stroke-linecap="square" fill="none"/>
  <path style="enable-background:new" d="m184.64 421.86h6.9997" stroke="#787878" stroke-linecap="square" fill="none"/>
  <path style="enable-background:new" d="m184.64 423.86h6.9997" stroke="#787878" stroke-linecap="square" fill="none"/>
  <path d="m193.54 415.53v1.2899c3.3154 0.0618 5.9943 2.7425 6.0552 6.061h1.3018c-0.0616-4.0366-3.3241-7.2895-7.357-7.3509zm0 2.9745v1.1662c1.7499 0.0609 3.1552 1.4587 3.2161 3.2101h1.1663c-0.0614-2.3972-1.9873-4.315-4.3824-4.3764zm0.76575 2.9451c-0.20521 0.00001-0.36444 0.0757-0.50658 0.21794-0.14231 0.13992-0.21204 0.28937-0.21204 0.49477 0 0.20219 0.0701 0.36125 0.21204 0.50067 0.14142 0.13901 0.29978 0.20615 0.50658 0.20615 0.20037 0 0.34965-0.0668 0.48889-0.20615 0.14257-0.14272 0.21794-0.30171 0.21794-0.50067 0-0.2054-0.0757-0.35485-0.21794-0.49477-0.13998-0.14264-0.29014-0.21793-0.48889-0.21794z" stroke="#646464" stroke-width="0.33" fill="#646464"/>
  <g style="enable-background:new" transform="matrix(.26359 0 0 .26359 180.88 414.71)">
   <path opacity=".4" d="m73.25 4.625a10.625 3.625 0 1 1 -21.25 0 10.625 3.625 0 1 1 21.25 0z" fill-rule="evenodd" transform="matrix(2.1647 0 0 2.5637 -111.56 26.85)" fill="url(#c)"/>
   <path d="m43.5 23.999c0 10.77-8.731 19.501-19.5 19.501s-19.5-8.731-19.5-19.501c0-10.769 8.731-19.499 19.5-19.499s19.5 8.7299 19.5 19.499z" stroke="url(#g)" stroke-width="3.7938" fill="url(#b)"/>
   <path opacity=".4" d="m24.33 5.2182-2.3623 0.27046-2.5986 0.70995c0.22135-0.077615 0.4456-0.16234 0.67496-0.23665l-0.304-0.541-1.012 0.1691-0.507 0.4733-0.776 0.1014-0.709 0.3381-0.337 0.169-0.101 0.1352-0.507 0.1014-0.303 0.6424-0.405-0.8114-0.13499 0.33807 0.0675 0.91279-0.64121 0.54091-0.37122 0.98041h0.7762l0.30373-0.64234 0.10124-0.23665c0.34129-0.24178 0.66483-0.51103 1.0124-0.74376l0.80995 0.27046c0.52734 0.3589 1.0584 0.72347 1.5861 1.0818l0.777-0.7099-0.878-0.3719-0.405-0.8114-1.485-0.169-0.033-0.169 0.641 0.1352 0.371-0.3719 0.81-0.169c0.192-0.0934 0.38-0.1607 0.574-0.2367l-0.50622 0.4733 1.8224 1.2509v0.74376l-0.7087 0.70995 0.94494 1.8932 0.64121-0.37188 0.80995-1.2509c1.1387-0.35268 2.165-0.76307 3.2398-1.2509l-0.0675 0.4733 0.53996 0.37188 0.94494-0.64233-0.47247-0.54091-0.64121 0.37188-0.20249-0.067613c0.04651-0.02129 0.08828-0.045973 0.13499-0.067613l0.944-2.4341-2.058-0.8114zm-9.2469 3.6512 0.7762 0.54091h0.64121v-0.64233l-0.776-0.3381-0.641 0.4394zm17.92-0.4395-1.384 0.338-0.877 0.5747v0.50711l-1.3837 0.87898 0.26998 1.3185 0.80995-0.57472 0.50622 0.57472 0.57371 0.33807 0.37122-0.98041-0.20249-0.57472 0.20249-0.40569 0.80995-0.74375h0.37122l-0.37122 0.81137v0.74375c0.33384-0.09103 0.6708-0.12648 1.0124-0.16904l-0.94494 0.67614-0.0675 0.40568-1.0799 0.91279-1.1137-0.27046v-0.64234l-0.50622 0.33807 0.23624 0.57472h-0.80995l-0.43872 0.74376-0.53996 0.60853-0.97868 0.20284 0.57371 0.57472 0.13499 0.57472h-0.7087l-0.94494 0.50711v1.4875h0.43872l0.40497 0.43949 0.91119-0.43949 0.33748-0.91279 0.67496-0.40568 0.13499-0.33807 1.0799-0.27046 0.60746 0.67614 0.64121 0.33807-0.37123 0.74376 0.57372-0.16904 0.30373-0.74376-0.74245-0.84518h0.30373l0.74245 0.60853 0.13499 0.81137 0.64121 0.74376 0.16874-1.0818 0.33748-0.16904c0.35922 0.37357 0.64238 0.83043 0.94494 1.2509l1.1137 0.06762 0.64121 0.40569-0.30373 0.43949-0.64121 0.57472h-0.94494l-1.2487-0.40568-0.64121 0.06762-0.47247 0.54092-1.3499-1.3523-0.94494-0.27046-1.3837 0.16904-1.2149 0.33807c-0.69306 0.7871-1.4026 1.5829-2.0586 2.4003l-0.7762 1.8932 0.37123 0.40569-0.67496 0.98041 0.74245 1.7242c0.6178 0.70009 1.2392 1.3955 1.8561 2.096l0.91119-0.77756 0.37123 0.4733 0.97869-0.64234 0.33748 0.37188h0.97868l0.57371 0.64234-0.33748 1.1494 0.67496 0.77756-0.03375 1.3523 0.50622 0.98041-0.37122 0.84518c-0.03619 0.60617-0.0675 1.1855-0.0675 1.7918 0.29776 0.82134 0.59628 1.6407 0.87744 2.4679l0.20249 1.3185v0.67614h0.53996l0.7762-0.50711h0.94494l1.4174-1.5889-0.16874-0.54092 0.94494-0.84518-0.7087-0.77756 0.84369-0.67614 0.80995-0.50711 0.37122-0.40568-0.23623-0.91279c0-0.76848 0.000002-1.5303 0-2.2989l0.64121-1.4199 0.80994-0.87898 0.87744-2.1637v-0.57472c-0.43664 0.0551-0.85517 0.10478-1.2824 0.13523l0.87744-0.87899 1.2149-0.81137 0.64121-0.74376v-0.81137c-0.146-0.274-0.293-0.57-0.439-0.844l-0.57371 0.67614-0.43872-0.5071-0.64121-0.50711v-1.048l0.74245 0.84518 0.8437-0.10142c0.38062 0.34614 0.74609 0.65392 1.0799 1.048l0.53998-0.60854c0-0.65513-0.73657-3.8893-2.3286-6.6262-1.592-2.736-4.3872-5.2401-4.3872-5.2401l-0.20249 0.37188-0.74245 0.81137-0.94494-0.98041h0.94494l0.438-0.4738-1.755-0.3381-0.911-0.338zm-20.283 0.4394-0.337 0.879s-0.59084 0.097717-0.74245 0.13523c-1.9362 1.7873-5.8407 5.6642-6.7496 12.948 0.035987 0.16888 0.64121 1.1494 0.64121 1.1494l1.4849 0.87899 1.4849 0.40568 0.64121 0.77756 0.97869 0.74376 0.57371-0.10142 0.40497 0.20284v0.13523l-0.53996 1.5213-0.43872 0.64234 0.13499 0.30426-0.33748 1.2171 1.2487 2.2989 1.2824 1.1156 0.57371 0.81137-0.0675 1.6904 0.40497 0.9466-0.40497 1.8256s-0.05404-0.01501 0 0.16904c0.05452 0.18413 2.2559 1.4228 2.3961 1.3185 0.13968-0.1063 0.26998-0.20284 0.26998-0.20284l-0.13499-0.40568 0.57371-0.54091 0.20249-0.57472 0.91119-0.30426 0.7087-1.758-0.20249-0.4733 0.47247-0.74376 1.0799-0.23665 0.53996-1.2847-0.13499-1.5889 0.8437-1.1832 0.13499-1.2171c-1.1576-0.57505-2.2933-1.1659-3.4423-1.758l-0.57371-1.1156-1.0462-0.23665-0.57371-1.5213-1.3837 0.16904-1.2149-0.87898-1.2824 1.1156v0.16904c-0.385-0.11-0.84-0.127-1.1817-0.337l-0.26998-0.81137v-0.87898l-0.87744 0.10142c0.070612-0.55989 0.16513-1.1306 0.23623-1.6904h-0.50622l-0.50622 0.64234-0.47247 0.23665-0.7087-0.40568-0.067496-0.87898 0.13499-0.9466 1.0462-0.81137h0.84369l0.16874-0.4733 1.0462 0.23665 0.7762 0.98041 0.13499-1.6227 1.3499-1.1156 0.47247-1.1832 1.0124-0.40568 0.53996-0.81137 1.2824-0.23665 0.64121-0.9466h-1.9236l1.2149-0.57472h0.84369l1.0799-0.37188 0.20249 1.048 0.47247-0.74376-0.53997-0.37188 0.13499-0.43949-0.43872-0.40569-0.47247-0.13523 0.13499-0.50711-0.37123-0.70995-0.8437 0.33807 0.13499-0.64233-0.97869-0.57472-0.7762 1.3523 0.0675 0.4733-0.7762 0.33807-0.47247 1.048-0.23623-0.98041-1.3162-0.54091-0.23623-0.74376 1.7886-1.0142 0.7762-0.74376 0.0675-0.87898-0.43872-0.23665-0.57371-0.067613zm14.478 1.6227v0.54091l0.30373 0.33807v0.81137l-0.16874 1.0818 0.87744-0.16904 0.64121-0.64233-0.57371-0.54092c-0.18605-0.49631-0.3746-0.94387-0.60746-1.4199h-0.47247zm-0.74245 1.0818-0.53996 0.16904 0.13499 0.9804 0.7087-0.37188-0.30373-0.77756zm9.8881 8.8913 0.80995 0.9466 0.97869 2.096 0.60746 0.67614-0.30373 0.70995 0.53996 0.64234c-0.24779 0.01643-0.48776 0.03381-0.74245 0.03381-0.46267-0.97394-0.82884-1.9561-1.1812-2.975l-0.60746-0.67614-0.33748-1.2171 0.23624-0.23665z"/>
   <path opacity=".4" d="m41.146 23.999c0 9.4697-7.677 17.146-17.146 17.146-9.4695 0-17.146-7.6768-17.146-17.146s7.6766-17.145 17.146-17.145c9.4686 0 17.146 7.676 17.146 17.145z" stroke="url(#f)" stroke-width="3.7938" fill="none"/>
  </g>
 </g>
</svg>
