<?xml version="1.0" encoding="UTF-8" standalone="no"?>
<svg xmlns:rdf="http://www.w3.org/1999/02/22-rdf-syntax-ns#" xmlns="http://www.w3.org/2000/svg" height="32" width="32" version="1.1" xmlns:cc="http://creativecommons.org/ns#" xmlns:xlink="http://www.w3.org/1999/xlink" xmlns:dc="http://purl.org/dc/elements/1.1/">
 <defs>
  <linearGradient id="c" y2="29.265" gradientUnits="userSpaceOnUse" x2="15" y1="2" x1="15">
   <stop stop-color="#fff" offset="0"/>
   <stop stop-color="#fff" stop-opacity=".23529" offset=".50776"/>
   <stop stop-color="#fff" stop-opacity=".15686" offset=".83457"/>
   <stop stop-color="#fff" stop-opacity=".39216" offset="1"/>
  </linearGradient>
  <radialGradient id="b" gradientUnits="userSpaceOnUse" cy="2.5129" cx="11.786" gradientTransform="matrix(1.3136e-8 2.2497 -2.0667 1.2068e-8 21.193 -29.514)" r="15">
   <stop stop-color="#90dbec" offset="0"/>
   <stop stop-color="#42baea" offset=".26238"/>
   <stop stop-color="#3689e6" offset=".70495"/>
   <stop stop-color="#2b63a0" offset="1"/>
  </radialGradient>
  <radialGradient id="a" gradientUnits="userSpaceOnUse" cy="186.17" cx="99.157" gradientTransform="matrix(.17525 0 0 .063726 -1.3768 14.136)" r="62.769">
   <stop stop-color="#3d3d3d" offset="0"/>
   <stop stop-color="#686868" stop-opacity=".49804" offset=".5"/>
   <stop stop-color="#686868" stop-opacity="0" offset="1"/>
  </radialGradient>
 </defs>
 <path fill="url(#a)" d="m27 26a11 4 0 0 1 -22 0 11 4 0 1 1 22 0z"/>
 <path d="m16 1.5059c-8.0321 0-14.5 6.0575-14.5 13.5 0.0072 4.231 2.1423 8.216 5.7871 10.767l0.2129 0.151v4.232l4.17-2.273 0.195 0.055c1.342 0.374 2.734 0.566 4.135 0.568 8.032 0 14.5-6.058 14.5-13.5 0-7.4426-6.468-13.5-14.5-13.5z" fill="url(#b)"/>
 <path opacity=".05" stroke-linejoin="round" d="m17.491 20.793-3.8199-4.0994-7.4534 4.0994 8.1988-8.7578 3.913 4.0994 7.3602-4.0994-8.1988 8.7578z" stroke="#00537d" stroke-width="2"/>
 <path opacity=".15" d="m17.491 20.793-3.82-4.099-7.4536 4.099 8.1986-8.758 3.913 4.1 7.36-4.1-8.198 8.758z"/>
 <path fill="#fff" d="m17.491 19.793-3.8199-4.0994-7.4534 4.0994 8.1988-8.7578 3.913 4.0994 7.3602-4.0994-8.1988 8.7578z"/>
 <path opacity=".5" d="m16 2.5059c-7.5286 0-13.499 5.6359-13.5 12.498v0.002c0.0073 3.895 1.9676 7.573 5.3613 9.949h0.002l0.6367 0.451v3.067l3.049-1.662 0.586 0.164c1.254 0.349 2.556 0.529 3.867 0.531 7.528-0.001 13.498-5.638 13.498-12.5 0-6.8632-5.971-12.5-13.5-12.5z" stroke="url(#c)" stroke-linecap="round" fill="none"/>
 <path opacity=".5" d="m16 1.5059c-8.0321 0-14.5 6.0575-14.5 13.5 0.0072 4.231 2.1423 8.216 5.7871 10.767l0.2129 0.151v4.232l4.17-2.273 0.195 0.055c1.342 0.374 2.734 0.566 4.135 0.568 8.032 0 14.5-6.058 14.5-13.5 0-7.4426-6.468-13.5-14.5-13.5z" stroke="#00537d" stroke-linecap="round" fill="none"/>
</svg>
