<?xml version="1.0" encoding="UTF-8" standalone="no"?>
<!-- Created with Inkscape (http://www.inkscape.org/) -->

<svg
   xmlns:dc="http://purl.org/dc/elements/1.1/"
   xmlns:cc="http://creativecommons.org/ns#"
   xmlns:rdf="http://www.w3.org/1999/02/22-rdf-syntax-ns#"
   xmlns:svg="http://www.w3.org/2000/svg"
   xmlns="http://www.w3.org/2000/svg"
   xmlns:xlink="http://www.w3.org/1999/xlink"
   xmlns:sodipodi="http://sodipodi.sourceforge.net/DTD/sodipodi-0.dtd"
   xmlns:inkscape="http://www.inkscape.org/namespaces/inkscape"
   version="1.1"
   width="32"
   height="32"
   id="svg4505"
   inkscape:version="0.91 r"
   sodipodi:docname="obs.svg">
  <sodipodi:namedview
     pagecolor="#ffffff"
     bordercolor="#666666"
     borderopacity="1"
     objecttolerance="10"
     gridtolerance="10"
     guidetolerance="10"
     inkscape:pageopacity="0"
     inkscape:pageshadow="2"
     inkscape:window-width="1920"
     inkscape:window-height="1025"
     id="namedview54"
     showgrid="false"
     inkscape:zoom="4"
     inkscape:cx="36.041902"
     inkscape:cy="24.065769"
     inkscape:window-x="0"
     inkscape:window-y="30"
     inkscape:window-maximized="1"
     inkscape:current-layer="svg4505" />
  <defs
     id="defs4507">
    <linearGradient
       x1="71.204407"
       y1="15.369057"
       x2="71.204407"
       y2="40.495617"
       id="linearGradient4456"
       xlink:href="#linearGradient4806-9"
       gradientUnits="userSpaceOnUse"
       gradientTransform="matrix(1.1022033,0,0,1.1022038,-111.2554,-14.715001)" />
    <linearGradient
       id="linearGradient4806-9">
      <stop
         id="stop4808-49"
         style="stop-color:#ffffff;stop-opacity:1"
         offset="0" />
      <stop
         id="stop4810-05"
         style="stop-color:#ffffff;stop-opacity:0.23529412"
         offset="0.42447853" />
      <stop
         id="stop4812-6"
         style="stop-color:#ffffff;stop-opacity:0.15686275"
         offset="0.82089913" />
      <stop
         id="stop4814-7"
         style="stop-color:#ffffff;stop-opacity:0.39215687"
         offset="1" />
    </linearGradient>
    <radialGradient
       cx="18.164446"
       cy="8.449769"
       r="19.99999"
       fx="8.894803"
       fy="8.5985041"
       id="radialGradient3126-7-25-1"
       xlink:href="#linearGradient3242-7-3-8-9-94"
       gradientUnits="userSpaceOnUse"
       gradientTransform="matrix(0,0.97674024,-0.9227132,-1.1278942e-8,-23.90585,-1.8504794)" />
    <linearGradient
       id="linearGradient3242-7-3-8-9-94">
      <stop
         id="stop3244-5-8-5-3-7"
         style="stop-color:#eef87e;stop-opacity:1"
         offset="0" />
      <stop
         id="stop3246-9-5-1-2-9"
         style="stop-color:#cde34f;stop-opacity:1"
         offset="0.26238" />
      <stop
         id="stop3248-7-2-0-84-9"
         style="stop-color:#93b723;stop-opacity:1"
         offset="0.66093999" />
      <stop
         id="stop3250-8-2-8-3-2"
         style="stop-color:#5a7e0d;stop-opacity:1"
         offset="1" />
    </linearGradient>
    <linearGradient
       x1="-1085.9586"
       y1="539.40955"
       x2="-474.68497"
       y2="375.61926"
       id="linearGradient3510"
       xlink:href="#XMLID_2_-8-6-1-2"
       gradientUnits="userSpaceOnUse"
       gradientTransform="matrix(0.04972374,0,0,0.04180683,10.91005,-2.4805984)" />
    <radialGradient
       cx="299.44821"
       cy="-290.5918"
       r="17.1528"
       fx="297.44989"
       fy="-289.9133"
       id="XMLID_2_-8-6-1-2"
       gradientUnits="userSpaceOnUse"
       gradientTransform="matrix(0.8232,0.2312,0.2703,-0.9626,-96.2274,-315.3433)">
      <stop
         id="stop228-2-7-9-0"
         style="stop-color:#000000;stop-opacity:1"
         offset="0" />
      <stop
         id="stop230-7-5-7-7"
         style="stop-color:#000000;stop-opacity:0"
         offset="1" />
    </radialGradient>
    <radialGradient
       cx="15.645058"
       cy="8.449769"
       r="19.99999"
       fx="-12.360565"
       fy="8.4497719"
       id="radialGradient3126-9"
       xlink:href="#linearGradient2867-449-88-871-390-598-476-591-434-148-57-177-3-8-7"
       gradientUnits="userSpaceOnUse"
       gradientTransform="matrix(-4.7487871e-8,0.78038851,-0.73523897,-5.3752024e-8,-25.48997,1.6839966)" />
    <linearGradient
       id="linearGradient2867-449-88-871-390-598-476-591-434-148-57-177-3-8-7">
      <stop
         id="stop3750-8-9-6"
         style="stop-color:#bebebe;stop-opacity:1;"
         offset="0" />
      <stop
         id="stop3752-3-2-2"
         style="stop-color:#969696;stop-opacity:1;"
         offset="0.26238" />
      <stop
         id="stop3754-7-2-00"
         style="stop-color:#8e8e8e;stop-opacity:1;"
         offset="0.704952" />
      <stop
         id="stop3756-9-3-69"
         style="stop-color:#666666;stop-opacity:1;"
         offset="1" />
    </linearGradient>
    <linearGradient
       id="linearGradient3820-7-2-2">
      <stop
         id="stop3822-2-6-36"
         style="stop-color:#3d3d3d;stop-opacity:1"
         offset="0" />
      <stop
         id="stop3864-8-7-6"
         style="stop-color:#686868;stop-opacity:0.49803922"
         offset="0.5" />
      <stop
         id="stop3824-1-2-4"
         style="stop-color:#686868;stop-opacity:0"
         offset="1" />
    </linearGradient>
    <radialGradient
       cx="99.157013"
       cy="186.17059"
       r="62.769119"
       fx="99.157013"
       fy="186.17059"
       id="radialGradient4503"
       xlink:href="#linearGradient3820-7-2-2"
       gradientUnits="userSpaceOnUse"
       gradientTransform="matrix(1,0,0,0.1666667,0,155.14216)" />
    <radialGradient
       cx="99.157013"
       cy="186.17059"
       r="62.769119"
       fx="99.157013"
       fy="186.17059"
       id="radialGradient4600"
       xlink:href="#linearGradient3820-7-2-2"
       gradientUnits="userSpaceOnUse"
       gradientTransform="matrix(1,0,0,0.1666667,0,155.14216)" />
    <radialGradient
       cx="15.645058"
       cy="8.449769"
       r="19.99999"
       fx="-12.360565"
       fy="8.4497719"
       id="radialGradient4602"
       xlink:href="#linearGradient2867-449-88-871-390-598-476-591-434-148-57-177-3-8-7"
       gradientUnits="userSpaceOnUse"
       gradientTransform="matrix(-4.7487871e-8,0.78038851,-0.73523897,-5.3752024e-8,-25.48997,1.6839966)" />
    <linearGradient
       x1="-1085.9586"
       y1="539.40955"
       x2="-474.68497"
       y2="375.61926"
       id="linearGradient4604"
       xlink:href="#XMLID_2_-8-6-1-2"
       gradientUnits="userSpaceOnUse"
       gradientTransform="matrix(0.04972374,0,0,0.04180683,10.91005,-2.4805984)" />
    <radialGradient
       cx="18.164446"
       cy="8.449769"
       r="19.99999"
       fx="8.894803"
       fy="8.5985041"
       id="radialGradient4606"
       xlink:href="#linearGradient3242-7-3-8-9-94"
       gradientUnits="userSpaceOnUse"
       gradientTransform="matrix(0,0.97674024,-0.9227132,-1.1278942e-8,-23.90585,-1.8504794)" />
    <linearGradient
       x1="71.204407"
       y1="15.369057"
       x2="71.204407"
       y2="40.495617"
       id="linearGradient4608"
       xlink:href="#linearGradient4806-9"
       gradientUnits="userSpaceOnUse"
       gradientTransform="matrix(1.1022033,0,0,1.1022038,-111.2554,-14.715001)" />
    <linearGradient
       x1="71.204407"
       y1="15.369057"
       x2="71.204407"
       y2="40.495617"
       id="linearGradient4611"
       xlink:href="#linearGradient4806-9"
       gradientUnits="userSpaceOnUse"
       gradientTransform="matrix(1.1022033,0,0,1.1022038,-63.55275,-14.715001)" />
    <radialGradient
       cx="18.164446"
       cy="8.449769"
       r="19.99999"
       fx="8.894803"
       fy="8.5985041"
       id="radialGradient4615"
       xlink:href="#linearGradient3242-7-3-8-9-94"
       gradientUnits="userSpaceOnUse"
       gradientTransform="matrix(0,0.97674024,-0.9227132,-1.1278942e-8,23.7968,-1.8504794)" />
    <linearGradient
       x1="-1085.9586"
       y1="539.40955"
       x2="-474.68497"
       y2="375.61926"
       id="linearGradient4618"
       xlink:href="#XMLID_2_-8-6-1-2"
       gradientUnits="userSpaceOnUse"
       gradientTransform="matrix(0.04972374,0,0,0.04180683,58.6127,-2.4805984)" />
    <radialGradient
       cx="15.645058"
       cy="8.449769"
       r="19.99999"
       fx="-12.360565"
       fy="8.4497719"
       id="radialGradient4623"
       xlink:href="#linearGradient2867-449-88-871-390-598-476-591-434-148-57-177-3-8-7"
       gradientUnits="userSpaceOnUse"
       gradientTransform="matrix(-4.7487871e-8,0.78038851,-0.73523897,-5.3752024e-8,22.21268,1.6839966)" />
    <linearGradient
       x1="71.204407"
       y1="15.369057"
       x2="71.204407"
       y2="40.495617"
       id="linearGradient3028"
       xlink:href="#linearGradient4806-9"
       gradientUnits="userSpaceOnUse"
       gradientTransform="matrix(1.1022033,0,0,1.1022038,-63.55275,-14.715001)" />
    <radialGradient
       cx="18.164446"
       cy="8.449769"
       r="19.99999"
       fx="8.894803"
       fy="8.5985041"
       id="radialGradient3032"
       xlink:href="#linearGradient3242-7-3-8-9-94"
       gradientUnits="userSpaceOnUse"
       gradientTransform="matrix(0,0.97674024,-0.9227132,-1.1278942e-8,23.7968,-1.8504794)" />
    <linearGradient
       x1="-1085.9586"
       y1="539.40955"
       x2="-474.68497"
       y2="375.61926"
       id="linearGradient3035"
       xlink:href="#XMLID_2_-8-6-1-2"
       gradientUnits="userSpaceOnUse"
       gradientTransform="matrix(0.04972374,0,0,0.04180683,58.6127,-2.4805984)" />
    <radialGradient
       cx="13.612841"
       cy="8.8453541"
       r="19.99999"
       fx="-2.0574305"
       fy="8.845355"
       id="radialGradient3040"
       xlink:href="#linearGradient2867-449-88-871-390-598-476-591-434-148-57-177-3-8-3"
       gradientUnits="userSpaceOnUse"
       gradientTransform="matrix(1.9536374e-8,0.78038851,-1.2369341,0,26.516254,1.6839961)" />
    <radialGradient
       cx="99.157013"
       cy="186.17059"
       r="62.769119"
       fx="99.157013"
       fy="186.17059"
       id="radialGradient3043"
       xlink:href="#linearGradient3820-7-2-2"
       gradientUnits="userSpaceOnUse"
       gradientTransform="matrix(0.17524541,0,0,0.05575992,-1.37681,18.119145)" />
    <radialGradient
       cx="99.157013"
       cy="186.17059"
       r="62.769119"
       fx="99.157013"
       fy="186.17059"
       id="radialGradient5015"
       xlink:href="#linearGradient3820-7-2-2"
       gradientUnits="userSpaceOnUse"
       gradientTransform="matrix(1,0,0,0.1666667,0,155.14216)" />
    <radialGradient
       cx="14.620222"
       cy="8.449769"
       r="19.99999"
       fx="-1.2481827"
       fy="8.44977"
       id="radialGradient5007"
       xlink:href="#linearGradient2867-449-88-871-390-598-476-591-434-148-57-177-3-8-3"
       gradientUnits="userSpaceOnUse"
       gradientTransform="matrix(0,1.7300598,-2.444984,-6.4786807e-8,52.659722,0.79281466)" />
    <linearGradient
       id="linearGradient2867-449-88-871-390-598-476-591-434-148-57-177-3-8-3">
      <stop
         id="stop3750-8-9-0"
         style="stop-color:#969696;stop-opacity:1"
         offset="0" />
      <stop
         id="stop3752-3-2-1"
         style="stop-color:#646464;stop-opacity:1"
         offset="0.26238" />
      <stop
         id="stop3754-7-2-2"
         style="stop-color:#323232;stop-opacity:1"
         offset="0.704952" />
      <stop
         id="stop3756-9-3-4"
         style="stop-color:#000000;stop-opacity:1"
         offset="1" />
    </linearGradient>
  </defs>
  <metadata
     id="metadata4510">
    <rdf:RDF>
      <cc:Work
         rdf:about="">
        <dc:format>image/svg+xml</dc:format>
        <dc:type
           rdf:resource="http://purl.org/dc/dcmitype/StillImage" />
        <dc:title></dc:title>
      </cc:Work>
    </rdf:RDF>
  </metadata>
  <g
     id="g4235">
    <g
       id="g3805">
      <path
         d="m 27.000001,28.499999 a 11,3.4999999 0 1 1 -21.9999996,0 11,3.4999999 0 1 1 21.9999996,0 z"
         inkscape:connector-curvature="0"
         id="path3818-0-2"
         style="fill:url(#radialGradient3043);fill-opacity:1;stroke:none" />
      <path
         d="m 16,1.4999996 c -8.0006,0 -14.5,6.499399 -14.5,14.4999994 C 1.5,24.0006 7.9994,30.500003 16,30.5 24.0006,30.5 30.50001,24.0006 30.5,15.999999 30.5,7.9993986 24.0006,1.4999996 16,1.4999996 z"
         inkscape:connector-curvature="0"
         id="path2555-7-66"
         style="color:#000000;fill:url(#radialGradient3040);fill-opacity:1;fill-rule:nonzero;stroke:none;stroke-width:1;marker:none;visibility:visible;display:inline;overflow:visible;enable-background:accumulate" />
      <path
         d="m 16,1.4999996 c -8.0006,0 -14.5,6.499399 -14.5,14.4999994 C 1.5,24.0006 7.9994,30.500003 16,30.5 24.0006,30.5 30.50001,24.0006 30.5,15.999999 30.5,7.9993986 24.0006,1.4999996 16,1.4999996 z"
         inkscape:connector-curvature="0"
         id="path2555-7-1-7"
         style="opacity:0.7;color:#000000;fill:none;stroke:#000000;stroke-width:0.99999994;stroke-linecap:round;stroke-linejoin:round;stroke-miterlimit:4;stroke-opacity:1;stroke-dasharray:none;stroke-dashoffset:0;marker:none;visibility:visible;display:inline;overflow:visible;enable-background:accumulate" />
      <path
         sodipodi:type="arc"
         style="opacity:0.3;fill:none;stroke:#ffffff;stroke-width:1;stroke-miterlimit:4;stroke-opacity:1;stroke-dasharray:none"
         id="path3035"
         sodipodi:cx="11.384629"
         sodipodi:cy="9.9830513"
         sodipodi:rx="13.508475"
         sodipodi:ry="13.508475"
         d="m 24.893105,9.9830513 a 13.508475,13.508475 0 1 1 -27.0169511,0 13.508475,13.508475 0 1 1 27.0169511,0 z"
         transform="translate(4.6153708,6.0169487)" />
    </g>
    <path
       sodipodi:nodetypes="ccssssssccssscccsssccsssssssc"
       inkscape:connector-curvature="0"
       id="path4138"
       d="m 15.128531,1.8959043 c -0.843413,0.045637 -1.349684,0.1012054 -2.04751,0.4076668 -2.946611,1.2943071 -4.7795648,3.9161961 -4.9503704,7.0808451 -0.065955,1.2221508 0.1253232,2.4144948 0.536704,3.3444828 0.2318662,0.524162 0.2439617,0.532122 0.800098,0.534133 2.8250674,0.01018 5.4966554,2.061729 6.1996174,4.760578 0.235004,0.902255 0.231217,2.538159 -0.0076,3.351091 -0.695994,2.368083 -2.575116,4.132809 -4.932749,4.632274 -2.6045994,0.551782 -5.1405267,-0.487889 -6.6553746,-2.652494 0.4485303,0.764951 0.8335177,1.279864 1.4968582,1.82009 0.828856,0.67491 2.2755091,1.39528 3.3441168,1.665357 0.5732629,0.144891 1.1066556,0.178668 2.1732416,0.137664 1.200494,-0.04615 1.555718,-0.107372 2.357345,-0.406932 1.445058,-0.54 2.746744,-1.451513 3.585852,-2.510978 l 0.376072,-0.474845 -0.421615,-0.903438 c -0.527142,-1.130116 -0.659908,-1.711542 -0.663536,-2.905428 -0.0073,-2.400055 1.255874,-4.500808 3.373666,-5.61097 1.912695,-1.002649 3.970005,-1.012961 5.967977,-0.02992 2.785965,1.370746 4.175771,4.789211 3.229945,7.653157 0.462938,-0.797202 0.534595,-1.598755 0.560015,-2.326325 0.05363,-1.524353 -0.168385,-2.62149 -0.788166,-3.8944 -1.066115,-2.189595 -3.187153,-3.875675 -5.489092,-4.363373 -1.11579,-0.236397 -1.124745,-0.234473 -1.443262,0.323048 -0.409666,0.717064 -1.371352,1.700246 -2.174895,2.223538 -0.997217,0.649417 -2.01215,0.940689 -3.300614,0.946939 -2.183077,0.01058 -4.04126,-0.923429 -5.273788,-2.650659 C 8.4714016,8.5295353 9.9779824,3.6166666 14.016251,2.1508546 14.420557,2.0040993 14.704256,1.9309956 15.128569,1.8959023 Z"
       style="fill:#f9f9f9;stroke:none" />
    <path
       style="fill:none;stroke:#ffffff;stroke-opacity:1;opacity:0.3"
       d="m 15.128531,1.8959043 c -0.843413,0.045637 -1.349684,0.1012054 -2.04751,0.4076668 -2.946611,1.2943071 -4.7795648,3.9161961 -4.9503704,7.0808451 -0.065955,1.2221508 0.1253232,2.4144948 0.536704,3.3444828 0.2318662,0.524162 0.2439617,0.532122 0.800098,0.534133 2.8250674,0.01018 5.4966554,2.061729 6.1996174,4.760578 0.235004,0.902255 0.231217,2.538159 -0.0076,3.351091 -0.695994,2.368083 -2.575116,4.132809 -4.932749,4.632274 -2.6045994,0.551782 -5.1405267,-0.487889 -6.6553746,-2.652494 0.4485303,0.764951 0.8335177,1.279864 1.4968582,1.82009 0.828856,0.67491 2.2755091,1.39528 3.3441168,1.665357 0.5732629,0.144891 1.1066556,0.178668 2.1732416,0.137664 1.200494,-0.04615 1.555718,-0.107372 2.357345,-0.406932 1.445058,-0.54 2.746744,-1.451513 3.585852,-2.510978 l 0.376072,-0.474845 -0.421615,-0.903438 c -0.527142,-1.130116 -0.659908,-1.711542 -0.663536,-2.905428 -0.0073,-2.400055 1.255874,-4.500808 3.373666,-5.61097 1.912695,-1.002649 3.970005,-1.012961 5.967977,-0.02992 2.785965,1.370746 4.175771,4.789211 3.229945,7.653157 0.462938,-0.797202 0.534595,-1.598755 0.560015,-2.326325 0.05363,-1.524353 -0.168385,-2.62149 -0.788166,-3.8944 -1.066115,-2.189595 -3.187153,-3.875675 -5.489092,-4.363373 -1.11579,-0.236397 -1.124745,-0.234473 -1.443262,0.323048 -0.409666,0.717064 -1.371352,1.700246 -2.174895,2.223538 -0.997217,0.649417 -2.01215,0.940689 -3.300614,0.946939 -2.183077,0.01058 -4.04126,-0.923429 -5.273788,-2.650659 C 8.4714016,8.5295353 9.9779824,3.6166666 14.016251,2.1508546 14.420557,2.0040993 14.704256,1.9309956 15.128569,1.8959023 Z"
       id="path4233"
       inkscape:connector-curvature="0"
       sodipodi:nodetypes="ccssssssccssscccsssccsssssssc" />
  </g>
</svg>
