<?xml version="1.0" encoding="UTF-8" standalone="no"?>
<!-- Created with Inkscape (http://www.inkscape.org/) -->

<svg
   xmlns:dc="http://purl.org/dc/elements/1.1/"
   xmlns:cc="http://creativecommons.org/ns#"
   xmlns:rdf="http://www.w3.org/1999/02/22-rdf-syntax-ns#"
   xmlns:svg="http://www.w3.org/2000/svg"
   xmlns="http://www.w3.org/2000/svg"
   xmlns:xlink="http://www.w3.org/1999/xlink"
   xmlns:sodipodi="http://sodipodi.sourceforge.net/DTD/sodipodi-0.dtd"
   xmlns:inkscape="http://www.inkscape.org/namespaces/inkscape"
   width="32px"
   height="32px"
   viewBox="0 0 32 32"
   id="SVGRoot"
   version="1.1"
   inkscape:version="0.91+devel r"
   sodipodi:docname="tweetdeck.svg">
  <sodipodi:namedview
     id="base"
     pagecolor="#ffffff"
     bordercolor="#666666"
     borderopacity="1.0"
     inkscape:pageopacity="0.0"
     inkscape:pageshadow="2"
     inkscape:zoom="8"
     inkscape:cx="13.309989"
     inkscape:cy="13.676847"
     inkscape:document-units="px"
     inkscape:current-layer="layer1"
     showgrid="false"
     inkscape:window-width="1920"
     inkscape:window-height="1025"
     inkscape:window-x="0"
     inkscape:window-y="30"
     inkscape:window-maximized="1"
     inkscape:grid-bbox="true" />
  <defs
     id="defs6565">
    <radialGradient
       inkscape:collect="always"
       xlink:href="#linearGradient8838-561-565"
       id="radialGradient4876"
       gradientUnits="userSpaceOnUse"
       gradientTransform="matrix(1.4431373,0,0,0.50196014,4.62352,46.589013)"
       cx="62.625"
       cy="4.625"
       fx="62.625"
       fy="4.625"
       r="10.625" />
    <linearGradient
       id="linearGradient8838-561-565">
      <stop
         offset="0"
         style="stop-color:#0a0a0a;stop-opacity:1"
         id="stop4621" />
      <stop
         offset="1"
         style="stop-color:#0a0a0a;stop-opacity:0"
         id="stop4623" />
    </linearGradient>
    <linearGradient
       inkscape:collect="always"
       xlink:href="#linearGradient4135-0"
       id="linearGradient4878"
       gradientUnits="userSpaceOnUse"
       gradientTransform="matrix(0.76116387,0,0,0.77316114,143.86326,16.050183)"
       x1="-63.855339"
       y1="9.0252333"
       x2="-63.855339"
       y2="48.431454" />
    <linearGradient
       id="linearGradient4135-0"
       inkscape:collect="always">
      <stop
         id="stop4137-0"
         offset="0"
         style="stop-color:#08b8fb;stop-opacity:1" />
      <stop
         id="stop4139-1"
         offset="1"
         style="stop-color:#007cff;stop-opacity:1" />
    </linearGradient>
    <linearGradient
       inkscape:collect="always"
       xlink:href="#linearGradient3924-1"
       id="linearGradient5158"
       x1="160.60162"
       y1="16.180195"
       x2="160.60162"
       y2="41.680233"
       gradientUnits="userSpaceOnUse"
       gradientTransform="translate(-64.9045,9.854293)" />
    <linearGradient
       id="linearGradient3924-1">
      <stop
         id="stop3926-3"
         style="stop-color:#ffffff;stop-opacity:1"
         offset="0" />
      <stop
         id="stop3928-91"
         style="stop-color:#ffffff;stop-opacity:0.23529412"
         offset="0.06316455" />
      <stop
         id="stop3930-6"
         style="stop-color:#ffffff;stop-opacity:0.15686275"
         offset="0.95056331" />
      <stop
         id="stop3932-6"
         style="stop-color:#ffffff;stop-opacity:0.39215687"
         offset="1" />
    </linearGradient>
  </defs>
  <metadata
     id="metadata6568">
    <rdf:RDF>
      <cc:Work
         rdf:about="">
        <dc:format>image/svg+xml</dc:format>
        <dc:type
           rdf:resource="http://purl.org/dc/dcmitype/StillImage" />
        <dc:title></dc:title>
      </cc:Work>
    </rdf:RDF>
  </metadata>
  <g
     id="layer1"
     inkscape:groupmode="layer"
     inkscape:label="Calque 1">
    <g
       transform="translate(-78.99998,-22.243913)"
       style="display:inline"
       id="g5048">
      <path
         d="m 110.33331,48.910583 c 0,2.94552 -6.86496,5.33333 -15.33333,5.33333 -8.46837,0 -15.33333,-2.38781 -15.33333,-5.33333 0,-2.94552 6.86496,-5.33333 15.33333,-5.33333 8.46837,0 15.33333,2.38781 15.33333,5.33333 l 0,0 z"
         inkscape:connector-curvature="0"
         id="path4854"
         style="display:inline;overflow:visible;visibility:visible;opacity:0.2;fill:url(#radialGradient4876);fill-opacity:1;fill-rule:evenodd;stroke:none;stroke-width:0.99999988;marker:none" />
      <path
         style="fill:url(#linearGradient4878);fill-opacity:1;stroke:none;stroke-width:0.99074632;stroke-linecap:round;stroke-linejoin:round;stroke-miterlimit:4;stroke-dasharray:none;stroke-opacity:1"
         d="m 83.76463,25.610503 c -0.97707,0 -1.76465,0.79999 -1.76465,1.79246 l 0,19.3834 c 0,0.99247 0.78758,1.79095 1.76465,1.79095 l 7.51799,0 3.79986,3.94584 3.73446,-3.94584 7.41839,0 c 0.97707,0 1.76465,-0.79848 1.76465,-1.79095 l 0,-19.3834 c 0,-0.99247 -0.78758,-1.79246 -1.76465,-1.79246 l -22.4707,0 z"
         id="path4858"
         inkscape:connector-curvature="0" />
      <path
         d="m 91.56577,45.718053 c -2.144886,0 -4.141298,-0.62876 -5.82215,-1.70638 0.297128,0.0351 0.599466,0.053 0.906039,0.053 1.779432,0 3.417115,-0.60723 4.716987,-1.62589 -1.66202,-0.0307 -3.064657,-1.12875 -3.547969,-2.63776 0.231898,0.0444 0.469823,0.0681 0.71458,0.0681 0.346351,0 0.681915,-0.0464 1.000624,-0.13319 -1.737503,-0.3489 -3.046712,-1.88403 -3.046712,-3.72431 0,-0.016 4.7e-5,-0.0319 3.18e-4,-0.0477 0.512118,0.28448 1.097755,0.45533 1.720337,0.47504 -1.019117,-0.6811 -1.689628,-1.84366 -1.689628,-3.16136 0,-0.69613 0.187247,-1.34852 0.514183,-1.90949 1.873313,2.29791 4.671916,3.81003 7.82851,3.96842 -0.06474,-0.27798 -0.09839,-0.56788 -0.09839,-0.86556 0,-2.09753 1.700604,-3.79811 3.798224,-3.79811 1.092385,0 2.079477,0.46129 2.772337,1.19947 0.86513,-0.17037 1.67799,-0.48647 2.41182,-0.92176 -0.28359,0.88696 -0.88579,1.6313 -1.67,2.10139 0.7683,-0.0918 1.5003,-0.29599 2.18145,-0.59807 -0.50922,0.76168 -1.15319,1.43065 -1.89522,1.96616 0.007,0.16286 0.011,0.32666 0.011,0.49135 0,5.0191 -3.820228,10.80667 -10.80631,10.80667"
         inkscape:connector-curvature="0"
         id="path4461"
         style="opacity:0.15;fill:#0b2228;fill-opacity:1;fill-rule:nonzero;stroke:#0b2228;stroke-width:2;stroke-linecap:round;stroke-linejoin:round;stroke-miterlimit:4;stroke-dasharray:none;stroke-opacity:1" />
      <path
         style="opacity:0.3;fill:#0b2228;fill-opacity:1;fill-rule:nonzero;stroke:none"
         id="path4459"
         inkscape:connector-curvature="0"
         d="m 91.56577,45.718053 c -2.144886,0 -4.141298,-0.62876 -5.82215,-1.70638 0.297128,0.0351 0.599466,0.053 0.906039,0.053 1.779432,0 3.417115,-0.60723 4.716987,-1.62589 -1.66202,-0.0307 -3.064657,-1.12875 -3.547969,-2.63776 0.231898,0.0444 0.469823,0.0681 0.71458,0.0681 0.346351,0 0.681915,-0.0464 1.000624,-0.13319 -1.737503,-0.3489 -3.046712,-1.88403 -3.046712,-3.72431 0,-0.016 4.7e-5,-0.0319 3.18e-4,-0.0477 0.512118,0.28448 1.097755,0.45533 1.720337,0.47504 -1.019117,-0.6811 -1.689628,-1.84366 -1.689628,-3.16136 0,-0.69613 0.187247,-1.34852 0.514183,-1.90949 1.873313,2.29791 4.671916,3.81003 7.82851,3.96842 -0.06474,-0.27798 -0.09839,-0.56788 -0.09839,-0.86556 0,-2.09753 1.700604,-3.79811 3.798224,-3.79811 1.092385,0 2.079477,0.46129 2.772337,1.19947 0.86513,-0.17037 1.67799,-0.48647 2.41182,-0.92176 -0.28359,0.88696 -0.88579,1.6313 -1.67,2.10139 0.7683,-0.0918 1.5003,-0.29599 2.18145,-0.59807 -0.50922,0.76168 -1.15319,1.43065 -1.89522,1.96616 0.007,0.16286 0.011,0.32666 0.011,0.49135 0,5.0191 -3.820228,10.80667 -10.80631,10.80667" />
      <path
         d="m 91.56577,44.718053 c -2.144886,0 -4.141298,-0.62876 -5.82215,-1.70638 0.297128,0.0351 0.599466,0.053 0.906039,0.053 1.779432,0 3.417115,-0.60723 4.716987,-1.62589 -1.66202,-0.0307 -3.064657,-1.12875 -3.547969,-2.63776 0.231898,0.0444 0.469823,0.0681 0.71458,0.0681 0.346351,0 0.681915,-0.0464 1.000624,-0.13319 -1.737503,-0.3489 -3.046712,-1.88403 -3.046712,-3.72431 0,-0.016 4.7e-5,-0.0319 3.18e-4,-0.0477 0.512118,0.28448 1.097755,0.45533 1.720337,0.47504 -1.019117,-0.6811 -1.689628,-1.84366 -1.689628,-3.16136 0,-0.69613 0.187247,-1.34852 0.514183,-1.90949 1.873313,2.29791 4.671916,3.81003 7.82851,3.96842 -0.06474,-0.27798 -0.09839,-0.56788 -0.09839,-0.86556 0,-2.09753 1.700604,-3.79811 3.798224,-3.79811 1.092385,0 2.079477,0.46129 2.772337,1.19947 0.86513,-0.17037 1.67799,-0.48647 2.41182,-0.92176 -0.28359,0.88696 -0.88579,1.6313 -1.67,2.10139 0.7683,-0.0918 1.5003,-0.29599 2.18145,-0.59807 -0.50922,0.76168 -1.15319,1.43065 -1.89522,1.96616 0.007,0.16286 0.011,0.32666 0.011,0.49135 0,5.0191 -3.820228,10.80667 -10.80631,10.80667"
         inkscape:connector-curvature="0"
         id="path5107"
         style="fill:#e9faff;fill-opacity:1;fill-rule:nonzero;stroke:none" />
      <path
         inkscape:connector-curvature="0"
         id="path4872"
         d="m 83.76463,25.610503 c -0.97707,0 -1.76465,0.79999 -1.76465,1.79246 l 0,19.3834 c 0,0.99247 0.78758,1.79095 1.76465,1.79095 l 7.51799,0 3.79986,3.94584 3.73446,-3.94584 7.41839,0 c 0.97707,0 1.76465,-0.79848 1.76465,-1.79095 l 0,-19.3834 c 0,-0.99247 -0.78758,-1.79246 -1.76465,-1.79246 l -22.4707,0 z"
         style="opacity:0.4;fill:none;fill-opacity:1;stroke:#004455;stroke-width:1;stroke-linecap:round;stroke-linejoin:round;stroke-miterlimit:4;stroke-dasharray:none;stroke-opacity:1" />
      <path
         inkscape:connector-curvature="0"
         id="path5143"
         d="m 83.76542,26.610153 c -0.43122,0 -0.76562,0.32953 -0.76562,0.79297 l 0,19.38281 c 0,0.46344 0.33336,0.79102 0.76562,0.79102 l 7.51758,0 a 1.0001,1.0001 0 0 1 0.7207,0.30664 l 3.07227,3.1914 3.01562,-3.18554 a 1.0001,1.0001 0 0 1 0.72461,-0.3125 l 7.41992,0 c 0.43227,0 0.76368,-0.32758 0.76368,-0.79102 l 0,-19.38281 c 0,-0.46344 -0.33245,-0.79297 -0.76368,-0.79297 l -22.4707,0 z"
         style="opacity:0.5;fill:none;fill-opacity:1;stroke:url(#linearGradient5158);stroke-width:1;stroke-linecap:round;stroke-linejoin:round;stroke-miterlimit:4;stroke-dasharray:none;stroke-opacity:1" />
    </g>
  </g>
</svg>
