<?xml version="1.0" encoding="UTF-8" standalone="no"?>
<svg xmlns:rdf="http://www.w3.org/1999/02/22-rdf-syntax-ns#" xmlns="http://www.w3.org/2000/svg" height="22" width="22" version="1.1" xmlns:cc="http://creativecommons.org/ns#" xmlns:dc="http://purl.org/dc/elements/1.1/" viewBox="0 0 22 22">
 <g transform="translate(0 -1030.4)" fill="#fff">
  <rect rx="1" ry="1" height="15" width="8" y="1034.4" x="5"/>
  <path d="m2.25 1035.4c-0.1385 0-0.25 0.1115-0.25 0.25v0.5c0 0.1385 0.1115 0.25 0.25 0.25h1.75v-1h-1.75zm0 2c-0.1385 0-0.25 0.1115-0.25 0.25v0.5c0 0.1385 0.1115 0.25 0.25 0.25h1.75v-1h-1.75zm0 2c-0.1385 0-0.25 0.1115-0.25 0.25v0.5c0 0.1385 0.1115 0.25 0.25 0.25h1.75v-1h-1.75zm0 2c-0.1385 0-0.25 0.1115-0.25 0.25v0.5c0 0.1385 0.1115 0.25 0.25 0.25h1.75v-1h-1.75zm0 2c-0.1385 0-0.25 0.1115-0.25 0.25v0.5c0 0.1385 0.1115 0.25 0.25 0.25h1.75v-1h-1.75zm0 2c-0.1385 0-0.25 0.1115-0.25 0.25v0.5c0 0.1385 0.1115 0.25 0.25 0.25h1.75v-1h-1.75zm0 2c-0.1385 0-0.25 0.1115-0.25 0.25v0.5c0 0.1385 0.1115 0.25 0.25 0.25h1.75v-1h-1.75z"/>
  <path d="m15.75 1035.4c0.1385 0 0.25 0.1115 0.25 0.25v0.5c0 0.1385-0.1115 0.25-0.25 0.25h-1.75v-1h1.75zm0 2c0.1385 0 0.25 0.1115 0.25 0.25v0.5c0 0.1385-0.1115 0.25-0.25 0.25h-1.75v-1h1.75zm0 2c0.1385 0 0.25 0.1115 0.25 0.25v0.5c0 0.1385-0.1115 0.25-0.25 0.25h-1.75v-1h1.75zm0 2c0.1385 0 0.25 0.1115 0.25 0.25v0.5c0 0.1385-0.1115 0.25-0.25 0.25h-1.75v-1h1.75zm0 2c0.1385 0 0.25 0.1115 0.25 0.25v0.5c0 0.1385-0.1115 0.25-0.25 0.25h-1.75v-1h1.75zm0 2c0.1385 0 0.25 0.1115 0.25 0.25v0.5c0 0.1385-0.1115 0.25-0.25 0.25h-1.75v-1h1.75zm0 2c0.1385 0 0.25 0.1115 0.25 0.25v0.5c0 0.1385-0.1115 0.25-0.25 0.25h-1.75v-1h1.75z"/>
 </g>
</svg>
