<?xml version="1.0" encoding="UTF-8" standalone="no"?>
<svg xmlns:rdf="http://www.w3.org/1999/02/22-rdf-syntax-ns#" xmlns="http://www.w3.org/2000/svg" height="22" width="22" version="1.1" xmlns:cc="http://creativecommons.org/ns#" xmlns:dc="http://purl.org/dc/elements/1.1/" viewBox="0 0 22 22">
 <g transform="translate(0 -1030.4)">
  <path style="color:#bebebe" d="m6 1048.4c0 0.554 0.446 1 1 1h8c0.554 0 1-0.446 1-1v-12c0-0.554-0.446-1-1-1h-2v-1c0-0.554-0.446-1-1-1h-2c-0.554 0-1 0.446-1 1v1h-2c-0.554 0-1 0.446-1 1v12zm1-0.5v-11c0-0.277 0.223-0.5 0.5-0.5h7c0.277 0 0.5 0.223 0.5 0.5v11c0 0.277-0.223 0.5-0.5 0.5h-7c-0.277 0-0.5-0.223-0.5-0.5zm1-0.75c0 0.1385 0.1115 0.25 0.25 0.25h5.5c0.1385 0 0.25-0.1115 0.25-0.25v-9.5c0-0.1385-0.1115-0.25-0.25-0.25h-5.5c-0.1385 0-0.25 0.1115-0.25 0.25v9.5zm2-11.75v-0.5c0-0.277 0.223-0.5 0.5-0.5h1c0.277 0 0.5 0.223 0.5 0.5v0.5h-2z" fill="#fff"/>
 </g>
</svg>
