<?xml version="1.0" encoding="UTF-8" standalone="no"?>
<svg xmlns:rdf="http://www.w3.org/1999/02/22-rdf-syntax-ns#" xmlns="http://www.w3.org/2000/svg" height="22" width="22" version="1.1" xmlns:cc="http://creativecommons.org/ns#" xmlns:dc="http://purl.org/dc/elements/1.1/" viewBox="0 0 22 22">
 <g transform="translate(0 -1030.4)">
  <path style="color:#000000;text-indent:0;block-progression:tb;text-decoration-line:none;text-transform:none" d="m2.5037 1033.4s-0.34949 0-0.71875 0.1875c-0.35482 0.1774-0.72007 0.6242-0.75 1.25-0.001 0.025-0.0312 0.036-0.0312 0.062l-1 10.438c-0.005 0.041-0.005 0.084 0 0.125l0.5 3.5c0.0303 0.2403 0.25779 0.4394 0.5 0.4375h0.84375 0.25 11.781 0.25 0.875c0.2333 0 0.45627-0.177 0.5-0.4062l0.5-2.5c0.005-0.041 0.005-0.084 0-0.125l-1-11.469c0-0.011 0.00023-0.02 0-0.031-0.0135-0.6487-0.41828-1.0998-0.78125-1.2812-0.36926-0.1848-0.71875-0.1875-0.71875-0.1875h-11zm6.8125 1c0.0104-0.0003 0.0208-0.0003 0.0312 0 0.0516-0.01 0.1046-0.01 0.15625 0h3c0.2938-0.01 0.5529 0.3009 0.5 0.5938 0 0-0.1273 0.7155-0.1875 1.4375-0.0297 0.3609-0.05 0.7435-0.0312 0.9687 0.005 0.055-0.007 0.061 0 0.094h0.0312c0.0351 0.027 0.0667 0.059 0.0937 0.094 0 0 1.0938 1.4384 1.0938 3.0625 0 1.1306-0.75345 2.0745-1.8438 2.7188-1.0903 0.6442-2.5592 1.0312-4.1562 1.0312-1.5971 0-3.0659-0.387-4.1562-1.0312-1.0903-0.6443-1.8438-1.5882-1.8438-2.7188 0-1.108 0.75163-1.9327 1.7188-2.5312 0.96712-0.5986 2.218-1.0761 3.5938-1.6875 0.01-0.011 0.0204-0.021 0.0312-0.031 0 0 1.2732-0.4132 1.6875-1.6563 0.0351-0.15 0.14221-0.281 0.28125-0.3437zm-5.6562 0.1563c0.0104-0.0007 0.0208-0.0007 0.0312 0h0.0625 2.5c0.0104-0.0007 0.0208-0.0007 0.0312 0 0.0329 0 0.065 0.015 0.0937 0.031 0.0113 0.01 0.0217 0.02 0.0312 0.031 0.0243 0.017 0.0456 0.038 0.0625 0.062 0.0133 0.019 0.0238 0.04 0.0312 0.062 0.003 0.021 0.003 0.042 0 0.062v1c0.00065 0.01 0.00065 0.021 0 0.031-0.008 0.046-0.0304 0.09-0.0625 0.125-0.0221 0.039-0.0548 0.072-0.0937 0.094l-3 1h-0.0625c-0.0104 0.0006-0.0208 0.0006-0.0312 0h-0.0625c-0.0222-0.01-0.0433-0.018-0.0625-0.031-0.0243-0.017-0.0456-0.038-0.0625-0.062-0.0113-0.01-0.0217-0.02-0.0312-0.031-0.0132-0.019-0.0238-0.04-0.0312-0.062-0.003-0.021-0.003-0.042 0-0.062-0.003-0.021-0.003-0.042 0-0.062l0.5-2c0.007-0.022 0.0179-0.043 0.0312-0.062 0.009-0.011 0.0199-0.022 0.0312-0.031 0.0221-0.039 0.0548-0.072 0.0937-0.094zm0.28125 0.5-0.3125 1.3437 2.375-0.7812v-0.5625zm5.7812 0.3437c-0.67963 1.3443-1.9111 1.9075-2 1.9375v0.031c-1.4 0.6222-2.6611 1.1058-3.5 1.625-0.83893 0.5193-1.2188 0.9694-1.2188 1.6563 0 0.6643 0.4747 1.3117 1.375 1.8437s2.1845 0.9063 3.625 0.9063 2.7247-0.3743 3.625-0.9063c0.90031-0.532 1.375-1.1794 1.375-1.8437 0-1.1061-0.8373-2.3506-0.875-2.4063-0.0004-0.0005-0.031 0.0003-0.0312 0-0.007-0.01 0.006-0.025 0-0.031-0.0858-0.085-0.1544-0.1393-0.1875-0.2187-0.0711-0.1707-0.111-0.3314-0.125-0.5-0.0281-0.3373-0.0009-0.736 0.0312-1.125 0.0403-0.4838 0.0818-0.6763 0.125-0.9688zm-1.9688 3.9063c0.52912 0 1.036 0.1977 1.4024 0.4332 0.36642 0.2356 0.59761 0.7816 0.59761 1.1918 0 0.4101-0.25858 0.7332-0.625 0.9687-0.36641 0.2356-0.84588 0.4063-1.375 0.4063s-1.0086-0.1707-1.375-0.4063c-0.36641-0.2355-0.625-0.5586-0.625-0.9687 0-0.4102 0.14902-0.8193 0.51543-1.0548 0.36642-0.2356 0.95545-0.5702 1.4846-0.5702zm0 0.75c-0.43738 0-0.82679 0.1096-1.0938 0.2812-0.26696 0.1716-0.40625 0.3826-0.40625 0.5938 0 0.2111 0.13929 0.4221 0.40625 0.5937s0.65637 0.2813 1.0938 0.2813c0.43738 0 0.82679-0.1097 1.0938-0.2813 0.26695-0.1716 0.40625-0.3826 0.40625-0.5937 0-0.2112-0.1393-0.4222-0.40625-0.5938-0.26696-0.1716-0.65637-0.2812-1.0938-0.2812zm-5.25 4.3437c0.27614 0 0.5 0.2239 0.5 0.5s-0.22386 0.5-0.5 0.5-0.5-0.2239-0.5-0.5 0.22386-0.5 0.5-0.5zm11 0c0.27614 0 0.5 0.2239 0.5 0.5s-0.22386 0.5-0.5 0.5-0.5-0.2239-0.5-0.5 0.22386-0.5 0.5-0.5zm-11.406 2h11.812l-0.34375 2h-11.125z" fill="#fff"/>
 </g>
</svg>
