<?xml version="1.0" encoding="UTF-8" standalone="no"?>
<svg xmlns:rdf="http://www.w3.org/1999/02/22-rdf-syntax-ns#" xmlns="http://www.w3.org/2000/svg" height="16" width="16" version="1.1" xmlns:cc="http://creativecommons.org/ns#" xmlns:dc="http://purl.org/dc/elements/1.1/" viewBox="0 0 16 16">
 <g transform="translate(0 -1036.4)" fill="#bebebe">
  <path style="color-rendering:auto;text-decoration-color:#000000;color:#000000;isolation:auto;mix-blend-mode:normal;shape-rendering:auto;solid-color:#000000;block-progression:tb;text-decoration-line:none;text-decoration-style:solid;image-rendering:auto;white-space:normal;text-indent:0;text-transform:none" d="m3.0005 1036.4a2.0002 2.0002 0 0 0 -1.9883 1.7793l-1 9a2.0002 2.0002 0 0 0 1.9883 2.2207h12a2.0002 2.0002 0 0 0 1.9883 -2.2207l-1-9a2.0002 2.0002 0 0 0 -1.9883 -1.7793h-10zm3.8984 2.0391h2.3145l2.9102 8.9609h-1.9102l-0.60938-2.125h-3.0762l-0.61719 2.125h-1.9102l2.8984-8.9609zm1.166 1.2578c-0.01628 0.089-0.03792 0.1963-0.06641 0.3183-0.02441 0.1221-0.05518 0.2523-0.0918 0.3907-0.03255 0.1342-0.0669 0.2698-0.10352 0.4082-0.03662 0.1383-0.07096 0.2685-0.10352 0.3906-0.03255 0.1221-0.06331 0.2306-0.0918 0.3242-0.02441 0.094-0.04248 0.1623-0.05469 0.207l-0.56836 1.9532h2.1797l-0.57422-1.9532c-0.024402-0.073-0.060535-0.1925-0.10936-0.3593-0.048828-0.1669-0.10319-0.3514-0.16016-0.5508-0.052897-0.2035-0.10352-0.4059-0.15234-0.6094-0.048828-0.2034-0.083171-0.3771-0.10352-0.5195z" fill-rule="evenodd"/>
  <path style="color-rendering:auto;text-decoration-color:#000000;color:#000000;isolation:auto;mix-blend-mode:normal;shape-rendering:auto;solid-color:#000000;block-progression:tb;text-decoration-line:none;text-decoration-style:solid;image-rendering:auto;white-space:normal;text-indent:0;text-transform:none" d="m0.00047253 1049.6v0.5469c0 1.2119 1.0381 2.25 2.25 2.25h11.5c1.2119 0 2.25-1.0381 2.25-2.25v-0.5469c-0.53161 0.4851-1.2252 0.797-2 0.7969h-12c-0.77456 0.0001-1.4684-0.3119-2-0.7969z"/>
 </g>
</svg>
