<?xml version="1.0" encoding="UTF-8" standalone="no"?>
<svg xmlns:rdf="http://www.w3.org/1999/02/22-rdf-syntax-ns#" xmlns="http://www.w3.org/2000/svg" height="16" width="16" version="1.1" xmlns:cc="http://creativecommons.org/ns#" xmlns:dc="http://purl.org/dc/elements/1.1/" viewBox="0 0 16 16">
 <g transform="translate(0 -1036.4)" fill="#bebebe">
  <path style="color-rendering:auto;text-decoration-color:#000000;color:#000000;isolation:auto;mix-blend-mode:normal;shape-rendering:auto;solid-color:#000000;block-progression:tb;text-decoration-line:none;text-decoration-style:solid;image-rendering:auto;white-space:normal;text-indent:0;text-transform:none" d="m3.0005 1036.4a2.0002 2.0002 0 0 0 -1.9883 1.7793l-1 9a2.0002 2.0002 0 0 0 1.9883 2.2207h12a2.0002 2.0002 0 0 0 1.9883 -2.2207l-1-9a2.0002 2.0002 0 0 0 -1.9883 -1.7793h-10zm4 2h2v4h3l-4 5.1211-4-5.1211h3v-4z" fill-rule="evenodd"/>
  <path style="color-rendering:auto;text-decoration-color:#000000;color:#000000;isolation:auto;mix-blend-mode:normal;shape-rendering:auto;solid-color:#000000;block-progression:tb;text-decoration-line:none;text-decoration-style:solid;image-rendering:auto;white-space:normal;text-indent:0;text-transform:none" d="m0.00047253 1049.6v0.5469c0 1.2119 1.0381 2.25 2.25 2.25h11.5c1.2119 0 2.25-1.0381 2.25-2.25v-0.5469c-0.53161 0.4851-1.2252 0.797-2 0.7969h-12c-0.77456 0.0001-1.4684-0.3119-2-0.7969z"/>
 </g>
</svg>
