<?xml version="1.0" encoding="UTF-8" standalone="no"?>
<!-- Generator: Adobe Illustrator 15.0.0, SVG Export Plug-In . SVG Version: 6.00 Build 0)  -->

<svg
   xmlns:dc="http://purl.org/dc/elements/1.1/"
   xmlns:cc="http://creativecommons.org/ns#"
   xmlns:rdf="http://www.w3.org/1999/02/22-rdf-syntax-ns#"
   xmlns:svg="http://www.w3.org/2000/svg"
   xmlns="http://www.w3.org/2000/svg"
   xmlns:sodipodi="http://sodipodi.sourceforge.net/DTD/sodipodi-0.dtd"
   xmlns:inkscape="http://www.inkscape.org/namespaces/inkscape"
   version="1.1"
   id="Layer_1"
   x="0px"
   y="0px"
   width="24"
   height="24"
   viewBox="0 0 24 24"
   enable-background="new 0 0 512 512"
   xml:space="preserve"
   inkscape:version="0.91 r"
   sodipodi:docname="skype.svg"
   inkscape:export-filename="/home/rafael/Bilder/elementary-skype/skype-n-invis.png"
   inkscape:export-xdpi="90"
   inkscape:export-ydpi="90"><metadata
     id="metadata9"><rdf:RDF><cc:Work
         rdf:about=""><dc:format>image/svg+xml</dc:format><dc:type
           rdf:resource="http://purl.org/dc/dcmitype/StillImage" /><dc:title /></cc:Work></rdf:RDF></metadata><defs
     id="defs7"><filter
       inkscape:collect="always"
       style="color-interpolation-filters:sRGB"
       id="filter4254"><feBlend
         inkscape:collect="always"
         mode="lighten"
         in2="BackgroundImage"
         id="feBlend4256" /></filter></defs><sodipodi:namedview
     pagecolor="#000000"
     bordercolor="#666666"
     borderopacity="1"
     objecttolerance="10"
     gridtolerance="10"
     guidetolerance="10"
     inkscape:pageopacity="0"
     inkscape:pageshadow="2"
     inkscape:window-width="1280"
     inkscape:window-height="745"
     id="namedview5"
     showgrid="true"
     inkscape:zoom="20.85965"
     inkscape:cx="11.273852"
     inkscape:cy="11.484879"
     inkscape:window-x="0"
     inkscape:window-y="30"
     inkscape:window-maximized="1"
     inkscape:current-layer="layer3"><inkscape:grid
       type="xygrid"
       id="grid4140" /></sodipodi:namedview><g
     inkscape:groupmode="layer"
     id="g4169"
     inkscape:label="outlined Base with cutout "
     style="display:none"><path
       style="opacity:0.95999995;fill:#ffffff;fill-opacity:1;stroke:none;stroke-opacity:1"
       d="M 8.5,4 A 4.5,4.5 0 0 0 4,8.5 4.5,4.5 0 0 0 5.03125,11.361328 7,7 0 0 0 5,12 7,7 0 0 0 12,19 7,7 0 0 0 12.632812,18.964844 4.5,4.5 0 0 0 15.5,20 4.5,4.5 0 0 0 20,15.5 4.5,4.5 0 0 0 18.96875,12.638672 7,7 0 0 0 19,12 7,7 0 0 0 18.306641,8.9804688 3,3 0 0 1 18,9 3,3 0 0 1 15,6 3,3 0 0 1 15.017578,5.6914062 7,7 0 0 0 12,5 7,7 0 0 0 11.367188,5.0351562 4.5,4.5 0 0 0 8.5,4 Z m 0,2 A 2.5,2.5 0 0 1 10.628906,7.1933594 5,5 0 0 1 12,7 5,5 0 0 1 17,12 5,5 0 0 1 16.804688,13.371094 2.5,2.5 0 0 1 18,15.5 2.5,2.5 0 0 1 15.5,18 2.5,2.5 0 0 1 13.371094,16.806641 5,5 0 0 1 12,17 5,5 0 0 1 7,12 5,5 0 0 1 7.1953125,10.628906 2.5,2.5 0 0 1 6,8.5 2.5,2.5 0 0 1 8.5,6 Z"
       id="path4171"
       inkscape:connector-curvature="0" /></g><g
     style="display:none"
     inkscape:label="Base with cutout"
     id="g4273"
     inkscape:groupmode="layer"><path
       style="opacity:0.95999995;fill:#ffffff;fill-opacity:1;stroke:none;stroke-opacity:1"
       d="M 8.5,4 A 4.5,4.5 0 0 0 4,8.5 4.5,4.5 0 0 0 5.03125,11.361328 7,7 0 0 0 5,12 7,7 0 0 0 12,19 7,7 0 0 0 12.632812,18.964844 4.5,4.5 0 0 0 15.5,20 4.5,4.5 0 0 0 20,15.5 4.5,4.5 0 0 0 18.96875,12.638672 7,7 0 0 0 19,12 7,7 0 0 0 18.306641,8.9804688 3,3 0 0 1 15,6 3,3 0 0 1 15.017578,5.6914062 7,7 0 0 0 12,5 7,7 0 0 0 11.367188,5.0351562 4.5,4.5 0 0 0 8.5,4 Z"
       id="path4275"
       inkscape:connector-curvature="0" /></g><g
     inkscape:groupmode="layer"
     id="layer9"
     inkscape:label="Notification"
     style="display:none"><path
       d="m 20,6 a 2,2 0 0 1 -4,0 2,2 0 1 1 4,0 z"
       inkscape:connector-curvature="0"
       id="path3009"
       style="color:#000000;display:inline;overflow:visible;visibility:visible;fill:#009dff;fill-opacity:1;fill-rule:nonzero;stroke:none;stroke-width:1;marker:none;enable-background:accumulate" /></g><g
     style="display:none"
     inkscape:label="outlined Base"
     id="g4157"
     inkscape:groupmode="layer"><path
       style="opacity:0.95999995;fill:#ffffff;fill-opacity:1;stroke:none;stroke-opacity:1"
       d="M 8.5,4 A 4.5,4.5 0 0 0 4,8.5 4.5,4.5 0 0 0 5.03125,11.361328 7,7 0 0 0 5,12 7,7 0 0 0 12,19 7,7 0 0 0 12.632812,18.964844 4.5,4.5 0 0 0 15.5,20 4.5,4.5 0 0 0 20,15.5 4.5,4.5 0 0 0 18.96875,12.638672 7,7 0 0 0 19,12 7,7 0 0 0 12,5 7,7 0 0 0 11.367188,5.0351562 4.5,4.5 0 0 0 8.5,4 Z m 0,2 A 2.5,2.5 0 0 1 10.628906,7.1933594 5,5 0 0 1 12,7 5,5 0 0 1 17,12 5,5 0 0 1 16.804688,13.371094 2.5,2.5 0 0 1 18,15.5 2.5,2.5 0 0 1 15.5,18 2.5,2.5 0 0 1 13.371094,16.806641 5,5 0 0 1 12,17 5,5 0 0 1 7,12 5,5 0 0 1 7.1953125,10.628906 2.5,2.5 0 0 1 6,8.5 2.5,2.5 0 0 1 8.5,6 Z"
       id="path4159"
       inkscape:connector-curvature="0" /></g><g
     inkscape:groupmode="layer"
     id="layer1"
     inkscape:label="Base"
     style="display:inline"><path
       style="opacity:0.95999995;fill:#ffffff;fill-opacity:1;stroke:none;stroke-opacity:1"
       d="M 8.5,4 A 4.5,4.5 0 0 0 4,8.5 4.5,4.5 0 0 0 5.03125,11.361328 7,7 0 0 0 5,12 7,7 0 0 0 12,19 7,7 0 0 0 12.632812,18.964844 4.5,4.5 0 0 0 15.5,20 4.5,4.5 0 0 0 20,15.5 4.5,4.5 0 0 0 18.96875,12.638672 7,7 0 0 0 19,12 7,7 0 0 0 12,5 7,7 0 0 0 11.367188,5.0351562 4.5,4.5 0 0 0 8.5,4 Z"
       id="path4142"
       inkscape:connector-curvature="0" /></g><g
     inkscape:groupmode="layer"
     id="layer3"
     inkscape:label="Online"
     style="display:inline"><path
       style="opacity:0.95999995;fill:#999999;fill-opacity:1;stroke:none;stroke-width:2;stroke-miterlimit:4;stroke-dasharray:none;stroke-opacity:1"
       d="M 15.181981,8.4644662 10.93934,12.707107 8.8180196,10.585787 7.403806,12 9.5251261,14.121321 10.93934,15.535534 12.353553,14.121321 16.596194,9.8786797 15.181981,8.4644662 Z"
       id="rect4154"
       inkscape:connector-curvature="0" /></g><g
     inkscape:groupmode="layer"
     id="layer5"
     inkscape:label="Offline"
     style="display:none"><path
       style="fill:#999999;fill-opacity:1;stroke:none;stroke-width:2;stroke-miterlimit:4;stroke-dasharray:none;stroke-opacity:1"
       d="M 14.12132,8.464466 12,10.585786 9.8786796,8.464466 8.464466,9.8786796 10.585786,12 8.464466,14.12132 9.8786796,15.535534 12,13.414214 14.12132,15.535534 15.535534,14.12132 13.414214,12 15.535534,9.8786796 14.12132,8.464466 Z"
       id="rect4160"
       inkscape:connector-curvature="0" /></g><g
     inkscape:groupmode="layer"
     id="layer6"
     inkscape:label="Connecting"
     style="display:none"><rect
       style="opacity:0.95999995;fill:#999999;fill-opacity:1;stroke:none;stroke-width:2;stroke-miterlimit:4;stroke-dasharray:none;stroke-opacity:1"
       id="rect4166"
       width="2"
       height="2"
       x="8"
       y="11" /><rect
       y="11"
       x="11"
       height="2"
       width="2"
       id="rect4168"
       style="opacity:0.95999995;fill:#999999;fill-opacity:1;stroke:none;stroke-width:2;stroke-miterlimit:4;stroke-dasharray:none;stroke-opacity:1" /><rect
       style="opacity:0.95999995;fill:#999999;fill-opacity:1;stroke:none;stroke-width:2;stroke-miterlimit:4;stroke-dasharray:none;stroke-opacity:1"
       id="rect4170"
       width="2"
       height="2"
       x="14"
       y="11" /></g><g
     inkscape:groupmode="layer"
     id="layer7"
     inkscape:label="Occupied"
     style="display:none"><rect
       style="opacity:0.95999995;fill:#999999;fill-opacity:1;stroke:none;stroke-width:2;stroke-miterlimit:4;stroke-dasharray:none;stroke-opacity:1"
       id="rect4173"
       width="8"
       height="2"
       x="8"
       y="11" /></g><g
     inkscape:groupmode="layer"
     id="layer8"
     inkscape:label="Away"
     style="display:none;filter:url(#filter4254)"><path
       style="opacity:0.95999995;fill:#808080;fill-opacity:1;stroke:none;stroke-width:2;stroke-miterlimit:4;stroke-dasharray:none;stroke-opacity:1"
       d="m 11,8 0,5 0.02148,0 L 11,13.021484 13.828125,15.849609 15.242188,14.435547 13,12.193359 13,8 11,8 Z"
       id="rect4240"
       inkscape:connector-curvature="0" /></g></svg>