<?xml version="1.0" encoding="UTF-8" standalone="no"?>
<svg xmlns:rdf="http://www.w3.org/1999/02/22-rdf-syntax-ns#" xmlns="http://www.w3.org/2000/svg" height="16" width="16" version="1.1" xmlns:cc="http://creativecommons.org/ns#" xmlns:xlink="http://www.w3.org/1999/xlink" xmlns:dc="http://purl.org/dc/elements/1.1/">
 <defs>
  <linearGradient id="c" y2=".065302" gradientUnits="userSpaceOnUse" x2="54.887" gradientTransform="matrix(.23433 0 0 .49377 .83571 .14413)" y1=".065302" x1="5.2123">
   <stop stop-color="#e58a00" offset="0"/>
   <stop stop-color="#c37500" offset="1"/>
  </linearGradient>
  <linearGradient id="d" y2="3.899" gradientUnits="userSpaceOnUse" x2="24" gradientTransform="matrix(0.4 0 0 .051282 0.7 .26924)" y1="44" x1="24">
   <stop stop-color="#272727" offset="0"/>
   <stop stop-color="#454545" offset="1"/>
  </linearGradient>
  <radialGradient id="a" gradientUnits="userSpaceOnUse" cy="6.6476" cx="24.502" gradientTransform="matrix(0 .86935 -.93513 0 14.716 -18.897)" r="17.498">
   <stop stop-color="#f90" offset="0"/>
   <stop stop-color="#e58a00" offset="1"/>
  </radialGradient>
  <linearGradient id="e" y2="61.482" gradientUnits="userSpaceOnUse" x2="32.901" gradientTransform="matrix(.20583 0 0 .23349 1.9133 1.3584)" y1="4.6482" x1="32.901">
   <stop stop-color="#e58a00" offset="0"/>
   <stop stop-color="#c37500" offset="1"/>
  </linearGradient>
  <radialGradient id="b" gradientUnits="userSpaceOnUse" cy="8.4498" cx="7.4957" gradientTransform="matrix(0 0.779 -.98890 -1.4352e-8 18.656 -3.1449)" r="20">
   <stop stop-color="#5f5f5f" offset="0"/>
   <stop stop-color="#4f4f4f" offset=".26238"/>
   <stop stop-color="#3b3b3b" offset=".70495"/>
   <stop stop-color="#2b2b2b" offset="1"/>
  </radialGradient>
  <linearGradient id="f" y2="3.899" gradientUnits="userSpaceOnUse" x2="24" gradientTransform="matrix(0.4 0 0 .33333 0.7 1)" y1="44" x1="24">
   <stop stop-color="#272727" offset="0"/>
   <stop stop-color="#454545" offset="1"/>
  </linearGradient>
  <linearGradient id="g" y2="43.829" gradientUnits="userSpaceOnUse" x2="24" gradientTransform="matrix(.24324 0 0 .29730 2.1622 1.8649)" y1="3.7563" x1="24">
   <stop stop-color="#fff" offset="0"/>
   <stop stop-color="#fff" stop-opacity=".23529" offset=".086916"/>
   <stop stop-color="#fff" stop-opacity=".15686" offset=".91860"/>
   <stop stop-color="#fff" stop-opacity=".39216" offset="1"/>
  </linearGradient>
 </defs>
 <path stroke-linejoin="round" d="m13.491 2.3044c-0.096-0.6551-0.036-1.171-0.089-1.7957h-9.8928l0.058388 1.9826" stroke="url(#c)" stroke-miterlimit="0" stroke-width="1.0174" fill="#e9e9e9"/>
 <path stroke-linejoin="round" style="color:#000000" d="m4.5 2.5h-1.6c-0.2283 0-0.4-0.0212-0.4-0.0488v-1.3982c0-0.44396 0.22361-0.553 0.51636-0.553h1.4836" stroke="url(#d)" stroke-linecap="round" fill="#e9e9e9"/>
 <rect stroke-linejoin="round" height="12.981" width="9.981" stroke="url(#e)" stroke-linecap="round" stroke-miterlimit="0" y="2.5095" x="3.5095" stroke-width="1.019" fill="url(#a)"/>
 <path stroke-linejoin="round" style="color:#000000" d="m4.5 2.5v13h-1.6c-0.22834 0-0.4-0.13759-0.4-0.31707v-12.683z" stroke="url(#f)" stroke-linecap="round" fill="url(#b)"/>
 <rect opacity=".5" stroke-linejoin="round" height="11" width="9" stroke="url(#g)" stroke-linecap="round" y="3.5" x="3.5" fill="none"/>
 <path opacity=".2" d="m8.7422 6.0311c-0.9254 0.0544-1.905 0.4522-2.1231 1.5957-0.0358 0.1448 0.0741 0.202 0.1465 0.2207l1.0156 0.125c0.1091-0.0188 0.1638-0.1081 0.1817-0.1993 0.0911-0.3988 0.4163-0.6001 0.7793-0.6367h0.072266c0.21732 0 0.45274 0.09073 0.58008 0.27148 0.14451 0.21809 0.12891 0.50974 0.12891 0.76367v0.14648c-0.2361 0.0186-0.5091 0.0337-0.7813 0.0703-0.4171 0.0537-0.8351 0.1282-1.1797 0.291-0.6714 0.2726-1.127 0.8542-1.127 1.7075 0 1.071 0.6917 1.6133 1.5625 1.6133 0.29055 0 0.5268-0.03525 0.74414-0.08984 0.34506-0.10906 0.63391-0.3089 0.97852-0.67188 0.1998 0.2726 0.25455 0.39969 0.59961 0.68945 0.09077 0.03668 0.18343 0.0369 0.25586-0.01758 0.21769-0.18148 0.5967-0.50599 0.79688-0.6875 0.09037-0.07324 0.07364-0.18421 0.01953-0.27539-0.1998-0.25392-0.40039-0.47177-0.40039-0.96094v-1.6328c0-0.6907 0.053-1.3262-0.455-1.7974-0.417-0.3817-1.0701-0.5254-1.578-0.5254h-0.2168zm0.78125 3.1191v0.21875c0 0.41752 0.018128 0.74519-0.19922 1.1074-0.12699 0.25393-0.34604 0.41617-0.58203 0.4707-0.036217 0-0.08999 0.01953-0.14453 0.01953-0.39917 0-0.63477-0.30762-0.63477-0.76172 0-0.5803 0.34391-0.8535 0.7793-0.98047 0.2361-0.0544 0.5091-0.0742 0.7813-0.0742zm2.8984 3.0352c-0.16528 0.001-0.34868 0.02272-0.52148 0.07422-0.12945 0.0409-0.2425 0.097-0.34766 0.16992-0.08083 0.0569-0.0652 0.12876 0.01563 0.12109 0.08885-0.0166 0.20262-0.02442 0.33203-0.04101 0.28318-0.0236 0.61446-0.03068 0.69531 0.07422 0.11282 0.13736-0.1289 0.73526-0.23438 0.99414-0.03195 0.0812 0.04043 0.11351 0.11328 0.05664 0.36401-0.30748 0.51742-0.86478 0.52539-1.1562v-0.04883c0-0.0652-0.01531-0.1124-0.03125-0.13672-0.04557-0.0555-0.27141-0.10939-0.54688-0.10742zm-7.3477 0.15625c-0.07187-0.002-0.10562 0.07754-0.033203 0.13672 1.0434 0.94662 2.4179 1.5137 3.9551 1.5137 0.95459 0 2.0548-0.26794 2.9043-0.77734 0.11346-0.0652 0.22495-0.1382 0.33008-0.21875 0.14573-0.10484 0.01683-0.26768-0.12891-0.20312-0.06451 0.0243-0.1366 0.05773-0.20117 0.08203-0.93064 0.3643-1.9765 0.36523-2.8828 0.36523-1.44 0-2.7641-0.22766-3.8887-0.88281-0.01971-0.0106-0.038097-0.01512-0.054687-0.01563z"/>
 <path d="m8.7422 5.0312c-0.9254 0.0545-1.905 0.4523-2.1231 1.5958-0.0358 0.1448 0.0741 0.202 0.1465 0.2207l1.0156 0.125c0.1091-0.0188 0.1638-0.1082 0.1817-0.1993 0.0911-0.3988 0.4163-0.6001 0.7793-0.6367h0.0723c0.2173 0 0.4527 0.0907 0.58 0.2715 0.1445 0.2181 0.1289 0.5097 0.1289 0.7637v0.1465c-0.236 0.0186-0.509 0.0337-0.7812 0.0703-0.4171 0.0537-0.8351 0.1282-1.1797 0.291-0.6714 0.2726-1.127 0.8541-1.127 1.707 0 1.0713 0.6917 1.6133 1.5625 1.6133 0.2906 0 0.5268-0.035 0.7442-0.09 0.345-0.109 0.6339-0.309 0.9785-0.672 0.1998 0.273 0.2546 0.4 0.5993 0.69 0.091 0.036 0.184 0.037 0.256-0.018 0.218-0.181 0.597-0.506 0.797-0.687 0.09-0.074 0.074-0.185 0.02-0.2757-0.2-0.254-0.401-0.4718-0.401-0.961v-1.6328c0-0.6901 0.053-1.3256-0.455-1.7969-0.417-0.3816-1.0701-0.5254-1.578-0.5254h-0.2168zm0.7812 3.1192v0.2187c0 0.4176 0.0182 0.7452-0.1992 1.1075-0.127 0.2539-0.346 0.4161-0.582 0.4707-0.0362 0-0.09 0.0195-0.1445 0.0195-0.3992 0-0.6348-0.3076-0.6348-0.7617 0-0.5803 0.3439-0.8535 0.7793-0.9805 0.236-0.0545 0.509-0.0742 0.7812-0.0742zm2.8986 3.0356c-0.165 0.001-0.349 0.022-0.522 0.074-0.129 0.041-0.242 0.097-0.347 0.17-0.081 0.057-0.065 0.128 0.015 0.121 0.089-0.017 0.203-0.025 0.332-0.041 0.284-0.024 0.615-0.031 0.696 0.074 0.113 0.137-0.129 0.735-0.235 0.994-0.032 0.081 0.041 0.114 0.114 0.057 0.364-0.308 0.517-0.865 0.525-1.156v-0.049c0-0.066-0.015-0.113-0.031-0.137-0.046-0.056-0.272-0.109-0.547-0.107zm-7.3478 0.156c-0.0719-0.002-0.1056 0.077-0.0332 0.137 1.0434 0.946 2.4179 1.513 3.9551 1.513 0.9546 0 2.0549-0.268 2.9039-0.777 0.114-0.065 0.225-0.138 0.33-0.219 0.146-0.105 0.017-0.268-0.128-0.203-0.065 0.024-0.137 0.058-0.202 0.082-0.93 0.364-1.9761 0.365-2.8824 0.365-1.4401 0-2.7641-0.227-3.8887-0.883-0.0197-0.01-0.0381-0.015-0.0547-0.015z" fill="#fff"/>
</svg>
