<?xml version="1.0" encoding="UTF-8" standalone="no"?>
<svg xmlns:rdf="http://www.w3.org/1999/02/22-rdf-syntax-ns#" xmlns="http://www.w3.org/2000/svg" height="24" width="24" version="1.1" xmlns:cc="http://creativecommons.org/ns#" xmlns:xlink="http://www.w3.org/1999/xlink" xmlns:dc="http://purl.org/dc/elements/1.1/">
 <defs>
  <linearGradient id="c" y2="44.341" gradientUnits="userSpaceOnUse" x2="71.204" gradientTransform="matrix(.51351 0 0 .51351 -24.836 -9.0213)" y1="6.2376" x1="71.204">
   <stop stop-color="#fff" offset="0"/>
   <stop stop-color="#fff" stop-opacity=".23529" offset=".50776"/>
   <stop stop-color="#fff" stop-opacity=".15686" offset=".83457"/>
   <stop stop-color="#fff" stop-opacity=".39216" offset="1"/>
  </linearGradient>
  <radialGradient id="a" gradientUnits="userSpaceOnUse" cy="8.4498" cx="6.0694" gradientTransform="matrix(0 1.1469 -1.2133 -3.1216e-8 22.252 -14.943)" r="20">
   <stop stop-color="#b1e198" offset="0"/>
   <stop stop-color="#04a171" offset=".70495"/>
   <stop stop-color="#04a171" offset="1"/>
  </radialGradient>
  <radialGradient id="b" gradientUnits="userSpaceOnUse" cy="4.625" cx="62.625" gradientTransform="matrix(1.0353 0 0 .28235 -52.835 11.694)" r="10.625">
   <stop offset="0"/>
   <stop stop-opacity="0" offset="1"/>
  </radialGradient>
  <linearGradient id="d" y2="10" gradientUnits="userSpaceOnUse" x2="12" y1="-2" x1="12">
   <stop stop-color="#fff" offset="0"/>
   <stop stop-color="#cee7dd" offset="1"/>
  </linearGradient>
 </defs>
 <g transform="translate(0,8)">
  <path opacity=".3" d="m23 13c0 1.6568-4.9249 3-11 3s-11-1.3432-11-3 4.9249-3 11-3 11 1.3432 11 3z" fill-rule="evenodd" fill="url(#b)"/>
  <path stroke-linejoin="round" style="color:#000000" d="m12-6.5c-5.7935 0-10.5 4.7065-10.5 10.5s4.7065 10.5 10.5 10.5c5.794 0 10.5-4.7065 10.5-10.5s-4.706-10.5-10.5-10.5z" stroke-opacity=".70196" stroke="#006344" stroke-linecap="round" fill="url(#a)"/>
  <path opacity=".5" stroke-linejoin="round" style="color:#000000" d="m21.5 3.9997c0 5.2468-4.254 9.5003-9.5 9.5003-5.2466 0-9.5-4.2535-9.5-9.5003 0-5.2466 4.2534-9.4997 9.5001-9.4997 5.2463 0 9.4999 4.253 9.4999 9.4997v0z" stroke="url(#c)" stroke-linecap="round" fill="none"/>
  <path opacity=".15" style="color-rendering:auto;text-decoration-color:#000000;color:#000000;isolation:auto;mix-blend-mode:normal;shape-rendering:auto;solid-color:#000000;block-progression:tb;text-decoration-line:none;text-decoration-style:solid;image-rendering:auto;white-space:normal;text-indent:0;text-transform:none" d="m9.3672-1.128c-0.1834 0.013143-0.36887 0.059782-0.53906 0.14258-0.45418 0.22092-0.73012 0.6658-0.85742 1.1602-0.1273 0.49429-0.1338 1.0662-0.0528 1.7031 0.0261 0.2048 0.0766 0.4268 0.1211 0.6445-0.3684 0.0796-0.719 0.1691-1.0332 0.2773-0.5427 0.187-1.0003 0.4142-1.3554 0.7071s-0.62325 0.68176-0.64844 1.1406c-0.023998 0.43712 0.18021 0.84026 0.47656 1.1582s0.69343 0.58107 1.1719 0.81641a0.50051 0.50051 0 1 0 0.4414 -0.8984c-0.4048-0.1992-0.7082-0.4142-0.8828-0.6016-0.1747-0.1874-0.2127-0.3172-0.2071-0.4199 0.00593-0.10802 0.067017-0.2439 0.28516-0.42383s0.5782-0.37239 1.0449-0.5332c0.28003-0.096489 0.60669-0.1785 0.95508-0.25195 0.13206 0.43687 0.29088 0.8853 0.48438 1.3477-0.55756 1.0104-0.96325 1.988-1.1719 2.8535-0.15054 0.62456-0.2071 1.1926-0.13477 1.6973 0.07233 0.50462 0.29924 0.97801 0.72852 1.2441 0.40727 0.25249 0.89824 0.2661 1.373 0.14844 0.47481-0.11766 0.96282-0.36223 1.4668-0.70508a0.50055 0.50055 0 1 0 -0.5625 -0.82813c-0.43651 0.29696-0.83736 0.48638-1.1445 0.5625-0.30717 0.076118-0.49226 0.04405-0.60742-0.027344-0.12102-0.075024-0.22004-0.2191-0.26562-0.53711-0.045582-0.31801-0.01139-0.77878 0.11914-1.3203 0.13845-0.57437 0.38962-1.2402 0.73047-1.9453 0.048524 0.09502 0.087803 0.1879 0.13867 0.2832 0.8398 1.5734 1.8396 2.8824 2.8184 3.752 0.4894 0.43478 0.97305 0.76265 1.457 0.95117 0.48398 0.18852 1.0029 0.23846 1.457 0.01758 0.43679-0.21246 0.7099-0.63575 0.8418-1.1055 0.1319-0.46972 0.1485-1.0105 0.08398-1.6133-0.12904-1.2055-0.59332-2.6639-1.3535-4.1719a0.50005 0.50005 0 1 0 -0.89258 0.44922c0.71614 1.4206 1.1413 2.7962 1.252 3.8301 0.05534 0.51692 0.02858 0.94677-0.05274 1.2363-0.08131 0.28956-0.19096 0.41359-0.31641 0.47461-0.13053 0.06349-0.33462 0.07645-0.65625-0.04883-0.322-0.1253-0.728-0.387-1.156-0.7676-0.857-0.7612-1.808-1.9905-2.6-3.4746-0.161-0.302-0.3-0.6014-0.4354-0.8984 0.16713-0.28216 0.33958-0.56497 0.5332-0.84961 0.1968-0.2893 0.40003-0.56736 0.60547-0.83203 0.03741-0.000366 0.07175-0.00379 0.10938-0.00391 0.31348-0.000998 0.63592 0.00698 0.96484 0.023437 1.7478 0.087446 3.3149 0.41889 4.3945 0.85742 0.53981 0.21927 0.95561 0.46869 1.2031 0.69531 0.24751 0.22662 0.30734 0.39033 0.30078 0.50977-0.0057 0.10316-0.05988 0.23197-0.25586 0.40234-0.19598 0.17038-0.52299 0.35582-0.94922 0.51367a0.50005 0.50005 0 1 0 0.34766 0.9375c0.50297-0.18626 0.92838-0.41086 1.2578-0.69726 0.32944-0.2864 0.57362-0.66377 0.59766-1.1016 0.02778-0.5061-0.24296-0.95472-0.62305-1.3027-0.38009-0.34802-0.88865-0.63369-1.502-0.88281-1.2266-0.49824-2.8789-0.83754-4.7207-0.92969-0.09578-0.00479-0.18815-0.00431-0.2832-0.00781 0.36145-0.38996 0.72364-0.74382 1.0723-1.0332 0.8237-0.68373 1.5941-1.0356 2.0117-1.0508 0.15444-0.00559 0.25275 0.023583 0.32812 0.070313 0.11332 0.070256 0.2068 0.197 0.25781 0.47852s0.03788 0.69194-0.0625 1.1797a0.50005 0.50005 0 1 0 0.97852 0.20312c0.11788-0.57273 0.15279-1.0946 0.06836-1.5605-0.08443-0.46597-0.31227-0.90081-0.71484-1.1504-0.26856-0.16649-0.58099-0.23192-0.89062-0.2207-0.83541 0.030281-1.7019 0.52308-2.6152 1.2813-0.587 0.48626-1.183 1.1043-1.761 1.8066-0.53 0.019-1.0414 0.0558-1.5196 0.1192-0.0431-0.2055-0.0895-0.4149-0.1133-0.6016-0.0702-0.5518-0.0512-1.0135 0.0293-1.3262 0.080517-0.31268 0.19572-0.44827 0.32617-0.51172 0.049042-0.023858 0.1002-0.037832 0.17188-0.042969 0.26285-0.01882 0.78046 0.16963 1.3652 0.63281a0.50005 0.50005 0 1 0 0.6211 -0.7832c-0.687-0.54391-1.362-0.89742-2.0568-0.84762zm0.375 4.4102c-0.048491 0.06916-0.09857 0.13269-0.14648 0.20312-0.062184 0.091412-0.11214 0.18209-0.17188 0.27344-0.052193-0.14662-0.093778-0.28553-0.13867-0.42773 0.149-0.018356 0.30138-0.034736 0.45703-0.048828zm2.3242 1.0664a0.77482 0.73968 0 0 0 -0.79883 0.74024 0.77539 0.74022 0 0 0 1.5508 0 0.77482 0.73968 0 0 0 -0.75195 -0.74024z"/>
  <path style="color-rendering:auto;text-decoration-color:#000000;color:#000000;isolation:auto;mix-blend-mode:normal;shape-rendering:auto;solid-color:#000000;block-progression:tb;text-decoration-line:none;text-decoration-style:solid;image-rendering:auto;white-space:normal;text-indent:0;text-transform:none" d="m9.3672-2.1282c-0.1834 0.013143-0.36887 0.059782-0.53906 0.14258-0.45418 0.22092-0.73012 0.6658-0.85742 1.1602-0.1273 0.49436-0.13375 1.0663-0.052734 1.7031 0.026 0.2048 0.0765 0.4268 0.121 0.6445-0.3684 0.0796-0.719 0.1691-1.0332 0.2774-0.5427 0.187-1.0003 0.4141-1.3554 0.707s-0.62325 0.68176-0.64844 1.1406c-0.023998 0.43712 0.18021 0.84026 0.47656 1.1582s0.69343 0.58107 1.1719 0.81641a0.50051 0.50051 0 1 0 0.4414 -0.8984c-0.4048-0.1991-0.7082-0.4142-0.8828-0.6016-0.1747-0.1874-0.2127-0.3171-0.2071-0.4199 0.00593-0.10802 0.067017-0.2439 0.28516-0.42383s0.5782-0.37239 1.0449-0.5332c0.28003-0.096489 0.60669-0.1785 0.95508-0.25195 0.13206 0.43687 0.29088 0.8853 0.48438 1.3477-0.55756 1.0104-0.96325 1.988-1.1719 2.8535-0.15054 0.62456-0.2071 1.1926-0.13477 1.6973 0.07233 0.50462 0.29924 0.97801 0.72852 1.2441 0.40727 0.25249 0.89824 0.2661 1.373 0.14844 0.47481-0.11766 0.96282-0.36223 1.4668-0.70508a0.50055 0.50055 0 1 0 -0.5625 -0.82812c-0.43651 0.29696-0.83736 0.48638-1.1445 0.5625-0.30717 0.076118-0.49226 0.04405-0.60742-0.027344-0.12102-0.075024-0.22004-0.2191-0.26562-0.53711-0.045582-0.31801-0.01139-0.77878 0.11914-1.3203 0.13845-0.57437 0.38962-1.2402 0.73047-1.9453 0.048524 0.09502 0.087803 0.1879 0.13867 0.2832 0.8398 1.5734 1.8396 2.8824 2.8184 3.752 0.4894 0.43478 0.97305 0.76265 1.457 0.95117 0.48398 0.18852 1.0029 0.23846 1.457 0.017578 0.43679-0.21246 0.7099-0.63575 0.8418-1.1055 0.1319-0.46972 0.1485-1.0105 0.08398-1.6133-0.12904-1.2055-0.59332-2.6639-1.3535-4.1719a0.50005 0.50005 0 1 0 -0.89258 0.44922c0.71614 1.4206 1.1413 2.7962 1.252 3.8301 0.05534 0.51692 0.02858 0.94677-0.05274 1.2363-0.08131 0.28956-0.19096 0.41359-0.31641 0.47461-0.13053 0.063491-0.33462 0.07645-0.65625-0.048829-0.32162-0.12528-0.72783-0.38698-1.1562-0.76758-0.85683-0.7612-1.8075-1.9905-2.5996-3.4746-0.1612-0.30203-0.30032-0.60138-0.43555-0.89844 0.16713-0.28216 0.33958-0.56497 0.5332-0.84961 0.1968-0.2893 0.40003-0.56736 0.60547-0.83203 0.03741-0.000366 0.07175-0.00379 0.10938-0.00391 0.31348-0.000998 0.63592 0.00698 0.96484 0.023437 1.7478 0.087446 3.3149 0.41889 4.3945 0.85742 0.53981 0.21927 0.95561 0.46869 1.2031 0.69531 0.24751 0.22662 0.30734 0.39033 0.30078 0.50977-0.0057 0.10316-0.05988 0.23197-0.25586 0.40234-0.19598 0.17038-0.52299 0.35582-0.94922 0.51367a0.50005 0.50005 0 1 0 0.34766 0.9375c0.50297-0.18626 0.92838-0.41086 1.2578-0.69726 0.32944-0.2864 0.57362-0.66377 0.59766-1.1016 0.02778-0.5061-0.24296-0.95472-0.62305-1.3027-0.38009-0.34802-0.88865-0.63369-1.502-0.88281-1.2266-0.49824-2.8789-0.83754-4.7207-0.92969-0.09578-0.00479-0.18815-0.00431-0.2832-0.00781 0.36145-0.38996 0.72364-0.74382 1.0723-1.0332 0.8237-0.68373 1.5941-1.0356 2.0117-1.0508 0.15444-0.00559 0.25275 0.023583 0.32812 0.070313 0.11332 0.070256 0.2068 0.197 0.25781 0.47852s0.03788 0.69194-0.0625 1.1797a0.50005 0.50005 0 1 0 0.97852 0.20312c0.11788-0.57273 0.15279-1.0946 0.06836-1.5605-0.08443-0.46597-0.31227-0.90081-0.71484-1.1504-0.26856-0.16649-0.58099-0.23192-0.89062-0.2207-0.83541 0.030281-1.7019 0.52308-2.6152 1.2813-0.58582 0.48627-1.1817 1.1044-1.7598 1.8066-0.53005 0.019016-1.0413 0.055809-1.5195 0.11914-0.043147-0.20541-0.089525-0.41482-0.11328-0.60156-0.070198-0.55182-0.051221-1.0135 0.029297-1.3262 0.080517-0.31268 0.19572-0.44827 0.32617-0.51172 0.049042-0.023858 0.1002-0.037832 0.17188-0.042969 0.26285-0.01882 0.78046 0.16963 1.3652 0.63281a0.50005 0.50005 0 1 0 0.621 -0.7831c-0.687-0.544-1.362-0.8975-2.0568-0.8477zm0.375 4.4102c-0.048491 0.06916-0.09857 0.13269-0.14648 0.20312-0.062184 0.091412-0.11214 0.18209-0.17188 0.27344-0.052193-0.14662-0.093778-0.28553-0.13867-0.42773 0.149-0.018356 0.30138-0.034736 0.45703-0.048828zm2.3242 1.0664a0.77482 0.73968 0 0 0 -0.79883 0.74024 0.77539 0.74022 0 0 0 1.5508 0 0.77482 0.73968 0 0 0 -0.75195 -0.74024z" fill="url(#d)"/>
 </g>
</svg>
