<?xml version="1.0" encoding="UTF-8" standalone="no"?>
<!-- Created with Inkscape (http://www.inkscape.org/) -->

<svg
   xmlns:dc="http://purl.org/dc/elements/1.1/"
   xmlns:cc="http://creativecommons.org/ns#"
   xmlns:rdf="http://www.w3.org/1999/02/22-rdf-syntax-ns#"
   xmlns:svg="http://www.w3.org/2000/svg"
   xmlns="http://www.w3.org/2000/svg"
   xmlns:xlink="http://www.w3.org/1999/xlink"
   xmlns:sodipodi="http://sodipodi.sourceforge.net/DTD/sodipodi-0.dtd"
   xmlns:inkscape="http://www.inkscape.org/namespaces/inkscape"
   version="1.1"
   width="24"
   height="24"
   id="svg12303"
   inkscape:version="0.91 r"
   sodipodi:docname="atom.svg">
  <sodipodi:namedview
     pagecolor="#ffffff"
     bordercolor="#666666"
     borderopacity="1"
     objecttolerance="10"
     gridtolerance="10"
     guidetolerance="10"
     inkscape:pageopacity="0"
     inkscape:pageshadow="2"
     inkscape:window-width="1280"
     inkscape:window-height="745"
     id="namedview31"
     showgrid="true"
     inkscape:zoom="13.906433"
     inkscape:cx="-8.8639615"
     inkscape:cy="8.9253874"
     inkscape:window-x="0"
     inkscape:window-y="30"
     inkscape:window-maximized="1"
     inkscape:current-layer="layer1">
    <inkscape:grid
       type="xygrid"
       id="grid11237" />
  </sodipodi:namedview>
  <defs
     id="defs12305">
    <linearGradient
       id="linearGradient11247"
       inkscape:collect="always">
      <stop
         id="stop11257"
         offset="0"
         style="stop-color:#ffffff;stop-opacity:1" />
      <stop
         id="stop11259"
         offset="1"
         style="stop-color:#cee7dd;stop-opacity:1" />
    </linearGradient>
    <linearGradient
       x1="71.204407"
       y1="6.2375584"
       x2="71.204407"
       y2="44.340794"
       id="linearGradient6351"
       xlink:href="#linearGradient4011-2"
       gradientUnits="userSpaceOnUse"
       gradientTransform="matrix(0.5135135,0,0,0.5135135,-24.83613,-9.02128)" />
    <linearGradient
       id="linearGradient4011-2">
      <stop
         id="stop4013-7"
         style="stop-color:#ffffff;stop-opacity:1"
         offset="0" />
      <stop
         id="stop4015-9"
         style="stop-color:#ffffff;stop-opacity:0.23529412"
         offset="0.507761" />
      <stop
         id="stop4017-5"
         style="stop-color:#ffffff;stop-opacity:0.15686275"
         offset="0.83456558" />
      <stop
         id="stop4019-6"
         style="stop-color:#ffffff;stop-opacity:0.39215687"
         offset="1" />
    </linearGradient>
    <radialGradient
       cx="6.0693989"
       cy="8.4497671"
       r="19.99999"
       fx="6.0693989"
       fy="8.4497671"
       id="radialGradient6358"
       xlink:href="#linearGradient2867-449-88-871-390-598-476-591-434-148-57-177-3-8-5"
       gradientUnits="userSpaceOnUse"
       gradientTransform="matrix(0,1.1468756,-1.2132576,-3.1216191e-8,22.2518,-14.94309)" />
    <linearGradient
       id="linearGradient2867-449-88-871-390-598-476-591-434-148-57-177-3-8-5">
      <stop
         id="stop3750-8-9-1"
         style="stop-color:#b1e198;stop-opacity:1"
         offset="0" />
      <stop
         id="stop3754-7-2-5"
         style="stop-color:#04a171;stop-opacity:1"
         offset="0.704952" />
      <stop
         id="stop3756-9-3-2"
         style="stop-color:#04a171;stop-opacity:1"
         offset="1" />
    </linearGradient>
    <linearGradient
       x1="24"
       y1="44"
       x2="24"
       y2="3.8990016"
       id="linearGradient6360"
       xlink:href="#linearGradient3707-319-631-407-324-3-8-4"
       gradientUnits="userSpaceOnUse"
       gradientTransform="matrix(0.53851149,0,0,0.53851149,-0.92427,-8.9242797)" />
    <linearGradient
       id="linearGradient3707-319-631-407-324-3-8-4">
      <stop
         id="stop3760-7-3-4"
         style="stop-color:#006344;stop-opacity:0.7"
         offset="0" />
      <stop
         id="stop3762-8-4-6"
         style="stop-color:#108562;stop-opacity:0.7"
         offset="1" />
    </linearGradient>
    <linearGradient
       id="linearGradient8838">
      <stop
         id="stop8840"
         style="stop-color:#000000;stop-opacity:1"
         offset="0" />
      <stop
         id="stop8842"
         style="stop-color:#000000;stop-opacity:0"
         offset="1" />
    </linearGradient>
    <radialGradient
       cx="62.625"
       cy="4.625"
       r="10.625"
       fx="62.625"
       fy="4.625"
       id="radialGradient12301"
       xlink:href="#linearGradient8838"
       gradientUnits="userSpaceOnUse"
       gradientTransform="matrix(1.0352941,0,0,0.2823525,-52.83529,11.69412)" />
    <linearGradient
       inkscape:collect="always"
       xlink:href="#linearGradient11247"
       id="linearGradient11253"
       x1="12"
       y1="-2"
       x2="12"
       y2="10"
       gradientUnits="userSpaceOnUse" />
  </defs>
  <metadata
     id="metadata12308">
    <rdf:RDF>
      <cc:Work
         rdf:about="">
        <dc:format>image/svg+xml</dc:format>
        <dc:type
           rdf:resource="http://purl.org/dc/dcmitype/StillImage" />
        <dc:title />
      </cc:Work>
    </rdf:RDF>
  </metadata>
  <g
     transform="translate(0,8)"
     id="layer1">
    <path
       d="m 23,13 c 0,1.65685 -4.92486,3 -11,3 -6.07514,0 -11,-1.34315 -11,-3 0,-1.65685 4.92486,-3 11,-3 6.07514,0 11,1.34315 11,3 l 0,0 z"
       inkscape:connector-curvature="0"
       id="path8836"
       style="opacity:0.3;fill:url(#radialGradient12301);fill-opacity:1;fill-rule:evenodd;stroke:none;stroke-width:0.99999988;marker:none;visibility:visible;display:inline;overflow:visible" />
    <path
       d="M 12,-6.4999997 C 6.20646,-6.4999997 1.5,-1.79354 1.5,4 1.5,9.79354 6.20646,14.5 12,14.5 17.79354,14.5 22.5,9.79354 22.5,4 22.5,-1.79354 17.79354,-6.4999997 12,-6.4999997 z"
       inkscape:connector-curvature="0"
       id="path2555-7-1"
       style="color:#000000;fill:url(#radialGradient6358);fill-opacity:1;fill-rule:nonzero;stroke:#006344;stroke-width:1;stroke-linecap:round;stroke-linejoin:round;stroke-miterlimit:4;stroke-opacity:0.7019608;stroke-dasharray:none;stroke-dashoffset:0;marker:none;visibility:visible;display:inline;overflow:visible;enable-background:accumulate;opacity:1" />
    <path
       d="M 21.5,3.99966 C 21.5,9.24654 17.24639,13.5 12.00012,13.5 6.75337,13.5 2.5,9.24649 2.5,3.99966 c 0,-5.24663 4.25337,-9.4996597 9.50012,-9.4996597 5.24627,0 9.49988,4.2530297 9.49988,9.4996597 l 0,0 z"
       inkscape:connector-curvature="0"
       id="path8655-6-6"
       style="opacity:0.5;color:#000000;fill:none;stroke:url(#linearGradient6351);stroke-width:0.99999988;stroke-linecap:round;stroke-linejoin:round;stroke-miterlimit:4;stroke-opacity:1;stroke-dasharray:none;stroke-dashoffset:0;marker:none;visibility:visible;display:inline;overflow:visible;enable-background:accumulate" />
    <path
       inkscape:connector-curvature="0"
       id="path11263"
       d="m 9.3671647,-1.1280055 c -0.1834026,0.013143 -0.3688684,0.059782 -0.5390625,0.14257807 -0.4541832,0.2209221 -0.7301184,0.665795 -0.8574219,1.16015624 C 7.8433769,0.66909001 7.8369321,1.2410168 7.9179463,1.8778538 7.9440066,2.082712 7.9945486,2.3046523 8.0390397,2.5223851 7.670572,2.6020092 7.319983,2.691486 7.0058366,2.7997288 6.4630584,2.9867495 6.0054634,3.2138597 5.6503679,3.5067597 c -0.3550956,0.292901 -0.6232464,0.681764 -0.6484376,1.140625 -0.023998,0.43712 0.1802127,0.840263 0.4765626,1.158204 0.2963498,0.31794 0.6934317,0.581069 1.171875,0.816406 A 0.50050731,0.50050731 0 1 0 7.0917741,5.7235567 C 6.6869723,5.5244427 6.3836365,5.3093947 6.2089616,5.1219947 6.0342867,4.9345937 5.9962883,4.8048417 6.0019303,4.7020727 c 0.00593,-0.108025 0.067017,-0.243896 0.2851563,-0.423828 0.2181395,-0.179933 0.578201,-0.372389 1.0449219,-0.533203 0.2800325,-0.096489 0.6066887,-0.178498 0.9550781,-0.251953 0.1320605,0.436872 0.2908837,0.885305 0.484375,1.347656 -0.5575593,1.010384 -0.9632507,1.988 -1.171875,2.853515 -0.1505439,0.624559 -0.2070953,1.192645 -0.1347656,1.697266 0.07233,0.504621 0.2992402,0.9780103 0.7285156,1.2441413 0.4072709,0.252488 0.8982402,0.266097 1.3730469,0.148437 0.4748065,-0.117659 0.9628225,-0.362231 1.4667965,-0.705078 a 0.50054901,0.50054901 0 1 0 -0.5625,-0.8281253 c -0.436514,0.296955 -0.8373637,0.486382 -1.1445309,0.5625 -0.3071672,0.076118 -0.4922618,0.04405 -0.6074219,-0.027344 -0.1210155,-0.075024 -0.2200433,-0.219101 -0.265625,-0.537109 -0.045582,-0.318009 -0.01139,-0.778783 0.1191407,-1.320313 0.1384462,-0.574369 0.3896185,-1.240234 0.7304687,-1.945312 0.048524,0.09502 0.087803,0.187895 0.1386719,0.283203 0.8397975,1.573445 1.8395515,2.882395 2.8183595,3.7519533 0.489403,0.434779 0.973051,0.762653 1.457031,0.951172 0.48398,0.188518 1.002928,0.23846 1.457031,0.01758 0.436788,-0.212461 0.709895,-0.635752 0.841797,-1.1054693 0.131902,-0.469716 0.148502,-1.010538 0.08398,-1.613281 -0.129045,-1.205485 -0.59332,-2.663936 -1.353516,-4.171875 a 0.50004997,0.50004997 0 1 0 -0.892578,0.449219 c 0.716141,1.420551 1.141281,2.796229 1.251953,3.830078 0.05534,0.516925 0.02858,0.946771 -0.05274,1.236328 -0.08131,0.289558 -0.190963,0.4135923 -0.316406,0.4746103 -0.130528,0.06349 -0.334622,0.07645 -0.65625,-0.04883 C 13.758423,9.9127307 13.352215,9.6510297 12.9238,9.2704317 12.06697,8.5092367 11.116281,7.2798827 10.324191,5.7958227 10.162989,5.4937957 10.023869,5.1944467 9.8886441,4.8973847 c 0.1671349,-0.282163 0.3395769,-0.564974 0.5332029,-0.849609 0.196797,-0.289297 0.400033,-0.567355 0.605469,-0.832031 0.03741,-3.66e-4 0.07175,-0.00379 0.109375,-0.00391 0.313482,-9.98e-4 0.635917,0.00698 0.964844,0.023437 1.747834,0.087446 3.314915,0.418886 4.394531,0.857422 0.539808,0.219268 0.955613,0.468688 1.203125,0.695312 0.247512,0.226625 0.307337,0.390332 0.300781,0.509766 -0.0057,0.103161 -0.05988,0.231969 -0.255859,0.402344 -0.195976,0.170375 -0.522988,0.355823 -0.949219,0.513672 a 0.50004997,0.50004997 0 1 0 0.347656,0.9375 c 0.502973,-0.186265 0.928378,-0.410863 1.257813,-0.697262 0.329435,-0.286399 0.573621,-0.663773 0.597656,-1.101563 0.02778,-0.506095 -0.242955,-0.954718 -0.623047,-1.302734 -0.380091,-0.348016 -0.888653,-0.633692 -1.501953,-0.882812 -1.2266,-0.498241 -2.878918,-0.8375412 -4.720703,-0.9296879 -0.09578,-0.00479 -0.188154,-0.00431 -0.283203,-0.00781 0.361453,-0.3899575 0.723642,-0.74382 1.072265,-1.0332031 0.8237,-0.68373049 1.594138,-1.03564519 2.011719,-1.05078129 0.154441,-0.00559 0.25275,0.023583 0.328125,0.0703126 0.113324,0.0702557 0.206804,0.1969986 0.257813,0.4785156 0.05101,0.281517 0.03788,0.69193719 -0.0625,1.17968749 a 0.50004997,0.50004997 0 1 0 0.978515,0.203125 c 0.117875,-0.572727 0.15279,-1.09457249 0.06836,-1.56054689 -0.08443,-0.4659744 -0.312273,-0.90081364 -0.714844,-1.15039064 -0.268557,-0.1664944 -0.580994,-0.2319195 -0.890625,-0.2207032 -0.835408,0.030281 -1.701853,0.5230776 -2.615235,1.28125004 C 11.716889,0.91295631 11.120977,1.5310354 10.542941,2.2333251 10.012889,2.2523411 9.5016455,2.2891341 9.0234097,2.3524632 8.9802627,2.1470496 8.9338847,1.9376456 8.9101285,1.7509007 8.8399305,1.1990841 8.8589075,0.73740431 8.9394255,0.42472881 c 0.080517,-0.3126755 0.1957236,-0.44826654 0.3261719,-0.51171874 0.049042,-0.023858 0.1001977,-0.037832 0.171875,-0.042969 0.2628526,-0.01882 0.7804616,0.16962974 1.3652336,0.63281254 a 0.50004997,0.50004997 0 1 0 0.621099,-0.78320294 C 10.73707,-0.82429423 10.06242,-1.1777858 9.3671647,-1.1280055 Z m 0.375,4.4101562 c -0.048491,0.06916 -0.09857,0.13269 -0.1464844,0.203125 -0.062184,0.091412 -0.1121402,0.182086 -0.171875,0.273437 -0.052193,-0.146616 -0.093778,-0.285533 -0.1386718,-0.427734 0.1489974,-0.018356 0.3013811,-0.034736 0.4570312,-0.048828 z m 2.3242183,1.066406 a 0.7748215,0.73968031 0 0 0 -0.798828,0.740235 0.775391,0.74022398 0 0 0 1.550782,0 0.7748215,0.73968031 0 0 0 -0.751954,-0.740235 z"
       style="color:#000000;font-style:normal;font-variant:normal;font-weight:normal;font-stretch:normal;font-size:medium;line-height:normal;font-family:sans-serif;text-indent:0;text-align:start;text-decoration:none;text-decoration-line:none;text-decoration-style:solid;text-decoration-color:#000000;letter-spacing:normal;word-spacing:normal;text-transform:none;direction:ltr;block-progression:tb;writing-mode:lr-tb;baseline-shift:baseline;text-anchor:start;white-space:normal;clip-rule:nonzero;display:inline;overflow:visible;visibility:visible;opacity:0.15;isolation:auto;mix-blend-mode:normal;color-interpolation:sRGB;color-interpolation-filters:linearRGB;solid-color:#000000;solid-opacity:1;fill:#000000;fill-opacity:1;fill-rule:nonzero;stroke:none;stroke-width:0.99999994;stroke-linecap:round;stroke-linejoin:miter;stroke-miterlimit:4;stroke-dasharray:none;stroke-dashoffset:0;stroke-opacity:1;color-rendering:auto;image-rendering:auto;shape-rendering:auto;text-rendering:auto;enable-background:accumulate" />
    <path
       style="color:#000000;font-style:normal;font-variant:normal;font-weight:normal;font-stretch:normal;font-size:medium;line-height:normal;font-family:sans-serif;text-indent:0;text-align:start;text-decoration:none;text-decoration-line:none;text-decoration-style:solid;text-decoration-color:#000000;letter-spacing:normal;word-spacing:normal;text-transform:none;direction:ltr;block-progression:tb;writing-mode:lr-tb;baseline-shift:baseline;text-anchor:start;white-space:normal;clip-rule:nonzero;display:inline;overflow:visible;visibility:visible;opacity:1;isolation:auto;mix-blend-mode:normal;color-interpolation:sRGB;color-interpolation-filters:linearRGB;solid-color:#000000;solid-opacity:1;fill:url(#linearGradient11253);fill-opacity:1;fill-rule:nonzero;stroke:none;stroke-width:0.99999994;stroke-linecap:round;stroke-linejoin:miter;stroke-miterlimit:4;stroke-dasharray:none;stroke-dashoffset:0;stroke-opacity:1;color-rendering:auto;image-rendering:auto;shape-rendering:auto;text-rendering:auto;enable-background:accumulate"
       d="m 9.3671647,-2.1281728 c -0.1834026,0.013143 -0.3688684,0.059782 -0.5390625,0.1425781 -0.4541832,0.2209221 -0.7301184,0.665795 -0.8574219,1.16015624 -0.1273034,0.4943612 -0.1337482,1.066288 -0.052734,1.703125 C 7.9440066,1.0825447 7.9945486,1.304485 8.0390397,1.5222178 7.670572,1.6018419 7.319983,1.6913187 7.0058366,1.7995615 6.4630584,1.9865822 6.0054634,2.2136924 5.6503679,2.5065924 c -0.3550956,0.292901 -0.6232464,0.681764 -0.6484376,1.140625 -0.023998,0.43712 0.1802127,0.840263 0.4765626,1.158204 0.2963498,0.31794 0.6934317,0.581069 1.171875,0.816406 A 0.50050731,0.50050731 0 1 0 7.0917741,4.7233894 C 6.6869723,4.5242754 6.3836365,4.3092274 6.2089616,4.1218274 6.0342867,3.9344264 5.9962883,3.8046744 6.0019303,3.7019054 c 0.00593,-0.108025 0.067017,-0.243896 0.2851563,-0.423828 0.2181395,-0.179933 0.578201,-0.372389 1.0449219,-0.533203 0.2800325,-0.096489 0.6066887,-0.178498 0.9550781,-0.251953 0.1320605,0.436872 0.2908837,0.885305 0.484375,1.347656 -0.5575593,1.010384 -0.9632507,1.988 -1.171875,2.853515 -0.1505439,0.624559 -0.2070953,1.192645 -0.1347656,1.697266 0.07233,0.504621 0.2992402,0.97801 0.7285156,1.244141 0.4072709,0.252488 0.8982402,0.266097 1.3730469,0.148437 0.4748065,-0.117659 0.9628225,-0.362231 1.4667965,-0.705078 a 0.50054901,0.50054901 0 1 0 -0.5625,-0.828125 c -0.436514,0.296955 -0.8373637,0.486382 -1.1445309,0.5625 -0.3071672,0.076118 -0.4922618,0.04405 -0.6074219,-0.027344 -0.1210155,-0.075024 -0.2200433,-0.219101 -0.265625,-0.537109 -0.045582,-0.318009 -0.01139,-0.778783 0.1191407,-1.320313 0.1384462,-0.574369 0.3896185,-1.240234 0.7304687,-1.945312 0.048524,0.09502 0.087803,0.187895 0.1386719,0.283203 0.8397975,1.573445 1.8395515,2.882395 2.8183595,3.751953 0.489403,0.434779 0.973051,0.762653 1.457031,0.951172 0.48398,0.1885186 1.002928,0.2384606 1.457031,0.017578 0.436788,-0.212461 0.709895,-0.635752 0.841797,-1.105469 0.131902,-0.469716 0.148502,-1.010538 0.08398,-1.613281 -0.129045,-1.205485 -0.59332,-2.663936 -1.353516,-4.171875 a 0.50004997,0.50004997 0 1 0 -0.892578,0.449219 c 0.716141,1.420551 1.141281,2.796229 1.251953,3.830078 0.05534,0.516925 0.02858,0.946771 -0.05274,1.236328 -0.08131,0.289558 -0.190963,0.413592 -0.316406,0.47461 -0.130528,0.063491 -0.334622,0.07645 -0.65625,-0.048829 -0.321622,-0.125279 -0.72783,-0.38698 -1.156245,-0.767578 -0.85683,-0.761195 -1.807519,-1.990549 -2.599609,-3.474609 -0.161202,-0.302027 -0.300322,-0.601376 -0.4355469,-0.898438 0.1671349,-0.282163 0.3395769,-0.564974 0.5332029,-0.849609 0.196797,-0.289297 0.400033,-0.567355 0.605469,-0.832031 0.03741,-3.66e-4 0.07175,-0.00379 0.109375,-0.00391 0.313482,-9.98e-4 0.635917,0.00698 0.964844,0.023437 1.747834,0.087446 3.314915,0.418886 4.394531,0.857422 0.539808,0.219268 0.955613,0.468688 1.203125,0.695312 0.247512,0.226625 0.307337,0.390332 0.300781,0.509766 -0.0057,0.103161 -0.05988,0.231969 -0.255859,0.402344 -0.195976,0.170375 -0.522988,0.355823 -0.949219,0.513672 a 0.50004997,0.50004997 0 1 0 0.347656,0.9375 c 0.502973,-0.186265 0.928378,-0.410863 1.257813,-0.697262 0.329435,-0.286399 0.573621,-0.663773 0.597656,-1.101563 0.02778,-0.506095 -0.242955,-0.954718 -0.623047,-1.302734 -0.380091,-0.348016 -0.888653,-0.633692 -1.501953,-0.882812 -1.2266,-0.498241 -2.878918,-0.8375412 -4.720703,-0.9296879 -0.09578,-0.00479 -0.188154,-0.00431 -0.283203,-0.00781 0.361453,-0.38995746 0.723642,-0.74381996 1.072265,-1.03320306 0.8237,-0.6837305 1.594138,-1.0356452 2.011719,-1.0507813 0.154441,-0.00559 0.25275,0.023583 0.328125,0.0703126 0.113324,0.0702557 0.206804,0.1969986 0.257813,0.4785156 0.05101,0.281517 0.03788,0.6919372 -0.0625,1.1796875 a 0.50004997,0.50004997 0 1 0 0.978515,0.20312496 c 0.117875,-0.57272696 0.15279,-1.09457246 0.06836,-1.56054686 -0.08443,-0.4659744 -0.312273,-0.90081364 -0.714844,-1.15039064 -0.268557,-0.1664944 -0.580994,-0.2319195 -0.890625,-0.2207032 -0.835408,0.030281 -1.701853,0.5230776 -2.615235,1.28125004 -0.585817,0.4862719 -1.181729,1.104351 -1.759765,1.80664066 -0.530052,0.019016 -1.0412955,0.055809 -1.5195313,0.1191381 -0.043147,-0.2054136 -0.089525,-0.41481756 -0.1132812,-0.60156246 -0.070198,-0.5518166 -0.051221,-1.0134964 0.029297,-1.3261719 0.080517,-0.3126755 0.1957236,-0.44826654 0.3261719,-0.51171874 0.049042,-0.023858 0.1001977,-0.037832 0.171875,-0.042969 0.2628526,-0.01882 0.7804618,0.16962974 1.3652338,0.63281254 A 0.50004997,0.50004997 0 1 0 11.423805,-1.2805166 C 10.73707,-1.8244615 10.06242,-2.1779531 9.3671647,-2.1281728 Z m 0.375,4.4101562 c -0.048491,0.06916 -0.09857,0.13269 -0.1464844,0.203125 -0.062184,0.091412 -0.1121402,0.182086 -0.171875,0.273437 -0.052193,-0.146616 -0.093778,-0.285533 -0.1386718,-0.427734 0.1489974,-0.018356 0.3013811,-0.034736 0.4570312,-0.048828 z m 2.3242183,1.066406 a 0.7748215,0.73968031 0 0 0 -0.798828,0.740235 0.775391,0.74022398 0 0 0 1.550782,0 0.7748215,0.73968031 0 0 0 -0.751954,-0.740235 z"
       id="path4"
       inkscape:connector-curvature="0" />
  </g>
</svg>
