<?xml version="1.0" encoding="UTF-8" standalone="no"?>
<svg xmlns:rdf="http://www.w3.org/1999/02/22-rdf-syntax-ns#" xmlns="http://www.w3.org/2000/svg" height="24" width="24" version="1.1" xmlns:cc="http://creativecommons.org/ns#" xmlns:xlink="http://www.w3.org/1999/xlink" xmlns:dc="http://purl.org/dc/elements/1.1/">
 <defs>
  <linearGradient id="c" y2="44.341" gradientUnits="userSpaceOnUse" x2="71.204" gradientTransform="matrix(.51351 0 0 .51351 -24.836 -9.0213)" y1="6.2376" x1="71.204">
   <stop stop-color="#fff" offset="0"/>
   <stop stop-color="#fff" stop-opacity=".23529" offset=".50776"/>
   <stop stop-color="#fff" stop-opacity=".15686" offset=".83457"/>
   <stop stop-color="#fff" stop-opacity=".39216" offset="1"/>
  </linearGradient>
  <radialGradient id="a" gradientUnits="userSpaceOnUse" cy="8.4498" cx="-.049621" gradientTransform="matrix(5.0751e-7 2.9112 -3.15 1.4994e-8 38.617 -14.856)" r="20">
   <stop stop-color="#ffcd7d" offset="0"/>
   <stop stop-color="#fc8f36" offset=".26238"/>
   <stop stop-color="#e23a0e" offset=".70495"/>
   <stop stop-color="#ac441f" offset="1"/>
  </radialGradient>
  <radialGradient id="b" gradientUnits="userSpaceOnUse" cy="4.625" cx="62.625" gradientTransform="matrix(1.0353 0 0 .28235 -52.835 11.694)" r="10.625">
   <stop offset="0"/>
   <stop stop-opacity="0" offset="1"/>
  </radialGradient>
  <linearGradient id="d" y2="19.525" gradientUnits="userSpaceOnUse" x2="12.71" y1="5" x1="12.71">
   <stop stop-color="#fff5ef" offset="0"/>
   <stop stop-color="#fef8dd" offset="1"/>
  </linearGradient>
 </defs>
 <g transform="translate(0,8)">
  <path opacity=".3" d="m23 13c0 1.6568-4.9249 3-11 3s-11-1.3432-11-3 4.9249-3 11-3 11 1.3432 11 3z" fill-rule="evenodd" fill="url(#b)"/>
  <path stroke-linejoin="round" style="color:#000000" d="m12-6.5c-5.7935 0-10.5 4.7065-10.5 10.5s4.7065 10.5 10.5 10.5c5.794 0 10.5-4.7065 10.5-10.5s-4.706-10.5-10.5-10.5z" stroke-opacity=".38835" stroke="#640000" stroke-linecap="round" fill="url(#a)"/>
  <path opacity=".5" stroke-linejoin="round" style="color:#000000" d="m21.5 3.9997c0 5.2468-4.254 9.5003-9.5 9.5003-5.2466 0-9.5-4.2535-9.5-9.5003 0-5.2466 4.2534-9.4997 9.5001-9.4997 5.2463 0 9.4999 4.253 9.4999 9.4997v0z" stroke="url(#c)" stroke-linecap="round" fill="none"/>
  <path opacity=".3" style="color-rendering:auto;text-decoration-color:#000000;color:#000000;isolation:auto;mix-blend-mode:normal;shape-rendering:auto;solid-color:#000000;block-progression:tb;text-decoration-line:none;text-decoration-style:solid;image-rendering:auto;white-space:normal;text-indent:0;text-transform:none" d="m11.025-2.0334-0.527 1.9434-2.2695-0.60161-0.5117 1.9336 2.2578 0.5976-1.3652 5.0332-2.2715-0.6015-0.5098 1.9336 2.2578 0.5976-0.5234 1.9295 1.9297 0.524 0.5278-1.9418 1.003 0.2657-0.523 1.9301 1.93 0.523 0.529-1.949c0.79907 0.18832 1.5955 0.0491 2.1875-0.33594 0.61238-0.39829 1.0087-1.0063 1.1855-1.6582 0.16595-0.61169 0.13599-1.2849-0.14062-1.9043 0.55166-0.3973 0.91961-0.96308 1.0859-1.5762 0.17687-0.65194 0.14155-1.3755-0.18945-2.0273-0.31835-0.62696-0.93874-1.1415-1.7207-1.375l0.52539-1.9395-1.9297-0.52344-0.52734 1.9414-1.0039-0.26562 0.52344-1.9297-1.9297-0.52344zm0.88281 4.3848 2.8574 0.75586c0.34837 0.092192 0.4597 0.2226 0.53906 0.37891 0.07936 0.1563 0.10026 0.38124 0.04101 0.59961-0.05924 0.21837-0.19158 0.40494-0.34375 0.50391s-0.32155 0.15664-0.66992 0.064453l-2.845-0.7521 0.422-1.5507zm-0.94531 3.4805 2.8574 0.75586c0.34837 0.092192 0.4597 0.22456 0.53906 0.38086 0.07937 0.1563 0.10221 0.37929 0.04297 0.59766s-0.19354 0.40494-0.3457 0.50391c-0.15217 0.09897-0.3196 0.1586-0.66797 0.066407l-2.845-0.752 0.42-1.5528z" fill-rule="evenodd" fill="#ae2109"/>
  <path opacity=".15" style="color-rendering:auto;text-decoration-color:#000000;color:#000000;isolation:auto;mix-blend-mode:normal;shape-rendering:auto;solid-color:#000000;block-progression:tb;text-decoration-line:none;text-decoration-style:solid;image-rendering:auto;white-space:normal;text-indent:0;text-transform:none" d="m10.99-3.0332a1.0001 1.0001 0 0 0 -0.92969 0.73828l-0.267 0.9844-1.3086-0.3477a1.0001 1.0001 0 0 0 -1.2227 0.71093l-0.5117 1.9336a1.0001 1.0001 0 0 0 0.7109 1.2227l1.2852 0.3398-0.8418 3.1035-1.3105-0.3476a1.0001 1.0001 0 0 0 -1.2227 0.7109l-0.5098 1.9336a1.0001 1.0001 0 0 0 0.711 1.2227l1.2851 0.3398-0.2597 0.9593a1.0001 1.0001 0 0 0 0.70312 1.2266l1.9297 0.52344a1.0001 1.0001 0 0 0 0.55664 -0.01172 1.0001 1.0001 0 0 0 0.45117 0.26562l1.9297 0.52344a1.0001 1.0001 0 0 0 1.2266 -0.70312l0.32422-1.1973c0.7085-0.0091 1.3967-0.13714 1.9727-0.51172 0.83697-0.54437 1.3709-1.3698 1.6055-2.2344 0.16474-0.60723 0.01011-1.264-0.14258-1.9062 0.455-0.4777 0.922-0.9649 1.087-1.5746 0.235-0.8648 0.192-1.8496-0.262-2.7422-0.309-0.6099-0.839-1.0609-1.443-1.4199l0.32031-1.1797a1.0001 1.0001 0 0 0 -0.703 -1.2266l-1.9297-0.52344a1.0001 1.0001 0 0 0 -0.55664 0.00977 1.0001 1.0001 0 0 0 -0.45117 -0.26367l-1.9297-0.52344a1.0001 1.0001 0 0 0 -0.29688 -0.035156zm3.6758 3.0039-0.26367 0.97461a1.0001 1.0001 0 0 0 0.598 1.1895l-1.82-0.4825a1.0001 1.0001 0 0 0 1.2207 -0.70508l0.26562-0.97656zm-3.203 0.20118a1.0001 1.0001 0 0 0 0.71289 1.2148l-0.01172-0.00195a1.0001 1.0001 0 0 0 -1.221 0.7031 1.0001 1.0001 0 0 0 -0.695 -1.209 1.0001 1.0001 0 0 0 1.215 -0.70702zm3.5664 1.9746a1.0001 1.0001 0 0 0 0.05078 0.017578c0.45985 0.13734 0.75216 0.44577 0.95898 0.74805-0.20453-0.28274-0.56113-0.64318-1.0098-0.76562zm-4.5117 1.5117a1.0001 1.0001 0 0 0 0.69922 1.207 1.0001 1.0001 0 0 0 -1.2012 0.64258l0.50195-1.8496zm5.7383 0.060547c0.01379 0.21295 0.11372 0.41852 0.05664 0.62891-0.10946 0.40347-0.34764 0.76797-0.70508 1.0254a1.0001 1.0001 0 0 0 -0.05078 0.041016c0.40181-0.26682 0.63534-0.62936 0.75391-1.0664 0.05755-0.21208-0.04306-0.4199-0.05469-0.62891zm-0.71875 1.7109a1.0001 1.0001 0 0 0 -0.288 1.0821c-0.149-0.2899-0.648-0.7518-1.172-0.8906 0.522 0.1382 1.17-0.0061 1.461-0.1914zm-0.282 1.1016a1.0001 1.0001 0 0 0 0.02344 0.0625c0.17759 0.39767 0.19929 0.83097 0.08984 1.2344 0.11984-0.44173 0.09758-0.87227-0.11328-1.2969zm-5.6759 0.5918a1.0001 1.0001 0 0 0 0.69531 1.2246 1.0001 1.0001 0 0 0 -1.2188 0.70508l-0.00391 0.011719a1.0001 1.0001 0 0 0 -0.6913 -1.2226 1.0001 1.0001 0 0 0 1.2148 -0.707l0.00391-0.011719zm1.7188 1.4961 1.791 0.47266a1.0001 1.0001 0 0 0 -1.0938 0.73047l-0.0059 0.019531a1.0001 1.0001 0 0 0 -0.691 -1.2227zm3.3047 0.28906c-0.000466 0.0003038 0.000467 0.00165 0 0.00195-0.34072 0.22161-0.8665 0.33022-1.4141 0.20117a1.0001 1.0001 0 0 0 -0.04492 -0.00977c0.52628 0.13492 1.1815-0.012897 1.459-0.19336z" fill-rule="evenodd" fill="#ae2109"/>
  <path style="color-rendering:auto;text-decoration-color:#000000;color:#000000;isolation:auto;mix-blend-mode:normal;shape-rendering:auto;solid-color:#000000;block-progression:tb;text-decoration-line:none;text-decoration-style:solid;image-rendering:auto;white-space:normal;text-indent:0;text-transform:none" d="m11.025 4.9668l-0.527 1.9434-2.2695-0.6016-0.5117 1.9336 2.2578 0.5976-1.3652 5.0332-2.2715-0.602-0.5098 1.934 2.2578 0.598-0.5234 1.929 1.9297 0.524 0.5278-1.942 1.003 0.266-0.523 1.93 1.93 0.523 0.529-1.949c0.799 0.188 1.595 0.049 2.187-0.336 0.613-0.398 1.009-1.006 1.186-1.658 0.166-0.612 0.136-1.285-0.141-1.904 0.552-0.398 0.92-0.964 1.086-1.577 0.177-0.652 0.142-1.375-0.189-2.027-0.318-0.6269-0.939-1.1414-1.721-1.375l0.526-1.9394-1.93-0.5235-0.527 1.9414-1.004-0.2656 0.523-1.9297-1.93-0.5234zm0.883 4.3848l2.858 0.7554c0.348 0.093 0.459 0.223 0.539 0.379 0.079 0.157 0.1 0.382 0.041 0.6-0.06 0.218-0.192 0.405-0.344 0.504s-0.322 0.156-0.67 0.064l-2.846-0.752 0.422-1.5504zm-0.945 3.4804l2.857 0.756c0.349 0.092 0.46 0.224 0.539 0.381 0.08 0.156 0.103 0.379 0.043 0.597-0.059 0.219-0.193 0.405-0.345 0.504-0.153 0.099-0.32 0.159-0.668 0.067l-2.846-0.752 0.42-1.553z" fill-rule="evenodd" transform="translate(0,-8)" fill="url(#d)"/>
 </g>
</svg>
