<?xml version="1.0" encoding="UTF-8" standalone="no"?>
<svg xmlns:rdf="http://www.w3.org/1999/02/22-rdf-syntax-ns#" xmlns="http://www.w3.org/2000/svg" height="24" width="24" version="1.1" xmlns:cc="http://creativecommons.org/ns#" xmlns:xlink="http://www.w3.org/1999/xlink" xmlns:dc="http://purl.org/dc/elements/1.1/">
 <defs>
  <linearGradient id="d" y2="43" gradientUnits="userSpaceOnUse" x2="24" gradientTransform="matrix(.45946 0 0 .45946 .97422 .97173)" y1="5" x1="24">
   <stop stop-color="#fff" offset="0"/>
   <stop stop-color="#fff" stop-opacity=".23529" offset=".063165"/>
   <stop stop-color="#fff" stop-opacity=".15686" offset=".95056"/>
   <stop stop-color="#fff" stop-opacity=".39216" offset="1"/>
  </linearGradient>
  <radialGradient id="a" gradientUnits="userSpaceOnUse" cy="8.4498" cx="6.8875" gradientTransform="matrix(0 1.0896 -1.2044 -2.3433e-8 22.177 -5.2976)" r="20">
   <stop stop-color="#f8de97" offset="0"/>
   <stop stop-color="#f6ce68" offset=".26238"/>
   <stop stop-color="#f4ba27" offset=".70495"/>
   <stop stop-color="#d89e0c" offset="1"/>
  </radialGradient>
  <radialGradient id="c" gradientUnits="userSpaceOnUse" cy="43.5" cx="4.993" gradientTransform="matrix(2.0038 0 0 1.4 27.988 -17.4)" r="2.5">
   <stop stop-color="#181818" offset="0"/>
   <stop stop-color="#181818" stop-opacity="0" offset="1"/>
  </radialGradient>
  <radialGradient id="b" gradientUnits="userSpaceOnUse" cy="43.5" cx="4.993" gradientTransform="matrix(2.0038 0 0 1.4 -20.012 -104.4)" r="2.5">
   <stop stop-color="#181818" offset="0"/>
   <stop stop-color="#181818" stop-opacity="0" offset="1"/>
  </radialGradient>
  <linearGradient id="e" y2="39.999" gradientUnits="userSpaceOnUse" x2="25.058" y1="47.028" x1="25.058">
   <stop stop-color="#181818" stop-opacity="0" offset="0"/>
   <stop stop-color="#181818" offset=".5"/>
   <stop stop-color="#181818" stop-opacity="0" offset="1"/>
  </linearGradient>
  <linearGradient id="f" y2="22" gradientUnits="userSpaceOnUse" x2="9" y1="2" x1="9">
   <stop stop-color="#dca10b" offset="0"/>
   <stop stop-color="#b98809" offset="1"/>
  </linearGradient>
 </defs>
 <g transform="matrix(.55 0 0 .33333 -1.2 7.3333)">
  <g opacity=".4" transform="matrix(1.0526 0 0 1.2857 -1.2632 -13.429)">
   <rect height="7" width="5" y="40" x="38" fill="url(#c)"/>
   <rect transform="scale(-1)" height="7" width="5" y="-47" x="-10" fill="url(#b)"/>
   <rect height="7" width="28" y="40" x="10" fill="url(#e)"/>
  </g>
 </g>
 <rect stroke-linejoin="round" height="19" stroke="url(#f)" stroke-linecap="round" fill="url(#a)" style="color:#000000" rx="1" ry="1" width="19" y="2.5" x="2.5"/>
 <rect opacity=".5" stroke-linejoin="round" height="17" width="17" stroke="url(#d)" stroke-linecap="round" y="3.4988" x="3.5012" fill="none"/>
 <path opacity=".15" d="m12 6c-2.7555 0-5 2.2445-5 5v0.002c0.00276 1.9684 1.2318 3.651 3 4.4551v0.54297 1 2h1v1h2v-1h1v-2-1-0.54297c1.769-0.8038 2.9972-2.4862 3-4.4551v-0.002c0-2.7555-2.2445-5-5-5zm0 1c2.2151 0 4 1.7849 4 4-0.0024 1.6948-1.0681 3.2007-2.666 3.7656l-0.33398 0.11719v1.1172h-2v-1.1172l-0.33203-0.11719c-1.5979-0.565-2.6656-2.071-2.668-3.766-1e-7 -2.2151 1.7849-4 4-4zm-1 10h2v1h-2v-1z"/>
 <path d="m12 5c-2.7555 0-5 2.2445-5 5v0.002c0.00276 1.9684 1.2318 3.651 3 4.4551v0.54297 1 2h1v1h2v-1h1v-2-1-0.54297c1.769-0.8038 2.9972-2.4862 3-4.4551v-0.002c0-2.7555-2.2445-5-5-5zm0 1c2.2151 0 4 1.7849 4 4-0.0024 1.6948-1.0681 3.2007-2.666 3.7656l-0.33398 0.11719v1.1172h-2v-1.1172l-0.33203-0.11719c-1.5979-0.565-2.6656-2.071-2.668-3.766-1e-7 -2.2151 1.7849-4 4-4zm-1 10h2v1h-2v-1z" fill="#fff"/>
</svg>
