<?xml version="1.0" encoding="UTF-8" standalone="no"?>
<svg xmlns:rdf="http://www.w3.org/1999/02/22-rdf-syntax-ns#" xmlns="http://www.w3.org/2000/svg" height="24" width="24" version="1.1" xmlns:cc="http://creativecommons.org/ns#" xmlns:xlink="http://www.w3.org/1999/xlink" xmlns:dc="http://purl.org/dc/elements/1.1/">
 <defs>
  <radialGradient id="b" gradientUnits="userSpaceOnUse" cy="4.625" cx="62.625" gradientTransform="matrix(1.0353 0 0 .28235 -52.835 11.694)" r="10.625">
   <stop offset="0"/>
   <stop stop-opacity="0" offset="1"/>
  </radialGradient>
  <radialGradient id="a" gradientUnits="userSpaceOnUse" cy="4.3419" cx="32" gradientTransform="matrix(0 1.3006 -1.3006 0 94.036 165.84)" r="27.5">
   <stop stop-color="#fafafa" offset="0"/>
   <stop stop-color="#e1e1e1" offset="1"/>
  </radialGradient>
  <radialGradient id="d" xlink:href="#a" gradientUnits="userSpaceOnUse" cy="-47.109" cx="27.391" gradientTransform="matrix(.28621 -.00076068 -.00070088 -.26768 4.1275 -8.5893)" r="55.725"/>
  <linearGradient id="g" y2="-7" gradientUnits="userSpaceOnUse" x2="12" gradientTransform="matrix(.646 0 0 .66699 138.71 200.99)" y1="16" x1="12">
   <stop stop-opacity=".32174" offset="0"/>
   <stop stop-opacity=".27826" offset="1"/>
  </linearGradient>
  <radialGradient id="c" xlink:href="#a" gradientUnits="userSpaceOnUse" cy="-6" cx="12" gradientTransform="matrix(0 1.9535 -1.8605 0 .83721 -29.442)" r="10.75"/>
  <linearGradient id="f" y2="14.588" gradientUnits="userSpaceOnUse" x2="12" gradientTransform="matrix(1.2936 0 0 -1.2936 -51.268 -190.13)" y1="-6" x1="12">
   <stop stop-color="#fff" offset="0"/>
   <stop stop-color="#fff" stop-opacity=".23529" offset=".42448"/>
   <stop stop-color="#fff" stop-opacity=".15686" offset=".8209"/>
   <stop stop-color="#fff" stop-opacity=".39216" offset="1"/>
  </linearGradient>
  <linearGradient id="e" y2="12" gradientUnits="userSpaceOnUse" x2="12" y1="-4" x1="12">
   <stop stop-color="#60d36b" offset="0"/>
   <stop stop-color="#27b43d" offset="1"/>
  </linearGradient>
 </defs>
 <g transform="translate(0,8)">
  <path opacity=".3" d="m23 13c0 1.6568-4.9249 3-11 3s-11-1.3432-11-3 4.9249-3 11-3 11 1.3432 11 3z" fill-rule="evenodd" fill="url(#b)"/>
  <path style="color:#000000" d="m12-6.5c-5.7935 0-10.5 4.7065-10.5 10.5 0 1.9881 0.5632 3.8419 1.5254 5.4277l-2.0254 5.5723 5.9121-1.82c1.5085 0.839 3.2419 1.32 5.0879 1.32 5.794 0 10.5-4.7065 10.5-10.5s-4.706-10.5-10.5-10.5z" fill="url(#c)"/>
  <path style="color:#000000" d="m12-6.5c-5.7935 0-10.5 4.7065-10.5 10.5 0 1.9881 0.5632 3.8419 1.5254 5.4277l-2.0254 5.5723 5.9121-1.82c1.5085 0.839 3.2419 1.32 5.0879 1.32 5.794 0 10.5-4.7065 10.5-10.5s-4.706-10.5-10.5-10.5z" stroke="url(#g)" stroke-linecap="round" fill="none"/>
  <path style="color:#000000" d="m12-5.5c-5.252 0-9.5 4.248-9.5 9.5 0 1.7992 0.50822 3.4699 1.3809 4.9082l0.248 0.4104-1.5039 4.1346 4.4004-1.355 0.373 0.209c1.3662 0.759 2.9286 1.193 4.6016 1.193 5.252 0 9.5-4.248 9.5-9.5s-4.248-9.5-9.5-9.5z" stroke="url(#f)" stroke-linecap="round" fill="none"/>
  <path style="color:#000000" d="m12-4c-4.4431 0-8 3.5569-8 8 0 1.5167 0.4247 2.9122 1.1641 4.1309l0.61914 1.0254-0.7168 1.9746 2.1309-0.65625 0.92969 0.52148 0.0039 0.002c1.1523 0.64 2.4571 1.002 3.8691 1.002 4.4431 0 8-3.5569 8-8s-3.5569-8-8-8z" fill="url(#e)"/>
  <path opacity=".05" style="color:#000000" d="m12 4c-4.4431 0-8 3.5569-8 8 0 0.337 0.0295 0.666 0.0703 0.99 0.4922-3.9588 3.8297-6.99 7.9297-6.99 4.103 0 7.444 3.0361 7.932 7 0.04-0.328 0.068-0.66 0.068-1 0-4.4431-3.557-8-8-8zm-6.6699 14.406l-0.2637 0.725 0.5918-0.182-0.3281-0.543z" transform="translate(0,-8)"/>
  <path opacity=".15" style="color:#000000" d="m12 4c-4.4431 0-8 3.5569-8 8 0 0.142 0.022 0.276 0.0293 0.416 0.2967-4.1657 3.7248-7.416 7.9707-7.416 4.274 0 7.718 3.2943 7.975 7.5 0.01-0.166 0.025-0.331 0.025-0.5 0-4.4431-3.557-8-8-8zm-6.4434 13.781l-0.4902 1.35 0.4082-0.125 0.3086-0.85-0.2266-0.375z" transform="translate(0,-8)"/>
  <path opacity=".05" d="m9.3777 0.45692c-0.1735-0.42114-0.3064-0.43541-0.5744-0.44824-0.0919-0.00444-0.1915-0.00868-0.3006-0.00868-0.3452 3.5271e-8 -0.7031 0.10242-0.9188 0.32471-0.2625 0.2705-0.9189 0.90409-0.9189 2.2051 0 1.3011 0.94072 2.5584 1.0718 2.735 0.13145 0.17629 1.8347 2.8853 4.4847 3.9914 2.0685 0.86302 2.6826 0.78626 3.1545 0.6822 0.68663-0.15102 1.5488-0.66031 1.7676-1.2776 0.21876-0.61759 0.21876-1.1468 0.15318-1.2569-0.066-0.1104-0.241-0.1764-0.503-0.309-0.263-0.1322-1.554-0.7719-1.794-0.86-0.241-0.0882-0.464-0.0613-0.649 0.1966-0.255 0.3562-0.501 0.7221-0.704 0.9391-0.16 0.1703-0.417 0.1941-0.638 0.0996-0.29-0.1247-1.108-0.4118-2.111-1.3126-0.78-0.7006-1.3073-1.5663-1.4605-1.8311-0.1532-0.2645-0.0135-0.4223 0.1045-0.5662 0.1346-0.1642 0.2588-0.2822 0.3901-0.4364 0.13126-0.15449 0.20459-0.23685 0.2921-0.41352 0.0875-0.17629 0.02862-0.35817-0.03705-0.49058-0.06577-0.13251-0.59137-1.4333-0.80946-1.9629" fill-rule="evenodd" stroke="#000" stroke-width="2"/>
  <path opacity=".15" d="m9.3777 0.45692c-0.1735-0.42114-0.3064-0.43541-0.5744-0.44824-0.0919-0.00444-0.1915-0.00868-0.3006-0.00868-0.3452 3.5271e-8 -0.7031 0.10242-0.9188 0.32471-0.2625 0.2705-0.9189 0.90409-0.9189 2.2051 0 1.3011 0.94072 2.5584 1.0718 2.735 0.13145 0.17629 1.8347 2.8853 4.4847 3.9914 2.0685 0.86302 2.6826 0.78626 3.1545 0.6822 0.68663-0.15102 1.5488-0.66031 1.7676-1.2776 0.21876-0.61759 0.21876-1.1468 0.15318-1.2569-0.066-0.1104-0.241-0.1764-0.503-0.309-0.263-0.1322-1.554-0.7719-1.794-0.86-0.241-0.0882-0.464-0.0613-0.649 0.1966-0.255 0.3562-0.501 0.7221-0.704 0.9391-0.16 0.1703-0.417 0.1941-0.638 0.0996-0.29-0.1247-1.108-0.4118-2.111-1.3126-0.78-0.7006-1.3073-1.5663-1.4605-1.8311-0.1532-0.2645-0.0135-0.4223 0.1045-0.5662 0.1346-0.1642 0.2588-0.2822 0.3901-0.4364 0.13126-0.15449 0.20459-0.23685 0.2921-0.41352 0.0875-0.17629 0.02862-0.35817-0.03705-0.49058-0.06577-0.13251-0.59137-1.4333-0.80946-1.9629" fill-rule="evenodd"/>
  <path d="m9.3777-0.54308c-0.1735-0.42114-0.3064-0.43541-0.5744-0.44824-0.091908-0.00444-0.19157-0.00868-0.30062-0.00868-0.34523 0-0.7031 0.10242-0.91879 0.32471-0.26251 0.27051-0.91889 0.9041-0.91889 2.205 0 1.3011 0.94072 2.5584 1.0718 2.735 0.13145 0.17629 1.8347 2.8853 4.4847 3.9914 2.0685 0.86302 2.6826 0.78626 3.1545 0.6822 0.68663-0.15102 1.5488-0.66031 1.7676-1.2776 0.21876-0.61759 0.21876-1.1468 0.15318-1.2569-0.066-0.1103-0.241-0.1763-0.503-0.3089-0.263-0.1322-1.554-0.7719-1.794-0.86-0.241-0.0882-0.464-0.0613-0.649 0.1966-0.255 0.3562-0.501 0.7221-0.704 0.9391-0.16 0.1703-0.417 0.1941-0.638 0.0996-0.29-0.1247-1.108-0.4118-2.111-1.3126-0.78-0.7006-1.3073-1.5663-1.4605-1.8311-0.1532-0.2645-0.0135-0.4223 0.1045-0.5662 0.1346-0.1642 0.2588-0.2822 0.3901-0.4364 0.13126-0.15449 0.20459-0.23685 0.2921-0.41352 0.0875-0.17629 0.02862-0.35817-0.03705-0.49058-0.06577-0.13251-0.59137-1.4333-0.80946-1.9629" fill-rule="evenodd" fill="url(#d)"/>
 </g>
</svg>
