<?xml version="1.0" encoding="UTF-8" standalone="no"?>
<svg xmlns:rdf="http://www.w3.org/1999/02/22-rdf-syntax-ns#" xmlns="http://www.w3.org/2000/svg" height="24" width="24" version="1.1" xmlns:cc="http://creativecommons.org/ns#" xmlns:xlink="http://www.w3.org/1999/xlink" xmlns:dc="http://purl.org/dc/elements/1.1/">
 <defs>
  <linearGradient id="d" y2="43" gradientUnits="userSpaceOnUse" x2="24" gradientTransform="matrix(.45946 0 0 .45946 .97422 .97173)" y1="5" x1="24">
   <stop stop-color="#fff" offset="0"/>
   <stop stop-color="#fff" stop-opacity=".23529" offset=".063165"/>
   <stop stop-color="#fff" stop-opacity=".15686" offset=".95056"/>
   <stop stop-color="#fff" stop-opacity=".39216" offset="1"/>
  </linearGradient>
  <radialGradient id="a" gradientUnits="userSpaceOnUse" cy="8.4498" cx="6.8875" gradientTransform="matrix(0 1.0896 -1.2044 -2.0075e-8 22.177 -5.2976)" r="20">
   <stop stop-color="#4ad58e" offset="0"/>
   <stop stop-color="#2dc477" offset=".26238"/>
   <stop stop-color="#26a464" offset=".70495"/>
   <stop stop-color="#1d7d4c" offset="1"/>
  </radialGradient>
  <radialGradient id="c" gradientUnits="userSpaceOnUse" cy="43.5" cx="4.993" gradientTransform="matrix(2.0038 0 0 1.4 27.988 -17.4)" r="2.5">
   <stop stop-color="#181818" offset="0"/>
   <stop stop-color="#181818" stop-opacity="0" offset="1"/>
  </radialGradient>
  <radialGradient id="b" gradientUnits="userSpaceOnUse" cy="43.5" cx="4.993" gradientTransform="matrix(2.0038 0 0 1.4 -20.012 -104.4)" r="2.5">
   <stop stop-color="#181818" offset="0"/>
   <stop stop-color="#181818" stop-opacity="0" offset="1"/>
  </radialGradient>
  <linearGradient id="e" y2="39.999" gradientUnits="userSpaceOnUse" x2="25.058" y1="47.028" x1="25.058">
   <stop stop-color="#181818" stop-opacity="0" offset="0"/>
   <stop stop-color="#181818" offset=".5"/>
   <stop stop-color="#181818" stop-opacity="0" offset="1"/>
  </linearGradient>
  <linearGradient id="f" y2="22" gradientUnits="userSpaceOnUse" x2="9" y1="2" x1="9">
   <stop stop-color="#1f8753" offset="0"/>
   <stop stop-color="#1a6f44" offset="1"/>
  </linearGradient>
 </defs>
 <g transform="matrix(.55 0 0 .33333 -1.2 7.3333)">
  <g opacity=".4" transform="matrix(1.0526 0 0 1.2857 -1.2632 -13.429)">
   <rect height="7" width="5" y="40" x="38" fill="url(#c)"/>
   <rect transform="scale(-1)" height="7" width="5" y="-47" x="-10" fill="url(#b)"/>
   <rect height="7" width="28" y="40" x="10" fill="url(#e)"/>
  </g>
 </g>
 <rect stroke-linejoin="round" height="19" stroke="url(#f)" stroke-linecap="round" fill="url(#a)" style="color:#000000" rx="1" ry="1" width="19" y="2.5" x="2.5"/>
 <rect opacity=".5" stroke-linejoin="round" height="17" width="17" stroke="url(#d)" stroke-linecap="round" y="3.4988" x="3.5012" fill="none"/>
 <path opacity=".15" d="m7.75 9.75a0.75 0.75 0 0 0 -0.75 0.75 0.75 0.75 0 0 0 0.75 0.75 0.75 0.75 0 0 0 0.75 -0.75 0.75 0.75 0 0 0 -0.75 -0.75zm2.25 0.25v1h7v-1h-7zm-2.25 1.75a0.75 0.75 0 0 0 -0.75 0.75 0.75 0.75 0 0 0 0.75 0.75 0.75 0.75 0 0 0 0.75 -0.75 0.75 0.75 0 0 0 -0.75 -0.75zm2.25 0.25v1h7v-1h-7zm-2.25 1.75a0.75 0.75 0 0 0 -0.75 0.75 0.75 0.75 0 0 0 0.75 0.75 0.75 0.75 0 0 0 0.75 -0.75 0.75 0.75 0 0 0 -0.75 -0.75zm2.25 0.25v1h7v-1h-7z"/>
 <path d="m7.75 8.75a0.75 0.75 0 0 0 -0.75 0.75 0.75 0.75 0 0 0 0.75 0.75 0.75 0.75 0 0 0 0.75 -0.75 0.75 0.75 0 0 0 -0.75 -0.75zm2.25 0.25v1h7v-1h-7zm-2.25 1.75a0.75 0.75 0 0 0 -0.75 0.75 0.75 0.75 0 0 0 0.75 0.75 0.75 0.75 0 0 0 0.75 -0.75 0.75 0.75 0 0 0 -0.75 -0.75zm2.25 0.25v1h7v-1h-7zm-2.25 1.75a0.75 0.75 0 0 0 -0.75 0.75 0.75 0.75 0 0 0 0.75 0.75 0.75 0.75 0 0 0 0.75 -0.75 0.75 0.75 0 0 0 -0.75 -0.75zm2.25 0.25v1h7v-1h-7z" fill="#fff"/>
</svg>
