<?xml version="1.0" encoding="UTF-8" standalone="no"?>
<svg xmlns:rdf="http://www.w3.org/1999/02/22-rdf-syntax-ns#" xmlns="http://www.w3.org/2000/svg" height="24" width="24" version="1.1" xmlns:cc="http://creativecommons.org/ns#" xmlns:xlink="http://www.w3.org/1999/xlink" viewBox="0 0 24 24" xmlns:dc="http://purl.org/dc/elements/1.1/">
 <defs>
  <linearGradient id="e" y2="43" gradientUnits="userSpaceOnUse" x2="24" gradientTransform="matrix(.45946 0 0 .45946 .97422 1029.3)" y1="5" x1="24">
   <stop stop-color="#fff" offset="0"/>
   <stop stop-color="#fff" stop-opacity=".23529" offset=".063165"/>
   <stop stop-color="#fff" stop-opacity=".15686" offset=".95056"/>
   <stop stop-color="#fff" stop-opacity=".39216" offset="1"/>
  </linearGradient>
  <radialGradient id="b" gradientUnits="userSpaceOnUse" cy="8.4498" cx="7.4957" gradientTransform="matrix(0 1.1385 -1.2044 -2.0976e-8 22.177 1022.6)" r="20">
   <stop stop-color="#f4f4f4" offset="0"/>
   <stop stop-color="#d0d0d0" offset="1"/>
  </radialGradient>
  <radialGradient id="d" xlink:href="#a" gradientUnits="userSpaceOnUse" cy="43.5" cx="4.993" gradientTransform="matrix(2.0038 0 0 1.4 27.988 -17.4)" r="2.5"/>
  <linearGradient id="a">
   <stop stop-color="#181818" offset="0"/>
   <stop stop-color="#181818" stop-opacity="0" offset="1"/>
  </linearGradient>
  <radialGradient id="c" xlink:href="#a" gradientUnits="userSpaceOnUse" cy="43.5" cx="4.993" gradientTransform="matrix(2.0038 0 0 1.4 -20.012 -104.4)" r="2.5"/>
  <linearGradient id="f" y2="39.999" gradientUnits="userSpaceOnUse" x2="25.058" y1="47.028" x1="25.058">
   <stop stop-color="#181818" stop-opacity="0" offset="0"/>
   <stop stop-color="#181818" offset=".5"/>
   <stop stop-color="#181818" stop-opacity="0" offset="1"/>
  </linearGradient>
 </defs>
 <g transform="translate(0 -1028.4)">
  <g transform="matrix(.55 0 0 .33333 -1.2 1035.7)">
   <g opacity=".4" transform="matrix(1.0526 0 0 1.2857 -1.2632 -13.429)">
    <rect height="7" width="5" y="40" x="38" fill="url(#d)"/>
    <rect transform="scale(-1)" height="7" width="5" y="-47" x="-10" fill="url(#c)"/>
    <rect height="7" width="28" y="40" x="10" fill="url(#f)"/>
   </g>
  </g>
  <rect stroke-linejoin="round" height="19" stroke="#000" stroke-linecap="round" fill="url(#b)" style="color:#000000" rx="1" ry="1" width="19" stroke-opacity=".23907" y="1030.9" x="2.5"/>
  <path opacity=".05" style="color-rendering:auto;text-decoration-color:#000000;color:#000000;isolation:auto;mix-blend-mode:normal;shape-rendering:auto;solid-color:#000000;block-progression:tb;text-decoration-line:none;text-decoration-style:solid;image-rendering:auto;white-space:normal;text-indent:0;text-transform:none" d="m15.5 1035.4c-0.8137 0-1.5 0.6863-1.5 1.5v1c0 0.8137 0.6863 1.5 1.5 1.5h1c0.8137 0 1.5-0.6863 1.5-1.5v-1c0-0.8137-0.6863-1.5-1.5-1.5h-1z"/>
  <path opacity=".05" style="color-rendering:auto;text-decoration-color:#000000;color:#000000;isolation:auto;mix-blend-mode:normal;shape-rendering:auto;solid-color:#000000;block-progression:tb;text-decoration-line:none;text-decoration-style:solid;image-rendering:auto;white-space:normal;text-indent:0;text-transform:none" d="m11.5 1035.4c-0.8137 0-1.5 0.6863-1.5 1.5v1c0 0.8137 0.6863 1.5 1.5 1.5h1c0.8137 0 1.5-0.6863 1.5-1.5v-1c0-0.8137-0.6863-1.5-1.5-1.5h-1z"/>
  <path opacity=".05" style="color-rendering:auto;text-decoration-color:#000000;color:#000000;isolation:auto;mix-blend-mode:normal;shape-rendering:auto;solid-color:#000000;block-progression:tb;text-decoration-line:none;text-decoration-style:solid;image-rendering:auto;white-space:normal;text-indent:0;text-transform:none" d="m7.5 1035.4c-0.8137 0-1.5 0.6863-1.5 1.5v1c0 0.8137 0.6863 1.5 1.5 1.5h1c0.8137 0 1.5-0.6863 1.5-1.5v-1c0-0.8137-0.6863-1.5-1.5-1.5h-1z"/>
  <path opacity=".05" style="color-rendering:auto;text-decoration-color:#000000;color:#000000;isolation:auto;mix-blend-mode:normal;shape-rendering:auto;solid-color:#000000;block-progression:tb;text-decoration-line:none;text-decoration-style:solid;image-rendering:auto;white-space:normal;text-indent:0;text-transform:none" d="m15.5 1039.4c-0.8137 0-1.5 0.6863-1.5 1.5v1c0 0.8137 0.6863 1.5 1.5 1.5h1c0.8137 0 1.5-0.6863 1.5-1.5v-1c0-0.8137-0.6863-1.5-1.5-1.5h-1z"/>
  <path opacity=".05" style="color-rendering:auto;text-decoration-color:#000000;color:#000000;isolation:auto;mix-blend-mode:normal;shape-rendering:auto;solid-color:#000000;block-progression:tb;text-decoration-line:none;text-decoration-style:solid;image-rendering:auto;white-space:normal;text-indent:0;text-transform:none" d="m11.5 1039.4c-0.8137 0-1.5 0.6863-1.5 1.5v1c0 0.8137 0.6863 1.5 1.5 1.5h1c0.8137 0 1.5-0.6863 1.5-1.5v-1c0-0.8137-0.6863-1.5-1.5-1.5h-1z"/>
  <path opacity=".05" style="color-rendering:auto;text-decoration-color:#000000;color:#000000;isolation:auto;mix-blend-mode:normal;shape-rendering:auto;solid-color:#000000;block-progression:tb;text-decoration-line:none;text-decoration-style:solid;image-rendering:auto;white-space:normal;text-indent:0;text-transform:none" d="m7.5 1039.4c-0.8137 0-1.5 0.6863-1.5 1.5v1c0 0.8137 0.6863 1.5 1.5 1.5h1c0.8137 0 1.5-0.6863 1.5-1.5v-1c0-0.8137-0.6863-1.5-1.5-1.5h-1z"/>
  <path opacity=".05" style="color-rendering:auto;text-decoration-color:#000000;color:#000000;isolation:auto;mix-blend-mode:normal;shape-rendering:auto;solid-color:#000000;block-progression:tb;text-decoration-line:none;text-decoration-style:solid;image-rendering:auto;white-space:normal;text-indent:0;text-transform:none" d="m15.5 1043.4c-0.8137 0-1.5 0.6863-1.5 1.5v1c0 0.8137 0.6863 1.5 1.5 1.5h1c0.8137 0 1.5-0.6863 1.5-1.5v-1c0-0.8137-0.6863-1.5-1.5-1.5h-1z"/>
  <path opacity=".05" style="color-rendering:auto;text-decoration-color:#000000;color:#000000;isolation:auto;mix-blend-mode:normal;shape-rendering:auto;solid-color:#000000;block-progression:tb;text-decoration-line:none;text-decoration-style:solid;image-rendering:auto;white-space:normal;text-indent:0;text-transform:none" d="m11.5 1043.4c-0.8137 0-1.5 0.6863-1.5 1.5v1c0 0.8137 0.6863 1.5 1.5 1.5h1c0.8137 0 1.5-0.6863 1.5-1.5v-1c0-0.8137-0.6863-1.5-1.5-1.5h-1z"/>
  <path opacity=".05" style="color-rendering:auto;text-decoration-color:#000000;color:#000000;isolation:auto;mix-blend-mode:normal;shape-rendering:auto;solid-color:#000000;block-progression:tb;text-decoration-line:none;text-decoration-style:solid;image-rendering:auto;white-space:normal;text-indent:0;text-transform:none" d="m7.5 1043.4c-0.8137 0-1.5 0.6863-1.5 1.5v1c0 0.8137 0.6863 1.5 1.5 1.5h1c0.8137 0 1.5-0.6863 1.5-1.5v-1c0-0.8137-0.6863-1.5-1.5-1.5h-1z"/>
  <rect opacity=".5" stroke-linejoin="round" height="17" width="17" stroke="url(#e)" stroke-linecap="round" y="1031.9" x="3.5012" fill="none"/>
  <rect opacity=".15" rx=".5" ry=".5" height="2" width="2" y="1036.4" x="15"/>
  <rect opacity=".15" rx=".5" ry=".5" height="2" width="2" y="1036.4" x="11"/>
  <rect opacity=".15" rx=".5" ry=".5" height="2" width="2" y="1036.4" x="7"/>
  <rect opacity=".15" rx=".5" ry=".5" height="2" width="2" y="1040.4" x="15"/>
  <rect opacity=".15" rx=".5" ry=".5" height="2" width="2" y="1040.4" x="11"/>
  <rect opacity=".15" rx=".5" ry=".5" height="2" width="2" y="1040.4" x="7"/>
  <rect opacity=".15" rx=".5" ry=".5" height="2" width="2" y="1044.4" x="15"/>
  <rect opacity=".15" rx=".5" ry=".5" height="2" width="2" y="1044.4" x="11"/>
  <rect opacity=".15" rx=".5" ry=".5" height="2" width="2" y="1044.4" x="7"/>
  <rect rx=".5" ry=".5" height="2" width="2" y="1035.4" x="15" fill="#fe3932"/>
  <rect rx=".5" ry=".5" height="2" width="2" y="1035.4" x="11" fill="#fe3932"/>
  <rect rx=".5" ry=".5" height="2" width="2" y="1035.4" x="7" fill="#fe3932"/>
  <rect rx=".5" ry=".5" height="2" width="2" y="1039.4" x="15" fill="#ffb000"/>
  <rect rx=".5" ry=".5" height="2" width="2" y="1039.4" x="11" fill="#008bf4"/>
  <rect rx=".5" ry=".5" height="2" width="2" y="1039.4" x="7" fill="#009d5a"/>
  <rect rx=".5" ry=".5" height="2" width="2" y="1043.4" x="15" fill="#ffb000"/>
  <rect rx=".5" ry=".5" height="2" width="2" y="1043.4" x="11" fill="#ffb000"/>
  <rect rx=".5" ry=".5" height="2" width="2" y="1043.4" x="7" fill="#009d5a"/>
 </g>
</svg>
