<?xml version="1.0" encoding="UTF-8" standalone="no"?>
<svg xmlns:rdf="http://www.w3.org/1999/02/22-rdf-syntax-ns#" xmlns="http://www.w3.org/2000/svg" height="24" width="24" version="1.1" xmlns:cc="http://creativecommons.org/ns#" xmlns:xlink="http://www.w3.org/1999/xlink" xmlns:dc="http://purl.org/dc/elements/1.1/">
 <defs>
  <radialGradient id="c" gradientUnits="userSpaceOnUse" cy="43.5" cx="4.993" gradientTransform="matrix(2.0038 0 0 1.4 27.988 -17.4)" r="2.5">
   <stop stop-color="#181818" offset="0"/>
   <stop stop-color="#181818" stop-opacity="0" offset="1"/>
  </radialGradient>
  <radialGradient id="b" gradientUnits="userSpaceOnUse" cy="43.5" cx="4.993" gradientTransform="matrix(2.0038 0 0 1.4 -20.012 -104.4)" r="2.5">
   <stop stop-color="#181818" offset="0"/>
   <stop stop-color="#181818" stop-opacity="0" offset="1"/>
  </radialGradient>
  <linearGradient id="e" y2="39.999" gradientUnits="userSpaceOnUse" x2="25.058" y1="47.028" x1="25.058">
   <stop stop-color="#181818" stop-opacity="0" offset="0"/>
   <stop stop-color="#181818" offset=".5"/>
   <stop stop-color="#181818" stop-opacity="0" offset="1"/>
  </linearGradient>
  <linearGradient id="d" y2="43" gradientUnits="userSpaceOnUse" x2="24" gradientTransform="matrix(.45946 0 0 .45946 .97422 .97173)" y1="5" x1="24">
   <stop stop-color="#fff" offset="0"/>
   <stop stop-color="#fff" stop-opacity=".23529" offset=".063165"/>
   <stop stop-color="#fff" stop-opacity=".15686" offset=".95056"/>
   <stop stop-color="#fff" stop-opacity=".39216" offset="1"/>
  </linearGradient>
  <radialGradient id="a" gradientUnits="userSpaceOnUse" cy="8.4498" cx="7.4957" gradientTransform="matrix(0 1.1385 -1.2044 -2.0976e-8 22.177 -5.7503)" r="20">
   <stop stop-color="#f4f4f4" offset="0"/>
   <stop stop-color="#d0d0d0" offset="1"/>
  </radialGradient>
  <linearGradient id="f" y2="26" gradientUnits="userSpaceOnUse" x2="12" gradientTransform="translate(9.8e-7 -8)" y1="14" x1="12">
   <stop stop-color="#008fef" offset="0"/>
   <stop stop-color="#007acc" offset="1"/>
  </linearGradient>
 </defs>
 <g transform="matrix(.55 0 0 .33333 -1.2 7.3333)">
  <g opacity=".4" transform="matrix(1.0526 0 0 1.2857 -1.2632 -13.429)">
   <rect height="7" width="5" y="40" x="38" fill="url(#c)"/>
   <rect transform="scale(-1)" height="7" width="5" y="-47" x="-10" fill="url(#b)"/>
   <rect height="7" width="28" y="40" x="10" fill="url(#e)"/>
  </g>
 </g>
 <rect stroke-linejoin="round" height="19" stroke="#000" stroke-linecap="round" fill="url(#a)" style="color:#000000" rx="1" ry="1" width="19" stroke-opacity=".23907" y="2.5" x="2.5"/>
 <rect opacity=".5" stroke-linejoin="round" height="17" width="17" stroke="url(#d)" stroke-linecap="round" y="3.4988" x="3.5012" fill="none"/>
 <g fill-rule="evenodd">
  <path opacity=".2" d="m15.5 7-5.5 5-3-2.5-1 0.5v6l1 0.5 3-2.5 5.5 5 2.5-1v-10zm-0.5 3.5c0.0008 1.6623 0 3.3511 0 5l-3-2.5zm-8 1 1.5 1.5-1.5 1.5z" fill="#fff"/>
  <path d="m15.5 6-5.5 5-3-2.5-1 0.5v6l1 0.5 3-2.5 5.5 5 2.5-1v-10zm-0.5 3.5c0.0008 1.6623 0 3.3511 0 5l-3-2.5zm-8 1 1.5 1.5-1.5 1.5z" fill="url(#f)"/>
  <path opacity=".3" d="m15.5 6-5.5 5-3-2.5-1 0.5v1l1-0.5 3 2.5 5.5-5 2.5 1v-1l-2.5-1zm-7.5 6.5-1 1v1l1.5-1.5-0.5-0.5zm4.5996 0l-0.6 0.5 3 2.5c0-0.32979-0.000045-0.66756 0-1l-2.4004-2z" fill="#002d4a"/>
 </g>
</svg>
