<?xml version="1.0" encoding="UTF-8" standalone="no"?>
<svg xmlns:rdf="http://www.w3.org/1999/02/22-rdf-syntax-ns#" xmlns="http://www.w3.org/2000/svg" height="24" width="24" version="1.1" xmlns:cc="http://creativecommons.org/ns#" xmlns:xlink="http://www.w3.org/1999/xlink" xmlns:dc="http://purl.org/dc/elements/1.1/">
 <defs>
  <linearGradient id="d" y2="109.73" gradientUnits="userSpaceOnUse" x2="146" y1="92.27" x1="146">
   <stop stop-color="#fff" offset="0"/>
   <stop stop-color="#fff" stop-opacity=".23529" offset=".063165"/>
   <stop stop-color="#fff" stop-opacity=".15686" offset=".95056"/>
   <stop stop-color="#fff" stop-opacity=".39216" offset="1"/>
  </linearGradient>
  <linearGradient id="f" y2="5.9877" gradientUnits="userSpaceOnUse" x2="48" gradientTransform="matrix(.22619 0 0 .22619 240.57 295.79)" y1="90" x1="48">
   <stop stop-color="#be1e1e" offset="0"/>
   <stop stop-color="#e24a4a" offset="1"/>
  </linearGradient>
  <linearGradient id="e" y2="29.963" gradientUnits="userSpaceOnUse" x2="52" gradientTransform="matrix(.22619 0 0 .22619 237.74 290.48)" y1="113.5" x1="52">
   <stop stop-color="#560e0e" offset="0"/>
   <stop stop-color="#9b1919" offset="1"/>
  </linearGradient>
  <radialGradient id="c" gradientUnits="userSpaceOnUse" xlink:href="#a" cx="4.993" cy="43.5" r="2.5" gradientTransform="matrix(2.0038 0 0 1.4 27.988 -17.4)"/>
  <linearGradient id="a">
   <stop stop-color="#181818" offset="0"/>
   <stop stop-color="#181818" stop-opacity="0" offset="1"/>
  </linearGradient>
  <radialGradient id="b" gradientUnits="userSpaceOnUse" xlink:href="#a" cx="4.993" cy="43.5" r="2.5" gradientTransform="matrix(2.0038 0 0 1.4 -20.012 -104.4)"/>
  <linearGradient id="g" y2="39.999" gradientUnits="userSpaceOnUse" y1="47.028" x2="25.058" x1="25.058">
   <stop stop-color="#181818" stop-opacity="0" offset="0"/>
   <stop stop-color="#181818" offset=".5"/>
   <stop stop-color="#181818" stop-opacity="0" offset="1"/>
  </linearGradient>
 </defs>
 <g transform="translate(-239.43 -294.65)">
  <g style="enable-background:new" transform="matrix(.55 0 0 .33333 238.23 301.98)">
   <g opacity=".4" transform="matrix(1.0526 0 0 1.2857 -1.2632 -13.429)">
    <rect height="7" width="5" y="40" x="38" fill="url(#c)"/>
    <rect transform="scale(-1)" height="7" width="5" y="-47" x="-10" fill="url(#b)"/>
    <rect height="7" width="28" y="40" x="10" fill="url(#g)"/>
   </g>
  </g>
  <path style="enable-background:new" d="m243.29 297.15c-0.71425 0-1.2936 0.54482-1.3501 1.244 0.55855 0.004 1.0108 0.45839 1.0108 1.0178 0 0.56186-0.456 1.0179-1.0179 1.0179v1.5833c0.56186 0 1.0179 0.456 1.0179 1.0179 0 0.56186-0.456 1.0178-1.0179 1.0178v1.5833c0.56186 0 1.0179 0.456 1.0179 1.0179 0 0.56186-0.456 1.0179-1.0179 1.0179v1.5833c0.56186 0 1.0179 0.456 1.0179 1.0179 0 0.56186-0.456 1.0179-1.0179 1.0179v1.5833c0.56186 0 1.0179 0.456 1.0179 1.0179 0 0.55946-0.45224 1.014-1.0108 1.0179 0.0565 0.69921 0.63583 1.244 1.3501 1.244 0-0.56186 0.456-1.0179 1.0179-1.0179 0.56185 0 1.0178 0.456 1.0178 1.0179h1.5833c0-0.56186 0.456-1.0179 1.0178-1.0179 0.56185 0 1.0178 0.456 1.0178 1.0179h1.5833c0-0.56186 0.456-1.0179 1.0178-1.0179 0.56187 0 1.0179 0.456 1.0179 1.0179h1.5833c0-0.56186 0.456-1.0179 1.0179-1.0179 0.56185 0 1.0178 0.456 1.0178 1.0179h1.5833c-0.00001-0.56186 0.456-1.0179 1.0178-1.0179 0.55467 0 1.0064 0.44472 1.0178 0.99666 0.60813-0.10069 1.0735-0.59872 1.1239-1.2228-0.55855-0.004-1.0108-0.4584-1.0108-1.0179 0-0.56187 0.45599-1.0179 1.0178-1.0179v-1.5833c-0.56186 0-1.0178-0.456-1.0178-1.0179 0-0.56186 0.45599-1.0179 1.0178-1.0179v-1.5833c-0.56186 0-1.0178-0.456-1.0178-1.0179 0-0.56185 0.45599-1.0179 1.0178-1.0179v-1.5833c-0.56186 0.00001-1.0178-0.456-1.0178-1.0178 0-0.56186 0.45599-1.0179 1.0178-1.0179v-1.5833c-0.56186 0-1.0178-0.456-1.0178-1.0179 0-0.55946 0.45223-1.014 1.0108-1.0178-0.0504-0.62413-0.51576-1.1222-1.1239-1.2228-0.0115 0.55194-0.46318 0.99665-1.0178 0.99665-0.56186 0-1.0178-0.456-1.0178-1.0178h-1.5833c0 0.56185-0.456 1.0178-1.0178 1.0178-0.56186 0-1.0179-0.456-1.0179-1.0178h-1.5833c0 0.56185-0.456 1.0178-1.0179 1.0178-0.56185 0-1.0178-0.456-1.0178-1.0178h-1.5833c0 0.56185-0.456 1.0178-1.0178 1.0178-0.56185 0-1.0178-0.456-1.0178-1.0178h-1.5833c0 0.56185-0.456 1.0178-1.0178 1.0178-0.56186 0-1.0179-0.456-1.0179-1.0178z" stroke="url(#e)" fill="url(#f)"/>
  <path opacity=".95" style="enable-background:new" d="m247.77 300.55-2.4923 10.96h2.025l1.1763-4.9046h5.5276l-5.1766 4.5937 1.3495 1.5404 0.69121-0.35307c1.3071-0.66625 1.8553-0.27669 2.847-0.004 0.96479 0.26542 1.8718 0.5495 3.7535-0.52578l-0.3737-1.8979c-2.0536 1.4475-2.7033 0.15604-4.166 0.10478l4.1875-3.5126 0.45438-1.8752h-8.7716l0.56466-2.2505h5.7493l0.39428-1.8751h-7.7402z" fill="#fff"/>
  <path opacity=".5" style="enable-background:new" d="m140.5 92.469c-0.35147 0.59223-0.88885 1.0312-1.625 1.0312-0.21689 0-0.36647-0.15481-0.5625-0.21875 0.0477 0.16762 0.1875 0.28468 0.1875 0.46875 0 0.73614-0.43902 1.2735-1.0312 1.625v0.40625c0.58319 0.34445 1.0312 0.86475 1.0312 1.5938 0 0.73614-0.43902 1.2735-1.0312 1.625v0.375c0.59223 0.35147 1.0312 0.88885 1.0312 1.625s-0.43902 1.2735-1.0312 1.625v0.375c0.59223 0.35147 1.0312 0.88885 1.0312 1.625 0 0.729-0.44806 1.2493-1.0312 1.5938v0.40625c0.59223 0.35147 1.0312 0.88885 1.0312 1.625 0 0.18407-0.13976 0.30112-0.1875 0.46875 0.19603-0.0639 0.34561-0.21875 0.5625-0.21875 0.73615 0 1.2735 0.43902 1.625 1.0312h0.375c0.35147-0.59223 0.88885-1.0312 1.625-1.0312 0.729 0 1.2493 0.44806 1.5938 1.0312h0.40625c0.35147-0.59223 0.88885-1.0312 1.625-1.0312 0.729 0 1.2493 0.44806 1.5938 1.0312h0.40625c0.34445-0.58319 0.86475-1.0312 1.5938-1.0312 0.73615 0 1.2735 0.43902 1.625 1.0312h0.40625c0.34445-0.5832 0.86475-1.0312 1.5938-1.0312 0.12046 0 0.19737 0.10441 0.3125 0.125-0.0314-0.13783-0.15625-0.22686-0.15625-0.375 0-0.73615 0.43902-1.2735 1.0312-1.625v-0.40625c-0.6-0.35-1.05-0.87-1.05-1.6 0-0.73615 0.43902-1.2735 1.0312-1.625v-0.375c-0.59-0.35-1.03-0.88-1.03-1.62 0-0.73615 0.43902-1.2735 1.0312-1.625v-0.375c-0.59-0.351-1.03-0.889-1.03-1.625 0-0.729 0.44806-1.2493 1.0312-1.5938v-0.40625c-0.59-0.351-1.03-0.889-1.03-1.625 0-0.14814 0.12486-0.23716 0.15625-0.375-0.11512 0.02059-0.19204 0.125-0.3125 0.125-0.72901 0-1.2493-0.44806-1.5938-1.0312h-0.40625c-0.35147 0.59223-0.88885 1.0312-1.625 1.0312-0.72901 0-1.2493-0.44806-1.5938-1.0312h-0.40625c-0.34 0.583-0.86 1.031-1.59 1.031-0.73615 0-1.2735-0.43902-1.625-1.0312h-0.40625c-0.34 0.583-0.86 1.031-1.59 1.031-0.73615 0-1.2735-0.43902-1.625-1.0312h-0.375z" transform="translate(105.43 205.65)" stroke="url(#d)" fill="none"/>
 </g>
</svg>
