<?xml version="1.0" encoding="UTF-8" standalone="no"?>
<svg xmlns:rdf="http://www.w3.org/1999/02/22-rdf-syntax-ns#" xmlns="http://www.w3.org/2000/svg" height="24" width="24" version="1.1" xmlns:cc="http://creativecommons.org/ns#" xmlns:xlink="http://www.w3.org/1999/xlink" xmlns:dc="http://purl.org/dc/elements/1.1/">
<defs>
<linearGradient id="d" y2="43" gradientUnits="userSpaceOnUse" x2="24" gradientTransform="matrix(.45946 0 0 .45946 .97422 8.9717)" y1="5" x1="24">
<stop stop-color="#fff" offset="0"/>
<stop stop-color="#fff" stop-opacity=".23529" offset=".063165"/>
<stop stop-color="#fff" stop-opacity=".15686" offset=".95056"/>
<stop stop-color="#fff" stop-opacity=".39216" offset="1"/>
</linearGradient>
<radialGradient id="a" gradientUnits="userSpaceOnUse" cy="8.4498" cx="7.4957" gradientTransform="matrix(0 1.1385 -1.2044 -2.0976e-8 22.177 2.2497)" r="20">
<stop stop-color="#73baff" offset="0"/>
<stop stop-color="#5aa7f3" offset=".26238"/>
<stop stop-color="#1977d4" offset=".70495"/>
<stop stop-color="#0065c8" offset="1"/>
</radialGradient>
<linearGradient id="e" y2="3.899" gradientUnits="userSpaceOnUse" x2="24" gradientTransform="matrix(.48718 0 0 .48718 .30769 8.3077)" y1="44" x1="24">
<stop stop-color="#00478b" offset="0"/>
<stop stop-color="#0065c8" offset="1"/>
</linearGradient>
<radialGradient id="c" gradientUnits="userSpaceOnUse" cy="43.5" cx="4.993" gradientTransform="matrix(2.0038 0 0 1.4 27.988 -17.4)" r="2.5">
<stop stop-color="#181818" offset="0"/>
<stop stop-color="#181818" stop-opacity="0" offset="1"/>
</radialGradient>
<radialGradient id="b" gradientUnits="userSpaceOnUse" cy="43.5" cx="4.993" gradientTransform="matrix(2.0038 0 0 1.4 -20.012 -104.4)" r="2.5">
<stop stop-color="#181818" offset="0"/>
<stop stop-color="#181818" stop-opacity="0" offset="1"/>
</radialGradient>
<linearGradient id="f" y2="39.999" gradientUnits="userSpaceOnUse" x2="25.058" y1="47.028" x1="25.058">
<stop stop-color="#181818" stop-opacity="0" offset="0"/>
<stop stop-color="#181818" offset=".5"/>
<stop stop-color="#181818" stop-opacity="0" offset="1"/>
</linearGradient>
<linearGradient id="g" y2="18" gradientUnits="userSpaceOnUse" x2="12" y1="6" x1="12">
<stop stop-color="#fff" offset="0"/>
<stop stop-color="#c4e0fa" offset="1"/>
</linearGradient>
</defs>
<g transform="translate(0,-8)">
<g transform="matrix(.55 0 0 .33333 -1.2 15.333)">
<g opacity=".4" transform="matrix(1.0526 0 0 1.2857 -1.2632 -13.429)">
<rect height="7" width="5" y="40" x="38" fill="url(#c)"/>
<rect transform="scale(-1)" height="7" width="5" y="-47" x="-10" fill="url(#b)"/>
<rect height="7" width="28" y="40" x="10" fill="url(#f)"/>
</g>
</g>
<rect stroke-linejoin="round" height="19" stroke="url(#e)" stroke-linecap="round" fill="url(#a)" style="color:#000000" rx="1" ry="1" width="19" y="10.5" x="2.5"/>
<rect opacity=".5" stroke-linejoin="round" height="17" width="17" stroke="url(#d)" stroke-linecap="round" y="11.499" x="3.5012" fill="none"/>
<g>
<path opacity=".05" stroke-linejoin="round" d="m15.002 14.998c-3.8601 0-7 3.1399-7 7 0 0.34045 0.032888 0.67241 0.080078 1h1.0098c-0.05451-0.32576-0.089844-0.65848-0.089844-1 0-3.3196 2.6804-6 6-6 0.34152 0 0.67424 0.03533 1 0.08984v-1.0098c-0.32759-0.04719-0.65955-0.08008-1-0.08008zm0 2c-2.7555 0-5 2.2445-5 5 0 0.34245 0.03556 0.67666 0.10156 1h1.0391c-0.08269-0.3212-0.14062-0.65238-0.14062-1 0-2.2151 1.7849-4 4-4 0.34762 0 0.6788 0.05794 1 0.14062v-1.0391c-0.32334-0.06601-0.65755-0.10156-1-0.10156zm0 2c-1.6509 0-3 1.3491-3 3 0 0.35174 0.07125 0.6858 0.18359 1h1.0918c-0.17029-0.29467-0.27539-0.63286-0.27539-1 0-1.1105 0.88951-2 2-2 0.36714 0 0.70533 0.1051 1 0.27539v-1.0918c-0.3142-0.11235-0.64826-0.18359-1-0.18359zm0 2a1 1 0 0 0 -1 1 1 1 0 0 0 1 1 1 1 0 0 0 1 -1 1 1 0 0 0 -1 -1zm-0.752 3.002c-0.138 0-0.25 0.112-0.25 0.25v2.5c0 0.1385 0.1115 0.25 0.25 0.25h1.5c0.138 0 0.25-0.112 0.25-0.25v-2.5c0-0.138-0.112-0.25-0.25-0.25h-1.5z" stroke="#000" stroke-width="2"/>
<path opacity=".15" d="m15.002 14.998c-3.8601 0-7 3.1399-7 7 0 0.34045 0.032888 0.67241 0.080078 1h1.0098c-0.05451-0.32576-0.089844-0.65848-0.089844-1 0-3.3196 2.6804-6 6-6 0.34152 0 0.67424 0.03533 1 0.08984v-1.0098c-0.32759-0.04719-0.65955-0.08008-1-0.08008zm0 2c-2.7555 0-5 2.2445-5 5 0 0.34245 0.03556 0.67666 0.10156 1h1.0391c-0.08269-0.3212-0.14062-0.65238-0.14062-1 0-2.2151 1.7849-4 4-4 0.34762 0 0.6788 0.05794 1 0.14062v-1.0391c-0.32334-0.06601-0.65755-0.10156-1-0.10156zm0 2c-1.6509 0-3 1.3491-3 3 0 0.35174 0.07125 0.6858 0.18359 1h1.0918c-0.17029-0.29467-0.27539-0.63286-0.27539-1 0-1.1105 0.88951-2 2-2 0.36714 0 0.70533 0.1051 1 0.27539v-1.0918c-0.3142-0.11235-0.64826-0.18359-1-0.18359zm0 2a1 1 0 0 0 -1 1 1 1 0 0 0 1 1 1 1 0 0 0 1 -1 1 1 0 0 0 -1 -1zm-0.752 3.002c-0.138 0-0.25 0.112-0.25 0.25v2.5c0 0.1385 0.1115 0.25 0.25 0.25h1.5c0.138 0 0.25-0.112 0.25-0.25v-2.5c0-0.138-0.112-0.25-0.25-0.25h-1.5z"/>
<path d="m15.002 5.998c-3.86 0-7 3.14-7 7 0 0.341 0.0328 0.672 0.08 1h1.0098c-0.0545-0.326-0.0898-0.658-0.0898-1 0-3.3196 2.68-6 6-6 0.341 0 0.674 0.0354 1 0.0899v-1.0098c-0.328-0.0472-0.66-0.0801-1-0.0801zm0 2c-2.756 0-5 2.245-5 5 0 0.342 0.036 0.677 0.102 1h1.039c-0.083-0.321-0.141-0.652-0.141-1 0-2.215 1.785-4 4-4 0.348 0 0.679 0.058 1 0.1407v-1.0391c-0.323-0.066-0.658-0.1016-1-0.1016zm0 2c-1.651 0-3 1.349-3 3 0 0.352 0.071 0.686 0.184 1h1.091c-0.17-0.295-0.275-0.633-0.275-1 0-1.11 0.889-2 2-2 0.367 0 0.705 0.105 1 0.275v-1.091c-0.314-0.113-0.648-0.184-1-0.184zm0 2a1 1 0 0 0 -1 1 1 1 0 0 0 1 1 1 1 0 0 0 1 -1 1 1 0 0 0 -1 -1zm-0.752 3.002c-0.138 0-0.25 0.112-0.25 0.25v2.5c0 0.138 0.112 0.25 0.25 0.25h1.5c0.138 0 0.25-0.112 0.25-0.25v-2.5c0-0.138-0.112-0.25-0.25-0.25h-1.5z" transform="translate(0,8)" fill="url(#g)"/>
</g>
</g>
</svg>
