<?xml version="1.0" encoding="UTF-8" standalone="no"?>
<svg xmlns:rdf="http://www.w3.org/1999/02/22-rdf-syntax-ns#" xmlns="http://www.w3.org/2000/svg" height="24" width="24" version="1.1" xmlns:cc="http://creativecommons.org/ns#" xmlns:xlink="http://www.w3.org/1999/xlink" xmlns:dc="http://purl.org/dc/elements/1.1/">
 <defs>
  <radialGradient id="c" gradientUnits="userSpaceOnUse" cy="43.5" cx="4.993" gradientTransform="matrix(2.0038 0 0 1.4 27.988 -17.4)" r="2.5">
   <stop stop-color="#181818" offset="0"/>
   <stop stop-color="#181818" stop-opacity="0" offset="1"/>
  </radialGradient>
  <radialGradient id="b" gradientUnits="userSpaceOnUse" cy="43.5" cx="4.993" gradientTransform="matrix(2.0038 0 0 1.4 -20.012 -104.4)" r="2.5">
   <stop stop-color="#181818" offset="0"/>
   <stop stop-color="#181818" stop-opacity="0" offset="1"/>
  </radialGradient>
  <linearGradient id="e" y2="39.999" gradientUnits="userSpaceOnUse" x2="25.058" y1="47.028" x1="25.058">
   <stop stop-color="#181818" stop-opacity="0" offset="0"/>
   <stop stop-color="#181818" offset=".5"/>
   <stop stop-color="#181818" stop-opacity="0" offset="1"/>
  </linearGradient>
  <linearGradient id="d" y2="43" gradientUnits="userSpaceOnUse" x2="24" gradientTransform="matrix(.45946 0 0 .45946 .97422 .97173)" y1="5" x1="24">
   <stop stop-color="#fff" offset="0"/>
   <stop stop-color="#fff" stop-opacity=".23529" offset=".063165"/>
   <stop stop-color="#fff" stop-opacity=".15686" offset=".95056"/>
   <stop stop-color="#fff" stop-opacity=".39216" offset="1"/>
  </linearGradient>
  <radialGradient id="a" gradientUnits="userSpaceOnUse" cy="8.4498" cx="7.4957" gradientTransform="matrix(0 1.1385 -1.2044 -2.0976e-8 22.177 -5.7503)" r="20">
   <stop stop-color="#f4f4f4" offset="0"/>
   <stop stop-color="#d0d0d0" offset="1"/>
  </radialGradient>
 </defs>
 <g transform="matrix(.55 0 0 .33333 -1.2 7.3333)">
  <g opacity=".4" transform="matrix(1.0526 0 0 1.2857 -1.2632 -13.429)">
   <rect height="7" width="5" y="40" x="38" fill="url(#c)"/>
   <rect transform="scale(-1)" height="7" width="5" y="-47" x="-10" fill="url(#b)"/>
   <rect height="7" width="28" y="40" x="10" fill="url(#e)"/>
  </g>
 </g>
 <rect stroke-linejoin="round" height="19" stroke="#000" stroke-linecap="round" fill="url(#a)" style="color:#000000" rx="1" ry="1" width="19" stroke-opacity=".23907" y="2.5" x="2.5"/>
 <rect opacity=".5" stroke-linejoin="round" height="17" width="17" stroke="url(#d)" stroke-linecap="round" y="3.4988" x="3.5012" fill="none"/>
 <g opacity=".1" transform="translate(0,1)" stroke="#000" stroke-linecap="round" stroke-width="1px" fill="none">
  <path d="m16.507 12.554c3 0 3 3.9519 0 3.9775"/>
  <path d="m7.513 14.5h7.955"/>
  <path d="m8.4853 16.5h6.0104"/>
  <path d="m6.4965 18.5h10.003"/>
  <path d="m9.5 11.5c0-1.5 1.352-2.3516 2.437-3 1.063-0.5 2.563-1.5 2.563-3"/>
  <path d="m11.5 12.51c0.5-1.51 0.986-1.51 1.982-1.987 0.968-0.523 1.518-0.523 2.03-2.0352"/>
 </g>
 <g stroke-linecap="round" stroke-width="1px" fill="none">
  <path d="m16.507 12.554c3 0 3 3.9519 0 3.9775" stroke="#5382a1"/>
  <path d="m7.513 14.5h7.955" stroke="#5382a1"/>
  <path d="m8.4853 16.5h6.0104" stroke="#5382a1"/>
  <path d="m6.4965 18.5h10.003" stroke="#5382a1"/>
  <path d="m9.5 11.5c0-1.5 1.352-2.3516 2.437-3 1.063-0.5 2.563-1.5 2.563-3" stroke="#e76f00"/>
  <path d="m11.5 12.51c0.5-1.51 0.986-1.51 1.982-1.987 0.968-0.523 1.518-0.523 2.03-2.0352" stroke="#e76f00"/>
 </g>
</svg>
