<?xml version="1.0" encoding="UTF-8" standalone="no"?>
<svg xmlns:rdf="http://www.w3.org/1999/02/22-rdf-syntax-ns#" xmlns="http://www.w3.org/2000/svg" height="24" width="24" version="1.1" xmlns:cc="http://creativecommons.org/ns#" xmlns:xlink="http://www.w3.org/1999/xlink" xmlns:dc="http://purl.org/dc/elements/1.1/">
 <defs>
  <radialGradient id="c" gradientUnits="userSpaceOnUse" cy="4.625" cx="62.625" gradientTransform="matrix(1 0 0 .34118 0 3.0471)" r="10.625">
   <stop offset="0"/>
   <stop stop-opacity="0" offset="1"/>
  </radialGradient>
  <radialGradient id="b" gradientUnits="userSpaceOnUse" cy="-8.7256" cx="61.24" gradientTransform="matrix(0 3.5234 -3.5234 0 -6.744 -205.8)" r="9.7553">
   <stop stop-color="#51cfee" offset="0"/>
   <stop stop-color="#49a3d2" offset=".26238"/>
   <stop stop-color="#3470b4" offset=".70495"/>
   <stop stop-color="#273567" offset="1"/>
  </radialGradient>
  <linearGradient id="g" y2="2.6887" gradientUnits="userSpaceOnUse" x2="20" gradientTransform="matrix(.98001 0 0 .97999 .089940 .87036)" y1="43" x1="20">
   <stop stop-color="#254b6d" offset="0"/>
   <stop stop-color="#415b73" offset=".5"/>
   <stop stop-color="#6195b5" offset="1"/>
  </linearGradient>
  <linearGradient id="f" y2="-1.4615" gradientUnits="userSpaceOnUse" x2="62.2" gradientTransform="matrix(1.907 0 0 1.9069 -94.615 30.695)" y1="-12.489" x1="62.2">
   <stop stop-color="#fff" offset="0"/>
   <stop stop-color="#fff" stop-opacity="0" offset="1"/>
  </linearGradient>
  <linearGradient id="h" y2="47.533" gradientUnits="userSpaceOnUse" x2="157.8" y1="20.111" x1="157.8">
   <stop stop-color="#fff" offset="0"/>
   <stop stop-color="#fff" stop-opacity="0" offset="1"/>
  </linearGradient>
  <linearGradient id="j" y2="19.244" gradientUnits="userSpaceOnUse" x2="158.91" gradientTransform="matrix(.53846 0 0 .61342 277.78 281.68)" y1="48.432" x1="158.91">
   <stop stop-color="#8c8c8c" offset="0"/>
   <stop stop-color="#969696" offset=".031177"/>
   <stop stop-color="#a0a0a0" offset=".074123"/>
   <stop stop-color="#dcdcdc" offset=".15525"/>
   <stop stop-color="#e1e1e1" offset=".5"/>
   <stop stop-color="#e6e6e6" offset="1"/>
  </linearGradient>
  <linearGradient id="i" y2="12.644" gradientUnits="userSpaceOnUse" x2="153.68" gradientTransform="matrix(.48837 0 0 0.5 285.69 287.18)" y1="48.531" x1="153.68">
   <stop stop-color="#646464" offset="0"/>
   <stop stop-color="#b4b4b4" offset="1"/>
  </linearGradient>
  <radialGradient id="e" xlink:href="#a" gradientUnits="userSpaceOnUse" cy="43.5" cx="4.993" gradientTransform="matrix(2.0038 0 0 1.4 27.988 -17.4)" r="2.5"/>
  <linearGradient id="a">
   <stop offset="0"/>
   <stop stop-opacity="0" offset="1"/>
  </linearGradient>
  <radialGradient id="d" xlink:href="#a" gradientUnits="userSpaceOnUse" cy="43.5" cx="4.993" gradientTransform="matrix(2.0038 0 0 1.4 -20.012 -104.4)" r="2.5"/>
  <linearGradient id="k" y2="39.999" gradientUnits="userSpaceOnUse" x2="25.058" y1="47.028" x1="25.058">
   <stop stop-opacity="0" offset="0"/>
   <stop offset=".5"/>
   <stop stop-opacity="0" offset="1"/>
  </linearGradient>
 </defs>
 <g transform="translate(-350.86 -288.93)">
  <g style="enable-background:new" transform="matrix(0.6 0 0 0.221 348.46 302.55)">
   <g opacity=".4" transform="matrix(1.0526 0 0 1.2857 -1.2632 -13.429)">
    <rect height="7" width="5" y="40" x="38" fill="url(#e)"/>
    <rect transform="scale(-1)" height="7" width="5" y="-47" x="-10" fill="url(#d)"/>
    <rect height="7" width="28" y="40" x="10" fill="url(#k)"/>
   </g>
  </g>
  <path stroke-linejoin="round" style="color:#000000" d="m352.36 293.43v15.604c0 1.3216 0.92641 2.3962 2.0865 2.3962h16.827c1.1602 0 2.0866-1.0745 2.0866-2.3962v-15.604h-21z" stroke="url(#i)" stroke-linecap="round" fill="url(#j)"/>
  <path stroke-linejoin="round" style="color:#000000" d="m139.47 20.125v24.469c0 1.637 1.2787 2.9375 2.9062 2.9375h31.25c1.6276 0 2.9062-1.3005 2.9062-2.9375v-24.469h-37.062z" transform="matrix(.51265 0 0 .60091 281.86 282.34)" stroke="url(#h)" stroke-linecap="round" stroke-width="1.8017" fill="none"/>
  <g style="enable-background:new" transform="scale(1.0225 .97801)" fill="#3c3c3c">
   <path style="" d="m352.64 301.72c-0.12344 0.0637-0.23493 0.0956-0.33447 0.0956-0.15928 0-0.3305-0.0717-0.51366-0.21502l-0.65701 0.62714 0.14335 0.14335 0.11348-0.0956c0.0836 0.0796 0.22497 0.11946 0.42407 0.11945h0.0299l0.012-0.006h0.0119l0.006 0.69882h-0.012l-0.0478 0.0119h-0.0239c-0.0239 0.012-0.0836 0.0179-0.17919 0.0179-0.004 0.004-0.0259 0.006-0.0657 0.006-0.15131 0.00001-0.25683-0.0199-0.31655-0.0597-0.10354-0.18715-0.18715-0.33846-0.25086-0.45394-0.0597-0.11945-0.1115-0.219-0.15529-0.29864-0.16326-0.23891-0.29466-0.40415-0.39421-0.49574-0.15131-0.13936-0.33448-0.20904-0.5495-0.20905-0.219 0.00001-0.40216 0.0856-0.54949 0.25683-0.15131 0.16326-0.22697 0.3524-0.22697 0.56742 0 0.15529 0.0418 0.2409 0.12543 0.25683l-0.012-0.012h0.0418c0.012-0.13538 0.10154-0.24488 0.26878-0.3285 0.008-0.008 0.0179-0.0119 0.0299-0.012 0.0159 0.00001 0.0299-0.002 0.0418-0.006 0.0279-0.008 0.0558-0.0139 0.0836-0.0179 0.0319-0.008 0.0577-0.0199 0.0777-0.0358h0.0119v0.97953c-0.0717 0.008-0.12941 0.0159-0.17321 0.0239s-0.0737 0.0139-0.0896 0.0179c-0.1752 0.0717-0.2628 0.22896-0.2628 0.47185 0 0.1115 0.0358 0.20905 0.10751 0.29267 0.0717 0.0836 0.15927 0.12543 0.2628 0.12543v-0.0418-0.0239l-0.006-0.006c0-0.0319 0.008-0.0637 0.0239-0.0956 0.0199-0.0358 0.0438-0.0537 0.0717-0.0537h0.0119c0.0119 0.008 0.0219 0.0139 0.0299 0.0179 0.008 0 0.0159 0.002 0.0239 0.006v0.80035c-0.3942 0.11946-0.64904 0.39023-0.76451 0.8123 0.0239-0.008 0.0518-0.0199 0.0836-0.0358 0.0358-0.012 0.0538-0.0179 0.0538-0.0179 0.0159-0.008 0.0358-0.0199 0.0597-0.0358v0.006c0.16724-0.0796 0.34045-0.11945 0.51963-0.11945 0.24289 0 0.50371 0.0876 0.78244 0.2628l0.47782-0.62714-0.1314-0.1314-0.0717 0.0956c-0.11548-0.0796-0.23294-0.13936-0.3524-0.17918-0.11946-0.0438-0.24488-0.0657-0.37629-0.0657h-0.0358l-0.012 0.006h-0.006v-0.57339c0.0956-0.0637 0.24886-0.0956 0.4599-0.0956 0.15928 0 0.34244 0.0438 0.5495 0.1314l0.0597 0.1314c0.0199 0.0398 0.0398 0.0777 0.0597 0.11348 0.0796 0.15529 0.13936 0.27873 0.17918 0.37031 0.0438 0.0876 0.0856 0.16127 0.12543 0.221h-0.006c0.22298 0.40217 0.43203 0.60325 0.62714 0.60325h0.0358v-3.3089c0.0119-0.004 0.0259-0.008 0.0418-0.0119 0.0199-0.008 0.0418-0.0199 0.0657-0.0358v0.006c0.1075-0.0557 0.20705-0.13139 0.29864-0.22696 0.0597-0.0597 0.10352-0.11746 0.1314-0.17321 0.0279-0.0557 0.0438-0.11149 0.0478-0.16724l-0.0358-0.0239m-2.1502 2.1502c-0.12344 0-0.2867 0.0279-0.48977 0.0836v-1.6007c0.0916 0.0438 0.20307 0.18516 0.33448 0.42407 0.0637 0.12742 0.1533 0.31855 0.26877 0.57339 0.0677 0.14733 0.12344 0.26878 0.16724 0.36434 0.0438 0.0916 0.0776 0.16127 0.10154 0.20905-0.12742-0.0358-0.25484-0.0538-0.38226-0.0538m0.98551-0.23294c-0.0358-0.0796-0.0657-0.14533-0.0896-0.1971-0.0239-0.0518-0.0418-0.0916-0.0538-0.11945 0.0478 0.0159 0.0995 0.0239 0.1553 0.0239h0.16126c0.0478 0 0.0896-0.002 0.12543-0.006 0.0398-0.004 0.0717-0.0119 0.0956-0.0239l0.006 1.0691c-0.0597-0.0876-0.12344-0.19113-0.19113-0.31058-0.0637-0.12344-0.1334-0.26878-0.20905-0.43602"/>
   <path style="" d="m354.7 303.84c-0.0398-0.0557-0.0836-0.12145-0.1314-0.19711-0.0438-0.0796-0.0916-0.16524-0.14335-0.25683-0.0557-0.10352-0.0996-0.1971-0.1314-0.28072-0.0319-0.0836-0.0577-0.16126-0.0776-0.23294-0.3942 0.26281-0.74859 0.39421-1.0632 0.39421h-0.0239l-0.0179-0.006h-0.0179l-0.006-0.006h-0.0358l-0.0538-0.0537v0.0836c0.0637 0.13936 0.0956 0.23891 0.0956 0.29864v1.4454c-0.0796 0.0597-0.1334 0.10751-0.16127 0.14335-0.004 0.004-0.0159 0.0199-0.0358 0.0478-0.0159 0.0279-0.0378 0.0637-0.0657 0.10751v-0.006c-0.008 0.008-0.0159 0.0199-0.0239 0.0358-0.008 0.012-0.0159 0.0279-0.0239 0.0478 0.0478-0.008 0.0956-0.0139 0.14335-0.0179 0.0478-0.008 0.0956-0.012 0.14335-0.012 0.12741 0 0.27873 0.0179 0.45393 0.0538 0.10353 0.0199 0.19511 0.0478 0.27475 0.0836 0.0796 0.0398 0.16126 0.0816 0.24488 0.12543l0.0597 0.0299 0.54352-0.59728-0.14932-0.13737-0.14334 0.14932c-0.0916-0.0438-0.19113-0.0816-0.29864-0.11349-0.10353-0.0318-0.21702-0.0577-0.34045-0.0776v-0.44796c0.0438-0.0319 0.0836-0.0577 0.11945-0.0777 0.2429-0.14334 0.43402-0.25484 0.57339-0.33448 0.14335-0.0836 0.23891-0.13737 0.2867-0.16126l0.006-0.0299m-0.79438-0.11349c0.0279 0.0597 0.0518 0.10951 0.0717 0.14932 0.0239 0.0358 0.0438 0.0657 0.0597 0.0896l-0.32253 0.20905v-0.76452l0.0478-0.0119c0.0199 0.0557 0.0418 0.11149 0.0657 0.16724 0.0239 0.0557 0.0498 0.1095 0.0777 0.16126"/>
   <path style="" d="m358.33 303.22c-0.0199 0.008-0.0339 0.0159-0.0418 0.0239-0.0159 0.004-0.0279 0.006-0.0358 0.006-0.008 0-0.0159 0.002-0.0239 0.006v0.006h-0.006c-0.008 0.004-0.0159 0.006-0.0239 0.006-0.0358 0-0.0557-0.002-0.0597-0.006-0.12742-0.012-0.2409-0.12145-0.34045-0.32851l-0.657 0.4838 0.0896 0.14335 0.0717-0.0299c0.0637 0.0757 0.12344 0.12145 0.17919 0.13738v1.4454c-0.00001 0.0757-0.0358 0.11349-0.10751 0.11349h-0.0657-0.012v-0.006c-0.0159-0.008-0.0338-0.0139-0.0538-0.0179-0.0199-0.008-0.0358-0.0159-0.0478-0.0239-0.1314-0.0637-0.1971-0.16524-0.1971-0.30461v-1.5589c-0.008-0.0319-0.0139-0.0537-0.0179-0.0657-0.008-0.0119-0.0139-0.0239-0.0179-0.0358 0-0.0119-0.002-0.0219-0.006-0.0299-0.0438-0.11149-0.14733-0.20904-0.31058-0.29267l-0.60923 0.52561v0.0478c0.0717 0 0.14135 0.0239 0.20905 0.0717 0.0677 0.0438 0.10153 0.0936 0.10154 0.14932v1.3319c-0.0239 0.0159-0.0498 0.0279-0.0776 0.0358-0.004 0.004-0.01 0.008-0.0179 0.0119-0.004 0.004-0.008 0.008-0.0119 0.012l-0.0239 0.0239c-0.0239-0.0199-0.0538-0.0398-0.0896-0.0597s-0.0757-0.0398-0.11945-0.0597c-0.0199-0.008-0.0319-0.0119-0.0358-0.0119-0.004-0.004-0.0159-0.01-0.0358-0.0179-0.0438 0-0.0756-0.008-0.0956-0.0239v-1.4813c0-0.12343-0.0398-0.23492-0.11946-0.33447-0.0796-0.0996-0.17918-0.17122-0.29864-0.21502l-0.60325 0.60325 0.0478 0.0299h0.0179l0.012 0.006h0.0478l0.0179 0.006h0.0119c0.0836 0 0.1553 0.0597 0.21502 0.17918v1.2901h-0.006l-0.006 0.0119c-0.12344 0.0916-0.20507 0.20706-0.24489 0.34642 0.0199-0.008 0.0398-0.0139 0.0597-0.0179 0.0239-0.004 0.0438-0.006 0.0597-0.006l0.012-0.006h0.0119c0.12344 0 0.2409 0.0279 0.3524 0.0836 0.11149 0.0557 0.22497 0.13538 0.34044 0.23891 0.0597-0.0438 0.1115-0.0816 0.1553-0.11348 0.0438-0.0319 0.0737-0.0538 0.0896-0.0657v0.006c0.0239-0.0159 0.0398-0.0259 0.0478-0.0299l0.012-0.006 0.0119-0.0119c0.004-0.004 0.0219-0.012 0.0538-0.0239 0.0717-0.0398 0.15728-0.0916 0.25683-0.1553 0.0677 0.10751 0.15728 0.1991 0.26877 0.27475 0.11548 0.0796 0.23294 0.12344 0.3524 0.1314 0.0518-0.0239 0.0936-0.0458 0.12543-0.0657 0.0358-0.0159 0.0657-0.0279 0.0896-0.0358 0.28669-0.13141 0.57338-0.19711 0.86008-0.19711h0.012c0.0119 0.004 0.0537 0.006 0.12543 0.006-0.0438-0.0637-0.0657-0.0976-0.0657-0.10154-0.0398-0.0558-0.0597-0.11348-0.0597-0.17321v-1.4514c0.15529-0.0916 0.2409-0.22697 0.25683-0.40615l-0.0299-0.0239"/>
   <path style="" d="m360.72 302.96-0.16126 0.0119c-0.0717 0.11548-0.16525 0.17321-0.28073 0.17321-0.11149 0-0.23095-0.0737-0.35836-0.22099-0.14335 0.14335-0.22299 0.219-0.23892 0.22696-0.17122 0.0916-0.34841 0.13738-0.53157 0.13738-0.0358 0-0.0557-0.002-0.0597-0.006-0.11149 0-0.18118-0.008-0.20905-0.0239-0.0438 0.00001-0.0856-0.0179-0.12543-0.0537v0.0537c0 0.0159 0.004 0.0279 0.0119 0.0358v0.006l0.0179 0.0418c0 0.0159 0.002 0.0259 0.006 0.0299v-0.006 0.012c0.004 0 0.006 0.002 0.006 0.006l0.006 1.0393-0.006 0.0119c0 0.0518-0.0179 0.10154-0.0538 0.14932l0.006-0.0179-0.0418 0.0418 0.3942 0.0179-0.0657 0.0657c-0.0159 0.0199-0.0299 0.0358-0.0418 0.0478l-0.0239 0.0239c-0.13538 0.16724-0.24289 0.32452-0.32253 0.47185-0.0796 0.14335-0.13538 0.2847-0.16724 0.42407h0.17321c0.0717-0.1752 0.1991-0.26281 0.38226-0.26281 0.0438 0 0.0777 0.006 0.10154 0.0179 0.0358 0 0.0677 0.006 0.0956 0.0179 0.0279 0.0159 0.0577 0.0378 0.0896 0.0657l0.17321 0.17321c0.19511-0.20705 0.44397-0.31058 0.7466-0.31058h0.0358c0.012 0.004 0.0478 0.006 0.10751 0.006 0.0199 0.012 0.0458 0.0199 0.0777 0.0239h0.11946c0.008 0 0.0139 0.002 0.0179 0.006h-0.006c0.008 0.004 0.0339 0.006 0.0777 0.006l-0.0239-0.0478c-0.012-0.0199-0.0239-0.0398-0.0358-0.0597-0.012-0.0199-0.0139-0.0259-0.006-0.0179l0.006 0.0119c-0.004-0.0199-0.006-0.0299-0.006-0.0299 0-0.004-0.002-0.008-0.006-0.012v0.006l-0.006-0.0119v-0.0179c-0.004-0.004-0.006-0.01-0.006-0.0179v-1.0154c0 0.004 0.002-0.002 0.006-0.0179 0.004-0.0199 0.008-0.0358 0.012-0.0478v0.006-0.0119c0.004-0.004 0.006-0.01 0.006-0.0179l0.006-0.012v-0.0119l0.012-0.012v-0.0119l0.006-0.006c0-0.0119 0.002-0.0219 0.006-0.0299v-0.0239c0.004-0.012 0.006-0.0199 0.006-0.0239l-0.56145 0.0119c0.33448-0.34244 0.55348-0.67293 0.65701-0.99148l-0.0239-0.0299m-0.75257 2.204h-0.0239c-0.0199 0.008-0.0358 0.0139-0.0478 0.0179h-0.0119l-0.0239 0.0119c-0.14733-0.18317-0.32452-0.27475-0.53158-0.27475-0.0199 0-0.0478 0.004-0.0836 0.012-0.0358 0.004-0.0777 0.01-0.12543 0.0179 0.0518-0.0518 0.0956-0.0975 0.1314-0.13737 0.0358-0.0438 0.0677-0.0796 0.0956-0.10751l0.31058-0.31058h0.30462l0.0119 0.0119v0.75257l-0.006 0.006m-0.0956-1.2722c-0.0916 0.0916-0.16724 0.16525-0.22696 0.22099-0.0557 0.0557-0.0996 0.0936-0.1314 0.11349h-0.0657v-0.75257c0.0199 0 0.0418-0.006 0.0657-0.0179h0.0239c0.004-0.004 0.0119-0.008 0.0239-0.012 0.14733 0.11548 0.27873 0.17321 0.3942 0.17321 0.0757 0 0.14733-0.0139 0.21502-0.0418-0.0637 0.0677-0.16325 0.17322-0.29864 0.31656"/>
  </g>
  <path style="enable-background:new" d="m354.36 303.45h4" stroke="#787878" stroke-linecap="square" fill="none"/>
  <path style="enable-background:new" d="m354.86 300.89h16" stroke="#646464" stroke-linecap="square" stroke-width="2" fill="none"/>
  <path style="enable-background:new" d="m354.36 305.43h3.9998" stroke="#787878" stroke-linecap="square" fill="none"/>
  <path style="enable-background:new" d="m354.36 307.43h3.9998" stroke="#787878" stroke-linecap="square" fill="none"/>
  <path style="enable-background:new" d="m354.36 309.43h3.9998" stroke="#787878" stroke-linecap="square" fill="none"/>
  <path style="enable-background:new" d="m367.36 303.45h4" stroke="#787878" stroke-linecap="square" fill="none"/>
  <path style="enable-background:new" d="m367.36 305.43h3.9998" stroke="#787878" stroke-linecap="square" fill="none"/>
  <path style="enable-background:new" d="m367.36 307.43h3.9998" stroke="#787878" stroke-linecap="square" fill="none"/>
  <path style="enable-background:new" d="m367.36 309.43h3.9998" stroke="#787878" stroke-linecap="square" fill="none"/>
  <g style="enable-background:new" transform="matrix(.20018 0 0 .20018 350.66 302.73)">
   <path opacity=".4" d="m73.25 4.625a10.625 3.625 0 1 1 -21.25 0 10.625 3.625 0 1 1 21.25 0z" fill-rule="evenodd" transform="matrix(2.1647 0 0 2.5637 -111.56 26.85)" fill="url(#c)"/>
   <path d="m43.5 23.999c0 10.77-8.731 19.501-19.5 19.501s-19.5-8.731-19.5-19.501c0-10.769 8.731-19.499 19.5-19.499s19.5 8.7299 19.5 19.499z" stroke="url(#g)" stroke-width="4.9956" fill="url(#b)"/>
   <path opacity=".4" d="m24.33 5.2182-2.3623 0.27046-2.5986 0.70995c0.22135-0.077615 0.4456-0.16234 0.67496-0.23665l-0.304-0.541-1.012 0.1691-0.507 0.4733-0.776 0.1014-0.709 0.3381-0.337 0.169-0.101 0.1352-0.507 0.1014-0.303 0.6424-0.405-0.8114-0.13499 0.33807 0.0675 0.91279-0.64121 0.54091-0.37122 0.98041h0.7762l0.30373-0.64234 0.10124-0.23665c0.34129-0.24178 0.66483-0.51103 1.0124-0.74376l0.80995 0.27046c0.52734 0.3589 1.0584 0.72347 1.5861 1.0818l0.777-0.7099-0.878-0.3719-0.405-0.8114-1.485-0.169-0.033-0.169 0.641 0.1352 0.371-0.3719 0.81-0.169c0.192-0.0934 0.38-0.1607 0.574-0.2367l-0.50622 0.4733 1.8224 1.2509v0.74376l-0.7087 0.70995 0.94494 1.8932 0.64121-0.37188 0.80995-1.2509c1.1387-0.35268 2.165-0.76307 3.2398-1.2509l-0.0675 0.4733 0.53996 0.37188 0.94494-0.64233-0.47247-0.54091-0.64121 0.37188-0.20249-0.067613c0.04651-0.02129 0.08828-0.045973 0.13499-0.067613l0.944-2.4341-2.058-0.8114zm-9.2469 3.6512 0.7762 0.54091h0.64121v-0.64233l-0.776-0.3381-0.641 0.4394zm17.92-0.4395-1.384 0.338-0.877 0.5747v0.50711l-1.3837 0.87898 0.26998 1.3185 0.80995-0.57472 0.50622 0.57472 0.57371 0.33807 0.37122-0.98041-0.20249-0.57472 0.20249-0.40569 0.80995-0.74375h0.37122l-0.37122 0.81137v0.74375c0.33384-0.09103 0.6708-0.12648 1.0124-0.16904l-0.94494 0.67614-0.0675 0.40568-1.0799 0.91279-1.1137-0.27046v-0.64234l-0.50622 0.33807 0.23624 0.57472h-0.80995l-0.43872 0.74376-0.53996 0.60853-0.97868 0.20284 0.57371 0.57472 0.13499 0.57472h-0.7087l-0.94494 0.50711v1.4875h0.43872l0.40497 0.43949 0.91119-0.43949 0.33748-0.91279 0.67496-0.40568 0.13499-0.33807 1.0799-0.27046 0.60746 0.67614 0.64121 0.33807-0.37123 0.74376 0.57372-0.16904 0.30373-0.74376-0.74245-0.84518h0.30373l0.74245 0.60853 0.13499 0.81137 0.64121 0.74376 0.16874-1.0818 0.33748-0.16904c0.35922 0.37357 0.64238 0.83043 0.94494 1.2509l1.1137 0.06762 0.64121 0.40569-0.30373 0.43949-0.64121 0.57472h-0.94494l-1.2487-0.40568-0.64121 0.06762-0.47247 0.54092-1.3499-1.3523-0.94494-0.27046-1.3837 0.16904-1.2149 0.33807c-0.69306 0.7871-1.4026 1.5829-2.0586 2.4003l-0.7762 1.8932 0.37123 0.40569-0.67496 0.98041 0.74245 1.7242c0.6178 0.70009 1.2392 1.3955 1.8561 2.096l0.91119-0.77756 0.37123 0.4733 0.97869-0.64234 0.33748 0.37188h0.97868l0.57371 0.64234-0.33748 1.1494 0.67496 0.77756-0.03375 1.3523 0.50622 0.98041-0.37122 0.84518c-0.03619 0.60617-0.0675 1.1855-0.0675 1.7918 0.29776 0.82134 0.59628 1.6407 0.87744 2.4679l0.20249 1.3185v0.67614h0.53996l0.7762-0.50711h0.94494l1.4174-1.5889-0.16874-0.54092 0.94494-0.84518-0.7087-0.77756 0.84369-0.67614 0.80995-0.50711 0.37122-0.40568-0.23623-0.91279c0-0.76848 0.000002-1.5303 0-2.2989l0.64121-1.4199 0.80994-0.87898 0.87744-2.1637v-0.57472c-0.43664 0.0551-0.85517 0.10478-1.2824 0.13523l0.87744-0.87899 1.2149-0.81137 0.64121-0.74376v-0.81137c-0.146-0.274-0.293-0.57-0.439-0.844l-0.57371 0.67614-0.43872-0.5071-0.64121-0.50711v-1.048l0.74245 0.84518 0.8437-0.10142c0.38062 0.34614 0.74609 0.65392 1.0799 1.048l0.53998-0.60854c0-0.65513-0.73657-3.8893-2.3286-6.6262-1.592-2.736-4.3872-5.2401-4.3872-5.2401l-0.20249 0.37188-0.74245 0.81137-0.94494-0.98041h0.94494l0.438-0.4738-1.755-0.3381-0.911-0.338zm-20.283 0.4394-0.337 0.879s-0.59084 0.097717-0.74245 0.13523c-1.9362 1.7873-5.8407 5.6642-6.7496 12.948 0.035987 0.16888 0.64121 1.1494 0.64121 1.1494l1.4849 0.87899 1.4849 0.40568 0.64121 0.77756 0.97869 0.74376 0.57371-0.10142 0.40497 0.20284v0.13523l-0.53996 1.5213-0.43872 0.64234 0.13499 0.30426-0.33748 1.2171 1.2487 2.2989 1.2824 1.1156 0.57371 0.81137-0.0675 1.6904 0.40497 0.9466-0.40497 1.8256s-0.05404-0.01501 0 0.16904c0.05452 0.18413 2.2559 1.4228 2.3961 1.3185 0.13968-0.1063 0.26998-0.20284 0.26998-0.20284l-0.13499-0.40568 0.57371-0.54091 0.20249-0.57472 0.91119-0.30426 0.7087-1.758-0.20249-0.4733 0.47247-0.74376 1.0799-0.23665 0.53996-1.2847-0.13499-1.5889 0.8437-1.1832 0.13499-1.2171c-1.1576-0.57505-2.2933-1.1659-3.4423-1.758l-0.57371-1.1156-1.0462-0.23665-0.57371-1.5213-1.3837 0.16904-1.2149-0.87898-1.2824 1.1156v0.16904c-0.385-0.11-0.84-0.127-1.1817-0.337l-0.26998-0.81137v-0.87898l-0.87744 0.10142c0.070612-0.55989 0.16513-1.1306 0.23623-1.6904h-0.50622l-0.50622 0.64234-0.47247 0.23665-0.7087-0.40568-0.067496-0.87898 0.13499-0.9466 1.0462-0.81137h0.84369l0.16874-0.4733 1.0462 0.23665 0.7762 0.98041 0.13499-1.6227 1.3499-1.1156 0.47247-1.1832 1.0124-0.40568 0.53996-0.81137 1.2824-0.23665 0.64121-0.9466h-1.9236l1.2149-0.57472h0.84369l1.0799-0.37188 0.20249 1.048 0.47247-0.74376-0.53997-0.37188 0.13499-0.43949-0.43872-0.40569-0.47247-0.13523 0.13499-0.50711-0.37123-0.70995-0.8437 0.33807 0.13499-0.64233-0.97869-0.57472-0.7762 1.3523 0.0675 0.4733-0.7762 0.33807-0.47247 1.048-0.23623-0.98041-1.3162-0.54091-0.23623-0.74376 1.7886-1.0142 0.7762-0.74376 0.0675-0.87898-0.43872-0.23665-0.57371-0.067613zm14.478 1.6227v0.54091l0.30373 0.33807v0.81137l-0.16874 1.0818 0.87744-0.16904 0.64121-0.64233-0.57371-0.54092c-0.18605-0.49631-0.3746-0.94387-0.60746-1.4199h-0.47247zm-0.74245 1.0818-0.53996 0.16904 0.13499 0.9804 0.7087-0.37188-0.30373-0.77756zm9.8881 8.8913 0.80995 0.9466 0.97869 2.096 0.60746 0.67614-0.30373 0.70995 0.53996 0.64234c-0.24779 0.01643-0.48776 0.03381-0.74245 0.03381-0.46267-0.97394-0.82884-1.9561-1.1812-2.975l-0.60746-0.67614-0.33748-1.2171 0.23624-0.23665z"/>
   <path opacity=".4" d="m40.677 23.999c0 9.211-7.4673 16.678-16.677 16.678-9.2108 0-16.678-7.4671-16.678-16.678 0-9.2106 7.4669-16.677 16.678-16.677 9.21 0 16.677 7.4663 16.677 16.677z" stroke="url(#f)" stroke-width="4.9956" fill="none"/>
  </g>
  <path d="m360.14 303.07v0.95164c2.4459 0.0456 4.4223 2.0232 4.4672 4.4714h0.96037c-0.0454-2.978-2.4523-5.3777-5.4276-5.4231zm0 2.1944v0.86039c1.291 0.0449 2.3277 1.0762 2.3727 2.3682h0.86042c-0.0453-1.7685-1.4661-3.1834-3.2331-3.2286zm0.56493 2.1727c-0.1514 0-0.26887 0.0558-0.37373 0.16078-0.10499 0.10323-0.15643 0.21349-0.15643 0.36501 0 0.14917 0.0517 0.26651 0.15643 0.36937 0.10434 0.10255 0.22117 0.15209 0.37373 0.15209 0.14782 0 0.25796-0.0493 0.36068-0.15209 0.10518-0.10528 0.16078-0.22258 0.16078-0.36937 0-0.15152-0.0558-0.26178-0.16078-0.36501-0.10328-0.10523-0.21404-0.16078-0.36068-0.16078z" stroke="#646464" stroke-width=".25" fill="#646464"/>
 </g>
</svg>
