<!-- Created with Inkscape (http://www.inkscape.org/) -->
<svg id="svg3946" xmlns:rdf="http://www.w3.org/1999/02/22-rdf-syntax-ns#" xmlns="http://www.w3.org/2000/svg" height="24" width="24" version="1.1" xmlns:cc="http://creativecommons.org/ns#" xmlns:xlink="http://www.w3.org/1999/xlink" xmlns:dc="http://purl.org/dc/elements/1.1/">
<defs id="defs3948">
<linearGradient id="linearGradient4004" y2="88.222" gradientUnits="userSpaceOnUse" x2="93.052" gradientTransform="matrix(0.0735089,0,0,0.07157575,13.278885,12.194273)" y1="81.266" x1="95.411">
<stop id="stop4022" stop-color="#FFF" offset="0"/>
<stop id="stop4028" stop-color="#FFF" stop-opacity="0.39215687" offset="1"/>
</linearGradient>
<linearGradient id="linearGradient3962" y2="132.59" gradientUnits="userSpaceOnUse" x2="80.983" gradientTransform="matrix(0.17694583,0,0,0.16270013,1.0444307,0.42807352)" y1="12.637" x1="91.069">
<stop id="stop3966" stop-color="#FFF" offset="0"/>
<stop id="stop3968" stop-color="#FFF" stop-opacity="0.23529412" offset="0.36815"/>
<stop id="stop3970" stop-color="#FFF" stop-opacity="0.15686275" offset="0.77671"/>
<stop id="stop3972" stop-color="#FFF" stop-opacity="0.39215687" offset="1"/>
</linearGradient>
<linearGradient id="linearGradient3911" y2="160.42" gradientUnits="userSpaceOnUse" x2="53.698" gradientTransform="matrix(0.16409195,0,0,0.16555219,0.33776315,1.1007515)" y1="11.726" x1="54.32">
<stop id="stop3915" stop-color="#FFF" offset="0"/>
<stop id="stop3917" stop-color="#FFF" stop-opacity="0.23529412" offset="0.54875"/>
<stop id="stop3919" stop-color="#FFF" stop-opacity="0.15686275" offset="0.89156"/>
<stop id="stop3921" stop-color="#FFF" stop-opacity="0.39215687" offset="1"/>
</linearGradient>
<linearGradient id="linearGradient4062" y2="127.88" gradientUnits="userSpaceOnUse" x2="89.038" gradientTransform="matrix(0.18301686,0,0,0.18265023,1.0546029,0.40980517)" y1="60.429" x1="90.726">
<stop id="stop3929" stop-color="#6cf46c" offset="0"/>
<stop id="stop3935" stop-color="#158415" offset="1"/>
</linearGradient>
<linearGradient id="linearGradient4054" y2="126.17" gradientUnits="userSpaceOnUse" x2="46.816" gradientTransform="matrix(0.18300405,0,0,0.18263907,-0.56160275,-0.04778659)" y1="4.9685" x1="45.176">
<stop id="stop3890" stop-color="#ff8f6e" offset="0"/>
<stop id="stop3896" stop-color="#c10500" offset="1"/>
</linearGradient>
<linearGradient id="linearGradient4046" y2="8.5423" gradientUnits="userSpaceOnUse" x2="86.977" gradientTransform="matrix(0.18301686,0,0,0.16821948,0.46334181,0.15418634)" y1="82.382" x1="88.09">
<stop id="stop4060" stop-color="#2d75db" offset="0"/>
<stop id="stop4062" stop-color="#9bc5ff" offset="1"/>
</linearGradient>
<radialGradient id="radialGradient3819" xlink:href="#linearGradient3820-7-2-8-6" gradientUnits="userSpaceOnUse" cy="186.17" cx="99.157" gradientTransform="matrix(0.11054841,0,0,0.03922345,-0.5674435,12.482999)" r="62.769"/>
<linearGradient id="linearGradient3820-7-2-8-6">
<stop id="stop3822-2-6-5-0" stop-color="#3d3d3d" offset="0"/>
<stop id="stop3864-8-7-4-1" stop-color="#686868" stop-opacity="0.49803922" offset="0.5"/>
<stop id="stop3824-1-2-6-7" stop-color="#686868" stop-opacity="0" offset="1"/>
</linearGradient>
<radialGradient id="radialGradient3313" gradientUnits="userSpaceOnUse" xlink:href="#linearGradient3820-7-2-8-6" cx="99.157" cy="186.17" r="62.769" gradientTransform="matrix(0.043493,0,0,0.03633797,16.374033,13.311651)"/>
</defs>
<metadata id="metadata3951">
<rdf:RDF>
<cc:Work rdf:about="">
<dc:format>image/svg+xml</dc:format>
<dc:type rdf:resource="http://purl.org/dc/dcmitype/StillImage"/>
<dc:title/>
</cc:Work>
</rdf:RDF>
</metadata>
<path id="path3093" opacity="0.31697346" fill="url(#radialGradient3313)" d="m23.417,20.077a2.73,2.2809,0,0,1,-5.46,0,2.73,2.2809,0,1,1,5.46,0z"/>
<path id="path3818-0-5-0" d="m17.333,19.785a6.939,2.462,0,0,1,-13.878,0,6.939,2.462,0,1,1,13.878,0z" fill="url(#radialGradient3819)"/>
<path id="path2555-5" style="enable-background:accumulate;color:#000000;" d="m13,2.5093,0,8.7474,8.6647,3.6167c0.54681-1.103,0.85217-2.3267,0.85217-3.6167,0-4.8265-4.2658-8.7474-9.5169-8.7474z" fill-rule="nonzero" fill="url(#linearGradient4046)"/>
<path id="path3828" style="enable-background:accumulate;color:#000000;" fill-rule="nonzero" fill="url(#linearGradient4054)" d="m10.51,2.5092c-5.2507,0-9.5162,4.257-9.5162,9.4972s4.2655,9.4972,9.5162,9.4972c2.1989,0,4.2208-0.75058,5.8333-2.0033l-5.8333-7.4939v-9.4972z"/>
<path id="path3852" fill="url(#linearGradient4062)" d="m14.693,14.173,5.8337,7.4944c1.2088-0.93919,2.1887-2.1606,2.831-3.5674l-8.6647-3.927z"/>
<path id="path3879" opacity="0.4" style="enable-background:accumulate;color:#000000;" d="m10.51,2.5092c-5.2507,0-9.5162,4.257-9.5162,9.4972s4.2655,9.4972,9.5162,9.4972c2.1989,0,4.2208-0.75058,5.8333-2.0033l-5.8333-7.4939v-9.4972z" stroke="#760300" stroke-width="0.99999988" fill="none"/>
<path id="path3883" opacity="0.4" style="enable-background:accumulate;color:#000000;" d="m13,2.5093,0,8.7474,8.6647,3.6167c0.5468-1.103,0.85217-2.3267,0.85217-3.6167,0-4.8265-4.2658-8.7474-9.5169-8.7474z" stroke="#143b73" stroke-width="0.99999988" fill="none"/>
<path id="path3885" opacity="0.4" stroke-linejoin="miter" d="m14.693,14.173,5.8337,7.4944c1.2088-0.93919,2.1887-2.1606,2.831-3.5674l-8.6647-3.927z" stroke="#0a410a" stroke-linecap="butt" stroke-miterlimit="4.30000019" stroke-dasharray="none" stroke-width="0.99999988" fill="none"/>
<path id="path3887" opacity="0.4" style="enable-background:accumulate;color:#000000;" d="M1.9797,12.368c0.3925,6.504,7.4379,10.214,12.947,6.907-1.718-2.238-5.4121-6.876-5.4121-6.876s-0.0133-5.9883-0.0133-8.8234c-4.2436,0.4771-7.5647,4.0437-7.5219,8.7924z" stroke="url(#linearGradient3911)" stroke-width="0.99999981999999998" fill="none"/>
<path id="path3923" opacity="0.4" style="enable-background:accumulate;color:#000000;" d="m14.005,10.654c2.3403,0.98162,4.7758,2.0151,7.1161,2.9968,1.6627-4.6866-1.699-9.5356-7.1194-10.137,0,2.3715,0.0033,4.7685,0.0033,7.14z" stroke="url(#linearGradient3962)" stroke-width="0.99999987999999995" fill="none"/>
<path id="path3974" opacity="0.4" d="m20.645,20.242c0.4365-0.35173,1.0961-1.2123,1.3289-1.6692-1.0534-0.45947-4.03-1.8169-4.03-1.8169s2.0992,2.7453,2.7011,3.4861z" stroke="url(#linearGradient4004)" stroke-miterlimit="4.19999980999999956" stroke-dasharray="none" stroke-width="0.99999987999999995" fill="none"/>
</svg>
