<?xml version="1.0" encoding="UTF-8" standalone="no"?>
<svg xmlns:rdf="http://www.w3.org/1999/02/22-rdf-syntax-ns#" xmlns="http://www.w3.org/2000/svg" height="24" width="24" version="1.0" xmlns:cc="http://creativecommons.org/ns#" xmlns:xlink="http://www.w3.org/1999/xlink" xmlns:dc="http://purl.org/dc/elements/1.1/">
 <defs>
  <linearGradient id="f">
   <stop stop-color="#3465a4" stop-opacity="0" offset="0"/>
   <stop stop-color="#3465a4" offset=".26478"/>
   <stop stop-color="#3465a4" offset=".68843"/>
   <stop stop-color="#3465a4" stop-opacity="0" offset="1"/>
  </linearGradient>
  <linearGradient id="g">
   <stop offset="0"/>
   <stop stop-opacity="0" offset="1"/>
  </linearGradient>
  <radialGradient id="h" gradientUnits="userSpaceOnUse" cy="26.375" cx="25.812" gradientTransform="matrix(1 0 0 .97959 0 .53827)" r="3.0625">
   <stop stop-color="#fff" offset="0"/>
   <stop stop-color="#fff" stop-opacity="0" offset="1"/>
  </radialGradient>
  <linearGradient id="b" y2="27.696" gradientUnits="userSpaceOnUse" x2="27.572" y1="14.335" x1="23.544">
   <stop stop-color="#747474" offset="0"/>
   <stop stop-color="#cbcbcb" offset="1"/>
  </linearGradient>
  <linearGradient id="c" y2="21.333" gradientUnits="userSpaceOnUse" x2="26.22" y1="17.664" x1="23.869">
   <stop stop-color="#fff" offset="0"/>
   <stop stop-color="#b0b0b0" offset="1"/>
  </linearGradient>
  <linearGradient id="a" y2="10.326" gradientUnits="userSpaceOnUse" x2="20.053" y1="29.849" x1="27.544">
   <stop stop-color="#fff" offset="0"/>
   <stop stop-color="#fff" stop-opacity="0" offset="1"/>
  </linearGradient>
  <radialGradient id="j" xlink:href="#g" gradientUnits="userSpaceOnUse" cy="41.5" cx="5" gradientTransform="matrix(.58947 0 0 1.5 34.739 -102.81)" r="5"/>
  <linearGradient id="p" y2="35" gradientUnits="userSpaceOnUse" x2="17.554" gradientTransform="matrix(1.7441 0 0 1.3636 -58.616 -14.665)" y1="46" x1="17.554">
   <stop stop-opacity="0" offset="0"/>
   <stop offset=".5"/>
   <stop stop-opacity="0" offset="1"/>
  </linearGradient>
  <radialGradient id="i" xlink:href="#g" gradientUnits="userSpaceOnUse" cy="41.5" cx="5" gradientTransform="matrix(.58947 0 0 1.5 -.51080 -102.81)" r="5"/>
  <linearGradient id="e" y2="15.605" xlink:href="#f" gradientUnits="userSpaceOnUse" x2="-33.35" y1="34.661" x1="-33.684"/>
  <linearGradient id="d" y2="16.024" xlink:href="#f" gradientUnits="userSpaceOnUse" x2="-34.247" y1="34.111" x1="-34.357"/>
  <linearGradient id="o" y2="6.5" gradientUnits="userSpaceOnUse" x2="36.936" gradientTransform="matrix(.50005 0 0 .50005 .063088 -.70497)" y1="6.5" x1="10.877">
   <stop stop-color="#fff" stop-opacity="0" offset="0"/>
   <stop stop-color="#fff" offset=".245"/>
   <stop stop-color="#fff" offset=".77350"/>
   <stop stop-color="#fff" stop-opacity="0" offset="1"/>
  </linearGradient>
  <linearGradient id="n" y2="44.401" gradientUnits="userSpaceOnUse" x2="25.511" gradientTransform="matrix(.53532 0 0 .51851 -1.5239 -.82980)" y1="1.7998" x1="25.271">
   <stop stop-color="#b5b5b5" offset="0"/>
   <stop stop-color="#e9e9e9" offset=".12836"/>
   <stop stop-color="#fff" offset=".15045"/>
   <stop stop-color="#b5b5b5" offset="1"/>
  </linearGradient>
  <linearGradient id="m" y2="44.307" gradientUnits="userSpaceOnUse" x2="22.615" gradientTransform="matrix(.53532 0 0 .51851 -1.5239 -.82980)" y1="1.7571" x1="22.429">
   <stop stop-color="#969696" offset="0"/>
   <stop stop-color="#555753" offset=".12899"/>
   <stop stop-color="#a0a0a0" offset=".15348"/>
   <stop stop-color="#555753" offset="1"/>
  </linearGradient>
  <linearGradient id="l" y2="43.844" gradientUnits="userSpaceOnUse" x2="23.438" y1="8.4688" x1="23.062">
   <stop stop-color="#848484" offset="0"/>
   <stop stop-color="#d3d3d3" offset="1"/>
  </linearGradient>
  <linearGradient id="k" y2="21.333" gradientUnits="userSpaceOnUse" x2="26.22" y1="19.223" x1="25.02">
   <stop stop-color="#fff" offset="0"/>
   <stop stop-color="#b0b0b0" offset="1"/>
  </linearGradient>
 </defs>
 <g transform="matrix(.37616 0 0 .39076 18.632 5.1695)">
  <rect opacity=".4" transform="scale(-1)" height="15" width="2.9385" y="-48.062" x="37.687" fill="url(#j)"/>
  <rect opacity=".4" height="15" width="40.115" y="33.062" x="-37.687" fill="url(#p)"/>
  <rect opacity=".4" transform="scale(1,-1)" height="15" width="2.9385" y="-48.062" x="2.4365" fill="url(#i)"/>
 </g>
 <path stroke-linejoin="round" d="m7.0943 0.58256c-0.6797 0-1.0724 0.25175-1.2329 0.63614l-1.2733 2.147c0.0073 0.172-0.0319 0.338-0.048 0.5089l0.048 17.35c0 0.677 0.5359 1.225 1.217 1.225h12.426c0.681 0 1.233-0.548 1.233-1.225v-17.35l-0.048-0.5093-1.33-2.147c-0.228-0.39264-0.537-0.63614-1.217-0.63614h-9.7747v0z" stroke="url(#m)" stroke-linecap="round" fill="url(#n)"/>
 <path stroke-linejoin="round" d="m33.941 19.665a9.0409 9.0409 0 1 1 -18.082 0 9.0409 9.0409 0 1 1 18.082 0z" fill-rule="evenodd" transform="matrix(.53830 0 0 .53830 -1.4019 -.35406)" stroke="#5a5a5a" stroke-linecap="round" stroke-width="1.8577" fill="url(#b)"/>
 <path stroke-linejoin="round" d="m24.906 16.75c-1.683 0-2.906 1.223-2.906 2.906 0 1.684 1.248 2.938 2.906 2.938s2.906-1.254 2.906-2.938c0-1.683-1.222-2.906-2.906-2.906z" fill-rule="evenodd" transform="matrix(.51594 0 0 .51594 -.84817 .082257)" stroke="#696969" stroke-linecap="round" stroke-width="1.9382" fill="url(#k)"/>
 <path stroke-linejoin="round" d="m24.906 8.4062c-6.188 0-11.25 5.0618-11.25 11.25 0 6.189 5.053 11.282 11.25 11.282 6.198 0 11.25-5.093 11.25-11.282 0-6.188-5.061-11.25-11.25-11.25z" transform="matrix(.51594 0 0 .51594 -.84817 .082257)" stroke="url(#a)" stroke-linecap="round" stroke-width="1.9382" fill="none"/>
 <path stroke-linejoin="round" d="m11.844 6.9375c-0.638 0-1.094 0.459-1.094 1.0937l0.094 34.094c0 0.635 0.457 1.125 1.094 1.125h24.218c0.637 0 1.094-0.49 1.094-1.125v-34.094c0-0.6345-0.456-1.0935-1.094-1.0935h-24.312z" transform="matrix(.48951 0 0 .49802 .25366 .020832)" stroke="url(#l)" stroke-linecap="round" stroke-width="2.0253" fill="none"/>
 <g transform="matrix(.18852 0 0 .18852 6.7086 5.2736)" stroke-width="2.7674">
  <path stroke-linejoin="round" d="m33.941 19.665a9.0409 9.0409 0 1 1 -18.082 0 9.0409 9.0409 0 1 1 18.082 0z" fill-rule="evenodd" transform="matrix(1.0318 0 0 1.0318 -13.126 51.132)" stroke="#5a5a5a" stroke-linecap="round" stroke-width="5.1411" fill="url(#b)"/>
  <path d="m24.906 15.969c-2.111 0-3.687 1.576-3.687 3.687 0 2.112 1.598 3.719 3.687 3.719s3.688-1.607 3.688-3.719c0-2.111-1.576-3.687-3.688-3.687z" fill-rule="evenodd" transform="matrix(1.0318 0 0 1.0318 -13.126 51.132)" fill="url(#c)"/>
  <path stroke-linejoin="round" d="m24.906 4.9688c-8.048 0-14.687 6.6392-14.687 14.687 0 8.049 6.615 14.719 14.687 14.719s14.688-6.67 14.688-14.719c0-8.048-6.639-14.687-14.688-14.687z" transform="matrix(1.0318 0 0 1.0318 -13.126 51.132)" stroke="url(#a)" stroke-linecap="round" stroke-width="5.1411" fill="none"/>
 </g>
 <g transform="matrix(.18852 0 0 .18852 12.555 5.2736)" stroke-width="2.7674">
  <path stroke-linejoin="round" d="m33.941 19.665a9.0409 9.0409 0 1 1 -18.082 0 9.0409 9.0409 0 1 1 18.082 0z" fill-rule="evenodd" transform="matrix(1.0318 0 0 1.0318 -13.126 51.132)" stroke="#5a5a5a" stroke-linecap="round" stroke-width="5.1411" fill="url(#b)"/>
  <path d="m24.906 15.969c-2.111 0-3.687 1.576-3.687 3.687 0 2.112 1.598 3.719 3.687 3.719s3.688-1.607 3.688-3.719c0-2.111-1.576-3.687-3.688-3.687z" fill-rule="evenodd" transform="matrix(1.0318 0 0 1.0318 -13.126 51.132)" fill="url(#c)"/>
  <path stroke-linejoin="round" d="m24.906 5.0625c-7.999 0-14.594 6.5945-14.594 14.594 0 8 6.572 14.625 14.594 14.625 8.023 0 14.594-6.625 14.594-14.625 0-7.999-6.594-14.594-14.594-14.594z" transform="matrix(1.0318 0 0 1.0318 -13.126 51.132)" stroke="url(#a)" stroke-linecap="round" stroke-width="5.1411" fill="none"/>
 </g>
 <path opacity=".4" d="m28.875 26.375a3.0625 3 0 1 1 -6.125 0 3.0625 3 0 1 1 6.125 0z" transform="matrix(.63272 0 0 .61465 -3.3301 -3.1687)" fill="url(#h)"/>
 <path opacity=".4" d="m5.7519 2.5454h12.531" stroke="url(#o)" stroke-linecap="round" stroke-width=".99994px" fill="none"/>
 <g stroke-linejoin="round" transform="matrix(.50005 0 0 .50005 -.11266 .19754)" stroke-linecap="round" fill="none">
  <path d="m-29.85 33.8a11 11 0 0 1 -0.047 -17.565" transform="matrix(1.1484 0 0 1.3075 47.524 -12.881)" stroke="url(#e)" stroke-width="1.632"/>
  <path d="m-29.85 33.8a11 11 0 0 1 -0.047 -17.565" transform="matrix(1.5892 0 0 1.8093 55.653 -25.435)" stroke="url(#d)" stroke-width="1.1793"/>
 </g>
 <g stroke-linejoin="round" transform="matrix(-.50005 0 0 .50005 24.113 .19754)" stroke-linecap="round" fill="none">
  <path d="m-29.85 33.8a11 11 0 0 1 -0.047 -17.565" transform="matrix(1.1484 0 0 1.3075 47.524 -12.881)" stroke="url(#e)" stroke-width="1.632"/>
  <path d="m-29.85 33.8a11 11 0 0 1 -0.047 -17.565" transform="matrix(1.5892 0 0 1.8093 55.653 -25.435)" stroke="url(#d)" stroke-width="1.1793"/>
 </g>
</svg>
