<!-- Created with Inkscape (http://www.inkscape.org/) -->
<svg id="svg3946" xmlns:rdf="http://www.w3.org/1999/02/22-rdf-syntax-ns#" xmlns="http://www.w3.org/2000/svg" height="24" width="24" version="1.1" xmlns:cc="http://creativecommons.org/ns#" xmlns:xlink="http://www.w3.org/1999/xlink" xmlns:dc="http://purl.org/dc/elements/1.1/">
<defs id="defs3948">
<linearGradient id="linearGradient3077" x1="71.204" gradientUnits="userSpaceOnUse" y1="6.2376" gradientTransform="matrix(0.5135135,0,0,0.5135135,-24.836132,-1.021284)" x2="71.204" y2="44.341">
<stop id="stop4013" stop-color="#FFF" offset="0"/>
<stop id="stop4015" stop-color="#FFF" stop-opacity="0.23529412" offset="0.50776"/>
<stop id="stop4017" stop-color="#FFF" stop-opacity="0.15686275" offset="0.83457"/>
<stop id="stop4019" stop-color="#FFF" stop-opacity="0.39215687" offset="1"/>
</linearGradient>
<radialGradient id="radialGradient3085" gradientUnits="userSpaceOnUse" cy="4.625" cx="62.625" gradientTransform="matrix(1.1294118,0,0,0.2823525,-58.729414,19.694118)" r="10.625">
<stop id="stop8840" stop-color="#000" offset="0"/>
<stop id="stop8842" stop-color="#000" stop-opacity="0" offset="1"/>
</radialGradient>
<radialGradient id="radialGradient3017" gradientUnits="userSpaceOnUse" cy="8.0425" cx="5.2201" gradientTransform="matrix(-0.02052191,0.83675824,-0.78992592,-0.01937333,17.663589,-1.1278272)" r="20">
<stop id="stop3780" stop-color="#4091e4" offset="0"/>
<stop id="stop3947" stop-color="#3f84e2" offset="0.25"/>
<stop id="stop3945" stop-color="#2c61e1" offset="0.5"/>
<stop id="stop3786" stop-color="#2940de" offset="1"/>
</radialGradient>
</defs>
<metadata id="metadata3951">
<rdf:RDF>
<cc:Work rdf:about="">
<dc:format>image/svg+xml</dc:format>
<dc:type rdf:resource="http://purl.org/dc/dcmitype/StillImage"/>
<dc:title/>
</cc:Work>
</rdf:RDF>
</metadata>
<path id="path8836" opacity="0.3" fill-rule="evenodd" fill="url(#radialGradient3085)" d="m24,21c0,1.6569-5.3726,3-12,3s-12-1.343-12-3,5.3726-3,12-3,12,1.3431,12,3z"/>
<path id="path38" stroke-linejoin="round" style="color:#000000;" d="M12,1.5c-5.7935,0-10.5,4.7065-10.5,10.5,0,5.794,4.7065,10.5,10.5,10.5,5.794,0,10.5-4.706,10.5-10.5,0-5.7935-4.706-10.5-10.5-10.5z" stroke-opacity="0.38823529000000001" stroke="#000" stroke-linecap="round" fill="url(#radialGradient3017)"/>
<path id="path3843" opacity="0.15" d="m11.69,6.8131c-0.51396,0.01182-1.1125,0.05398-1.7518,0.11238-0.91946,0.06586-1.8438,0.06549-2.7633-0.0595v0.9916c0.49674,0.03043,0.78298,0.08959,1.5866,0.08594v9.1822h-1.5866v1.0577h4.5746v-1.0577h-1.8113v-4.1383h1.7717l3.497,5.196h2.0493v-1.0577h-1.2626l-2.9748-4.3168c2.6983-0.37558,4.1679-4.9899-0.07933-5.9232-0.3066-0.06518-0.73545-0.08455-1.2494-0.07271zm0.16526,1.0908c0.33458,0.0022,0.68075,0.01771,1.0048,0.03966,1.3019,0.08817,2.889,3.6663-1.2891,4.0523h-1.6328v-4.0325s0.91337-0.06614,1.9171-0.0595z" stroke="#000" stroke-dasharray="none" stroke-miterlimit="4" stroke-width="2" fill="none"/>
<path id="path8655-6" opacity="0.5" stroke-linejoin="round" style="color:#000000;enable-background:accumulate;" d="M21.5,12c0,5.247-4.254,9.5-9.5,9.5-5.2466,0-9.5-4.254-9.5-9.5,0-5.2466,4.2534-9.4997,9.5001-9.4997,5.2463,0,9.4999,4.253,9.4999,9.4997z" stroke-dashoffset="0" stroke="url(#linearGradient3077)" stroke-linecap="round" stroke-miterlimit="4" stroke-dasharray="none" stroke-width="0.99999988" fill="none"/>
<path id="path3943" opacity="0.3" d="m11.753,6.7787c-0.51396,0.01182-1.1125,0.053983-1.7518,0.11238-0.91946,0.065871-1.8438,0.065491-2.7633-0.059498v0.9916c0.49674,0.030428,0.78298,0.08959,1.5866,0.08594v9.1822h-1.5866v1.0577h4.5746v-1.0577h-1.8113v-4.1383h1.7717l3.497,5.196h2.0493v-1.0577h-1.2626l-2.9748-4.3168c2.6983-0.37558,4.1679-4.9899-0.07933-5.9232-0.3066-0.06518-0.73545-0.084554-1.2494-0.072713zm0.16527,1.0908c0.33458,0.0022,0.68075,0.017713,1.0048,0.039667,1.3019,0.088168,2.889,3.6663-1.2891,4.0523h-1.6328v-4.0325s0.91337-0.066144,1.9171-0.059498z" fill="#00008c"/>
<path id="path3912" d="m11.753,5.7787c-0.51396,0.01182-1.1125,0.053983-1.7518,0.11238-0.91946,0.065863-1.8438,0.065491-2.7633-0.059498v0.9916c0.49674,0.030428,0.78298,0.08959,1.5866,0.085938v9.1822h-1.5866v1.0577h4.5746v-1.0577h-1.8113v-4.1383h1.7717l3.497,5.196h2.0493v-1.0577h-1.2626l-2.9748-4.3168c2.6983-0.37558,4.1679-4.9899-0.07933-5.9232-0.3066-0.06518-0.73545-0.084552-1.2494-0.072713zm0.16527,1.0908c0.33458,0.0022,0.68075,0.017714,1.0048,0.039661,1.3019,0.088169,2.889,3.6663-1.2891,4.0523h-1.6328v-4.0325s0.91337-0.066143,1.9171-0.059498z" fill="#fafafa"/>
</svg>
