<?xml version="1.0" encoding="UTF-8" standalone="no"?>
<!-- Created with Inkscape (http://www.inkscape.org/) -->

<svg
   xmlns:dc="http://purl.org/dc/elements/1.1/"
   xmlns:cc="http://creativecommons.org/ns#"
   xmlns:rdf="http://www.w3.org/1999/02/22-rdf-syntax-ns#"
   xmlns:svg="http://www.w3.org/2000/svg"
   xmlns="http://www.w3.org/2000/svg"
   xmlns:sodipodi="http://sodipodi.sourceforge.net/DTD/sodipodi-0.dtd"
   xmlns:inkscape="http://www.inkscape.org/namespaces/inkscape"
   version="1.0"
   width="24"
   height="24"
   id="svg3291"
   inkscape:version="0.91 r13725"
   sodipodi:docname="simplescreenrecorder.svg">
  <sodipodi:namedview
     pagecolor="#ffffff"
     bordercolor="#666666"
     borderopacity="1"
     objecttolerance="10"
     gridtolerance="10"
     guidetolerance="10"
     inkscape:pageopacity="0"
     inkscape:pageshadow="2"
     inkscape:window-width="1366"
     inkscape:window-height="745"
     id="namedview43"
     showgrid="true"
     inkscape:zoom="22.627417"
     inkscape:cx="11.51469"
     inkscape:cy="13.597613"
     inkscape:window-x="1672"
     inkscape:window-y="274"
     inkscape:window-maximized="1"
     inkscape:current-layer="svg3291">
    <inkscape:grid
       type="xygrid"
       id="grid3018"
       empspacing="5"
       visible="true"
       enabled="true"
       snapvisiblegridlinesonly="true" />
  </sodipodi:namedview>
  <metadata
     id="metadata44">
    <rdf:RDF>
      <cc:Work
         rdf:about="">
        <dc:format>image/svg+xml</dc:format>
        <dc:type
           rdf:resource="http://purl.org/dc/dcmitype/StillImage" />
      </cc:Work>
    </rdf:RDF>
  </metadata>
  <defs
     id="defs3293" />
  <path
     style="fill:#f9f9f9;fill-opacity:1;fill-rule:nonzero;stroke:none;stroke-width:0.99827474;marker:none;visibility:visible;display:inline;overflow:visible;enable-background:new"
     d="M 4.3478261,4 C 4.150849,4 4,4.1763018 4,4.3809524 L 4,15.809524 c 0,0.20465 0.150849,0.380952 0.3478261,0.380952 l 5.2173913,0 c 0,0 0.1581028,1.634423 0,1.904763 C 9.2921487,18.562158 8.4565218,18.476191 8.4565218,18.476191 8.092825,18.524351 8.0898163,20 8.4565218,20 l 7.0869562,0 c 0.366706,0 0.363773,-1.476265 0,-1.523809 0,0 -0.805629,0.06323 -1.108696,-0.380952 -0.170998,-0.250618 0,-1.904763 0,-1.904763 l 5.217392,0 C 19.849151,16.190476 20,16.014174 20,15.809524 L 20,4.3809524 C 20,4.1763018 19.849151,4 19.652174,4 L 4.3478261,4 z m 0.6956521,1.1428572 13.9130438,0 0,9.9047618 -13.9130438,0 0,-9.9047618 z"
     id="rect1789"
     inkscape:connector-curvature="0" />
</svg>
