<?xml version="1.0" encoding="UTF-8" standalone="no"?>
<svg
   xmlns:dc="http://purl.org/dc/elements/1.1/"
   xmlns:cc="http://creativecommons.org/ns#"
   xmlns:rdf="http://www.w3.org/1999/02/22-rdf-syntax-ns#"
   xmlns:svg="http://www.w3.org/2000/svg"
   xmlns="http://www.w3.org/2000/svg"
   xmlns:xlink="http://www.w3.org/1999/xlink"
   xmlns:sodipodi="http://sodipodi.sourceforge.net/DTD/sodipodi-0.dtd"
   xmlns:inkscape="http://www.inkscape.org/namespaces/inkscape"
   height="24"
   width="24"
   version="1.1"
   id="svg2"
   inkscape:version="0.91 r13725"
   sodipodi:docname="synfig.svg">
  <metadata
     id="metadata46">
    <rdf:RDF>
      <cc:Work
         rdf:about="">
        <dc:format>image/svg+xml</dc:format>
        <dc:type
           rdf:resource="http://purl.org/dc/dcmitype/StillImage" />
        <dc:title />
      </cc:Work>
    </rdf:RDF>
  </metadata>
  <sodipodi:namedview
     pagecolor="#ffffff"
     bordercolor="#666666"
     borderopacity="1"
     objecttolerance="10"
     gridtolerance="10"
     guidetolerance="10"
     inkscape:pageopacity="0"
     inkscape:pageshadow="2"
     inkscape:window-width="1600"
     inkscape:window-height="837"
     id="namedview44"
     showgrid="true"
     inkscape:zoom="39.333333"
     inkscape:cx="9.9917302"
     inkscape:cy="8.1486581"
     inkscape:window-x="0"
     inkscape:window-y="30"
     inkscape:window-maximized="1"
     inkscape:current-layer="svg2">
    <inkscape:grid
       type="xygrid"
       id="grid8191" />
  </sodipodi:namedview>
  <defs
     id="defs4">
    <linearGradient
       id="c"
       y2="44.341"
       gradientUnits="userSpaceOnUse"
       x2="71.204"
       gradientTransform="matrix(0.51351,0,0,0.51351,-24.836,-1.0213)"
       y1="6.2376"
       x1="71.204">
      <stop
         stop-color="#fff"
         offset="0"
         id="stop7" />
      <stop
         stop-color="#fff"
         stop-opacity=".23529"
         offset=".50776"
         id="stop9" />
      <stop
         stop-color="#fff"
         stop-opacity=".15686"
         offset=".83457"
         id="stop11" />
      <stop
         stop-color="#fff"
         stop-opacity=".39216"
         offset="1"
         id="stop13" />
    </linearGradient>
    <radialGradient
       id="a"
       gradientUnits="userSpaceOnUse"
       cy="8.4498"
       cx="6.0694"
       gradientTransform="matrix(0,1.1469,-1.2133,-3.1216e-8,22.252,-6.943)"
       r="20">
      <stop
         stop-color="#b1e198"
         offset="0"
         id="stop16" />
      <stop
         stop-color="#04a171"
         offset=".70495"
         id="stop18" />
      <stop
         stop-color="#04a171"
         offset="1"
         id="stop20" />
    </radialGradient>
    <radialGradient
       id="b"
       gradientUnits="userSpaceOnUse"
       cy="4.625"
       cx="62.625"
       gradientTransform="matrix(1.0352314,-2.2858767e-4,6.2343146e-5,0.28234062,-52.83099,19.708359)"
       r="10.625"
       fx="62.625"
       fy="4.625">
      <stop
         offset="0"
         id="stop23" />
      <stop
         stop-opacity="0"
         offset="1"
         id="stop25" />
    </radialGradient>
    <linearGradient
       id="d"
       y2="10"
       gradientUnits="userSpaceOnUse"
       x2="12"
       y1="-2"
       x1="12"
       gradientTransform="translate(0,8)">
      <stop
         stop-color="#fff"
         offset="0"
         id="stop28" />
      <stop
         stop-color="#cee7dd"
         offset="1"
         id="stop30" />
    </linearGradient>
    <linearGradient
       inkscape:collect="always"
       id="linearGradient4346">
      <stop
         style="stop-color:#1f85ff;stop-opacity:1"
         offset="0"
         id="stop4348" />
      <stop
         style="stop-color:#89b9f3;stop-opacity:0.94901961"
         offset="1"
         id="stop4350" />
    </linearGradient>
    <linearGradient
       id="c-3"
       y2="44.341"
       gradientUnits="userSpaceOnUse"
       x2="71.204002"
       gradientTransform="matrix(0.72973,0,0,0.72973,-36.346,-2.5039)"
       y1="6.2375998"
       x1="71.204002">
      <stop
         stop-color="#fff"
         offset="0"
         id="stop7-6" />
      <stop
         stop-color="#fff"
         stop-opacity=".23529"
         offset=".50776"
         id="stop9-7" />
      <stop
         stop-color="#fff"
         stop-opacity=".15686"
         offset=".83457"
         id="stop11-5" />
      <stop
         stop-color="#fff"
         stop-opacity=".39216"
         offset="1"
         id="stop13-3" />
    </linearGradient>
    <radialGradient
       id="a-5"
       gradientUnits="userSpaceOnUse"
       cx="99.156998"
       cy="186.17"
       r="62.769001"
       gradientTransform="matrix(0.1314375,0,0,0.04182,29.069095,14.740048)">
      <stop
         stop-color="#3d3d3d"
         offset="0"
         id="stop25-6" />
      <stop
         stop-color="#686868"
         stop-opacity=".49804"
         offset=".5"
         id="stop27" />
      <stop
         stop-color="#686868"
         stop-opacity="0"
         offset="1"
         id="stop29" />
    </radialGradient>
    <linearGradient
       inkscape:collect="always"
       xlink:href="#linearGradient4346"
       id="linearGradient8180"
       gradientUnits="userSpaceOnUse"
       gradientTransform="matrix(0.38540861,0,0,0.35897086,20.487571,0.52807029)"
       x1="-22.118645"
       y1="51.457588"
       x2="-22.201471"
       y2="11.076253" />
    <radialGradient
       id="a-2"
       gradientUnits="userSpaceOnUse"
       cy="186.17"
       cx="99.156998"
       gradientTransform="matrix(0.68694,0,0,0.21462096,-74.023751,-40.428648)"
       r="62.769001">
      <stop
         stop-color="#3d3d3d"
         offset="0"
         id="stop16-7" />
      <stop
         stop-color="#686868"
         stop-opacity=".49804"
         offset=".5"
         id="stop18-0" />
      <stop
         stop-color="#686868"
         stop-opacity="0"
         offset="1"
         id="stop20-9" />
    </radialGradient>
  </defs>
  <path
     style="color:#000000;fill:#1b344c;stroke:none;stroke-linecap:round;stroke-linejoin:round;stroke-opacity:0.70196001;fill-opacity:1"
     d="M 12,1.5 C 6.2065,1.5 1.5,6.2065 1.5,12 1.5,17.7935 6.2065,22.5 12,22.5 17.794,22.5 22.5,17.7935 22.5,12 22.5,6.2065 17.794,1.5 12,1.5 Z"
     id="path8176"
     inkscape:connector-curvature="0" />
  <path
     inkscape:connector-curvature="0"
     style="opacity:0.4;fill:url(#b);fill-rule:evenodd"
     id="path34"
     d="m 23,21 c 0,1.6568 -4.9249,3 -11,3 -6.0751,0 -11,-1.3432 -11,-3 0,-1.6568 4.9249,-3 11,-3 6.0751,0 11,1.3432 11,3 z" />
  <path
     inkscape:connector-curvature="0"
     id="path36"
     d="M 12,1.5 C 6.2065,1.5 1.5,6.2065 1.5,12 1.5,17.7935 6.2065,22.5 12,22.5 17.794,22.5 22.5,17.7935 22.5,12 22.5,6.2065 17.794,1.5 12,1.5 Z"
     style="color:#000000;fill:#1b344c;stroke:#1b344c;stroke-linecap:round;stroke-linejoin:round;stroke-opacity:1;fill-opacity:1;opacity:0.4" />
  <path
     inkscape:connector-curvature="0"
     id="path38"
     d="M 21.5,11.9997 C 21.5,17.2465 17.246,21.5 12,21.5 6.7534,21.5 2.5,17.2465 2.5,11.9997 2.5,6.7531 6.7534,2.5 12.0001,2.5 17.2464,2.5 21.5,6.753 21.5,11.9997 l 0,0 z"
     style="color:#000000;opacity:0.5;fill:none;stroke:url(#c);stroke-linecap:round;stroke-linejoin:round" />
  <path
     sodipodi:nodetypes="ccccccszscccccczc"
     inkscape:connector-curvature="0"
     style="display:inline;opacity:0.15;fill:#000000;fill-opacity:1"
     id="path8193"
     d="m 11.614447,6.3589729 c -1.386601,1.4979855 -2.6411974,3.4666302 -3.3159566,5.1475521 -0.7381412,2.107323 -1.0885622,3.596801 -1.2920085,5.639334 -0.00839,0.09892 -0.00839,0.17145 -0.00142,0.232644 0.00476,0.01777 -0.00695,0.08153 0.07079,0.108669 0.08761,0.02244 0.2273102,0.04051 0.3068838,0.05385 1.8332691,0.273673 3.0110063,1.192152 4.2316713,2.21218 C 11.803905,19.911544 11.869874,20 11.999119,20 c 0.129246,0 0.180873,-0.07199 0.384697,-0.246795 1.283787,-1.101005 2.658109,-2.053244 4.231673,-2.222749 0.136011,-0.0119 0.275502,-0.04328 0.275502,-0.04328 0.109195,-0.02268 0.109052,-0.06671 0.109007,-0.149281 l 0,-0.06018 C 16.846402,15.363266 16.327482,13.103218 15.694245,11.481043 14.884457,9.4335996 13.755076,7.9498119 12.383819,6.3589748 12.18845,6.1281214 12.067002,6 11.999122,6 11.931242,6 11.803576,6.1590874 11.614423,6.3589748 Z" />
  <path
     d="m 11.614447,6.3589729 c -1.386601,1.4979855 -2.6411974,3.4666302 -3.3159566,5.1475521 -0.7381412,2.107323 -1.0885622,3.596801 -1.2920085,5.639334 -0.00839,0.09892 -0.00839,0.17145 -0.00142,0.232644 0.00476,0.01777 -0.00695,0.08153 0.07079,0.108669 0.08761,0.02244 0.2273102,0.04051 0.3068838,0.05385 1.8332691,0.273673 3.0110063,1.192152 4.2316713,2.21218 C 11.803905,19.911544 11.869874,20 11.999119,20 c 0.129246,0 0.180873,-0.07199 0.384697,-0.246795 1.283787,-1.101005 2.658109,-2.053244 4.231673,-2.222749 0.136011,-0.0119 0.275502,-0.04328 0.275502,-0.04328 0.109195,-0.02268 0.109052,-0.06671 0.109007,-0.149281 l 0,-0.06018 C 16.846402,15.363266 16.327482,13.103218 15.694245,11.481043 14.884457,9.4335996 13.755076,7.9498119 12.383819,6.3589748 12.18845,6.1281214 12.067002,6 11.999122,6 11.931242,6 11.803576,6.1590874 11.614423,6.3589748 Z"
     id="path8195"
     style="display:inline;opacity:0.07;fill:#000000;fill-opacity:1;stroke:#000000;stroke-opacity:1"
     inkscape:connector-curvature="0"
     sodipodi:nodetypes="ccccccszscccccczc" />
  <path
     d="m 11.614447,5.3589729 c -1.386601,1.4979855 -2.6411974,3.4666302 -3.3159566,5.1475521 -0.7381412,2.107323 -1.0885622,3.596801 -1.2920085,5.639334 -0.00839,0.09892 -0.00839,0.17145 -0.00142,0.232644 0.00476,0.01777 -0.00695,0.08153 0.07079,0.108669 0.08761,0.02244 0.2273102,0.04051 0.3068838,0.05385 1.8332691,0.273673 3.0110063,1.192152 4.2316713,2.21218 C 11.803905,18.911544 11.869874,19 11.999119,19 c 0.129246,0 0.180873,-0.07199 0.384697,-0.246795 1.283787,-1.101005 2.658109,-2.053244 4.231673,-2.222749 0.136011,-0.0119 0.275502,-0.04328 0.275502,-0.04328 0.109195,-0.02268 0.109052,-0.06671 0.109007,-0.149281 l 0,-0.06018 C 16.846402,14.363266 16.327482,12.103218 15.694245,10.481043 14.884457,8.4335996 13.755076,6.9498119 12.383819,5.3589748 12.18845,5.1281214 12.067002,5 11.999122,5 11.931242,5 11.803576,5.1590874 11.614423,5.3589748 Z"
     id="path8178"
     style="display:inline;opacity:1;fill:url(#linearGradient8180);fill-opacity:1"
     inkscape:connector-curvature="0"
     sodipodi:nodetypes="ccccccszscccccczc" />
</svg>
