<?xml version="1.0" encoding="UTF-8" standalone="no"?>
<svg xmlns:rdf="http://www.w3.org/1999/02/22-rdf-syntax-ns#" xmlns="http://www.w3.org/2000/svg" height="24" width="24" version="1.0" xmlns:cc="http://creativecommons.org/ns#" xmlns:xlink="http://www.w3.org/1999/xlink" xmlns:dc="http://purl.org/dc/elements/1.1/">
 <defs>
  <radialGradient id="b" xlink:href="#a" gradientUnits="userSpaceOnUse" cy="486.65" cx="605.71" gradientTransform="matrix(-2.7744 0 0 1.9697 112.76 -872.89)" r="117.14"/>
  <linearGradient id="a">
   <stop offset="0"/>
   <stop stop-opacity="0" offset="1"/>
  </linearGradient>
  <radialGradient id="c" xlink:href="#a" gradientUnits="userSpaceOnUse" cy="486.65" cx="605.71" gradientTransform="matrix(2.7744 0 0 1.9697 -1891.6 -872.89)" r="117.14"/>
  <linearGradient id="e" y2="609.51" gradientUnits="userSpaceOnUse" x2="302.86" gradientTransform="matrix(2.7744 0 0 1.9697 -1892.2 -872.89)" y1="366.65" x1="302.86">
   <stop stop-opacity="0" offset="0"/>
   <stop offset=".5"/>
   <stop stop-opacity="0" offset="1"/>
  </linearGradient>
  <filter id="j" height="1.3069" width="1.1397" color-interpolation-filters="sRGB" y="-.15347" x="-.069845">
   <feGaussianBlur stdDeviation="1.0231264"/>
  </filter>
  <linearGradient id="i" y2="24.628" gradientUnits="userSpaceOnUse" x2="20.055" gradientTransform="matrix(.47891 0 0 .53594 .50612 -.19888)" y1="15.298" x1="16.626">
   <stop stop-color="#fff" offset="0"/>
   <stop stop-color="#fff" stop-opacity="0" offset="1"/>
  </linearGradient>
  <radialGradient id="d" gradientUnits="userSpaceOnUse" cy="12.225" cx="16.352" gradientTransform="matrix(0 .49840 -1.148 0 24.469 1.8234)" r="19.17">
   <stop stop-color="#3d434a" offset="0"/>
   <stop offset="1"/>
  </radialGradient>
  <linearGradient id="h" y2="43.844" gradientUnits="userSpaceOnUse" x2="22.763" gradientTransform="matrix(.46621 0 0 .43545 .81032 1.9873)" y1="-4.8771" x1="22.763">
   <stop stop-color="#fff" offset="0"/>
   <stop stop-color="#fff" stop-opacity="0" offset="1"/>
  </linearGradient>
  <linearGradient id="g" y2="22.051" gradientUnits="userSpaceOnUse" x2="13.424" y1="2" x1="13.424">
   <stop stop-color="#d8d8d8" offset="0"/>
   <stop stop-color="#8f8f8f" offset="1"/>
  </linearGradient>
  <linearGradient id="f" y2="2.4256" gradientUnits="userSpaceOnUse" x2="10.592" gradientTransform="matrix(.48934 0 0 .46392 .25580 .86025)" y1="44.78" x1="10.592">
   <stop stop-color="#595959" offset="0"/>
   <stop stop-color="#b3b3b3" offset="1"/>
  </linearGradient>
 </defs>
 <g transform="matrix(.011820 0 0 .0099068 22.513 19.754)">
  <rect opacity=".40206" height="478.36" width="1339.6" y="-150.7" x="-1559.3" fill="url(#e)"/>
  <path opacity=".40206" d="m-219.62-150.68v478.33c142.87 0.90045 345.4-107.17 345.4-239.2s-159.44-239.13-345.4-239.13z" fill="url(#c)"/>
  <path opacity=".40206" d="m-1559.3-150.68v478.33c-142.87 0.90045-345.4-107.17-345.4-239.2s159.44-239.13 345.4-239.13z" fill="url(#b)"/>
 </g>
 <rect stroke-linejoin="round" fill-rule="evenodd" rx="1.5917" ry="1.5917" height="18.998" width="22.998" stroke="url(#f)" stroke-linecap="round" y="2.5011" x=".50107" stroke-width="1.0021" fill="url(#g)"/>
 <rect opacity=".4" stroke-linejoin="round" rx=".61767" ry=".61767" height="16.998" width="20.998" stroke="url(#h)" stroke-linecap="round" y="3.5011" x="1.5011" stroke-width="1.0021" fill="none"/>
 <rect stroke-linejoin="round" fill-rule="evenodd" rx="0" ry="0" height="14.998" width="18.998" stroke="#1e1f1f" stroke-linecap="round" y="4.5011" x="2.5011" stroke-width="1.0021" fill="url(#d)"/>
 <path opacity=".2" d="m2.0476 3c-0.57866 0-1.0476 0.5248-1.0476 1.1724v8.575c0.00133 0.07214 0.029596 0.14036 0.077943 0.1881s0.11235 0.07063 0.17648 0.06312l21.551-3.818c0.11086-0.019566 0.19301-0.12564 0.19456-0.25122v-4.7565c0-0.64756-0.46896-1.1724-1.0476-1.1724h-19.905z" fill-rule="evenodd" fill="url(#i)"/>
 <path stroke-linejoin="round" d="m-51.076 15.113h5.6235l2-10 4 15 3-9 3 6 3-2h11.635" transform="matrix(.52699 0 0 .53331 30.417 5.2735)" filter="url(#j)" stroke="#3a7d6b" stroke-linecap="round" stroke-width="3.7726" fill="none"/>
 <path stroke-linejoin="round" d="m3.5 13.333h2.9635l1.054-5.3331 2.108 7.9997 1.581-4.7998 1.581 3.1999 1.581-1.0666h6.1316" stroke="#5ad7b4" stroke-linecap="square" fill="none"/>
</svg>
