<?xml version="1.0" encoding="UTF-8" standalone="no"?>
<svg xmlns:rdf="http://www.w3.org/1999/02/22-rdf-syntax-ns#" xmlns="http://www.w3.org/2000/svg" height="48" width="48" version="1.1" xmlns:cc="http://creativecommons.org/ns#" xmlns:dc="http://purl.org/dc/elements/1.1/" viewBox="0 0 48 48">
 <g transform="translate(0 -1004.4)" fill="#4d4d4d">
  <path style="color-rendering:auto;text-decoration-color:#000000;color:#000000;isolation:auto;mix-blend-mode:normal;shape-rendering:auto;solid-color:#000000;block-progression:tb;text-decoration-line:none;text-decoration-style:solid;image-rendering:auto;white-space:normal;text-indent:0;text-transform:none" d="m14.001 1012.4a4.0002 4.0004 0 0 0 -3.9763 3.5586l-1.9999 18a4.0002 4.0004 0 0 0 3.9763 4.4414h23.999a4.0002 4.0004 0 0 0 3.9763 -4.4414l-1.9999-18a4.0002 4.0004 0 0 0 -3.9763 -3.5586h-19.999zm7.7964 4.0781h4.6286l5.82 17.922h-3.8201l-1.2187-4.25h-6.152l-1.2343 4.25h-3.8201l5.7965-17.922zm2.3319 2.5157c-0.03256 0.179-0.07584 0.3925-0.13281 0.6366-0.04882 0.2442-0.11035 0.5047-0.18359 0.7813-0.0651 0.2686-0.13379 0.5397-0.20702 0.8164-0.07324 0.2767-0.14191 0.5372-0.20702 0.7813-0.0651 0.2441-0.12661 0.4612-0.18359 0.6484-0.04882 0.1872-0.08496 0.3245-0.10937 0.414l-1.1366 3.9064h4.3591l-1.1484-3.9064c-0.0488-0.1464-0.12106-0.385-0.21871-0.7187-0.09765-0.3336-0.20637-0.7028-0.3203-1.1016-0.10579-0.4068-0.20702-0.8118-0.30467-1.2186-0.09765-0.407-0.16633-0.7543-0.20702-1.0391z" fill-rule="evenodd"/>
  <path style="color-rendering:auto;text-decoration-color:#000000;color:#000000;isolation:auto;mix-blend-mode:normal;shape-rendering:auto;solid-color:#000000;block-progression:tb;text-decoration-line:none;text-decoration-style:solid;image-rendering:auto;white-space:normal;text-indent:0;text-transform:none" d="m8.0009 1038.8v1.0937c0 2.4238 2.0761 4.5 4.4997 4.5h22.999c2.4237 0 4.4997-2.0762 4.4997-4.5v-1.0937c-1.0632 0.9701-2.4503 1.594-3.9998 1.5937h-23.999c-1.549 0.0003-2.9367-0.6238-3.9998-1.5937z"/>
 </g>
</svg>
