<?xml version="1.0" encoding="UTF-8" standalone="no"?>
<svg xmlns:rdf="http://www.w3.org/1999/02/22-rdf-syntax-ns#" xmlns="http://www.w3.org/2000/svg" height="48" width="48" version="1.1" xmlns:cc="http://creativecommons.org/ns#" xmlns:dc="http://purl.org/dc/elements/1.1/" viewBox="0 0 48 48">
 <g transform="translate(0 -1004.4)" fill="#4d4d4d">
  <path style="color-rendering:auto;text-decoration-color:#000000;color:#000000;isolation:auto;mix-blend-mode:normal;shape-rendering:auto;solid-color:#000000;block-progression:tb;text-decoration-line:none;text-decoration-style:solid;image-rendering:auto;white-space:normal;text-indent:0;text-transform:none" d="m14.001 1012.4a4.0002 4.0004 0 0 0 -3.9763 3.5586l-1.9999 18a4.0002 4.0004 0 0 0 3.9763 4.4414h23.999a4.0002 4.0004 0 0 0 3.9763 -4.4414l-1.9999-18a4.0002 4.0004 0 0 0 -3.9763 -3.5586h-19.999zm11.999 4v4 10h3.9998v4h-11.999v-4h3.9998v-9l-3.9998 1v-4l7.9995-2z" fill-rule="evenodd"/>
  <path style="color-rendering:auto;text-decoration-color:#000000;color:#000000;isolation:auto;mix-blend-mode:normal;shape-rendering:auto;solid-color:#000000;block-progression:tb;text-decoration-line:none;text-decoration-style:solid;image-rendering:auto;white-space:normal;text-indent:0;text-transform:none" d="m8.0009 1038.8v1.0937c0 2.4238 2.0761 4.5 4.4997 4.5h22.999c2.4237 0 4.4997-2.0762 4.4997-4.5v-1.0937c-1.0632 0.9702-2.4503 1.594-3.9998 1.5937h-23.999c-1.549 0.0003-2.9367-0.6237-3.9998-1.5937z"/>
 </g>
</svg>
