<?xml version="1.0" encoding="UTF-8" standalone="no"?>
<svg xmlns:rdf="http://www.w3.org/1999/02/22-rdf-syntax-ns#" xmlns="http://www.w3.org/2000/svg" height="32" width="32" version="1.1" xmlns:cc="http://creativecommons.org/ns#" xmlns:xlink="http://www.w3.org/1999/xlink" xmlns:dc="http://purl.org/dc/elements/1.1/">
 <defs>
  <linearGradient id="g" y2="43" gradientUnits="userSpaceOnUse" x2="24" gradientTransform="matrix(.56757 0 0 .72973 2.3784 -2.5135)" y1="5.5641" x1="24">
   <stop stop-color="#fff" offset="0"/>
   <stop stop-color="#fff" stop-opacity=".23529" offset=".036262"/>
   <stop stop-color="#fff" stop-opacity=".15686" offset=".95056"/>
   <stop stop-color="#fff" stop-opacity=".39216" offset="1"/>
  </linearGradient>
  <radialGradient id="b" fx="7.2758" gradientUnits="userSpaceOnUse" cy="9.9571" cx="7.8061" gradientTransform="matrix(-1.0624e-7 4.3507 -5.3177 -1.306e-7 68.942 -39.416)" r="12.672">
   <stop stop-color="#eca2a0" offset="0"/>
   <stop stop-color="#dc5a57" offset=".26238"/>
   <stop stop-color="#d02e2a" offset=".70495"/>
   <stop stop-color="#9d2320" offset="1"/>
  </radialGradient>
  <linearGradient id="f" y2=".91791" gradientUnits="userSpaceOnUse" x2="25" gradientTransform="matrix(.65714 0 0 .65901 .22860 .17204)" y1="47.935" x1="25">
   <stop stop-color="#9d2320" offset="0"/>
   <stop stop-color="#b52825" offset="1"/>
  </linearGradient>
  <radialGradient id="d" xlink:href="#a" gradientUnits="userSpaceOnUse" cy="486.65" cx="605.71" gradientTransform="matrix(.015663 0 0 .0082353 17.61 25.981)" r="117.14"/>
  <linearGradient id="a">
   <stop offset="0"/>
   <stop stop-opacity="0" offset="1"/>
  </linearGradient>
  <radialGradient id="c" xlink:href="#a" gradientUnits="userSpaceOnUse" cy="486.65" cx="605.71" gradientTransform="matrix(-.015663 0 0 .0082353 14.39 25.981)" r="117.14"/>
  <linearGradient id="e" y2="609.51" gradientUnits="userSpaceOnUse" x2="302.86" gradientTransform="matrix(.045769 0 0 .0082353 -.54232 25.981)" y1="366.65" x1="302.86">
   <stop stop-opacity="0" offset="0"/>
   <stop offset=".5"/>
   <stop stop-opacity="0" offset="1"/>
  </linearGradient>
  <linearGradient id="h" y2="15" gradientUnits="userSpaceOnUse" x2="21" gradientTransform="matrix(.71429 0 0 .71429 6.5569 7.6925)" y1="29" x1="21">
   <stop stop-color="#f8dbd9" offset="0"/>
   <stop stop-color="#fff" offset="1"/>
  </linearGradient>
 </defs>
 <rect opacity=".15" height="2" width="22.1" y="29" x="4.95" fill="url(#e)"/>
 <path opacity=".15" d="m4.95 29v1.9999c-0.80662 0.0038-1.95-0.44807-1.95-1.0001 0-0.552 0.90012-0.99982 1.95-0.99982z" fill="url(#c)"/>
 <path opacity=".15" d="m27.05 29v1.9999c0.80661 0.0038 1.95-0.44807 1.95-1.0001 0-0.552-0.90012-0.99982-1.95-0.99982z" fill="url(#d)"/>
 <path stroke-linejoin="round" style="color:#000000" d="m4.5 0.5c5.2705 0 23 0.00185 23 0.00185l0.000028 28.998h-23v-29z" stroke="url(#f)" fill="url(#b)"/>
 <path opacity=".5" stroke-linejoin="round" d="m26.5 28.5h-21v-27h21z" stroke="url(#g)" stroke-linecap="round" fill="none"/>
 <g transform="translate(-8.2712 -9.4068)">
  <circle cx="22.271" cy="23.407" r="5" fill="url(#h)"/>
  <rect fill-opacity=".76375" height="9" width="9" y="23.407" x="22.271" fill="#b5120c"/>
 </g>
</svg>
