<?xml version="1.0" encoding="UTF-8" standalone="no"?>
<!-- Created with Inkscape (http://www.inkscape.org/) -->

<svg
   xmlns:dc="http://purl.org/dc/elements/1.1/"
   xmlns:cc="http://creativecommons.org/ns#"
   xmlns:rdf="http://www.w3.org/1999/02/22-rdf-syntax-ns#"
   xmlns:svg="http://www.w3.org/2000/svg"
   xmlns="http://www.w3.org/2000/svg"
   xmlns:xlink="http://www.w3.org/1999/xlink"
   xmlns:sodipodi="http://sodipodi.sourceforge.net/DTD/sodipodi-0.dtd"
   xmlns:inkscape="http://www.inkscape.org/namespaces/inkscape"
   version="1.1"
   width="128"
   height="128"
   id="svg5157"
   inkscape:version="0.91 r"
   sodipodi:docname="atom.svg">
  <sodipodi:namedview
     pagecolor="#ffffff"
     bordercolor="#666666"
     borderopacity="1"
     objecttolerance="10"
     gridtolerance="10"
     guidetolerance="10"
     inkscape:pageopacity="0"
     inkscape:pageshadow="2"
     inkscape:window-width="1280"
     inkscape:window-height="745"
     id="namedview42"
     showgrid="true"
     inkscape:zoom="2.6074563"
     inkscape:cx="-49.484192"
     inkscape:cy="49.498583"
     inkscape:window-x="0"
     inkscape:window-y="30"
     inkscape:window-maximized="1"
     inkscape:current-layer="layer1">
    <inkscape:grid
       type="xygrid"
       id="grid11259" />
  </sodipodi:namedview>
  <defs
     id="defs5159">
    <linearGradient
       id="linearGradient11280"
       inkscape:collect="always">
      <stop
         id="stop11290"
         offset="0"
         style="stop-color:#ffffff;stop-opacity:1" />
      <stop
         id="stop11292"
         offset="1"
         style="stop-color:#cee7dd;stop-opacity:1" />
    </linearGradient>
    <linearGradient
       id="linearGradient11231"
       inkscape:collect="always">
      <stop
         id="stop11241"
         offset="0"
         style="stop-color:#ffffff;stop-opacity:1;" />
      <stop
         style="stop-color:#ffffff;stop-opacity:0.23529412"
         offset="0.40803784"
         id="stop11247" />
      <stop
         id="stop11249"
         offset="0.84137547"
         style="stop-color:#ffffff;stop-opacity:0.15686275" />
      <stop
         id="stop11243"
         offset="1"
         style="stop-color:#ffffff;stop-opacity:0.39215687" />
    </linearGradient>
    <linearGradient
       id="linearGradient2867-449-88-871-390-598-476-591-434-148-57-177-3-8-6">
      <stop
         id="stop3750-8-9-0"
         style="stop-color:#b1e198;stop-opacity:1"
         offset="0" />
      <stop
         id="stop3752-3-2-8"
         style="stop-color:#71c586;stop-opacity:1"
         offset="0.30769229" />
      <stop
         id="stop3754-7-2-7"
         style="stop-color:#04a171;stop-opacity:1"
         offset="0.65384614" />
      <stop
         id="stop3756-9-3-6"
         style="stop-color:#108562;stop-opacity:1"
         offset="1" />
    </linearGradient>
    <linearGradient
       id="linearGradient3820-7-2-8-6">
      <stop
         id="stop3822-2-6-5-0"
         style="stop-color:#3d3d3d;stop-opacity:1"
         offset="0" />
      <stop
         id="stop3864-8-7-4-1"
         style="stop-color:#686868;stop-opacity:0.49803922"
         offset="0.5" />
      <stop
         id="stop3824-1-2-6-7"
         style="stop-color:#686868;stop-opacity:0"
         offset="1" />
    </linearGradient>
    <radialGradient
       cx="6.5632758"
       cy="8.2602539"
       r="19.99999"
       fx="-9.2050152"
       fy="8.2602549"
       id="radialGradient5279"
       xlink:href="#linearGradient2867-449-88-871-390-598-476-591-434-148-57-177-3-8-6"
       gradientUnits="userSpaceOnUse"
       gradientTransform="matrix(-1.1206199e-7,3.7500019,-4.2500019,-2.5029879e-7,100.1061,-25.612295)"
       spreadMethod="pad" />
    <radialGradient
       cx="99.157013"
       cy="186.17059"
       r="62.769119"
       fx="99.157013"
       fy="186.17059"
       id="radialGradient5282"
       xlink:href="#linearGradient3820-7-2-8-6"
       gradientUnits="userSpaceOnUse"
       gradientTransform="matrix(1,0,0,0.1666667,0,155.14216)" />
    <linearGradient
       inkscape:collect="always"
       xlink:href="#linearGradient11231"
       id="linearGradient11237"
       x1="64.774605"
       y1="-49.849869"
       x2="64.033646"
       y2="53.699326"
       gradientUnits="userSpaceOnUse"
       gradientTransform="translate(0,-0.5)" />
    <linearGradient
       inkscape:collect="always"
       xlink:href="#linearGradient11280"
       id="linearGradient11286"
       x1="65"
       y1="-36"
       x2="65"
       y2="39"
       gradientUnits="userSpaceOnUse" />
  </defs>
  <metadata
     id="metadata5162">
    <rdf:RDF>
      <cc:Work
         rdf:about="">
        <dc:format>image/svg+xml</dc:format>
        <dc:type
           rdf:resource="http://purl.org/dc/dcmitype/StillImage" />
        <dc:title />
      </cc:Work>
    </rdf:RDF>
  </metadata>
  <g
     transform="translate(0,64)"
     id="layer1">
    <path
       d="m 161.92613,186.17059 a 62.769119,10.461519 0 1 1 -125.538236,0 62.769119,10.461519 0 1 1 125.538236,0 z"
       transform="matrix(0.6869404,0,0,1.2877013,-4.02174,-195.20343)"
       id="path3818-0-5-0"
       style="fill:url(#radialGradient5282);fill-opacity:1;stroke:none" />
    <path
       d="m 64.5,-50.001824 c -28.691795,0 -52,23.30819 -52,51.9999979 0,28.6918081 23.308205,52.0000141 52,52.0000041 28.6918,0 52.00001,-23.308196 52,-52.0000041 0,-28.6918079 -23.3082,-51.9999979 -52,-51.9999979 z"
       inkscape:connector-curvature="0"
       id="path2555-7-6"
       style="color:#000000;fill:url(#radialGradient5279);fill-opacity:1;fill-rule:nonzero;stroke:none;stroke-width:1;marker:none;visibility:visible;display:inline;overflow:visible;enable-background:accumulate" />
    <path
       d="M 116.5,1.9981499 C 116.5,30.717881 93.217097,54 64.500664,54 35.781595,54 12.5,30.717617 12.5,1.9981499 12.5,-26.720253 35.781595,-50 64.500664,-50 93.217097,-50 116.5,-26.720253 116.5,1.9981499 l 0,0 z"
       inkscape:connector-curvature="0"
       id="path8655-6-1"
       style="color:#000000;display:inline;overflow:visible;visibility:visible;opacity:0.7;fill:none;stroke:#006344;stroke-width:0.99999994;stroke-linecap:round;stroke-linejoin:round;stroke-miterlimit:4;stroke-dasharray:none;stroke-dashoffset:0;stroke-opacity:1;marker:none;enable-background:accumulate" />
    <circle
       style="opacity:1;fill:none;fill-opacity:1;stroke:url(#linearGradient11237);stroke-width:1;stroke-linecap:round;stroke-linejoin:round;stroke-miterlimit:4;stroke-dasharray:none;stroke-opacity:0.39215686"
       id="path11229"
       cx="64.5"
       cy="2"
       r="51" />
    <path
       inkscape:connector-curvature="0"
       id="path11296"
       d="m 49.351465,-33.841666 c -0.232291,-2.6e-4 -0.463812,0.0081 -0.695312,0.02539 -0.979357,0.07329 -1.946669,0.32616 -2.833985,0.77735 -2.368133,1.20416 -3.80231,3.59762 -4.496093,6.41406 -0.693784,2.81644 -0.741136,6.18139 -0.279297,9.97656 0.189976,1.56114 0.489402,3.21142 0.853515,4.90625 -2.472902,0.51882 -4.77497,1.14134 -6.828125,1.8808601 -3.107533,1.1193002 -5.697993,2.4739203 -7.644531,4.1523503 -1.946538,1.67843 -3.291738,3.7955 -3.417969,6.19920996 -0.12024,2.28967004 0.890516,4.44443004 2.503907,6.25391004 1.61339,1.80948 3.848397,3.3785796 6.580078,4.7831996 a 2.0007966,2.0007966 0 0 0 1.830078,-3.5585896 c -2.431909,-1.25048 -4.285498,-2.60785 -5.425781,-3.88672 -1.140283,-1.27887 -1.547172,-2.37298 -1.494141,-3.38281004 0.05571,-1.06076996 0.63048,-2.16770996 2.035156,-3.37890996 1.404677,-1.2112 3.594524,-2.41154 6.388672,-3.41797 1.882745,-0.67814 4.054045,-1.2624 6.423828,-1.75195 0.843121,3.04625 1.943126,6.23961 3.273438,9.51172 -3.360368,6.28449 -5.74136,12.3526996 -6.962891,17.6503896 -0.858486,3.72319 -1.16718,7.06975 -0.773437,9.94141 0.393742,2.87165 1.569922,5.40313 3.798828,6.84765 2.114967,1.37068 4.749355,1.48102 7.382812,0.79883 2.633457,-0.68219 5.399036,-2.13055 8.283203,-4.18164 a 2.0002,2.0002 0 1 0 -2.318359,-3.25977 c -2.614068,1.85901 -5.03067,3.06631 -6.96875,3.56836 -1.93808,0.50206 -3.263885,0.32551 -4.203125,-0.2832 -0.988178,-0.64042 -1.716133,-1.87743 -2.011719,-4.0332 -0.295585,-2.15578 -0.07769,-5.09675 0.707032,-8.5 0.938859,-4.07177 2.687881,-8.80777 5.130859,-13.7988296 0.524186,1.12185 1.069663,2.24914 1.646484,3.37891 4.85997,9.5187896 10.653932,17.4286496 16.259766,22.6347596 2.802917,2.60306 5.555981,4.54212 8.244141,5.63672 2.688158,1.0946 5.468131,1.34267 7.835937,0.13867 2.277428,-1.15804 3.695411,-3.42376 4.412109,-6.09179 0.716698,-2.66804 0.824223,-5.84584 0.457032,-9.43165 -0.734384,-7.1716 -3.408449,-15.9989196 -7.806641,-25.1191396 a 2.0002,2.0002 0 1 0 -3.601563,1.73829 c 4.232687,8.777 6.7607,17.2751496 7.427735,23.7890596 0.333517,3.25695 0.189939,6.01216 -0.339844,7.98437 -0.529782,1.97221 -1.353822,3.05311 -2.363281,3.56641 -1.050035,0.53393 -2.492129,0.54386 -4.513672,-0.2793 -2.021543,-0.82315 -4.466509,-2.48128 -7.029297,-4.86133 -5.125576,-4.76009 -10.739625,-12.35655 -15.419922,-21.5234296 -1.042842,-2.04253 -1.980182,-4.07307 -2.839843,-6.07813 1.068259,-1.90997 2.217427,-3.83668 3.472656,-5.76562 1.253334,-1.92604 2.544313,-3.76328 3.855468,-5.5117203 0.355509,-0.0051 0.701748,-0.02028 1.060547,-0.02149 1.849585,-0.006 3.747961,0.0472 5.683594,0.14844 10.296365,0.5385102 19.530803,2.5642703 25.970703,5.2988303 3.219951,1.36728 5.732594,2.92112 7.306644,4.42772996 1.57405,1.50662004 2.147451,2.82080004 2.085927,3.99219004 -0.0532,1.01252 -0.574937,2.06405 -1.847647,3.2207 -1.27271,1.15666 -3.26393,2.31621 -5.822268,3.3066396 a 2.0002,2.0002 0 1 0 1.44336,3.73047 c 2.873928,-1.1126 5.269438,-2.44129 7.068359,-4.07617 1.79892,-1.6348796 3.03386,-3.6772596 3.1543,-5.9706996 0.13924,-2.65148 -1.2214,-5.0885 -3.31641,-7.09375 -2.095011,-2.00526 -4.986511,-3.72351 -8.507812,-5.21875 -7.042592,-2.9904804 -16.637089,-5.0522804 -27.326171,-5.6113304 -1.274118,-0.06664 -2.531701,-0.10525 -3.78125,-0.12891 2.641995,-3.14833 5.312177,-5.89605 7.880859,-8.125 4.900278,-4.25216 9.501855,-6.5369 12.291015,-6.64257 1.032094,-0.0391 1.787734,0.16486 2.404297,0.56445 0.925903,0.60006 1.618645,1.71475 1.953125,3.64453 0.334481,1.92978 0.232768,4.5694 -0.373046,7.64648 a 2.0002,2.0002 0 1 0 3.923828,0.77149 c 0.670164,-3.40393 0.847936,-6.46311 0.390625,-9.10156 -0.457311,-2.63846 -1.628636,-4.96184 -3.71875,-6.31641 -1.394113,-0.90351 -3.049535,-1.27071 -4.730469,-1.20703 -4.536004,0.17185 -9.50677,3.05922 -14.761719,7.61914 -3.459733,3.00214 -7.008983,6.79432 -10.435547,11.18359 -3.538246,0.11783 -6.911433,0.41238 -10.042968,0.88086 -0.356121,-1.63173 -0.643917,-3.20629 -0.822266,-4.67187 -0.42217,-3.46919 -0.329761,-6.41946 0.191406,-8.53516 0.521168,-2.1157 1.378027,-3.27092 2.427734,-3.80469 0.394375,-0.20053 0.806399,-0.3152 1.31836,-0.35351 1.89721,-0.142 5.063645,1.15637 8.578125,4.0664 a 2.000337,2.000337 0 0 0 2.550781,-3.08203 c -3.67401,-3.04213 -7.248059,-4.99606 -10.732422,-5 z m 3.445313,24.6640701 c -0.715104,1.0187303 -1.42377,2.0564003 -2.119141,3.1250003 -0.69614,1.06977 -1.361512,2.13982 -2.003906,3.20703 -0.712325,-1.95083 -1.342806,-3.86212 -1.863281,-5.69922 1.901477,-0.2748401 3.901403,-0.4879603 5.986328,-0.6328103 z m 11.580078,7.7773403 a 4.5297205,4.5204936 0 0 0 -4.662109,4.51953 4.5297205,4.5204936 0 0 0 9.058593,0 4.5297205,4.5204936 0 0 0 -4.396484,-4.51953 z"
       style="color:#000000;font-style:normal;font-variant:normal;font-weight:normal;font-stretch:normal;font-size:medium;line-height:normal;font-family:sans-serif;text-indent:0;text-align:start;text-decoration:none;text-decoration-line:none;text-decoration-style:solid;text-decoration-color:#000000;letter-spacing:normal;word-spacing:normal;text-transform:none;direction:ltr;block-progression:tb;writing-mode:lr-tb;baseline-shift:baseline;text-anchor:start;white-space:normal;clip-rule:nonzero;display:inline;overflow:visible;visibility:visible;opacity:0.15;isolation:auto;mix-blend-mode:normal;color-interpolation:sRGB;color-interpolation-filters:linearRGB;solid-color:#000000;solid-opacity:1;fill:#000000;fill-opacity:1;fill-rule:nonzero;stroke:none;stroke-width:4;stroke-linecap:round;stroke-linejoin:miter;stroke-miterlimit:4;stroke-dasharray:none;stroke-dashoffset:0;stroke-opacity:1;color-rendering:auto;image-rendering:auto;shape-rendering:auto;text-rendering:auto;enable-background:accumulate" />
    <path
       style="color:#000000;font-style:normal;font-variant:normal;font-weight:normal;font-stretch:normal;font-size:medium;line-height:normal;font-family:sans-serif;text-indent:0;text-align:start;text-decoration:none;text-decoration-line:none;text-decoration-style:solid;text-decoration-color:#000000;letter-spacing:normal;word-spacing:normal;text-transform:none;direction:ltr;block-progression:tb;writing-mode:lr-tb;baseline-shift:baseline;text-anchor:start;white-space:normal;clip-rule:nonzero;display:inline;overflow:visible;visibility:visible;opacity:1;isolation:auto;mix-blend-mode:normal;color-interpolation:sRGB;color-interpolation-filters:linearRGB;solid-color:#000000;solid-opacity:1;fill:url(#linearGradient11286);fill-opacity:1;fill-rule:nonzero;stroke:none;stroke-width:4;stroke-linecap:round;stroke-linejoin:miter;stroke-miterlimit:4;stroke-dasharray:none;stroke-dashoffset:0;stroke-opacity:1;color-rendering:auto;image-rendering:auto;shape-rendering:auto;text-rendering:auto;enable-background:accumulate"
       d="m 49.351465,-34.841666 c -0.232291,-2.6e-4 -0.463812,0.0081 -0.695312,0.02539 -0.979357,0.07329 -1.946669,0.32616 -2.833985,0.77735 -2.368133,1.20416 -3.80231,3.59762 -4.496093,6.41406 -0.693784,2.81644 -0.741136,6.18139 -0.279297,9.97656 0.189976,1.56114 0.489402,3.21142 0.853515,4.90625 -2.472902,0.51882 -4.77497,1.14134 -6.828125,1.88086 -3.107533,1.1193002 -5.697993,2.4739203 -7.644531,4.1523503 -1.946538,1.67843 -3.291738,3.7955 -3.417969,6.19920996 -0.12024,2.28967004 0.890516,4.44443004 2.503907,6.25391004 1.61339,1.80948 3.848397,3.3785798 6.580078,4.7831997 a 2.0007966,2.0007966 0 0 0 1.830078,-3.5585897 c -2.431909,-1.25048 -4.285498,-2.60785 -5.425781,-3.88672 -1.140283,-1.27887 -1.547172,-2.37298 -1.494141,-3.38281004 0.05571,-1.06076996 0.63048,-2.16770996 2.035156,-3.37890996 1.404677,-1.2112 3.594524,-2.41154 6.388672,-3.41797 1.882745,-0.67814 4.054045,-1.2624 6.423828,-1.75195 0.843121,3.04625 1.943126,6.23961 3.273438,9.51172 -3.360368,6.28449 -5.74136,12.3526997 -6.962891,17.6503897 -0.858486,3.72319 -1.16718,7.06975 -0.773437,9.94141 0.393742,2.87165 1.569922,5.40313 3.798828,6.84765 2.114967,1.37068 4.749355,1.48102 7.382812,0.79883 2.633457,-0.68219 5.399036,-2.13055 8.283203,-4.18164 a 2.0002,2.0002 0 1 0 -2.318359,-3.25977 c -2.614068,1.85901 -5.03067,3.06631 -6.96875,3.56836 -1.93808,0.50206 -3.263885,0.32551 -4.203125,-0.2832 -0.988178,-0.64042 -1.716133,-1.87743 -2.011719,-4.0332 -0.295585,-2.15578 -0.07769,-5.09675 0.707032,-8.5 0.938859,-4.07177 2.687881,-8.80777 5.130859,-13.7988297 0.524186,1.12185 1.069663,2.24914 1.646484,3.37891 4.85997,9.5187897 10.653932,17.4286497 16.259766,22.6347597 2.802917,2.60306 5.555981,4.54212 8.244141,5.63672 2.688158,1.0946 5.468131,1.34267 7.835937,0.13867 2.277428,-1.15804 3.695411,-3.42376 4.412109,-6.09179 0.716698,-2.66804 0.824223,-5.84584 0.457032,-9.43165 -0.734384,-7.1716 -3.408449,-15.9989197 -7.806641,-25.1191397 a 2.0002,2.0002 0 1 0 -3.601563,1.73829 c 4.232687,8.777 6.7607,17.2751497 7.427735,23.7890597 0.333517,3.25695 0.189939,6.01216 -0.339844,7.98437 -0.529782,1.97221 -1.353822,3.05311 -2.363281,3.56641 -1.050035,0.53393 -2.492129,0.54386 -4.513672,-0.2793 -2.021543,-0.82315 -4.466509,-2.48128 -7.029297,-4.86133 -5.125576,-4.76009 -10.739625,-12.35655 -15.419922,-21.5234297 -1.042842,-2.04253 -1.980182,-4.07307 -2.839843,-6.07813 1.068259,-1.90997 2.217427,-3.83668 3.472656,-5.76562 1.253334,-1.92604 2.544313,-3.76328 3.855468,-5.5117203 0.355509,-0.0051 0.701748,-0.02028 1.060547,-0.02149 1.849585,-0.006 3.747961,0.0472 5.683594,0.14844 10.296365,0.5385102 19.530803,2.5642703 25.970703,5.2988303 3.219951,1.36728 5.732594,2.92112 7.306644,4.42772996 1.57405,1.50662004 2.147451,2.82080004 2.085927,3.99219004 -0.0532,1.01252 -0.574937,2.06405 -1.847647,3.2207 -1.27271,1.15666 -3.26393,2.31621 -5.822268,3.3066398 a 2.0002,2.0002 0 1 0 1.44336,3.7304699 c 2.873928,-1.1126 5.269438,-2.44129 7.068359,-4.0761699 1.79892,-1.6348798 3.03386,-3.6772598 3.1543,-5.9706998 0.13924,-2.65148 -1.2214,-5.0885 -3.31641,-7.09375 -2.095011,-2.00526 -4.986511,-3.72351 -8.507812,-5.21875 -7.042592,-2.9904803 -16.637089,-5.0522803 -27.326171,-5.6113303 -1.274118,-0.06664 -2.531701,-0.10525 -3.78125,-0.12891 2.641995,-3.14833 5.312177,-5.89605 7.880859,-8.125 4.900278,-4.25216 9.501855,-6.5369 12.291015,-6.64257 1.032094,-0.0391 1.787734,0.16486 2.404297,0.56445 0.925903,0.60006 1.618645,1.71475 1.953125,3.64453 0.334481,1.92978 0.232768,4.5694 -0.373046,7.64648 a 2.0002,2.0002 0 1 0 3.923828,0.77149 c 0.670164,-3.40393 0.847936,-6.46311 0.390625,-9.10156 -0.457311,-2.63846 -1.628636,-4.96184 -3.71875,-6.31641 -1.394113,-0.90351 -3.049535,-1.27071 -4.730469,-1.20703 -4.536004,0.17185 -9.50677,3.05922 -14.761719,7.61914 -3.459733,3.00214 -7.008983,6.79432 -10.435547,11.18359 -3.538246,0.11783 -6.911433,0.41238 -10.042968,0.88086 -0.356121,-1.63173 -0.643917,-3.20629 -0.822266,-4.67187 -0.42217,-3.46919 -0.329761,-6.41946 0.191406,-8.53516 0.521168,-2.1157 1.378027,-3.27092 2.427734,-3.80469 0.394375,-0.20053 0.806399,-0.3152 1.31836,-0.35351 1.89721,-0.142 5.063645,1.15637 8.578125,4.0664 a 2.000337,2.000337 0 0 0 2.550781,-3.08203 c -3.67401,-3.04213 -7.248059,-4.99606 -10.732422,-5 z m 3.445313,24.66407 c -0.715104,1.0187303 -1.42377,2.0564003 -2.119141,3.1250003 -0.69614,1.06977 -1.361512,2.13982 -2.003906,3.20703 -0.712325,-1.95083 -1.342806,-3.86212 -1.863281,-5.69922 1.901477,-0.2748401 3.901403,-0.4879603 5.986328,-0.6328103 z m 11.580078,7.7773403 a 4.5297205,4.5204936 0 0 0 -4.662109,4.51953 4.5297205,4.5204936 0 0 0 9.058593,0 4.5297205,4.5204936 0 0 0 -4.396484,-4.51953 z"
       id="path4"
       inkscape:connector-curvature="0" />
    <path
       inkscape:connector-curvature="0"
       id="path11298"
       d="m 49.351465,-33.840455 c -0.232291,-2.6e-4 -0.463812,0.0081 -0.695312,0.02539 -0.979357,0.07329 -1.946669,0.32616 -2.833985,0.77735 -2.368133,1.20416 -3.80231,3.59762 -4.496093,6.41406 -0.693784,2.81644 -0.741136,6.18139 -0.279297,9.97656 0.189976,1.56114 0.489402,3.21142 0.853515,4.90625 -2.472902,0.51882 -4.77497,1.14134 -6.828125,1.8808603 -3.107533,1.1193002 -5.697993,2.4739203 -7.644531,4.1523503 -1.946538,1.67843 -3.291738,3.7955 -3.417969,6.19920992 -0.12024,2.28967008 0.890516,4.44443008 2.503907,6.25391008 1.61339,1.80948 3.848397,3.3785794 6.580078,4.7831994 a 2.0007966,2.0007966 0 0 0 1.830078,-3.5585894 c -2.431909,-1.25048 -4.285498,-2.60785 -5.425781,-3.88672 -1.140283,-1.27887 -1.547172,-2.37298 -1.494141,-3.38281008 0.05571,-1.06076996 0.63048,-2.16770992 2.035156,-3.37890992 1.404677,-1.2112 3.594524,-2.41154 6.388672,-3.41797 1.882745,-0.67814 4.054045,-1.2624 6.423828,-1.75195 0.843121,3.04625 1.943126,6.23961 3.273438,9.51172 -3.360368,6.28449 -5.74136,12.3526994 -6.962891,17.6503894 -0.858486,3.72319 -1.16718,7.06975 -0.773437,9.94141 0.393742,2.87165 1.569922,5.40313 3.798828,6.84765 2.114967,1.37068 4.749355,1.48102 7.382812,0.79883 2.633457,-0.68219 5.399036,-2.13055 8.283203,-4.18164 a 2.0002,2.0002 0 1 0 -2.318359,-3.25977 c -2.614068,1.85901 -5.03067,3.06631 -6.96875,3.56836 -1.93808,0.50206 -3.263885,0.32551 -4.203125,-0.2832 -0.988178,-0.64042 -1.716133,-1.87743 -2.011719,-4.0332 -0.295585,-2.15578 -0.07769,-5.09675 0.707032,-8.5 0.938859,-4.07177 2.687881,-8.80777 5.130859,-13.7988294 0.524186,1.12185 1.069663,2.24914 1.646484,3.37891 4.85997,9.5187894 10.653932,17.4286494 16.259766,22.6347594 2.802917,2.60306 5.555981,4.54212 8.244141,5.63672 2.688158,1.0946 5.468131,1.34267 7.835937,0.13867 2.277428,-1.15804 3.695411,-3.42376 4.412109,-6.09179 0.716698,-2.66804 0.824223,-5.84584 0.457032,-9.43165 -0.734384,-7.1716 -3.408449,-15.9989194 -7.806641,-25.1191394 a 2.0002,2.0002 0 1 0 -3.601563,1.73828996 c 4.232687,8.77700004 6.7607,17.27514944 7.427735,23.78905944 0.333517,3.25695 0.189939,6.01216 -0.339844,7.98437 -0.529782,1.97221 -1.353822,3.05311 -2.363281,3.56641 -1.050035,0.53393 -2.492129,0.54386 -4.513672,-0.2793 -2.021543,-0.82315 -4.466509,-2.48128 -7.029297,-4.86133 -5.125576,-4.76009 -10.739625,-12.35655 -15.419922,-21.5234294 -1.042842,-2.04253 -1.980182,-4.07307 -2.839843,-6.07813 1.068259,-1.90997004 2.217427,-3.83668 3.472656,-5.76562 1.253334,-1.92604 2.544313,-3.76328 3.855468,-5.5117203 0.355509,-0.0051 0.701748,-0.02028 1.060547,-0.02149 1.849585,-0.006 3.747961,0.0472 5.683594,0.14844 10.296365,0.5385102 19.530803,2.5642703 25.970703,5.2988303 3.219951,1.36728 5.732594,2.92112 7.306644,4.42772992 1.57405,1.50662008 2.147451,2.82080008 2.085927,3.99219008 -0.0532,1.01252 -0.574937,2.06405 -1.847647,3.2207 -1.27271,1.15666 -3.26393,2.3162104 -5.822268,3.3066394 a 2.0002,2.0002 0 1 0 1.44336,3.73047 c 2.873928,-1.1126 5.269438,-2.44129 7.068359,-4.07617 1.79892,-1.6348794 3.03386,-3.6772594 3.1543,-5.9706994 0.13924,-2.65148 -1.2214,-5.08850004 -3.31641,-7.09375 -2.095011,-2.00526 -4.986511,-3.72351 -8.507812,-5.21875 -7.042592,-2.9904806 -16.637089,-5.0522806 -27.326171,-5.6113306 -1.274118,-0.06664 -2.531701,-0.10525 -3.78125,-0.12891 2.641995,-3.14833 5.312177,-5.89605 7.880859,-8.125 4.900278,-4.25216 9.501855,-6.5369 12.291015,-6.64257 1.032094,-0.0391 1.787734,0.16486 2.404297,0.56445 0.925903,0.60006 1.618645,1.71475 1.953125,3.64453 0.334481,1.92978 0.232768,4.5694 -0.373046,7.64648 a 2.0002,2.0002 0 1 0 3.923828,0.77149 c 0.670164,-3.40393 0.847936,-6.46311 0.390625,-9.10156 -0.457311,-2.63846 -1.628636,-4.96184 -3.71875,-6.31641 -1.394113,-0.90351 -3.049535,-1.27071 -4.730469,-1.20703 -4.536004,0.17185 -9.50677,3.05922 -14.761719,7.61914 -3.459733,3.00214 -7.008983,6.79432 -10.435547,11.18359 -3.538246,0.11783 -6.911433,0.41238 -10.042968,0.88086 -0.356121,-1.63173 -0.643917,-3.20629 -0.822266,-4.67187 -0.42217,-3.46919 -0.329761,-6.41946 0.191406,-8.53516 0.521168,-2.1157 1.378027,-3.27092 2.427734,-3.80469 0.394375,-0.20053 0.806399,-0.3152 1.31836,-0.35351 1.89721,-0.142 5.063645,1.15637 8.578125,4.0664 a 2.000337,2.000337 0 0 0 2.550781,-3.08203 c -3.67401,-3.04213 -7.248059,-4.99606 -10.732422,-5 z m 3.445313,24.6640703 c -0.715104,1.0187303 -1.42377,2.0564003 -2.119141,3.1250003 -0.69614,1.06977 -1.361512,2.13982 -2.003906,3.20703 -0.712325,-1.95083 -1.342806,-3.86212 -1.863281,-5.69922 1.901477,-0.2748401 3.901403,-0.4879603 5.986328,-0.6328103 z m 11.580078,7.7773403 a 4.5297205,4.5204936 0 0 0 -4.662109,4.51953 4.5297205,4.5204936 0 0 0 9.058593,0 4.5297205,4.5204936 0 0 0 -4.396484,-4.51953 z"
       style="color:#000000;font-style:normal;font-variant:normal;font-weight:normal;font-stretch:normal;font-size:medium;line-height:normal;font-family:sans-serif;text-indent:0;text-align:start;text-decoration:none;text-decoration-line:none;text-decoration-style:solid;text-decoration-color:#000000;letter-spacing:normal;word-spacing:normal;text-transform:none;direction:ltr;block-progression:tb;writing-mode:lr-tb;baseline-shift:baseline;text-anchor:start;white-space:normal;clip-rule:nonzero;display:inline;overflow:visible;visibility:visible;opacity:0.05;isolation:auto;mix-blend-mode:normal;color-interpolation:sRGB;color-interpolation-filters:linearRGB;solid-color:#000000;solid-opacity:1;fill:#000000;fill-opacity:1;fill-rule:nonzero;stroke:#000000;stroke-width:2;stroke-linecap:round;stroke-linejoin:miter;stroke-miterlimit:4;stroke-dasharray:none;stroke-dashoffset:0;stroke-opacity:1;color-rendering:auto;image-rendering:auto;shape-rendering:auto;text-rendering:auto;enable-background:accumulate" />
  </g>
</svg>
