<?xml version="1.0" encoding="UTF-8" standalone="no"?>
<svg xmlns:rdf="http://www.w3.org/1999/02/22-rdf-syntax-ns#" xmlns="http://www.w3.org/2000/svg" height="128" width="128" version="1.1" xmlns:cc="http://creativecommons.org/ns#" xmlns:xlink="http://www.w3.org/1999/xlink" xmlns:dc="http://purl.org/dc/elements/1.1/">
 <defs>
  <radialGradient id="b" fx="-9.205" gradientUnits="userSpaceOnUse" cy="8.2603" cx="6.5633" gradientTransform="matrix(-1.1206e-7 3.75 -4.25 -2.503e-7 100.11 -25.612)" r="20">
   <stop stop-color="#b1e198" offset="0"/>
   <stop stop-color="#71c586" offset=".30769"/>
   <stop stop-color="#04a171" offset=".65385"/>
   <stop stop-color="#108562" offset="1"/>
  </radialGradient>
  <radialGradient id="a" gradientUnits="userSpaceOnUse" cy="186.17" cx="99.157" gradientTransform="matrix(1 0 0 .16667 0 155.14)" r="62.769">
   <stop stop-color="#3d3d3d" offset="0"/>
   <stop stop-color="#686868" stop-opacity=".49804" offset=".5"/>
   <stop stop-color="#686868" stop-opacity="0" offset="1"/>
  </radialGradient>
  <linearGradient id="d" y2="53.699" gradientUnits="userSpaceOnUse" x2="64.034" gradientTransform="translate(0 -.5)" y1="-49.85" x1="64.775">
   <stop stop-color="#fff" offset="0"/>
   <stop stop-color="#fff" stop-opacity=".23529" offset=".40804"/>
   <stop stop-color="#fff" stop-opacity=".15686" offset=".84138"/>
   <stop stop-color="#fff" stop-opacity=".39216" offset="1"/>
  </linearGradient>
  <linearGradient id="c" y2="39" gradientUnits="userSpaceOnUse" x2="65" y1="-36" x1="65">
   <stop stop-color="#fff" offset="0"/>
   <stop stop-color="#cee7dd" offset="1"/>
  </linearGradient>
 </defs>
 <g transform="translate(0,64)">
  <path d="m161.93 186.17a62.769 10.462 0 1 1 -125.54 0 62.769 10.462 0 1 1 125.54 0z" transform="matrix(.68694 0 0 1.2877 -4.0217 -195.2)" fill="url(#a)"/>
  <path style="color:#000000" d="m64.5-50.002c-28.692 0-52 23.308-52 52s23.308 52 52 52 52-23.308 52-52-23.308-52-52-52z" fill="url(#b)"/>
  <path opacity=".7" stroke-linejoin="round" style="color:#000000" d="m116.5 1.9981c0 28.72-23.283 52.002-51.999 52.002-28.719 0-52.001-23.282-52.001-52.002 0-28.718 23.282-51.998 52.001-51.998 28.716 0 51.999 23.28 51.999 51.998v0z" stroke="#006344" stroke-linecap="round" fill="none"/>
  <circle stroke-linejoin="round" stroke-opacity=".39216" cx="64.5" stroke-linecap="round" stroke="url(#d)" cy="2" r="51" fill="none"/>
  <g>
   <path opacity=".15" style="color-rendering:auto;text-decoration-color:#000000;color:#000000;isolation:auto;mix-blend-mode:normal;shape-rendering:auto;solid-color:#000000;block-progression:tb;text-decoration-line:none;text-decoration-style:solid;image-rendering:auto;white-space:normal;text-indent:0;text-transform:none" d="m49.351-33.842c-0.23229-0.00026-0.46381 0.0081-0.69531 0.02539-0.97936 0.07329-1.9467 0.32616-2.834 0.77735-2.3681 1.2042-3.8023 3.5976-4.4961 6.4141-0.69378 2.8164-0.74114 6.1814-0.2793 9.9766 0.18998 1.5611 0.4894 3.2114 0.85352 4.9062-2.4729 0.51882-4.775 1.1413-6.8281 1.8809-3.1075 1.1193-5.698 2.4739-7.6445 4.1524-1.9465 1.6784-3.2917 3.7955-3.418 6.1992-0.12024 2.2897 0.89052 4.4444 2.5039 6.2539s3.8484 3.3786 6.5801 4.7832a2.0008 2.0008 0 0 0 1.8301 -3.5586c-2.4319-1.2505-4.2855-2.6078-5.4258-3.8867s-1.5472-2.373-1.4941-3.3828c0.05571-1.0608 0.63048-2.1677 2.0352-3.3789s3.5945-2.4115 6.3887-3.418c1.8827-0.67814 4.054-1.2624 6.4238-1.752 0.84312 3.0462 1.9431 6.2396 3.2734 9.5117-3.3604 6.2845-5.7414 12.353-6.9629 17.65-0.85849 3.7232-1.1672 7.0698-0.77344 9.9414 0.39374 2.8716 1.5699 5.4031 3.7988 6.8476 2.115 1.3707 4.7494 1.481 7.3828 0.79883 2.6335-0.68219 5.399-2.1306 8.2832-4.1816a2.0002 2.0002 0 1 0 -2.3184 -3.2598c-2.6141 1.859-5.0307 3.0663-6.9688 3.5684-1.9381 0.50206-3.2639 0.32551-4.2031-0.2832-0.98818-0.64042-1.7161-1.8774-2.0117-4.0332-0.29558-2.1558-0.07769-5.0968 0.70703-8.5 0.93886-4.0718 2.6879-8.8078 5.1309-13.799 0.52419 1.1218 1.0697 2.2491 1.6465 3.3789 4.86 9.5188 10.654 17.429 16.26 22.635 2.8029 2.6031 5.556 4.5421 8.2441 5.6367 2.6882 1.0946 5.4681 1.3427 7.8359 0.13867 2.2774-1.158 3.6954-3.4238 4.4121-6.0918s0.82422-5.8458 0.45703-9.4316c-0.73438-7.1716-3.4084-15.999-7.8066-25.119a2.0002 2.0002 0 1 0 -3.6016 1.7383c4.2327 8.777 6.7607 17.275 7.4277 23.789 0.33352 3.257 0.18994 6.0122-0.33984 7.9844s-1.3538 3.0531-2.3633 3.5664c-1.05 0.53393-2.4921 0.54386-4.5137-0.2793-2.0215-0.82315-4.4665-2.4813-7.0293-4.8613-5.1256-4.7601-10.74-12.357-15.42-21.523-1.0428-2.0425-1.9802-4.0731-2.8398-6.0781 1.0683-1.91 2.2174-3.8367 3.4727-5.7656 1.2533-1.926 2.5443-3.7633 3.8555-5.5117 0.35551-0.0051 0.70175-0.02028 1.0605-0.02149 1.8496-0.006 3.748 0.0472 5.6836 0.14844 10.296 0.53851 19.531 2.5643 25.971 5.2988 3.22 1.3673 5.7326 2.9211 7.3066 4.4277s2.1475 2.8208 2.0859 3.9922c-0.0532 1.0125-0.57494 2.064-1.8476 3.2207s-3.2639 2.3162-5.8223 3.3066a2.0002 2.0002 0 1 0 1.4434 3.7305c2.8739-1.1126 5.2694-2.4413 7.0684-4.0762 1.7989-1.6349 3.0339-3.6773 3.1543-5.9707 0.13924-2.6515-1.2214-5.0885-3.3164-7.0938s-4.9865-3.7235-8.5078-5.2188c-7.0426-2.9905-16.637-5.0523-27.326-5.6113-1.2741-0.06664-2.5317-0.10525-3.7812-0.12891 2.642-3.1483 5.3122-5.896 7.8809-8.125 4.9003-4.2522 9.5019-6.5369 12.291-6.6426 1.0321-0.0391 1.7877 0.16486 2.4043 0.56445 0.9259 0.60006 1.6186 1.7148 1.9531 3.6445 0.33448 1.9298 0.23277 4.5694-0.37305 7.6465a2.0002 2.0002 0 1 0 3.9238 0.77149c0.67016-3.4039 0.84794-6.4631 0.39062-9.1016-0.45731-2.6385-1.6286-4.9618-3.7188-6.3164-1.3941-0.90351-3.0495-1.2707-4.7305-1.207-4.536 0.17185-9.5068 3.0592-14.762 7.6191-3.4597 3.0021-7.009 6.7943-10.436 11.184-3.5382 0.11783-6.9114 0.41238-10.043 0.88086-0.35612-1.6317-0.64392-3.2063-0.82227-4.6719-0.42217-3.4692-0.32976-6.4195 0.19141-8.5352s1.378-3.2709 2.4277-3.8047c0.39438-0.20053 0.8064-0.3152 1.3184-0.35351 1.8972-0.142 5.0636 1.1564 8.5781 4.0664a2.0003 2.0003 0 0 0 2.5508 -3.082c-3.674-3.0421-7.2481-4.9961-10.732-5zm3.4453 24.664c-0.7151 1.0187-1.4238 2.0564-2.1191 3.125-0.69614 1.0698-1.3615 2.1398-2.0039 3.207-0.71232-1.9508-1.3428-3.8621-1.8633-5.6992 1.9015-0.27484 3.9014-0.48796 5.9863-0.63281zm11.58 7.7773a4.5297 4.5205 0 0 0 -4.6621 4.5195 4.5297 4.5205 0 0 0 9.0586 0 4.5297 4.5205 0 0 0 -4.3965 -4.5195z"/>
   <path style="color-rendering:auto;text-decoration-color:#000000;color:#000000;isolation:auto;mix-blend-mode:normal;shape-rendering:auto;solid-color:#000000;block-progression:tb;text-decoration-line:none;text-decoration-style:solid;image-rendering:auto;white-space:normal;text-indent:0;text-transform:none" d="m49.351-34.842c-0.23229-0.00026-0.46381 0.0081-0.69531 0.02539-0.97936 0.07329-1.9467 0.32616-2.834 0.77735-2.3681 1.2042-3.8023 3.5976-4.4961 6.4141-0.69378 2.8164-0.74114 6.1814-0.2793 9.9766 0.18998 1.5611 0.4894 3.2114 0.85352 4.9062-2.4729 0.51882-4.775 1.1413-6.8281 1.8809-3.1075 1.1193-5.698 2.4739-7.6445 4.1524-1.9465 1.6784-3.2917 3.7955-3.418 6.1992-0.12024 2.2897 0.89052 4.4444 2.5039 6.2539s3.8484 3.3786 6.5801 4.7832a2.0008 2.0008 0 0 0 1.8301 -3.5586c-2.4319-1.2505-4.2855-2.6078-5.4258-3.8867s-1.5472-2.373-1.4941-3.3828c0.05571-1.0608 0.63048-2.1677 2.0352-3.3789s3.5945-2.4115 6.3887-3.418c1.8827-0.67814 4.054-1.2624 6.4238-1.752 0.84312 3.0462 1.9431 6.2396 3.2734 9.5117-3.3604 6.2845-5.7414 12.353-6.9629 17.65-0.85849 3.7232-1.1672 7.0698-0.77344 9.9414 0.39374 2.8716 1.5699 5.4031 3.7988 6.8476 2.115 1.3707 4.7494 1.481 7.3828 0.79883 2.6335-0.68219 5.399-2.1306 8.2832-4.1816a2.0002 2.0002 0 1 0 -2.3184 -3.2598c-2.6141 1.859-5.0307 3.0663-6.9688 3.5684-1.9381 0.50206-3.2639 0.32551-4.2031-0.2832-0.98818-0.64042-1.7161-1.8774-2.0117-4.0332-0.29558-2.1558-0.07769-5.0968 0.70703-8.5 0.93886-4.0718 2.6879-8.8078 5.1309-13.799 0.52419 1.1218 1.0697 2.2491 1.6465 3.3789 4.86 9.5188 10.654 17.429 16.26 22.635 2.8029 2.6031 5.556 4.5421 8.2441 5.6367 2.6882 1.0946 5.4681 1.3427 7.8359 0.13867 2.2774-1.158 3.6954-3.4238 4.4121-6.0918s0.82422-5.8458 0.45703-9.4316c-0.73438-7.1716-3.4084-15.999-7.8066-25.119a2.0002 2.0002 0 1 0 -3.6016 1.7383c4.2327 8.777 6.7607 17.275 7.4277 23.789 0.33352 3.257 0.18994 6.0122-0.33984 7.9844s-1.3538 3.0531-2.3633 3.5664c-1.05 0.53393-2.4921 0.54386-4.5137-0.2793-2.0215-0.82315-4.4665-2.4813-7.0293-4.8613-5.1256-4.7601-10.74-12.357-15.42-21.523-1.0428-2.0425-1.9802-4.0731-2.8398-6.0781 1.0683-1.91 2.2174-3.8367 3.4727-5.7656 1.2533-1.926 2.5443-3.7633 3.8555-5.5117 0.35551-0.0051 0.70175-0.02028 1.0605-0.02149 1.8496-0.006 3.748 0.0472 5.6836 0.14844 10.296 0.53851 19.531 2.5643 25.971 5.2988 3.22 1.3673 5.7326 2.9211 7.3066 4.4277s2.1475 2.8208 2.0859 3.9922c-0.0532 1.0125-0.57494 2.064-1.8476 3.2207s-3.2639 2.3162-5.8223 3.3066a2.0002 2.0002 0 1 0 1.4434 3.7305c2.8739-1.1126 5.2694-2.4413 7.0684-4.0762 1.7989-1.6349 3.0339-3.6773 3.1543-5.9707 0.13924-2.6515-1.2214-5.0885-3.3164-7.0938s-4.9865-3.7235-8.5078-5.2188c-7.0426-2.9905-16.637-5.0523-27.326-5.6113-1.2741-0.06664-2.5317-0.10525-3.7812-0.12891 2.642-3.1483 5.3122-5.896 7.8809-8.125 4.9003-4.2522 9.5019-6.5369 12.291-6.6426 1.0321-0.0391 1.7877 0.16486 2.4043 0.56445 0.9259 0.60006 1.6186 1.7148 1.9531 3.6445 0.33448 1.9298 0.23277 4.5694-0.37305 7.6465a2.0002 2.0002 0 1 0 3.9238 0.77149c0.67016-3.4039 0.84794-6.4631 0.39062-9.1016-0.45731-2.6385-1.6286-4.9618-3.7188-6.3164-1.3941-0.90351-3.0495-1.2707-4.7305-1.207-4.536 0.17185-9.5068 3.0592-14.762 7.6191-3.4597 3.0021-7.009 6.7943-10.436 11.184-3.5382 0.11783-6.9114 0.41238-10.043 0.88086-0.35612-1.6317-0.64392-3.2063-0.82227-4.6719-0.42217-3.4692-0.32976-6.4195 0.19141-8.5352s1.378-3.2709 2.4277-3.8047c0.39438-0.20053 0.8064-0.3152 1.3184-0.35351 1.8972-0.142 5.0636 1.1564 8.5781 4.0664a2.0003 2.0003 0 0 0 2.5508 -3.082c-3.674-3.0421-7.2481-4.9961-10.732-5zm3.4453 24.664c-0.7151 1.0187-1.4238 2.0564-2.1191 3.125-0.69614 1.0698-1.3615 2.1398-2.0039 3.207-0.71232-1.9508-1.3428-3.8621-1.8633-5.6992 1.9015-0.27484 3.9014-0.48796 5.9863-0.63281zm11.58 7.7773a4.5297 4.5205 0 0 0 -4.6621 4.5195 4.5297 4.5205 0 0 0 9.0586 0 4.5297 4.5205 0 0 0 -4.3965 -4.5195z" fill="url(#c)"/>
   <path opacity=".05" style="color-rendering:auto;text-decoration-color:#000000;color:#000000;isolation:auto;mix-blend-mode:normal;shape-rendering:auto;solid-color:#000000;block-progression:tb;text-decoration-line:none;text-decoration-style:solid;image-rendering:auto;white-space:normal;text-indent:0;text-transform:none" d="m49.351-33.84c-0.23229-0.00026-0.46381 0.0081-0.69531 0.02539-0.97936 0.07329-1.9467 0.32616-2.834 0.77735-2.3681 1.2042-3.8023 3.5976-4.4961 6.4141-0.69378 2.8164-0.74114 6.1814-0.2793 9.9766 0.18998 1.5611 0.4894 3.2114 0.85352 4.9062-2.4729 0.51882-4.775 1.1413-6.8281 1.8809-3.1075 1.1193-5.698 2.4739-7.6445 4.1524-1.9465 1.6784-3.2917 3.7955-3.418 6.1992-0.12024 2.2897 0.89052 4.4444 2.5039 6.2539s3.8484 3.3786 6.5801 4.7832a2.0008 2.0008 0 0 0 1.8301 -3.5586c-2.4319-1.2505-4.2855-2.6078-5.4258-3.8867s-1.5472-2.373-1.4941-3.3828c0.05571-1.0608 0.63048-2.1677 2.0352-3.3789s3.5945-2.4115 6.3887-3.418c1.8827-0.67814 4.054-1.2624 6.4238-1.752 0.84312 3.0462 1.9431 6.2396 3.2734 9.5117-3.3604 6.2845-5.7414 12.353-6.9629 17.65-0.85849 3.7232-1.1672 7.0698-0.77344 9.9414 0.39374 2.8716 1.5699 5.4031 3.7988 6.8476 2.115 1.3707 4.7494 1.481 7.3828 0.79883 2.6335-0.68219 5.399-2.1306 8.2832-4.1816a2.0002 2.0002 0 1 0 -2.3184 -3.2598c-2.6141 1.859-5.0307 3.0663-6.9688 3.5684-1.9381 0.50206-3.2639 0.32551-4.2031-0.2832-0.98818-0.64042-1.7161-1.8774-2.0117-4.0332-0.29558-2.1558-0.07769-5.0968 0.70703-8.5 0.93886-4.0718 2.6879-8.8078 5.1309-13.799 0.52419 1.1218 1.0697 2.2491 1.6465 3.3789 4.86 9.5188 10.654 17.429 16.26 22.635 2.8029 2.6031 5.556 4.5421 8.2441 5.6367 2.6882 1.0946 5.4681 1.3427 7.8359 0.13867 2.2774-1.158 3.6954-3.4238 4.4121-6.0918s0.82422-5.8458 0.45703-9.4316c-0.73438-7.1716-3.4084-15.999-7.8066-25.119a2.0002 2.0002 0 1 0 -3.6016 1.7383c4.2327 8.777 6.7607 17.275 7.4277 23.789 0.33352 3.257 0.18994 6.0122-0.33984 7.9844s-1.3538 3.0531-2.3633 3.5664c-1.05 0.53393-2.4921 0.54386-4.5137-0.2793-2.0215-0.82315-4.4665-2.4813-7.0293-4.8613-5.1256-4.7601-10.74-12.357-15.42-21.523-1.0428-2.0425-1.9802-4.0731-2.8398-6.0781 1.0683-1.91 2.2174-3.8367 3.4727-5.7656 1.2533-1.926 2.5443-3.7633 3.8555-5.5117 0.35551-0.0051 0.70175-0.02028 1.0605-0.02149 1.8496-0.006 3.748 0.0472 5.6836 0.14844 10.296 0.53851 19.531 2.5643 25.971 5.2988 3.22 1.3673 5.7326 2.9211 7.3066 4.4277s2.1475 2.8208 2.0859 3.9922c-0.0532 1.0125-0.57494 2.064-1.8476 3.2207s-3.2639 2.3162-5.8223 3.3066a2.0002 2.0002 0 1 0 1.4434 3.7305c2.8739-1.1126 5.2694-2.4413 7.0684-4.0762 1.7989-1.6349 3.0339-3.6773 3.1543-5.9707 0.13924-2.6515-1.2214-5.0885-3.3164-7.0938s-4.9865-3.7235-8.5078-5.2188c-7.0426-2.9905-16.637-5.0523-27.326-5.6113-1.2741-0.06664-2.5317-0.10525-3.7812-0.12891 2.642-3.1483 5.3122-5.896 7.8809-8.125 4.9003-4.2522 9.5019-6.5369 12.291-6.6426 1.0321-0.0391 1.7877 0.16486 2.4043 0.56445 0.9259 0.60006 1.6186 1.7148 1.9531 3.6445 0.33448 1.9298 0.23277 4.5694-0.37305 7.6465a2.0002 2.0002 0 1 0 3.9238 0.77149c0.67016-3.4039 0.84794-6.4631 0.39062-9.1016-0.45731-2.6385-1.6286-4.9618-3.7188-6.3164-1.3941-0.90351-3.0495-1.2707-4.7305-1.207-4.536 0.17185-9.5068 3.0592-14.762 7.6191-3.4597 3.0021-7.009 6.7943-10.436 11.184-3.5382 0.11783-6.9114 0.41238-10.043 0.88086-0.35612-1.6317-0.64392-3.2063-0.82227-4.6719-0.42217-3.4692-0.32976-6.4195 0.19141-8.5352s1.378-3.2709 2.4277-3.8047c0.39438-0.20053 0.8064-0.3152 1.3184-0.35351 1.8972-0.142 5.0636 1.1564 8.5781 4.0664a2.0003 2.0003 0 0 0 2.5508 -3.082c-3.674-3.0421-7.2481-4.9961-10.732-5zm3.4453 24.664c-0.7151 1.0187-1.4238 2.0564-2.1191 3.125-0.69614 1.0698-1.3615 2.1398-2.0039 3.207-0.71232-1.9508-1.3428-3.8621-1.8633-5.6992 1.9015-0.27484 3.9014-0.48796 5.9863-0.63281zm11.58 7.7773a4.5297 4.5205 0 0 0 -4.6621 4.5195 4.5297 4.5205 0 0 0 9.0586 0 4.5297 4.5205 0 0 0 -4.3965 -4.5195z" stroke="#000" stroke-linecap="round" stroke-width="2"/>
  </g>
 </g>
</svg>
