<?xml version="1.0" encoding="UTF-8" standalone="no"?>
<svg xmlns:rdf="http://www.w3.org/1999/02/22-rdf-syntax-ns#" xmlns="http://www.w3.org/2000/svg" height="128" width="128" version="1.1" xmlns:cc="http://creativecommons.org/ns#" xmlns:xlink="http://www.w3.org/1999/xlink" xmlns:dc="http://purl.org/dc/elements/1.1/">
 <defs>
  <linearGradient id="n" y2="79.181" xlink:href="#c" gradientUnits="userSpaceOnUse" x2="143.03" gradientTransform="translate(-135 91.5)" y1="93.437" x1="143.53"/>
  <linearGradient id="c">
   <stop stop-color="#52769e" offset="0"/>
   <stop stop-color="#d1dbe7" offset="1"/>
  </linearGradient>
  <linearGradient id="m" y2="84.321" xlink:href="#b" gradientUnits="userSpaceOnUse" x2="151.16" gradientTransform="translate(-137.68 87.412)" y1="90.278" x1="151.34"/>
  <linearGradient id="b">
   <stop stop-color="#1d446f" offset="0"/>
   <stop stop-color="#5892d4" offset="1"/>
  </linearGradient>
  <radialGradient id="d" gradientUnits="userSpaceOnUse" cy="46.834" cx="166.19" gradientTransform="matrix(-.44285 .45283 -.46485 -.45460 130.45 82.393)" r="24.266">
   <stop stop-color="#5892d4" offset="0"/>
   <stop stop-color="#1d446f" offset="1"/>
  </radialGradient>
  <linearGradient id="l" y2="82.354" xlink:href="#a" gradientUnits="userSpaceOnUse" x2="146.04" gradientTransform="translate(-137.16 86.459)" y1="92.855" x1="145.86"/>
  <linearGradient id="a">
   <stop stop-color="#102640" offset="0"/>
   <stop stop-color="#77a6dd" offset="1"/>
  </linearGradient>
  <linearGradient id="k" y2="79.181" xlink:href="#c" gradientUnits="userSpaceOnUse" x2="143.03" gradientTransform="matrix(-1 0 0 1 205.59 91.5)" y1="93.437" x1="143.53"/>
  <linearGradient id="j" y2="84.321" xlink:href="#b" gradientUnits="userSpaceOnUse" x2="151.16" gradientTransform="translate(-208.24 85.295)" y1="90.278" x1="151.34"/>
  <linearGradient id="i" y2="82.354" xlink:href="#a" gradientUnits="userSpaceOnUse" x2="146.04" gradientTransform="translate(-207.73 83.852)" y1="92.855" x1="145.86"/>
  <linearGradient id="h" y2="156" gradientUnits="userSpaceOnUse" x2="36.164" y1="133.54" x1="36.164">
   <stop stop-color="#fff" offset="0"/>
   <stop stop-color="#fff" stop-opacity="0" offset="1"/>
  </linearGradient>
  <linearGradient id="g" y2="190.48" gradientUnits="userSpaceOnUse" x2="35.601" gradientTransform="translate(109.25 11.055)" y1="158.73" x1="35.601">
   <stop stop-color="#bd1717" offset="0"/>
   <stop stop-color="#bdb317" offset="1"/>
  </linearGradient>
  <radialGradient id="f" gradientUnits="userSpaceOnUse" cy="43.5" cx="4.993" gradientTransform="matrix(2.0038 0 0 1.4 27.988 -17.4)" r="2.5">
   <stop stop-color="#181818" offset="0"/>
   <stop stop-color="#181818" stop-opacity="0" offset="1"/>
  </radialGradient>
  <radialGradient id="e" gradientUnits="userSpaceOnUse" cy="43.5" cx="4.993" gradientTransform="matrix(2.0038 0 0 1.4 -20.012 -104.4)" r="2.5">
   <stop stop-color="#181818" offset="0"/>
   <stop stop-color="#181818" stop-opacity="0" offset="1"/>
  </radialGradient>
  <linearGradient id="o" y2="39.999" gradientUnits="userSpaceOnUse" x2="25.058" y1="47.028" x1="25.058">
   <stop stop-color="#181818" stop-opacity="0" offset="0"/>
   <stop stop-color="#181818" offset=".5"/>
   <stop stop-color="#181818" stop-opacity="0" offset="1"/>
  </linearGradient>
 </defs>
 <g transform="translate(-307.43 -282.65)">
  <g opacity=".5" style="enable-background:new" transform="matrix(2.65 0 0 1.4444 307.83 340.76)">
   <g opacity=".4" transform="matrix(1.0526 0 0 1.2857 -1.2632 -13.429)">
    <rect height="7" width="5" y="40" x="38" fill="url(#f)"/>
    <rect transform="scale(-1)" height="7" width="5" y="-47" x="-10" fill="url(#e)"/>
    <rect height="7" width="28" y="40" x="10" fill="url(#o)"/>
   </g>
  </g>
  <g style="enable-background:new" transform="matrix(2.0215 0 0 2.0215 79.833 -17.868)">
   <g style="enable-background:new" transform="translate(108.96 11.284)">
    <path style="color:#000000;enable-background:accumulate" d="m11.875 170.72c-2.2909 0-4.3088 1.9892-5.5625 5.0312l0.34375 15.188c1.2639 2.5658 3.144 4.1875 5.2187 4.1875 3.8076 0 6.875-5.451 6.875-12.188 0-6.7365-3.0674-12.219-6.875-12.219z" stroke="#456283" stroke-width=".49469" fill="url(#n)"/>
    <rect style="color:#000000;enable-background:accumulate" transform="rotate(-1.718)" rx=".95527" ry=".95527" height="24.572" width="5.8336" stroke="#1d446f" y="170.87" x="9.6164" stroke-width=".49469" fill="url(#m)"/>
    <path style="color:#000000;enable-background:accumulate" d="m35.313 142.19c-6.8585 0-12.972 3.292-17 8.4688l1.1875 2.0312c3.9942-4.2012 9.5838-6.8125 15.812-6.8125 6.2632 0 11.9 2.6329 15.906 6.875l1.1562-2c-4.0357-5.228-10.165-8.5625-17.062-8.5625z" stroke="#0c1d30" stroke-width=".49469" fill="#193a5f"/>
    <path style="color:#000000;enable-background:accumulate" d="m35.313 138.12c-13.172 0-23.75 10.843-23.75 24.344v7.625h1.75v-4.5938c0-12.919 9.8072-23.312 22-23.312s22.031 10.393 22.031 23.312v4.5938h1.75v-7.625c0-13.501-10.609-24.344-23.781-24.344z" stroke="#1d446f" stroke-width=".49469" fill="url(#d)"/>
    <path stroke-linejoin="round" d="m11.018 169.4h3.182l-0.70711-3.7123h-2.1213z" stroke="#102640" stroke-linecap="round" stroke-width=".49469px" fill="#102640"/>
    <rect style="color:#000000;enable-background:accumulate" transform="matrix(.99932 -.036930 .023903 .99971 0 0)" rx=".95411" ry="1.0915" height="28.077" width="5.8265" stroke="#102640" y="169.24" x="6.2785" stroke-width=".49469" fill="url(#l)"/>
    <path style="color:#000000;enable-background:accumulate" d="m58.711 170.72c2.2909 0 4.3088 1.9892 5.5625 5.0312l-0.34375 15.188c-1.2639 2.5658-3.144 4.1875-5.2188 4.1875-3.8076 0-6.875-5.451-6.875-12.188 0-6.7365 3.0674-12.219 6.875-12.219z" stroke="#456283" stroke-width=".49469" fill="url(#k)"/>
    <rect style="color:#000000;enable-background:accumulate" transform="matrix(-.99955 -.029980 -.029980 .99955 0 0)" rx=".95527" ry=".95527" height="24.572" width="5.8336" stroke="#1d446f" y="168.75" x="-60.938" stroke-width=".49469" fill="url(#j)"/>
    <path stroke-linejoin="round" style="enable-background:new" d="m59.569 169.4h-3.182l0.70711-3.7123h2.1213z" stroke="#102640" stroke-linecap="round" stroke-width=".49469px" fill="#102640"/>
    <rect style="color:#000000;enable-background:accumulate" transform="matrix(-.99932 -.036930 -.023903 .99971 0 0)" rx=".95411" ry="1.0915" height="28.077" width="5.8265" stroke="#102640" y="166.63" x="-64.294" stroke-width=".49469" fill="url(#i)"/>
    <path style="color:#000000;enable-background:accumulate" d="m35.312 138.69c-12.872 0-23.188 10.566-23.188 23.781v7.0625h1.1875 44.031 1.1875v-7.0625c0-13.214-10.347-23.781-23.219-23.781z" stroke="url(#h)" stroke-width=".49469" fill="none"/>
   </g>
   <path stroke-linejoin="round" style="enable-background:new" d="m132.1 194.18 3.3588-16.617 2.4749 23.158 3.0052-28.991 2.6516 21.92 2.8284-16.44 3.0052 19.269 2.1213-25.633 4.773 23.865" stroke="url(#g)" stroke-linecap="round" stroke-width="1.4841" fill="none"/>
  </g>
 </g>
</svg>
