<?xml version="1.0" encoding="UTF-8" standalone="no"?>
<svg xmlns:rdf="http://www.w3.org/1999/02/22-rdf-syntax-ns#" xmlns="http://www.w3.org/2000/svg" height="128" width="128" version="1.1" xmlns:cc="http://creativecommons.org/ns#" xmlns:xlink="http://www.w3.org/1999/xlink" xmlns:dc="http://purl.org/dc/elements/1.1/">
 <defs>
  <radialGradient id="b" fx="-22.446" gradientUnits="userSpaceOnUse" cy="8.2603" cx="-19.78" gradientTransform="matrix(0 16 -13.75 -.0000055063 178.58 210.47)" r="20">
   <stop stop-color="#ffcd7d" offset="0"/>
   <stop stop-color="#fc8f36" offset=".26238"/>
   <stop stop-color="#e23a0e" offset=".70495"/>
   <stop stop-color="#ac441f" offset="1"/>
  </radialGradient>
  <radialGradient id="a" gradientUnits="userSpaceOnUse" cy="186.17" cx="99.157" gradientTransform="matrix(1 0 0 .16667 0 155.14)" r="62.769">
   <stop stop-color="#3d3d3d" offset="0"/>
   <stop stop-color="#686868" stop-opacity=".49804" offset=".5"/>
   <stop stop-color="#686868" stop-opacity="0" offset="1"/>
  </radialGradient>
  <linearGradient id="d" y2="53.699" gradientUnits="userSpaceOnUse" x2="64.034" gradientTransform="translate(0 -.5)" y1="-49.85" x1="64.775">
   <stop stop-color="#fff" offset="0"/>
   <stop stop-color="#fff" stop-opacity=".23529" offset=".40804"/>
   <stop stop-color="#fff" stop-opacity=".15686" offset=".84138"/>
   <stop stop-color="#fff" stop-opacity=".39216" offset="1"/>
  </linearGradient>
  <linearGradient id="c" y2="34" gradientUnits="userSpaceOnUse" x2="70" y1="-33.37" x1="70">
   <stop stop-color="#fff5ef" offset="0"/>
   <stop stop-color="#fef8dd" offset="1"/>
  </linearGradient>
 </defs>
 <g transform="translate(0,64)">
  <path d="m161.93 186.17a62.769 10.462 0 1 1 -125.54 0 62.769 10.462 0 1 1 125.54 0z" transform="matrix(.68694 0 0 1.2877 -4.0217 -195.2)" fill="url(#a)"/>
  <path style="color:#000000" d="m64.5-50.002c-28.692 0-52 23.308-52 52s23.308 52 52 52 52-23.308 52-52-23.308-52-52-52z" fill="url(#b)"/>
  <path opacity=".4" stroke-linejoin="round" style="color:#000000" d="m116.5 1.9981c0 28.72-23.283 52.002-51.999 52.002-28.719 0-52.001-23.282-52.001-52.002 0-28.718 23.282-51.998 52.001-51.998 28.716 0 51.999 23.28 51.999 51.998v0z" stroke="#640000" stroke-linecap="round" fill="none"/>
  <circle stroke-linejoin="round" stroke-opacity=".39216" cx="64.5" stroke-linecap="round" stroke="url(#d)" cy="2" r="51" fill="none"/>
  <path opacity=".15" style="color-rendering:auto;text-decoration-color:#000000;color:#000000;isolation:auto;mix-blend-mode:normal;shape-rendering:auto;solid-color:#000000;block-progression:tb;text-decoration-line:none;text-decoration-style:solid;image-rendering:auto;white-space:normal;text-indent:0;text-transform:none" d="m62.289-32.715a1.0001 1.0001 0 0 0 -0.91602 0.75586l-2.123 8.504c-0.83888-0.19272-1.6771-0.3837-2.4824-0.58203a1.0001 1.0001 0 0 0 -0.21484 -0.08203l-7.9453-1.9844a1.0001 1.0001 0 0 0 -1.213 0.728l-1.5312 6.1523a1.0001 1.0001 0 0 0 0.74609 1.2168s1.0659 0.24504 2.1172 0.49609c0.52566 0.12553 1.0481 0.25242 1.4238 0.34961 0.18706 0.04839 0.33937 0.09042 0.42188 0.11523 0.000355 0.000107 0.0016-0.000106 0.002 0a1.0001 1.0001 0 0 0 0.20117 0.07422c0.97889 0.24438 1.3986 0.6206 1.6406 1.002 0.23447 0.36947 0.29773 0.82281 0.27734 1.2812l-2.6504 10.639a1.0001 1.0001 0 0 0 -0.0039 0.019531 1.0001 1.0001 0 0 0 -0.0059 0.021484l-3.737 14.988c-0.09942 0.23879-0.26564 0.5053-0.46094 0.64648-0.2005 0.14494-0.41481 0.25176-0.99805 0.10742a1.0001 1.0001 0 0 0 -0.18945 -0.02734c-0.0082-0.0015-0.002 0.000052-0.01172-0.002-0.08834-0.01826-0.24575-0.05382-0.43555-0.09961-0.37959-0.09158-0.90125-0.22413-1.4258-0.35938-1.0491-0.27048-2.1094-0.55274-2.1094-0.55274a1.0001 1.0001 0 0 0 -1.1738 0.56836l-2.8594 6.5957a1.0001 1.0001 0 0 0 0.67578 1.3672l7.4941 1.8691c1.0596 0.26553 2.1007 0.54019 3.1406 0.81055l-2.1445 8.6094a1.0001 1.0001 0 0 0 0.72852 1.2129l5.7539 1.4355a1.0001 1.0001 0 0 0 1.2129 -0.72852l2.1172-8.4922c0.89811 0.23887 1.7828 0.46925 2.6543 0.68945l-2.1133 8.4648a1.0001 1.0001 0 0 0 0.72852 1.2129l5.7617 1.4355a1.0001 1.0001 0 0 0 1.2109 -0.72852l2.1719-8.6992c4.5797 0.79821 8.7323 1.0716 12.215 0 3.732-1.1484 6.6576-3.8749 8.291-8.541v-0.002c1.3079-3.7357 1.3127-6.8562 0.20312-9.3906-0.85334-1.9491-2.4531-3.4009-4.3203-4.6523 3.1313-1.3414 5.5542-4.0395 6.2246-8.5684 0.5632-3.7647-0.64753-6.8517-2.9336-9.1563-2.0983-2.1153-5.0896-3.5977-8.4277-4.8223l2.1543-8.6387a1.0001 1.0001 0 0 0 -0.72852 -1.2129l-5.7617-1.4355a1.0001 1.0001 0 0 0 -1.213 0.729l-2.0586 8.2578c-0.88619-0.21394-1.7754-0.42416-2.668-0.62891l2.0684-8.293a1.0001 1.0001 0 0 0 -0.727 -1.211l-5.7578-1.4355a1.0001 1.0001 0 0 0 -0.29688 -0.0293zm0.7832 2.2109 3.8164 0.95117-2.0703 8.3066a1.0001 1.0001 0 0 0 0.74609 1.2168c1.5452 0.35268 3.0959 0.70586 4.5977 1.0801a1.0001 1.0001 0 0 0 1.2109 -0.72852l2.0566-8.2441 3.8184 0.95312-2.1172 8.4941a1.0001 1.0001 0 0 0 0.64453 1.1855c3.5623 1.2271 6.579 2.7567 8.5098 4.7031s2.857 4.2294 2.375 7.4512a1.0001 1.0001 0 0 0 0 0.00195c-0.711 4.804-3.125 6.8329-6.591 7.632a1.0001 1.0001 0 0 0 -0.238 1.8614c2.4602 1.2809 4.1992 2.8365 5.0703 4.8262 0.87107 1.9896 0.93707 4.5104-0.25977 7.9277-1.476 4.2177-3.798 6.3081-6.9922 7.291-3.1942 0.98289-7.3547 0.74846-12.197-0.16797a1.0001 1.0001 0 0 0 -1.1562 0.74023l-2.141 8.586-3.82-0.953 2.109-8.455a1.0001 1.0001 0 0 0 -0.72852 -1.2129c-1.4871-0.36932-3.0062-0.76104-4.5703-1.1855a1.0001 1.0001 0 0 0 -1.2324 0.72266l-2.1191 8.5-3.8145-0.95117 2.1426-8.6016a1.0001 1.0001 0 0 0 -0.7207 -1.2109c-1.3383-0.34274-2.7084-0.71045-4.1133-1.0625l-6.351-1.584 2.046-4.724c0.40716 0.10748 0.647 0.17184 1.291 0.33789 0.52948 0.13652 1.0569 0.27064 1.457 0.36719 0.20008 0.04827 0.36524 0.08778 0.49805 0.11523 0.0664 0.01373 0.1194 0.02467 0.19922 0.03516 0.03991 0.0052 0.06749 0.01696 0.21094 0.0098 0.03168-0.0016 0.07537-0.0072 0.13281-0.01758 0.87547 0.11002 1.6842-0.04561 2.2344-0.44336 0.64042-0.46297 0.96885-1.0718 1.1562-1.5371a1.0001 1.0001 0 0 0 0.04297 -0.13281l3.543-14.205a1.0001 1.0001 0 0 0 0.44922 -1.7969l2.4727-9.9238a1.0001 1.0001 0 0 0 0.02734 -0.18359c0.04325-0.7504-0.05925-1.6675-0.59375-2.5098-0.48588-0.76564-1.3661-1.3686-2.5312-1.7324-0.0017-0.0011-0.0042-0.0048-0.0059-0.0059-0.13448-0.08982-0.17099-0.09462-0.21289-0.11133-0.08379-0.03342-0.13601-0.04815-0.20312-0.06836-0.13423-0.04042-0.29985-0.08494-0.5-0.13672-0.40031-0.10355-0.92931-0.23242-1.4609-0.35938-0.56908-0.13589-0.73433-0.17284-1.1426-0.26758l1.0449-4.1973 6.0273 1.5039 0.20703-0.92188a1.0001 1.0001 0 0 0 0.73438 1.1875c1.2066 0.3 2.4427 0.58538 3.6973 0.87109a1.0001 1.0001 0 0 0 1.1934 -0.73438l2.1191-8.4902zm1.1074 15.305a1.0001 1.0001 0 0 0 -0.91406 0.75586l-2.869 11.502a1.0001 1.0001 0 0 0 0.729 1.2125c1.5504 0.38643 4.958 1.4566 8.2676 1.5781 1.6548 0.060781 3.3155-0.10569 4.7578-0.80664s2.6204-2.01 3.0898-3.8906c0.48357-1.9404 0.07623-3.6816-0.86719-4.998-0.94342-1.3165-2.3421-2.2383-3.8398-2.9453-2.9954-1.414-6.5334-2.0012-8.0566-2.3809a1.0001 1.0001 0 0 0 -0.29687 -0.02734zm0.78711 2.1973c1.8326 0.41424 4.4469 0.94988 6.7129 2.0195 1.3156 0.62104 2.4222 1.4011 3.0684 2.3027 0.64616 0.90165 0.91304 1.896 0.55078 3.3496-0.34291 1.3717-1.028 2.0904-2.0234 2.5742-0.99593 0.48401-2.3495 0.66109-3.8105 0.60742-2.5144-0.092354-5.0858-0.79915-6.8867-1.2754l2.3887-9.5781zm-5.101 15.109a1.0001 1.0001 0 0 0 -0.91602 0.75781l-3.1621 12.682a1.0001 1.0001 0 0 0 0.72852 1.2129c1.8842 0.46788 5.9509 1.7129 9.8516 1.916 1.9503 0.10156 3.8833-0.04593 5.5469-0.77148 1.6636-0.72556 3.029-2.126 3.543-4.1914 0.53135-2.1305 0.0046-4.0436-1.123-5.4863-1.128-1.4429-2.777-2.4747-4.555-3.2815-3.555-1.6136-7.758-2.3445-9.617-2.8086a1.0001 1.0001 0 0 0 -0.29688 -0.029297zm0.78711 2.1992c2.1788 0.5006 5.4571 1.1704 8.3008 2.4609 1.6085 0.73002 2.9856 1.6416 3.8047 2.6895 0.81907 1.0479 1.1588 2.1736 0.75977 3.7734-0.37615 1.5115-1.1848 2.3108-2.4023 2.8418-1.2176 0.53104-2.8729 0.69773-4.6445 0.60547-3.132-0.163-6.356-1.054-8.503-1.616l2.683-10.755z" fill="#ae2109"/>
  <path opacity=".3" d="m87.65-4.9859c1.045-6.9861-4.274-10.742-11.548-13.248l2.3595-9.4641-5.7608-1.4357-2.2971 9.2147c-1.5145-0.37738-3.0699-0.73344-4.6156-1.0862l2.3135-9.2754-5.7576-1.4357-2.3611 9.4609c-1.2536-0.2855-2.4842-0.56772-3.6787-0.8647l0.0066-0.02953-7.9448-1.9837-1.5325 6.153s4.2743 0.97956 4.184 1.0403c2.3332 0.58248 2.7549 2.1265 2.6843 3.3505l-2.6876 10.782c0.1608 0.04102 0.36918 0.10009 0.59889 0.19197-0.19197-0.047583-0.39707-0.10009-0.60874-0.15095l-3.766 15.103c-0.2855 0.70882-1.0091 1.7721-2.64 1.3684 0.05743 0.08368-4.1873-1.0452-4.1873-1.0452l-2.8599 6.5944 7.4968 1.8689c1.3947 0.34949 2.7615 0.71539 4.1069 1.06l-2.3841 9.5724 5.7543 1.4357 2.3611-9.4707c1.5719 0.42661 3.0978 0.8204 4.591 1.1912l-2.3529 9.4264 5.7608 1.4357 2.3841-9.5544c9.8235 1.859 17.21 1.1092 20.32-7.7758 2.5055-7.1539-0.1247-11.28-5.2932-13.971 3.764-0.86798 6.5993-3.344 7.3557-8.4583zm-13.163 18.457c-1.7803 7.1539-13.825 3.2865-17.73 2.3168l3.163-12.681c3.9051 0.97464 16.428 2.9042 14.567 10.365zm1.7819-18.561c-1.6244 6.5074-11.65 3.2012-14.902 2.3906l2.8681-11.502c3.2521 0.81056 13.725 2.3234 12.034 9.1114z" fill="#ae2109"/>
  <path d="m87.65-5.9861c1.045-6.9869-4.274-10.742-11.548-13.248l2.3595-9.4641-5.7608-1.4357-2.2971 9.2147c-1.5145-0.37738-3.0699-0.73344-4.6156-1.0862l2.3135-9.2754-5.7576-1.4357-2.3611 9.4609c-1.2536-0.2855-2.4842-0.56772-3.6787-0.8647l0.0066-0.02953-7.9448-1.9837-1.5325 6.153s4.2743 0.97956 4.184 1.0403c2.3332 0.58248 2.7549 2.1265 2.6843 3.3505l-2.6876 10.782c0.1608 0.04102 0.36918 0.10009 0.59889 0.19197-0.19197-0.047583-0.39707-0.10009-0.60874-0.15095l-3.766 15.103c-0.2855 0.70882-1.0091 1.7721-2.64 1.3684 0.05743 0.08368-4.1873-1.0452-4.1873-1.0452l-2.8599 6.5944 7.4968 1.8689c1.3947 0.34949 2.7615 0.71539 4.1069 1.06l-2.3841 9.5724 5.7543 1.4357 2.3611-9.4707c1.5719 0.42661 3.0978 0.8204 4.591 1.1912l-2.3529 9.4264 5.7608 1.4357 2.3841-9.5544c9.8235 1.859 17.21 1.1092 20.32-7.7758 2.5055-7.1539-0.1247-11.28-5.2932-13.971 3.764-0.86798 6.5993-3.344 7.3557-8.4583zm-13.163 18.457c-1.7803 7.1539-13.825 3.2865-17.73 2.3168l3.163-12.682c3.9051 0.97464 16.428 2.9042 14.567 10.365zm1.7819-18.561c-1.6244 6.5074-11.65 3.2012-14.902 2.3906l2.8681-11.502c3.2521 0.81056 13.725 2.3234 12.034 9.1114z" fill="url(#c)"/>
 </g>
</svg>
