<?xml version="1.0" encoding="UTF-8" standalone="no"?>
<svg xmlns:rdf="http://www.w3.org/1999/02/22-rdf-syntax-ns#" xmlns="http://www.w3.org/2000/svg" height="128" width="128" version="1.1" xmlns:cc="http://creativecommons.org/ns#" xmlns:xlink="http://www.w3.org/1999/xlink" viewBox="0 0 128 128" xmlns:dc="http://purl.org/dc/elements/1.1/">
 <defs>
  <radialGradient id="a" gradientUnits="userSpaceOnUse" cy="4.3419" cx="32" gradientTransform="matrix(0 1.3006 -1.3006 0 94.036 165.84)" r="27.5">
   <stop stop-color="#fafafa" offset="0"/>
   <stop stop-color="#e1e1e1" offset="1"/>
  </radialGradient>
  <radialGradient id="radialGradient12065" xlink:href="#a" gradientUnits="userSpaceOnUse" cy="-9.0843" cx="27.484" gradientTransform="matrix(3.8645 .00040547 1.7084e-7 3.8688 -78.822 93.571)" r="55.725"/>
  <radialGradient id="d" xlink:href="#a" gradientUnits="userSpaceOnUse" cy="-47.109" cx="27.391" gradientTransform="matrix(2.9895 .0078878 -.0073208 2.7757 -54.839 83.435)" r="55.725"/>
  <linearGradient id="g" y2="-229.75" gradientUnits="userSpaceOnUse" x2="81.37" y1="-161.75" x1="81.37">
   <stop stop-color="#60d36b" offset="0"/>
   <stop stop-color="#27b43d" offset="1"/>
  </linearGradient>
  <linearGradient id="f" y2="-237.35" gradientUnits="userSpaceOnUse" x2="81.37" gradientTransform="matrix(1.2936 0 0 -1.2936 -51.268 -190.13)" y1="-154.15" x1="81.37">
   <stop stop-color="#fff" offset="0"/>
   <stop stop-color="#fff" stop-opacity=".23529" offset=".42448"/>
   <stop stop-color="#fff" stop-opacity=".15686" offset=".8209"/>
   <stop stop-color="#fff" stop-opacity=".39216" offset="1"/>
  </linearGradient>
  <linearGradient id="e" y2="-154.15" gradientUnits="userSpaceOnUse" x2="81.37" gradientTransform="matrix(.646 0 0 .66699 138.71 200.99)" y1="-237.35" x1="81.37">
   <stop stop-opacity=".32174" offset="0"/>
   <stop stop-opacity=".27826" offset="1"/>
  </linearGradient>
  <radialGradient id="c" xlink:href="#a" gradientUnits="userSpaceOnUse" cy="-154.17" cx="81.37" gradientTransform="matrix(1.9131 1.0057e-8 -1.0346e-8 1.9682 -74.302 149.29)" r="42.272"/>
  <radialGradient id="b" gradientUnits="userSpaceOnUse" cy="186.17" cx="99.157" gradientTransform="matrix(.54955 0 0 -.17169 26.553 -197.41)" r="62.769">
   <stop stop-color="#3d3d3d" offset="0"/>
   <stop stop-color="#686868" stop-opacity=".49804" offset=".5"/>
   <stop stop-color="#686868" stop-opacity="0" offset="1"/>
  </radialGradient>
 </defs>
 <g transform="translate(0 -924.36)">
  <g transform="matrix(1.25 0 0 -1.25 -37.212 746.17)">
   <path d="m115.54-229.37a34.495 10.777 0 1 0 -68.99 0 34.495 10.777 0 0 0 68.99 0z" fill="url(#b)"/>
   <path d="m81.37-154.15a41.6 41.6 0 0 1 -41.6 -41.6 41.6 41.6 0 0 1 6.4344 -22.195l-7.7781-20.792 22.611 6.7188a41.6 41.6 0 0 1 20.333 -5.3312 41.6 41.6 0 0 1 41.6 41.6 41.6 41.6 0 0 1 -41.6 41.6z" fill="url(#c)"/>
   <path opacity=".8" d="m81.37-154.15a41.6 41.6 0 0 1 -41.6 -41.6 41.6 41.6 0 0 1 6.4344 -22.195l-7.7781-20.792 22.611 6.7188a41.6 41.6 0 0 1 20.333 -5.3312 41.6 41.6 0 0 1 41.6 41.6 41.6 41.6 0 0 1 -41.6 41.6z" stroke="url(#e)" stroke-linecap="round" stroke-width="0.8" fill="none"/>
   <path opacity="0.965" d="m81.37-154.95a40.8 40.8 0 0 1 -40.8 -40.8 40.8 40.8 0 0 1 6.5188 -22.114l-7.35-19.648 21.411 6.3625a40.8 40.8 0 0 1 20.22 -5.4 40.8 40.8 0 0 1 40.8 40.8 40.8 40.8 0 0 1 -40.8 40.8z" stroke="url(#f)" stroke-linecap="round" stroke-width="0.64" fill="none"/>
   <path d="m81.37-161.75a34 34 0 0 1 -34 -34 34 34 0 0 1 7.3438 -21.103l-3.8469-10.258 11.248 3.3422a34 34 0 0 1 19.255 -5.9812 34 34 0 0 1 34 34 34 34 0 0 1 -34 34z" fill="url(#g)"/>
   <path opacity=".05" d="m64.5 24a42.5 42.5 0 0 0 -42.5 42.5 42.5 42.5 0 0 0 0.041 0.832 42.5 42.5 0 0 1 42.459 -41.332 42.5 42.5 0 0 1 42.46 41.668 42.5 42.5 0 0 0 0.04 -1.168 42.5 42.5 0 0 0 -42.5 -42.5zm-33.816 70.203l-4.313 11.497 0.844-0.25 3.965-10.571a42.5 42.5 0 0 1 -0.496 -0.676z" transform="matrix(.8 0 0 -.8 29.77 -142.55)"/>
   <path opacity=".15" d="m64.5 24a42.5 42.5 0 0 0 -42.5 42.5 42.5 42.5 0 0 0 0.021 0.416 42.5 42.5 0 0 1 42.479 -41.916 42.5 42.5 0 0 1 42.48 42.084 42.5 42.5 0 0 0 0.02 -0.584 42.5 42.5 0 0 0 -42.5 -42.5zm-33.568 69.541l-4.561 12.159 0.422-0.12 4.387-11.701a42.5 42.5 0 0 1 -0.248 -0.338z" transform="matrix(.8 0 0 -.8 29.77 -142.55)"/>
   <g opacity=".05" stroke-linejoin="round" fill-rule="evenodd" transform="matrix(.38044 0 0 .37804 70.949 -178.74)" stroke="#000" stroke-width="4.219">
    <path d="m0 0c-1.812 4.367-3.2 4.515-5.999 4.648-0.96 0.046-2.001 0.09-3.14 0.09-3.606 0-7.344-1.062-9.597-3.367-2.742-2.805-9.598-9.375-9.598-22.865 0-13.492 9.826-26.529 11.195-28.36 1.373-1.828 19.164-29.919 46.844-41.388 21.606-8.949 28.02-8.153 32.949-7.074 7.172 1.566 16.178 6.847 18.463 13.248 2.285 6.404 2.285 11.892 1.6 13.033-0.686 1.144-2.514 1.828-5.256 3.203-2.742 1.371-16.225 8.004-18.738 8.918-2.514 0.914-4.838 0.635-6.772-2.039-2.668-3.693-5.234-7.488-7.359-9.738-1.668-1.766-4.352-2.012-6.66-1.032-3.036 1.293-11.578 4.27-22.053 13.61-8.15 7.265-13.654 16.242-15.254 18.988-1.6 2.742-0.141 4.379 1.092 5.871 1.406 1.703 2.703 2.926 4.074 4.525 1.371 1.602 2.137 2.456 3.051 4.288 0.914 1.828 0.299 3.714-0.387 5.087-0.687 1.374-6.177 14.862-8.455 20.354"/>
    <path d="m0 0c-1.812 4.367-3.2 4.515-5.999 4.648-0.96 0.046-2.001 0.09-3.14 0.09-3.606 0-7.344-1.062-9.597-3.367-2.742-2.805-9.598-9.375-9.598-22.865 0-13.492 9.826-26.529 11.195-28.36 1.373-1.828 19.164-29.919 46.844-41.388 21.606-8.949 28.02-8.153 32.949-7.074 7.172 1.566 16.178 6.847 18.463 13.248 2.285 6.404 2.285 11.892 1.6 13.033-0.686 1.144-2.514 1.828-5.256 3.203-2.742 1.371-16.225 8.004-18.738 8.918-2.514 0.914-4.838 0.635-6.772-2.039-2.668-3.693-5.234-7.488-7.359-9.738-1.668-1.766-4.352-2.012-6.66-1.032-3.036 1.293-11.578 4.27-22.053 13.61-8.15 7.265-13.654 16.242-15.254 18.988-1.6 2.742-0.141 4.379 1.092 5.871 1.406 1.703 2.703 2.926 4.074 4.525 1.371 1.602 2.137 2.456 3.051 4.288 0.914 1.828 0.299 3.714-0.387 5.087-0.687 1.374-6.177 14.862-8.455 20.354"/>
   </g>
   <g opacity=".15" fill-rule="evenodd" transform="matrix(.38044 0 0 .37804 70.949 -178.74)">
    <path d="m0 0c-1.812 4.367-3.2 4.515-5.999 4.648-0.96 0.046-2.001 0.09-3.14 0.09-3.606 0-7.344-1.062-9.597-3.367-2.742-2.805-9.598-9.375-9.598-22.865 0-13.492 9.826-26.529 11.195-28.36 1.373-1.828 19.164-29.919 46.844-41.388 21.606-8.949 28.02-8.153 32.949-7.074 7.172 1.566 16.178 6.847 18.463 13.248 2.285 6.404 2.285 11.892 1.6 13.033-0.686 1.144-2.514 1.828-5.256 3.203-2.742 1.371-16.225 8.004-18.738 8.918-2.514 0.914-4.838 0.635-6.772-2.039-2.668-3.693-5.234-7.488-7.359-9.738-1.668-1.766-4.352-2.012-6.66-1.032-3.036 1.293-11.578 4.27-22.053 13.61-8.15 7.265-13.654 16.242-15.254 18.988-1.6 2.742-0.141 4.379 1.092 5.871 1.406 1.703 2.703 2.926 4.074 4.525 1.371 1.602 2.137 2.456 3.051 4.288 0.914 1.828 0.299 3.714-0.387 5.087-0.687 1.374-6.177 14.862-8.455 20.354"/>
    <path d="m0 0c-1.812 4.367-3.2 4.515-5.999 4.648-0.96 0.046-2.001 0.09-3.14 0.09-3.606 0-7.344-1.062-9.597-3.367-2.742-2.805-9.598-9.375-9.598-22.865 0-13.492 9.826-26.529 11.195-28.36 1.373-1.828 19.164-29.919 46.844-41.388 21.606-8.949 28.02-8.153 32.949-7.074 7.172 1.566 16.178 6.847 18.463 13.248 2.285 6.404 2.285 11.892 1.6 13.033-0.686 1.144-2.514 1.828-5.256 3.203-2.742 1.371-16.225 8.004-18.738 8.918-2.514 0.914-4.838 0.635-6.772-2.039-2.668-3.693-5.234-7.488-7.359-9.738-1.668-1.766-4.352-2.012-6.66-1.032-3.036 1.293-11.578 4.27-22.053 13.61-8.15 7.265-13.654 16.242-15.254 18.988-1.6 2.742-0.141 4.379 1.092 5.871 1.406 1.703 2.703 2.926 4.074 4.525 1.371 1.602 2.137 2.456 3.051 4.288 0.914 1.828 0.299 3.714-0.387 5.087-0.687 1.374-6.177 14.862-8.455 20.354"/>
   </g>
   <g fill-rule="evenodd" transform="matrix(.38044 0 0 .37804 70.949 -177.94)" fill="url(#d)">
    <path d="m0 0c-1.812 4.367-3.2 4.515-5.999 4.648-0.96 0.046-2.001 0.09-3.14 0.09-3.606 0-7.344-1.062-9.597-3.367-2.742-2.805-9.598-9.375-9.598-22.865 0-13.492 9.826-26.529 11.195-28.36 1.373-1.828 19.164-29.919 46.844-41.388 21.606-8.949 28.02-8.153 32.949-7.074 7.172 1.566 16.178 6.847 18.463 13.248 2.285 6.404 2.285 11.892 1.6 13.033-0.686 1.144-2.514 1.828-5.256 3.203-2.742 1.371-16.225 8.004-18.738 8.918-2.514 0.914-4.838 0.635-6.772-2.039-2.668-3.693-5.234-7.488-7.359-9.738-1.668-1.766-4.352-2.012-6.66-1.032-3.036 1.293-11.578 4.27-22.053 13.61-8.15 7.265-13.654 16.242-15.254 18.988-1.6 2.742-0.141 4.379 1.092 5.871 1.406 1.703 2.703 2.926 4.074 4.525 1.371 1.602 2.137 2.456 3.051 4.288 0.914 1.828 0.299 3.714-0.387 5.087-0.687 1.374-6.177 14.862-8.455 20.354"/>
    <path d="m0 0c-1.812 4.367-3.2 4.515-5.999 4.648-0.96 0.046-2.001 0.09-3.14 0.09-3.606 0-7.344-1.062-9.597-3.367-2.742-2.805-9.598-9.375-9.598-22.865 0-13.492 9.826-26.529 11.195-28.36 1.373-1.828 19.164-29.919 46.844-41.388 21.606-8.949 28.02-8.153 32.949-7.074 7.172 1.566 16.178 6.847 18.463 13.248 2.285 6.404 2.285 11.892 1.6 13.033-0.686 1.144-2.514 1.828-5.256 3.203-2.742 1.371-16.225 8.004-18.738 8.918-2.514 0.914-4.838 0.635-6.772-2.039-2.668-3.693-5.234-7.488-7.359-9.738-1.668-1.766-4.352-2.012-6.66-1.032-3.036 1.293-11.578 4.27-22.053 13.61-8.15 7.265-13.654 16.242-15.254 18.988-1.6 2.742-0.141 4.379 1.092 5.871 1.406 1.703 2.703 2.926 4.074 4.525 1.371 1.602 2.137 2.456 3.051 4.288 0.914 1.828 0.299 3.714-0.387 5.087-0.687 1.374-6.177 14.862-8.455 20.354"/>
   </g>
  </g>
 </g>
</svg>
