<?xml version="1.0" encoding="UTF-8" standalone="no"?>
<svg xmlns:rdf="http://www.w3.org/1999/02/22-rdf-syntax-ns#" xmlns="http://www.w3.org/2000/svg" height="128" width="128" version="1.1" xmlns:cc="http://creativecommons.org/ns#" xmlns:xlink="http://www.w3.org/1999/xlink" viewBox="0 0 128 128" xmlns:dc="http://purl.org/dc/elements/1.1/">
 <defs>
  <linearGradient id="f" y2="42.262" gradientUnits="userSpaceOnUse" x2="24" gradientTransform="matrix(2.7297 0 0 2.7297 -1.5135 925.85)" y1="5.5907" x1="24">
   <stop stop-color="#fff" offset="0"/>
   <stop stop-color="#fff" stop-opacity=".23529" offset=".037503"/>
   <stop stop-color="#fff" stop-opacity=".15686" offset=".96667"/>
   <stop stop-color="#fff" stop-opacity=".39216" offset="1"/>
  </linearGradient>
  <radialGradient id="e" gradientUnits="userSpaceOnUse" cy="4.3419" cx="32" gradientTransform="matrix(1.8995e-8 4.364 -4.364 1.8995e-8 82.948 800.42)" r="27.5">
   <stop stop-color="#fafafa" offset="0"/>
   <stop stop-color="#e1e1e1" offset="1"/>
  </radialGradient>
  <radialGradient id="d" xlink:href="#a" gradientUnits="userSpaceOnUse" cy="43.5" cx="4.993" gradientTransform="matrix(2.0038 0 0 1.4 27.988 -17.4)" r="2.5"/>
  <linearGradient id="a">
   <stop stop-color="#181818" offset="0"/>
   <stop stop-color="#181818" stop-opacity="0" offset="1"/>
  </linearGradient>
  <radialGradient id="c" xlink:href="#a" gradientUnits="userSpaceOnUse" cy="43.5" cx="4.993" gradientTransform="matrix(2.0038 0 0 1.4 -20.012 -104.4)" r="2.5"/>
  <linearGradient id="g" y2="39.999" gradientUnits="userSpaceOnUse" x2="25.058" y1="47.028" x1="25.058">
   <stop stop-color="#181818" stop-opacity="0" offset="0"/>
   <stop stop-color="#181818" offset=".5"/>
   <stop stop-color="#181818" stop-opacity="0" offset="1"/>
  </linearGradient>
  <radialGradient id="b" gradientUnits="userSpaceOnUse" cy="93.468" cx="-4.0288" gradientTransform="matrix(1.5564 0 0 .16979 70.27 1026.5)" r="35.338">
   <stop offset="0"/>
   <stop stop-opacity="0" offset="1"/>
  </radialGradient>
 </defs>
 <g transform="translate(0 -924.36)">
  <path opacity=".2" style="color:#000000" d="m119 1042.4a55 6 0 0 1 -110 0 55 6 0 1 1 110 0z" fill="url(#b)"/>
  <g transform="matrix(2.7 0 0 .55556 -.80001 1019.3)">
   <g opacity=".4" transform="matrix(1.0526 0 0 1.2857 -1.2632 -13.429)">
    <rect height="7" width="5" y="40" x="38" fill="url(#d)"/>
    <rect transform="scale(-1)" height="7" width="5" y="-47" x="-10" fill="url(#c)"/>
    <rect height="7" width="28" y="40" x="10" fill="url(#g)"/>
   </g>
  </g>
  <rect style="color:#000000" rx="4.5" ry="4.5" height="102" width="102" y="940.36" x="13" fill="url(#e)"/>
  <rect stroke-linejoin="round" rx="4" ry="4" height="101" width="101" stroke="url(#f)" stroke-linecap="round" y="940.86" x="13.5" fill="none"/>
  <rect opacity=".25" style="color:#000000" rx="5" ry="5" height="103" width="103" stroke="#000" y="939.86" x="12.5" fill="none"/>
  <rect opacity=".15" rx="4" ry="4" height="16" width="16" y="961.36" x="79"/>
  <path opacity=".05" style="color-rendering:auto;text-decoration-color:#000000;color:#000000;isolation:auto;mix-blend-mode:normal;shape-rendering:auto;solid-color:#000000;block-progression:tb;text-decoration-line:none;text-decoration-style:solid;image-rendering:auto;white-space:normal;text-indent:0;text-transform:none" d="m83 960.36c-2.7527 0-5 2.2473-5 5v8c0 2.7527 2.2473 5 5 5h8c2.7527 0 5-2.2473 5-5v-8c0-2.7527-2.2473-5-5-5h-8zm0 2h8c1.6793 0 3 1.3207 3 3v8c0 1.6793-1.3207 3-3 3h-8c-1.6793 0-3-1.3207-3-3v-8c0-1.6793 1.3207-3 3-3z"/>
  <rect rx="4" ry="4" height="16" width="16" y="960.36" x="79" fill="#fe3932"/>
  <path opacity=".05" style="color-rendering:auto;text-decoration-color:#000000;color:#000000;isolation:auto;mix-blend-mode:normal;shape-rendering:auto;solid-color:#000000;block-progression:tb;text-decoration-line:none;text-decoration-style:solid;image-rendering:auto;white-space:normal;text-indent:0;text-transform:none" d="m60 960.36c-2.7527 0-5 2.2473-5 5v8c0 2.7527 2.2473 5 5 5h8c2.7527 0 5-2.2473 5-5v-8c0-2.7527-2.2473-5-5-5h-8zm0 2h8c1.6793 0 3 1.3207 3 3v8c0 1.6793-1.3207 3-3 3h-8c-1.6793 0-3-1.3207-3-3v-8c0-1.6793 1.3207-3 3-3z"/>
  <rect opacity=".15" rx="4" ry="4" height="16" width="16" y="961.36" x="56"/>
  <path opacity=".05" style="color-rendering:auto;text-decoration-color:#000000;color:#000000;isolation:auto;mix-blend-mode:normal;shape-rendering:auto;solid-color:#000000;block-progression:tb;text-decoration-line:none;text-decoration-style:solid;image-rendering:auto;white-space:normal;text-indent:0;text-transform:none" d="m37 960.36c-2.7527 0-5 2.2473-5 5v8c0 2.7527 2.2473 5 5 5h8c2.7527 0 5-2.2473 5-5v-8c0-2.7527-2.2473-5-5-5h-8zm0 2h8c1.6793 0 3 1.3207 3 3v8c0 1.6793-1.3207 3-3 3h-8c-1.6793 0-3-1.3207-3-3v-8c0-1.6793 1.3207-3 3-3z"/>
  <rect rx="4" ry="4" height="16" width="16" y="960.36" x="56" fill="#fe3932"/>
  <path opacity=".05" style="color-rendering:auto;text-decoration-color:#000000;color:#000000;isolation:auto;mix-blend-mode:normal;shape-rendering:auto;solid-color:#000000;block-progression:tb;text-decoration-line:none;text-decoration-style:solid;image-rendering:auto;white-space:normal;text-indent:0;text-transform:none" d="m37 983.36c-2.7527 0-5 2.2473-5 5v8c0 2.7527 2.2473 5 5 5h8c2.7527 0 5-2.2473 5-5v-8c0-2.7527-2.2473-5-5-5h-8zm0 2h8c1.6793 0 3 1.3207 3 3v8c0 1.6793-1.3207 3-3 3h-8c-1.6793 0-3-1.3207-3-3v-8c0-1.6793 1.3207-3 3-3z"/>
  <rect opacity=".15" rx="4" ry="4" height="16" width="16" y="961.36" x="33"/>
  <path opacity=".05" style="color-rendering:auto;text-decoration-color:#000000;color:#000000;isolation:auto;mix-blend-mode:normal;shape-rendering:auto;solid-color:#000000;block-progression:tb;text-decoration-line:none;text-decoration-style:solid;image-rendering:auto;white-space:normal;text-indent:0;text-transform:none" d="m60 983.36c-2.7527 0-5 2.2473-5 5v8c0 2.7527 2.2473 5 5 5h8c2.7527 0 5-2.2473 5-5v-8c0-2.7527-2.2473-5-5-5h-8zm0 2h8c1.6793 0 3 1.3207 3 3v8c0 1.6793-1.3207 3-3 3h-8c-1.6793 0-3-1.3207-3-3v-8c0-1.6793 1.3207-3 3-3z"/>
  <rect rx="4" ry="4" height="16" width="16" y="960.36" x="33" fill="#fe3932"/>
  <path opacity=".05" style="color-rendering:auto;text-decoration-color:#000000;color:#000000;isolation:auto;mix-blend-mode:normal;shape-rendering:auto;solid-color:#000000;block-progression:tb;text-decoration-line:none;text-decoration-style:solid;image-rendering:auto;white-space:normal;text-indent:0;text-transform:none" d="m83 983.36c-2.7527 0-5 2.2473-5 5v8c0 2.7527 2.2473 5 5 5h8c2.7527 0 5-2.2473 5-5v-8c0-2.7527-2.2473-5-5-5h-8zm0 2h8c1.6793 0 3 1.3207 3 3v8c0 1.6793-1.3207 3-3 3h-8c-1.6793 0-3-1.3207-3-3v-8c0-1.6793 1.3207-3 3-3z"/>
  <rect opacity=".15" rx="4" ry="4" height="16" width="16" y="984.36" x="33"/>
  <path opacity=".05" style="color-rendering:auto;text-decoration-color:#000000;color:#000000;isolation:auto;mix-blend-mode:normal;shape-rendering:auto;solid-color:#000000;block-progression:tb;text-decoration-line:none;text-decoration-style:solid;image-rendering:auto;white-space:normal;text-indent:0;text-transform:none" d="m37 1006.4c-2.7527 0-5 2.2473-5 4.9999v8.0001c0 2.7527 2.2473 5 5 5h8c2.7527 0 5-2.2473 5-5v-8.0001c0-2.7526-2.2473-4.9999-5-4.9999h-8zm0 2h8c1.6793 0 3 1.3207 3 2.9999v8.0001c0 1.6793-1.3207 3-3 3h-8c-1.6793 0-3-1.3207-3-3v-8.0001c0-1.6792 1.3207-2.9999 3-2.9999z"/>
  <rect rx="4" ry="4" height="16" width="16" y="983.36" x="33" fill="#009d5a"/>
  <path opacity=".05" style="color-rendering:auto;text-decoration-color:#000000;color:#000000;isolation:auto;mix-blend-mode:normal;shape-rendering:auto;solid-color:#000000;block-progression:tb;text-decoration-line:none;text-decoration-style:solid;image-rendering:auto;white-space:normal;text-indent:0;text-transform:none" d="m60 1006.4c-2.7527 0-5 2.2473-5 4.9999v8.0001c0 2.7527 2.2473 5 5 5h8c2.7527 0 5-2.2473 5-5v-8.0001c0-2.7526-2.2473-4.9999-5-4.9999h-8zm0 2h8c1.6793 0 3 1.3207 3 2.9999v8.0001c0 1.6793-1.3207 3-3 3h-8c-1.6793 0-3-1.3207-3-3v-8.0001c0-1.6792 1.3207-2.9999 3-2.9999z"/>
  <rect opacity=".15" rx="4" ry="4" height="16" width="16" y="984.36" x="56"/>
  <path opacity=".05" style="color-rendering:auto;text-decoration-color:#000000;color:#000000;isolation:auto;mix-blend-mode:normal;shape-rendering:auto;solid-color:#000000;block-progression:tb;text-decoration-line:none;text-decoration-style:solid;image-rendering:auto;white-space:normal;text-indent:0;text-transform:none" d="m83 1006.4c-2.7527 0-5 2.2473-5 4.9999v8.0001c0 2.7527 2.2473 5 5 5h8c2.7527 0 5-2.2473 5-5v-8.0001c0-2.7526-2.2473-4.9999-5-4.9999h-8zm0 2h8c1.6793 0 3 1.3207 3 2.9999v8.0001c0 1.6793-1.3207 3-3 3h-8c-1.6793 0-3-1.3207-3-3v-8.0001c0-1.6792 1.3207-2.9999 3-2.9999z"/>
  <rect rx="4" ry="4" height="16" width="16" y="983.36" x="56" fill="#008bf4"/>
  <rect opacity=".15" rx="4" ry="4" height="16" width="16" y="984.36" x="79"/>
  <rect rx="4" ry="4" height="16" width="16" y="983.36" x="79" fill="#ffb000"/>
  <rect opacity=".15" rx="4" ry="4" height="16" width="16" y="1007.4" x="33"/>
  <rect rx="4" ry="4" height="16" width="16" y="1006.4" x="33" fill="#009d5a"/>
  <rect opacity=".15" rx="4" ry="4" height="16" width="16" y="1007.4" x="56"/>
  <rect rx="4" ry="4" height="16" width="16" y="1006.4" x="56" fill="#ffb000"/>
  <rect opacity=".15" rx="4" ry="4" height="16" width="16" y="1007.4" x="79"/>
  <rect rx="4" ry="4" height="16" width="16" y="1006.4" x="79" fill="#ffb000"/>
 </g>
</svg>
