<?xml version="1.0" encoding="UTF-8" standalone="no"?>
<svg xmlns:rdf="http://www.w3.org/1999/02/22-rdf-syntax-ns#" xmlns="http://www.w3.org/2000/svg" height="128" width="128" version="1.1" xmlns:cc="http://creativecommons.org/ns#" xmlns:xlink="http://www.w3.org/1999/xlink" viewBox="0 0 128 128" xmlns:dc="http://purl.org/dc/elements/1.1/">
 <defs>
  <linearGradient id="f" y2="42.262" gradientUnits="userSpaceOnUse" x2="24" gradientTransform="matrix(2.7297 0 0 2.7297 -1.5135 925.85)" y1="5.5907" x1="24">
   <stop stop-color="#fff" offset="0"/>
   <stop stop-color="#fff" stop-opacity=".23529" offset=".037503"/>
   <stop stop-color="#fff" stop-opacity=".15686" offset=".96667"/>
   <stop stop-color="#fff" stop-opacity=".39216" offset="1"/>
  </linearGradient>
  <radialGradient id="e" gradientUnits="userSpaceOnUse" cy="4.3419" cx="32" gradientTransform="matrix(1.8995e-8 4.364 -4.364 1.8995e-8 82.948 800.42)" r="27.5">
   <stop stop-color="#fafafa" offset="0"/>
   <stop stop-color="#e1e1e1" offset="1"/>
  </radialGradient>
  <radialGradient id="d" xlink:href="#a" gradientUnits="userSpaceOnUse" cy="43.5" cx="4.993" gradientTransform="matrix(2.0038 0 0 1.4 27.988 -17.4)" r="2.5"/>
  <linearGradient id="a">
   <stop stop-color="#181818" offset="0"/>
   <stop stop-color="#181818" stop-opacity="0" offset="1"/>
  </linearGradient>
  <radialGradient id="c" xlink:href="#a" gradientUnits="userSpaceOnUse" cy="43.5" cx="4.993" gradientTransform="matrix(2.0038 0 0 1.4 -20.012 -104.4)" r="2.5"/>
  <linearGradient id="g" y2="39.999" gradientUnits="userSpaceOnUse" x2="25.058" y1="47.028" x1="25.058">
   <stop stop-color="#181818" stop-opacity="0" offset="0"/>
   <stop stop-color="#181818" offset=".5"/>
   <stop stop-color="#181818" stop-opacity="0" offset="1"/>
  </linearGradient>
  <radialGradient id="b" gradientUnits="userSpaceOnUse" cy="93.468" cx="-4.0288" gradientTransform="matrix(1.5564 0 0 .16979 70.27 1026.5)" r="35.338">
   <stop offset="0"/>
   <stop stop-opacity="0" offset="1"/>
  </radialGradient>
 </defs>
 <g transform="translate(0 -924.36)">
  <path opacity=".2" style="color:#000000" d="m119 1042.4a55 6 0 0 1 -110 0 55 6 0 1 1 110 0z" fill="url(#b)"/>
  <g transform="matrix(2.7 0 0 .55556 -.80001 1019.3)">
   <g opacity=".4" transform="matrix(1.0526 0 0 1.2857 -1.2632 -13.429)">
    <rect height="7" width="5" y="40" x="38" fill="url(#d)"/>
    <rect transform="scale(-1)" height="7" width="5" y="-47" x="-10" fill="url(#c)"/>
    <rect height="7" width="28" y="40" x="10" fill="url(#g)"/>
   </g>
  </g>
  <rect style="color:#000000" rx="4.5" ry="4.5" height="102" width="102" y="940.36" x="13" fill="url(#e)"/>
  <rect stroke-linejoin="round" rx="4" ry="4" height="101" width="101" stroke="url(#f)" stroke-linecap="round" y="940.86" x="13.5" fill="none"/>
  <rect opacity=".25" style="color:#000000" rx="5" ry="5" height="103" width="103" stroke="#000" y="939.86" x="12.5" fill="none"/>
  <path opacity=".049751" style="color-rendering:auto;text-decoration-color:#000000;color:#000000;isolation:auto;mix-blend-mode:normal;shape-rendering:geometricPrecision;solid-color:#000000;block-progression:tb;text-decoration-line:none;text-decoration-style:solid;image-rendering:optimizeQuality;white-space:normal;text-indent:0;text-transform:none" d="m54.779 964.36a1.0001 1.0001 0 0 0 -0.86524 0.5l-20.779 36a1.0001 1.0001 0 0 0 0 1l10.391 18a1.0001 1.0001 0 0 0 0.86523 0.5h41.561a1.0001 1.0001 0 0 0 0.86523 -0.5l10.389-18a1.0001 1.0001 0 0 0 0 -1l-20.78-36.04a1.0001 1.0001 0 0 0 -0.86523 -0.5h-20.781zm0.57617 2h19.627l20.203 35-9.8125 17h-40.404l-9.8145-17 20.201-35zm9.7617 16.002a1.0001 1.0001 0 0 0 -0.8125 0.5l-10.389 18a1.0001 1.0001 0 0 0 0.86523 1.498h20.779a1.0001 1.0001 0 0 0 0.86523 -1.5l-10.389-18.04a1.0001 1.0001 0 0 0 -0.91797 -0.49805zm0.05273 2.9961 8.6602 15.002h-17.318l8.6582-15.002z" fill-rule="evenodd" clip-rule="evenodd"/>
  <path opacity=".15" style="image-rendering:optimizeQuality;shape-rendering:geometricPrecision" d="m54.779 965.36-20.779 36.04l10.391 18h41.561l10.389-18-20.779-36h-20.781zm10.391 18 10.391 18h-20.779l10.389-18z" fill-rule="evenodd" clip-rule="evenodd"/>
  <polygon style="image-rendering:optimizeQuality;shape-rendering:geometricPrecision" fill-rule="evenodd" transform="matrix(.00046818 0 0 .00046818 34 964.36)" class="fil0" points="44385 76894 1.3316e5 76894 1.1096e5 1.1534e5 22194 1.1534e5" clip-rule="evenodd" fill="#3777e3"/>
  <polygon style="image-rendering:optimizeQuality;shape-rendering:geometricPrecision" fill-rule="evenodd" transform="matrix(.00046818 0 0 .00046818 34 964.36)" class="fil1" points="1.3316e5 76894 88772 0 44385 0 88772 76894" clip-rule="evenodd" fill="#ffcf63"/>
  <polygon style="image-rendering:optimizeQuality;shape-rendering:geometricPrecision" fill-rule="evenodd" transform="matrix(.00046818 0 0 .00046818 34 964.36)" class="fil2" points="22194 1.1534e5 66578 38447 44385 0 0 76894" clip-rule="evenodd" fill="#11a861"/>
 </g>
</svg>
