<?xml version="1.0" encoding="UTF-8" standalone="no"?>
<svg xmlns:rdf="http://www.w3.org/1999/02/22-rdf-syntax-ns#" xmlns="http://www.w3.org/2000/svg" height="128" width="128" version="1.1" xmlns:cc="http://creativecommons.org/ns#" xmlns:xlink="http://www.w3.org/1999/xlink" xmlns:dc="http://purl.org/dc/elements/1.1/">
 <defs>
  <linearGradient id="f" y2="5.3629" gradientUnits="userSpaceOnUse" x2="-.30457" gradientTransform="matrix(2.641 0 0 2.641 109.65 .97436)" y1="44.777" x1="-.30457">
   <stop stop-color="#1a6f44" offset="0"/>
   <stop stop-color="#1f8753" offset="1"/>
  </linearGradient>
  <linearGradient id="g" y2="43" gradientUnits="userSpaceOnUse" x2="24" gradientTransform="matrix(2.7297 0 0 2.7297 -1.5135 1.4865)" y1="5" x1="24">
   <stop stop-color="#fff" offset="0"/>
   <stop stop-color="#fff" stop-opacity=".23529" offset=".063165"/>
   <stop stop-color="#fff" stop-opacity=".15686" offset=".95056"/>
   <stop stop-color="#fff" stop-opacity=".39216" offset="1"/>
  </linearGradient>
  <radialGradient id="c" gradientUnits="userSpaceOnUse" cy="8.4498" cx="7.4957" gradientTransform="matrix(0 5.5238 -6.4659 -1.5035e-7 118.64 -23.881)" r="20">
   <stop stop-color="#4ad58e" offset="0"/>
   <stop stop-color="#2dc477" offset=".26238"/>
   <stop stop-color="#26a464" offset=".70495"/>
   <stop stop-color="#1d7d4c" offset="1"/>
  </radialGradient>
  <radialGradient id="e" gradientUnits="userSpaceOnUse" cy="43.5" cx="4.993" gradientTransform="matrix(2.0038 0 0 1.4 27.988 -17.4)" r="2.5">
   <stop stop-color="#181818" offset="0"/>
   <stop stop-color="#181818" stop-opacity="0" offset="1"/>
  </radialGradient>
  <radialGradient id="d" gradientUnits="userSpaceOnUse" cy="43.5" cx="4.993" gradientTransform="matrix(2.0038 0 0 1.4 -20.012 -104.4)" r="2.5">
   <stop stop-color="#181818" offset="0"/>
   <stop stop-color="#181818" stop-opacity="0" offset="1"/>
  </radialGradient>
  <linearGradient id="h" y2="39.999" gradientUnits="userSpaceOnUse" x2="25.058" y1="47.028" x1="25.058">
   <stop stop-color="#181818" stop-opacity="0" offset="0"/>
   <stop stop-color="#181818" offset=".5"/>
   <stop stop-color="#181818" stop-opacity="0" offset="1"/>
  </linearGradient>
  <radialGradient id="b" gradientUnits="userSpaceOnUse" cy="93.468" cx="-4.0288" gradientTransform="matrix(1.5564 0 0 .16979 70.27 102.13)" r="35.338">
   <stop offset="0"/>
   <stop stop-opacity="0" offset="1"/>
  </radialGradient>
  <clipPath id="a" clipPathUnits="userSpaceOnUse">
   <rect height="30.548" width="37.667" y="9.4789" x="5.1808" fill="#fff"/>
  </clipPath>
 </defs>
 <path opacity=".2" style="color:#000000" d="m119 118a55 6 0 1 1 -110 0 55 6 0 1 1 110 0z" fill="url(#b)"/>
 <g transform="matrix(2.7 0 0 .55556 -0.8 94.889)">
  <g opacity=".4" transform="matrix(1.0526 0 0 1.2857 -1.2632 -13.429)">
   <rect height="7" width="5" y="40" x="38" fill="url(#e)"/>
   <rect transform="scale(-1)" height="7" width="5" y="-47" x="-10" fill="url(#d)"/>
   <rect height="7" width="28" y="40" x="10" fill="url(#h)"/>
  </g>
 </g>
 <rect style="color:#000000" rx="5.5" ry="5.5" height="102" width="102" y="16" x="13" fill="url(#c)"/>
 <rect stroke-linejoin="round" style="color:#000000" rx="6" ry="6" height="103" width="103" stroke="url(#f)" stroke-linecap="round" y="15.5" x="12.5" fill="none"/>
 <path opacity=".15" d="m3.6779 37.332 11.443-11.478l7 7 21.879-21.854" clip-path="url(#a)" transform="matrix(2.7059 0 0 2.7059 -.94118 3.3508)" stroke="#000" stroke-width="2.2174" fill="none"/>
 <path stroke-linejoin="round" opacity=".05" style="color-rendering:auto;text-decoration-color:#000000;color:#000000;isolation:auto;mix-blend-mode:normal;shape-rendering:auto;solid-color:#000000;block-progression:tb;text-decoration-line:none;text-decoration-style:solid;image-rendering:auto;white-space:normal;text-indent:0;text-transform:none" d="m43.217 10.215-21.096 21.072-7.002-7.002-12.226 12.264 1.5699 1.566 10.658-10.691l7 6.998 22.662-22.637-1.5664-1.5703z" clip-path="url(#a)" transform="matrix(2.7059 0 0 2.7059 -.94118 3.3508)" fill-rule="evenodd" stroke="#000" stroke-width=".73913"/>
 <path d="m3.6779 37.332 11.443-11.478l7 7 21.879-21.854" clip-path="url(#a)" transform="matrix(2.7059 0 0 2.7059 -.94118 2.3511)" stroke="#fff" stroke-width="2.2174" fill="none"/>
 <rect opacity=".5" stroke-linejoin="round" rx="5" ry="5" height="101" width="101" stroke="url(#g)" stroke-linecap="round" y="16.5" x="13.5" fill="none"/>
</svg>
