<?xml version="1.0" encoding="UTF-8" standalone="no"?>
<svg xmlns:rdf="http://www.w3.org/1999/02/22-rdf-syntax-ns#" xmlns="http://www.w3.org/2000/svg" height="128" width="128" version="1.1" xmlns:cc="http://creativecommons.org/ns#" xmlns:xlink="http://www.w3.org/1999/xlink" xmlns:dc="http://purl.org/dc/elements/1.1/">
 <defs>
  <linearGradient id="f" y2="42.262" gradientUnits="userSpaceOnUse" x2="24" gradientTransform="matrix(2.7297 0 0 2.7297 -1.5135 -62.512)" y1="5.5907" x1="24">
   <stop stop-color="#fff" offset="0"/>
   <stop stop-color="#fff" stop-opacity=".23529" offset=".037503"/>
   <stop stop-color="#fff" stop-opacity=".15686" offset=".96667"/>
   <stop stop-color="#fff" stop-opacity=".39216" offset="1"/>
  </linearGradient>
  <radialGradient id="d" gradientUnits="userSpaceOnUse" cy="43.5" cx="4.993" gradientTransform="matrix(2.0038 0 0 1.4 27.988 -17.4)" r="2.5">
   <stop stop-color="#181818" offset="0"/>
   <stop stop-color="#181818" stop-opacity="0" offset="1"/>
  </radialGradient>
  <radialGradient id="c" gradientUnits="userSpaceOnUse" cy="43.5" cx="4.993" gradientTransform="matrix(2.0038 0 0 1.4 -20.012 -104.4)" r="2.5">
   <stop stop-color="#181818" offset="0"/>
   <stop stop-color="#181818" stop-opacity="0" offset="1"/>
  </radialGradient>
  <linearGradient id="g" y2="39.999" gradientUnits="userSpaceOnUse" x2="25.058" y1="47.028" x1="25.058">
   <stop stop-color="#181818" stop-opacity="0" offset="0"/>
   <stop stop-color="#181818" offset=".5"/>
   <stop stop-color="#181818" stop-opacity="0" offset="1"/>
  </linearGradient>
  <radialGradient id="b" gradientUnits="userSpaceOnUse" cy="93.468" cx="-4.0288" gradientTransform="matrix(1.5564 0 0 .16979 70.27 38.132)" r="35.338">
   <stop offset="0"/>
   <stop stop-opacity="0" offset="1"/>
  </radialGradient>
  <radialGradient id="e" gradientUnits="userSpaceOnUse" cy="4.3419" cx="32" gradientTransform="matrix(1.8995e-8 4.364 -4.364 1.8995e-8 82.948 -187.94)" r="27.5">
   <stop stop-color="#fafafa" offset="0"/>
   <stop stop-color="#e1e1e1" offset="1"/>
  </radialGradient>
  <linearGradient id="i" y2="103" xlink:href="#a" gradientUnits="userSpaceOnUse" x2="60" gradientTransform="translate(0,-64)" y1="33" x1="60"/>
  <linearGradient id="a">
   <stop stop-color="#008fef" offset="0"/>
   <stop stop-color="#007acc" offset="1"/>
  </linearGradient>
  <clipPath id="j" clipPathUnits="userSpaceOnUse">
   <path d="m83 35-29.666 26.666-16.334-12.666-5 2v32l5 2 16.334-12.666 29.666 26.666 13-6v-51zm-3 19v26l-16-13zm-43 5 8 8-8 8z" fill-rule="evenodd" fill="url(#h)"/>
  </clipPath>
  <linearGradient id="h" y2="103" xlink:href="#a" gradientUnits="userSpaceOnUse" x2="60" y1="33" x1="60"/>
 </defs>
 <g transform="translate(0,64)">
  <path opacity=".2" style="color:#000000" d="m119 54.002a55 6 0 0 1 -110 0 55 6 0 1 1 110 0z" fill="url(#b)"/>
  <g transform="matrix(2.7 0 0 .55556 -.80001 30.891)">
   <g opacity=".4" transform="matrix(1.0526 0 0 1.2857 -1.2632 -13.429)">
    <rect height="7" width="5" y="40" x="38" fill="url(#d)"/>
    <rect transform="scale(-1)" height="7" width="5" y="-47" x="-10" fill="url(#c)"/>
    <rect height="7" width="28" y="40" x="10" fill="url(#g)"/>
   </g>
  </g>
  <rect style="color:#000000" rx="4.5" ry="4.5" height="102" width="102" y="-48" x="13" fill="url(#e)"/>
  <rect stroke-linejoin="round" rx="4" ry="4" height="101" width="101" stroke="url(#f)" stroke-linecap="round" y="-47.498" x="13.5" fill="none"/>
  <rect opacity=".25" style="color:#000000" rx="5" ry="5" height="103" width="103" stroke="#000" y="-48.498" x="12.5" fill="none"/>
  <g font-size="12.666px" font-family="Bitstream Vera Sans" fill="#000000">
   <text opacity=".8" xml:space="preserve" y="-31.007912" x="927.57446"><tspan y="-31.007912" x="927.57446"/></text>
   <text opacity=".8" xml:space="preserve" y="-71.749619" x="951.5354"><tspan y="-71.749619" x="951.5354"/></text>
   <text opacity=".8" xml:space="preserve" y="-101.82776" x="-519.02295"><tspan y="-101.82776" x="-519.02295"/></text>
   <text opacity=".8" xml:space="preserve" y="643.72571" x="-2342.709"><tspan y="643.72571" x="-2342.709"/></text>
   <text opacity=".8" xml:space="preserve" y="-487.14871" x="-404.53186"><tspan y="-487.14871" x="-404.53186"/></text>
   <text opacity=".8" xml:space="preserve" y="-900.61884" x="403.07028"><tspan y="-900.61884" x="403.07028"/></text>
   <text opacity=".8" xml:space="preserve" y="-941.36053" x="427.03122"><tspan y="-941.36053" x="427.03122"/></text>
   <text opacity=".8" xml:space="preserve" y="-948.57043" x="-1064.432"><tspan y="-948.57043" x="-1064.432"/></text>
   <text opacity=".8" xml:space="preserve" y="-1221.8047" x="396.11081"><tspan y="-1221.8047" x="396.11081"/></text>
   <text opacity=".8" xml:space="preserve" y="-595.11322" x="1882.2343"><tspan y="-595.11322" x="1882.2343"/></text>
   <text opacity=".8" xml:space="preserve" y="-635.85498" x="1906.1951"><tspan y="-635.85498" x="1906.1951"/></text>
   <text opacity=".8" xml:space="preserve" y="-643.06488" x="414.73196"><tspan y="-643.06488" x="414.73196"/></text>
   <text opacity=".8" xml:space="preserve" y="-916.29889" x="1875.2748"><tspan y="-916.29889" x="1875.2748"/></text>
   <text opacity=".8" xml:space="preserve" y="-691.15619" x="-523.08435"><tspan y="-691.15619" x="-523.08435"/></text>
   <text opacity=".8" xml:space="preserve" y="54.397346" x="-2346.77"><tspan y="54.397346" x="-2346.77"/></text>
   <text opacity=".8" xml:space="preserve" y="147.26947" x="-632.01459"><tspan y="147.26947" x="-632.01459"/></text>
   <text opacity=".8" xml:space="preserve" y="-31.912661" x="477.00974"><tspan y="-31.912661" x="477.00974"/></text>
   <text opacity=".8" xml:space="preserve" y="-72.654366" x="500.97067"><tspan y="-72.654366" x="500.97067"/></text>
   <text opacity=".8" xml:space="preserve" y="-79.864342" x="-990.49255"><tspan y="-79.864342" x="-990.49255"/></text>
   <text opacity=".8" xml:space="preserve" y="-353.09839" x="470.05026"><tspan y="-353.09839" x="470.05026"/></text>
   <text opacity=".8" xml:space="preserve" y="-82.578583" x="-557.68433"><tspan y="-82.578583" x="-557.68433"/></text>
   <text opacity=".8" xml:space="preserve" y="662.97491" x="-2381.3704"><tspan y="662.97491" x="-2381.3704"/></text>
   <text opacity=".8" xml:space="preserve" y="-944.10907" x="-406.59128"><tspan y="-944.10907" x="-406.59128"/></text>
   <text opacity=".8" xml:space="preserve" y="-1357.5793" x="401.01086"><tspan y="-1357.5793" x="401.01086"/></text>
   <text opacity=".8" xml:space="preserve" y="-1398.321" x="424.97177"><tspan y="-1398.321" x="424.97177"/></text>
   <text opacity=".8" xml:space="preserve" y="-1405.531" x="-1066.4913"><tspan y="-1405.531" x="-1066.4913"/></text>
   <text opacity=".8" xml:space="preserve" y="-1678.7651" x="394.05136"><tspan y="-1678.7651" x="394.05136"/></text>
   <text opacity=".8" xml:space="preserve" y="-1052.0737" x="1880.1747"><tspan y="-1052.0737" x="1880.1747"/></text>
   <text opacity=".8" xml:space="preserve" y="-1092.8154" x="1904.1355"><tspan y="-1092.8154" x="1904.1355"/></text>
   <text opacity=".8" xml:space="preserve" y="-1100.0254" x="412.67252"><tspan y="-1100.0254" x="412.67252"/></text>
   <text opacity=".8" xml:space="preserve" y="-1373.2595" x="1873.2152"><tspan y="-1373.2595" x="1873.2152"/></text>
   <text opacity=".8" xml:space="preserve" y="-1148.1167" x="-525.1438"><tspan y="-1148.1167" x="-525.1438"/></text>
   <text opacity=".8" xml:space="preserve" y="-402.56311" x="-2348.8296"><tspan y="-402.56311" x="-2348.8296"/></text>
   <text opacity=".8" xml:space="preserve" y="-309.69095" x="-634.07404"><tspan y="-309.69095" x="-634.07404"/></text>
   <text opacity=".8" xml:space="preserve" y="-68.776787" x="205.94048"><tspan y="-68.776787" x="205.94048"/></text>
   <text opacity=".8" xml:space="preserve" y="-109.51851" x="229.90141"><tspan y="-109.51851" x="229.90141"/></text>
   <text opacity=".8" xml:space="preserve" y="-303.54712" x="-1039.9153"><tspan y="-303.54712" x="-1039.9153"/></text>
   <text opacity=".8" xml:space="preserve" y="-717.01727" x="-232.31322"><tspan y="-717.01727" x="-232.31322"/></text>
   <text opacity=".8" xml:space="preserve" y="-757.75897" x="-208.35228"><tspan y="-757.75897" x="-208.35228"/></text>
   <text opacity=".8" xml:space="preserve" y="-764.96887" x="-1699.8154"><tspan y="-764.96887" x="-1699.8154"/></text>
   <text opacity=".8" xml:space="preserve" y="-1038.203" x="-239.27266"><tspan y="-1038.203" x="-239.27266"/></text>
   <text opacity=".8" xml:space="preserve" y="-411.51163" x="1246.8507"><tspan y="-411.51163" x="1246.8507"/></text>
   <text opacity=".8" xml:space="preserve" y="-452.25336" x="1270.8115"><tspan y="-452.25336" x="1270.8115"/></text>
   <text opacity=".8" xml:space="preserve" y="-459.46332" x="-220.65154"><tspan y="-459.46332" x="-220.65154"/></text>
   <text opacity=".8" xml:space="preserve" y="-732.69739" x="1239.8912"><tspan y="-732.69739" x="1239.8912"/></text>
   <text opacity=".8" xml:space="preserve" y="-507.5546" x="-1158.4679"><tspan y="-507.5546" x="-1158.4679"/></text>
   <text opacity=".8" xml:space="preserve" y="237.99895" x="-2982.1536"><tspan y="237.99895" x="-2982.1536"/></text>
  </g>
  <g transform="matrix(.90475 0 0 .90475 -666.4 -718.11)">
   <text opacity=".8" xml:space="preserve" font-size="14px" y="1159.4154" x="-664.2738" font-family="Bitstream Vera Sans" fill="#000000"><tspan y="1159.4154" x="-664.2738"/></text>
  </g>
  <g font-size="12.666px" font-family="Bitstream Vera Sans" fill="#000000">
   <text opacity=".8" xml:space="preserve" y="-23.769924" x="927.57446"><tspan y="-23.769924" x="927.57446"/></text>
   <text opacity=".8" xml:space="preserve" y="-64.511627" x="951.5354"><tspan y="-64.511627" x="951.5354"/></text>
   <text opacity=".8" xml:space="preserve" y="-94.589775" x="-519.02295"><tspan y="-94.589775" x="-519.02295"/></text>
   <text opacity=".8" xml:space="preserve" y="650.96368" x="-2342.709"><tspan y="650.96368" x="-2342.709"/></text>
   <text opacity=".8" xml:space="preserve" y="-479.91071" x="-404.53186"><tspan y="-479.91071" x="-404.53186"/></text>
   <text opacity=".8" xml:space="preserve" y="-893.3808" x="403.07028"><tspan y="-893.3808" x="403.07028"/></text>
   <text opacity=".8" xml:space="preserve" y="-934.12256" x="427.03122"><tspan y="-934.12256" x="427.03122"/></text>
   <text opacity=".8" xml:space="preserve" y="-941.33246" x="-1064.432"><tspan y="-941.33246" x="-1064.432"/></text>
   <text opacity=".8" xml:space="preserve" y="-1214.5667" x="396.11081"><tspan y="-1214.5667" x="396.11081"/></text>
   <text opacity=".8" xml:space="preserve" y="-587.87524" x="1882.2343"><tspan y="-587.87524" x="1882.2343"/></text>
   <text opacity=".8" xml:space="preserve" y="-628.617" x="1906.1951"><tspan y="-628.617" x="1906.1951"/></text>
   <text opacity=".8" xml:space="preserve" y="-635.8269" x="414.73196"><tspan y="-635.8269" x="414.73196"/></text>
   <text opacity=".8" xml:space="preserve" y="-909.06085" x="1875.2748"><tspan y="-909.06085" x="1875.2748"/></text>
   <text opacity=".8" xml:space="preserve" y="-683.91821" x="-523.08435"><tspan y="-683.91821" x="-523.08435"/></text>
   <text opacity=".8" xml:space="preserve" y="61.635338" x="-2346.77"><tspan y="61.635338" x="-2346.77"/></text>
   <text opacity=".8" xml:space="preserve" y="154.50746" x="-632.01459"><tspan y="154.50746" x="-632.01459"/></text>
   <text opacity=".8" xml:space="preserve" y="-24.674673" x="477.00974"><tspan y="-24.674673" x="477.00974"/></text>
   <text opacity=".8" xml:space="preserve" y="-65.416374" x="500.97067"><tspan y="-65.416374" x="500.97067"/></text>
   <text opacity=".8" xml:space="preserve" y="-72.62635" x="-990.49255"><tspan y="-72.62635" x="-990.49255"/></text>
   <text opacity=".8" xml:space="preserve" y="-345.86038" x="470.05026"><tspan y="-345.86038" x="470.05026"/></text>
   <text opacity=".8" xml:space="preserve" y="-75.340591" x="-557.68433"><tspan y="-75.340591" x="-557.68433"/></text>
   <text opacity=".8" xml:space="preserve" y="670.21295" x="-2381.3704"><tspan y="670.21295" x="-2381.3704"/></text>
   <text opacity=".8" xml:space="preserve" y="-936.87109" x="-406.59128"><tspan y="-936.87109" x="-406.59128"/></text>
   <text opacity=".8" xml:space="preserve" y="-1350.3413" x="401.01086"><tspan y="-1350.3413" x="401.01086"/></text>
   <text opacity=".8" xml:space="preserve" y="-1391.0831" x="424.97177"><tspan y="-1391.0831" x="424.97177"/></text>
   <text opacity=".8" xml:space="preserve" y="-1398.293" x="-1066.4913"><tspan y="-1398.293" x="-1066.4913"/></text>
   <text opacity=".8" xml:space="preserve" y="-1671.5271" x="394.05136"><tspan y="-1671.5271" x="394.05136"/></text>
   <text opacity=".8" xml:space="preserve" y="-1044.8357" x="1880.1747"><tspan y="-1044.8357" x="1880.1747"/></text>
   <text opacity=".8" xml:space="preserve" y="-1085.5775" x="1904.1355"><tspan y="-1085.5775" x="1904.1355"/></text>
   <text opacity=".8" xml:space="preserve" y="-1092.7874" x="412.67252"><tspan y="-1092.7874" x="412.67252"/></text>
   <text opacity=".8" xml:space="preserve" y="-1366.0215" x="1873.2152"><tspan y="-1366.0215" x="1873.2152"/></text>
   <text opacity=".8" xml:space="preserve" y="-1140.8787" x="-525.1438"><tspan y="-1140.8787" x="-525.1438"/></text>
   <text opacity=".8" xml:space="preserve" y="-395.3251" x="-2348.8296"><tspan y="-395.3251" x="-2348.8296"/></text>
   <text opacity=".8" xml:space="preserve" y="-302.45294" x="-634.07404"><tspan y="-302.45294" x="-634.07404"/></text>
   <text opacity=".8" xml:space="preserve" y="-61.538803" x="205.94048"><tspan y="-61.538803" x="205.94048"/></text>
   <text opacity=".8" xml:space="preserve" y="-102.28053" x="229.90141"><tspan y="-102.28053" x="229.90141"/></text>
   <text opacity=".8" xml:space="preserve" y="-296.30911" x="-1039.9153"><tspan y="-296.30911" x="-1039.9153"/></text>
   <text opacity=".8" xml:space="preserve" y="-709.7793" x="-232.31322"><tspan y="-709.7793" x="-232.31322"/></text>
   <text opacity=".8" xml:space="preserve" y="-750.521" x="-208.35228"><tspan y="-750.521" x="-208.35228"/></text>
   <text opacity=".8" xml:space="preserve" y="-757.73096" x="-1699.8154"><tspan y="-757.73096" x="-1699.8154"/></text>
   <text opacity=".8" xml:space="preserve" y="-1030.965" x="-239.27266"><tspan y="-1030.965" x="-239.27266"/></text>
   <text opacity=".8" xml:space="preserve" y="-404.27365" x="1246.8507"><tspan y="-404.27365" x="1246.8507"/></text>
   <text opacity=".8" xml:space="preserve" y="-445.01538" x="1270.8115"><tspan y="-445.01538" x="1270.8115"/></text>
   <text opacity=".8" xml:space="preserve" y="-452.22531" x="-220.65154"><tspan y="-452.22531" x="-220.65154"/></text>
   <text opacity=".8" xml:space="preserve" y="-725.45941" x="1239.8912"><tspan y="-725.45941" x="1239.8912"/></text>
   <text opacity=".8" xml:space="preserve" y="-500.31659" x="-1158.4679"><tspan y="-500.31659" x="-1158.4679"/></text>
   <text opacity=".8" xml:space="preserve" y="245.23692" x="-2982.1536"><tspan y="245.23692" x="-2982.1536"/></text>
  </g>
  <g transform="matrix(.90475 0 0 .90475 -666.4 -710.87)">
   <text opacity=".8" xml:space="preserve" font-size="14px" y="1159.4154" x="-664.2738" font-family="Bitstream Vera Sans" fill="#000000"><tspan y="1159.4154" x="-664.2738"/></text>
  </g>
  <g font-size="12.666px" fill="#000000">
   <text xml:space="preserve" y="-403.04596" x="486.25247" font-family="Droid Sans"><tspan y="-403.04596" x="486.25247"/><tspan y="-387.21289" x="486.25247"/></text>
   <g font-family="Bitstream Vera Sans">
    <text opacity=".8" xml:space="preserve" y="-885.09052" x="951.4364"><tspan y="-885.09052" x="951.4364"/></text>
    <text opacity=".8" xml:space="preserve" y="-139.53706" x="-872.24957"><tspan y="-139.53706" x="-872.24957"/></text>
    <text opacity=".8" xml:space="preserve" y="-1170.0864" x="1678.5159"><tspan y="-1170.0864" x="1678.5159"/></text>
    <text opacity=".8" xml:space="preserve" y="-1210.8281" x="1702.4767"><tspan y="-1210.8281" x="1702.4767"/></text>
    <text opacity=".8" xml:space="preserve" y="-1218.0381" x="211.0136"><tspan y="-1218.0381" x="211.0136"/></text>
    <text opacity=".8" xml:space="preserve" y="-1491.2722" x="1671.5564"><tspan y="-1491.2722" x="1671.5564"/></text>
   </g>
  </g>
  <path opacity=".2" d="m83-28-29.666 26.666-16.334-12.666l-5 2v32l5 2 16.334-12.666 29.666 26.666 13-6v-51zm-3 19v26l-16-13zm-43 5 8 8-8 8z" fill-rule="evenodd" fill="#fff"/>
  <path d="m83-29-29.666 26.666-16.334-12.666l-5 2v32l5 2 16.334-12.666 29.666 26.666 13-6v-51zm-3 19v26l-16-13zm-43 5 8 8-8 8z" fill-rule="evenodd" fill="url(#i)"/>
  <path stroke-linejoin="round" opacity=".15" d="m83 35l-29.666 26.666-16.334-12.666-5 2v1l5-2 16.334 12.666 29.666-26.666 13 7v-1l-13-7zm-38.5 32.5l-7.5 7.5v1l8-8-0.5-0.5zm20.115 0l-0.615 0.5 16 13v-1l-15.385-12.5z" clip-path="url(#j)" transform="translate(0,-64)" stroke="#002d4a" stroke-linecap="round" stroke-width="2" fill="none"/>
  <path opacity=".3" d="m83-29-29.666 26.666-16.334-12.666l-5 2v1l5-2 16.334 12.666 29.666-26.666 13 7v-1l-13-7zm-38.5 32.5-7.5 7.5v1l8-8-0.5-0.5zm20.115 0-0.615 0.5 16 13v-1l-15.385-12.5z" fill-rule="evenodd" fill="#002d4a"/>
 </g>
</svg>
