<?xml version="1.0" encoding="UTF-8" standalone="no"?>
<!-- Created with Inkscape (http://www.inkscape.org/) -->

<svg
   xmlns:dc="http://purl.org/dc/elements/1.1/"
   xmlns:cc="http://creativecommons.org/ns#"
   xmlns:rdf="http://www.w3.org/1999/02/22-rdf-syntax-ns#"
   xmlns:svg="http://www.w3.org/2000/svg"
   xmlns="http://www.w3.org/2000/svg"
   xmlns:xlink="http://www.w3.org/1999/xlink"
   xmlns:sodipodi="http://sodipodi.sourceforge.net/DTD/sodipodi-0.dtd"
   xmlns:inkscape="http://www.inkscape.org/namespaces/inkscape"
   version="1.1"
   width="128"
   height="128"
   id="svg3489"
   inkscape:version="0.91 r13725"
   sodipodi:docname="csgo.svg">
  <sodipodi:namedview
     pagecolor="#ffffff"
     bordercolor="#666666"
     borderopacity="1"
     objecttolerance="10"
     gridtolerance="10"
     guidetolerance="10"
     inkscape:pageopacity="0"
     inkscape:pageshadow="2"
     inkscape:window-width="1366"
     inkscape:window-height="745"
     id="namedview154"
     showgrid="true"
     inkscape:zoom="2.8284271"
     inkscape:cx="-7.677279"
     inkscape:cy="25.506704"
     inkscape:window-x="1672"
     inkscape:window-y="274"
     inkscape:window-maximized="1"
     inkscape:current-layer="svg3489" />
  <defs
     id="defs3491">
    <linearGradient
       id="linearGradient6455-7">
      <stop
         id="stop6457-5"
         style="stop-color:#fbac9b;stop-opacity:1"
         offset="0" />
      <stop
         id="stop6459-8"
         style="stop-color:#fcfafc;stop-opacity:1"
         offset="1" />
    </linearGradient>
    <linearGradient
       id="linearGradient6413-0">
      <stop
         id="stop6415-1"
         style="stop-color:#feffff;stop-opacity:1"
         offset="0" />
      <stop
         id="stop6417-4"
         style="stop-color:#fe70ca;stop-opacity:1"
         offset="1" />
    </linearGradient>
    <linearGradient
       id="linearGradient6303-33-0">
      <stop
         id="stop6305-1-0"
         style="stop-color:#ffffff;stop-opacity:1"
         offset="0" />
      <stop
         id="stop6307-5-0"
         style="stop-color:#ffffff;stop-opacity:0"
         offset="1" />
    </linearGradient>
    <linearGradient
       id="linearGradient6303-3-2">
      <stop
         id="stop6305-3-0"
         style="stop-color:#ffffff;stop-opacity:1"
         offset="0" />
      <stop
         id="stop6307-1-0"
         style="stop-color:#ffffff;stop-opacity:0"
         offset="1" />
    </linearGradient>
    <linearGradient
       id="linearGradient6303-4">
      <stop
         id="stop6305-33"
         style="stop-color:#ffffff;stop-opacity:1"
         offset="0" />
      <stop
         id="stop6307-9"
         style="stop-color:#ffffff;stop-opacity:0"
         offset="1" />
    </linearGradient>
    <linearGradient
       id="linearGradient6088-6-1">
      <stop
         id="stop6090-2-0"
         style="stop-color:#ff54d2;stop-opacity:0"
         offset="0" />
      <stop
         id="stop6257-4-6"
         style="stop-color:#ff54d2;stop-opacity:0"
         offset="0.32368398" />
      <stop
         id="stop6255-3-6"
         style="stop-color:#ff54d2;stop-opacity:0.2521739"
         offset="0.56140333" />
      <stop
         id="stop6092-9-6"
         style="stop-color:#ff54d2;stop-opacity:0.47826087"
         offset="1" />
    </linearGradient>
    <linearGradient
       id="linearGradient6191-8-3">
      <stop
         id="stop6193-75-7"
         style="stop-color:#ffffff;stop-opacity:0"
         offset="0" />
      <stop
         id="stop6197-3-4"
         style="stop-color:#ffffff;stop-opacity:0"
         offset="0.40531859" />
      <stop
         id="stop6195-7-2"
         style="stop-color:#ffffff;stop-opacity:0.47826087"
         offset="1" />
    </linearGradient>
    <linearGradient
       id="linearGradient6191-7-9">
      <stop
         id="stop6193-7-3"
         style="stop-color:#ffffff;stop-opacity:0"
         offset="0" />
      <stop
         id="stop6197-2-2"
         style="stop-color:#ffffff;stop-opacity:0"
         offset="0.40531859" />
      <stop
         id="stop6195-2-1"
         style="stop-color:#ffffff;stop-opacity:0.47826087"
         offset="1" />
    </linearGradient>
    <linearGradient
       id="linearGradient6191-9">
      <stop
         id="stop6193-8"
         style="stop-color:#ffffff;stop-opacity:0"
         offset="0" />
      <stop
         id="stop6197-8"
         style="stop-color:#ffffff;stop-opacity:0"
         offset="0.40531859" />
      <stop
         id="stop6195-9"
         style="stop-color:#ffffff;stop-opacity:0.47826087"
         offset="1" />
    </linearGradient>
    <linearGradient
       id="linearGradient3990-3-1">
      <stop
         id="stop3992-0-0"
         style="stop-color:#ffffff;stop-opacity:1"
         offset="0" />
      <stop
         id="stop3994-2-1"
         style="stop-color:#ffffff;stop-opacity:0"
         offset="1" />
    </linearGradient>
    <linearGradient
       id="linearGradient6088-74">
      <stop
         id="stop6090-5"
         style="stop-color:#ff54d2;stop-opacity:0"
         offset="0" />
      <stop
         id="stop6257-5"
         style="stop-color:#f62b68;stop-opacity:1"
         offset="0.32368398" />
      <stop
         id="stop6255-6"
         style="stop-color:#ff0105;stop-opacity:1"
         offset="0.56140333" />
      <stop
         id="stop6092-0"
         style="stop-color:#ff54d2;stop-opacity:0.47826087"
         offset="1" />
    </linearGradient>
    <linearGradient
       id="linearGradient4220-7">
      <stop
         id="stop4222-7"
         style="stop-color:#7a8498;stop-opacity:1"
         offset="0" />
      <stop
         id="stop4224-0"
         style="stop-color:#34405c;stop-opacity:1"
         offset="1" />
    </linearGradient>
    <linearGradient
       id="linearGradient4164">
      <stop
         id="stop4166"
         style="stop-color:#525252;stop-opacity:1;"
         offset="0" />
      <stop
         id="stop4216"
         style="stop-color:#404040;stop-opacity:1;"
         offset="0.33095336" />
      <stop
         id="stop4168"
         style="stop-color:#616161;stop-opacity:1;"
         offset="1" />
    </linearGradient>
    <linearGradient
       id="linearGradient4806">
      <stop
         id="stop4808"
         style="stop-color:#ffffff;stop-opacity:1"
         offset="0" />
      <stop
         id="stop4810"
         style="stop-color:#ffffff;stop-opacity:0.23529412"
         offset="0.42447853" />
      <stop
         id="stop4812"
         style="stop-color:#ffffff;stop-opacity:0.15686275"
         offset="0.82089913" />
      <stop
         id="stop4814"
         style="stop-color:#ffffff;stop-opacity:0.39215687"
         offset="1" />
    </linearGradient>
    <radialGradient
       cx="23.896"
       cy="3.99"
       r="20.396999"
       id="radialGradient3093-0-3-6"
       gradientUnits="userSpaceOnUse"
       gradientTransform="matrix(0,1.2316483,-1.625754,0,18.486966,-28.721977)">
      <stop
         id="stop3244-9-33-7-0"
         style="stop-color:#696969;stop-opacity:1;"
         offset="0" />
      <stop
         id="stop3246-3-5-0-8"
         style="stop-color:#515151;stop-opacity:1;"
         offset="0.26238" />
      <stop
         id="stop3248-1-7-8-8"
         style="stop-color:#3e3f40;stop-opacity:1;"
         offset="0.66093999" />
      <stop
         id="stop3250-9-3-0-5"
         style="stop-color:#262626;stop-opacity:1;"
         offset="1" />
    </radialGradient>
    <linearGradient
       id="linearGradient3820-7-2">
      <stop
         id="stop3822-2-6"
         style="stop-color:#3d3d3d;stop-opacity:1"
         offset="0" />
      <stop
         id="stop3864-8-7"
         style="stop-color:#686868;stop-opacity:0.49803922"
         offset="0.5" />
      <stop
         id="stop3824-1-2"
         style="stop-color:#686868;stop-opacity:0"
         offset="1" />
    </linearGradient>
    <radialGradient
       inkscape:collect="always"
       xlink:href="#linearGradient3820-7-2"
       id="radialGradient4069"
       gradientUnits="userSpaceOnUse"
       gradientTransform="matrix(0.76470724,0,0,0.23897108,-9.2373581,72.801202)"
       cx="99.157013"
       cy="186.17059"
       fx="99.157013"
       fy="186.17059"
       r="62.769119" />
    <radialGradient
       inkscape:collect="always"
       xlink:href="#radialGradient3093-0-3-6"
       id="radialGradient4071"
       gradientUnits="userSpaceOnUse"
       gradientTransform="matrix(0,8.313307,-10.973418,0,110.37377,-190.58851)"
       cx="23.896"
       cy="3.99"
       fx="23.896"
       fy="3.99"
       r="20.396999" />
    <linearGradient
       inkscape:collect="always"
       xlink:href="#linearGradient4806"
       id="linearGradient4073"
       gradientUnits="userSpaceOnUse"
       gradientTransform="matrix(4.6537492,0,0,4.6537492,-269.30077,-61.394986)"
       x1="71.204407"
       y1="15.369057"
       x2="71.204407"
       y2="40.495617" />
    <linearGradient
       inkscape:collect="always"
       xlink:href="#linearGradient4164"
       id="linearGradient4075"
       gradientUnits="userSpaceOnUse"
       gradientTransform="matrix(2.2161016,0,0,2.2161016,-47.128942,-2.6246739)"
       x1="51.199997"
       y1="8.1142893"
       x2="51.199997"
       y2="56.114563" />
    <linearGradient
       inkscape:collect="always"
       xlink:href="#linearGradient4220-7"
       id="linearGradient4077"
       gradientUnits="userSpaceOnUse"
       gradientTransform="matrix(2.9840006,0,0,3.0176742,-208.19509,-30.599834)"
       x1="91.566116"
       y1="16.542858"
       x2="91.566116"
       y2="48.631081" />
    <radialGradient
       inkscape:collect="always"
       xlink:href="#linearGradient6303-4"
       id="radialGradient4079"
       gradientUnits="userSpaceOnUse"
       gradientTransform="matrix(6.1257098,-3.5366804,2.0122492,3.485318,-223.54845,76.486218)"
       cx="36.49107"
       cy="39.708927"
       fx="36.49107"
       fy="39.708927"
       r="3.1589286" />
    <radialGradient
       inkscape:collect="always"
       xlink:href="#linearGradient6088-74"
       id="radialGradient4081"
       gradientUnits="userSpaceOnUse"
       gradientTransform="matrix(-2.7700448,0,0,-2.7700448,121.68643,119.0064)"
       cx="32.372566"
       cy="31.405056"
       fx="32.372566"
       fy="31.405056"
       r="3.857446" />
    <linearGradient
       inkscape:collect="always"
       xlink:href="#linearGradient3990-3-1"
       id="linearGradient4083"
       gradientUnits="userSpaceOnUse"
       gradientTransform="matrix(0.21434552,0,0,0.16075913,17.657199,19.818614)"
       x1="68.313301"
       y1="52.925316"
       x2="68.313301"
       y2="65.922028" />
    <radialGradient
       inkscape:collect="always"
       xlink:href="#linearGradient6191-9"
       id="radialGradient4085"
       gradientUnits="userSpaceOnUse"
       gradientTransform="matrix(2.771591,0.74264558,-0.71694036,2.6756578,-35.220936,-76.083481)"
       cx="32.372566"
       cy="31.405056"
       fx="32.372566"
       fy="31.405056"
       r="3.857446" />
    <radialGradient
       inkscape:collect="always"
       xlink:href="#linearGradient6191-7-9"
       id="radialGradient4087"
       gradientUnits="userSpaceOnUse"
       gradientTransform="matrix(0,2.8693622,-2.7700448,-1.6189579e-8,119.00258,-60.904487)"
       cx="32.372566"
       cy="31.405056"
       fx="32.372566"
       fy="31.405056"
       r="3.857446" />
    <radialGradient
       inkscape:collect="always"
       xlink:href="#linearGradient6191-8-3"
       id="radialGradient4089"
       gradientUnits="userSpaceOnUse"
       gradientTransform="matrix(1.6767991,2.3284296,-2.2478354,1.6187598,48.30927,-94.232721)"
       cx="32.372566"
       cy="31.405056"
       fx="32.372566"
       fy="31.405056"
       r="3.857446" />
    <radialGradient
       inkscape:collect="always"
       xlink:href="#linearGradient6088-6-1"
       id="radialGradient4091"
       gradientUnits="userSpaceOnUse"
       gradientTransform="matrix(-1.9587175,-1.9587175,1.9587175,-1.9587175,33.895076,154.35534)"
       cx="32.372566"
       cy="31.405056"
       fx="32.372566"
       fy="31.405056"
       r="3.857446" />
    <radialGradient
       inkscape:collect="always"
       xlink:href="#linearGradient6303-3-2"
       id="radialGradient4093"
       gradientUnits="userSpaceOnUse"
       gradientTransform="matrix(2.4646575,-1.4229707,0.80962127,1.4023051,-98.644282,18.704686)"
       cx="36.49107"
       cy="39.708927"
       fx="36.49107"
       fy="39.708927"
       r="3.1589286" />
    <radialGradient
       inkscape:collect="always"
       xlink:href="#linearGradient6303-33-0"
       id="radialGradient4095"
       gradientUnits="userSpaceOnUse"
       gradientTransform="matrix(0.70306812,0,0,0.73549201,5.5444757,1.629107)"
       cx="36.49107"
       cy="39.708927"
       fx="36.49107"
       fy="39.708927"
       r="3.1589286" />
    <linearGradient
       inkscape:collect="always"
       xlink:href="#linearGradient6413-0"
       id="linearGradient4097"
       gradientUnits="userSpaceOnUse"
       gradientTransform="matrix(0.70306812,0,0,0.73549201,-0.35360241,-1.9407823)"
       x1="38.851257"
       y1="41.608219"
       x2="34.130882"
       y2="37.809635" />
    <linearGradient
       inkscape:collect="always"
       xlink:href="#linearGradient6455-7"
       id="linearGradient4099"
       gradientUnits="userSpaceOnUse"
       gradientTransform="matrix(0.49170995,0,0,0.51438647,8.6202285,8.1583882)"
       x1="38.851257"
       y1="41.608219"
       x2="34.130882"
       y2="37.809635" />
  </defs>
  <metadata
     id="metadata3494">
    <rdf:RDF>
      <cc:Work
         rdf:about="">
        <dc:format>image/svg+xml</dc:format>
        <dc:type
           rdf:resource="http://purl.org/dc/dcmitype/StillImage" />
        <dc:title />
      </cc:Work>
    </rdf:RDF>
  </metadata>
  <g
     id="g4044"
     transform="translate(-2.58873,-5.767181)">
    <path
       id="path3818-0"
       d="m 36.65123,105.54058 a 48,15 0 0 0 -18.0625,11.75 48,15 0 1 0 96,0 48,15 0 0 0 -18.0625,-11.6875 47.82927,47.82927 0 0 1 -59.8125,-0.0625 47.82927,47.82927 0 0 1 -0.0625,0 z"
       style="fill:url(#radialGradient4069);fill-opacity:1;stroke:none"
       inkscape:connector-curvature="0" />
    <path
       id="path2555-7"
       d="m 66.59375,9.28125 c -32.554164,0 -59,26.445834 -59,59 0,32.55417 26.445836,59.00001 59,59 32.55416,0 59.00002,-26.44583 59,-59 0,-32.554166 -26.44584,-59 -59,-59 z M 68,19.34375 a 47.829271,48.369011 0 0 1 46.375,46.9375 47.829271,48.369011 0 0 1 0.0312,1.40625 47.82927,47.82927 0 0 1 0,0.15625 47.82927,47.82927 0 0 1 0,0.4375 47.82927,47.82927 0 0 1 -0.0625,0.8125 A 47.829271,48.369011 0 0 1 19.0625,72.625 47.82927,47.82927 0 0 1 19.03125,72.25 47.829271,48.369011 0 0 1 18.78125,68.28125 47.829271,48.369011 0 0 1 18.75,67.6875 47.829271,48.369011 0 0 1 68,19.34375 z"
       style="color:#000000;fill:url(#radialGradient4071);fill-opacity:1;fill-rule:nonzero;stroke:none;stroke-width:0.5;marker:none;visibility:visible;display:inline;overflow:visible;enable-background:accumulate"
       inkscape:connector-curvature="0" />
    <path
       d="m 66.58873,9.2905781 c -32.554164,0 -59.0000001,26.4458299 -59.0000001,58.9999959 0,32.554166 26.4458361,59.000006 59.0000001,58.999996 32.55416,0 59.00002,-26.44583 59,-58.999996 0,-32.554166 -26.44584,-58.9999959 -59,-58.9999959 z"
       id="path2555-7-1"
       style="opacity:0.3;color:#000000;fill:none;stroke:#000000;stroke-width:1;stroke-linecap:round;stroke-linejoin:round;stroke-miterlimit:4;stroke-opacity:1;stroke-dasharray:none;stroke-dashoffset:0;marker:none;visibility:visible;display:inline;overflow:visible;enable-background:accumulate"
       inkscape:connector-curvature="0" />
    <path
       d="m 124.5718,68.290578 c 0,32.439662 -26.50285,57.991522 -57.98309,57.991522 -32.391048,0 -57.9915075,-26.511292 -57.9915075,-57.991522 0,-32.48696 26.5113095,-58.004967 57.9915075,-58.004967 32.46329,0 57.98309,26.524735 57.98309,58.004967 z"
       id="path3019"
       style="opacity:0.3;color:#000000;fill:none;stroke:url(#linearGradient4073);stroke-width:1;stroke-linecap:round;stroke-linejoin:round;stroke-miterlimit:4;stroke-opacity:1;stroke-dasharray:none;stroke-dashoffset:0;marker:none;visibility:visible;display:inline;overflow:visible;enable-background:accumulate"
       inkscape:connector-curvature="0"
       sodipodi:nodetypes="sssss" />
    <path
       id="path2555-36-4"
       d="m 66.58873,15.10308 c -29.347788,0 -53.1875,23.842246 -53.1875,53.1875 0,29.347758 23.84224,53.1875 53.1875,53.1875 29.347756,0 53.1875,-23.842246 53.1875,-53.1875 0,-29.347784 -23.842248,-53.1875 -53.1875,-53.1875 z m 1.375,5.375 a 47.82927,47.82927 0 0 1 46.4375,47.8125 47.82927,47.82927 0 0 1 -95.625,0 47.82927,47.82927 0 0 1 49.1875,-47.8125 z"
       style="color:#000000;fill:url(#linearGradient4075);fill-opacity:1;fill-rule:nonzero;stroke:none;stroke-width:0.5;marker:none;visibility:visible;display:inline;overflow:visible;enable-background:accumulate"
       inkscape:connector-curvature="0" />
    <path
       id="path2555-36-4-2"
       d="m 66.59375,15.0625 c -29.271974,0 -53.0625,24.298874 -53.0625,54.21875 0,29.922434 23.793046,54.25 53.0625,54.25 29.271942,0 53.03125,-24.330118 53.03125,-54.25 0,-29.922454 -23.761804,-54.21875 -53.03125,-54.21875 z M 68,19.34375 A 47.829271,48.369011 0 0 1 114.40625,67.6875 47.829271,48.369011 0 0 1 18.75,67.6875 47.829271,48.369011 0 0 1 68,19.34375 z"
       style="opacity:0.2;color:#000000;fill:none;stroke:#000000;stroke-width:1;stroke-miterlimit:4;stroke-opacity:1;stroke-dasharray:none;marker:none;visibility:visible;display:inline;overflow:visible;enable-background:accumulate"
       inkscape:connector-curvature="0" />
    <path
       d="m 114.418,67.69013 a 47.829271,48.369011 0 0 1 -95.658542,0 47.829271,48.369011 0 1 1 95.658542,0 z"
       id="path4218"
       style="opacity:0.3;color:#000000;fill:url(#linearGradient4077);fill-opacity:1;fill-rule:nonzero;stroke:none;stroke-width:0.5;marker:none;visibility:visible;display:inline;overflow:visible;enable-background:accumulate"
       inkscape:connector-curvature="0" />
    <path
       id="rect4131"
       d="m 67.96373,19.35308 a 47.82927,48.36901 0 0 0 -5.5,0.1875 l 0,10.6875 3.0625,0 0,18.3125 c -9.735088,0.541152 -17.521348,8.327412 -18.0625,18.0625 l -18.375,0 0,-3.0625 -10.125,0 a 47.82927,48.36901 0 0 0 -0.1875,4.125 47.82927,48.36901 0 0 0 0.1875,4.125 l 10.125,0 0,-3.0625 18.375,0 c 0.525106,9.750222 8.316882,17.5201 18.0625,18.0625 l 0,18.375 -3.0625,0 0,10.6875 a 47.82927,48.36901 0 0 0 8.25,0 l 0,-10.6875 -3.0625,0 0,-18.375 c 9.745618,-0.5424 17.537394,-8.312278 18.0625,-18.0625 l 18.375,0 0,3.0625 10.125,0 a 47.82927,48.36901 0 0 0 0.1875,-4.125 47.82927,48.36901 0 0 0 -0.1875,-4.125 l -10.125,0 0,3.0625 -18.375,0 C 85.172578,56.867992 77.386318,49.081732 67.65123,48.54058 l 0,-18.3125 3.0625,0 0,-10.6875 a 47.82927,48.36901 0 0 0 -2.75,-0.1875 z m -2.4375,31.25 0,16 -16,0 c 0.529324,-8.618572 7.381182,-15.471572 16,-16 z m 2.125,0 c 8.618818,0.528428 15.470676,7.381428 16,16 l -16,0 0,-16 z m -18.125,18.125 16,0 0,16.0625 c -8.617964,-0.533508 -15.470712,-7.440316 -16,-16.0625 z m 18.125,0 16,0 c -0.529288,8.622184 -7.382036,15.528992 -16,16.0625 l 0,-16.0625 z"
       style="opacity:0.8;fill:#ff2a2a;fill-opacity:1;stroke:none"
       inkscape:connector-curvature="0" />
    <path
       d="M 99.240182,74.655082 A 12.713111,22.344241 59.999998 0 1 60.538822,96.999324 12.713111,22.344241 59.999998 1 1 99.240182,74.655082 z"
       id="path6301"
       style="opacity:0.2;color:#000000;fill:url(#radialGradient4079);fill-opacity:1;fill-rule:nonzero;stroke:none;stroke-width:0.5;marker:none;visibility:visible;display:inline;overflow:visible;enable-background:accumulate"
       inkscape:connector-curvature="0" />
    <g
       style="opacity:0.3;stroke-width:0.38233411;stroke-miterlimit:4;stroke-dasharray:none"
       transform="matrix(2.6155134,0,0,2.6155134,-16.66862,-13.32727)"
       id="g4107">
      <path
         inkscape:connector-curvature="0"
         style="opacity:0.4;color:#000000;fill:url(#radialGradient4081);fill-opacity:1;fill-rule:nonzero;stroke:none;stroke-width:0.38233411;marker:none;visibility:visible;display:inline;overflow:visible;enable-background:accumulate"
         id="path6086"
         d="m 21.848235,30.028318 a 10.341464,10.341464 0 0 1 7.475194,-8.017389 l 2.676569,9.989087 z" />
      <path
         inkscape:connector-curvature="0"
         style="opacity:0.5;color:#000000;fill:url(#linearGradient4083);fill-opacity:1;stroke:none;stroke-width:0.38233411;marker:none;visibility:visible;display:inline;overflow:visible;enable-background:accumulate"
         id="path3220"
         d="m 34.44877,30.16342 a 2.4487707,1.8365779 0 0 1 -4.897541,0 2.4487707,1.8365779 0 1 1 4.897541,0 z" />
      <path
         inkscape:connector-curvature="0"
         style="opacity:0.4;color:#000000;fill:url(#radialGradient4085);fill-opacity:1;fill-rule:nonzero;stroke:none;stroke-width:0.38233411;marker:none;visibility:visible;display:inline;overflow:visible;enable-background:accumulate"
         id="path6086-1"
         d="m 42.34146,32.000016 a 10.341464,10.341464 0 0 1 -0.652964,3.616468 l -9.688499,-3.616468 z" />
      <path
         inkscape:connector-curvature="0"
         style="opacity:0.4;color:#000000;fill:url(#radialGradient4087);fill-opacity:1;fill-rule:nonzero;stroke:none;stroke-width:0.38233411;marker:none;visibility:visible;display:inline;overflow:visible;enable-background:accumulate"
         id="path6086-1-5"
         d="M 32.929542,42.29962 A 10.341464,10.341464 0 0 1 29.623743,42.06477 L 31.999998,32.000016 z" />
      <path
         inkscape:connector-curvature="0"
         style="opacity:0.4;color:#000000;fill:url(#radialGradient4089);fill-opacity:1;fill-rule:nonzero;stroke:none;stroke-width:0.38233411;marker:none;visibility:visible;display:inline;overflow:visible;enable-background:accumulate"
         id="path6086-1-50"
         d="m 40.78322,37.459037 a 10.341464,10.341464 0 0 1 -4.82986,4.096961 l -3.953362,-9.555982 z" />
      <path
         inkscape:connector-curvature="0"
         style="opacity:0.5;color:#000000;fill:url(#radialGradient4091);fill-opacity:1;fill-rule:nonzero;stroke:none;stroke-width:0.38233411;marker:none;visibility:visible;display:inline;overflow:visible;enable-background:accumulate"
         id="path6086-3"
         d="m 24.687478,22.102131 a 10.341464,10.341464 0 0 1 14.625038,0 l -7.312518,7.31252 z" />
      <path
         inkscape:connector-curvature="0"
         style="opacity:0.4;color:#000000;fill:url(#radialGradient4093);fill-opacity:1;fill-rule:nonzero;stroke:none;stroke-width:0.38233411;marker:none;visibility:visible;display:inline;overflow:visible;enable-background:accumulate"
         id="path6301-5"
         d="M 31.228576,17.967932 A 5.1150714,8.9901257 59.999999 1 1 15.657222,26.958057 5.1150714,8.9901257 59.999999 1 1 31.228576,17.967932 z" />
      <path
         inkscape:connector-curvature="0"
         style="opacity:0.8;color:#000000;fill:url(#radialGradient4095);fill-opacity:1;fill-rule:nonzero;stroke:none;stroke-width:0.38233411;marker:none;visibility:visible;display:inline;overflow:visible;enable-background:accumulate"
         id="path6301-1"
         d="m 33.421126,30.834705 a 2.220942,2.3233669 0 1 1 -4.441884,0 2.220942,2.3233669 0 1 1 4.441884,0 z" />
      <path
         inkscape:connector-curvature="0"
         style="opacity:0.4;color:#000000;fill:url(#linearGradient4097);fill-opacity:1;fill-rule:nonzero;stroke:none;stroke-width:0.38233411;marker:none;visibility:visible;display:inline;overflow:visible;enable-background:accumulate"
         id="path6301-1-8"
         d="m 27.523048,27.264817 a 2.2209425,2.3233674 0 1 1 -4.441885,0 2.2209425,2.3233674 0 1 1 4.441885,0 z" />
      <path
         inkscape:connector-curvature="0"
         style="opacity:0.4;color:#000000;fill:url(#linearGradient4099);fill-opacity:1;fill-rule:nonzero;stroke:none;stroke-width:0.38233411;marker:none;visibility:visible;display:inline;overflow:visible;enable-background:accumulate"
         id="path6301-1-8-2"
         d="m 28.116526,28.584124 a 1.5532767,1.6249102 0 1 1 -3.106552,0 1.5532767,1.6249102 0 1 1 3.106552,0 z" />
    </g>
    <path
       inkscape:connector-curvature="0"
       style="opacity:0.3;color:#000000;fill:none;stroke:#000000;stroke-width:1;stroke-miterlimit:4;stroke-opacity:1;stroke-dasharray:none;marker:none;visibility:visible;display:inline;overflow:visible;enable-background:accumulate"
       id="path3909"
       d="m 114.418,67.69013 a 47.829271,48.369011 0 0 1 -95.658542,0 47.829271,48.369011 0 1 1 95.658542,0 z" />
    <path
       transform="translate(-11.038392,19.079962)"
       d="M 124.49424,48.610168 A 46.867115,46.867115 0 0 1 77.627121,95.477283 46.867115,46.867115 0 0 1 30.760006,48.610168 46.867115,46.867115 0 0 1 77.627121,1.7430534 46.867115,46.867115 0 0 1 124.49424,48.610168 Z"
       sodipodi:ry="46.867115"
       sodipodi:rx="46.867115"
       sodipodi:cy="48.610168"
       sodipodi:cx="77.627121"
       id="path4040"
       style="opacity:0.3;fill:none;stroke:#ffffff;stroke-width:1;stroke-miterlimit:4;stroke-opacity:1;stroke-dasharray:none"
       sodipodi:type="arc" />
  </g>
</svg>
