<?xml version="1.0" encoding="UTF-8" standalone="no"?>
<svg xmlns:rdf="http://www.w3.org/1999/02/22-rdf-syntax-ns#" xmlns="http://www.w3.org/2000/svg" height="128" width="128" version="1.1" xmlns:cc="http://creativecommons.org/ns#" xmlns:xlink="http://www.w3.org/1999/xlink" xmlns:dc="http://purl.org/dc/elements/1.1/">
 <defs>
  <linearGradient id="y" y2="29.866" gradientUnits="userSpaceOnUse" x2="156.09" y1="24.324" x1="156.09">
   <stop stop-color="#fff" offset="0"/>
   <stop stop-color="#fff" stop-opacity="0" offset="1"/>
  </linearGradient>
  <linearGradient id="j" y2="49.248" xlink:href="#a" gradientUnits="userSpaceOnUse" x2="68.524" gradientTransform="matrix(-.86603 0.5 -0.5 -.86603 362.73 372.26)" y1="72.81" x1="68.524"/>
  <linearGradient id="a">
   <stop offset="0"/>
   <stop stop-opacity="0" offset=".12975"/>
   <stop stop-opacity="0" offset=".87547"/>
   <stop offset="1"/>
  </linearGradient>
  <linearGradient id="i" y2="49.248" xlink:href="#a" gradientUnits="userSpaceOnUse" x2="68.524" gradientTransform="matrix(-.96593 .25882 -.25882 -.96593 354.9 394.87)" y1="72.81" x1="68.524"/>
  <linearGradient id="l" y2="49.248" xlink:href="#a" gradientUnits="userSpaceOnUse" x2="68.524" gradientTransform="matrix(-.5 .86603 -.86603 -.5 359.93 324.9)" y1="72.81" x1="68.524"/>
  <linearGradient id="k" y2="49.248" xlink:href="#a" gradientUnits="userSpaceOnUse" x2="68.524" gradientTransform="matrix(-.70711 .70711 -.70711 -.70711 364.45 348.4)" y1="72.81" x1="68.524"/>
  <linearGradient id="m" y2="49.248" xlink:href="#a" gradientUnits="userSpaceOnUse" x2="68.524" gradientTransform="matrix(.96593 .25882 -.25882 .96593 222.52 277.27)" y1="72.81" x1="68.524"/>
  <linearGradient id="n" y2="49.248" xlink:href="#a" gradientUnits="userSpaceOnUse" x2="68.524" gradientTransform="matrix(.86603 .5 -.5 .86603 244.05 266.83)" y1="72.81" x1="68.524"/>
  <linearGradient id="o" y2="49.248" xlink:href="#a" gradientUnits="userSpaceOnUse" x2="68.524" gradientTransform="matrix(.70711 .70711 -.70711 .70711 267.54 262.31)" y1="72.81" x1="68.524"/>
  <linearGradient id="r" y2="49.248" xlink:href="#a" gradientUnits="userSpaceOnUse" x2="68.524" gradientTransform="matrix(.25882 .96593 -.96593 .25882 314.02 271.86)" y1="72.81" x1="68.524"/>
  <linearGradient id="p" y2="49.248" xlink:href="#a" gradientUnits="userSpaceOnUse" x2="68.524" gradientTransform="matrix(0.5 .86603 -.86603 0.5 291.41 264.03)" y1="72.81" x1="68.524"/>
  <linearGradient id="q" y2="49.248" xlink:href="#a" gradientUnits="userSpaceOnUse" x2="68.524" gradientTransform="matrix(-.25882 .96593 -.96593 -.25882 349.49 303.37)" y1="72.81" x1="68.524"/>
  <linearGradient id="s" y2="49.248" xlink:href="#a" gradientUnits="userSpaceOnUse" x2="68.524" gradientTransform="matrix(0 1 -1 0 333.83 285.28)" y1="72.81" x1="68.524"/>
  <linearGradient id="t" y2="49.248" gradientUnits="userSpaceOnUse" x2="68.524" gradientTransform="translate(204.43 292.93)" y1="72.81" x1="68.524">
   <stop offset="0"/>
   <stop stop-opacity="0" offset=".097920"/>
   <stop stop-opacity="0" offset=".86486"/>
   <stop offset="1"/>
  </linearGradient>
  <linearGradient id="x" y2="40.501" gradientUnits="userSpaceOnUse" x2="158.08" y1="38.954" x1="158.08">
   <stop stop-color="#fff" offset="0"/>
   <stop stop-color="#fff" stop-opacity="0" offset="1"/>
  </linearGradient>
  <linearGradient id="u" y2="-119.25" xlink:href="#b" gradientUnits="userSpaceOnUse" x2="50.524" y1="-110.36" x1="50.459"/>
  <linearGradient id="b">
   <stop stop-color="#fff" offset="0"/>
   <stop stop-color="#fff" stop-opacity="0" offset="1"/>
  </linearGradient>
  <linearGradient id="v" y2="-12.698" xlink:href="#b" gradientUnits="userSpaceOnUse" x2="115.31" y1="-12.596" x1="111.35"/>
  <linearGradient id="w" y2="86.115" xlink:href="#b" gradientUnits="userSpaceOnUse" x2="-57.669" y1="86.1" x1="-54.576"/>
  <radialGradient id="f" gradientUnits="userSpaceOnUse" cy="28.006" cx="152.01" gradientTransform="matrix(-.56186 1.4654 -1.1586 -.44422 273.75 -186.65)" r="3.9531">
   <stop stop-color="#f0f0f0" offset="0"/>
   <stop stop-color="#969696" offset="1"/>
  </radialGradient>
  <linearGradient id="aa" y2="48" gradientUnits="userSpaceOnUse" x2="157" gradientTransform="matrix(2.8056 0 0 2.7862 -170.51 282.07)" y1="14" x1="157">
   <stop stop-color="#fff" offset="0"/>
   <stop stop-color="#fff" stop-opacity="0" offset="1"/>
  </linearGradient>
  <radialGradient id="e" xlink:href="#d" gradientUnits="userSpaceOnUse" cy="8.4623" cx="157.02" gradientTransform="matrix(-2.6873 2.7573 -2.7453 -2.6279 715.29 -98.028)" r="19.5"/>
  <linearGradient id="d">
   <stop stop-color="#a0a0a0" offset="0"/>
   <stop stop-color="#646464" offset="1"/>
  </linearGradient>
  <linearGradient id="z" y2="7.3259" xlink:href="#d" gradientUnits="userSpaceOnUse" x2="157.3" gradientTransform="matrix(2.6014 0 0 3.1431 -139.18 284.24)" y1="16.457" x1="157.3"/>
  <radialGradient id="h" xlink:href="#c" gradientUnits="userSpaceOnUse" cy="43.5" cx="4.993" gradientTransform="matrix(2.0038 0 0 1.4 27.988 -17.4)" r="2.5"/>
  <linearGradient id="c">
   <stop stop-color="#181818" offset="0"/>
   <stop stop-color="#181818" stop-opacity="0" offset="1"/>
  </linearGradient>
  <radialGradient id="g" xlink:href="#c" gradientUnits="userSpaceOnUse" cy="43.5" cx="4.993" gradientTransform="matrix(2.0038 0 0 1.4 -20.012 -104.4)" r="2.5"/>
  <linearGradient id="ab" y2="39.999" gradientUnits="userSpaceOnUse" x2="25.058" y1="47.028" x1="25.058">
   <stop stop-color="#181818" stop-opacity="0" offset="0"/>
   <stop stop-color="#181818" offset=".5"/>
   <stop stop-color="#181818" stop-opacity="0" offset="1"/>
  </linearGradient>
 </defs>
 <g transform="translate(-207.43 -296.93)">
  <g opacity=".4" style="enable-background:new" transform="matrix(3.2105 0 0 1.5408 194.38 347.52)">
   <rect height="7" width="5" y="40" x="38" fill="url(#h)"/>
   <rect transform="scale(-1)" height="7" width="5" y="-47" x="-10" fill="url(#g)"/>
   <rect height="7" width="28" y="40" x="10" fill="url(#ab)"/>
  </g>
  <path stroke-linejoin="round" style="enable-background:new" d="m220.37 325.01 9.9407-23.482h82.119l9.9407 23.482h-102" stroke="#505050" fill="url(#z)"/>
  <rect opacity=".4" style="color:#000000" rx="5.5023" ry="5.5336" height="93.904" width="101.37" stroke="#fff" stroke-linecap="round" y="320.53" x="220.74" fill="none"/>
  <rect height="93.904" stroke="#505050" stroke-linecap="round" fill="url(#e)" style="color:#000000" rx="5.5837" ry="5.5336" width="102.87" opacity="0.99" y="321.53" x="219.99"/>
  <path opacity=".15" stroke-linejoin="round" style="color:#000000" d="m162.03 30.531c-0.34173 0.08362-0.60653 0.25322-0.8125 0.40625l-2.4062 1.7812c-0.42842-0.1513-0.82549-0.375-1.3125-0.375-0.85325 0-1.5918 0.3143-2.25 0.75l-2.47-1.093c-1.1675-0.51358-2.5291 0.04598-3.0312 1.1875-0.49029 1.1146 0.0346 2.507 1.1562 3l2.5312 1.125c0.26972 1.4159 1.1952 2.5615 2.5 3.0938l0.46875 2.4375c0.22283 1.2047 1.4116 2.0369 2.625 1.8125 1.2047-0.22282 2.037-1.4115 1.8125-2.625l-0.5-2.5625c0.7807-0.76847 1.375-1.7325 1.375-2.9062 0-0.13231-0.0486-0.19421-0.0625-0.3125l2.25-1.6875c0.98743-0.7336 1.2048-2.1655 0.46875-3.1562-0.54541-0.73411-1.4631-1.0905-2.3438-0.875z" transform="matrix(2.6957 0 0 2.6964 -152.48 285.93)" stroke="#000" stroke-linecap="round" stroke-width=".37092"/>
  <rect opacity=".4" style="color:#000000" rx="6.1374" ry="5.9015" height="72.206" width="80.87" stroke="#fff" stroke-linecap="round" y="332.49" x="230.99" fill="none"/>
  <rect style="color:#000000" rx="6.1374" ry="5.8766" height="71.902" width="80.87" stroke="#505050" stroke-linecap="round" y="331.49" x="230.99" fill="none"/>
  <rect opacity=".4" style="color:#000000" rx="4.9383" ry="4.859" height="91.946" width="101" stroke="url(#aa)" stroke-linecap="round" y="322.47" x="220.87" fill="none"/>
  <path opacity="0.99" stroke-linejoin="round" style="color:#000000" d="m160.37 27.156c0 1.9848-1.609 3.5938-3.5938 3.5938s-3.5938-1.609-3.5938-3.5938 1.609-3.5937 3.5938-3.5937 3.5938 1.609 3.5938 3.5937z" transform="matrix(3.8714 0 0 3.8962 -334.02 247.63)" stroke="#505050" stroke-linecap="round" stroke-width=".25748" fill="url(#f)"/>
  <rect stroke-linejoin="round" ry="2.8486" stroke="#3c3c3c" stroke-linecap="round" fill="#b4b4b4" style="color:#000000" rx="2.8488" transform="matrix(.59626 .80279 -.80264 .59647 0 0)" width="5.6977" opacity="0.99" height="16.237" y="-9.9339" x="467.58"/>
  <rect stroke-linejoin="round" ry="2.8485" stroke="#3c3c3c" stroke-linecap="round" fill="#b4b4b4" style="color:#000000" rx="2.849" transform="matrix(.40257 -.91539 .91531 .40275 0 0)" width="5.698" opacity="0.99" height="16.236" y="384.45" x="-244.35"/>
  <rect stroke-linejoin="round" ry="2.8491" stroke="#3c3c3c" stroke-linecap="round" fill="#b4b4b4" style="color:#000000" rx="2.8484" transform="matrix(.98331 -.18192 -.18183 -.98333 0 0)" width="5.6968" opacity="0.99" height="16.24" y="-445.85" x="195.45"/>
  <path opacity="0.99" stroke-linejoin="round" style="color:#000000" d="m-55.875 79.906c-1.0922 0-1.9375 0.84551-1.9375 1.9375v10.531c0 1.092 0.84525 1.9375 1.9375 1.9375s1.9375-0.84551 1.9375-1.9375v-10.531c0-1.092-0.84525-1.9375-1.9375-1.9375z" transform="matrix(.40257 -.91539 .91531 .40275 204.96 293.02)" stroke="url(#w)" stroke-linecap="round" fill="none"/>
  <path opacity="0.99" stroke-linejoin="round" style="color:#000000" d="m113.38-19.5c-1.0292 0-1.8438 0.83265-1.8438 1.875v10.531c0 1.0423 0.80129 1.8438 1.8438 1.8438s1.8438-0.8014 1.8438-1.8438v-10.531c0-1.0423-0.81452-1.875-1.8438-1.875z" transform="matrix(.59626 .80279 -.80264 .59647 204.43 292.93)" stroke="url(#v)" stroke-linecap="round" fill="#b4b4b4"/>
  <path opacity="0.99" stroke-linejoin="round" style="color:#000000" d="m50.531-119.59c-1.0307 0-1.8125 0.78147-1.8125 1.8125v10.562c0 1.031 0.78182 1.8125 1.8125 1.8125s1.8125-0.78147 1.8125-1.8125v-10.562c0-1.031-0.78182-1.8125-1.8125-1.8125z" transform="matrix(.98331 -.18192 -.18183 -.98333 204.43 292.93)" stroke="url(#u)" stroke-linecap="round" fill="#b4b4b4"/>
  <path stroke-linejoin="round" style="color:#000000" d="m159.36 39.762c0 0.85427-0.69252 1.5468-1.5468 1.5468-0.85427 0-1.5468-0.69252-1.5468-1.5468 0-0.85427 0.69253-1.5468 1.5468-1.5468s1.5468 0.69252 1.5468 1.5468z" transform="matrix(5.2282 0 0 5.2296 -552.58 175.76)" stroke="#505050" stroke-linecap="round" stroke-width=".19125" fill="#b4b4b4"/>
  <path stroke-linejoin="round" style="color:#000000" d="m157.81 38.406c-0.75818 0-1.3438 0.58557-1.3438 1.3438 0 0.75818 0.59 1.375 1.3438 1.375 0.75375 0 1.375-0.62125 1.375-1.375s-0.61682-1.3438-1.375-1.3438z" transform="matrix(5.2282 0 0 5.2296 -552.64 175.76)" stroke="url(#x)" stroke-linecap="round" stroke-width=".19125" fill="none"/>
  <path opacity=".7" style="enable-background:new" d="m272.95 365.93v-24.25" stroke="url(#t)" stroke-width="1px" fill="none"/>
  <path opacity=".7" style="enable-background:new" d="m260.83 353.81h24.25" stroke="url(#s)" stroke-width="1px" fill="none"/>
  <path opacity=".7" style="enable-background:new" d="m261.24 350.67 23.424 6.2764" stroke="url(#q)" stroke-width="1px" fill="none"/>
  <path opacity=".7" style="enable-background:new" d="m262.45 359.87 21.001-12.125" stroke="url(#p)" stroke-width="1px" fill="none"/>
  <path opacity=".7" style="enable-background:new" d="m261.24 356.94 23.424-6.2764" stroke="url(#r)" stroke-width="1px" fill="none"/>
  <path opacity=".7" style="enable-background:new" d="m264.38 362.38 17.147-17.147" stroke="url(#o)" stroke-width="1px" fill="none"/>
  <path opacity=".7" style="enable-background:new" d="m266.89 364.31 12.125-21.001" stroke="url(#n)" stroke-width="1px" fill="none"/>
  <path opacity=".7" style="enable-background:new" d="m269.81 365.52 6.2764-23.424" stroke="url(#m)" stroke-width="1px" fill="none"/>
  <path opacity=".7" style="enable-background:new" d="m264.38 345.23 17.147 17.147" stroke="url(#k)" stroke-width="1px" fill="none"/>
  <path opacity=".7" style="enable-background:new" d="m262.45 347.74 21.001 12.125" stroke="url(#l)" stroke-width="1px" fill="none"/>
  <path opacity=".7" style="enable-background:new" d="m269.81 342.09 6.2764 23.424" stroke="url(#i)" stroke-width="1px" fill="none"/>
  <path opacity=".7" style="enable-background:new" d="m266.89 343.31 12.125 21.001" stroke="url(#j)" stroke-width="1px" fill="none"/>
  <path opacity="0.99" style="color:#000000" d="m160.37 27.156c0 1.9848-1.609 3.5938-3.5938 3.5938s-3.5938-1.609-3.5938-3.5938 1.609-3.5937 3.5938-3.5937 3.5938 1.609 3.5938 3.5937z" transform="matrix(2.2261 0 0 2.2264 -76.142 294.97)" stroke="#505050" stroke-width=".44919" fill="#282828"/>
  <path opacity=".6" style="color:#000000" d="m156.78 24.156c-1.6621 0-3 1.3379-3 3s1.3379 3 3 3 3-1.3379 3-3-1.3379-3-3-3z" transform="matrix(2.3415 0 0 2.3418 -94.232 291.84)" stroke="url(#y)" stroke-width=".42705" fill="none"/>
 </g>
</svg>
