<?xml version="1.0" encoding="UTF-8" standalone="no"?>
<svg xmlns:rdf="http://www.w3.org/1999/02/22-rdf-syntax-ns#" xmlns="http://www.w3.org/2000/svg" height="128" width="128" version="1.1" xmlns:cc="http://creativecommons.org/ns#" xmlns:xlink="http://www.w3.org/1999/xlink" xmlns:dc="http://purl.org/dc/elements/1.1/">
 <defs>
  <linearGradient id="d" y2="122.86" gradientUnits="userSpaceOnUse" x2="67" y1="19.135" x1="67">
   <stop stop-color="#fff" offset="0"/>
   <stop stop-color="#fff" stop-opacity=".23529" offset=".063165"/>
   <stop stop-color="#fff" stop-opacity=".15686" offset=".95056"/>
   <stop stop-color="#fff" stop-opacity=".39216" offset="1"/>
  </linearGradient>
  <linearGradient id="f" y2="5.9877" gradientUnits="userSpaceOnUse" x2="48" gradientTransform="matrix(1.2262 0 0 1.2262 284 319.36)" y1="90" x1="48">
   <stop stop-color="#be1e1e" offset="0"/>
   <stop stop-color="#e24a4a" offset="1"/>
  </linearGradient>
  <linearGradient id="e" y2="29.963" gradientUnits="userSpaceOnUse" x2="52" gradientTransform="matrix(1.2262 0 0 1.2262 268.67 290.55)" y1="113.5" x1="52">
   <stop stop-color="#560e0e" offset="0"/>
   <stop stop-color="#9b1919" offset="1"/>
  </linearGradient>
  <radialGradient id="c" cx="4.993" xlink:href="#a" gradientUnits="userSpaceOnUse" cy="43.5" r="2.5" gradientTransform="matrix(2.0038 0 0 1.4 27.988 -17.4)"/>
  <linearGradient id="a">
   <stop stop-color="#181818" offset="0"/>
   <stop stop-color="#181818" stop-opacity="0" offset="1"/>
  </linearGradient>
  <radialGradient id="b" cx="4.993" xlink:href="#a" gradientUnits="userSpaceOnUse" cy="43.5" r="2.5" gradientTransform="matrix(2.0038 0 0 1.4 -20.012 -104.4)"/>
  <linearGradient id="g" x1="25.058" gradientUnits="userSpaceOnUse" y1="47.028" x2="25.058" y2="39.999">
   <stop stop-color="#181818" stop-opacity="0" offset="0"/>
   <stop stop-color="#181818" offset=".5"/>
   <stop stop-color="#181818" stop-opacity="0" offset="1"/>
  </linearGradient>
 </defs>
 <g transform="translate(-278.86 -311.22)">
  <g style="enable-background:new" transform="matrix(2.95 0 0 1.2222 272.06 376.77)">
   <g opacity=".4" transform="matrix(1.0526 0 0 1.2857 -1.2632 -13.429)">
    <rect height="7" width="5" y="40" x="38" fill="url(#c)"/>
    <rect transform="scale(-1)" height="7" width="5" y="-47" x="-10" fill="url(#b)"/>
    <rect height="7" width="28" y="40" x="10" fill="url(#g)"/>
   </g>
  </g>
  <path style="enable-background:new" d="m298.71 326.72c-3.8719 0-7.0128 2.9536-7.3188 6.744 3.028 0.021 5.4795 2.485 5.4795 5.5179 0 3.0459-2.472 5.5179-5.5179 5.5179v8.5833c3.0459 0 5.5179 2.472 5.5179 5.5179s-2.472 5.5179-5.5179 5.5179v8.5833c3.0459 0 5.5179 2.472 5.5179 5.5179s-2.472 5.5178-5.5179 5.5178v8.5833c3.0459 0 5.5179 2.472 5.5179 5.5178 0 3.0459-2.472 5.5179-5.5179 5.5179v8.5833c3.0459 0 5.5179 2.472 5.5179 5.5178 0 3.0329-2.4516 5.4969-5.4795 5.5179 0.30599 3.7905 3.4469 6.744 7.3188 6.744 0-3.0459 2.472-5.5179 5.5178-5.5179 3.0459 0 5.5179 2.472 5.5179 5.5179h8.5833c0-3.0459 2.472-5.5179 5.5179-5.5179s5.5179 2.472 5.5179 5.5179h8.5833c0-3.0459 2.472-5.5179 5.5179-5.5179s5.5179 2.472 5.5179 5.5179h8.5833c0-3.0459 2.472-5.5179 5.5179-5.5179s5.5178 2.472 5.5178 5.5179h8.5833c-0.00001-3.0459 2.472-5.5179 5.5179-5.5179 3.0069 0 5.4557 2.4108 5.5178 5.4029 3.2967-0.54579 5.8195-3.2457 6.0926-6.6291-3.028-0.021-5.4795-2.485-5.4795-5.5179 0-3.0459 2.472-5.5178 5.5178-5.5178v-8.5833c-3.0459 0.00001-5.5178-2.472-5.5178-5.5179 0-3.0458 2.472-5.5178 5.5178-5.5178v-8.5833c-3.0459 0.00001-5.5178-2.472-5.5178-5.5178 0-3.0459 2.472-5.5179 5.5178-5.5179v-8.5833c-3.0459 0-5.5178-2.472-5.5178-5.5179s2.472-5.5179 5.5178-5.5179v-8.5833c-3.0459 0-5.5178-2.472-5.5178-5.5179 0-3.0329 2.4516-5.4969 5.4795-5.5179-0.27312-3.3834-2.796-6.0833-6.0926-6.6291-0.0621 2.9921-2.511 5.4029-5.5178 5.4029-3.0459 0-5.5179-2.472-5.5179-5.5178h-8.5833c0.00001 3.0458-2.472 5.5178-5.5178 5.5178-3.0459 0-5.5179-2.472-5.5179-5.5178h-8.5833c0 3.0458-2.472 5.5178-5.5179 5.5178s-5.5179-2.472-5.5179-5.5178h-8.5833c0 3.0458-2.472 5.5178-5.5179 5.5178s-5.5179-2.472-5.5179-5.5178h-8.5833c0 3.0458-2.472 5.5178-5.5179 5.5178-3.0458 0-5.5178-2.472-5.5178-5.5178z" stroke="url(#e)" fill="url(#f)"/>
  <path opacity=".95" style="enable-background:new" d="m323.04 345.44-13.511 59.413h10.977l6.3767-26.588h29.966l-28.063 24.903 7.3155 8.3506 3.7471-1.9141c7.086-3.6118 10.058-1.4999 15.434-0.0209 5.2302 1.4389 10.147 2.9789 20.348-2.8503l-2.0258-10.289c-11.133 7.847-14.655 0.84593-22.584 0.56803l22.701-19.042 2.4632-10.165h-47.551l3.061-12.2h31.167l2.1374-10.165h-41.96z" fill="#fff"/>
  <path opacity=".5" style="enable-background:new" d="m34.688 20.469c-0.488 3.104-3.078 5.531-6.313 5.531-3.1795 0-5.7277-2.3481-6.2812-5.375-2.7131 0.32726-4.8085 2.279-5.375 4.9062 2.966 0.595 5.281 3.08 5.281 6.219 0 3.2347-2.4272 5.8246-5.5312 6.3125v7.0312c3.1 0.484 5.531 3.047 5.531 6.282 0 3.2347-2.4272 5.8246-5.5312 6.3125v7c3.104 0.487 5.531 3.077 5.531 6.312 0 3.2347-2.4272 5.8246-5.5312 6.3125v7c3.104 0.488 5.531 3.078 5.531 6.313 0 3.2347-2.4311 5.7983-5.5312 6.2812v7.0312c3.104 0.49 5.531 3.08 5.531 6.31 0 3.1391-2.3146 5.624-5.2812 6.2188 0.56646 2.6273 2.6619 4.579 5.375 4.9062 0.5535-3.0269 3.1017-5.375 6.2812-5.375 3.2347 0 5.8246 2.4272 6.3125 5.5312h7c0.487-3.1 3.077-5.53 6.312-5.53 3.2347 0 5.7983 2.4311 6.2812 5.5312h7.0312c0.488-3.1 3.078-5.53 6.313-5.53 3.2347 0 5.7983 2.4311 6.2812 5.5312h7.0312c0.483-3.1 3.047-5.53 6.282-5.53 3.2347 0 5.8246 2.4272 6.3125 5.5312h7.0312c0.49-3.1 3.05-5.53 6.28-5.53 3.0945 0 5.6037 2.2156 6.25 5.125 2.1446-0.68389 3.7082-2.4239 4.1875-4.6562-2.97-0.6-5.28-3.08-5.28-6.22 0-3.2347 2.4272-5.8246 5.5312-6.3125v-7.0312c-3.1-0.486-5.53-3.049-5.53-6.284 0-3.2347 2.4272-5.8246 5.5312-6.3125v-7c-3.1-0.487-5.53-3.077-5.53-6.312 0-3.2347 2.4272-5.8246 5.5312-6.3125v-7c-3.1-0.488-5.53-3.078-5.53-6.313 0-3.2347 2.4311-5.7983 5.5312-6.2812v-7.0312c-3.1-0.488-5.53-3.078-5.53-6.313 0-3.1391 2.3146-5.624 5.2812-6.2188-0.47928-2.2323-2.0429-3.9724-4.1875-4.6562-0.64624 2.9094-3.1555 5.125-6.25 5.125-3.2347 0-5.7983-2.4311-6.2812-5.5312h-7.0312c-0.486 3.104-3.076 5.531-6.31 5.531-3.235 0-5.799-2.431-6.281-5.531h-7.0312c-0.484 3.1-3.047 5.531-6.282 5.531s-5.825-2.427-6.313-5.531h-7.0312c-0.483 3.1-3.046 5.531-6.281 5.531s-5.825-2.427-6.312-5.531h-7z" transform="translate(275.86 307.22)" stroke="url(#d)" fill="none"/>
 </g>
</svg>
