<?xml version="1.0" encoding="UTF-8" standalone="no"?>
<!-- Created with Inkscape (http://www.inkscape.org/) -->

<svg
   xmlns:dc="http://purl.org/dc/elements/1.1/"
   xmlns:cc="http://creativecommons.org/ns#"
   xmlns:rdf="http://www.w3.org/1999/02/22-rdf-syntax-ns#"
   xmlns:svg="http://www.w3.org/2000/svg"
   xmlns="http://www.w3.org/2000/svg"
   xmlns:xlink="http://www.w3.org/1999/xlink"
   xmlns:sodipodi="http://sodipodi.sourceforge.net/DTD/sodipodi-0.dtd"
   xmlns:inkscape="http://www.inkscape.org/namespaces/inkscape"
   version="1.1"
   width="128"
   height="128"
   id="svg4000"
   inkscape:version="0.91 r"
   sodipodi:docname="system-file-manager.svg">
  <sodipodi:namedview
     pagecolor="#ffffff"
     bordercolor="#666666"
     borderopacity="1"
     objecttolerance="10"
     gridtolerance="10"
     guidetolerance="10"
     inkscape:pageopacity="0"
     inkscape:pageshadow="2"
     inkscape:window-width="1280"
     inkscape:window-height="745"
     id="namedview60"
     showgrid="true"
     inkscape:zoom="14.75"
     inkscape:cx="71.296228"
     inkscape:cy="52.742747"
     inkscape:window-x="0"
     inkscape:window-y="30"
     inkscape:window-maximized="1"
     inkscape:current-layer="layer1">
    <inkscape:grid
       type="xygrid"
       id="grid11256" />
  </sodipodi:namedview>
  <defs
     id="defs4002">
    <linearGradient
       x1="97.538795"
       y1="16.962049"
       x2="97.538795"
       y2="44.260689"
       id="linearGradient3097"
       xlink:href="#linearGradient8272"
       gradientUnits="userSpaceOnUse"
       gradientTransform="matrix(2.6658408,0,0,2.7170994,-143.33284,-69.19882)" />
    <linearGradient
       id="linearGradient8272">
      <stop
         id="stop8274"
         style="stop-color:#ffffff;stop-opacity:1"
         offset="0" />
      <stop
         id="stop8276"
         style="stop-color:#ffffff;stop-opacity:0.23529412"
         offset="0.0221225" />
      <stop
         id="stop8278"
         style="stop-color:#ffffff;stop-opacity:0.15686275"
         offset="0.97909725" />
      <stop
         id="stop8280"
         style="stop-color:#ffffff;stop-opacity:0.39215687"
         offset="1" />
    </linearGradient>
    <linearGradient
       x1="22.934725"
       y1="49.629246"
       x2="22.934725"
       y2="36.599415"
       id="linearGradient3100"
       xlink:href="#linearGradient6129-963-697-142-998-580-273"
       gradientUnits="userSpaceOnUse"
       gradientTransform="matrix(3.036796,0,0,2.6909701,-8.883113,-65.36461)" />
    <linearGradient
       id="linearGradient6129-963-697-142-998-580-273">
      <stop
         id="stop2661"
         style="stop-color:#0a0a0a;stop-opacity:0.498"
         offset="0" />
      <stop
         id="stop2663"
         style="stop-color:#0a0a0a;stop-opacity:0"
         offset="1" />
    </linearGradient>
    <linearGradient
       x1="-91"
       y1="43.999817"
       x2="-91"
       y2="119.05979"
       id="linearGradient3103"
       xlink:href="#linearGradient4632-0-6-4"
       gradientUnits="userSpaceOnUse"
       gradientTransform="matrix(1,0,0,1.0266674,147,-70.18659)" />
    <linearGradient
       id="linearGradient4632-0-6-4">
      <stop
         id="stop4634-4-4-7"
         style="stop-color:#e9e9e9;stop-opacity:1"
         offset="0" />
      <stop
         id="stop4636-3-1-5"
         style="stop-color:#b4b4b4;stop-opacity:1"
         offset="1" />
    </linearGradient>
    <linearGradient
       x1="302.85715"
       y1="366.64789"
       x2="302.85715"
       y2="609.50507"
       id="linearGradient22388"
       xlink:href="#linearGradient5048-585"
       gradientUnits="userSpaceOnUse"
       gradientTransform="matrix(0.2134205,0,0,0.06641689,-13.147881,75.518568)" />
    <linearGradient
       id="linearGradient5048-585">
      <stop
         id="stop2667"
         style="stop-color:#000000;stop-opacity:0"
         offset="0" />
      <stop
         id="stop2669"
         style="stop-color:#000000;stop-opacity:1"
         offset="0.5" />
      <stop
         id="stop2671"
         style="stop-color:#000000;stop-opacity:0"
         offset="1" />
    </linearGradient>
    <radialGradient
       cx="605.71429"
       cy="486.64789"
       r="117.14286"
       fx="605.71429"
       fy="486.64789"
       id="radialGradient22390"
       xlink:href="#linearGradient5060-179"
       gradientUnits="userSpaceOnUse"
       gradientTransform="matrix(0.08277507,0,0,0.06641689,65.628912,75.518568)" />
    <linearGradient
       id="linearGradient5060-179">
      <stop
         id="stop2675"
         style="stop-color:#000000;stop-opacity:1"
         offset="0" />
      <stop
         id="stop2677"
         style="stop-color:#000000;stop-opacity:0"
         offset="1" />
    </linearGradient>
    <radialGradient
       cx="605.71429"
       cy="486.64789"
       r="117.14286"
       fx="605.71429"
       fy="486.64789"
       id="radialGradient22392"
       xlink:href="#linearGradient5060-820"
       gradientUnits="userSpaceOnUse"
       gradientTransform="matrix(-0.08277505,0,0,0.06641689,62.347829,75.518568)" />
    <linearGradient
       id="linearGradient5060-820">
      <stop
         id="stop2681"
         style="stop-color:#000000;stop-opacity:1"
         offset="0" />
      <stop
         id="stop2683"
         style="stop-color:#000000;stop-opacity:0"
         offset="1" />
    </linearGradient>
    <linearGradient
       x1="97.538795"
       y1="8.8103228"
       x2="97.538795"
       y2="44.260689"
       id="linearGradient3110"
       xlink:href="#linearGradient9235"
       gradientUnits="userSpaceOnUse"
       gradientTransform="matrix(2.6658408,0,0,2.6469079,-143.33284,-66.04951)" />
    <linearGradient
       id="linearGradient9235">
      <stop
         id="stop9237"
         style="stop-color:#ffffff;stop-opacity:1"
         offset="0" />
      <stop
         id="stop9239"
         style="stop-color:#ffffff;stop-opacity:0.23529412"
         offset="0.1088333" />
      <stop
         id="stop9241"
         style="stop-color:#ffffff;stop-opacity:0.15686275"
         offset="0.97909725" />
      <stop
         id="stop9243"
         style="stop-color:#ffffff;stop-opacity:0.39215687"
         offset="1" />
    </linearGradient>
    <linearGradient
       x1="-51.786404"
       y1="53.514328"
       x2="-51.786404"
       y2="3.6336823"
       id="linearGradient3113"
       xlink:href="#linearGradient3104-8-8-97-4-6-11-5-5-1-0"
       gradientUnits="userSpaceOnUse"
       gradientTransform="matrix(2.1683519,0,0,2.2464645,141.9485,-68.59047)" />
    <linearGradient
       id="linearGradient3104-8-8-97-4-6-11-5-5-1-0">
      <stop
         id="stop3106-5-4-3-5-0-2-1-0-1-2"
         style="stop-color:#000000;stop-opacity:0.32173914"
         offset="0" />
      <stop
         id="stop3108-4-3-7-8-2-0-7-9-4-9"
         style="stop-color:#000000;stop-opacity:0.27826086"
         offset="1" />
    </linearGradient>
    <linearGradient
       id="linearGradient6404-7-5">
      <stop
         id="stop6406-1-8"
         style="stop-color:#f9f9f9;stop-opacity:1"
         offset="0" />
      <stop
         id="stop6408-9-6"
         style="stop-color:#c9c9c9;stop-opacity:1"
         offset="1" />
    </linearGradient>
    <linearGradient
       x1="62.988873"
       y1="14.090554"
       x2="62.988873"
       y2="16.997795"
       id="linearGradient3998"
       xlink:href="#linearGradient6404-7-5"
       gradientUnits="userSpaceOnUse"
       gradientTransform="matrix(2.7209303,0,0,2.6722576,-117.22021,-66.21387)" />
  </defs>
  <metadata
     id="metadata4005">
    <rdf:RDF>
      <cc:Work
         rdf:about="">
        <dc:format>image/svg+xml</dc:format>
        <dc:type
           rdf:resource="http://purl.org/dc/dcmitype/StillImage" />
        <dc:title />
      </cc:Work>
    </rdf:RDF>
  </metadata>
  <g
     transform="translate(0,64)"
     id="layer1">
    <path
       d="m 12.999997,-42.96859 c -1.108,0 -2,0.892 -2,2 l 0,5.96875 -3.0000004,0 c -1.108,0 -2,0.892 -2,2 l 0,11 c 0,1.108 0.892,2 2,2 l 112.0000034,0 c 1.108,0 2,-0.892 2,-2 l 0,-11 c 0,-1.108 -0.892,-2 -2,-2 l -63.000005,0 0,-5.96875 c 0,-1.108 -0.892,-2 -2,-2 l -41.999998,0 z"
       inkscape:connector-curvature="0"
       id="use13971"
       style="color:#000000;fill:url(#linearGradient3998);fill-opacity:1;fill-rule:nonzero;stroke:none;stroke-width:1.00000012;marker:none;visibility:visible;display:inline;overflow:visible;enable-background:accumulate" />
    <path
       d="m 13.662787,-43.49968 c -1.87818,0.0205 -3.16279,0.9143 -3.16279,2.67225 l 0,5.32743 c -0.9606004,0 -1.4771004,-0.003 -2.1044004,0 -1.67856,0.008 -2.87762,0.94491 -2.87762,2.83298 0.0936,27.49765 -0.018,28.92194 -0.018,31.25655 3.90581,0 117.0000034,-9.88664 117.0000034,-14.1423 l 0,-17.14209 c 0,-1.75796 -1.15786,-2.82564 -3.03605,-2.80514 l -61.963955,0 0,-5.19887 c 0,-1.75795 -1.18743,-2.80081 -2.94827,-2.80081 l -40.888938,0 z"
       inkscape:connector-curvature="0"
       id="use13973"
       style="opacity:0.8;color:#000000;fill:none;stroke:url(#linearGradient3113);stroke-width:1;stroke-linecap:butt;stroke-linejoin:miter;stroke-miterlimit:4;stroke-opacity:1;stroke-dasharray:none;stroke-dashoffset:0;marker:none;visibility:visible;display:inline;overflow:visible;enable-background:accumulate" />
    <path
       d="m 13.499997,-42.49984 c -1.108,0 -2,0.892 -2,2 l 0,6 -3.0000004,0 c -1.108,0 -2,0.892 -2,2 l 0,11 c 0,1.108 0.892,2 2,2 l 111.0000034,0 c 1.108,0 2,-0.892 2,-2 l 0,-11 c 0,-1.108 -0.892,-2 -2,-2 l -63.000005,0 0,-6 c 0,-1.108 -0.892,-2 -2,-2 l -40.999998,0 z"
       inkscape:connector-curvature="0"
       id="use13975"
       style="color:#000000;fill:none;stroke:url(#linearGradient3110);stroke-width:0.99999982;stroke-linecap:round;stroke-linejoin:round;stroke-miterlimit:4;stroke-opacity:1;stroke-dasharray:none;stroke-dashoffset:0;marker:none;visibility:visible;display:inline;overflow:visible;enable-background:accumulate" />
    <g
       transform="matrix(1.0027339,0,0,0.9919518,-0.16331336,-57.0664)"
       id="use13977">
      <rect
         width="103.05159"
         height="16.129816"
         x="12.462574"
         y="99.870178"
         id="rect22382"
         style="opacity:0.3;fill:url(#linearGradient22388);fill-opacity:1;fill-rule:nonzero;stroke:none;stroke-width:1;marker:none;visibility:visible;display:inline;overflow:visible" />
      <path
         d="m 115.51417,99.870734 c 0,0 0,16.128926 0,16.128926 4.26271,0.0304 10.30516,-3.61367 10.30516,-8.0655 0,-4.45183 -4.75687,-8.063426 -10.30516,-8.063426 z"
         inkscape:connector-curvature="0"
         id="path22384"
         style="opacity:0.3;fill:url(#radialGradient22390);fill-opacity:1;fill-rule:nonzero;stroke:none;stroke-width:1;marker:none;visibility:visible;display:inline;overflow:visible" />
      <path
         d="m 12.462574,99.870734 c 0,0 0,16.128926 0,16.128926 -4.2627113,0.0304 -10.3051588,-3.61367 -10.3051588,-8.0655 0,-4.45183 4.7568636,-8.063426 10.3051588,-8.063426 z"
         inkscape:connector-curvature="0"
         id="path22386"
         style="opacity:0.3;fill:url(#radialGradient22392);fill-opacity:1;fill-rule:nonzero;stroke:none;stroke-width:1;marker:none;visibility:visible;display:inline;overflow:visible" />
    </g>
    <path
       d="m 6.2499966,-24.50005 115.4999934,0.001 c 1.66861,0 2.75001,1.18375 2.75001,2.65543 l -2.71648,71.780683 c 0.0386,1.86211 -0.55015,2.60044 -2.48884,2.56139 L 9.3616366,52.451753 c -1.66859,0 -3.35116,-1.09895 -3.35116,-2.57064 l -2.51048,-71.724693 c 0,-1.47169 1.0814,-2.65647 2.75,-2.65647 z"
       inkscape:connector-curvature="0"
       id="use13979"
       style="fill:url(#linearGradient3103);fill-opacity:1;fill-rule:nonzero;stroke:none;stroke-width:0.99999982;marker:none;visibility:visible;display:inline;overflow:visible;enable-background:accumulate" />
    <path
       d="m 5.7727166,-25.00006 116.4545434,0.001 c 1.6824,0 2.77274,1.19912 2.77274,2.68993 l -2.73893,72.712903 c 0.0389,1.88629 -0.5547,2.63421 -2.50941,2.59465 L 8.9100766,52.951023 c -1.68238,0 -3.37885,-1.11323 -3.37885,-2.60404 l -2.53123,-72.656073 c 0,-1.4908 1.09034,-2.69097 2.77272,-2.69097 z"
       inkscape:connector-curvature="0"
       id="use13981"
       style="opacity:0.4;fill:url(#linearGradient3100);fill-opacity:1;stroke:none" />
    <path
       d="m 6.2499966,-23.49985 c -2.84882,0.29656 -1.40933,3.76689 -1.63989,5.72017 0.78584,22.54795 1.57466,45.09583 2.35864,67.643813 1.18868,2.48974 4.4300904,1.28205 6.6383204,1.57433 35.235138,0.0205 70.470288,0.0412 105.705433,0.0617 2.566,-0.16531 1.15721,-3.81803 1.65357,-5.65555 0.85465,-22.569493 2.54292,-67.571353 2.54292,-67.571353 0,-1.16209 -0.77992,-1.7731 -2.20738,-1.7731 -37.089315,0 -77.962305,0 -115.0516134,0 z"
       inkscape:connector-curvature="0"
       id="use13983"
       style="opacity:0.8;fill:none;stroke:url(#linearGradient3097);stroke-width:0.99999988;stroke-linecap:round;stroke-linejoin:round;stroke-miterlimit:4;stroke-opacity:1;stroke-dasharray:none;stroke-dashoffset:0;marker:none;visibility:visible;display:inline;overflow:visible;enable-background:accumulate" />
    <path
       d="m 6.2499966,-24.50006 115.4999934,0.001 c 1.66861,0 2.75001,1.18375 2.75001,2.65543 l -2.71648,71.780683 c 0.0386,1.86211 -0.55015,2.60044 -2.48884,2.56139 L 9.3616366,52.451743 c -1.66859,0 -3.35116,-1.09895 -3.35116,-2.57064 l -2.51048,-71.724693 c 0,-1.47169 1.0814,-2.65647 2.75,-2.65647 z"
       inkscape:connector-curvature="0"
       id="path3369-7-0"
       style="opacity:0.3;fill:none;stroke:#000000;stroke-width:0.99999982;stroke-linecap:round;stroke-linejoin:round;stroke-miterlimit:4;stroke-opacity:1;stroke-dasharray:none;stroke-dashoffset:0;marker:none;visibility:visible;display:inline;overflow:visible;enable-background:accumulate" />
    <path
       sodipodi:nodetypes="cccccccccccccccccccccccccccccccccccccccccccccccccccccccccccccccccccccccccccccccccccccccccccccccccccccsscsaaaaacccccccssscccccscscsc"
       inkscape:connector-curvature="0"
       id="path11258"
       d="m 81.999915,1.0000002 c -0.51852,0.0051 -1.03659,0.03234 -1.55274,0.08202 -0.2703,0.027 -0.53985,0.0603 -0.80859,0.0996 -0.33333,0.03954 -0.66549,0.08838 -0.99609,0.14649 -0.2217,0.04662 -0.44238,0.09741 -0.6621,0.1523399 -0.39387,0.08646 -0.78471,0.18612 -1.17189,0.2988299 -0.147,0.04695 -0.2937,0.09576 -0.43944,0.14649 -0.4155,0.1354199 -0.82593,0.2858999 -1.23047,0.4511698 -0.1533,0.06624 -0.30565,0.13461 -0.45703,0.20508 -0.41354,0.1818899 -0.82008,0.3793048 -1.21875,0.5917948 -0.0903,0.05001 -0.18012,0.1007999 -0.26952,0.1523399 -0.44267,0.2472599 -0.8747,0.5131289 -1.29493,0.7968748 -0.0608,0.0426 -0.12135,0.08556 -0.18165,0.1289099 -0.43792,0.3032939 -0.86217,0.6258748 -1.27148,0.9667977 -0.0353,0.03111 -0.0704,0.06237 -0.10548,0.09375 -0.43223,0.3688468 -0.84676,0.7579557 -1.24219,1.1660156 -0.41883,0.4310308 -0.81581,0.8827677 -1.18945,1.3535155 -0.37184,0.4706009 -0.71993,0.9594897 -1.04297,1.4648425 -0.1479,0.2310895 -0.29052,0.4655335 -0.42772,0.7031365 l -0.006,0 c -1.58672,2.734397 -2.42539,5.838511 -2.4315,8.999997 0.008,3.16202 0.84859,6.26617 2.4375,8.999997 0.30074,0.519915 0.62732,1.024452 0.97851,1.511717 0.33396,0.463947 0.68983,0.911718 1.06641,1.341798 0.035,0.03921 0.0701,0.07827 0.10548,0.11718 0.36112,0.405621 0.74041,0.794691 1.13672,1.166016 0.0447,0.04125 0.0896,0.08226 0.13476,0.12306 0.38198,0.348971 0.77883,0.681311 1.18945,0.996092 0.0815,0.06321 0.16353,0.1257 0.24609,0.1875 0.40034,0.29628 0.8128,0.57582 1.23633,0.837891 0.0797,0.05142 0.15975,0.10218 0.24024,0.15234 0.407,0.24093 0.82334,0.465705 1.24804,0.67383 0.15324,0.07641 0.30754,0.15063 0.46289,0.22266 0.35819,0.16422 0.72166,0.316658 1.08985,0.457031 0.20172,0.07983 0.40489,0.15603 0.60937,0.22851 0.36354,0.12303 0.73092,0.23442 1.10157,0.333984 0.2157,0.06069 0.43254,0.11733 0.65037,0.16992 0.35523,0.08115 0.7128,0.1515 1.07229,0.21093 0.2394,0.04197 0.47973,0.07908 0.72069,0.11133 0.32721,0.04026 0.65544,0.07152 0.98436,0.09375 0.42879,0.0369 0.85875,0.05838 1.28907,0.06447 0.49491,-0.003 0.98946,-0.0264 1.48242,-0.07032 0.35667,-0.03234 0.71229,-0.07533 1.06641,-0.12891 0.243,-0.03216 0.48516,-0.06927 0.72657,-0.11133 0.32616,-0.06327 0.65049,-0.13557 0.97266,-0.21681 0.2673,-0.06228 0.53283,-0.13065 0.79686,-0.20508 0.30141,-0.09174 0.60033,-0.1914 0.89649,-0.29883 0.2817,-0.09657 0.56121,-0.2001 0.8379,-0.310548 0.2565,-0.10545 0.51042,-0.216809 0.7617,-0.333983 0.2868,-0.12927 0.57006,-0.26604 0.84963,-0.410154 0.2655,-0.14379 0.52725,-0.29421 0.78513,-0.451173 0.2637,-0.15351 0.52365,-0.313731 0.77931,-0.480468 0.2463,-0.16584 0.48867,-0.337782 0.72657,-0.515625 0.2346,-0.17019 0.46521,-0.346023 0.69141,-0.527346 0.2436,-0.20265 0.4821,-0.411711 0.71484,-0.626951 0.2157,-0.19215 0.42666,-0.389484 0.63279,-0.591798 0.2022,-0.20616 0.39966,-0.417156 0.59181,-0.632811 0.2151,-0.23271 0.42429,-0.471084 0.62694,-0.714843 0.1812,-0.2262 0.35718,-0.456726 0.52737,-0.691407 0.1779,-0.237899 0.34977,-0.480158 0.51561,-0.726563 0.1668,-0.25566 0.32694,-0.515499 0.48048,-0.779295 0.1569,-0.25791 0.30738,-0.519696 0.45117,-0.785157 0.144,-0.27957 0.2808,-0.562872 0.41016,-0.849609 0.1173,-0.251309 0.2286,-0.505271 0.33396,-0.761717 0.1104,-0.27669 0.2139,-0.556068 0.31056,-0.837891 0.1074,-0.29616 0.207,-0.595092 0.2988,-0.896484 0.0744,-0.26403 0.1428,-0.529722 0.2052,-0.796874 0.0813,-0.322155 0.1536,-0.6465 0.2169,-0.972657 0.042,-0.24141 0.0792,-0.483642 0.1113,-0.726564 0.0537,-0.354105 0.0966,-0.709734 0.129,-1.066403 0.0438,-0.492945 0.0672,-0.987507 0.0702,-1.482405 -0.003,-0.494897 -0.027,-0.989459 -0.0702,-1.482422 -0.0324,-0.35667 -0.0753,-0.712299 -0.129,-1.066404 -0.0321,-0.24291 -0.0693,-0.48516 -0.1113,-0.726564 -0.0633,-0.326156 -0.1356,-0.650501 -0.2169,-0.972656 -0.0624,-0.26715 -0.1305,-0.532848 -0.2052,-0.796875 -0.0918,-0.301392 -0.1914,-0.600324 -0.2988,-0.896484 -0.0966,-0.28182 -0.2001,-0.561206 -0.31056,-0.83789 -0.1053,-0.25644 -0.2169,-0.510417 -0.33396,-0.761718 -0.1293,-0.28674 -0.2661,-0.570039 -0.41016,-0.849609 -0.1437,-0.26547 -0.2943,-0.527262 -0.45117,-0.785157 -0.1536,-0.26379 -0.31374,-0.5236465 -0.48048,-0.7792944 -0.1659,-0.2463899 -0.33777,-0.4886668 -0.51561,-0.7265637 -0.1701,-0.2346899 -0.34602,-0.4652189 -0.52737,-0.6914068 -0.2025,-0.2437499 -0.41169,-0.4821238 -0.62694,-0.7148428 -0.192,-0.2156699 -0.38949,-0.4266538 -0.59181,-0.6328108 -0.2061,-0.2023199 -0.41715,-0.3996388 -0.63279,-0.5917978 -0.2328,-0.2152499 -0.47109,-0.4242988 -0.71484,-0.6269518 -0.2262,-0.1813199 -0.45675,-0.3571558 -0.69141,-0.5273458 -0.2379,-0.1778399 -0.48018,-0.3497699 -0.72657,-0.5156248 -0.2556,-0.16674 -0.51549,-0.3269459 -0.77931,-0.4804678 -0.258,-0.15696 -0.51969,-0.3073889 -0.78513,-0.4511729 -0.2796,-0.1441199 -0.56289,-0.2808899 -0.84963,-0.4101539 -0.2514,-0.1171799 -0.50526,-0.2285399 -0.7617,-0.3339838 -0.2766,-0.11043 -0.55608,-0.21399 -0.8379,-0.3105479 -0.2961,-0.10743 -0.59508,-0.20709 -0.89649,-0.2988299 -0.264,-0.07443 -0.52971,-0.1428 -0.79686,-0.20508 -0.32217,-0.08124 -0.6465,-0.1535099 -0.97266,-0.2168099 -0.2415,-0.04206 -0.48366,-0.07917 -0.72657,-0.11133 -0.35412,-0.05358 -0.70974,-0.09657 -1.06641,-0.1289099 -0.49293,-0.04377 -0.98748,-0.06723 -1.48239,-0.07029 z M 33.999933,9.999997 c -3.323999,0 -5.999998,2.675999 -5.999998,5.999998 l 0,2.999999 0,2.999999 c 0,0.965874 3.386873,4.917607 5.999998,5.999998 0.92388,0.382683 2.076119,0.382683 2.999999,0 2.613125,-1.082391 3.171572,-5.999998 5.999998,-5.999998 2.828425,0 3.386875,4.917607 5.999995,5.999998 0.92388,0.382683 2.07612,0.382683 3,0 2.61313,-1.082391 4.70564,-7.210468 6,-5.999998 l 0,5.999998 3,0 2.05664,0 c -1.34465,-2.810303 -2.04717,-5.884582 -2.05664,-8.999997 l -1.5,0 -3,0 -20.999992,0 c -0.831,0 -1.5,-0.669 -1.5,-1.499999 0,-0.831 0.669,-1.5 1.5,-1.5 l 20.999992,0 3,0 1.74609,0 c 0.29814,-2.078993 0.90648,-4.101496 1.80469,-5.999998 l -17.05078,0 z m 50.285142,0 c 3.70803,-0.0022 6.71484,4.027877 6.71484,8.999997 0,4.97212 -3.00681,9.002205 -6.71484,8.999997 -3.70575,-0.0021 -6.70899,-4.030943 -6.70899,-8.999997 0,-4.969054 3.00324,-8.997864 6.70899,-8.999997 z"
       style="opacity:0.3;fill:#ffffff;fill-opacity:1;stroke:none;stroke-width:2;stroke-linecap:round;stroke-linejoin:round;stroke-miterlimit:4;stroke-dasharray:none;stroke-opacity:1" />
    <path
       style="opacity:1;fill:#6c6c6c;fill-opacity:0.55294118;stroke:none;stroke-width:2;stroke-linecap:round;stroke-linejoin:round;stroke-miterlimit:4;stroke-dasharray:none;stroke-opacity:1"
       d="m 81.999915,2e-7 c -0.51852,0.0051 -1.03659,0.03234 -1.55274,0.08202 -0.2703,0.027 -0.53985,0.0603 -0.80859,0.0996 -0.33333,0.03954 -0.66549,0.08838 -0.99609,0.14649 -0.2217,0.04662 -0.44238,0.09741 -0.6621,0.1523399 -0.39387,0.08646 -0.78471,0.18612 -1.17189,0.2988299 -0.147,0.04695 -0.2937,0.09576 -0.43944,0.14649 -0.4155,0.1354199 -0.82593,0.2858999 -1.23047,0.4511698 -0.1533,0.06624 -0.30565,0.13461 -0.45703,0.20508 -0.41354,0.1818899 -0.82008,0.3793048 -1.21875,0.5917948 -0.0903,0.05001 -0.18012,0.1007999 -0.26952,0.1523399 -0.44267,0.2472599 -0.8747,0.5131289 -1.29493,0.7968748 -0.0608,0.0426 -0.12135,0.08556 -0.18165,0.1289099 -0.43792,0.3032939 -0.86217,0.6258748 -1.27148,0.9667977 -0.0353,0.03111 -0.0704,0.06237 -0.10548,0.09375 -0.43223,0.3688468 -0.84676,0.7579557 -1.24219,1.1660156 -0.41883,0.4310308 -0.81581,0.8827677 -1.18945,1.3535155 -0.37184,0.4706009 -0.71993,0.9594897 -1.04297,1.4648425 -0.1479,0.2310895 -0.29052,0.4655335 -0.42772,0.7031365 l -0.006,0 c -1.58672,2.734397 -2.42539,5.838511 -2.4315,8.999997 0.008,3.16202 0.84859,6.26617 2.4375,8.999997 0.30074,0.519915 0.62732,1.024452 0.97851,1.511717 0.33396,0.463947 0.68983,0.911718 1.06641,1.341798 0.035,0.03921 0.0701,0.07827 0.10548,0.11718 0.36112,0.405621 0.74041,0.794691 1.13672,1.166016 0.0447,0.04125 0.0896,0.08226 0.13476,0.12306 0.38198,0.348971 0.77883,0.681311 1.18945,0.996092 0.0815,0.06321 0.16353,0.1257 0.24609,0.1875 0.40034,0.29628 0.8128,0.57582 1.23633,0.837891 0.0797,0.05142 0.15975,0.10218 0.24024,0.15234 0.407,0.24093 0.82334,0.465705 1.24804,0.67383 0.15324,0.07641 0.30754,0.15063 0.46289,0.22266 0.35819,0.16422 0.72166,0.316658 1.08985,0.457031 0.20172,0.07983 0.40489,0.15603 0.60937,0.22851 0.36354,0.12303 0.73092,0.23442 1.10157,0.333984 0.2157,0.06069 0.43254,0.11733 0.65037,0.16992 0.35523,0.08115 0.7128,0.1515 1.07229,0.21093 0.2394,0.04197 0.47973,0.07908 0.72069,0.11133 0.32721,0.04026 0.65544,0.07152 0.98436,0.09375 0.42879,0.0369 0.85875,0.05838 1.28907,0.06447 0.49491,-0.003 0.98946,-0.0264 1.48242,-0.07032 0.35667,-0.03234 0.71229,-0.07533 1.06641,-0.12891 0.243,-0.03216 0.48516,-0.06927 0.72657,-0.11133 0.32616,-0.06327 0.65049,-0.13557 0.97266,-0.21681 0.2673,-0.06228 0.53283,-0.13065 0.79686,-0.20508 0.30141,-0.09174 0.60033,-0.1914 0.89649,-0.29883 0.2817,-0.09657 0.56121,-0.2001 0.8379,-0.310548 0.2565,-0.10545 0.51042,-0.216809 0.7617,-0.333983 0.2868,-0.12927 0.57006,-0.26604 0.84963,-0.410154 0.2655,-0.14379 0.52725,-0.29421 0.78513,-0.451173 0.2637,-0.15351 0.52365,-0.313731 0.77931,-0.480468 0.2463,-0.16584 0.48867,-0.337782 0.72657,-0.515625 0.2346,-0.17019 0.46521,-0.346023 0.69141,-0.527346 0.2436,-0.20265 0.4821,-0.411711 0.71484,-0.626951 0.2157,-0.19215 0.42666,-0.389484 0.63279,-0.591798 0.2022,-0.20616 0.39966,-0.417156 0.59181,-0.632811 0.2151,-0.23271 0.42429,-0.471084 0.62694,-0.714843 0.1812,-0.2262 0.35718,-0.456726 0.52737,-0.691407 0.1779,-0.237899 0.34977,-0.480158 0.51561,-0.726563 0.1668,-0.25566 0.32694,-0.515499 0.48048,-0.779295 0.1569,-0.25791 0.30738,-0.519696 0.45117,-0.785157 0.144,-0.27957 0.2808,-0.562872 0.41016,-0.849609 0.1173,-0.251309 0.2286,-0.505271 0.33396,-0.761717 0.1104,-0.27669 0.2139,-0.556068 0.31056,-0.837891 0.1074,-0.29616 0.207,-0.595092 0.2988,-0.896484 0.0744,-0.26403 0.1428,-0.529722 0.2052,-0.796874 0.0813,-0.322155 0.1536,-0.6465 0.2169,-0.972657 0.042,-0.24141 0.0792,-0.483642 0.1113,-0.726564 0.0537,-0.354105 0.0966,-0.709734 0.129,-1.066403 0.0438,-0.492945 0.0672,-0.987507 0.0702,-1.482405 -0.003,-0.494897 -0.027,-0.989459 -0.0702,-1.482422 -0.0324,-0.35667 -0.0753,-0.712299 -0.129,-1.066404 -0.0321,-0.24291 -0.0693,-0.48516 -0.1113,-0.726564 -0.0633,-0.326156 -0.1356,-0.650501 -0.2169,-0.972656 -0.0624,-0.26715 -0.1305,-0.532848 -0.2052,-0.796875 -0.0918,-0.301392 -0.1914,-0.600324 -0.2988,-0.896484 -0.0966,-0.28182 -0.2001,-0.561206 -0.31056,-0.83789 -0.1053,-0.25644 -0.2169,-0.510417 -0.33396,-0.761718 -0.1293,-0.28674 -0.2661,-0.570039 -0.41016,-0.849609 -0.1437,-0.26547 -0.2943,-0.527262 -0.45117,-0.785157 -0.1536,-0.26379 -0.31374,-0.5236465 -0.48048,-0.7792944 -0.1659,-0.2463899 -0.33777,-0.4886668 -0.51561,-0.7265637 -0.1701,-0.2346899 -0.34602,-0.4652189 -0.52737,-0.6914068 -0.2025,-0.2437499 -0.41169,-0.4821238 -0.62694,-0.7148428 -0.192,-0.2156699 -0.38949,-0.4266538 -0.59181,-0.6328108 -0.2061,-0.2023199 -0.41715,-0.3996388 -0.63279,-0.5917978 -0.2328,-0.2152499 -0.47109,-0.4242988 -0.71484,-0.6269518 -0.2262,-0.1813199 -0.45675,-0.3571558 -0.69141,-0.5273458 -0.2379,-0.1778399 -0.48018,-0.3497699 -0.72657,-0.5156248 -0.2556,-0.16674 -0.51549,-0.3269459 -0.77931,-0.4804678 -0.258,-0.15696 -0.51969,-0.3073889 -0.78513,-0.4511729 -0.2796,-0.1441199 -0.56289,-0.2808899 -0.84963,-0.4101539 -0.2514,-0.1171799 -0.50526,-0.2285399 -0.7617,-0.3339838 -0.2766,-0.11043 -0.55608,-0.21399 -0.8379,-0.3105479 -0.2961,-0.10743 -0.59508,-0.20709 -0.89649,-0.2988299 -0.264,-0.07443 -0.52971,-0.1428 -0.79686,-0.20508 -0.32217,-0.08124 -0.6465,-0.1535099 -0.97266,-0.2168099 -0.2415,-0.04206 -0.48366,-0.07917 -0.72657,-0.11133 -0.35412,-0.05358 -0.70974,-0.09657 -1.06641,-0.1289099 -0.49293,-0.04377 -0.98748,-0.06723 -1.48239,-0.07029 z M 33.999933,8.999997 c -3.323999,0 -5.999998,2.675999 -5.999998,5.999998 l 0,2.999999 0,2.999999 c 0,0.965874 3.386873,4.917607 5.999998,5.999998 0.92388,0.382683 2.076119,0.382683 2.999999,0 2.613125,-1.082391 3.171572,-5.999998 5.999998,-5.999998 2.828425,0 3.386875,4.917607 5.999995,5.999998 0.92388,0.382683 2.07612,0.382683 3,0 2.61313,-1.082391 4.70564,-7.210468 6,-5.999998 l 0,5.999998 3,0 2.05664,0 c -1.34465,-2.810303 -2.04717,-5.884582 -2.05664,-8.999997 l -1.5,0 -3,0 -20.999992,0 c -0.831,0 -1.5,-0.669 -1.5,-1.499999 0,-0.831 0.669,-1.5 1.5,-1.5 l 20.999992,0 3,0 1.74609,0 c 0.29814,-2.078993 0.90648,-4.101496 1.80469,-5.999998 l -17.05078,0 z m 50.285142,0 c 3.70803,-0.0022 6.71484,4.027877 6.71484,8.999997 0,4.97212 -3.00681,9.002205 -6.71484,8.999997 -3.70575,-0.0021 -6.70899,-4.030943 -6.70899,-8.999997 0,-4.969054 3.00324,-8.997864 6.70899,-8.999997 z"
       id="path11273"
       inkscape:connector-curvature="0"
       sodipodi:nodetypes="cccccccccccccccccccccccccccccccccccccccccccccccccccccccccccccccccccccccccccccccccccccccccccccccccccccsscsaaaaacccccccssscccccscscsc" />
  </g>
</svg>
