<?xml version="1.0" encoding="UTF-8" standalone="no"?>
<!-- Created with Inkscape (http://www.inkscape.org/) -->

<svg
   xmlns:dc="http://purl.org/dc/elements/1.1/"
   xmlns:cc="http://creativecommons.org/ns#"
   xmlns:rdf="http://www.w3.org/1999/02/22-rdf-syntax-ns#"
   xmlns:svg="http://www.w3.org/2000/svg"
   xmlns="http://www.w3.org/2000/svg"
   xmlns:xlink="http://www.w3.org/1999/xlink"
   xmlns:sodipodi="http://sodipodi.sourceforge.net/DTD/sodipodi-0.dtd"
   xmlns:inkscape="http://www.inkscape.org/namespaces/inkscape"
   version="1.1"
   width="128"
   height="128"
   id="svg3489"
   inkscape:version="0.91 r13725"
   sodipodi:docname="half-life2.svg">
  <sodipodi:namedview
     pagecolor="#ffffff"
     bordercolor="#666666"
     borderopacity="1"
     objecttolerance="10"
     gridtolerance="10"
     guidetolerance="10"
     inkscape:pageopacity="0"
     inkscape:pageshadow="2"
     inkscape:window-width="1366"
     inkscape:window-height="745"
     id="namedview154"
     showgrid="true"
     inkscape:zoom="4"
     inkscape:cx="3.684294"
     inkscape:cy="98.798428"
     inkscape:window-x="1672"
     inkscape:window-y="274"
     inkscape:window-maximized="1"
     inkscape:current-layer="svg3489" />
  <defs
     id="defs3491">
    <linearGradient
       id="linearGradient4806">
      <stop
         id="stop4808"
         style="stop-color:#ffffff;stop-opacity:1"
         offset="0" />
      <stop
         id="stop4810"
         style="stop-color:#ffffff;stop-opacity:0.23529412"
         offset="0.42447853" />
      <stop
         id="stop4812"
         style="stop-color:#ffffff;stop-opacity:0.15686275"
         offset="0.82089913" />
      <stop
         id="stop4814"
         style="stop-color:#ffffff;stop-opacity:0.39215687"
         offset="1" />
    </linearGradient>
    <radialGradient
       cx="23.896"
       cy="3.99"
       r="20.396999"
       id="radialGradient3093-0-3-6"
       gradientUnits="userSpaceOnUse"
       gradientTransform="matrix(0,1.2316483,-1.625754,0,18.486966,-28.721977)">
      <stop
         id="stop3244-9-33-7-0"
         style="stop-color:#ff9c44;stop-opacity:1;"
         offset="0" />
      <stop
         id="stop3248-1-7-8-8"
         style="stop-color:#ff7e0c;stop-opacity:1;"
         offset="0.66093999" />
      <stop
         id="stop3250-9-3-0-5"
         style="stop-color:#cb5f00;stop-opacity:1;"
         offset="1" />
    </radialGradient>
    <linearGradient
       id="linearGradient3820-7-2">
      <stop
         id="stop3822-2-6"
         style="stop-color:#3d3d3d;stop-opacity:1"
         offset="0" />
      <stop
         id="stop3864-8-7"
         style="stop-color:#686868;stop-opacity:0.49803922"
         offset="0.5" />
      <stop
         id="stop3824-1-2"
         style="stop-color:#686868;stop-opacity:0"
         offset="1" />
    </linearGradient>
    <radialGradient
       cx="23.896"
       cy="3.99"
       r="20.396999"
       id="radialGradient3887"
       gradientUnits="userSpaceOnUse"
       gradientTransform="matrix(0,1.2316483,-1.625754,0,18.486966,-28.721977)">
      <stop
         id="stop3889"
         style="stop-color:#323232;stop-opacity:1;"
         offset="0" />
      <stop
         id="stop3891"
         style="stop-color:#191919;stop-opacity:1;"
         offset="0.84763265" />
      <stop
         id="stop3893"
         style="stop-color:#0c0c0c;stop-opacity:1;"
         offset="1" />
    </radialGradient>
    <radialGradient
       inkscape:collect="always"
       xlink:href="#radialGradient3093-0-3-6"
       id="radialGradient3196"
       gradientUnits="userSpaceOnUse"
       gradientTransform="matrix(0,3.0649701,-2.2650546,0,68.222661,-78.729711)"
       cx="27.852608"
       cy="15.611503"
       fx="27.852608"
       fy="15.611503"
       r="16.795624" />
    <radialGradient
       inkscape:collect="always"
       xlink:href="#radialGradient3887"
       id="radialGradient3216"
       gradientUnits="userSpaceOnUse"
       gradientTransform="matrix(0,3.3703928,-3.109485,0,76.225178,-52.784321)"
       cx="26.562172"
       cy="4.0296049"
       fx="26.562172"
       fy="4.0296049"
       r="20.396999" />
    <linearGradient
       inkscape:collect="always"
       xlink:href="#linearGradient4806"
       id="linearGradient3219"
       gradientUnits="userSpaceOnUse"
       gradientTransform="matrix(4.6537492,0,0,4.6537492,-271.8895,-66.184279)"
       x1="71.204407"
       y1="15.369057"
       x2="71.204407"
       y2="40.495617" />
    <radialGradient
       inkscape:collect="always"
       xlink:href="#radialGradient3093-0-3-6"
       id="radialGradient3223"
       gradientUnits="userSpaceOnUse"
       gradientTransform="matrix(0,8.313307,-10.973418,0,107.78504,-195.3778)"
       cx="23.896"
       cy="3.99"
       fx="23.896"
       fy="3.99"
       r="20.396999" />
    <radialGradient
       inkscape:collect="always"
       xlink:href="#linearGradient3820-7-2"
       id="radialGradient3226"
       gradientUnits="userSpaceOnUse"
       gradientTransform="matrix(0.76470724,0,0,0.23897108,-11.826088,68.011909)"
       cx="99.157013"
       cy="186.17059"
       fx="99.157013"
       fy="186.17059"
       r="62.769119" />
    <radialGradient
       inkscape:collect="always"
       xlink:href="#radialGradient3887"
       id="radialGradient4008"
       cx="106.98295"
       cy="20.555515"
       fx="106.98295"
       fy="20.555515"
       r="5.25"
       gradientTransform="matrix(-3.9197234,-2.6770205e-8,2.7599757e-8,-4.0411872,526.32651,98.584185)"
       gradientUnits="userSpaceOnUse" />
  </defs>
  <metadata
     id="metadata3494">
    <rdf:RDF>
      <cc:Work
         rdf:about="">
        <dc:format>image/svg+xml</dc:format>
        <dc:type
           rdf:resource="http://purl.org/dc/dcmitype/StillImage" />
        <dc:title />
      </cc:Work>
    </rdf:RDF>
  </metadata>
  <g
     id="g4010">
    <path
       d="m 112,112.50128 a 48,15 0 1 1 -96.000002,0 48,15 0 1 1 96.000002,0 z"
       id="path3818-0"
       style="fill:url(#radialGradient3226);fill-opacity:1;stroke:none"
       inkscape:connector-curvature="0" />
    <path
       sodipodi:nodetypes="csscccc"
       inkscape:connector-curvature="0"
       id="path2555-7"
       d="m 64,4.5012865 c -32.554164,0 -59,26.4458345 -59,59.0000005 0,32.554166 26.445836,59.000013 59,59.000003 32.55416,0 59.00002,-26.445837 59,-59.000003 0,-19.813062 0,-22.317018 0,-35 0,-13.242372 -10.75763,-24.0000005 -24,-24.0000005 -14.159876,0 -22.45808,0 -35,0 z"
       style="color:#000000;fill:url(#radialGradient3223);fill-opacity:1;fill-rule:nonzero;stroke:none;stroke-width:0.5;marker:none;visibility:visible;display:inline;overflow:visible;enable-background:accumulate" />
    <path
       sodipodi:nodetypes="csscccc"
       inkscape:connector-curvature="0"
       id="path2555-7-1"
       d="m 64,4.5012865 c -32.554164,0 -59,26.4458345 -59,59.0000005 0,32.554166 26.445836,59.000013 59,59.000003 32.55416,0 59.00002,-26.445837 59,-59.000003 0,-18.4392 0,-22.44484 0,-35 0,-13.242372 -10.75763,-24.0000005 -24,-24.0000005 -15.775658,0 -22.266452,0 -35,0 z"
       style="opacity:0.7;color:#000000;fill:none;stroke:#803300;stroke-width:1;stroke-linecap:round;stroke-linejoin:round;stroke-miterlimit:4;stroke-opacity:1;stroke-dasharray:none;stroke-dashoffset:0;marker:none;visibility:visible;display:inline;overflow:visible;enable-background:accumulate" />
    <path
       sodipodi:nodetypes="csscccc"
       inkscape:connector-curvature="0"
       id="path3019"
       d="m 64,5.5012865 c -32.45247,0 -58.03125,26.5197685 -58.03125,58.0000005 0,32.253628 26.551052,57.984373 58.03125,57.984373 32.364124,0 57.99437,-26.504143 57.99437,-57.984373 0,-14.301418 0.006,-23.985684 0.006,-35 0,-13.284156 -10.95022,-22.9943695 -23,-22.9943695 -15.538178,0 -22.431264,-0.00563 -35,-0.00563 z"
       style="opacity:0.3;color:#000000;fill:none;stroke:url(#linearGradient3219);stroke-width:1;stroke-linecap:round;stroke-linejoin:round;stroke-miterlimit:4;stroke-opacity:1;stroke-dasharray:none;stroke-dashoffset:0;marker:none;visibility:visible;display:inline;overflow:visible;enable-background:accumulate" />
    <path
       d="m 63.999998,22.016879 c -22.889656,0 -41.484402,18.59474 -41.484402,41.484406 0,22.889664 18.594746,41.484405 41.484402,41.484405 22.889656,0 41.484432,-18.594741 41.484402,-41.484405 0,-22.889666 -18.594746,-41.484406 -41.484402,-41.484406 z"
       inkscape:connector-curvature="0"
       id="path3883"
       style="color:#000000;fill:url(#radialGradient3216);fill-opacity:1;fill-rule:nonzero;stroke:none;stroke-width:0.5;marker:none;visibility:visible;display:inline;overflow:visible;enable-background:accumulate" />
    <g
       transform="matrix(1.6637742,0,0,1.6637742,10.209343,11.127434)"
       id="g3184"
       style="stroke-width:0.60104311;stroke-miterlimit:4;stroke-dasharray:none">
      <path
         inkscape:connector-curvature="0"
         id="path3956"
         d="m 24.781986,21.513925 0,-5.362989 8.261902,0 9.348995,23.84356 3.768588,-1.376983 1.447551,5.40234 -9.419562,2.787091 -5.435461,-13.769837 -7.754593,12.537799 -6.884919,0 12.011904,-20.80523 -1.575817,-3.328223 z"
         style="fill:url(#radialGradient3196);fill-opacity:1;stroke:none" />
      <path
         style="opacity:0.5;fill:none;stroke:#000000;stroke-width:0.60104311;stroke-linecap:butt;stroke-linejoin:miter;stroke-miterlimit:4;stroke-opacity:1;stroke-dasharray:none"
         d="m 24.781986,21.513925 0,-5.362989 8.261902,0 9.348995,23.84356 3.768588,-1.376983 1.447551,5.40234 -9.419562,2.787091 -5.435461,-13.769837 -7.754593,12.537799 -6.884919,0 12.011904,-20.80523 -1.575817,-3.328223 z"
         id="path2987"
         inkscape:connector-curvature="0" />
    </g>
    <g
       id="text4009"
       style="font-size:24px;font-style:normal;font-variant:normal;font-weight:bold;font-stretch:normal;line-height:125%;letter-spacing:0px;word-spacing:0px;fill:url(#radialGradient4008);fill-opacity:1;stroke:none;font-family:Bebas;-inkscape-font-specification:Sans Bold">
      <path
         id="path3229"
         style="fill-opacity:1.0;fill:url(#radialGradient4008)"
         d="m 101.53409,20.785376 c 0,-2.022709 0.54545,-3.568162 1.63636,-4.636363 0.94318,-0.943161 2.18182,-1.414752 3.71591,-1.414773 1.40909,2.1e-5 2.60795,0.52843 3.59659,1.585227 0.99999,1.056837 1.49999,2.289791 1.5,3.698864 -1e-5,1.45456 -0.32387,2.857968 -0.97159,4.210227 -0.35228,0.750011 -1.17614,2.039783 -2.47159,3.869318 -0.35228,0.500008 -0.875,1.278416 -1.56818,2.335228 l -0.57954,0.869318 c -0.37501,0.568186 -0.6591,1.017049 -0.85228,1.346591 -0.0909,0.159094 -0.13637,0.255685 -0.13636,0.289773 l 6.32386,0.01705 0,3.153409 -10.24432,0 0,-2.948864 c 0,-0.06818 0.23864,-0.460223 0.71591,-1.176136 0.21591,-0.329541 0.46023,-0.693177 0.73296,-1.090909 l 0.83523,-1.210227 c 0.48863,-0.670448 1.25567,-1.74431 2.30113,-3.221591 0.98863,-1.386353 1.72727,-2.642033 2.21591,-3.767046 0.39772,-0.92044 0.59658,-1.778394 0.59659,-2.573863 -1e-5,-0.647711 -0.18182,-1.198847 -0.54545,-1.653409 -0.39774,-0.477255 -0.9091,-0.715891 -1.53409,-0.715909 -0.89774,1.8e-5 -1.5341,0.517063 -1.90909,1.551136 -0.12501,0.340925 -0.18751,0.750016 -0.1875,1.227273 l 0,0.818181 -3.17046,0 0,-0.5625" />
    </g>
    <g
       id="text4017"
       style="font-size:24px;font-style:normal;font-variant:normal;font-weight:bold;font-stretch:normal;line-height:125%;letter-spacing:0px;word-spacing:0px;opacity:0.69999999999999996;fill:none;fill-opacity:1;stroke:#000000;stroke-width:1;stroke-miterlimit:4;stroke-opacity:1;font-family:Bebas;-inkscape-font-specification:Sans Bold">
      <path
         style="fill:none;stroke:#000000;stroke-opacity:1.0"
         id="path3232"
         d="m 101.53409,20.785376 c 0,-2.022709 0.54545,-3.568162 1.63636,-4.636363 0.94318,-0.943161 2.18182,-1.414752 3.71591,-1.414773 1.40909,2.1e-5 2.60795,0.52843 3.59659,1.585227 0.99999,1.056837 1.49999,2.289791 1.5,3.698864 -1e-5,1.45456 -0.32387,2.857968 -0.97159,4.210227 -0.35228,0.750011 -1.17614,2.039783 -2.47159,3.869318 -0.35228,0.500008 -0.875,1.278416 -1.56818,2.335228 l -0.57954,0.869318 c -0.37501,0.568186 -0.6591,1.017049 -0.85228,1.346591 -0.0909,0.159094 -0.13637,0.255685 -0.13636,0.289773 l 6.32386,0.01705 0,3.153409 -10.24432,0 0,-2.948864 c 0,-0.06818 0.23864,-0.460223 0.71591,-1.176136 0.21591,-0.329541 0.46023,-0.693177 0.73296,-1.090909 l 0.83523,-1.210227 c 0.48863,-0.670448 1.25567,-1.74431 2.30113,-3.221591 0.98863,-1.386353 1.72727,-2.642033 2.21591,-3.767046 0.39772,-0.92044 0.59658,-1.778394 0.59659,-2.573863 -1e-5,-0.647711 -0.18182,-1.198847 -0.54545,-1.653409 -0.39774,-0.477255 -0.9091,-0.715891 -1.53409,-0.715909 -0.89774,1.8e-5 -1.5341,0.517063 -1.90909,1.551136 -0.12501,0.340925 -0.18751,0.750016 -0.1875,1.227273 l 0,0.818181 -3.17046,0 0,-0.5625" />
    </g>
    <path
       style="opacity:0.5;color:#000000;fill:none;stroke:#000000;stroke-width:1;stroke-miterlimit:4;stroke-opacity:1;stroke-dasharray:none;marker:none;visibility:visible;display:inline;overflow:visible;enable-background:accumulate"
       id="path4015"
       inkscape:connector-curvature="0"
       d="m 63.999998,22.016879 c -22.889656,0 -41.484402,18.59474 -41.484402,41.484406 0,22.889664 18.594746,41.484405 41.484402,41.484405 22.889656,0 41.484432,-18.594741 41.484402,-41.484405 0,-22.889666 -18.594746,-41.484406 -41.484402,-41.484406 z" />
  </g>
</svg>
