<?xml version="1.0" encoding="UTF-8" standalone="no"?>
<!-- Created with Inkscape (http://www.inkscape.org/) -->

<svg
   xmlns:dc="http://purl.org/dc/elements/1.1/"
   xmlns:cc="http://creativecommons.org/ns#"
   xmlns:rdf="http://www.w3.org/1999/02/22-rdf-syntax-ns#"
   xmlns:svg="http://www.w3.org/2000/svg"
   xmlns="http://www.w3.org/2000/svg"
   xmlns:xlink="http://www.w3.org/1999/xlink"
   xmlns:sodipodi="http://sodipodi.sourceforge.net/DTD/sodipodi-0.dtd"
   xmlns:inkscape="http://www.inkscape.org/namespaces/inkscape"
   version="1.1"
   width="128"
   height="128"
   id="svg5157"
   inkscape:version="0.91 r"
   sodipodi:docname="hangouts.svg">
  <sodipodi:namedview
     pagecolor="#ffffff"
     bordercolor="#666666"
     borderopacity="1"
     objecttolerance="10"
     gridtolerance="10"
     guidetolerance="10"
     inkscape:pageopacity="0"
     inkscape:pageshadow="2"
     inkscape:window-width="1920"
     inkscape:window-height="1025"
     id="namedview42"
     showgrid="false"
     inkscape:zoom="2.8284271"
     inkscape:cx="97.318276"
     inkscape:cy="29.249818"
     inkscape:window-x="0"
     inkscape:window-y="30"
     inkscape:window-maximized="1"
     inkscape:current-layer="svg5157" />
  <defs
     id="defs5159">
    <linearGradient
       id="linearGradient4246">
      <stop
         id="stop4248"
         style="stop-color:#ffffff;stop-opacity:1"
         offset="0" />
      <stop
         id="stop4250"
         style="stop-color:#ffffff;stop-opacity:0.23529412"
         offset="0.23521248" />
      <stop
         id="stop4252"
         style="stop-color:#ffffff;stop-opacity:0.15686275"
         offset="0.76404774" />
      <stop
         id="stop4254"
         style="stop-color:#ffffff;stop-opacity:0.39215687"
         offset="1" />
    </linearGradient>
    <linearGradient
       id="linearGradient3242-7-3-8-9-0-2">
      <stop
         id="stop3244-5-8-5-3-4-4"
         style="stop-color:#eef87e;stop-opacity:1"
         offset="0" />
      <stop
         id="stop3246-9-5-1-2-5-3"
         style="stop-color:#cde34f;stop-opacity:1"
         offset="0.26238" />
      <stop
         id="stop3248-7-2-0-84-2-0"
         style="stop-color:#93b723;stop-opacity:1"
         offset="0.66093999" />
      <stop
         id="stop3250-8-2-8-3-3-4"
         style="stop-color:#5a7e0d;stop-opacity:1"
         offset="1" />
    </linearGradient>
    <radialGradient
       cx="299.44821"
       cy="-290.5918"
       r="17.1528"
       fx="297.44989"
       fy="-289.9133"
       id="XMLID_2_-8"
       gradientUnits="userSpaceOnUse"
       gradientTransform="matrix(0.8232,0.2312,0.2703,-0.9626,-96.2274,-315.3433)">
      <stop
         id="stop228-2"
         style="stop-color:#000000;stop-opacity:1"
         offset="0" />
      <stop
         id="stop230-7"
         style="stop-color:#000000;stop-opacity:0"
         offset="1" />
    </radialGradient>
    <linearGradient
       id="linearGradient2867-449-88-871-390-598-476-591-434-148-57-177-3-8-6">
      <stop
         id="stop3750-8-9-0"
         style="stop-color:#a4a4a4;stop-opacity:1;"
         offset="0" />
      <stop
         id="stop3752-3-2-8"
         style="stop-color:#969696;stop-opacity:1;"
         offset="0.26238" />
      <stop
         id="stop3754-7-2-7"
         style="stop-color:#8e8e8e;stop-opacity:1;"
         offset="0.704952" />
      <stop
         id="stop3756-9-3-6"
         style="stop-color:#666666;stop-opacity:1;"
         offset="1" />
    </linearGradient>
    <linearGradient
       id="linearGradient3820-7-2-8-6">
      <stop
         id="stop3822-2-6-5-0"
         style="stop-color:#3d3d3d;stop-opacity:1"
         offset="0" />
      <stop
         id="stop3864-8-7-4-1"
         style="stop-color:#686868;stop-opacity:0.49803922"
         offset="0.5" />
      <stop
         id="stop3824-1-2-6-7"
         style="stop-color:#686868;stop-opacity:0"
         offset="1" />
    </linearGradient>
    <linearGradient
       x1="71.204407"
       y1="6.8949885"
       x2="71.204407"
       y2="44.00914"
       id="linearGradient5267"
       xlink:href="#linearGradient4246"
       gradientUnits="userSpaceOnUse"
       gradientTransform="matrix(2.7567564,0,0,2.7567564,-133.25186,-67.905563)" />
    <radialGradient
       cx="18.164446"
       cy="8.449769"
       r="19.99999"
       fx="8.894803"
       fy="8.5985041"
       id="radialGradient5270"
       xlink:href="#linearGradient3242-7-3-8-9-0-2"
       gradientUnits="userSpaceOnUse"
       gradientTransform="matrix(0,3.5027864,-3.3090405,-4.0448548e-8,92.459105,-62.015358)" />
    <linearGradient
       x1="-1085.9586"
       y1="539.40955"
       x2="-474.68497"
       y2="375.61926"
       id="linearGradient5275"
       xlink:href="#XMLID_2_-8"
       gradientUnits="userSpaceOnUse"
       gradientTransform="matrix(0.17796026,0,0,0.14954125,216.71264,-67.15218)" />
    <radialGradient
       cx="15.645058"
       cy="8.449769"
       r="19.99999"
       fx="-0.12323578"
       fy="8.44977"
       id="radialGradient5279"
       xlink:href="#linearGradient2867-449-88-871-390-598-476-591-434-148-57-177-3-8-6"
       gradientUnits="userSpaceOnUse"
       gradientTransform="matrix(-1.7030133e-7,2.7986346,-2.6367191,-1.9276587e-7,86.77997,-49.34197)" />
    <radialGradient
       cx="99.157013"
       cy="186.17059"
       r="62.769119"
       fx="99.157013"
       fy="186.17059"
       id="radialGradient5282"
       xlink:href="#linearGradient3820-7-2-8-6"
       gradientUnits="userSpaceOnUse"
       gradientTransform="matrix(1,0,0,0.1666667,0,155.14216)" />
    <radialGradient
       cx="99.157013"
       cy="186.17059"
       r="62.769119"
       fx="99.157013"
       fy="186.17059"
       id="radialGradient5015"
       xlink:href="#linearGradient3820-7-2-8-6"
       gradientUnits="userSpaceOnUse"
       gradientTransform="matrix(0.33538589,0,0,0.05027819,-155.2138,79.948713)" />
    <radialGradient
       inkscape:collect="always"
       xlink:href="#linearGradient4230"
       id="radialGradient4215"
       cx="29.849619"
       cy="11.825511"
       fx="29.849619"
       fy="11.825511"
       r="23.874746"
       gradientTransform="matrix(0,2.433949,-2.9903952,0,-86.594989,-40.1869)"
       gradientUnits="userSpaceOnUse" />
    <linearGradient
       id="linearGradient4230">
      <stop
         offset="0"
         style="stop-color:#87deaa;stop-opacity:1"
         id="stop4232" />
      <stop
         offset="0.26238"
         style="stop-color:#37c871;stop-opacity:1"
         id="stop4234" />
      <stop
         offset="0.704952"
         style="stop-color:#2ca05a;stop-opacity:1"
         id="stop4236" />
      <stop
         offset="1"
         style="stop-color:#217844;stop-opacity:1"
         id="stop4238" />
    </linearGradient>
    <linearGradient
       inkscape:collect="always"
       xlink:href="#linearGradient4806"
       id="linearGradient4205"
       x1="32.4375"
       y1="-5.3736515"
       x2="32.4375"
       y2="66.12339"
       gradientUnits="userSpaceOnUse"
       gradientTransform="translate(-153.95794,28.839363)" />
    <linearGradient
       id="linearGradient4806">
      <stop
         id="stop4808"
         style="stop-color:#ffffff;stop-opacity:1"
         offset="0" />
      <stop
         id="stop4810"
         style="stop-color:#ffffff;stop-opacity:0.23529412"
         offset="0.42447853" />
      <stop
         id="stop4812"
         style="stop-color:#ffffff;stop-opacity:0.15686275"
         offset="0.82089913" />
      <stop
         id="stop4814"
         style="stop-color:#ffffff;stop-opacity:0.39215687"
         offset="1" />
    </linearGradient>
  </defs>
  <metadata
     id="metadata5162">
    <rdf:RDF>
      <cc:Work
         rdf:about="">
        <dc:format>image/svg+xml</dc:format>
        <dc:type
           rdf:resource="http://purl.org/dc/dcmitype/StillImage" />
        <dc:title />
      </cc:Work>
    </rdf:RDF>
  </metadata>
  <g
     id="g4223">
    <g
       id="layer1"
       transform="matrix(0.64632468,0,0,0.35058749,22.668189,101.66748)">
      <path
         style="fill:url(#radialGradient5282);fill-opacity:1;stroke:none"
         id="path3818-0-5-0"
         transform="matrix(0.6869404,0,0,1.2877013,-4.02174,-195.20343)"
         d="m 161.92613,186.17059 a 62.769119,10.461519 0 1 1 -125.538236,0 62.769119,10.461519 0 1 1 125.538236,0 z"
         inkscape:connector-curvature="0" />
    </g>
    <g
       transform="matrix(1.745375,0,0,1.745375,8.8196545,13.775932)"
       id="g4246">
      <g
         id="g4234">
        <path
           transform="matrix(1.0098874,0,0,1.0098874,154.77892,-31.525046)"
           style="fill:url(#radialGradient4215);fill-opacity:1;fill-rule:evenodd;stroke:none;stroke-width:1.25050831px;stroke-linecap:butt;stroke-linejoin:miter;stroke-opacity:1"
           d="m -98.083194,55.214109 c 0,6.59283 -2.735836,22.950301 -23.819496,35.122954 0,-6.996023 -0.0552,-8.180083 -0.0552,-11.248207 -13.18566,0 -23.87475,-10.689088 -23.87475,-23.874747 0,-13.185658 10.68909,-23.874746 23.87475,-23.874746 13.18566,0 23.874745,10.689088 23.874746,23.874746 z"
           id="path4187"
           inkscape:connector-curvature="0"
           sodipodi:nodetypes="sccsss" />
        <path
           transform="matrix(1.0098874,0,0,1.0098874,154.77892,-31.525046)"
           sodipodi:nodetypes="cccscc"
           inkscape:connector-curvature="0"
           id="path4197"
           d="m -98.652612,55.212755 c 0,9.698559 -5.694598,24.214531 -22.687728,34.125911 0,-6.529347 -0.0676,-8.609311 -0.0676,-10.843686 -14.39826,0 -23.83983,-11.131447 -23.83983,-23.282225 0,-13.037237 10.64262,-23.313252 23.28982,-23.313253 14.66214,0 23.305338,12.089104 23.305338,23.313253 z"
           style="opacity:0.5;fill:none;stroke:url(#linearGradient4205);stroke-width:0.56733334" />
        <path
           sodipodi:nodetypes="sccsss"
           inkscape:connector-curvature="0"
           id="path4240"
           d="m -98.083194,55.214109 c 0,6.59283 -2.735836,22.950301 -23.819496,35.122954 0,-6.996023 -0.0552,-8.180083 -0.0552,-11.248207 -13.18566,0 -23.87475,-10.689088 -23.87475,-23.874747 0,-13.185658 10.68909,-23.874746 23.87475,-23.874746 13.18566,0 23.874745,10.689088 23.874746,23.874746 z"
           style="opacity:0.7;fill:none;fill-opacity:1;fill-rule:evenodd;stroke:#16502d;stroke-width:0.56733334;stroke-linecap:butt;stroke-linejoin:miter;stroke-opacity:1"
           transform="matrix(1.0098874,0,0,1.0098874,154.77892,-31.525046)" />
      </g>
    </g>
    <g
       transform="translate(3.1875895,0)"
       id="g4216">
      <path
         transform="matrix(1.745375,0,0,1.745375,8.8196545,13.775932)"
         style="opacity:1;fill:#ffffff;fill-opacity:1;stroke:none;stroke-width:1;stroke-opacity:1"
         d="m 17.687708,18.038058 6.528672,0 c 1.166737,0 2.106023,0.939287 2.106023,2.106024 l 0,6.528672 c 0,3.378061 -5.436734,7.747979 -5.42301,6.581323 l 0.05265,-4.4753 -3.264336,0 c -1.166737,0 -2.106023,-0.939286 -2.106023,-2.106023 l 0,-6.528672 c 0,-1.166737 0.939286,-2.106024 2.106028,-2.106024 z"
         id="rect4241"
         inkscape:connector-curvature="0"
         sodipodi:nodetypes="ssssscssss" />
      <path
         transform="matrix(1.745375,0,0,1.745375,8.8196545,13.775932)"
         sodipodi:nodetypes="ssssscssss"
         inkscape:connector-curvature="0"
         id="path4244"
         d="m 35.361373,18.038058 6.528672,0 c 1.166737,0 2.106023,0.939287 2.106023,2.106024 l 0,6.528672 c 0,3.378061 -5.436734,7.747979 -5.42301,6.581323 l 0.05265,-4.4753 -3.264336,0 c -1.166737,0 -2.106023,-0.939286 -2.106023,-2.106023 l 0,-6.528672 c 0,-1.166737 0.939286,-2.106024 2.106028,-2.106024 z"
         style="opacity:1;fill:#ffffff;fill-opacity:1;stroke:none;stroke-width:1;stroke-opacity:1" />
      <g
         id="g4210">
        <path
           style="opacity:0.5;fill:none;fill-opacity:1;stroke:#005522;stroke-width:1;stroke-opacity:1"
           d="m 39.691338,45.259107 11.39498,0 c 2.036394,0 3.6758,1.639409 3.6758,3.675802 l 0,11.39498 c 0,5.895984 -9.489139,13.52313 -9.465187,11.486877 l 0.09189,-7.811077 -5.69749,0 c -2.036393,0 -3.6758,-1.639406 -3.6758,-3.6758 l 0,-11.39498 c 0,-2.036393 1.639407,-3.675802 3.675809,-3.675802 z"
           id="path4252"
           inkscape:connector-curvature="0"
           sodipodi:nodetypes="ssssscssss" />
        <path
           sodipodi:nodetypes="ssssscssss"
           inkscape:connector-curvature="0"
           id="path4254"
           d="m 70.53851,45.259107 11.39498,0 c 2.036394,0 3.6758,1.639409 3.6758,3.675802 l 0,11.39498 c 0,5.895984 -9.489139,13.52313 -9.465185,11.486877 l 0.09189,-7.811077 -5.69749,0 c -2.036393,0 -3.6758,-1.639406 -3.6758,-3.6758 l 0,-11.39498 c 0,-2.036393 1.639407,-3.675802 3.675809,-3.675802 z"
           style="opacity:0.5;fill:none;fill-opacity:1;stroke:#16502d;stroke-width:1;stroke-opacity:1" />
      </g>
    </g>
  </g>
</svg>
