<?xml version="1.0" encoding="UTF-8" standalone="no"?>
<!-- Created with Inkscape (http://www.inkscape.org/) -->

<svg
   xmlns:dc="http://purl.org/dc/elements/1.1/"
   xmlns:cc="http://creativecommons.org/ns#"
   xmlns:rdf="http://www.w3.org/1999/02/22-rdf-syntax-ns#"
   xmlns:svg="http://www.w3.org/2000/svg"
   xmlns="http://www.w3.org/2000/svg"
   xmlns:xlink="http://www.w3.org/1999/xlink"
   xmlns:sodipodi="http://sodipodi.sourceforge.net/DTD/sodipodi-0.dtd"
   xmlns:inkscape="http://www.inkscape.org/namespaces/inkscape"
   version="1.1"
   width="128"
   height="128"
   id="svg3489"
   inkscape:version="0.91 r13725"
   sodipodi:docname="kerbal.svg">
  <sodipodi:namedview
     pagecolor="#ffffff"
     bordercolor="#666666"
     borderopacity="1"
     objecttolerance="10"
     gridtolerance="10"
     guidetolerance="10"
     inkscape:pageopacity="0"
     inkscape:pageshadow="2"
     inkscape:window-width="1366"
     inkscape:window-height="745"
     id="namedview154"
     showgrid="false"
     inkscape:zoom="2.8284271"
     inkscape:cx="12.040203"
     inkscape:cy="43.278966"
     inkscape:window-x="1672"
     inkscape:window-y="274"
     inkscape:window-maximized="1"
     inkscape:current-layer="svg3489" />
  <defs
     id="defs3491">
    <linearGradient
       id="linearGradient4806">
      <stop
         id="stop4808"
         style="stop-color:#ffffff;stop-opacity:1"
         offset="0" />
      <stop
         id="stop4810"
         style="stop-color:#ffffff;stop-opacity:0.23529412"
         offset="0.42447853" />
      <stop
         id="stop4812"
         style="stop-color:#ffffff;stop-opacity:0.15686275"
         offset="0.82089913" />
      <stop
         id="stop4814"
         style="stop-color:#ffffff;stop-opacity:0.39215687"
         offset="1" />
    </linearGradient>
    <linearGradient
       id="linearGradient3820-7-2">
      <stop
         id="stop3822-2-6"
         style="stop-color:#3d3d3d;stop-opacity:1"
         offset="0" />
      <stop
         id="stop3864-8-7"
         style="stop-color:#686868;stop-opacity:0.49803922"
         offset="0.5" />
      <stop
         id="stop3824-1-2"
         style="stop-color:#686868;stop-opacity:0"
         offset="1" />
    </linearGradient>
    <linearGradient
       id="linearGradient2867-449-88-871-390-598-476-591-434-148-57-177-691-4-5">
      <stop
         id="stop7191-4-1"
         style="stop-color:#1b2d8d;stop-opacity:1;"
         offset="0" />
      <stop
         id="stop7197-2-6"
         style="stop-color:#2e2269;stop-opacity:1;"
         offset="1" />
    </linearGradient>
    <radialGradient
       cx="23.896"
       cy="3.99"
       r="20.396999"
       id="radialGradient3093-0-3-6-43"
       gradientUnits="userSpaceOnUse"
       gradientTransform="matrix(0,1.2316483,-1.625754,0,18.486966,-28.721977)">
      <stop
         id="stop3244-9-33-7-0-4"
         style="stop-color:#e84444;stop-opacity:1;"
         offset="0" />
      <stop
         id="stop3248-1-7-8-8-7"
         style="stop-color:#e01a1a;stop-opacity:1;"
         offset="0.66093999" />
      <stop
         id="stop3250-9-3-0-5-47"
         style="stop-color:#b31515;stop-opacity:1;"
         offset="1" />
    </radialGradient>
    <linearGradient
       inkscape:collect="always"
       xlink:href="#linearGradient4806"
       id="linearGradient3207"
       gradientUnits="userSpaceOnUse"
       gradientTransform="matrix(4.7361979,0,0,4.7361979,-277.84034,-67.983155)"
       x1="71.204407"
       y1="15.369057"
       x2="71.204407"
       y2="40.495617" />
    <radialGradient
       inkscape:collect="always"
       xlink:href="#linearGradient2867-449-88-871-390-598-476-591-434-148-57-177-691-4-5"
       id="radialGradient3211"
       gradientUnits="userSpaceOnUse"
       gradientTransform="matrix(0,8.313307,-10.973418,0,107.78504,-194.88062)"
       cx="23.896"
       cy="3.99"
       fx="23.896"
       fy="3.99"
       r="20.396999" />
    <radialGradient
       inkscape:collect="always"
       xlink:href="#linearGradient3820-7-2"
       id="radialGradient3214"
       gradientUnits="userSpaceOnUse"
       gradientTransform="matrix(0.76470724,0,0,0.23897108,-11.826088,68.509093)"
       cx="99.157013"
       cy="186.17059"
       fx="99.157013"
       fy="186.17059"
       r="62.769119" />
    <radialGradient
       inkscape:collect="always"
       xlink:href="#radialGradient3093-0-3-6-43"
       id="radialGradient3216"
       gradientUnits="userSpaceOnUse"
       gradientTransform="matrix(5.2233102e-8,3.191576,-2.5243034,4.1312567e-8,81.88773,-89.399639)"
       cx="31.768812"
       cy="19.854555"
       fx="31.768812"
       fy="19.854555"
       r="14.097457" />
  </defs>
  <metadata
     id="metadata3494">
    <rdf:RDF>
      <cc:Work
         rdf:about="">
        <dc:format>image/svg+xml</dc:format>
        <dc:type
           rdf:resource="http://purl.org/dc/dcmitype/StillImage" />
        <dc:title />
      </cc:Work>
    </rdf:RDF>
  </metadata>
  <g
     id="g3218">
    <path
       d="m 112,112.99847 a 48.000001,15 0 0 1 -96.000002,0 48.000001,15 0 1 1 96.000002,0 z"
       id="path3818-0"
       style="fill:url(#radialGradient3214);fill-opacity:1;stroke:none"
       inkscape:connector-curvature="0" />
    <path
       d="m 64,4.9984698 c -32.554164,0 -59,26.4458292 -59,58.9999952 0,32.554166 26.445836,59.000015 59,58.999995 32.55416,0 59.00002,-26.445829 59,-58.999995 C 123,31.444299 96.55416,4.9984698 64,4.9984698 z"
       id="path2555-7"
       style="color:#000000;fill:url(#radialGradient3211);fill-opacity:1;fill-rule:nonzero;stroke:none;stroke-width:1;marker:none;visibility:visible;display:inline;overflow:visible;enable-background:accumulate"
       inkscape:connector-curvature="0" />
    <path
       d="m 64,4.998469 c -32.554164,0 -59,26.44583 -59,58.999996 0,32.554166 26.445836,59.000015 59,58.999995 32.55416,0 59.00002,-26.445829 59,-58.999995 C 123,31.444299 96.55416,4.998469 64,4.998469 z"
       id="path2555-7-1"
       style="opacity:0.7;color:#000000;fill:none;stroke:#00002b;stroke-width:1;stroke-linecap:round;stroke-linejoin:round;stroke-miterlimit:4;stroke-opacity:1;stroke-dasharray:none;stroke-dashoffset:0;marker:none;visibility:visible;display:inline;overflow:visible;enable-background:accumulate"
       inkscape:connector-curvature="0" />
    <path
       d="m 122.00986,64 c 0,32.037954 -25.971925,58.00985 -58.00989,58.00985 C 31.962049,122.00985 5.9901393,96.037954 5.9901393,64 5.9901393,31.962044 31.962049,5.9901486 63.99997,5.9901486 96.037935,5.9901486 122.00986,31.962044 122.00986,64 z"
       id="path3019"
       style="opacity:0.3;color:#000000;fill:none;stroke:url(#linearGradient3207);stroke-width:1;stroke-linecap:round;stroke-linejoin:round;stroke-miterlimit:4;stroke-opacity:1;stroke-dasharray:none;stroke-dashoffset:0;marker:none;visibility:visible;display:inline;overflow:visible;enable-background:accumulate"
       inkscape:connector-curvature="0" />
    <g
       style="stroke-width:0.5;stroke-miterlimit:4;stroke-dasharray:none"
       transform="matrix(1.4142136,1.4142136,-1.4142136,1.4142136,64.089805,-28.852654)"
       id="g4015">
      <path
         style="fill:url(#radialGradient3216);fill-opacity:1;stroke:none"
         d="m 31.768813,8.6160919 c 0,0 -2.984784,4.5904621 -3.60154,7.2030801 -1.093009,6.6976 0.619751,14.58334 -0.334429,21.320973 -0.30497,1.138166 -9.955686,2.757652 -9.955686,3.935969 0,1.178316 9.122492,3.102773 9.955686,3.935969 0.833196,0.833196 2.757652,9.955685 3.935969,9.955685 1.178316,0 3.102773,-9.122489 3.935969,-9.955685 0.833196,-0.833196 9.955685,-2.757652 9.955685,-3.935969 0,-1.178317 -9.650715,-2.797802 -9.955685,-3.935969 -1.298669,-6.779174 1.053531,-14.843837 -0.334429,-21.320973 -0.616756,-2.612618 -3.60154,-7.2030801 -3.60154,-7.2030801 z"
         id="path3982"
         inkscape:connector-curvature="0"
         sodipodi:nodetypes="cccsssssccc" />
      <path
         sodipodi:nodetypes="cccsssssccc"
         inkscape:connector-curvature="0"
         id="path3997"
         d="m 31.768813,8.6160919 c 0,0 -2.984784,4.5904621 -3.60154,7.2030801 -1.093009,6.6976 0.619751,14.58334 -0.334429,21.320973 -0.30497,1.138166 -9.955686,2.757652 -9.955686,3.935969 0,1.178316 9.122492,3.102773 9.955686,3.935969 0.833196,0.833196 2.757652,9.955685 3.935969,9.955685 1.178316,0 3.102773,-9.122489 3.935969,-9.955685 0.833196,-0.833196 9.955685,-2.757652 9.955685,-3.935969 0,-1.178317 -9.650715,-2.797802 -9.955685,-3.935969 -1.298669,-6.779174 1.053531,-14.843837 -0.334429,-21.320973 -0.616756,-2.612618 -3.60154,-7.2030801 -3.60154,-7.2030801 z"
         style="opacity:0.9;fill:none;stroke:#ffffff;stroke-width:0.5;stroke-linejoin:round;stroke-miterlimit:4;stroke-opacity:1;stroke-dasharray:none" />
      <path
         sodipodi:type="star"
         style="opacity:0.9;fill:#ffffff;stroke:none"
         id="path3999"
         sodipodi:sides="4"
         sodipodi:cx="14.672466"
         sodipodi:cy="18.480001"
         sodipodi:r1="2.4890385"
         sodipodi:r2="0.99561542"
         sodipodi:arg1="1.5707963"
         sodipodi:arg2="2.3561945"
         inkscape:flatsided="false"
         inkscape:rounded="0.11"
         inkscape:randomized="0"
         d="m 14.672466,20.96904 c -0.211073,0 -0.554755,-1.635781 -0.704006,-1.785032 -0.149251,-0.149251 -1.785032,-0.492934 -1.785032,-0.704006 0,-0.211073 1.635781,-0.554756 1.785032,-0.704007 0.149251,-0.149251 0.492933,-1.785032 0.704006,-1.785032 0.211073,0 0.554756,1.635781 0.704007,1.785032 0.149251,0.149251 1.785032,0.492933 1.785032,0.704006 0,0.211073 -1.635781,0.554756 -1.785032,0.704007 -0.149251,0.149251 -0.492934,1.785032 -0.704007,1.785032 z"
         transform="translate(2.7400388,-1.9445436)" />
      <path
         sodipodi:type="star"
         style="opacity:0.9;fill:#ffffff;fill-opacity:1;stroke:none"
         id="path4001"
         sodipodi:sides="4"
         sodipodi:cx="12.904699"
         sodipodi:cy="32.091805"
         sodipodi:r1="2.3535213"
         sodipodi:r2="0.94140851"
         sodipodi:arg1="0.52359878"
         sodipodi:arg2="1.3089969"
         inkscape:flatsided="false"
         inkscape:rounded="0.11"
         inkscape:randomized="0"
         d="m 14.942909,33.268565 c -0.09979,0.172842 -1.601775,-0.319085 -1.794555,-0.26743 -0.192781,0.05166 -1.247573,1.228669 -1.420415,1.128879 -0.172843,-0.09979 0.319085,-1.601775 0.26743,-1.794555 -0.05166,-0.19278 -1.228669,-1.247573 -1.128879,-1.420415 0.09979,-0.172842 1.601774,0.319085 1.794555,0.26743 0.19278,-0.05166 1.247573,-1.228669 1.420415,-1.128879 0.172842,0.09979 -0.319085,1.601775 -0.26743,1.794555 0.05165,0.19278 1.228669,1.247573 1.128879,1.420415 z" />
      <path
         sodipodi:type="star"
         style="opacity:0.9;fill:#ffffff;fill-opacity:1;stroke:none"
         id="path4003"
         sodipodi:sides="4"
         sodipodi:cx="41.719299"
         sodipodi:cy="24.843962"
         sodipodi:r1="2.6882267"
         sodipodi:r2="1.0752907"
         sodipodi:arg1="0.78539816"
         sodipodi:arg2="1.5707963"
         inkscape:flatsided="false"
         inkscape:rounded="0.11"
         inkscape:randomized="0"
         d="m 43.620163,26.744825 c -0.161195,0.161195 -1.672899,-0.825573 -1.900864,-0.825573 -0.227964,0 -1.739668,0.986768 -1.900863,0.825573 -0.161195,-0.161195 0.825573,-1.672899 0.825573,-1.900863 0,-0.227965 -0.986768,-1.739669 -0.825573,-1.900864 0.161195,-0.161195 1.672899,0.825573 1.900863,0.825573 0.227965,0 1.739669,-0.986768 1.900864,-0.825573 0.161195,0.161195 -0.825573,1.672899 -0.825573,1.900864 0,0.227964 0.986768,1.739668 0.825573,1.900863 z" />
      <path
         sodipodi:type="star"
         style="opacity:0.9;fill:#ffffff;fill-opacity:1;stroke:none"
         id="path4005"
         sodipodi:sides="4"
         sodipodi:cx="51.530407"
         sodipodi:cy="30.677593"
         sodipodi:r1="3.5630481"
         sodipodi:r2="1.4252193"
         sodipodi:arg1="1.0471976"
         sodipodi:arg2="1.8325957"
         inkscape:flatsided="false"
         inkscape:rounded="0.11"
         inkscape:randomized="0"
         d="m 53.311931,33.763284 c -0.26167,0.151074 -1.858543,-1.630832 -2.150398,-1.709035 -0.291854,-0.0782 -2.565741,0.666538 -2.716816,0.404868 -0.151075,-0.261669 1.630832,-1.858543 1.709034,-2.150398 0.0782,-0.291854 -0.666538,-2.565741 -0.404868,-2.716816 0.26167,-0.151075 1.858543,1.630832 2.150398,1.709034 0.291854,0.0782 2.565741,-0.666537 2.716816,-0.404868 0.151075,0.26167 -1.630832,1.858544 -1.709034,2.150398 -0.0782,0.291855 0.666537,2.565742 0.404868,2.716817 z" />
      <path
         sodipodi:type="star"
         style="opacity:0.9;fill:#ffffff;fill-opacity:1;stroke:none"
         id="path4007"
         sodipodi:sides="4"
         sodipodi:cx="45.873554"
         sodipodi:cy="15.121244"
         sodipodi:r1="2.375"
         sodipodi:r2="0.95000005"
         sodipodi:arg1="0.78539816"
         sodipodi:arg2="1.5707963"
         inkscape:flatsided="false"
         inkscape:rounded="0.11"
         inkscape:randomized="0"
         d="m 47.552933,16.800623 c -0.142413,0.142413 -1.477976,-0.729379 -1.679379,-0.729379 -0.201402,0 -1.536965,0.871792 -1.679378,0.729379 -0.142413,-0.142413 0.729378,-1.477976 0.729378,-1.679379 0,-0.201402 -0.871791,-1.536965 -0.729378,-1.679378 0.142413,-0.142413 1.477976,0.729378 1.679378,0.729378 0.201403,0 1.536966,-0.871791 1.679379,-0.729378 0.142413,0.142413 -0.729379,1.477976 -0.729379,1.679378 0,0.201403 0.871792,1.536966 0.729379,1.679379 z" />
      <path
         sodipodi:type="star"
         style="opacity:0.9;fill:#ffffff;fill-opacity:1;stroke:none"
         id="path4009"
         sodipodi:sides="4"
         sodipodi:cx="41.365746"
         sodipodi:cy="50.299805"
         sodipodi:r1="2.625"
         sodipodi:r2="1.05"
         sodipodi:arg1="0.78539816"
         sodipodi:arg2="1.5707963"
         inkscape:flatsided="false"
         inkscape:rounded="0.11"
         inkscape:randomized="0"
         d="m 43.221901,52.15596 c -0.157404,0.157404 -1.633553,-0.806155 -1.856155,-0.806155 -0.222603,0 -1.698752,0.963559 -1.856156,0.806155 -0.157404,-0.157404 0.806156,-1.633553 0.806156,-1.856155 0,-0.222603 -0.96356,-1.698752 -0.806156,-1.856156 0.157404,-0.157403 1.633553,0.806156 1.856156,0.806156 0.222602,0 1.698751,-0.963559 1.856155,-0.806156 0.157404,0.157404 -0.806156,1.633553 -0.806156,1.856156 0,0.222602 0.96356,1.698751 0.806156,1.856155 z" />
      <path
         sodipodi:type="star"
         style="opacity:0.9;fill:#ffffff;fill-opacity:1;stroke:none"
         id="path4011"
         sodipodi:sides="4"
         sodipodi:cx="18.915106"
         sodipodi:cy="47.559769"
         sodipodi:r1="2.5693505"
         sodipodi:r2="1.0277402"
         sodipodi:arg1="1.5707963"
         sodipodi:arg2="2.3561945"
         inkscape:flatsided="false"
         inkscape:rounded="0.11"
         inkscape:randomized="0"
         d="m 18.915106,50.129119 c -0.217884,0 -0.572655,-1.688561 -0.726722,-1.842628 -0.154067,-0.154067 -1.842629,-0.508839 -1.842629,-0.726722 0,-0.217884 1.688562,-0.572656 1.842629,-0.726722 0.154067,-0.154067 0.508838,-1.842629 0.726722,-1.842629 0.217883,0 0.572655,1.688562 0.726722,1.842629 0.154067,0.154066 1.842628,0.508838 1.842628,0.726722 0,0.217883 -1.688561,0.572655 -1.842628,0.726722 -0.154067,0.154067 -0.508839,1.842628 -0.726722,1.842628 z" />
      <path
         sodipodi:type="star"
         style="opacity:0.9;fill:#ffffff;fill-opacity:1;stroke:none"
         id="path4013"
         sodipodi:sides="4"
         sodipodi:cx="21.831923"
         sodipodi:cy="14.414137"
         sodipodi:r1="2.1360009"
         sodipodi:r2="0.85440034"
         sodipodi:arg1="1.0471976"
         sodipodi:arg2="1.8325957"
         inkscape:flatsided="false"
         inkscape:rounded="0.11"
         inkscape:randomized="0"
         d="m 22.899923,16.263968 c -0.156868,0.09057 -1.114173,-0.977663 -1.289136,-1.024544 -0.174962,-0.04688 -1.538128,0.399581 -1.628696,0.242713 -0.09057,-0.156867 0.977663,-1.114172 1.024544,-1.289135 0.04688,-0.174963 -0.39958,-1.538129 -0.242713,-1.628696 0.156868,-0.09057 1.114173,0.977662 1.289136,1.024544 0.174963,0.04688 1.538128,-0.399581 1.628696,-0.242713 0.09057,0.156867 -0.977663,1.114172 -1.024544,1.289135 -0.04688,0.174963 0.39958,1.538128 0.242713,1.628696 z"
         transform="translate(-0.35355339,11.313709)" />
    </g>
  </g>
</svg>
