<?xml version="1.0" encoding="UTF-8" standalone="no"?>
<!-- Created with Inkscape (http://www.inkscape.org/) -->

<svg
   xmlns:dc="http://purl.org/dc/elements/1.1/"
   xmlns:cc="http://creativecommons.org/ns#"
   xmlns:rdf="http://www.w3.org/1999/02/22-rdf-syntax-ns#"
   xmlns:svg="http://www.w3.org/2000/svg"
   xmlns="http://www.w3.org/2000/svg"
   xmlns:xlink="http://www.w3.org/1999/xlink"
   xmlns:sodipodi="http://sodipodi.sourceforge.net/DTD/sodipodi-0.dtd"
   xmlns:inkscape="http://www.inkscape.org/namespaces/inkscape"
   version="1.1"
   width="128"
   height="128"
   id="svg3489"
   inkscape:version="0.48.4 r9939"
   sodipodi:docname="left4dead.svg">
  <sodipodi:namedview
     pagecolor="#ffffff"
     bordercolor="#666666"
     borderopacity="1"
     objecttolerance="10"
     gridtolerance="10"
     guidetolerance="10"
     inkscape:pageopacity="0"
     inkscape:pageshadow="2"
     inkscape:window-width="1920"
     inkscape:window-height="1025"
     id="namedview154"
     showgrid="true"
     inkscape:zoom="2.8284271"
     inkscape:cx="105.13513"
     inkscape:cy="61.050285"
     inkscape:window-x="0"
     inkscape:window-y="30"
     inkscape:window-maximized="1"
     inkscape:current-layer="svg3489" />
  <defs
     id="defs3491">
    <linearGradient
       x1="38.851257"
       y1="41.608219"
       x2="34.130882"
       y2="37.809635"
       id="linearGradient6436-9"
       xlink:href="#linearGradient6455-7"
       gradientUnits="userSpaceOnUse" />
    <linearGradient
       id="linearGradient6455-7">
      <stop
         id="stop6457-5"
         style="stop-color:#fbac9b;stop-opacity:1"
         offset="0" />
      <stop
         id="stop6459-8"
         style="stop-color:#fcfafc;stop-opacity:1"
         offset="1" />
    </linearGradient>
    <linearGradient
       x1="38.851257"
       y1="41.608219"
       x2="34.130882"
       y2="37.809635"
       id="linearGradient6419-5"
       xlink:href="#linearGradient6413-0"
       gradientUnits="userSpaceOnUse" />
    <linearGradient
       id="linearGradient6413-0">
      <stop
         id="stop6415-1"
         style="stop-color:#feffff;stop-opacity:1"
         offset="0" />
      <stop
         id="stop6417-4"
         style="stop-color:#fe70ca;stop-opacity:1"
         offset="1" />
    </linearGradient>
    <radialGradient
       cx="36.49107"
       cy="39.708927"
       r="3.1589286"
       fx="36.49107"
       fy="39.708927"
       id="radialGradient6360-8"
       xlink:href="#linearGradient6303-33-0"
       gradientUnits="userSpaceOnUse" />
    <linearGradient
       id="linearGradient6303-33-0">
      <stop
         id="stop6305-1-0"
         style="stop-color:#ffffff;stop-opacity:1"
         offset="0" />
      <stop
         id="stop6307-5-0"
         style="stop-color:#ffffff;stop-opacity:0"
         offset="1" />
    </linearGradient>
    <radialGradient
       cx="36.49107"
       cy="39.708927"
       r="3.1589286"
       fx="36.49107"
       fy="39.708927"
       id="radialGradient6326-0"
       xlink:href="#linearGradient6303-3-2"
       gradientUnits="userSpaceOnUse" />
    <linearGradient
       id="linearGradient6303-3-2">
      <stop
         id="stop6305-3-0"
         style="stop-color:#ffffff;stop-opacity:1"
         offset="0" />
      <stop
         id="stop6307-1-0"
         style="stop-color:#ffffff;stop-opacity:0"
         offset="1" />
    </linearGradient>
    <radialGradient
       cx="36.49107"
       cy="39.708927"
       r="3.1589286"
       fx="36.49107"
       fy="39.708927"
       id="radialGradient6309-9"
       xlink:href="#linearGradient6303-4"
       gradientUnits="userSpaceOnUse" />
    <linearGradient
       id="linearGradient6303-4">
      <stop
         id="stop6305-33"
         style="stop-color:#ffffff;stop-opacity:1"
         offset="0" />
      <stop
         id="stop6307-9"
         style="stop-color:#ffffff;stop-opacity:0"
         offset="1" />
    </linearGradient>
    <radialGradient
       cx="32.372566"
       cy="31.405056"
       r="3.857446"
       fx="32.372566"
       fy="31.405056"
       id="radialGradient6276-9"
       xlink:href="#linearGradient6088-6-1"
       gradientUnits="userSpaceOnUse"
       gradientTransform="matrix(2.0664963,0,0,2.0664963,-34.525221,-33.493375)" />
    <linearGradient
       id="linearGradient6088-6-1">
      <stop
         id="stop6090-2-0"
         style="stop-color:#ff54d2;stop-opacity:0"
         offset="0" />
      <stop
         id="stop6257-4-6"
         style="stop-color:#ff54d2;stop-opacity:0"
         offset="0.32368398" />
      <stop
         id="stop6255-3-6"
         style="stop-color:#ff54d2;stop-opacity:0.2521739"
         offset="0.56140333" />
      <stop
         id="stop6092-9-6"
         style="stop-color:#ff54d2;stop-opacity:0.47826087"
         offset="1" />
    </linearGradient>
    <radialGradient
       cx="32.372566"
       cy="31.405056"
       r="3.857446"
       fx="32.372566"
       fy="31.405056"
       id="radialGradient6215-4-2"
       xlink:href="#linearGradient6191-8-3"
       gradientUnits="userSpaceOnUse"
       gradientTransform="matrix(2.0676498,0.55402509,-0.5348486,1.9960821,-17.765612,-49.217228)" />
    <linearGradient
       id="linearGradient6191-8-3">
      <stop
         id="stop6193-75-7"
         style="stop-color:#ffffff;stop-opacity:0"
         offset="0" />
      <stop
         id="stop6197-3-4"
         style="stop-color:#ffffff;stop-opacity:0"
         offset="0.40531859" />
      <stop
         id="stop6195-7-2"
         style="stop-color:#ffffff;stop-opacity:0.47826087"
         offset="1" />
    </linearGradient>
    <radialGradient
       cx="32.372566"
       cy="31.405056"
       r="3.857446"
       fx="32.372566"
       fy="31.405056"
       id="radialGradient6215-6"
       xlink:href="#linearGradient6191-7-9"
       gradientUnits="userSpaceOnUse"
       gradientTransform="matrix(2.0676498,0.55402509,-0.5348486,1.9960821,-17.765612,-49.217228)" />
    <linearGradient
       id="linearGradient6191-7-9">
      <stop
         id="stop6193-7-3"
         style="stop-color:#ffffff;stop-opacity:0"
         offset="0" />
      <stop
         id="stop6197-2-2"
         style="stop-color:#ffffff;stop-opacity:0"
         offset="0.40531859" />
      <stop
         id="stop6195-2-1"
         style="stop-color:#ffffff;stop-opacity:0.47826087"
         offset="1" />
    </linearGradient>
    <radialGradient
       cx="32.372566"
       cy="31.405056"
       r="3.857446"
       fx="32.372566"
       fy="31.405056"
       id="radialGradient6172-68"
       xlink:href="#linearGradient6191-9"
       gradientUnits="userSpaceOnUse"
       gradientTransform="matrix(2.0676498,0.55402509,-0.5348486,1.9960821,-17.765612,-49.217228)" />
    <linearGradient
       id="linearGradient6191-9">
      <stop
         id="stop6193-8"
         style="stop-color:#ffffff;stop-opacity:0"
         offset="0" />
      <stop
         id="stop6197-8"
         style="stop-color:#ffffff;stop-opacity:0"
         offset="0.40531859" />
      <stop
         id="stop6195-9"
         style="stop-color:#ffffff;stop-opacity:0.47826087"
         offset="1" />
    </linearGradient>
    <linearGradient
       x1="68.313301"
       y1="52.925316"
       x2="68.313301"
       y2="65.922028"
       id="linearGradient6137-8"
       xlink:href="#linearGradient3990-3-1"
       gradientUnits="userSpaceOnUse"
       gradientTransform="matrix(0.16581446,0,0,0.12436084,20.904625,22.576664)" />
    <linearGradient
       id="linearGradient3990-3-1">
      <stop
         id="stop3992-0-0"
         style="stop-color:#ffffff;stop-opacity:1"
         offset="0" />
      <stop
         id="stop3994-2-1"
         style="stop-color:#ffffff;stop-opacity:0"
         offset="1" />
    </linearGradient>
    <linearGradient
       x1="92.696327"
       y1="16.554602"
       x2="92.696327"
       y2="48.983677"
       id="linearGradient6153-0"
       xlink:href="#linearGradient4316-4-6-6"
       gradientUnits="userSpaceOnUse" />
    <linearGradient
       id="linearGradient4316-4-6-6">
      <stop
         id="stop4318-4-4-6"
         style="stop-color:#ffffff;stop-opacity:1"
         offset="0" />
      <stop
         id="stop4320-2-2-6"
         style="stop-color:#ffffff;stop-opacity:0.23529412"
         offset="0.33799788" />
      <stop
         id="stop4322-4-5-5"
         style="stop-color:#ffffff;stop-opacity:0.15686275"
         offset="0.61996669" />
      <stop
         id="stop4324-4-1-5"
         style="stop-color:#ffffff;stop-opacity:0.39215687"
         offset="1" />
    </linearGradient>
    <radialGradient
       cx="32.372566"
       cy="31.405056"
       r="3.857446"
       fx="32.372566"
       fy="31.405056"
       id="radialGradient6151-7"
       xlink:href="#linearGradient6088-74"
       gradientUnits="userSpaceOnUse"
       gradientTransform="matrix(2.0664963,0,0,2.0664963,-34.525221,-33.493375)" />
    <linearGradient
       id="linearGradient6088-74">
      <stop
         id="stop6090-5"
         style="stop-color:#ff54d2;stop-opacity:0"
         offset="0" />
      <stop
         id="stop6257-5"
         style="stop-color:#f62b68;stop-opacity:1"
         offset="0.32368398" />
      <stop
         id="stop6255-6"
         style="stop-color:#ff0105;stop-opacity:1"
         offset="0.56140333" />
      <stop
         id="stop6092-0"
         style="stop-color:#ff54d2;stop-opacity:0.47826087"
         offset="1" />
    </linearGradient>
    <linearGradient
       x1="92.696327"
       y1="16.554602"
       x2="92.696327"
       y2="48.983677"
       id="linearGradient5980-2"
       xlink:href="#linearGradient4316-4-0"
       gradientUnits="userSpaceOnUse" />
    <linearGradient
       id="linearGradient4316-4-0">
      <stop
         id="stop4318-4-5"
         style="stop-color:#ffffff;stop-opacity:1"
         offset="0" />
      <stop
         id="stop4320-2-9"
         style="stop-color:#ffffff;stop-opacity:0.23529412"
         offset="0.33799788" />
      <stop
         id="stop4322-4-1"
         style="stop-color:#ffffff;stop-opacity:0.15686275"
         offset="0.61996669" />
      <stop
         id="stop4324-4-8"
         style="stop-color:#ffffff;stop-opacity:0.39215687"
         offset="1" />
    </linearGradient>
    <radialGradient
       cx="95.838364"
       cy="95.388451"
       r="9.4981718"
       fx="95.838364"
       fy="95.388451"
       id="radialGradient6140-3"
       xlink:href="#linearGradient4278-3"
       gradientUnits="userSpaceOnUse"
       gradientTransform="matrix(0.57546739,-8.5809842e-8,8.0624837e-8,0.54069512,-23.241092,-19.788163)" />
    <linearGradient
       id="linearGradient4278-3">
      <stop
         id="stop4280-6"
         style="stop-color:#000000;stop-opacity:0"
         offset="0" />
      <stop
         id="stop4286-1"
         style="stop-color:#000000;stop-opacity:0"
         offset="0.5" />
      <stop
         id="stop4282-24"
         style="stop-color:#000000;stop-opacity:1"
         offset="1" />
    </linearGradient>
    <radialGradient
       cx="23.896"
       cy="3.99"
       r="20.396999"
       id="radialGradient6143-9"
       xlink:href="#linearGradient2867-449-88-871-390-598-476-591-434-148-57-177-691-4"
       gradientUnits="userSpaceOnUse"
       gradientTransform="matrix(0,0.52770403,-0.69656002,0,34.779273,14.552384)" />
    <linearGradient
       id="linearGradient2867-449-88-871-390-598-476-591-434-148-57-177-691-4">
      <stop
         id="stop7191-4"
         style="stop-color:#612f91;stop-opacity:1"
         offset="0" />
      <stop
         id="stop7197-2"
         style="stop-color:#1a4aa2;stop-opacity:1"
         offset="1" />
    </linearGradient>
    <linearGradient
       x1="7.0776"
       y1="3.0816"
       x2="7.0776"
       y2="45.368999"
       id="linearGradient6145-6"
       xlink:href="#linearGradient3087-408-5"
       gradientUnits="userSpaceOnUse"
       gradientTransform="matrix(0.22110591,0,0,0.22110594,26.693457,26.693296)" />
    <linearGradient
       x1="7.0776"
       y1="3.0816"
       x2="7.0776"
       y2="45.368999"
       id="linearGradient3087-408-5"
       gradientUnits="userSpaceOnUse"
       gradientTransform="matrix(0.22110724,0,0,0.22110728,6.6934256,6.693263)">
      <stop
         id="stop7201-5"
         style="stop-color:#170418;stop-opacity:1"
         offset="0" />
      <stop
         id="stop7203-2"
         style="stop-color:#50386b;stop-opacity:1"
         offset="1" />
    </linearGradient>
    <radialGradient
       cx="31.999998"
       cy="21.239277"
       r="10.498171"
       fx="31.999998"
       fy="21.239277"
       id="radialGradient6048-1"
       xlink:href="#linearGradient6042-1"
       gradientUnits="userSpaceOnUse"
       gradientTransform="matrix(0,2.0115211,-4.6336383,0,130.41512,-43.129397)" />
    <linearGradient
       id="linearGradient6042-1">
      <stop
         id="stop6044-9"
         style="stop-color:#07132d;stop-opacity:1"
         offset="0" />
      <stop
         id="stop6046-9"
         style="stop-color:#425479;stop-opacity:1"
         offset="1" />
    </linearGradient>
    <radialGradient
       cx="91.349998"
       cy="16.447752"
       r="15.639286"
       fx="91.349998"
       fy="16.447752"
       id="radialGradient5957-8"
       xlink:href="#linearGradient4507-6"
       gradientUnits="userSpaceOnUse"
       gradientTransform="matrix(0,1.9804002,-1.9804002,0,123.92313,-164.4618)" />
    <linearGradient
       id="linearGradient4507-6">
      <stop
         id="stop4509-3"
         style="stop-color:#2d3955;stop-opacity:1"
         offset="0" />
      <stop
         id="stop5959-4"
         style="stop-color:#2b3853;stop-opacity:1"
         offset="0.72468865" />
      <stop
         id="stop5961-1"
         style="stop-color:#192640;stop-opacity:1"
         offset="0.75" />
      <stop
         id="stop4511-1"
         style="stop-color:#08142e;stop-opacity:1"
         offset="1" />
    </linearGradient>
    <linearGradient
       x1="92.696327"
       y1="16.554602"
       x2="92.696327"
       y2="48.983677"
       id="linearGradient4314-4"
       xlink:href="#linearGradient4316-5"
       gradientUnits="userSpaceOnUse" />
    <linearGradient
       id="linearGradient4316-5">
      <stop
         id="stop4318-1"
         style="stop-color:#ffffff;stop-opacity:1"
         offset="0" />
      <stop
         id="stop4320-9"
         style="stop-color:#ffffff;stop-opacity:0.23529412"
         offset="0.33799788" />
      <stop
         id="stop4322-42"
         style="stop-color:#ffffff;stop-opacity:0.15686275"
         offset="0.61996669" />
      <stop
         id="stop4324-9"
         style="stop-color:#ffffff;stop-opacity:0.39215687"
         offset="1" />
    </linearGradient>
    <linearGradient
       x1="91.566116"
       y1="16.542858"
       x2="91.566116"
       y2="48.631081"
       id="linearGradient7103"
       xlink:href="#linearGradient4220-7"
       gradientUnits="userSpaceOnUse" />
    <linearGradient
       id="linearGradient4220-7">
      <stop
         id="stop4222-7"
         style="stop-color:#7a8498;stop-opacity:1"
         offset="0" />
      <stop
         id="stop4224-0"
         style="stop-color:#34405c;stop-opacity:1"
         offset="1" />
    </linearGradient>
    <linearGradient
       x1="51.199997"
       y1="8.1142893"
       x2="51.199997"
       y2="56.114563"
       id="linearGradient4170"
       xlink:href="#linearGradient4164"
       gradientUnits="userSpaceOnUse"
       gradientTransform="matrix(0.95833332,0,0,0.95833332,-17.176189,1.3333338)" />
    <linearGradient
       id="linearGradient4164">
      <stop
         id="stop4166"
         style="stop-color:#b6b6b6;stop-opacity:1"
         offset="0" />
      <stop
         id="stop4216"
         style="stop-color:#a4a4a4;stop-opacity:1"
         offset="0.33095336" />
      <stop
         id="stop4168"
         style="stop-color:#c5c5c5;stop-opacity:1"
         offset="1" />
    </linearGradient>
    <linearGradient
       x1="71.204407"
       y1="15.369057"
       x2="71.204407"
       y2="40.495617"
       id="linearGradient5013"
       xlink:href="#linearGradient4806"
       gradientUnits="userSpaceOnUse"
       gradientTransform="matrix(2.3268746,0,0,2.3268746,-135.94475,-32.842783)" />
    <linearGradient
       id="linearGradient4806">
      <stop
         id="stop4808"
         style="stop-color:#ffffff;stop-opacity:1"
         offset="0" />
      <stop
         id="stop4810"
         style="stop-color:#ffffff;stop-opacity:0.23529412"
         offset="0.42447853" />
      <stop
         id="stop4812"
         style="stop-color:#ffffff;stop-opacity:0.15686275"
         offset="0.82089913" />
      <stop
         id="stop4814"
         style="stop-color:#ffffff;stop-opacity:0.39215687"
         offset="1" />
    </linearGradient>
    <radialGradient
       cx="23.896"
       cy="3.99"
       r="20.396999"
       fx="23.896"
       fy="3.99"
       id="radialGradient6874-1-9"
       xlink:href="#radialGradient3093-0-3-6"
       gradientUnits="userSpaceOnUse"
       gradientTransform="matrix(0,4.1566535,-5.4867089,0,53.892518,-97.439545)" />
    <radialGradient
       cx="23.896"
       cy="3.99"
       r="20.396999"
       id="radialGradient3093-0-3-6"
       gradientUnits="userSpaceOnUse"
       gradientTransform="matrix(0,1.2316483,-1.625754,0,18.486966,-28.721977)">
      <stop
         id="stop3244-9-33-7-0"
         style="stop-color:#815a5a;stop-opacity:1;"
         offset="0" />
      <stop
         id="stop3246-3-5-0-8"
         style="stop-color:#593e3e;stop-opacity:1;"
         offset="0.26238" />
      <stop
         id="stop3248-1-7-8-8"
         style="stop-color:#2f2121;stop-opacity:1;"
         offset="0.66093999" />
      <stop
         id="stop3250-9-3-0-5"
         style="stop-color:#150f0f;stop-opacity:1;"
         offset="1" />
    </radialGradient>
    <linearGradient
       id="linearGradient3820-7-2">
      <stop
         id="stop3822-2-6"
         style="stop-color:#3d3d3d;stop-opacity:1"
         offset="0" />
      <stop
         id="stop3864-8-7"
         style="stop-color:#686868;stop-opacity:0.49803922"
         offset="0.5" />
      <stop
         id="stop3824-1-2"
         style="stop-color:#686868;stop-opacity:0"
         offset="1" />
    </linearGradient>
    <radialGradient
       cx="99.157013"
       cy="186.17059"
       r="62.769119"
       fx="99.157013"
       fy="186.17059"
       id="radialGradient3487"
       xlink:href="#linearGradient3820-7-2"
       gradientUnits="userSpaceOnUse"
       gradientTransform="matrix(1,0,0,0.1666667,0,155.14216)" />
    <linearGradient
       inkscape:collect="always"
       xlink:href="#linearGradient6455-7"
       id="linearGradient3132"
       gradientUnits="userSpaceOnUse"
       x1="38.851257"
       y1="41.608219"
       x2="34.130882"
       y2="37.809635"
       gradientTransform="matrix(0.3803794,0,0,0.39792162,13.913761,13.556489)" />
    <linearGradient
       inkscape:collect="always"
       xlink:href="#linearGradient6413-0"
       id="linearGradient3135"
       gradientUnits="userSpaceOnUse"
       x1="38.851257"
       y1="41.608219"
       x2="34.130882"
       y2="37.809635"
       gradientTransform="matrix(0.5438829,0,0,0.56896553,6.9717407,5.743923)" />
    <radialGradient
       inkscape:collect="always"
       xlink:href="#linearGradient6303-33-0"
       id="radialGradient3138"
       gradientUnits="userSpaceOnUse"
       cx="36.49107"
       cy="39.708927"
       fx="36.49107"
       fy="39.708927"
       r="3.1589286"
       gradientTransform="matrix(0.5438829,0,0,0.56896553,11.534405,8.5055355)" />
    <radialGradient
       inkscape:collect="always"
       xlink:href="#linearGradient6303-3-2"
       id="radialGradient3141"
       gradientUnits="userSpaceOnUse"
       cx="36.49107"
       cy="39.708927"
       fx="36.49107"
       fy="39.708927"
       r="3.1589286"
       gradientTransform="matrix(1.9066219,-1.1007887,0.62631081,1.0848021,-69.064447,21.714946)" />
    <radialGradient
       inkscape:collect="always"
       xlink:href="#linearGradient6303-4"
       id="radialGradient3144"
       gradientUnits="userSpaceOnUse"
       cx="36.49107"
       cy="39.708927"
       fx="36.49107"
       fy="39.708927"
       r="3.1589286"
       gradientTransform="matrix(2.3693784,-1.3679613,0.7783228,1.3480947,-80.222877,35.170011)" />
    <radialGradient
       inkscape:collect="always"
       xlink:href="#linearGradient6088-6-1"
       id="radialGradient3147"
       gradientUnits="userSpaceOnUse"
       gradientTransform="matrix(-1.5152343,-1.5152343,1.5152343,-1.5152343,33.466002,126.65225)"
       cx="32.372566"
       cy="31.405056"
       fx="32.372566"
       fy="31.405056"
       r="3.857446" />
    <radialGradient
       inkscape:collect="always"
       xlink:href="#linearGradient6191-8-3"
       id="radialGradient3150"
       gradientUnits="userSpaceOnUse"
       gradientTransform="matrix(1.2971465,1.801238,-1.7388916,1.2522482,44.616605,-65.651729)"
       cx="32.372566"
       cy="31.405056"
       fx="32.372566"
       fy="31.405056"
       r="3.857446" />
    <radialGradient
       inkscape:collect="always"
       xlink:href="#linearGradient6191-7-9"
       id="radialGradient3153"
       gradientUnits="userSpaceOnUse"
       gradientTransform="matrix(0,2.2196953,-2.1428649,-1.2524014e-8,99.303886,-39.86951)"
       cx="32.372566"
       cy="31.405056"
       fx="32.372566"
       fy="31.405056"
       r="3.857446" />
    <radialGradient
       inkscape:collect="always"
       xlink:href="#linearGradient6191-9"
       id="radialGradient3156"
       gradientUnits="userSpaceOnUse"
       gradientTransform="matrix(2.144061,0.57449942,-0.55461425,2.0698485,-20.001103,-51.611751)"
       cx="32.372566"
       cy="31.405056"
       fx="32.372566"
       fy="31.405056"
       r="3.857446" />
    <linearGradient
       inkscape:collect="always"
       xlink:href="#linearGradient3990-3-1"
       id="linearGradient3159"
       gradientUnits="userSpaceOnUse"
       gradientTransform="matrix(0.16581446,0,0,0.12436084,20.904625,22.576664)"
       x1="68.313301"
       y1="52.925316"
       x2="68.313301"
       y2="65.922028" />
    <linearGradient
       inkscape:collect="always"
       xlink:href="#linearGradient4316-4-6-6"
       id="linearGradient3162"
       gradientUnits="userSpaceOnUse"
       x1="92.696327"
       y1="16.554602"
       x2="92.696327"
       y2="48.983677"
       gradientTransform="matrix(0.46791441,0,0,0.46791441,-11.088235,16.759372)" />
    <radialGradient
       inkscape:collect="always"
       xlink:href="#linearGradient6088-74"
       id="radialGradient3165"
       gradientUnits="userSpaceOnUse"
       gradientTransform="matrix(-2.1428649,0,0,-2.1428649,101.38007,99.30684)"
       cx="32.372566"
       cy="31.405056"
       fx="32.372566"
       fy="31.405056"
       r="3.857446" />
    <linearGradient
       inkscape:collect="always"
       xlink:href="#linearGradient4316-4-0"
       id="linearGradient3170"
       gradientUnits="userSpaceOnUse"
       x1="92.696327"
       y1="16.554602"
       x2="92.696327"
       y2="48.983677"
       gradientTransform="matrix(0.84224595,0,0,-0.84224595,-45.558823,59.433157)" />
    <radialGradient
       inkscape:collect="always"
       xlink:href="#linearGradient4278-3"
       id="radialGradient3173"
       gradientUnits="userSpaceOnUse"
       gradientTransform="matrix(0.57546739,-8.5809842e-8,8.0624837e-8,0.54069512,-23.241092,-19.788163)"
       cx="95.838364"
       cy="95.388451"
       fx="95.838364"
       fy="95.388451"
       r="9.4981718" />
    <radialGradient
       inkscape:collect="always"
       xlink:href="#linearGradient2867-449-88-871-390-598-476-591-434-148-57-177-691-4"
       id="radialGradient3176"
       gradientUnits="userSpaceOnUse"
       gradientTransform="matrix(0,0.52770403,-0.69656002,0,34.779273,14.552384)"
       cx="23.896"
       cy="3.99"
       r="20.396999" />
    <linearGradient
       inkscape:collect="always"
       xlink:href="#linearGradient3087-408-5"
       id="linearGradient3178"
       gradientUnits="userSpaceOnUse"
       gradientTransform="matrix(0.22110591,0,0,0.22110594,26.693457,26.693296)"
       x1="7.0776"
       y1="3.0816"
       x2="7.0776"
       y2="45.368999" />
    <radialGradient
       inkscape:collect="always"
       xlink:href="#linearGradient6042-1"
       id="radialGradient3183"
       gradientUnits="userSpaceOnUse"
       gradientTransform="matrix(0,2.0115211,-4.6336383,0,130.41512,-43.129397)"
       cx="31.999998"
       cy="21.239277"
       fx="31.999998"
       fy="21.239277"
       r="10.498171" />
    <radialGradient
       inkscape:collect="always"
       xlink:href="#linearGradient4507-6"
       id="radialGradient3186"
       gradientUnits="userSpaceOnUse"
       gradientTransform="matrix(0,1.8361326,-1.8361326,0,62.200252,-149.85862)"
       cx="91.349998"
       cy="16.447752"
       fx="91.349998"
       fy="16.447752"
       r="15.639286" />
    <linearGradient
       inkscape:collect="always"
       xlink:href="#linearGradient4316-5"
       id="linearGradient3189"
       gradientUnits="userSpaceOnUse"
       x1="92.696327"
       y1="16.554602"
       x2="92.696327"
       y2="48.983677"
       gradientTransform="matrix(1.0918003,0,0,1.0918003,-68.539214,-3.5614952)" />
    <linearGradient
       inkscape:collect="always"
       xlink:href="#linearGradient4220-7"
       id="linearGradient3193"
       gradientUnits="userSpaceOnUse"
       x1="91.566116"
       y1="16.542858"
       x2="91.566116"
       y2="48.631081"
       gradientTransform="matrix(1.1541889,0,0,1.1541889,-74.284313,-5.5935702)" />
    <linearGradient
       inkscape:collect="always"
       xlink:href="#linearGradient4164"
       id="linearGradient3197"
       gradientUnits="userSpaceOnUse"
       gradientTransform="matrix(0.95833332,0,0,0.95833332,-17.176189,1.3333338)"
       x1="51.199997"
       y1="8.1142893"
       x2="51.199997"
       y2="56.114563" />
    <linearGradient
       inkscape:collect="always"
       xlink:href="#linearGradient4806"
       id="linearGradient3154"
       gradientUnits="userSpaceOnUse"
       gradientTransform="matrix(2.3268746,0,0,2.3268746,-135.94475,-32.842783)"
       x1="71.204407"
       y1="15.369057"
       x2="71.204407"
       y2="40.495617" />
    <radialGradient
       inkscape:collect="always"
       xlink:href="#radialGradient3093-0-3-6"
       id="radialGradient3158"
       gradientUnits="userSpaceOnUse"
       gradientTransform="matrix(0,4.1566535,-5.4867089,0,53.892518,-97.439545)"
       cx="23.896"
       cy="3.99"
       fx="23.896"
       fy="3.99"
       r="20.396999" />
    <radialGradient
       inkscape:collect="always"
       xlink:href="#linearGradient3820-7-2"
       id="radialGradient3161"
       gradientUnits="userSpaceOnUse"
       gradientTransform="matrix(0.38235362,0,0,0.11948554,-5.913044,34.255311)"
       cx="99.157013"
       cy="186.17059"
       fx="99.157013"
       fy="186.17059"
       r="62.769119" />
    <clipPath
       clipPathUnits="userSpaceOnUse"
       id="clipPath3970">
      <path
         d="m 32,2.4999994 c -16.277082,0 -29.5,13.2229146 -29.5,29.4999976 0,16.277083 13.222918,29.500005 29.5,29.5 16.27708,0 29.50001,-13.222917 29.5,-29.5 C 61.5,15.722914 48.27708,2.4999994 32,2.4999994 z"
         id="path3972"
         style="color:#000000;fill:url(#radialGradient3974);fill-opacity:1;fill-rule:nonzero;stroke:none;stroke-width:0.99999994;marker:none;visibility:visible;display:inline;overflow:visible;enable-background:accumulate"
         inkscape:connector-curvature="0" />
    </clipPath>
    <radialGradient
       inkscape:collect="always"
       xlink:href="#radialGradient3093-0-3-6"
       id="radialGradient3974"
       gradientUnits="userSpaceOnUse"
       gradientTransform="matrix(0,4.1566535,-5.4867089,0,53.892518,-97.439545)"
       cx="23.896"
       cy="3.99"
       fx="23.896"
       fy="3.99"
       r="20.396999" />
    <radialGradient
       inkscape:collect="always"
       xlink:href="#linearGradient4023"
       id="radialGradient4029"
       cx="54.5"
       cy="61"
       fx="54.5"
       fy="61"
       r="7.6278267"
       gradientTransform="matrix(1,0,0,0.13629812,0,52.685815)"
       gradientUnits="userSpaceOnUse" />
    <linearGradient
       id="linearGradient4023">
      <stop
         style="stop-color:#000000;stop-opacity:0.140625;"
         offset="0"
         id="stop4025" />
      <stop
         style="stop-color:#000000;stop-opacity:0;"
         offset="1"
         id="stop4027" />
    </linearGradient>
  </defs>
  <metadata
     id="metadata3494">
    <rdf:RDF>
      <cc:Work
         rdf:about="">
        <dc:format>image/svg+xml</dc:format>
        <dc:type
           rdf:resource="http://purl.org/dc/dcmitype/StillImage" />
        <dc:title></dc:title>
      </cc:Work>
    </rdf:RDF>
  </metadata>
  <g
     id="g3169">
    <g
       id="g3913">
      <g
         id="g3976"
         transform="matrix(2,0,0,2,0,-1.4930824)"
         style="stroke-width:0.5;stroke-miterlimit:4;stroke-dasharray:none">
        <path
           d="m 55.999998,56.499998 a 24,7.4999998 0 1 1 -47.999999,0 24,7.4999998 0 1 1 47.999999,0 z"
           id="path3818-0"
           style="fill:url(#radialGradient3161);fill-opacity:1;stroke:none"
           inkscape:connector-curvature="0" />
        <path
           d="m 32,2.4999994 c -16.277082,0 -29.5,13.2229146 -29.5,29.4999976 0,16.277083 13.222918,29.500005 29.5,29.5 16.27708,0 29.50001,-13.222917 29.5,-29.5 C 61.5,15.722914 48.27708,2.4999994 32,2.4999994 z"
           id="path2555-7"
           style="color:#000000;fill:url(#radialGradient3158);fill-opacity:1;fill-rule:nonzero;stroke:none;stroke-width:0.5;marker:none;visibility:visible;display:inline;overflow:visible;enable-background:accumulate"
           inkscape:connector-curvature="0" />
        <g
           clip-path="url(#clipPath3970)"
           id="g3955"
           style="stroke-width:0.5;stroke-miterlimit:4;stroke-dasharray:none">
          <path
             style="opacity:0.05;fill:#000000;fill-opacity:1;stroke:none"
             d="M 28,5.3125 C 22.832249,5.4294365 23.212348,11.847754 23.53125,15.53125 23.315249,17.175772 24.55524,21.406846 24,21.5 20.71581,18.232064 21.224197,10.605659 15.53125,10.21875 c -5.5514066,-0.218551 -5.069923,7.560821 -2.25,10.53125 2.654502,6.565566 8.499903,12.316031 6.90625,20 -2.639226,2.857851 0.919096,5.675895 -0.8125,9.34375 2.240245,4.106474 0.749677,9.163873 2.84375,13.34375 -0.294933,6.175252 8.110271,5.513046 12.34375,5.5625 3.627529,-0.855285 10.728486,-0.162632 8.15625,-5.6875 -1.697261,-5.44622 0.488032,-10.633589 2.53125,-15.53125 -0.383504,-2.93339 -0.13845,-5.383396 1.84375,-7.71875 1.864584,-2.624414 4.801991,-4.34702 6.40625,-7.15625 1.407642,-2.173073 1.019955,-5.684307 -0.375,-7.75 -2.579447,-2.798713 -7.349816,-0.08338 -6.8125,3.53125 -1.177275,0.753504 -4.601335,3.986071 -3.03125,0.59375 1.940535,-5.026181 3.454342,-10.147513 4.1875,-15.4375 C 47.056309,8.9369171 39.531129,9.3099108 39.0625,14.0625 38.373983,18.151265 35.79299,23.258856 34.96875,26.15625 32.807311,20.196511 32.978919,13.767899 31.875,7.6875 31.233121,6.1743272 29.710407,5.0085478 28,5.3125 z"
             id="path3940"
             inkscape:connector-curvature="0" />
          <g
             id="g3944"
             style="stroke-width:0.5;stroke-miterlimit:4;stroke-dasharray:none">
            <path
               sodipodi:nodetypes="cssssssssssssssssssscsssssssssssssssssssssssccsssssssssssssssssssssssssssssssssssscccccccccccccccccsssscc"
               inkscape:connector-curvature="0"
               id="path2987"
               d="m 41.062279,65.734104 c -0.417258,-2.701784 -0.982303,-5.632406 -0.87821,-8.468452 0.04363,-1.188668 0.305201,-2.367809 0.627292,-3.512839 0.358546,-1.274632 0.939453,-2.476318 1.442774,-3.701028 0.320405,-0.779628 1.003668,-2.070067 1.003668,-2.320983 0,-0.250918 0.05491,-1.841701 0,-2.76009 -0.03142,-0.525555 -0.286511,-1.050999 -0.188188,-1.568231 0.221892,-1.167279 1.127973,-2.091601 1.693691,-3.136464 0.396478,-0.73228 0.693642,-1.528281 1.191856,-2.195523 0.654608,-0.876695 1.500743,-1.596891 2.320984,-2.320983 0.536188,-0.473339 1.221686,-0.779955 1.693689,-1.317316 0.544324,-0.619696 0.759187,-1.473333 1.254586,-2.132796 0.310942,-0.413918 0.895868,-0.640317 1.066398,-1.129125 0.24195,-0.693534 0.01096,-1.488517 -0.188188,-2.195526 -0.06339,-0.225021 -0.301393,-0.393835 -0.313646,-0.627292 -0.01874,-0.356815 0.430173,-0.650436 0.376376,-1.003669 -0.07179,-0.47138 -0.467579,-0.886774 -0.87821,-1.129127 -0.346379,-0.204431 -0.795663,-0.257471 -1.191858,-0.188188 -0.470139,0.08221 -0.953283,0.319877 -1.254586,0.690022 -0.359087,0.441133 -0.417254,1.068478 -0.501834,1.630962 -0.06529,0.434223 0,1.317314 0,1.317314 0,0 -0.960118,0.713285 -1.442771,1.066397 -0.604232,0.44206 -1.184176,0.920677 -1.81915,1.317316 -0.602962,0.376642 -1.187768,0.849925 -1.881877,1.003668 -0.756458,0.167552 -1.759367,0.40829 -2.320984,-0.125458 -0.289568,-0.275199 -0.139982,-0.79264 -0.12546,-1.191856 0.03012,-0.827966 0.212497,-1.649522 0.439106,-2.446442 0.264443,-0.929969 0.715124,-1.796593 1.066398,-2.697359 0.211627,-0.542674 0.475908,-1.068499 0.627292,-1.630961 0.137588,-0.511201 0.144802,-1.049584 0.250918,-1.568232 0.06913,-0.337853 0.156937,-0.671869 0.250915,-1.003668 0.245096,-0.865322 0.57917,-1.70414 0.815482,-2.571901 0.197256,-0.724337 0.321913,-1.466688 0.501834,-2.195524 0.25405,-1.02913 0.819149,-2.013718 0.81548,-3.073735 -0.0016,-0.476813 -0.09397,-0.995853 -0.376376,-1.380044 -0.367581,-0.500073 -0.948962,-0.962524 -1.568232,-1.003668 -0.690713,-0.04589 -1.385824,0.395382 -1.881877,0.87821 -0.26804,0.260892 -0.372786,0.652589 -0.501834,1.003668 -0.423421,1.151925 -0.51148,2.404362 -0.87821,3.575569 -0.401489,1.282216 -0.935552,2.519569 -1.442773,3.763756 -0.318201,0.78053 -0.762502,1.513321 -1.003668,2.320983 -0.139665,0.467737 -0.131583,0.969442 -0.250918,1.442774 -0.08082,0.32058 -0.21206,0.62632 -0.313646,0.940939 -0.2154,0.66711 -0.381194,1.35093 -0.627292,2.007337 -0.200489,0.53476 -0.690024,1.568231 -0.690024,1.568231 l -0.439104,0.188188 c 0,0 -0.877763,-0.155194 -1.191855,-0.439105 -0.707623,-0.639626 -0.925972,-1.676432 -1.254586,-2.5719 -0.379131,-1.033128 -0.548906,-2.13147 -0.815482,-3.199193 -0.234636,-0.939795 -0.491219,-1.874794 -0.690022,-2.822817 -0.24835,-1.1843 -0.432979,-2.381213 -0.627292,-3.575569 -0.135811,-0.834772 -0.29966,-1.66691 -0.376376,-2.509171 -0.115759,-1.27092 -0.0021,-2.556276 -0.125458,-3.826486 -0.07572,-0.7801 -0.04941,-1.6086723 -0.376376,-2.3209829 -0.216672,-0.4720345 -0.532749,-0.9727681 -1.003667,-1.1918563 -0.473963,-0.2205042 -1.052239,-0.083735 -1.568234,0 -0.326343,0.052958 -0.681177,0.1091262 -0.940938,0.3136464 -0.309977,0.2440574 -0.421244,0.6672254 -0.627293,1.0036684 -0.127354,0.2079486 -0.311284,0.3922933 -0.376376,0.6272928 -0.267912,0.9672506 0,2.0073366 0,3.0110056 0,1.380044 -0.08992,2.76302 0,4.140132 0.08382,1.283684 0.338415,2.55049 0.501835,3.826485 0.06425,0.501643 0.06372,1.01532 0.188188,1.505503 0.127103,0.500548 0.408703,0.950421 0.564562,1.442773 0.318353,1.00567 0.58297,2.032633 0.752752,3.073735 0.121579,0.745512 0.803898,1.820681 0.188188,2.258254 -0.335727,0.238594 -0.798814,-0.2558 -1.129128,-0.501834 -0.927624,-0.690942 -1.544096,-1.724758 -2.258253,-2.63463 -0.730881,-0.93118 -1.435576,-1.886193 -2.070066,-2.885547 -0.551907,-0.869282 -1.021338,-1.788602 -1.505502,-2.697359 -0.694733,-1.303984 -1.35951,-2.624032 -2.007337,-3.951944 -0.47577,-0.975229 -0.583059,-2.211905 -1.380044,-2.948276 -0.524873,-0.484953 -1.293881,-0.712114 -2.007337,-0.752751 -0.516442,-0.02942 -1.119523,0.032 -1.505503,0.376376 -0.399918,0.356816 -0.468935,0.978143 -0.564563,1.505502 -0.130579,0.720098 -0.144865,1.478164 0,2.195525 0.170655,0.845072 0.601789,1.620978 1.003668,2.383712 0.324445,0.615771 0.815481,1.254586 1.129127,1.75642 0.313647,0.501834 0.929716,1.817202 1.317315,2.760088 0.193596,0.470947 0.270655,0.989093 0.501834,1.442773 0.265985,0.521985 0.687368,0.949651 1.003669,1.442774 0.511143,0.796887 0.953535,1.635921 1.442773,2.446441 0.431813,0.715385 1.317315,2.132797 1.317315,2.132797 l 0.439105,1.630959 0.250917,1.944608 0.627293,1.505504 0,3.450109 -0.188188,1.756419 1.254585,-0.940937 0.815481,0.878209 0.690022,1.944608 -0.188188,1.75642 -1.944608,-1.317316 -1.630961,0.501834 1.881879,3.450111 -1.317315,0.75275 0.313646,0.94094 -0.752751,0.690021 0.376375,1.568232 c 0,0 0.654545,0.914306 0.815481,1.442774 0.317696,1.043218 0.160605,2.175149 0.250917,3.261923 0.09736,1.171567 0.05122,2.3669 0.313647,3.512839 0.224534,0.980463 0.81548,2.446442 1.066397,2.822818 0.250917,0.376374 -0.194538,2.809982 0.752751,3.575567 5.260346,1.705438 9.309135,1.729481 16.184154,-0.06273 z"
               style="fill:#b9d2ad;fill-opacity:1;stroke:none" />
            <path
               sodipodi:nodetypes="ssssssssssssssssccsscccssscsssssssssssscssssssssssssssscsss"
               inkscape:connector-curvature="0"
               id="path2989"
               d="m 27.450026,25.712826 c 0.564564,0.940939 1.074838,2.725006 1.003668,4.26559 -0.02838,0.614319 -0.105725,1.597874 -0.564564,2.007337 -0.397747,0.354947 -1.037729,0.261117 -1.568232,0.313646 -0.374544,0.03709 -0.867615,-0.270684 -1.129126,0 -0.421575,0.436363 -0.217927,1.281219 0.06273,1.81915 0.290162,0.556151 1.239434,0.561057 1.505503,1.129128 0.346345,0.73946 -0.521394,1.732302 -0.12546,2.446441 0.417541,0.753115 1.649816,0.645223 2.258256,1.254586 0.945665,0.9471 1.693689,3.638297 1.944607,3.512839 0.250916,-0.12546 -0.495724,-7.274094 -0.439106,-10.914894 0.0046,-0.293447 -0.20428,-0.756402 0.06273,-0.878209 0.380473,-0.173572 0.735711,0.431681 1.003668,0.752749 0.389462,0.466658 0.563204,1.077964 0.81548,1.630962 0.272372,0.597054 0.261871,1.383611 0.752752,1.81915 0.406058,0.360279 1.317316,0.439103 1.568231,0.439103 0.250918,0 1.75642,0.627295 1.75642,0.627295 l -0.06273,4.14013 c 0,0 1.254586,0.752752 1.568232,0.815482 0.313646,0.06273 0.964097,0.346588 1.442774,0.250916 0.267341,-0.05343 0.690021,-0.439103 0.690021,-0.439103 l -0.12546,-2.63463 0.250918,-3.136465 c 0,0 6.94e-4,-1.88925 0.125458,-2.822818 0.113571,-0.849744 0.282479,-1.699609 0.564564,-2.509169 0.427732,-1.227555 1.243282,-2.293422 1.69369,-3.51284 1.049107,-2.840317 2.320983,-8.782099 2.320983,-8.782099 0,0 -1.550892,1.719799 -2.446441,2.446442 -0.445856,0.361765 -1.157365,0.442738 -1.442774,0.940939 -0.21852,0.381443 -0.250916,1.066398 -0.06273,1.317315 0.188188,0.250917 0.64063,1.017878 0.564562,1.568232 -0.04925,0.356357 -0.300581,0.72762 -0.627292,0.878209 -0.43841,0.202076 -0.965889,-0.200409 -1.442774,-0.125458 -0.425838,0.06693 -0.913601,0.172605 -1.191855,0.501834 -0.235721,0.278904 -0.250918,0.690022 -0.250918,1.066398 0,0.376376 0.12546,1.380044 0,1.75642 -0.125458,0.376375 -0.318673,1.217373 -0.501834,1.819149 -0.115521,0.379544 -0.319827,0.736443 -0.376376,1.129127 -0.08351,0.579865 0.0963,1.171534 0.06273,1.756419 -0.03999,0.696751 -0.313646,2.070066 -0.313646,2.070066 0,0 -0.805265,0.299175 -1.191856,0.188188 -0.612575,-0.175864 -0.960363,-0.838105 -1.442773,-1.254586 -0.437762,-0.377935 -0.961402,-0.673279 -1.317316,-1.129126 -0.402836,-0.515941 -0.692819,-1.128642 -0.87821,-1.756419 -0.268135,-0.907966 -0.168401,-1.887297 -0.313646,-2.822818 -0.08179,-0.526786 -0.261117,-1.03773 -0.313646,-1.568232 -0.07005,-0.707472 0.123349,-1.432646 0,-2.132796 -0.127391,-0.723091 -0.299237,-1.492645 -0.752752,-2.070066 -0.279404,-0.355741 -0.700637,-0.607792 -1.129128,-0.752751 -0.615293,-0.208155 -1.373289,0.183591 -1.944607,-0.125459 -0.183913,-0.09949 -0.332292,-0.297436 -0.376374,-0.501834 -0.121926,-0.565336 0.09086,-1.190744 0.376374,-1.69369 0.255579,-0.450216 0.977955,-0.57126 1.129128,-1.066398 0.250337,-0.819936 -0.105165,-1.78535 -0.564564,-2.509171 -0.383265,-0.603865 -1.174716,-0.825166 -1.69369,-1.317315 -0.301162,-0.285595 -0.815481,-0.940939 -0.815481,-0.940939 0,0 -0.01457,2.553164 0.06273,3.826486 0.09683,1.594985 0.174257,3.20344 0.501833,4.767425 0.296887,1.41746 0.523846,2.817683 1.317316,4.140132 z"
               style="opacity:0.1;fill:#000000;stroke:none" />
            <path
               id="path2991"
               d="m 13.744047,14.926821 0.07951,2.754085 c 0.162224,0.341906 0.338154,0.672494 0.513228,1.004771 0.324445,0.61577 0.821239,1.254708 1.134886,1.756542 0.06281,0.100489 0.141289,0.255821 0.224085,0.412029 0.01687,0.02786 0.02708,0.05219 0.04337,0.07951 0.0047,0.0091 0.0097,0.01243 0.01446,0.02169 0.07438,0.125326 0.150534,0.251227 0.209628,0.361428 0.239655,0.446912 0.434451,0.912642 0.614429,1.387885 0.0035,0.0092 0.0038,0.01972 0.0072,0.02891 0.06902,0.159503 0.142367,0.323818 0.2024,0.469857 0.07303,0.177656 0.126322,0.364276 0.180714,0.549371 0.162909,0.432574 0.33428,0.860847 0.542143,1.272228 0.0019,0.0028 0.0053,0.0044 0.0072,0.0072 0.244436,0.360361 0.538049,0.688364 0.773456,1.055372 0.284166,0.443023 0.548069,0.902036 0.8096,1.35897 0.664266,0.899887 1.32138,1.799221 1.742085,2.826371 0.02026,0.04946 0.03907,0.101887 0.05783,0.1518 0.03661,0.05868 0.1518,0.245771 0.1518,0.245771 l 0.440942,1.626428 0.245772,1.944485 0.628885,1.510771 0,0.621657 c 0.03015,0.124105 0.05481,0.248894 0.07229,0.375885 0.161302,1.172157 0.302711,2.431955 -0.08674,3.549228 -0.03894,0.111711 -0.0865,0.230199 -0.137343,0.346971 l -0.03614,0.310828 1.257771,-0.939713 0.816829,0.874656 0.686714,1.944485 -0.187943,1.756543 -1.944485,-1.3156 -1.633657,0.498771 1.886657,3.455256 -1.322828,0.751771 0.318057,0.939714 -0.751771,0.686714 0.310828,1.293914 c 0.39996,0.600917 0.728856,1.193898 0.9108,1.727628 0.114183,0.334952 0.150854,0.680938 0.1518,1.033685 0.0578,0.733997 0.0041,1.485125 0.06506,2.219171 0.09736,1.171567 0.05563,2.367145 0.318057,3.513084 0.224534,0.980463 0.811682,2.449995 1.062599,2.826371 0.250918,0.376373 -0.195518,2.805327 0.751772,3.570913 5.260346,1.705438 9.309746,1.73438 16.184765,-0.05783 -0.417258,-2.701784 -0.97875,-5.635836 -0.874657,-8.471882 0.04363,-1.188669 0.299566,-2.368054 0.621657,-3.513085 0.358546,-1.274631 0.942393,-2.476318 1.445714,-3.701027 0.320405,-0.779628 1.004771,-2.069455 1.004771,-2.320371 0,-0.250918 0.05491,-1.842924 0,-2.761313 -0.03142,-0.525555 -0.286265,-1.051367 -0.187943,-1.568599 0.221893,-1.167279 1.125767,-2.092337 1.691485,-3.137199 0.396477,-0.732281 0.6945,-1.523014 1.192714,-2.190256 0.654608,-0.876695 1.50013,-1.596279 2.320371,-2.320371 0.536188,-0.473338 1.219481,-0.785467 1.691485,-1.322828 0.544324,-0.619696 0.762372,-1.472965 1.257771,-2.132428 0.310941,-0.413918 0.899298,-0.638848 1.069828,-1.127657 0.115525,-0.331142 0.117454,-0.684132 0.07229,-1.040914 -0.116497,-0.143773 -0.241423,-0.271875 -0.383115,-0.383114 -0.256906,-0.201694 -0.693038,-0.257357 -0.975856,-0.09397 -0.36661,0.211791 -0.308735,0.798656 -0.534914,1.156571 -0.246757,0.390477 -0.731869,0.628277 -0.889114,1.0626 -0.07047,0.194632 0.13805,0.467418 0,0.621656 -0.35717,0.399054 -1.114819,-0.05128 -1.597514,0.180715 -0.829227,0.398545 -1.31287,1.289646 -1.951714,1.951713 -0.813592,0.843168 -1.644028,1.672027 -2.392656,2.573371 -0.540371,0.650606 -1.007713,1.358587 -1.510771,2.038456 -0.591001,0.798721 -1.502679,1.435973 -1.770999,2.392656 -0.264612,0.943457 0.27187,1.947719 0.267457,2.927571 -0.0054,1.188721 -0.07924,2.39273 -0.3542,3.549227 -0.190538,0.801409 -0.738732,1.496006 -0.889114,2.305913 -0.183545,0.988515 0.0511,2.010204 0,3.014314 -0.07402,1.454614 0.03682,2.97569 -0.440943,4.351598 -0.126471,0.364225 -0.262999,0.834366 -0.621657,0.975857 -0.880675,0.347427 -1.875268,-0.356296 -2.754084,-0.7084 -1.069128,-0.428355 -1.946919,-1.258833 -3.014313,-1.691485 -0.850885,-0.344894 -1.756843,-0.543905 -2.660114,-0.7084 -0.58475,-0.106488 -1.186098,-0.121958 -1.778228,-0.173486 -0.797585,-0.06941 -1.765586,0.317028 -2.392656,-0.180714 -0.388254,-0.30818 -0.564281,-0.93669 -0.440943,-1.416799 0.254987,-0.992562 1.648373,-1.276515 2.211942,-2.132428 0.555772,-0.844072 1.075167,-1.830227 1.069829,-2.840828 -0.0052,-0.982967 -0.836176,-1.792048 -1.069829,-2.746856 -0.254598,-1.040402 0.0124,-2.188616 -0.354199,-3.195027 -0.364924,-1.001796 -1.269061,-1.719463 -1.771,-2.660113 -0.436915,-0.818795 -0.881705,-1.663099 -1.062599,-2.573371 -0.155623,-0.7831 0.138527,-1.606352 0,-2.392656 -0.120105,-0.681736 -0.491814,-1.296657 -0.715629,-1.951714 -0.250961,-0.73451 -0.876167,-1.461318 -0.708399,-2.21917 0.113075,-0.510795 0.989045,-0.639683 1.069828,-1.156571 0.216542,-1.385538 -1.057915,-2.606229 -1.778228,-3.809456 -0.455668,-0.761157 -0.92992,-1.54821 -1.597514,-2.132428 -0.637621,-0.557988 -1.790721,-0.512326 -2.21917,-1.243314 -0.328966,-0.561256 0.188521,-1.329068 0,-1.951713 -0.308966,-1.020445 -1.070156,-1.856631 -1.771,-2.660113 -0.67475,-0.773569 -1.704714,-1.206438 -2.305913,-2.038457 -0.263796,-0.365076 -0.534914,-1.243314 -0.534914,-1.243314 z"
               style="opacity:0.1;fill:#000000;stroke:none"
               inkscape:connector-curvature="0" />
            <path
               sodipodi:nodetypes="ccccccccccccccscsssssc"
               inkscape:connector-curvature="0"
               id="path2996"
               d="m 22.367729,38.860613 0,0.339742 -0.187943,1.756542 1.257771,-0.939713 0.816829,0.874656 0.686714,1.944485 -0.187943,1.756543 -1.944485,-1.3156 -1.633657,0.498771 1.886657,3.455256 -1.322828,0.751771 0.318057,0.939714 -0.751771,0.686714 0.375885,1.5686 c 0,0 0.655892,0.917246 0.816828,1.445713 0.124094,0.407486 0.172918,0.831193 0.195172,1.257771 0.38589,-0.27311 0.786841,-0.598171 0.990314,-0.896342 0.712063,-1.043461 -0.03556,-3.487238 0.309848,-4.702368 0.243233,-0.855689 1.029575,-1.288661 1.178869,-2.165631 0.218866,-1.285642 0.660301,-1.945324 0.549739,-3.244769 -0.08513,-1.000489 -0.694945,-1.928806 -1.398422,-2.645288 -0.652103,-0.664159 -0.975118,-1.329453 -1.955634,-1.366567 z"
               style="fill:#aa0000;stroke:none" />
            <path
               id="path3003"
               d="m 22.808672,43.277268 -1.633657,0.498771 1.886657,3.455256 -0.0506,0.02891 0.845742,0 0.137343,-0.484314 0.665029,-0.665028 0.310828,-1.156571 -0.209629,-0.419257 -0.0072,0.05783 -1.944485,-1.3156 z m 0.166257,4.004627 -1.236085,0.701171 0.318057,0.939714 -0.751771,0.686714 0.346971,1.438485 0.520457,-0.766228 0.267457,-0.932485 0.621657,-0.665029 -0.08674,-1.402342 z"
               style="fill:#fff6d5;stroke:none"
               inkscape:connector-curvature="0" />
            <path
               transform="matrix(0.26544253,0,0,0.2580043,-0.95913715,6.3270676)"
               d="m 117.42373,13.016949 c 0,5.841113 -3.70314,10.576271 -8.27119,10.576271 -4.56805,0 -8.27118,-4.735158 -8.27118,-10.576271 0,-5.8411135 3.70313,-10.5762714 8.27118,-10.5762714 4.56805,0 8.27119,4.7351579 8.27119,10.5762714 z"
               sodipodi:ry="10.576271"
               sodipodi:rx="8.2711868"
               sodipodi:cy="13.016949"
               sodipodi:cx="109.15254"
               id="path3012"
               style="opacity:0.3;fill:#fff6d5;fill-opacity:1;stroke:none"
               sodipodi:type="arc" />
            <path
               sodipodi:type="arc"
               style="opacity:0.3;fill:#fff6d5;fill-opacity:1;stroke:none"
               id="path3014"
               sodipodi:cx="109.15254"
               sodipodi:cy="13.016949"
               sodipodi:rx="8.2711868"
               sodipodi:ry="10.576271"
               d="m 117.42373,13.016949 c 0,5.841113 -3.70314,10.576271 -8.27119,10.576271 -4.56805,0 -8.27118,-4.735158 -8.27118,-10.576271 0,-5.8411135 3.70313,-10.5762714 8.27118,-10.5762714 4.56805,0 8.27119,4.7351579 8.27119,10.5762714 z"
               transform="matrix(0.17615176,0.04865929,-0.06339572,0.20690756,25.796549,6.6365193)" />
            <path
               sodipodi:type="arc"
               style="opacity:0.3;fill:#fff6d5;fill-opacity:1;stroke:none"
               id="path3016"
               sodipodi:cx="109.15254"
               sodipodi:cy="13.016949"
               sodipodi:rx="8.2711868"
               sodipodi:ry="10.576271"
               d="m 117.42373,13.016949 c 0,5.841113 -3.70314,10.576271 -8.27119,10.576271 -4.56805,0 -8.27118,-4.735158 -8.27118,-10.576271 0,-5.8411135 3.70313,-10.5762714 8.27118,-10.5762714 4.56805,0 8.27119,4.7351579 8.27119,10.5762714 z"
               transform="matrix(0.25503621,-0.0735953,0.07153301,0.24788957,-13.174799,19.384728)" />
            <path
               sodipodi:nodetypes="csssssc"
               inkscape:connector-curvature="0"
               id="path3018"
               d="m 51.726255,28.159268 c 0,0 -0.939337,-0.0041 -0.955834,-0.284184 -0.01869,-0.317452 -0.0315,-0.705275 0.125457,-1.003669 0.117221,-0.222837 0.313135,-0.515215 0.564564,-0.501834 0.310408,0.01652 0.54432,0.390455 0.627294,0.690022 0.05692,0.205501 -0.04069,0.431627 -0.12546,0.627293 -0.0715,0.165049 -0.236021,0.472372 -0.236021,0.472372 z"
               style="opacity:0.3;fill:#fff6d5;stroke:none" />
          </g>
        </g>
        <path
           d="m 32,2.499999 c -16.277082,0 -29.5,13.222915 -29.5,29.499998 0,16.277083 13.222918,29.500005 29.5,29.5 16.27708,0 29.50001,-13.222917 29.5,-29.5 C 61.5,15.722914 48.27708,2.499999 32,2.499999 z"
           id="path2555-7-1"
           style="opacity:0.7;color:#000000;fill:none;stroke:#000000;stroke-width:0.5;stroke-linecap:round;stroke-linejoin:round;stroke-miterlimit:4;stroke-opacity:1;stroke-dasharray:none;stroke-dashoffset:0;marker:none;visibility:visible;display:inline;overflow:visible;enable-background:accumulate"
           inkscape:connector-curvature="0" />
        <path
           d="m 60.997194,31.999999 c 0,16.204154 -13.257084,28.999999 -28.997204,28.999999 -16.255724,0 -28.999991,-13.259884 -28.999991,-28.999999 0,-16.318241 13.259892,-29.0039076 28.999991,-29.0039076 16.277057,0 28.997204,13.2637916 28.997204,29.0039076 z"
           id="path3019"
           style="opacity:0.3;color:#000000;fill:none;stroke:url(#linearGradient3154);stroke-width:0.5;stroke-linecap:round;stroke-linejoin:round;stroke-miterlimit:4;stroke-opacity:1;stroke-dasharray:none;stroke-dashoffset:0;marker:none;visibility:visible;display:inline;overflow:visible;enable-background:accumulate"
           inkscape:connector-curvature="0"
           sodipodi:nodetypes="sssss" />
      </g>
    </g>
    <g
       id="g4094"
       transform="translate(1.0344735,63.07273)">
      <path
         sodipodi:type="arc"
         style="fill:url(#radialGradient4029);fill-opacity:1;stroke:none"
         id="path3253"
         sodipodi:cx="54.5"
         sodipodi:cy="61"
         sodipodi:rx="7.6278267"
         sodipodi:ry="1.0396584"
         d="m 62.127827,61 c 0,0.574187 -3.415095,1.039658 -7.627827,1.039658 -4.212732,0 -7.627827,-0.465471 -7.627827,-1.039658 0,-0.574187 3.415095,-1.039658 7.627827,-1.039658 4.212732,0 7.627827,0.465471 7.627827,1.039658 z"
         transform="matrix(1.9664841,0,0,1.9181896,-0.33910982,-57.01683)" />
      <g
         id="g3222"
         transform="matrix(2.8353412,0,0,2.8353412,-30.336268,-106.90045)">
        <path
           d="m 49.5,41.3125 c -1.718608,-0.109217 -3.110308,0.268809 -4.09375,1.03125 -0.996472,0.772543 -1.540279,1.906068 -1.6875,3.03125 A 0.82812942,0.82812942 0 0 0 43.75,45.6875 l 0.0625,0.21875 a 0.82812942,0.82812942 0 0 0 0.5625,0.5625 l 0.21875,0.0625 a 0.82812942,0.82812942 0 0 0 0.0625,0.03125 0.82812942,0.82812942 0 0 0 0.21875,0.09375 L 45.09375,46.75 a 0.82812942,0.82812942 0 0 0 0.125,0.0625 l 0.0625,0 0.0625,0.03125 0.0625,0.03125 0.0625,0 0.21875,0.09375 a 0.82812942,0.82812942 0 0 0 0,0.03125 l 0.96875,0.375 A 0.82812942,0.82812942 0 0 0 47.75,46.90625 c 0.03467,-0.08419 0.09056,-0.160094 0.15625,-0.21875 a 0.82812942,0.82812942 0 0 0 0.25,-0.53125 c 0.0083,-0.08116 0.124757,-0.340303 0.3125,-0.46875 0.142109,-0.09723 0.489786,-0.08647 0.875,-0.03125 0.01851,0.05189 0.06346,0.09227 0.09375,0.15625 0.05378,0.517614 -0.009,0.962446 -0.09375,1.34375 a 0.82812942,0.82812942 0 0 0 0,0.03125 0.82812942,0.82812942 0 0 0 -0.09375,0.15625 c -0.107045,0.307165 -0.194674,0.517225 -0.28125,0.6875 L 48.75,48.375 c -0.008,0.0078 -0.02327,-0.0077 -0.03125,0 -0.491142,0.475936 -0.890679,0.767097 -1.3125,0.90625 A 0.82812942,0.82812942 0 0 0 47,49.5625 c -0.187834,0.246274 -0.384432,0.371785 -0.5,0.40625 a 0.82812942,0.82812942 0 0 0 -0.53125,0.5625 0.82812942,0.82812942 0 0 0 -0.03125,0.0625 l -0.25,0.1875 a 0.82812942,0.82812942 0 0 0 -0.125,0.125 c -0.106512,0.145757 -0.15967,0.189879 -0.15625,0.1875 A 0.82812942,0.82812942 0 0 0 45.125,51.4375 c -0.225078,0.488469 -0.52102,0.856819 -0.84375,1.125 A 0.82812942,0.82812942 0 0 0 44,53.15625 c -0.0023,0.06896 -0.07795,0.548975 -0.125,0.96875 -0.02352,0.209888 -0.04546,0.416455 -0.0625,0.59375 -0.01704,0.177295 -0.01045,0.259768 0,0.46875 a 0.82812942,0.82812942 0 0 0 0,0.09375 c -0.263069,0.983293 -0.355133,1.984156 0,2.90625 a 0.82812942,0.82812942 0 0 0 0.6875,0.5 l 0.53125,0.0625 a 0.82812942,0.82812942 0 0 0 0.3125,-0.03125 0.82812942,0.82812942 0 0 0 0.3125,0.03125 c 0.735034,-0.07184 1.310485,-0.061 1.71875,0 a 0.82812942,0.82812942 0 0 0 0.125,0 l 0.53125,0 0.34375,0 0.75,0 0.3125,0 0.8125,0 0.125,0 0.0625,0.03125 a 0.82812942,0.82812942 0 0 0 0.4375,0.0625 c 0.637904,-0.09513 1.16606,-0.127681 1.4375,-0.09375 a 0.82812942,0.82812942 0 0 0 0.71875,-0.28125 0.82812942,0.82812942 0 0 0 0.09375,-0.15625 0.82812942,0.82812942 0 0 0 0.21875,-0.53125 l 0,-0.21875 0,-0.28125 0,-0.15625 0,-0.0625 0.09375,-1.4375 a 0.82812942,0.82812942 0 0 0 0,-0.28125 c -0.170665,-0.607923 -0.78111,-1.08851 -1.375,-1.1875 A 0.82812942,0.82812942 0 0 0 51.53125,54.25 l -0.09375,0.03125 c -0.342349,6.17e-4 -0.674465,-0.01675 -0.875,-0.0625 a 0.82812942,0.82812942 0 0 0 -0.375,0 c -0.254936,0.06374 -0.403702,0.08582 -0.3125,0.09375 a 0.82812942,0.82812942 0 0 0 -0.0625,0 l -0.15625,0 L 49.4375,54.25 a 0.82812942,0.82812942 0 0 0 -0.40625,-0.03125 c -0.24847,0.04796 -0.41188,0.02985 -0.53125,0 l 0.0625,-0.34375 0.96875,-0.96875 0.09375,-0.09375 0.03125,0 L 49.75,52.75 a 0.82812942,0.82812942 0 0 0 0.125,-0.09375 l 0.21875,-0.21875 0.15625,-0.15625 0.0625,-0.0625 0.09375,-0.0625 A 0.82812942,0.82812942 0 0 0 50.5,52.03125 L 50.625,51.875 c 0.0155,-0.01279 0.01623,-0.01903 0.03125,-0.03125 0.194754,-0.158416 0.367049,-0.250752 0.46875,-0.3125 a 0.82812942,0.82812942 0 0 0 0.25,-0.25 l 0.0625,-0.09375 0.0625,-0.09375 0.03125,-0.03125 0.0625,-0.03125 0.03125,0 a 0.82812942,0.82812942 0 0 0 0.25,-0.1875 L 51.96875,50.75 52,50.6875 l 0.03125,0 a 0.82812942,0.82812942 0 0 0 0.25,-0.3125 c 0.18403,-0.348694 0.40069,-0.556674 0.5625,-0.6875 a 0.82812942,0.82812942 0 0 0 0.25,-0.375 c 0.680636,-1.78158 0.837292,-3.382004 0.3125,-4.78125 -0.524792,-1.399246 -1.733518,-2.45869 -3.375,-3.15625 a 0.82812942,0.82812942 0 0 0 -0.3125,-0.0625 l -0.15625,0 c -0.01144,-8.14e-4 -0.01984,7.69e-4 -0.03125,0 l -0.03125,0 z"
           id="path3208"
           style="font-size:18px;font-style:normal;font-variant:normal;font-weight:normal;font-stretch:normal;line-height:125%;letter-spacing:0px;word-spacing:0px;fill:#aa0000;fill-opacity:1;stroke:none;font-family:Boston Traffic;-inkscape-font-specification:Boston Traffic"
           inkscape:original="M 49.5 42.125 C 46.30944 41.897963 44.77643 43.594884 44.53125 45.46875 L 44.59375 45.6875 L 44.8125 45.75 L 45.03125 45.75 L 45.1875 45.90625 L 45.40625 46 L 45.65625 46.0625 L 45.78125 46.125 L 46 46.21875 L 46.96875 46.59375 C 47.05078 46.394543 47.179684 46.208996 47.34375 46.0625 C 47.412596 45.3855 48.161021 44.329154 49.875 44.875 C 50.009454 45.118736 50.048436 45.404374 50.25 45.625 C 50.33788 46.333996 50.29101 46.935558 50.15625 47.46875 L 50.03125 47.625 C 49.896478 48.011728 49.767572 48.289072 49.65625 48.5 L 49.34375 48.96875 C 48.775386 49.525399 48.224605 49.875008 47.65625 50.0625 C 47.392575 50.408211 47.083981 50.650398 46.75 50.75 L 46.75 50.96875 L 46.21875 51.40625 C 46.10742 51.5586 46.009764 51.687507 45.875 51.78125 C 45.599608 52.378912 45.228514 52.841802 44.8125 53.1875 C 44.80078 53.544927 44.61328 54.921879 44.625 55.15625 L 44.65625 55.15625 C 44.334173 56.141306 44.280062 57.060517 44.59375 57.875 L 45.125 57.9375 L 45.34375 57.875 L 45.5625 57.9375 C 46.341795 57.86133 46.990231 57.86133 47.5 57.9375 L 48.03125 57.9375 L 48.375 57.9375 L 49.125 57.9375 L 49.4375 57.9375 L 50.25 57.9375 L 50.53125 57.9375 L 50.75 58.03125 C 51.417961 57.93164 51.984367 57.884763 52.40625 57.9375 C 52.42968 57.83789 52.455066 57.78125 52.53125 57.78125 L 52.53125 57.5625 L 52.53125 57.28125 L 52.53125 57.0625 L 52.625 55.5625 C 52.53124 55.228519 52.289054 55.027347 51.9375 54.96875 L 51.65625 55.125 C 51.146478 55.14844 50.708978 55.10745 50.375 55.03125 C 50.117182 55.09571 49.94726 55.13672 49.8125 55.125 L 49.5 55.125 L 49.1875 55.03125 C 48.853511 55.09571 48.570308 55.09571 48.3125 55.03125 C 47.951085 55.07101 47.698555 55.027122 47.40625 55 L 47.875 53.40625 L 49.0625 52.21875 L 49.28125 52.0625 L 49.5 51.84375 L 49.71875 51.625 L 49.875 51.5 L 50.09375 51.25 C 50.328119 51.056647 50.52343 50.912116 50.6875 50.8125 L 50.84375 50.59375 L 51 50.4375 L 51.21875 50.3125 L 51.34375 50.15625 L 51.5625 50 C 51.785148 49.578133 52.037101 49.253915 52.3125 49.03125 C 53.583975 45.703137 52.7246 43.402358 49.71875 42.125 L 49.53125 42.125 L 49.5 42.125 z "
           inkscape:radius="0.82804662"
           sodipodi:type="inkscape:offset" />
        <path
           sodipodi:nodetypes="cccccccccccccccccccccccccccccccccccccccccccccccccccccccccccccccccccccccccccccccccccccc"
           d="m 49.530323,42.139736 c -3.214846,-0.242172 -4.757813,1.44435 -5.003906,3.325195 l 0.07031,0.228516 0.228516,0.07031 0.219726,0 0.149415,0.149414 0.219726,0.0791 0.228516,0.07031 0.140625,0.07031 0.228515,0.0791 0.966797,0.36914 c 0.08203,-0.199207 0.205075,-0.372058 0.369141,-0.518554 0.07031,-0.691394 0.837887,-1.800768 2.630859,-1.171875 l 0.0791,-0.228516 0,-0.219726 0,-0.219727 c -0.07618,-0.187486 -0.102544,-0.386704 -0.0791,-0.597656 l 0,-0.219727 0,-0.966797 -0.448242,-0.298828 m -0.0293,-0.01465 c -0.375005,1.376967 -0.128912,2.540052 0.738281,3.489258 0.08788,0.708996 0.06445,1.330089 -0.07031,1.863281 l -0.149414,0.140625 c -0.134772,0.386728 -0.257819,0.685556 -0.369141,0.896484 l -0.298828,0.439453 c -0.568364,0.556649 -1.136723,0.928719 -1.705078,1.116211 -0.263675,0.345711 -0.562503,0.568367 -0.896484,0.667969 l 0,0.228516 -0.518555,0.439453 c -0.11133,0.15235 -0.234377,0.275397 -0.369141,0.36914 -0.275392,0.597662 -0.621095,1.069341 -1.037109,1.415039 -0.01172,0.357427 -0.221642,1.736082 -0.209922,1.970453 l 0.290039,0.149414 0.228516,0 0.149414,-0.07031 0.439453,0 0.298828,0 c 0.07617,0.02344 0.149411,0.02344 0.219726,0 0.410154,0.111332 0.758786,0.161137 1.045899,0.149414 l 0.579063,-1.979241 1.186523,-1.186523 0.219727,-0.149415 0.228515,-0.219726 0.219727,-0.219727 0.149414,-0.149414 0.219726,-0.228515 c 0.234369,-0.193353 0.433587,-0.339837 0.597657,-0.439453 l 0.149414,-0.228516 0.149414,-0.149414 0.219726,-0.140625 0.149414,-0.149414 0.219727,-0.149414 c 0.222648,-0.421867 0.471671,-0.744132 0.74707,-0.966797 1.271475,-3.328113 0.404288,-5.630845 -2.601562,-6.908203 l -0.219727,0 m -4.825195,12.849609 c -0.386719,1.060549 -0.413086,2.024415 -0.0791,2.891602 l 0.518555,0.0791 0.228516,-0.0791 0.219726,0.0791 c 0.779295,-0.07617 1.423825,-0.07617 1.933594,0 l 0.518555,0 0.36914,0 0.747071,0 0.290039,0 0.817382,0 0.298829,0 0.219726,0.07031 c 0.667961,-0.09961 1.212883,-0.123047 1.634766,-0.07031 0.02343,-0.09961 0.07323,-0.149414 0.149414,-0.149414 l 0,-0.228515 0,-0.29004 0,-0.228515 0.07031,-1.485352 c -0.09376,-0.333981 -0.316414,-0.53027 -0.667968,-0.588867 l -0.29004,0.149414 c -0.509772,0.02344 -0.931647,-0.0029 -1.265625,-0.0791 -0.257818,0.06446 -0.454107,0.09082 -0.588867,0.0791 l -0.298828,0 -0.298828,-0.0791 c -0.333989,0.06446 -0.629887,0.06446 -0.887695,0 -0.585942,0.06446 -1.081058,0.04102 -1.485352,-0.07031 l -0.0791,0.149414 -0.219727,-0.0791 c -0.732424,0.06446 -1.350587,0.04102 -1.854492,-0.07031"
           style="font-size:18px;font-style:normal;font-variant:normal;font-weight:normal;font-stretch:normal;line-height:125%;letter-spacing:0px;word-spacing:0px;fill:#fff6d5;fill-opacity:1;stroke:none;font-family:Boston Traffic;-inkscape-font-specification:Boston Traffic"
           id="path3199"
           inkscape:connector-curvature="0" />
      </g>
    </g>
  </g>
</svg>
