<?xml version="1.0" encoding="UTF-8" standalone="no"?>
<svg xmlns:rdf="http://www.w3.org/1999/02/22-rdf-syntax-ns#" xmlns="http://www.w3.org/2000/svg" height="128" width="128" version="1.1" xmlns:cc="http://creativecommons.org/ns#" xmlns:xlink="http://www.w3.org/1999/xlink" xmlns:dc="http://purl.org/dc/elements/1.1/">
 <defs>
  <radialGradient id="d" gradientUnits="userSpaceOnUse" cy="4.625" cx="62.625" gradientTransform="matrix(1 0 0 .34118 0 3.0471)" r="10.625">
   <stop offset="0"/>
   <stop stop-opacity="0" offset="1"/>
  </radialGradient>
  <radialGradient id="e" gradientUnits="userSpaceOnUse" cy="-8.7256" cx="61.24" gradientTransform="matrix(0 3.5234 -3.5234 0 -6.744 -205.8)" r="9.7553">
   <stop stop-color="#51cfee" offset="0"/>
   <stop stop-color="#49a3d2" offset=".26238"/>
   <stop stop-color="#3470b4" offset=".70495"/>
   <stop stop-color="#273567" offset="1"/>
  </radialGradient>
  <linearGradient id="j" y2="2.6887" gradientUnits="userSpaceOnUse" x2="20" gradientTransform="matrix(.98001 0 0 .97999 .089940 .87036)" y1="43" x1="20">
   <stop stop-color="#254b6d" offset="0"/>
   <stop stop-color="#415b73" offset=".5"/>
   <stop stop-color="#6195b5" offset="1"/>
  </linearGradient>
  <linearGradient id="k" y2="-1.4615" gradientUnits="userSpaceOnUse" x2="62.2" gradientTransform="matrix(2.1154 0 0 2.1153 -107.58 31.427)" y1="-12.489" x1="62.2">
   <stop stop-color="#fff" offset="0"/>
   <stop stop-color="#fff" stop-opacity="0" offset="1"/>
  </linearGradient>
  <linearGradient id="g" y2="47.533" gradientUnits="userSpaceOnUse" x2="157.8" y1="20.111" x1="157.8">
   <stop stop-color="#fff" offset="0"/>
   <stop stop-color="#fff" stop-opacity="0" offset="1"/>
  </linearGradient>
  <linearGradient id="h" y2="19.244" gradientUnits="userSpaceOnUse" x2="158.91" gradientTransform="matrix(2.9402 0 0 3.2831 -213.12 230.49)" y1="48.432" x1="158.91">
   <stop stop-color="#8c8c8c" offset="0"/>
   <stop stop-color="#969696" offset=".031177"/>
   <stop stop-color="#a0a0a0" offset=".074123"/>
   <stop stop-color="#dcdcdc" offset=".15525"/>
   <stop stop-color="#e1e1e1" offset=".5"/>
   <stop stop-color="#e6e6e6" offset="1"/>
  </linearGradient>
  <linearGradient id="f" y2="27.177" gradientUnits="userSpaceOnUse" x2="57.583" gradientTransform="translate(184.43 266.12)" y1="123.51" x1="57.583">
   <stop stop-color="#646464" offset="0"/>
   <stop stop-color="#b4b4b4" offset="1"/>
  </linearGradient>
  <radialGradient id="c" xlink:href="#a" gradientUnits="userSpaceOnUse" cy="43.5" cx="4.993" gradientTransform="matrix(2.0038 0 0 1.4 27.988 -17.4)" r="2.5"/>
  <linearGradient id="a">
   <stop offset="0"/>
   <stop stop-opacity="0" offset="1"/>
  </linearGradient>
  <radialGradient id="b" xlink:href="#a" gradientUnits="userSpaceOnUse" cy="43.5" cx="4.993" gradientTransform="matrix(2.0038 0 0 1.4 -20.012 -104.4)" r="2.5"/>
  <linearGradient id="i" y2="39.999" gradientUnits="userSpaceOnUse" x2="25.058" y1="47.028" x1="25.058">
   <stop stop-opacity="0" offset="0"/>
   <stop offset=".5"/>
   <stop stop-opacity="0" offset="1"/>
  </linearGradient>
 </defs>
 <g transform="translate(-187.43 -271.22)">
  <g style="enable-background:new" transform="matrix(3.2 0 0 1.1894 174.63 338.32)">
   <g opacity=".4" transform="matrix(1.0526 0 0 1.2857 -1.2632 -13.429)">
    <rect height="7" width="5" y="40" x="38" fill="url(#c)"/>
    <rect transform="scale(-1)" height="7" width="5" y="-47" x="-10" fill="url(#b)"/>
    <rect height="7" width="28" y="40" x="10" fill="url(#i)"/>
   </g>
  </g>
  <path stroke-linejoin="round" style="color:#000000" d="m194.1 293.38v83.514c0 7.0736 5.0584 12.825 11.393 12.825h91.88c6.3347 0 11.393-5.751 11.393-12.825v-83.514h-114.67z" stroke="url(#f)" stroke-linecap="round" fill="url(#h)"/>
  <path stroke-linejoin="round" style="color:#000000" d="m139.47 20.125v24.469c0 1.637 1.2787 2.9375 2.9062 2.9375h31.25c1.6276 0 2.9062-1.3005 2.9062-2.9375v-24.469h-37.062z" transform="matrix(3.0404 0 0 3.4364 -228.97 225.21)" stroke="url(#g)" stroke-linecap="round" stroke-width=".30938" fill="none"/>
  <g style="enable-background:new" transform="scale(1.0179 .98244)" fill="#3c3c3c">
   <path style="" d="m235.02 308.8c-0.66134 0.34134-1.2586 0.512-1.792 0.51198-0.85332 0.00002-1.7706-0.38396-2.7519-1.152l-3.5199 3.3599 0.76798 0.76798 0.60798-0.51198c0.44797 0.42667 1.2053 0.63999 2.2719 0.63998h0.15999l0.064-0.032h0.064l0.032 3.7439h-0.064l-0.25599 0.064h-0.128c-0.12801 0.064-0.448 0.096-0.95997 0.096-0.0213 0.0214-0.13868 0.032-0.35199 0.032-0.81065 0.00001-1.376-0.10665-1.6959-0.31999-0.55467-1.0026-1.0026-1.8133-1.344-2.4319-0.32-0.63996-0.59733-1.1733-0.83198-1.6-0.87464-1.2799-1.5786-2.1652-2.1119-2.6559-0.81065-0.74662-1.792-1.1199-2.9439-1.12-1.1733 0.00002-2.1546 0.45867-2.9439 1.376-0.81064 0.87465-1.216 1.888-1.216 3.0399 0 0.83199 0.22399 1.2906 0.67198 1.376l-0.064-0.064h0.22399c0.064-0.7253 0.54398-1.3119 1.44-1.76 0.0427-0.0426 0.096-0.064 0.15999-0.064 0.0853 0.00001 0.15999-0.0106 0.22399-0.032 0.14933-0.0426 0.29866-0.0746 0.44799-0.096 0.17066-0.0426 0.30932-0.10665 0.41599-0.19199h0.064v5.2478c-0.38399 0.0427-0.69331 0.0853-0.92797 0.128s-0.39465 0.0747-0.47998 0.096c-0.93864 0.384-1.408 1.2266-1.408 2.5279 0 0.59732 0.19199 1.12 0.57598 1.568 0.38399 0.44799 0.85331 0.67199 1.408 0.67198v-0.22399-0.128l-0.032-0.032c0-0.17065 0.0427-0.34131 0.128-0.51198 0.10666-0.19199 0.23465-0.28798 0.38398-0.28799h0.064c0.064 0.0427 0.11733 0.0747 0.16 0.096 0.0427 0 0.0853 0.0107 0.12799 0.032v4.2879c-2.1119 0.63998-3.4772 2.0906-4.0959 4.3519 0.128-0.0427 0.27733-0.10666 0.44799-0.19199 0.19199-0.064 0.28799-0.096 0.28799-0.096 0.0853-0.0427 0.19199-0.10666 0.31999-0.19199v0.032c0.89597-0.42665 1.8239-0.63998 2.7839-0.63998 1.3013 0 2.6986 0.46932 4.1919 1.408l2.5599-3.3599-0.70398-0.70398-0.38399 0.51198c-0.61865-0.42665-1.248-0.74664-1.8879-0.95997-0.63999-0.23465-1.312-0.35198-2.0159-0.35199h-0.192l-0.064 0.032h-0.032v-3.0719c0.51198-0.34131 1.3333-0.51198 2.4639-0.51198 0.85329 0 1.8346 0.23466 2.9439 0.70397 0.10666 0.23467 0.21332 0.46933 0.31999 0.70398 0.10665 0.21333 0.21332 0.41599 0.31999 0.60798 0.42664 0.83198 0.74663 1.4933 0.95997 1.9839 0.23465 0.46932 0.45864 0.86397 0.67198 1.184h-0.032c1.1946 2.1546 2.3146 3.2319 3.3599 3.2319h0.19199v-17.727c0.064-0.0213 0.13864-0.0426 0.22399-0.064 0.10665-0.0426 0.22398-0.10664 0.35199-0.19199v0.032c0.57596-0.29864 1.1093-0.70396 1.6-1.216 0.31997-0.31997 0.55463-0.6293 0.70398-0.92797 0.14931-0.29864 0.23464-0.5973 0.25599-0.89597l-0.19199-0.128m-11.52 11.52c-0.66132 0.00001-1.536 0.14934-2.6239 0.44799v-8.5757c0.49065 0.23468 1.088 0.99199 1.792 2.2719 0.34131 0.68266 0.8213 1.7066 1.44 3.0719 0.36265 0.78932 0.6613 1.44 0.89597 1.9519 0.23465 0.49066 0.41598 0.86398 0.54399 1.12-0.68266-0.19199-1.3653-0.28799-2.0479-0.288m5.2798-1.248c-0.192-0.42664-0.352-0.77863-0.47998-1.056-0.12801-0.27732-0.22401-0.49064-0.28799-0.63998 0.25598 0.0853 0.5333 0.12801 0.83197 0.12799h0.86397c0.25598 0.00002 0.47997-0.0106 0.67198-0.032 0.21331-0.0213 0.38398-0.064 0.51199-0.128l0.032 5.7278c-0.32001-0.46932-0.66133-1.024-1.024-1.664-0.34134-0.6613-0.71466-1.44-1.12-2.3359"/>
   <path style="" d="m246.05 320.13c-0.21334-0.29865-0.448-0.65064-0.70398-1.056-0.23467-0.42664-0.49066-0.88529-0.76798-1.376-0.29866-0.55464-0.53332-1.056-0.70398-1.504-0.17066-0.44798-0.30933-0.86396-0.41598-1.248-2.1119 1.408-4.0106 2.1119-5.6958 2.1119h-0.128l-0.096-0.032h-0.096l-0.032-0.032h-0.19199l-0.28799-0.28799v0.44799c0.34132 0.74665 0.51198 1.28 0.51198 1.5999v7.7438c-0.42666 0.31999-0.71465 0.57598-0.86397 0.76797-0.0213 0.0213-0.0853 0.10667-0.192 0.256-0.0853 0.14933-0.20266 0.34132-0.35199 0.57598v-0.032c-0.0427 0.0427-0.0853 0.10666-0.12799 0.19199-0.0427 0.064-0.0853 0.14933-0.128 0.25599 0.25599-0.0427 0.51198-0.0747 0.76798-0.096 0.25599-0.0427 0.51198-0.064 0.76797-0.064 0.68265 0 1.4933 0.096 2.4319 0.28799 0.55464 0.10666 1.0453 0.25599 1.472 0.44799 0.42665 0.21332 0.86397 0.43731 1.312 0.67197l0.31999 0.16 2.9119-3.1999-0.79997-0.73598-0.76798 0.79998c-0.49065-0.23466-1.024-0.43732-1.5999-0.60798-0.55466-0.17066-1.1626-0.30932-1.824-0.41599v-2.3999c0.23466-0.17066 0.44798-0.30932 0.63998-0.41599 1.3013-0.76797 2.3252-1.3653 3.0719-1.7919 0.76796-0.44798 1.2799-0.73597 1.536-0.86397l0.032-0.16m-4.2559-0.60798c0.14932 0.32 0.27732 0.58666 0.38399 0.79997 0.12799 0.19201 0.23465 0.352 0.31999 0.47999l-1.728 1.12v-4.0959l0.256-0.064c0.10665 0.29866 0.22398 0.59732 0.35198 0.89597 0.12799 0.29866 0.26666 0.58665 0.41599 0.86397"/>
   <path style="" d="m265.5 316.83c-0.10668 0.0427-0.18135 0.0853-0.224 0.12799-0.0853 0.0213-0.14934 0.032-0.19199 0.032-0.0427 0.00001-0.0854 0.0107-0.12799 0.032v0.032h-0.032c-0.0427 0.0213-0.0854 0.032-0.128 0.032-0.19201 0.00001-0.29868-0.0107-0.31999-0.032-0.68266-0.064-1.2906-0.65064-1.8239-1.76l-3.5199 2.5919 0.47998 0.76798 0.38399-0.16c0.34131 0.40533 0.6613 0.65066 0.95997 0.73598v7.7438c-0.00001 0.40532-0.19201 0.60798-0.57598 0.60798h-0.35199-0.064c-0.00001-0.0213-0.00001-0.032 0-0.032-0.0853-0.0427-0.18134-0.0747-0.28799-0.096-0.10667-0.0427-0.192-0.0853-0.25599-0.128-0.70399-0.34132-1.056-0.8853-1.056-1.632v-8.3517c-0.0427-0.17065-0.0747-0.28798-0.096-0.35199-0.0427-0.064-0.0747-0.12798-0.096-0.19199-0.00001-0.064-0.0107-0.11732-0.032-0.16-0.23467-0.5973-0.78932-1.12-1.664-1.568l-3.2639 2.8159v0.25599c0.38398 0.00001 0.7573 0.12801 1.12 0.38399 0.36265 0.23467 0.54398 0.50133 0.54399 0.79998v7.1358c-0.12801 0.0853-0.26667 0.14933-0.41599 0.19199-0.0213 0.0213-0.0533 0.0427-0.096 0.064l-0.064 0.064-0.12799 0.128c-0.12801-0.10667-0.288-0.21333-0.47999-0.31999-0.192-0.10667-0.40532-0.21333-0.63998-0.31999-0.10667-0.0427-0.17066-0.064-0.19199-0.064-0.0213-0.0213-0.0853-0.0533-0.19199-0.096-0.23467 0-0.40533-0.0427-0.51199-0.128v-7.9357c0-0.6613-0.21333-1.2586-0.63998-1.792-0.42666-0.5333-0.95997-0.91729-1.6-1.152l-3.2319 3.2319 0.25599 0.15999h0.096l0.064 0.032h0.25599l0.096 0.032h0.064c0.44798 0.00001 0.83197 0.32 1.152 0.95997v6.9118h-0.032l-0.032 0.064c-0.66131 0.49065-1.0986 1.1093-1.312 1.8559 0.10666-0.0427 0.21332-0.0747 0.31999-0.096 0.12799-0.0213 0.23465-0.032 0.31999-0.032l0.064-0.032h0.064c0.66131 0 1.2906 0.14933 1.8879 0.44799 0.59731 0.29866 1.2053 0.72531 1.8239 1.28 0.31999-0.23466 0.59731-0.43732 0.83198-0.60798 0.23465-0.17066 0.39464-0.28799 0.47998-0.35199v0.032c0.12799-0.0853 0.21332-0.13866 0.25599-0.16l0.064-0.032 0.064-0.064c0.0213-0.0213 0.11732-0.064 0.28799-0.128 0.38398-0.21333 0.84263-0.49065 1.376-0.83197 0.36264 0.57598 0.84263 1.0666 1.44 1.472 0.61864 0.42665 1.248 0.66131 1.8879 0.70398 0.27731-0.128 0.50131-0.24533 0.67198-0.35199 0.19198-0.0853 0.35198-0.14933 0.47998-0.19199 1.5359-0.70398 3.0719-1.056 4.6079-1.056h0.064c0.064 0.0213 0.28797 0.032 0.67198 0.032-0.23468-0.34132-0.35201-0.52265-0.35199-0.54398-0.21335-0.29866-0.32001-0.60798-0.31999-0.92797v-7.7758c0.83195-0.49064 1.2906-1.216 1.376-2.1759l-0.15999-0.12799"/>
   <path style="" d="m278.31 315.42-0.86397 0.064c-0.384 0.61866-0.88532 0.92798-1.504 0.92797-0.59733 0.00001-1.2373-0.39464-1.9199-1.184-0.76798 0.76798-1.1946 1.1733-1.28 1.216-0.91731 0.49066-1.8666 0.73599-2.8479 0.73597-0.192 0.00002-0.29866-0.0106-0.31999-0.032-0.59732 0.00001-0.97064-0.0427-1.12-0.128-0.23467 0.00001-0.45866-0.096-0.67198-0.28799v0.28799c0 0.0853 0.0213 0.14934 0.064 0.19199v0.032l0.096 0.224c0 0.0853 0.0107 0.13867 0.032 0.15999v-0.032 0.064c0.0213 0.00001 0.032 0.0107 0.032 0.032l0.032 5.5678-0.032 0.064c0 0.27733-0.096 0.54399-0.28799 0.79997l0.032-0.096-0.22399 0.22399 2.1119 0.096-0.35199 0.35199c-0.0853 0.10666-0.16 0.19199-0.22399 0.25599l-0.128 0.12799c-0.72531 0.89598-1.3013 1.7386-1.7279 2.5279-0.42666 0.76798-0.72532 1.5253-0.89598 2.2719h0.92797c0.38399-0.93864 1.0666-1.408 2.0479-1.408 0.23465 0 0.41598 0.032 0.54398 0.096 0.19199 0 0.36265 0.032 0.51199 0.096 0.14932 0.0853 0.30931 0.20266 0.47998 0.35199l0.92797 0.92797c1.0453-1.1093 2.3786-1.664 3.9999-1.664h0.192c0.064 0.0213 0.25598 0.032 0.57598 0.032 0.10665 0.064 0.24531 0.10666 0.41599 0.128h0.63998c0.0426 0 0.0747 0.0107 0.096 0.032h-0.032c0.0427 0.0213 0.18132 0.032 0.41599 0.032l-0.128-0.25599c-0.064-0.10666-0.128-0.21332-0.19199-0.31999-0.064-0.10666-0.0747-0.13866-0.032-0.096l0.032 0.064c-0.0213-0.10666-0.032-0.15999-0.032-0.15999-0.00001-0.0213-0.0107-0.0427-0.032-0.064v0.032l-0.032-0.064v-0.096c-0.0213-0.0213-0.032-0.0533-0.032-0.096v-5.4398c-0.00001 0.0213 0.0107-0.0107 0.032-0.096 0.0213-0.10665 0.0427-0.19198 0.064-0.25599v0.032c-0.00001-0.0213-0.00001-0.0427 0-0.064 0.0213-0.0213 0.032-0.0533 0.032-0.096l0.032-0.064v-0.064l0.064-0.064v-0.064l0.032-0.032c-0.00002-0.064 0.0106-0.11733 0.032-0.16-0.00002-0.0213-0.00002-0.064 0-0.128 0.0213-0.064 0.032-0.10665 0.032-0.12799l-3.0079 0.064c1.7919-1.8346 2.9652-3.6052 3.5199-5.3118l-0.128-0.16m-4.0319 11.808h-0.128c-0.10667 0.0427-0.192 0.0747-0.25599 0.096h-0.064l-0.12799 0.064c-0.78932-0.9813-1.7386-1.472-2.8479-1.472-0.10667 0-0.256 0.0213-0.44799 0.064-0.19199 0.0213-0.41599 0.0533-0.67197 0.096 0.27732-0.27732 0.51197-0.52265 0.70397-0.73597 0.19199-0.23466 0.36265-0.42665 0.51199-0.57599l1.6639-1.6639h1.632l0.064 0.064v4.0319l-0.032 0.032m-0.51198-6.8158c-0.49066 0.49066-0.89598 0.88531-1.216 1.184-0.29867 0.29867-0.53333 0.50133-0.70398 0.60798h-0.35199v-4.0319c0.10666 0.00001 0.22399-0.032 0.35199-0.096h0.12799c0.0213-0.0213 0.064-0.0427 0.128-0.064 0.7893 0.61865 1.4933 0.92798 2.1119 0.92797 0.40531 0.00001 0.7893-0.0747 1.152-0.22399-0.34134 0.36266-0.87465 0.92797-1.6 1.6959"/>
  </g>
  <path style="enable-background:new" d="m202.26 330.85v2.6761h98.667v-2.6761z" stroke="#646464" stroke-width="1px" fill="#646464"/>
  <path style="enable-background:new" d="m202.1 336.87h98.667" stroke="#646464" stroke-linecap="square" stroke-width="1px" fill="none"/>
  <g style="enable-background:new" transform="matrix(2.5159 0 0 2.6761 -139.92 259.93)" stroke="#787878" stroke-linecap="square" stroke-width=".38540px" fill="none">
   <path d="m163.5 32.5h11.66"/>
   <path d="m163.5 34.5h11.66"/>
   <path d="m163.5 36.5h11.66"/>
   <path d="m163.5 38.5h11.66"/>
   <path d="m163.5 40.5h11.66"/>
   <path d="m163.5 42.5h11.66"/>
   <path d="m163.5 44.5h11.66"/>
   <path d="m163.5 46.5h11.66"/>
   <path d="m163.5 46.5h11.66"/>
  </g>
  <g style="enable-background:new" transform="matrix(2.5159 0 0 2.6761 -209.25 259.93)" stroke="#787878" stroke-linecap="square" stroke-width=".38540px" fill="none">
   <path d="m163.5 32.5h11.66"/>
   <path d="m163.5 34.5h11.66"/>
   <path d="m163.5 36.5h11.66"/>
   <path d="m163.5 38.5h11.66"/>
   <path d="m163.5 40.5h11.66"/>
   <path d="m163.5 42.5h11.66"/>
   <path d="m163.5 44.5h11.66"/>
   <path d="m163.5 46.5h11.66"/>
   <path d="m163.5 46.5h11.66"/>
  </g>
  <g style="enable-background:new" transform="matrix(2.5159 0 0 2.6761 -174.58 259.93)" stroke="#787878" stroke-linecap="square" stroke-width=".38540px" fill="none">
   <path d="m163.5 44.5h11.66"/>
   <path d="m163.5 46.5h11.66"/>
   <path d="m163.5 46.5h11.66"/>
  </g>
  <g style="enable-background:new" transform="matrix(2.5159 0 0 2.6761 -209.25 257.23)" stroke="#787878" stroke-linecap="square" stroke-width=".38540px" fill="none">
   <path d="m163.5 32.5h11.66"/>
   <path d="m163.5 34.5h11.66"/>
   <path d="m163.5 36.5h11.66"/>
   <path d="m163.5 38.5h11.66"/>
   <path d="m163.5 40.5h11.66"/>
   <path d="m163.5 42.5h11.66"/>
   <path d="m163.5 44.5h11.66"/>
   <path d="m163.5 46.5h11.66"/>
   <path d="m163.5 46.5h11.66"/>
  </g>
  <g style="enable-background:new" transform="matrix(2.5159 0 0 2.6761 -139.92 257.23)" stroke="#787878" stroke-linecap="square" stroke-width=".38540px" fill="none">
   <path d="m163.5 32.5h11.66"/>
   <path d="m163.5 34.5h11.66"/>
   <path d="m163.5 36.5h11.66"/>
   <path d="m163.5 38.5h11.66"/>
   <path d="m163.5 40.5h11.66"/>
   <path d="m163.5 42.5h11.66"/>
   <path d="m163.5 44.5h11.66"/>
   <path d="m163.5 46.5h11.66"/>
   <path d="m163.5 46.5h11.66"/>
  </g>
  <g style="enable-background:new" transform="matrix(2.5159 0 0 2.6761 -174.58 257.23)" stroke="#787878" stroke-linecap="square" stroke-width=".38540px" fill="none">
   <path d="m163.5 44.5h11.66"/>
   <path d="m163.5 46.5h11.66"/>
   <path d="m163.5 46.5h11.66"/>
  </g>
  <g style="enable-background:new" transform="matrix(1.0625 0 0 1.0625 186.37 343.22)">
   <path opacity=".4" d="m73.25 4.625a10.625 3.625 0 1 1 -21.25 0 10.625 3.625 0 1 1 21.25 0z" fill-rule="evenodd" transform="matrix(2.1647 0 0 2.5637 -111.56 26.85)" fill="url(#d)"/>
   <path d="m43.5 23.999c0 10.77-8.731 19.501-19.5 19.501s-19.5-8.731-19.5-19.501c0-10.769 8.731-19.499 19.5-19.499s19.5 8.7299 19.5 19.499z" stroke="url(#j)" stroke-width=".94118" fill="url(#e)"/>
   <path opacity=".4" d="m24.33 5.2182-2.3623 0.27046-2.5986 0.70995c0.22135-0.077615 0.4456-0.16234 0.67496-0.23665l-0.304-0.541-1.012 0.1691-0.507 0.4733-0.776 0.1014-0.709 0.3381-0.337 0.169-0.101 0.1352-0.507 0.1014-0.303 0.6424-0.405-0.8114-0.13499 0.33807 0.0675 0.91279-0.64121 0.54091-0.37122 0.98041h0.7762l0.30373-0.64234 0.10124-0.23665c0.34129-0.24178 0.66483-0.51103 1.0124-0.74376l0.80995 0.27046c0.52734 0.3589 1.0584 0.72347 1.5861 1.0818l0.777-0.7099-0.878-0.3719-0.405-0.8114-1.485-0.169-0.033-0.169 0.641 0.1352 0.371-0.3719 0.81-0.169c0.192-0.0934 0.38-0.1607 0.574-0.2367l-0.50622 0.4733 1.8224 1.2509v0.74376l-0.7087 0.70995 0.94494 1.8932 0.64121-0.37188 0.80995-1.2509c1.1387-0.35268 2.165-0.76307 3.2398-1.2509l-0.0675 0.4733 0.53996 0.37188 0.94494-0.64233-0.47247-0.54091-0.64121 0.37188-0.20249-0.067613c0.04651-0.02129 0.08828-0.045973 0.13499-0.067613l0.944-2.4341-2.058-0.8114zm-9.2469 3.6512 0.7762 0.54091h0.64121v-0.64233l-0.776-0.3381-0.641 0.4394zm17.92-0.4395-1.384 0.338-0.877 0.5747v0.50711l-1.3837 0.87898 0.26998 1.3185 0.80995-0.57472 0.50622 0.57472 0.57371 0.33807 0.37122-0.98041-0.20249-0.57472 0.20249-0.40569 0.80995-0.74375h0.37122l-0.37122 0.81137v0.74375c0.33384-0.09103 0.6708-0.12648 1.0124-0.16904l-0.94494 0.67614-0.0675 0.40568-1.0799 0.91279-1.1137-0.27046v-0.64234l-0.50622 0.33807 0.23624 0.57472h-0.80995l-0.43872 0.74376-0.53996 0.60853-0.97868 0.20284 0.57371 0.57472 0.13499 0.57472h-0.7087l-0.94494 0.50711v1.4875h0.43872l0.40497 0.43949 0.91119-0.43949 0.33748-0.91279 0.67496-0.40568 0.13499-0.33807 1.0799-0.27046 0.60746 0.67614 0.64121 0.33807-0.37123 0.74376 0.57372-0.16904 0.30373-0.74376-0.74245-0.84518h0.30373l0.74245 0.60853 0.13499 0.81137 0.64121 0.74376 0.16874-1.0818 0.33748-0.16904c0.35922 0.37357 0.64238 0.83043 0.94494 1.2509l1.1137 0.06762 0.64121 0.40569-0.30373 0.43949-0.64121 0.57472h-0.94494l-1.2487-0.40568-0.64121 0.06762-0.47247 0.54092-1.3499-1.3523-0.94494-0.27046-1.3837 0.16904-1.2149 0.33807c-0.69306 0.7871-1.4026 1.5829-2.0586 2.4003l-0.7762 1.8932 0.37123 0.40569-0.67496 0.98041 0.74245 1.7242c0.6178 0.70009 1.2392 1.3955 1.8561 2.096l0.91119-0.77756 0.37123 0.4733 0.97869-0.64234 0.33748 0.37188h0.97868l0.57371 0.64234-0.33748 1.1494 0.67496 0.77756-0.03375 1.3523 0.50622 0.98041-0.37122 0.84518c-0.03619 0.60617-0.0675 1.1855-0.0675 1.7918 0.29776 0.82134 0.59628 1.6407 0.87744 2.4679l0.20249 1.3185v0.67614h0.53996l0.7762-0.50711h0.94494l1.4174-1.5889-0.16874-0.54092 0.94494-0.84518-0.7087-0.77756 0.84369-0.67614 0.80995-0.50711 0.37122-0.40568-0.23623-0.91279c0-0.76848 0.000002-1.5303 0-2.2989l0.64121-1.4199 0.80994-0.87898 0.87744-2.1637v-0.57472c-0.43664 0.0551-0.85517 0.10478-1.2824 0.13523l0.87744-0.87899 1.2149-0.81137 0.64121-0.74376v-0.81137c-0.146-0.274-0.293-0.57-0.439-0.844l-0.57371 0.67614-0.43872-0.5071-0.64121-0.50711v-1.048l0.74245 0.84518 0.8437-0.10142c0.38062 0.34614 0.74609 0.65392 1.0799 1.048l0.53998-0.60854c0-0.65513-0.73657-3.8893-2.3286-6.6262-1.592-2.736-4.3872-5.2401-4.3872-5.2401l-0.20249 0.37188-0.74245 0.81137-0.94494-0.98041h0.94494l0.438-0.4738-1.755-0.3381-0.911-0.338zm-20.283 0.4394-0.337 0.879s-0.59084 0.097717-0.74245 0.13523c-1.9362 1.7873-5.8407 5.6642-6.7496 12.948 0.035987 0.16888 0.64121 1.1494 0.64121 1.1494l1.4849 0.87899 1.4849 0.40568 0.64121 0.77756 0.97869 0.74376 0.57371-0.10142 0.40497 0.20284v0.13523l-0.53996 1.5213-0.43872 0.64234 0.13499 0.30426-0.33748 1.2171 1.2487 2.2989 1.2824 1.1156 0.57371 0.81137-0.0675 1.6904 0.40497 0.9466-0.40497 1.8256s-0.05404-0.01501 0 0.16904c0.05452 0.18413 2.2559 1.4228 2.3961 1.3185 0.13968-0.1063 0.26998-0.20284 0.26998-0.20284l-0.13499-0.40568 0.57371-0.54091 0.20249-0.57472 0.91119-0.30426 0.7087-1.758-0.20249-0.4733 0.47247-0.74376 1.0799-0.23665 0.53996-1.2847-0.13499-1.5889 0.8437-1.1832 0.13499-1.2171c-1.1576-0.57505-2.2933-1.1659-3.4423-1.758l-0.57371-1.1156-1.0462-0.23665-0.57371-1.5213-1.3837 0.16904-1.2149-0.87898-1.2824 1.1156v0.16904c-0.385-0.11-0.84-0.127-1.1817-0.337l-0.26998-0.81137v-0.87898l-0.87744 0.10142c0.070612-0.55989 0.16513-1.1306 0.23623-1.6904h-0.50622l-0.50622 0.64234-0.47247 0.23665-0.7087-0.40568-0.067496-0.87898 0.13499-0.9466 1.0462-0.81137h0.84369l0.16874-0.4733 1.0462 0.23665 0.7762 0.98041 0.13499-1.6227 1.3499-1.1156 0.47247-1.1832 1.0124-0.40568 0.53996-0.81137 1.2824-0.23665 0.64121-0.9466h-1.9236l1.2149-0.57472h0.84369l1.0799-0.37188 0.20249 1.048 0.47247-0.74376-0.53997-0.37188 0.13499-0.43949-0.43872-0.40569-0.47247-0.13523 0.13499-0.50711-0.37123-0.70995-0.8437 0.33807 0.13499-0.64233-0.97869-0.57472-0.7762 1.3523 0.0675 0.4733-0.7762 0.33807-0.47247 1.048-0.23623-0.98041-1.3162-0.54091-0.23623-0.74376 1.7886-1.0142 0.7762-0.74376 0.0675-0.87898-0.43872-0.23665-0.57371-0.067613zm14.478 1.6227v0.54091l0.30373 0.33807v0.81137l-0.16874 1.0818 0.87744-0.16904 0.64121-0.64233-0.57371-0.54092c-0.18605-0.49631-0.3746-0.94387-0.60746-1.4199h-0.47247zm-0.74245 1.0818-0.53996 0.16904 0.13499 0.9804 0.7087-0.37188-0.30373-0.77756zm9.8881 8.8913 0.80995 0.9466 0.97869 2.096 0.60746 0.67614-0.30373 0.70995 0.53996 0.64234c-0.24779 0.01643-0.48776 0.03381-0.74245 0.03381-0.46267-0.97394-0.82884-1.9561-1.1812-2.975l-0.60746-0.67614-0.33748-1.2171 0.23624-0.23665z"/>
   <path opacity=".4" d="m42.5 23.999c0 10.218-8.2833 18.501-18.5 18.501s-18.5-8.2832-18.5-18.501c0-10.217 8.2829-18.499 18.5-18.499 10.216 0 18.5 8.2822 18.5 18.499z" stroke="url(#k)" stroke-width=".94118" fill="none"/>
  </g>
  <path d="m236.32 343.91v5.3084c13.643 0.25422 24.667 11.286 24.918 24.942h5.3569c-0.25315-16.611-13.679-29.998-30.275-30.251zm0 12.241v4.7994c7.2012 0.25058 12.984 6.003 13.235 13.21h4.7994c-0.25288-9.865-8.1781-17.757-18.034-18.01zm3.1511 12.12c-0.84449 0.00003-1.4997 0.31143-2.0846 0.89686-0.58569 0.5758-0.87262 1.1908-0.87262 2.0361 0 0.83205 0.289 1.4866 0.87262 2.0604 0.58186 0.57205 1.2336 0.84838 2.0846 0.84837 0.82456 0.00001 1.4389-0.27482 2.0119-0.84837 0.58675-0.58731 0.89685-1.2416 0.89686-2.0604-0.00001-0.84526-0.31118-1.4603-0.89686-2.0361-0.57601-0.58702-1.1939-0.89683-2.0119-0.89686z" fill="#646464"/>
 </g>
</svg>
