<!-- Created with Inkscape (http://www.inkscape.org/) -->
<svg id="svg5157" xmlns:rdf="http://www.w3.org/1999/02/22-rdf-syntax-ns#" xmlns="http://www.w3.org/2000/svg" height="128" width="128" version="1.1" xmlns:cc="http://creativecommons.org/ns#" xmlns:dc="http://purl.org/dc/elements/1.1/">
<defs id="defs5159">
<linearGradient id="linearGradient3795" y2="117.75" gradientUnits="userSpaceOnUse" y1="14.893" x2="65.728" x1="65.728">
<stop id="stop4248" stop-color="#FFF" offset="0"/>
<stop id="stop4250" stop-color="#FFF" stop-opacity="0.23529412" offset="0.23521"/>
<stop id="stop4252" stop-color="#FFF" stop-opacity="0.15686275" offset="0.76405"/>
<stop id="stop4254" stop-color="#FFF" stop-opacity="0.39215687" offset="1"/>
</linearGradient>
<radialGradient id="radialGradient3871" fx="-0.12324" gradientUnits="userSpaceOnUse" cy="8.4498" cx="15.645" gradientTransform="matrix(-1.7030133e-7,2.7986346,-2.6367191,-1.9276587e-7,86.77997,14.65803)" r="20">
<stop id="stop3780" stop-color="#409ee4" offset="0"/>
<stop id="stop3782" stop-color="#478def" offset="0.26238"/>
<stop id="stop3784" stop-color="#3e76e0" offset="0.70495"/>
<stop id="stop3786" stop-color="#3f70de" offset="1"/>
</radialGradient>
<radialGradient id="radialGradient3874" gradientUnits="userSpaceOnUse" cy="186.17" cx="99.157" gradientTransform="matrix(0.6869404,0,0,0.21461693,-4.02174,68.573331)" r="62.769">
<stop id="stop3822-2-6-5-0" stop-color="#3d3d3d" offset="0"/>
<stop id="stop3864-8-7-4-1" stop-color="#686868" stop-opacity="0.49803922" offset="0.5"/>
<stop id="stop3824-1-2-6-7" stop-color="#686868" stop-opacity="0" offset="1"/>
</radialGradient>
</defs>
<metadata id="metadata5162">
<rdf:RDF>
<cc:Work rdf:about="">
<dc:format>image/svg+xml</dc:format>
<dc:type rdf:resource="http://purl.org/dc/dcmitype/StillImage"/>
<dc:title/>
</cc:Work>
</rdf:RDF>
</metadata>
<path id="path3818-0-5-0" d="m107.21,108.53a43.119,13.471,0,1,1,-86.237,0,43.119,13.471,0,1,1,86.237,0z" fill="url(#radialGradient3874)"/>
<path id="path2555-7-6" fill-rule="nonzero" style="color:#000000;enable-background:accumulate;" fill="url(#radialGradient3871)" d="m64.5,13.998c-28.692,0-52,23.308-52,52s23.308,52,52,52,52-23.308,52-52-23.308-52-52-52z"/>
<path id="path8655-6-1" opacity="0.4" stroke-linejoin="round" style="color:#000000;enable-background:accumulate;" d="M116.5,65.996c0,28.72-23.283,52.004-51.999,52.004-28.719,0-52.001-23.284-52.001-52.004,0-28.718,23.282-51.998,52.001-51.998,28.716,0,51.999,23.28,51.999,51.998z" stroke-dashoffset="0" stroke="#000" stroke-linecap="round" stroke-miterlimit="4" stroke-dasharray="none" stroke-width="0.99999994" fill="none"/>
<path id="path3019" opacity="0.4" d="m116.78,66.446a51.008,51.008,0,1,1,-102.02,0,51.008,51.008,0,1,1,102.02,0z" transform="translate(-1.2729187,-0.447578)" stroke="url(#linearGradient3795)" stroke-miterlimit="4" stroke-dasharray="none" stroke-width="1" fill="none"/>
<path id="path3773" opacity="0.15" d="m53.823,46.629c-0.50563-0.0338-0.98508,0.065-1.4642,0.34164-0.95846,0.55332-1.179,1.4715-1.513,2.6844-0.33401,1.2129-0.6183,2.7881-0.82971,4.5878-0.42279,3.5993-0.63448,8.1479-0.63448,12.738,0,4.5904,0.21169,9.1879,0.63448,12.787,0.21141,1.7997,0.4957,3.3749,0.82971,4.5878s0.55456,2.1309,1.513,2.6844c0.95901,0.55353,1.9056,0.3179,3.1236,0s2.6785-0.89271,4.3437-1.6105c3.3304-1.4358,7.3937-3.5584,11.372-5.8567,3.978-2.2983,7.8786-4.7624,10.786-6.9305,1.4538-1.084,2.679-2.0808,3.5628-2.9771,0.88391-0.89632,1.5618-1.5773,1.5618-2.6844s-0.67773-1.7894-1.5618-2.6844c-0.88407-0.89505-2.1091-1.8954-3.5628-2.9771-2.9078-2.1636-6.808-4.6384-10.786-6.9305-3.9782-2.2921-8.0414-4.3768-11.372-5.808-1.6652-0.71557-3.1258-1.2942-4.3437-1.6105-0.60896-0.15823-1.1538-0.30786-1.6594-0.34164z" fill-rule="evenodd" fill="#000"/>
<path id="path4996" opacity="0.15" d="m86.112,66.998c0,3.8423-29.947,21.133-33.276,19.212-3.3276-1.9212-3.3276-36.502,0-38.423,3.3276-1.9212,33.276,15.369,33.276,19.212z" fill-rule="evenodd" fill="#00008c"/>
<path id="path4224" fill-rule="evenodd" fill="#fafafa" d="m86.112,65.998c0,3.8423-29.947,21.133-33.276,19.212-3.3276-1.9212-3.3276-36.502,0-38.423,3.3276-1.9212,33.276,15.369,33.276,19.212z"/>
</svg>
