<?xml version="1.0" encoding="UTF-8" standalone="no"?>
<!-- Created with Inkscape (http://www.inkscape.org/) -->

<svg
   xmlns:dc="http://purl.org/dc/elements/1.1/"
   xmlns:cc="http://creativecommons.org/ns#"
   xmlns:rdf="http://www.w3.org/1999/02/22-rdf-syntax-ns#"
   xmlns:svg="http://www.w3.org/2000/svg"
   xmlns="http://www.w3.org/2000/svg"
   xmlns:xlink="http://www.w3.org/1999/xlink"
   xmlns:sodipodi="http://sodipodi.sourceforge.net/DTD/sodipodi-0.dtd"
   xmlns:inkscape="http://www.inkscape.org/namespaces/inkscape"
   version="1.1"
   width="128"
   height="128"
   id="svg4279"
   inkscape:version="0.91 r13725"
   sodipodi:docname="preferences-system-time.svg">
  <sodipodi:namedview
     pagecolor="#ffffff"
     bordercolor="#666666"
     borderopacity="1"
     objecttolerance="10"
     gridtolerance="10"
     guidetolerance="10"
     inkscape:pageopacity="0"
     inkscape:pageshadow="2"
     inkscape:window-width="1366"
     inkscape:window-height="718"
     id="namedview63"
     showgrid="false"
     inkscape:snap-bbox="true"
     inkscape:bbox-paths="true"
     inkscape:bbox-nodes="true"
     inkscape:snap-bbox-edge-midpoints="true"
     inkscape:zoom="1"
     inkscape:cx="43.288664"
     inkscape:cy="90.417121"
     inkscape:window-x="0"
     inkscape:window-y="25"
     inkscape:window-maximized="1"
     inkscape:current-layer="svg4279"
     showguides="false"
     inkscape:guide-bbox="true">
    <inkscape:grid
       type="xygrid"
       id="grid4191" />
    <sodipodi:guide
       position="-48,85"
       orientation="0,1"
       id="guide4254" />
    <sodipodi:guide
       position="-48,7"
       orientation="0,1"
       id="guide4256" />
    <sodipodi:guide
       position="9,143"
       orientation="1,0"
       id="guide4258" />
    <sodipodi:guide
       position="87,142"
       orientation="1,0"
       id="guide4260" />
  </sodipodi:namedview>
  <defs
     id="defs4281">
    <linearGradient
       id="linearGradient4119">
      <stop
         id="stop4121"
         style="stop-color:#ffffff;stop-opacity:1"
         offset="0" />
      <stop
         id="stop4148"
         style="stop-color:#afaba5;stop-opacity:1"
         offset="0.53996283" />
      <stop
         id="stop4146"
         style="stop-color:#837874;stop-opacity:1"
         offset="0.61988848" />
      <stop
         id="stop4123"
         style="stop-color:#b4b2aa;stop-opacity:1"
         offset="1" />
    </linearGradient>
    <linearGradient
       x1="71.204407"
       y1="15.369057"
       x2="71.204407"
       y2="40.495617"
       id="linearGradient3221"
       xlink:href="#linearGradient4806-9"
       gradientUnits="userSpaceOnUse"
       gradientTransform="matrix(4.1230565,0,0,4.1230589,-233.58619,-47.896858)" />
    <linearGradient
       id="linearGradient4806-9">
      <stop
         id="stop4808-49"
         style="stop-color:#ffffff;stop-opacity:1"
         offset="0" />
      <stop
         id="stop4810-05"
         style="stop-color:#ffffff;stop-opacity:0.23529412"
         offset="0.42447853" />
      <stop
         id="stop4812-6"
         style="stop-color:#ffffff;stop-opacity:0.15686275"
         offset="0.82089913" />
      <stop
         id="stop4814-7"
         style="stop-color:#ffffff;stop-opacity:0.39215687"
         offset="1" />
    </linearGradient>
    <radialGradient
       cx="15.026252"
       cy="8.6257601"
       r="19.99999"
       fx="0.3035326"
       fy="8.625761"
       id="radialGradient3228"
       xlink:href="#linearGradient2867-449-88-871-390-598-476-591-434-148-57-177-641-289-620-227-114-444-680-744-4-8-69-5-4-8-426-2-9-1-4-965"
       gradientUnits="userSpaceOnUse"
       gradientTransform="matrix(-1.6866382e-7,2.7717243,-2.6113664,-1.9091234e-7,86.065736,16.153511)" />
    <linearGradient
       id="linearGradient2867-449-88-871-390-598-476-591-434-148-57-177-641-289-620-227-114-444-680-744-4-8-69-5-4-8-426-2-9-1-4-965">
      <stop
         id="stop4036"
         style="stop-color:#f4f4f4;stop-opacity:1"
         offset="0" />
      <stop
         id="stop4040"
         style="stop-color:#dadada;stop-opacity:1"
         offset="1" />
    </linearGradient>
    <linearGradient
       id="linearGradient3820-7-2-2">
      <stop
         id="stop3822-2-6-36"
         style="stop-color:#3d3d3d;stop-opacity:1"
         offset="0" />
      <stop
         id="stop3864-8-7-6"
         style="stop-color:#686868;stop-opacity:0.49803922"
         offset="0.5" />
      <stop
         id="stop3824-1-2-4"
         style="stop-color:#686868;stop-opacity:0"
         offset="1" />
    </linearGradient>
    <radialGradient
       cx="99.157013"
       cy="186.17059"
       r="62.769119"
       fx="99.157013"
       fy="186.17059"
       id="radialGradient4277"
       xlink:href="#linearGradient3820-7-2-2"
       gradientUnits="userSpaceOnUse"
       gradientTransform="matrix(0.63725602,0,0,0.20276334,0.8115954,72.856169)" />
    <radialGradient
       cx="15.026252"
       cy="8.6257601"
       r="19.99999"
       fx="0.3035326"
       fy="8.625761"
       id="radialGradient3228-8"
       xlink:href="#linearGradient2867-449-88-871-390-598-476-591-434-148-57-177-641-289-620-227-114-444-680-744-4-8-69-5-4-8-426-2-9-1-4-965-2"
       gradientUnits="userSpaceOnUse"
       gradientTransform="matrix(-4.7487238e-8,0.78037803,-0.73522917,-5.3751304e-8,22.212601,1.684189)" />
    <linearGradient
       id="linearGradient2867-449-88-871-390-598-476-591-434-148-57-177-641-289-620-227-114-444-680-744-4-8-69-5-4-8-426-2-9-1-4-965-2">
      <stop
         id="stop4036-1"
         style="stop-color:#f4f4f4;stop-opacity:1"
         offset="0" />
      <stop
         id="stop4040-2"
         style="stop-color:#d0d0d0;stop-opacity:1"
         offset="1" />
    </linearGradient>
    <radialGradient
       cx="15.026252"
       cy="8.6257601"
       r="19.99999"
       fx="0.3035326"
       fy="8.625761"
       id="radialGradient4949"
       xlink:href="#linearGradient2867-449-88-871-390-598-476-591-434-148-57-177-641-289-620-227-114-444-680-744-4-8-69-5-4-8-426-2-9-1-4-965-2"
       gradientUnits="userSpaceOnUse"
       gradientTransform="matrix(-4.7487238e-8,0.78037803,-0.73522917,-5.3751304e-8,20.712408,0.1839955)" />
    <radialGradient
       cx="16"
       cy="15.377224"
       r="0.62612247"
       fx="16"
       fy="15.377224"
       id="radialGradient4125-6"
       xlink:href="#linearGradient4119-0"
       gradientUnits="userSpaceOnUse"
       gradientTransform="matrix(0,1.9131623,-1.9131652,0,45.41917,-15.233372)" />
    <linearGradient
       id="linearGradient4119-0">
      <stop
         id="stop4121-2"
         style="stop-color:#ffffff;stop-opacity:1"
         offset="0" />
      <stop
         id="stop4148-9"
         style="stop-color:#afaba5;stop-opacity:1"
         offset="0.53996283" />
      <stop
         id="stop4146-7"
         style="stop-color:#837874;stop-opacity:1"
         offset="0.61988848" />
      <stop
         id="stop4123-5"
         style="stop-color:#b4b2aa;stop-opacity:1"
         offset="1" />
    </linearGradient>
    <linearGradient
       x1="71.204407"
       y1="15.369057"
       x2="71.204407"
       y2="40.495617"
       id="linearGradient3221-8"
       xlink:href="#linearGradient4806-9-3"
       gradientUnits="userSpaceOnUse"
       gradientTransform="matrix(1.1022033,0,0,1.1022038,-7.5861158,-10.16348)" />
    <linearGradient
       id="linearGradient4806-9-3">
      <stop
         id="stop4808-49-1"
         style="stop-color:#ffffff;stop-opacity:1"
         offset="0" />
      <stop
         id="stop4810-05-0"
         style="stop-color:#ffffff;stop-opacity:0.23529412"
         offset="0.42447853" />
      <stop
         id="stop4812-6-2"
         style="stop-color:#ffffff;stop-opacity:0.15686275"
         offset="0.82089913" />
      <stop
         id="stop4814-7-9"
         style="stop-color:#ffffff;stop-opacity:0.39215687"
         offset="1" />
    </linearGradient>
    <radialGradient
       cx="15.026252"
       cy="8.6257601"
       r="19.99999"
       fx="0.3035326"
       fy="8.625761"
       id="radialGradient3228-1"
       xlink:href="#linearGradient2867-449-88-871-390-598-476-591-434-148-57-177-641-289-620-227-114-444-680-744-4-8-69-5-4-8-426-2-9-1-4-965-4"
       gradientUnits="userSpaceOnUse"
       gradientTransform="matrix(-4.7487238e-8,0.78037803,-0.73522917,-5.3751304e-8,78.179235,6.2357099)" />
    <linearGradient
       id="linearGradient2867-449-88-871-390-598-476-591-434-148-57-177-641-289-620-227-114-444-680-744-4-8-69-5-4-8-426-2-9-1-4-965-4">
      <stop
         id="stop4036-8"
         style="stop-color:#f4f4f4;stop-opacity:1"
         offset="0" />
      <stop
         id="stop4040-4"
         style="stop-color:#dadada;stop-opacity:1"
         offset="1" />
    </linearGradient>
    <radialGradient
       cx="99.157013"
       cy="186.17059"
       r="62.769119"
       fx="99.157013"
       fy="186.17059"
       id="radialGradient4277-5"
       xlink:href="#linearGradient3820-7-2-2-0"
       gradientUnits="userSpaceOnUse"
       gradientTransform="matrix(0.17524541,0,0,0.05575992,-1.37681,18.119145)" />
    <linearGradient
       id="linearGradient3820-7-2-2-0">
      <stop
         id="stop3822-2-6-36-5"
         style="stop-color:#3d3d3d;stop-opacity:1"
         offset="0" />
      <stop
         id="stop3864-8-7-6-2"
         style="stop-color:#686868;stop-opacity:0.49803922"
         offset="0.5" />
      <stop
         id="stop3824-1-2-4-7"
         style="stop-color:#686868;stop-opacity:0"
         offset="1" />
    </linearGradient>
    <radialGradient
       cx="99.157013"
       cy="186.17059"
       r="62.769119"
       fx="99.157013"
       fy="186.17059"
       id="radialGradient3070"
       xlink:href="#linearGradient3820-7-2-2-0"
       gradientUnits="userSpaceOnUse"
       gradientTransform="matrix(0.17524541,0,0,0.05575992,54.589824,22.670666)" />
    <radialGradient
       cx="16"
       cy="15.377224"
       r="0.62612247"
       fx="16"
       fy="15.377224"
       id="radialGradient3139"
       xlink:href="#linearGradient4119"
       gradientUnits="userSpaceOnUse"
       gradientTransform="matrix(0,6.1111439,-6.1277304,0,158.22748,-33.10081)" />
    <linearGradient
       id="linearGradient8838">
      <stop
         id="stop8840"
         style="stop-color:#000000;stop-opacity:1"
         offset="0" />
      <stop
         id="stop8842"
         style="stop-color:#000000;stop-opacity:0"
         offset="1" />
    </linearGradient>
    <linearGradient
       id="linearGradient2867-449-88-871-390-598-476-591-434-148-57-177-3-8">
      <stop
         id="stop3750-8-9"
         style="stop-color:#90dbec;stop-opacity:1;"
         offset="0" />
      <stop
         id="stop3752-3-2"
         style="stop-color:#42baea;stop-opacity:1"
         offset="0.26238" />
      <stop
         id="stop3754-7-2"
         style="stop-color:#3689e6;stop-opacity:1;"
         offset="0.704952" />
      <stop
         id="stop3756-9-3"
         style="stop-color:#2b63a0;stop-opacity:1;"
         offset="1" />
    </linearGradient>
    <linearGradient
       id="linearGradient3707-319-631-407-324-3-8">
      <stop
         id="stop3760-7-3"
         style="stop-color:#185f9a;stop-opacity:1;"
         offset="0" />
      <stop
         id="stop3762-8-4"
         style="stop-color:#599ec9;stop-opacity:1;"
         offset="1" />
    </linearGradient>
    <linearGradient
       id="linearGradient4011">
      <stop
         id="stop4013"
         style="stop-color:#ffffff;stop-opacity:1;"
         offset="0" />
      <stop
         offset="0.507761"
         style="stop-color:#ffffff;stop-opacity:0.23529412;"
         id="stop4015" />
      <stop
         id="stop4017"
         style="stop-color:#ffffff;stop-opacity:0.15686275;"
         offset="0.83456558" />
      <stop
         id="stop4019"
         style="stop-color:#ffffff;stop-opacity:0.39215687;"
         offset="1" />
    </linearGradient>
  </defs>
  <metadata
     id="metadata4284">
    <rdf:RDF>
      <cc:Work
         rdf:about="">
        <dc:format>image/svg+xml</dc:format>
        <dc:type
           rdf:resource="http://purl.org/dc/dcmitype/StillImage" />
        <dc:title></dc:title>
      </cc:Work>
    </rdf:RDF>
  </metadata>
  <path
     style="fill:url(#radialGradient4277);fill-opacity:1;stroke:none"
     id="path3818-0-2"
     inkscape:connector-curvature="0"
     d="m 104,110.60473 a 40,12.727272 0 0 1 -80,0 40,12.727272 0 1 1 80,0 z" />
  <path
     style="color:#000000;display:inline;overflow:visible;visibility:visible;fill:url(#radialGradient3228);fill-opacity:1;fill-rule:nonzero;stroke:none;stroke-width:1;marker:none;enable-background:accumulate"
     id="path2555-7-65"
     inkscape:connector-curvature="0"
     d="M 63.999998,15.5 C 35.584073,15.5 12.5,38.584075 12.5,66.999999 12.5,95.415923 35.584073,118.50001 63.999998,118.5 92.415918,118.5 115.50002,95.415923 115.5,66.999999 115.5,38.584075 92.415918,15.5 63.999998,15.5 Z" />
  <path
     style="color:#000000;display:inline;overflow:visible;visibility:visible;opacity:0.4;fill:none;stroke:#000000;stroke-width:0.99999988;stroke-linecap:round;stroke-linejoin:round;stroke-miterlimit:4;stroke-dasharray:none;stroke-dashoffset:0;stroke-opacity:1;marker:none;enable-background:accumulate"
     id="path2555-7-1-7"
     inkscape:connector-curvature="0"
     d="M 64.000002,15.499999 C 35.584076,15.499999 12.5,38.584068 12.5,66.999991 12.5,95.415918 35.584076,118.5 64.000002,118.49999 92.415925,118.49999 115.50004,95.415918 115.5,66.999991 115.5,38.584068 92.415925,15.499999 64.000002,15.499999 Z" />
  <path
     style="fill:none;stroke:#333333;stroke-width:0.59999996;stroke-linecap:round;stroke-linejoin:miter;stroke-miterlimit:4;stroke-dasharray:none;stroke-opacity:1"
     id="path2312"
     inkscape:connector-curvature="0"
     d="M 60.758726,70.213424 91.40117,35.266802" />
  <path
     style="fill:#0000ff;fill-opacity:1;stroke:#333333;stroke-width:0.59999996;stroke-linecap:round;stroke-linejoin:miter;stroke-miterlimit:4;stroke-dasharray:none;stroke-opacity:1"
     id="path2314"
     inkscape:connector-curvature="0"
     d="M 67.443136,67.138597 40.6,65.398702" />
  <path
     style="fill:none;stroke:#eb5c3a;stroke-width:0.59999996;stroke-linecap:round;stroke-linejoin:miter;stroke-miterlimit:4;stroke-dasharray:none;stroke-opacity:1"
     id="path2316"
     inkscape:connector-curvature="0"
     d="M 60.758726,58.817963 75.288232,98.066802" />
  <path
     sodipodi:nodetypes="cccccccccccccccccccccccccccscccccccccccccccccccccccccccccccscccscccccsccccccccccccccccccccccccscsccssccsscccccccscccccsccccccccccccscccsccccccccscscscccccccscccccccccccccccccccscccccccc"
     style="font-style:normal;font-variant:normal;font-weight:normal;font-stretch:normal;font-size:4px;line-height:125%;font-family:Raleway;-inkscape-font-specification:Raleway;letter-spacing:0px;word-spacing:0px;opacity:0.4;fill:#000000;fill-opacity:1;stroke:none"
     id="text4045"
     inkscape:connector-curvature="0"
     d="m 68.514246,19.94282 c -0.486732,1.2e-5 -0.941426,0.10808 -1.33495,0.24272 -0.383184,0.12428 -0.680906,0.19842 -0.970874,0.364078 -0.27961,0.16572 -0.552104,0.441108 -0.728154,0.606796 -0.17602,0.16572 -0.301944,0.18058 -0.364078,0.242722 l 0.728154,0.849514 c 0.0725,-0.0932 0.229452,-0.219094 0.364078,-0.364078 0.14498,-0.15532 0.27833,-0.3508 0.485436,-0.485436 0.20713,-0.13464 0.458898,-0.270868 0.728156,-0.364078 0.279612,-0.10354 0.629124,-0.12134 0.970876,-0.12134 0.331376,8e-6 0.600966,0.02818 0.849514,0.12134 0.258916,0.09322 0.441092,0.208738 0.606794,0.364078 0.17602,0.15534 0.281206,0.410038 0.36408,0.606796 0.0932,0.19676 0.12134,0.288678 0.12134,0.485434 -1.2e-5,0.31069 -0.0563,0.621692 -0.242724,0.849518 -0.17608,0.227832 -0.448546,0.420394 -0.728158,0.606796 -0.27961,0.18642 -0.518128,0.3301 -0.849512,0.485434 -0.321048,0.145 -0.691268,0.340462 -0.970872,0.48544 -0.528164,0.279612 -0.87185,0.52848 -1.213596,0.849512 -0.331376,0.310686 -0.652752,0.62913 -0.849512,0.970874 -0.18644,0.341748 -0.291574,0.71942 -0.36408,1.092236 -0.06212,0.362458 -0.12134,0.830422 -0.12134,1.213588 l 6.674762,0 0,-0.970874 -5.461168,0 c 0.04146,-0.32103 0.1495,-0.600966 0.242722,-0.849512 0.10356,-0.248544 0.288656,-0.521034 0.485434,-0.728154 0.19678,-0.20711 0.417472,-0.41003 0.728156,-0.606796 0.310682,-0.19676 0.74757,-0.399674 1.213592,-0.606798 0.19674,-0.0932 0.427824,-0.219096 0.728156,-0.364076 0.310682,-0.14498 0.559542,-0.378962 0.849514,-0.606798 0.289944,-0.227834 0.531386,-0.41747 0.728154,-0.728154 0.207132,-0.32103 0.36408,-0.778636 0.36408,-1.213592 -8e-6,-0.331388 -0.10806,-0.559542 -0.242722,-0.849518 -0.13466,-0.300312 -0.347884,-0.621674 -0.606796,-0.849512 -0.258918,-0.227812 -0.598068,-0.361158 -0.970876,-0.485438 -0.362444,-0.1346 -0.747574,-0.24271 -1.213586,-0.242722 z m -7.645628,0.12134 c -0.02044,0.05178 -0.18802,0.20874 -0.364078,0.364076 -0.17602,0.15534 -0.347886,0.309396 -0.606798,0.485438 -0.248558,0.17604 -0.559548,0.350814 -0.849516,0.485436 -0.279608,0.13466 -0.48997,0.242728 -0.728154,0.24272 l 0,0.970874 c 0.19678,6e-6 0.347882,-0.03848 0.606798,-0.12136 0.258914,-0.08282 0.611324,-0.239798 0.849512,-0.364078 0.248558,-0.12426 0.410032,-0.219096 0.606796,-0.364076 0.19678,-0.14498 0.392228,-0.239798 0.48544,-0.364078 l 0,6.674756 -2.184468,0 0,0.970876 5.218446,0 0,-0.970876 -1.941746,0 0,-8.009708 z M 20.816654,61.572812 c -0.54887,7e-6 -1.101298,0.04598 -1.57767,0.242719 -0.476378,0.196778 -0.861491,0.507775 -1.213594,0.849515 -0.341748,0.341747 -0.642393,0.74758 -0.849513,1.213592 -0.196762,0.45567 -0.242719,0.92816 -0.242719,1.45631 0,0.517806 0.04596,1.000653 0.242719,1.456311 0.19676,0.455667 0.507765,0.871848 0.849513,1.213592 0.341748,0.331381 0.757926,0.531395 1.213594,0.728156 0.466018,0.186418 0.928152,0.364078 1.456312,0.364078 0.704202,0 1.271514,-0.244361 1.820388,-0.606798 0.559218,-0.362444 0.985754,-0.845302 1.213594,-1.456308 -6e-6,0.766344 -0.0874,1.462461 -0.24272,2.063106 -0.145,0.590291 -0.337546,1.052428 -0.606796,1.456311 -0.258908,0.414242 -0.598064,0.753397 -0.970876,0.970872 -0.372818,0.217472 -0.757932,0.364078 -1.21359,0.364078 -0.57994,0 -1.101298,-0.16439 -1.57767,-0.485436 -0.476379,-0.310679 -0.763755,-0.806795 -0.970875,-1.334951 l -0.728154,0.728156 c 0.300319,0.642069 0.755013,1.093847 1.334952,1.456308 0.579931,0.362446 1.216825,0.485432 1.941747,0.485438 0.611,-6e-6 1.201936,-0.09483 1.69903,-0.364077 0.497082,-0.26925 0.861482,-0.654369 1.213592,-1.213592 0.362454,-0.548866 0.652742,-1.23463 0.849516,-2.063108 0.19676,-0.838831 0.364068,-1.79417 0.364076,-2.912622 -8e-6,-0.714559 -0.16732,-1.372162 -0.364076,-1.941747 -0.19676,-0.579931 -0.49742,-1.062777 -0.849516,-1.456311 -0.341754,-0.393518 -0.726866,-0.763748 -1.213592,-0.970874 -0.48674,-0.217469 -0.997742,-0.242711 -1.577672,-0.242718 z m 87.263356,0 c -0.37281,7e-6 -0.74013,0.02835 -1.09223,0.121356 -0.35212,0.08288 -0.68091,0.208739 -0.97087,0.364077 -0.28998,0.15534 -0.50033,0.378991 -0.72816,0.606796 -0.22783,0.217477 -0.48252,0.458909 -0.60679,0.728156 l 0.72815,0.606796 c 0.22784,-0.466012 0.52557,-0.833324 0.97087,-1.092233 0.45567,-0.269242 0.98738,-0.364078 1.57767,-0.364078 0.32105,8e-6 0.70162,0.03845 0.97088,0.121356 0.27961,0.08287 0.53138,0.198406 0.72815,0.364078 0.20713,0.155338 0.37154,0.368622 0.48544,0.606797 0.11392,0.227845 0.12134,0.417483 0.12134,0.728155 0,0.590294 -0.18222,1.083497 -0.6068,1.456308 -0.4246,0.372817 -1.02298,0.606797 -1.82039,0.606797 l -0.48543,0 0,0.849514 0.36408,0 c 0.88025,0 1.59708,0.192554 2.0631,0.606798 0.46601,0.414241 0.72815,0.984466 0.72816,1.699028 -1e-5,0.704205 -0.28287,1.326213 -0.72816,1.69903 -0.44531,0.383184 -1.04369,0.485437 -1.82038,0.485437 -0.67315,0 -1.25373,-0.09483 -1.69903,-0.364078 -0.44531,-0.269251 -0.7534,-0.63657 -0.97088,-1.092234 l -0.72815,0.728157 c 0.30032,0.559225 0.74467,0.902914 1.33496,1.213592 0.59028,0.32105 1.27605,0.485432 2.0631,0.485438 0.53851,-6e-6 1.02136,-0.08739 1.45631,-0.242723 0.4453,-0.144972 0.78155,-0.327183 1.09224,-0.606797 0.32101,-0.26925 0.56245,-0.577347 0.72815,-0.970872 0.17602,-0.383186 0.36408,-0.868934 0.36408,-1.334953 -10e-6,-0.745631 -0.19258,-1.312942 -0.6068,-1.820386 -0.40388,-0.507442 -1.01554,-0.856956 -1.69902,-0.970875 0.321,-0.04145 0.60096,-0.09775 0.84951,-0.242723 0.25891,-0.155332 0.55209,-0.389316 0.72816,-0.606794 0.17602,-0.227805 0.27088,-0.448542 0.36407,-0.728156 0.0932,-0.289942 0.12134,-0.538828 0.12134,-0.849514 0,-0.414233 -0.077,-0.871837 -0.24272,-1.213592 -0.15532,-0.341737 -0.43819,-0.61131 -0.72815,-0.849504 -0.28998,-0.248544 -0.567,-0.47216 -0.97087,-0.606797 -0.39352,-0.1346 -0.85857,-0.121358 -1.33493,-0.121358 z m -87.263356,0.849514 c 0.393524,8e-6 0.75048,0.08738 1.092232,0.24272 0.352098,0.145006 0.590612,0.337553 0.849516,0.606796 0.269252,0.258914 0.57281,0.618777 0.728158,0.970874 0.15532,0.341747 0.242712,0.709067 0.24272,1.092231 -6e-6,0.393534 -0.08736,0.740134 -0.24272,1.092234 -0.145,0.341747 -0.337548,0.590616 -0.606798,0.849514 -0.258906,0.258916 -0.618778,0.572819 -0.970876,0.728155 -0.352106,0.144972 -0.698708,0.121362 -1.092232,0.121362 -0.39353,3e-6 -0.740132,0.02362 -1.09223,-0.121362 -0.341752,-0.15534 -0.711982,-0.469252 -0.970875,-0.728155 -0.258902,-0.258898 -0.451461,-0.507761 -0.606798,-0.849514 -0.155326,-0.352117 -0.242717,-0.6987 -0.242717,-1.092234 -2e-6,-0.393522 0.09774,-0.750477 0.242717,-1.092232 0.155326,-0.352078 0.347896,-0.711969 0.606798,-0.970874 0.269253,-0.258913 0.629123,-0.461806 0.970875,-0.606796 0.3521,-0.155342 0.6987,-0.242719 1.09223,-0.242719 z m 44.299374,40.416264 c -0.611006,1e-5 -1.201946,0.21619 -1.699028,0.48543 -0.497092,0.26928 -0.851136,0.65439 -1.213592,1.2136 -0.352118,0.54888 -0.652756,1.22428 -0.849518,2.06311 -0.19678,0.82848 -0.242724,1.79417 -0.242724,2.91262 0,0.71457 0.0563,1.36181 0.242724,1.94175 0.19678,0.56958 0.497412,1.06278 0.849518,1.45631 0.352114,0.39353 0.726856,0.63204 1.213592,0.84951 0.486726,0.20713 0.99773,0.36408 1.577666,0.36408 0.548864,0 1.101292,-0.046 1.57767,-0.24272 0.476372,-0.19678 0.87184,-0.50777 1.213594,-0.84952 0.352118,-0.34174 0.65274,-0.75793 0.849518,-1.21359 0.207108,-0.46602 0.24272,-0.92815 0.24272,-1.45631 -8e-6,-0.51779 -0.04598,-1.00064 -0.24272,-1.45631 -0.19678,-0.45566 -0.507778,-0.8822 -0.849518,-1.21359 -0.341748,-0.34175 -0.74758,-0.54174 -1.213594,-0.72816 -0.455668,-0.19674 -0.928156,-0.36408 -1.456308,-0.36408 -0.704212,1e-5 -1.26117,0.24436 -1.82039,0.6068 -0.548872,0.36245 -0.98576,0.84531 -1.213594,1.45631 0,-0.75598 0.09776,-1.46245 0.242722,-2.06311 0.15532,-0.60064 0.347886,-1.17377 0.606796,-1.57767 0.26925,-0.41423 0.598054,-0.63203 0.970876,-0.84951 0.372818,-0.21748 0.757924,-0.36408 1.213592,-0.36408 0.57993,1e-5 1.101288,0.16442 1.57767,0.48544 0.476368,0.31068 0.885108,0.68544 1.092232,1.21359 l 0.606798,-0.60679 c -0.30035,-0.64207 -0.755026,-1.09385 -1.334952,-1.45632 -0.579944,-0.36244 -1.216834,-0.60678 -1.94175,-0.60679 z m -0.12134,4.61165 c 0.383184,1e-5 0.740126,0.0874 1.092234,0.24272 0.352116,0.14498 0.71197,0.34788 0.970872,0.6068 0.258916,0.25891 0.45145,0.61877 0.606798,0.97087 0.15532,0.34175 0.242724,0.69871 0.242724,1.09223 -10e-6,0.39353 -0.08738,0.74014 -0.242724,1.09224 -0.14498,0.34174 -0.337554,0.59061 -0.606798,0.84951 -0.258916,0.25892 -0.618774,0.57282 -0.970872,0.72816 -0.341748,0.14498 -0.69871,0.12134 -1.092234,0.12134 -0.39353,0 -0.740132,0.0236 -1.092232,-0.12134 -0.341748,-0.15532 -0.58026,-0.46926 -0.849516,-0.72816 -0.258916,-0.26925 -0.572818,-0.50776 -0.728154,-0.84951 -0.15532,-0.34175 -0.12134,-0.69871 -0.12134,-1.09224 -4e-6,-0.39352 -0.02356,-0.75048 0.12134,-1.09223 0.15532,-0.35212 0.347884,-0.71197 0.606796,-0.97087 0.26925,-0.25892 0.618766,-0.46181 0.970874,-0.6068 0.352116,-0.15532 0.698702,-0.24272 1.092232,-0.24272 z" />
  <path
     style="color:#000000;display:inline;overflow:visible;visibility:visible;fill:none;stroke:url(#linearGradient3221);stroke-width:0.99999982;stroke-linecap:round;stroke-linejoin:round;stroke-miterlimit:4;stroke-dasharray:none;stroke-dashoffset:0;stroke-opacity:1;marker:none;enable-background:accumulate"
     id="path3421"
     inkscape:connector-curvature="0"
     d="M 114.5,67.000005 C 114.5,94.890388 91.890322,117.5 63.999996,117.5 36.109671,117.5 13.5,94.890388 13.5,67.000005 13.5,39.109628 36.109671,16.5 63.999996,16.5 91.890322,16.5 114.5,39.109628 114.5,67.000005 Z" />
  <path
     style="color:#000000;display:inline;overflow:visible;visibility:visible;fill:url(#radialGradient3139);fill-opacity:1;fill-rule:nonzero;stroke:none;stroke-width:1.25224495;marker:none;enable-background:accumulate"
     id="path4117"
     d="m 66.005424,66.666801 a 2.0054252,2 0 1 1 -4.010848,0 2.0054252,2 0 1 1 4.010848,0 z"
     inkscape:connector-curvature="0" />
</svg>
