<!-- Created with Inkscape (http://www.inkscape.org/) -->
<svg id="svg5157" xmlns:rdf="http://www.w3.org/1999/02/22-rdf-syntax-ns#" xmlns="http://www.w3.org/2000/svg" height="128" width="128" version="1.1" xmlns:cc="http://creativecommons.org/ns#" xmlns:xlink="http://www.w3.org/1999/xlink" xmlns:dc="http://purl.org/dc/elements/1.1/">
<defs id="defs5159">
<linearGradient id="linearGradient3118" y2="40.496" gradientUnits="userSpaceOnUse" x2="71.204" gradientTransform="matrix(4.16388,0,0,4.16388,-236.03265,-50.036246)" y1="15.369" x1="71.204">
<stop id="stop4808" stop-color="#FFF" offset="0"/>
<stop id="stop4810" stop-color="#FFF" stop-opacity="0.23529412" offset="0.42448"/>
<stop id="stop4812" stop-color="#FFF" stop-opacity="0.15686275" offset="0.8209"/>
<stop id="stop4814" stop-color="#FFF" stop-opacity="0.39215687" offset="1"/>
</linearGradient>
<radialGradient id="radialGradient3163" gradientUnits="userSpaceOnUse" cy="186.17" cx="99.157" gradientTransform="matrix(0.6869404,0,0,0.21461693,-4.02174,68.573331)" r="62.769">
<stop id="stop3822-2-6-5-0" stop-color="#3d3d3d" offset="0"/>
<stop id="stop3864-8-7-4-1" stop-color="#686868" stop-opacity="0.49803922" offset="0.5"/>
<stop id="stop3824-1-2-6-7" stop-color="#686868" stop-opacity="0" offset="1"/>
</radialGradient>
<radialGradient id="radialGradient4095" gradientUnits="userSpaceOnUse" cy="43.743" cx="46.548" gradientTransform="matrix(0.01269716,1.1211485,-1.5003632,0.01699182,127.95466,-24.388829)" r="52">
<stop id="stop4087" stop-color="#06abec" offset="0"/>
<stop id="stop4093" stop-color="#0da6f6" offset="0.14449"/>
<stop id="stop4091" stop-color="#1e9df5" offset="0.32573"/>
<stop id="stop4089" stop-color="#1953f1" offset="1"/>
</radialGradient>
</defs>
<metadata id="metadata5162">
<rdf:RDF>
<cc:Work rdf:about="">
<dc:format>image/svg+xml</dc:format>
<dc:type rdf:resource="http://purl.org/dc/dcmitype/StillImage"/>
<dc:title/>
</cc:Work>
</rdf:RDF>
</metadata>
<path id="path3818-0-5-0" d="m107.21,108.53a43.119,13.471,0,1,1,-86.237,0,43.119,13.471,0,1,1,86.237,0z" fill="url(#radialGradient3163)"/>
<path id="path2555" style="enable-background:accumulate;color:#000000;" d="m64.5,13.998c-28.692,0-52,23.308-52,52s23.308,52,52,52,52-23.308,52-52-23.308-52-52-52z" fill-rule="nonzero" fill="url(#radialGradient4095)"/>
<path id="path3803" opacity="0.15" d="m66.976,36.618,0,51,5.6562,0,0-5.9062c3.301,1.976,7.3174,3.0604,11.344,3.0625,5.1889-0.0047,10.344-1.8389,14.011-4.9855,3.6672-3.1466,5.8017-7.5669,5.8017-12.015,0.00001-4.4476-2.1345-8.8679-5.8017-12.015-3.6672-3.1466-8.8219-4.9808-14.011-4.9855-4.0263,0.0021-8.0428,1.0865-11.344,3.0625v-17.219zm-11.344,11.344,0,5.9062c-3.2967-1.987-7.3136-3.0825-11.344-3.0938-5.1889,0.0047-10.344,1.8389-14.011,4.9855-3.6672,3.1466-5.8017,7.5669-5.8017,12.015-0.000003,4.4476,2.1345,8.8679,5.8017,12.015,3.6672,3.1466,8.8219,4.9808,14.011,4.9855,4.0225,0.007,8.0385-1.0662,11.344-3.0312v17.219h5.6562v-51zm-11.344,8.5c4.3885,0.0042,8.722,1.7471,11.344,4.5625v13.531c-2.6218,2.8154-6.9553,4.5583-11.344,4.5625-3.7093-0.0022-7.3945-1.2261-10.015-3.3261-2.6207-2.1-4.1444-5.0503-4.141-8.0177,0.0068-2.9622,1.5351-5.904,4.1548-7.9975,2.6197-2.0934,6.2987-3.3129,10.001-3.315zm39.688,0c3.7028,0.0022,7.3817,1.2216,10.001,3.315,2.6197,2.0934,4.148,5.0353,4.1548,7.9975,0.0034,2.9674-1.5204,5.9177-4.141,8.0177-2.6207,2.1-6.306,3.3239-10.015,3.3261-4.3885-0.0042-8.722-1.7471-11.344-4.5625v-13.531c2.6218-2.8154,6.9553-4.5583,11.344-4.5625z" stroke="#000" stroke-miterlimit="4" stroke-dasharray="none" stroke-width="2.00000009999999984" fill="none"/>
<path id="path3033" opacity="0.15" d="m66.976,36.618,0,51,5.6562,0,0-5.9062c3.301,1.976,7.3174,3.0604,11.344,3.0625,5.1889-0.0047,10.344-1.8389,14.011-4.9855,3.6672-3.1466,5.8017-7.5669,5.8017-12.015,0.00001-4.4476-2.1345-8.8679-5.8017-12.015-3.6672-3.1466-8.8219-4.9808-14.011-4.9855-4.0263,0.0021-8.0428,1.0865-11.344,3.0625v-17.219zm-11.344,11.344,0,5.9062c-3.2967-1.987-7.3136-3.0825-11.344-3.0938-5.1889,0.0047-10.344,1.8389-14.011,4.9855-3.6672,3.1466-5.8017,7.5669-5.8017,12.015-0.000003,4.4476,2.1345,8.8679,5.8017,12.015,3.6672,3.1466,8.8219,4.9808,14.011,4.9855,4.0225,0.007,8.0385-1.0662,11.344-3.0312v17.219h5.6562v-51zm-11.344,8.5c4.3885,0.0042,8.722,1.7471,11.344,4.5625v13.531c-2.6218,2.8154-6.9553,4.5583-11.344,4.5625-3.7093-0.0022-7.3945-1.2261-10.015-3.3261-2.6207-2.1-4.1444-5.0503-4.141-8.0177,0.0068-2.9622,1.5351-5.904,4.1548-7.9975,2.6197-2.0934,6.2987-3.3129,10.001-3.315zm39.688,0c3.7028,0.0022,7.3817,1.2216,10.001,3.315,2.6197,2.0934,4.148,5.0353,4.1548,7.9975,0.0034,2.9674-1.5204,5.9177-4.141,8.0177-2.6207,2.1-6.306,3.3239-10.015,3.3261-4.3885-0.0042-8.722-1.7471-11.344-4.5625v-13.531c2.6218-2.8154,6.9553-4.5583,11.344-4.5625z" fill="#000"/>
<path id="path2555-7-1" opacity="0.5" stroke-linejoin="round" style="enable-background:accumulate;color:#000000;" d="m64.5,13.998c-28.692,0-52,23.308-52,52s23.308,52,52,52,52-23.308,52-52-23.308-52-52-52z" fill-opacity="0" stroke-dashoffset="0" stroke="#00537d" stroke-linecap="round" stroke-miterlimit="4" stroke-dasharray="none" stroke-width="1"/>
<path id="path3019" opacity="0.5" stroke-linejoin="round" style="enable-background:accumulate;color:#000000;" d="m115.5,65.998c0,28.167-22.834,51-51,51s-51-22.833-51-51,22.833-51,51-51,51,22.833,51,51z" stroke-dashoffset="0" stroke="url(#linearGradient3118)" stroke-linecap="round" stroke-miterlimit="4" stroke-dasharray="none" stroke-width="1" fill="none"/>
<path id="path3060" fill="#FFF" d="m66.976,35.618,0,51,5.6562,0,0-5.9062c3.301,1.976,7.3174,3.0604,11.344,3.0625,5.1889-0.0047,10.344-1.8389,14.011-4.9855,3.6672-3.1466,5.8017-7.5669,5.8017-12.015,0.00001-4.4476-2.1345-8.8679-5.8017-12.015-3.6672-3.1466-8.8219-4.9808-14.011-4.9855-4.0263,0.0021-8.0428,1.0865-11.344,3.0625v-17.219zm-11.344,11.344,0,5.9062c-3.2967-1.987-7.3136-3.0825-11.344-3.0938-5.1889,0.0047-10.344,1.8389-14.011,4.9855-3.6672,3.1466-5.8017,7.5669-5.8017,12.015-0.000003,4.4476,2.1345,8.8679,5.8017,12.015,3.6672,3.1466,8.8219,4.9808,14.011,4.9855,4.0225,0.007,8.0385-1.0662,11.344-3.0312v17.219h5.6562v-51zm-11.344,8.5c4.3885,0.0042,8.722,1.7471,11.344,4.5625v13.531c-2.6218,2.8154-6.9553,4.5583-11.344,4.5625-3.7093-0.0022-7.3945-1.2261-10.015-3.3261-2.6207-2.1-4.1444-5.0503-4.141-8.0177,0.0068-2.9622,1.5351-5.904,4.1548-7.9975,2.6197-2.0934,6.2987-3.3129,10.001-3.315zm39.688,0c3.7028,0.0022,7.3817,1.2216,10.001,3.315,2.6197,2.0934,4.148,5.0353,4.1548,7.9975,0.0034,2.9674-1.5204,5.9177-4.141,8.0177-2.6207,2.1-6.306,3.3239-10.015,3.3261-4.3885-0.0042-8.722-1.7471-11.344-4.5625v-13.531c2.6218-2.8154,6.9553-4.5583,11.344-4.5625z"/>
</svg>
