<!-- Created with Inkscape (http://www.inkscape.org/) -->
<svg id="svg5157" xmlns:rdf="http://www.w3.org/1999/02/22-rdf-syntax-ns#" xmlns="http://www.w3.org/2000/svg" height="128" width="128" version="1.1" xmlns:cc="http://creativecommons.org/ns#" xmlns:xlink="http://www.w3.org/1999/xlink" xmlns:dc="http://purl.org/dc/elements/1.1/">
<defs id="defs5159">
<linearGradient id="linearGradient3093" y2="40.496" gradientUnits="userSpaceOnUse" x2="71.204" gradientTransform="matrix(4.16388,0,0,4.16388,-236.03265,-50.036247)" y1="15.369" x1="71.204">
<stop id="stop4808" stop-color="#FFF" offset="0"/>
<stop id="stop4810" stop-color="#FFF" stop-opacity="0.23529412" offset="0.42448"/>
<stop id="stop4812" stop-color="#FFF" stop-opacity="0.15686275" offset="0.8209"/>
<stop id="stop4814" stop-color="#FFF" stop-opacity="0.39215687" offset="1"/>
</linearGradient>
<radialGradient id="radialGradient3097" gradientUnits="userSpaceOnUse" cy="8.4498" cx="3.9722" gradientTransform="matrix(0,6.3385076,-6.7053845,-1.7252442e-7,121.15923,-25.776664)" r="20">
<stop id="stop3780" stop-color="#4091e4" offset="0"/>
<stop id="stop3947" stop-color="#3f84e2" offset="0.25"/>
<stop id="stop3945" stop-color="#2c61e1" offset="0.5"/>
<stop id="stop3786" stop-color="#2940de" offset="1"/>
</radialGradient>
<radialGradient id="radialGradient3100" gradientUnits="userSpaceOnUse" cy="186.17" cx="99.157" gradientTransform="matrix(0.6869404,0,0,0.21461693,-4.02174,68.57333)" r="62.769">
<stop id="stop3822-2-6-5-0-7" stop-color="#3d3d3d" offset="0"/>
<stop id="stop3864-8-7-4-1-5" stop-color="#686868" stop-opacity="0.49803922" offset="0.5"/>
<stop id="stop3824-1-2-6-7-5" stop-color="#686868" stop-opacity="0" offset="1"/>
</radialGradient>
</defs>
<metadata id="metadata5162">
<rdf:RDF>
<cc:Work rdf:about="">
<dc:format>image/svg+xml</dc:format>
<dc:type rdf:resource="http://purl.org/dc/dcmitype/StillImage"/>
<dc:title/>
</cc:Work>
</rdf:RDF>
</metadata>
<path id="path3818-0-5-0-5" d="m107.21,108.53a43.119,13.471,0,1,1,-86.237,0,43.119,13.471,0,1,1,86.237,0z" fill="url(#radialGradient3100)"/>
<path id="path2555" style="enable-background:accumulate;color:#000000;" d="m64.5,13.998c-28.692,0-52,23.308-52,52s23.308,52,52,52,52-23.308,52-52-23.308-52-52-52z" fill-rule="nonzero" fill="url(#radialGradient3097)"/>
<path id="path2555-7-1" opacity="0.5" stroke-linejoin="round" style="enable-background:accumulate;color:#000000;" d="m64.5,13.998c-28.692,0-52,23.308-52,52s23.308,52,52,52,52-23.308,52-52-23.308-52-52-52z" stroke-dashoffset="0" stroke="#000" stroke-linecap="round" stroke-miterlimit="4" stroke-dasharray="none" stroke-width="1" fill="none"/>
<path id="path3019-8" opacity="0.5" stroke-linejoin="round" style="enable-background:accumulate;color:#000000;" d="m115.5,65.998c0,28.167-22.834,51-51,51s-51-22.833-51-51,22.833-51,51-51,51,22.833,51,51z" stroke-dashoffset="0" stroke="url(#linearGradient3093)" stroke-linecap="round" stroke-miterlimit="4" stroke-dasharray="none" stroke-width="1" fill="none"/>
<path id="path3919" opacity="0.15" fill="#000" d="m40.03,39.094v6.75c2.5002,0.12993,4.9922,0.44678,7.5,0.40625v41.531h-7.5v6.875h23.5v-6.875h-8.5625v-17.688h6.8125c5.4924,8.1993,10.959,16.419,16.531,24.562h11.25v-6.875h-6.2812c-4.2812-6.2812-8.5625-12.562-12.844-18.844,2.2272-0.69029,4.4198-1.7053,5.9473-3.5066,2.0287-1.8527,3.7812-4.0876,4.5184-6.7806,1.3955-4.0886,1.088-8.8119-1.1844-12.525-1.3603-1.5343-2.9074-2.9874-4.5545-4.2077-3.6927-2.1721-8.0483-3.0778-12.314-2.8927-6.7091,0.12612-13.427,1.2279-20.132,0.42849-0.90351-0.1156-1.8002-0.27394-2.6867-0.4843v0.1,0.025zm23.062,6.9688c2.2053,0.13991,4.7109-0.33968,6.5789,1.1239,0.54032,0.40484,1.2512,0.84795,1.6034,1.5518,1.5305,2.0783,2.8105,4.7294,2.14,7.361-0.2549,1.2533-0.97377,2.412-1.6692,3.3669-1.1691,1.1837-2.6566,2.0166-4.1532,2.7214-3.6294,1.491-7.6242,1.3991-11.475,1.3438-0.61313,0.007-1.398,0.18741-1.1259-0.69996-0.051-5.4956-0.0118-10.992-0.0241-16.488,2.7043-0.18185,5.414-0.3099,8.125-0.28125z"/>
<path id="path3943" opacity="0.15" fill="#00008c" d="m62.311,39.969c-2.4296,0.05595-5.259,0.25517-8.2812,0.53125-4.3465,0.31134-8.716,0.30957-13.062-0.28125v4.6875c2.3482,0.14391,3.7013,0.4235,7.5,0.40625v43.406h-7.5v5h21.625v-5h-8.5625v-19.562h8.375l16.531,24.562h9.6875v-5h-5.9688l-14.062-20.406c12.756-1.7754,19.702-23.588-0.375-28-1.4494-0.30812-3.4766-0.3997-5.9062-0.34375zm0.78125,5.1562c1.5816,0.01047,3.218,0.08375,4.75,0.1875,6.1542,0.41679,13.657,17.331-6.0938,19.156h-7.7188v-19.062s4.3177-0.31264,9.0625-0.28125z"/>
<path id="path3912" fill="#fafafa" d="m62.311,38.969c-2.4296,0.05595-5.259,0.25517-8.2812,0.53125-4.3465,0.31134-8.716,0.30957-13.062-0.28125v4.6875c2.3482,0.14391,3.7013,0.4235,7.5,0.40625v43.406h-7.5v5h21.625v-5h-8.5625v-19.562h8.375l16.531,24.562h9.6875v-5h-5.9688l-14.062-20.406c12.756-1.7754,19.702-23.588-0.375-28-1.4494-0.30812-3.4766-0.3997-5.9062-0.34375zm0.78125,5.1562c1.5816,0.01047,3.218,0.08375,4.75,0.1875,6.1542,0.41679,13.657,17.331-6.0938,19.156h-7.7188v-19.062s4.3177-0.31264,9.0625-0.28125z"/>
</svg>
