<?xml version="1.0" encoding="UTF-8" standalone="no"?>
<!-- Created with Inkscape (http://www.inkscape.org/) -->

<svg
   xmlns:dc="http://purl.org/dc/elements/1.1/"
   xmlns:cc="http://creativecommons.org/ns#"
   xmlns:rdf="http://www.w3.org/1999/02/22-rdf-syntax-ns#"
   xmlns:svg="http://www.w3.org/2000/svg"
   xmlns="http://www.w3.org/2000/svg"
   xmlns:xlink="http://www.w3.org/1999/xlink"
   xmlns:sodipodi="http://sodipodi.sourceforge.net/DTD/sodipodi-0.dtd"
   xmlns:inkscape="http://www.inkscape.org/namespaces/inkscape"
   version="1.1"
   width="128"
   height="128"
   id="svg3049"
   inkscape:version="0.91 r"
   sodipodi:docname="solaar.svg">
  <sodipodi:namedview
     pagecolor="#ffffff"
     bordercolor="#666666"
     borderopacity="1"
     objecttolerance="10"
     gridtolerance="10"
     guidetolerance="10"
     inkscape:pageopacity="0"
     inkscape:pageshadow="2"
     inkscape:window-width="1280"
     inkscape:window-height="745"
     id="namedview51"
     showgrid="true"
     inkscape:zoom="5.2149125"
     inkscape:cx="47.34371"
     inkscape:cy="64.843451"
     inkscape:window-x="0"
     inkscape:window-y="30"
     inkscape:window-maximized="1"
     inkscape:current-layer="layer1">
    <inkscape:grid
       type="xygrid"
       id="grid11238" />
  </sodipodi:namedview>
  <defs
     id="defs3051">
    <linearGradient
       id="linearGradient11256">
      <stop
         offset="0"
         style="stop-color:#effffe;stop-opacity:1"
         id="stop11258" />
      <stop
         offset="1"
         style="stop-color:#ddfefc;stop-opacity:1"
         id="stop11260" />
    </linearGradient>
    <linearGradient
       x1="167.98311"
       y1="8.50811"
       x2="167.98311"
       y2="54.780239"
       id="linearGradient5228"
       xlink:href="#linearGradient5803"
       gradientUnits="userSpaceOnUse"
       gradientTransform="matrix(1.832495,0,0,1.8439152,-232.17581,-55.441403)" />
    <linearGradient
       id="linearGradient5803">
      <stop
         id="stop5805"
         style="stop-color:#fff5ef;stop-opacity:1"
         offset="0" />
      <stop
         id="stop5807"
         style="stop-color:#fef8dd;stop-opacity:1"
         offset="1" />
    </linearGradient>
    <linearGradient
       x1="23.99999"
       y1="4.999989"
       x2="23.99999"
       y2="43"
       id="linearGradient4136"
       xlink:href="#linearGradient3924"
       gradientUnits="userSpaceOnUse"
       gradientTransform="matrix(2.7297298,0,0,2.7297298,-1.5135175,-62.511681)" />
    <linearGradient
       id="linearGradient3924">
      <stop
         id="stop3926"
         style="stop-color:#ffffff;stop-opacity:1"
         offset="0" />
      <stop
         id="stop3928"
         style="stop-color:#ffffff;stop-opacity:0.23529412"
         offset="0.06316455" />
      <stop
         id="stop3930"
         style="stop-color:#ffffff;stop-opacity:0.15686275"
         offset="0.95056331" />
      <stop
         id="stop3932"
         style="stop-color:#ffffff;stop-opacity:0.39215687"
         offset="1" />
    </linearGradient>
    <radialGradient
       cx="6.7304144"
       cy="9.9571075"
       r="12.671875"
       fx="6.2001843"
       fy="9.9571075"
       id="radialGradient5264-4"
       xlink:href="#linearGradient2867-449-88-871-390-598-476-591-434-148-57-177-8-3-3-6-4-8-8-8"
       gradientUnits="userSpaceOnUse"
       gradientTransform="matrix(0,25.083279,-30.794253,0,372.81656,-272.08999)" />
    <linearGradient
       id="linearGradient2867-449-88-871-390-598-476-591-434-148-57-177-8-3-3-6-4-8-8-8">
      <stop
         id="stop3750-1-0-7-6-6-1-3-9"
         style="stop-color:#40e3d6;stop-opacity:1"
         offset="0" />
      <stop
         id="stop3752-3-7-4-0-32-8-923-0"
         style="stop-color:#19afa3;stop-opacity:1"
         offset="0.26238" />
      <stop
         id="stop3754-1-8-5-2-7-6-7-1"
         style="stop-color:#01919a;stop-opacity:1"
         offset="0.704952" />
      <stop
         id="stop3756-1-6-2-6-6-1-96-6"
         style="stop-color:#016f7a;stop-opacity:1"
         offset="1" />
    </linearGradient>
    <radialGradient
       cx="4.9929786"
       cy="43.5"
       r="2.5"
       fx="4.9929786"
       fy="43.5"
       id="radialGradient4093"
       xlink:href="#linearGradient3688-166-749-5"
       gradientUnits="userSpaceOnUse"
       gradientTransform="matrix(2.003784,0,0,1.4,27.98813,-17.4)" />
    <linearGradient
       id="linearGradient3688-166-749-5">
      <stop
         id="stop2883-0"
         style="stop-color:#181818;stop-opacity:1"
         offset="0" />
      <stop
         id="stop2885-5"
         style="stop-color:#181818;stop-opacity:0"
         offset="1" />
    </linearGradient>
    <radialGradient
       cx="4.9929786"
       cy="43.5"
       r="2.5"
       fx="4.9929786"
       fy="43.5"
       id="radialGradient4095"
       xlink:href="#linearGradient3688-464-309-8"
       gradientUnits="userSpaceOnUse"
       gradientTransform="matrix(2.003784,0,0,1.4,-20.01187,-104.4)" />
    <linearGradient
       id="linearGradient3688-464-309-8">
      <stop
         id="stop2889-9"
         style="stop-color:#181818;stop-opacity:1"
         offset="0" />
      <stop
         id="stop2891-4"
         style="stop-color:#181818;stop-opacity:0"
         offset="1" />
    </linearGradient>
    <linearGradient
       x1="25.058096"
       y1="47.027729"
       x2="25.058096"
       y2="39.999443"
       id="linearGradient4097"
       xlink:href="#linearGradient3702-501-757-0"
       gradientUnits="userSpaceOnUse" />
    <linearGradient
       id="linearGradient3702-501-757-0">
      <stop
         id="stop2895-0"
         style="stop-color:#181818;stop-opacity:0"
         offset="0" />
      <stop
         id="stop2897-2"
         style="stop-color:#181818;stop-opacity:1"
         offset="0.5" />
      <stop
         id="stop2899-6"
         style="stop-color:#181818;stop-opacity:0"
         offset="1" />
    </linearGradient>
    <linearGradient
       id="linearGradient3811">
      <stop
         id="stop3813"
         style="stop-color:#000000;stop-opacity:1"
         offset="0" />
      <stop
         id="stop3815"
         style="stop-color:#000000;stop-opacity:0"
         offset="1" />
    </linearGradient>
    <radialGradient
       cx="-4.0287771"
       cy="93.467628"
       r="35.338131"
       fx="-4.0287771"
       fy="93.467628"
       id="radialGradient6276"
       xlink:href="#linearGradient3811"
       gradientUnits="userSpaceOnUse"
       gradientTransform="matrix(1.5563924,0,0,0.16978827,70.270355,38.132099)" />
    <linearGradient
       inkscape:collect="always"
       xlink:href="#linearGradient11256"
       id="linearGradient11271"
       x1="65"
       y1="25.005049"
       x2="65"
       y2="108"
       gradientUnits="userSpaceOnUse"
       gradientTransform="translate(0,-64)" />
  </defs>
  <metadata
     id="metadata3054">
    <rdf:RDF>
      <cc:Work
         rdf:about="">
        <dc:format>image/svg+xml</dc:format>
        <dc:type
           rdf:resource="http://purl.org/dc/dcmitype/StillImage" />
        <dc:title />
      </cc:Work>
    </rdf:RDF>
  </metadata>
  <g
     transform="translate(0,64)"
     id="layer1">
    <path
       d="m 119,54.001809 a 55,6 0 0 1 -109.9999975,0 55,6 0 1 1 109.9999975,0 z"
       inkscape:connector-curvature="0"
       id="path3041"
       style="opacity:0.2;color:#000000;fill:url(#radialGradient6276);fill-opacity:1;fill-rule:nonzero;stroke:none;stroke-width:1;marker:none;visibility:visible;display:inline;overflow:visible;enable-background:accumulate" />
    <g
       transform="matrix(2.6999989,0,0,0.55555607,-0.8000075,30.890689)"
       id="g2036"
       style="display:inline">
      <g
         transform="matrix(1.052632,0,0,1.285713,-1.263158,-13.42854)"
         id="g3712"
         style="opacity:0.4">
        <rect
           width="5"
           height="7"
           x="38"
           y="40"
           id="rect2801"
           style="fill:url(#radialGradient4093);fill-opacity:1;stroke:none" />
        <rect
           width="5"
           height="7"
           x="-10"
           y="-47"
           transform="scale(-1,-1)"
           id="rect3696"
           style="fill:url(#radialGradient4095);fill-opacity:1;stroke:none" />
        <rect
           width="28"
           height="7.0000005"
           x="10"
           y="40"
           id="rect3700"
           style="fill:url(#linearGradient4097);fill-opacity:1;stroke:none" />
      </g>
    </g>
    <rect
       width="103"
       height="103"
       rx="6.0545406"
       ry="6.0545406"
       x="12.499989"
       y="-48.498192"
       id="rect5505-21-3"
       style="color:#000000;fill:url(#radialGradient5264-4);fill-opacity:1;fill-rule:nonzero;stroke:none;stroke-width:0.99999994;marker:none;visibility:visible;display:inline;overflow:visible;enable-background:accumulate" />
    <rect
       width="101"
       height="101"
       rx="5"
       ry="5"
       x="13.499989"
       y="-47.498192"
       id="rect6741-7"
       style="opacity:0.5;fill:none;stroke:url(#linearGradient4136);stroke-width:0.99999994;stroke-linecap:round;stroke-linejoin:round;stroke-miterlimit:4;stroke-opacity:1;stroke-dasharray:none;stroke-dashoffset:0" />
    <rect
       width="103"
       height="103"
       rx="6.0545406"
       ry="6.0545406"
       x="12.499989"
       y="-48.498192"
       id="rect5505-21-3-1"
       style="opacity:0.4;color:#000000;fill:none;stroke:#015a60;stroke-width:1;stroke-linecap:round;stroke-linejoin:round;stroke-miterlimit:4;stroke-opacity:1;stroke-dasharray:none;stroke-dashoffset:0;marker:none;visibility:visible;display:inline;overflow:visible;enable-background:accumulate" />
    <path
       inkscape:connector-curvature="0"
       id="path11275"
       d="m 48.927734,-38.105902 -13.855468,8 11.222656,19.439453 a 23,23 0 0 0 -3.828125,6.6660156 l -22.466797,0 0,16.0000004 22.451172,0 a 23,23 0 0 0 3.849609,6.658203 l -11.228515,19.447267 13.855468,8 11.232422,-19.455079 A 23,23 0 0 0 64,26.999567 23,23 0 0 0 67.853516,26.673395 l 11.21875,19.431642 13.855464,-8 -11.222652,-19.439454 a 23,23 0 0 0 3.828125,-6.666016 l 22.466797,0 0,-16.0000004 -22.451172,0 a 23,23 0 0 0 -3.849609,-6.6582026 l 11.228511,-19.447266 -13.855464,-8 -11.232422,19.455078 A 23,23 0 0 0 64,-19.000433 23,23 0 0 0 60.146484,-18.674261 L 48.927734,-38.105902 Z M 64,-11.000433 A 15,15 0 0 1 79,3.9995666 15,15 0 0 1 64,18.999567 15,15 0 0 1 49,3.9995666 15,15 0 0 1 64,-11.000433 Z"
       style="opacity:0.05;fill:#000000;fill-opacity:1;stroke:#000000;stroke-width:2;stroke-linecap:round;stroke-linejoin:round;stroke-miterlimit:4;stroke-dasharray:none;stroke-opacity:1" />
    <path
       inkscape:connector-curvature="0"
       id="path11273"
       d="m 48.927734,-38.105939 -13.855468,8 11.222656,19.439453 a 23,23 0 0 0 -3.828125,6.666016 l -22.466797,0 0,16 22.451172,0 a 23,23 0 0 0 3.849609,6.658203 L 35.072266,38.105 l 13.855468,8 11.232422,-19.455079 A 23,23 0 0 0 64,26.99953 23,23 0 0 0 67.853516,26.673358 L 79.072266,46.105 92.92773,38.105 81.705078,18.665546 a 23,23 0 0 0 3.828125,-6.666016 l 22.466797,0 0,-16 -22.451172,0 a 23,23 0 0 0 -3.849609,-6.658203 l 11.228511,-19.447266 -13.855464,-8 -11.232422,19.455078 A 23,23 0 0 0 64,-19.00047 23,23 0 0 0 60.146484,-18.674298 L 48.927734,-38.105939 Z M 64,-11.00047 a 15,15 0 0 1 15,15 15,15 0 0 1 -15,15 15,15 0 0 1 -15,-15 15,15 0 0 1 15,-15 z"
       style="opacity:0.15;fill:#000000;fill-opacity:1;stroke:none;stroke-width:2.02210569;stroke-linecap:round;stroke-linejoin:round;stroke-miterlimit:4;stroke-dasharray:none;stroke-opacity:1" />
    <path
       style="opacity:1;fill:url(#linearGradient11271);fill-opacity:1;stroke:none;stroke-width:2.02210569;stroke-linecap:round;stroke-linejoin:round;stroke-miterlimit:4;stroke-dasharray:none;stroke-opacity:1"
       d="m 48.927734,-39.105469 -13.855468,8 11.222656,19.439453 A 23,23 0 0 0 42.466797,-5 L 20,-5 l 0,16 22.451172,0 a 23,23 0 0 0 3.849609,6.658203 l -11.228515,19.447267 13.855468,8 11.232422,-19.455079 A 23,23 0 0 0 64,26 23,23 0 0 0 67.853516,25.673828 l 11.21875,19.431642 13.855464,-8 L 81.705078,17.666016 A 23,23 0 0 0 85.533203,11 L 108,11 108,-5 85.548828,-5 a 23,23 0 0 0 -3.849609,-6.658203 l 11.228511,-19.447266 -13.855464,-8 -11.232422,19.455078 A 23,23 0 0 0 64,-20 23,23 0 0 0 60.146484,-19.673828 L 48.927734,-39.105469 Z M 64,-12 A 15,15 0 0 1 79,3 15,15 0 0 1 64,18 15,15 0 0 1 49,3 15,15 0 0 1 64,-12 Z"
       id="path11245"
       inkscape:connector-curvature="0" />
  </g>
</svg>
