<?xml version="1.0" encoding="UTF-8" standalone="no"?>
<svg
   xmlns:dc="http://purl.org/dc/elements/1.1/"
   xmlns:cc="http://creativecommons.org/ns#"
   xmlns:rdf="http://www.w3.org/1999/02/22-rdf-syntax-ns#"
   xmlns:svg="http://www.w3.org/2000/svg"
   xmlns="http://www.w3.org/2000/svg"
   xmlns:xlink="http://www.w3.org/1999/xlink"
   id="svg3956"
   height="128"
   width="128"
   version="1.1">
  <defs
     id="defs3958">
    <linearGradient
       gradientTransform="matrix(2.7297298,0,0,2.7297298,-1.5135184,-62.511679)"
       gradientUnits="userSpaceOnUse"
       xlink:href="#linearGradient3924"
       id="linearGradient4136"
       y2="43"
       x2="23.99999"
       y1="4.999989"
       x1="23.99999" />
    <linearGradient
       id="linearGradient3924">
      <stop
         offset="0"
         style="stop-color:#ffffff;stop-opacity:1"
         id="stop3926" />
      <stop
         offset="0.06316455"
         style="stop-color:#ffffff;stop-opacity:0.23529412"
         id="stop3928" />
      <stop
         offset="0.95056331"
         style="stop-color:#ffffff;stop-opacity:0.15686275"
         id="stop3930" />
      <stop
         offset="1"
         style="stop-color:#ffffff;stop-opacity:0.39215687"
         id="stop3932" />
    </linearGradient>
    <radialGradient
       gradientTransform="matrix(0,25.083279,-30.794253,0,372.81656,-272.08999)"
       gradientUnits="userSpaceOnUse"
       xlink:href="#linearGradient2867-449-88-871-390-598-476-591-434-148-57-177-8-3-3-6-4-8-8-8"
       id="radialGradient5264-4"
       fy="9.9571075"
       fx="6.2001843"
       r="12.671875"
       cy="9.9571075"
       cx="6.7304144" />
    <linearGradient
       id="linearGradient2867-449-88-871-390-598-476-591-434-148-57-177-8-3-3-6-4-8-8-8">
      <stop
         offset="0"
         style="stop-color:#ffcd7d;stop-opacity:1"
         id="stop3750-1-0-7-6-6-1-3-9" />
      <stop
         offset="0.26238"
         style="stop-color:#fc8f36;stop-opacity:1"
         id="stop3752-3-7-4-0-32-8-923-0" />
      <stop
         offset="0.704952"
         style="stop-color:#e23a0e;stop-opacity:1"
         id="stop3754-1-8-5-2-7-6-7-1" />
      <stop
         offset="1"
         style="stop-color:#ac441f;stop-opacity:1"
         id="stop3756-1-6-2-6-6-1-96-6" />
    </linearGradient>
    <radialGradient
       gradientTransform="matrix(2.003784,0,0,1.4,27.98813,-17.4)"
       gradientUnits="userSpaceOnUse"
       xlink:href="#linearGradient3688-166-749-5"
       id="radialGradient4093"
       fy="43.5"
       fx="4.9929786"
       r="2.5"
       cy="43.5"
       cx="4.9929786" />
    <linearGradient
       id="linearGradient3688-166-749-5">
      <stop
         offset="0"
         style="stop-color:#181818;stop-opacity:1"
         id="stop2883-0" />
      <stop
         offset="1"
         style="stop-color:#181818;stop-opacity:0"
         id="stop2885-5" />
    </linearGradient>
    <radialGradient
       gradientTransform="matrix(2.003784,0,0,1.4,-20.01187,-104.4)"
       gradientUnits="userSpaceOnUse"
       xlink:href="#linearGradient3688-464-309-8"
       id="radialGradient4095"
       fy="43.5"
       fx="4.9929786"
       r="2.5"
       cy="43.5"
       cx="4.9929786" />
    <linearGradient
       id="linearGradient3688-464-309-8">
      <stop
         offset="0"
         style="stop-color:#181818;stop-opacity:1"
         id="stop2889-9" />
      <stop
         offset="1"
         style="stop-color:#181818;stop-opacity:0"
         id="stop2891-4" />
    </linearGradient>
    <linearGradient
       gradientUnits="userSpaceOnUse"
       xlink:href="#linearGradient3702-501-757-0"
       id="linearGradient4097"
       y2="39.999443"
       x2="25.058096"
       y1="47.027729"
       x1="25.058096" />
    <linearGradient
       id="linearGradient3702-501-757-0">
      <stop
         offset="0"
         style="stop-color:#181818;stop-opacity:0"
         id="stop2895-0" />
      <stop
         offset="0.5"
         style="stop-color:#181818;stop-opacity:1"
         id="stop2897-2" />
      <stop
         offset="1"
         style="stop-color:#181818;stop-opacity:0"
         id="stop2899-6" />
    </linearGradient>
    <linearGradient
       id="linearGradient3811">
      <stop
         offset="0"
         style="stop-color:#000000;stop-opacity:1"
         id="stop3813" />
      <stop
         offset="1"
         style="stop-color:#000000;stop-opacity:0"
         id="stop3815" />
    </linearGradient>
    <radialGradient
       gradientTransform="matrix(1.5563924,0,0,0.16978827,70.270355,38.132101)"
       gradientUnits="userSpaceOnUse"
       xlink:href="#linearGradient3811"
       id="radialGradient3954"
       fy="93.467628"
       fx="-4.0287771"
       r="35.338131"
       cy="93.467628"
       cx="-4.0287771" />
  </defs>
  <metadata
     id="metadata3961">
    <rdf:RDF>
      <cc:Work
         rdf:about="">
        <dc:format>image/svg+xml</dc:format>
        <dc:type
           rdf:resource="http://purl.org/dc/dcmitype/StillImage" />
        <dc:title></dc:title>
      </cc:Work>
    </rdf:RDF>
  </metadata>
  <g
     id="layer1"
     transform="translate(0,64)">
    <path
       style="opacity:0.2;color:#000000;fill:url(#radialGradient3954);fill-opacity:1;fill-rule:nonzero;stroke:none;stroke-width:1;marker:none;visibility:visible;display:inline;overflow:visible;enable-background:accumulate"
       id="path3041"
       d="m 119,54.00181 a 55,6 0 0 1 -109.9999982,0 55,6 0 1 1 109.9999982,0 z" />
    <g
       style="display:inline"
       id="g2036"
       transform="matrix(2.6999989,0,0,0.55555607,-0.80000812,30.890691)">
      <g
         style="opacity:0.4"
         id="g3712"
         transform="matrix(1.052632,0,0,1.285713,-1.263158,-13.42854)">
        <rect
           style="fill:url(#radialGradient4093);fill-opacity:1;stroke:none"
           id="rect2801"
           y="40"
           x="38"
           height="7"
           width="5" />
        <rect
           style="fill:url(#radialGradient4095);fill-opacity:1;stroke:none"
           id="rect3696"
           transform="scale(-1,-1)"
           y="-47"
           x="-10"
           height="7"
           width="5" />
        <rect
           style="fill:url(#linearGradient4097);fill-opacity:1;stroke:none"
           id="rect3700"
           y="40"
           x="10"
           height="7.0000005"
           width="28" />
      </g>
    </g>
    <rect
       style="color:#000000;fill:url(#radialGradient5264-4);fill-opacity:1;fill-rule:nonzero;stroke:none;stroke-width:0.99999994;marker:none;visibility:visible;display:inline;overflow:visible;enable-background:accumulate"
       id="rect5505-21-3"
       y="-48.498192"
       x="12.499988"
       ry="6.0545406"
       rx="6.0545406"
       height="103"
       width="103" />
    <rect
       style="opacity:0.5;fill:none;stroke:url(#linearGradient4136);stroke-width:0.99999994;stroke-linecap:round;stroke-linejoin:round;stroke-miterlimit:4;stroke-opacity:1;stroke-dasharray:none;stroke-dashoffset:0"
       id="rect6741-7"
       y="-47.498192"
       x="13.499988"
       ry="5"
       rx="5"
       height="101"
       width="101" />
    <rect
       style="opacity:0.4;color:#000000;fill:none;stroke:#640000;stroke-width:1;stroke-linecap:round;stroke-linejoin:round;stroke-miterlimit:4;stroke-opacity:1;stroke-dasharray:none;stroke-dashoffset:0;marker:none;visibility:visible;display:inline;overflow:visible;enable-background:accumulate"
       id="rect5505-21-3-1"
       y="-48.498192"
       x="12.499988"
       ry="6.0545406"
       rx="6.0545406"
       height="103"
       width="103" />
    <path
       id="path4383"
       d="m 23.439722,14.228919 c -1.52419,-1.770721 -2.44764,-4.072742 -2.44764,-6.5920623 0,-2.51932 0.92345,-4.8213415 2.44764,-6.5914995 z m 4.34176,2.958135 c -0.94594,-0.329463 -1.82778,-0.793859 -2.62277,-1.372667 l 0,-16.3550608 c 0.79499,-0.578808 1.67683,-1.043485 2.62277,-1.372666 z m 5.15783,0.561379 -1.83594,0 c -0.44471,0 -0.88184,-0.03177 -1.3111,-0.08771 l 0,-20.0474578 c 0.42926,-0.05566 0.86639,-0.08743 1.3111,-0.08743 0.62688,0 1.24027,0.05763 1.83594,0.167262 z m 5.41955,0 -3.49675,0 0,-19.4964798 c 0.61592,0.247097 1.20232,0.551822 1.75133,0.909395 0.36207,-1.527559 0.95859,-2.963757 1.74542,-4.272611 z m 5.41983,0 -3.49647,0 0,-25.4054408 c 1.01875,-1.088744 2.19604,-2.026251 3.49647,-2.7754122 z m 5.59467,0 -3.49646,0 0,-29.181891 c 1.1087,-0.427289 2.27925,-0.728922 3.49646,-0.884095 z m 5.59468,0 -3.49646,0 0,-30.185459 c 1.20456,0.01377 2.37539,0.168105 3.49646,0.448373 z m 5.59468,0 -3.49646,0 0,-29.044146 c 0.48323,0.200151 0.95465,0.423072 1.4109,0.670169 0.60804,-0.996259 1.30745,-1.930673 2.08584,-2.792841 l -2.8e-4,31.166818 z m 5.42039,0 -3.49702,0 0,-33.012032 c 1.07075,-0.891686 2.24298,-1.665585 3.49646,-2.302021 l 0,35.314053 z m 31.33858,0 -29.29968,0 0,-36.200116 c 1.11939,-0.408455 2.28909,-0.712618 3.49646,-0.901243 0.94482,-0.147303 1.91325,-0.226014 2.89911,-0.226014 9.80741,0 17.84691,7.564425 18.60507,17.1770282 1.31307,-0.587804 2.76698,-0.917547 4.29847,-0.917547 5.817598,0 10.533808,4.715924 10.533808,10.5338055 2.8e-4,5.8178813 -4.71564,10.5340863 -10.533238,10.5340863 z"
       style="fill:#ae2109;fill-opacity:0.16862746" />
    <path
       id="path3105"
       d="m 23.439722,18.228919 c -1.52419,-1.770721 -2.44764,-4.072742 -2.44764,-6.592062 0,-2.5193203 0.92345,-4.8213418 2.44764,-6.5914998 z m 4.34176,2.958135 c -0.94594,-0.329463 -1.82778,-0.793859 -2.62277,-1.372667 l 0,-16.3550608 c 0.79499,-0.578808 1.67683,-1.043485 2.62277,-1.372666 z m 5.15783,0.561379 -1.83594,0 c -0.44471,0 -0.88184,-0.03177 -1.3111,-0.08771 l 0,-20.0474578 c 0.42926,-0.05566 0.86639,-0.08743 1.3111,-0.08743 0.62688,0 1.24027,0.05763 1.83594,0.167262 z m 5.41955,0 -3.49675,0 0,-19.4964798 c 0.61592,0.247097 1.20232,0.551822 1.75133,0.909395 0.36207,-1.527559 0.95859,-2.963757 1.74542,-4.272611 z m 5.41983,0 -3.49647,0 0,-25.4054408 c 1.01875,-1.088744 2.19604,-2.026251 3.49647,-2.775412 z m 5.59467,0 -3.49646,0 0,-29.1818908 c 1.1087,-0.427289 2.27925,-0.7289222 3.49646,-0.8840952 z m 5.59468,0 -3.49646,0 0,-30.185459 c 1.20456,0.01377 2.37539,0.168105 3.49646,0.4483732 z m 5.59468,0 -3.49646,0 0,-29.0441458 c 0.48323,0.200151 0.95465,0.423072 1.4109,0.670169 0.60804,-0.996259 1.30745,-1.9306732 2.08584,-2.7928412 l -2.8e-4,31.166818 z m 5.42039,0 -3.49702,0 0,-33.012032 c 1.07075,-0.891686 2.24298,-1.665585 3.49646,-2.302021 l 0,35.314053 z m 31.33858,0 -29.29968,0 0,-36.200116 c 1.11939,-0.408455 2.28909,-0.712618 3.49646,-0.901243 0.94482,-0.147303 1.91325,-0.226014 2.89911,-0.226014 9.80741,0 17.84691,7.564425 18.60507,17.1770282 1.31307,-0.587804 2.76698,-0.917547 4.29847,-0.917547 5.817598,0 10.533808,4.715924 10.533808,10.5338058 2.8e-4,5.817881 -4.71564,10.534086 -10.533238,10.534086 z"
       style="fill:#ae2109;fill-opacity:0.62745098" />
    <path
       style="fill:#f4f4f4;fill-opacity:0.94400001"
       d="m 23.439722,16.228919 c -1.52419,-1.770721 -2.44764,-4.072742 -2.44764,-6.5920623 0,-2.51932 0.92345,-4.8213415 2.44764,-6.5914995 z m 4.34176,2.958135 c -0.94594,-0.329463 -1.82778,-0.793859 -2.62277,-1.372667 l 0,-16.3550608 c 0.79499,-0.57880799 1.67683,-1.04348499 2.62277,-1.37266599 z m 5.15783,0.561379 -1.83594,0 c -0.44471,0 -0.88184,-0.03177 -1.3111,-0.08771 l 0,-20.04745779 c 0.42926,-0.05566 0.86639,-0.08743 1.3111,-0.08743 0.62688,0 1.24027,0.05763 1.83594,0.167262 z m 5.41955,0 -3.49675,0 0,-19.49647979 c 0.61592,0.247097 1.20232,0.551822 1.75133,0.90939499 0.36207,-1.52755899 0.95859,-2.963757 1.74542,-4.272611 z m 5.41983,0 -3.49647,0 0,-25.4054408 c 1.01875,-1.088744 2.19604,-2.026251 3.49647,-2.775412 z m 5.59467,0 -3.49646,0 0,-29.1818908 c 1.1087,-0.427289 2.27925,-0.7289222 3.49646,-0.8840952 z m 5.59468,0 -3.49646,0 0,-30.185459 c 1.20456,0.01377 2.37539,0.168105 3.49646,0.4483732 z m 5.59468,0 -3.49646,0 0,-29.0441458 c 0.48323,0.200151 0.95465,0.423072 1.4109,0.670169 0.60804,-0.996259 1.30745,-1.9306732 2.08584,-2.7928412 l -2.8e-4,31.166818 z m 5.42039,0 -3.49702,0 0,-33.012032 c 1.07075,-0.891686 2.24298,-1.665585 3.49646,-2.302021 l 0,35.314053 z m 31.33858,0 -29.29968,0 0,-36.200116 c 1.11939,-0.408455 2.28909,-0.712618 3.49646,-0.901243 0.94482,-0.147303 1.91325,-0.226014 2.89911,-0.226014 9.80741,0 17.84691,7.564425 18.60507,17.17702821 1.31307,-0.587804 2.76698,-0.91754701 4.29847,-0.91754701 5.817598,0 10.533808,4.715924 10.533808,10.5338055 2.8e-4,5.8178813 -4.71564,10.5340863 -10.533238,10.5340863 z"
       id="soundcloud-square-icon" />
  </g>
</svg>
