<?xml version="1.0" encoding="UTF-8" standalone="no"?>
<!-- Created with Inkscape (http://www.inkscape.org/) -->

<svg
   xmlns:dc="http://purl.org/dc/elements/1.1/"
   xmlns:cc="http://creativecommons.org/ns#"
   xmlns:rdf="http://www.w3.org/1999/02/22-rdf-syntax-ns#"
   xmlns:svg="http://www.w3.org/2000/svg"
   xmlns="http://www.w3.org/2000/svg"
   xmlns:xlink="http://www.w3.org/1999/xlink"
   xmlns:sodipodi="http://sodipodi.sourceforge.net/DTD/sodipodi-0.dtd"
   xmlns:inkscape="http://www.inkscape.org/namespaces/inkscape"
   width="128"
   height="128"
   id="svg4113"
   version="1.1"
   inkscape:version="0.48.4 r9939"
   sodipodi:docname="metro.svg">
  <defs
     id="defs4115">
    <linearGradient
       id="linearGradient3680-6-6-6-3-7-1-9">
      <stop
         offset="0"
         style="stop-color:#dcdcdc;stop-opacity:1"
         id="stop3682-4-6-1-3-7-7-1" />
      <stop
         offset="1"
         style="stop-color:#ffffff;stop-opacity:1"
         id="stop3684-8-5-8-0-2-6-7" />
    </linearGradient>
    <linearGradient
       inkscape:collect="always"
       xlink:href="#linearGradient3924"
       id="linearGradient4136"
       gradientUnits="userSpaceOnUse"
       gradientTransform="matrix(2.7297298,0,0,2.7297298,-1.5135184,-62.511679)"
       x1="23.99999"
       y1="4.999989"
       x2="23.99999"
       y2="43" />
    <linearGradient
       id="linearGradient3924">
      <stop
         offset="0"
         style="stop-color:#ffffff;stop-opacity:1"
         id="stop3926" />
      <stop
         offset="0.06316455"
         style="stop-color:#ffffff;stop-opacity:0.23529412"
         id="stop3928" />
      <stop
         offset="0.95056331"
         style="stop-color:#ffffff;stop-opacity:0.15686275"
         id="stop3930" />
      <stop
         offset="1"
         style="stop-color:#ffffff;stop-opacity:0.39215687"
         id="stop3932" />
    </linearGradient>
    <radialGradient
       inkscape:collect="always"
       xlink:href="#linearGradient2867-449-88-871-390-598-476-591-434-148-57-177-8-3-3-6-4-8-8-8-5-7-8"
       id="radialGradient3936-3"
       gradientUnits="userSpaceOnUse"
       gradientTransform="matrix(0,24.139622,-29.635745,0,361.28116,-268.72681)"
       cx="7.1183534"
       cy="9.9571075"
       fx="7.1183534"
       fy="9.9571075"
       r="12.671875" />
    <linearGradient
       id="linearGradient2867-449-88-871-390-598-476-591-434-148-57-177-8-3-3-6-4-8-8-8-5-7-8">
      <stop
         offset="0"
         style="stop-color:#505050;stop-opacity:1"
         id="stop3750-1-0-7-6-6-1-3-9-3-9-2" />
      <stop
         offset="0.26238"
         style="stop-color:#2b2b2b;stop-opacity:1"
         id="stop3752-3-7-4-0-32-8-923-0-7-0-3" />
      <stop
         offset="0.704952"
         style="stop-color:#0a0a0a;stop-opacity:1"
         id="stop3754-1-8-5-2-7-6-7-1-9-1-0" />
      <stop
         offset="1"
         style="stop-color:#000000;stop-opacity:1"
         id="stop3756-1-6-2-6-6-1-96-6-0-1-7" />
    </linearGradient>
    <radialGradient
       inkscape:collect="always"
       xlink:href="#linearGradient3688-166-749-5"
       id="radialGradient4093"
       gradientUnits="userSpaceOnUse"
       gradientTransform="matrix(2.003784,0,0,1.4,27.98813,-17.4)"
       cx="4.9929786"
       cy="43.5"
       fx="4.9929786"
       fy="43.5"
       r="2.5" />
    <linearGradient
       id="linearGradient3688-166-749-5">
      <stop
         offset="0"
         style="stop-color:#181818;stop-opacity:1"
         id="stop2883-0" />
      <stop
         offset="1"
         style="stop-color:#181818;stop-opacity:0"
         id="stop2885-5" />
    </linearGradient>
    <radialGradient
       inkscape:collect="always"
       xlink:href="#linearGradient3688-464-309-8"
       id="radialGradient4095"
       gradientUnits="userSpaceOnUse"
       gradientTransform="matrix(2.003784,0,0,1.4,-20.01187,-104.4)"
       cx="4.9929786"
       cy="43.5"
       fx="4.9929786"
       fy="43.5"
       r="2.5" />
    <linearGradient
       id="linearGradient3688-464-309-8">
      <stop
         offset="0"
         style="stop-color:#181818;stop-opacity:1"
         id="stop2889-9" />
      <stop
         offset="1"
         style="stop-color:#181818;stop-opacity:0"
         id="stop2891-4" />
    </linearGradient>
    <linearGradient
       inkscape:collect="always"
       xlink:href="#linearGradient3702-501-757-0"
       id="linearGradient4097"
       gradientUnits="userSpaceOnUse"
       x1="25.058096"
       y1="47.027729"
       x2="25.058096"
       y2="39.999443" />
    <linearGradient
       id="linearGradient3702-501-757-0">
      <stop
         offset="0"
         style="stop-color:#181818;stop-opacity:0"
         id="stop2895-0" />
      <stop
         offset="0.5"
         style="stop-color:#181818;stop-opacity:1"
         id="stop2897-2" />
      <stop
         offset="1"
         style="stop-color:#181818;stop-opacity:0"
         id="stop2899-6" />
    </linearGradient>
    <linearGradient
       id="linearGradient3811">
      <stop
         offset="0"
         style="stop-color:#000000;stop-opacity:1"
         id="stop3813" />
      <stop
         offset="1"
         style="stop-color:#000000;stop-opacity:0"
         id="stop3815" />
    </linearGradient>
    <radialGradient
       r="35.338131"
       fy="93.467628"
       fx="-4.0287771"
       cy="93.467628"
       cx="-4.0287771"
       gradientTransform="matrix(1.5563924,0,0,0.16978827,70.270355,38.132101)"
       gradientUnits="userSpaceOnUse"
       id="radialGradient4111"
       xlink:href="#linearGradient3811"
       inkscape:collect="always" />
    <radialGradient
       r="20.523518"
       fy="13.460493"
       fx="32.007732"
       cy="13.460493"
       cx="32.007732"
       gradientTransform="matrix(0,4.2773057,-5.2892453,0,135.19574,-112.22175)"
       gradientUnits="userSpaceOnUse"
       id="radialGradient4808"
       xlink:href="#linearGradient4777"
       inkscape:collect="always" />
    <linearGradient
       id="linearGradient4777">
      <stop
         style="stop-color:#f8c700;stop-opacity:1;"
         offset="0"
         id="stop4779" />
      <stop
         id="stop4787"
         offset="0.33070782"
         style="stop-color:#e8ba00;stop-opacity:1;" />
      <stop
         id="stop4785"
         offset="0.50559151"
         style="stop-color:#dcb000;stop-opacity:1;" />
      <stop
         style="stop-color:#e4b600;stop-opacity:1;"
         offset="1"
         id="stop4781" />
    </linearGradient>
    <radialGradient
       r="20.523518"
       fy="13.460493"
       fx="32.007732"
       cy="13.460493"
       cx="32.007732"
       gradientTransform="matrix(0,4.2773057,-5.2892453,0,135.19584,-175.72005)"
       gradientUnits="userSpaceOnUse"
       id="radialGradient3055"
       xlink:href="#linearGradient4777"
       inkscape:collect="always" />
  </defs>
  <sodipodi:namedview
     id="base"
     pagecolor="#ffffff"
     bordercolor="#666666"
     borderopacity="1.0"
     inkscape:pageopacity="0.0"
     inkscape:pageshadow="2"
     inkscape:zoom="3.8890873"
     inkscape:cx="68.307498"
     inkscape:cy="37.134449"
     inkscape:current-layer="layer1"
     showgrid="true"
     inkscape:document-units="px"
     inkscape:grid-bbox="true"
     inkscape:window-width="1920"
     inkscape:window-height="1025"
     inkscape:window-x="0"
     inkscape:window-y="30"
     inkscape:window-maximized="1" />
  <metadata
     id="metadata4118">
    <rdf:RDF>
      <cc:Work
         rdf:about="">
        <dc:format>image/svg+xml</dc:format>
        <dc:type
           rdf:resource="http://purl.org/dc/dcmitype/StillImage" />
        <dc:title />
      </cc:Work>
    </rdf:RDF>
  </metadata>
  <g
     id="layer1"
     inkscape:label="Layer 1"
     inkscape:groupmode="layer"
     transform="translate(0,64)">
    <g
       id="g3160">
      <path
         style="opacity:0.2;color:#000000;fill:url(#radialGradient4111);fill-opacity:1;fill-rule:nonzero;stroke:none;stroke-width:1;marker:none;visibility:visible;display:inline;overflow:visible;enable-background:accumulate"
         id="path3041"
         d="m 119,54.00181 a 55,6 0 0 1 -109.9999982,0 55,6 0 1 1 109.9999982,0 z"
         inkscape:connector-curvature="0" />
      <g
         style="display:inline"
         id="g2036"
         transform="matrix(2.6999989,0,0,0.55555607,-0.80000812,30.890691)">
        <g
           style="opacity:0.4"
           id="g3712"
           transform="matrix(1.052632,0,0,1.285713,-1.263158,-13.42854)">
          <rect
             style="fill:url(#radialGradient4093);fill-opacity:1;stroke:none"
             id="rect2801"
             y="40"
             x="38"
             height="7"
             width="5" />
          <rect
             style="fill:url(#radialGradient4095);fill-opacity:1;stroke:none"
             id="rect3696"
             transform="scale(-1,-1)"
             y="-47"
             x="-10"
             height="7"
             width="5" />
          <rect
             style="fill:url(#linearGradient4097);fill-opacity:1;stroke:none"
             id="rect3700"
             y="40"
             x="10"
             height="7.0000005"
             width="28" />
        </g>
      </g>
      <rect
         style="opacity:0.9;color:#000000;fill:url(#radialGradient3936-3);fill-opacity:1;fill-rule:nonzero;stroke:none;stroke-width:0.99999994;marker:none;visibility:visible;display:inline;overflow:visible;enable-background:accumulate"
         id="rect5505-21-3"
         y="-48.498192"
         x="12.499988"
         ry="6.0545406"
         rx="6.0545406"
         height="103"
         width="103" />
      <rect
         style="opacity:0.3;fill:none;stroke:url(#linearGradient4136);stroke-width:0.99999994;stroke-linecap:round;stroke-linejoin:round;stroke-miterlimit:4;stroke-opacity:1;stroke-dasharray:none;stroke-dashoffset:0"
         id="rect6741-7"
         y="-47.498192"
         x="13.499988"
         ry="5"
         rx="5"
         height="101"
         width="101" />
      <path
         inkscape:connector-curvature="0"
         id="path3048"
         d="m 82.59375,-43.34375 c -5.807511,1.814972 -6.560413,10.84513 -13.125,13.09375 -2.048336,3.084836 -4.555958,7.247271 -7.875,7.3125 -1.909223,-3.18532 -4.497117,-6.280114 -4.434046,-10.680933 C 56.31345,-35.617117 54.911541,-32.787364 52,-38.75 c -1.706451,-2.984242 -2.620471,-5.550538 -6.875,-4.25 -6.189134,-0.230787 -11.852609,0.09293 -17.8108,0.36961 -6.464885,-3.10601 -5.220308,6.986566 -0.97045,7.63039 5.882469,0.673844 9.510035,6.902334 2.326878,2.049786 -7.966435,-4.023659 -5.506089,5.206583 -6.323404,10.243336 0.542231,6.052672 -1.992719,11.964077 -0.03472,17.988128 -1.618554,4.11546389 -0.485868,8.8455509 -0.28125,12.96875 -2.442399,9.925569 0.689833,19.965515 -0.6875,30 -0.09582,3.070169 0.536612,6.451867 0.769607,8.925857 2.653854,3.958528 8.974005,1.152385 13.261643,2.105393 4.527702,-0.672947 10.641043,1.188486 14.15625,-1.75 2.229163,-3.334115 -1.733244,-7.217573 0.34375,-10.96875 0.999985,-3.079498 -1.1644,-5.883191 0.03125,-9 -0.226021,-4.274273 0.131378,-8.263296 -0.0625,-12.71875 C 49.520314,9.1230303 50.786836,2.9488807 49.125,-2.5625 c -3.331537,-3.7275551 -4.49283,-7.874685 -6.25,-12.15625 -2.191777,-4.489222 -7.629211,-9.945528 -7.9375,-13.59375 4.692139,5.778262 8.096364,11.809754 12.5625,17.5625 1.855888,3.1990244 4.692186,6.3789639 5.40625,10.59375 -0.608702,2.3299099 0.136123,5.4119215 -0.5,7.5 -2.86475,3.359352 4.539269,7.280743 5.5,2.53125 0.656438,-2.0110924 -0.549376,-7.0608616 1.75,-3.46875 1.392712,3.2301521 4.945986,2.2628524 6.375,0.71875 0.484326,4.645485 -2.340832,11.171406 1.4375,14.75 3.052251,1.523234 6.393874,-3.362216 3.4375,-5.125 1.116072,-3.343023 -0.993286,-6.443408 0.78125,-9.65625 1.164952,-3.2748726 1.043769,-3.5363491 1.375,-0.65625 1.445252,3.872971 7.166574,0.2743506 4.59375,-2.9375 0.290338,-2.68940127 -1.526839,-8.9154861 1.5625,-8.8125 -1.43105,5.83319938 1.55043,11.5450575 -0.375,17.4375 -1.055446,6.235084 0.670299,12.569084 0.1875,18.90625 1.483637,4.875809 -0.552497,10.084028 0.982946,15.028304 0.08944,5.552578 7.680956,2.660268 11.329554,3.440446 5.045979,-0.06403 9.96336,-0.16294 14.875,-0.625 -1.22088,-3.548522 3.02599,-9.158449 2.63682,-10.365286 -4.26213,3.478883 -1.79642,-4.321536 -2.66807,-6.415964 0.84063,-12.661385 -0.59717,-25.6113401 0.84375,-38.03125 0.19164,-2.2865154 -1.62513,-5.9294 0.3125,-8.5 -1.84946,-3.517405 -1.08118,-9.175852 -0.34375,-12.5 -1.09058,-2.770035 -0.0238,-4.614741 -0.90649,-7.433605 0.25107,-3.444749 1.17027,-9.76603 -4.18623,-8.708487 -6.417124,0.303874 -13.063275,-0.156449 -19.31353,-0.264158 z"
         style="font-size:48px;font-style:normal;font-variant:normal;font-weight:normal;font-stretch:normal;line-height:125%;letter-spacing:0px;word-spacing:0px;fill:#000000;fill-opacity:1;stroke:none;font-family:Boston Traffic;-inkscape-font-specification:Boston Traffic;opacity:0.05" />
      <path
         inkscape:connector-curvature="0"
         id="path3154"
         d="m 46.375,-45.3125 c -7.365216,0.315644 -14.99652,0.754179 -22.28125,0.1875 -4.704625,1.308619 -3.317982,7.55902 -1.65625,10.34375 -3.658043,5.325214 -1.015334,12.543351 -2.375,18.625 -1.281046,5.512121 0.606711,10.8579313 -0.59375,16.25 1.069838,9.012445 -1.433248,17.9152 0.0625,27 1.10568,7.417634 -2.1882,16.10717 2.09375,22.5625 5.422677,3.509924 12.354838,0.5566 18.373665,1.520405 5.987053,1.611369 15.025957,-2.074176 11.688835,-9.489155 -1.268109,-3.815854 1.780612,-7.53593 -0.125,-11.5 0.632986,-5.521438 0.0436,-12.417374 0.46875,-17.21875 2.898603,2.446508 7.743928,0.593322 8,-3.125 1.547926,1.51537 5.386876,-0.7128308 3.65625,2.84375 -1.01287,4.3769 0.28899,12.657362 6.375,11.28125 3.463046,-0.961375 5.029166,-5.361653 3.125,-8.25 0.575266,-1.776141 -0.959751,-5.27158 0.15625,-6.0625 1.737867,1.381339 5.354081,-1.3644975 3.53125,2.03125 -1.070706,10.661314 1.221375,21.21877 0.625,31.8125 -0.07193,4.003857 2.110792,8.640543 6.84375,8.0625 8.139718,-0.29916 16.31102,0.09563 24.4375,-0.90625 C 105.58608,45.126 113.40686,40.463996 110,34.9375 c -2.92439,3.647049 -1.1581,-2.295282 -1.73584,-4.061469 0.45768,-12.844939 -0.28307,-25.768311 0.67334,-38.563531 -1.01263,-2.616221 -0.0184,-5.408705 0.21875,-7.5625 -2.22661,-5.312627 0.40193,-10.862586 -0.6875,-16.25 -0.6891,-4.635531 1.60203,-13.023314 -5.21875,-13.6875 -7.521159,0.986852 -15.43978,-1.157688 -22.71875,0.53125 -5.517937,3.166258 -6.69362,10.950952 -12.71875,13.3125 -1.550283,2.196812 -2.886985,4.748295 -5.25,6.15625 -2.828718,-2.873226 -2.83748,-6.968488 -4.25,-10.28125 -1.916426,-1.049891 -3.965057,-1.758192 -4.5625,-4.28125 -1.43969,-2.907587 -3.625236,-6.180508 -7.375,-5.5625 z"
         style="font-size:48px;font-style:normal;font-variant:normal;font-weight:normal;font-stretch:normal;line-height:125%;letter-spacing:0px;word-spacing:0px;opacity:0.05;fill:#000000;fill-opacity:1;stroke:none;font-family:Boston Traffic;-inkscape-font-specification:Boston Traffic" />
      <rect
         style="opacity:0.7;color:#000000;fill:none;stroke:#000000;stroke-width:1;stroke-linecap:round;stroke-linejoin:round;stroke-miterlimit:4;stroke-opacity:1;stroke-dasharray:none;stroke-dashoffset:0;marker:none;visibility:visible;display:inline;overflow:visible;enable-background:accumulate"
         id="rect5505-21-3-1"
         y="-48.498192"
         x="12.499988"
         ry="6.0545406"
         rx="6.0545406"
         height="103"
         width="103" />
      <path
         style="font-size:48px;font-style:normal;font-variant:normal;font-weight:normal;font-stretch:normal;line-height:125%;letter-spacing:0px;word-spacing:0px;fill:url(#radialGradient3055);fill-opacity:1;stroke:none;font-family:Boston Traffic;-inkscape-font-specification:Boston Traffic"
         d="m 83.35949,-41.493518 -1.187498,0.5 c -0.10254,-0.0032 -0.209952,0.0014 -0.3125,0 l -0.187499,0.249999 -0.25,0.125 -0.0625,0.374999 -0.0625,0.125 -0.937498,0.437499 -0.562499,1.374998 -1.124998,1.812496 -2.562495,3.374994 -1.437498,1.749997 -1.999996,1.499997 -1.812497,1.124998 -1.562497,2.187496 -0.749999,2.187496 -2.624995,1.124998 -1.062498,1.937497 -3.999993,1.374997 -0.437499,-1.374997 c -0.90139,-0.868727 -1.350084,-1.684401 -1.312498,-2.499996 -0.697946,-0.594651 -1.255623,-1.187838 -1.687497,-1.749997 l -0.749998,0.0625 -0.624999,-0.749998 0.125,-0.3125 -0.499999,-0.499999 0.499999,-0.999998 0.0625,0.0625 -0.0625,-0.3125 -0.0625,0.1875 -0.499999,0 -0.4375,-0.437499 0.3125,-0.687499 c -0.215274,-0.251628 -0.328068,-0.517273 -0.374999,-0.749999 l -0.874999,-0.937498 -1.749997,-3.874993 -0.937498,-0.437499 0,-0.937498 c -1.614969,-1.790647 -2.611827,-3.39407 -3.062495,-4.812491 l -3.374993,0 -1.499998,-0.0625 c -1.577405,4.8e-5 -2.836021,0.06344 -3.812493,0.187499 -1.877855,-0.265897 -3.659989,-0.320869 -5.31249,-0.249999 l -1.312498,0.437499 -0.0625,0.1875 -0.499999,0 -0.0625,0 -7.499986,-0.1875 0.749999,3.499994 1.312497,0.312499 0.499999,-0.937498 1.187498,0.812498 -0.125,0.562499 1.062498,0.25 3.812493,1.999996 -0.624998,-0.749998 0.437499,-0.999999 1.249997,0.812499 -0.249999,0.874998 -0.812499,0.0625 0.125,0.0625 1.312498,1.624998 0.437499,1.562496 0.937498,0.499999 -0.0625,0.687499 c 1.765171,1.613437 2.786973,3.018258 3.124995,4.312492 0.488229,0.425543 0.824818,0.850665 0.937498,1.187498 l 0.874998,1.124998 c 1.276926,1.382947 1.999697,2.623741 2.187497,3.687493 l 1.437497,0.937499 -0.0625,0.687498 c 0.976464,1.063806 1.587139,1.987643 1.812497,2.749995 1.840273,1.631151 2.862075,3.234569 3.124994,4.812492 l 1.437498,0.6874988 1.687497,3.624993 0.437499,0.437499 c 0.345333,0.913501 0.749998,1.999997 0.749998,1.999997 0,0 0.32198,2.183236 0.624999,2.374995 0.303006,0.19175996 0.4375,2.374996 0.4375,2.374996 l -0.749999,2.687495 0.312499,1.687497 c 0,0 0.3504,1.142246 0.375,1.499997 0.03184,0.462944 -1.249998,1.624998 -1.249998,1.624998 0,0 0.1839,1.4137372 1.499997,1.3749972 0.924585,-0.02722 0.812499,-2.1874962 0.812499,-2.1874962 l 0.124999,-2.562495 -0.187499,-3.562494 -0.125,-2.874995 0.0625,0.18749996 c 0.375543,0.230485 0.512587,0.474749 0.437499,0.687499 l 0.937498,0.437499 -0.0625,0.93749804 0.999998,0.687499 1.374997,1.062498 c 0.11264,1.223352 2.436326,2.828051 3.187495,3.749993 0.902082,-0.03342 4.093356,-3.162498 7.312486,-6.43748804 l 0,0.374999 -2.187496,6.87498804 -0.249999,4.3124922 -0.125,3.624994 0.125,2.562499 c 0,0 -0.11208,2.09778 0.812498,2.12499 1.31609,0.0387 1.437498,-1.3125 1.437498,-1.3125 0,0 -1.21933,-1.16205 -1.187498,-1.62499 0.0246,-0.35775 0.312499,-1.5625 0.312499,-1.5625 l 0.3125,-1.687497 -0.749999,-2.687495 c 0,0 0.1345,-2.1207382 0.437499,-2.3124962 0.30302,-0.191759 0.624999,-2.437495 0.624999,-2.437495 0,0 2.240514,-5.55823205 1.937497,-5.74999005 -0.303018,-0.19175999 0,-1.74999699 0,-1.74999699 l 0,-0.24999896 c 0.629249,-0.644621 1.160596,-1.21223 1.749997,-1.812497 0.0102,-0.0104 0.05224,0.0104 0.0625,0 0,0 0.651539,0.528581 0.749999,0.999998 0.1001,0.479229 0.499999,1.62499696 0.499999,1.62499696 l 0.125,1.87499704 -0.25,1.312497 c 0,0 0.21268,0.856993 0.25,1.124998 0.04838,0.34681 0,1.187498 0,1.187498 0,0 -0.1584,1.091518 0.687499,1.062498 1.401837,-0.0481 0.125,-2.124996 0.125,-2.124996 l -0.1875,-1.999996 0.1875,-1.87499704 -0.562499,-2.99999496 -0.0625,-1.812496 c 1.534001,-1.52692 2.703793,-2.63428 3.062494,-2.687495 l 1.062498,-1.624997 c -0.187819,-0.496428 -0.200439,-0.967209 0.0625,-1.3749978 l 0.562499,-0.874998 0.999998,-1.124998 0.0625,-0.937499 0,1.562497 c -0.07516,1.063799 0.012,1.9876368 0.3125,2.7499958 -0.384696,0.949852 -0.40864,1.833366 -0.0625,2.687495 l 0.437499,-0.562499 0.312499,0.0625 0.4375,-0.624999 1.062498,0.249999 -0.3125,0.812499 0.874997,0.187499 -0.3125,0.874999 0.3125,0.0625 -0.5,1.312497 -0.937496,0 -0.249999,-0.812498 0.0625,-0.0625 -0.4375,0 -0.124999,-0.499999 -0.375,0 c -0.694812,1.651321 -0.760574,3.183256 -0.125,4.49999196 l -0.499999,0.437499 c -0.0046,0.361243 0.11164,2.31278004 0.937499,3.49999404 -0.665565,1.187212 -0.238026,2.815199 0.0625,5.18749 -0.919811,1.9655152 -0.732799,4.2413452 -1.499998,6.9374882 0.859919,2.696149 -0.0019,6.601809 0.874999,8.624989 0.0026,0.12504 -6.8e-5,0.24981 0,0.375 l 0.687498,0.18749 -0.499999,1.3125 -0.249999,0 c -0.10962,2.21569 -0.33112,4.42802 0.249999,6.49999 0.0435,0.0891 0.08884,0.1606 0.125,0.25 l -0.125,-0.4375 0.3125,-0.4375 0.562499,0.125 -0.25,0.75 -0.499999,0 c 0.93274,2.30552 -0.490907,4.720753 0.125,7.062483 -0.580545,2.16135 0.260563,3.96712 0.374999,5.31249 0.11444,1.34537 0.18104,2.22695 0.3125,2.43749 3.697955,0.23123 9.970385,0.22166 15.187478,0.0625 l -0.0625,-0.87499 0.9375,-0.5625 0.5625,1.37499 c 0.82227,-0.0321 1.46856,-0.0202 2.18749,-0.0625 l 0,-0.625 1.375,0.125 0.125,0.375 c 0.55357,-0.0452 1.33002,-0.0716 1.75,-0.125 l 0.125,-2.49999 0.0625,-0.9375 c -0.16574,-0.20337 -0.15712,-0.42235 0,-0.625 l -0.125,0.0625 -0.4375,-0.4375 0.1875,-0.6875 0.4375,0.25 -0.0625,-1.0625 -0.0625,0.0625 -0.5,-0.31249 -0.0625,-0.625 0.625,-0.3125 -0.0625,-0.625 -0.1875,-0.1875 0.1875,-0.4375 -0.0625,-2.12499 -0.25,0.1875 -0.6875,-0.437503 0,-0.1875 -0.375,0.375 -0.25,-0.1875 -0.5,0.437503 -0.6875,-0.437503 0,-0.125 -0.375,0.3125 -0.4375,-0.25 -0.375,0.312503 -0.6875,-0.437503 0,-0.3125 -0.25,-0.125 -0.0625,-0.62499 0.25,-0.125 0.0625,-0.125 -0.5625,-0.4375 0.3125,-1.0625 0.75,0.375 0.125,-0.25 -0.0625,-0.0625 0,-0.625 0.5625,-0.3125 0.3125,0.75 0.1875,0.0625 0.125,-0.3125 0.625,0.3125 0,-0.5 0.5625,-0.3125 0.375,0.8125 -0.3125,0.3125 0,0.4375 0.1875,0.5 0.75,-0.375 0.3125,0.8125 0.3125,-0.125 -0.125,-2.25 -0.25,-0.125 -0.0625,-0.6875 0.3125,-0.1875 0.375,-9.99998 -0.3125,-10.374982 0.37499,-10.37498125 c 0,0 -0.16291,-0.45700499 0.0625,-0.68749899 l 0,-0.687499 -0.43749,-1.81249596 c 0.41306,-1.116964 0.64987,-2.058527 0.68749,-2.749995 l -0.93749,-0.937499 1.06249,-1.312497 -0.4375,-1.374998 c 0.0375,-0.762358 -0.11215,-1.3515068 -0.37499,-1.8124968 0.41306,-0.975114 0.46295,-1.808518 0.125,-2.499995 l 0.49999,-0.937498 -0.43749,-0.4375 0.18749,-2.499995 c -0.30051,-0.868731 -0.47512,-1.656471 -0.43749,-2.312496 l 0.0625,-1.124998 0.125,-1.812497 0.0625,-0.874998 -0.4375,-1.437497 0.5625,-0.874999 c -0.1503,-0.390021 -0.12536,-0.770371 0.0625,-1.124998 -0.18784,-0.372289 -0.16292,-0.644479 0.0625,-0.874998 -0.37564,-0.904181 -0.38824,-1.782353 0.0625,-2.562496 -0.33808,-0.407745 -0.45018,-0.788096 -0.375,-1.124998 l -0.4375,-0.437498 0,-0.687499 0.1875,-2.749995 0,-0.687499 0.0625,-0.624999 c 0.22527,-1.790653 0.1255,-3.321366 -0.25,-4.562492 l -0.9375,-0.249999 c -4.88247,0.248263 -16.169783,0.12148 -19.62497,-0.375 z m -49.062412,0.687499 0.749999,0.499999 0.124999,-0.249999 1.187498,0.749998 -0.187499,0.937499 -0.812499,0.0625 -0.125,-0.125 -0.0625,0.437499 -0.499999,0.0625 -0.124999,0.499999 -0.812499,0.0625 -0.624999,-0.749999 0.125,-0.249999 -0.499999,-0.562499 0.437499,-0.999998 0.749999,0.437499 0.374999,-0.812499 z m -6.937487,0.437499 0.499999,0.3125 -0.125,0.374999 -0.312499,0 -0.25,-0.312499 0.1875,-0.375 z m 4.312492,2.187496 0.749999,0.5 -0.125,0.562499 -0.499999,0.0625 -0.437499,-0.499999 0.312499,-0.624999 z m 8.999984,3.499994 0.624998,0.437499 -0.124999,0.5 -0.4375,0 -0.374999,-0.375 0.3125,-0.562499 z m 47.18742,0.375 0.24999,0.499999 -0.31249,0.249999 -0.25,-0.125 -0.0625,-0.437499 0.375,-0.187499 z m 8.562483,0.999998 0.375,0.812498 -0.5,0.437499 -0.4375,-0.312499 -0.0625,-0.624999 0.625,-0.312499 z m -3.624993,0.937498 0.3125,0.874998 -0.4375,0.374999 -0.4375,-0.249999 -0.0625,-0.624999 0.625,-0.374999 z m -6.18749,0.312499 0.5,1.312498 -0.6875,0.624999 -0.6875,-0.4375 -0.125,-0.999997 1,-0.5 z m -61.687392,0.5 -0.874998,13.312475 0.437499,1.187498 -0.125,1.562497 c -0.676025,1.684343 -0.91284,3.124625 -0.687499,4.312492 l -0.187499,3.1874948 0.437499,1.124998 0.374999,2.062496 -0.125,1.812497 -0.499999,0.687498 -0.124999,2.49999596 c -0.374418,1.41549904 -0.0066,5.93071304 1.062498,6.87498804 -1.09309,1.09309 -2.553354,13.3111742 -0.937499,14.2499742 -1.06875,1.22644 0.653245,13.53382 -0.0625,14.18747 -0.523993,1.420683 -0.112379,6.617463 -0.187499,6.812483 0.600909,1.40065 0.663125,2.59668 0.249999,3.625 0.488239,0.40778 0.824827,0.7704 0.937499,1.12499 l 10.374981,0.25 0.999998,-0.1875 1.437497,0.25 1.374998,-0.25 3.749993,0.0625 c 1.840277,-0.14184 3.460426,-0.20521 4.812491,-0.1875 l 0.5,-0.62499 0.562499,-0.9375 0,-0.6875 -0.874999,-1.5625 c 0,0 -0.618011,-3.81917 0.0625,-5.56249 0.968186,-4.523793 0.661791,-3.085513 0,-5.499983 -0.565873,-1.74332 0.820171,-3.56491 0.0625,-5.49999 0.16136,-0.59417 0.223104,-1.12752 0.249999,-1.625 l -0.249999,-0.0625 0.249999,-0.68749 c -9.9e-4,-0.0221 0.0012,-0.0407 0,-0.0625 -0.107119,-1.97849 -0.968182,-2.97839 -0.249999,-3.0625 0.968186,-1.16805 -0.17468,-3.92046 0.0625,-5.56249 0.365555,-2.530831 0.09586,-3.481947 -0.125,-3.999993 l -0.1875,-0.0625 0.0625,-0.1875 c -0.14018,-0.317413 -0.160719,-0.538599 0.25,-1.249998 0.429139,-1.6015712 0.459507,-3.7850872 0,-5.4999902 l 0.0625,-5.56249004 c 0,0 -1.423758,-2.05852596 -2.249996,-2.74999496 l -0.437499,-1.124997 -0.937499,-0.937498 -0.624999,-1.687497 c -0.976538,-0.904215 -0.612683,-1.078034 -0.499999,-1.999997 l -1.249998,-1.4374968 c -0.300467,-1.418359 0.351758,-1.846653 -0.812498,-2.874995 l -1.374998,-2.812495 c -1.464729,-1.489269 -3.986528,-5.257992 -4.624991,-6.374988 l -2.687495,-5.68749 -1.874997,-0.1875 -1.124998,-1.937496 -4.374992,-0.749998 z m 67.812382,0.562498 0.3125,0.749999 0.68749,-0.437499 0.375003,0.874998 0.25,-0.125 0.5625,1.312498 -0.6875,0.624999 -0.750003,-0.4375 0,-0.0625 -0.31249,0.249999 -0.4375,-0.312499 -0.375,0.374999 -0.6875,-0.437499 -0.125,-0.999998 0.25,-0.125 -0.0625,-0.749999 1,-0.499999 z m -2.5625,0.937498 0.3125,0.874999 -0.4375,0.374999 -0.4375,-0.249999 -0.0625,-0.624999 0.625,-0.375 z m -39.812428,2.062497 0.499999,0.312499 -0.125,0.374999 -0.312499,0 -0.312499,-0.312499 0.249999,-0.374999 z m 39.874928,0.749998 0.5,1.374998 -0.6875,0.624999 -0.6875,-0.437499 -0.125,-0.999999 1,-0.562499 z m -2.37499,1.374998 0.24999,0.562499 -0.31249,0.249999 -0.25,-0.187499 -0.0625,-0.375 0.375,-0.249999 z m -33.187446,0.0625 0.749999,0.499999 -0.125,0.562499 -0.562499,0.0625 -0.374999,-0.499999 0.312499,-0.624999 z m -4.062492,0.374999 1.187497,0.812499 -0.249999,0.874998 -0.812499,0.0625 -0.624998,-0.749999 0.499999,-0.999998 z m 45.812421,0.624999 0.375,0.812499 -0.5,0.437499 -0.4375,-0.3125 -0.0625,-0.624999 0.625,-0.312499 z m -3.624993,0.937498 0.3125,0.874999 -0.4375,0.374999 -0.4375,-0.25 -0.0625,-0.624998 0.625,-0.375 z m -6.18749,0.25 0.5,1.374997 -0.6875,0.624999 -0.6875,-0.437499 -0.125,-0.999998 1,-0.562499 z m -30.249949,0.0625 1.187498,0.812498 -0.1875,0.874999 -0.874998,0.0625 -0.624999,-0.749999 0.499999,-0.999998 z m 36.374939,0.999998 0.3125,0.812498 0.68749,-0.437499 0.375003,0.812499 0.25,-0.125 0.5625,1.374998 -0.6875,0.624998 -0.750003,-0.499999 0,-0.0625 -0.31249,0.25 -0.4375,-0.25 -0.375,0.375 -0.6875,-0.437499 -0.125,-0.999999 0.25,-0.124999 -0.0625,-0.749999 1,-0.562499 z m 2.687493,0.562499 0.3125,0.687499 -0.375,0.374999 -0.375,-0.25 -0.0625,-0.499999 0.5,-0.312499 z m -5.249993,0.437499 0.3125,0.812499 -0.4375,0.437499 -0.4375,-0.3125 -0.0625,-0.624998 0.625,-0.3125 z m -56.187398,2.124996 0.812498,0.4375 -0.0625,0.562498 -0.562499,0.125 -0.437499,-0.437499 0.25,-0.687499 z m 56.249898,0.687499 0.5,1.312498 -0.6875,0.624999 -0.6875,-0.4375 -0.125,-0.937498 1,-0.562499 z m -58.312394,2.499996 0.812498,0.374999 -0.0625,0.624999 -0.499999,0.0625 -0.499999,-0.375 0.249999,-0.687498 z m 1.874996,0.562499 0.812498,0.437499 0.125,-0.3125 1.249998,0.624999 -0.125,0.937499 -0.812498,0.187499 -0.0625,-0.0625 -0.0625,0.375 -0.499999,0.124999 -0.0625,0.499999 -0.812499,0.125 -0.687498,-0.624999 0.124999,-0.249999 -0.624998,-0.562499 0.374999,-0.999998 0.749998,0.374999 0.3125,-0.874998 z m -6.812488,1.249997 0.499999,0.25 -0.0625,0.374999 -0.312499,0.0625 -0.312499,-0.249999 0.187499,-0.4375 z m 68.437379,0.937499 0.3125,0.687498 -0.375,0.3125 -0.375,-0.1875 -0.0625,-0.562499 0.5,-0.249999 z m -55.749902,0.374999 0.812499,0.374999 -0.0625,0.624999 -0.562499,0.125 -0.437499,-0.437499 0.249999,-0.687499 z m 41.874925,0.1875 0.499999,0.0625 -0.25,0.562499 -0.374999,0 -0.0625,-0.312499 0.1875,-0.312499 z m -50.06241,0.187499 0.874999,0.375 -0.125,0.624998 -0.499999,0.0625 -0.437499,-0.437499 0.187499,-0.624999 z m 46.999915,0.437499 1.062499,0.25 -0.5,1.374998 -0.937498,0 -0.1875,-0.812499 0.562499,-0.812499 z m -15.624971,0.0625 0.437499,0.125 -0.25,0.562499 -0.374999,-0.0625 -0.0625,-0.312499 0.25,-0.3125 z m -35.312437,0.375 1.249998,0.624999 -0.125,0.937498 -0.812498,0.125 -0.687499,-0.687499 0.374999,-0.999998 z m 32.187442,0.312499 1.062498,0.25 -0.499999,1.3124968 -0.937498,0 -0.1875,-0.8124978 0.562499,-0.749999 z m -26.249953,0.812499 1.249998,0.624999 -0.0625,0.9374978 -0.874998,0.1875 -0.687499,-0.687499 0.374999,-1.0624978 z m 7.374987,0.374999 0.687499,0.3749988 -0.0625,0.499999 -0.437499,0.0625 -0.374999,-0.374999 0.187499,-0.5624988 z m -3.249994,0.4374988 0.812499,0.375 -0.0625,0.562499 -0.499999,0.124999 -0.4375,-0.437499 0.1875,-0.624999 z m 1.874997,0.562499 0.812498,0.437499 0.125,-0.312499 1.249998,0.624999 -0.0625,0.937498 -0.874999,0.125 -0.0625,-0.0625 -0.0625,0.437499 -0.4375,0.0625 -0.0625,0.562499 -0.812499,0.125 -0.749999,-0.687499 0.0625,-0.249999 -0.499999,-0.5 0.3125,-1.062498 0.749998,0.375 0.3125,-0.812499 z m 44.187418,1.124998 0.6875,0.1875 -0.3125,0.812498 -0.625,0 -0.124997,-0.499999 0.374997,-0.499999 z m -50.999906,0.125 0.499999,0.249999 0,0.375 -0.374999,0.0625 -0.3125,-0.25 0.1875,-0.437499 z m 28.749948,0.499999 0.687499,0.1875 -0.3125,0.874998 -0.624998,-0.0625 -0.125,-0.499999 0.374999,-0.499999 z m 3.499994,0.0625 0.687499,0.1875 -0.3125,0.874998 -0.624999,0 -0.124999,-0.562499 0.374999,-0.499999 z m -1.374998,0.874998 1.062498,0.25 -0.312499,0.749999 0.874998,0.187499 -0.312499,0.874999 0.312499,0.0625 -0.499999,1.374997 -0.937498,0 -0.25,-0.812498 0.125,-0.125 -0.499999,0 -0.125,-0.437499 -0.499999,0 -0.249999,-0.812499 0.624999,-0.812499 0.249999,0.0625 0.437499,-0.562499 z m 23.437462,0.125 0.6875,0.1875 -0.3125,0.874998 -0.625,0 -0.125,-0.562499 0.375,-0.499999 z m -49.749914,0.0625 0.812498,0.437499 -0.0625,0.562499 -0.562499,0.125 -0.437499,-0.437499 0.25,-0.687499 z m 30.999944,0.687499 0.687499,0.125 -0.3125,0.874998 -0.562499,0 -0.187499,-0.499999 0.374999,-0.499999 z m -34.999937,0.187499 1.249998,0.624999 -0.0625,0.937499 -0.874999,0.187499 -0.687498,-0.687498 0.374999,-1.062499 z m 25.937453,0.0625 1.062498,0.25 -0.499999,1.374997 -0.937498,0 -0.1875,-0.812498 0.562499,-0.812499 z m -19.999964,1.124998 1.312498,0.624999 -0.125,0.937498 -0.812498,0.125 -0.749999,-0.624999 0.374999,-1.062498 z m 62.874891,1.687497 0.8125,0.499999 -0.125,0.562499 -0.5625,0.0625 -0.4375,-0.499999 0.3125,-0.624999 z m -2.375,2.87499496 0.75,0.499999 -0.125,0.56249904 -0.5,0.0625 -0.4375,-0.49999905 0.3125,-0.62499899 z m 1.75,0.81249899 0.8125,0.49999905 0.125,-0.3125 1.1875,0.812499 -0.1875,0.874998 -0.875,0.0625 -0.0625,-0.0625 -0.125,0.437499 -0.4375,0.0625 -0.125,0.4375 -0.8125,0.0625 -0.6875,-0.749998 0.125,-0.25 -0.5,-0.562499 0.5,-0.999998 0.6875,0.499999 0.375,-0.81249805 z m -6.87499,0.37499905 0.5,0.374999 -0.125,0.375 -0.3125,0 -0.25,-0.3125 0.1875,-0.437499 z m -34.499938,0.624999 0.562499,0.125 -0.25,0.749998 -0.499999,-0.0625 -0.125,-0.374999 0.3125,-0.437499 z m 38.812438,1.562497 0.74999,0.499999 -0.125,0.624999 -0.56249,0 -0.375,-0.437499 0.3125,-0.687499 z m -4.0625,0.437499 1.1875,0.749999 -0.1875,0.937498 -0.875,0.0625 -0.625,-0.749999 0.5,-0.999998 z m 5.74999,1.874997 1.1875,0.749998 -0.1875,0.937499 -0.8125,0 -0.6875,-0.687499 0.5,-0.999998 z m -56.999899,11.1249822 0.937499,0 0.249999,0.75 -0.0625,0.125 0.4375,0 0.124999,0.4375 0.562499,0 0.25,0.81249 -0.562499,0.75 -0.25,-0.0625 -0.437499,0.625 -1.124998,-0.1875 0.3125,-0.8125 -0.874999,-0.125 0.3125,-0.87499 -0.3125,-0.0625 0.437499,-1.375 z m -0.874998,0.3125 0.1875,0.4375 -0.3125,0.4375 -0.562499,-0.125 0.25,-0.6875 0.437499,-0.0625 z m 41.749924,0.1875 0.4375,0.125 -0.1875,0.5625 -0.4375,0 -0.0625,-0.375 0.25,-0.3125 z m -3.124994,0.6875 1.062498,0.25 -0.499999,1.31249 -0.937498,0 -0.1875,-0.8125 0.562499,-0.74999 z m -41.062426,0.5 0.1875,0.56249 -0.374999,0.5 -0.687499,-0.125 0.312499,-0.87499 0.562499,-0.0625 z m 6.937488,1.56249 0.125,0.5625 -0.3125,0.5 -0.687499,-0.1875 0.25,-0.8125 0.624999,-0.0625 z m -4.124993,0.0625 0.624999,0 0.125,0.5 -0.374999,0.5 -0.687499,-0.125 0.312499,-0.875 z m 39.937428,1.8125 0.687497,0.1875 -0.312497,0.875 -0.624999,0 -0.125,-0.5625 0.374999,-0.5 z m 3.499997,0.125 0.6875,0.125 -0.3125,0.875 -0.625,0 -0.125,-0.5 0.375,-0.5 z m -1.375,0.8125 1.0625,0.25 -0.25,0.75 0.8125,0.1875 -0.3125,0.87499 0.3125,0.125 -0.5,1.3125 -0.9375,0 -0.25,-0.8125 0.125,-0.125 -0.5,0 -0.125,-0.4375 -0.5,0 -0.25,-0.81249 0.625,-0.8125 0.25,0.0625 0.4375,-0.5625 z m -47.062416,0.375 0.937499,0 0.249999,0.8125 -0.0625,0.125 0.499999,-0.0625 0.125,0.49999 0.499999,0 0.25,0.75 -0.562499,0.8125 -0.25,-0.0625 -0.437499,0.625 -1.062498,-0.25 0.249999,-0.75 -0.874998,-0.1875 0.312499,-0.875 -0.312499,-0.0625 0.437499,-1.37499 z m 51.749906,0.5 0.6875,0.125 -0.3125,0.87499 -0.5625,0 -0.1875,-0.5 0.375,-0.49999 z m -46.812415,0.125 0.937499,0 0.249999,0.74999 -0.562499,0.8125 -1.062498,-0.1875 0.437499,-1.37499 z m -8.812484,1.12499 0.624999,0 0.125,0.5 -0.374999,0.5 -0.687499,-0.125 0.312499,-0.875 z m 11.24998,0.125 0.374999,0 0.125,0.3125 -0.249999,0.375 -0.4375,-0.125 0.1875,-0.5625 z m -19.062465,0.1875 0.249999,0.5 -0.312499,0.25 -0.3125,-0.125 0,-0.4375 0.375,-0.1875 z m 8.562484,1 0.312499,0.8125 -0.437499,0.4375 -0.437499,-0.3125 -0.0625,-0.625 0.624999,-0.3125 z m 6.124989,0.25 0.624999,0 0.187499,0.5 -0.374999,0.5 -0.687499,-0.125 0.25,-0.875 z m -3.499994,0.0625 0.624999,0 0.125,0.5 -0.3125,0.5 -0.687498,-0.125 0.249999,-0.875 z m -6.249988,0.625 0.312499,0.875 -0.437499,0.375 -0.437499,-0.25 -0.0625,-0.625 0.624999,-0.375 z m -6.187489,0.3125 0.499999,1.3125 -0.687499,0.625 -0.749999,-0.4375 -0.0625,-1 0.999999,-0.5 z m 6.062489,1.0625 0.312499,0.75 0.749999,-0.4375 0.374999,0.87499 0.25,-0.12499 0.562499,1.31249 -0.749999,0.625 -0.687499,-0.4375 0,-0.125 -0.374999,0.3125 -0.374999,-0.25 -0.375,0.3125 -0.749998,-0.4375 -0.0625,-1 0.249999,-0.125 -0.0625,-0.74999 0.937499,-0.5 z m 69.499876,0.25 0.8125,0.4375 -0.0625,0.56249 -0.5,0.125 -0.5,-0.43749 0.25,-0.6875 z m -72.062372,0.6875 0.375,0.87499 -0.437499,0.375 -0.5,-0.25 -0.0625,-0.625 0.624999,-0.37499 z m 13.999975,0.37499 0.937498,0 0.25,0.75 -0.562499,0.8125 -1.062498,-0.25 0.437499,-1.3125 z m 53.374907,0.3125 0.1875,0.5625 -0.25,0.25 -0.3125,-0.1875 -0.0625,-0.4375 0.4375,-0.1875 z m 1.8125,0 0.1875,0.5625 -0.25,0.25 -0.3125,-0.1875 -0.0625,-0.4375 0.4375,-0.1875 z m -57.874902,1.375 0.374999,0 0.125,0.3125 -0.25,0.3125 -0.437499,-0.0625 0.1875,-0.5625 z m 58.749902,0.5 0.81249,0.375 -0.0625,0.5625 -0.49999,0.125 -0.5,-0.4375 0.25,-0.625 z m -69.937382,0.25 0.499999,1.375 -0.687498,0.625 -0.749999,-0.4375 -0.0625,-1 0.999998,-0.5625 z m 65.937382,0.125 0.5625,1.3125 -0.6875,0.625 -0.3125,-0.1875 0,0.375 -0.375003,0.0625 -0.25,-0.25 0.125,-0.4375 0.0625,0 -0.0625,-1 0.937503,-0.5 z m 1.8125,0 0.5625,1.3125 -0.75,0.625 -0.6875,-0.4375 -0.0625,-1 0.9375,-0.5 z m -70.124877,1.25 0.249999,0.5625 -0.312499,0.25 -0.3125,-0.1875 0,-0.375 0.375,-0.25 z m 71.874877,0.75 0.3125,0.87499 -0.25,0.1875 0.81249,0.4375 -0.0625,0.562503 -0.49999,0.125 -0.4375,-0.437503 0.1875,-0.625 -0.1875,0.125 -0.4375,-0.25 -0.0625,-0.62499 0.625,-0.375 z m -63.312393,0.3125 0.312499,0.81249 -0.437499,0.4375 -0.437499,-0.3125 -0.0625,-0.62499 0.624999,-0.3125 z m -3.624993,0.93749 0.312499,0.875003 -0.437499,0.37499 -0.437499,-0.25 -0.0625,-0.624993 0.624999,-0.375 z m -6.187489,0.25 0.499999,1.374993 -0.687499,0.625 -0.749999,-0.4375 -0.0625,-0.99999 0.999999,-0.562503 z m 69.249875,0.500003 1.25,0.62499 -0.0625,0.9375 -0.8125,0.1875 -0.750003,-0.6875 0.375003,-1.06249 z m -63.187386,0.56249 0.312499,0.8125 0.749999,-0.4375 0.374999,0.8125 0.25,-0.125 0.562499,1.375 -0.749999,0.625 -0.687499,-0.5 0,-0.125 -0.374999,0.3125 -0.374999,-0.25 -0.375,0.375 -0.749998,-0.4375 -0.0625,-1 0.249999,-0.125 -0.0625,-0.75 0.937499,-0.5625 z m 67.124886,0.3125 0.3125,0.75 0.56249,0.0625 0,-0.3125 0.9375,-0.5 0.125,0.3125 0.0625,-0.125 1.3125,0.625 -0.125,0.9375 -0.8125,0.1875 -0.3125,-0.3125 -0.4375,0.3125 -0.5625,-0.375 -0.1875,0.125 -0.49999,-0.1875 -0.5625,0.4375 -0.6875,-0.4375 -0.0625,-1 0.9375,-0.5 z m -64.374891,0.25 0.249999,0.6875 -0.374999,0.375 -0.374999,-0.25 0,-0.5 0.499999,-0.3125 z m -5.312491,0.4375 0.375,0.875 -0.437499,0.375 -0.5,-0.3125 -0.0625,-0.625 0.624999,-0.3125 z m 67.374882,0.6875 0.1875,0.5 -0.25,0.25 -0.3125,-0.1875 -0.0625,-0.375 0.4375,-0.1875 z m 3.56249,1.4375 0.5,0.25 0,0.375 -0.375,0.0625 -0.3125,-0.25 0.1875,-0.4375 z m 1.3125,0.5 0.375,0.87499 0.75,0.125 0.1875,0.875 -0.1875,0.125 0.1875,0.5625 0.3125,-0.125 0.5,1.3125 -0.6875,0.625 -0.6875,-0.4375 0,-0.1875 -0.375,0.3125 -0.375,-0.25 -0.4375,0.375 -0.6875,-0.4375 0,-0.1875 -0.1875,-0.0625 0,-0.25 -0.68749,-0.3125 0,-1.125 0.81249,0.0625 0,-0.8125 0.875,0.0625 -0.25,-0.125 0,-0.625 0.5625,-0.37499 z m -72.124872,0.1875 0.499999,1.31249 -0.687498,0.625 -0.749999,-0.4375 -0.0625,-0.9375 0.999998,-0.56249 z m 65.937382,0.12499 0.5625,1.3125 -0.6875,0.625 -0.750003,-0.4375 -0.0625,-1 0.937503,-0.5 z m 3.0625,0.8125 0.875,0.0625 0.125,0.625 -0.4375,0.25 -0.5625,-0.25 0,-0.6875 z m 5.81249,0.75 0.25,0.75 -0.375,0.3125 -0.375,-0.25 -0.0625,-0.5 0.5625,-0.3125 z m -5.31249,0.4375 0.3125,0.875 -0.4375,0.375 -0.4375,-0.25 -0.0625,-0.625 0.625,-0.375 z m -4.625003,2.1875 0.625003,0.0625 0.0625,0.375 -0.312503,0.1875 -0.3125,-0.1875 -0.0625,-0.4375 z m 4.875003,0 0.93749,0.125 0.125,0.5625 -0.5,0.25 -0.56249,-0.1875 0,-0.75 z m -64.562391,0.9375 0.249999,0.68749 -0.374999,0.3125 -0.374999,-0.1875 0,-0.56249 0.499999,-0.25 z"
         id="path3036"
         inkscape:connector-curvature="0" />
    </g>
  </g>
</svg>
