<?xml version="1.0" encoding="UTF-8" standalone="no"?>
<!-- Created with Inkscape (http://www.inkscape.org/) -->

<svg
   xmlns:dc="http://purl.org/dc/elements/1.1/"
   xmlns:cc="http://creativecommons.org/ns#"
   xmlns:rdf="http://www.w3.org/1999/02/22-rdf-syntax-ns#"
   xmlns:svg="http://www.w3.org/2000/svg"
   xmlns="http://www.w3.org/2000/svg"
   xmlns:xlink="http://www.w3.org/1999/xlink"
   xmlns:sodipodi="http://sodipodi.sourceforge.net/DTD/sodipodi-0.dtd"
   xmlns:inkscape="http://www.inkscape.org/namespaces/inkscape"
   version="1.1"
   width="128"
   height="128"
   id="svg3489"
   inkscape:version="0.91 r13725"
   sodipodi:docname="steam.svg">
  <sodipodi:namedview
     pagecolor="#ffffff"
     bordercolor="#666666"
     borderopacity="1"
     objecttolerance="10"
     gridtolerance="10"
     guidetolerance="10"
     inkscape:pageopacity="0"
     inkscape:pageshadow="2"
     inkscape:window-width="1366"
     inkscape:window-height="745"
     id="namedview154"
     showgrid="true"
     inkscape:zoom="2"
     inkscape:cx="44.37578"
     inkscape:cy="85.134389"
     inkscape:window-x="1672"
     inkscape:window-y="274"
     inkscape:window-maximized="1"
     inkscape:current-layer="svg3489" />
  <defs
     id="defs3491">
    <linearGradient
       id="linearGradient4806">
      <stop
         id="stop4808"
         style="stop-color:#ffffff;stop-opacity:1"
         offset="0" />
      <stop
         id="stop4810"
         style="stop-color:#ffffff;stop-opacity:0.23529412"
         offset="0.42447853" />
      <stop
         id="stop4812"
         style="stop-color:#ffffff;stop-opacity:0.15686275"
         offset="0.82089913" />
      <stop
         id="stop4814"
         style="stop-color:#ffffff;stop-opacity:0.39215687"
         offset="1" />
    </linearGradient>
    <linearGradient
       id="linearGradient3820-7-2">
      <stop
         id="stop3822-2-6"
         style="stop-color:#3d3d3d;stop-opacity:1"
         offset="0" />
      <stop
         id="stop3864-8-7"
         style="stop-color:#686868;stop-opacity:0.49803922"
         offset="0.5" />
      <stop
         id="stop3824-1-2"
         style="stop-color:#686868;stop-opacity:0"
         offset="1" />
    </linearGradient>
    <linearGradient
       inkscape:collect="always"
       xlink:href="#linearGradient3979"
       id="linearGradient4030"
       gradientUnits="userSpaceOnUse"
       x1="22.125"
       y1="14.125"
       x2="22.0625"
       y2="34.625" />
    <linearGradient
       id="linearGradient3979">
      <stop
         style="stop-color:#efefef;stop-opacity:1;"
         offset="0"
         id="stop3981" />
      <stop
         style="stop-color:#dee2eb;stop-opacity:1;"
         offset="1"
         id="stop3983" />
    </linearGradient>
    <linearGradient
       inkscape:collect="always"
       xlink:href="#linearGradient3979"
       id="linearGradient4024"
       gradientUnits="userSpaceOnUse"
       x1="22.125"
       y1="14.125"
       x2="22.0625"
       y2="34.625" />
    <linearGradient
       inkscape:collect="always"
       xlink:href="#linearGradient3979"
       id="linearGradient4026"
       gradientUnits="userSpaceOnUse"
       x1="22.125"
       y1="14.125"
       x2="22.0625"
       y2="34.625" />
    <linearGradient
       y2="34.625"
       x2="22.0625"
       y1="14.125"
       x1="22.125"
       gradientUnits="userSpaceOnUse"
       id="linearGradient4085"
       xlink:href="#linearGradient3979"
       inkscape:collect="always" />
    <linearGradient
       inkscape:collect="always"
       xlink:href="#linearGradient4806"
       id="linearGradient3176"
       gradientUnits="userSpaceOnUse"
       gradientTransform="matrix(2.3268746,0,0,2.3268746,-135.94475,-32.842783)"
       x1="71.204407"
       y1="15.369057"
       x2="71.204407"
       y2="40.495617" />
    <radialGradient
       inkscape:collect="always"
       xlink:href="#radialGradient3093-0-3-6-4"
       id="radialGradient3180"
       gradientUnits="userSpaceOnUse"
       gradientTransform="matrix(0,4.1566535,-5.4867089,0,53.892518,-97.439545)"
       cx="23.896"
       cy="3.99"
       fx="23.896"
       fy="3.99"
       r="20.396999" />
    <radialGradient
       inkscape:collect="always"
       xlink:href="#linearGradient3820-7-2"
       id="radialGradient3184"
       gradientUnits="userSpaceOnUse"
       gradientTransform="matrix(0.38235362,0,0,0.11948554,-5.913044,34.255311)"
       cx="99.157013"
       cy="186.17059"
       fx="99.157013"
       fy="186.17059"
       r="62.769119" />
    <radialGradient
       cx="23.896"
       cy="3.99"
       r="20.396999"
       id="radialGradient3093-0-3-6-4"
       gradientUnits="userSpaceOnUse"
       gradientTransform="matrix(0,1.2316483,-1.625754,0,18.486966,-28.721977)">
      <stop
         id="stop3244-9-33-7-0-1"
         style="stop-color:#05051e;stop-opacity:1;"
         offset="0" />
      <stop
         id="stop3246-3-5-0-8-9"
         style="stop-color:#112651;stop-opacity:1;"
         offset="0.26238" />
      <stop
         id="stop3248-1-7-8-8-3"
         style="stop-color:#0a90ef;stop-opacity:1;"
         offset="0.66093999" />
      <stop
         id="stop3250-9-3-0-5-3"
         style="stop-color:#1485ff;stop-opacity:1;"
         offset="1" />
    </radialGradient>
  </defs>
  <metadata
     id="metadata3494">
    <rdf:RDF>
      <cc:Work
         rdf:about="">
        <dc:format>image/svg+xml</dc:format>
        <dc:type
           rdf:resource="http://purl.org/dc/dcmitype/StillImage" />
        <dc:title />
      </cc:Work>
    </rdf:RDF>
  </metadata>
  <g
     id="g3921">
    <g
       style="stroke-width:0.5;stroke-miterlimit:4;stroke-dasharray:none"
       transform="matrix(2,0,0,2,0,-0.001529)"
       id="g3964">
      <g
         style="stroke-width:0.5;stroke-miterlimit:4;stroke-dasharray:none"
         id="g3954">
        <path
           d="m 55.999998,56.499998 a 24,7.4999998 0 1 1 -47.999999,0 24,7.4999998 0 1 1 47.999999,0 z"
           id="path3818-0"
           style="fill:url(#radialGradient3184);fill-opacity:1;stroke:none;stroke-width:0.5;stroke-miterlimit:4;stroke-dasharray:none"
           inkscape:connector-curvature="0" />
        <path
           d="m 32,2.4999994 c -16.277082,0 -29.5,13.2229146 -29.5,29.4999976 0,16.277083 13.222918,29.500005 29.5,29.5 16.27708,0 29.50001,-13.222917 29.5,-29.5 C 61.5,15.722914 48.27708,2.4999994 32,2.4999994 z"
           id="path2555-7"
           style="color:#000000;fill:url(#radialGradient3180);fill-opacity:1.0;fill-rule:nonzero;stroke:none;stroke-width:0.50000000000000000;marker:none;visibility:visible;display:inline;overflow:visible;enable-background:accumulate;stroke-miterlimit:4;stroke-dasharray:none"
           inkscape:connector-curvature="0" />
        <path
           d="m 32,2.499999 c -16.277082,0 -29.5,13.222915 -29.5,29.499998 0,16.277083 13.222918,29.500005 29.5,29.5 16.27708,0 29.50001,-13.222917 29.5,-29.5 C 61.5,15.722914 48.27708,2.499999 32,2.499999 z"
           id="path2555-7-1"
           style="opacity:0.69999999999999996;color:#000000;fill:none;stroke:#0b1728;stroke-width:0.50000000000000000;stroke-linecap:round;stroke-linejoin:round;stroke-miterlimit:4;stroke-opacity:1;stroke-dasharray:none;stroke-dashoffset:0;marker:none;visibility:visible;display:inline;overflow:visible;enable-background:accumulate"
           inkscape:connector-curvature="0" />
        <path
           sodipodi:nodetypes="sssss"
           d="m 61.00001,31.999999 c 0,16.22449 -13.2599,28.999079 -29.00002,28.999079 -16.193224,0 -29.008224,-13.258964 -29.008224,-28.999079 0,-16.224491 13.299375,-29.0056685 29.039474,-29.0056685 15.74012,0 28.96877,13.2655525 28.96877,29.0056685 z"
           id="path3019"
           style="opacity:0.3;color:#000000;fill:none;stroke:url(#linearGradient3176);stroke-width:0.5;stroke-linecap:round;stroke-linejoin:round;stroke-miterlimit:4;stroke-opacity:1;stroke-dasharray:none;stroke-dashoffset:0;marker:none;visibility:visible;display:inline;overflow:visible;enable-background:accumulate"
           inkscape:connector-curvature="0" />
        <g
           style="fill:url(#linearGradient4030);fill-opacity:1;stroke-width:0.34309896;stroke-miterlimit:4;stroke-dasharray:none"
           id="g3944"
           transform="matrix(1.4573055,0,0,1.4573055,-3.280702,-2.975332)">
          <path
             inkscape:connector-curvature="0"
             style="fill:url(#linearGradient4024);fill-opacity:1;stroke:none;stroke-width:0.34309896;stroke-miterlimit:4;stroke-dasharray:none"
             d="m 30.6875,13.5 c -2.752794,0 -5.14729,1.521242 -6.375,3.78125 0,0 -1.988811,3.995598 -3.5,5.59375 -0.686171,0.725657 -1.88939,1.474148 -2.65625,1.9375 L 21,26.5 c 0.138987,0.08213 0.254669,0.18199 0.375,0.28125 0.0289,0.02384 0.06596,0.03777 0.09375,0.0625 0.877734,0.60943 1.46875,1.631739 1.46875,2.78125 0,1.863961 -1.511039,3.375 -3.375,3.375 -1.002085,0 -1.881873,-0.462745 -2.5,-1.15625 L 14.78125,30.5 c 0.41772,2.26808 2.392344,4 4.78125,4 1.185861,0 2.248614,-0.452351 3.09375,-1.15625 L 22.6875,33.375 23,33.0625 c 0,0 2.350514,-2.907431 3.9375,-3.8125 1.472945,-0.84003 4.90625,-1.34375 4.90625,-1.34375 0.583614,-0.09298 1.127866,-0.245262 1.65625,-0.46875 l 0.25,-0.0625 -0.03125,-0.03125 c 2.489254,-1.148133 4.21875,-3.672578 4.21875,-6.59375 0,-4.004064 -3.245936,-7.25 -7.25,-7.25 z m 0,2.25 c 2.761424,0 5,2.238576 5,5 0,2.761424 -2.238576,5 -5,5 -2.761424,0 -5,-2.238576 -5,-5 0,-2.761424 2.238576,-5 5,-5 z"
             id="path3883" />
          <path
             d="m 37.375,23.375 a 7.25,7.25 0 0 1 -7.25,7.25 7.25,7.25 0 0 1 -7.25,-7.25 7.25,7.25 0 0 1 7.25,-7.25 7.25,7.25 0 0 1 7.25,7.25 z"
             sodipodi:ry="7.25"
             sodipodi:rx="7.25"
             sodipodi:cy="23.375"
             sodipodi:cx="30.125"
             id="path3889"
             style="fill:url(#linearGradient4026);fill-opacity:1;stroke:none;stroke-width:0.61229969;stroke-miterlimit:4;stroke-dasharray:none"
             sodipodi:type="arc"
             transform="matrix(0.56034482,0,0,0.56034482,13.807306,7.65194)" />
          <path
             style="color:#000000;fill:url(#linearGradient4085);fill-opacity:1;stroke:none;stroke-width:0.34309897;marker:none;visibility:visible;display:inline;overflow:visible;enable-background:accumulate"
             d="m 5.4181681,17.799091 c -0.5293507,1.903217 -0.9134324,3.893067 -0.9375,5.84375 L 17.96875,31.8125 c 1.378913,0.814785 3.122413,0.389038 3.90625,-0.9375 0.783837,-1.326538 0.316413,-3.028965 -1.0625,-3.84375 L 5.9494181,18.049091 c -0.1723642,-0.101848 -0.3501437,-0.185879 -0.53125,-0.25 z"
             id="path3931"
             inkscape:connector-curvature="0"
             sodipodi:nodetypes="cccsccc" />
        </g>
      </g>
    </g>
  </g>
</svg>
