<?xml version="1.0" encoding="UTF-8" standalone="no"?>
<!-- Created with Inkscape (http://www.inkscape.org/) -->
<svg id="svg3049" xmlns:rdf="http://www.w3.org/1999/02/22-rdf-syntax-ns#" xmlns="http://www.w3.org/2000/svg" height="128" width="128" version="1.1" xmlns:cc="http://creativecommons.org/ns#" xmlns:xlink="http://www.w3.org/1999/xlink" xmlns:dc="http://purl.org/dc/elements/1.1/">
 <defs id="defs3051">
  <radialGradient id="radialGradient4093" gradientUnits="userSpaceOnUse" cy="43.5" cx="4.993" gradientTransform="matrix(2.003784,0,0,1.4,27.98813,-17.4)" r="2.5">
   <stop id="stop2883-0" stop-color="#181818" offset="0"/>
   <stop id="stop2885-5" stop-color="#181818" stop-opacity="0" offset="1"/>
  </radialGradient>
  <radialGradient id="radialGradient4095" gradientUnits="userSpaceOnUse" cy="43.5" cx="4.993" gradientTransform="matrix(2.003784,0,0,1.4,-20.01187,-104.4)" r="2.5">
   <stop id="stop2889-9" stop-color="#181818" offset="0"/>
   <stop id="stop2891-4" stop-color="#181818" stop-opacity="0" offset="1"/>
  </radialGradient>
  <linearGradient id="linearGradient4097" y2="39.999" gradientUnits="userSpaceOnUse" x2="25.058" y1="47.028" x1="25.058">
   <stop id="stop2895-0" stop-color="#181818" stop-opacity="0" offset="0"/>
   <stop id="stop2897-2" stop-color="#181818" offset="0.5"/>
   <stop id="stop2899-6" stop-color="#181818" stop-opacity="0" offset="1"/>
  </linearGradient>
  <linearGradient id="linearGradient3035" y2="43" gradientUnits="userSpaceOnUse" x2="24" gradientTransform="matrix(2.7297298,0,0,2.7297298,-1.5135175,1.488319)" y1="5" x1="24">
   <stop id="stop3926" stop-color="#FFF" offset="0"/>
   <stop id="stop3928" stop-color="#FFF" stop-opacity="0.23529412" offset="0.063165"/>
   <stop id="stop3930" stop-color="#FFF" stop-opacity="0.15686275" offset="0.95056"/>
   <stop id="stop3932" stop-color="#FFF" stop-opacity="0.39215687" offset="1"/>
  </linearGradient>
  <radialGradient id="radialGradient3038" fx="6.2002" gradientUnits="userSpaceOnUse" cy="9.9571" cx="6.7304" gradientTransform="matrix(0,25.083279,-30.794253,0,372.81656,-208.08999)" r="12.672">
   <stop id="stop3818" stop-color="#ff9994" offset="0"/>
   <stop id="stop3820" stop-color="#fd4d4d" offset="0.26238"/>
   <stop id="stop3822" stop-color="#e20e0e" offset="0.70495"/>
   <stop id="stop3824" stop-color="#ac301f" offset="1"/>
  </radialGradient>
  <radialGradient id="radialGradient3046" gradientUnits="userSpaceOnUse" cy="93.468" cx="-4.0288" gradientTransform="matrix(1.5563924,0,0,0.16978827,70.270355,102.1321)" r="35.338">
   <stop id="stop3813" stop-color="#000" offset="0"/>
   <stop id="stop3815" stop-color="#000" stop-opacity="0" offset="1"/>
  </radialGradient>
  <linearGradient id="linearGradient4326" y2="100.71" gradientUnits="userSpaceOnUse" x2="71.246" gradientTransform="translate(0.06779024,-0.64644661)" y1="29.909" x1="71.123">
   <stop id="stop4336" stop-color="#323232" offset="0"/>
   <stop id="stop4338" stop-color="#191919" offset="1"/>
  </linearGradient>
 </defs>
 <metadata id="metadata3054">
  <rdf:RDF>
   <cc:Work rdf:about="">
    <dc:format>image/svg+xml</dc:format>
    <dc:type rdf:resource="http://purl.org/dc/dcmitype/StillImage"/>
    <dc:title/>
   </cc:Work>
  </rdf:RDF>
 </metadata>
 <path id="path3041" opacity="0.2" style="enable-background:accumulate;color:#000000;" d="m119,118a55,6,0,0,1,-110,0,55,6,0,1,1,110,0z" fill-rule="nonzero" fill="url(#radialGradient3046)"/>
 <g id="g2036" transform="matrix(2.6999989,0,0,0.55555607,-0.8000075,94.890689)">
  <g id="g3712" opacity="0.4" transform="matrix(1.052632,0,0,1.285713,-1.263158,-13.42854)">
   <rect id="rect2801" height="7" width="5" y="40" x="38" fill="url(#radialGradient4093)"/>
   <rect id="rect3696" transform="scale(-1,-1)" height="7" width="5" y="-47" x="-10" fill="url(#radialGradient4095)"/>
   <rect id="rect3700" height="7" width="28" y="40" x="10" fill="url(#linearGradient4097)"/>
  </g>
 </g>
 <rect id="rect5505-21-3" style="enable-background:accumulate;color:#000000;" fill-rule="nonzero" rx="6.0545" ry="6.0545" height="103" width="103" y="15.502" x="12.5" fill="url(#radialGradient3038)"/>
 <rect id="rect6741-7" opacity="0.5" stroke-linejoin="round" stroke-dasharray="none" stroke-dashoffset="0" rx="5" ry="5" height="101" width="101" stroke="url(#linearGradient3035)" stroke-linecap="round" stroke-miterlimit="4" y="16.502" x="13.5" stroke-width="1" fill="none"/>
 <rect id="rect5505-21-3-1" opacity="0.4" stroke-linejoin="round" style="enable-background:accumulate;color:#000000;" stroke-dasharray="none" stroke-dashoffset="0" rx="6.0545" ry="6.0545" height="103" width="103" stroke="#640000" stroke-linecap="round" stroke-miterlimit="4" y="15.502" x="12.5" stroke-width="1" fill="none"/>
 <path id="path3039" opacity="0.14999999999999999" d="M96.749,38.754c-12.876,9.41-31.667,1.221-47.635-2.766-5.479-1.368-11.012-1.237-13.935,0.643-18.412,11.842-3.2624,32.331,19.294,28.462,1.6365-0.09097-8.2101,10.06-4.0158,24.234,6.1037,20.627,33.685,14.3,38.67-2.1757,1.6384-5.4151,2.0436-21.339-13.696-14.979-3.1275,1.2638-9.5199,6.4068-11.468,13.964-0.82735,3.2085,3.185,2.9032,3.9357,1.6933,13.366-21.543,19.374-10.867,14.926-1.06-4.123,9.092-21.23,19.531-25.54,0.28-1.554-6.938,7.017-23.07,7.462-23.142,5.7947-0.94527,10.833-2.1332,13.92-2.5858,2.397-1.0705,2.2836-4.495-1.5238-4.2136-2.8315,0.47784-5.8421,1.1664-8.9726,1.84-0.7717,0.16605,2.7538-3.6732,3.6042-5.2092,1.3943-2.5184,0.96692-3.4588-1.9924-2.9724-10.579,1.739-10.754,9.881-12.384,10.059-7.312,0.8-15.943,0.582-21.624-2.852-5.682-3.435-5.267-14.071,2.154-15.342,6.9648-1.1924,39.312,15.859,61.568,0.24627,2.3289-1.6337,0.28696-6.3407-2.7475-4.1231z" fill="#000"/>
 <path id="path4313" opacity="0.29999999999999999" fill="#000" d="M96.749,37.754c-12.876,9.41-31.667,1.221-47.635-2.766-5.479-1.368-11.012-1.237-13.935,0.643-18.412,11.842-3.2624,32.331,19.294,28.462,1.6365-0.09097-8.2101,10.06-4.0158,24.234,6.1037,20.627,33.685,14.3,38.67-2.1757,1.6384-5.4151,2.0436-21.339-13.696-14.979-3.1275,1.2638-9.5199,6.4068-11.468,13.964-0.82735,3.2085,3.185,2.9032,3.9357,1.6933,13.366-21.543,19.374-10.867,14.926-1.06-4.123,9.092-21.23,19.531-25.54,0.28-1.554-6.938,7.017-23.07,7.462-23.142,5.7947-0.94527,10.833-2.1332,13.92-2.5858,2.397-1.0705,2.2836-4.495-1.5238-4.2136-2.8315,0.47784-5.8421,1.1664-8.9726,1.84-0.7717,0.16605,2.7538-3.6732,3.6042-5.2092,1.3943-2.5184,0.96692-3.4588-1.9924-2.9724-10.579,1.739-10.754,9.881-12.384,10.059-7.312,0.8-15.943,0.582-21.624-2.852-5.682-3.435-5.267-14.071,2.154-15.342,6.9648-1.1924,39.312,15.859,61.568,0.24627,2.3289-1.6337,0.28696-6.3407-2.7475-4.1231z"/>
 <path id="path4324" d="M96.749,36.754c-12.876,9.41-31.667,1.221-47.635-2.766-5.479-1.368-11.012-1.237-13.935,0.643-18.412,11.842-3.2624,32.331,19.294,28.462,1.6365-0.09097-8.2101,10.06-4.0158,24.234,6.1037,20.627,33.685,14.3,38.67-2.1757,1.6384-5.4151,2.0436-21.339-13.696-14.979-3.1275,1.2638-9.5199,6.4068-11.468,13.964-0.82735,3.2085,3.185,2.9032,3.9357,1.6933,13.366-21.543,19.374-10.867,14.926-1.06-4.123,9.092-21.23,19.531-25.54,0.28-1.554-6.938,7.017-23.07,7.462-23.142,5.7947-0.94527,10.833-2.1332,13.92-2.5858,2.397-1.0705,2.2836-4.495-1.5238-4.2136-2.8315,0.47784-5.8421,1.1664-8.9726,1.84-0.7717,0.16605,2.7538-3.6732,3.6042-5.2092,1.3943-2.5184,0.96692-3.4588-1.9924-2.9724-10.579,1.739-10.754,9.881-12.384,10.059-7.312,0.8-15.943,0.582-21.624-2.852-5.682-3.435-5.267-14.071,2.154-15.342,6.9648-1.1924,39.312,15.859,61.568,0.24627,2.3289-1.6337,0.28696-6.3407-2.7475-4.1231z" fill="url(#linearGradient4326)"/>
</svg>
