<?xml version="1.0" encoding="UTF-8" standalone="no"?>
<svg xmlns:rdf="http://www.w3.org/1999/02/22-rdf-syntax-ns#" xmlns="http://www.w3.org/2000/svg" height="128" width="128" version="1.1" xmlns:cc="http://creativecommons.org/ns#" xmlns:xlink="http://www.w3.org/1999/xlink" xmlns:dc="http://purl.org/dc/elements/1.1/">
 <defs>
  <linearGradient id="l" y2="44" gradientUnits="userSpaceOnUse" x2="16.143" gradientTransform="matrix(2.5386 0 0 1.9745 3.0734 -42.388)" y1="4" x1="16.143">
   <stop stop-color="#fff" offset="0"/>
   <stop stop-color="#fff" stop-opacity="0" offset="1"/>
  </linearGradient>
  <linearGradient id="k" y2="24.628" gradientUnits="userSpaceOnUse" x2="20.055" gradientTransform="matrix(2.5687 0 0 2.7869 2.351 -60.634)" y1="15.298" x1="16.626">
   <stop stop-color="#fff" offset="0"/>
   <stop stop-color="#fff" stop-opacity="0" offset="1"/>
  </linearGradient>
  <linearGradient id="j" y2="47.279" gradientUnits="userSpaceOnUse" x2="12.213" gradientTransform="matrix(2.5977 0 0 2.4848 1.6531 -52.136)" y1="2.9165" x1="12.579">
   <stop stop-color="#fff" offset="0"/>
   <stop stop-color="#fff" stop-opacity="0" offset="1"/>
  </linearGradient>
  <linearGradient id="i" y2="33.296" gradientUnits="userSpaceOnUse" x2="23.071" gradientTransform="matrix(2.6175 0 0 2.643 1.1955 -47.751)" y1="36.047" x1="23.071">
   <stop stop-color="#fff" offset="0"/>
   <stop stop-color="#fff" stop-opacity="0" offset="1"/>
  </linearGradient>
  <radialGradient id="b" gradientUnits="userSpaceOnUse" cy="8.4498" cx="7.4957" gradientTransform="matrix(0 4.6588 -7.9722 -1.9658e-7 131.36 -68.244)" r="20">
   <stop stop-color="#4a5653" offset="0"/>
   <stop stop-color="#141414" offset="1"/>
  </radialGradient>
  <linearGradient id="f" y2="44" gradientUnits="userSpaceOnUse" x2="16.143" gradientTransform="matrix(2.5899 0 0 2.0258 1.8426 -43.619)" y1="4" x1="16.143">
   <stop stop-color="#323232" offset="0"/>
   <stop offset="1"/>
  </linearGradient>
  <linearGradient id="h" y2="43.865" gradientUnits="userSpaceOnUse" x2="24" gradientTransform="matrix(2.6445 0 0 2.6758 .53145 -64.57)" y1="7.96" x1="24">
   <stop stop-color="#f0f0f0" offset="0"/>
   <stop stop-color="#d7d7d8" offset=".085525"/>
   <stop stop-color="#b2b2b3" offset=".92166"/>
   <stop stop-color="#979798" offset="1"/>
  </linearGradient>
  <linearGradient id="g" y2="2.8765" gradientUnits="userSpaceOnUse" x2="10.014" gradientTransform="matrix(2.532 0 0 2.4175 3.232 -53.049)" y1="44.96" x1="10.014">
   <stop stop-color="#595959" offset="0"/>
   <stop stop-color="#b3b3b3" offset="1"/>
  </linearGradient>
  <radialGradient id="d" xlink:href="#a" gradientUnits="userSpaceOnUse" cy="486.65" cx="605.71" gradientTransform="matrix(-.11245 0 0 .057647 81.771 24.864)" r="117.14"/>
  <linearGradient id="a">
   <stop offset="0"/>
   <stop stop-opacity="0" offset="1"/>
  </linearGradient>
  <radialGradient id="c" xlink:href="#a" gradientUnits="userSpaceOnUse" cy="486.65" cx="605.71" gradientTransform="matrix(.11245 0 0 .057647 46.229 24.864)" r="117.14"/>
  <linearGradient id="e" y2="609.51" gradientUnits="userSpaceOnUse" x2="302.86" gradientTransform="matrix(.20710 0 0 .057647 -10.852 24.864)" y1="366.65" x1="302.86">
   <stop stop-opacity="0" offset="0"/>
   <stop offset=".5"/>
   <stop stop-opacity="0" offset="1"/>
  </linearGradient>
 </defs>
 <g transform="translate(0,64)">
  <rect opacity=".40206" height="14" width="100" y="46" x="14" fill="url(#e)"/>
  <path opacity=".40206" d="m114 46v13.999c5.7911 0.0263 14-3.1365 14-7.0005s-6.4624-6.9987-14-6.9987z" fill="url(#c)"/>
  <path opacity=".40206" d="m14 46v13.999c-5.7911 0.0263-14-3.1365-14-7.0005s6.4624-6.9987 14-6.9987z" fill="url(#d)"/>
  <rect stroke-linejoin="round" fill-rule="evenodd" rx="3" ry="3" height="98.998" width="119" stroke="url(#g)" stroke-linecap="round" y="-44.499" x="4.5011" stroke-width="1.0021" fill="url(#h)"/>
  <rect stroke-linejoin="round" height="79" stroke="url(#f)" stroke-linecap="round" fill="url(#b)" style="color:#000000" rx="0" ry="0" width="101" y="-34.5" x="13.5"/>
  <path opacity=".1" d="m15.5-23.5h97" stroke="#b9ffeb" stroke-linecap="square" stroke-width="1px" fill="none"/>
  <path opacity=".1" d="m15.5-14.5h97" stroke="#b9ffeb" stroke-linecap="square" stroke-width="1px" fill="none"/>
  <path opacity=".1" d="m15.5-4.5h97" stroke="#b9ffeb" stroke-linecap="square" stroke-width="1px" fill="none"/>
  <path opacity=".1" d="m15.5 5.5h97" stroke="#b9ffeb" stroke-linecap="square" stroke-width="1px" fill="none"/>
  <path opacity=".1" d="m15.5 14.5h97" stroke="#b9ffeb" stroke-linecap="square" stroke-width="1px" fill="none"/>
  <path opacity=".1" d="m15.5 24.5h97" stroke="#b9ffeb" stroke-linecap="square" stroke-width="1px" fill="none"/>
  <path opacity=".1" d="m15.5 34.5h97" stroke="#b9ffeb" stroke-linecap="square" stroke-width="1px" fill="none"/>
  <path stroke-linejoin="round" d="m15 11.81h19.6l5.6-27.241 11.2 40.862 8.4-24.517 8.4 16.345 8.4-5.4483h36.4" stroke="#91ffe0" stroke-linecap="square" stroke-width="2" fill="none"/>
  <rect opacity=".4" stroke-linejoin="round" rx="0" ry="0" height="80.998" width="103" stroke="url(#i)" stroke-linecap="round" y="-35.499" x="12.501" stroke-width="1.0021" fill="none"/>
  <rect opacity=".8" stroke-linejoin="round" rx="2" ry="2" height="96.996" width="117" stroke="url(#j)" stroke-linecap="round" y="-43.498" x="5.5019" stroke-width="1.0037" fill="none"/>
  <path opacity=".2" d="m10.619-44c-3.1037 0-5.619 2.729-5.619 6.096v44.59c0.00805 0.37512 0.15876 0.72986 0.41807 0.9781 0.25933 0.24823 0.6026 0.36729 0.94655 0.32824l115.6-19.856c0.59462-0.10173 1.0352-0.65334 1.0436-1.3063v-24.734c0-3.3673-2.5153-6.0963-5.6191-6.0963h-106.76z" fill-rule="evenodd" fill="url(#k)"/>
  <rect opacity=".1" stroke-linejoin="round" style="color:#000000" rx="0" ry="0" height="77" width="99" stroke="url(#l)" stroke-linecap="round" y="-33.5" x="14.5" fill="none"/>
  <path opacity="0.16" stroke-linejoin="round" d="m15 11.81h19.6l5.6-27.241 11.2 40.862 8.4-24.517 8.4 16.345 8.4-5.4483h36.4" stroke="#91ffe0" stroke-linecap="square" stroke-width="3" fill="none"/>
  <path opacity="0.07" stroke-linejoin="round" d="m15 11.81h19.6l5.6-27.241 11.2 40.862 8.4-24.517 8.4 16.345 8.4-5.4483h36.4" stroke="#91ffe0" stroke-linecap="square" stroke-width="4" fill="none"/>
 </g>
</svg>
