<?xml version="1.0" encoding="UTF-8" standalone="no"?>
<svg
   xmlns:dc="http://purl.org/dc/elements/1.1/"
   xmlns:cc="http://creativecommons.org/ns#"
   xmlns:rdf="http://www.w3.org/1999/02/22-rdf-syntax-ns#"
   xmlns:svg="http://www.w3.org/2000/svg"
   xmlns="http://www.w3.org/2000/svg"
   xmlns:xlink="http://www.w3.org/1999/xlink"
   version="1.1"
   id="svg4525"
   height="128"
   width="128">
  <defs
     id="defs4527">
    <linearGradient
       y2="81.978249"
       x2="68.323135"
       y1="38.827156"
       x1="68.323135"
       gradientUnits="userSpaceOnUse"
       id="linearGradient4065"
       xlink:href="#linearGradient3922" />
    <linearGradient
       id="linearGradient3922">
      <stop
         id="stop3924"
         offset="0"
         style="stop-color:#000000;stop-opacity:1;" />
      <stop
         id="stop3926"
         offset="1"
         style="stop-color:#000000;stop-opacity:0;" />
    </linearGradient>
    <linearGradient
       gradientTransform="matrix(2.6666687,0,0,2.7991166,-0.8424704,-82.11987)"
       gradientUnits="userSpaceOnUse"
       y2="42.351448"
       x2="23.184526"
       y1="4.0244036"
       x1="23.184526"
       id="linearGradient3892-8"
       xlink:href="#linearGradient3882-4" />
    <linearGradient
       id="linearGradient3882-4">
      <stop
         id="stop3884-7"
         style="stop-color:#ffffff;stop-opacity:1;"
         offset="0" />
      <stop
         offset="0.4393521"
         style="stop-color:#ffffff;stop-opacity:0.23529412;"
         id="stop3886-2" />
      <stop
         id="stop3888-4"
         style="stop-color:#ffffff;stop-opacity:0.15686275;"
         offset="0.83473867" />
      <stop
         id="stop3890-0"
         style="stop-color:#ffffff;stop-opacity:0.39215687;"
         offset="1" />
    </linearGradient>
    <radialGradient
       r="23"
       fy="28.628538"
       fx="88.940742"
       cy="28.628538"
       cx="88.940742"
       gradientTransform="matrix(0.8727907,-0.60614934,0.32165836,0.46315389,-67.838943,65.212175)"
       gradientUnits="userSpaceOnUse"
       id="radialGradient3125"
       xlink:href="#linearGradient4183" />
    <linearGradient
       id="linearGradient4183">
      <stop
         id="stop4185"
         style="stop-color:#fa9654;stop-opacity:1;"
         offset="0" />
      <stop
         id="stop4187"
         style="stop-color:#4e2002;stop-opacity:0;"
         offset="1" />
    </linearGradient>
    <radialGradient
       r="23"
       fy="4.9115634"
       fx="20.248743"
       cy="4.9115634"
       cx="20.248743"
       gradientTransform="matrix(0,4.7598855,-4.0013267,0,205.15173,119.10949)"
       gradientUnits="userSpaceOnUse"
       id="radialGradient2897"
       xlink:href="#linearGradient4189" />
    <linearGradient
       id="linearGradient4189">
      <stop
         id="stop4191"
         style="stop-color:#f0d000;stop-opacity:1"
         offset="0" />
      <stop
         id="stop4193"
         style="stop-color:#f09c18;stop-opacity:1"
         offset="0.26238" />
      <stop
         id="stop4195"
         style="stop-color:#f07018;stop-opacity:1"
         offset="0.704952" />
      <stop
         id="stop4197"
         style="stop-color:#e82818;stop-opacity:1"
         offset="1" />
    </linearGradient>
    <linearGradient
       gradientTransform="matrix(2.6887109,0,0,2.6886487,124.04271,207.45592)"
       y2="2.9999995"
       x2="18.138792"
       y1="45.21809"
       x1="18.138792"
       gradientUnits="userSpaceOnUse"
       id="linearGradient2899"
       xlink:href="#linearGradient4199" />
    <linearGradient
       id="linearGradient4199">
      <stop
         id="stop4201"
         style="stop-color:#505050;stop-opacity:1;"
         offset="0" />
      <stop
         id="stop4203"
         style="stop-color:#878787;stop-opacity:1;"
         offset="1" />
    </linearGradient>
    <radialGradient
       xlink:href="#linearGradient4205"
       id="radialGradient3150"
       gradientUnits="userSpaceOnUse"
       gradientTransform="matrix(5.7725537,0,0,2.0078422,-172.93436,305.74254)"
       cx="62.625"
       cy="4.625"
       fx="62.625"
       fy="4.625"
       r="10.625" />
    <linearGradient
       id="linearGradient4205">
      <stop
         id="stop4207"
         style="stop-color:#0a0a0a;stop-opacity:1"
         offset="0" />
      <stop
         id="stop4209"
         style="stop-color:#0a0a0a;stop-opacity:0"
         offset="1" />
    </linearGradient>
  </defs>
  <metadata
     id="metadata4530">
    <rdf:RDF>
      <cc:Work
         rdf:about="">
        <dc:format>image/svg+xml</dc:format>
        <dc:type
           rdf:resource="http://purl.org/dc/dcmitype/StillImage" />
        <dc:title></dc:title>
      </cc:Work>
    </rdf:RDF>
  </metadata>
  <g
     transform="translate(-124.57143,-208.36218)"
     id="layer1">
    <path
       d="m 249.9052,315.02883 c 0,11.78208 -27.4599,21.33335 -61.33339,21.33335 -33.87349,0 -61.33338,-9.55127 -61.33338,-21.33335 0,-11.78209 27.45989,-21.33335 61.33338,-21.33335 33.87349,0 61.33339,9.55126 61.33339,21.33335 l 0,0 z"
       id="path8836"
       style="opacity:0.3;fill:url(#radialGradient3150);fill-opacity:1;fill-rule:evenodd;stroke:none;stroke-width:0.99999988;marker:none;visibility:visible;display:inline;overflow:visible;enable-background:new" />
    <path
       d="m 180.00199,217.628 c -30.96852,4.56563 -53.88334,25.90233 -51.80128,49.00433 1.34822,14.95949 12.83034,27.27242 29.25022,33.7689 l -5.52885,21.54299 c 0,0 -0.58997,2.01686 0.25685,2.72934 0.84682,0.71249 2.88638,-0.79786 2.88638,-0.79786 l 25.85282,-18.69692 0.20961,-0.0191 c 3.74185,0.17885 7.50105,0.23813 11.40203,-0.11776 33.28833,-3.03697 58.59743,-25.18693 56.41295,-49.42508 -2.18444,-24.23815 -31.04072,-41.44651 -64.32905,-38.40957 -1.56039,0.14236 -3.08863,0.19619 -4.61168,0.42073 z"
       id="path6145"
       style="fill:url(#radialGradient2897);fill-opacity:1;fill-rule:evenodd;stroke:url(#linearGradient2899);stroke-width:0.99525023;stroke-linecap:butt;stroke-linejoin:round;stroke-miterlimit:4;stroke-opacity:1;stroke-dasharray:none;stroke-dashoffset:0;marker:none;visibility:visible;display:inline;overflow:visible;enable-background:new" />
    <path
       d="m 71.3125,-69.65625 c -3.941052,-0.225068 -7.971731,-0.126066 -12.09375,0.25 -1.55387,0.141766 -3.057548,0.215625 -4.5625,0.4375 -15.337102,2.261172 -28.653766,8.678592 -37.90625,17.375 -9.2522962,8.696231 -14.4666017,19.706103 -13.4375,31.125 1.3325561,14.7859747 12.776104,26.9748029 29.03125,33.40625 l 0.40625,-1 0.375,-1.03125 c -0.01082,-0.004 0.197908,0.09872 0.1875,0.09375 -0.01041,-0.005 0.197414,0.09964 0.1875,0.09375 -0.0099,-0.0059 0.19684,0.131766 0.1875,0.125 -0.0093,-0.0068 0.164938,0.132585 0.15625,0.125 -0.0087,-0.0076 0.164214,0.164591 0.15625,0.15625 -0.008,-0.0083 0.132175,0.165279 0.125,0.15625 -0.0072,-0.009 0.131327,0.165892 0.125,0.15625 -0.0063,-0.0096 0.09918,0.197676 0.09375,0.1875 -0.0054,-0.01018 0.09823,0.198126 0.09375,0.1875 -0.0045,-0.01063 0.066,0.198489 0.0625,0.1875 -0.0035,-0.01099 0.06499,0.198761 0.0625,0.1875 -0.0025,-0.01126 0.03271,0.23019 0.03125,0.21875 -0.0015,-0.01144 0.03167,0.199025 0.03125,0.1875 -4.16e-4,-0.01153 -6.31e-4,0.230266 0,0.21875 2.77e-4,-0.0051 -0.02649,0.04659 -0.03125,0.09375 A 1.0855538,1.0855538 0 0 0 32.4375,13.0625 l -6,23.25 a 1.0855538,1.0855538 0 0 0 1.6875,1.15625 L 55.5,17.65625 a 1.0855538,1.0855538 0 0 0 0.03125,0 1.0855538,1.0855538 0 0 0 0.03125,0 l 0,0.03125 0.1875,0 c 3.706547,0.177156 7.479956,0.196247 11.34375,-0.15625 16.48673,-1.504158 31.002262,-7.7750061 41.125,-16.625 10.12285,-8.8500797 15.86068,-20.335176 14.78125,-32.3125 -0.9445,-10.480119 -6.99398,-19.634761 -16.21875,-26.375 -9.227257,-6.742061 -21.674739,-11.087242 -35.46875,-11.875 z M 55.46875,15.5 c 0.05208,0 0.15625,0.02083 0.15625,0.03125 a 1.0855538,1.0855538 0 0 0 -0.4375,0.1875 1.0855538,1.0855538 0 0 0 -0.75,0.0625 c 0.04628,-0.0242 0.07627,-0.06911 0.0625,-0.0625 -0.02459,0.0118 0.181622,-0.07252 0.15625,-0.0625 -0.02537,0.01002 0.182271,-0.03944 0.15625,-0.03125 -0.02602,0.0082 0.182788,-0.06882 0.15625,-0.0625 -0.02654,0.0063 0.18317,-0.03566 0.15625,-0.03125 -0.02692,0.0044 0.183416,-0.0025 0.15625,0 -0.02717,0.0025 0.214774,-0.0318 0.1875,-0.03125 z"
       id="path3123"
       style="fill:url(#radialGradient3125);fill-opacity:1;fill-rule:evenodd;stroke:none;stroke-width:0.99525028;marker:none;visibility:visible;display:inline;overflow:visible;enable-background:new"
       transform="translate(125.41424,287.51971)" />
    <path
       transform="matrix(0.99894582,0,0,0.99854012,125.48211,287.48025)"
       d="m 71.375,-69.59375 c -3.931991,-0.224546 -7.978536,-0.156687 -12.09375,0.21875 -1.599372,0.145914 -3.11237,0.192461 -4.5625,0.40625 -15.308351,2.25688 -28.599322,8.664208 -37.78125,17.3125 C 7.7555715,-43.007958 2.7076839,-32.187265 3.71875,-20.96875 5.0283408,-6.437932 16.192603,5.5974849 32.375,12 a 0.93864534,0.93864534 0 0 1 0.5625,1.09375 l -5.53125,21.5625 a 0.93864534,0.93864534 0 0 1 0,0.0625 c 0,0 -0.121567,0.402481 -0.15625,0.875 -0.03468,0.472519 0.08554,0.836841 0.09375,0.84375 -0.05791,-0.04872 -0.06699,-0.0092 0.09375,-0.03125 0.160745,-0.02203 0.428992,-0.128313 0.6875,-0.25 0.517016,-0.243374 0.96875,-0.5625 0.96875,-0.5625 L 54.9375,16.90625 a 0.93864534,0.93864534 0 0 1 0.4375,-0.1875 l 0.21875,-0.03125 a 0.93864534,0.93864534 0 0 1 0.15625,0 c 3.725747,0.17808 7.447854,0.25598 11.28125,-0.09375 C 83.491129,15.092074 97.956753,8.8632232 108,0.0625 c 10.04325,-8.8007232 15.65462,-20.104045 14.59375,-31.875 -0.92824,-10.299577 -6.80528,-19.318437 -15.9375,-26 C 97.524034,-64.494063 85.139223,-68.807712 71.375,-69.59375 z"
       id="path3078"
       style="opacity:0.4;color:#000000;fill:none;stroke:url(#linearGradient3892-8);stroke-width:0.99650294;stroke-linecap:butt;stroke-linejoin:miter;stroke-miterlimit:4;stroke-opacity:1;stroke-dasharray:none;stroke-dashoffset:0;marker:none;visibility:visible;display:inline;overflow:visible;enable-background:accumulate" />
    <g
       transform="translate(121.0405,201.44701)"
       id="g4060"
       style="display:inline;enable-background:new">
      <path
         id="path4058"
         d="M 80.777658,36.28001 67.519408,49.53826 54.283248,36.3021 44.781508,45.80385 58.017658,59.04 44.781508,72.27616 54.283248,81.77791 67.519408,68.54175 80.777658,81.8 90.279408,72.29826 77.021158,59.04 90.279408,45.78175 80.777658,36.28001 z"
         style="color:#000000;fill:#505050;fill-opacity:1;fill-rule:nonzero;stroke:none;stroke-width:0.99999994;marker:none;visibility:visible;display:inline;overflow:visible;enable-background:accumulate" />
      <path
         style="color:#000000;fill:#ffffff;fill-opacity:1;fill-rule:nonzero;stroke:none;stroke-width:0.99999994;marker:none;visibility:visible;display:inline;overflow:visible;enable-background:accumulate"
         d="m 80.777658,37.28036 -13.25825,13.25825 -13.23616,-13.23616 -9.50174,9.50175 13.23615,13.23615 -13.23615,13.23616 9.50174,9.50175 13.23616,-13.23616 13.25825,13.25825 9.50175,-9.50174 -13.25825,-13.25826 13.25825,-13.25825 -9.50175,-9.50174 z"
         id="rect4030" />
      <path
         style="opacity:0.07000002;color:#000000;fill:none;stroke:url(#linearGradient4065);stroke-width:0.99999994;stroke-linecap:square;stroke-linejoin:miter;stroke-miterlimit:4;stroke-opacity:1;stroke-dasharray:none;stroke-dashoffset:0;marker:none;visibility:visible;display:inline;overflow:visible;enable-background:accumulate"
         id="path4054"
         d="m 80.78125,38.15625 -12.8125,12.8125 a 0.6187802,0.6187802 0 0 1 -0.875,0 l -12.8125,-12.78125 -8.625,8.625 12.8125,12.78125 a 0.6187802,0.6187802 0 0 1 0,0.875 l -12.8125,12.8125 8.625,8.625 12.8125,-12.8125 a 0.6187802,0.6187802 0 0 1 0.875,0 l 12.8125,12.84375 8.625,-8.625 -12.8125,-12.84375 a 0.6187802,0.6187802 0 0 1 0,-0.875 l 12.8125,-12.8125 -8.625,-8.625 z" />
    </g>
  </g>
</svg>
