<?xml version="1.0" encoding="UTF-8" standalone="no"?>
<svg xmlns:rdf="http://www.w3.org/1999/02/22-rdf-syntax-ns#" xmlns="http://www.w3.org/2000/svg" height="128" width="128" version="1.1" xmlns:cc="http://creativecommons.org/ns#" xmlns:xlink="http://www.w3.org/1999/xlink" xmlns:dc="http://purl.org/dc/elements/1.1/">
 <defs>
  <radialGradient id="e" cx="4.993" gradientUnits="userSpaceOnUse" cy="43.5" r="2.5" gradientTransform="matrix(2.0038 0 0 1.4 27.988 -17.4)">
   <stop stop-color="#181818" offset="0"/>
   <stop stop-color="#181818" stop-opacity="0" offset="1"/>
  </radialGradient>
  <radialGradient id="d" cx="4.993" gradientUnits="userSpaceOnUse" cy="43.5" r="2.5" gradientTransform="matrix(2.0038 0 0 1.4 -20.012 -104.4)">
   <stop stop-color="#181818" offset="0"/>
   <stop stop-color="#181818" stop-opacity="0" offset="1"/>
  </radialGradient>
  <linearGradient id="m" x1="25.058" gradientUnits="userSpaceOnUse" y1="47.028" x2="25.058" y2="39.999">
   <stop stop-color="#181818" stop-opacity="0" offset="0"/>
   <stop stop-color="#181818" offset=".5"/>
   <stop stop-color="#181818" stop-opacity="0" offset="1"/>
  </linearGradient>
  <linearGradient id="g" x1="24.627" gradientUnits="userSpaceOnUse" y1="3.1234" gradientTransform="matrix(2.6647 0 0 4.0926 4.3539 -10.572)" x2="24.64" y2="4.8826">
   <stop stop-color="#f5f5f5" offset="0"/>
   <stop stop-color="#e1e1e1" offset="1"/>
  </linearGradient>
  <linearGradient id="f" x1="5.2123" gradientUnits="userSpaceOnUse" y1=".065302" gradientTransform="matrix(1.901 0 0 1.9881 6.8244 .040828)" x2="54.887" y2=".065302">
   <stop stop-color="#e58a00" offset="0"/>
   <stop stop-color="#c37500" offset=".95971"/>
   <stop stop-color="#c2c2c2" offset=".96326"/>
   <stop stop-color="#c2c2c2" offset="1"/>
  </linearGradient>
  <linearGradient id="i" x1="10.654" gradientUnits="userSpaceOnUse" y1="1" gradientTransform="matrix(2.6 0 0 2.75 .59932 .12492)" x2="10.654" y2="3">
   <stop stop-color="#f5f5f5" offset="0"/>
   <stop stop-color="#e1e1e1" offset="1"/>
  </linearGradient>
  <linearGradient id="h" x1="24" gradientUnits="userSpaceOnUse" y1="44" gradientTransform="matrix(2.6 0 0 .28205 5.8 .23077)" x2="24" y2="3.899">
   <stop stop-color="#272727" offset="0"/>
   <stop stop-color="#454545" offset="1"/>
  </linearGradient>
  <radialGradient id="a" gradientUnits="userSpaceOnUse" cy="8.5565" cx="32.5" gradientTransform="matrix(0 5.5869 -6.6685 0 121.9 -172.96)" r="23.5">
   <stop stop-color="#f90" offset="0"/>
   <stop stop-color="#e58a00" offset="1"/>
  </radialGradient>
  <linearGradient id="j" y2="60.876" gradientUnits="userSpaceOnUse" x2="32.256" gradientTransform="matrix(1.8829 0 0 1.9603 4.5863 -.17008)" y1="4.6832" x1="32.256">
   <stop stop-color="#e58a00" offset="0"/>
   <stop stop-color="#c37500" offset="1"/>
  </linearGradient>
  <radialGradient id="c" cx="7.4957" gradientUnits="userSpaceOnUse" cy="8.4498" r="20" gradientTransform="matrix(5.0514e-8 6.5316 -6.4279 -1.2034e-7 122.51 -37.831)">
   <stop stop-color="#5f5f5f" offset="0"/>
   <stop stop-color="#4f4f4f" offset=".26238"/>
   <stop stop-color="#3b3b3b" offset=".70495"/>
   <stop stop-color="#2b2b2b" offset="1"/>
  </radialGradient>
  <linearGradient id="k" x1="24" gradientUnits="userSpaceOnUse" y1="44" gradientTransform="matrix(2.6 0 0 2.7949 5.8 -3.0769)" x2="24" y2="3.899">
   <stop stop-color="#272727" offset="0"/>
   <stop stop-color="#454545" offset="1"/>
  </linearGradient>
  <linearGradient id="l" x1="24" gradientUnits="userSpaceOnUse" y1="5" gradientTransform="matrix(2.4595 0 0 2.8919 4.973 -5.4054)" x2="24" y2="43">
   <stop stop-color="#fff" offset="0"/>
   <stop stop-color="#fff" stop-opacity=".23529" offset=".027065"/>
   <stop stop-color="#fff" stop-opacity=".15686" offset=".97377"/>
   <stop stop-color="#fff" stop-opacity=".39216" offset="1"/>
  </linearGradient>
  <radialGradient id="b" cx="64.389" gradientUnits="userSpaceOnUse" cy="114.83" r="52.5" gradientTransform="matrix(1.3333 0 0 .081997 -20.352 -3.9241)">
   <stop offset="0"/>
   <stop stop-opacity="0" offset="1"/>
  </radialGradient>
 </defs>
 <g transform="matrix(2.65 0 0 1.4444 0.4 55.111)">
  <g opacity=".4" transform="matrix(1.0526 0 0 1.2857 -1.2632 -13.429)">
   <rect height="7" width="5" y="40" x="38" fill="url(#e)"/>
   <rect transform="scale(-1)" height="7" width="5" y="-47" x="-10" fill="url(#d)"/>
   <rect height="7" width="28" y="40" x="10" fill="url(#m)"/>
  </g>
 </g>
 <path stroke-linejoin="round" d="m109.49 10.365c-0.78-2.6377-0.29-6.3409-0.73-8.8563h-80.254l0.47367 7.9826" stroke="url(#f)" stroke-miterlimit="0" stroke-width="1.0174" fill="url(#g)"/>
 <path stroke-linejoin="round" style="color:#000000" d="m30.5 12.5h-10.4c-1.4842 0-2.6-0.11642-2.6-0.26829v-8.1455c0-1.9362 0.644-2.5865 2.547-2.5865h10.453" stroke="url(#h)" stroke-linecap="round" fill="url(#i)"/>
 <rect stroke-linejoin="round" rx="2" ry="2" height="108.98" width="91.302" stroke="url(#j)" stroke-linecap="round" stroke-miterlimit="0" y="9.4937" x="19.188" stroke-width="1.019" fill="url(#a)"/>
 <path stroke-linejoin="round" style="color:#000000" d="m30.5 9.5v109h-10.729c-1.4842 0-2.2711-0.87542-2.2711-2.3803v-106.62z" stroke="url(#k)" stroke-linecap="round" fill="url(#c)"/>
 <rect opacity=".5" stroke-linejoin="round" rx="1" ry="1" height="107" width="91" stroke="url(#l)" stroke-linecap="round" y="10.5" x="18.5" fill="none"/>
 <path opacity=".1" d="m18 3.5h91.443m-91.443 2h91.495m-91.495 2h91.43" stroke="url(#b)" stroke-width="1px" fill="none"/>
 <path opacity=".05" stroke-linejoin="round" d="m70.174 34.076c-6.4956 0.38288-13.372 3.1814-14.902 11.209-0.25142 1.017 0.51287 1.4004 1.0215 1.5312l7.1328 0.89258c0.76546-0.13141 1.1459-0.76455 1.2715-1.4043 0.63984-2.7998 2.9306-4.2 5.4785-4.457h0.51172c5.4698 0.4886 5.3127 4.1531 5.3027 8.2305-1.6565 0.13124-3.9035 0.30384-5.8145 0.56055-2.929 0.377-5.859 0.892-8.279 2.035-4.713 1.914-7.898 5.987-7.898 11.975 0 7.5191 4.8405 11.338 10.953 11.338 2.0395 0 3.695-0.25189 5.2207-0.63477 2.4222-0.76557 4.4618-2.1665 6.8809-4.7148 1.4025 1.9138 1.781 2.8056 4.2031 4.8398 0.63721 0.25723 1.2748 0.25788 1.7832-0.125 1.5281-1.2741 4.2004-3.5656 5.6055-4.8398 0.63441-0.51412 0.5068-1.2759 0.12695-1.916-1.4025-1.7828-2.8027-3.3118-2.8027-6.7461v-11.467c-0.000005-4.8451 0.3793-9.3028-3.1855-12.611-2.9276-2.6796-7.5149-3.6953-11.08-3.6953h-1.5312zm5.8398 21.887v1.7949c0 2.9312 0.0022 5.2225-1.5234 7.7656-1.406 2.1518-2.6818 3.2852-5.5234 3.5156-2.802 0-4.9648-2.3353-4.9648-5.5234 0.000003-4.0741 3.1176-6.1281 6.1738-7.0195 1.6565-0.38288 3.927-0.5332 5.8379-0.5332zm23.066 24.619c-1.4049 0.01-2.9608 0.18682-4.4297 0.625-1.1003 0.34771-2.0652 0.82586-2.959 1.4453-0.68708 0.48401-0.54841 1.0964 0.13867 1.0312 0.75523-0.14117 1.7203-0.20631 2.8203-0.34766 2.407-0.2008 5.2268-0.27204 5.9141 0.61914 0.95898 1.1676-1.1015 6.2585-1.998 8.459-0.27156 0.68986 0.34557 0.96786 0.96484 0.48438 3.0941-2.6136 4.401-7.3565 4.4688-9.834v-0.41211c0-0.5546-0.13605-0.96126-0.27148-1.168-0.38737-0.47191-2.307-0.91905-4.6484-0.90234zm-62.451 1.3145c-0.61094-0.0182-0.90466 0.66467-0.28906 1.168 8.8691 8.0462 20.559 12.859 33.625 12.859 8.114 0 17.465-2.2697 24.686-6.5996 0.96438-0.55443 1.9228-1.1747 2.8164-1.8594 1.2387-0.89119 0.13911-2.2713-1.0996-1.7227-0.54834 0.20671-1.1679 0.48487-1.7168 0.69141-7.9104 3.0965-16.226 4.541-23.93 4.541-12.24 0-24.066-3.3726-33.625-8.9414-0.16755-0.0897-0.32582-0.13253-0.4668-0.13672z" stroke="#000" stroke-linecap="round" stroke-width="2" fill="none"/>
 <path opacity=".2" d="m70.174 34.076c-6.4956 0.38288-13.372 3.1814-14.902 11.209-0.25142 1.017 0.51287 1.4004 1.0215 1.5312l7.1328 0.89258c0.76546-0.13141 1.1459-0.76455 1.2715-1.4043 0.63984-2.7998 2.9306-4.2 5.4785-4.457h0.51172c5.4698 0.4886 5.3127 4.1531 5.3027 8.2305-1.6565 0.13124-3.9035 0.30384-5.8145 0.56055-2.929 0.377-5.859 0.892-8.279 2.035-4.713 1.914-7.898 5.987-7.898 11.975 0 7.5191 4.8405 11.338 10.953 11.338 2.0395 0 3.695-0.25189 5.2207-0.63477 2.4222-0.76557 4.4618-2.1665 6.8809-4.7148 1.4025 1.9138 1.781 2.8056 4.2031 4.8398 0.63721 0.25723 1.2748 0.25788 1.7832-0.125 1.5281-1.2741 4.2004-3.5656 5.6055-4.8398 0.63441-0.51412 0.5068-1.2759 0.12695-1.916-1.4025-1.7828-2.8027-3.3118-2.8027-6.7461v-11.467c-0.000005-4.8451 0.3793-9.3028-3.1855-12.611-2.9276-2.6796-7.5149-3.6953-11.08-3.6953h-1.5312zm5.8398 21.887v1.7949c0 2.9312 0.0022 5.2225-1.5234 7.7656-1.406 2.1518-2.6818 3.2852-5.5234 3.5156-2.802 0-4.9648-2.3353-4.9648-5.5234 0.000003-4.0741 3.1176-6.1281 6.1738-7.0195 1.6565-0.38288 3.927-0.5332 5.8379-0.5332zm23.066 24.619c-1.4049 0.01-2.9608 0.18682-4.4297 0.625-1.1003 0.34771-2.0652 0.82586-2.959 1.4453-0.68708 0.48401-0.54841 1.0964 0.13867 1.0312 0.75523-0.14117 1.7203-0.20631 2.8203-0.34766 2.407-0.2008 5.2268-0.27204 5.9141 0.61914 0.95898 1.1676-1.1015 6.2585-1.998 8.459-0.27156 0.68986 0.34557 0.96786 0.96484 0.48438 3.0941-2.6136 4.401-7.3565 4.4688-9.834v-0.41211c0-0.5546-0.13605-0.96126-0.27148-1.168-0.38737-0.47191-2.307-0.91905-4.6484-0.90234zm-62.451 1.3145c-0.61094-0.0182-0.90466 0.66467-0.28906 1.168 8.8691 8.0462 20.559 12.859 33.625 12.859 8.114 0 17.465-2.2697 24.686-6.5996 0.96438-0.55443 1.9228-1.1747 2.8164-1.8594 1.2387-0.89119 0.13911-2.2713-1.0996-1.7227-0.54834 0.20671-1.1679 0.48487-1.7168 0.69141-7.9104 3.0965-16.226 4.541-23.93 4.541-12.24 0-24.066-3.3726-33.625-8.9414-0.16755-0.0897-0.32582-0.13253-0.4668-0.13672z"/>
 <path d="m70.174 33.076c-6.496 0.383-13.372 3.182-14.903 11.209-0.251 1.017 0.513 1.401 1.022 1.531l7.133 0.893c0.765-0.131 1.146-0.765 1.271-1.404 0.64-2.8 2.931-4.2 5.479-4.457h0.512c5.469 0.488 5.312 4.153 5.302 8.23-1.656 0.131-3.903 0.304-5.814 0.561-2.928 0.377-5.858 0.892-8.278 2.035-4.713 1.914-7.898 5.987-7.898 11.974 0 7.52 4.84 11.338 10.953 11.338 2.04 0 3.695-0.252 5.221-0.634 2.422-0.766 4.462-2.167 6.881-4.715 1.402 1.914 1.781 2.805 4.203 4.84 0.637 0.257 1.275 0.257 1.783-0.125 1.528-1.275 4.2-3.566 5.605-4.84 0.635-0.514 0.507-1.276 0.127-1.916-1.402-1.783-2.802-3.312-2.802-6.746v-11.467c0-4.845 0.379-9.303-3.186-12.612-2.927-2.679-7.515-3.695-11.08-3.695h-1.531zm5.84 21.887v1.795c0 2.931 0.002 5.222-1.524 7.765-1.406 2.152-2.682 3.286-5.523 3.516-2.802 0-4.965-2.335-4.965-5.523 0-4.074 3.118-6.129 6.174-7.02 1.656-0.383 3.927-0.533 5.838-0.533zm23.066 24.619c-1.405 0.01-2.961 0.187-4.43 0.625-1.1 0.348-2.065 0.826-2.959 1.445-0.687 0.484-0.548 1.097 0.139 1.032 0.755-0.142 1.72-0.207 2.82-0.348 2.407-0.201 5.227-0.272 5.91 0.619 0.96 1.168-1.097 6.259-1.994 8.459-0.271 0.69 0.346 0.968 0.965 0.484 3.099-2.613 4.399-7.356 4.469-9.834v-0.412c0-0.554-0.14-0.961-0.27-1.168-0.39-0.472-2.31-0.919-4.65-0.902zm-62.451 1.314c-0.611-0.018-0.905 0.665-0.289 1.168 8.869 8.047 20.559 12.86 33.625 12.86 8.114 0 17.465-2.27 24.685-6.6 0.965-0.554 1.923-1.175 2.817-1.859 1.239-0.891 0.139-2.272-1.1-1.723-0.548 0.207-1.168 0.485-1.717 0.692-7.91 3.096-16.225 4.541-23.929 4.541-12.241 0-24.066-3.373-33.625-8.942-0.168-0.089-0.326-0.132-0.467-0.137z" fill="#fff"/>
</svg>
