<?xml version="1.0" encoding="UTF-8" standalone="no"?>
<svg xmlns:rdf="http://www.w3.org/1999/02/22-rdf-syntax-ns#" xmlns="http://www.w3.org/2000/svg" height="128" width="128" version="1.1" xmlns:cc="http://creativecommons.org/ns#" xmlns:xlink="http://www.w3.org/1999/xlink" xmlns:dc="http://purl.org/dc/elements/1.1/">
 <defs>
  <linearGradient id="f" y2="42.586" gradientUnits="userSpaceOnUse" x2="24" gradientTransform="matrix(2.4595 0 0 3.1081 4.973 -78.595)" y1="5.5641" x1="24">
   <stop stop-color="#fff" offset="0"/>
   <stop stop-color="#fff" stop-opacity=".23529" offset=".0097436"/>
   <stop stop-color="#fff" stop-opacity=".15686" offset=".98165"/>
   <stop stop-color="#fff" stop-opacity=".39216" offset="1"/>
  </linearGradient>
  <radialGradient id="b" fx="7.2758" gradientUnits="userSpaceOnUse" cy="9.9571" cx="7.8061" gradientTransform="matrix(-4.2959e-7 17.553 -21.502 -5.2689e-7 278.07 -223.53)" r="12.672">
   <stop stop-color="#f8de97" offset="0"/>
   <stop stop-color="#f6ce68" offset=".26238"/>
   <stop stop-color="#f4ba27" offset=".70495"/>
   <stop stop-color="#d89e0c" offset="1"/>
  </radialGradient>
  <linearGradient id="d" y2=".91791" gradientUnits="userSpaceOnUse" x2="25" gradientTransform="matrix(2.6571 0 0 2.6587 .22872 -63.816)" y1="47.935" x1="25">
   <stop stop-color="#b98809" offset="0"/>
   <stop stop-color="#dca10b" offset="1"/>
  </linearGradient>
  <linearGradient id="e" y2="39.999" gradientUnits="userSpaceOnUse" x2="25.058" gradientTransform="matrix(3.1429 0 0 1.2857 -11.429 -2.4286)" y1="47.028" x1="25.058">
   <stop stop-color="#181818" stop-opacity="0" offset="0"/>
   <stop stop-color="#181818" offset=".5"/>
   <stop stop-color="#181818" stop-opacity="0" offset="1"/>
  </linearGradient>
  <radialGradient id="c" gradientUnits="userSpaceOnUse" cy="43.5" cx="4.993" gradientTransform="matrix(2.4045 0 0 1.8 -32.014 -131.8)" r="2.5">
   <stop stop-color="#181818" offset="0"/>
   <stop stop-color="#181818" stop-opacity="0" offset="1"/>
  </radialGradient>
  <radialGradient id="a" gradientUnits="userSpaceOnUse" cy="43.5" cx="4.993" gradientTransform="matrix(2.4045 0 0 1.8 95.986 -24.8)" r="2.5">
   <stop stop-color="#181818" offset="0"/>
   <stop stop-color="#181818" stop-opacity="0" offset="1"/>
  </radialGradient>
 </defs>
 <g transform="translate(0,64)">
  <rect opacity=".4" height="9" width="6" y="49" x="108" fill="url(#a)"/>
  <rect opacity=".4" transform="scale(-1)" height="9" width="6" y="-58" x="-20" fill="url(#c)"/>
  <rect opacity=".4" height="9" width="88" y="49" x="20" fill="url(#e)"/>
  <path stroke-linejoin="round" style="color:#000000" d="m17.5-62.493h93v116.99h-93v-117z" stroke="url(#d)" fill="url(#b)"/>
  <path opacity=".5" stroke-linejoin="round" d="m109.5 53.5h-91v-115h91z" stroke="url(#f)" stroke-linecap="round" fill="none"/>
  <path d="m44-27.996c-4.432 0-8 3.568-8 8v32c0 4.432 3.568 8 8 8h40c4.432 0 8-3.568 8-8v-32c0-4.432-3.568-8-8-8h-40zm-4 12h48v24h-48v-24z" fill="#fff"/>
 </g>
</svg>
