<?xml version="1.0" encoding="UTF-8" standalone="no"?>
<svg xmlns:rdf="http://www.w3.org/1999/02/22-rdf-syntax-ns#" xmlns="http://www.w3.org/2000/svg" height="128" width="128" version="1.1" xmlns:cc="http://creativecommons.org/ns#" xmlns:xlink="http://www.w3.org/1999/xlink" xmlns:dc="http://purl.org/dc/elements/1.1/">
 <defs>
  <radialGradient id="a" cx="5" gradientUnits="userSpaceOnUse" cy="41.5" r="5" gradientTransform="matrix(1.2036 0 0 3.8 -16.018 -202.7)">
   <stop offset="0"/>
   <stop stop-opacity="0" offset="1"/>
  </radialGradient>
  <linearGradient id="f" x1="17.554" gradientUnits="userSpaceOnUse" y1="46" gradientTransform="matrix(4.7016 0 0 3.4545 -46.498 -94.909)" x2="17.554" y2="35">
   <stop stop-opacity="0" offset="0"/>
   <stop offset=".5"/>
   <stop stop-opacity="0" offset="1"/>
  </linearGradient>
  <radialGradient id="b" cx="5" gradientUnits="userSpaceOnUse" cy="41.5" r="5" gradientTransform="matrix(1.2036 0 0 3.8 112.06 -202.7)">
   <stop offset="0"/>
   <stop stop-opacity="0" offset="1"/>
  </radialGradient>
  <linearGradient id="e" x1="24.823" gradientUnits="userSpaceOnUse" y1="15.378" gradientTransform="matrix(3.4711 0 0 4.1495 -17.402 -103.82)" x2="24.997" y2="37.277">
   <stop stop-color="#f5643e" offset="0"/>
   <stop stop-color="#cd3803" offset=".23942"/>
   <stop stop-color="#f5643e" offset=".27582"/>
   <stop stop-color="#cd3803" offset="1"/>
  </linearGradient>
  <linearGradient id="d" x1="15.464" gradientUnits="userSpaceOnUse" y1="7.9757" gradientTransform="matrix(2.7071 0 0 2.6646 -.96978 -63.079)" x2="15.464" y2="45.042">
   <stop stop-color="#cd3803" offset="0"/>
   <stop stop-color="#9e2b02" offset=".23942"/>
   <stop stop-color="#cd3803" offset=".27582"/>
   <stop stop-color="#9e2b02" offset="1"/>
  </linearGradient>
  <linearGradient id="g" x1="24" gradientUnits="userSpaceOnUse" y1="5.5641" gradientTransform="matrix(2.9459 0 0 1.9189 -6.7027 -27.054)" x2="24" y2="43">
   <stop stop-color="#fff" offset="0"/>
   <stop stop-color="#fff" stop-opacity=".23529" offset=".036262"/>
   <stop stop-color="#fff" stop-opacity=".15686" offset=".95056"/>
   <stop stop-color="#fff" stop-opacity=".39216" offset="1"/>
  </linearGradient>
  <linearGradient id="c" x1="24" gradientUnits="userSpaceOnUse" y1="4.3177" gradientTransform="matrix(2.9459 0 0 .59459 -6.7027 -42.77)" x2="24" y2="43">
   <stop stop-color="#fff" offset="0"/>
   <stop stop-color="#fff" stop-opacity=".23529" offset=".083894"/>
   <stop stop-color="#fff" stop-opacity=".15686" offset=".95056"/>
   <stop stop-color="#fff" stop-opacity=".39216" offset="1"/>
  </linearGradient>
 </defs>
 <g transform="translate(0,64)">
  <rect opacity=".3" transform="scale(-1)" height="38" width="6" y="-64" x="-10" fill="url(#a)"/>
  <rect opacity=".3" height="38" width="108.14" y="26" x="9.9211" fill="url(#f)"/>
  <rect opacity=".3" transform="scale(1,-1)" height="38" width="6" y="-64" x="118.08" fill="url(#b)"/>
  <path style="color:#000000" d="m23.423-40.43h79.853c4.6615 0 6.7594-0.76354 8.0984 2.6646l8.1259 21.317v68.411c0 4.1389 0.27864 3.5066-4.3829 3.5066h-102.23c-4.6616 0-4.3829 0.63239-4.3829-3.5066v-68.411l8.1259-21.317c1.3016-3.3589 2.1352-2.6646 6.7967-2.6646z" display="block" stroke="url(#d)" stroke-linecap="round" stroke-width=".99420" fill="url(#e)"/>
  <path opacity=".3" stroke-linejoin="round" d="m118.5 54.5h-109v-71h109z" stroke="url(#g)" stroke-linecap="round" fill="none"/>
  <path opacity=".2" stroke-linejoin="round" d="m9.5-17.5 9.1591-22h90.682l9.1591 22" stroke="url(#c)" stroke-linecap="round" fill="none"/>
 </g>
 <g opacity=".05" stroke-linejoin="round" transform="translate(0 1)" stroke="#000" stroke-width="2">
  <path d="m49.12 96-5.7861-16.377h4.6729l2.71 9.3311q0.24902 0.83496 0.4248 1.7432 0.19043 0.89355 0.23438 1.6113h0.08789q0.04395-0.77637 0.21973-1.6406 0.19043-0.87891 0.43945-1.7139l2.6953-9.3311h4.6875l-5.786 16.377h-4.6z"/>
  <path d="m66.669 96.293q-1.2598 0-2.2998-0.54199t-1.7871-1.5967q-0.74707-1.0693-1.1719-2.6514-0.41016-1.582-0.41016-3.6621 0-2.1094 0.41016-3.6914 0.4248-1.5967 1.1865-2.666 0.77637-1.084 1.8457-1.626 1.0693-0.54199 2.3584-0.54199 0.79102 0 1.4502 0.19043 0.65918 0.17578 1.1865 0.5127 0.52734 0.32226 0.9375 0.76172 0.4248 0.4248 0.74707 0.9375h0.14648q-0.08789-0.57129-0.16113-1.1572-0.07324-0.49805-0.13184-1.0547-0.04395-0.57129-0.04395-1.0547v-5.2441h4.4678v22.793h-3.4131l-0.86426-2.124h-0.19043q-0.30762 0.49805-0.70312 0.95215-0.39551 0.43945-0.92285 0.76172-0.5127 0.32226-1.1719 0.5127-0.64453 0.19043-1.4648 0.19043zm1.626-3.5596q0.79102 0 1.3477-0.26367 0.55664-0.27832 0.89356-0.82031 0.35156-0.55664 0.5127-1.377 0.17578-0.82031 0.19043-1.9189v-0.4834q0-1.1865-0.14648-2.1094-0.14648-0.92285-0.4834-1.5381-0.33691-0.62988-0.9082-0.95215t-1.4355-0.32227q-1.4062 0-2.0654 1.2744-0.65918 1.2598-0.65918 3.6768t0.65918 3.6328q0.67383 1.2012 2.0947 1.2012z"/>
  <path d="m79.882 75.39q0-0.62988 0.19043-1.04 0.19043-0.4248 0.5127-0.67383 0.33691-0.26367 0.77637-0.36621 0.4541-0.10254 0.95215-0.10254t0.9375 0.10254 0.76172 0.36621q0.33691 0.24902 0.52734 0.67383 0.20508 0.41016 0.20508 1.04 0 0.61524-0.20508 1.04-0.19043 0.4248-0.52734 0.68848-0.32226 0.24902-0.76172 0.36621-0.43945 0.10254-0.9375 0.10254t-0.95215-0.10254q-0.43945-0.11719-0.77637-0.36621-0.32227-0.26367-0.5127-0.68848-0.19043-0.4248-0.19043-1.04zm4.658 20.61h-4.4678v-16.377h4.4678v16.377z"/>
 </g>
 <g opacity=".15" transform="translate(0 1)">
  <path d="m49.12 96-5.7861-16.377h4.6729l2.71 9.3311q0.24902 0.83496 0.4248 1.7432 0.19043 0.89355 0.23438 1.6113h0.08789q0.04395-0.77637 0.21973-1.6406 0.19043-0.87891 0.43945-1.7139l2.6953-9.3311h4.6875l-5.786 16.377h-4.6z"/>
  <path d="m66.669 96.293q-1.2598 0-2.2998-0.54199t-1.7871-1.5967q-0.74707-1.0693-1.1719-2.6514-0.41016-1.582-0.41016-3.6621 0-2.1094 0.41016-3.6914 0.4248-1.5967 1.1865-2.666 0.77637-1.084 1.8457-1.626 1.0693-0.54199 2.3584-0.54199 0.79102 0 1.4502 0.19043 0.65918 0.17578 1.1865 0.5127 0.52734 0.32226 0.9375 0.76172 0.4248 0.4248 0.74707 0.9375h0.14648q-0.08789-0.57129-0.16113-1.1572-0.07324-0.49805-0.13184-1.0547-0.04395-0.57129-0.04395-1.0547v-5.2441h4.4678v22.793h-3.4131l-0.86426-2.124h-0.19043q-0.30762 0.49805-0.70312 0.95215-0.39551 0.43945-0.92285 0.76172-0.5127 0.32226-1.1719 0.5127-0.64453 0.19043-1.4648 0.19043zm1.626-3.5596q0.79102 0 1.3477-0.26367 0.55664-0.27832 0.89356-0.82031 0.35156-0.55664 0.5127-1.377 0.17578-0.82031 0.19043-1.9189v-0.4834q0-1.1865-0.14648-2.1094-0.14648-0.92285-0.4834-1.5381-0.33691-0.62988-0.9082-0.95215t-1.4355-0.32227q-1.4062 0-2.0654 1.2744-0.65918 1.2598-0.65918 3.6768t0.65918 3.6328q0.67383 1.2012 2.0947 1.2012z"/>
  <path d="m79.882 75.39q0-0.62988 0.19043-1.04 0.19043-0.4248 0.5127-0.67383 0.33691-0.26367 0.77637-0.36621 0.4541-0.10254 0.95215-0.10254t0.9375 0.10254 0.76172 0.36621q0.33691 0.24902 0.52734 0.67383 0.20508 0.41016 0.20508 1.04 0 0.61524-0.20508 1.04-0.19043 0.4248-0.52734 0.68848-0.32226 0.24902-0.76172 0.36621-0.43945 0.10254-0.9375 0.10254t-0.95215-0.10254q-0.43945-0.11719-0.77637-0.36621-0.32227-0.26367-0.5127-0.68848-0.19043-0.4248-0.19043-1.04zm4.658 20.61h-4.4678v-16.377h4.4678v16.377z"/>
 </g>
 <g fill="#fff">
  <path d="m49.12 96-5.7861-16.377h4.6729l2.71 9.3311q0.24902 0.83496 0.4248 1.7432 0.19043 0.89355 0.23438 1.6113h0.08789q0.04395-0.77637 0.21973-1.6406 0.19043-0.87891 0.43945-1.7139l2.6953-9.3311h4.6875l-5.786 16.377h-4.6z"/>
  <path d="m66.669 96.293q-1.2598 0-2.2998-0.54199t-1.7871-1.5967q-0.74707-1.0693-1.1719-2.6514-0.41016-1.582-0.41016-3.6621 0-2.1094 0.41016-3.6914 0.4248-1.5967 1.1865-2.666 0.77637-1.084 1.8457-1.626 1.0693-0.54199 2.3584-0.54199 0.79102 0 1.4502 0.19043 0.65918 0.17578 1.1865 0.5127 0.52734 0.32226 0.9375 0.76172 0.4248 0.4248 0.74707 0.9375h0.14648q-0.08789-0.57129-0.16113-1.1572-0.07324-0.49805-0.13184-1.0547-0.04395-0.57129-0.04395-1.0547v-5.2441h4.4678v22.793h-3.4131l-0.86426-2.124h-0.19043q-0.30762 0.49805-0.70312 0.95215-0.39551 0.43945-0.92285 0.76172-0.5127 0.32226-1.1719 0.5127-0.64453 0.19043-1.4648 0.19043zm1.626-3.5596q0.79102 0 1.3477-0.26367 0.55664-0.27832 0.89356-0.82031 0.35156-0.55664 0.5127-1.377 0.17578-0.82031 0.19043-1.9189v-0.4834q0-1.1865-0.14648-2.1094-0.14648-0.92285-0.4834-1.5381-0.33691-0.62988-0.9082-0.95215t-1.4355-0.32227q-1.4062 0-2.0654 1.2744-0.65918 1.2598-0.65918 3.6768t0.65918 3.6328q0.67383 1.2012 2.0947 1.2012z"/>
  <path d="m79.882 75.39q0-0.62988 0.19043-1.04 0.19043-0.4248 0.5127-0.67383 0.33691-0.26367 0.77637-0.36621 0.4541-0.10254 0.95215-0.10254t0.9375 0.10254 0.76172 0.36621q0.33691 0.24902 0.52734 0.67383 0.20508 0.41016 0.20508 1.04 0 0.61524-0.20508 1.04-0.19043 0.4248-0.52734 0.68848-0.32226 0.24902-0.76172 0.36621-0.43945 0.10254-0.9375 0.10254t-0.95215-0.10254q-0.43945-0.11719-0.77637-0.36621-0.32227-0.26367-0.5127-0.68848-0.19043-0.4248-0.19043-1.04zm4.658 20.61h-4.4678v-16.377h4.4678v16.377z"/>
 </g>
</svg>
