<?xml version="1.0" encoding="UTF-8" standalone="no"?>
<svg xmlns:rdf="http://www.w3.org/1999/02/22-rdf-syntax-ns#" xmlns="http://www.w3.org/2000/svg" height="128" width="128" version="1.1" xmlns:cc="http://creativecommons.org/ns#" xmlns:xlink="http://www.w3.org/1999/xlink" xmlns:dc="http://purl.org/dc/elements/1.1/">
 <defs>
  <radialGradient id="a" gradientUnits="userSpaceOnUse" cy="41.5" cx="5" gradientTransform="matrix(1.2036 0 0 3.8 -16.018 -266.7)" r="5">
   <stop offset="0"/>
   <stop stop-opacity="0" offset="1"/>
  </radialGradient>
  <linearGradient id="f" y2="35" gradientUnits="userSpaceOnUse" x2="17.554" gradientTransform="matrix(4.7016 0 0 3.4545 -46.498 -30.909)" y1="46" x1="17.554">
   <stop stop-opacity="0" offset="0"/>
   <stop offset=".5"/>
   <stop stop-opacity="0" offset="1"/>
  </linearGradient>
  <radialGradient id="b" gradientUnits="userSpaceOnUse" cy="41.5" cx="5" gradientTransform="matrix(1.2036 0 0 3.8 112.06 -266.7)" r="5">
   <stop offset="0"/>
   <stop stop-opacity="0" offset="1"/>
  </radialGradient>
  <linearGradient id="e" y2="37.277" gradientUnits="userSpaceOnUse" x2="24.997" gradientTransform="matrix(3.4711 0 0 4.1495 -17.402 -39.823)" y1="15.378" x1="24.823">
   <stop stop-color="#4870ff" offset="0"/>
   <stop stop-color="#1d50df" offset=".23942"/>
   <stop stop-color="#4870ff" offset=".27582"/>
   <stop stop-color="#1d50df" offset="1"/>
  </linearGradient>
  <linearGradient id="d" y2="45.042" gradientUnits="userSpaceOnUse" x2="15.464" gradientTransform="matrix(2.7071 0 0 2.6646 -.96978 .92052)" y1="7.9757" x1="15.464">
   <stop stop-color="#1d50df" offset="0"/>
   <stop stop-color="#173faf" offset=".23942"/>
   <stop stop-color="#1d50df" offset=".27582"/>
   <stop stop-color="#173faf" offset="1"/>
  </linearGradient>
  <linearGradient id="g" y2="43" gradientUnits="userSpaceOnUse" x2="24" gradientTransform="matrix(2.9459 0 0 1.9189 -6.7027 36.946)" y1="5.5641" x1="24">
   <stop stop-color="#fff" offset="0"/>
   <stop stop-color="#fff" stop-opacity=".23529" offset=".036262"/>
   <stop stop-color="#fff" stop-opacity=".15686" offset=".95056"/>
   <stop stop-color="#fff" stop-opacity=".39216" offset="1"/>
  </linearGradient>
  <linearGradient id="c" y2="43" gradientUnits="userSpaceOnUse" x2="24" gradientTransform="matrix(2.9459 0 0 .59459 -6.7027 21.23)" y1="4.3177" x1="24">
   <stop stop-color="#fff" offset="0"/>
   <stop stop-color="#fff" stop-opacity=".23529" offset=".083894"/>
   <stop stop-color="#fff" stop-opacity=".15686" offset=".95056"/>
   <stop stop-color="#fff" stop-opacity=".39216" offset="1"/>
  </linearGradient>
 </defs>
 <rect opacity=".3" transform="scale(-1)" height="38" width="6" y="-128" x="-10" fill="url(#a)"/>
 <rect opacity=".3" height="38" width="108.14" y="90" x="9.9211" fill="url(#f)"/>
 <rect opacity=".3" transform="scale(1,-1)" height="38" width="6" y="-128" x="118.08" fill="url(#b)"/>
 <path style="color:#000000" d="m23.423 23.57h79.853c4.6615 0 6.7594-0.76354 8.0984 2.6646l8.1259 21.317v68.411c0 4.1389 0.27864 3.5066-4.3829 3.5066h-102.23c-4.6616 0-4.3829 0.63239-4.3829-3.5066v-68.411l8.1259-21.317c1.3016-3.3589 2.1352-2.6646 6.7967-2.6646z" display="block" stroke="url(#d)" stroke-linecap="round" stroke-width=".99420" fill="url(#e)"/>
 <path opacity=".3" stroke-linejoin="round" d="m118.5 118.5h-109v-71h109z" stroke="url(#g)" stroke-linecap="round" fill="none"/>
 <path opacity=".2" stroke-linejoin="round" d="m9.5 46.5 9.1591-22h90.682l9.1591 22" stroke="url(#c)" stroke-linecap="round" fill="none"/>
 <g opacity=".05" stroke-linejoin="round" stroke="#000" stroke-width="2">
  <path d="m29.62 97-5.7861-16.377h4.6729l2.71 9.3311q0.24902 0.83496 0.4248 1.7432 0.19043 0.89356 0.23438 1.6113h0.08789q0.04395-0.77637 0.21973-1.6406 0.19043-0.87891 0.43945-1.7139l2.6953-9.3311h4.6875l-5.7861 16.377h-4.5996z"/>
  <path d="m56.412 97h-4.4678v-9.5654q0-1.7725-0.52734-2.6514-0.52734-0.89356-1.6553-0.89356-0.84961 0-1.4209 0.35156-0.55664 0.35156-0.89355 1.04-0.33691 0.68848-0.4834 1.6992-0.14648 1.0107-0.14648 2.3145v7.7051h-4.4678v-16.377h3.4131l0.60059 2.0947h0.24902q0.35156-0.62988 0.83496-1.084 0.49805-0.4541 1.084-0.74707 0.58594-0.29297 1.2451-0.4248 0.65918-0.14648 1.333-0.14648 1.6846 0 2.8564 0.58594 1.1865 0.57129 1.8164 1.8164h0.36621q0.352-0.63 0.85-1.084 0.49805-0.4541 1.0986-0.74707 0.60059-0.29297 1.2598-0.4248 0.67383-0.14648 1.3477-0.14648 2.6367 0 3.9697 1.4355 1.3477 1.4209 1.3477 4.5703v10.679h-4.4824v-9.5654q0-1.7725-0.52734-2.6514-0.52734-0.89356-1.6553-0.89356-1.5967 0-2.2705 1.2744-0.67383 1.2598-0.67383 3.6182v8.2178z"/>
  <path d="m75.411 97.293q-1.2598 0-2.2998-0.54199t-1.7871-1.5967q-0.74707-1.0693-1.1719-2.6514-0.41016-1.582-0.41016-3.6621 0-2.1094 0.41016-3.6914 0.4248-1.5967 1.1865-2.666 0.77637-1.084 1.8457-1.626 1.0693-0.54199 2.3584-0.54199 0.79102 0 1.4502 0.19043 0.65918 0.17578 1.1865 0.5127 0.52734 0.32227 0.9375 0.76172 0.4248 0.4248 0.74707 0.9375h0.14648q-0.08789-0.57129-0.16113-1.1572-0.07324-0.49805-0.13184-1.0547-0.04394-0.57129-0.04394-1.0547v-5.2441h4.4678v22.793h-3.4131l-0.86426-2.124h-0.19043q-0.30762 0.49805-0.70312 0.95215-0.39551 0.43945-0.92285 0.76172-0.5127 0.32227-1.1719 0.5127-0.64453 0.19043-1.4648 0.19043zm1.626-3.5596q0.79102 0 1.3477-0.26367 0.55664-0.27832 0.89355-0.82031 0.35156-0.55664 0.5127-1.377 0.17578-0.82031 0.19043-1.9189v-0.4834q0-1.1865-0.14648-2.1094-0.14648-0.92285-0.4834-1.5381-0.33691-0.62988-0.9082-0.95215-0.57129-0.32226-1.4355-0.32226-1.4062 0-2.0654 1.2744-0.65918 1.2598-0.65918 3.6768t0.65918 3.6328q0.67383 1.2012 2.0947 1.2012z"/>
  <path d="m93.106 88.094 1.6406-2.4902 3.999-4.9805h5.0391l-5.918 7.1045 6.2988 9.2725h-5.1563l-3.9844-6.2988-1.7432 1.2012v5.0977h-4.4678v-22.793h4.4678v10.166l-0.23438 3.7207h0.05859z"/>
 </g>
 <g opacity=".15">
  <path d="m29.62 97-5.7861-16.377h4.6729l2.71 9.3311q0.24902 0.83496 0.4248 1.7432 0.19043 0.89356 0.23438 1.6113h0.08789q0.04395-0.77637 0.21973-1.6406 0.19043-0.87891 0.43945-1.7139l2.6953-9.3311h4.6875l-5.7861 16.377h-4.5996z"/>
  <path d="m56.412 97h-4.4678v-9.5654q0-1.7725-0.52734-2.6514-0.52734-0.89356-1.6553-0.89356-0.84961 0-1.4209 0.35156-0.55664 0.35156-0.89355 1.04-0.33691 0.68848-0.4834 1.6992-0.14648 1.0107-0.14648 2.3145v7.7051h-4.4678v-16.377h3.4131l0.60059 2.0947h0.24902q0.35156-0.62988 0.83496-1.084 0.49805-0.4541 1.084-0.74707 0.58594-0.29297 1.2451-0.4248 0.65918-0.14648 1.333-0.14648 1.6846 0 2.8564 0.58594 1.1865 0.57129 1.8164 1.8164h0.36621q0.352-0.63 0.85-1.084 0.49805-0.4541 1.0986-0.74707 0.60059-0.29297 1.2598-0.4248 0.67383-0.14648 1.3477-0.14648 2.6367 0 3.9697 1.4355 1.3477 1.4209 1.3477 4.5703v10.679h-4.4824v-9.5654q0-1.7725-0.52734-2.6514-0.52734-0.89356-1.6553-0.89356-1.5967 0-2.2705 1.2744-0.67383 1.2598-0.67383 3.6182v8.2178z"/>
  <path d="m75.411 97.293q-1.2598 0-2.2998-0.54199t-1.7871-1.5967q-0.74707-1.0693-1.1719-2.6514-0.41016-1.582-0.41016-3.6621 0-2.1094 0.41016-3.6914 0.4248-1.5967 1.1865-2.666 0.77637-1.084 1.8457-1.626 1.0693-0.54199 2.3584-0.54199 0.79102 0 1.4502 0.19043 0.65918 0.17578 1.1865 0.5127 0.52734 0.32227 0.9375 0.76172 0.4248 0.4248 0.74707 0.9375h0.14648q-0.08789-0.57129-0.16113-1.1572-0.07324-0.49805-0.13184-1.0547-0.04394-0.57129-0.04394-1.0547v-5.2441h4.4678v22.793h-3.4131l-0.86426-2.124h-0.19043q-0.30762 0.49805-0.70312 0.95215-0.39551 0.43945-0.92285 0.76172-0.5127 0.32227-1.1719 0.5127-0.64453 0.19043-1.4648 0.19043zm1.626-3.5596q0.79102 0 1.3477-0.26367 0.55664-0.27832 0.89355-0.82031 0.35156-0.55664 0.5127-1.377 0.17578-0.82031 0.19043-1.9189v-0.4834q0-1.1865-0.14648-2.1094-0.14648-0.92285-0.4834-1.5381-0.33691-0.62988-0.9082-0.95215-0.57129-0.32226-1.4355-0.32226-1.4062 0-2.0654 1.2744-0.65918 1.2598-0.65918 3.6768t0.65918 3.6328q0.67383 1.2012 2.0947 1.2012z"/>
  <path d="m93.106 88.094 1.6406-2.4902 3.999-4.9805h5.0391l-5.918 7.1045 6.2988 9.2725h-5.1563l-3.9844-6.2988-1.7432 1.2012v5.0977h-4.4678v-22.793h4.4678v10.166l-0.23438 3.7207h0.05859z"/>
 </g>
 <g fill="#fff">
  <path d="m29.62 96-5.7861-16.377h4.6729l2.71 9.3311q0.24902 0.83496 0.4248 1.7432 0.19043 0.89355 0.23438 1.6113h0.08789q0.04395-0.77637 0.21973-1.6406 0.19043-0.87891 0.43945-1.7139l2.6953-9.3311h4.6875l-5.786 16.377h-4.5996z"/>
  <path d="m56.412 96h-4.4678v-9.5654q0-1.7725-0.52734-2.6514-0.52734-0.89356-1.6553-0.89356-0.84961 0-1.4209 0.35156-0.55664 0.35156-0.89355 1.04-0.33691 0.68848-0.4834 1.6992-0.14648 1.0107-0.14648 2.3145v7.7051h-4.4678v-16.377h3.4131l0.60059 2.0947h0.24902q0.35156-0.62988 0.83496-1.084 0.49805-0.4541 1.084-0.74707 0.58594-0.29297 1.2451-0.4248 0.65918-0.14648 1.333-0.14648 1.6846 0 2.8564 0.58594 1.1865 0.57129 1.8164 1.8164h0.36621q0.35156-0.62988 0.84961-1.084 0.49805-0.4541 1.0986-0.74707 0.60059-0.29297 1.2598-0.4248 0.67383-0.14648 1.3477-0.14648 2.6367 0 3.9697 1.4355 1.3477 1.4209 1.3477 4.5703v10.679h-4.4824v-9.5654q0-1.7725-0.52734-2.6514-0.52734-0.89356-1.6553-0.89356-1.5967 0-2.2705 1.2744-0.67383 1.2598-0.67383 3.6182v8.2178z"/>
  <path d="m75.411 96.293q-1.2598 0-2.2998-0.54199t-1.7871-1.5967q-0.74707-1.0693-1.1719-2.6514-0.41016-1.582-0.41016-3.6621 0-2.1094 0.41016-3.6914 0.4248-1.5967 1.1865-2.666 0.77637-1.084 1.8457-1.626 1.0693-0.54199 2.3584-0.54199 0.79102 0 1.4502 0.19043 0.65918 0.17578 1.1865 0.5127 0.52734 0.32226 0.9375 0.76172 0.4248 0.4248 0.74707 0.9375h0.14648q-0.08789-0.57129-0.16113-1.1572-0.07324-0.49805-0.13184-1.0547-0.04394-0.57129-0.04394-1.0547v-5.2441h4.4678v22.793h-3.4131l-0.86426-2.124h-0.19043q-0.30762 0.49805-0.70312 0.95215-0.39551 0.43945-0.92285 0.76172-0.5127 0.32226-1.1719 0.5127-0.64453 0.19043-1.4648 0.19043zm1.626-3.5596q0.79102 0 1.3477-0.26367 0.55664-0.27832 0.89355-0.82031 0.35156-0.55664 0.5127-1.377 0.17578-0.82031 0.19043-1.9189v-0.4834q0-1.1865-0.14648-2.1094-0.14648-0.92285-0.4834-1.5381-0.33691-0.62988-0.9082-0.95215t-1.4355-0.32227q-1.4062 0-2.0654 1.2744-0.65918 1.2598-0.65918 3.6768t0.65918 3.6328q0.67383 1.2012 2.0947 1.2012z"/>
  <path d="m93.106 87.094 1.6406-2.4902 3.999-4.9805h5.0391l-5.918 7.1045 6.298 9.272h-5.1563l-3.9844-6.2988-1.7432 1.2012v5.0977h-4.4678v-22.793h4.4678v10.166l-0.23438 3.7207h0.05859z"/>
 </g>
</svg>
