<?xml version="1.0" encoding="UTF-8" standalone="no"?>
<svg xmlns:rdf="http://www.w3.org/1999/02/22-rdf-syntax-ns#" xmlns="http://www.w3.org/2000/svg" height="128" width="128" version="1.1" xmlns:cc="http://creativecommons.org/ns#" xmlns:xlink="http://www.w3.org/1999/xlink" xmlns:dc="http://purl.org/dc/elements/1.1/">
 <defs>
  <radialGradient id="a" cx="5" gradientUnits="userSpaceOnUse" cy="41.5" r="5" gradientTransform="matrix(1.2036 0 0 3.8 -16.018 -202.7)">
   <stop offset="0"/>
   <stop stop-opacity="0" offset="1"/>
  </radialGradient>
  <linearGradient id="f" x1="17.554" gradientUnits="userSpaceOnUse" y1="46" gradientTransform="matrix(4.7016 0 0 3.4545 -46.498 -94.909)" x2="17.554" y2="35">
   <stop stop-opacity="0" offset="0"/>
   <stop offset=".5"/>
   <stop stop-opacity="0" offset="1"/>
  </linearGradient>
  <radialGradient id="b" cx="5" gradientUnits="userSpaceOnUse" cy="41.5" r="5" gradientTransform="matrix(1.2036 0 0 3.8 112.06 -202.7)">
   <stop offset="0"/>
   <stop stop-opacity="0" offset="1"/>
  </radialGradient>
  <linearGradient id="e" x1="24.823" gradientUnits="userSpaceOnUse" y1="15.378" gradientTransform="matrix(3.4711 0 0 4.1495 -17.402 -103.82)" x2="24.997" y2="37.277">
   <stop stop-color="#6ca71c" offset="0"/>
   <stop stop-color="#538607" offset=".23942"/>
   <stop stop-color="#6ca71c" offset=".27582"/>
   <stop stop-color="#538607" offset="1"/>
  </linearGradient>
  <linearGradient id="d" x1="15.464" gradientUnits="userSpaceOnUse" y1="7.9757" gradientTransform="matrix(2.7071 0 0 2.6646 -.96978 -63.079)" x2="15.464" y2="45.042">
   <stop stop-color="#538607" offset="0"/>
   <stop stop-color="#416905" offset=".23942"/>
   <stop stop-color="#538607" offset=".27582"/>
   <stop stop-color="#416905" offset="1"/>
  </linearGradient>
  <linearGradient id="g" x1="24" gradientUnits="userSpaceOnUse" y1="5.5641" gradientTransform="matrix(2.9459 0 0 1.9189 -6.7027 -27.054)" x2="24" y2="43">
   <stop stop-color="#fff" offset="0"/>
   <stop stop-color="#fff" stop-opacity=".23529" offset=".036262"/>
   <stop stop-color="#fff" stop-opacity=".15686" offset=".95056"/>
   <stop stop-color="#fff" stop-opacity=".39216" offset="1"/>
  </linearGradient>
  <linearGradient id="c" x1="24" gradientUnits="userSpaceOnUse" y1="4.3177" gradientTransform="matrix(2.9459 0 0 .59459 -6.7027 -42.77)" x2="24" y2="43">
   <stop stop-color="#fff" offset="0"/>
   <stop stop-color="#fff" stop-opacity=".23529" offset=".083894"/>
   <stop stop-color="#fff" stop-opacity=".15686" offset=".95056"/>
   <stop stop-color="#fff" stop-opacity=".39216" offset="1"/>
  </linearGradient>
 </defs>
 <g transform="translate(0,64)">
  <rect opacity=".3" transform="scale(-1)" height="38" width="6" y="-64" x="-10" fill="url(#a)"/>
  <rect opacity=".3" height="38" width="108.14" y="26" x="9.9211" fill="url(#f)"/>
  <rect opacity=".3" transform="scale(1,-1)" height="38" width="6" y="-64" x="118.08" fill="url(#b)"/>
  <path style="color:#000000" d="m23.423-40.43h79.853c4.6615 0 6.7594-0.76354 8.0984 2.6646l8.1259 21.317v68.411c0 4.1389 0.27864 3.5066-4.3829 3.5066h-102.23c-4.6616 0-4.3829 0.63239-4.3829-3.5066v-68.411l8.1259-21.317c1.3016-3.3589 2.1352-2.6646 6.7967-2.6646z" display="block" stroke="url(#d)" stroke-linecap="round" stroke-width=".99420" fill="url(#e)"/>
  <path opacity=".3" stroke-linejoin="round" d="m118.5 54.5h-109v-71h109z" stroke="url(#g)" stroke-linecap="round" fill="none"/>
  <path opacity=".2" stroke-linejoin="round" d="m9.5-17.5 9.1591-22h90.682l9.1591 22" stroke="url(#c)" stroke-linecap="round" fill="none"/>
 </g>
 <g opacity=".05" stroke-linejoin="round" transform="translate(0 1)" stroke="#000" stroke-width="2">
  <path d="m49.567 82.494q-1.1865 0-1.9775 0.83496-0.77637 0.83496-0.89355 2.6221h5.6982q-0.01465-0.74707-0.19043-1.377-0.17578-0.62988-0.52734-1.084-0.35156-0.46875-0.87891-0.73242-0.52734-0.26367-1.2305-0.26367zm0.57129 13.799q-1.7578 0-3.2373-0.5127t-2.5488-1.5381q-1.0693-1.04-1.6699-2.6074-0.58594-1.582-0.58594-3.7061 0-2.1533 0.54199-3.7646t1.5088-2.6807q0.98145-1.084 2.3438-1.626 1.377-0.54199 3.0469-0.54199 1.626 0 2.9297 0.49805 1.3184 0.4834 2.2266 1.4355 0.92285 0.95215 1.4062 2.3438 0.49805 1.377 0.49805 3.1641v2.168h-9.9902q0.0293 0.9375 0.29297 1.6992 0.27832 0.74707 0.76172 1.2744 0.49805 0.5127 1.1865 0.79102 0.70312 0.27832 1.5967 0.27832 0.74707 0 1.4062-0.07324 0.67383-0.08789 1.3037-0.24902 0.62988-0.16113 1.2451-0.39551 0.61523-0.24902 1.2598-0.57129v3.457q-0.58594 0.30762-1.1865 0.52734-0.58594 0.20508-1.2451 0.35156-0.65918 0.14648-1.4209 0.20508-0.76172 0.07324-1.6699 0.07324z"/>
  <path d="m63.761 87.636-5.2734-8.0127h5.0684l2.7246 4.9219 2.7686-4.9219h5.0684l-5.3467 8.0127 5.581 8.364h-5.068l-3.003-5.303-3.003 5.303h-5.0684l5.5518-8.3643z"/>
  <path d="m83.522 92.733q0.65918 0 1.2451-0.14648 0.60059-0.14648 1.2158-0.36621v3.3252q-0.62988 0.32227-1.5674 0.52734-0.92285 0.21973-2.0215 0.21973-1.0693 0-1.9922-0.24902-0.92285-0.24902-1.5967-0.86426-0.67383-0.62988-1.0693-1.6699-0.38086-1.0547-0.38086-2.6367v-7.8955h-2.1387v-1.8896l2.4609-1.4941 1.2891-3.457h2.8564v3.4863h3.9844v3.3545h-3.9844v7.8955q0 0.95215 0.46875 1.4062 0.46875 0.4541 1.2305 0.4541z"/>
 </g>
 <g opacity=".15" transform="translate(0 1)">
  <path d="m49.567 82.494q-1.1865 0-1.9775 0.83496-0.77637 0.83496-0.89355 2.6221h5.6982q-0.01465-0.74707-0.19043-1.377-0.17578-0.62988-0.52734-1.084-0.35156-0.46875-0.87891-0.73242-0.52734-0.26367-1.2305-0.26367zm0.57129 13.799q-1.7578 0-3.2373-0.5127t-2.5488-1.5381q-1.0693-1.04-1.6699-2.6074-0.58594-1.582-0.58594-3.7061 0-2.1533 0.54199-3.7646t1.5088-2.6807q0.98145-1.084 2.3438-1.626 1.377-0.54199 3.0469-0.54199 1.626 0 2.9297 0.49805 1.3184 0.4834 2.2266 1.4355 0.92285 0.95215 1.4062 2.3438 0.49805 1.377 0.49805 3.1641v2.168h-9.9902q0.0293 0.9375 0.29297 1.6992 0.27832 0.74707 0.76172 1.2744 0.49805 0.5127 1.1865 0.79102 0.70312 0.27832 1.5967 0.27832 0.74707 0 1.4062-0.07324 0.67383-0.08789 1.3037-0.24902 0.62988-0.16113 1.2451-0.39551 0.61523-0.24902 1.2598-0.57129v3.457q-0.58594 0.30762-1.1865 0.52734-0.58594 0.20508-1.2451 0.35156-0.65918 0.14648-1.4209 0.20508-0.76172 0.07324-1.6699 0.07324z"/>
  <path d="m63.761 87.636-5.2734-8.0127h5.0684l2.7246 4.9219 2.7686-4.9219h5.0684l-5.3467 8.0127 5.581 8.364h-5.068l-3.003-5.303-3.003 5.303h-5.0684l5.5518-8.3643z"/>
  <path d="m83.522 92.733q0.65918 0 1.2451-0.14648 0.60059-0.14648 1.2158-0.36621v3.3252q-0.62988 0.32227-1.5674 0.52734-0.92285 0.21973-2.0215 0.21973-1.0693 0-1.9922-0.24902-0.92285-0.24902-1.5967-0.86426-0.67383-0.62988-1.0693-1.6699-0.38086-1.0547-0.38086-2.6367v-7.8955h-2.1387v-1.8896l2.4609-1.4941 1.2891-3.457h2.8564v3.4863h3.9844v3.3545h-3.9844v7.8955q0 0.95215 0.46875 1.4062 0.46875 0.4541 1.2305 0.4541z"/>
 </g>
 <g fill="#fff">
  <path d="m49.567 82.494q-1.1865 0-1.9775 0.83496-0.77637 0.83496-0.89355 2.6221h5.6982q-0.01465-0.74707-0.19043-1.377-0.17578-0.62988-0.52734-1.084-0.35156-0.46875-0.87891-0.73242-0.52734-0.26367-1.2305-0.26367zm0.57129 13.799q-1.7578 0-3.2373-0.5127t-2.5488-1.5381q-1.0693-1.04-1.6699-2.6074-0.58594-1.582-0.58594-3.7061 0-2.1533 0.54199-3.7646t1.5088-2.6807q0.98145-1.084 2.3438-1.626 1.377-0.54199 3.0469-0.54199 1.626 0 2.9297 0.49805 1.3184 0.4834 2.2266 1.4355 0.92285 0.95215 1.4062 2.3438 0.49805 1.377 0.49805 3.1641v2.168h-9.9902q0.0293 0.9375 0.29297 1.6992 0.27832 0.74707 0.76172 1.2744 0.49805 0.5127 1.1865 0.79102 0.70312 0.27832 1.5967 0.27832 0.74707 0 1.4062-0.07324 0.67383-0.08789 1.3037-0.24902 0.62988-0.16113 1.2451-0.39551 0.61523-0.24902 1.2598-0.57129v3.457q-0.58594 0.30762-1.1865 0.52734-0.58594 0.20508-1.2451 0.35156-0.65918 0.14648-1.4209 0.20508-0.76172 0.07324-1.6699 0.07324z"/>
  <path d="m63.761 87.636-5.2734-8.0127h5.0684l2.7246 4.9219 2.7686-4.9219h5.0684l-5.3467 8.0127 5.581 8.364h-5.068l-3.003-5.303-3.003 5.303h-5.0684l5.5518-8.3643z"/>
  <path d="m83.522 92.733q0.65918 0 1.2451-0.14648 0.60059-0.14648 1.2158-0.36621v3.3252q-0.62988 0.32227-1.5674 0.52734-0.92285 0.21973-2.0215 0.21973-1.0693 0-1.9922-0.24902-0.92285-0.24902-1.5967-0.86426-0.67383-0.62988-1.0693-1.6699-0.38086-1.0547-0.38086-2.6367v-7.8955h-2.1387v-1.8896l2.4609-1.4941 1.2891-3.457h2.8564v3.4863h3.9844v3.3545h-3.9844v7.8955q0 0.95215 0.46875 1.4062 0.46875 0.4541 1.2305 0.4541z"/>
 </g>
</svg>
