<?xml version="1.0" encoding="UTF-8" standalone="no"?>
<svg xmlns:rdf="http://www.w3.org/1999/02/22-rdf-syntax-ns#" xmlns="http://www.w3.org/2000/svg" height="128" width="128" version="1.1" xmlns:cc="http://creativecommons.org/ns#" xmlns:xlink="http://www.w3.org/1999/xlink" xmlns:dc="http://purl.org/dc/elements/1.1/">
 <defs>
  <radialGradient id="a" gradientUnits="userSpaceOnUse" cy="41.5" cx="5" gradientTransform="matrix(1.2036 0 0 3.8 -16.018 -202.7)" r="5">
   <stop offset="0"/>
   <stop stop-opacity="0" offset="1"/>
  </radialGradient>
  <linearGradient id="f" y2="35" gradientUnits="userSpaceOnUse" x2="17.554" gradientTransform="matrix(4.7016 0 0 3.4545 -46.498 -94.909)" y1="46" x1="17.554">
   <stop stop-opacity="0" offset="0"/>
   <stop offset=".5"/>
   <stop stop-opacity="0" offset="1"/>
  </linearGradient>
  <radialGradient id="b" gradientUnits="userSpaceOnUse" cy="41.5" cx="5" gradientTransform="matrix(1.2036 0 0 3.8 112.06 -202.7)" r="5">
   <stop offset="0"/>
   <stop stop-opacity="0" offset="1"/>
  </radialGradient>
  <linearGradient id="e" y2="37.277" gradientUnits="userSpaceOnUse" x2="24.997" gradientTransform="matrix(3.4711 0 0 4.1495 -17.402 -103.82)" y1="15.378" x1="24.823">
   <stop stop-color="#198ef0" offset="0"/>
   <stop stop-color="#0275c6" offset=".23942"/>
   <stop stop-color="#198ef0" offset=".27582"/>
   <stop stop-color="#0266ad" offset="1"/>
  </linearGradient>
  <linearGradient id="d" y2="45.042" gradientUnits="userSpaceOnUse" x2="15.464" gradientTransform="matrix(2.7071 0 0 2.6646 -.96978 -63.079)" y1="7.9757" x1="15.464">
   <stop stop-color="#0275c6" offset="0"/>
   <stop stop-color="#014ea3" offset=".23942"/>
   <stop stop-color="#0270be" offset=".27582"/>
   <stop stop-color="#013f83" offset="1"/>
  </linearGradient>
  <linearGradient id="g" y2="43" gradientUnits="userSpaceOnUse" x2="24" gradientTransform="matrix(2.9459 0 0 1.9189 -6.7027 -27.054)" y1="5.5641" x1="24">
   <stop stop-color="#fff" offset="0"/>
   <stop stop-color="#fff" stop-opacity=".23529" offset=".036262"/>
   <stop stop-color="#fff" stop-opacity=".15686" offset=".95056"/>
   <stop stop-color="#fff" stop-opacity=".39216" offset="1"/>
  </linearGradient>
  <linearGradient id="c" y2="43" gradientUnits="userSpaceOnUse" x2="24" gradientTransform="matrix(2.9459 0 0 .59459 -6.7027 -42.77)" y1="4.3177" x1="24">
   <stop stop-color="#fff" offset="0"/>
   <stop stop-color="#fff" stop-opacity=".23529" offset=".083894"/>
   <stop stop-color="#fff" stop-opacity=".15686" offset=".95056"/>
   <stop stop-color="#fff" stop-opacity=".39216" offset="1"/>
  </linearGradient>
 </defs>
 <g transform="translate(0,64)">
  <rect opacity=".3" transform="scale(-1)" height="38" width="6" y="-64" x="-10" fill="url(#a)"/>
  <rect opacity=".3" height="38" width="108.14" y="26" x="9.9211" fill="url(#f)"/>
  <rect opacity=".3" transform="scale(1,-1)" height="38" width="6" y="-64" x="118.08" fill="url(#b)"/>
  <path style="color:#000000" d="m23.423-40.43h79.853c4.6615 0 6.7594-0.76354 8.0984 2.6646l8.1259 21.317v68.411c0 4.1389 0.27864 3.5066-4.3829 3.5066h-102.23c-4.6616 0-4.3829 0.63239-4.3829-3.5066v-68.411l8.1259-21.317c1.3016-3.3589 2.1352-2.6646 6.7967-2.6646z" display="block" stroke="url(#d)" stroke-linecap="round" stroke-width=".99420" fill="url(#e)"/>
  <path opacity=".3" stroke-linejoin="round" d="m118.5 54.5h-109v-71h109z" stroke="url(#g)" stroke-linecap="round" fill="none"/>
  <path opacity=".2" stroke-linejoin="round" d="m9.5-17.5 9.1591-22h90.682l9.1591 22" stroke="url(#c)" stroke-linecap="round" fill="none"/>
 </g>
 <g stroke-linejoin="round" opacity=".05" transform="translate(-9.9068 -13.467)" stroke="#000" stroke-width="2">
  <path d="m45.689 110.17-5.7861-16.377h4.6729l2.71 9.3311q0.24902 0.83496 0.4248 1.7432 0.19043 0.89356 0.23438 1.6113h0.08789q0.04395-0.77636 0.21973-1.6406 0.19043-0.87891 0.43945-1.7139l2.6953-9.3311h4.6875l-5.7861 16.377h-4.5996z"/>
  <path d="m67.149 93.489q1.2598 0 2.2998 0.54199t1.7871 1.6113q0.74707 1.0693 1.1572 2.6514 0.4248 1.582 0.4248 3.6621 0 2.1094-0.4248 3.706-0.41016 1.582-1.1719 2.6514-0.76172 1.0693-1.8311 1.6113-1.0693 0.54199-2.3584 0.54199-0.82031 0-1.4648-0.17578-0.62988-0.17578-1.1279-0.46875-0.49805-0.29297-0.87891-0.65918-0.36621-0.38086-0.67383-0.79102h-0.30762l-0.74707 1.8018h-3.4131v-22.793h4.4678v5.3027q0 0.4834-0.0293 1.0547-0.0293 0.55664-0.05859 1.04-0.04395 0.57129-0.08789 1.1426h0.17578q0.30762-0.5127 0.70312-0.95215 0.39551-0.43945 0.9082-0.76172 0.52734-0.33691 1.1865-0.52734 0.65918-0.19043 1.4648-0.19043zm-1.5088 3.5742q-0.74707 0-1.2744 0.27832-0.5127 0.26367-0.83496 0.80566-0.32227 0.54199-0.46875 1.377-0.14648 0.82032-0.17578 1.9189v0.4834q0 1.1865 0.13184 2.1094 0.14648 0.92286 0.46875 1.5527 0.32226 0.61523 0.84961 0.9375 0.54199 0.32226 1.333 0.32226 1.333 0 1.9482-1.2598 0.62988-1.2744 0.62988-3.6914t-0.62988-3.6182q-0.61523-1.2158-1.9775-1.2158z"/>
  <path d="m80.362 101.96q0 2.4463 0.68848 3.6914 0.68848 1.2305 2.2412 1.2305 1.5381 0 2.2266-1.2451 0.68848-1.2451 0.68848-3.6768 0-2.4463-0.68848-3.6475-0.68848-1.2158-2.2559-1.2158-1.5381 0-2.2266 1.2158-0.67383 1.2012-0.67383 3.6475zm10.4 0q0 2.0508-0.52734 3.6328-0.5127 1.582-1.4941 2.666-0.9668 1.084-2.373 1.6553-1.3916 0.55664-3.1348 0.55664-1.626 0-2.9883-0.55664-1.3623-0.57129-2.3584-1.6553-0.98145-1.084-1.5381-2.666-0.55664-1.582-0.55664-3.6328 0-2.0361 0.5127-3.6182 0.52734-1.582 1.4941-2.6514 0.98144-1.084 2.373-1.6406 1.3916-0.55664 3.1494-0.55664 1.626 0 2.9883 0.55664t2.3438 1.6406q0.99609 1.0693 1.5527 2.6514 0.55664 1.582 0.55664 3.6182z"/>
  <path d="m97.398 101.81-5.273-8.013h5.0684l2.7246 4.9219 2.7686-4.9219h5.0684l-5.3467 8.0127 5.5811 8.3643h-5.0684l-3.0029-5.3027-3.0029 5.3027h-5.0684l5.5518-8.3643z"/>
 </g>
 <g opacity=".15" transform="translate(-9.9068 -13.467)">
  <path d="m45.689 110.17-5.7861-16.377h4.6729l2.71 9.3311q0.24902 0.83496 0.4248 1.7432 0.19043 0.89356 0.23438 1.6113h0.08789q0.04395-0.77636 0.21973-1.6406 0.19043-0.87891 0.43945-1.7139l2.6953-9.3311h4.6875l-5.7861 16.377h-4.5996z"/>
  <path d="m67.149 93.489q1.2598 0 2.2998 0.54199t1.7871 1.6113q0.74707 1.0693 1.1572 2.6514 0.4248 1.582 0.4248 3.6621 0 2.1094-0.4248 3.706-0.41016 1.582-1.1719 2.6514-0.76172 1.0693-1.8311 1.6113-1.0693 0.54199-2.3584 0.54199-0.82031 0-1.4648-0.17578-0.62988-0.17578-1.1279-0.46875-0.49805-0.29297-0.87891-0.65918-0.36621-0.38086-0.67383-0.79102h-0.30762l-0.74707 1.8018h-3.4131v-22.793h4.4678v5.3027q0 0.4834-0.0293 1.0547-0.0293 0.55664-0.05859 1.04-0.04395 0.57129-0.08789 1.1426h0.17578q0.30762-0.5127 0.70312-0.95215 0.39551-0.43945 0.9082-0.76172 0.52734-0.33691 1.1865-0.52734 0.65918-0.19043 1.4648-0.19043zm-1.5088 3.5742q-0.74707 0-1.2744 0.27832-0.5127 0.26367-0.83496 0.80566-0.32227 0.54199-0.46875 1.377-0.14648 0.82032-0.17578 1.9189v0.4834q0 1.1865 0.13184 2.1094 0.14648 0.92286 0.46875 1.5527 0.32226 0.61523 0.84961 0.9375 0.54199 0.32226 1.333 0.32226 1.333 0 1.9482-1.2598 0.62988-1.2744 0.62988-3.6914t-0.62988-3.6182q-0.61523-1.2158-1.9775-1.2158z"/>
  <path d="m80.362 101.96q0 2.4463 0.68848 3.6914 0.68848 1.2305 2.2412 1.2305 1.5381 0 2.2266-1.2451 0.68848-1.2451 0.68848-3.6768 0-2.4463-0.68848-3.6475-0.68848-1.2158-2.2559-1.2158-1.5381 0-2.2266 1.2158-0.67383 1.2012-0.67383 3.6475zm10.4 0q0 2.0508-0.52734 3.6328-0.5127 1.582-1.4941 2.666-0.9668 1.084-2.373 1.6553-1.3916 0.55664-3.1348 0.55664-1.626 0-2.9883-0.55664-1.3623-0.57129-2.3584-1.6553-0.98145-1.084-1.5381-2.666-0.55664-1.582-0.55664-3.6328 0-2.0361 0.5127-3.6182 0.52734-1.582 1.4941-2.6514 0.98144-1.084 2.373-1.6406 1.3916-0.55664 3.1494-0.55664 1.626 0 2.9883 0.55664t2.3438 1.6406q0.99609 1.0693 1.5527 2.6514 0.55664 1.582 0.55664 3.6182z"/>
  <path d="m97.398 101.81-5.273-8.013h5.0684l2.7246 4.9219 2.7686-4.9219h5.0684l-5.3467 8.0127 5.5811 8.3643h-5.0684l-3.0029-5.3027-3.0029 5.3027h-5.0684l5.5518-8.3643z"/>
 </g>
 <g fill="#fff" transform="translate(-9.9068 -14.467)">
  <path d="m45.689 110.17-5.7861-16.377h4.6729l2.71 9.3311q0.24902 0.83496 0.4248 1.7432 0.19043 0.89356 0.23438 1.6113h0.08789q0.04395-0.77636 0.21973-1.6406 0.19043-0.87891 0.43945-1.7139l2.6953-9.3311h4.6875l-5.7861 16.377h-4.5996z"/>
  <path d="m67.149 93.489q1.2598 0 2.2998 0.54199t1.7871 1.6113q0.74707 1.0693 1.1572 2.6514 0.4248 1.582 0.4248 3.6621 0 2.1094-0.4248 3.706-0.41016 1.582-1.1719 2.6514-0.76172 1.0693-1.8311 1.6113-1.0693 0.54199-2.3584 0.54199-0.82031 0-1.4648-0.17578-0.62988-0.17578-1.1279-0.46875-0.49805-0.29297-0.87891-0.65918-0.36621-0.38086-0.67383-0.79102h-0.30762l-0.74707 1.8018h-3.4131v-22.793h4.4678v5.3027q0 0.4834-0.0293 1.0547-0.0293 0.55664-0.05859 1.04-0.04395 0.57129-0.08789 1.1426h0.17578q0.30762-0.5127 0.70312-0.95215 0.39551-0.43945 0.9082-0.76172 0.52734-0.33691 1.1865-0.52734 0.65918-0.19043 1.4648-0.19043zm-1.5088 3.5742q-0.74707 0-1.2744 0.27832-0.5127 0.26367-0.83496 0.80566-0.32227 0.54199-0.46875 1.377-0.14648 0.82032-0.17578 1.9189v0.4834q0 1.1865 0.13184 2.1094 0.14648 0.92286 0.46875 1.5527 0.32226 0.61523 0.84961 0.9375 0.54199 0.32226 1.333 0.32226 1.333 0 1.9482-1.2598 0.62988-1.2744 0.62988-3.6914t-0.62988-3.6182q-0.61523-1.2158-1.9775-1.2158z"/>
  <path d="m80.362 101.96q0 2.4463 0.68848 3.6914 0.68848 1.2305 2.2412 1.2305 1.5381 0 2.2266-1.2451 0.68848-1.2451 0.68848-3.6768 0-2.4463-0.68848-3.6475-0.68848-1.2158-2.2559-1.2158-1.5381 0-2.2266 1.2158-0.67383 1.2012-0.67383 3.6475zm10.4 0q0 2.0508-0.52734 3.6328-0.5127 1.582-1.4941 2.666-0.9668 1.084-2.373 1.6553-1.3916 0.55664-3.1348 0.55664-1.626 0-2.9883-0.55664-1.3623-0.57129-2.3584-1.6553-0.98145-1.084-1.5381-2.666-0.55664-1.582-0.55664-3.6328 0-2.0361 0.5127-3.6182 0.52734-1.582 1.4941-2.6514 0.98144-1.084 2.373-1.6406 1.3916-0.55664 3.1494-0.55664 1.626 0 2.9883 0.55664t2.3438 1.6406q0.99609 1.0693 1.5527 2.6514 0.55664 1.582 0.55664 3.6182z"/>
  <path d="m97.398 101.81-5.273-8.013h5.0684l2.7246 4.9219 2.7686-4.9219h5.0684l-5.3467 8.0127 5.5811 8.3643h-5.0684l-3.0029-5.3027-3.0029 5.3027h-5.0684l5.5518-8.3643z"/>
 </g>
</svg>
